mtllib labeled.mtl
v -0.004599 0.004995 -0.049037
v 0.004599 0.004995 -0.049037
v 0.004599 0.007869 -0.049037
v -0.004599 0.007869 -0.049037
v -0.004599 0.004995 -0.016527
v 0.004599 0.004995 -0.016527
v 0.004599 0.007869 -0.016527
v -0.004599 0.007869 -0.016527
v -0.009205 -0.004995 -0.070676
v 0.009205 -0.004995 -0.070676
v 0.009205 0.004995 -0.070676
v -0.009205 0.004995 -0.070676
v -0.009205 -0.004995 0.070676
v 0.009205 -0.004995 0.070676
v 0.009205 0.004995 0.070676
v -0.009205 0.004995 0.070676
usemtl red
f 1 4 3 2
f 5 6 7 8
usemtl gray
f 1 2 6 5
usemtl green
f 3 4 8 7
usemtl red
f 2 3 7 6
f 1 5 8 4
f 9 12 11 10
f 13 14 15 16
usemtl blue
f 9 10 14 13
usemtl red
f 11 12 16 15
f 10 11 15 14
f 9 13 16 12
