v -0.04803407192 -0.001399744651 0.1720000207
v -0.04802419245 -0.002908399794 0.2428361624
v -0.04796291515 -0.003078136127 0.2510443032
v -0.04793877155 0.00435800571 0.2427827865
v -0.04790136963 0.003927784972 0.250977993
v -0.04776544496 -0.003257189179 0.2595783174
v -0.04776197299 0.003498661099 0.25951159
v -0.0474598296 0.003070699284 0.2683628798
v -0.04737664759 0.008200384676 0.1720000207
v -0.0471320115 -0.01003714651 0.2508657575
v -0.04711744189 -0.01011401042 0.242697984
v -0.04701135308 0.01095411927 0.250685215
v -0.04674835503 -0.0108405333 0.1720000207
v -0.04565613344 -0.00619282946 0.3143203855
v -0.04565225169 0.001359500922 0.3144451678
v -0.04564192519 0.008884546347 0.3138687611
v -0.04563385248 -0.01361647993 0.313408792
v -0.0455981493 0.01638511755 0.312474966
v -0.04536288604 -0.02093085274 0.3118019402
v -0.04517436773 0.02378041856 0.310336262
v -0.04508042336 0.01666288823 0.3214181662
v -0.04505171999 -0.006823330186 0.3230640888
v -0.04505049065 -0.01459494792 0.3221846819
v -0.04504745454 0.001037125941 0.3232029974
v -0.04504726827 0.008882579394 0.3226627707
v -0.04493905976 -0.02217770554 0.320633173
v -0.04487840459 0.02423880436 0.3195017576
v -0.04471654817 0.01750992611 0.1720000207
v -0.04428238049 -0.02960824221 0.3183630705
v -0.04390468821 0.03164421394 0.3168641031
v -0.04389887676 0.02423753031 0.3290390968
v -0.04388447478 0.01654605381 0.3305372894
v -0.04380964488 -0.01522515807 0.3310247958
v -0.04379750416 0.008693127893 0.3314753771
v -0.04379060492 -0.02299680375 0.3297656775
v -0.04378115386 -0.0198099222 0.1720000207
v -0.04376480356 -0.007282060571 0.3317416906
v -0.04375191778 0.0007006359519 0.3318808973
v -0.04348657653 -0.03050166741 0.3278749585
v -0.04342278093 0.03158612177 0.3269927204
v -0.04281377792 -0.03626244888 0.3156508207
v -0.04265840352 -0.03702038899 0.3257181644
v -0.04239538312 0.03806518763 0.3246516585
v -0.04180094972 0.02370418794 0.3387680948
v -0.04175405577 -0.02327437326 0.339078486
v -0.04173922911 0.03095902503 0.337423861
v -0.04171628132 0.01607576199 0.3397786319
v -0.04167160764 -0.0307453759 0.3377160132
v -0.04166044667 -0.0155031886 0.3400130868
v -0.04160623625 0.008278204128 0.3404327333
v -0.04157461971 -0.007602016442 0.3405620754
v -0.04155007005 0.0003547783708 0.340700686
v -0.04137173668 0.03743224218 0.3358612061
v -0.04133797809 -0.03714547679 0.3361760974
v -0.04130700603 -0.04200785607 0.3239115775
v -0.04095912352 0.04313666746 0.3227585554
v -0.04073454067 0.04250938818 0.334510833
v -0.04068952426 -0.04183938727 0.3348520696
v -0.04029346257 0.02616801672 0.1720000207
v -0.03946674615 0.04618743435 0.3335230947
v -0.03917932138 -0.04572500288 0.3337814212
v -0.03905980289 -0.02795713767 0.1720000207
v -0.03883810714 0.04681041092 0.3216795325
v -0.03853210807 -0.0306244567 0.3474777937
v -0.03850318119 -0.0368639864 0.3464593291
v -0.03848894686 0.03013878316 0.347618103
v -0.03847068176 -0.02329861 0.3483982086
v -0.03843927383 0.0229743626 0.3484436572
v -0.03841744736 0.03654125705 0.3466642797
v -0.03834015504 0.01549656317 0.3490796685
v -0.03833569586 -0.01561739761 0.3490748405
v -0.0382325314 0.007821480744 0.3494844735
v -0.03822986782 -0.007814212702 0.3494924307
v -0.03821174428 -0.04155445844 0.3455109894
v -0.03820939362 0.04165323079 0.3457964957
v -0.03819283471 1.726974733e-05 0.3496294618
v -0.03748622909 0.04543525726 0.344971776
v -0.03741581365 0.04831773043 0.3328114152
v -0.03724958003 -0.04543025419 0.3445633352
v -0.03629998118 0.0486596562 0.3213259578
v -0.03583279252 0.04792194068 0.3440361917
v -0.03489734605 0.04925219715 0.3322221637
v -0.03405120224 0.03371607512 0.1720000207
v -0.03387981281 -0.0364882201 0.3560898304
v -0.03384517133 -0.03037050925 0.3567953706
v -0.03383781016 -0.04126293957 0.3554483652
v -0.03372121975 -0.02323381975 0.3574333191
v -0.03369356692 -0.05880220234 0.3310790658
v -0.03361006826 0.02943454683 0.357236445
v -0.03360274062 0.03580166772 0.3566280007
v -0.03358158842 -0.01566180773 0.3579351902
v -0.0335758999 0.04925189912 0.3429797292
v -0.03354788572 0.02235590667 0.3577342629
v -0.03353045136 0.04925220087 0.3213087618
v -0.03348374739 0.0410094671 0.3560450077
v -0.03347367793 0.01497498155 0.3581175506
v -0.03347059339 -0.04515392706 0.3547309935
v -0.03346425295 -0.007980820723 0.3582633734
v -0.0334123075 0.007400306873 0.3583496213
v -0.03340107203 -0.0002677877201 0.3583989739
v -0.03298684582 0.04478720576 0.3553721011
v -0.03279076144 -0.03496526554 0.1720000207
v -0.03271953389 -0.05880220234 0.3411929607
v -0.03218279779 -0.05880220234 0.3209868968
v -0.03172505647 0.0475320816 0.35431692
v -0.0297595039 0.04923954606 0.352927357
v -0.02952492982 -0.05880220234 0.3506686091
v -0.0286549516 -0.05880219862 0.311316222
v -0.02756408229 -0.03613850102 0.3648149371
v -0.02754672244 -0.04095898941 0.364313215
v -0.02749386802 -0.03006220795 0.3653208017
v -0.02737711743 -0.02310169116 0.3658082485
v -0.02723081037 -0.01567320898 0.3661940098
v -0.02720448747 -0.04476149008 0.3636085689
v -0.02709657699 -0.008108929731 0.3664529324
v -0.02700458281 -0.0005134018138 0.36658144
v -0.02699126489 0.02892513201 0.3658734262
v -0.02698600851 0.02188237384 0.3662046194
v -0.0269735083 0.007056708448 0.366589278
v -0.02697279118 0.01454740576 0.3664530516
v -0.02696171775 0.03536293283 0.3654692173
v -0.02691472881 0.04075522348 0.3650850356
v -0.02667435072 0.04443056136 0.3646125793
v -0.02641167492 0.03999802843 0.1720000207
v -0.02574981377 0.04734103009 0.3635315895
v -0.02526619099 -0.04074586928 0.1720000207
v -0.02430710383 -0.05880220607 0.3590276837
v -0.02382696047 0.04922623932 0.3616367877
v -0.02256684564 -0.05880219489 0.3026285768
v -0.0198390428 0.05235219374 0.3301517069
v -0.01957253739 -0.0407788679 0.3717478812
v -0.01953584701 -0.03583256155 0.3721448481
v -0.01943904534 -0.0298062209 0.3725497425
v -0.01939074323 -0.04460423067 0.3711486757
v -0.01932902075 -0.02295759134 0.3729596436
v -0.01930776052 0.05235219374 0.3378201425
v -0.01918337867 -0.01566106454 0.3732746243
v -0.01903742552 -0.008208698593 0.373483777
v -0.01892936416 -0.0007163376431 0.373609513
v -0.01886454597 0.006768013351 0.3736490607
v -0.01883076131 0.01419532765 0.3735821843
v -0.01878435165 0.0214984268 0.3733815253
v -0.01874212548 0.02853602543 0.3731300235
v -0.01868663169 0.03494688869 0.3728238344
v -0.01862780936 0.04031031206 0.3725209236
v -0.01845406182 0.04407338053 0.3721239865
v -0.01838772371 0.05235219374 0.3225754201
v -0.01779974438 0.04710362479 0.3711418509
v -0.01751386747 -0.05880220234 0.3661381006
v -0.01743030548 0.04450270906 0.1720000207
v -0.01689942367 0.05235219002 0.3450072408
v -0.01654577628 -0.0449157767 0.1720000207
v -0.01615527086 0.04922079295 0.3686996996
v -0.01505190693 0.05235219374 0.315539062
v -0.01401543058 -0.05880219862 0.2953097522
v -0.01287080161 0.05235219002 0.3512879908
v -0.01016897708 -0.04059728608 0.3773941696
v -0.01011155546 -0.04450828955 0.3768346906
v -0.01008039154 -0.0356034115 0.3777242005
v -0.009956585243 -0.02961491421 0.3780556917
v -0.00990726985 0.05235219374 0.3095487356
v -0.009811695665 -0.02284387685 0.3783705831
v -0.00965792872 -0.01564450376 0.3786381781
v -0.009497620165 -0.008292941377 0.3788012266
v -0.009365329519 -0.0008862935938 0.3789013326
v -0.00926405564 0.006518088281 0.378936857
v -0.009183691815 0.01388353948 0.3788898587
v -0.00910439156 -0.05880220607 0.3714775145
v -0.009103614837 0.02112313174 0.3787257373
v -0.009027890861 0.0280928202 0.3785169125
v -0.008948577568 0.03440898284 0.3782673776
v -0.008872987702 0.03979092836 0.3780137002
v -0.008738385513 0.04371131957 0.3776528835
v -0.008291477337 0.04701048136 0.376639694
v -0.007585142273 0.0473258011 0.1720000207
v -0.007528578397 0.05235218629 0.3563506901
v -0.007164602634 0.04922037199 0.3738428354
v -0.006927981507 -0.04733099043 0.1719999909
v -0.003294378519 0.05235219747 0.3049875498
v -0.003256938886 -0.05880219862 0.2899475992
v -0.001189214177 0.05235219002 0.3599927425
v -0.001105063129 7.248681504e-05 0.1719999611
v 0.0003202005755 -0.05880220607 0.3750922978
v 0.0003307280131 -0.04041033238 0.3808558285
v 0.0003424328752 -0.04428305104 0.3801997602
v 0.0004461416975 -0.03545542434 0.3811561465
v 0.0005965430755 -0.0294914078 0.381447494
v 0.0007656174712 -0.02277410589 0.3816990852
v 0.0009378169198 -0.0156531781 0.3818995655
v 0.00110673462 -0.008376478218 0.3820261359
v 0.001256333664 -0.001041961135 0.3820944428
v 0.001389934216 0.006300230511 0.3820891678
v 0.001496966695 0.01360734273 0.3820400834
v 0.001600641059 0.02079216205 0.3818787038
v 0.001696973573 0.02770516835 0.3816690743
v 0.001783053158 0.03397854045 0.3814235926
v 0.001862015808 0.03930819035 0.3811784089
v 0.001962115755 0.04342723265 0.3807881474
v 0.002157722833 0.04689478874 0.3797590733
v 0.002707282081 0.04761547595 0.1720000356
v 0.0027359128 0.04922037572 0.3767178059
v 0.003227907699 -0.04769093916 0.1720000505
v 0.004398969933 0.05235219747 0.3022519052
v 0.005788376089 0.05235219002 0.3620491922
v 0.008850957267 -0.05880219862 0.28793028
v 0.01056151278 -0.05880220607 0.3760408759
v 0.01131021138 -0.04420385882 0.3813766837
v 0.01145143621 -0.04033828899 0.3819065094
v 0.01157178544 0.05235219747 0.3325617313
v 0.01159004029 -0.03536716476 0.3821741343
v 0.01175359823 -0.02943499386 0.3824298084
v 0.01192687079 -0.02276958525 0.382643342
v 0.0121037811 -0.01570747979 0.3827853501
v 0.01228001527 -0.008484360762 0.3828899264
v 0.01243535429 -0.001197239384 0.3829308748
v 0.01247118227 0.05235219747 0.3017114401
v 0.01257835701 0.006104125641 0.3828900754
v 0.01269559003 0.01337594818 0.382789731
v 0.01280087605 0.02054207586 0.3826239705
v 0.0128556639 0.04584898427 0.1720000505
v 0.01289769262 0.02744000591 0.3824144602
v 0.0129838232 0.03368127346 0.3821519613
v 0.01299554668 0.04922037199 0.3772763014
v 0.01301464625 0.05235219002 0.362303704
v 0.01305588894 0.0390566811 0.3818997443
v 0.01310257986 0.04679040238 0.3804370165
v 0.01310843974 0.04328752309 0.381518662
v 0.01344043389 -0.04574558884 0.1720000505
v 0.020009147 0.05235219002 0.3608211577
v 0.02007444948 0.05235219747 0.3032132983
v 0.02081651986 -0.05880220607 0.3750984371
v 0.02113160305 -0.05880219862 0.2891342938
v 0.02229410969 0.04200099036 0.1720000505
v 0.02236592025 -0.04426794127 0.3799004853
v 0.02257806435 -0.04038987309 0.3803763688
v 0.02273011394 -0.03537477925 0.3806096911
v 0.0228983853 -0.02948225662 0.380841434
v 0.02307364903 -0.02285273559 0.3810324967
v 0.02309738845 0.04922038317 0.3755885661
v 0.02324060351 -0.04165198654 0.1720000505
v 0.02324413508 -0.01581741683 0.381156683
v 0.02340970747 -0.008626213297 0.3812298775
v 0.02355700731 -0.00136826071 0.3812507987
v 0.02368209325 0.005914208479 0.3811846673
v 0.0237883199 0.01318049617 0.3810577095
v 0.02387765422 0.02035493404 0.380861938
v 0.02391729876 0.04683599994 0.3787156343
v 0.02395665459 0.02728290297 0.380622685
v 0.02401985973 0.03351904824 0.3803408146
v 0.02405492961 0.04327953234 0.379635185
v 0.02406917512 0.03900720552 0.3800584674
v 0.02641802467 0.05235218629 0.3578578234
v 0.02674389444 0.05235219374 0.3063437343
v 0.03025760129 -0.05880220979 0.3713489771
v 0.03064129502 0.03648202121 0.1720000505
v 0.03188106045 0.05235218257 0.3535134494
v 0.03196671978 -0.03525988758 0.1720000505
v 0.03214619309 0.05235219002 0.3107986152
v 0.03251830488 0.04922038689 0.371704936
v 0.03259924054 -0.05880220234 0.2936733961
v 0.03276193142 -0.04433076456 0.3759335279
v 0.03304743394 -0.04048265889 0.3764268458
v 0.03322138265 -0.03547279537 0.3766667545
v 0.03340492398 -0.02961058915 0.3768805861
v 0.03358469903 -0.02299554832 0.3770573735
v 0.03374424577 -0.01597648114 0.3771686554
v 0.03389121592 -0.008801447228 0.3772246838
v 0.03393787891 0.04683391377 0.3746196628
v 0.03401908278 -0.001559535507 0.3772185147
v 0.03411954269 0.005713366903 0.3771311641
v 0.03421074525 0.01298329327 0.3769944012
v 0.0342618227 0.02017769217 0.3767555356
v 0.03427891061 0.04324223846 0.3754564226
v 0.03431192413 0.02714421041 0.3764854968
v 0.03433401138 0.03341698647 0.376177609
v 0.03434998542 0.03893768787 0.3758721352
v 0.03620043024 0.05235218629 0.3481300473
v 0.03627764061 0.05235219002 0.3161272705
v 0.03740909323 0.02923622169 0.1720000356
v 0.0388113372 -0.05880220979 0.3658693135
v 0.03910765797 -0.02719037794 0.1720000505
v 0.03917993605 0.05235218629 0.3419913352
v 0.03926749527 0.05235219002 0.3221271038
v 0.04062933847 0.05235218629 0.3354041576
v 0.04064172506 0.05235218629 0.3286996186
v 0.04071795568 0.04922038689 0.3658000231
v 0.04201370478 -0.05880220234 0.3008679152
v 0.0420627892 -0.04439690337 0.3699404299
v 0.04239855334 -0.04055691883 0.3703122735
v 0.04257323965 -0.035588447 0.3705158532
v 0.04258754477 0.02093807235 0.1720000356
v 0.04274254665 0.04679533094 0.3683199584
v 0.04275494814 -0.02974411845 0.370721668
v 0.04292695969 -0.02316353843 0.3708950281
v 0.04307011887 -0.01616831496 0.3710052967
v 0.04320154339 -0.009010248818 0.371066153
v 0.04329323024 0.04315963015 0.3691638112
v 0.04330845177 -0.001780642313 0.3710561991
v 0.04338474199 0.005482790992 0.3709639609
v 0.04341438413 0.03879535571 0.3695712686
v 0.04343765974 0.03326978907 0.3699023426
v 0.04344267398 0.01274801511 0.3707927763
v 0.04345772788 0.01995824836 0.3705427051
v 0.04346463829 0.02694976516 0.3702457845
v 0.04398450255 -0.01778742485 0.1720000505
v 0.04596048594 -0.05880221352 0.3584797978
v 0.04604326934 0.011801566 0.1720000356
v 0.04682183266 -0.007909175009 0.1720000505
v 0.04742322117 0.04922040552 0.3583796322
v 0.04753930494 0.002030929085 0.1720000356
v 0.0486317575 -0.05880220607 0.3096509874
v 0.04958363995 -0.04446518421 0.3618247509
v 0.04994566739 0.04672380537 0.3603871465
v 0.05010535941 -0.040624924 0.36226511
v 0.05028633401 -0.03573817015 0.3624723554
v 0.05045395717 -0.02992221154 0.3626820743
v 0.05058128759 0.04305691272 0.3611174226
v 0.05061914399 -0.02337325178 0.3628753722
v 0.05074341968 -0.01639263518 0.3630007803
v 0.05078231543 0.03856500611 0.3615374565
v 0.05084692314 -0.009249812923 0.363066256
v 0.05085751414 0.03302897885 0.3618975282
v 0.05092956126 -0.002032189164 0.3630635142
v 0.0509378612 0.02668108791 0.3622552156
v 0.05098032206 0.005214465782 0.3629785776
v 0.05099889636 0.01966414601 0.3625721633
v 0.05100854859 0.01246226113 0.3628128171
v 0.0510209389 -0.05880220979 0.3494960368
v 0.05110708624 0.04922237247 0.311887145
v 0.0523131527 0.04922042787 0.3497814238
v 0.05279764533 -0.05880220979 0.3192642927
v 0.0540054068 -0.05880220979 0.3396560252
v 0.05451846868 0.04922046885 0.3210406303
v 0.054561764 -0.05880220979 0.3294013143
v 0.05502577871 0.04661392421 0.3511838913
v 0.05514954776 0.04922043532 0.3403796852
v 0.05533989146 -0.04461422935 0.3524892926
v 0.05579777434 -0.04078379646 0.3528318703
v 0.05590116605 0.0492204465 0.3306584656
v 0.05594142526 0.04283613339 0.3518382013
v 0.05596821755 -0.03592964634 0.353058219
v 0.05613043532 -0.0301603619 0.3532906473
v 0.0561966151 0.03821786121 0.3522437215
v 0.05629664287 -0.02363074943 0.3535105586
v 0.05632728338 0.03263957798 0.3526217341
v 0.05643081665 -0.01665566489 0.3536781073
v 0.05645314232 0.02623920888 0.3529871106
v 0.05652052909 -0.009512558579 0.3537698984
v 0.05654995143 0.01927329972 0.3533059955
v 0.05658077449 -0.002301719971 0.3537832499
v 0.05658952147 0.01212958526 0.3535452187
v 0.05660033599 0.004924101755 0.3537069261
v 0.05747719482 0.04635652155 0.3207928538
v 0.0579113327 0.04640403762 0.341160655
v 0.05826847255 -0.04498138651 0.320959121
v 0.05859550461 0.0462163277 0.3309323788
v 0.05876932293 -0.04469066858 0.3422080278
v 0.05893741548 0.04211185873 0.3209639192
v 0.05912115425 -0.04121628031 0.3212107122
v 0.05915652588 0.04251980782 0.3417462409
v 0.05924927443 -0.04094924405 0.3425061405
v 0.05944690108 -0.03618888557 0.3427733779
v 0.05947289616 0.03776532412 0.3421429992
v 0.05964327231 -0.0304531008 0.3430619538
v 0.0596556887 0.03203693032 0.3425391018
v 0.05976587906 -0.04479195178 0.3314945102
v 0.05982086807 -0.0239339862 0.3433344364
v 0.059835691 0.02566393279 0.3429225683
v 0.0599601455 -0.01694661006 0.3435565233
v 0.05997580662 0.04212198034 0.3312931061
v 0.05998316407 0.01884070225 0.3432621956
v 0.060050603 -0.00978660956 0.3436984122
v 0.06006788835 0.01179513987 0.3435195982
v 0.06010678411 -0.002570426092 0.3437434435
v 0.06011237577 0.00464107655 0.3436839581
v 0.0602349937 -0.02462070435 0.3226386309
v 0.06034648418 -0.04105871543 0.3317803442
v 0.06047688797 0.0183180999 0.3229830563
v 0.06050435826 0.03722027317 0.3316979408
v 0.06051527336 -0.01753819548 0.3230887353
v 0.06060079113 -0.03646380827 0.3321036994
v 0.06063624099 0.01136460342 0.3233432174
v 0.06068063155 -0.01028352138 0.3234166205
v 0.06075789779 0.004240912385 0.3235446215
v 0.06076856703 -0.002997051924 0.3235703111
v 0.06080243737 0.03149463981 0.3321488202
v 0.06086350977 -0.03079459071 0.3324863613
v 0.06104076654 0.02518801391 0.3325880766
v 0.06110573187 -0.02427650057 0.3328606784
v 0.06124062836 0.0184910614 0.3329735398
v 0.06128766388 -0.01724834554 0.333176434
v 0.06137514114 0.01152311452 0.333268255
v 0.06140482053 -0.01005258132 0.333396554
v 0.06146496907 0.004403729923 0.3334462047
v 0.06147264689 -0.002810909413 0.333488822
f 178 310 281
f 180 178 202
f 307 310 182
f 310 178 182
f 168 127 306
f 386 378 310
f 306 332 328
f 334 355 366
f 366 332 334
f 306 331 334
f 334 332 306
f 366 355 308
f 331 180 260
f 357 332 366
f 357 328 332
f 36 178 62
f 36 182 178
f 9 182 1
f 150 182 124
f 254 168 306
f 183 168 254
f 183 254 206
f 206 254 231
f 257 178 281
f 257 240 178
f 281 331 257
f 331 240 257
f 202 178 228
f 178 240 228
f 62 178 102
f 178 126 102
f 220 200 283
f 283 329 220
f 130 179 147
f 355 334 305
f 305 308 355
f 305 334 331
f 305 331 281
f 281 310 305
f 310 308 305
f 287 260 202
f 202 228 287
f 202 260 232
f 178 180 155
f 152 126 178
f 178 108 152
f 377 357 366
f 377 308 310
f 328 357 337
f 306 328 337
f 306 337 312
f 1 182 13
f 182 36 13
f 13 36 55
f 19 29 26
f 3 29 19
f 28 56 59
f 9 56 28
f 59 182 28
f 182 9 28
f 182 150 175
f 200 253 258
f 200 216 230
f 230 253 200
f 283 253 230
f 203 216 200
f 200 179 203
f 380 376 310
f 310 383 380
f 380 387 376
f 103 127 107
f 127 97 107
f 280 254 306
f 306 312 288
f 288 280 306
f 207 231 234
f 207 206 231
f 183 206 207
f 311 240 331
f 311 228 240
f 311 287 228
f 331 260 311
f 260 287 311
f 104 102 126
f 126 152 104
f 104 152 108
f 108 155 104
f 104 331 306
f 306 127 104
f 104 180 331
f 104 155 180
f 200 220 233
f 313 340 335
f 176 128 153
f 378 386 388
f 388 390 378
f 365 390 388
f 205 260 180
f 205 232 260
f 205 180 202
f 202 232 205
f 129 108 178
f 178 155 129
f 129 155 108
f 376 387 381
f 310 376 381
f 381 377 310
f 357 377 361
f 361 362 338
f 377 381 361
f 338 337 361
f 361 337 357
f 361 387 362
f 361 381 387
f 366 308 359
f 359 377 366
f 308 377 359
f 395 375 374
f 293 318 294
f 315 289 314
f 289 288 314
f 314 288 312
f 338 341 314
f 314 341 315
f 314 337 338
f 314 312 337
f 11 13 29
f 1 13 11
f 41 13 55
f 29 13 41
f 17 19 26
f 124 182 83
f 83 182 59
f 80 175 150
f 80 78 82
f 80 150 124
f 147 179 154
f 154 175 147
f 283 200 278
f 200 258 278
f 278 253 283
f 278 258 253
f 310 378 382
f 382 384 310
f 378 390 382
f 385 383 310
f 310 384 385
f 395 393 385
f 385 393 383
f 395 385 394
f 394 385 384
f 394 375 395
f 391 380 383
f 383 393 391
f 391 393 369
f 55 61 58
f 58 61 103
f 56 57 60
f 81 78 60
f 43 57 56
f 43 56 9
f 9 30 43
f 262 288 289
f 208 207 234
f 184 207 208
f 183 207 185
f 185 207 184
f 214 242 215
f 212 237 238
f 238 237 264
f 211 237 212
f 273 276 300
f 62 102 88
f 102 104 88
f 88 36 62
f 55 36 88
f 88 127 103
f 88 104 127
f 103 61 88
f 88 61 55
f 307 182 291
f 335 340 360
f 283 282 284
f 292 286 268
f 340 313 317
f 317 343 340
f 174 199 201
f 201 199 223
f 223 204 201
f 226 199 227
f 223 199 226
f 198 197 227
f 227 199 198
f 217 192 215
f 156 128 176
f 92 78 81
f 82 78 92
f 176 153 181
f 181 156 176
f 209 181 204
f 283 230 209
f 209 229 283
f 268 286 259
f 309 292 313
f 286 292 309
f 368 390 365
f 368 371 390
f 368 343 345
f 365 343 368
f 347 368 345
f 371 368 347
f 371 347 349
f 349 326 351
f 372 374 348
f 369 393 372
f 372 393 395
f 395 374 372
f 375 351 352
f 352 374 375
f 315 341 342
f 346 318 344
f 346 344 369
f 346 372 348
f 369 372 346
f 294 318 295
f 290 289 315
f 315 293 290
f 290 293 264
f 271 302 272
f 294 295 266
f 10 29 3
f 10 11 29
f 1 11 2
f 2 10 3
f 11 10 2
f 27 18 21
f 4 12 9
f 4 9 1
f 1 2 4
f 20 30 9
f 9 12 20
f 12 4 20
f 27 30 20
f 20 18 27
f 147 175 94
f 175 80 94
f 94 130 147
f 82 130 94
f 94 80 82
f 161 154 179
f 175 154 161
f 161 179 200
f 200 175 161
f 392 394 384
f 392 382 390
f 384 382 392
f 390 371 392
f 375 394 373
f 371 349 373
f 373 392 371
f 394 392 373
f 373 351 375
f 373 349 351
f 387 380 389
f 380 391 389
f 362 387 389
f 45 65 64
f 55 58 42
f 42 41 55
f 29 41 42
f 79 58 103
f 74 58 79
f 103 107 79
f 79 107 97
f 97 74 79
f 197 198 172
f 127 168 149
f 31 32 44
f 44 46 31
f 27 21 31
f 31 21 32
f 78 80 63
f 63 60 78
f 56 60 63
f 59 56 63
f 63 83 59
f 124 83 63
f 63 80 124
f 288 262 261
f 254 280 261
f 280 288 261
f 261 262 234
f 234 231 261
f 231 254 261
f 210 208 235
f 235 208 234
f 234 262 235
f 212 238 213
f 213 189 212
f 324 322 300
f 324 304 326
f 326 349 324
f 324 347 322
f 324 349 347
f 272 302 303
f 326 304 303
f 300 276 301
f 276 304 301
f 301 324 300
f 304 324 301
f 225 251 227
f 227 197 225
f 272 303 274
f 274 303 304
f 358 310 307
f 333 329 283
f 333 255 233
f 333 220 329
f 333 233 220
f 283 284 285
f 285 284 339
f 285 333 283
f 339 333 285
f 363 360 340
f 340 343 363
f 363 343 365
f 363 388 386
f 365 388 363
f 300 322 320
f 343 317 320
f 345 343 320
f 320 347 345
f 322 347 320
f 313 292 297
f 297 317 313
f 297 273 300
f 300 320 297
f 297 320 317
f 268 273 297
f 297 292 268
f 247 226 227
f 223 226 247
f 151 92 106
f 128 156 106
f 106 156 151
f 106 92 81
f 177 201 204
f 204 181 177
f 177 181 153
f 174 201 177
f 177 148 174
f 153 148 177
f 156 181 136
f 151 156 136
f 181 209 136
f 136 92 151
f 136 209 179
f 179 130 136
f 136 130 82
f 82 92 136
f 286 309 256
f 224 209 204
f 229 209 224
f 224 204 223
f 330 313 335
f 330 309 313
f 348 374 350
f 374 352 350
f 350 323 348
f 344 318 316
f 316 342 344
f 315 342 316
f 316 293 315
f 318 293 316
f 369 344 367
f 344 342 367
f 367 391 369
f 367 389 391
f 319 346 348
f 318 346 319
f 296 295 319
f 319 295 318
f 263 290 264
f 263 235 262
f 263 262 289
f 289 290 263
f 264 237 263
f 242 266 267
f 296 269 267
f 267 295 296
f 267 266 295
f 265 238 264
f 294 266 265
f 265 293 294
f 264 293 265
f 16 8 15
f 18 8 16
f 16 21 18
f 3 19 6
f 19 17 6
f 15 8 14
f 14 6 17
f 8 6 14
f 51 37 49
f 3 6 7
f 7 6 8
f 7 8 18
f 18 20 7
f 49 37 33
f 33 45 49
f 35 45 33
f 54 58 74
f 54 42 58
f 173 172 198
f 173 199 174
f 173 198 199
f 169 194 170
f 172 173 145
f 193 194 169
f 218 194 193
f 192 217 193
f 193 217 218
f 210 211 187
f 125 153 128
f 125 148 153
f 81 60 77
f 77 60 57
f 57 43 40
f 27 31 40
f 40 30 27
f 40 43 30
f 236 211 210
f 210 235 236
f 237 211 236
f 236 263 237
f 235 263 236
f 214 213 241
f 241 213 238
f 242 214 241
f 241 266 242
f 238 265 241
f 241 265 266
f 298 269 296
f 327 303 302
f 326 303 327
f 351 326 327
f 327 352 351
f 222 225 197
f 218 245 219
f 219 194 218
f 248 222 221
f 272 274 248
f 248 271 272
f 215 242 243
f 243 217 215
f 242 267 243
f 243 267 269
f 218 217 244
f 244 245 218
f 217 243 244
f 244 243 269
f 276 251 275
f 275 304 276
f 275 274 304
f 182 175 279
f 279 291 182
f 233 255 279
f 279 175 200
f 200 233 279
f 356 370 358
f 227 251 250
f 250 247 227
f 276 273 250
f 250 251 276
f 250 273 268
f 268 247 250
f 223 247 239
f 239 259 229
f 268 259 239
f 239 247 268
f 239 224 223
f 229 224 239
f 277 282 283
f 283 229 277
f 277 256 309
f 277 330 282
f 309 330 277
f 336 284 282
f 282 330 336
f 339 284 336
f 336 330 335
f 364 342 341
f 364 367 342
f 338 362 364
f 364 341 338
f 362 389 364
f 389 367 364
f 296 319 321
f 321 298 296
f 323 298 321
f 348 323 321
f 321 319 348
f 15 14 24
f 24 34 32
f 3 7 5
f 5 2 3
f 5 4 2
f 5 20 4
f 5 7 20
f 74 65 48
f 48 54 74
f 65 45 48
f 48 45 35
f 42 54 39
f 39 35 26
f 39 48 35
f 54 48 39
f 26 29 39
f 29 42 39
f 195 170 194
f 195 219 221
f 194 219 195
f 197 172 171
f 146 145 173
f 174 148 146
f 146 173 174
f 122 145 146
f 167 193 169
f 192 193 167
f 167 166 192
f 139 164 165
f 138 164 139
f 101 125 105
f 105 106 81
f 128 106 105
f 105 125 128
f 81 77 105
f 105 77 101
f 123 125 101
f 122 146 123
f 148 125 123
f 123 146 148
f 57 40 53
f 53 31 46
f 53 40 31
f 116 138 139
f 141 167 169
f 166 167 141
f 64 65 86
f 86 84 64
f 86 74 97
f 86 65 74
f 71 51 49
f 299 298 323
f 302 271 299
f 246 248 221
f 221 219 246
f 246 219 245
f 246 245 271
f 271 248 246
f 225 222 249
f 222 248 249
f 251 225 249
f 249 248 274
f 249 275 251
f 274 275 249
f 271 245 270
f 245 244 270
f 270 244 269
f 270 299 271
f 269 298 270
f 298 299 270
f 379 370 360
f 379 363 386
f 360 363 379
f 379 386 310
f 310 358 379
f 358 370 379
f 255 333 353
f 353 279 255
f 353 333 339
f 339 356 353
f 291 279 353
f 353 356 358
f 307 291 353
f 353 358 307
f 360 370 354
f 370 356 354
f 335 360 354
f 354 336 335
f 354 356 339
f 339 336 354
f 252 277 229
f 256 277 252
f 229 259 252
f 252 259 286
f 286 256 252
f 15 24 25
f 25 16 15
f 21 16 25
f 32 21 25
f 25 24 32
f 23 14 17
f 23 17 26
f 26 35 23
f 35 33 23
f 38 24 37
f 34 24 38
f 38 51 52
f 37 51 38
f 170 195 196
f 196 171 170
f 197 171 196
f 196 222 197
f 221 222 196
f 196 195 221
f 190 164 189
f 190 165 164
f 190 213 214
f 189 213 190
f 188 187 211
f 188 211 212
f 212 189 188
f 184 208 186
f 186 208 210
f 210 187 186
f 187 162 160
f 160 186 187
f 164 138 163
f 189 164 163
f 163 188 189
f 163 162 187
f 187 188 163
f 84 86 110
f 135 160 162
f 157 131 158
f 158 168 183
f 183 185 158
f 158 185 184
f 184 157 158
f 69 46 44
f 70 68 47
f 44 32 47
f 32 34 47
f 34 38 47
f 138 116 115
f 119 141 120
f 121 145 122
f 121 117 145
f 170 171 143
f 72 96 70
f 52 76 72
f 89 68 70
f 89 121 122
f 117 121 89
f 51 71 73
f 73 76 52
f 52 51 73
f 325 299 323
f 352 327 325
f 325 327 302
f 302 299 325
f 325 350 352
f 323 350 325
f 22 24 14
f 14 23 22
f 22 23 33
f 22 33 37
f 37 24 22
f 166 165 191
f 165 190 191
f 192 166 191
f 215 192 191
f 191 214 215
f 191 190 214
f 114 86 97
f 114 110 86
f 114 97 127
f 127 149 114
f 160 135 159
f 159 157 184
f 184 186 159
f 186 160 159
f 101 77 75
f 75 77 57
f 57 53 75
f 75 53 46
f 46 69 75
f 70 47 50
f 52 72 50
f 50 72 70
f 50 38 52
f 50 47 38
f 138 115 137
f 137 163 138
f 113 135 137
f 137 115 113
f 162 163 137
f 137 135 162
f 141 119 140
f 166 141 140
f 140 116 139
f 140 119 116
f 139 165 140
f 140 165 166
f 145 117 144
f 117 143 144
f 172 145 144
f 144 171 172
f 144 143 171
f 118 143 117
f 118 96 120
f 120 141 118
f 70 96 93
f 93 89 70
f 117 89 93
f 93 118 117
f 96 118 93
f 66 69 44
f 44 47 66
f 66 47 68
f 113 115 98
f 76 73 98
f 67 71 49
f 64 84 67
f 84 85 67
f 67 45 64
f 49 45 67
f 109 110 131
f 109 111 85
f 84 110 109
f 109 85 84
f 112 135 113
f 132 131 157
f 132 109 131
f 111 109 132
f 132 112 111
f 134 114 149
f 134 158 131
f 131 110 134
f 110 114 134
f 134 149 168
f 168 158 134
f 142 118 141
f 143 118 142
f 142 141 169
f 169 170 142
f 170 143 142
f 69 66 95
f 101 75 95
f 95 75 69
f 122 123 95
f 95 123 101
f 100 115 116
f 100 98 115
f 116 119 100
f 76 98 100
f 113 98 91
f 91 112 113
f 91 73 71
f 91 98 73
f 157 159 133
f 133 132 157
f 133 159 135
f 135 112 133
f 112 132 133
f 90 95 66
f 68 89 90
f 90 66 68
f 90 89 122
f 122 95 90
f 99 100 119
f 120 96 99
f 99 119 120
f 96 72 99
f 99 72 76
f 76 100 99
f 111 112 87
f 112 91 87
f 85 111 87
f 87 91 71
f 71 67 87
f 87 67 85
f 216 203 209
f 209 230 216
f 209 203 179
