v -0.05589734018 0.0006066989736 -0.05012392998
v -0.05589734018 0.0006066989736 0.05012392998
v -0.05565078184 0.0005802631495 -0.05317009985
v -0.05565078184 0.0005802631495 0.05317009985
v -0.05512014404 0.0006576013402 -0.05682525039
v -0.05512014404 0.0006576013402 0.05682525039
v -0.05510186031 -0.01024374925 -0.0503799729
v -0.05510186031 -0.01024374925 0.0503799729
v -0.05484301969 -0.01011814084 -0.05338317901
v -0.05484301969 -0.01011814084 0.05338317901
v -0.05409150571 -0.009994783439 -0.05682525039
v -0.05409150571 -0.009994783439 0.05682525039
v -0.05388145894 0.0007538747741 -0.06169986725
v -0.05388145894 0.0007538747741 0.06169986725
v -0.05284996703 -0.009718947113 -0.06164296344
v -0.05284996703 -0.009718947113 0.06164296344
v -0.05220622569 -0.0209911298 -0.05035916716
v -0.05220622569 -0.0209911298 0.05035916716
v -0.05185291544 -0.02106160671 -0.05334606394
v -0.05185291544 -0.02106160671 0.05334606394
v -0.0511688441 0.01439109724 -0.06175784767
v -0.0511688441 0.01439109724 0.06175784767
v -0.05114872381 -0.02084602229 -0.05675154179
v -0.05114872381 -0.02084602229 0.05675154179
v -0.04958087206 -0.02019019611 -0.06149119884
v -0.04958087206 -0.02019019611 0.06149119884
v -0.04750011861 0.1710000038 1.487983722e-31
v -0.0472355932 -0.03063518927 -0.05029223859
v -0.0472355932 -0.03063518927 0.05029223859
v -0.04696636647 0.1710000038 -0.007123698015
v -0.04696636647 0.1710000038 0.007123698015
v -0.04693043232 -0.03063654341 -0.05325420573
v -0.04693043232 -0.03063654341 0.05325420573
v -0.04668544605 0.0007538747741 -0.06707882136
v -0.04668544605 0.0007538747741 0.06707882136
v -0.04633576423 -0.03021692671 -0.05665045977
v -0.04633576423 -0.03021692671 0.05665045977
v -0.04579222947 -0.008315071464 -0.06707882136
v -0.04579222947 -0.008315071464 0.06707882136
v -0.04529555142 0.1710000038 -0.01431218907
v -0.04529555142 0.1710000038 0.01431218907
v -0.04483440891 -0.0290702004 -0.06136520207
v -0.04483440891 -0.0290702004 0.06136520207
v -0.04314692318 0.01854326203 -0.06707891077
v -0.04314692318 0.01854326203 0.06707891077
v -0.04314690828 -0.01703550853 -0.06707890332
v -0.04314690828 -0.01703550853 0.06707890332
v -0.04253905639 0.1710000038 -0.02120783366
v -0.04253905639 0.1710000038 0.02120783366
v -0.041449707 0.1829997599 1.592401507e-31
v -0.04098359868 0.1829997599 -0.006179827265
v -0.04098359868 0.1829997599 0.006179827265
v -0.04016884416 -0.03927091137 -0.05023299158
v -0.04016884416 -0.03927091137 0.05023299158
v -0.03992593288 -0.03916721791 -0.05321391299
v -0.03992593288 -0.03916721791 0.05321391299
v -0.03952453658 0.1829997599 -0.01245729998
v -0.03952453658 0.1829997599 0.01245729998
v -0.03944768384 -0.03864528984 -0.05661083013
v -0.03944768384 -0.03864528984 0.05661083013
v -0.03885114938 -0.02507230267 -0.06707905978
v -0.03885114938 -0.02507230267 0.06707905978
v -0.03863165155 0.1710000038 -0.02769899741
v -0.03863165155 0.1710000038 0.02769899741
v -0.03815837204 -0.03720496595 -0.06130925566
v -0.03815837204 -0.03720496595 0.06130925566
v -0.03711737692 0.1829997599 -0.01847903989
v -0.03711737692 0.1829997599 0.01847903989
v -0.03645662591 0.0007844740176 -0.06906865537
v -0.03645662591 0.0007844740176 0.06906865537
v -0.03575911745 -0.006297458895 -0.06906865537
v -0.03575911745 -0.006297458895 0.06906865537
v -0.03372889385 0.1710000038 -0.03349447995
v -0.03372889385 0.1710000038 0.03349447995
v -0.0337051712 0.1829997599 -0.02414756268
v -0.0337051712 0.1829997599 0.02414756268
v -0.03369339928 0.01467619278 -0.06906872243
v -0.03369339928 0.01467619278 0.06906872243
v -0.0336933881 -0.0131072402 -0.06906872243
v -0.0336933881 -0.0131072402 0.06906872243
v -0.03307004273 0.03362437338 -0.06707914174
v -0.03307004273 0.03362437338 0.06707914174
v -0.03307002783 -0.03211661801 -0.06707924604
v -0.03307002783 -0.03211661801 0.06707924604
v -0.03114267252 -0.0462766476 -0.0531821847
v -0.03114267252 -0.0462766476 0.0531821847
v -0.03108135238 -0.04672318697 -0.05018825084
v -0.03108135238 -0.04672318697 0.05018825084
v -0.03094740398 -0.04563681036 -0.05659210682
v -0.03094740398 -0.04563681036 0.05659210682
v -0.03033882752 -0.01938316785 -0.06906884164
v -0.03033882752 -0.01938316785 0.06906884164
v -0.03002359346 -0.04388099909 -0.06132978201
v -0.03002359346 -0.04388099909 0.06132978201
v -0.02942375094 0.1829997599 -0.02920856327
v -0.02942375094 0.1829997599 0.02920856327
v -0.02785332315 0.1710000038 -0.03848113492
v -0.02785332315 0.1710000038 0.03848113492
v -0.02602570504 -0.03789772466 -0.06707948446
v -0.02602570504 -0.03789772466 0.06707948446
v -0.02582437173 0.02645301819 -0.06906890869
v -0.02582437173 0.02645301819 0.06906890869
v -0.02582436055 -0.02488406561 -0.06906899065
v -0.02582436055 -0.02488406561 0.06906899065
v -0.02429280989 0.1829997599 -0.03356324509
v -0.02429280989 0.1829997599 0.03356324509
v -0.02172762901 -0.05160602927 -0.05014234781
v -0.02172762901 -0.05160602927 0.05014234781
v -0.02167974226 -0.0513397716 -0.05312504992
v -0.02167974226 -0.0513397716 0.05312504992
v -0.0215691831 -0.05062917247 -0.05653320253
v -0.0215691831 -0.05062917247 0.05653320253
v -0.02125453949 0.0007844737265 -0.07026719302
v -0.02125453949 0.0007844737265 0.07026719302
v -0.02084788494 -0.00334435585 -0.07026719302
v -0.02084788494 -0.00334435585 0.07026719302
v -0.02074269205 -0.04884172976 -0.06135327369
v -0.02074269205 -0.04884172976 0.06135327369
v -0.02032344975 -0.02939852141 -0.06906917691
v -0.02032344975 -0.02939852141 0.06906917691
v -0.0196435526 0.008883469738 -0.07026723027
v -0.0196435526 0.008883469738 0.07026723027
v -0.01964354515 -0.007314518094 -0.07026723027
v -0.01964354515 -0.007314518094 0.07026723027
v -0.01798893139 0.04370125011 -0.06707949191
v -0.01798893139 0.04370125011 0.06707949191
v -0.01798890345 -0.04219348356 -0.0670799613
v -0.01798890345 -0.04219348356 0.0670799613
v -0.01768780872 -0.01097344141 -0.07026729733
v -0.01768780872 -0.01097344141 0.07026729733
v -0.01678825915 0.1710000038 -0.04411973804
v -0.01678825915 0.1710000038 0.04411973804
v -0.01505584083 0.01574946567 -0.07026734948
v -0.01505584083 0.01574946567 0.07026734948
v -0.01505583245 -0.0141805131 -0.07026738673
v -0.01505583245 -0.0141805131 0.07026738673
v -0.0149025647 0.1829997599 -0.03834838793
v -0.0149025647 0.1829997599 0.03834838793
v -0.01404754166 0.03432204574 -0.06906918436
v -0.01404754166 0.03432204574 0.06906918436
v -0.01404752024 -0.0327530764 -0.06906954944
v -0.01404752024 -0.0327530764 0.06906954944
v -0.01184875332 -0.01681248471 -0.07026749849
v -0.01184875332 -0.01681248471 0.07026749849
v -0.01026102062 -0.05479553714 -0.05302681774
v -0.01026102062 -0.05479553714 0.05302681774
v -0.0100828791 -0.05415299907 -0.05638681352
v -0.0100828791 -0.05415299907 0.05638681352
v -0.009471853264 -0.05136696994 -0.06125053763
v -0.009471853264 -0.05136696994 0.06125053763
v -0.008189841174 0.02033718117 -0.07026749849
v -0.008189841174 0.02033718117 0.07026749849
v -0.008189829998 -0.01876821555 -0.07026772201
v -0.008189829998 -0.01876821555 0.07026772201
v -0.008075657301 -0.04434929416 -0.06708005071
v -0.008075657301 -0.04434929416 0.06708005071
v -0.007057646289 0.1710000038 -0.04669661075
v -0.007057646289 0.1710000038 0.04669661075
v -0.006529569626 0.1829997599 -0.04064241424
v -0.006529569626 0.1829997599 0.04064241424
v -0.006306273397 -0.03443654627 -0.0690696165
v -0.006306273397 -0.03443654627 0.0690696165
v -0.003676613094 -0.0197496973 -0.07026775181
v -0.003676613094 -0.0197496973 0.07026775181
v -0.0002934660879 0.1829998195 6.622738469e-10
v 0 -0.05621387064 -0.05008096993
v 0 -0.05621387064 0.05008096993
v 0 -0.05589706823 -0.05295550078
v 0 -0.05589706823 0.05295550078
v 0 -0.05521203578 -0.05628846213
v 0 -0.05521203578 0.05628846213
v 0 -0.05292800441 -0.06114460155
v 0 -0.05292800441 0.06114460155
v 0 -0.0457319878 -0.06708014011
v 0 -0.0457319878 0.06708014011
v 0 0.1710000038 -0.04754211754
v 0 0.1710000038 0.04754211754
v 0 0.1829997599 -0.04147590697
v 0 0.1829997599 0.04147590697
v 1.46958834e-10 -0.02037919872 -0.07026778907
v 1.46958834e-10 -0.02037919872 0.07026778907
v 1.46958834e-10 0.02194816619 -0.07026770711
v 1.46958834e-10 0.02194816619 0.07026770711
v 2.904383678e-10 0.0007844740176 -0.07087463886
v 2.904383678e-10 0.0007844740176 0.07087463886
v 5.876741316e-10 -0.03551629558 -0.069069691
v 5.876741316e-10 -0.03551629558 0.069069691
v 5.876741316e-10 0.03708526865 -0.06906953454
v 5.876741316e-10 0.03708526865 0.06906953454
v 0.003397464752 0.1829997599 -0.04133849218
v 0.003397464752 0.1829997599 0.04133849218
v 0.003676614491 -0.0197496973 -0.07026775181
v 0.003676614491 -0.0197496973 0.07026775181
v 0.003925541881 0.1710000038 -0.04738476127
v 0.003925541881 0.1710000038 0.04738476127
v 0.006306273863 -0.03443654627 -0.0690696165
v 0.006306273863 -0.03443654627 0.0690696165
v 0.008075658232 -0.04434929416 -0.06708005071
v 0.008075658232 -0.04434929416 0.06708005071
v 0.008189830929 -0.01876821555 -0.07026772201
v 0.008189830929 -0.01876821555 0.07026772201
v 0.008189841174 0.02033718117 -0.07026749849
v 0.008189841174 0.02033718117 0.07026749849
v 0.009471854195 -0.05136696994 -0.06125053763
v 0.009471854195 -0.05136696994 0.06125053763
v 0.0100828791 -0.05415299907 -0.05638681352
v 0.0100828791 -0.05415299907 0.05638681352
v 0.01026102062 -0.05479553714 -0.05302681774
v 0.01026102062 -0.05479553714 0.05302681774
v 0.01184875332 -0.01681248471 -0.07026749849
v 0.01184875332 -0.01681248471 0.07026749849
v 0.01275227033 0.1829997599 -0.03944414854
v 0.01275227033 0.1829997599 0.03944414854
v 0.0140475221 -0.0327530764 -0.06906954944
v 0.0140475221 -0.0327530764 0.06906954944
v 0.01404754259 0.03432204574 -0.06906918436
v 0.01404754259 0.03432204574 0.06906918436
v 0.01463796385 0.1710000038 -0.04521550238
v 0.01463796385 0.1710000038 0.04521550238
v 0.01505582873 -0.0141805131 -0.07026738673
v 0.01505582873 -0.0141805131 0.07026738673
v 0.01505583711 0.01574946567 -0.07026734948
v 0.01505583711 0.01574946567 0.07026734948
v 0.017687805 -0.01097344141 -0.07026729733
v 0.017687805 -0.01097344141 0.07026729733
v 0.01798890531 -0.04219348356 -0.0670799613
v 0.01798890531 -0.04219348356 0.0670799613
v 0.01798893139 0.04370125011 -0.06707949191
v 0.01798893139 0.04370125011 0.06707949191
v 0.01964354515 -0.007314518094 -0.07026723027
v 0.01964354515 -0.007314518094 0.07026723027
v 0.0196435526 0.008883469738 -0.07026723027
v 0.0196435526 0.008883469738 0.07026723027
v 0.02032344788 -0.02939852141 -0.06906917691
v 0.02032344788 -0.02939852141 0.06906917691
v 0.02074269205 -0.04884172976 -0.06135327369
v 0.02074269205 -0.04884172976 0.06135327369
v 0.02084788494 -0.00334435585 -0.07026719302
v 0.02084788494 -0.00334435585 0.07026719302
v 0.02125453949 0.0007844737265 -0.07026719302
v 0.02125453949 0.0007844737265 0.07026719302
v 0.0215691831 -0.05062917247 -0.05653320253
v 0.0215691831 -0.05062917247 0.05653320253
v 0.02167974412 -0.0513397716 -0.05312504992
v 0.02167974412 -0.0513397716 0.05312504992
v 0.02172762901 -0.05160602927 -0.05014234781
v 0.02172762901 -0.05160602927 0.05014234781
v 0.02429281175 0.1829997599 -0.03356324509
v 0.02429281175 0.1829997599 0.03356324509
v 0.02582435869 -0.02488406561 -0.06906899065
v 0.02582435869 -0.02488406561 0.06906899065
v 0.02582436986 0.02645301819 -0.06906890869
v 0.02582436986 0.02645301819 0.06906890869
v 0.02602570504 -0.03789772466 -0.06707948446
v 0.02602570504 -0.03789772466 0.06707948446
v 0.02785332687 0.1710000038 -0.03848113492
v 0.02785332687 0.1710000038 0.03848113492
v 0.02942375094 0.1829997599 -0.02920856327
v 0.02942375094 0.1829997599 0.02920856327
v 0.03002359346 -0.04388099909 -0.06132978201
v 0.03002359346 -0.04388099909 0.06132978201
v 0.03033882566 -0.01938316785 -0.06906884164
v 0.03033882566 -0.01938316785 0.06906884164
v 0.03094740584 -0.04563681036 -0.05659210682
v 0.03094740584 -0.04563681036 0.05659210682
v 0.03108135238 -0.04672318697 -0.05018825084
v 0.03108135238 -0.04672318697 0.05018825084
v 0.03114267439 -0.0462766476 -0.0531821847
v 0.03114267439 -0.0462766476 0.0531821847
v 0.03307003155 -0.03211661801 -0.06707924604
v 0.03307003155 -0.03211661801 0.06707924604
v 0.03307004645 0.03362437338 -0.06707914174
v 0.03307004645 0.03362437338 0.06707914174
v 0.0336933881 -0.0131072402 -0.06906872243
v 0.0336933881 -0.0131072402 0.06906872243
v 0.03369339928 0.01467619278 -0.06906872243
v 0.03369339928 0.01467619278 0.06906872243
v 0.0337051712 0.1829997599 -0.02414756268
v 0.0337051712 0.1829997599 0.02414756268
v 0.03372889385 0.1710000038 -0.03349447995
v 0.03372889385 0.1710000038 0.03349447995
v 0.03575911745 -0.006297458895 -0.06906865537
v 0.03575911745 -0.006297458895 0.06906865537
v 0.03645662591 0.0007844740176 -0.06906865537
v 0.03645662591 0.0007844740176 0.06906865537
v 0.03711737692 0.1829997599 -0.01847903989
v 0.03711737692 0.1829997599 0.01847903989
v 0.03815837204 -0.03720496595 -0.06130925566
v 0.03815837204 -0.03720496595 0.06130925566
v 0.03863165528 0.1710000038 -0.02769899741
v 0.03863165528 0.1710000038 0.02769899741
v 0.03885114938 -0.02507230267 -0.06707905978
v 0.03885114938 -0.02507230267 0.06707905978
v 0.03944768384 -0.03864528984 -0.05661083013
v 0.03944768384 -0.03864528984 0.05661083013
v 0.03952453658 0.1829997599 -0.01245729998
v 0.03952453658 0.1829997599 0.01245729998
v 0.03992593288 -0.03916721791 -0.05321391299
v 0.03992593288 -0.03916721791 0.05321391299
v 0.04016884416 -0.03927091137 -0.05023299158
v 0.04016884416 -0.03927091137 0.05023299158
v 0.04098360613 0.1829997599 -0.006179827265
v 0.04098360613 0.1829997599 0.006179827265
v 0.04144971445 0.1829997599 1.592401507e-31
v 0.04253905639 0.1710000038 -0.02120783366
v 0.04253905639 0.1710000038 0.02120783366
v 0.04314690828 -0.01703550853 -0.06707890332
v 0.04314690828 -0.01703550853 0.06707890332
v 0.04314693063 0.01854326203 -0.06707891077
v 0.04314693063 0.01854326203 0.06707891077
v 0.04483440891 -0.0290702004 -0.06136520207
v 0.04483440891 -0.0290702004 0.06136520207
v 0.04529555514 0.1710000038 -0.01431218907
v 0.04529555514 0.1710000038 0.01431218907
v 0.04579223692 -0.008315071464 -0.06707882136
v 0.04579223692 -0.008315071464 0.06707882136
v 0.04633576423 -0.03021692671 -0.05665045977
v 0.04633576423 -0.03021692671 0.05665045977
v 0.04668544978 0.0007538747741 -0.06707882136
v 0.04668544978 0.0007538747741 0.06707882136
v 0.04693043232 -0.03063654341 -0.05325420573
v 0.04693043232 -0.03063654341 0.05325420573
v 0.04696636647 0.1710000038 -0.007123698015
v 0.04696636647 0.1710000038 0.007123698015
v 0.0472355932 -0.03063518927 -0.05029223859
v 0.0472355932 -0.03063518927 0.05029223859
v 0.04750011861 0.1710000038 1.487983722e-31
v 0.04958087206 -0.02019019611 -0.06149119884
v 0.04958087206 -0.02019019611 0.06149119884
v 0.05114872754 -0.02084602229 -0.05675154179
v 0.05114872754 -0.02084602229 0.05675154179
v 0.0511688441 0.01439109724 -0.06175784767
v 0.0511688441 0.01439109724 0.06175784767
v 0.05185291544 -0.02106160671 -0.05334606394
v 0.05185291544 -0.02106160671 0.05334606394
v 0.05220622569 -0.0209911298 -0.05035916716
v 0.05220622569 -0.0209911298 0.05035916716
v 0.05284996703 -0.009718947113 -0.06164296344
v 0.05284996703 -0.009718947113 0.06164296344
v 0.05388145894 0.0007538747741 -0.06169986725
v 0.05388145894 0.0007538747741 0.06169986725
v 0.05409150571 -0.009994783439 -0.05682525039
v 0.05409150571 -0.009994783439 0.05682525039
v 0.05484302342 -0.01011814084 -0.05338317901
v 0.05484302342 -0.01011814084 0.05338317901
v 0.05510186031 -0.01024374925 -0.0503799729
v 0.05510186031 -0.01024374925 0.0503799729
v 0.05512014404 0.0006576013402 -0.05682525039
v 0.05512014404 0.0006576013402 0.05682525039
v 0.05565078557 0.0005802631495 -0.05317009985
v 0.05565078557 0.0005802631495 0.05317009985
v 0.05589734018 0.0006066989736 -0.05012392998
v 0.05589734018 0.0006066989736 0.05012392998
f 165 75 67
f 257 333 281
f 306 333 341
f 310 333 257
f 257 219 310
f 310 219 273
f 339 341 316
f 49 58 41
f 41 58 31
f 31 6 41
f 57 51 165
f 165 67 57
f 165 278 258
f 258 248 165
f 165 248 212
f 256 212 248
f 218 212 256
f 291 333 306
f 291 281 333
f 31 58 52
f 52 58 165
f 257 281 249
f 249 281 259
f 249 259 165
f 95 75 165
f 165 105 95
f 165 178 159
f 137 131 97
f 97 105 137
f 137 159 131
f 137 105 165
f 165 159 137
f 320 316 341
f 320 341 333
f 333 310 320
f 283 316 320
f 4 31 2
f 4 6 31
f 276 252 309
f 332 319 309
f 309 256 332
f 218 256 309
f 340 319 332
f 48 57 67
f 48 67 75
f 75 63 48
f 48 21 13
f 63 21 48
f 352 350 323
f 286 278 165
f 190 178 165
f 165 212 190
f 190 212 218
f 280 290 332
f 332 256 280
f 278 290 280
f 280 258 278
f 248 258 280
f 280 256 248
f 259 281 279
f 281 291 279
f 165 259 279
f 279 287 165
f 306 287 279
f 279 291 306
f 31 52 50
f 165 51 50
f 50 52 165
f 213 249 165
f 213 219 257
f 257 249 213
f 3 7 1
f 99 117 93
f 171 207 173
f 97 21 73
f 73 21 63
f 73 105 97
f 73 95 105
f 73 63 75
f 75 95 73
f 139 101 81
f 194 190 218
f 194 216 176
f 176 178 194
f 178 190 194
f 185 134 122
f 134 78 122
f 16 26 47
f 47 26 62
f 70 35 72
f 14 41 6
f 49 41 14
f 24 26 16
f 148 171 173
f 62 92 80
f 80 47 62
f 185 233 223
f 233 277 223
f 283 320 285
f 310 277 285
f 285 320 310
f 261 295 289
f 289 295 312
f 334 344 336
f 288 311 294
f 294 260 288
f 264 260 294
f 51 57 30
f 30 50 51
f 5 3 30
f 30 3 1
f 352 323 327
f 327 353 352
f 332 290 305
f 305 340 332
f 305 290 278
f 278 286 305
f 348 323 350
f 348 350 344
f 76 96 165
f 138 160 165
f 96 76 74
f 191 213 165
f 219 213 191
f 9 3 5
f 7 3 9
f 17 7 9
f 23 15 25
f 25 15 46
f 172 147 149
f 147 117 149
f 172 149 174
f 59 65 93
f 170 147 172
f 169 146 167
f 167 209 169
f 169 148 146
f 171 148 169
f 207 171 169
f 169 209 207
f 131 81 44
f 97 131 44
f 44 21 97
f 44 101 77
f 44 81 101
f 176 81 157
f 157 81 131
f 131 159 157
f 157 178 176
f 157 159 178
f 176 139 125
f 125 81 176
f 139 81 125
f 216 194 228
f 272 309 252
f 272 228 194
f 218 309 272
f 272 194 218
f 272 252 216
f 216 228 272
f 72 80 116
f 185 231 239
f 130 92 136
f 185 130 136
f 72 35 39
f 39 80 72
f 47 80 39
f 16 47 39
f 39 14 16
f 35 14 39
f 102 78 134
f 100 84 94
f 128 142 100
f 94 84 66
f 66 60 94
f 120 100 142
f 142 154 120
f 104 92 62
f 62 84 104
f 104 136 92
f 84 100 104
f 100 120 104
f 26 24 37
f 150 148 173
f 173 175 150
f 253 223 277
f 253 310 273
f 253 277 310
f 199 237 227
f 199 187 175
f 243 237 207
f 162 154 142
f 263 221 251
f 215 199 227
f 265 295 261
f 261 237 265
f 237 243 265
f 336 344 346
f 346 350 352
f 344 350 346
f 329 331 339
f 315 282 319
f 319 340 315
f 240 232 276
f 288 260 270
f 292 311 270
f 270 311 288
f 172 174 204
f 336 325 321
f 321 334 336
f 321 325 300
f 338 315 340
f 57 48 40
f 40 30 57
f 40 48 13
f 13 5 40
f 5 30 40
f 31 50 27
f 50 30 27
f 2 31 27
f 27 30 1
f 1 2 27
f 353 327 324
f 304 323 302
f 304 327 323
f 304 324 327
f 304 302 165
f 340 305 313
f 313 348 340
f 323 348 313
f 302 323 313
f 313 305 286
f 165 58 68
f 68 76 165
f 68 58 49
f 49 76 68
f 165 96 106
f 106 138 165
f 96 74 106
f 160 138 132
f 64 76 49
f 64 74 76
f 82 132 45
f 45 70 78
f 35 70 45
f 78 102 45
f 45 102 82
f 165 160 179
f 179 191 165
f 219 191 195
f 273 219 195
f 195 179 177
f 191 179 195
f 195 229 273
f 32 28 17
f 53 28 32
f 15 23 11
f 11 23 9
f 11 9 5
f 11 5 13
f 13 15 11
f 25 46 61
f 38 15 13
f 38 46 15
f 198 174 186
f 198 214 226
f 198 204 174
f 117 99 127
f 168 208 166
f 168 166 145
f 145 147 168
f 147 170 168
f 246 208 244
f 244 266 246
f 244 268 266
f 244 242 264
f 264 268 244
f 124 130 185
f 185 116 124
f 124 116 80
f 124 92 130
f 124 80 92
f 114 122 78
f 78 70 114
f 185 122 114
f 114 116 185
f 114 70 72
f 72 116 114
f 241 277 233
f 241 285 277
f 241 233 185
f 185 239 241
f 283 285 241
f 241 239 283
f 185 201 211
f 211 221 185
f 251 221 211
f 225 231 185
f 185 221 225
f 225 263 231
f 221 263 225
f 193 201 185
f 185 181 193
f 193 181 187
f 185 154 164
f 164 181 185
f 154 162 164
f 187 181 164
f 164 162 187
f 126 177 82
f 8 4 2
f 43 84 62
f 43 66 84
f 62 26 43
f 26 37 43
f 60 66 43
f 43 37 60
f 144 120 154
f 144 154 185
f 185 136 144
f 136 104 144
f 144 104 120
f 20 37 24
f 54 88 56
f 94 60 90
f 60 56 90
f 110 88 108
f 110 108 146
f 112 90 110
f 146 148 110
f 148 112 110
f 94 90 118
f 118 90 112
f 148 150 118
f 118 112 148
f 128 100 118
f 118 100 94
f 237 199 205
f 173 207 205
f 207 237 205
f 205 175 173
f 205 199 175
f 245 209 247
f 207 209 245
f 245 243 207
f 247 267 245
f 245 267 269
f 269 265 245
f 245 265 243
f 175 187 156
f 187 162 156
f 156 150 175
f 156 142 128
f 156 162 142
f 128 118 156
f 156 118 150
f 231 263 275
f 283 239 275
f 275 239 231
f 275 316 283
f 271 289 312
f 261 289 271
f 299 265 269
f 295 265 299
f 267 301 299
f 269 267 299
f 339 331 343
f 343 341 339
f 343 349 341
f 337 347 345
f 345 335 337
f 349 343 345
f 331 335 345
f 345 343 331
f 326 337 322
f 337 335 322
f 295 299 322
f 322 301 326
f 322 299 301
f 93 117 89
f 89 59 93
f 109 107 87
f 87 85 109
f 85 89 109
f 145 107 109
f 109 147 145
f 315 338 307
f 230 262 224
f 284 240 276
f 282 240 284
f 319 282 284
f 276 309 284
f 284 309 319
f 188 139 176
f 176 216 188
f 196 198 186
f 214 198 196
f 226 214 254
f 254 214 234
f 254 270 260
f 250 254 234
f 270 254 250
f 292 270 250
f 250 262 292
f 206 244 208
f 242 244 206
f 208 168 206
f 206 168 170
f 206 170 172
f 172 204 206
f 334 321 317
f 317 294 311
f 317 321 294
f 298 321 300
f 294 321 298
f 300 266 298
f 266 268 298
f 264 294 298
f 298 268 264
f 344 334 330
f 334 317 330
f 353 324 351
f 351 324 349
f 349 345 351
f 351 347 353
f 351 345 347
f 341 349 314
f 349 324 314
f 306 341 314
f 314 287 306
f 302 313 296
f 296 313 286
f 165 302 296
f 296 286 165
f 160 132 158
f 158 179 160
f 177 179 158
f 82 177 158
f 158 132 82
f 98 106 74
f 98 45 132
f 138 106 98
f 98 132 138
f 74 64 22
f 22 14 35
f 35 45 22
f 22 98 74
f 45 98 22
f 49 14 22
f 22 64 49
f 19 32 17
f 17 9 19
f 9 23 19
f 53 32 55
f 55 32 59
f 55 87 53
f 55 85 87
f 59 89 55
f 55 89 85
f 36 23 25
f 36 19 23
f 32 19 36
f 59 32 36
f 46 38 79
f 79 61 46
f 83 99 93
f 93 65 83
f 34 38 13
f 13 21 34
f 21 44 34
f 186 174 155
f 155 174 149
f 155 149 117
f 117 127 155
f 251 211 235
f 201 215 235
f 235 211 201
f 197 193 187
f 187 199 197
f 199 215 197
f 197 215 201
f 201 193 197
f 229 195 217
f 217 195 177
f 177 189 217
f 273 229 217
f 217 253 273
f 223 253 217
f 152 134 185
f 82 102 140
f 140 126 82
f 140 189 177
f 177 126 140
f 140 102 134
f 134 152 140
f 6 4 10
f 4 8 10
f 10 20 24
f 10 8 18
f 18 20 10
f 37 20 33
f 18 29 33
f 33 20 18
f 60 37 33
f 33 56 60
f 33 29 54
f 54 56 33
f 88 110 86
f 86 110 90
f 86 56 88
f 86 90 56
f 293 275 263
f 293 263 251
f 251 271 293
f 312 329 293
f 293 271 312
f 318 335 331
f 318 322 335
f 318 329 312
f 331 329 318
f 312 295 318
f 295 322 318
f 111 89 117
f 111 109 89
f 111 117 147
f 147 109 111
f 238 240 282
f 262 230 274
f 274 238 282
f 230 238 274
f 282 315 274
f 315 307 274
f 292 262 274
f 274 307 292
f 222 252 276
f 276 232 222
f 216 252 222
f 222 202 216
f 242 206 236
f 236 206 204
f 236 260 264
f 264 242 236
f 226 254 236
f 236 254 260
f 236 198 226
f 204 198 236
f 344 330 342
f 342 330 338
f 342 348 344
f 340 348 342
f 342 338 340
f 338 330 328
f 328 307 338
f 328 317 311
f 328 330 317
f 328 311 292
f 292 307 328
f 324 304 303
f 303 314 324
f 303 304 165
f 42 36 25
f 25 61 42
f 65 59 42
f 59 36 42
f 42 83 65
f 61 83 42
f 119 153 141
f 141 155 127
f 99 119 141
f 141 127 99
f 202 222 184
f 184 230 224
f 232 240 184
f 184 222 232
f 240 238 184
f 184 238 230
f 184 135 129
f 121 184 113
f 77 121 113
f 69 44 77
f 69 34 44
f 77 113 69
f 255 271 251
f 251 235 255
f 261 271 255
f 255 215 227
f 255 235 215
f 255 237 261
f 227 237 255
f 185 223 203
f 223 217 203
f 6 10 12
f 16 14 12
f 12 14 6
f 12 24 16
f 12 10 24
f 316 275 308
f 275 293 308
f 308 293 329
f 339 316 308
f 308 329 339
f 287 314 297
f 314 303 297
f 165 287 297
f 297 303 165
f 161 141 153
f 186 155 161
f 155 141 161
f 143 153 119
f 143 184 153
f 135 184 143
f 61 79 91
f 129 135 91
f 234 214 200
f 214 196 200
f 182 184 151
f 202 184 182
f 182 151 139
f 139 188 182
f 182 188 216
f 216 202 182
f 151 184 133
f 133 184 121
f 133 101 139
f 139 151 133
f 77 101 133
f 133 121 77
f 129 91 123
f 123 91 79
f 123 184 129
f 38 34 71
f 34 69 71
f 71 79 38
f 71 69 113
f 183 152 185
f 185 203 183
f 189 140 183
f 183 140 152
f 183 217 189
f 183 203 217
f 103 91 135
f 103 143 119
f 135 143 103
f 103 119 99
f 99 83 103
f 103 83 61
f 61 91 103
f 220 184 224
f 224 262 220
f 262 250 220
f 115 71 113
f 115 113 184
f 184 123 115
f 115 123 79
f 79 71 115
f 210 200 184
f 184 220 210
f 234 200 210
f 210 250 234
f 210 220 250
f 153 184 163
f 184 180 163
f 163 161 153
f 186 161 163
f 163 180 186
f 184 200 192
f 192 180 184
f 192 200 196
f 192 196 186
f 186 180 192
f 145 166 146
f 146 166 167
f 326 325 337
f 337 325 336
f 209 208 246
f 246 247 209
f 167 166 209
f 166 208 209
f 266 247 246
f 266 267 247
f 53 87 88
f 54 53 88
f 301 325 326
f 300 325 301
f 267 266 301
f 301 266 300
f 346 337 336
f 346 347 337
f 352 353 346
f 353 347 346
f 145 146 107
f 146 108 107
f 107 88 87
f 108 88 107
f 1 7 8
f 8 2 1
f 8 7 17
f 17 18 8
f 29 18 17
f 17 28 29
f 29 53 54
f 29 28 53
