v -0.05194555596 -0.04580574483 0.1758282632
v -0.05194097757 -0.0424763374 0.1761173308
v -0.05190595984 -0.0352755338 0.1766745597
v -0.05186644569 -0.02444541827 0.1773996651
v -0.05185265467 -0.04707633331 0.1756798178
v -0.051845368 -0.01562198251 0.1778871715
v -0.05181474984 -0.006076199468 0.1783412099
v -0.05177661404 0.003813542426 0.1787638068
v -0.05169957876 0.04778888077 0.1693186909
v -0.05169957876 0.05504887179 0.1693186909
v -0.05169957504 0.06230886653 0.1693186909
v -0.051672481 0.02376503311 0.1687395275
v -0.05164825916 0.04508276284 0.1803204566
v -0.05164825916 0.05368942395 0.1803204566
v -0.05164825544 0.06229608878 0.1803204566
v -0.05158820748 0.003692460712 0.1679943651
v -0.0515242517 -0.006399608683 0.1675358862
v -0.05137077346 -0.02544752508 0.1664055586
v -0.05120372772 -0.03718562797 0.1653446704
v -0.05105500296 -0.0438584201 0.1645323783
v -0.05099669471 -0.0463751927 0.1642069072
v -0.05093302578 -0.04748902842 0.1755919904
v -0.05083379149 -0.04732766375 0.1641213596
v -0.0503731668 -0.04689095914 0.1871599555
v -0.05036578327 -0.04519239068 0.1872612834
v -0.05030788854 -0.04097872972 0.1874969304
v -0.05020427331 -0.0334356539 0.1879032105
v -0.05016444623 -0.03044045158 0.1880568713
v -0.05007481202 -0.02356299199 0.1883898377
v -0.0499664098 -0.01522892714 0.1887524128
v -0.04985804856 -0.005876046605 0.189121455
v -0.04975642264 0.003894197289 0.1894759238
v -0.04965754971 0.01359037403 0.1898060441
v -0.04956593737 0.02267967165 0.1901052296
v -0.04950613528 -0.04748728499 0.1868678778
v -0.04927685112 0.04287168011 0.1910203248
v -0.04927685112 0.05257866159 0.1910203248
v -0.04927684739 0.06228564307 0.1910203248
v -0.04885075241 0.06232056394 0.1566108465
v -0.0473835431 -0.0469808355 0.1525207907
v -0.04670707509 -0.04747527093 0.1526357085
v -0.04633930326 -0.04668388888 0.1979341507
v -0.0462298952 -0.04039979354 0.1981838495
v -0.04609163105 -0.03265616298 0.1984733194
v -0.04591939226 -0.02297496609 0.1988031268
v -0.04578588158 -0.01480197813 0.1990543008
v -0.04564908147 -0.005655047949 0.1993133426
v -0.04560982063 -0.0474842675 0.1974847764
v -0.04551475123 0.00395578146 0.19955948
v -0.04500285536 0.04197285324 0.2004920244
v -0.04500285536 0.0521271266 0.2004920244
v -0.04500285164 0.06228140369 0.2004920244
v -0.0444930084 -0.0003927748185 0.1010000035
v -0.04334599152 0.01004294213 0.1010000035
v -0.04313156381 -0.01090889797 0.1010000035
v -0.04102838039 0.06232973561 0.1429101825
v -0.04091380537 -0.04719668254 0.1410755217
v -0.04001851752 -0.04665945098 0.2076102048
v -0.039993871 -0.04491910338 0.2076668143
v -0.03993019462 -0.04034177959 0.2077517062
v -0.03985135257 0.01978079416 0.1010000035
v -0.03978754207 -0.03231142089 0.2079340965
v -0.0396172516 -0.02255263552 0.208137095
v -0.03940972686 -0.04748351499 0.2070197463
v -0.03935888782 -0.005424483214 0.208436355
v -0.03924198821 0.00398612069 0.2085743099
v -0.03922488168 -0.02100254223 0.1010000035
v -0.03911690041 0.04125458002 0.2087315023
v -0.03911690041 0.05176629499 0.2087315023
v -0.03911689669 0.06227801368 0.2087315023
v -0.03908212483 0.02202192694 0.2087641507
v -0.03906934336 0.03568343446 0.2087826133
v -0.03905921429 0.02941150218 0.2087903619
v -0.03392780945 0.02876891196 0.1010000035
v -0.03321184963 0.06232231855 0.1341565996
v -0.03230716661 -0.03057974577 0.1010000035
v -0.03225458041 -0.05494479835 0.1748938709
v -0.03175431862 -0.04670570791 0.2155782878
v -0.03174372017 -0.04511360824 0.215616405
v -0.03165755793 -0.04054616019 0.215692997
v -0.03157350793 -0.05494398996 0.1676206738
v -0.03153052926 -0.03221362084 0.2157960385
v -0.03148729727 -0.02918852121 0.2158294916
v -0.03146045655 -0.04746486247 0.1316536218
v -0.03131306171 -0.05494503304 0.182030946
v -0.03127493709 0.04053196311 0.2160122097
v -0.03127493709 0.05140328035 0.2160122097
v -0.03127493337 0.06227459759 0.2160122097
v -0.03122906387 -0.0474845022 0.2148827016
v -0.03121904284 -0.005273382179 0.2160436064
v -0.03117440641 0.03519200906 0.2160862088
v -0.03114830703 0.003974662162 0.2161029875
v -0.03110837564 0.02905209549 0.2161300778
v -0.03110039979 0.01315754279 0.2161378413
v -0.03108303621 0.02175904252 0.216148138
v -0.02910941653 -0.05494469777 0.1603835374
v -0.02883078158 -0.05494515225 0.1887485385
v -0.02515152842 0.03668632358 0.1010000035
v -0.02490976825 -0.05494515225 0.194772616
v -0.02467550524 -0.05494500697 0.1535483599
v -0.0218665842 -0.04667867348 0.2216145396
v -0.02184344456 -0.04472075403 0.2216426432
v -0.02178920247 -0.0400354825 0.2216741741
v -0.02171837538 -0.03193352744 0.2217149734
v -0.02169942111 -0.02892033383 0.2217259854
v -0.02167605981 0.0398898311 0.221748814
v -0.02167605609 0.06227155775 0.221748814
v -0.02163183689 -0.01415465213 0.2217611074
v -0.02160679735 -0.005303101148 0.2217723727
v -0.02160234749 0.02857528813 0.2217786908
v -0.02158740722 0.003886770224 0.2217814624
v -0.02152462304 -0.04748461023 0.2208691835
v -0.02140780911 -0.03898859397 0.1010000035
v -0.01975405775 -0.05494515225 0.1997775733
v -0.01853405684 -0.05494215712 0.1479061693
v -0.0170540642 0.0623229444 0.1249886975
v -0.01359107625 -0.05494512245 0.2035282254
v -0.01327573042 -0.04228713363 0.1010000035
v -0.01323617063 0.04247237742 0.1010000035
v -0.01102676243 0.02834758535 0.2252840996
v -0.01100909803 0.003797247075 0.2252872288
v -0.01099574193 0.03984915838 0.2252953649
v -0.01099573821 0.06227137148 0.2252953649
v -0.01097497251 -0.0053670872 0.2252959609
v -0.01081459131 -0.02213952504 0.2253285646
v -0.0107471738 -0.04642312974 0.2253242135
v -0.01073059719 -0.04436473548 0.2253309786
v -0.01069539506 -0.03970708326 0.2253451049
v -0.01069492381 -0.03174448013 0.2253514826
v -0.01067902334 -0.047477521 0.2245737463
v -0.01018725242 -0.05494303629 0.1436992139
v -0.006739273202 -0.05494508892 0.2058168501
v -3.741588444e-07 -0.0549451746 0.1419745684
v -3.741588444e-07 -0.05494517088 0.2065482587
v -3.726454452e-07 -0.04749421775 0.2255175263
v -3.724126145e-07 -0.04640401527 0.2264533639
v -3.721797839e-07 -0.04449633136 0.1010000035
v -3.721797839e-07 -0.04439837113 0.2264555395
v -3.593740985e-07 0.03995727003 0.2264937162
v -3.586756066e-07 0.04450110719 0.1010000035
v -3.57744284e-07 0.05111457035 0.2264937162
v -3.559980542e-07 0.0622718744 0.2264937162
v -3.559980542e-07 0.06232522801 0.1224616021
v 0.006738524418 -0.05494508892 0.2058168501
v 0.01018650737 -0.05494303629 0.1436992139
v 0.01067827828 -0.04747752473 0.2245737463
v 0.01069418434 -0.03174448386 0.2253514826
v 0.01069465373 -0.03970708698 0.2253451049
v 0.010729854 -0.04436473921 0.2253309786
v 0.01074642874 -0.04642313346 0.2253242135
v 0.0108138537 -0.02213952877 0.2253285646
v 0.01097424049 -0.00536709046 0.2252959609
v 0.01099502295 0.03984915465 0.2252953649
v 0.01099502668 0.06227136776 0.2252953649
v 0.01100836974 0.003797243815 0.2252872288
v 0.01102604158 0.02834758162 0.2252840996
v 0.01323545352 0.04247237369 0.1010000035
v 0.01327498723 -0.04228713736 0.1010000035
v 0.01359033119 -0.05494512618 0.2035282254
v 0.01705335267 0.06232293695 0.1249886975
v 0.01853330806 -0.05494216457 0.1479061693
v 0.01975331083 -0.0549451597 0.1997775733
v 0.02140706778 -0.03898860142 0.1010000035
v 0.02152387798 -0.04748461768 0.2208691835
v 0.02158667706 0.003886763705 0.2217814624
v 0.02160162479 0.02857528068 0.2217786908
v 0.0216060672 -0.005303107668 0.2217723727
v 0.02163110301 -0.01415465865 0.2217611074
v 0.02167534083 0.03988982365 0.221748814
v 0.02167534456 0.0622715503 0.221748814
v 0.0216986835 -0.02892034128 0.2217259854
v 0.02171763405 -0.03193353489 0.2217149734
v 0.02178846113 -0.04003548995 0.2216741741
v 0.0218426995 -0.04472076148 0.2216426432
v 0.02186583914 -0.04667868093 0.2216145396
v 0.02467475459 -0.05494501442 0.1535483599
v 0.02490902133 -0.0549451597 0.194772616
v 0.02515080944 0.03668631613 0.1010000035
v 0.0288300328 -0.0549451597 0.1887485385
v 0.02910867147 -0.05494470522 0.1603835374
v 0.03108231165 0.0217590332 0.216148138
v 0.03109967522 0.01315753348 0.2161378413
v 0.0311076548 0.02905208617 0.2161300778
v 0.03114757873 0.003974652849 0.2161029875
v 0.03117368557 0.03519200161 0.2160862088
v 0.03121831268 -0.005273391958 0.2160436064
v 0.03122831695 -0.04748450965 0.2148827016
v 0.03127421811 0.04053195566 0.2160122097
v 0.03127422184 0.06227459013 0.2160122097
v 0.03131231666 -0.05494504049 0.182030946
v 0.03145970777 -0.04746486992 0.1316536218
v 0.03148655966 -0.02918853052 0.2158294916
v 0.03152978793 -0.03221362829 0.2157960385
v 0.03157276288 -0.05494399741 0.1676206738
v 0.03165681288 -0.04054616764 0.215692997
v 0.03174297512 -0.04511361569 0.215616405
v 0.03175357357 -0.04670571536 0.2155782878
v 0.03225383535 -0.0549448058 0.1748938709
v 0.032306429 -0.03057975508 0.1010000035
v 0.03321114182 0.0623223111 0.1341565996
v 0.03392708674 0.02876890078 0.1010000035
v 0.03905849159 0.02941149101 0.2087903619
v 0.03906862065 0.03568341956 0.2087826133
v 0.03908140212 0.02202191576 0.2087641507
v 0.03911618516 0.04125456512 0.2087315023
v 0.03911618888 0.06227799878 0.2087315023
v 0.03922414407 -0.0210025534 0.1010000035
v 0.03924125805 0.003986108582 0.2085743099
v 0.03935815766 -0.005424494855 0.208436355
v 0.0394089818 -0.0474835299 0.2070197463
v 0.039616514 -0.0225526467 0.208137095
v 0.03978680447 -0.03231143579 0.2079340965
v 0.03985062987 0.01978078298 0.1010000035
v 0.03992944956 -0.04034179449 0.2077517062
v 0.03999312595 -0.04491911829 0.2076668143
v 0.04001777247 -0.04665946588 0.2076102048
v 0.04091306031 -0.04719669744 0.1410755217
v 0.04102767259 0.06232972071 0.1429101825
v 0.04313083366 -0.010908911 0.1010000035
v 0.04334526137 0.01004292909 0.1010000035
v 0.04449227825 -0.0003927882644 0.1010000035
v 0.0450021401 0.04197283834 0.2004920244
v 0.04500214383 0.06228138879 0.2004920244
v 0.04551402107 0.00395576749 0.19955948
v 0.04560907558 -0.0474842824 0.1974847764
v 0.04564835131 -0.005655061454 0.1993133426
v 0.04578514397 -0.0148019921 0.1990543008
v 0.04591865465 -0.022974981 0.1988031268
v 0.04609089345 -0.03265617788 0.1984733194
v 0.04622915015 -0.04039980844 0.1981838495
v 0.0463385582 -0.04668390378 0.1979341507
v 0.04670633003 -0.04747528583 0.1526357085
v 0.04738279805 -0.0469808504 0.1525207907
v 0.04885004461 0.06232054904 0.1566108465
v 0.04927613586 0.04287166521 0.1910203248
v 0.04927613959 0.06228562817 0.1910203248
v 0.04950539023 -0.04748729989 0.1868678778
v 0.04956521466 0.02267965674 0.1901052296
v 0.049656827 0.01359035913 0.1898060441
v 0.04975569248 0.003894182388 0.1894759238
v 0.0498573184 -0.005876061972 0.189121455
v 0.04996567219 -0.01522894204 0.1887524128
v 0.05007407442 -0.02356300689 0.1883898377
v 0.05016370863 -0.03044046648 0.1880568713
v 0.05020353571 -0.0334356688 0.1879032105
v 0.05030714348 -0.04097874463 0.1874969304
v 0.05036503822 -0.04519240558 0.1872612834
v 0.05037242174 -0.04689097404 0.1871599555
v 0.05083304644 -0.04732767865 0.1641213596
v 0.05093228072 -0.04748904333 0.1755919904
v 0.05099594966 -0.0463752076 0.1642069072
v 0.0510542579 -0.043858435 0.1645323783
v 0.05120298266 -0.03718564287 0.1653446704
v 0.05137003586 -0.02544753999 0.1664055586
v 0.05152352154 -0.00639962405 0.1675358862
v 0.05158747733 0.003692445112 0.1679943651
v 0.05164754391 0.04508274794 0.1803204566
v 0.05164754763 0.06229607388 0.1803204566
v 0.05167175829 0.02376501821 0.1687395275
v 0.05169886351 0.04778886586 0.1693186909
v 0.05169886723 0.06230885163 0.1693186909
v 0.05177588388 0.003813526826 0.1787638068
v 0.05181401968 -0.006076214835 0.1783412099
v 0.05184463039 -0.01562199742 0.1778871715
v 0.05185190961 -0.04707634822 0.1756798178
v 0.05186570808 -0.02444543317 0.1773996651
v 0.05190522224 -0.0352755487 0.1766745597
v 0.05194023252 -0.0424763523 0.1761173308
v 0.0519448109 -0.04580575973 0.1758282632
f 145 133 137
f 145 176 133
f 147 142 139
f 1 21 5
f 139 142 141
f 141 129 139
f 142 129 141
f 88 70 79
f 57 84 100
f 161 145 137
f 176 145 161
f 11 54 53
f 1 2 11
f 52 70 11
f 11 70 88
f 176 217 180
f 180 198 176
f 138 147 139
f 139 129 138
f 150 146 175
f 136 146 150
f 20 21 1
f 53 21 20
f 23 5 21
f 128 127 136
f 136 138 128
f 128 138 129
f 136 127 126
f 5 35 24
f 1 5 24
f 24 2 1
f 77 35 22
f 22 35 5
f 22 23 77
f 5 23 22
f 113 84 57
f 57 76 113
f 96 41 57
f 57 100 96
f 96 100 77
f 137 133 131
f 133 100 131
f 191 217 176
f 176 161 191
f 12 11 53
f 54 11 39
f 39 234 56
f 39 142 234
f 39 11 88
f 97 100 133
f 133 134 97
f 133 176 179
f 179 134 133
f 152 150 171
f 175 146 164
f 164 197 175
f 174 150 175
f 148 138 136
f 147 138 148
f 215 197 216
f 212 206 211
f 19 18 53
f 53 20 19
f 1 18 19
f 19 20 1
f 101 126 102
f 102 79 101
f 130 101 112
f 126 101 130
f 136 126 130
f 51 59 52
f 51 50 59
f 49 47 59
f 59 50 49
f 50 51 49
f 52 47 49
f 49 51 52
f 59 44 43
f 45 44 59
f 45 47 52
f 52 44 45
f 2 24 3
f 6 24 25
f 59 43 58
f 102 92 90
f 88 79 80
f 80 79 102
f 102 106 94
f 94 92 102
f 106 107 94
f 59 79 62
f 71 66 79
f 88 107 123
f 142 39 123
f 123 39 88
f 123 129 142
f 123 122 129
f 84 113 118
f 40 67 76
f 57 41 40
f 40 76 57
f 41 23 40
f 55 21 53
f 55 23 21
f 55 40 23
f 67 40 55
f 77 23 81
f 81 96 77
f 81 23 41
f 41 96 81
f 115 100 84
f 115 131 100
f 84 118 115
f 115 118 137
f 137 131 115
f 232 180 217
f 217 233 232
f 52 11 15
f 15 11 2
f 2 6 15
f 15 28 29
f 15 25 26
f 32 29 30
f 1 12 16
f 16 12 53
f 9 12 1
f 207 219 233
f 269 265 251
f 56 75 74
f 265 237 250
f 250 237 198
f 248 265 269
f 248 237 265
f 225 237 248
f 77 100 85
f 100 97 85
f 85 35 77
f 176 198 190
f 190 179 176
f 198 237 190
f 190 237 225
f 225 179 190
f 216 197 210
f 210 179 225
f 147 148 151
f 150 152 151
f 168 152 171
f 208 211 204
f 223 236 258
f 258 263 264
f 229 236 223
f 144 146 134
f 171 150 172
f 150 174 173
f 173 172 150
f 136 150 149
f 149 148 136
f 150 151 149
f 149 151 148
f 214 206 212
f 212 215 214
f 223 206 214
f 214 215 223
f 209 211 208
f 27 15 26
f 28 15 27
f 134 146 135
f 135 130 134
f 135 146 136
f 136 130 135
f 59 47 46
f 46 45 59
f 47 45 46
f 7 25 8
f 7 6 25
f 7 15 6
f 4 3 24
f 24 6 4
f 2 3 4
f 4 6 2
f 78 79 59
f 59 58 78
f 78 101 79
f 112 101 78
f 78 58 64
f 42 58 43
f 36 32 42
f 25 24 42
f 64 58 42
f 26 25 42
f 30 29 42
f 42 27 26
f 29 28 42
f 28 27 42
f 102 90 83
f 93 107 88
f 59 62 60
f 60 62 70
f 52 59 60
f 60 70 52
f 72 79 70
f 66 71 63
f 63 62 79
f 70 62 63
f 102 126 103
f 126 104 103
f 103 106 102
f 103 104 106
f 105 108 106
f 106 104 105
f 105 104 126
f 106 108 110
f 122 123 110
f 110 107 106
f 110 123 107
f 108 105 124
f 124 105 126
f 198 180 194
f 180 232 194
f 8 25 13
f 13 7 8
f 52 15 38
f 38 44 52
f 38 15 29
f 29 32 38
f 38 43 44
f 38 42 43
f 17 18 1
f 1 16 17
f 53 18 17
f 17 16 53
f 11 12 10
f 12 9 10
f 1 11 10
f 10 9 1
f 234 220 213
f 221 251 219
f 217 191 163
f 249 251 265
f 265 250 249
f 249 232 233
f 249 194 232
f 233 219 249
f 219 251 249
f 249 250 198
f 198 194 249
f 98 74 75
f 56 74 61
f 61 39 56
f 54 39 61
f 119 98 116
f 116 98 75
f 116 75 56
f 56 234 218
f 218 213 201
f 234 213 218
f 264 248 266
f 266 248 267
f 225 248 231
f 216 210 231
f 231 210 225
f 231 235 236
f 112 114 117
f 117 114 134
f 117 130 112
f 99 97 134
f 134 114 99
f 64 97 99
f 99 114 64
f 165 168 166
f 166 156 165
f 165 156 155
f 165 155 152
f 205 211 206
f 205 204 211
f 263 258 257
f 257 262 263
f 261 221 220
f 261 220 234
f 234 189 261
f 261 189 206
f 261 206 223
f 223 258 261
f 268 258 264
f 269 261 268
f 268 261 258
f 268 248 269
f 267 248 268
f 264 266 268
f 268 266 267
f 236 229 230
f 230 231 236
f 216 231 230
f 230 215 216
f 230 229 215
f 223 215 222
f 206 189 196
f 208 204 196
f 196 209 208
f 175 197 196
f 196 174 175
f 211 209 196
f 212 211 196
f 196 215 212
f 197 215 196
f 142 147 154
f 234 142 154
f 154 189 234
f 89 114 112
f 112 78 89
f 64 114 89
f 89 78 64
f 31 32 30
f 30 42 31
f 31 42 32
f 48 24 35
f 48 42 24
f 35 85 48
f 48 85 97
f 48 97 64
f 64 42 48
f 88 80 87
f 80 86 87
f 82 86 80
f 82 80 102
f 102 83 82
f 92 86 82
f 82 90 92
f 82 83 90
f 91 93 88
f 88 87 91
f 91 87 86
f 92 94 91
f 91 86 92
f 95 94 107
f 107 93 95
f 95 91 94
f 93 91 95
f 79 66 65
f 65 63 79
f 66 63 65
f 73 71 79
f 79 72 73
f 73 72 71
f 71 72 68
f 68 63 71
f 108 124 109
f 111 109 124
f 111 110 108
f 108 109 111
f 125 126 127
f 125 124 126
f 127 128 125
f 125 128 129
f 129 122 125
f 122 124 125
f 25 15 14
f 14 13 25
f 15 7 14
f 7 13 14
f 33 32 36
f 36 34 33
f 33 38 32
f 33 34 38
f 37 34 36
f 38 34 37
f 36 42 37
f 42 38 37
f 254 221 255
f 254 255 269
f 254 253 221
f 269 253 254
f 217 163 199
f 199 233 217
f 199 207 233
f 158 163 191
f 158 161 137
f 158 191 161
f 269 251 252
f 252 253 269
f 251 221 252
f 221 253 252
f 200 218 201
f 160 218 200
f 143 218 160
f 143 116 56
f 56 218 143
f 247 231 248
f 247 257 258
f 262 257 247
f 263 262 247
f 264 263 247
f 247 248 264
f 242 231 243
f 243 258 236
f 134 130 132
f 132 117 134
f 130 117 132
f 179 210 177
f 210 162 177
f 134 179 177
f 177 162 134
f 187 210 197
f 187 162 210
f 197 164 187
f 164 162 187
f 159 144 134
f 134 162 159
f 159 162 164
f 159 164 146
f 146 144 159
f 153 156 166
f 155 156 153
f 152 155 153
f 153 151 152
f 147 151 153
f 152 168 167
f 167 165 152
f 168 165 167
f 170 183 189
f 189 154 170
f 181 183 170
f 170 154 166
f 170 182 181
f 236 235 238
f 238 239 236
f 235 239 238
f 241 231 242
f 182 174 184
f 174 186 184
f 184 186 193
f 174 193 192
f 192 186 174
f 193 186 192
f 195 196 189
f 195 193 174
f 174 196 195
f 206 196 203
f 203 205 206
f 204 205 203
f 70 63 69
f 63 68 69
f 69 72 70
f 69 68 72
f 121 124 122
f 121 111 124
f 178 200 201
f 178 157 160
f 160 200 178
f 119 116 140
f 116 143 140
f 160 157 140
f 140 143 160
f 245 231 246
f 231 247 246
f 258 245 246
f 246 247 258
f 244 231 245
f 244 243 231
f 244 245 258
f 258 243 244
f 236 239 240
f 240 243 236
f 231 241 240
f 242 243 240
f 240 241 242
f 235 231 240
f 240 239 235
f 169 174 182
f 182 170 169
f 169 173 174
f 171 172 169
f 172 173 169
f 169 168 171
f 166 168 169
f 169 170 166
f 260 261 269
f 221 261 259
f 261 260 259
f 259 260 269
f 215 229 228
f 228 229 223
f 223 226 228
f 224 222 215
f 215 226 224
f 223 222 224
f 224 226 223
f 182 184 185
f 189 183 185
f 181 182 185
f 185 183 181
f 188 184 193
f 188 195 189
f 193 195 188
f 189 185 188
f 188 185 184
f 202 196 204
f 204 203 202
f 202 203 196
f 120 121 122
f 111 121 120
f 122 110 120
f 110 111 120
f 255 221 256
f 221 259 256
f 269 255 256
f 256 259 269
f 227 226 215
f 215 228 227
f 227 228 226
f 166 154 153
f 153 154 147
f 53 54 140
f 137 118 140
f 140 221 219
f 140 98 119
f 140 113 76
f 76 67 140
f 140 55 53
f 54 61 140
f 140 118 113
f 67 55 140
f 201 213 140
f 219 207 140
f 207 199 140
f 140 213 220
f 220 221 140
f 140 158 137
f 74 98 140
f 140 61 74
f 140 178 201
f 140 199 163
f 163 158 140
f 157 178 140
