v -0.04443679377 0.002174120862 0.1488094181
v -0.04434875399 0.002769871615 0.1574704945
v -0.04427696392 0.00134045328 0.1380020529
v -0.04417877272 -0.006570259575 0.1489526778
v -0.04417746514 -0.006640960462 0.1576353461
v -0.04404473305 0.003060020274 0.1644387245
v -0.04393276572 -0.006509883795 0.1645284742
v -0.04378903285 -0.006627654657 0.1380000114
v -0.04371416941 0.0123812817 0.1580610722
v -0.04366353899 0.01114035957 0.1493443698
v -0.04364687204 0.00311016757 0.1705229282
v -0.0435853824 0.01270657871 0.1649648547
v -0.04357400164 -0.006152440328 0.1706015915
v -0.04334190115 0.009375624359 0.1380000114
v -0.04333595932 -0.0154784238 0.1652420908
v -0.04332833365 0.01239342056 0.1711854935
v -0.04330639169 -0.01560867764 0.158439979
v -0.04318521544 -0.01484249253 0.1714622974
v -0.0430784747 0.003040659241 0.176486358
v -0.04302811623 -0.005705933552 0.1766123474
v -0.04284840822 0.01183470432 0.1772751212
v -0.04274985567 -0.01405690145 0.1776522845
v -0.04270104691 0.02111483179 0.1727794409
v -0.04255639017 -0.02272238024 0.1731757373
v -0.04241837189 0.02037819102 0.1790691763
v -0.04237661138 0.002932787174 0.1824827939
v -0.04233353958 -0.005314246751 0.182609573
v -0.04231195897 -0.02195124142 0.1795953363
v -0.04216490686 0.01126598287 0.1833079904
v -0.04208919406 -0.01332992688 0.1836986095
v -0.04206310958 -0.01433722675 0.1380000114
v -0.04197868705 0.02942730859 0.1753379256
v -0.04188672453 -0.03032154776 0.1758229882
v -0.04176059738 0.01961387694 0.1851937026
v -0.04175416008 0.02888737433 0.1818707883
v -0.04163644463 -0.02990114689 0.1825157851
v -0.04163592681 -0.02121781558 0.1857988983
v -0.04153288901 0.002796231303 0.1884084046
v -0.04149582982 -0.004984096624 0.1885482222
v -0.04134000465 0.01068969164 0.189223513
v -0.04125899076 -0.01265902352 0.1896297038
v -0.04107062146 0.02827839367 0.1881782264
v -0.04106739536 0.01732073911 0.1380000114
v -0.04094657674 0.03809171915 0.1787384152
v -0.04093300924 -0.02941315621 0.1889355779
v -0.04092687741 0.01878743619 0.1911187172
v -0.04091002047 -0.0385116525 0.1793080866
v -0.04087089747 0.03784175962 0.1853754073
v -0.04079250246 -0.0204329174 0.1917397827
v -0.04078119993 -0.03836210072 0.1861004233
v -0.04062957317 0.002638512291 0.1941563338
v -0.04060319066 -0.004689785652 0.194261685
v -0.04046074301 0.01008674782 0.1948863268
v -0.04037413746 -0.01200322807 0.1952904612
v -0.04020346701 0.02752120234 0.1942483187
v -0.04013845697 0.03758765012 0.1918391138
v -0.04005962238 0.01784728281 0.1966791153
v -0.04004061967 -0.0287536364 0.1950467378
v -0.03998631984 -0.03817696124 0.1926603019
v -0.03993182629 -0.01953372732 0.1972542554
v -0.03976725787 0.00244525075 0.199445501
v -0.03973959014 -0.004426151048 0.1995437145
v -0.03971493244 0.04707957804 0.1880408973
v -0.03967370838 -0.04707340896 0.188805759
v -0.03961236775 0.00946821738 0.2000893503
v -0.03960733861 -0.04715405032 0.1821065396
v -0.0395330973 -0.01132174395 0.2004639506
v -0.03951943293 0.04716558754 0.1815094203
v -0.03931586072 0.0264795199 0.1999662817
v -0.03927018866 0.01672466472 0.2016113997
v -0.03917047754 0.03738692403 0.1981690079
v -0.03916013241 -0.0277934745 0.200680837
v -0.03914096951 -0.01844016835 0.2021987438
v -0.03900327161 -0.02184718661 0.1380000114
v -0.03899864852 -0.03795257956 0.1990343779
v -0.03892257065 0.04703831673 0.194432795
v -0.03880805895 -0.04703296721 0.1952906251
v -0.03865564615 0.02442736924 0.2043255568
v -0.03854867071 -0.04728769884 0.1754339784
v -0.03848985955 -0.02590375021 0.2050958127
v -0.03843523934 0.0472987853 0.1750356406
v -0.03811357543 0.04700051993 0.2004932165
v -0.03801288083 0.03713160381 0.2053036392
v -0.03796082735 -0.04700009525 0.201434195
v -0.03784684837 -0.03766290843 0.2061553895
v -0.03765181452 0.03219397366 0.2087868899
v -0.03744892031 -0.03319603577 0.2097421139
v -0.03714061528 0.04700401053 0.2063212842
v -0.03710773215 0.02512342855 0.1380000114
v -0.03654597327 0.04074061662 0.2129193991
v -0.03633216396 -0.04749401286 0.1687195301
v -0.03632481024 0.04749465734 0.1687014401
v -0.03624671698 -0.04112071916 0.2145651132
v -0.03604181856 0.04704960436 0.2126149088
v -0.03572269529 -0.04704954103 0.2145277262
v -0.03528978303 0.03960673138 0.220927462
v -0.03525597602 0.04256739467 0.2198318541
v -0.03525174782 0.03724274412 0.2220477909
v -0.03491969779 -0.04021294042 0.2229117155
v -0.03490797803 0.04704938084 0.2194111347
v -0.03490731865 -0.0379678607 0.2238662094
v -0.0348674804 -0.04291697592 0.2219981104
v -0.03418122977 0.03906634822 0.2277813405
v -0.03413041309 0.04113336653 0.2272610813
v -0.03411915153 -0.02926460281 0.1380000114
v -0.03335046768 -0.04704907537 0.2287468016
v -0.03322046995 -0.04966985807 0.1891638637
v -0.03304482624 -0.04956024513 0.183003813
v -0.03296362236 0.04776414856 0.1622716784
v -0.03275035322 -0.0496705249 0.1954200119
v -0.03268335015 0.04983876273 0.188342616
v -0.03265966848 -0.04778662696 0.1618152857
v -0.0326442793 0.04704894125 0.2329796553
v -0.03240893036 0.04972683638 0.182392776
v -0.03230237961 0.04988599196 0.1943327785
v -0.03221225366 -0.0470488593 0.2355691791
v -0.03209504113 -0.04948889464 0.1768486649
v -0.03200548142 -0.04960948229 0.2015293539
v -0.03161053732 0.04982566833 0.2002696246
v -0.03153751791 0.04704872146 0.2395347655
v -0.03142315149 0.04963443056 0.1765731424
v -0.0311490614 -0.04956251383 0.2077475488
v -0.03102246299 0.03263661265 0.1380000114
v -0.03089418635 0.04206782579 0.2462985516
v -0.03081266396 0.0497842133 0.2061718702
v -0.03048461862 -0.04209444299 0.2487460375
v -0.03019523248 -0.04950686917 0.2143952549
v -0.03019417077 -0.04940079153 0.1708436608
v -0.02993997186 0.04973376915 0.21235542
v -0.02981340885 0.04212125018 0.2527627945
v -0.02960391715 0.04955999926 0.170925051
v -0.02951910347 -0.04018622264 0.2552975118
v -0.02939452417 -0.04211792722 0.2552528381
v -0.0287959408 0.04011059925 0.2596620917
v -0.02867284231 0.04211034998 0.2595411241
v -0.02851056494 0.04440669343 0.2592764497
v -0.02839170396 -0.04007829353 0.2620820403
v -0.02824882418 -0.04202117026 0.2620664537
v -0.0282450188 -0.04937668517 0.2280835211
v -0.02811608836 0.04959580302 0.2254525125
v -0.0280717425 -0.04434100166 0.2619731724
v -0.02774320543 0.0481326282 0.1557239741
v -0.02747440711 0.04000103474 0.2669409215
v -0.02743262798 0.04191198573 0.2667669058
v -0.02730081417 0.04427459836 0.2664999068
v -0.02728911117 -0.04931475222 0.2347489446
v -0.02720206603 0.04952516779 0.2320142537
v -0.027039757 -0.0494164452 0.1646933109
v -0.02703233808 0.04704833403 0.2661835849
v -0.02694776468 -0.03989837691 0.2695457041
v -0.0268920809 -0.04176606238 0.2695102096
v -0.02678931132 -0.03626678884 0.1380000114
v -0.0267722588 0.04954793677 0.165376693
v -0.02663343959 -0.0514132008 0.1897565722
v -0.02653568424 -0.04821458086 0.1545401663
v -0.02653548121 -0.04704828188 0.2693311572
v -0.02640067041 -0.05149831995 0.1957270354
v -0.02635666728 -0.05123366416 0.1839573085
v -0.02584818751 -0.05146285892 0.2017647028
v -0.0254916735 -0.05104328319 0.178325057
v -0.02540242113 0.04171730205 0.274490267
v -0.02539915033 0.05157364532 0.1887967885
v -0.02534141205 0.03985324129 0.2747342587
v -0.02526679076 0.05170606077 0.1944208145
v -0.02518490143 -0.05138942599 0.2079166472
v -0.02516935207 0.04704821482 0.2737832367
v -0.02502589114 0.05138884857 0.1833497584
v -0.02480942383 0.05172148347 0.2001799345
v -0.02451835386 0.04928128421 0.2513008416
v -0.02445971221 -0.04909390956 0.2541597188
v -0.0242046006 0.05165203288 0.2060389072
v -0.02412306704 0.05121155083 0.1781392246
v -0.02409703285 -0.03997786343 0.2774298489
v -0.02404271439 -0.04163581133 0.2773127854
v -0.02384629101 -0.05080433562 0.1727816761
v -0.02366731875 -0.04704820365 0.2770429254
v -0.02363314852 0.04916503653 0.257835269
v -0.0235429164 0.05158920214 0.2120990455
v -0.02348149568 -0.04900978506 0.2608700693
v -0.02292723209 -0.05118316785 0.2275078744
v -0.02285805903 0.05151828378 0.2183723301
v -0.02259869687 0.04900148138 0.2646262348
v -0.02255858481 0.05100591481 0.1731552184
v -0.02236826159 0.03920057416 0.1380000114
v -0.02228420414 0.04960842058 0.1596155167
v -0.02207241952 -0.04877635092 0.2678842843
v -0.02192592807 -0.04952082783 0.1584938467
v -0.02136442065 -0.05060375109 0.1674266905
v -0.0211649593 0.04429766536 0.281196177
v -0.02115766518 0.04185381532 0.2814661264
v -0.02114573121 0.04704812914 0.2808546722
v -0.02110434696 0.04021060839 0.2816575468
v -0.02079624496 0.04864803329 0.2714322507
v -0.02019326016 0.050824292 0.1684494615
v -0.02006646805 0.04864597321 0.1495857835
v -0.02000003681 -0.05234122649 0.1904842407
v -0.01994304173 -0.05251399428 0.1962014139
v -0.01991343312 -0.05084045604 0.2533731461
v -0.01962980442 -0.05210264772 0.1849871576
v -0.01957448386 -0.05255720764 0.2020749003
v -0.01953699626 -0.048430264 0.2747057676
v -0.01952690445 0.05111120269 0.2503295541
v -0.01906852238 -0.05248834565 0.208101362
v -0.0190275982 -0.05058291182 0.2599260807
v -0.01887492277 0.05089276657 0.2567286193
v -0.01886347868 -0.0404551886 0.2841025591
v -0.01879993081 -0.04199989885 0.2839966118
v -0.01878860034 -0.05186583847 0.1797082573
v -0.01868151687 -0.04438952357 0.2838456333
v -0.01852398179 -0.04704798013 0.2836717367
v -0.01851327717 -0.05241861939 0.2143089473
v -0.01805372536 0.05269612372 0.1946890354
v -0.01798299886 0.05251300707 0.1893927604
v -0.01793420315 -0.05234063417 0.2206573635
v -0.01793387532 0.0504825823 0.2631284893
v -0.01780536026 0.05278802291 0.2002306283
v -0.0176989492 -0.05008857325 0.2664194405
v -0.01749556512 -0.05053118244 0.1623726338
v -0.01748901792 0.05227629095 0.1843400747
v -0.0174876824 0.04835380241 0.2775580883
v -0.01745096967 -0.04881897196 0.148006618
v -0.01739462651 -0.0516134873 0.1746164858
v -0.01736126281 -0.05225669593 0.2270893008
v -0.01705132984 -0.04184223711 0.1380000114
v -0.01693752781 0.05269774795 0.211863026
v -0.01692955568 0.05073302239 0.1639837921
v -0.0167979598 -0.05216774717 0.2335219234
v -0.01657209359 0.05203838274 0.1796134114
v -0.01645390503 0.05263806507 0.2179675996
v -0.0163981542 0.04993884265 0.2692005336
v -0.01598625444 0.05255720764 0.2242115736
v -0.01583599113 0.04982038215 0.1543809474
v -0.01566678472 -0.05197723955 0.2462894917
v -0.01551518776 0.05246473104 0.2305508554
v -0.01544063259 -0.05136289448 0.1698718965
v -0.01539594121 -0.04959136993 0.2724493444
v -0.01535369083 0.04704776034 0.2864507139
v -0.01525931526 0.03997327015 0.2871316969
v -0.01521798503 0.05182477832 0.1753630787
v -0.01514620893 -0.04818143323 0.2804403901
v -0.01513051149 -0.05174696445 0.2526372373
v -0.01461216528 0.05224506557 0.2431942821
v -0.01453336608 -0.04981771484 0.1532533467
v -0.01441508159 -0.05140111595 0.2589643002
v -0.01421323046 0.05201135203 0.2494620979
v -0.01383788697 0.04948263243 0.2745719254
v -0.01377485599 0.05169076473 0.2556635439
v -0.01349820662 -0.05300428346 0.196768105
v -0.01346934773 -0.05295369029 0.1913082153
v -0.01341027301 0.0516497381 0.1718154997
v -0.01327168848 -0.05094923452 0.265016973
v -0.01324442402 -0.05302443728 0.2024294734
v -0.01310172863 0.05127471313 0.2616770566
v -0.01304810587 -0.05275702477 0.1860575825
v -0.01227750629 -0.05244224146 0.1809749603
v -0.01224076003 0.05139697716 0.1680591404
v -0.0121962158 -0.04133887589 0.2887399197
v -0.01215330977 -0.04273694381 0.2886641324
v -0.01206787955 -0.04481373355 0.2885133922
v -0.01199312042 0.05082085356 0.2672384083
v -0.01194397826 -0.04704761878 0.2883498073
v -0.01185742579 -0.05062509701 0.158582136
v -0.01184480079 0.05072116852 0.1597999036
v -0.01184114721 0.04367021471 0.1380000114
v -0.01171431225 -0.05296140537 0.2268212587
v -0.01170077268 -0.04921227694 0.2775697708
v -0.01138407364 -0.05039323121 0.2705480456
v -0.01133010164 -0.05293049291 0.233160153
v -0.01115504839 -0.05210978165 0.1760590076
v -0.01095470134 -0.05289623141 0.2394866347
v -0.01076085679 0.05306241289 0.1950109005
v -0.01068001334 0.05306250975 0.200302273
v -0.0105921831 -0.0525961481 0.2457814217
v -0.01059159823 0.05302368477 0.1899992079
v -0.01031041145 0.0492631793 0.1451654732
v -0.01023415104 -0.05218813196 0.2520023286
v -0.01018339582 0.05306579918 0.2116422057
v -0.0101743089 0.05026805773 0.2720966339
v -0.01006781124 0.0528704375 0.1852149069
v -0.009961951524 0.04911924154 0.2789793611
v -0.009878399782 -0.05175097659 0.1709646434
v -0.00972255785 -0.05178646743 0.2580609024
v -0.00943233259 -0.04802426323 0.2845951319
v -0.009158329107 0.05301616713 0.2363480181
v -0.009146174416 0.05259129405 0.1806671619
v -0.00892482046 0.05291414633 0.2426128089
v -0.008857432753 -0.05139828846 0.2637791336
v -0.008738172241 0.05252307653 0.2487614155
v -0.008368484676 -0.04992252961 0.2750967443
v -0.008255586959 0.04305065796 0.2902288139
v -0.008251153864 0.04175668582 0.2902859449
v -0.008246224374 0.04499303922 0.290091306
v -0.008243027143 0.04077547416 0.2903254926
v -0.00823398307 0.04704760015 0.2899275124
v -0.008193826303 0.03989383578 0.2903584242
v -0.008065210655 0.05169532448 0.260376513
v -0.008006383665 0.05229552463 0.1765207052
v -0.007655582856 0.05016513169 0.1512897611
v -0.0074916007 -0.05091128871 0.2690627277
v -0.007379932329 0.05129806325 0.2656054199
v -0.007339458913 0.04985616729 0.2758484185
v -0.007016490214 -0.04896300286 0.2809224427
v -0.006984071806 -0.05309450999 0.1921104193
v -0.006705560256 -0.05305557698 0.1870381087
v -0.006455981173 -0.04943423346 0.1442614496
v -0.006445319857 0.04799949005 0.2857664824
v -0.006434352603 0.05078550801 0.2702609003
v -0.00629980024 -0.05039151758 0.2728559375
v -0.006201713346 -0.05280519277 0.1819567978
v -0.005902249366 -0.04487526417 0.1380000114
v -0.005729715806 -0.05020614713 0.1508116722
v -0.005587765947 -0.05308855325 0.2392134219
v -0.005572547205 -0.05239850283 0.1768056005
v -0.005504268222 0.05033547804 0.2734601796
v -0.005417554639 -0.05290547386 0.2454502881
v -0.005389412399 0.05082858726 0.1575390846
v -0.005231541116 -0.0524741672 0.2515167296
v -0.005168482196 -0.05080995709 0.1571972668
v -0.0049556382 -0.04111762345 0.2912977636
v -0.00494096661 -0.04204617813 0.2912425101
v -0.004858569242 0.04891075194 0.2817442119
v -0.004807617981 -0.04972657934 0.2773387134
v -0.004750782158 -0.04704772308 0.2908707261
v -0.0044327043 -0.05162127689 0.2628751993
v -0.003861157224 -0.05115460604 0.2682065964
v -0.003607484046 -0.05043433234 0.27333951
v -0.003407377517 0.04969636351 0.2778266668
v -0.003367835889 -0.04798447341 0.2865484059
v -0.00325406529 0.05310970917 0.1902941763
v -0.003163620364 0.05310168862 0.2359989136
v -0.003109156387 0.05307210609 0.2422321886
v -0.003068184247 0.05278271809 0.2482922524
v -0.003002440557 0.05234026909 0.2540324032
v -0.002923923312 0.05308493972 0.1855631769
v -0.002841442823 0.05191636831 0.259476155
v -0.002596214879 0.05151230842 0.2646382153
v -0.002580513246 0.05038705468 0.2738105357
v -0.00256766635 0.05280065164 0.1807823777
v -0.002435173141 0.05104028434 0.2694512606
v -0.002222510986 -0.04887282103 0.2823550701
v -0.001127649331 -0.0496850647 0.2780198455
v -0.0006344283465 0.04124804214 0.2918044329
v -0.0006152002607 0.04216976836 0.2917371094
v -0.0006025400362 0.04340845719 0.2916361094
v -0.0005751415156 0.04519534856 0.2914733291
v -0.0005624929909 -0.05296652764 0.1826110929
v -0.0005464580609 -0.05310839042 0.1876749247
v -0.0005281245103 0.04704777524 0.2912860811
v -0.000487087993 -0.05311047286 0.192627728
v -0.0003973129205 -0.05050378293 0.2732224464
v -0.0001837726595 -0.05310489982 0.2328966707
v -0.0001765892812 -0.05310244486 0.2391508967
v -0.0001662594441 -0.05298912153 0.2453177422
v -0.0001293566311 -0.05258242786 0.251278758
v -8.055599028e-05 0.04795999825 0.2869049609
v -7.574777555e-05 -0.05121116713 0.2678965032
v -4.544219337e-05 0.04532046989 0.1379999965
v -2.976145697e-05 -0.05170010775 0.2625005543
v 0.0003737470252 0.04882949218 0.2826879025
v 0.000859703985 0.04961885884 0.2783922255
v 0.0009868373163 0.04953464121 0.1436992586
v 0.001419044449 0.05038049445 0.2739516497
v 0.001441538101 0.05028808117 0.1504671425
v 0.001892993692 0.0510660708 0.2693332136
v 0.001893761219 0.05084900185 0.1569203883
v 0.00191713497 -0.05087560415 0.157295987
v 0.002228606259 0.05152865499 0.2644510567
v 0.002285443246 -0.04122972116 0.2916837931
v 0.002305438975 -0.04215478897 0.2916119695
v 0.002333522076 -0.04882178083 0.2826226056
v 0.002340659732 -0.04794856906 0.2868500352
v 0.002344000852 -0.04338498786 0.2915094197
v 0.002436800627 0.0519397445 0.2592908442
v 0.002463319572 -0.04704776034 0.2911851704
v 0.002586691873 0.05235829204 0.2538791299
v 0.002640435239 -0.049638208 0.2781936228
v 0.002683095401 0.052789893 0.248154074
v 0.002769760787 0.05306786299 0.2421116084
v 0.002890608506 0.05310337991 0.2358986735
v 0.003244119231 -0.05047077313 0.2732402086
v 0.003418168984 -0.05028603971 0.1506849378
v 0.003471601754 0.05275038257 0.1802895367
v 0.003758023027 0.05307242274 0.1851556152
v 0.003917483613 -0.0511893183 0.2680221498
v 0.003945689648 0.05310548097 0.1899798512
v 0.004447201267 -0.05163733289 0.2626766562
v 0.004521094728 -0.05252248421 0.1779400259
v 0.004985250067 -0.05249173567 0.2514017522
v 0.005081999116 -0.052913744 0.182920754
v 0.005107027013 -0.0529230535 0.2454204708
v 0.005126332399 0.04949737713 0.2785590887
v 0.005151561927 -0.04947070032 0.1440628469
v 0.005241077859 -0.05308312178 0.2392760664
v 0.005292466376 0.04875408858 0.2824520171
v 0.005411427002 -0.05308818817 0.2330598831
v 0.005562700331 -0.0530927293 0.2268850058
v 0.005608889274 0.05019495636 0.2743117809
v 0.005705595948 -0.05308952555 0.1878403276
v 0.00586600462 -0.04488015175 0.1380000114
v 0.006072890479 -0.05309766531 0.1927979887
v 0.006146164145 -0.05309859663 0.2032960057
v 0.006182412151 -0.04948979989 0.2783487439
v 0.006403650623 0.05085644871 0.2698041499
v 0.006529645994 -0.04873438552 0.2822135389
v 0.00681801606 0.04099456593 0.2908614576
v 0.006840014365 0.0419065021 0.290805608
v 0.006871920545 0.04704764485 0.2902963161
v 0.006872299127 0.04507194087 0.2905307412
v 0.006958860438 -0.05023266375 0.273645997
v 0.007178550586 0.05136889964 0.2649715543
v 0.007758865133 0.05175241455 0.259798646
v 0.008075888269 -0.05094222724 0.2686340809
v 0.008370361291 0.04934808612 0.2784738243
v 0.008389045484 0.05257137492 0.2483731359
v 0.008580567315 -0.05203055963 0.1736442894
v 0.008631314151 0.05295734107 0.2422927916
v 0.008670886047 -0.05078855902 0.1585894823
v 0.008939752355 0.05302777514 0.2360781431
v 0.008966670372 0.05210418999 0.1747715771
v 0.009024471045 -0.05142529681 0.263330102
v 0.009037585929 -0.03981936723 0.2900533974
v 0.009072087705 -0.04936164245 0.2781291604
v 0.009102875367 -0.0406989418 0.2900107205
v 0.009121014737 -0.04168311507 0.2899838984
v 0.009134165011 -0.04298714921 0.289938271
v 0.009191905148 -0.04704756662 0.2896681428
v 0.009212638251 0.05070442706 0.1577447653
v 0.009284400381 0.0530359894 0.2298067361
v 0.009655025788 -0.051816497 0.2577035427
v 0.009704990312 0.04977012798 0.2754412889
v 0.009824508801 0.04875436053 0.2809524536
v 0.009960964322 -0.05234158039 0.1780844927
v 0.009968876839 0.05243945122 0.1793470234
v 0.009985984303 0.0530491434 0.2173326313
v 0.01004867721 -0.05221592262 0.2517951429
v 0.01033261046 -0.05262094736 0.2457377166
v 0.01035980228 0.05305441841 0.2112698704
v 0.01061042026 -0.0498187542 0.2746798992
v 0.01061139628 -0.04875563085 0.2805583179
v 0.01064127404 -0.05291509256 0.2396002412
v 0.01064619329 0.05002044886 0.1518467814
v 0.01072909776 0.05276048556 0.1841269732
v 0.01098963898 -0.05294531211 0.2334110588
v 0.01105166785 0.05305834115 0.1997291893
v 0.01105275284 0.05034722015 0.2710517943
v 0.01115022507 0.0530112423 0.1890973896
v 0.01124048233 0.05305077881 0.1942898333
v 0.01131198741 -0.05262601748 0.1826637983
v 0.01132580824 -0.05297527835 0.2272294909
v 0.01178630069 0.04368733987 0.1380000114
v 0.01218203735 -0.04998228699 0.1526988298
v 0.01218858734 0.05093485117 0.2661748528
v 0.01224305667 -0.05289278552 0.1875537634
v 0.01232698746 -0.05041475967 0.2697811127
v 0.01237050164 0.04914657027 0.1458251327
v 0.01259529125 -0.05307120085 0.2035095692
v 0.01270974055 -0.05300191417 0.1926672608
v 0.01275845617 0.05110292137 0.1649279445
v 0.01301822811 0.05136996508 0.2607520819
v 0.01310728863 0.04905932024 0.2774841487
v 0.01334479358 0.04008408263 0.2881756127
v 0.01337338239 -0.05142671242 0.1691275239
v 0.01341176406 0.04116792232 0.2880987823
v 0.01343011111 0.04704768211 0.2875221074
v 0.01346094161 0.04471617937 0.2877676487
v 0.01356581971 0.05175742134 0.2549134791
v 0.01361565851 -0.0509897843 0.2643162906
v 0.0139800394 0.05207005516 0.2488782406
v 0.01411813591 -0.04910902306 0.2765114307
v 0.01418560464 0.05135328695 0.1688712835
v 0.01436596923 -0.0507043153 0.1615492105
v 0.01440666337 0.0522928834 0.2427321523
v 0.01446041372 -0.05144293234 0.258466363
v 0.01471551973 -0.05166580155 0.1729554385
v 0.01489812601 0.05239383504 0.2364873439
v 0.0150119774 -0.0517748408 0.2523723841
v 0.0153085459 -0.04704775661 0.286475867
v 0.01539905835 0.0495137237 0.2729592025
v 0.01544260234 -0.03993319348 0.287045151
v 0.01544327196 0.05248419568 0.230157122
v 0.01548546739 -0.05200684071 0.2462392747
v 0.01568463631 0.05053908378 0.1608648151
v 0.01578009501 0.05160943046 0.1731168926
v 0.01597570255 -0.0521091111 0.2400849611
v 0.01599344425 -0.04891515896 0.1473151892
v 0.01599366963 0.05256727338 0.2237915248
v 0.01606063917 0.04809076339 0.2801971436
v 0.01649436541 -0.05220767111 0.2339067608
v 0.01654159091 -0.04958584905 0.271324724
v 0.01654497162 0.05263728648 0.2174638361
v 0.01684072055 -0.05184447393 0.1771522611
v 0.01699749008 0.05001775548 0.2677170634
v 0.01701863855 -0.05229565129 0.2277027965
v 0.0170595143 0.05187209323 0.1777476817
v 0.0171124544 0.05268463492 0.2112518698
v 0.01718512923 -0.04178722203 0.1380000114
v 0.01733212732 -0.04814184457 0.2788217068
v 0.01792092249 0.05213247612 0.1827196628
v 0.01803544164 -0.05246614292 0.2154814154
v 0.01805870794 0.0505775176 0.2619233429
v 0.0181058161 -0.05014353991 0.2654986382
v 0.01814430766 0.0527552776 0.1992636472
v 0.01824685372 -0.05205739662 0.1819728166
v 0.01839574426 0.05238860846 0.1879655421
v 0.0184516795 0.05264467001 0.1934955567
v 0.01853448153 -0.05254261196 0.2095317543
v 0.01878163964 -0.05075354502 0.1659960002
v 0.01882294938 0.05099899694 0.2558094859
v 0.01884554885 0.04038362578 0.2841288149
v 0.01886015199 0.04193261638 0.2839452922
v 0.01887692325 0.0443366617 0.283659339
v 0.01888470352 0.04704800248 0.2833473682
v 0.01890254393 0.04961742088 0.1559071392
v 0.01897725649 -0.05259748548 0.2037345469
v 0.01906169765 -0.0522759147 0.1871148199
v 0.01914075948 -0.05062668771 0.2593267858
v 0.01932320185 -0.05262186006 0.1980488896
v 0.01937593333 0.04835516214 0.2753638625
v 0.01940114237 -0.05248891562 0.1924893856
v 0.01941667497 0.05114897341 0.2496302426
v 0.01970980316 -0.04967046902 0.1570964009
v 0.01982333697 0.05061650649 0.1656232029
v 0.01987977885 -0.05086487904 0.2530902028
v 0.02052681893 -0.05096324161 0.2469123155
v 0.02061189711 -0.04845023528 0.2731117904
v 0.0206483677 -0.04704810679 0.2814980447
v 0.02075434104 -0.04430233315 0.2817218304
v 0.020802835 -0.0418693386 0.2819035351
v 0.02080527134 -0.04022921249 0.2820225954
v 0.02154731378 0.04867209494 0.2694708705
v 0.02188858949 -0.05087974295 0.1707914621
v 0.02231986262 0.04849665239 0.1510495096
v 0.02234369889 0.03921531141 0.1380000114
v 0.02236907184 0.05078979954 0.1705268025
v 0.02249527909 -0.04877899215 0.2667713463
v 0.02262006514 -0.05122084171 0.2283178121
v 0.02285209298 0.04907841608 0.2631984651
v 0.02315466478 0.03984994441 0.2789660692
v 0.023219442 0.0415594615 0.2786957324
v 0.02322227322 0.04704819992 0.2779801786
v 0.02360769734 -0.04900471494 0.260225445
v 0.02371214516 0.04921452329 0.2568194568
v 0.02378107607 0.05157491937 0.2112873793
v 0.02408559248 -0.05105026439 0.1758817434
v 0.02410908788 0.05103081092 0.1757149547
v 0.02445723489 0.05163695663 0.2050091922
v 0.02447148599 -0.04910892248 0.253894031
v 0.02454274893 0.04932283983 0.2505477369
v 0.02458178252 -0.04704820737 0.2751170695
v 0.02467304841 -0.05143162236 0.2099006325
v 0.02474177256 0.04947427288 0.161715284
v 0.02490662783 -0.04170466959 0.2755645216
v 0.02491251566 -0.03989115357 0.275732398
v 0.02501865663 -0.04831684753 0.1531625688
v 0.02512583509 0.05169406161 0.1988295913
v 0.02514677681 -0.04955068976 0.1628629416
v 0.02516418695 0.05125079677 0.1811525673
v 0.02529797703 -0.05150324106 0.2040338516
v 0.02540987357 -0.05122222006 0.1812334061
v 0.02560317889 0.05163056031 0.1927367002
v 0.02565791272 0.05146922916 0.1868288964
v 0.02583692223 -0.05155953392 0.198236227
v 0.02590555325 0.04704825208 0.2713840604
v 0.02607201785 0.04404698312 0.2718318403
v 0.02608308382 -0.05140348524 0.1867538095
v 0.02614873275 0.03966042027 0.2725159228
v 0.02617910318 -0.0515207015 0.1924445033
v 0.02620738372 0.04153187573 0.2722122967
v 0.02673775889 -0.04704830423 0.2680575252
v 0.02698202431 -0.04424710199 0.2682633102
v 0.02711716481 -0.04933991656 0.2353515327
v 0.02713674493 -0.04185728729 0.268419832
v 0.02717519738 -0.0399652794 0.2685129941
v 0.02718420699 -0.0359775126 0.1380000114
v 0.02725208364 0.04954331368 0.2314310968
v 0.02730729617 0.04704835638 0.2644762099
v 0.02760498971 0.04415357485 0.2648576498
v 0.02772599086 0.04170182347 0.2652108967
v 0.02781196497 0.03975196928 0.2654647827
v 0.02817637287 -0.04439542815 0.2613076568
v 0.02820931002 0.04960369691 0.2247706205
v 0.02834151872 -0.04208604991 0.2615094483
v 0.02847300284 -0.0401054956 0.2615885735
v 0.02854701504 0.04944325984 0.1676881909
v 0.02887207642 0.04180373996 0.2584931552
v 0.02887327783 -0.04949863628 0.1688029021
v 0.02898187749 0.03976305202 0.2586890459
v 0.02928339504 0.04963234439 0.2179454118
v 0.0294284299 -0.04216371849 0.2550342679
v 0.02954848856 -0.04019670188 0.255117327
v 0.02963691391 0.04800252244 0.1577833444
v 0.02978930622 -0.04954720289 0.2164476961
v 0.02996021323 0.04175647348 0.2520430684
v 0.03046589345 -0.04210340977 0.2488545626
v 0.03085257858 0.04953286052 0.1734882295
v 0.03095013089 0.03270191699 0.1380000114
v 0.03101848438 0.04168395698 0.2457216233
v 0.03116481565 -0.04955107346 0.1746438593
v 0.03116522171 0.04972510785 0.2049625665
v 0.03126295283 0.04927846417 0.2115217894
v 0.03145930544 -0.04964408278 0.2044508159
v 0.03152741492 -0.04787033796 0.1601151675
v 0.03164636716 0.04704874381 0.2389453053
v 0.03192313388 0.04980566725 0.1985302418
v 0.03209651634 -0.04704883322 0.2362629026
v 0.03219098225 0.04962836578 0.1795162112
v 0.03219998255 -0.0496936962 0.1986217946
v 0.03246207163 -0.04961648583 0.1805267483
v 0.03262311965 0.04985345528 0.1920883954
v 0.03274950013 0.04704895988 0.2323489636
v 0.0327912122 0.04973099008 0.1857438087
v 0.03283046186 -0.04976804927 0.1926110238
v 0.03301685676 -0.04968678951 0.1865490377
v 0.03391430154 0.04704918712 0.2253671885
v 0.03422845528 -0.04704924673 0.2234841734
v 0.03428142145 0.04017926008 0.2267674059
v 0.03429530188 0.04766194522 0.164504379
v 0.03459639475 -0.04060095549 0.2246912271
v 0.03462514654 -0.03852820024 0.225354895
v 0.03477108851 -0.02839527465 0.1380000114
v 0.03524075076 0.04704944789 0.2174164802
v 0.03530896828 -0.0470494628 0.2170075923
v 0.03541386127 0.03784927726 0.2208354622
v 0.03558384255 -0.04755927622 0.1668991148
v 0.03559253365 -0.03639353439 0.2201014161
v 0.03567142412 -0.04209442809 0.2175655663
v 0.03623868525 0.04704713449 0.2114509046
v 0.03635663912 -0.0470414944 0.2107800543
v 0.03683803603 -0.04026412591 0.2113476992
v 0.03685770929 0.04177367315 0.2106125951
v 0.03717666492 0.02500427887 0.1380000114
v 0.03730271012 0.04740906507 0.1711043268
v 0.03732863814 0.04700237513 0.2052055895
v 0.03736318648 -0.04700225219 0.2049995065
v 0.03779839352 0.03026350588 0.2083527744
v 0.03787606955 -0.03113047406 0.2077305317
v 0.03798506781 -0.04734279588 0.1734547615
v 0.03819491342 -0.03656910732 0.2043764144
v 0.03825300932 0.03263457119 0.2051070929
v 0.0382874161 -0.04700864479 0.1991909146
v 0.0384003818 0.0470139198 0.1983446777
v 0.03867716342 0.0226246845 0.2044523507
v 0.03882904351 -0.0228234604 0.2035346776
v 0.03894777596 0.03515806422 0.2002080232
v 0.03897439316 0.04723711684 0.1778070629
v 0.03911183402 -0.04704715684 0.1930149347
v 0.0392595008 0.01498522889 0.2018128186
v 0.03928981349 -0.04719572514 0.1799496561
v 0.03930120915 0.04705600441 0.1915962547
v 0.03932881728 0.02409823053 0.2003109157
v 0.03937014192 -0.03681187332 0.1971452534
v 0.03939092159 -0.01479843259 0.2010382265
v 0.03948853537 -0.02513051964 0.1991491467
v 0.03960991278 0.007536980789 0.2002267689
v 0.03967967257 -0.007231865544 0.1998263597
v 0.03974396735 0.0001612214983 0.1995861828
v 0.03975855187 0.04711439833 0.1846390218
v 0.03976771608 -0.04709259793 0.1865118146
v 0.03981985152 -0.020110365 0.1380000114
v 0.03987206519 0.03627680987 0.1941113323
v 0.04002907872 0.01589034311 0.1970669478
v 0.04011402652 0.02550847456 0.1952210963
v 0.04019387439 -0.01606025733 0.1960337162
v 0.04034142569 -0.03703117743 0.1906179339
v 0.04039559141 -0.02630617656 0.1932806522
v 0.04043193161 0.007924894802 0.1952004284
v 0.04052139074 -0.007896540686 0.1946496218
v 0.04059814289 4.025200178e-05 0.1943636835
v 0.04073227942 0.03691779822 0.187643066
v 0.04087442905 0.01678444818 0.1916868836
v 0.04094336554 -0.03767108172 0.1774429232
v 0.04096043855 -0.0373291783 0.1841106862
v 0.04097333923 0.02660583518 0.1893700212
v 0.04105622321 -0.01716380194 0.1904426813
v 0.04109783471 0.03738570586 0.1808023602
v 0.04125485942 -0.02723604999 0.1871550679
v 0.04132294282 0.008330726065 0.1895579249
v 0.04139602184 0.01633605547 0.1380000114
v 0.04140692204 -0.008616837673 0.1889747679
v 0.04148973897 -0.0001296593109 0.188689664
v 0.04171310738 0.01763979904 0.1858213395
v 0.04171311855 0.02746540681 0.1831403226
v 0.0418757163 -0.01822165027 0.1845139712
v 0.04188891873 -0.02804713137 0.180844903
v 0.04202630371 -0.02882745676 0.1743335426
v 0.04204226285 0.02823386528 0.1765516698
v 0.04216660187 0.008742013015 0.1836219877
v 0.04223430902 -0.00937370304 0.1830401272
v 0.04234192148 -0.0003315986833 0.1827269644
v 0.04242039099 0.01846509427 0.1797410846
v 0.04251179472 -0.01928089373 0.1783988774
v 0.04279317707 -0.02039579861 0.1721327156
v 0.04283643514 0.01932082698 0.1733784676
v 0.04287394509 -0.01140979491 0.1380000114
v 0.04288531095 0.009181489237 0.1775763333
v 0.04290824011 0.02007414028 0.1668315679
v 0.0429213196 -0.0102239931 0.1770068854
v 0.04305737466 -0.0005674459389 0.1767145395
v 0.04339633882 -0.01113928389 0.1709357053
v 0.04342373833 0.009621109813 0.1714208573
v 0.04351846874 -0.01198828872 0.1494798958
v 0.04364575446 -0.000847628864 0.1707135886
v 0.04364712536 -0.01189078484 0.1647910774
v 0.04372507334 0.007095487788 0.1380000114
v 0.04373774305 -0.01218404248 0.1580978036
v 0.04375480115 0.009872838855 0.1651592553
v 0.04397175089 0.009591886774 0.1580723971
v 0.04399086908 0.008539377712 0.14929533
v 0.04406124353 -0.001148501178 0.1645964086
v 0.04422213137 -0.002292087302 0.1380013824
v 0.04437513649 -0.001458692597 0.1576071829
v 0.04444944486 -0.001812712988 0.1488990486
f 399 392 310
f 1 10 3
f 161 166 144
f 81 92 43
f 617 631 596
f 596 591 617
f 192 163 173
f 173 163 150
f 161 163 190
f 190 163 192
f 32 12 23
f 156 186 176
f 310 392 305
f 305 311 262
f 295 319 342
f 342 319 368
f 712 708 707
f 675 704 657
f 675 708 704
f 14 8 3
f 14 3 10
f 1 3 4
f 3 8 4
f 10 32 44
f 44 14 10
f 123 109 142
f 361 298 363
f 704 678 645
f 657 704 645
f 2 7 6
f 6 12 2
f 9 10 1
f 1 2 9
f 9 2 12
f 9 32 10
f 9 12 32
f 165 159 233
f 197 248 200
f 252 200 248
f 238 192 206
f 192 173 206
f 147 169 202
f 202 169 177
f 169 149 177
f 145 144 166
f 166 149 145
f 161 190 189
f 191 166 161
f 161 189 191
f 217 186 204
f 151 173 150
f 151 150 137
f 137 156 151
f 598 608 559
f 637 608 598
f 586 602 598
f 569 549 535
f 535 541 569
f 262 311 318
f 105 152 112
f 310 305 224
f 154 196 197
f 342 406 343
f 343 406 344
f 344 294 343
f 342 368 405
f 405 406 342
f 463 406 405
f 345 294 344
f 348 294 345
f 697 699 702
f 711 705 712
f 712 707 711
f 705 711 703
f 703 711 699
f 690 695 700
f 700 695 702
f 686 675 669
f 669 675 657
f 686 707 696
f 696 675 686
f 696 707 708
f 708 675 696
f 501 535 525
f 525 535 549
f 509 465 463
f 529 509 479
f 526 525 549
f 43 14 68
f 68 81 43
f 14 44 68
f 68 44 63
f 184 123 142
f 43 92 89
f 92 109 89
f 109 123 89
f 195 184 142
f 264 184 195
f 365 363 316
f 316 363 298
f 584 617 591
f 427 363 365
f 533 591 596
f 533 532 591
f 632 678 631
f 632 645 678
f 631 617 632
f 606 645 632
f 699 697 691
f 691 697 683
f 685 672 671
f 7 2 5
f 4 15 5
f 1 4 5
f 5 2 1
f 66 47 8
f 74 79 31
f 31 66 8
f 79 66 31
f 233 198 180
f 180 165 233
f 159 165 110
f 165 180 110
f 559 608 565
f 312 270 268
f 270 200 268
f 563 537 540
f 576 537 563
f 540 537 530
f 446 498 442
f 502 560 505
f 555 560 502
f 505 446 502
f 502 446 447
f 649 669 657
f 641 669 649
f 649 600 641
f 609 560 555
f 609 649 657
f 238 206 257
f 257 295 238
f 319 295 257
f 169 147 113
f 242 181 202
f 202 245 242
f 242 245 286
f 182 149 166
f 182 177 149
f 286 245 247
f 348 345 408
f 408 406 463
f 463 465 408
f 344 406 408
f 408 345 344
f 166 191 193
f 193 182 166
f 215 182 193
f 278 246 280
f 321 280 294
f 137 80 101
f 80 87 101
f 174 206 173
f 173 151 174
f 174 151 156
f 174 156 176
f 95 146 116
f 116 146 156
f 138 156 137
f 138 141 156
f 84 93 75
f 156 141 84
f 84 116 156
f 84 59 77
f 75 59 84
f 198 204 179
f 186 156 179
f 179 204 186
f 448 453 389
f 401 351 349
f 387 417 389
f 554 602 556
f 556 602 586
f 485 496 554
f 399 496 485
f 392 399 485
f 554 496 574
f 574 602 554
f 620 602 574
f 710 694 704
f 710 708 712
f 704 708 710
f 712 705 710
f 659 694 637
f 637 598 624
f 624 598 602
f 624 602 620
f 620 659 624
f 624 659 637
f 516 523 541
f 541 535 516
f 516 535 501
f 262 318 281
f 281 318 309
f 346 318 366
f 346 304 309
f 346 387 389
f 366 387 346
f 112 152 155
f 243 305 262
f 309 304 254
f 107 154 157
f 157 110 107
f 159 110 157
f 157 200 159
f 197 200 157
f 157 154 197
f 176 186 201
f 201 186 217
f 342 343 292
f 292 343 294
f 292 290 342
f 292 294 238
f 238 290 292
f 421 405 368
f 683 697 688
f 689 695 687
f 702 695 698
f 698 695 689
f 698 697 702
f 689 688 698
f 698 688 697
f 702 699 709
f 699 711 709
f 709 700 702
f 690 700 693
f 693 707 686
f 573 579 566
f 566 553 573
f 570 549 569
f 552 526 549
f 549 570 552
f 552 570 572
f 573 553 552
f 552 572 573
f 653 636 665
f 461 509 463
f 461 479 509
f 461 421 479
f 463 405 461
f 405 421 461
f 497 526 477
f 477 469 497
f 477 479 426
f 17 4 8
f 8 47 17
f 17 15 4
f 202 181 115
f 232 195 185
f 185 195 142
f 232 298 275
f 275 195 232
f 275 298 361
f 264 195 275
f 382 427 365
f 617 584 595
f 606 632 595
f 595 632 617
f 427 382 419
f 455 450 361
f 455 533 450
f 532 533 455
f 551 584 591
f 591 532 551
f 504 446 505
f 498 446 504
f 699 691 684
f 684 672 685
f 658 671 672
f 72 87 80
f 217 204 251
f 315 270 312
f 426 372 374
f 374 372 323
f 497 469 489
f 501 525 489
f 489 526 497
f 525 526 489
f 79 117 108
f 107 66 108
f 108 66 79
f 108 154 107
f 158 117 160
f 196 154 158
f 154 108 158
f 158 108 117
f 91 117 79
f 91 79 74
f 74 105 91
f 91 105 112
f 118 180 198
f 118 110 180
f 118 84 77
f 64 66 107
f 107 110 64
f 47 66 64
f 64 118 77
f 110 118 64
f 77 59 64
f 601 592 523
f 640 592 601
f 523 592 571
f 622 571 592
f 613 565 608
f 613 658 612
f 536 601 523
f 440 481 476
f 476 481 523
f 523 516 476
f 227 270 233
f 233 159 227
f 270 214 211
f 211 214 159
f 200 252 265
f 265 268 200
f 265 252 312
f 312 268 265
f 472 416 468
f 468 416 466
f 416 414 466
f 500 530 537
f 599 520 588
f 588 600 599
f 377 414 416
f 447 446 383
f 383 446 442
f 442 382 383
f 555 502 495
f 495 502 418
f 495 418 416
f 604 609 555
f 604 520 599
f 649 609 604
f 599 600 604
f 600 649 604
f 560 609 611
f 611 645 606
f 657 645 611
f 611 609 657
f 319 257 258
f 258 257 206
f 136 145 149
f 120 149 169
f 169 113 120
f 120 136 149
f 113 136 120
f 94 113 147
f 94 129 82
f 364 336 339
f 339 362 364
f 337 362 339
f 205 182 215
f 215 247 205
f 202 177 205
f 177 182 205
f 205 245 202
f 205 247 245
f 253 247 215
f 465 509 510
f 510 512 465
f 215 193 230
f 230 193 191
f 294 280 237
f 237 280 246
f 237 191 189
f 238 294 237
f 237 189 190
f 237 192 238
f 237 190 192
f 278 280 301
f 301 321 327
f 280 321 301
f 306 294 348
f 348 321 306
f 306 321 294
f 293 295 342
f 238 295 293
f 99 101 93
f 85 101 87
f 87 72 85
f 75 93 85
f 93 101 85
f 176 201 210
f 137 101 132
f 101 99 132
f 95 116 106
f 106 84 95
f 116 84 106
f 137 132 126
f 126 132 99
f 126 99 93
f 156 146 170
f 170 179 156
f 170 146 198
f 198 179 170
f 432 448 389
f 417 462 432
f 474 448 432
f 432 462 474
f 491 503 453
f 453 448 491
f 491 448 474
f 474 507 491
f 456 393 395
f 351 401 396
f 396 456 395
f 401 456 396
f 381 387 366
f 417 387 381
f 381 305 392
f 311 305 381
f 381 318 311
f 366 318 381
f 544 556 586
f 503 491 544
f 544 598 559
f 586 598 544
f 392 485 451
f 451 381 392
f 417 381 451
f 507 451 521
f 521 451 485
f 554 556 521
f 521 485 554
f 701 710 705
f 705 685 701
f 685 671 701
f 701 671 694
f 694 710 701
f 357 496 399
f 357 105 74
f 357 14 43
f 357 399 310
f 357 678 704
f 596 631 357
f 357 533 596
f 357 184 264
f 631 678 357
f 43 89 357
f 704 694 357
f 8 14 357
f 310 224 357
f 74 31 357
f 620 574 357
f 152 105 357
f 357 224 152
f 123 184 357
f 357 89 123
f 450 533 357
f 357 31 8
f 357 574 496
f 694 659 357
f 357 659 620
f 361 450 357
f 357 275 361
f 264 275 357
f 309 318 313
f 313 346 309
f 318 346 313
f 304 346 347
f 248 304 303
f 303 252 248
f 304 347 303
f 312 252 303
f 303 347 349
f 303 351 312
f 349 351 303
f 152 224 221
f 221 155 152
f 221 224 305
f 305 243 221
f 187 155 221
f 221 243 187
f 112 155 148
f 148 155 187
f 187 188 148
f 222 188 218
f 218 243 262
f 187 243 218
f 218 188 187
f 255 254 222
f 309 254 255
f 222 254 208
f 249 304 248
f 249 254 304
f 249 248 197
f 197 196 249
f 196 254 249
f 368 323 369
f 323 372 369
f 426 368 369
f 369 372 426
f 425 368 426
f 426 479 425
f 686 669 682
f 682 693 686
f 690 693 682
f 707 693 706
f 706 693 700
f 706 711 707
f 706 709 711
f 700 709 706
f 568 566 579
f 553 566 538
f 529 553 538
f 538 509 529
f 538 510 509
f 569 571 605
f 605 622 615
f 571 622 605
f 572 570 582
f 673 682 669
f 679 688 689
f 664 658 672
f 672 684 664
f 527 477 526
f 526 552 527
f 479 477 527
f 140 147 202
f 202 129 140
f 140 94 147
f 129 94 140
f 47 64 50
f 50 64 59
f 50 45 36
f 59 45 50
f 15 17 33
f 33 17 47
f 33 24 15
f 47 50 33
f 36 24 33
f 33 50 36
f 142 109 153
f 109 131 153
f 153 185 142
f 153 131 172
f 121 109 92
f 121 131 109
f 92 81 121
f 172 131 121
f 263 298 232
f 263 316 298
f 263 256 316
f 334 383 338
f 338 383 382
f 338 382 365
f 365 316 338
f 76 115 63
f 82 129 125
f 125 129 202
f 178 115 181
f 181 242 178
f 232 185 194
f 498 504 557
f 606 595 557
f 482 483 522
f 442 498 494
f 494 483 442
f 427 419 433
f 442 483 433
f 433 382 442
f 433 419 382
f 532 455 513
f 522 551 513
f 513 551 532
f 513 482 522
f 455 482 513
f 692 703 699
f 699 684 692
f 692 684 685
f 692 685 705
f 705 703 692
f 694 671 648
f 671 658 648
f 637 694 648
f 658 613 648
f 648 608 637
f 648 613 608
f 73 80 137
f 137 67 73
f 137 61 62
f 62 67 137
f 63 44 48
f 48 44 32
f 18 24 36
f 15 24 18
f 7 5 18
f 18 5 15
f 36 45 28
f 45 37 28
f 28 18 36
f 440 476 436
f 244 251 204
f 287 251 244
f 312 351 352
f 395 393 352
f 352 396 395
f 351 396 352
f 340 341 370
f 370 371 340
f 340 371 374
f 370 341 376
f 356 358 384
f 84 118 122
f 122 118 198
f 541 523 547
f 523 571 547
f 569 541 547
f 547 571 569
f 523 481 524
f 524 536 523
f 481 536 524
f 558 562 612
f 558 506 562
f 601 536 607
f 607 558 612
f 467 516 501
f 501 489 467
f 223 214 270
f 270 227 223
f 159 214 223
f 223 227 159
f 203 200 270
f 270 211 203
f 159 200 203
f 203 211 159
f 641 600 627
f 600 621 627
f 576 563 577
f 542 537 576
f 576 548 542
f 575 548 600
f 575 588 581
f 600 588 575
f 480 486 416
f 543 472 520
f 520 604 543
f 414 377 411
f 508 500 537
f 537 542 508
f 508 542 548
f 468 466 508
f 548 575 508
f 508 472 468
f 520 472 508
f 508 575 581
f 581 588 508
f 508 588 520
f 452 500 459
f 459 508 466
f 500 508 459
f 459 410 452
f 459 411 410
f 459 466 414
f 414 411 459
f 518 512 540
f 540 530 518
f 334 271 329
f 332 331 286
f 332 377 331
f 447 383 385
f 385 383 334
f 334 329 385
f 490 486 555
f 555 495 490
f 416 486 490
f 490 495 416
f 444 502 447
f 444 437 502
f 447 385 444
f 418 502 428
f 502 437 428
f 437 444 379
f 379 329 330
f 379 385 329
f 379 444 385
f 418 428 379
f 330 331 379
f 319 258 320
f 320 368 319
f 320 323 368
f 88 136 113
f 88 94 82
f 464 512 487
f 464 408 465
f 465 512 464
f 460 464 487
f 431 464 460
f 431 460 430
f 367 336 364
f 367 373 336
f 364 410 367
f 410 373 367
f 260 246 278
f 260 230 246
f 260 253 215
f 215 230 260
f 253 260 300
f 300 339 336
f 191 237 220
f 220 237 246
f 220 230 191
f 246 230 220
f 327 337 314
f 314 301 327
f 342 290 291
f 291 293 342
f 291 290 238
f 238 293 291
f 206 174 207
f 207 258 206
f 261 210 240
f 133 84 141
f 133 126 84
f 141 138 133
f 133 138 137
f 137 126 133
f 93 84 102
f 102 126 93
f 84 126 102
f 389 417 415
f 415 432 389
f 417 432 415
f 393 456 449
f 456 517 449
f 440 506 499
f 506 558 499
f 457 517 456
f 453 519 457
f 457 519 517
f 562 517 567
f 565 613 567
f 567 519 565
f 517 519 567
f 612 562 567
f 567 613 612
f 514 506 440
f 514 449 517
f 562 506 514
f 514 517 562
f 556 544 531
f 507 521 531
f 531 521 556
f 531 491 507
f 531 544 491
f 417 451 471
f 471 451 507
f 471 462 417
f 471 507 474
f 474 462 471
f 400 456 401
f 400 401 349
f 349 347 400
f 112 148 128
f 128 91 112
f 117 91 128
f 160 117 128
f 128 148 160
f 160 148 175
f 175 148 188
f 175 188 222
f 175 208 160
f 222 208 175
f 235 255 222
f 222 218 235
f 235 218 262
f 199 254 196
f 199 208 254
f 160 208 199
f 199 158 160
f 196 158 199
f 424 421 368
f 368 425 424
f 424 425 479
f 539 568 540
f 540 512 539
f 512 538 539
f 566 568 539
f 539 538 566
f 512 510 511
f 511 538 512
f 510 538 511
f 634 605 615
f 615 622 634
f 580 570 569
f 580 582 570
f 569 605 580
f 605 634 580
f 660 673 669
f 660 669 641
f 662 660 644
f 673 660 662
f 583 579 573
f 583 656 579
f 573 572 583
f 572 582 583
f 594 590 583
f 653 665 663
f 579 647 642
f 579 656 654
f 654 647 579
f 652 663 667
f 667 663 679
f 646 664 640
f 658 664 646
f 612 658 646
f 646 607 612
f 640 601 646
f 601 607 646
f 665 664 676
f 676 664 684
f 676 691 683
f 676 684 691
f 529 479 528
f 479 527 528
f 528 553 529
f 528 552 553
f 528 527 552
f 81 68 114
f 114 121 81
f 256 263 250
f 172 213 219
f 216 168 225
f 225 168 229
f 115 76 119
f 202 115 119
f 119 125 202
f 119 76 82
f 82 125 119
f 115 178 171
f 171 168 115
f 178 168 171
f 229 168 231
f 286 229 231
f 234 178 242
f 234 168 178
f 234 231 168
f 234 242 286
f 286 231 234
f 226 263 232
f 232 194 226
f 226 194 239
f 239 250 226
f 226 250 263
f 185 153 183
f 183 194 185
f 183 153 172
f 239 194 183
f 561 504 505
f 561 557 504
f 505 560 561
f 606 557 561
f 561 611 606
f 560 611 561
f 483 482 470
f 427 433 470
f 470 433 483
f 427 482 441
f 441 482 455
f 441 455 361
f 361 363 441
f 363 427 441
f 534 551 522
f 522 483 534
f 483 494 534
f 498 557 545
f 545 494 498
f 545 534 494
f 545 595 584
f 545 557 595
f 584 551 545
f 551 534 545
f 60 72 80
f 80 73 60
f 143 61 137
f 143 134 61
f 144 134 143
f 137 150 143
f 161 144 143
f 143 163 161
f 150 163 143
f 82 71 90
f 16 12 6
f 16 23 12
f 390 393 440
f 440 436 390
f 436 435 390
f 236 201 217
f 217 251 236
f 251 267 236
f 240 210 236
f 236 210 201
f 299 251 287
f 299 267 251
f 241 244 204
f 241 198 233
f 241 204 198
f 233 270 241
f 454 489 469
f 469 438 454
f 454 467 489
f 328 374 323
f 328 340 374
f 402 376 380
f 370 376 402
f 95 84 127
f 84 122 127
f 127 122 198
f 550 536 481
f 481 558 550
f 550 607 536
f 558 607 550
f 488 558 481
f 473 476 516
f 516 467 473
f 473 436 476
f 473 435 436
f 473 467 420
f 641 627 633
f 633 660 641
f 633 627 621
f 564 577 563
f 568 577 564
f 564 563 540
f 540 568 564
f 480 543 546
f 555 486 546
f 486 480 546
f 546 604 555
f 546 543 604
f 472 543 475
f 475 543 480
f 416 472 475
f 475 480 416
f 530 500 492
f 492 518 530
f 492 500 452
f 377 332 375
f 375 411 377
f 375 373 410
f 410 411 375
f 434 428 437
f 437 379 434
f 434 379 428
f 378 379 331
f 378 377 416
f 331 377 378
f 416 418 378
f 418 379 378
f 113 94 100
f 100 88 113
f 94 88 100
f 348 394 355
f 355 321 348
f 359 355 394
f 327 321 359
f 321 355 359
f 431 394 407
f 407 464 431
f 407 394 348
f 348 408 407
f 408 464 407
f 452 410 403
f 403 410 364
f 364 362 403
f 397 403 362
f 430 403 397
f 413 394 431
f 431 430 413
f 430 397 413
f 288 332 286
f 286 247 288
f 373 375 333
f 333 375 332
f 339 300 307
f 337 339 307
f 307 314 337
f 307 260 278
f 307 300 260
f 278 301 307
f 301 314 307
f 258 207 209
f 209 207 174
f 209 174 176
f 176 210 209
f 267 299 289
f 440 393 443
f 393 449 443
f 443 514 440
f 449 514 443
f 453 503 515
f 515 519 453
f 515 544 559
f 503 544 515
f 559 565 515
f 565 519 515
f 398 400 347
f 398 457 456
f 456 400 398
f 398 346 389
f 398 347 346
f 389 453 398
f 453 457 398
f 255 235 269
f 269 281 309
f 309 255 269
f 262 281 269
f 269 235 262
f 479 421 423
f 423 424 479
f 421 424 423
f 578 568 579
f 578 577 568
f 593 633 577
f 635 642 650
f 628 622 592
f 628 634 622
f 628 592 640
f 640 634 628
f 650 642 661
f 661 642 647
f 656 583 655
f 655 583 652
f 652 667 655
f 652 583 643
f 653 663 643
f 643 663 652
f 643 636 653
f 643 583 636
f 594 583 589
f 589 583 582
f 582 580 589
f 589 634 594
f 589 580 634
f 674 663 665
f 679 663 674
f 674 676 683
f 665 676 674
f 683 688 674
f 688 679 674
f 680 679 689
f 680 667 679
f 115 168 164
f 164 168 216
f 216 212 164
f 285 250 239
f 256 250 285
f 316 256 285
f 272 271 216
f 216 225 284
f 286 331 284
f 284 229 286
f 284 225 229
f 284 331 330
f 239 183 228
f 172 219 228
f 228 183 172
f 458 482 427
f 427 470 458
f 458 470 482
f 72 60 58
f 58 59 75
f 58 45 59
f 75 85 58
f 58 85 72
f 67 62 52
f 52 62 61
f 54 73 67
f 54 60 73
f 67 52 54
f 54 52 41
f 49 41 37
f 49 58 60
f 60 54 49
f 49 54 41
f 49 37 45
f 45 58 49
f 86 71 69
f 69 71 55
f 78 70 134
f 78 86 69
f 78 134 98
f 98 86 78
f 51 52 61
f 96 90 98
f 130 96 134
f 136 88 130
f 130 88 82
f 22 28 37
f 37 41 30
f 30 22 37
f 20 22 30
f 11 16 6
f 11 21 16
f 353 352 393
f 393 390 353
f 353 315 312
f 312 352 353
f 429 390 435
f 429 473 420
f 435 473 429
f 388 429 420
f 390 429 388
f 244 241 273
f 273 276 244
f 273 241 270
f 270 315 273
f 315 276 273
f 287 244 282
f 244 276 282
f 282 276 315
f 412 454 438
f 380 384 412
f 412 384 420
f 420 467 412
f 467 454 412
f 439 477 426
f 469 477 439
f 370 402 404
f 426 374 404
f 404 371 370
f 374 371 404
f 139 146 95
f 95 127 139
f 198 146 139
f 139 127 198
f 484 481 440
f 440 488 484
f 484 488 481
f 493 499 558
f 558 488 493
f 440 499 493
f 493 488 440
f 576 577 603
f 577 633 603
f 603 548 576
f 600 548 603
f 518 492 478
f 478 460 487
f 478 492 452
f 487 512 478
f 512 518 478
f 327 359 360
f 360 337 327
f 360 362 337
f 452 403 445
f 445 403 430
f 445 478 452
f 445 430 460
f 460 478 445
f 394 413 391
f 391 413 397
f 391 359 394
f 391 360 359
f 391 397 362
f 362 360 391
f 332 288 296
f 296 333 332
f 253 300 296
f 296 300 336
f 247 253 296
f 296 288 247
f 336 373 335
f 373 333 335
f 335 296 336
f 333 296 335
f 258 209 259
f 259 261 323
f 210 261 259
f 259 209 210
f 323 320 259
f 259 320 258
f 266 236 267
f 267 289 266
f 240 236 266
f 266 261 240
f 633 593 630
f 660 633 630
f 644 660 630
f 577 578 585
f 585 593 577
f 623 630 616
f 644 630 623
f 647 654 666
f 666 661 647
f 666 654 656
f 681 695 690
f 681 687 695
f 690 682 681
f 682 673 681
f 651 634 640
f 651 629 634
f 640 664 651
f 638 629 651
f 651 664 665
f 651 665 636
f 636 638 651
f 636 583 625
f 625 638 636
f 115 164 111
f 111 114 68
f 111 68 63
f 63 115 111
f 114 111 162
f 162 111 164
f 162 212 213
f 162 164 212
f 297 338 316
f 316 285 297
f 297 285 338
f 274 271 334
f 213 212 274
f 216 271 274
f 274 212 216
f 277 272 216
f 216 284 277
f 277 284 330
f 330 329 277
f 277 329 271
f 271 272 277
f 279 228 219
f 279 285 239
f 239 228 279
f 279 219 213
f 213 274 279
f 279 274 334
f 334 338 279
f 338 285 279
f 83 86 98
f 71 86 83
f 98 90 83
f 83 90 71
f 69 55 46
f 56 55 71
f 56 71 82
f 82 76 56
f 56 76 63
f 63 48 56
f 61 134 65
f 134 70 65
f 52 51 38
f 98 134 103
f 103 96 98
f 134 96 103
f 82 90 97
f 90 96 104
f 96 130 104
f 145 136 135
f 136 130 135
f 135 130 134
f 144 145 135
f 135 134 144
f 18 28 13
f 28 22 13
f 7 18 13
f 13 22 20
f 20 11 13
f 6 7 13
f 13 11 6
f 358 324 354
f 315 353 354
f 354 353 390
f 390 388 354
f 384 358 386
f 420 384 386
f 386 388 420
f 358 354 386
f 386 354 388
f 325 326 299
f 358 356 325
f 325 324 358
f 325 299 287
f 287 324 325
f 350 384 380
f 350 356 384
f 341 326 350
f 350 325 356
f 326 325 350
f 380 376 350
f 350 376 341
f 308 289 299
f 299 326 308
f 409 412 438
f 409 402 380
f 380 412 409
f 610 603 633
f 610 621 600
f 600 603 610
f 302 266 289
f 302 328 323
f 340 328 302
f 597 593 616
f 616 630 597
f 597 630 593
f 635 623 587
f 579 642 587
f 642 635 587
f 593 585 587
f 616 593 587
f 587 623 616
f 587 578 579
f 587 585 578
f 644 623 639
f 639 623 635
f 639 662 644
f 650 662 639
f 639 635 650
f 668 666 656
f 667 680 668
f 656 655 668
f 668 655 667
f 661 666 670
f 670 662 650
f 650 661 670
f 673 662 670
f 670 681 673
f 634 629 626
f 629 618 626
f 594 634 626
f 626 618 594
f 172 121 167
f 167 213 172
f 167 162 213
f 121 114 167
f 114 162 167
f 42 46 55
f 55 56 42
f 42 56 48
f 70 78 57
f 57 78 69
f 69 46 57
f 41 52 39
f 52 38 39
f 53 38 51
f 53 57 46
f 53 51 61
f 61 65 53
f 53 65 70
f 70 57 53
f 124 97 90
f 90 104 124
f 124 104 130
f 124 130 82
f 82 97 124
f 317 354 324
f 317 324 287
f 315 354 317
f 287 282 317
f 317 282 315
f 422 409 438
f 402 409 422
f 422 438 469
f 469 439 422
f 422 404 402
f 422 439 426
f 426 404 422
f 614 633 621
f 621 610 614
f 614 610 633
f 261 266 283
f 266 302 283
f 323 261 283
f 283 302 323
f 322 302 289
f 289 308 322
f 322 308 326
f 322 326 341
f 341 340 322
f 340 302 322
f 677 670 666
f 687 681 677
f 681 670 677
f 689 687 677
f 677 680 689
f 677 668 680
f 666 668 677
f 638 625 619
f 619 629 638
f 619 625 583
f 619 618 629
f 619 583 590
f 619 590 594
f 594 618 619
f 46 42 34
f 34 21 29
f 27 30 41
f 41 39 27
f 20 30 27
f 40 53 46
f 38 53 40
f 40 34 29
f 46 34 40
f 21 34 25
f 16 21 25
f 25 34 42
f 20 27 19
f 29 21 19
f 19 11 20
f 21 11 19
f 35 42 48
f 35 25 42
f 32 23 35
f 35 48 32
f 23 16 35
f 16 25 35
f 29 19 26
f 26 19 27
f 26 40 29
f 38 40 26
f 26 39 38
f 26 27 39
