v -0.04090000689 -0.03943637013 -2.134822452e-08
v -0.04090000689 -0.03809261322 0.01020686049
v -0.04090000689 -0.03809260577 -0.01020690147
v -0.04090000689 -0.03415291011 0.01971816272
v -0.04090000689 -0.03415289149 -0.01971820183
v -0.04090000689 -0.02788574249 0.02788570337
v -0.04090000689 -0.02788571082 -0.02788574435
v -0.04090000689 -0.01971820928 0.03415288776
v -0.04090000689 -0.01971817017 -0.03415291011
v -0.04090000689 -0.01020691171 0.03809260204
v -0.04090000689 -0.01020686701 -0.03809261322
v -0.04090000689 2.448405367e-11 0.03943637013
v -0.04090000689 1.538157335e-08 -0.03943637013
v -0.04090000689 0.01020688377 0.03809260949
v -0.04090000689 0.01020689681 -0.03809260577
v -0.04090000689 0.01971818507 0.03415289894
v -0.04090000689 0.01971819438 -0.03415289521
v -0.04090000689 0.02788572572 0.027885722
v -0.04090000689 0.02788573317 -0.027885722
v -0.04090000689 0.03415290266 -0.0197181832
v -0.04090000689 0.03415290266 0.01971817948
v -0.04090000689 0.03809260949 0.01020688191
v -0.04090000689 0.03809261322 -0.01020688191
v -0.04090000689 0.03943637013 -3.640687751e-11
v 0.03821992874 -0.03943637013 -1.851690712e-08
v 0.03821992874 -0.03809261322 0.01020686515
v 0.03821992874 -0.03809260577 -0.01020689867
v 0.03821992874 -0.03415291011 0.01971816644
v 0.03821992874 -0.03415289149 -0.01971819811
v 0.03821992874 -0.02788574249 0.0278857071
v 0.03821992874 -0.02788571082 -0.02788574062
v 0.03821992874 -0.01971820928 0.03415288404
v 0.03821992874 -0.01971817017 -0.03415291384
v 0.03821992874 -0.01020691171 0.03809259832
v 0.03821992874 -0.01020686701 -0.03809261695
v 0.03821992874 2.341971062e-11 0.03943636641
v 0.03821992874 1.538050931e-08 -0.03943637386
v 0.03821992874 0.01020688377 0.03809260577
v 0.03821992874 0.01020689681 -0.03809260949
v 0.03821992874 0.01971818507 0.03415289521
v 0.03821992874 0.01971819438 -0.03415289894
v 0.03821992874 0.02788572572 0.02788572572
v 0.03821992874 0.02788573317 -0.02788571827
v 0.03821992874 0.03415290266 -0.01971817948
v 0.03821992874 0.03415290266 0.0197181832
v 0.03821992874 0.03809260949 0.01020688564
v 0.03821992874 0.03809261322 -0.01020687819
v 0.03821992874 0.03943637013 2.794911413e-09
v 0.04726906866 -0.02119010501 -1.240489311e-08
v 0.04726906866 -0.02046806924 -0.005484413821
v 0.04726906866 -0.01835116558 -0.01059506182
v 0.04726906866 -0.01498366054 -0.01498367731
v 0.04726906866 -0.01059504598 -0.01835117489
v 0.04726906866 -0.005484394729 -0.0204680711
v 0.04726906866 6.738433811e-09 -0.02119010314
v 0.04726906866 0.005484408233 -0.02046806738
v 0.04726906866 0.0105950553 -0.01835116744
v 0.04726906866 0.01498366892 -0.0149836652
v 0.04726906866 0.0183511693 -0.01059505157
v 0.04726906866 0.02046806924 -0.005484403577
v 0.04726906866 0.02119010128 -9.535447987e-10
v 0.04726907238 -0.02046807297 0.005484388676
v 0.04726907238 -0.01835117675 0.01059503946
v 0.04726907238 -0.01498367731 0.01498365402
v 0.04726907238 -0.01059506647 0.01835116185
v 0.04726907238 -0.005484418944 0.02046806552
v 0.04726907238 -1.513297154e-09 0.02119010314
v 0.04726907238 0.005484401248 0.02046806924
v 0.04726907238 0.01059504971 0.0183511693
v 0.04726907238 0.0149836652 0.01498366427
v 0.04726907238 0.0183511693 0.01059504785
v 0.04726907238 0.02046806738 0.005484399851
v 0.05184588209 -0.008558533154 -7.199157714e-09
v 0.05184588209 -0.008266908117 -0.002215117682
v 0.05184588209 -0.007411906496 -0.004279272631
v 0.05184588209 -0.006051795557 -0.006051803473
v 0.05184588209 -0.00427926518 -0.007411911618
v 0.05184588209 -0.002215108601 -0.008266910911
v 0.05184588209 1.975514197e-09 -0.008558535017
v 0.05184588209 0.002215113025 -0.008266909979
v 0.05184588209 0.004279266577 -0.007411908824
v 0.05184588209 0.006051796488 -0.006051798351
v 0.05184588209 0.007411906961 -0.004279268906
v 0.05184588209 0.008266908117 -0.002215113724
v 0.05184588209 0.008558532223 -2.57403987e-09
v 0.05184588581 -0.008266909979 0.002215103945
v 0.05184588581 -0.007411910687 0.004279258661
v 0.05184588581 -0.006051802076 0.006051789504
v 0.05184588581 -0.004279273562 0.007411902305
v 0.05184588581 -0.002215118613 0.008266904391
v 0.05184588581 -1.357301604e-09 0.00855853036
v 0.05184588581 0.002215110231 0.008266906254
v 0.05184588581 0.004279264249 0.007411905564
v 0.05184588581 0.006051795091 0.006051793229
v 0.05184588581 0.007411906961 0.004279262386
v 0.05184588581 0.008266907185 0.002215108369
v 0.05184590071 -9.895302355e-10 -3.787340219e-09
f 10 36 12
f 42 18 16
f 8 6 30
f 36 10 34
f 12 36 38
f 13 15 39
f 37 13 39
f 30 28 63
f 11 13 37
f 7 9 33
f 32 8 30
f 30 65 32
f 67 36 66
f 36 34 66
f 34 32 66
f 66 32 65
f 26 2 1
f 26 28 4
f 4 2 26
f 62 63 26
f 26 63 28
f 12 38 14
f 42 16 40
f 40 69 42
f 38 69 40
f 48 46 72
f 24 46 48
f 48 23 24
f 47 23 48
f 22 46 24
f 60 59 47
f 47 48 60
f 67 92 68
f 92 69 68
f 68 69 38
f 68 36 67
f 68 38 36
f 93 69 92
f 93 92 97
f 46 45 71
f 72 46 71
f 64 65 30
f 30 63 64
f 35 11 37
f 37 54 35
f 3 27 1
f 3 5 27
f 7 33 31
f 33 52 31
f 1 27 25
f 25 26 1
f 62 26 25
f 25 49 62
f 61 48 72
f 61 60 48
f 59 60 83
f 47 59 44
f 59 43 44
f 37 39 56
f 39 57 56
f 41 57 39
f 41 17 19
f 19 43 41
f 58 43 59
f 59 83 58
f 58 41 43
f 57 41 58
f 97 95 94
f 94 93 97
f 88 64 63
f 50 25 27
f 49 25 50
f 75 74 50
f 50 74 49
f 53 52 33
f 33 35 53
f 53 35 54
f 27 5 29
f 29 50 27
f 29 31 52
f 60 61 85
f 55 54 37
f 37 56 55
f 82 58 83
f 82 83 97
f 42 69 70
f 69 93 70
f 93 94 70
f 95 71 70
f 70 94 95
f 70 45 42
f 70 71 45
f 86 63 62
f 62 49 86
f 86 75 97
f 86 74 75
f 65 64 89
f 64 88 89
f 89 66 65
f 89 88 97
f 51 29 52
f 50 29 51
f 75 50 51
f 84 83 60
f 60 85 84
f 96 61 72
f 96 85 61
f 72 71 96
f 96 71 95
f 96 84 85
f 96 95 97
f 97 83 96
f 83 84 96
f 77 78 97
f 77 53 54
f 54 78 77
f 80 55 56
f 80 56 57
f 87 88 63
f 63 86 87
f 97 88 87
f 87 86 97
f 49 74 73
f 73 86 49
f 74 86 73
f 66 89 90
f 90 89 97
f 52 53 76
f 53 77 76
f 75 51 76
f 76 51 52
f 97 75 76
f 76 77 97
f 55 80 79
f 79 78 54
f 54 55 79
f 97 78 79
f 79 80 97
f 81 80 57
f 57 58 81
f 58 82 81
f 81 82 97
f 97 80 81
f 67 66 91
f 66 90 91
f 91 92 67
f 97 92 91
f 91 90 97
f 6 4 28
f 30 6 28
f 10 8 32
f 32 34 10
f 16 14 40
f 40 14 38
f 45 21 18
f 45 18 42
f 21 45 22
f 22 45 46
f 9 11 35
f 35 33 9
f 1 2 3
f 3 10 12
f 13 11 3
f 6 8 3
f 12 14 3
f 19 17 3
f 24 23 3
f 3 4 6
f 3 15 13
f 18 21 3
f 3 16 18
f 3 9 7
f 3 20 19
f 3 8 10
f 3 2 4
f 3 22 24
f 3 11 9
f 7 5 3
f 3 14 16
f 21 22 3
f 23 20 3
f 3 17 15
f 44 20 23
f 44 23 47
f 19 20 44
f 44 43 19
f 15 17 41
f 41 39 15
f 29 5 7
f 7 31 29
