v -0.04803407192 0.00139975932 0.1720000207
v -0.04802419245 0.002908408176 0.2428361624
v -0.04796291515 0.003078143811 0.2510443032
v -0.04793877155 -0.004357996397 0.2427827865
v -0.04790136963 -0.00392777659 0.250977993
v -0.04776544496 0.003257196164 0.2595783174
v -0.04776197299 -0.003498654114 0.25951159
v -0.0474598296 -0.003070692765 0.2683628798
v -0.04737664759 -0.008200369775 0.1720000207
v -0.0471320115 0.01003715396 0.2508657575
v -0.04711744189 0.01011401881 0.242697984
v -0.04701135308 -0.01095411088 0.250685215
v -0.04674835503 0.0108405482 0.1720000207
v -0.04565613344 0.006192831323 0.3143203855
v -0.04565225169 -0.001359498827 0.3144451678
v -0.04564192519 -0.008884543553 0.3138687611
v -0.04563385248 0.01361648273 0.313408792
v -0.0455981493 -0.01638511568 0.312474966
v -0.04536288604 0.0209308546 0.3118019402
v -0.04517437145 -0.0237804167 0.310336262
v -0.04508042336 -0.01666288823 0.3214181662
v -0.04505171999 0.006823331118 0.3230640888
v -0.04505049065 0.01459494978 0.3221846819
v -0.04504745454 -0.001037124777 0.3232029974
v -0.04504726827 -0.008882577531 0.3226627707
v -0.04493905976 0.02217770554 0.320633173
v -0.04487840831 -0.02423880249 0.3195017576
v -0.04471654817 -0.01750991307 0.1720000207
v -0.04428237677 0.02960824408 0.3183630705
v -0.04390469193 -0.03164421394 0.3168640733
v -0.04389888048 -0.02423753031 0.3290390968
v -0.04388447478 -0.01654605381 0.3305372894
v -0.04380964488 0.015225159 0.3310247958
v -0.04379750416 -0.008693126962 0.3314753771
v -0.04379060119 0.02299680375 0.3297656775
v -0.04378115386 0.01980993524 0.1720000207
v -0.04376480356 0.007282060571 0.3317416906
v -0.04375191778 -0.0007006356027 0.3318808973
v -0.0434865728 0.03050166741 0.3278749585
v -0.04342278466 -0.03158612177 0.3269927204
v -0.0428137742 0.03626244888 0.3156508505
v -0.04265839979 0.03702038899 0.3257181644
v -0.04239538684 -0.03806518763 0.3246516585
v -0.04180095345 -0.02370418794 0.3387680948
v -0.04175405204 0.02327437326 0.339078486
v -0.04173923284 -0.03095902503 0.3374238312
v -0.04171628132 -0.01607576199 0.3397786319
v -0.04167160392 0.0307453759 0.3377160132
v -0.04166044667 0.01550318766 0.3400130868
v -0.04160623625 -0.008278205059 0.3404327333
v -0.04157461971 0.00760201551 0.3405620754
v -0.04155007005 -0.0003547790693 0.340700686
v -0.0413717404 -0.03743224218 0.3358612061
v -0.04133797437 0.03714547679 0.3361760974
v -0.04130700231 0.04200785607 0.3239115775
v -0.04095912725 -0.04313666746 0.3227585554
v -0.0407345444 -0.04250938818 0.334510833
v -0.04068952054 0.04183938727 0.3348520696
v -0.0402934663 -0.02616800368 0.1720000207
v -0.03946674988 -0.04618743435 0.3335230947
v -0.03917931765 0.04572500288 0.3337814212
v -0.03905979916 0.02795715071 0.1720000207
v -0.03883811086 -0.04681041092 0.3216795325
v -0.03853210434 0.03062445484 0.3474777937
v -0.03850317746 0.0368639864 0.3464593291
v -0.03848895058 -0.03013878316 0.347618103
v -0.03847067803 0.02329860814 0.3483982086
v -0.03843927756 -0.02297436446 0.3484436274
v -0.03841745108 -0.03654125705 0.3466642797
v -0.03834015504 -0.01549656503 0.3490796685
v -0.03833569586 0.01561739575 0.3490748405
v -0.0382325314 -0.007821482606 0.3494844735
v -0.03822986782 0.00781421084 0.3494924307
v -0.03821174055 0.04155445844 0.3455109894
v -0.03820939735 -0.04165323079 0.3457964957
v -0.03819283471 -1.727137715e-05 0.3496294618
v -0.03748623282 -0.04543525726 0.344971776
v -0.03741581738 -0.04831773043 0.3328113854
v -0.0372495763 0.04543025419 0.3445633352
v -0.0362999849 -0.0486596562 0.321325928
v -0.03583279625 -0.04792194068 0.3440361917
v -0.03489734977 -0.04925219715 0.3322221637
v -0.03405120596 -0.03371606022 0.1720000207
v -0.03387980908 0.03648821637 0.3560898304
v -0.03384516761 0.03037050739 0.3567953706
v -0.03383780643 0.04126293585 0.3554483652
v -0.03372121602 0.02323381789 0.3574333191
v -0.03369356319 0.05880220234 0.3310790658
v -0.03361007199 -0.02943454869 0.357236445
v -0.03360274434 -0.03580167145 0.3566280007
v -0.03358158842 0.01566180401 0.3579351902
v -0.03357590362 -0.04925189912 0.3429797292
v -0.03354788944 -0.02235590853 0.3577342629
v -0.03353045508 -0.04925220087 0.3213087618
v -0.03348375112 -0.04100947082 0.3560450077
v -0.03347367793 -0.01497498341 0.3581175506
v -0.03347058967 0.04515392333 0.3547310233
v -0.03346425295 0.007980817929 0.3582633734
v -0.0334123075 -0.007400309667 0.3583496213
v -0.03340107203 0.0002677848097 0.3583989739
v -0.03298684955 -0.04478720948 0.3553721011
v -0.03279075772 0.03496528044 0.1720000207
v -0.03271953017 0.05880220234 0.3411929607
v -0.03218279406 0.05880220234 0.3209868968
v -0.03172506019 -0.04753208533 0.35431692
v -0.02975950763 -0.04923954979 0.352927357
v -0.0295249261 0.05880220234 0.3506686091
v -0.02865494788 0.05880219862 0.311316222
v -0.02756407857 0.03613849729 0.3648149371
v -0.02754671872 0.04095898569 0.364313215
v -0.0274938643 0.03006220236 0.3653208017
v -0.0273771137 0.02310168557 0.3658082485
v -0.02723081037 0.01567320526 0.3661940098
v -0.02720448375 0.04476148635 0.3636085987
v -0.02709657699 0.008108926006 0.3664529324
v -0.02700458281 0.0005133976811 0.36658144
v -0.02699126676 -0.02892513759 0.3658734262
v -0.02698601037 -0.02188237943 0.3662046194
v -0.0269735083 -0.007056712173 0.366589278
v -0.02697279304 -0.01454741135 0.3664530516
v -0.02696172148 -0.03536293656 0.3654692173
v -0.02691473253 -0.04075522721 0.3650850356
v -0.02667435445 -0.04443056509 0.3646125793
v -0.02641167864 -0.03999801353 0.1720000207
v -0.02574981749 -0.04734103382 0.3635315895
v -0.02526618727 0.04074588418 0.1720000207
v -0.02430709824 0.05880220234 0.3590276837
v -0.0238269642 -0.04922624305 0.3616367877
v -0.02256684005 0.05880219862 0.3026285768
v -0.01983904839 -0.05235219374 0.3301516771
v -0.01957253367 0.04077886418 0.3717478812
v -0.01953584328 0.03583255783 0.3721448481
v -0.01943904348 0.02980621532 0.3725497425
v -0.0193907395 0.04460422695 0.3711486757
v -0.01932901889 0.02295758575 0.3729596436
v -0.01930776611 -0.05235219374 0.3378201425
v -0.0191833768 0.01566105895 0.3732746243
v -0.01903742552 0.008208693005 0.373483777
v -0.01892936416 0.0007163322298 0.373609513
v -0.01886454597 -0.006768018939 0.3736490607
v -0.01883076318 -0.01419533323 0.3735821843
v -0.01878435351 -0.02149843238 0.3733815253
v -0.01874212734 -0.02853603102 0.3731300235
v -0.01868663542 -0.03494689241 0.3728238344
v -0.01862781309 -0.04031031579 0.3725209236
v -0.01845406555 -0.04407338426 0.3721239865
v -0.0183877293 -0.05235219374 0.3225754201
v -0.01779974811 -0.04710362852 0.3711418509
v -0.01751386188 0.05880219862 0.3661381006
v -0.01743030921 -0.04450269416 0.1720000207
v -0.01689942926 -0.05235219374 0.3450072408
v -0.01654577255 0.04491578788 0.1720000207
v -0.01615527458 -0.0492208004 0.3686996996
v -0.01505191252 -0.05235219747 0.315539062
v -0.014015425 0.05880219862 0.2953097522
v -0.0128708072 -0.05235219374 0.351287961
v -0.01016897336 0.04059727862 0.3773941696
v -0.01011155173 0.0445082821 0.3768346906
v -0.01008038782 0.03560340405 0.3777242005
v -0.009956583381 0.02961490862 0.3780556917
v -0.009907273576 -0.05235219747 0.3095487356
v -0.009811693802 0.02284387127 0.3783705831
v -0.009657926857 0.01564449631 0.3786381781
v -0.009497618303 0.008292934857 0.3788012266
v -0.009365329519 0.0008862868417 0.3789013326
v -0.009264057502 -0.0065180948 0.378936857
v -0.009183691815 -0.01388354693 0.3788898587
v -0.009104387835 0.05880219862 0.3714775145
v -0.0091036167 -0.02112313733 0.3787257373
v -0.009027892724 -0.02809282579 0.3785169125
v -0.008948579431 -0.03440899029 0.3782673776
v -0.008872991428 -0.03979093581 0.3780137002
v -0.008738389239 -0.04371132702 0.3776528835
v -0.008291482925 -0.04701048881 0.3766396642
v -0.00758514693 -0.04732578993 0.1720000207
v -0.007528583053 -0.05235219374 0.3563506603
v -0.00716460729 -0.04922037944 0.3738428354
v -0.006927977782 0.04733100161 0.1720000058
v -0.003294383176 -0.05235219747 0.3049875498
v -0.003256933764 0.05880219862 0.2899475992
v -0.001189218834 -0.05235219747 0.3599927425
v -0.001105063129 -7.247622125e-05 0.1719999611
v 0.0003202056978 0.05880219862 0.3750922978
v 0.0003307315055 0.04041032493 0.3808558285
v 0.0003424366005 0.04428304359 0.3801997602
v 0.0004461447243 0.03545541689 0.3811561465
v 0.0005965456367 0.02949140035 0.381447494
v 0.0007656193338 0.02277409844 0.3816990852
v 0.0009378180839 0.01565316878 0.3818995655
v 0.001106735319 0.008376469836 0.3820261359
v 0.001256333664 0.001041953103 0.3820944428
v 0.001389933517 -0.006300238892 0.3820891678
v 0.001496965298 -0.01360735111 0.3820400834
v 0.001600639196 -0.0207921695 0.3818787038
v 0.001696971012 -0.0277051758 0.3816690743
v 0.001783050131 -0.0339785479 0.3814235926
v 0.001862012316 -0.0393081978 0.3811784089
v 0.001962111797 -0.0434272401 0.3807881474
v 0.002157718642 -0.04689479619 0.3797590733
v 0.002707277657 -0.04761546478 0.1720000207
v 0.002735908609 -0.04922038317 0.3767178059
v 0.00322791189 0.04769095033 0.1720000505
v 0.004398964811 -0.05235219747 0.3022519052
v 0.005788371433 -0.05235219747 0.3620491922
v 0.008850961924 0.05880219862 0.2879303098
v 0.01056151837 0.05880219862 0.3760409057
v 0.01131021511 0.04420385137 0.3813766837
v 0.01145143993 0.04033828154 0.3819065094
v 0.01157178171 -0.05235220119 0.3325617313
v 0.01159004308 0.03536715731 0.3821741343
v 0.01175360009 0.02943498641 0.3824298084
v 0.01192687266 0.0227695778 0.382643342
v 0.0121037811 0.01570747048 0.3827853501
v 0.01228001527 0.008484351449 0.3828899264
v 0.01243535429 0.001197230304 0.3829308748
v 0.01247117668 -0.05235219747 0.3017114103
v 0.01257835515 -0.006104134955 0.3828900754
v 0.01269559003 -0.0133759575 0.382789731
v 0.01280087419 -0.02054208331 0.3826239705
v 0.01285566017 -0.0458489731 0.1720000356
v 0.01289769076 -0.02744001336 0.3824144602
v 0.01298381947 -0.03368128091 0.3821519613
v 0.0129955411 -0.04922037944 0.3772763014
v 0.01301464252 -0.05235219747 0.362303704
v 0.01305588521 -0.03905668855 0.3818997443
v 0.01310257427 -0.04679040983 0.3804369867
v 0.01310843602 -0.04328753054 0.381518662
v 0.01344043761 0.04574560001 0.1720000505
v 0.02000914142 -0.05235219747 0.3608211577
v 0.02007444389 -0.05235219747 0.3032132983
v 0.02081652544 0.05880219862 0.3750984371
v 0.02113160864 0.05880219862 0.2891342938
v 0.02229410596 -0.04200097919 0.1720000505
v 0.02236592397 0.04426793382 0.3799004853
v 0.02257806808 0.04038986564 0.3803763688
v 0.02273011766 0.0353747718 0.3806096911
v 0.02289838716 0.02948224731 0.380841434
v 0.0230736509 0.02285272628 0.3810324967
v 0.02309738472 -0.04922039062 0.3755885363
v 0.02324060723 0.04165199772 0.1720000505
v 0.02324413694 0.01581740566 0.381156683
v 0.02340970747 0.008626203984 0.3812298775
v 0.02355700731 0.001368250814 0.3812507987
v 0.02368209325 -0.005914218724 0.3811846673
v 0.02378831804 -0.01318050642 0.3810577095
v 0.02387765236 -0.02035494335 0.380861938
v 0.02391729504 -0.04683600739 0.3787156343
v 0.02395665273 -0.02728291228 0.380622685
v 0.02401985601 -0.03351905569 0.3803408146
v 0.02405492589 -0.04327953979 0.3796351552
v 0.0240691714 -0.03900721297 0.3800584674
v 0.02641801909 -0.05235219747 0.3578578234
v 0.02674388885 -0.05235219747 0.3063437343
v 0.03025760688 0.05880219862 0.3713489771
v 0.03064129129 -0.03648201376 0.1720000505
v 0.03188105673 -0.05235219374 0.3535134494
v 0.0319667235 0.03525989503 0.1720000505
v 0.03214618936 -0.05235219747 0.3107985854
v 0.03251830116 -0.04922039807 0.371704936
v 0.03259924799 0.05880219862 0.2936733961
v 0.03276193514 0.04433075339 0.3759335577
v 0.03304743767 0.04048264772 0.3764268458
v 0.03322138637 0.03547278419 0.3766667545
v 0.03340492398 0.02961057983 0.3768805861
v 0.03358470276 0.02299553901 0.3770573735
v 0.03374424949 0.01597647183 0.3771686554
v 0.03389121592 0.008801436052 0.3772246838
v 0.03393787518 -0.04683392495 0.3746196628
v 0.03401908278 0.00155952503 0.3772185147
v 0.03411954269 -0.005713377148 0.3771311641
v 0.03421074152 -0.01298330352 0.3769944012
v 0.0342618227 -0.02017770149 0.3767555356
v 0.03427890688 -0.04324224964 0.3754564226
v 0.03431192413 -0.02714421973 0.3764854968
v 0.03433400765 -0.03341699764 0.376177609
v 0.0343499817 -0.03893769905 0.3758721352
v 0.03620042652 -0.05235219374 0.3481300473
v 0.03627763689 -0.05235219747 0.3161272705
v 0.03740908951 -0.0292362161 0.1720000356
v 0.03881134093 0.05880219862 0.3658693433
v 0.03910766169 0.02719038352 0.1720000505
v 0.03917993233 -0.05235219374 0.3419913054
v 0.03926749155 -0.05235219747 0.3221271038
v 0.04062933475 -0.05235219374 0.3354041576
v 0.04064172134 -0.05235219374 0.3286996186
v 0.04071795195 -0.04922039807 0.3658000231
v 0.0420137085 0.05880219862 0.3008679152
v 0.04206279293 0.04439689219 0.3699404299
v 0.04239855707 0.04055690765 0.3703122735
v 0.04257324338 0.03558843583 0.3705158532
v 0.04258754104 -0.02093806677 0.1720000356
v 0.04274254292 -0.04679534212 0.3683199584
v 0.04275495186 0.02974410728 0.370721668
v 0.04292696342 0.02316352725 0.3708950281
v 0.04307011887 0.01616830379 0.3710052967
v 0.04320154339 0.009010238573 0.371066153
v 0.04329322651 -0.04315964133 0.3691638112
v 0.04330845177 0.001780631603 0.3710561991
v 0.04338474199 -0.005482802168 0.3709639609
v 0.0434143804 -0.03879536688 0.3695712686
v 0.04343765602 -0.03326980025 0.3699023426
v 0.04344267398 -0.01274802629 0.3707927763
v 0.04345772788 -0.01995825954 0.3705427051
v 0.04346463457 -0.02694977634 0.3702457845
v 0.04398450255 0.01778743044 0.1720000505
v 0.04596048966 0.05880220234 0.3584797978
v 0.04604326934 -0.01180155948 0.1720000356
v 0.04682183266 0.007909181528 0.1720000505
v 0.04742321745 -0.04922041669 0.3583796024
v 0.04753930494 -0.002030922566 0.1720000356
v 0.04863176122 0.05880219862 0.3096509874
v 0.04958364367 0.04446517304 0.3618247509
v 0.04994566366 -0.04672381654 0.3603871465
v 0.05010536313 0.04062491283 0.36226511
v 0.05028633773 0.03573815897 0.3624723554
v 0.0504539609 0.02992220037 0.3626820743
v 0.05058128387 -0.0430569239 0.3611174226
v 0.05061914772 0.0233732406 0.3628753722
v 0.05074341968 0.01639262587 0.3630007803
v 0.05078231171 -0.03856501728 0.3615374565
v 0.05084692314 0.009249802679 0.363066256
v 0.05085751042 -0.03302899003 0.3618975282
v 0.05092956126 0.002032178687 0.3630635142
v 0.05093785748 -0.02668109722 0.3622552156
v 0.05098032206 -0.005214476027 0.3629785776
v 0.05099889636 -0.01966415532 0.3625721633
v 0.05100854859 -0.01246227138 0.3628128171
v 0.05102094263 0.05880220234 0.3494960368
v 0.05110708252 -0.04922237992 0.311887145
v 0.05231314898 -0.04922043532 0.3497814238
v 0.05279764906 0.05880220234 0.3192642927
v 0.05400541052 0.05880220234 0.3396560252
v 0.05451846495 -0.0492204763 0.3210406303
v 0.05456176773 0.05880220234 0.3294013143
v 0.05502577499 -0.04661393166 0.3511838913
v 0.05514954403 -0.04922044277 0.3403796852
v 0.05533989519 0.04461421818 0.3524892926
v 0.05579777807 0.04078378528 0.3528318703
v 0.05590116233 -0.04922045395 0.3306584656
v 0.05594142154 -0.04283614084 0.3518381715
v 0.05596822128 0.03592963517 0.353058219
v 0.05613043904 0.03016035259 0.3532906473
v 0.05619661137 -0.03821787238 0.3522437215
v 0.0562966466 0.02363074012 0.3535105586
v 0.05632727966 -0.03263958916 0.3526217341
v 0.05643081665 0.01665565558 0.3536781073
v 0.05645313859 -0.02623921819 0.3529871106
v 0.05652052909 0.009512548335 0.3537698984
v 0.05654995143 -0.01927330904 0.3533059955
v 0.05658077449 0.002301709726 0.3537832499
v 0.05658952147 -0.0121295955 0.3535452187
v 0.05660033599 -0.004924112 0.3537069261
v 0.05747719109 -0.046356529 0.3207928538
v 0.05791132897 -0.04640404508 0.341160655
v 0.05826847628 0.04498137906 0.320959121
v 0.05859550089 -0.04621633515 0.3309323788
v 0.05876932666 0.04469066113 0.3422080278
v 0.05893741176 -0.04211186618 0.3209638894
v 0.05912115797 0.04121627286 0.3212107122
v 0.05915652215 -0.04251981527 0.3417462409
v 0.05924927816 0.0409492366 0.3425061703
v 0.05944690481 0.03618887812 0.3427734077
v 0.05947289243 -0.03776533157 0.3421429992
v 0.05964327604 0.03045308962 0.3430619538
v 0.05965568498 -0.03203693777 0.3425391018
v 0.05976588279 0.04479194432 0.3314945102
v 0.0598208718 0.02393397503 0.3433344364
v 0.05983568728 -0.02566394396 0.3429225683
v 0.0599601455 0.01694659889 0.3435565233
v 0.0599758029 -0.04212198779 0.3312931061
v 0.05998316407 -0.01884071343 0.3432621956
v 0.060050603 0.009786600247 0.3436984122
v 0.06006788835 -0.01179514918 0.3435195982
v 0.06010678411 0.002570416313 0.3437434435
v 0.06011237577 -0.004641085863 0.3436839581
v 0.06023499742 0.02462069504 0.3226386309
v 0.06034648791 0.04105870798 0.3317803741
v 0.06047688797 -0.01831810921 0.3229830563
v 0.06050435454 -0.03722028062 0.3316979408
v 0.06051527336 0.01753818616 0.3230887353
v 0.06060079485 0.03646380082 0.3321036994
v 0.06063624099 -0.01136461087 0.3233432174
v 0.06068063155 0.01028351393 0.3234166205
v 0.06075789779 -0.004240920767 0.3235446215
v 0.06076856703 0.002997044008 0.3235703111
v 0.06080243364 -0.03149464726 0.3321488202
v 0.0608635135 0.0307945814 0.3324863613
v 0.06104076281 -0.02518802322 0.3325880766
v 0.0611057356 0.02427649125 0.3328606784
v 0.06124062836 -0.01849107072 0.3329735398
v 0.06128766388 0.01724833623 0.333176434
v 0.06137514114 -0.0115231229 0.333268255
v 0.06140482053 0.01005257294 0.333396554
v 0.06146496907 -0.004403739236 0.3334462047
v 0.06147264689 0.002810900332 0.333488822
f 230 253 209
f 333 220 233
f 253 230 200
f 200 175 182
f 63 124 80
f 94 80 175
f 209 252 229
f 13 182 1
f 13 36 182
f 228 311 240
f 240 178 228
f 228 178 202
f 182 36 62
f 62 178 182
f 62 36 88
f 281 310 182
f 182 178 281
f 180 205 202
f 202 178 180
f 180 104 205
f 339 333 353
f 253 200 258
f 209 253 258
f 283 200 220
f 283 282 252
f 283 252 209
f 220 200 279
f 279 200 182
f 175 80 150
f 80 124 150
f 182 175 150
f 150 124 182
f 83 59 182
f 182 124 83
f 83 63 59
f 124 63 83
f 78 63 80
f 202 205 232
f 232 260 202
f 202 260 287
f 287 228 202
f 311 228 287
f 257 178 240
f 257 281 178
f 310 281 305
f 376 380 310
f 11 13 1
f 40 31 27
f 59 63 56
f 31 40 53
f 53 40 57
f 75 57 77
f 75 53 57
f 220 333 329
f 329 283 220
f 333 283 329
f 278 258 200
f 200 283 278
f 209 258 278
f 278 283 209
f 285 333 339
f 285 283 333
f 203 179 200
f 209 179 203
f 233 220 255
f 220 279 255
f 255 333 233
f 255 353 333
f 255 279 353
f 182 310 307
f 310 358 307
f 307 358 353
f 106 81 92
f 92 81 78
f 106 92 151
f 106 151 156
f 313 292 309
f 309 330 313
f 259 229 252
f 259 239 229
f 309 256 277
f 282 330 277
f 277 330 309
f 252 282 277
f 277 256 252
f 336 330 282
f 339 354 336
f 29 19 26
f 29 42 41
f 3 19 29
f 41 13 29
f 13 11 29
f 41 42 55
f 36 13 55
f 55 13 41
f 88 36 55
f 104 180 155
f 155 180 178
f 178 62 102
f 102 126 178
f 104 126 102
f 88 104 102
f 102 62 88
f 152 108 178
f 178 126 152
f 104 108 152
f 152 126 104
f 281 257 331
f 331 305 281
f 240 311 331
f 331 257 240
f 311 287 331
f 331 287 260
f 260 232 331
f 205 104 331
f 331 232 205
f 308 377 310
f 310 305 308
f 382 378 310
f 310 384 382
f 385 384 310
f 394 385 395
f 384 385 394
f 310 377 381
f 381 376 310
f 377 361 381
f 17 23 26
f 26 19 17
f 2 11 1
f 1 4 2
f 2 5 3
f 4 5 2
f 57 56 60
f 77 57 60
f 63 78 60
f 60 56 63
f 60 81 77
f 78 81 60
f 9 4 1
f 1 182 9
f 379 358 310
f 353 358 356
f 339 353 356
f 356 354 339
f 282 283 284
f 283 285 284
f 284 336 282
f 284 285 339
f 339 336 284
f 216 200 230
f 216 203 200
f 216 230 209
f 209 203 216
f 161 179 209
f 209 154 161
f 161 154 175
f 175 200 161
f 200 179 161
f 175 154 147
f 147 154 130
f 147 94 175
f 130 94 147
f 291 279 182
f 182 307 291
f 353 279 291
f 291 307 353
f 82 94 130
f 80 94 82
f 82 78 80
f 82 92 78
f 136 151 92
f 136 82 130
f 92 82 136
f 130 154 136
f 177 201 174
f 223 239 247
f 247 227 226
f 226 223 247
f 335 354 360
f 335 313 330
f 330 336 335
f 335 336 354
f 247 239 268
f 239 259 268
f 309 292 286
f 286 256 309
f 292 268 286
f 286 268 259
f 252 256 286
f 286 259 252
f 3 29 10
f 10 29 11
f 10 2 3
f 11 2 10
f 61 103 88
f 88 55 61
f 27 31 21
f 22 33 23
f 129 108 104
f 104 155 129
f 178 108 129
f 129 155 178
f 305 331 334
f 310 380 383
f 383 385 310
f 395 374 375
f 375 394 395
f 357 361 377
f 300 276 273
f 344 318 346
f 376 381 387
f 387 389 380
f 380 376 387
f 387 381 361
f 3 5 7
f 8 7 18
f 27 21 18
f 30 40 27
f 56 9 28
f 59 56 28
f 182 59 28
f 28 9 182
f 173 146 174
f 174 146 148
f 153 177 148
f 148 177 174
f 247 268 250
f 250 268 273
f 250 227 247
f 250 251 227
f 273 276 250
f 250 276 251
f 360 379 363
f 358 379 370
f 370 356 358
f 370 379 360
f 360 354 370
f 354 356 370
f 153 176 181
f 181 177 153
f 176 156 181
f 181 156 151
f 181 154 209
f 181 136 154
f 151 136 181
f 340 335 360
f 360 363 340
f 340 363 343
f 340 343 317
f 317 313 340
f 313 335 340
f 31 53 46
f 53 75 46
f 32 21 31
f 25 21 32
f 26 23 35
f 23 33 35
f 35 33 45
f 45 48 35
f 79 103 58
f 103 61 58
f 58 55 42
f 58 61 55
f 15 25 24
f 25 32 24
f 23 17 14
f 14 22 23
f 14 8 15
f 15 24 14
f 14 24 22
f 305 334 355
f 355 308 305
f 380 389 391
f 391 383 380
f 389 367 391
f 394 375 373
f 374 350 352
f 352 375 374
f 364 367 389
f 366 334 332
f 332 357 366
f 366 357 377
f 366 355 334
f 308 355 366
f 320 345 347
f 317 343 320
f 343 345 320
f 297 313 317
f 292 313 297
f 317 320 297
f 297 320 300
f 297 300 273
f 297 268 292
f 273 268 297
f 251 276 275
f 348 350 374
f 348 323 350
f 372 348 374
f 346 348 372
f 372 374 395
f 369 367 344
f 344 346 369
f 346 372 369
f 369 391 367
f 15 8 16
f 8 18 16
f 16 18 21
f 16 25 15
f 16 21 25
f 6 7 8
f 8 14 6
f 3 7 6
f 6 14 17
f 6 19 3
f 6 17 19
f 43 9 56
f 43 30 9
f 43 56 57
f 57 40 43
f 40 30 43
f 9 30 20
f 20 30 27
f 20 5 4
f 20 7 5
f 27 18 20
f 20 18 7
f 172 173 198
f 153 148 125
f 69 95 66
f 75 95 69
f 69 46 75
f 93 70 89
f 93 89 117
f 97 127 107
f 107 103 79
f 79 97 107
f 114 127 97
f 114 97 86
f 86 110 114
f 114 110 134
f 227 251 225
f 122 146 145
f 145 173 172
f 146 173 145
f 266 241 242
f 196 222 221
f 222 248 221
f 221 248 246
f 207 208 234
f 234 231 207
f 207 231 206
f 184 208 207
f 134 158 168
f 157 159 184
f 184 158 157
f 378 382 390
f 204 223 201
f 201 177 204
f 177 181 204
f 204 181 209
f 65 48 45
f 45 64 65
f 65 64 86
f 86 64 84
f 84 110 86
f 85 109 84
f 109 110 84
f 68 47 66
f 68 70 47
f 68 89 70
f 45 33 49
f 47 32 44
f 66 47 44
f 31 46 44
f 44 32 31
f 44 69 66
f 46 69 44
f 26 35 39
f 39 29 26
f 42 29 39
f 39 35 48
f 383 391 393
f 395 385 393
f 385 383 393
f 391 369 393
f 393 372 395
f 393 369 372
f 351 373 375
f 375 352 351
f 362 364 389
f 389 387 362
f 362 387 361
f 377 308 359
f 359 366 377
f 308 366 359
f 323 348 321
f 304 324 326
f 304 275 276
f 274 275 304
f 323 321 298
f 298 269 270
f 326 351 327
f 327 351 352
f 246 248 271
f 271 245 246
f 270 245 271
f 4 9 12
f 12 20 4
f 9 20 12
f 199 226 227
f 227 198 199
f 174 201 199
f 199 173 174
f 199 198 173
f 201 223 199
f 223 226 199
f 131 110 109
f 109 132 131
f 134 110 131
f 132 157 131
f 131 158 134
f 131 157 158
f 153 125 128
f 106 156 128
f 128 176 153
f 128 156 176
f 77 81 105
f 105 81 106
f 106 128 105
f 105 128 125
f 101 105 125
f 77 105 101
f 101 75 77
f 101 95 75
f 123 148 146
f 123 125 148
f 123 146 122
f 123 101 125
f 122 95 123
f 95 101 123
f 66 95 90
f 90 68 66
f 89 68 90
f 90 95 122
f 122 89 90
f 93 117 118
f 121 89 122
f 121 117 89
f 122 145 121
f 121 145 117
f 135 112 113
f 93 118 96
f 96 70 93
f 96 72 70
f 91 112 87
f 113 112 91
f 172 198 197
f 197 222 196
f 197 225 222
f 197 198 227
f 227 225 197
f 169 193 167
f 196 170 171
f 172 197 171
f 171 197 196
f 274 248 249
f 249 275 274
f 251 275 249
f 249 225 251
f 222 225 249
f 249 248 222
f 235 262 234
f 234 208 235
f 184 207 185
f 185 158 184
f 237 212 238
f 238 264 237
f 237 236 211
f 211 212 237
f 214 242 241
f 165 190 164
f 194 169 170
f 193 169 194
f 218 193 194
f 192 166 167
f 167 193 192
f 159 135 160
f 160 135 162
f 163 138 164
f 206 127 183
f 127 168 183
f 183 207 206
f 183 185 207
f 183 168 158
f 158 185 183
f 134 168 149
f 149 168 127
f 149 114 134
f 127 114 149
f 386 363 379
f 310 378 386
f 386 379 310
f 368 390 371
f 368 345 343
f 368 371 347
f 347 345 368
f 392 382 384
f 392 390 382
f 384 394 392
f 371 390 392
f 392 373 371
f 394 373 392
f 223 204 224
f 229 239 224
f 239 223 224
f 209 229 224
f 224 204 209
f 48 65 74
f 79 58 74
f 74 97 79
f 86 97 74
f 74 65 86
f 71 51 73
f 71 49 51
f 73 91 71
f 71 91 87
f 37 49 33
f 33 22 37
f 51 49 37
f 37 38 51
f 22 24 37
f 24 38 37
f 34 24 32
f 34 38 24
f 34 32 47
f 47 38 34
f 50 38 47
f 47 70 50
f 70 72 50
f 54 39 48
f 48 74 54
f 54 74 58
f 54 58 42
f 42 39 54
f 373 351 349
f 347 371 349
f 371 373 349
f 349 351 326
f 349 324 347
f 326 324 349
f 295 266 267
f 266 242 267
f 267 242 243
f 243 269 267
f 244 245 270
f 244 269 243
f 270 269 244
f 218 245 244
f 219 221 246
f 246 245 219
f 219 245 218
f 218 194 219
f 264 238 265
f 265 241 266
f 265 238 241
f 295 318 294
f 294 266 295
f 294 265 266
f 344 367 342
f 367 364 342
f 328 357 332
f 322 320 347
f 347 324 322
f 300 320 322
f 322 324 300
f 319 318 295
f 319 346 318
f 319 348 346
f 319 321 348
f 303 304 326
f 326 327 303
f 303 327 302
f 274 304 303
f 300 324 301
f 324 304 301
f 276 300 301
f 301 304 276
f 323 298 299
f 299 271 302
f 299 298 270
f 270 271 299
f 296 298 321
f 296 319 295
f 321 319 296
f 295 267 296
f 269 298 296
f 296 267 269
f 302 271 272
f 274 303 272
f 272 303 302
f 272 248 274
f 272 271 248
f 143 118 117
f 143 171 170
f 87 112 111
f 111 109 85
f 85 87 111
f 111 132 109
f 111 112 132
f 132 112 133
f 112 135 133
f 133 135 159
f 159 157 133
f 133 157 132
f 119 100 99
f 72 96 99
f 100 76 99
f 99 76 72
f 120 96 118
f 119 99 120
f 120 99 96
f 116 100 119
f 116 115 100
f 138 115 116
f 236 235 210
f 210 211 236
f 210 235 208
f 186 208 184
f 186 210 208
f 184 159 186
f 159 160 186
f 212 211 188
f 213 214 241
f 241 238 213
f 213 238 212
f 190 214 213
f 195 170 196
f 195 194 170
f 196 221 195
f 221 219 195
f 195 219 194
f 166 192 191
f 190 165 191
f 191 165 166
f 191 214 190
f 217 193 218
f 217 192 193
f 218 244 217
f 217 244 243
f 138 163 137
f 137 115 138
f 162 135 137
f 137 163 162
f 137 135 113
f 113 115 137
f 363 386 388
f 378 390 388
f 388 386 378
f 49 71 67
f 67 64 45
f 45 49 67
f 85 84 67
f 67 84 64
f 67 87 85
f 67 71 87
f 98 76 100
f 113 91 98
f 98 91 73
f 73 76 98
f 98 115 113
f 100 115 98
f 51 38 52
f 38 50 52
f 73 51 52
f 52 76 73
f 72 76 52
f 52 50 72
f 262 235 263
f 263 235 236
f 263 236 237
f 237 264 263
f 293 294 318
f 264 265 293
f 265 294 293
f 361 357 337
f 357 328 337
f 364 362 338
f 338 362 361
f 361 337 338
f 338 337 314
f 306 337 328
f 280 288 306
f 306 254 280
f 231 254 306
f 306 127 206
f 206 231 306
f 302 327 325
f 325 299 302
f 323 299 325
f 325 327 352
f 325 352 350
f 350 323 325
f 117 145 144
f 144 143 117
f 144 145 172
f 172 171 144
f 171 143 144
f 138 116 139
f 164 138 139
f 139 165 164
f 141 120 118
f 119 120 141
f 141 169 167
f 167 166 141
f 212 188 189
f 190 213 189
f 189 213 212
f 164 190 189
f 189 163 164
f 189 188 163
f 187 188 211
f 211 210 187
f 210 186 187
f 187 160 162
f 187 186 160
f 162 163 187
f 163 188 187
f 215 191 192
f 192 217 215
f 214 191 215
f 215 217 243
f 243 242 215
f 242 214 215
f 390 368 365
f 365 388 390
f 363 388 365
f 343 363 365
f 365 368 343
f 314 288 289
f 289 315 314
f 289 288 262
f 262 263 289
f 261 288 280
f 280 254 261
f 262 288 261
f 234 262 261
f 261 231 234
f 261 254 231
f 314 337 312
f 337 306 312
f 312 288 314
f 312 306 288
f 118 143 142
f 142 141 118
f 169 141 142
f 170 169 142
f 142 143 170
f 119 141 140
f 140 116 119
f 140 139 116
f 140 141 166
f 166 165 140
f 165 139 140
f 342 315 316
f 316 318 344
f 344 342 316
f 316 293 318
f 316 315 293
f 341 315 342
f 341 342 364
f 364 338 341
f 341 338 314
f 314 315 341
f 293 315 290
f 315 289 290
f 290 289 263
f 290 263 264
f 264 293 290
f 88 103 306
f 306 104 88
f 332 334 306
f 306 331 104
f 306 334 331
f 103 107 306
f 306 107 127
f 306 328 332
