v -0.0561077334 0.06893770397 -0.00288579613
v -0.05602679029 0.06271084398 -0.002725172089
v -0.05601383746 0.07611882687 -0.003024810692
v -0.05585965887 0.08380944282 -0.003187483875
v -0.05572215095 0.05721131712 -0.002550907899
v -0.05566919595 0.09167686105 -0.003412933089
v -0.05544855073 0.06904443353 0.008840241469
v -0.05541990325 0.06265537441 0.008952835575
v -0.05540087447 0.05361019447 -0.002427430358
v -0.05521919951 0.05725190043 0.008635317907
v -0.05498784408 0.05354239419 0.008253701963
v -0.05460157618 0.1337946951 0.005195126869
v -0.05456483364 0.1337971836 -0.005524135195
v -0.0541863963 0.1370000094 0.00494710356
v -0.0541113317 0.1370000094 -0.005661489442
v -0.0518604219 0.1339012384 0.0156369023
v -0.05175723508 0.1339078099 -0.01587140746
v -0.05172194913 0.1370000094 0.01530478243
v -0.05147341639 0.1370000094 -0.015916517
v -0.04959719628 0.002581091132 0.05181607604
v -0.04946613312 -0.0009965067729 -0.05219681934
v -0.04944206774 0.002378815552 0.05369954556
v -0.04924311489 -0.001032399596 -0.05422838405
v -0.04921363667 0.009982028045 -0.05221682787
v -0.0487356782 -0.00794415269 0.05154596269
v -0.04872685298 0.0100301858 -0.05411677808
v -0.0486956723 0.002246507443 0.05565500259
v -0.04862232506 0.01187321264 0.05369492993
v -0.04862032458 -0.00812398456 0.05343499035
v -0.04847033322 -0.0009781483095 -0.05624432862
v -0.04808990285 -0.008224289864 0.05551588535
v -0.04775860533 0.01009723078 -0.05597215518
v -0.04772353172 0.01186821423 0.05552234501
v -0.04770454392 0.002167794853 0.05765863881
v -0.0474531725 -0.0008746509557 -0.05834915489
v -0.04744063318 -0.01347592007 -0.05206748843
v -0.04732767865 -0.01354703307 -0.05411514267
v -0.04718893766 -0.008205705322 0.05761244148
v -0.04667143151 -0.01337590907 -0.05618462339
v -0.04662894458 0.01019334514 -0.05790565535
v -0.0466272682 0.0118397614 0.05745774135
v -0.04659221694 0.1370000094 0.02506229654
v -0.04650155455 0.002110675443 0.05975115299
v -0.04634445161 0.1370000094 -0.0254196655
v -0.0461665988 -0.0007184850401 -0.0605167225
v -0.04601884633 -0.008106975816 0.05972509086
v -0.04567513987 -0.01309708692 -0.05832512677
v -0.04547201842 -0.01913314871 0.05292253196
v -0.04532063007 0.01174446102 0.05945824459
v -0.04529643059 0.01029615849 -0.05991384387
v -0.04507226869 -0.01911482774 0.05524228886
v -0.04502201453 0.002050153213 0.06180484593
v -0.04461924359 -0.0005892132176 -0.06252699345
v -0.04452207312 -0.007939753123 0.0618467778
v -0.04437733442 -0.0127196312 -0.06046803668
v -0.04418300092 -0.01884089224 0.0573826246
v -0.04384190589 0.01157568209 0.06146998703
v -0.04380103573 0.01032422669 -0.06188122556
v -0.04305334017 -0.01845017076 0.05950186029
v -0.04301260784 0.001934955828 0.06350349635
v -0.04278310388 -0.01226032991 -0.06254736334
v -0.04260294884 -0.007736638654 0.06352662295
v -0.0423200205 -0.0004850107944 -0.06380315125
v -0.04198483378 -0.02580440044 -0.05187422037
v -0.04191041738 -0.02584608272 -0.05391077697
v -0.04184532538 0.01111624017 0.0633149147
v -0.04182125628 0.01013584156 -0.06347608566
v -0.04166632146 -0.01793853939 0.06155949458
v -0.04141046479 -0.02558253147 -0.05599141121
v -0.04055196792 -0.02508278564 -0.0581385307
v -0.0405189395 -0.01161190122 -0.06385516375
v -0.04013274983 0.001674484578 0.06399246305
v -0.03991594166 -0.01727985404 0.06335189939
v -0.03974878043 -0.007348547224 0.06402203441
v -0.03961499035 0.01976549625 -0.06259992719
v -0.03948371112 0.01966010593 0.06274606287
v -0.03943730146 -0.02958807722 0.05259668082
v -0.03939869627 -0.02440948971 -0.06030881777
v -0.03934838623 -0.0003688789438 -0.06403245032
v -0.03915817291 -0.02937125228 0.05483846366
v -0.0389547497 0.1370000094 -0.03351344168
v -0.03892205283 0.01031719334 0.06395342201
v -0.03886028007 0.1370000094 0.03359961137
v -0.03873727098 0.009685049765 -0.06397020072
v -0.03850821033 -0.02887312882 0.05705658719
v -0.03795145079 -0.02356680296 -0.06241018698
v -0.03767412901 -0.01079472527 -0.06406006962
v -0.03757957742 -0.02816211805 0.0592681244
v -0.0373096168 -0.01622157358 0.06400299072
v -0.03683702275 0.001365178963 0.06408084929
v -0.03652066737 0.01890830882 -0.0638301149
v -0.0364947319 -0.006928744726 0.06409174949
v -0.03644156083 -0.02728584222 0.0613713637
v -0.03640083224 0.01834696531 0.0638563782
v -0.03589085117 -0.02234313823 -0.06382133067
v -0.03585160524 -0.0001540064113 -0.06409819424
v -0.03544114158 0.009371240623 0.06407052279
v -0.03503694385 0.009227415547 -0.0640796721
v -0.03499353677 -0.02616471052 0.06328541785
v -0.03427678719 -0.009783848189 -0.06411079317
v -0.03421742469 -0.01500365417 0.06409099698
v -0.03347817808 -0.03627121076 -0.05152726173
v -0.03333292156 -0.03620184213 -0.05369414389
v -0.03325542435 0.02686969377 -0.0633912757
v -0.03325051442 -0.02074856497 -0.06405160576
v -0.03290543333 -0.03584247828 -0.05574394017
v -0.03280979395 -0.02444972284 0.06399576366
v -0.03267385811 0.01666167751 0.06405360252
v -0.03263564408 0.02555195056 0.06373103708
v -0.0324017778 0.01750288345 -0.06404840201
v -0.03225008398 -0.03520876914 -0.05789191648
v -0.03135530278 -0.03430890292 -0.06014142931
v -0.03120827116 -0.006277387962 0.06413758546
v -0.03109971061 0.0008269865066 0.06413754821
v -0.03074182011 -0.03857307881 0.05237618461
v -0.03063067608 -0.03827087954 0.05454181135
v -0.03025759943 -0.03756832331 0.05680632591
v -0.03020399995 -0.03318806738 -0.06224857643
v -0.03007235192 -0.0223601982 0.06408689171
v -0.0300373435 -0.01880357973 -0.06411486119
v -0.02986208349 0.1370000094 -0.03945751116
v -0.02965300716 -0.01324271504 0.06413657963
v -0.02962984331 -0.0365713425 0.05909300223
v -0.0295656696 0.007758295164 0.06413660198
v -0.02898505889 0.00034269772 -0.06414562464
v -0.028946748 0.03351604193 -0.06277239323
v -0.02889454365 0.02323048934 0.06405359507
v -0.02884599566 0.02459523827 -0.06401907653
v -0.02882869728 -0.03534570709 0.06125466153
v -0.0288049113 0.1370000094 0.03993261606
v -0.02851891518 -0.03148371726 -0.06376694888
v -0.02826200239 0.008319194429 -0.06414117664
v -0.02777676471 -0.03378154337 0.0632610172
v -0.0275733415 -0.007710040547 -0.06414818764
v -0.02710099891 0.03172367066 0.06365938485
v -0.02689784393 0.01419135742 0.06413303316
v -0.02626956813 -0.01951674372 0.06413500756
v -0.0262592826 -0.02911784314 -0.06405123323
v -0.02614289708 -0.03141032159 0.06400606781
v -0.02598130889 0.01556712203 -0.06413208693
v -0.02440742217 0.03024855629 -0.0639898479
v -0.02423331887 -0.02848374471 0.06409238279
v -0.02405933477 -0.01522218809 -0.06414844096
v -0.02372186445 0.02876188233 0.06403777748
v -0.02345342562 -0.02622212283 -0.0641182214
v -0.02341034636 0.0200437773 0.06412924826
v -0.02335619181 -0.005854127463 0.06415395439
v -0.02310119569 2.250225771e-05 0.06415434927
v -0.02265383862 0.02167844214 -0.06412646174
v -0.02262613736 -0.01156637631 0.06415262818
v -0.02238453366 -0.04399865121 -0.05185097456
v -0.02231712826 -0.04390190169 -0.05375121534
v -0.02199959382 -0.04338629916 -0.05579488724
v -0.02197290771 -0.01623917744 0.06414988637
v -0.02177109756 0.005861923564 0.06415396929
v -0.02152960002 -0.04256623238 -0.05786795169
v -0.02131901681 -0.02428078651 0.06413716823
v -0.02094990015 -0.04149489477 -0.06000532582
v -0.02078513056 0.001102167298 -0.06415580213
v -0.02018307894 -0.04010464251 -0.06212322414
v -0.01994559728 0.007779609878 -0.06415452063
v -0.01994493976 -0.005500372499 -0.0641560331
v -0.01984292641 0.1370000094 -0.04293096066
v -0.01977462694 0.03650917858 0.06379591674
v -0.01972043514 -0.04499171302 0.05441910028
v -0.01969059743 -0.04530128464 0.05228965729
v -0.01956580393 -0.04414280131 0.05669460073
v -0.01951585896 0.01152721699 0.06415329129
v -0.01932414807 -0.04301214591 0.05902383104
v -0.01912855171 0.02508826368 0.06412665546
v -0.01901833899 -0.0380009301 -0.06378445774
v -0.01895219088 -0.0415741019 0.06124721467
v -0.01890512742 0.03475262225 -0.06396167725
v -0.01881607622 0.02650536969 -0.06412100792
v -0.01840335503 -0.03968100622 0.06326218694
v -0.01833147742 -0.02112675086 -0.06414874643
v -0.01790288091 -0.01793034747 0.06415209919
v -0.01769602112 0.01402526908 -0.06415326148
v -0.01745840535 -0.03670767322 0.06400630623
v -0.01745441556 0.03262351081 0.06405419856
v -0.01742484048 -0.03505718336 -0.06405805796
v -0.01734519005 0.1370000094 0.04340478405
v -0.01729016937 -0.01122534368 -0.06415574253
v -0.01682118326 -0.0117954975 0.06415574998
v -0.0165916495 -0.006408449262 0.06415698677
v -0.01647288725 -0.03309713677 0.06409864128
v -0.0164309945 0.01699264534 0.06415186077
v -0.015972564 -0.001159488107 0.06415736675
v -0.01585617289 0.03051500767 -0.06409935653
v -0.01552460715 0.02871277928 0.06411923468
v -0.01537159737 -0.03146154061 -0.06411926448
v -0.01497016475 -0.02752241865 0.06413948536
v -0.01470380742 0.01976453327 -0.06415105611
v -0.01468905155 0.004043645225 0.06415741891
v -0.01332745887 0.00139856094 -0.06415770948
v -0.01329789124 -0.01990960352 0.06415317953
v -0.01299821585 0.02240228094 0.06414921582
v -0.01293332316 -0.0153943561 -0.06415588409
v -0.0128472019 -0.004107167013 -0.06415773183
v -0.01269476116 0.009228915907 0.06415717304
v -0.01251051947 -0.008174867369 -0.06415748596
v -0.01228724886 0.007338890806 -0.06415749341
v -0.01201238576 -0.01289985422 0.06415678561
v -0.01191336382 0.02537779696 -0.0641445145
v -0.01170052588 -0.02515777759 -0.06414794922
v -0.0115534449 0.03796803206 -0.06392963976
v -0.01129274908 0.039253667 0.06382861733
v -0.01095247455 -0.007418258116 0.06415768713
v -0.01064564008 0.03176265582 -0.06410741061
v -0.01040526852 0.02834654972 0.06413494796
v -0.01036822796 0.03441635892 0.06406294554
v -0.01013279613 0.01326350775 -0.06415690482
v -0.009969613515 0.01453324035 0.06415660679
v -0.009893951938 -0.04821771011 -0.05392859504
v -0.009877171367 -0.04839704558 -0.05197742209
v -0.009861037135 -0.002555015031 0.06415788829
v -0.009764472954 -0.04760556296 -0.05595228076
v -0.009577900171 -0.04665592685 -0.05801236629
v -0.009561139159 0.1370000094 -0.04394334555
v -0.009334645234 -0.04546903446 -0.06011320278
v -0.009007136337 -0.04390886799 -0.06220157072
v -0.008697985671 -0.009455778636 -0.06415762007
v -0.008509128354 -0.04163743556 -0.06380097568
v -0.008507213555 0.00217519165 0.06415790319
v -0.008035923354 -0.02113720775 0.06415396184
v -0.007983792573 -0.01384970173 0.06415705383
v -0.00773180183 -0.03839009255 -0.06404118985
v -0.007653587963 -0.01802259125 -0.06415580213
v -0.007521178573 -0.004192414694 -0.06415787339
v -0.007435230073 -0.02901870385 0.06414248794
v -0.007381994743 0.01942081004 -0.06415510923
v -0.00708470447 0.0009964419296 -0.06415791065
v -0.007019331679 -0.03546921164 0.06410395354
v -0.006997722201 -0.04294833168 0.06334654242
v -0.006983891129 -0.03958696872 0.06399302185
v -0.006930330303 -0.04502985999 0.06133272126
v -0.006830458064 -0.04655192792 0.05914242566
v -0.006705670618 -0.04777497053 0.05687693879
v -0.006703656167 0.006773587316 0.06415784359
v -0.006660487503 -0.03443564102 -0.06411588937
v -0.006648777518 0.02049591206 0.06415446848
v -0.006596713327 -0.04865650088 0.05456994101
v -0.006389154121 -0.04890535772 0.05230920017
v -0.005806572735 0.006607366726 -0.06415786594
v -0.005429392215 0.1370000094 0.04363632202
v -0.004715080839 0.02612884715 -0.06414899975
v -0.004649345297 -0.02736181021 -0.06414804608
v -0.004180434626 0.01188944001 0.06415763497
v -0.003650587518 0.02743402682 0.06414580345
v -0.003533035051 0.01261617616 -0.06415759772
v -0.003204238601 0.03349506855 -0.06410653144
v -0.002757840324 0.03963868693 -0.0639687553
v -0.002061244566 0.03444329649 0.06409994513
v -0.001262600999 0.04001222178 0.06396659464
v -0.0005705090589 0.01920257322 -0.06415630877
v -0.0005609396612 0.01813130267 0.06415667385
v 0.0003918557486 0.1370000094 -0.04259193316
v 0.0007845286746 -0.02818248607 0.06415039301
v 0.002054297132 -0.03910114989 -0.06408447772
v 0.002058912534 -0.03514058515 -0.06412967294
v 0.00210760138 -0.04233965278 -0.06381380558
v 0.002218386391 -0.04469837993 -0.06234771013
v 0.002304170281 0.01164050307 -0.06415780634
v 0.002321704058 -0.04631213471 -0.06034731865
v 0.002415838884 -0.04760165885 -0.05822633579
v 0.002507446101 -0.04858332872 -0.05613163486
v 0.002543715993 -0.04915361479 -0.05403474718
v 0.002545828233 -0.02805620804 -0.06415170431
v 0.002628262853 -0.04936565831 -0.05206469074
v 0.002653334755 0.02642630972 -0.06415143609
v 0.00321063539 -0.03502701968 0.06413334608
v 0.0037278214 0.02536422759 0.06415323168
v 0.004520832095 -0.03929607198 0.06409908086
v 0.004786986392 0.01484658476 0.06415765733
v 0.005409166683 0.03386056423 -0.06411921978
v 0.005555153824 -0.04275543615 0.06368461251
v 0.005810969509 0.01827526838 -0.06415715814
v 0.005974058527 0.1370000094 0.04074183851
v 0.006293503102 -0.04481411725 0.06166739389
v 0.006888990756 -0.04632330313 0.05947108567
v 0.007281824015 0.01016793866 -0.06415785849
v 0.007382109761 0.03267772496 0.06413079053
v 0.007399588823 -0.04749516025 0.05718853697
v 0.007600826677 0.0395927839 -0.06397711486
v 0.007823417895 -0.04834236205 0.05485792831
v 0.008157329634 -0.04861794412 0.05250941217
v 0.00831928011 -0.01426157821 0.06415773183
v 0.008393391035 -0.00794861652 -0.06415790319
v 0.008577371947 -0.0249573756 0.06415608525
v 0.009036817588 0.01084692683 0.06415785849
v 0.009306727909 -0.02728539333 -0.06415494531
v 0.00948475115 0.1370000094 -0.03914446756
v 0.009989356622 0.0385209918 0.06401884556
v 0.010135605 -0.03386275843 -0.06414116174
v 0.01015168056 0.02522587217 -0.06415383518
v 0.01045159809 0.02178422548 0.06415625662
v 0.01070378162 -0.02076555043 -0.06415741891
v 0.01119382679 -0.03755360097 -0.06410648674
v 0.01154862624 0.01635917462 -0.06415756047
v 0.01161500625 0.008368785493 -0.06415787339
v 0.01187771372 -0.008755295537 0.0641579181
v 0.01205607876 -0.04066930339 -0.0638975054
v 0.01274537574 -0.04285018519 -0.06231487915
v 0.01300386433 0.002684762934 0.06415788829
v 0.01304584928 -0.0147677036 -0.06415783614
v 0.01306589786 -0.03143329173 0.06414784491
v 0.01323428005 -0.04429958388 -0.06035771221
v 0.01331091486 0.007670075633 0.06415787339
v 0.01341146417 -0.002720904071 0.06415790319
v 0.01365756989 -0.04550762847 -0.05825662985
v 0.01400415786 -0.04643637687 -0.05614560097
v 0.01425203774 -0.04705665633 -0.05404235795
v 0.01431615558 -0.02645805851 -0.06415496022
v 0.01439075638 -0.04722397774 -0.05206426978
v 0.01477571949 0.0320363827 -0.06412703544
v 0.01498716325 -0.008906034753 -0.06415788829
v 0.01521826722 -0.01972503401 0.06415741891
v 0.01537773106 0.006925679278 -0.06415787339
v 0.01556828246 0.002635182114 -0.06415788829
v 0.01580528542 -0.03547292948 0.06411021203
v 0.01593309641 -0.002984785009 -0.06415789574
v 0.01604014821 0.1370000094 0.03503042087
v 0.01619633846 0.01669497974 0.06415756792
v 0.01636424474 0.02882756107 0.06414474547
v 0.01644490846 0.01340222824 -0.06415777653
v 0.01703144237 -0.02212689072 -0.06415646523
v 0.01704529673 -0.03070251644 -0.06414333731
v 0.0171862822 0.02257593162 -0.06415577233
v 0.0174144078 0.1370000094 -0.03392670304
v 0.01786339656 -0.03853903338 0.06385104358
v 0.01890744455 0.03667298332 -0.0639166981
v 0.01924237609 -0.03410308808 -0.06410364807
v 0.01930868626 -0.04057379067 0.06204544753
v 0.02015314996 -0.01270068809 0.06415758282
v 0.02033802494 -0.04192088544 0.05984472111
v 0.02034507506 -0.0164570678 -0.06415707618
v 0.02036232688 0.009154533967 -0.06415772438
v 0.02039431781 0.01032450143 0.06415767968
v 0.02106239274 -0.0369133167 -0.06382343918
v 0.02106774971 0.03432682157 0.06403825432
v 0.02119037323 -0.04295182973 0.05754886195
v 0.02154499479 -0.02489999868 0.06415104866
v 0.02186917886 -0.04368980229 0.05527319387
v 0.02230817266 -0.03881951794 -0.0622995086
v 0.02232081071 -0.04393046349 0.05288386345
v 0.02259024419 0.003037362127 0.06415762007
v 0.0226315707 -0.01002680417 -0.0641573444
v 0.02264562249 -0.004701180849 0.06415759772
v 0.02269565128 0.02807974443 -0.06413342804
v 0.02274942398 0.003331866814 -0.06415760517
v 0.02276349068 -0.02583503164 -0.06414685398
v 0.0230754111 0.01810411736 -0.06415581703
v 0.02318776771 -0.04010264203 -0.06034877524
v 0.02348680981 -0.003198722843 -0.06415750831
v 0.02373676933 0.02226739749 0.06415126473
v 0.0239069555 0.1370000094 -0.02734040283
v 0.02391331643 -0.0411272794 -0.05830489844
v 0.02409688197 0.1370000094 0.02709396929
v 0.02451655827 -0.04193100333 -0.05621176958
v 0.02491242625 -0.04239889234 -0.05407202989
v 0.02510480024 -0.04251875356 -0.0521122776
v 0.02558510005 -0.02836951613 0.06411796063
v 0.02614964917 -0.02870035544 -0.06411086023
v 0.02659501322 0.03146278486 -0.06401906163
v 0.02727916092 -0.01926199347 -0.06414783746
v 0.02758858167 -0.01619557664 0.0641522482
v 0.02773332968 0.0120090628 -0.06415452808
v 0.02861978859 -0.03090256639 0.06392927468
v 0.02882940695 0.1370000094 -0.01967914775
v 0.02889370546 0.01341367234 0.06415216625
v 0.02891506813 0.0259953998 0.06409674883
v 0.02891766652 0.02190817147 -0.06413160264
v 0.02893175557 -0.03107235767 -0.06386645883
v 0.029700974 0.1370000094 0.01775869541
v 0.0302390717 -0.01149386168 -0.06415112317
v 0.03064695373 0.00470318459 -0.06415330619
v 0.03065159544 -0.03255788237 -0.06231873482
v 0.03067962825 -0.03257741779 0.06227916479
v 0.03089931235 -0.006363705732 0.06415256858
v 0.03125009686 0.003688386641 0.06415237486
v 0.03144576773 -0.003364094999 -0.06415203214
v 0.03179608658 -0.02144925296 -0.06410574168
v 0.03185082227 -0.0335493274 -0.06033765525
v 0.031989526 -0.03356253728 0.06019147858
v 0.0320276767 0.1370000094 -0.01113532763
v 0.03231481835 0.024049256 -0.06403037161
v 0.03267134354 0.0280725453 0.06353789568
v 0.0327485688 0.1370000094 0.007926995866
v 0.03276971355 -0.01864626072 0.06411933154
v 0.03282049298 -0.03431997821 -0.0583306253
v 0.03310390562 -0.03434935585 0.05792259425
v 0.03339022398 0.1370000094 -0.001819396159
v 0.03359400854 0.01436476037 -0.06412747502
v 0.03361545131 -0.03491634503 -0.05627831817
v 0.03383488208 0.1336907744 -0.001807589782
v 0.03397422656 -0.03489082307 0.05571199954
v 0.03419604152 -0.03529277816 -0.05416531861
v 0.03431947902 0.0153302867 0.06411338598
v 0.03446407989 -0.03533890471 -0.05216204375
v 0.0345370397 -0.03508462757 0.0533413738
v 0.03503713384 0.02564203367 -0.06325472891
v 0.03523104265 -0.0231647566 -0.06386256218
v 0.03558114916 -0.0127664702 -0.06411714852
v 0.03635343164 0.005767771509 -0.06412440538
v 0.03657202423 -0.02038971893 0.06397231668
v 0.03667646274 -0.007409847807 0.06411840767
v 0.03679776192 0.01560958941 -0.06404969096
v 0.03706547245 0.004162702244 0.06411704421
v 0.03708891943 -0.003466688097 -0.06411666423
v 0.03739749268 -0.02423466928 -0.06247781217
v 0.03798016161 0.01653862 0.06399043649
v 0.03887626901 -0.02491990663 -0.06050245091
v 0.03909445181 -0.02149460465 0.06240481138
v 0.03935948387 -0.01372908708 -0.06398580223
v 0.03956784308 0.01666871458 -0.0636305809
v 0.03982419148 0.006347888149 -0.06405436993
v 0.04003589973 -0.02540970594 -0.0585106872
v 0.04061692953 -0.02211588249 0.06032816321
v 0.04081805795 -0.008156335913 0.0639950484
v 0.0408427082 -0.003585644532 -0.06401640177
v 0.04090127349 0.0172270108 0.06276584417
v 0.04099535942 -0.02578074858 -0.05643509328
v 0.04102865234 0.004429121967 0.06401119381
v 0.04153013602 0.01731713489 -0.06207753345
v 0.04165654629 -0.02596919052 -0.05433151498
v 0.04185789824 -0.02257125638 0.05816106498
v 0.04188947007 -0.01430830173 -0.0627412349
v 0.04198264331 -0.02593787387 -0.0523131676
v 0.04256083444 0.006867140532 -0.06354250014
v 0.04281319678 0.01743966155 0.06064000353
v 0.04283384234 -0.02286975272 0.05600931495
v 0.04310440272 0.01774561964 -0.06003663316
v 0.0434967503 -0.02296859212 0.0538183786
v 0.04354422167 -0.01462266874 -0.06078289077
v 0.04359194636 -0.003623299766 -0.0631518662
v 0.04360498488 -0.008579526097 0.06260195374
v 0.04375352338 -0.02280465141 0.05188082159
v 0.04398390651 0.004641529638 0.0627476275
v 0.0442699194 0.01756045222 0.05832575634
v 0.04427086562 0.01807218045 -0.05785866082
v 0.04451190308 0.007256932557 -0.06177509949
v 0.04485666007 -0.01484097913 -0.05877844244
v 0.04514216632 0.0183540266 -0.05582258478
v 0.04531631991 -0.008807893842 0.06043932214
v 0.04532329366 0.01763330214 0.05616048351
v 0.04543180764 -0.003590018954 -0.06126960739
v 0.04580937698 0.004760901444 0.06057815254
v 0.04591990262 -0.0149706034 -0.05671246722
v 0.04605082795 0.01763611287 0.05405663326
v 0.04605186358 0.007567267399 -0.05971420929
v 0.04664582014 -0.008951882832 0.05827958509
v 0.0467174463 -0.01499625575 -0.05469981581
v 0.04688126594 -0.00352497003 -0.05918664858
v 0.04706634954 -0.01487875823 -0.05266131833
v 0.04720603675 0.004855499603 0.05835079029
v 0.04723314568 0.007837011479 -0.05760071799
v 0.04766287282 -0.009005525149 0.05614402145
v 0.04798321053 -0.003422491718 -0.05711627752
v 0.04809939116 0.00807095319 -0.05555562302
v 0.04823885858 0.004974149168 0.05616261438
v 0.0483171083 -0.008966757916 0.05400140956
v 0.04854946211 -0.008831401356 0.05201683566
v 0.04855978861 0.008295523934 -0.05357604846
v 0.04867438227 0.008456018753 -0.05190886557
v 0.04879020154 -0.003275918774 -0.05511624366
v 0.04890876263 0.00504359277 0.05402869731
v 0.04911887646 0.005070665386 0.05200533196
v 0.04919622838 -0.003103568684 -0.05308222026
f 400 361 399
f 399 361 397
f 399 428 400
f 358 322 421
f 374 358 439
f 314 286 269
f 14 13 12
f 65 102 64
f 392 388 467
f 467 388 466
f 467 395 392
f 374 439 445
f 455 445 439
f 400 428 437
f 454 437 428
f 330 273 276
f 312 314 269
f 17 13 19
f 18 14 12
f 19 13 15
f 13 14 15
f 7 22 12
f 81 121 75
f 81 58 44
f 26 17 19
f 13 17 26
f 163 126 104
f 91 75 104
f 104 121 163
f 104 75 121
f 392 395 464
f 464 467 468
f 395 467 464
f 425 399 397
f 428 399 425
f 356 424 329
f 424 415 329
f 329 415 292
f 48 64 77
f 80 51 77
f 77 51 48
f 77 64 102
f 103 102 65
f 468 467 462
f 462 454 468
f 466 461 462
f 462 467 466
f 461 437 462
f 437 454 462
f 374 445 449
f 449 388 374
f 466 388 449
f 430 358 421
f 430 439 358
f 445 455 460
f 466 449 460
f 460 449 445
f 172 175 133
f 269 286 243
f 254 245 182
f 273 330 320
f 368 330 378
f 368 320 330
f 12 22 16
f 16 18 12
f 22 18 16
f 25 20 5
f 20 11 5
f 42 18 33
f 33 41 42
f 67 58 81
f 81 75 67
f 67 75 91
f 19 44 32
f 32 26 19
f 13 26 24
f 364 284 331
f 331 284 219
f 331 219 257
f 331 257 364
f 356 369 432
f 432 424 356
f 459 369 385
f 257 292 401
f 292 415 401
f 364 257 401
f 429 415 424
f 269 243 215
f 265 307 310
f 62 52 54
f 56 38 51
f 156 111 112
f 152 103 106
f 152 151 102
f 102 103 152
f 152 215 151
f 397 361 360
f 360 359 397
f 312 359 360
f 361 314 360
f 314 312 360
f 311 359 312
f 310 357 311
f 357 359 311
f 457 460 455
f 457 461 466
f 466 460 457
f 276 273 235
f 273 179 235
f 175 179 139
f 139 133 175
f 236 175 172
f 242 243 286
f 130 83 76
f 76 83 66
f 421 322 278
f 287 317 301
f 301 317 334
f 334 348 301
f 370 338 346
f 280 237 238
f 333 330 276
f 333 280 335
f 378 330 333
f 333 335 378
f 345 361 400
f 345 314 361
f 286 314 345
f 273 320 306
f 306 271 273
f 400 437 433
f 433 437 461
f 461 457 433
f 433 457 431
f 348 334 379
f 419 406 389
f 406 379 389
f 444 436 418
f 405 436 419
f 419 389 405
f 447 444 455
f 447 436 444
f 447 455 439
f 439 430 447
f 12 13 6
f 6 4 12
f 13 4 6
f 8 20 22
f 22 7 8
f 8 7 1
f 25 5 9
f 28 18 22
f 28 33 18
f 84 79 63
f 84 67 91
f 63 67 84
f 63 79 71
f 95 61 71
f 95 71 105
f 50 44 58
f 26 32 35
f 12 4 3
f 1 7 3
f 3 7 12
f 79 84 98
f 91 104 141
f 463 459 385
f 463 385 392
f 392 464 463
f 463 464 468
f 440 432 369
f 452 454 428
f 428 425 452
f 468 454 452
f 448 458 452
f 416 407 415
f 415 429 416
f 266 311 312
f 266 265 310
f 310 311 266
f 261 302 262
f 57 52 66
f 57 83 42
f 66 83 57
f 66 52 60
f 52 62 60
f 107 89 73
f 89 62 73
f 73 62 54
f 51 38 31
f 22 31 27
f 27 31 38
f 27 28 22
f 33 28 27
f 54 52 43
f 153 152 106
f 106 111 153
f 111 156 153
f 390 359 357
f 357 383 390
f 455 444 451
f 451 457 455
f 431 457 451
f 186 179 273
f 186 139 179
f 142 139 186
f 157 142 186
f 80 117 85
f 85 51 80
f 85 56 51
f 172 133 129
f 151 215 166
f 166 215 243
f 243 242 166
f 234 236 276
f 175 236 234
f 276 235 234
f 234 179 175
f 234 235 179
f 182 130 109
f 130 76 109
f 245 254 293
f 150 122 154
f 113 122 150
f 285 242 286
f 279 333 276
f 280 333 279
f 276 236 279
f 279 236 237
f 237 280 279
f 378 335 384
f 391 418 384
f 400 433 396
f 396 433 431
f 342 317 289
f 289 306 342
f 366 379 334
f 366 317 342
f 366 334 317
f 342 389 366
f 366 389 379
f 380 379 406
f 406 408 380
f 380 408 370
f 370 346 380
f 380 346 348
f 348 379 380
f 320 368 362
f 362 389 342
f 368 405 362
f 362 405 389
f 342 306 362
f 362 306 320
f 413 418 436
f 436 405 413
f 378 384 413
f 413 384 418
f 413 368 378
f 413 405 368
f 436 447 438
f 419 436 438
f 438 430 421
f 438 447 430
f 10 11 20
f 20 8 10
f 10 5 11
f 86 61 95
f 86 78 61
f 95 131 86
f 69 111 106
f 69 103 65
f 106 103 69
f 112 111 70
f 70 78 112
f 111 69 70
f 40 32 44
f 44 50 40
f 40 35 32
f 23 24 26
f 1 3 23
f 23 3 4
f 23 4 13
f 13 24 23
f 45 50 58
f 45 40 50
f 35 40 45
f 206 219 252
f 219 284 252
f 315 284 364
f 91 141 128
f 128 189 174
f 141 189 128
f 369 459 443
f 443 440 369
f 465 458 459
f 465 463 468
f 459 463 465
f 468 452 465
f 465 452 458
f 407 416 393
f 434 427 446
f 446 427 435
f 435 427 414
f 427 434 410
f 456 443 459
f 440 443 456
f 459 458 456
f 432 440 456
f 456 450 432
f 424 432 441
f 432 450 441
f 441 429 424
f 441 450 446
f 446 435 441
f 441 435 429
f 446 450 453
f 453 434 446
f 453 456 458
f 450 456 453
f 453 458 448
f 267 312 269
f 267 266 312
f 307 265 264
f 303 262 302
f 302 344 303
f 307 264 303
f 303 264 262
f 107 73 99
f 99 139 107
f 133 139 99
f 68 73 54
f 68 99 73
f 48 51 29
f 51 31 29
f 25 48 29
f 29 31 22
f 29 20 25
f 22 20 29
f 54 43 46
f 38 56 46
f 34 27 38
f 38 46 34
f 34 46 43
f 33 27 34
f 41 33 34
f 34 43 41
f 52 57 49
f 49 43 52
f 41 43 49
f 42 41 49
f 49 57 42
f 215 152 214
f 152 153 214
f 266 267 214
f 269 215 214
f 214 267 269
f 217 156 218
f 217 153 156
f 217 214 153
f 266 214 217
f 218 265 217
f 265 266 217
f 373 344 339
f 339 344 302
f 353 383 357
f 310 307 353
f 353 357 310
f 307 303 353
f 353 303 344
f 377 344 373
f 373 410 377
f 383 353 377
f 377 353 344
f 397 359 394
f 359 390 394
f 431 451 426
f 426 418 391
f 444 418 426
f 426 451 444
f 426 396 431
f 391 396 426
f 273 271 233
f 233 186 273
f 271 186 233
f 157 186 192
f 192 186 271
f 271 230 192
f 172 129 123
f 123 85 117
f 102 151 115
f 151 166 115
f 115 77 102
f 165 242 238
f 165 166 242
f 165 115 166
f 94 76 66
f 94 109 76
f 370 408 398
f 398 355 370
f 387 278 245
f 387 411 421
f 421 278 387
f 157 154 137
f 154 122 137
f 137 142 157
f 155 124 114
f 113 150 147
f 177 150 154
f 177 192 196
f 177 154 157
f 157 192 177
f 184 203 185
f 185 147 184
f 184 147 150
f 150 177 184
f 196 203 184
f 184 177 196
f 185 203 208
f 317 287 208
f 335 280 283
f 283 280 238
f 238 242 283
f 242 285 283
f 286 345 343
f 343 285 286
f 343 396 391
f 343 345 400
f 400 396 343
f 225 203 196
f 225 289 203
f 306 289 258
f 271 306 258
f 258 230 271
f 289 225 258
f 258 225 196
f 196 192 258
f 258 192 230
f 226 289 317
f 203 289 226
f 317 208 226
f 226 208 203
f 419 438 423
f 421 411 423
f 423 438 421
f 411 398 423
f 423 398 408
f 423 406 419
f 423 408 406
f 5 10 2
f 2 10 8
f 2 8 1
f 1 23 2
f 87 71 79
f 87 105 71
f 79 98 96
f 96 87 79
f 100 87 96
f 125 100 96
f 134 100 125
f 112 78 118
f 78 86 118
f 118 86 131
f 118 160 112
f 26 35 30
f 30 23 26
f 36 48 25
f 36 64 48
f 65 64 36
f 53 45 58
f 58 67 53
f 53 67 63
f 63 71 53
f 53 71 61
f 284 315 275
f 275 252 284
f 251 252 275
f 174 189 209
f 209 252 251
f 209 189 252
f 251 275 209
f 173 189 141
f 206 252 173
f 252 189 173
f 163 219 173
f 173 219 206
f 173 126 163
f 173 104 126
f 173 141 104
f 110 84 91
f 91 128 110
f 110 98 84
f 404 409 381
f 404 416 409
f 404 393 416
f 295 315 349
f 349 315 364
f 415 407 386
f 364 401 386
f 386 401 415
f 302 298 332
f 332 339 302
f 332 363 373
f 373 339 332
f 420 435 414
f 429 435 420
f 420 416 429
f 409 416 420
f 402 410 373
f 373 363 402
f 414 427 402
f 427 410 402
f 412 390 383
f 383 377 412
f 412 377 410
f 412 410 434
f 442 453 448
f 434 453 442
f 442 412 434
f 218 156 158
f 158 156 112
f 112 160 158
f 262 264 221
f 92 122 113
f 113 114 92
f 99 68 93
f 93 129 133
f 133 99 93
f 59 46 56
f 59 93 68
f 59 68 54
f 54 46 59
f 381 409 403
f 403 420 414
f 409 420 403
f 198 268 176
f 181 191 240
f 145 191 181
f 176 191 145
f 205 191 176
f 176 268 205
f 238 237 169
f 169 236 172
f 237 236 169
f 172 123 169
f 169 123 117
f 116 165 117
f 115 165 116
f 116 117 80
f 80 77 116
f 77 115 116
f 207 254 182
f 182 164 207
f 182 109 135
f 135 164 182
f 109 164 135
f 254 207 180
f 180 207 164
f 82 72 97
f 82 94 66
f 66 60 82
f 60 72 82
f 324 355 371
f 355 398 371
f 371 398 411
f 411 387 371
f 168 124 155
f 296 355 324
f 282 249 324
f 148 147 185
f 148 194 155
f 155 114 148
f 148 114 113
f 113 147 148
f 301 348 309
f 348 346 309
f 309 346 338
f 301 309 224
f 224 309 304
f 335 283 341
f 341 343 391
f 341 283 285
f 285 343 341
f 341 384 335
f 391 384 341
f 5 2 21
f 21 2 23
f 21 9 5
f 25 9 21
f 21 36 25
f 37 69 65
f 65 36 37
f 37 21 23
f 36 21 37
f 246 275 270
f 270 315 295
f 270 275 315
f 174 209 204
f 246 193 204
f 204 275 246
f 204 209 275
f 149 140 98
f 98 110 149
f 174 204 149
f 149 128 174
f 149 110 128
f 149 193 140
f 149 204 193
f 140 193 132
f 125 96 132
f 98 140 132
f 132 96 98
f 125 132 161
f 417 394 390
f 390 412 417
f 412 442 417
f 220 158 160
f 160 221 220
f 218 158 220
f 220 221 264
f 220 265 218
f 220 264 265
f 261 262 223
f 262 221 223
f 181 227 223
f 74 62 89
f 74 60 62
f 74 72 60
f 97 72 90
f 90 92 114
f 72 74 90
f 90 74 92
f 90 124 97
f 90 114 124
f 101 137 122
f 122 92 101
f 101 89 107
f 101 74 89
f 92 74 101
f 93 59 88
f 85 123 88
f 56 85 88
f 88 59 56
f 88 123 129
f 129 93 88
f 381 403 375
f 382 403 414
f 414 402 382
f 382 402 363
f 297 198 201
f 259 227 181
f 181 240 259
f 259 302 261
f 259 298 302
f 261 223 259
f 259 223 227
f 138 145 181
f 138 131 95
f 95 105 138
f 176 145 143
f 297 336 326
f 326 313 297
f 336 375 326
f 351 313 326
f 297 313 291
f 268 198 291
f 294 268 291
f 291 313 294
f 294 313 327
f 327 313 351
f 327 298 294
f 327 332 298
f 327 351 363
f 363 332 327
f 191 205 260
f 260 240 191
f 260 259 240
f 294 298 260
f 298 259 260
f 247 268 294
f 247 205 268
f 294 260 247
f 247 260 205
f 167 165 238
f 238 169 167
f 117 165 167
f 167 169 117
f 108 82 97
f 249 282 210
f 109 94 127
f 94 82 127
f 82 108 127
f 127 108 97
f 324 371 340
f 340 282 324
f 293 282 340
f 340 371 387
f 245 293 340
f 340 387 245
f 355 296 323
f 323 338 370
f 370 355 323
f 254 180 211
f 188 148 185
f 194 148 188
f 185 208 188
f 39 70 69
f 69 37 39
f 23 30 39
f 39 37 23
f 159 134 125
f 125 161 159
f 178 132 193
f 178 161 132
f 212 159 161
f 161 178 212
f 376 404 381
f 393 404 376
f 376 367 393
f 393 367 372
f 407 393 372
f 372 386 407
f 372 349 364
f 364 386 372
f 394 417 422
f 422 425 397
f 397 394 422
f 422 452 425
f 448 452 422
f 422 442 448
f 422 417 442
f 181 223 171
f 171 138 181
f 131 138 171
f 171 118 131
f 160 118 171
f 171 221 160
f 171 223 221
f 142 137 119
f 137 101 119
f 119 101 107
f 107 139 119
f 119 139 142
f 297 201 222
f 337 325 352
f 349 372 352
f 352 372 367
f 354 376 381
f 321 354 316
f 321 316 288
f 288 232 321
f 288 316 305
f 297 222 305
f 305 336 297
f 316 354 305
f 120 143 145
f 100 134 120
f 134 143 120
f 105 87 120
f 120 87 100
f 120 138 105
f 145 138 120
f 351 326 365
f 365 326 375
f 365 375 403
f 403 382 365
f 363 351 365
f 365 382 363
f 228 198 297
f 297 291 228
f 228 291 198
f 249 210 197
f 144 164 109
f 109 127 144
f 144 180 164
f 144 127 180
f 170 197 210
f 155 194 200
f 200 168 155
f 200 213 168
f 308 224 304
f 308 309 338
f 304 309 308
f 253 210 282
f 253 282 293
f 253 293 254
f 254 211 253
f 216 188 208
f 301 224 216
f 216 224 194
f 194 188 216
f 216 287 301
f 216 208 287
f 61 78 55
f 55 53 61
f 45 53 55
f 47 30 35
f 47 39 30
f 35 45 47
f 45 55 47
f 70 39 47
f 78 70 47
f 47 55 78
f 162 159 195
f 162 143 134
f 134 159 162
f 195 159 202
f 159 212 202
f 231 178 193
f 231 212 178
f 231 193 246
f 246 270 231
f 231 270 295
f 229 305 222
f 229 232 288
f 288 305 229
f 325 299 328
f 328 352 325
f 328 299 277
f 295 349 328
f 349 352 328
f 350 321 337
f 354 321 350
f 337 352 350
f 350 352 367
f 367 376 350
f 376 354 350
f 336 305 347
f 347 305 354
f 347 354 381
f 381 375 347
f 347 375 336
f 168 213 187
f 241 187 213
f 197 187 241
f 180 127 190
f 127 170 190
f 190 170 210
f 210 253 190
f 190 211 180
f 190 253 211
f 146 170 127
f 197 170 146
f 213 200 248
f 183 201 198
f 183 162 201
f 143 162 183
f 183 198 176
f 176 143 183
f 263 299 325
f 255 231 295
f 295 328 255
f 255 328 277
f 277 212 255
f 212 231 255
f 199 222 201
f 199 229 222
f 199 162 195
f 201 162 199
f 195 232 199
f 232 229 199
f 319 321 232
f 232 300 319
f 337 321 319
f 272 241 296
f 324 249 272
f 272 296 324
f 249 197 272
f 197 241 272
f 136 187 197
f 197 146 136
f 124 168 136
f 168 187 136
f 97 124 136
f 136 127 97
f 136 146 127
f 239 200 194
f 239 248 200
f 194 224 239
f 213 248 256
f 296 241 256
f 256 241 213
f 277 299 250
f 299 263 250
f 250 212 277
f 250 202 212
f 325 300 281
f 281 263 325
f 281 300 232
f 318 300 325
f 318 319 300
f 318 325 337
f 337 319 318
f 224 308 290
f 290 239 224
f 338 323 290
f 290 308 338
f 244 281 232
f 263 281 244
f 244 250 263
f 244 232 195
f 195 202 244
f 202 250 244
f 274 290 323
f 274 256 248
f 248 239 274
f 239 290 274
f 274 323 296
f 296 256 274
f 374 388 278
f 163 121 278
f 356 329 278
f 278 358 374
f 278 219 163
f 278 369 356
f 19 15 278
f 278 44 19
f 278 388 392
f 322 358 278
f 278 18 42
f 278 121 81
f 257 219 278
f 392 385 278
f 278 292 257
f 42 83 278
f 14 18 278
f 278 15 14
f 81 44 278
f 385 369 278
f 278 329 292
f 278 130 182
f 182 245 278
f 278 83 130
