v -0.05194483697 0.04580572993 0.1758282632
v -0.05194025859 0.0424763225 0.1761173308
v -0.05190524086 0.03527551889 0.1766745597
v -0.05186572298 0.02444540523 0.1773996651
v -0.05185193568 0.04707631841 0.1756798178
v -0.05184464157 0.01562196855 0.1778871715
v -0.05181402341 0.006076185964 0.1783412099
v -0.05177588388 -0.003813556163 0.1787638068
v -0.05169883743 -0.04778889567 0.1693186909
v -0.05169882998 -0.06230888143 0.1693186909
v -0.05167174339 -0.02376504615 0.1687395275
v -0.05164751783 -0.04508277774 0.1803204566
v -0.05164751038 -0.06229610369 0.1803204566
v -0.05158747733 -0.003692474449 0.1679943651
v -0.05152352527 0.006399595179 0.1675358862
v -0.05137005076 0.02544751205 0.1664055586
v -0.05120300502 0.03718561679 0.1653446704
v -0.05105428398 0.04385840893 0.1645323783
v -0.05099597573 0.04637518153 0.1642069072
v -0.0509323068 0.04748901725 0.1755919904
v -0.05083307251 0.04732765257 0.1641213596
v -0.05037244782 0.04689094797 0.1871599555
v -0.05036506429 0.0451923795 0.1872612834
v -0.05030716956 0.04097871855 0.1874969304
v -0.05020355433 0.03343564272 0.1879032105
v -0.05016372353 0.03044043854 0.1880568713
v -0.05007408932 0.02356297895 0.1883898377
v -0.04996568337 0.0152289141 0.1887524128
v -0.04985732213 0.005876033567 0.189121455
v -0.04975569248 -0.00389421056 0.1894759238
v -0.04965681955 -0.01359038707 0.1898060441
v -0.04956519976 -0.02267968468 0.1901052296
v -0.0495054163 0.04748727381 0.1868678778
v -0.04927610978 -0.04287169129 0.1910203248
v -0.04927610233 -0.06228565425 0.1910203248
v -0.04885000736 -0.06232057512 0.1566108465
v -0.04738282412 0.04698082432 0.1525207907
v -0.04670635611 0.04747525975 0.1526357085
v -0.04633858427 0.04668387771 0.1979341507
v -0.0462291725 0.04039978236 0.1981838495
v -0.04609091207 0.0326561518 0.1984733194
v -0.04591866955 0.02297495492 0.1988031268
v -0.04578515515 0.01480196603 0.1990543008
v -0.04564835504 0.005655035842 0.1993133426
v -0.04560910165 0.04748425633 0.1974847764
v -0.04551402107 -0.003955793101 0.19955948
v -0.04500211403 -0.04197286442 0.2004920244
v -0.04500210658 -0.06228141487 0.2004920244
v -0.04449227825 0.0003927630896 0.1010000035
v -0.04334525764 -0.0100429533 0.1010000035
v -0.04313083738 0.01090888679 0.1010000035
v -0.04102763534 -0.06232974306 0.1429101825
v -0.04091308638 0.04719667509 0.1410755217
v -0.04001779854 0.04665944353 0.2076102048
v -0.03999315202 0.04491909593 0.2076668143
v -0.03992947191 0.04034177214 0.2077517062
v -0.03985061869 -0.01978080347 0.1010000035
v -0.03978682309 0.03231141344 0.2079340965
v -0.0396165289 0.02255262621 0.208137095
v -0.03940900788 0.04748350754 0.2070197463
v -0.03935816139 0.005424472969 0.208436355
v -0.03924125805 -0.003986130934 0.2085743099
v -0.03922415525 0.02100253291 0.1010000035
v -0.03911615908 -0.04125458747 0.2087315023
v -0.03911615163 -0.06227802113 0.2087315023
v -0.03908139095 -0.02202193625 0.2087641507
v -0.03906860203 -0.03568344191 0.2087826133
v -0.03905847669 -0.0294115115 0.2087903619
v -0.03392707184 -0.02876891941 0.1010000035
v -0.03321110457 -0.062322326 0.1341565996
v -0.03230644763 0.03057973832 0.1010000035
v -0.03225386515 0.0549447909 0.1748938709
v -0.03175359964 0.04670570046 0.2155782878
v -0.03174300119 0.04511360079 0.215616405
v -0.03165683523 0.04054615274 0.215692997
v -0.03157279268 0.05494398251 0.1676206738
v -0.03152980655 0.03221361339 0.2157960385
v -0.03148657829 0.02918851376 0.2158294916
v -0.03145973757 0.04746485502 0.1316536218
v -0.03131234646 0.05494502559 0.182030946
v -0.03127419576 -0.04053197056 0.2160122097
v -0.03127419204 -0.0514032878 0.2160122097
v -0.03127418458 -0.06227460504 0.2160122097
v -0.03122834489 0.04748449475 0.2148827016
v -0.03121831454 0.005273374263 0.2160436064
v -0.03117366508 -0.03519201651 0.2160862088
v -0.03114757687 -0.003974670079 0.2161029875
v -0.03110763989 -0.02905210294 0.2161300778
v -0.03109966777 -0.01315755118 0.2161378413
v -0.03108229861 -0.02175904997 0.216148138
v -0.02910870127 0.05494469032 0.1603835374
v -0.0288300626 0.0549451448 0.1887485385
v -0.02515078895 -0.03668633103 0.1010000035
v -0.02490905114 0.0549451448 0.194772616
v -0.02467478439 0.05494499952 0.1535483599
v -0.02186586522 0.04667866975 0.2216145396
v -0.02184272557 0.0447207503 0.2216426432
v -0.02178848349 0.04003547877 0.2216741741
v -0.02171765268 0.03193352371 0.2217149734
v -0.0216986984 0.02892033011 0.2217259854
v -0.02167531848 -0.03988983482 0.221748814
v -0.02167531475 -0.05108070001 0.221748814
v -0.02167530917 -0.06227156147 0.221748814
v -0.02163111046 0.01415464655 0.2217611074
v -0.02160606906 0.005303095561 0.2217723727
v -0.02160160989 -0.02857529186 0.2217786908
v -0.0215866752 -0.003886776045 0.2217814624
v -0.02152390592 0.0474846065 0.2208691835
v -0.02140709013 0.03898859024 0.1010000035
v -0.01975334063 0.05494514853 0.1997775733
v -0.01853333786 0.05494215339 0.1479061693
v -0.01705331728 -0.06232294813 0.1249886975
v -0.01359036192 0.05494512245 0.2035282254
v -0.01327501144 0.04228713363 0.1010000035
v -0.0132354293 -0.04247237742 0.1010000035
v -0.01102602482 -0.02834758721 0.2252840996
v -0.01100836694 -0.003797250334 0.2252872288
v -0.0109950006 -0.03984915838 0.2252953649
v -0.01099499129 -0.06227137148 0.2252953649
v -0.01097424328 0.005367084406 0.2252959609
v -0.01081386674 0.02213952318 0.2253285646
v -0.01074645575 0.04642312974 0.2253242135
v -0.01072987914 0.04436473548 0.2253309786
v -0.01069467608 0.03970708326 0.2253451049
v -0.01069420204 0.03174448013 0.2253514826
v -0.01067830529 0.047477521 0.2245737463
v -0.0101865381 0.05494303256 0.1436992139
v -0.006738555618 0.0549450852 0.2058168501
v 3.430759534e-07 0.05494517088 0.2065482587
v 3.430759534e-07 0.0549451746 0.1419745684
v 3.457535058e-07 0.04749421775 0.2255175263
v 3.462191671e-07 0.04640401527 0.2264533639
v 3.470340744e-07 0.04439837113 0.2264555395
v 3.470340744e-07 0.04449633136 0.1010000035
v 3.818422556e-07 -0.03995727003 0.2264937162
v 3.837049007e-07 -0.04450110719 0.1010000035
v 3.911554813e-07 -0.06232522801 0.1224616021
v 3.911554813e-07 -0.0622718744 0.2264937162
v 0.006739242468 0.05494509265 0.2058168501
v 0.01018722169 0.05494304001 0.1436992139
v 0.01067899633 0.04747752845 0.2245737463
v 0.01069490612 0.03174448758 0.2253514826
v 0.01069537271 0.03970709071 0.2253451049
v 0.01073057204 0.04436474293 0.2253309786
v 0.01074714679 0.04642313719 0.2253242135
v 0.01081457827 0.02213953249 0.2253285646
v 0.01097496971 0.005367093254 0.2252959609
v 0.01099576429 -0.03984915093 0.2252953649
v 0.0109957736 -0.06227136403 0.2252953649
v 0.01100910082 -0.003797241021 0.2252872288
v 0.01102677919 -0.0283475779 0.2252840996
v 0.01323619485 -0.04247236624 0.1010000035
v 0.01327570621 0.04228714481 0.1010000035
v 0.01359104551 0.05494513363 0.2035282254
v 0.01705409959 -0.06232293323 0.1249886975
v 0.01853402704 0.0549421683 0.1479061693
v 0.01975402795 0.05494516343 0.1997775733
v 0.02140778676 0.03898860887 0.1010000035
v 0.0215245951 0.04748462513 0.2208691835
v 0.02158740908 -0.00388675835 0.2217814624
v 0.02160236239 -0.02857527509 0.2217786908
v 0.02160679549 0.005303113721 0.2217723727
v 0.02163182944 0.01415466424 0.2217611074
v 0.02167608216 -0.03988981619 0.221748814
v 0.02167609148 -0.06227154285 0.221748814
v 0.02169940621 0.02892034687 0.2217259854
v 0.02171835676 0.03193354234 0.2217149734
v 0.02178918011 0.0400354974 0.2216741741
v 0.02184341848 0.04472076893 0.2216426432
v 0.02186655812 0.04667868838 0.2216145396
v 0.02467547543 0.05494502187 0.1535483599
v 0.02490973845 0.05494516715 0.194772616
v 0.02515154891 -0.03668630868 0.1010000035
v 0.02883075178 0.05494516715 0.1887485385
v 0.02910938673 0.05494471267 0.1603835374
v 0.03108304739 -0.02175902389 0.216148138
v 0.03110040724 -0.0131575251 0.2161378413
v 0.03110839054 -0.02905207686 0.2161300778
v 0.03114830703 -0.003974644467 0.2161029875
v 0.03117442504 -0.03519199044 0.2160862088
v 0.03121903911 0.005273399875 0.2160436064
v 0.03122903779 0.04748452082 0.2148827016
v 0.03127495944 -0.04053194448 0.2160122097
v 0.0312749669 -0.05140326172 0.2160122097
v 0.03127497062 -0.06227457896 0.2160122097
v 0.03131303191 0.05494505167 0.182030946
v 0.03146043047 0.04746488109 0.1316536218
v 0.03148728237 0.02918853983 0.2158294916
v 0.03153051063 0.03221363947 0.2157960385
v 0.03157347813 0.05494400859 0.1676206738
v 0.03165753186 0.04054617882 0.215692997
v 0.0317436941 0.04511362687 0.215616405
v 0.03175429255 0.04670572653 0.2155782878
v 0.03225455061 0.05494481698 0.1748938709
v 0.03230715171 0.03057976626 0.1010000035
v 0.03321188688 -0.06232229993 0.1341565996
v 0.03392782435 -0.02876889147 0.1010000035
v 0.0390592292 -0.02941147983 0.2087903619
v 0.03906936198 -0.03568340838 0.2087826133
v 0.03908213601 -0.02202190459 0.2087641507
v 0.03911692649 -0.04125455394 0.2087315023
v 0.03911693394 -0.0622779876 0.2087315023
v 0.0392248705 0.02100256458 0.1010000035
v 0.03924198821 -0.003986098338 0.2085743099
v 0.0393588841 0.0054245051 0.208436355
v 0.03940970078 0.04748354107 0.2070197463
v 0.0396172367 0.02255265787 0.208137095
v 0.03978752345 0.03231144696 0.2079340965
v 0.03985136375 -0.01978077181 0.1010000035
v 0.03993017226 0.04034180567 0.2077517062
v 0.03999384493 0.04491912946 0.2076668143
v 0.04001849145 0.04665947706 0.2076102048
v 0.04091377929 0.04719670862 0.1410755217
v 0.04102841765 -0.06232970953 0.1429101825
v 0.04313156009 0.01090892218 0.1010000035
v 0.04334599525 -0.01004291791 0.1010000035
v 0.0444930084 0.0003927998769 0.1010000035
v 0.04500288144 -0.04197282717 0.2004920244
v 0.04500288889 -0.06228137761 0.2004920244
v 0.04551475123 -0.003955755383 0.19955948
v 0.04560979456 0.04748429358 0.1974847764
v 0.04564907774 0.005655073561 0.1993133426
v 0.0457858704 0.01480200421 0.1990543008
v 0.04591937736 0.02297499403 0.1988031268
v 0.04609161243 0.03265618905 0.1984733194
v 0.04622987285 0.04039981961 0.1981838495
v 0.04633927718 0.04668391496 0.1979341507
v 0.04670704901 0.047475297 0.1526357085
v 0.04738351703 0.04698086157 0.1525207907
v 0.04885078967 -0.06232053414 0.1566108465
v 0.04927687719 -0.04287165031 0.1910203248
v 0.04927688465 -0.06228561327 0.1910203248
v 0.04950610921 0.04748731479 0.1868678778
v 0.04956595227 -0.02267964371 0.1901052296
v 0.04965755716 -0.01359034609 0.1898060441
v 0.04975642264 -0.003894169582 0.1894759238
v 0.04985804483 0.005876075011 0.189121455
v 0.04996639863 0.01522895508 0.1887524128
v 0.05007479712 0.02356301993 0.1883898377
v 0.05016443133 0.03044048138 0.1880568713
v 0.05020425469 0.0334356837 0.1879032105
v 0.05030786246 0.04097875953 0.1874969304
v 0.0503657572 0.04519242048 0.1872612834
v 0.05037314072 0.04689098895 0.1871599555
v 0.05083376542 0.04732769355 0.1641213596
v 0.0509329997 0.04748905823 0.1755919904
v 0.05099666864 0.0463752225 0.1642069072
v 0.05105497688 0.04385844991 0.1645323783
v 0.05120370537 0.03718565777 0.1653446704
v 0.05137075856 0.02544755489 0.1664055586
v 0.05152424797 0.006399637554 0.1675358862
v 0.05158820748 -0.003692431608 0.1679943651
v 0.05164828524 -0.04508273304 0.1803204566
v 0.05164829269 -0.06229605898 0.1803204566
v 0.0516724959 -0.02376500331 0.1687395275
v 0.05169960484 -0.04778885096 0.1693186909
v 0.05169961229 -0.06230883673 0.1693186909
v 0.05177661404 -0.003813513322 0.1787638068
v 0.05181474611 0.006076228339 0.1783412099
v 0.05184535682 0.01562201139 0.1778871715
v 0.05185262859 0.04707636312 0.1756798178
v 0.05186643079 0.02444544807 0.1773996651
v 0.05190594122 0.0352755636 0.1766745597
v 0.0519409515 0.04247636721 0.1761173308
v 0.05194552988 0.04580577463 0.1758282632
f 125 138 135
f 134 130 140
f 130 171 140
f 135 138 142
f 5 19 1
f 74 65 83
f 95 79 53
f 134 140 156
f 156 140 171
f 49 50 10
f 10 2 1
f 10 65 48
f 83 65 10
f 175 213 171
f 171 194 175
f 135 142 133
f 133 125 135
f 170 141 145
f 145 141 132
f 1 19 18
f 18 19 49
f 19 5 21
f 132 123 124
f 124 133 132
f 125 133 124
f 122 123 132
f 48 55 47
f 22 33 5
f 22 5 1
f 1 2 22
f 20 33 72
f 5 33 20
f 72 21 20
f 20 21 5
f 53 79 109
f 109 71 53
f 53 38 91
f 91 95 53
f 72 95 91
f 127 130 134
f 127 95 130
f 171 213 187
f 187 156 171
f 49 10 11
f 36 10 50
f 230 138 36
f 83 10 36
f 130 95 92
f 92 129 130
f 174 171 130
f 130 129 174
f 166 145 147
f 159 141 170
f 170 193 159
f 170 145 169
f 132 133 143
f 143 133 142
f 212 193 211
f 207 202 208
f 49 16 17
f 17 18 49
f 17 16 1
f 1 18 17
f 97 122 96
f 96 74 97
f 108 96 126
f 126 96 122
f 126 122 132
f 55 44 46
f 46 47 55
f 46 44 48
f 48 47 46
f 40 41 55
f 55 41 42
f 48 44 42
f 42 41 48
f 3 22 2
f 23 22 6
f 54 40 55
f 85 87 97
f 75 74 83
f 97 74 75
f 89 101 97
f 97 87 89
f 58 74 55
f 74 62 66
f 119 103 83
f 119 36 138
f 83 36 119
f 138 125 119
f 125 118 119
f 114 109 79
f 71 63 37
f 37 38 53
f 53 71 37
f 37 21 38
f 49 19 51
f 19 21 51
f 21 37 51
f 51 37 63
f 76 21 72
f 72 91 76
f 38 21 76
f 76 91 38
f 79 95 111
f 95 127 111
f 111 114 79
f 134 114 111
f 111 127 134
f 213 175 228
f 228 229 213
f 13 10 48
f 2 10 13
f 13 6 2
f 27 26 13
f 24 23 13
f 28 27 30
f 14 11 1
f 49 11 14
f 9 10 1
f 1 11 9
f 9 11 10
f 229 215 203
f 247 261 265
f 69 70 52
f 246 233 261
f 194 233 246
f 265 261 244
f 261 233 244
f 244 233 221
f 80 95 72
f 80 92 95
f 72 33 80
f 129 92 110
f 186 194 171
f 171 174 186
f 186 233 194
f 221 233 186
f 186 174 221
f 206 193 212
f 221 174 206
f 146 143 142
f 146 147 145
f 166 147 163
f 200 207 204
f 254 232 219
f 260 259 254
f 219 232 225
f 129 141 139
f 167 145 166
f 168 169 145
f 145 167 168
f 144 145 132
f 132 143 144
f 144 146 145
f 143 146 144
f 208 202 210
f 210 211 208
f 210 202 219
f 219 211 210
f 204 207 205
f 24 13 25
f 25 13 26
f 131 141 129
f 129 126 131
f 132 141 131
f 131 126 132
f 43 44 55
f 55 42 43
f 43 42 44
f 8 23 7
f 23 6 7
f 6 13 7
f 22 3 4
f 4 6 22
f 4 3 2
f 2 6 4
f 55 74 73
f 73 54 55
f 74 96 73
f 73 96 108
f 60 54 73
f 40 54 39
f 39 30 34
f 39 22 23
f 39 54 60
f 39 23 24
f 39 27 28
f 24 25 39
f 39 26 27
f 39 25 26
f 78 85 97
f 83 103 88
f 56 58 55
f 65 58 56
f 56 55 48
f 48 65 56
f 65 74 67
f 59 66 62
f 74 58 59
f 59 58 65
f 98 122 97
f 98 99 122
f 97 101 98
f 101 99 98
f 101 104 100
f 100 99 101
f 122 99 100
f 106 104 101
f 106 119 118
f 103 119 106
f 120 100 104
f 122 100 120
f 190 175 194
f 190 228 175
f 12 23 8
f 12 13 23
f 8 7 12
f 12 7 13
f 35 13 48
f 48 41 35
f 27 13 35
f 35 30 27
f 41 40 35
f 35 39 34
f 40 39 35
f 32 35 34
f 1 16 15
f 15 14 1
f 15 16 49
f 49 14 15
f 209 216 230
f 215 247 217
f 158 187 213
f 261 247 245
f 245 246 261
f 229 228 245
f 228 190 245
f 245 215 229
f 245 247 215
f 194 246 245
f 245 190 194
f 70 69 93
f 57 69 52
f 52 36 57
f 57 36 50
f 112 93 115
f 70 93 112
f 52 70 112
f 214 36 52
f 230 36 214
f 197 209 214
f 214 209 230
f 262 244 260
f 263 244 262
f 227 244 221
f 227 206 212
f 221 206 227
f 232 231 227
f 113 110 108
f 129 110 113
f 108 126 113
f 94 92 60
f 60 110 94
f 94 110 92
f 161 163 160
f 160 151 161
f 150 151 160
f 147 150 160
f 202 207 201
f 207 200 201
f 253 254 259
f 259 258 253
f 216 217 257
f 230 216 257
f 257 185 230
f 202 185 257
f 219 202 257
f 257 254 219
f 260 254 264
f 264 257 265
f 254 257 264
f 265 244 264
f 264 244 263
f 264 262 260
f 263 262 264
f 226 225 232
f 232 227 226
f 226 227 212
f 212 211 226
f 211 225 226
f 218 211 219
f 192 185 202
f 192 200 204
f 204 205 192
f 192 193 170
f 170 169 192
f 192 205 207
f 192 207 208
f 208 211 192
f 192 211 193
f 149 142 138
f 149 138 230
f 230 185 149
f 108 110 84
f 84 73 108
f 84 110 60
f 60 73 84
f 28 30 29
f 29 39 28
f 30 39 29
f 33 22 45
f 22 39 45
f 45 80 33
f 92 80 45
f 60 92 45
f 45 39 60
f 82 75 83
f 82 81 75
f 75 81 77
f 97 75 77
f 77 78 97
f 77 81 87
f 87 85 77
f 85 78 77
f 83 88 86
f 86 82 83
f 81 82 86
f 86 89 87
f 87 81 86
f 103 89 90
f 90 88 103
f 89 86 90
f 90 86 88
f 61 62 74
f 74 59 61
f 61 59 62
f 74 66 68
f 68 67 74
f 66 67 68
f 64 67 66
f 66 59 64
f 65 67 64
f 64 59 65
f 102 106 101
f 103 106 102
f 101 89 102
f 102 89 103
f 105 120 104
f 120 105 107
f 104 106 107
f 107 105 104
f 123 122 121
f 122 120 121
f 121 124 123
f 125 124 121
f 121 118 125
f 121 120 118
f 34 30 31
f 31 32 34
f 30 35 31
f 35 32 31
f 251 217 250
f 265 251 250
f 217 249 250
f 250 249 265
f 195 158 213
f 213 229 195
f 229 203 195
f 187 158 153
f 134 156 153
f 156 187 153
f 248 247 265
f 265 249 248
f 248 217 247
f 248 249 217
f 197 214 196
f 196 214 155
f 155 214 137
f 52 112 137
f 137 214 52
f 244 227 243
f 254 253 243
f 243 253 258
f 243 258 259
f 243 259 260
f 260 244 243
f 239 227 238
f 232 254 239
f 128 126 129
f 129 113 128
f 128 113 126
f 172 206 174
f 172 157 206
f 172 174 129
f 129 157 172
f 193 206 182
f 206 157 182
f 182 159 193
f 182 157 159
f 129 139 154
f 154 157 129
f 159 157 154
f 141 159 154
f 154 139 141
f 161 151 148
f 148 151 150
f 148 150 147
f 147 146 148
f 148 146 142
f 162 163 147
f 147 160 162
f 162 160 163
f 185 178 165
f 165 149 185
f 165 178 176
f 161 149 165
f 176 177 165
f 234 231 232
f 232 235 234
f 234 235 231
f 238 227 237
f 179 169 177
f 179 181 169
f 189 181 179
f 188 189 169
f 169 181 188
f 188 181 189
f 185 192 191
f 169 189 191
f 191 192 169
f 199 192 202
f 202 201 199
f 199 201 200
f 118 120 117
f 120 107 117
f 197 196 173
f 155 152 173
f 173 196 155
f 136 112 115
f 136 137 112
f 136 152 155
f 155 137 136
f 242 227 241
f 242 243 227
f 242 241 254
f 254 243 242
f 241 227 240
f 227 239 240
f 254 241 240
f 240 239 254
f 236 235 232
f 232 239 236
f 236 237 227
f 236 239 238
f 238 237 236
f 236 227 231
f 231 235 236
f 177 169 164
f 164 165 177
f 169 168 164
f 164 167 166
f 164 168 167
f 166 163 164
f 164 163 161
f 161 165 164
f 265 257 256
f 255 257 217
f 255 256 257
f 265 256 255
f 224 225 211
f 219 225 224
f 224 222 219
f 211 218 220
f 220 222 211
f 220 218 219
f 219 222 220
f 180 179 177
f 180 178 185
f 180 177 176
f 176 178 180
f 189 179 183
f 183 191 189
f 179 180 183
f 200 192 198
f 198 199 200
f 192 199 198
f 118 117 116
f 116 117 107
f 116 106 118
f 116 107 106
f 252 217 251
f 252 255 217
f 252 251 265
f 265 255 252
f 211 222 223
f 223 224 211
f 222 224 223
f 185 191 184
f 191 183 184
f 184 180 185
f 184 183 180
f 148 149 161
f 142 149 148
f 136 50 49
f 136 114 134
f 215 217 136
f 115 93 136
f 71 109 136
f 136 63 71
f 49 51 136
f 136 57 50
f 109 114 136
f 136 51 63
f 136 209 197
f 136 203 215
f 136 195 203
f 216 209 136
f 136 217 216
f 134 153 136
f 136 93 69
f 69 57 136
f 197 173 136
f 158 195 136
f 136 153 158
f 136 173 152
