v -0.3743202388 -3.07793897e-08 0.1889225245
v -0.374158442 -4.559646882e-08 0.2186211497
v -0.3735380173 -0.02979317494 0.1888214648
v -0.3735380173 0.02979311161 0.1888214648
v -0.3734203577 -2.709904301e-08 0.1663327366
v -0.3732852042 -0.03185851499 0.2189627141
v -0.3732852042 0.03185841814 0.2189627141
v -0.3729910851 -2.591056969e-08 0.1590379328
v -0.3728137016 -0.02768307738 0.1664387733
v -0.3728137016 0.0276830215 0.1664387733
v -0.3725968599 -4.909049522e-08 0.2394582629
v -0.3719206154 -0.02825918235 0.1586647779
v -0.3719205856 0.02825913206 0.1586647779
v -0.3717785776 -0.03181422129 0.2390872985
v -0.3717785776 0.03181412444 0.2390872985
v -0.3717730343 -5.017179561e-08 0.2459085584
v -0.3711861968 -0.06237252057 0.1887564212
v -0.3711861968 0.06237246096 0.188756451
v -0.3710500598 -0.06441871077 0.1947725266
v -0.3710500598 -0.06441871077 0.1947725415
v -0.3710500598 0.06441865116 0.1947725713
v -0.3708155155 -2.334812876e-08 0.143309772
v -0.3707497418 -0.03178469092 0.2459370196
v -0.3707497418 0.03178458661 0.2459370196
v -0.370706439 -0.06436230242 0.2185268253
v -0.370706439 0.06436221302 0.2185268551
v -0.3703948557 -0.007596612442 0.1412631273
v -0.3703484535 0.007595569827 0.1412694603
v -0.370313704 -0.06250077486 0.1668923497
v -0.370313704 0.06250071526 0.1668923795
v -0.3702724278 -0.06995159388 0.1849395484
v -0.3702724278 0.06995153427 0.1849395782
v -0.3698137701 -0.07182333618 0.1776393205
v -0.3698137701 0.07182327658 0.1776393503
v -0.3697762191 0.06901067495 0.169551447
v -0.3697742224 -0.06901054084 0.1695515066
v -0.3695620894 -0.06257434934 0.1592639387
v -0.3695620894 0.06257430464 0.1592639685
v -0.36939013 0.01245497074 0.1362083554
v -0.3693796098 -0.01246136427 0.1362136304
v -0.3692943156 -0.06299252808 0.2389754802
v -0.3692943156 0.06299243867 0.23897551
v -0.3682389259 -0.06269437075 0.2464251071
v -0.3682389259 0.06269428134 0.2464251369
v -0.36801669 -0.01477222051 0.1293355078
v -0.3680160046 0.01477199234 0.1293355823
v -0.3672295809 -0.02991034649 0.1297997534
v -0.3672295809 0.02991030551 0.1297997534
v -0.3671576083 -0.09435970336 0.1947477013
v -0.3671576083 0.09435964376 0.1947477311
v -0.3666634262 -0.09477178752 0.2183429003
v -0.3666634262 0.09477169812 0.2183429301
v -0.365904808 -0.01514735632 0.1191056892
v -0.365904808 0.0151473172 0.1191056892
v -0.3652133346 -0.09732111543 0.1586276889
v -0.3652133346 0.09732107073 0.1586277187
v -0.3652053475 -0.0936203599 0.2389587015
v -0.3652053475 0.09362027049 0.2389587313
v -0.3646802306 0.06239628047 0.1298451871
v -0.3645663857 -0.06238964573 0.1298739612
v -0.3642451763 -0.09324292839 0.2468378246
v -0.3642451763 0.09324283898 0.2468378544
v -0.3642129302 -0.1112585738 0.1943589449
v -0.3642129302 0.1112585142 0.1943589896
v -0.3641863763 -0.1106446609 0.1850553304
v -0.3641856909 0.110644415 0.1850553602
v -0.3636743724 -0.112000972 0.1765034795
v -0.363673985 0.1120008528 0.1765035391
v -0.3626876473 -0.1156419218 0.1695032716
v -0.3626876473 0.1156418622 0.1695033014
v -0.3621385098 -1.654483661e-08 0.101551488
v -0.3619954884 -0.01202063076 0.1014588028
v -0.3619954884 0.01202063076 0.1014588028
v -0.3618894815 -0.01600945741 0.1014500484
v -0.3618894815 0.01600942388 0.1014500484
v -0.3618096709 0 0.1002287045
v -0.3617092967 -0.01047623251 0.1001859456
v -0.3617092967 0.01047623251 0.1001859456
v -0.3615601659 -0.1234967336 0.2079313546
v -0.3615539074 0.1234952435 0.2079313546
v -0.3614320755 0.02920063026 0.1016046777
v -0.3614289463 -0.02920054831 0.1016054004
v -0.3614000976 -0.1207817867 0.1642914116
v -0.3614000976 0.1207817271 0.1642914414
v -0.3607766628 -0.1251189858 0.2186062634
v -0.3607766628 0.1251188964 0.2186062932
v -0.36051476 -0.1123927087 0.2484242618
v -0.36051476 0.1123926193 0.2484242916
v -0.3601287603 -0.09634887427 0.129480049
v -0.3601287603 0.09634882957 0.1294800788
v -0.3594601154 -0.1234764457 0.2384112328
v -0.3594601154 0.1234763563 0.2384112626
v -0.3590020239 -0.1338829696 0.2110458165
v -0.3590020239 0.13388291 0.2110458463
v -0.3589917421 -0.1293996274 0.1585712284
v -0.3589917421 0.1293995678 0.1585712582
v -0.3588023186 0.06249614805 0.1013036445
v -0.3588016927 -0.06249610707 0.1013037711
v -0.358255595 0 0.0864970237
v -0.3581520021 -0.01206014957 0.08666555583
v -0.3581520021 0.01206014957 0.08666555583
v -0.3575734198 -0.02881920338 0.08682019264
v -0.3575734198 0.02881920338 0.08682019264
v -0.3572355509 -0.1245455444 0.2520619631
v -0.3572355509 0.1245454401 0.2520620227
v -0.3563836515 -0.07717417181 0.09927397221
v -0.3552877903 -0.06051994115 0.08718977123
v -0.3552877903 0.06051994115 0.08718977123
v -0.3546490967 -0.01187958848 0.07335548848
v -0.3546490967 0.01187958848 0.07335548848
v -0.3544895053 0.09333662689 0.1005463302
v -0.3544844091 -0.09333600849 0.1005475745
v -0.3542060852 -0.1263304204 0.1292264462
v -0.3542060852 0.1263303906 0.129226476
v -0.3542007506 -0.1322361827 0.2580310404
v -0.3542007506 0.1322360635 0.2580311
v -0.3541368544 -0.02796889283 0.07353694737
v -0.3541368544 0.02796889283 0.07353694737
v -0.3539656103 -0.09185222536 0.09724418819
v -0.3539656103 0.09185219556 0.09724421799
v -0.353764385 -0.07222059369 0.08632919192
v -0.353764385 0.07222059369 0.08632919192
v -0.3528802991 -0.1539835483 0.2186712921
v -0.3528802991 0.1539834589 0.2186713517
v -0.352815181 -0.1553059965 0.2112141401
v -0.352815181 0.1553059369 0.2112141997
v -0.352815181 0.1553059369 0.2112142146
v -0.3524158001 -0.07782944292 0.08406321704
v -0.3524158001 0.07782944292 0.08406321704
v -0.351854682 -0.05747189373 0.07308717072
v -0.351854682 0.05747189373 0.07308717072
v -0.3516207039 -0.1517941803 0.2394010425
v -0.3516207039 0.1517940611 0.2394011021
v -0.3509792984 -0.1592016518 0.1585689783
v -0.3509792984 0.1592015922 0.1585690379
v -0.3508934677 -0.06355982274 0.07195288688
v -0.3508934677 0.06355982274 0.07195288688
v -0.3508244753 -0.09915307164 0.08979957551
v -0.3508244753 0.09915307164 0.08979957551
v -0.3503056169 -0.08435929567 0.07969379425
v -0.3503056169 0.08435929567 0.07969379425
v -0.3493394256 -0.06745140254 0.06814355403
v -0.3493394256 0.06745140254 0.06814355403
v -0.3490057588 -0.1498246491 0.2583172619
v -0.3490057588 0.1498245299 0.2583173215
v -0.3488017619 -0.1669855565 0.209417969
v -0.3488017619 -0.1669855565 0.2094179839
v -0.3488017619 0.1669854969 0.2094180435
v -0.3484704494 -0.1225980073 0.1002697721
v -0.3484704494 0.1225979775 0.1002698168
v -0.3482089341 -0.1406622976 0.2728555501
v -0.3482089341 0.1406621784 0.2728556097
v -0.3481412828 -0.08802264929 0.07367427647
v -0.3481412828 0.08802264929 0.07367427647
v -0.3477117121 -0.06784651428 0.06287403405
v -0.3477117121 0.06784651428 0.06287403405
v -0.3471737504 -0.17069529 0.1626697034
v -0.3471737504 0.1706952304 0.162669763
v -0.3468509018 -0.1047441885 0.07903052866
v -0.3468509018 0.1047441885 0.07903052866
v -0.3462831974 -0.1557869911 0.1288537234
v -0.3462831974 0.1557869613 0.128853783
v -0.345861882 -0.1747218966 0.2008891106
v -0.345861882 0.174721837 0.2008891702
v -0.3454809189 -0.08891003579 0.0654636696
v -0.3454809189 0.08891003579 0.0654636696
v -0.3449361622 -0.1771496236 0.2040164322
v -0.3449361622 0.177149564 0.2040164918
v -0.3443953693 -0.1782151461 0.1676615924
v -0.3443953693 0.1782150865 0.167661652
v -0.3441442847 -0.17907691 0.1773628145
v -0.3441292346 0.1790709794 0.1773630828
v -0.3439542949 0.1797242165 0.1930941492
v -0.3431917727 0.1815788001 0.1852664798
v -0.3431912661 -0.1815786511 0.1852664202
v -0.3429412842 -0.1090848446 0.0685942024
v -0.3429412842 0.1090848446 0.0685942024
v -0.3427445889 -0.1825007349 0.1761945188
v -0.3427445889 0.1825006753 0.1761945784
v -0.3425517082 -0.1449703723 0.2828595936
v -0.3425517082 0.1449702531 0.2828596532
v -0.3424573541 -0.1810442954 0.2184862942
v -0.3424573541 0.181044206 0.2184863836
v -0.342397213 0.1834174097 0.194672823
v -0.3423957825 -0.1834168434 0.1946727335
v -0.3423957825 -0.1834168434 0.1946727633
v -0.3422259688 -0.1823136955 0.158281669
v -0.3422259688 0.1823136359 0.1582817286
v -0.3417443037 0.1849185377 0.1847796887
v -0.3417173922 -0.1849059016 0.1847801805
v -0.3413288295 -0.1784500927 0.2393589914
v -0.3413288295 0.1784499735 0.2393590808
v -0.3404493332 -0.1521349698 0.1002606824
v -0.3404493332 0.15213494 0.1002607271
v -0.3403975368 -0.1207502484 0.06904096156
v -0.3403975368 0.1207502186 0.06904100627
v -0.3389909267 -0.06466676295 0.03509873524
v -0.3389909267 0.06466676295 0.03509873524
v -0.3388177752 -0.1764267236 0.2578381002
v -0.3388177752 0.1764266044 0.2578381598
v -0.3370727301 -0.1808748245 0.1295292079
v -0.3370727301 0.1808747947 0.1295292675
v -0.3359971941 -0.1734602153 0.2730787992
v -0.3359971941 0.1734600961 0.2730788589
v -0.3359519839 0 0.01645109802
v -0.3358682394 -0.01093412563 0.01637315005
v -0.3358682394 0.01093412563 0.01637315005
v -0.3355979323 -0.1477273405 0.2899492383
v -0.3355979323 0.1477272213 0.2899492979
v -0.335411787 -0.08861560374 0.03477919102
v -0.335411787 0.08861560374 0.03477919102
v -0.3354079425 -0.06286646426 0.02440660633
v -0.3354079425 0.06286646426 0.02440660633
v -0.3352812231 -0.02803652547 0.01646326855
v -0.3352812231 0.02803652547 0.01646326855
v -0.3341626525 -0.0615356788 0.02063730918
v -0.3341626525 0.0615356788 0.02063730918
v -0.3336061835 -0.05317220464 0.016803151
v -0.3336061835 0.05317220464 0.016803151
v -0.333496958 -0.0572976172 0.01762685739
v -0.333496958 0.0572976172 0.01762685739
v -0.3324743509 -0.148343876 0.06836572289
v -0.3324743509 0.1483438462 0.0683657676
v -0.3323333561 -0.1713467389 0.2828426957
v -0.3323333561 0.1713466197 0.2828427553
v -0.3300945759 -0.1791051179 0.1000988707
v -0.3300945759 0.1791050881 0.1000989303
v -0.3292027116 0.2074649632 0.1580206305
v -0.3292026222 -0.2074649632 0.1580205858
v -0.3291777968 -0.1209773198 0.03498833254
v -0.3291777968 0.1209773123 0.03498833254
v -0.3291620612 0.207871899 0.1942897588
v -0.3291406333 -0.2078599036 0.1942896545
v -0.3290370107 0 -0.001389129087
v -0.328886658 -0.01067056321 -0.001422496396
v -0.328886658 0.01067056321 -0.001422496396
v -0.3287364244 -0.2063467503 0.2182391137
v -0.3287364244 0.2063466609 0.2182392031
v -0.3282680809 -0.02841644175 -0.001359757734
v -0.3282680809 0.02841644175 -0.001359757734
v -0.3275089562 -0.2040270865 0.2390570194
v -0.3275089562 0.2040269673 0.2390571088
v -0.3272185922 -0.1697149128 0.2891070843
v -0.3272185922 0.1697147936 0.2891071439
v -0.3265089691 -0.1501850337 0.2962498963
v -0.3265089691 0.1501849145 0.2962499559
v -0.3260261118 -0.05690527335 -0.001284688711
v -0.3260261118 0.05690527335 -0.001284688711
v -0.3257359862 0 -0.00171597302
v -0.3254480064 -0.01071162522 -0.001715334016
v -0.3254480064 0.01071162522 -0.001715334016
v -0.3252946436 -0.201402992 0.2573080361
v -0.3252946436 0.2014028728 0.2573080957
v -0.3248860836 -0.02825028077 -0.001714293845
v -0.3248860836 0.02825028077 -0.001714293845
v -0.3239203393 0.1677112281 0.2925414145
v -0.3238931894 -0.2059313208 0.129074201
v -0.3238931894 0.205931291 0.1290742606
v -0.3233264685 -0.1413286328 0.03500431776
v -0.3233264685 0.1413286328 0.03500436246
v -0.3227627277 -0.198172316 0.2723978758
v -0.3227627277 0.1981721967 0.2723979354
v -0.32254228 -0.05633315444 -0.001711914199
v -0.32254228 0.05633315444 -0.001711914199
v -0.3217430413 -0.08885703981 -0.001101477072
v -0.3217430413 0.08885703981 -0.001101477072
v -0.3203350604 -0.176907137 0.06596378982
v -0.3203350604 0.1769071072 0.06596384943
v -0.3194748163 0.1656626612 0.2961049378
v -0.3192833662 -0.1947488785 0.2833403647
v -0.3192833662 0.1947487593 0.2833404243
v -0.3183172345 -0.0884911567 -0.00170694245
v -0.3183172345 0.0884911567 -0.00170694245
v -0.3167333305 -0.2032919079 0.09820576012
v -0.3167333305 0.2032918781 0.09820581973
v -0.3149467111 -0.1627623737 0.03419530764
v -0.3149467111 0.1627623737 0.0341953598
v -0.3146476746 0.1905780584 0.2898850143
v -0.3123626709 0.2306244075 0.1943548918
v -0.3122567832 -0.2305359244 0.1943482012
v -0.3117661476 -0.1317590028 -0.0007665968151
v -0.3117661476 0.1317590028 -0.0007665967569
v -0.3115456104 -0.2319944054 0.1572040468
v -0.3115455508 0.2319943011 0.1572041214
v -0.3111302257 -0.2297544181 0.2186277956
v -0.3111302257 0.2297543287 0.2186279148
v -0.310272336 0.1852701753 0.2943086028
v -0.3098785877 -0.2273642123 0.239185974
v -0.3098785877 0.2273640931 0.2391860634
v -0.3086364269 -0.2209311277 0.1116494313
v -0.3086364269 0.2209310979 0.1116495058
v -0.3079945147 -0.2241124362 0.2576506138
v -0.3079945147 0.224112317 0.2576506734
v -0.3072456717 -0.2290504426 0.1286260188
v -0.3072456717 0.2290504128 0.1286261082
v -0.3068791032 0.177059114 0.2984710634
v -0.3068175018 0.1641178727 0.3018015027
v -0.3058170974 -0.2203624696 0.2728744447
v -0.3058170974 0.2203623503 0.2728745043
v -0.3051926196 0.1535384357 0.304903537
v -0.304485172 -0.1525822878 -0.001503224252
v -0.304485172 0.1525822878 -0.001503174426
v -0.3027081192 -0.2158813924 0.28411448
v -0.3027081192 0.2158812732 0.2841145396
v -0.300057292 -0.2336661071 0.1182439998
v -0.300057292 0.2336660773 0.1182440743
v -0.2980179191 0.2098554373 0.2906580865
v -0.2934502661 0.201593399 0.2954402268
v -0.2913043499 -0.2524190247 0.1567043513
v -0.2913043499 0.2524189651 0.1567044407
v -0.2907669544 -0.2520190477 0.1941208243
v -0.2906740606 0.2519033253 0.1941163391
v -0.2901416719 -0.2504093051 0.2179308832
v -0.2901416719 0.2504092455 0.2179310024
v -0.2897407115 0.1892464757 0.3002183139
v -0.2889229655 -0.2477312088 0.2393957675
v -0.2889229655 0.2477310896 0.2393958867
v -0.2880106568 0.1553932875 0.3084512055
v -0.2878906727 0.1731049269 0.3044163287
v -0.2876623869 -0.2491986305 0.1282339543
v -0.2876623869 0.2491986006 0.1282340437
v -0.2872456014 -0.2442301661 0.2577984333
v -0.2872456014 0.2442300469 0.2577984929
v -0.2859809995 -0.2491001636 0.1226974502
v -0.2859809995 0.2491001338 0.1226975247
v -0.2852898836 -0.2402664572 0.2731342912
v -0.2852898836 0.240266338 0.2731343508
v -0.2821744382 0.2349798232 0.2845829129
v -0.277518332 0.227367416 0.2910312414
v -0.2725231051 0.2158808559 0.2964551151
v -0.2683785856 0.1998523027 0.3017800748
v -0.2683427334 -0.2256193608 0.3147284687
v -0.2667264938 -0.2707797587 0.1558896154
v -0.2667264938 0.2707796991 0.1558897048
v -0.2664728165 -0.2699767351 0.1943485737
v -0.266421169 0.269897908 0.1943441778
v -0.2661545277 -0.2679699063 0.2177064121
v -0.2661545277 0.2679698467 0.2177065313
v -0.2651239038 -0.2650429308 0.2393438369
v -0.2651239038 0.2650428712 0.2393439561
v -0.2651230991 0.1791187525 0.306810528
v -0.2637435496 -0.2673192322 0.1270976216
v -0.2637435496 0.2673191726 0.127097711
v -0.2636899948 0.156535238 0.3119234145
v -0.2636205852 -0.2612036765 0.2583915293
v -0.2636205852 0.2612036169 0.2583915889
v -0.2629119456 -0.2672712207 0.1248106658
v -0.2629119456 0.2672711611 0.1248107553
v -0.2617790699 -0.2570087314 0.2739699781
v -0.2617790699 0.2570086718 0.2739700377
v -0.2615676224 -0.2333178669 0.3150996566
v -0.2588303685 0.2514405847 0.2849366069
v -0.2546285391 0.2433634996 0.2908214331
v -0.2523132861 -0.2372496426 0.3173067272
v -0.2493841797 0.2291911989 0.2967746854
v -0.2492405027 -0.2077170014 0.3426719904
v -0.2455870062 -0.2010779977 0.3466880023
v -0.2446359992 -0.2046789974 0.3468550146
v -0.2446359992 -0.1974759996 0.3468550146
v -0.2444539964 -0.2125770003 0.3435155153
v -0.2444107533 0.2090086937 0.3031301498
v -0.242038995 -0.2073159963 0.3473129869
v -0.242038995 -0.1948390007 0.3473129869
v -0.24002105 0.1842917502 0.3090494275
v -0.2399686277 -0.2853144705 0.1549944282
v -0.2399686277 0.2853144109 0.1549945176
v -0.2395963371 -0.2844297588 0.1944865137
v -0.2395963222 0.2844296694 0.1944865882
v -0.2387619168 -0.2827068865 0.2170959115
v -0.2387619168 0.2827068269 0.2170960307
v -0.2384919971 -0.2082809955 0.3479390144
v -0.2384919971 -0.1938740015 0.3479390144
v -0.2384314835 -0.2384003848 0.3198074996
v -0.238052249 -0.2796014845 0.2384609282
v -0.238052249 0.2796014249 0.2384610474
v -0.2379154861 -0.2143560052 0.3446685076
v -0.2375659049 -0.2817279994 0.1250201911
v -0.2375659049 0.2817279398 0.1250202805
v -0.2371477634 -0.2754606903 0.2577332556
v -0.2371477634 0.2754606307 0.2577333748
v -0.2358687073 0.1570558101 0.3149793446
v -0.2357610315 -0.2709352374 0.2738205194
v -0.2357610315 0.2709351778 0.2738205791
v -0.2349449992 -0.2073159963 0.3485639989
v -0.2349449992 -0.1948390007 0.3485639989
v -0.2333637625 0.2645046711 0.2854546309
v -0.2323489934 -0.2046789974 0.349022001
v -0.2323489934 -0.1974759996 0.349022001
v -0.2313980013 -0.2010779977 0.3491899967
v -0.2313774973 -0.2125770003 0.3458214998
v -0.229665786 0.2546152472 0.2913668752
v -0.2256993651 -0.2911170721 0.1822829545
v -0.2256993651 0.2911170125 0.1822830439
v -0.2247132659 0.2374442518 0.2977004349
v -0.2236600667 -0.2923095226 0.1719777286
v -0.2236585617 0.2923055887 0.1719777435
v -0.2230715156 0.2913746238 0.1946785152
v -0.2230714709 -0.2913746834 0.1946784258
v -0.2197826952 0.2146583498 0.3045874834
v -0.2196769118 -0.2385745198 0.3231943548
v -0.2195031196 -0.2926906049 0.1923668236
v -0.2195031196 0.2926905453 0.192366913
v -0.2184143811 0.2944327295 0.1643465757
v -0.2184126079 -0.2944265306 0.1643459201
v -0.215298757 0.1875866652 0.3111584485
v -0.2149268985 -0.2938193381 0.1983211935
v -0.2149268985 0.2938192785 0.1983212829
v -0.2107159793 -0.2946708798 0.2061370015
v -0.2107159793 0.2946708202 0.206137076
v -0.2105974257 -0.2935150564 0.2169127166
v -0.2105974257 0.2935149968 0.2169128358
v -0.2093974948 -0.2904626727 0.2383964211
v -0.2093974948 0.2904626131 0.2383965403
v -0.2090097368 0.2976925671 0.1581823677
v -0.2089973241 -0.2976552844 0.1581870615
v -0.2084836811 -0.2862549722 0.2578442693
v -0.2084836811 0.2862549126 0.2578443885
v -0.2079910934 -0.2978190482 0.1532547921
v -0.2079910934 0.2978189886 0.1532548815
v -0.2073556781 -0.2816063464 0.2740253508
v -0.2073556781 0.2816062868 0.27402547
v -0.2062568218 -0.293969363 0.1230508238
v -0.2062568218 0.2939693034 0.1230509132
v -0.2060631067 -0.2757101357 0.285215348
v -0.2060631067 0.2757100165 0.2852154672
v -0.2035109699 0.2655061483 0.290964216
v -0.2008664906 0.3001590073 0.1563433856
v -0.2008644789 0.2973898351 0.2084100395
v -0.2008636594 -0.2973869741 0.2084097564
v -0.2008625269 -0.300147593 0.156342715
v -0.1990857869 0.245390743 0.2982780337
v -0.179310292 -0.3015954196 0.216652438
v -0.179310292 0.30159536 0.2166525573
v -0.1779157072 -0.3027923107 0.2040058523
v -0.1779157072 0.3027922511 0.2040059417
v -0.177248314 -0.2985949516 0.2382716089
v -0.177248314 0.298594892 0.2382717282
v -0.1765345484 -0.3060134649 0.1564675868
v -0.1765345484 0.3060134053 0.1564676762
v -0.1759798825 -0.3008261323 0.1161580309
v -0.1759798825 0.3008260727 0.1161581352
v -0.1743067652 -0.2947994769 0.2572292984
v -0.1743067652 0.2947994173 0.2572294176
v -0.1742994487 -0.3065161407 0.1517993808
v -0.1742994487 0.3065160811 0.1517994702
v -0.1737175137 -0.2835123539 0.2854551673
v -0.1737175137 0.2835122347 0.2854552865
v -0.1730252802 -0.3027580678 0.1221443191
v -0.1730252802 0.3027580082 0.1221444234
v -0.1727114767 0.2723684609 0.2913128138
v -0.1724360287 -0.2901509106 0.2738281786
v -0.1724360287 0.290150851 0.2738282979
v -0.1693855077 -0.3045343757 0.2025481761
v -0.1693855077 0.3045343161 0.2025482655
v -0.16756621 -0.3076891005 0.1582837254
v -0.16756621 0.3076890111 0.1582838148
v -0.164516747 -0.3019088507 0.1090861782
v -0.164516747 0.3019087911 0.1090862826
v -0.159529388 -0.3089042604 0.163859725
v -0.159529388 0.3089042008 0.1638598144
v -0.1540146172 -0.2992212474 0.08483884484
v -0.1540146172 0.2992212474 0.08483894914
v -0.1538407058 0.3095207512 0.1719370037
v -0.1538406909 -0.3095208108 0.1719369292
v -0.1514069438 0.3094153106 0.1819522828
v -0.1514063925 -0.3094103932 0.181951955
v -0.149986133 0.2906048894 0.04621465132
v -0.1499831975 -0.2905874848 0.04621941969
v -0.1478807032 -0.2769526839 0.0006363443681
v -0.1478807032 0.2769526839 0.00063643459
v -0.1435657144 -0.3096463382 0.1946717203
v -0.1435657144 0.3096462786 0.1946718246
v -0.142823264 -0.3116815984 0.1510310769
v -0.1428232342 0.3116815984 0.1510311365
v -0.1426271051 -0.3092866242 0.2022002786
v -0.1426270753 0.3092865944 0.2022003382
v -0.1423572451 -0.306350559 0.2274458855
v -0.1423572153 0.3063505292 0.2274459451
v -0.1417630166 -0.3087238669 0.1242728978
v -0.1417629868 0.3087238669 0.1242729649
v -0.1415556818 -0.3049155772 0.2373853624
v -0.141555652 0.3049155474 0.237385422
v -0.1409468949 -0.301335901 0.08407407999
v -0.1409468651 0.301335901 0.08407414705
v -0.1395937055 -0.2938001752 0.05103478581
v -0.1395936757 0.2938001752 0.05103484541
v -0.1382918209 -0.3035401404 0.2467963248
v -0.1382917911 0.3035401106 0.2467963845
v -0.1381864548 -0.2899849117 0.2848241031
v -0.1381864548 0.2899847925 0.2848242223
v -0.1381596476 -0.2865915895 0.02441908978
v -0.1381596178 0.2865915895 0.02441914938
v -0.1376251578 0.2795233428 0.2908752263
v -0.1372515708 -0.2790283859 0.0005930580082
v -0.137251541 0.2790283859 0.000593115692
v -0.137024954 -0.2781450748 -8.055628859e-05
v -0.1370249242 0.2781450748 -8.049881581e-05
v -0.1360798627 -0.2953975201 0.2747320533
v -0.1360798627 0.2953974009 0.2747321725
v -0.1299480051 -0.3037601709 0.2510840297
v -0.1299479753 0.3037601411 0.2510840893
v -0.1261529624 -0.3029403687 0.08317518979
v -0.1261529326 0.3029403687 0.08317525685
v -0.125859797 -0.2957583666 0.05199538544
v -0.1258597672 0.2957583666 0.05199544504
v -0.1257492155 -0.3059264123 0.09589108825
v -0.1257491857 0.3059264123 0.0958911553
v -0.1252403259 -0.2885713577 0.02569985203
v -0.1252402961 0.2885713577 0.02569991164
v -0.1246373951 -0.2805725932 0.0004435926676
v -0.1246373728 0.2805725932 0.0004436506424
v -0.1241406798 -0.279805094 -8.070556942e-05
v -0.1241406575 0.279805094 -8.064775466e-05
v -0.117689386 -0.3091686666 0.1110134423
v -0.1176893562 0.3091686666 0.1110135093
v -0.1173857227 -0.3083129227 0.1055941433
v -0.1173856929 0.3083129227 0.1055942103
v -0.1109697148 -0.3147484064 0.1492418498
v -0.110969685 0.3147484064 0.1492419094
v -0.110039182 -0.3141625822 0.1749458015
v -0.1100391522 0.3141625524 0.1749458611
v -0.109941937 -0.3123408854 0.1268299222
v -0.1099419072 0.3123408854 0.1268299818
v -0.1087831706 -0.3125029504 0.2012842149
v -0.1087831408 0.3125029206 0.2012842745
v -0.1085883304 -0.3050876856 0.2515823245
v -0.1085883006 0.3050876558 0.2515823841
v -0.1075011045 -0.3096502423 0.2262601107
v -0.1075010747 0.3096502125 0.2262601703
v -0.106617108 -0.3102526963 0.111401476
v -0.1066170782 0.3102526963 0.111401543
v -0.1063819975 0.2860346437 0.2894220948
v -0.1062284485 -0.3094195127 0.1059336439
v -0.1062284186 0.3094195127 0.1059337109
v -0.1046836972 -0.3049790263 0.08248496801
v -0.1046836674 0.3049790263 0.08248503506
v -0.1024955362 -0.2984500229 0.05293386057
v -0.1024955064 0.2984500229 0.0529339239
v -0.1014250442 -0.2942636311 0.2838091254
v -0.1014249921 -0.2942635417 0.2838092446
v -0.1014249921 0.2942634225 0.2838093638
v -0.09984118491 -0.2832036614 0.0004190043255
v -0.09984116256 0.2832036614 0.0004190628242
v -0.09981101006 -0.2824206948 -7.403027848e-05
v -0.09981098771 0.2824206948 -7.397191803e-05
v -0.09962328523 -0.2914322019 0.02610514872
v -0.09962326288 0.2914322019 0.02610520832
v -0.09442538023 -0.298556 0.2761112452
v -0.09442532808 0.2985557914 0.2761114836
v -0.07987307757 -0.3145931661 0.1282774359
v -0.07987304777 0.3145931661 0.1282774955
v -0.07622576505 -0.3113943934 0.1050428078
v -0.07622573525 0.3113943934 0.1050428748
v -0.07592471689 -0.3164553046 0.1656709313
v -0.07592468709 0.3164552748 0.1656709909
v -0.07581093907 -0.3158073425 0.1816437691
v -0.07581090927 0.3158073127 0.1816438287
v -0.0756900087 -0.3168764114 0.1472771764
v -0.0756899789 0.3168763816 0.147277236
v -0.07536379993 -0.3144358397 0.2007395625
v -0.07536377013 0.3144358099 0.2007396221
v -0.07469296455 -0.3155108988 0.1876330674
v -0.07469293475 0.315510869 0.187633127
v -0.07461211085 -0.3165897131 0.140339911
v -0.07461208105 0.3165896833 0.1403399706
v -0.07377400249 -0.3070575595 0.08166270703
v -0.07377397269 0.3070575595 0.08166277409
v -0.07320711017 -0.3165300488 0.1673595011
v -0.07320708036 0.316530019 0.1673595607
v -0.07270716876 -0.3159491122 0.1814168394
v -0.07270713896 0.3159490824 0.181416899
v -0.07262136787 -0.3118520975 0.224582091
v -0.07262133807 0.3118520677 0.2245821506
v -0.07259467244 -0.3151733875 0.1939112097
v -0.07259464264 0.3151733577 0.1939112693
v -0.07238549739 -0.3159602284 0.1348330975
v -0.07238546759 0.3159601986 0.1348331571
v -0.07195971906 -0.3156729937 0.1868181229
v -0.07195968926 0.3156729639 0.1868181825
v -0.07159090042 -0.3068973124 0.2520074248
v -0.07159087062 0.3068972826 0.2520074844
v -0.07119208574 -0.3005763292 0.05251596496
v -0.07119205594 0.3005763292 0.05251602829
v -0.06996276975 -0.3154092729 0.1921234727
v -0.06996273994 0.3154092431 0.1921235323
v -0.06984893233 -0.2852773666 0.0004156363138
v -0.06984890997 0.2852773666 0.0004156952491
v -0.06981122494 -0.2845372856 -6.558166206e-05
v -0.06981120259 0.2845372856 -6.552287232e-05
v -0.0692159161 -0.2937239408 0.02677347884
v -0.06921589375 0.2937239408 0.0267735403
v -0.06911502033 -0.3150288165 0.1975327134
v -0.06911499053 0.3150287867 0.197532773
v -0.068123959 -0.3156258464 0.1312779635
v -0.0681239292 0.3156258166 0.1312780231
v -0.06220856309 -0.3151158988 0.1993041933
v -0.06220853701 0.315115869 0.1993042529
v -0.06161390245 -0.3153887391 0.1962665319
v -0.06161387637 0.3153887093 0.1962665915
v -0.05923086405 -0.3157253861 0.1293145716
v -0.05923083797 0.3157253563 0.1293146312
v -0.05580857769 -0.3105868101 0.235710904
v -0.05580855161 0.3105867803 0.2357109636
v -0.04317590967 -0.3173758686 0.1663037688
v -0.04317588359 0.3173758388 0.1663038284
v -0.04269811139 -0.3125862777 0.103379786
v -0.04269808531 0.3125862777 0.1033798531
v -0.04173583165 -0.316151768 0.1283046156
v -0.04173580557 0.3161517382 0.1283046752
v -0.04133186489 -0.3155763745 0.1989118755
v -0.04133183882 0.3155763447 0.1989119351
v -0.03864910826 -0.3130485713 0.2226136476
v -0.03864908218 0.3130485415 0.2226137072
v -0.03805029765 -0.3084349036 0.08114489168
v -0.03805027157 0.3084349036 0.08114495873
v -0.03689456359 -0.3019425273 0.05242899805
v -0.03689453751 0.3019425273 0.05242906138
v -0.03515225276 -0.2949466407 0.02644268423
v -0.03515222669 0.2949466407 0.0264427457
v -0.03488840535 -0.3124084175 0.1011008024
v -0.03488837928 0.3124084175 0.1011008695
v -0.03476293758 -0.2868152261 0.0006562898052
v -0.0347629115 0.2868152261 0.0006563490606
v -0.03465690091 -0.2859640121 -6.282518007e-05
v -0.03465687484 0.2859640121 -6.276609201e-05
v -0.03425357491 -0.3082675636 0.2508163452
v -0.03425354883 0.3082675338 0.2508164048
v -0.02901520394 -0.3118923306 0.09747180343
v -0.029015176 0.3118923306 0.09747187048
v -0.02780994028 -0.2964679003 0.2833640277
v -0.02780988812 0.2964677215 0.2833642662
v -0.02761537209 -0.3009154201 0.2745303512
v -0.02761531994 0.3009152412 0.2745305896
v -0.009453018196 -0.3076899648 0.2511431575
v -0.009452964179 0.3076898158 0.2511433959
v -0.001521152444 -0.3085808158 0.07880020887
v -0.001521125436 0.3085808158 0.07880027592
v 0.0001843018545 -0.3023855686 0.05212708935
v 0.0001843282953 0.3023855686 0.05212715268
v 0.001329644816 -0.2954720855 0.02684777603
v 0.00132967066 0.2954720855 0.02684783749
v 0.002246722812 -0.3177541792 0.1651565135
v 0.002246750519 0.3177541494 0.1651565731
v 0.002816858003 -0.2862025797 -7.690682105e-05
v 0.002816882916 0.2862025797 -7.684768207e-05
v 0.002893015742 -0.2871261537 0.00067172735
v 0.002893040888 0.2871261537 0.0006717867218
v 0.003362441668 -0.3158478737 0.1977544129
v 0.003362469375 0.3158478439 0.1977544725
v 0.003915132023 -0.316524744 0.1267621517
v 0.003915159497 0.3165247142 0.1267622113
v 0.00399495149 -0.3134554327 0.1077645347
v 0.003994978964 0.3134554029 0.1077646017
v 0.004413075279 -0.3132552505 0.2212584764
v 0.004413102753 0.3132552207 0.221258536
v 0.03778909519 -0.3017525375 0.05133038387
v 0.03778912127 0.3017525375 0.0513304472
v 0.03813916817 -0.2855216861 -8.105667803e-05
v 0.03813919425 0.2855216861 -8.099768456e-05
v 0.03816993907 -0.2866046429 0.001096574473
v 0.03816996515 0.2866046429 0.001096633729
v 0.03827167302 -0.2948406339 0.02660835534
v 0.0382716991 0.2948406339 0.02660841681
v 0.04544482753 -0.2882465422 0.2867592871
v 0.04623873904 -0.316799283 0.1640040576
v 0.04623876512 0.3167992532 0.1640041173
v 0.0463819243 -0.2956041992 0.2812971175
v 0.04638197273 0.2956039608 0.2812973261
v 0.04681652784 -0.3158310652 0.1257208586
v 0.04681655392 0.3158310354 0.1257209182
v 0.04696682468 -0.3128094673 0.1064936966
v 0.04696685076 0.3128094375 0.1064937636
v 0.04729991034 -0.3004212976 0.27211079
v 0.04729996622 0.3004211187 0.2721109986
v 0.04818968847 -0.3147667944 0.1966117322
v 0.04818971455 0.3147667646 0.1966117918
v 0.04835420847 -0.3118470907 0.2197207063
v 0.04835423455 0.3118470609 0.2197207659
v 0.04997352511 -0.3072815239 0.2476958185
v 0.04997355118 0.3072814643 0.2476958781
v 0.05895140395 -0.3154051304 0.1255695075
v 0.05895143002 0.3154051006 0.1255695671
v 0.06216037646 -0.3144011497 0.1928576678
v 0.06216040254 0.3144011199 0.1928577274
v 0.0630524233 -0.3141081929 0.1957579851
v 0.0630524531 0.3141081631 0.1957580447
v 0.06715966016 -0.3152289987 0.1268875301
v 0.06715968996 0.3152289689 0.1268875897
v 0.06911663711 -0.3139833212 0.1931865662
v 0.06911666691 0.3139832914 0.1931866258
v 0.070176512 -0.3143173456 0.1877673417
v 0.07017654181 0.3143173158 0.1877674013
v 0.07136648893 -0.3155274987 0.1305161268
v 0.07136651874 0.3155274689 0.1305161864
v 0.07157345116 -0.3145135641 0.1835777164
v 0.07157348096 0.3145135343 0.183577776
v 0.07250458747 -0.3148955703 0.1764857769
v 0.07250461727 0.3148955405 0.1764858365
v 0.07258155197 -0.3140966296 0.1890204847
v 0.07258158177 0.3140965998 0.1890205443
v 0.07285361737 -0.3154965639 0.1632162035
v 0.07285364717 0.3154965341 0.1632162631
v 0.0736098215 -0.3158974648 0.1348190606
v 0.0736098513 0.3158974349 0.1348191202
v 0.07434354722 -0.3143377304 0.1839087307
v 0.07434357703 0.3143377006 0.1839087903
v 0.07523593307 -0.3147270679 0.1766692549
v 0.07523596287 0.3147270381 0.1766693145
v 0.07534574717 -0.3159183562 0.1397406459
v 0.07534577698 0.3159183264 0.1397407055
v 0.0758189559 -0.3153287172 0.1618865132
v 0.0758189857 0.3153286874 0.1618865728
v 0.07649409026 -0.2836463451 -8.650274685e-05
v 0.07649411261 0.2836463451 -8.644413901e-05
v 0.07664474845 -0.2923086286 0.02417561784
v 0.0766447708 0.2923086286 0.02417567931
v 0.07682362944 -0.2845394015 0.0005295872688
v 0.07682365179 0.2845394015 0.0005296460586
v 0.08051662147 -0.3052526116 0.07852248102
v 0.08051665127 0.3052525818 0.07852254808
v 0.08061411977 -0.3141519427 0.1246873587
v 0.08061414957 0.3141519129 0.1246874258
v 0.08073763549 -0.311050117 0.1049870327
v 0.0807376653 0.3110500872 0.1049870998
v 0.08272084594 -0.3148481846 0.1613754034
v 0.08272087574 0.3148481548 0.161375463
v 0.08339472115 -0.3127973676 0.1941850334
v 0.08339475095 0.3127973378 0.194185093
v 0.08532316238 -0.3100855649 0.218722865
v 0.08532319218 0.310085535 0.2187229246
v 0.08696803451 -0.3054723442 0.2449475974
v 0.08696806431 0.3054722846 0.244947657
v 0.1121284738 -0.2807008624 -8.095344674e-05
v 0.1121284962 0.2807008624 -8.089545008e-05
v 0.1121622398 -0.2815058827 0.000402584672
v 0.1121622622 0.2815058827 0.0004026428505
v 0.1152758226 -0.2569003701 0.2967236042
v 0.1182459965 -0.2839007974 0.2840970457
v 0.1191181615 -0.2916794717 0.2781940699
v 0.1191182211 0.2916792333 0.2781942487
v 0.119743295 -0.2957512736 0.2694360316
v 0.1197433546 0.2957510948 0.26943627
v 0.1205299124 -0.3035012484 0.2424179465
v 0.1205299422 0.3035011888 0.2424180061
v 0.1208692491 -0.3075389862 0.1027813107
v 0.1208692789 0.3075389564 0.1027813777
v 0.1209436804 -0.2807348967 0.0007592913462
v 0.1209437028 0.2807348967 0.0007593493792
v 0.121194236 -0.2889178991 0.02526613139
v 0.1211942583 0.2889178991 0.02526619099
v 0.1212250367 -0.296623379 0.05230318755
v 0.121225059 0.2966233492 0.05230324715
v 0.1213415265 -0.3026136756 0.07794735581
v 0.1213415563 0.3026136458 0.07794742286
v 0.1310195476 -0.3042889237 0.2307919115
v 0.1310195774 0.3042888641 0.2307919711
v 0.1316097677 -0.3061043322 0.2165710926
v 0.1316097975 0.3061042726 0.2165711522
v 0.1325962991 0.305970937 0.2169502676
v 0.132668823 -0.3087867498 0.1919545084
v 0.1326688528 0.30878672 0.191954568
v 0.13400428 -0.3104784489 0.1581528932
v 0.1340043098 0.3104784191 0.1581529528
v 0.1350736916 -0.3098155856 0.1248286888
v 0.1350737214 0.3098155558 0.1248287559
v 0.1361472756 -0.301317215 0.07814259082
v 0.1361473054 0.3013171852 0.07814265788
v 0.1365260184 -0.2951518297 0.05238609761
v 0.1365260482 0.2951517999 0.05238615721
v 0.1372599602 -0.2872012556 0.02494132333
v 0.13725999 0.2872012258 0.02494138293
v 0.1374908686 -0.2779839933 -8.433371113e-05
v 0.1374908984 0.2779839933 -8.427626744e-05
v 0.1376264244 -0.2789472342 0.0007012627902
v 0.1376264542 0.2789472342 0.0007013204158
v 0.1495151669 -0.2526810765 0.29563573
v 0.1498862654 -0.2906432748 0.04521929845
v 0.1498862654 0.2906432748 0.04521939531
v 0.1500453651 -0.2756788731 0.0004836207081
v 0.1500453651 0.2756788731 0.0004837105225
v 0.1513656676 0.3003540933 0.08463856578
v 0.151376307 -0.3003850579 0.08463122696
v 0.1517052352 -0.3068566024 0.1822849214
v 0.1517052352 0.3068565428 0.1822850108
v 0.1534943134 0.3058977425 0.1923748702
v 0.1534943581 -0.3058981895 0.1923748255
v 0.1535310745 -0.3025834262 0.09730022401
v 0.1535310745 0.3025833666 0.09730032831
v 0.153557837 -0.3071086407 0.1725343913
v 0.1535578668 0.3071088195 0.1725344956
v 0.1572372466 -0.2798011899 0.282471031
v 0.1573821753 -0.30699265 0.1545884162
v 0.1573821753 0.3069925904 0.1545885056
v 0.1591252685 -0.304389447 0.2005469054
v 0.1591252685 0.3043894172 0.2005469948
v 0.1592278481 -0.3043767214 0.2005271912
v 0.1592278481 0.3043766618 0.2005272806
v 0.1592291296 -0.3065566719 0.1644197851
v 0.1592291296 0.3065566123 0.1644198745
v 0.1594402492 -0.2870950997 0.2765210867
v 0.1594403088 0.2870948613 0.2765212655
v 0.1597386301 -0.2913670838 0.2674798965
v 0.1597386748 0.291366905 0.2674800754
v 0.1597540826 -0.30405882 0.1107448041
v 0.1597540826 0.3040587604 0.1107449085
v 0.1600747108 -0.2976073623 0.2431476265
v 0.1600747406 0.2976071835 0.2431478351
v 0.1603092104 -0.3025765717 0.215409115
v 0.1603092104 0.3025765121 0.2154091895
v 0.1620854139 -0.305744946 0.1238504201
v 0.1620854139 0.3057448864 0.1238505244
v 0.1634374857 0.2210460007 0.3458214998
v 0.1634579897 0.2095469981 0.3491899967
v 0.1644089818 0.2059450001 0.349022001
v 0.1644089818 0.2131479979 0.349022001
v 0.1650439948 -0.1570800841 0.3138323426
v 0.1670049876 0.2033080012 0.3485639989
v 0.1670049876 0.2157849967 0.3485639989
v 0.1670071334 -0.3055274785 0.1585191339
v 0.1670071483 0.3055274785 0.1585192233
v 0.1676644683 -0.302554965 0.2055931091
v 0.1676644683 0.3025549054 0.2055931985
v 0.1699754745 0.2228250057 0.3446685076
v 0.1705219448 -0.1882007271 0.3098855317
v 0.1705519855 0.202343002 0.3479390144
v 0.1705519855 0.2167499959 0.3479390144
v 0.1707042307 -0.3034810424 0.1178235337
v 0.1707042307 0.3034809828 0.117823638
v 0.1740989834 0.2033080012 0.3473129869
v 0.1740989834 0.2157849967 0.3473129869
v 0.1765139848 0.2210460007 0.3435155153
v 0.1765854508 -0.3038562238 0.1571460068
v 0.1765854508 0.3038561344 0.1571460813
v 0.1766414791 0.3008143008 0.2078672796
v 0.1766415387 -0.3008146882 0.2078672349
v 0.1766833514 -0.219529137 0.3032746613
v 0.1766959876 0.2059450001 0.3468550146
v 0.1766959876 0.2131479979 0.3468550146
v 0.1776469946 0.2095469981 0.3466880023
v 0.1813164353 -0.2485146672 0.2939311862
v 0.1874811351 -0.2753464878 0.2807195783
v 0.1883456409 -0.3006317317 0.120322071
v 0.1883456409 0.3006316721 0.1203221753
v 0.1883925647 -0.3009106219 0.1230639592
v 0.1883925647 0.3009105623 0.1230640635
v 0.1886481345 -0.3015827239 0.1531288177
v 0.1886481345 0.3015826643 0.1531289071
v 0.1894895285 -0.2976079285 0.2143529058
v 0.1894895434 0.2976078689 0.2143529505
v 0.1898201108 -0.2822182178 0.2746829391
v 0.1898201555 0.2822179794 0.2746831179
v 0.1904072016 -0.2928761244 0.2414490432
v 0.1904072315 0.2928759456 0.2414492369
v 0.1907188594 -0.2864747643 0.2661140561
v 0.1907188892 0.2864745855 0.2661142647
v 0.1971349418 -0.1850638837 0.3070679903
v 0.2001636624 -0.2962905467 0.2041582167
v 0.2001636624 0.2962904871 0.2041583061
v 0.2004978061 -0.2959375679 0.2078473121
v 0.2004978657 0.2959377766 0.2078474313
v 0.2005961388 -0.298928678 0.156665504
v 0.2005961388 0.2989286184 0.1566655934
v 0.2041362077 -0.214783445 0.3009099662
v 0.2094984949 0.2966348827 0.1583929658
v 0.2095060498 -0.2966639102 0.1583924145
v 0.2096423358 -0.2941896915 0.2017700523
v 0.2096423358 0.2941896319 0.2017701417
v 0.2103029639 -0.2432865202 0.2917646766
v 0.2108363658 0.2935300767 0.2056857049
v 0.2108428478 -0.2935529351 0.205687955
v 0.2156460285 -0.2685940564 0.2795055509
v 0.2157579511 -0.292855978 0.1982840449
v 0.2171172947 0.2929647565 0.1897186041
v 0.2178533077 -0.2755708396 0.2734163105
v 0.2178533524 0.2755706608 0.2734164894
v 0.2179391682 -0.2941607833 0.163817361
v 0.2179391682 0.2941607237 0.1638174504
v 0.2180511504 -0.2920108736 0.2005137503
v 0.2180511504 0.292010814 0.2005138397
v 0.2195958793 -0.2795284688 0.2640607953
v 0.219595924 0.27952829 0.2640610039
v 0.2205502689 -0.285702914 0.2395098507
v 0.2205502987 0.2857027352 0.2395100296
v 0.2209569365 -0.1804897934 0.3037736714
v 0.2219518125 -0.2920960188 0.1825068593
v 0.2219518125 0.2920959592 0.1825069487
v 0.2219938189 -0.2894925773 0.2129429728
v 0.2219938189 0.2894925475 0.2129430175
v 0.2233989835 -0.2918591797 0.1198907793
v 0.2233989835 0.2918591201 0.1198908687
v 0.2237916291 -0.2924136221 0.1526732296
v 0.2237916291 0.2924135625 0.152673319
v 0.2238141596 -0.2908891141 0.1924601942
v 0.2238141596 0.2908890545 0.1924602836
v 0.2239173949 -0.2920260429 0.1723261029
v 0.2239173949 0.2920259833 0.1723261923
v 0.2258835733 -0.2908650339 0.1827405095
v 0.2258835733 0.2908649743 0.1827405989
v 0.228932783 -0.2083213031 0.2980307341
v 0.2371270657 -0.2356554866 0.2891428471
v 0.2418159246 -0.1749393642 0.3000060618
v 0.2427379042 -0.258859545 0.2778710127
v 0.2453491986 -0.2653813362 0.2715415359
v 0.2453492284 0.2653811574 0.2715416551
v 0.2471924871 -0.2692985237 0.2624836862
v 0.2471925318 0.2692983449 0.2624838054
v 0.2494346052 -0.2745256722 0.2377354354
v 0.249434635 0.2745255232 0.2377355993
v 0.2502072155 -0.1998291016 0.2947690487
v 0.2517934144 -0.2778460979 0.2115200907
v 0.2517934144 0.2778460383 0.2115201801
v 0.2518143654 -0.2807647288 0.1173946932
v 0.2518143654 0.2807646692 0.1173947826
v 0.2524471283 -0.2799853683 0.1815433651
v 0.2524494827 0.2799882889 0.1815444678
v 0.2526345253 0.2807321846 0.1511832625
v 0.2527058125 -0.2808885574 0.1511813849
v 0.2592184246 -0.2249644548 0.2864560485
v 0.2605729699 -0.1681467146 0.2957693636
v 0.2649780512 -0.2461249232 0.2764088511
v 0.264978081 0.2461246699 0.2764089704
v 0.2686995864 -0.2519350052 0.2701694369
v 0.2686996162 0.2519347668 0.2701695859
v 0.2688496411 -0.1890185177 0.2911069095
v 0.2718953192 -0.1478356421 0.2937501073
v 0.2720327973 -0.2547894418 0.2606642246
v 0.2720328569 0.254789263 0.2606643736
v 0.2759354115 0.2583353519 0.2360356003
v 0.2769826949 -0.2576957047 0.2359682471
v 0.2773780525 -0.1585181803 0.2912888229
v 0.2781558037 -0.2116360068 0.2833715677
v 0.2795035839 -0.2636386454 0.11290811
v 0.2795035839 0.2636385858 0.1129081994
v 0.2797135711 -0.2641903758 0.1160776541
v 0.2797135711 0.2641903162 0.1160777435
v 0.2799179256 -0.2602607012 0.2100324184
v 0.2799179256 0.2602606416 0.2100325078
v 0.2808462977 -0.2623896301 0.180296436
v 0.2808489501 0.2623850405 0.1802961826
v 0.2811851501 -0.2634800076 0.1498513967
v 0.2811851501 0.263479948 0.1498514861
v 0.2846492231 -0.2288385034 0.2748823464
v 0.2846492529 0.2288382649 0.2748824954
v 0.2847802639 -0.175315097 0.2873291671
v 0.2887795269 -0.2350668162 0.268220365
v 0.2887795866 0.2350665778 0.2682205141
v 0.2920274436 -0.2374528348 0.2587088048
v 0.2920274734 0.2374525964 0.2587089539
v 0.2924434841 -0.1434798688 0.2865713239
v 0.2931805253 -0.1934476048 0.2808621526
v 0.2968153358 0.2396364063 0.2340058386
v 0.2971722782 -0.239311561 0.2339703441
v 0.2977921367 -0.1587618887 0.2838158309
v 0.2997497916 -0.243554011 0.1053882837
v 0.2997497916 0.2435539812 0.1053883582
v 0.3012411296 -0.239971891 0.2088232338
v 0.3012411296 0.2399718165 0.2088233083
v 0.3012708127 -0.2097250819 0.2725411355
v 0.3012708426 0.2097248286 0.2725412548
v 0.3015861809 -0.2437099665 0.1140596941
v 0.3015861809 0.2437099367 0.1140597686
v 0.3028075695 -0.2412178218 0.1791015118
v 0.3028075695 0.2412177622 0.1791016012
v 0.3030850887 -0.2427255213 0.1486260295
v 0.3030850887 0.2427254617 0.1486261189
v 0.305093497 -0.2155902833 0.2662999034
v 0.3050935566 0.2155900449 0.2663000524
v 0.305995822 -0.1416248232 0.2814752758
v 0.3061444461 -0.1734921932 0.2780182362
v 0.3082904518 -0.2309602648 0.09734713286
v 0.3082904518 0.230960235 0.09734720737
v 0.3084683716 -0.2173502594 0.2568621337
v 0.3084684014 0.217350021 0.2568622828
v 0.3130307198 -0.1635365039 0.0005548553308
v 0.3130307198 0.1635365039 0.0005549086491
v 0.3134709895 -0.2201354355 0.086738877
v 0.3134709895 0.2201354057 0.0867389515
v 0.3139798045 -0.2176221609 0.2324087918
v 0.3139798343 0.2176219672 0.2324089259
v 0.3150831759 -0.1539875865 0.2759025693
v 0.3153168261 -0.1849558651 0.2707108259
v 0.3153168559 0.1849556267 0.2707109749
v 0.3162917495 -0.210859552 0.07501026243
v 0.3163963556 0.2100340724 0.07559264451
v 0.3172491193 -0.1881464124 0.03859457374
v 0.3172491193 0.1881464124 0.03859463334
v 0.3187442422 -0.2173715383 0.2079552263
v 0.3187442422 0.2173714787 0.2079552859
v 0.3203185201 -0.2188219726 0.1777688265
v 0.3203185201 0.218821913 0.1777688861
v 0.3206957281 -0.1900247335 0.2637276947
v 0.3206957281 0.1900244951 0.263727814
v 0.320707202 -0.219133392 0.1130842492
v 0.320707202 0.2191333622 0.1130843237
v 0.3209271133 -0.1384086013 0.2746489048
v 0.3209271133 0.1384083629 0.274649024
v 0.3209301829 -0.219510287 0.147436887
v 0.3209301829 0.2195102274 0.1474369466
v 0.3210075498 -0.1814972162 0.03937226534
v 0.3210075498 0.1814972162 0.03937232494
v 0.321634531 -0.1318185031 4.295192113e-08
v 0.321634531 0.1318185031 -4.295192113e-08
v 0.3221178651 -0.1436941773 0.0005277980817
v 0.3221178651 0.1436941773 0.0005278448807
v 0.324172616 -0.1915398985 0.2548460364
v 0.324172616 0.1915396601 0.2548461854
v 0.3259286284 -0.1608195156 0.2688160241
v 0.3259286284 0.1608192772 0.2688161433
v 0.3291426301 -0.1897246093 0.07596669346
v 0.3291426301 0.1897245795 0.07596675307
v 0.3295220137 -0.124769479 0.0005520379054
v 0.3295220137 0.124769479 0.0005520785344
v 0.3299962282 -0.1920949072 0.2310246527
v 0.3299962282 0.1920946985 0.2310247868
v 0.3331167102 -0.1618983448 0.2619945407
v 0.3331167102 0.1618981063 0.2619946301
v 0.3341988921 -0.192049548 0.2070772797
v 0.3341988921 0.1920494735 0.2070773542
v 0.3344398141 -0.1546996385 0.03990430012
v 0.3344573975 -0.1340694875 0.2671664953
v 0.3344573975 0.134069249 0.2671666145
v 0.3345415592 0.1547239274 0.03985812142
v 0.3359373808 -0.1935414523 0.1116131246
v 0.3359373808 0.1935414225 0.1116131842
v 0.3362218142 -0.192820102 0.1763336062
v 0.3362218142 0.1928200424 0.1763336658
v 0.3367894888 -0.1934503019 0.1461471319
v 0.3367894888 0.1934502423 0.1461471915
v 0.3374213576 -0.09841664135 0.0006018269924
v 0.3374213576 0.09841664135 0.0006018590066
v 0.3378088772 -0.162376821 0.2525780797
v 0.3378088772 0.1623765826 0.2525781691
v 0.3389292955 -0.06830637902 2.225704243e-08
v 0.3389292955 0.06830637902 -2.225704243e-08
v 0.3431497812 -0.1306714714 0.2604225278
v 0.3431497812 0.130671218 0.260422647
v 0.3435122073 0.1605904251 0.07585384697
v 0.3435527086 -0.1606061012 0.07584052533
v 0.3436312079 -0.06865054369 0.0005045421422
v 0.3436312079 0.06865054369 0.0005045644939
v 0.3438536525 0.1632196307 0.229825601
v 0.343949914 -0.163019225 0.2298171669
v 0.344032526 0 0
v 0.344049871 0.1292502284 0.03830396011
v 0.3440897763 -0.1292975843 0.03829625621
v 0.3474722505 -0.03510461003 0.0005509274779
v 0.3474722505 0.03510461003 0.0005509388866
v 0.3483867049 0.1629859954 0.2060890049
v 0.3483867049 0.1629860103 0.2060889602
v 0.3483867347 -0.1629860699 0.2060889006
v 0.3487478495 -7.162646865e-11 0.0004396401346
v 0.3500033617 -0.1240892261 0.2508525252
v 0.3500033617 0.1240890175 0.2508526146
v 0.350091815 0.1641480774 0.1104674041
v 0.3500997424 -0.1641506255 0.1104628667
v 0.3508575559 -0.1633211672 0.1752190292
v 0.3508575559 0.1633211076 0.1752190888
v 0.3511690497 -0.1640234888 0.1449070126
v 0.3511690497 0.1640234292 0.1449070722
v 0.3518705666 -0.160384804 0.1809252203
v 0.3518705666 0.1603847444 0.1809252799
v 0.3520690203 0.158192113 0.1906346232
v 0.3520690799 -0.1581922024 0.1906345636
v 0.3523085415 0.101049453 0.03788251802
v 0.3523296118 -0.101067394 0.03787890822
v 0.3529954851 -0.1590304971 0.170594573
v 0.3529954851 0.1590304375 0.1705946326
v 0.353122443 -0.1539483219 0.1977062374
v 0.353122443 0.1539482623 0.197706297
v 0.3535754085 -0.1546290815 0.1888375729
v 0.3535754085 0.1546290219 0.1888376325
v 0.3540561795 0.1330600232 0.07466540486
v 0.3540926576 -0.1330691427 0.07464829832
v 0.3543176055 -0.1511730552 0.1959600896
v 0.3543176055 0.1511729956 0.1959601492
v 0.3548831642 -0.1479775012 0.2022781968
v 0.3548831642 0.1479774415 0.2022782564
v 0.3549053371 0.1320632696 0.2289156616
v 0.3550672829 -0.1315882355 0.2289023548
v 0.3555608094 -0.153512165 0.1632494926
v 0.3555608094 0.1535121053 0.1632495522
v 0.3557896614 -0.1459136307 0.200181216
v 0.3557896614 0.1459135711 0.2001812756
v 0.3572694063 -0.1150399446 0.237354666
v 0.3572694063 0.115039736 0.2373547256
v 0.357752949 -0.1387911439 0.2055761665
v 0.357752949 0.1387910843 0.2055762261
v 0.358523041 -0.06967482716 0.03799305484
v 0.3585990369 0.06969302148 0.03796051815
v 0.3586620986 0.1458935142 0.1578497589
v 0.3586778939 -0.145899877 0.1578497887
v 0.3609842658 -0.1356578171 0.1097264066
v 0.3609868586 0.1356600821 0.1097500473
v 0.3623269796 -0.1355149746 0.1440064311
v 0.3623269796 0.135514915 0.1440064609
v 0.3623559475 0.03549325466 0.03798820078
v 0.3623959422 -0.03552743047 0.03794564307
v 0.3624427319 -0.1354939789 0.1557433307
v 0.3624427319 0.1354939193 0.1557433605
v 0.3626352847 0.103624016 0.07416481525
v 0.3626582623 -0.1036209464 0.07413423061
v 0.363044858 -0.1015936136 0.227888912
v 0.363044858 0.101593405 0.2278889716
v 0.3635478616 -3.19420833e-05 0.03744270653
v 0.3655819297 -0.1123057902 0.2051043659
v 0.3655819297 0.112305738 0.2051043659
v 0.3679613471 -0.1027867422 0.2036421895
v 0.3679613471 0.1027866825 0.2036422193
v 0.3690199852 -0.07075943053 0.07385878265
v 0.3690236211 0.07076840103 0.07387939095
v 0.3691458106 -0.07235233486 0.2231264114
v 0.3691458106 0.07235212624 0.2231264859
v 0.3694626093 -0.1119349226 0.1447601318
v 0.3694626093 0.1119348779 0.1447601616
v 0.3694750071 -0.1120241508 0.1557859778
v 0.3694750071 0.1120241061 0.1557860076
v 0.3695954084 -0.1064990759 0.1093554646
v 0.3696023822 0.1065028459 0.1094567105
v 0.3705307245 -0.09427674115 0.1991034448
v 0.3705307245 0.09427668154 0.1991034746
v 0.3715063035 0.1036138758 0.1574535519
v 0.3715133667 -0.1036156192 0.1574534327
v 0.372525841 -0.08921052516 0.1906523705
v 0.3725260198 0.08921051025 0.1906524152
v 0.3727698028 -0.03595947102 0.07384297997
v 0.3727782071 -0.03719017655 0.2215073556
v 0.3727782071 0.03718996421 0.2215073556
v 0.3728001714 0.03594538942 0.07383250445
v 0.3730767071 -0.0738215968 0.2046453953
v 0.3730767071 0.07382154465 0.2046454698
v 0.3733530343 -0.09450592101 0.1626750827
v 0.3733531237 0.0945058018 0.1626749486
v 0.3735742867 -1.049816092e-07 0.2219568044
v 0.3738588691 -0.08696362376 0.1805036664
v 0.3738588691 0.08696356416 0.1805036962
v 0.373973459 -5.882222104e-05 0.07324187458
v 0.3740568161 0.0895042792 0.169797644
v 0.3740638196 -0.08950575441 0.169797942
v 0.3760908842 -0.07318745553 0.1755712181
v 0.3760908842 0.07318739593 0.1755712479
v 0.3761420548 -0.0717683807 0.1088655293
v 0.3761467338 0.07176968455 0.1089588553
v 0.3767553866 -0.03751685843 0.2045782059
v 0.3767553866 0.03751680627 0.2045782357
v 0.3771240711 -0.0716394484 0.1435422003
v 0.3771240711 0.0716394037 0.1435422301
v 0.377917558 -3.33120056e-08 0.2044675648
v 0.3796932995 0.03632560745 0.1084521264
v 0.3796982765 -0.03634098545 0.1085097641
v 0.3798638582 -0.0373352617 0.1762269884
v 0.3798638582 0.0373352021 0.1762269884
v 0.38078174 0.03680872917 0.1427017152
v 0.3807817698 -0.03680879623 0.1427063048
v 0.3809769154 -2.869881932e-08 0.1761520803
v 0.3810857534 -8.70773365e-05 0.10835208
v 0.3819971979 -3.351397754e-05 0.1426122785
f 780 913 933
f 1155 1152 1156
f 228 284 258
f 541 499 490
f 490 532 541
f 549 499 541
f 541 631 549
f 631 633 549
f 447 490 452
f 452 490 499
f 501 549 527
f 499 549 501
f 501 452 499
f 986 975 780
f 780 933 986
f 704 651 643
f 1154 1150 1156
f 1141 1117 1109
f 1128 1155 1136
f 1136 1104 1128
f 1136 1097 1104
f 1148 1155 1128
f 1128 1142 1148
f 1152 1155 1148
f 1148 1142 1152
f 249 236 251
f 1047 1104 1051
f 1044 1072 1064
f 1064 1012 1044
f 890 913 780
f 657 724 720
f 605 611 643
f 529 501 527
f 523 480 474
f 257 283 229
f 229 201 257
f 125 123 93
f 257 201 226
f 226 201 193
f 469 468 422
f 222 276 267
f 222 226 193
f 267 226 222
f 281 230 265
f 265 301 281
f 274 290 257
f 274 226 267
f 257 226 274
f 301 290 274
f 267 276 274
f 274 276 301
f 324 469 347
f 301 469 324
f 347 342 324
f 998 990 1026
f 1026 1028 998
f 1059 1024 1028
f 1020 1035 1036
f 1036 1035 1133
f 447 450 493
f 493 490 447
f 532 490 493
f 426 450 447
f 318 385 344
f 385 381 344
f 371 357 362
f 17 9 29
f 193 201 161
f 34 32 50
f 94 86 124
f 228 258 202
f 312 314 336
f 312 334 310
f 336 334 312
f 346 323 327
f 232 284 228
f 300 363 318
f 527 549 581
f 581 549 633
f 425 426 447
f 452 501 443
f 437 417 443
f 955 986 933
f 1022 1072 1044
f 939 941 915
f 643 611 649
f 668 740 674
f 674 631 668
f 674 633 631
f 655 680 678
f 1088 1097 1109
f 1109 1117 1101
f 1101 1088 1109
f 1113 1092 1117
f 1084 1111 1052
f 1111 1126 1052
f 1133 1035 1052
f 1052 1126 1133
f 1102 1111 1084
f 907 887 910
f 1109 1097 1125
f 1097 1136 1125
f 1125 1141 1109
f 1125 1136 1155
f 1128 1104 1096
f 1104 1047 1096
f 1004 1002 975
f 1004 1012 1002
f 975 1022 1004
f 1044 1012 1004
f 1004 1022 1044
f 1002 1012 1030
f 1030 1064 1040
f 1012 1064 1030
f 1100 1064 1072
f 607 553 601
f 805 828 788
f 805 811 828
f 811 805 765
f 765 805 788
f 788 767 765
f 778 890 780
f 788 828 843
f 890 778 843
f 828 811 843
f 864 890 862
f 913 890 892
f 890 864 892
f 781 767 788
f 769 767 781
f 781 778 769
f 788 843 781
f 781 843 778
f 754 720 724
f 657 720 754
f 611 605 599
f 601 553 595
f 437 478 433
f 433 478 476
f 476 478 525
f 525 478 529
f 445 474 480
f 257 290 294
f 294 283 257
f 201 229 187
f 187 169 157
f 280 283 309
f 233 229 283
f 283 280 233
f 146 125 157
f 377 469 422
f 347 469 377
f 422 365 377
f 377 342 347
f 468 469 491
f 473 479 522
f 276 222 259
f 259 222 230
f 259 230 281
f 281 301 259
f 301 276 259
f 193 161 149
f 230 222 195
f 195 149 159
f 195 222 193
f 193 149 195
f 235 236 249
f 249 250 235
f 301 265 272
f 272 772 301
f 272 1001 772
f 305 290 301
f 301 324 305
f 305 294 290
f 418 365 422
f 309 342 333
f 342 377 333
f 333 377 365
f 856 824 863
f 541 532 812
f 532 493 812
f 812 493 450
f 1026 990 1018
f 994 998 1028
f 1028 1024 994
f 1024 1059 1054
f 1093 1072 1054
f 1053 1036 1133
f 1118 1072 1093
f 1118 1100 1072
f 1156 1152 1151
f 1151 1154 1156
f 1085 1053 1112
f 808 848 852
f 731 743 741
f 934 917 912
f 319 300 318
f 394 361 399
f 318 344 341
f 341 344 361
f 372 363 357
f 372 388 385
f 372 385 318
f 318 363 372
f 358 362 357
f 667 630 673
f 673 731 741
f 313 288 285
f 295 258 284
f 120 97 111
f 56 50 68
f 34 50 56
f 81 131 103
f 60 98 89
f 4 10 1
f 28 8 13
f 13 8 10
f 83 95 93
f 95 161 134
f 93 95 134
f 134 187 157
f 134 125 93
f 157 125 134
f 134 161 201
f 201 187 134
f 52 50 26
f 52 64 50
f 120 111 139
f 139 154 120
f 127 94 124
f 126 94 127
f 242 183 192
f 357 363 359
f 359 300 357
f 363 300 359
f 2 4 1
f 133 183 124
f 192 183 133
f 200 242 192
f 192 133 200
f 627 581 633
f 633 674 627
f 627 603 581
f 627 680 655
f 413 417 437
f 437 433 413
f 380 417 413
f 383 386 425
f 380 346 383
f 447 452 421
f 421 425 447
f 452 443 421
f 421 443 417
f 421 383 425
f 421 417 380
f 380 383 421
f 437 443 488
f 488 443 501
f 501 529 482
f 529 478 482
f 482 488 501
f 482 478 437
f 437 488 482
f 1000 986 1010
f 1010 1022 1000
f 975 986 1000
f 1000 1022 975
f 1037 1022 1010
f 1072 1022 1037
f 1037 1054 1072
f 1010 1024 1037
f 1024 1054 1037
f 935 933 913
f 935 941 961
f 961 955 935
f 935 955 933
f 939 915 911
f 911 915 898
f 916 915 941
f 916 935 913
f 941 935 916
f 913 892 916
f 965 941 939
f 939 963 965
f 961 941 965
f 965 994 961
f 998 994 965
f 990 998 965
f 965 963 990
f 928 911 908
f 988 1018 990
f 1014 1018 988
f 756 744 807
f 763 820 793
f 793 820 811
f 793 765 763
f 811 765 793
f 756 807 809
f 834 820 784
f 763 761 784
f 724 688 722
f 704 765 722
f 672 724 657
f 657 637 672
f 643 649 666
f 855 807 803
f 803 807 744
f 676 649 655
f 655 678 676
f 676 666 649
f 730 678 680
f 730 744 756
f 730 676 678
f 1097 1088 1039
f 1088 1101 1065
f 1065 1045 1029
f 1029 1039 1065
f 1065 1039 1088
f 1045 1065 1073
f 1073 1065 1101
f 1073 1092 1055
f 1073 1101 1117
f 1117 1092 1073
f 989 1025 1017
f 993 1023 1027
f 1027 1056 1025
f 1145 1139 1138
f 1150 1139 1145
f 1143 1126 1111
f 1111 1102 1129
f 1129 1143 1111
f 1129 1139 1150
f 1150 1143 1129
f 1084 1052 1031
f 1005 1042 1031
f 1031 1052 1035
f 1092 1113 1094
f 1113 1098 1094
f 1094 1098 1091
f 1094 1091 1055
f 1055 1092 1094
f 1115 1098 1113
f 1105 1086 1115
f 1115 1086 1098
f 1076 1086 1042
f 940 917 934
f 989 962 964
f 772 1001 974
f 1040 1047 1034
f 1002 1030 1034
f 1034 1030 1040
f 301 772 713
f 1149 1125 1155
f 1141 1125 1149
f 1089 1047 1040
f 1089 1096 1047
f 1040 1064 1089
f 1064 1100 1089
f 609 607 601
f 609 565 651
f 601 565 609
f 651 672 653
f 653 672 637
f 629 637 615
f 629 653 637
f 651 653 629
f 748 775 736
f 615 637 617
f 736 775 773
f 773 775 780
f 780 975 773
f 975 1002 773
f 877 892 864
f 746 765 767
f 767 754 746
f 746 754 724
f 724 722 746
f 746 722 765
f 752 767 769
f 752 754 767
f 769 750 752
f 752 750 716
f 752 716 657
f 657 754 752
f 569 555 557
f 571 599 605
f 571 569 557
f 605 569 571
f 643 651 559
f 651 565 559
f 559 605 643
f 559 569 605
f 555 569 559
f 601 595 577
f 577 565 601
f 577 595 553
f 411 413 428
f 428 413 433
f 340 346 380
f 323 346 340
f 340 317 323
f 557 555 521
f 476 525 521
f 521 472 476
f 9 17 3
f 1 9 3
f 3 2 1
f 320 342 309
f 320 324 342
f 309 283 320
f 283 294 320
f 320 305 324
f 294 305 320
f 298 252 292
f 292 252 288
f 20 49 25
f 169 187 178
f 178 187 229
f 237 280 285
f 237 233 280
f 186 167 175
f 233 237 186
f 157 169 171
f 171 146 157
f 171 178 175
f 169 178 171
f 175 167 171
f 642 604 558
f 444 479 473
f 506 479 483
f 479 444 448
f 448 444 430
f 448 418 422
f 430 418 448
f 533 552 530
f 552 522 530
f 550 522 552
f 210 265 230
f 210 165 155
f 159 149 138
f 113 95 89
f 113 161 95
f 113 149 161
f 230 195 176
f 176 195 159
f 176 210 230
f 165 210 176
f 234 207 236
f 236 235 234
f 249 272 263
f 813 388 389
f 371 387 389
f 388 372 389
f 389 357 371
f 389 372 357
f 816 387 824
f 824 856 816
f 817 816 856
f 387 816 817
f 741 743 802
f 968 953 995
f 986 955 977
f 977 1024 1010
f 977 994 1024
f 838 982 959
f 1008 838 996
f 982 838 1008
f 967 959 992
f 959 982 992
f 1152 1142 1146
f 1146 1151 1152
f 1140 1151 1146
f 1048 1018 1014
f 1041 1048 1014
f 1127 1053 1133
f 1127 1112 1053
f 1127 1144 1112
f 870 887 859
f 893 910 887
f 683 685 675
f 683 689 685
f 675 685 729
f 743 731 729
f 729 755 743
f 729 689 727
f 685 689 729
f 727 760 729
f 331 341 361
f 331 319 318
f 318 341 331
f 391 386 353
f 431 426 391
f 391 394 431
f 426 425 391
f 425 386 391
f 431 394 818
f 826 812 818
f 818 426 431
f 450 426 818
f 818 812 450
f 361 344 364
f 364 405 361
f 364 344 381
f 384 387 371
f 371 390 384
f 376 540 630
f 630 390 376
f 489 540 376
f 376 390 371
f 675 729 677
f 854 880 874
f 664 630 667
f 664 390 630
f 863 824 836
f 824 387 836
f 387 384 836
f 420 424 382
f 382 424 354
f 354 349 382
f 351 349 354
f 373 376 354
f 311 280 309
f 309 333 311
f 285 280 311
f 311 313 285
f 335 311 333
f 335 333 365
f 313 311 335
f 339 369 374
f 122 97 120
f 198 131 156
f 166 154 177
f 166 156 154
f 497 302 470
f 223 196 194
f 419 423 366
f 366 334 336
f 336 368 366
f 368 393 366
f 366 393 396
f 470 423 467
f 467 423 462
f 449 445 480
f 449 423 419
f 470 302 325
f 325 348 470
f 96 56 84
f 84 94 96
f 96 114 90
f 90 56 96
f 114 111 90
f 90 111 97
f 118 131 198
f 198 215 118
f 118 103 131
f 118 215 207
f 81 103 118
f 153 176 159
f 165 176 153
f 159 138 153
f 155 165 153
f 29 9 37
f 1 10 5
f 10 8 5
f 5 9 1
f 5 8 9
f 26 50 21
f 21 50 32
f 59 90 97
f 56 90 59
f 38 13 10
f 56 59 38
f 79 83 93
f 63 83 79
f 67 49 55
f 89 95 55
f 95 83 55
f 55 60 89
f 55 37 60
f 65 49 67
f 63 49 65
f 65 83 63
f 124 86 92
f 92 133 124
f 80 52 86
f 64 52 80
f 86 94 80
f 94 84 80
f 80 84 64
f 196 177 160
f 177 154 160
f 154 139 160
f 150 111 114
f 150 139 111
f 150 160 139
f 196 160 150
f 194 196 150
f 228 202 188
f 96 94 135
f 135 94 126
f 126 158 135
f 135 188 202
f 158 188 135
f 148 158 126
f 126 127 148
f 124 183 148
f 148 127 124
f 238 232 183
f 183 242 238
f 327 323 293
f 323 317 293
f 353 386 352
f 386 383 352
f 86 52 58
f 58 92 86
f 253 200 262
f 242 200 253
f 145 200 133
f 209 225 181
f 204 145 152
f 200 145 204
f 152 181 204
f 204 181 225
f 262 200 204
f 635 674 680
f 680 627 635
f 635 627 674
f 411 370 375
f 375 413 411
f 380 413 375
f 375 340 380
f 370 340 375
f 896 916 892
f 892 877 896
f 898 915 896
f 915 916 896
f 896 886 898
f 896 877 886
f 927 928 908
f 948 928 927
f 939 911 937
f 911 928 937
f 973 948 967
f 756 809 759
f 759 809 761
f 759 730 756
f 763 784 790
f 790 784 820
f 881 883 855
f 853 809 807
f 853 807 855
f 855 883 853
f 704 722 694
f 694 722 688
f 682 688 724
f 724 672 682
f 682 694 688
f 728 700 690
f 690 730 728
f 728 730 761
f 706 728 761
f 700 728 706
f 696 692 706
f 706 692 700
f 740 803 742
f 742 803 744
f 742 674 740
f 801 851 855
f 855 803 801
f 801 803 740
f 732 730 680
f 744 730 732
f 732 742 744
f 680 674 732
f 674 742 732
f 686 730 690
f 676 730 686
f 1097 1039 1046
f 1051 1104 1046
f 1104 1097 1046
f 1029 1001 1033
f 1033 1039 1029
f 1033 1046 1039
f 1001 272 1033
f 1045 1073 1038
f 1038 1073 1055
f 1055 1023 1038
f 1038 1023 1009
f 1068 1076 1050
f 1050 1076 1042
f 1025 1056 1060
f 1060 1017 1025
f 1060 1050 1017
f 1056 1066 1060
f 1013 1042 1005
f 1005 972 1013
f 1013 1050 1042
f 1017 1050 1013
f 1119 1129 1102
f 1084 1031 1079
f 1079 1031 1042
f 1042 1086 1079
f 1079 1086 1105
f 1079 1102 1084
f 1105 1102 1079
f 1015 1031 1035
f 1105 1115 1122
f 1122 1115 1113
f 1122 1113 1117
f 1117 1141 1122
f 1141 1145 1122
f 1091 1098 1074
f 1074 1076 1068
f 936 910 938
f 938 964 962
f 940 964 938
f 989 964 997
f 997 964 993
f 993 1027 997
f 997 1025 989
f 997 1027 1025
f 993 964 960
f 934 954 960
f 960 940 934
f 960 964 940
f 956 952 936
f 936 938 956
f 956 938 962
f 956 962 989
f 947 952 972
f 936 952 929
f 929 926 907
f 929 947 926
f 952 947 929
f 907 910 929
f 929 910 936
f 1011 1001 1029
f 1029 1045 1011
f 1009 1023 983
f 983 1023 993
f 772 974 779
f 912 889 779
f 779 889 777
f 658 644 301
f 301 713 658
f 1150 1145 1153
f 1156 1150 1153
f 1153 1145 1141
f 1141 1149 1153
f 1153 1155 1156
f 1153 1149 1155
f 1110 1089 1100
f 1110 1142 1128
f 1128 1096 1110
f 1096 1089 1110
f 1110 1118 1142
f 1100 1118 1110
f 615 607 621
f 621 629 615
f 651 629 621
f 621 609 651
f 607 609 621
f 771 748 736
f 736 750 771
f 775 748 771
f 771 750 769
f 769 778 771
f 780 775 771
f 771 778 780
f 718 750 736
f 716 750 718
f 657 716 663
f 811 820 833
f 833 847 811
f 833 820 834
f 862 847 833
f 845 843 811
f 811 847 845
f 845 847 862
f 862 890 845
f 890 843 845
f 519 559 565
f 523 474 519
f 519 565 523
f 474 521 519
f 555 559 519
f 519 521 555
f 551 553 523
f 551 577 553
f 523 565 551
f 565 577 551
f 411 428 409
f 338 340 370
f 338 368 336
f 338 370 368
f 336 314 338
f 314 317 338
f 317 340 338
f 419 414 427
f 427 409 428
f 414 409 427
f 427 449 419
f 445 449 427
f 402 393 397
f 397 393 368
f 368 370 397
f 397 370 411
f 411 409 397
f 474 445 456
f 557 521 563
f 563 521 525
f 599 571 579
f 579 585 599
f 579 563 585
f 579 571 557
f 557 563 579
f 581 603 573
f 573 525 529
f 573 561 525
f 573 529 527
f 527 581 573
f 245 358 357
f 175 178 190
f 190 178 229
f 229 233 190
f 233 186 190
f 163 171 167
f 146 171 163
f 167 186 182
f 182 186 237
f 288 252 241
f 241 182 237
f 191 182 241
f 285 288 241
f 241 237 285
f 494 491 469
f 494 510 491
f 491 510 508
f 642 558 650
f 671 669 650
f 568 558 604
f 455 444 473
f 514 522 479
f 479 506 514
f 514 530 522
f 533 530 514
f 479 448 457
f 552 594 576
f 576 550 552
f 140 153 119
f 119 153 138
f 207 234 205
f 197 210 155
f 155 130 197
f 197 130 117
f 117 214 197
f 265 210 212
f 210 197 212
f 247 272 265
f 247 263 272
f 239 263 247
f 214 239 218
f 218 197 214
f 218 247 220
f 239 247 218
f 220 212 218
f 218 212 197
f 254 250 249
f 249 263 254
f 254 235 250
f 254 239 235
f 254 263 239
f 365 418 404
f 404 395 365
f 814 389 387
f 387 817 814
f 813 389 814
f 825 817 856
f 856 884 825
f 813 814 825
f 825 814 817
f 852 854 806
f 854 802 806
f 806 802 743
f 743 755 806
f 806 808 852
f 806 755 808
f 907 926 905
f 903 874 905
f 905 874 880
f 882 887 907
f 907 905 882
f 882 905 880
f 859 887 882
f 882 854 852
f 882 880 854
f 882 848 859
f 852 848 882
f 837 919 925
f 925 930 837
f 919 930 925
f 837 930 949
f 949 930 953
f 953 968 949
f 919 901 924
f 926 947 945
f 926 945 922
f 903 905 922
f 922 905 926
f 971 977 955
f 994 977 971
f 971 955 961
f 961 994 971
f 1010 986 984
f 984 977 1010
f 986 977 984
f 831 826 830
f 1021 1008 996
f 1036 1008 1021
f 1020 1036 1021
f 1021 995 1020
f 1021 996 995
f 1114 1118 1093
f 1026 1018 1061
f 1032 1053 1085
f 1036 1053 1032
f 1087 1041 1078
f 1078 1032 1085
f 1041 1032 1078
f 1154 1151 1147
f 1151 1144 1147
f 1150 1154 1147
f 1147 1143 1150
f 1133 1126 1147
f 1126 1143 1147
f 1147 1127 1133
f 1144 1127 1147
f 1130 1151 1140
f 1130 1144 1151
f 1112 1144 1130
f 1140 1146 1137
f 1106 1116 1087
f 1087 1078 1106
f 760 707 762
f 762 707 725
f 725 709 762
f 760 808 757
f 808 755 757
f 757 729 760
f 755 729 757
f 355 331 361
f 361 394 355
f 355 391 353
f 394 391 355
f 353 352 329
f 815 394 399
f 815 818 394
f 399 361 815
f 361 405 815
f 405 364 815
f 815 364 381
f 815 381 385
f 813 826 815
f 826 818 815
f 815 388 813
f 385 388 815
f 539 540 489
f 489 498 539
f 630 540 539
f 477 432 475
f 400 376 373
f 371 362 360
f 360 376 371
f 351 354 360
f 360 354 376
f 731 673 679
f 679 729 731
f 679 677 729
f 902 874 903
f 903 922 902
f 800 802 854
f 390 664 738
f 738 384 390
f 738 664 667
f 384 738 737
f 442 420 416
f 451 498 489
f 451 420 442
f 382 349 345
f 326 349 351
f 326 345 349
f 298 292 326
f 367 335 365
f 367 398 369
f 313 335 337
f 337 369 339
f 337 367 369
f 335 367 337
f 129 122 120
f 97 122 108
f 108 131 81
f 81 97 108
f 198 156 211
f 156 166 211
f 211 166 177
f 302 266 282
f 258 295 291
f 291 275 258
f 302 275 291
f 227 202 258
f 258 275 227
f 194 202 227
f 227 223 194
f 484 462 480
f 515 480 523
f 310 334 343
f 348 325 343
f 378 366 423
f 378 423 470
f 470 348 378
f 348 343 378
f 334 366 378
f 378 343 334
f 403 366 396
f 402 414 403
f 403 414 419
f 419 366 403
f 403 393 402
f 396 393 403
f 462 423 441
f 441 449 462
f 423 449 441
f 480 462 458
f 458 449 480
f 462 449 458
f 82 107 98
f 130 107 82
f 70 56 68
f 70 84 56
f 64 84 66
f 68 50 66
f 50 64 66
f 66 70 68
f 84 70 66
f 75 54 81
f 81 118 75
f 110 118 207
f 109 99 110
f 207 205 110
f 110 205 109
f 136 107 130
f 136 130 155
f 18 21 32
f 4 21 18
f 10 4 18
f 18 32 34
f 28 13 39
f 34 56 35
f 56 38 35
f 35 18 34
f 67 55 69
f 69 55 83
f 69 65 67
f 83 65 69
f 19 49 20
f 19 31 49
f 17 31 19
f 20 3 19
f 19 3 17
f 33 31 17
f 33 55 49
f 49 31 33
f 162 202 194
f 162 135 202
f 194 150 162
f 162 150 114
f 162 114 96
f 96 135 162
f 286 238 242
f 350 383 346
f 350 352 383
f 350 346 327
f 299 253 262
f 293 253 299
f 327 293 299
f 299 304 327
f 327 304 328
f 328 350 327
f 352 350 328
f 328 329 352
f 328 304 307
f 307 329 328
f 307 304 278
f 357 300 246
f 246 245 357
f 209 245 246
f 300 319 315
f 319 331 315
f 4 2 7
f 26 21 7
f 7 21 4
f 92 58 88
f 116 145 133
f 152 145 116
f 946 959 967
f 967 948 946
f 948 927 946
f 951 928 948
f 951 937 928
f 948 973 951
f 761 730 758
f 758 759 761
f 730 759 758
f 834 784 797
f 799 820 763
f 763 790 799
f 799 790 820
f 867 864 862
f 879 867 869
f 855 851 875
f 875 881 855
f 858 867 862
f 862 833 858
f 858 833 834
f 869 867 860
f 867 858 860
f 860 858 834
f 670 672 651
f 670 682 672
f 651 704 670
f 704 694 670
f 694 682 670
f 684 692 696
f 666 676 684
f 676 686 684
f 684 686 690
f 690 700 684
f 700 692 684
f 710 704 643
f 643 666 710
f 763 765 710
f 710 765 704
f 702 710 666
f 851 801 823
f 823 826 831
f 823 812 826
f 823 875 851
f 823 801 740
f 823 740 668
f 668 631 823
f 823 631 541
f 541 812 823
f 1043 1033 272
f 1043 1047 1051
f 1043 1034 1047
f 1051 1046 1043
f 1046 1033 1043
f 1045 1038 1019
f 1055 1091 1058
f 1058 1023 1055
f 1058 1027 1023
f 1056 1027 1058
f 1058 1066 1056
f 1068 1050 1063
f 1050 1060 1063
f 1070 1063 1060
f 1091 1074 1070
f 1070 1074 1068
f 1068 1063 1070
f 978 1013 972
f 972 952 978
f 1107 1102 1105
f 1105 1119 1107
f 1107 1119 1102
f 1123 1119 1105
f 1123 1122 1138
f 1105 1122 1123
f 1129 1119 1123
f 981 969 950
f 1131 1145 1138
f 1138 1122 1131
f 1131 1122 1145
f 1086 1076 1082
f 1076 1074 1082
f 1098 1086 1082
f 1082 1074 1098
f 914 938 910
f 917 940 914
f 940 938 914
f 1003 974 1001
f 1001 1011 1003
f 1003 1019 974
f 1003 1011 1045
f 1045 1019 1003
f 993 960 970
f 970 960 954
f 932 954 934
f 934 912 932
f 912 779 932
f 772 779 774
f 774 735 772
f 657 663 641
f 641 663 647
f 647 663 661
f 716 718 661
f 661 663 716
f 407 414 402
f 407 409 414
f 402 397 407
f 407 397 409
f 476 472 465
f 465 521 474
f 472 521 465
f 439 456 445
f 445 427 439
f 439 427 428
f 585 563 575
f 525 561 575
f 575 563 525
f 561 573 597
f 611 599 597
f 208 245 209
f 209 181 208
f 208 181 180
f 358 245 208
f 303 270 298
f 298 326 303
f 303 326 351
f 51 25 49
f 51 49 63
f 63 79 51
f 185 186 175
f 175 190 185
f 185 190 186
f 167 182 147
f 147 163 167
f 146 163 147
f 147 182 123
f 123 125 147
f 125 146 147
f 199 241 252
f 191 241 199
f 270 203 261
f 261 252 298
f 298 270 261
f 261 199 252
f 203 199 261
f 180 203 224
f 224 203 270
f 224 208 180
f 510 494 496
f 496 494 469
f 496 469 301
f 588 544 301
f 301 644 588
f 644 624 588
f 544 588 542
f 671 650 652
f 652 650 628
f 570 568 604
f 473 464 459
f 459 455 473
f 471 520 475
f 558 568 554
f 429 432 412
f 466 471 475
f 466 464 473
f 466 459 464
f 455 459 466
f 473 520 466
f 520 471 466
f 516 506 533
f 533 514 516
f 516 514 506
f 506 537 535
f 533 506 535
f 502 506 483
f 491 508 485
f 468 491 485
f 483 479 461
f 479 457 461
f 468 485 461
f 461 485 483
f 422 468 461
f 461 457 448
f 522 550 564
f 550 576 564
f 564 650 558
f 98 107 121
f 107 136 121
f 89 98 112
f 112 113 89
f 149 113 112
f 112 138 149
f 112 119 138
f 235 239 206
f 206 239 214
f 206 234 235
f 206 205 234
f 109 205 206
f 117 109 206
f 206 214 117
f 265 212 216
f 216 212 220
f 216 247 265
f 220 247 216
f 415 418 430
f 415 404 418
f 406 404 415
f 401 404 406
f 406 398 401
f 395 404 401
f 884 901 829
f 829 825 884
f 829 919 837
f 829 901 919
f 839 830 826
f 838 830 839
f 996 838 839
f 839 826 813
f 813 825 839
f 839 829 837
f 825 829 839
f 995 996 839
f 839 968 995
f 837 949 839
f 839 949 968
f 995 953 980
f 953 969 980
f 950 924 931
f 918 942 931
f 918 931 909
f 909 931 924
f 909 901 884
f 909 924 901
f 944 924 950
f 944 969 953
f 950 969 944
f 953 930 944
f 944 930 919
f 919 924 944
f 1095 1114 1093
f 1093 1054 1095
f 1095 1054 1059
f 1018 1048 1049
f 1049 1061 1018
f 1026 1061 1057
f 1057 1061 1067
f 1057 1028 1026
f 1057 1059 1028
f 1057 1067 1059
f 1036 1032 1016
f 1016 1032 992
f 1016 1008 1036
f 982 1008 1016
f 1016 992 982
f 1006 1041 1014
f 1006 1032 1041
f 992 1032 1006
f 1014 973 1006
f 967 992 1006
f 1006 973 967
f 1132 1137 1146
f 1124 1106 1120
f 1120 1130 1124
f 1112 1130 1103
f 1103 1130 1120
f 1085 1112 1103
f 1103 1078 1085
f 1103 1106 1078
f 848 808 835
f 859 848 835
f 794 808 760
f 760 786 794
f 878 893 887
f 878 872 893
f 887 870 878
f 870 872 878
f 866 870 859
f 866 872 870
f 705 760 727
f 705 707 760
f 642 650 703
f 703 709 642
f 703 650 669
f 642 709 665
f 665 648 642
f 665 675 648
f 665 683 675
f 810 819 792
f 819 762 792
f 733 713 772
f 772 735 733
f 733 735 713
f 810 844 846
f 600 594 552
f 552 606 600
f 600 576 594
f 600 564 576
f 628 650 620
f 618 590 622
f 671 652 636
f 636 652 628
f 432 477 436
f 412 432 436
f 442 416 436
f 436 416 412
f 524 477 475
f 524 520 562
f 475 520 524
f 351 360 332
f 332 303 351
f 270 303 332
f 920 902 922
f 920 945 942
f 920 922 945
f 920 942 918
f 918 900 920
f 920 900 902
f 874 902 871
f 739 800 791
f 791 738 739
f 739 738 667
f 739 673 741
f 667 673 739
f 741 802 739
f 802 800 739
f 379 374 412
f 412 416 379
f 382 345 379
f 379 420 382
f 379 416 420
f 339 374 379
f 379 345 339
f 446 451 489
f 424 420 446
f 420 451 446
f 446 400 373
f 373 354 446
f 446 354 424
f 489 376 446
f 376 400 446
f 339 345 322
f 345 326 322
f 322 326 292
f 398 367 392
f 395 401 392
f 392 401 398
f 365 395 392
f 392 367 365
f 120 154 141
f 141 129 120
f 154 129 141
f 122 129 143
f 154 156 143
f 143 129 154
f 231 177 196
f 231 211 177
f 196 223 231
f 266 211 231
f 231 282 266
f 266 248 217
f 236 207 240
f 207 215 240
f 255 251 236
f 236 240 255
f 249 251 255
f 306 291 295
f 306 325 302
f 302 291 306
f 714 773 302
f 714 718 736
f 623 641 647
f 495 497 470
f 268 227 275
f 223 227 268
f 523 553 531
f 531 515 523
f 615 617 583
f 310 343 321
f 321 343 325
f 321 284 310
f 321 295 284
f 321 306 295
f 325 306 321
f 117 82 74
f 74 82 53
f 53 82 47
f 98 60 47
f 47 82 98
f 60 37 47
f 117 130 102
f 102 82 117
f 130 82 102
f 54 75 73
f 73 75 78
f 101 75 118
f 118 110 101
f 78 75 101
f 101 99 78
f 101 110 99
f 155 153 142
f 142 136 155
f 142 121 136
f 12 37 9
f 9 8 12
f 12 47 37
f 40 47 12
f 22 39 46
f 28 39 22
f 22 8 28
f 48 38 59
f 46 39 48
f 13 38 48
f 48 39 13
f 81 54 48
f 54 46 48
f 48 97 81
f 48 59 97
f 30 38 10
f 30 35 38
f 10 18 30
f 18 35 30
f 36 17 29
f 36 33 17
f 55 33 36
f 29 37 36
f 37 55 36
f 228 188 179
f 158 148 172
f 168 148 183
f 289 286 242
f 242 253 289
f 289 253 293
f 289 293 317
f 289 317 314
f 314 286 289
f 232 238 279
f 238 286 279
f 284 232 279
f 310 284 279
f 279 312 310
f 314 312 279
f 279 286 314
f 271 278 304
f 262 204 271
f 271 204 225
f 271 299 262
f 304 299 271
f 307 278 287
f 300 315 297
f 297 315 296
f 244 225 209
f 244 271 225
f 278 271 244
f 330 315 331
f 331 355 330
f 330 355 353
f 353 329 330
f 296 315 308
f 307 287 308
f 308 287 296
f 308 329 307
f 308 330 329
f 315 330 308
f 15 7 2
f 2 11 15
f 2 3 6
f 6 3 20
f 20 25 6
f 133 92 105
f 105 116 133
f 92 88 105
f 88 116 105
f 959 946 943
f 831 830 943
f 943 838 959
f 943 830 838
f 937 951 957
f 957 963 939
f 939 937 957
f 957 951 988
f 990 963 957
f 957 988 990
f 988 951 979
f 979 951 973
f 1014 988 979
f 979 973 1014
f 785 784 761
f 785 797 784
f 761 809 795
f 809 797 795
f 795 785 761
f 797 785 795
f 822 809 834
f 834 797 822
f 822 797 809
f 864 867 873
f 886 877 873
f 873 877 864
f 873 879 886
f 867 879 873
f 898 886 894
f 886 879 894
f 894 911 898
f 888 879 869
f 888 860 883
f 869 860 888
f 908 911 888
f 888 883 908
f 911 894 888
f 888 894 879
f 923 946 927
f 849 853 883
f 883 860 849
f 849 860 834
f 834 809 849
f 809 853 849
f 696 706 698
f 698 702 666
f 698 684 696
f 666 684 698
f 1009 983 985
f 985 983 954
f 954 932 985
f 985 779 974
f 985 932 779
f 1080 1058 1091
f 1066 1058 1080
f 1091 1070 1080
f 1080 1060 1066
f 1080 1070 1060
f 952 956 987
f 987 978 952
f 987 956 989
f 989 1017 987
f 1017 1013 987
f 1013 978 987
f 1138 1139 1134
f 1134 1123 1138
f 1139 1129 1134
f 1129 1123 1134
f 958 981 950
f 950 931 958
f 958 931 942
f 942 945 958
f 954 983 976
f 976 970 954
f 976 983 993
f 993 970 976
f 657 641 639
f 639 637 657
f 639 617 637
f 463 465 474
f 435 465 456
f 456 439 435
f 435 428 433
f 435 439 428
f 593 575 561
f 561 597 593
f 593 597 599
f 599 585 593
f 585 575 593
f 611 597 613
f 613 597 573
f 613 573 603
f 655 649 613
f 613 649 611
f 613 627 655
f 603 627 613
f 93 123 85
f 123 91 85
f 85 79 93
f 85 51 79
f 144 199 203
f 358 208 356
f 362 358 356
f 356 360 362
f 356 332 360
f 270 332 356
f 510 496 512
f 512 542 510
f 544 542 512
f 301 544 512
f 512 496 301
f 546 508 510
f 510 542 546
f 590 582 546
f 546 582 537
f 586 542 588
f 586 624 622
f 586 588 624
f 622 590 586
f 590 546 586
f 586 546 542
f 556 578 562
f 556 570 578
f 562 520 556
f 520 554 556
f 568 570 556
f 556 554 568
f 558 554 518
f 518 554 520
f 518 520 473
f 518 564 558
f 473 522 518
f 522 564 518
f 410 429 412
f 369 398 410
f 412 374 410
f 410 374 369
f 444 455 438
f 430 444 438
f 438 429 430
f 475 432 453
f 453 466 475
f 566 535 537
f 537 582 566
f 566 552 533
f 533 535 566
f 566 606 552
f 504 485 508
f 508 546 504
f 504 546 537
f 504 537 506
f 506 502 504
f 504 502 483
f 483 485 504
f 440 448 422
f 422 461 440
f 440 461 448
f 98 121 106
f 106 121 119
f 106 112 98
f 119 112 106
f 140 119 128
f 119 121 128
f 121 142 128
f 128 153 140
f 128 142 153
f 969 981 1007
f 1007 980 969
f 1007 981 1015
f 1020 995 1007
f 995 980 1007
f 1007 1035 1020
f 1007 1015 1035
f 899 909 884
f 899 856 863
f 899 884 856
f 863 900 899
f 918 909 899
f 899 900 918
f 1116 1114 1099
f 1114 1095 1099
f 1087 1116 1099
f 1061 1049 1062
f 1077 1041 1087
f 1048 1041 1077
f 1140 1137 1135
f 1137 1124 1135
f 1135 1130 1140
f 1135 1124 1130
f 1137 1132 1121
f 1121 1124 1137
f 1121 1114 1116
f 1116 1106 1121
f 1106 1124 1121
f 1118 1114 1121
f 1142 1118 1121
f 1121 1146 1142
f 1121 1132 1146
f 1120 1106 1108
f 1108 1103 1120
f 1106 1103 1108
f 821 835 808
f 796 794 786
f 835 821 796
f 808 794 796
f 796 821 808
f 727 689 699
f 699 705 727
f 689 683 699
f 707 705 697
f 683 665 697
f 701 665 709
f 701 697 665
f 725 707 701
f 707 697 701
f 798 762 819
f 819 789 798
f 798 789 762
f 819 835 783
f 783 789 819
f 835 796 783
f 783 796 786
f 783 786 760
f 760 762 783
f 762 789 783
f 832 819 810
f 810 846 832
f 832 835 819
f 861 844 889
f 861 846 844
f 861 832 846
f 777 889 842
f 842 782 777
f 889 844 842
f 842 844 810
f 608 600 606
f 608 620 650
f 606 620 608
f 650 564 608
f 564 600 608
f 616 618 638
f 638 636 616
f 616 582 590
f 590 618 616
f 644 658 646
f 658 660 646
f 622 624 646
f 646 624 644
f 766 782 787
f 782 842 787
f 723 745 721
f 721 687 723
f 766 751 768
f 777 782 768
f 768 782 766
f 713 735 717
f 717 658 713
f 717 660 658
f 753 751 766
f 753 745 723
f 766 745 753
f 574 524 562
f 500 451 442
f 498 451 500
f 548 539 498
f 498 500 548
f 630 539 548
f 524 574 560
f 840 836 384
f 874 871 841
f 791 800 841
f 841 840 791
f 871 840 841
f 902 900 868
f 868 871 902
f 868 840 871
f 868 900 863
f 863 836 868
f 836 840 868
f 339 322 316
f 316 337 339
f 313 337 316
f 288 313 316
f 316 292 288
f 316 322 292
f 122 143 137
f 131 108 137
f 137 108 122
f 137 156 131
f 137 143 156
f 302 282 260
f 282 231 260
f 260 231 223
f 213 211 266
f 266 217 213
f 198 211 213
f 219 240 215
f 248 240 219
f 219 215 198
f 198 213 219
f 264 240 248
f 264 255 240
f 249 255 264
f 302 645 659
f 659 714 302
f 718 714 659
f 659 661 718
f 659 645 647
f 647 661 659
f 773 714 734
f 736 773 734
f 734 714 736
f 302 497 513
f 513 545 302
f 543 545 513
f 589 645 302
f 302 545 589
f 589 545 543
f 641 623 619
f 617 639 619
f 619 639 641
f 277 275 302
f 277 268 275
f 302 260 277
f 223 268 277
f 277 260 223
f 515 531 534
f 534 531 553
f 538 583 547
f 547 505 538
f 484 505 486
f 486 467 462
f 462 484 486
f 53 47 45
f 45 47 40
f 54 53 45
f 45 46 54
f 45 22 46
f 40 12 27
f 27 45 40
f 22 45 27
f 27 12 8
f 8 22 27
f 189 232 228
f 228 179 189
f 189 179 174
f 158 172 170
f 170 188 158
f 170 179 188
f 174 179 170
f 170 172 174
f 174 172 173
f 173 172 148
f 269 287 278
f 296 287 269
f 269 297 296
f 269 246 300
f 300 297 269
f 16 15 11
f 180 181 16
f 26 7 42
f 7 15 42
f 42 52 26
f 42 58 52
f 14 16 11
f 14 11 2
f 2 6 14
f 881 875 906
f 906 923 927
f 906 927 908
f 908 883 906
f 883 881 906
f 831 923 904
f 904 823 831
f 875 823 904
f 904 906 875
f 923 906 904
f 921 943 946
f 946 923 921
f 831 943 921
f 921 923 831
f 708 698 706
f 708 761 763
f 708 706 761
f 702 698 708
f 974 1019 999
f 999 985 974
f 1009 985 999
f 999 1038 1009
f 999 1019 1038
f 966 958 945
f 966 947 972
f 966 945 947
f 966 972 1005
f 456 465 460
f 465 463 460
f 474 456 460
f 460 463 474
f 454 435 433
f 465 435 454
f 454 433 476
f 476 465 454
f 151 203 180
f 151 144 203
f 151 115 144
f 61 115 151
f 180 43 151
f 43 61 151
f 191 199 132
f 199 144 132
f 123 182 132
f 132 182 191
f 132 91 123
f 144 115 132
f 104 91 132
f 132 115 104
f 208 224 243
f 243 356 208
f 243 224 270
f 270 356 243
f 429 410 408
f 408 398 406
f 408 410 398
f 430 429 408
f 406 415 408
f 408 415 430
f 434 453 432
f 432 429 434
f 429 438 434
f 434 438 455
f 455 466 434
f 466 453 434
f 1087 1099 1083
f 1083 1099 1075
f 1083 1077 1087
f 1075 1077 1083
f 1075 1099 1071
f 1061 1062 1071
f 1090 1095 1059
f 1090 1099 1095
f 1090 1071 1099
f 1069 1062 1049
f 1069 1077 1075
f 1075 1071 1069
f 1069 1071 1062
f 1069 1049 1048
f 1048 1077 1069
f 691 699 683
f 705 699 691
f 671 723 681
f 723 687 681
f 681 669 671
f 711 709 725
f 725 701 711
f 711 701 709
f 857 866 859
f 857 861 866
f 832 861 857
f 859 835 857
f 835 832 857
f 614 636 628
f 614 616 636
f 606 566 614
f 614 566 582
f 582 616 614
f 628 620 614
f 614 620 606
f 640 618 622
f 622 646 640
f 638 618 640
f 827 842 810
f 827 787 842
f 693 721 703
f 687 721 693
f 693 681 687
f 693 703 669
f 669 681 693
f 764 721 745
f 703 721 764
f 709 703 764
f 764 745 766
f 766 787 764
f 810 792 764
f 764 792 762
f 764 762 709
f 777 768 770
f 770 779 777
f 770 774 779
f 660 717 715
f 719 753 723
f 562 578 584
f 584 574 562
f 477 524 528
f 442 436 487
f 487 500 442
f 580 548 526
f 526 548 500
f 500 528 526
f 596 560 592
f 592 560 574
f 574 584 592
f 642 648 610
f 610 604 642
f 634 679 673
f 673 626 634
f 634 626 679
f 632 548 580
f 580 626 632
f 630 548 632
f 632 673 630
f 632 626 673
f 384 737 776
f 776 840 384
f 791 840 776
f 776 738 791
f 776 737 738
f 874 841 850
f 850 841 800
f 854 874 850
f 850 800 854
f 221 217 248
f 248 219 221
f 221 213 217
f 221 219 213
f 273 248 266
f 273 264 248
f 273 266 302
f 273 773 1002
f 302 773 273
f 1002 1034 273
f 1034 1043 273
f 273 1043 272
f 273 272 249
f 249 264 273
f 543 513 511
f 511 547 543
f 497 495 511
f 511 513 497
f 645 589 625
f 647 645 625
f 625 623 647
f 587 589 543
f 543 547 587
f 623 625 587
f 587 625 589
f 591 583 617
f 617 619 591
f 591 547 583
f 591 587 547
f 591 619 623
f 623 587 591
f 567 534 553
f 567 583 538
f 615 583 567
f 567 607 615
f 553 607 567
f 505 547 509
f 509 486 505
f 547 511 509
f 74 77 100
f 100 109 117
f 117 74 100
f 100 99 109
f 100 77 99
f 78 99 76
f 99 77 76
f 72 74 53
f 72 77 74
f 184 173 168
f 184 168 183
f 184 189 174
f 174 173 184
f 183 232 184
f 232 189 184
f 148 168 164
f 164 173 148
f 168 173 164
f 278 244 256
f 256 269 278
f 246 269 256
f 209 246 256
f 256 244 209
f 87 91 104
f 104 115 87
f 87 115 61
f 51 85 57
f 57 85 91
f 91 87 57
f 57 87 61
f 24 16 181
f 15 16 24
f 62 88 58
f 58 42 62
f 152 116 62
f 62 116 88
f 23 14 43
f 16 14 23
f 23 43 180
f 180 16 23
f 43 14 41
f 41 6 25
f 41 14 6
f 25 51 41
f 51 57 41
f 41 61 43
f 41 57 61
f 726 708 763
f 702 708 726
f 763 710 726
f 981 958 991
f 958 966 991
f 1015 981 991
f 991 966 1005
f 1005 1031 991
f 1031 1015 991
f 1059 1067 1081
f 1081 1090 1059
f 1071 1090 1081
f 1067 1061 1081
f 1061 1071 1081
f 695 697 705
f 705 691 695
f 683 697 695
f 695 691 683
f 893 872 885
f 872 866 865
f 866 861 865
f 865 885 872
f 876 885 865
f 865 861 889
f 662 646 660
f 662 640 646
f 660 715 662
f 804 827 810
f 787 827 804
f 810 764 804
f 804 764 787
f 735 774 747
f 747 770 735
f 774 770 747
f 656 715 751
f 656 662 715
f 751 753 656
f 753 719 656
f 656 636 638
f 638 640 656
f 640 662 656
f 671 636 656
f 656 723 671
f 656 719 723
f 735 770 749
f 749 717 735
f 749 715 717
f 751 715 749
f 749 768 751
f 749 770 768
f 596 610 612
f 612 610 648
f 481 436 477
f 481 487 436
f 500 487 481
f 477 528 481
f 481 528 500
f 596 592 598
f 598 592 584
f 598 610 596
f 598 584 578
f 604 610 598
f 598 570 604
f 578 570 598
f 515 534 517
f 536 567 538
f 534 567 536
f 486 509 492
f 467 486 492
f 492 511 495
f 492 509 511
f 470 467 492
f 492 495 470
f 71 76 77
f 77 72 71
f 71 72 53
f 71 53 54
f 54 73 71
f 71 73 78
f 78 76 71
f 44 181 152
f 44 24 181
f 152 62 44
f 44 62 42
f 44 42 15
f 15 24 44
f 710 702 712
f 712 726 710
f 702 726 712
f 893 885 897
f 910 893 897
f 897 914 910
f 891 865 889
f 876 865 891
f 891 912 917
f 891 889 912
f 580 526 572
f 572 526 528
f 524 560 572
f 572 528 524
f 572 560 596
f 596 612 572
f 654 612 648
f 648 675 654
f 675 677 654
f 677 679 654
f 679 626 654
f 626 612 654
f 534 536 507
f 507 517 534
f 515 517 507
f 480 515 507
f 538 505 507
f 507 536 538
f 507 484 480
f 895 885 876
f 895 897 885
f 876 891 895
f 895 891 917
f 917 914 895
f 914 897 895
f 602 626 580
f 580 572 602
f 602 612 626
f 602 572 612
f 503 505 484
f 484 507 503
f 503 507 505
