v -0.2004505396 -0.1243582517 0.2077146322
v -0.2004504949 0.1243593544 0.2077146024
v -0.2003939301 -0.1279445589 0.2080357224
v -0.2003938854 0.1279456317 0.2080356777
v -0.2003925741 -0.1243752614 0.2073236257
v -0.2003925145 0.1243763641 0.2073235959
v -0.200334996 -0.1280218512 0.2076501101
v -0.2003349364 0.1280229241 0.2076500654
v -0.2002276033 -0.1308181882 0.2089790255
v -0.2002275437 0.1308192611 0.2089790106
v -0.2001631856 -0.1309902668 0.2086245418
v -0.200163126 0.1309913397 0.208624512
v -0.1999541819 -0.133022517 0.2105296403
v -0.1999541223 0.1330235898 0.2105296105
v -0.1998777688 -0.1332913339 0.2102431953
v -0.1998777092 0.1332924068 0.2102431655
v -0.1995714009 -0.1345970482 0.2127004862
v -0.1995713413 0.134598121 0.2127004713
v -0.1994781941 -0.1349349767 0.2125093192
v -0.1994781196 0.1349360496 0.2125093043
v -0.1991188526 -0.1350476146 0.2123877108
v -0.199118793 0.1350486875 0.2123876959
v -0.1990724057 -0.1355549097 0.2155304551
v -0.1990723461 0.1355559975 0.2155304402
v -0.1989627331 -0.1359244287 0.215432629
v -0.1989626735 0.1359255165 0.2154326141
v -0.198597908 -0.1360476017 0.2153421342
v -0.1985978484 0.1360486895 0.2153421193
v -0.1984496564 -0.1358809471 0.2190622687
v -0.1984495968 0.1358820349 0.2190622389
v -0.1983295083 -0.1362559497 0.2190238088
v -0.1983294487 0.1362570226 0.219023779
v -0.1979611963 -0.1363809407 0.2189531028
v -0.1979611367 0.1363820285 0.218953073
v -0.172592476 -0.1358809769 0.3657055795
v -0.1725924164 0.1358820051 0.3657055497
v -0.1724664122 -0.1362559795 0.3657006323
v -0.1724663526 0.1362569928 0.3657006025
v -0.1720961332 -0.1363809705 0.3656410873
v -0.1720960736 0.1363819987 0.3656410575
v -0.1719697118 -0.1355549395 0.3692373931
v -0.1719696522 0.1355559677 0.3692373633
v -0.1718331873 -0.1359244585 0.3692918122
v -0.1718331277 0.1359254867 0.3692917824
v -0.1714707166 -0.134597078 0.3720673621
v -0.171470657 0.1345981061 0.3720673323
v -0.1714594215 -0.1360476315 0.3692520559
v -0.1714593619 0.1360486597 0.3692520261
v -0.1713177264 -0.1349350065 0.372215122
v -0.1713176817 0.1349360347 0.3722150922
v -0.1710879356 -0.1330225468 0.374238193
v -0.171087876 0.13302356 0.3742381632
v -0.170938462 -0.1350476444 0.3722064793
v -0.1709384173 0.1350486726 0.3722064495
v -0.1709181517 -0.1332913637 0.374481231
v -0.1709180921 0.133292377 0.3744812012
v -0.1708145291 -0.130818218 0.3757888079
v -0.1708144695 0.1308192164 0.3757887781
v -0.1706481874 -0.1279445887 0.376732111
v -0.1706481278 0.1279456019 0.376732111
v -0.1706327349 -0.1309902966 0.3760998845
v -0.1706326902 0.130991295 0.3760998845
v -0.1705915779 -0.1243582889 0.3770532012
v -0.1705915183 0.1243593171 0.3770531714
v -0.1705332994 -0.1333809793 0.3745043576
v -0.1705332398 0.1333819926 0.3745043278
v -0.1704609245 -0.128021881 0.377074331
v -0.1704608649 0.1280228943 0.3770743012
v -0.1704033613 -0.1243752986 0.3774008155
v -0.1704033017 0.1243763268 0.3774007857
v -0.1090423465 6.679611864e-10 -0.01528117061
v -0.1072860956 -0.01996063441 -0.01529300306
v -0.1072860956 0.01996063441 -0.0152930012
v -0.1027197838 -0.03746727109 -0.01525493897
v -0.1027197838 0.03746727109 -0.01525493525
v -0.09462034702 -0.05530318618 -0.0151894046
v -0.09462034702 0.05530318618 -0.01518939901
v -0.08201742172 -0.07319790125 -0.01520497631
v -0.08201742172 0.07319790125 -0.01520497072
v -0.06656956673 -0.08799642324 -0.01522656158
v -0.06656956673 0.08799642324 -0.01522655413
v -0.05829849839 0.1511228532 0.3828817606
v -0.05829810351 -0.1511223465 0.3828810453
v -0.05502317846 -0.1539015025 0.3743989766
v -0.05502317846 0.1539014727 0.3743989766
v -0.04972454906 -0.09895890951 -0.01518077124
v -0.04972454906 0.09895890951 -0.01518076193
v -0.04745087028 -8.665671913e-08 0.5508128405
v -0.04710525274 0.1515511423 0.3878584504
v -0.04706151411 -0.1514550298 0.3877448738
v -0.04649211094 -0.1637150049 0.3101683259
v -0.04649211094 0.1637149751 0.3101683259
v -0.04648533463 -0.01290241349 0.5503290892
v -0.04648533463 0.01290223468 0.5503290892
v -0.04470471293 -0.164200455 0.3206053972
v -0.04470471293 0.1642004251 0.3206053972
v -0.0439311415 -0.1547112018 0.3788512349
v -0.0439311415 0.154711172 0.3788512349
v -0.04358219355 -0.1641948819 0.3102380335
v -0.04358219355 0.1641948521 0.3102380335
v -0.04213481024 -0.02685130574 0.5488509536
v -0.04213481024 0.02685112692 0.5488509536
v -0.04202112556 -0.1639623642 0.2972359359
v -0.04202112556 0.1639623344 0.2972359359
v -0.04189286008 -0.1646536887 0.320102483
v -0.04189286008 0.1646536589 0.320102483
v -0.04109840468 -0.1642196923 0.3310607374
v -0.04109840468 0.1642196625 0.3310607374
v -0.03848441318 -0.164671883 0.3299841881
v -0.03848441318 0.1646718532 0.3299841881
v -0.0376602523 -0.1635733098 0.2858166993
v -0.0376602523 0.16357328 0.2858166993
v -0.03636780381 -0.16395998 0.33952263
v -0.03636780381 0.1639599502 0.33952263
v -0.03401335701 -0.1644264162 0.3379818201
v -0.03401335701 0.1644263864 0.3379818201
v -0.03215875477 -0.1619285643 0.2718881667
v -0.03215875477 0.1619285345 0.2718881667
v -0.03106199205 -0.1637123376 0.345829159
v -0.03106199205 0.1637123078 0.345829159
v -0.03003524058 -0.1625064462 0.2740581334
v -0.03003524058 0.1625064164 0.2740581334
v -0.02975142002 -0.1072440147 -0.0152663039
v -0.02975142002 0.1072440147 -0.01526629459
v -0.02959234454 -0.03871755302 0.5459204912
v -0.02959234454 0.03871737421 0.5459204912
v -0.02917414904 -8.849406186e-08 0.5661855936
v -0.02899865247 -0.1641923636 0.3439423442
v -0.02899865247 0.1641923338 0.3439423442
v -0.02895786613 -0.151548788 0.3922519386
v -0.02895786613 0.1515487581 0.3922519386
v -0.02823744714 -0.008836510591 0.5661346912
v -0.02823744714 0.008836326189 0.5661346912
v -0.02728032693 -0.1544613242 0.3828954995
v -0.02728020027 0.1544676274 0.3828964829
v -0.02498376369 -0.1633121967 0.3511998355
v -0.02498376369 0.1633121669 0.3511998355
v -0.0249723345 -0.01551306527 0.5655078888
v -0.0249723345 0.01551288087 0.5655078888
v -0.02325390652 -0.1638141721 0.3490183353
v -0.02325390652 0.1638141423 0.3490183353
v -0.01935824007 -0.02083331533 0.5642400384
v -0.01935824007 0.02083313279 0.5642400384
v -0.01777029969 -0.1616806686 0.2644696832
v -0.01777029969 0.1616806388 0.2644696832
v -0.01511072274 -0.1624471098 0.3576006591
v -0.01511072274 0.16244708 0.3576006591
v -0.01392255165 -0.1629965454 0.3550679982
v -0.01392255165 0.1629965156 0.3550679982
v -0.01162222773 -0.1503318101 0.3939437568
v -0.01162222773 0.1503317803 0.3939437568
v -0.01101665758 -0.04088930786 0.5414634943
v -0.01101665758 0.04088912904 0.5414634943
v -0.01049830019 -0.1111264825 -0.01522048283
v -0.01049830019 0.1111264825 -0.01522047352
v -0.009886860847 -0.02209542878 0.5625491142
v -0.009886860847 0.02209524624 0.5625491142
v -0.00532153761 -0.1605717093 0.259121865
v -0.00532153761 0.1605716795 0.259121865
v -0.003911762033 -0.1613526046 0.3616082966
v -0.003911762033 0.1613525748 0.3616082966
v -0.003338021692 -0.1619620919 0.3588557541
v -0.003338021692 0.1619620621 0.3588557541
v 0.002859178931 -0.01829800941 0.5599887967
v 0.002859178931 0.01829782687 0.5599887967
v 0.006043024361 -0.03557768092 0.5378420949
v 0.006043024361 0.0355775021 0.5378420949
v 0.008241005242 -0.1118621826 -0.01523560751
v 0.008241005242 0.1118621826 -0.0152355982
v 0.008247148246 -0.1483388096 0.3928854764
v 0.008247148246 0.1483387798 0.3928854764
v 0.008370490745 -0.1590485424 0.2572780848
v 0.008370490745 0.1590485126 0.2572780848
v 0.008385065943 -0.1606460661 0.3599061072
v 0.008385065943 0.1606460363 0.3599061072
v 0.008491851389 -0.1599601805 0.3627196252
v 0.008491851389 0.1599601507 0.3627196252
v 0.01172997057 -0.01352734305 0.5582481623
v 0.01172997057 0.01352716051 0.5582481623
v 0.01732689142 -0.008052171208 0.557118237
v 0.01732689142 0.008051990531 0.557118237
v 0.02029177547 -8.732445167e-08 0.5563996434
v 0.02071856521 -0.1579547226 0.2595534325
v 0.02071856521 0.1579546928 0.2595534325
v 0.0207259506 -0.02758381143 0.5364940763
v 0.0207259506 0.02758363634 0.5364940763
v 0.02361578308 -0.1589134187 0.3570210338
v 0.02361578308 0.1589133888 0.3570210338
v 0.02460671403 -0.1581269503 0.3596670926
v 0.02460671403 0.1581269205 0.3596670926
v 0.02649843693 -0.1087695956 -0.01530986745
v 0.02649843693 0.1087695956 -0.01530985814
v 0.02656427771 -0.1450033337 0.3887412846
v 0.02656427771 0.1450033039 0.3887412846
v 0.0338207297 -0.1576178372 0.3521763086
v 0.0338207297 0.1576178074 0.3521763086
v 0.03398000821 -0.1566951573 0.2656700015
v 0.03398000821 0.1566951275 0.2656700015
v 0.03402301669 -0.01663097553 0.5354935527
v 0.03402301669 0.01663080044 0.5354935527
v 0.03540405631 -0.1567561626 0.3545411229
v 0.03540405631 0.1567561328 0.3545411229
v 0.03804316744 -0.1520822197 0.363009572
v 0.03804316744 0.1520821899 0.363009572
v 0.03937336802 -8.462542667e-08 0.5338172317
v 0.04204276204 -0.1557781398 0.2718255222
v 0.04204276204 0.15577811 0.2718255222
v 0.04278644919 -0.1413573921 0.3826950788
v 0.04278644919 0.1413573623 0.3826950788
v 0.04357326031 -0.1565187275 0.3437117338
v 0.04357326031 0.1565186977 0.3437117338
v 0.04410337657 -0.1548096687 0.269525975
v 0.04410337657 0.1548096389 0.269525975
v 0.04507693648 -0.102530241 -0.01531989593
v 0.04507693648 0.102530241 -0.01531988662
v 0.04572272301 -0.1555932462 0.3455851674
v 0.04572272301 0.1555932164 0.3455851674
v 0.04943951219 -0.1550516337 0.281118542
v 0.04943951219 0.1550516039 0.281118542
v 0.05021260679 -0.1556315422 0.3348099589
v 0.05021260679 0.1556315124 0.3348099589
v 0.05058199167 -0.1497834474 0.3544724286
v 0.05058199167 0.1497834176 0.3544724286
v 0.05192951113 -0.1540409923 0.2793584466
v 0.05192951113 0.1540409625 0.2793584466
v 0.05274748057 -0.1546545625 0.3361666501
v 0.05274748057 0.1546545327 0.3361666501
v 0.05422499031 -0.1550977379 0.326043278
v 0.05422499031 0.1550977081 0.326043278
v 0.05467893183 -0.1545710117 0.2924974859
v 0.05467893183 0.1545709819 0.2924974859
v 0.0566107966 -0.1546970904 0.3171083629
v 0.0566107966 0.1546970606 0.3171083629
v 0.05699278414 -0.1540897787 0.3268910646
v 0.05699278414 0.1540897489 0.3268910646
v 0.0573499985 -0.1543711126 0.3042357564
v 0.0573499985 0.1543710828 0.3042357564
v 0.05747307837 -0.1535324752 0.2913979292
v 0.05747307837 0.1535324454 0.2913979292
v 0.05951708555 -0.1536658704 0.31743747
v 0.05951708555 0.1536658406 0.31743747
v 0.06016894802 -0.1477365196 0.3449860811
v 0.06016894802 0.1477364898 0.3449860811
v 0.06029919907 -0.1533209682 0.3038176298
v 0.06029919907 0.1533209383 0.3038176298
v 0.06063142791 -0.1375062466 0.3719140887
v 0.06063184142 0.1375065297 0.371914506
v 0.06231760979 -0.0930314362 -0.01531606168
v 0.06231760979 0.0930314362 -0.01531605422
v 0.06759370118 -0.1458316147 0.3345465064
v 0.06759370118 0.1458315849 0.3345465064
v 0.07366105914 -0.1339072734 0.3611958921
v 0.07366105914 0.1339072436 0.3611958921
v 0.07366603613 -0.1436510384 0.3223869801
v 0.07366603613 0.1436510086 0.3223869801
v 0.07925003767 -0.07909233868 -0.01522989199
v 0.07925003767 0.07909233868 -0.01522988454
v 0.07945714891 -0.1399440467 0.305960685
v 0.07945714891 0.1399440169 0.305960685
v 0.0840459913 -0.1311814785 0.3491823375
v 0.08404803276 0.1311832815 0.3491833806
v 0.08472666144 -0.1361095011 0.3026060462
v 0.08472666144 0.1361094415 0.302606076
v 0.08690190315 -0.1346022189 0.3031448424
v 0.08789244294 0.1206035018 0.3532142639
v 0.08789468557 -0.1205964312 0.3532183766
v 0.09003286809 -0.1320831627 0.2981670797
v 0.09003286809 0.1320831031 0.2981671095
v 0.09313564748 -0.1281725764 0.335075587
v 0.09315186739 0.1281840056 0.3350823224
v 0.09323611856 -0.06200359762 -0.0152984811
v 0.09323611856 0.06200359762 -0.01529847551
v 0.09819094092 -0.1168271601 0.338719517
v 0.0982471332 0.1168681234 0.338768959
v 0.09984344244 0.1251096278 0.3207267821
v 0.09985046089 -0.1251159906 0.3207285702
v 0.1024991646 0.1053476408 0.3432727754
v 0.1025499403 -0.1053475216 0.3433267772
v 0.1032299101 -0.04355622455 -0.01526424475
v 0.1032299101 0.04355622455 -0.01526424102
v 0.1047642604 -0.1220456883 0.3031765521
v 0.1047702432 0.1220506877 0.3031770289
v 0.1049017236 0.1181042045 0.268086046
v 0.1049363017 -0.1181328446 0.2680783868
v 0.1057805419 -0.09245119244 0.3483932614
v 0.1057878584 0.09247573465 0.3483570814
v 0.1061348617 -0.1199774891 0.2864677906
v 0.1061348617 0.1199774593 0.2864677906
v 0.106521152 -0.1136652678 0.3231290281
v 0.1065257788 0.1136742458 0.3231434226
v 0.1096877754 -0.02257342078 -0.01524780784
v 0.1096877754 0.02257342078 -0.01524780598
v 0.1121238768 6.693840482e-10 -0.01531372219
v 0.1122879833 0.1013987437 0.3265168965
v 0.1123305187 -0.1013957411 0.3265387118
v 0.1125043854 0.1103499979 0.3056625128
v 0.1125267968 -0.1103544533 0.3056390285
v 0.1151516736 0.1046232581 0.2693502009
v 0.1151556224 -0.1046129689 0.2693431973
v 0.1155028418 -0.1069221571 0.287547946
v 0.1155232787 0.1069573089 0.2875794172
v 0.1174301207 0.08759558946 0.3303692043
v 0.1174373403 -0.08758196235 0.3303862512
v 0.1196013913 0.0976042971 0.3082542717
v 0.1196609661 -0.09762245417 0.3082520962
v 0.1214305684 -0.07264075428 0.334672451
v 0.1214356199 0.07264926285 0.3346581459
v 0.1227494627 -0.08896967769 0.2531003952
v 0.1238216907 0.09385599941 0.2892064452
v 0.1238460988 -0.09385175258 0.2892178297
v 0.1241711527 -0.05527187511 0.3384837508
v 0.1241879314 0.05526451766 0.3384564519
v 0.1245175004 0.09059347957 0.2703997195
v 0.1246284768 -0.09063804895 0.270405829
v 0.1258871555 0.08355320245 0.3109615445
v 0.1259032041 -0.08355028927 0.3109671772
v 0.1281200051 -0.03663304821 0.3385094106
v 0.1281359792 0.03658348694 0.3384957314
v 0.1306864768 -0.01837840863 0.3374597728
v 0.1306975484 0.01827023178 0.3374589086
v 0.1310436577 0.06852447242 0.3135997653
v 0.1310450137 -0.0685378015 0.3136096001
v 0.1312312484 0.07938013226 0.2908605337
v 0.1312394291 -0.07937408239 0.2908456922
v 0.131445542 -9.733608022e-05 0.3370780349
v 0.1333095729 -0.07062190026 0.2542884946
v 0.1333095729 0.07062188536 0.2542884946
v 0.1337137967 0.07349306345 0.2703308463
v 0.1337563396 -0.07349336892 0.2703295052
v 0.1345800459 -0.05237355456 0.31565997
v 0.1346213818 0.0523397848 0.3156544864
v 0.1366575509 -0.06613563746 0.2656133473
v 0.1366586685 0.06613607705 0.2656132579
v 0.1366959959 0.06449332088 0.2924181521
v 0.1367019117 -0.06450289488 0.292414546
v 0.1375894248 -0.03513262793 0.3163017035
v 0.1376006603 0.03506250679 0.3162918091
v 0.1394104362 -0.05934064463 0.2707658708
v 0.1394104362 0.05934062228 0.2707658708
v 0.1394596398 -0.01769508235 0.316336751
v 0.1394715756 0.01756944507 0.3163352609
v 0.1401304305 -0.0001263834856 0.3162033558
v 0.1406247467 -0.04933837801 0.2939365804
v 0.1406430006 0.04931961372 0.2939222157
v 0.1427913308 -0.04657061771 0.272464633
v 0.1427918226 0.0465708971 0.2724645734
v 0.1434080303 -0.03298216313 0.294647187
v 0.1434590518 0.03291571513 0.294644177
v 0.1449979097 -0.01664742455 0.2948578596
v 0.1450034827 0.01656378433 0.294852823
v 0.1455948949 -0.02992558107 0.2733210921
v 0.1455957144 0.02992569655 0.2733210325
v 0.1455970109 -7.69309263e-05 0.2948467433
v 0.1469553709 -0.01545493025 0.2735722363
v 0.1469554603 0.01545481477 0.2735722661
v 0.1477333307 -1.197258825e-08 0.2739008963
f 89 126 131
f 131 98 89
f 98 82 89
f 48 82 98
f 48 89 82
f 87 124 81
f 81 124 73
f 87 81 20
f 272 249 257
f 83 47 97
f 35 4 29
f 43 47 49
f 70 69 88
f 101 93 61
f 205 182 199
f 199 306 205
f 126 89 54
f 54 48 50
f 89 48 54
f 66 54 50
f 126 54 66
f 145 159 169
f 198 211 229
f 106 96 110
f 100 96 106
f 106 104 100
f 40 96 34
f 34 32 40
f 100 104 34
f 34 104 28
f 129 145 110
f 159 145 129
f 98 120 85
f 85 48 98
f 120 48 85
f 114 48 120
f 120 129 114
f 169 124 155
f 155 124 28
f 155 145 169
f 73 124 192
f 192 124 169
f 28 124 22
f 22 124 87
f 87 20 22
f 16 20 81
f 16 81 79
f 79 77 16
f 75 77 79
f 79 81 75
f 75 81 73
f 239 237 245
f 239 245 288
f 283 257 249
f 249 239 283
f 283 239 288
f 272 257 283
f 47 83 90
f 90 97 130
f 90 83 97
f 152 170 193
f 132 93 101
f 127 88 132
f 88 93 132
f 183 191 197
f 222 201 216
f 130 146 160
f 160 146 162
f 130 97 134
f 134 146 130
f 97 146 134
f 162 146 148
f 183 197 148
f 148 197 162
f 136 146 97
f 136 128 140
f 140 148 136
f 136 148 146
f 35 29 31
f 140 128 158
f 183 148 158
f 158 148 140
f 35 43 41
f 39 31 33
f 312 331 307
f 307 205 312
f 319 205 317
f 317 336 319
f 135 98 131
f 135 147 98
f 68 70 88
f 88 94 68
f 102 94 133
f 133 139 102
f 133 88 127
f 133 94 88
f 127 132 133
f 157 153 126
f 171 153 194
f 28 104 112
f 104 106 112
f 110 145 112
f 112 106 110
f 184 159 149
f 149 198 184
f 184 192 169
f 198 192 184
f 163 198 149
f 211 198 163
f 149 147 163
f 40 32 38
f 32 36 38
f 92 96 100
f 100 34 92
f 92 34 96
f 149 159 141
f 159 129 141
f 116 129 110
f 110 114 116
f 116 114 129
f 108 114 110
f 110 96 108
f 108 96 40
f 40 48 108
f 48 114 108
f 118 155 28
f 73 192 215
f 215 72 73
f 215 239 249
f 4 6 2
f 18 16 14
f 20 16 18
f 30 36 32
f 4 36 30
f 30 24 4
f 28 22 26
f 26 22 20
f 20 18 26
f 26 18 24
f 26 34 28
f 32 34 26
f 26 30 32
f 24 30 26
f 12 16 77
f 77 75 12
f 12 75 73
f 73 72 71
f 313 327 272
f 245 237 241
f 270 251 261
f 231 239 219
f 237 239 231
f 53 65 49
f 49 47 53
f 47 90 53
f 189 170 176
f 189 201 193
f 193 170 189
f 152 156 125
f 125 90 130
f 125 53 90
f 65 53 125
f 199 246 252
f 252 260 199
f 193 201 203
f 203 208 193
f 201 222 203
f 203 222 246
f 246 208 203
f 185 246 199
f 185 208 246
f 162 197 210
f 210 197 228
f 216 201 210
f 201 195 210
f 176 170 150
f 150 160 176
f 130 160 150
f 170 152 150
f 150 125 130
f 152 125 150
f 119 136 97
f 128 136 119
f 119 113 128
f 47 113 119
f 183 158 172
f 95 39 33
f 121 111 27
f 33 31 27
f 27 103 33
f 27 111 103
f 168 172 158
f 168 191 183
f 183 172 168
f 49 65 55
f 101 61 55
f 55 125 101
f 65 125 55
f 67 61 93
f 88 69 67
f 67 93 88
f 35 31 37
f 31 39 37
f 37 43 35
f 47 43 37
f 37 39 47
f 272 327 280
f 340 342 319
f 319 336 340
f 321 307 331
f 311 205 306
f 311 317 205
f 325 205 319
f 325 320 205
f 319 342 325
f 342 320 325
f 318 331 312
f 312 205 318
f 205 320 318
f 331 318 337
f 337 318 320
f 62 94 102
f 62 68 94
f 143 157 126
f 139 157 143
f 126 102 143
f 102 139 143
f 190 171 194
f 202 190 194
f 247 209 186
f 169 159 173
f 173 184 169
f 159 184 173
f 171 190 177
f 44 48 40
f 40 38 44
f 50 48 44
f 44 38 36
f 137 129 120
f 137 141 129
f 137 120 98
f 98 147 137
f 137 147 149
f 149 141 137
f 145 155 122
f 155 118 122
f 122 112 145
f 28 112 122
f 122 118 28
f 219 239 225
f 239 215 225
f 225 215 192
f 192 213 225
f 207 192 198
f 207 213 192
f 207 198 219
f 219 225 207
f 207 225 213
f 4 24 10
f 24 18 10
f 10 18 14
f 10 12 4
f 14 16 10
f 16 12 10
f 8 12 73
f 4 12 8
f 8 6 4
f 73 71 8
f 8 71 6
f 6 71 5
f 1 2 5
f 5 2 6
f 327 313 328
f 298 283 288
f 272 283 298
f 298 313 272
f 229 211 221
f 211 227 221
f 261 251 243
f 251 227 243
f 243 253 261
f 247 253 243
f 275 296 282
f 245 282 263
f 233 241 237
f 237 231 233
f 233 231 219
f 219 198 233
f 233 198 229
f 235 227 251
f 229 221 235
f 235 221 227
f 235 233 229
f 241 233 235
f 286 307 302
f 315 294 302
f 302 321 315
f 307 321 302
f 290 296 275
f 275 270 290
f 255 270 275
f 275 282 255
f 251 270 255
f 255 235 251
f 241 235 255
f 274 270 261
f 294 290 274
f 274 290 270
f 162 210 187
f 187 210 195
f 187 195 201
f 201 189 187
f 199 182 180
f 180 182 181
f 142 125 156
f 101 125 142
f 199 278 285
f 285 278 303
f 285 306 199
f 303 306 285
f 199 260 266
f 266 278 199
f 260 278 266
f 260 250 269
f 216 210 226
f 254 258 276
f 276 269 254
f 254 269 250
f 208 185 166
f 166 152 193
f 193 208 166
f 109 128 115
f 115 113 109
f 128 113 115
f 109 113 107
f 107 95 109
f 39 95 107
f 47 39 107
f 107 113 47
f 97 47 84
f 84 119 97
f 47 119 84
f 33 103 99
f 144 111 121
f 144 168 158
f 109 111 144
f 121 154 144
f 154 168 144
f 144 128 109
f 144 158 128
f 117 154 121
f 121 27 117
f 117 27 154
f 25 31 29
f 25 27 31
f 70 68 60
f 60 64 70
f 68 62 60
f 69 70 63
f 70 64 63
f 63 67 69
f 322 306 303
f 303 316 322
f 281 297 276
f 276 258 281
f 324 316 305
f 191 72 214
f 72 215 214
f 324 305 310
f 310 305 297
f 271 308 299
f 314 299 308
f 326 308 271
f 326 314 308
f 356 350 353
f 341 320 342
f 341 337 320
f 342 353 341
f 341 353 350
f 56 62 102
f 56 102 126
f 126 66 56
f 56 66 50
f 211 163 188
f 190 202 188
f 204 209 247
f 194 209 204
f 204 202 194
f 167 186 209
f 194 153 167
f 167 209 194
f 186 167 165
f 153 157 165
f 165 167 153
f 181 182 200
f 182 205 200
f 200 265 261
f 200 307 286
f 205 307 200
f 261 253 200
f 200 253 247
f 247 186 200
f 171 177 151
f 153 171 151
f 131 126 151
f 126 153 151
f 50 44 42
f 42 44 36
f 309 328 313
f 217 243 227
f 217 227 211
f 211 202 217
f 288 245 268
f 245 263 268
f 268 282 288
f 268 263 282
f 259 282 245
f 259 255 282
f 245 241 259
f 241 255 259
f 277 302 294
f 294 274 277
f 286 302 277
f 277 200 286
f 265 200 277
f 261 265 277
f 277 274 261
f 162 187 174
f 174 160 162
f 176 160 174
f 174 189 176
f 174 187 189
f 178 185 199
f 199 180 178
f 138 142 156
f 138 132 101
f 101 142 138
f 191 214 224
f 224 214 238
f 273 278 260
f 260 269 273
f 220 210 228
f 220 226 210
f 242 250 260
f 242 226 250
f 260 252 242
f 246 222 242
f 242 252 246
f 242 222 216
f 216 226 242
f 234 254 250
f 250 226 234
f 234 220 228
f 226 220 234
f 91 95 33
f 33 99 91
f 91 99 95
f 109 95 105
f 95 99 105
f 105 99 103
f 105 111 109
f 103 111 105
f 123 72 191
f 191 168 123
f 123 168 154
f 154 27 123
f 23 25 29
f 80 123 86
f 72 123 80
f 46 42 36
f 50 42 46
f 35 41 45
f 49 55 45
f 45 43 49
f 45 41 43
f 61 67 57
f 57 55 61
f 35 45 57
f 57 4 35
f 57 36 4
f 347 345 351
f 347 340 336
f 351 345 291
f 330 311 306
f 306 322 330
f 336 317 330
f 317 311 330
f 271 256 248
f 238 214 248
f 287 299 300
f 299 314 300
f 300 314 310
f 300 281 287
f 297 281 300
f 300 310 297
f 314 326 329
f 324 310 329
f 310 314 329
f 355 350 356
f 355 352 350
f 350 352 348
f 331 337 348
f 348 341 350
f 337 341 348
f 196 202 211
f 211 188 196
f 196 188 202
f 175 177 190
f 190 188 175
f 175 188 163
f 161 151 177
f 161 175 163
f 177 175 161
f 131 151 161
f 161 163 147
f 161 135 131
f 147 135 161
f 78 76 74
f 72 80 74
f 74 80 78
f 11 74 76
f 72 74 11
f 304 309 296
f 296 290 304
f 304 294 315
f 304 290 294
f 313 298 301
f 301 309 313
f 301 298 288
f 288 282 301
f 301 282 296
f 296 309 301
f 202 204 223
f 223 217 202
f 223 204 247
f 247 243 223
f 243 217 223
f 164 166 185
f 185 178 164
f 164 178 156
f 164 156 152
f 152 166 164
f 179 165 157
f 181 200 179
f 186 165 179
f 179 200 186
f 191 224 212
f 206 212 224
f 206 197 191
f 191 212 206
f 238 230 218
f 218 224 238
f 218 206 224
f 197 206 218
f 303 278 295
f 278 273 295
f 295 316 303
f 295 305 316
f 295 273 269
f 244 262 258
f 244 238 287
f 62 56 52
f 52 56 50
f 50 46 52
f 67 63 59
f 59 57 67
f 63 57 59
f 51 45 55
f 55 57 51
f 51 57 45
f 335 316 324
f 335 322 316
f 340 347 349
f 342 340 349
f 349 353 342
f 349 354 356
f 356 353 349
f 351 354 349
f 349 347 351
f 293 354 351
f 351 291 293
f 356 354 293
f 293 355 356
f 292 352 293
f 352 355 293
f 272 280 293
f 293 280 292
f 293 249 272
f 271 248 293
f 293 248 214
f 293 215 249
f 293 214 215
f 338 291 345
f 345 335 338
f 324 329 338
f 338 335 324
f 279 326 271
f 271 293 279
f 279 293 291
f 287 238 284
f 238 248 284
f 284 248 256
f 284 256 271
f 284 299 287
f 271 299 284
f 344 321 331
f 331 348 344
f 327 328 333
f 328 339 333
f 333 280 327
f 292 280 333
f 333 339 292
f 25 23 19
f 19 80 86
f 27 25 19
f 72 11 7
f 7 71 72
f 7 5 71
f 3 7 11
f 1 5 3
f 5 7 3
f 3 2 1
f 4 2 3
f 264 281 258
f 258 262 264
f 264 262 281
f 289 269 276
f 289 295 269
f 305 295 289
f 276 297 289
f 297 305 289
f 254 234 240
f 258 254 240
f 240 244 258
f 267 244 287
f 262 244 267
f 287 281 267
f 281 262 267
f 58 60 62
f 62 52 58
f 58 52 46
f 64 60 58
f 58 46 36
f 36 57 58
f 58 63 64
f 58 57 63
f 343 347 336
f 336 330 343
f 345 347 343
f 343 335 345
f 343 330 322
f 322 335 343
f 291 338 332
f 332 279 291
f 326 279 332
f 332 329 326
f 332 338 329
f 315 321 334
f 321 344 334
f 346 352 292
f 292 339 346
f 346 348 352
f 346 344 348
f 339 334 346
f 346 334 344
f 21 123 27
f 27 19 21
f 86 123 21
f 21 19 86
f 244 240 236
f 236 230 238
f 238 244 236
f 315 334 323
f 323 304 315
f 309 304 323
f 328 309 323
f 323 339 328
f 323 334 339
f 9 3 11
f 9 29 4
f 4 3 9
f 9 23 29
f 9 13 23
f 15 11 76
f 15 9 11
f 13 9 15
f 19 13 15
f 15 76 78
f 80 19 15
f 78 80 15
f 17 19 23
f 23 13 17
f 17 13 19
f 232 236 240
f 232 234 228
f 232 240 234
f 230 236 232
f 232 218 230
f 228 197 232
f 197 218 232
f 138 133 132
f 139 133 138
f 138 157 139
f 138 156 157
f 179 178 180
f 179 180 181
f 157 156 179
f 156 178 179
