v -0.07734612375 -0.08014781028 9.600468184e-05
v -0.07734612375 -0.08014776558 0.359904021
v -0.07734612375 0.08014773577 0.359904021
v -0.07734612375 0.08014781028 9.601168131e-05
v -0.07588044554 -0.08795700222 9.600433987e-05
v -0.07588044554 -0.08795695752 0.359904021
v -0.07588044554 0.08795692772 0.359904021
v -0.07588044554 0.08795700222 9.601202328e-05
v -0.07471520454 -0.08014781028 -0.0198877342
v -0.07471520454 -0.08014776558 0.3798877597
v -0.07471520454 0.08014773577 0.3798877597
v -0.07471520454 0.08014781028 -0.01988772675
v -0.07329948992 -0.08795700967 0.01970040426
v -0.07329948992 -0.08795697242 0.3402996361
v -0.07329948992 0.08795694262 0.3402996361
v -0.07329948992 0.08795700967 0.01970041171
v -0.07329947501 -0.08795700222 -0.01950839534
v -0.07329947501 -0.08795695752 0.3795084059
v -0.07329947501 0.08795692772 0.3795084059
v -0.07329947501 0.08795700222 -0.01950838789
v -0.06700176746 -0.08014781773 -0.03850959614
v -0.06700176746 -0.08014775813 0.3985096216
v -0.06700176746 0.08014772832 0.3985096216
v -0.06700176746 0.08014781773 -0.03850958869
v -0.06573245674 -0.08795700222 -0.03777675703
v -0.06573245674 -0.08795694262 0.3977767825
v -0.06573245674 0.08795691282 0.3977767825
v -0.06573245674 0.08795700222 -0.03777674958
v -0.05473146215 -0.08014781773 -0.05450053886
v -0.05473146215 -0.08014775813 0.4145005643
v -0.05473146215 0.08014772832 0.4145005643
v -0.05473146215 0.08014781773 -0.05450053141
v -0.05369507149 -0.08795700222 -0.05346414819
v -0.05369507149 -0.08795694262 0.4134641886
v -0.05369507149 0.08795691282 0.4134641886
v -0.05369507149 0.08795700222 -0.05346414074
v -0.03874050081 -0.08014781028 -0.06677083671
v -0.03874050081 -0.08014775813 0.4267708659
v -0.03874050081 0.08014771342 0.4267708659
v -0.03874050081 0.08014781028 -0.06677083671
v -0.0380076915 -0.08795700967 0.06569356471
v -0.0380076915 -0.08795698732 0.294306457
v -0.0380076915 0.08795695752 0.294306457
v -0.0380076915 0.08795700967 0.06569357961
v -0.0380076617 -0.08795700222 -0.06550151855
v -0.0380076617 -0.08795694262 0.4255015254
v -0.0380076617 0.08795691282 0.4255015254
v -0.0380076617 0.08795700222 -0.06550150365
v -0.02039815858 -0.0423722975 0.4336691797
v -0.02039815858 0.04237226024 0.4336691797
v -0.02011862956 -0.08014781773 -0.07448428869
v -0.02011862956 0.08014781773 -0.07448428869
v -0.02009769902 -0.06269987673 0.433737874
v -0.02009769902 0.06269983202 0.433737874
v -0.01997398213 -0.082572788 0.4336303174
v -0.01997398213 0.0825727433 0.4336303174
v -0.01994084194 -0.07970094681 0.4337671101
v -0.01994084194 0.0797009021 0.4337671101
v -0.01973928511 -0.08795700967 -0.07306853682
v -0.01973928511 -0.08795695007 0.4330685735
v -0.01973928511 0.08795690536 0.4330685735
v -0.01973928511 0.08795700967 -0.07306852192
v -0.0007606052095 -0.04274160415 0.4364849627
v -0.0007606052095 0.0427415669 0.4364849627
v -0.0006806617603 -1.907943314e-08 0.4364865422
v -0.0003593650181 -0.06284590065 0.4364928901
v -0.0003593650181 0.06284585595 0.4364928901
v -0.000153047964 -0.08266591281 0.4363827705
v -0.000153047964 0.0826658681 0.4363827705
v -0.0001388138044 -0.0794435814 0.436496675
v -0.0001388138044 0.0794435367 0.436496675
v -0.0001349000522 -0.08795700967 -0.07564950734
v -0.0001349000522 -0.08795694262 0.4356495142
v -0.0001349000522 0.08795689791 0.4356495142
v -0.0001349000522 0.08795700967 -0.07564949244
v -0.0001348997466 -0.08014782518 -0.07711517811
v -0.0001348997466 0.08014782518 -0.07711517811
v 0.01873477176 3.241636293e-09 -0.07415999472
v 0.01912258007 -0.02137529477 0.4340626895
v 0.01912258007 0.02137525752 0.4340626895
v 0.0191306062 -1.897341839e-08 0.4340612292
v 0.01914775744 -0.04222569987 0.4340577126
v 0.01914775744 0.04222566262 0.4340577126
v 0.01946948282 -0.08795700967 -0.07306853682
v 0.01946948282 -0.08795695007 0.4330685735
v 0.01946948282 0.08795690536 0.4330685735
v 0.01946948282 0.08795700967 -0.07306852192
v 0.01957323775 -0.0624419637 0.4339319766
v 0.01957323775 0.06244192645 0.4339319766
v 0.01967015862 -0.07989745587 -0.07387241721
v 0.01967015862 0.07989745587 -0.07387241721
v 0.01967691816 -0.07991246879 0.4338925779
v 0.01967691816 0.07991242409 0.4338925779
v 0.01984815672 -0.08262966573 -0.07354667783
v 0.01984815672 0.08262966573 -0.07354667783
v 0.0198644232 -0.08260660619 0.4336043894
v 0.0198644232 0.08260656148 0.4336043894
v 0.03773782775 -0.08795700967 0.06569362432
v 0.03773782775 -0.08795698732 0.2943063974
v 0.03773782775 0.08795695752 0.2943063974
v 0.03773782775 0.08795700967 0.06569363922
v 0.03773786128 -0.08795700222 -0.06550151855
v 0.03773786128 -0.08795694262 0.4255015254
v 0.03773786128 0.08795691282 0.4255015254
v 0.03773786128 0.08795700222 -0.06550150365
v 0.03847070038 -0.08014781028 -0.06677083671
v 0.03847070038 -0.08014775813 0.4267708659
v 0.03847070038 0.08014771342 0.4267708659
v 0.03847070038 0.08014781028 -0.06677083671
v 0.05342527479 -0.08795700222 -0.05346414819
v 0.05342527479 -0.08795694262 0.4134641886
v 0.05342527479 0.08795691282 0.4134641886
v 0.05342527479 0.08795700222 -0.05346414074
v 0.05446166545 -0.08014781773 -0.05450053886
v 0.05446166545 -0.08014775813 0.4145005643
v 0.05446166545 0.08014772832 0.4145005643
v 0.05446166545 0.08014781773 -0.05450053141
v 0.06546264142 -0.08795700222 -0.03777672723
v 0.06546264142 -0.08795694262 0.3977767527
v 0.06546264142 0.08795691282 0.3977767527
v 0.06546264142 0.08795700222 -0.03777671978
v 0.06673196703 -0.08014781773 -0.03850956634
v 0.06673196703 -0.08014775813 0.3985095918
v 0.06673196703 0.08014772832 0.3985095918
v 0.06673196703 0.08014781773 -0.03850955889
v 0.07302964479 -0.08795700967 0.01970049366
v 0.07302964479 -0.08795697242 0.3402995467
v 0.07302964479 0.08795694262 0.3402995467
v 0.07302964479 0.08795700967 0.01970050111
v 0.07302965969 -0.08795700222 -0.01950836554
v 0.07302965969 -0.08795695752 0.3795083761
v 0.07302965969 0.08795692772 0.3795083761
v 0.07302965969 0.08795700222 -0.01950835809
v 0.07444540411 -0.08014781028 -0.0198877044
v 0.07444540411 -0.08014776558 0.3798877299
v 0.07444540411 0.08014773577 0.3798877299
v 0.07444540411 0.08014781028 -0.01988769695
v 0.07561063021 -0.08795700222 9.603414219e-05
v 0.07561063021 -0.08795695752 0.3599039912
v 0.07561063021 0.08795692772 0.3599039912
v 0.07561063021 0.08795700222 9.60418256e-05
v 0.07707630843 -0.08014781028 9.603448416e-05
v 0.07707630843 -0.08014776558 0.3599039912
v 0.07707630843 0.08014773577 0.3599039912
v 0.07707630843 0.08014781028 9.604148363e-05
f 19 3 11
f 3 19 7
f 24 12 20
f 20 12 4
f 141 137 133
f 145 137 141
f 101 44 43
f 111 123 115
f 6 5 14
f 24 20 28
f 28 32 24
f 16 62 28
f 28 20 16
f 8 20 4
f 8 7 16
f 16 20 8
f 62 75 52
f 52 75 77
f 48 62 52
f 1 4 9
f 4 12 9
f 129 141 133
f 101 128 129
f 140 128 132
f 141 129 140
f 140 129 128
f 15 43 44
f 15 44 16
f 15 128 43
f 16 7 15
f 15 7 19
f 107 111 115
f 131 123 119
f 119 111 131
f 123 111 119
f 6 14 18
f 18 2 6
f 10 2 18
f 22 34 30
f 10 18 22
f 138 127 126
f 126 127 99
f 34 18 60
f 73 68 60
f 60 68 55
f 60 18 14
f 60 14 42
f 38 60 55
f 30 34 38
f 32 28 36
f 36 62 48
f 36 28 62
f 17 5 1
f 1 9 17
f 17 9 21
f 133 137 125
f 101 43 100
f 100 128 101
f 43 128 100
f 131 127 139
f 139 127 138
f 135 123 131
f 135 139 143
f 131 139 135
f 106 102 84
f 138 126 130
f 111 107 103
f 45 59 33
f 26 18 34
f 34 22 26
f 26 22 18
f 98 126 99
f 98 99 42
f 42 41 98
f 92 107 88
f 70 68 92
f 42 99 85
f 85 60 42
f 99 127 85
f 85 127 131
f 131 111 85
f 111 103 85
f 73 60 85
f 85 68 73
f 85 103 107
f 23 19 11
f 47 15 19
f 34 60 46
f 46 38 34
f 60 38 46
f 57 38 55
f 53 49 57
f 49 38 57
f 57 68 70
f 55 68 57
f 76 84 72
f 90 84 76
f 25 17 21
f 25 21 29
f 29 33 25
f 33 59 25
f 5 17 13
f 13 14 5
f 13 25 59
f 17 25 13
f 42 14 13
f 13 41 42
f 113 125 117
f 77 75 87
f 144 140 136
f 136 140 132
f 94 90 106
f 106 84 94
f 94 84 90
f 142 138 134
f 138 130 134
f 134 130 122
f 134 145 142
f 134 137 145
f 110 102 106
f 106 114 110
f 110 84 102
f 110 114 122
f 29 32 40
f 40 36 48
f 32 36 40
f 48 52 40
f 107 92 96
f 96 85 107
f 96 92 68
f 68 85 96
f 132 128 104
f 128 15 104
f 15 47 104
f 63 57 70
f 72 59 51
f 51 76 72
f 59 45 51
f 133 125 121
f 125 113 121
f 113 87 121
f 121 87 129
f 121 129 133
f 105 87 113
f 122 130 118
f 118 110 122
f 84 110 118
f 126 84 118
f 118 130 126
f 70 92 82
f 82 92 88
f 29 40 37
f 37 33 29
f 37 45 33
f 37 51 45
f 132 104 112
f 35 31 39
f 39 47 35
f 35 47 19
f 23 31 35
f 66 63 70
f 78 76 77
f 90 76 78
f 87 105 109
f 109 113 117
f 109 105 113
f 117 114 109
f 109 114 106
f 132 112 120
f 124 120 112
f 124 136 132
f 132 120 124
f 108 112 104
f 23 35 27
f 19 23 27
f 27 35 19
f 39 50 58
f 58 56 39
f 61 47 39
f 39 56 61
f 86 61 74
f 86 108 104
f 89 93 83
f 89 108 93
f 64 63 65
f 63 66 65
f 77 87 91
f 91 78 77
f 90 78 91
f 70 82 79
f 116 124 112
f 112 108 116
f 71 58 64
f 83 93 71
f 71 80 83
f 54 58 50
f 93 108 97
f 108 86 97
f 109 91 95
f 87 109 95
f 95 91 87
f 81 82 83
f 83 80 81
f 80 79 81
f 81 79 82
f 67 71 64
f 64 65 67
f 67 65 66
f 69 71 93
f 93 97 69
f 69 86 74
f 69 97 86
f 74 61 69
f 69 61 56
f 56 58 69
f 58 71 69
f 29 21 32
f 32 21 24
f 3 7 8
f 8 4 3
f 24 21 9
f 9 12 24
f 145 144 143
f 142 145 143
f 140 144 145
f 145 141 140
f 2 5 6
f 1 5 2
f 3 4 2
f 2 4 1
f 11 3 2
f 2 10 11
f 142 143 139
f 139 138 142
f 114 125 122
f 117 125 114
f 11 10 23
f 10 22 23
f 13 98 41
f 13 59 72
f 72 84 13
f 13 84 126
f 126 98 13
f 16 44 87
f 87 62 16
f 87 44 101
f 87 75 62
f 101 129 87
f 136 143 144
f 136 135 143
f 122 125 134
f 134 125 137
f 39 38 50
f 50 38 49
f 31 38 39
f 30 38 31
f 31 23 22
f 31 22 30
f 77 76 51
f 51 52 77
f 52 51 37
f 37 40 52
f 135 136 124
f 123 135 124
f 57 63 58
f 58 63 64
f 47 61 86
f 86 104 47
f 83 82 89
f 89 82 88
f 88 107 89
f 107 108 89
f 91 109 106
f 106 90 91
f 123 124 116
f 115 123 116
f 116 108 107
f 116 107 115
f 71 79 80
f 70 79 71
f 54 50 49
f 54 49 53
f 57 58 54
f 53 57 54
f 70 71 67
f 67 66 70
