v -0.2033020556 -0.04424881563 0.02536603808
v -0.2033020556 -0.03612900153 0.03594798967
v -0.2033020556 -0.02735367417 0.04537296668
v -0.2033020407 0.02735366672 0.04537296668
v -0.2033020407 0.03612900153 0.03594798967
v -0.2033020407 0.04424881563 0.02536604181
v -0.2033020407 0.04935313389 -0.01340521872
v -0.2033020407 0.04935314506 0.0130431056
v -0.2033020407 0.05109413341 -0.0001810393733
v -0.2033020258 -0.05109413341 -0.0001810430986
v -0.2033020258 -0.04935314506 0.01304310188
v -0.2033020258 -0.04935313389 -0.01340521872
v -0.2033020258 -0.044248797 -0.02572815493
v -0.2033020258 -0.03612897545 -0.03631009907
v -0.2033020258 -0.02554702759 -0.04442989826
v -0.2033020109 -0.01322408672 -0.04953422397
v -0.2033020109 2.241310693e-09 -0.05127520859
v -0.2033020109 0.01322409231 -0.04953422397
v -0.2033020109 0.02554702759 -0.04442989826
v -0.2033020109 0.0361289829 -0.03631009907
v -0.2033020109 0.044248797 -0.0257281512
v -0.2025485635 -0.02158211544 0.05251750723
v -0.2025485486 0.02158210799 0.05251750723
v -0.2001717687 -0.01551365387 0.06375651062
v -0.2001717687 0.01551364828 0.06375651062
v -0.1951623559 -0.01365706697 0.07230384648
v -0.1951623559 0.01365705952 0.07230384648
v -0.1920929998 0.05452340096 0.03129808977
v -0.1920929998 0.06081295013 0.01611376181
v -0.1920929849 -0.06081295758 0.01611375809
v -0.1920929849 -0.05452340841 0.03129808232
v -0.1920929849 -0.04451817274 0.04433715716
v -0.1920929849 -0.04451814294 -0.0446992591
v -0.19209297 0.04451814294 -0.04469925165
v -0.19209297 0.04451816529 0.04433716461
v -0.19209297 0.05452337861 -0.03166017681
v -0.19209297 0.06081294641 -0.01647586003
v -0.19209297 0.06295821071 -0.00018102584
v -0.1920929551 -0.06295819581 -0.0001810314279
v -0.1920929551 -0.06081294641 -0.01647586375
v -0.1920929551 -0.05452337861 -0.03166018426
v -0.1920929551 -0.03147906065 -0.05470447987
v -0.1920929402 -0.01629473269 -0.06099402159
v -0.1920929402 2.759904971e-09 -0.06313925982
v -0.1920929402 0.01629473642 -0.06099402159
v -0.1920929402 0.03147906065 -0.05470447987
v -0.1890533268 -0.01331888512 0.07673788071
v -0.1890533268 0.01331887767 0.07673788071
v -0.1177990288 -0.06756459922 -0.04300219566
v -0.1177990288 0.06756459922 -0.04300219566
v -0.1175978109 -0.01301642787 -0.07905745506
v -0.1175978109 0.01301642787 -0.07905745506
v -0.1175281629 -0.02640525065 -0.07555294782
v -0.1175281629 0.02640525065 -0.07555294782
v -0.1175227314 -0.07952025533 -0.008757270873
v -0.1175227314 0.07952025533 -0.008757270873
v -0.1174621582 -0.04385891929 -0.06714545935
v -0.1174621582 0.04385891929 -0.06714545935
v -0.11743287 -0.05766363069 -0.05560973659
v -0.11743287 0.05766363069 -0.05560973659
v -0.1174113229 -0.07547124475 -0.02679648064
v -0.1174113229 0.07547124475 -0.02679648064
v -0.117397584 -1.291578335e-13 -0.08023037016
v -0.1069363281 -1.291578335e-13 0.1356408745
v -0.1056775674 -0.01460771356 0.1356407702
v -0.1056775674 0.01460771356 0.1356407702
v -0.1055909693 -0.04366648942 -0.06767619401
v -0.1055909693 0.04366648942 -0.06767619401
v -0.105579406 -0.0677793026 -0.04335806891
v -0.105579406 0.0677793026 -0.04335806891
v -0.1055695191 -0.05787843838 -0.05603151396
v -0.1055695191 0.05787843838 -0.05603151396
v -0.1055424586 -0.01375080738 -0.07943210006
v -0.1055424586 0.01375080738 -0.07943210006
v -0.1055067182 -0.07569058985 -0.02735598199
v -0.1055067182 0.07569058985 -0.02735598199
v -0.1054984406 -0.02666336112 -0.07601407915
v -0.1054984406 0.02666336112 -0.07601407915
v -0.1052415594 -1.291578335e-13 -0.0805990994
v -0.1031170115 -0.0276118163 0.135628581
v -0.1031170115 0.0276118163 0.135628581
v -0.0985904485 -0.04077110067 0.1356500238
v -0.0985904485 0.04077110067 0.1356500238
v -0.09753900766 -0.05637358874 0.1301285774
v -0.09753900766 0.05637358874 0.1301285774
v -0.09245305508 -0.05332995579 0.1356297135
v -0.09245305508 0.05332995579 0.1356297135
v -0.08890689909 -0.06906437874 0.1301564276
v -0.08890689909 0.06906437874 0.1301564276
v -0.0842827633 -0.06529609859 0.1356416047
v -0.0842827633 0.06529609859 0.1356416047
v -0.07965238392 -0.07942800969 0.1300856024
v -0.07965238392 0.07942800969 0.1300856024
v -0.07542575896 -0.07520839572 0.1356397271
v -0.07542575896 0.07520839572 0.1356397271
v -0.06836421788 -0.08915967494 0.1301245391
v -0.06836421788 0.08915967494 0.1301245391
v -0.06479124725 -0.08449748158 0.135624364
v -0.06479124725 0.08449748158 0.135624364
v -0.05890256912 -0.1016316563 0.1108773798
v -0.05890256912 0.1016316563 0.1108773798
v -0.0562652871 -0.09735010564 0.1298845708
v -0.0562652871 0.09735010564 0.1298845708
v -0.05329434574 -0.0920887664 0.1356414557
v -0.05329434574 0.0920887664 0.1356414557
v -0.04514878988 -0.1084999144 0.1067484319
v -0.04514878988 0.1084999144 0.1067484319
v -0.04511745274 -0.108483538 0.09968052059
v -0.04511745274 0.108483538 0.09968052059
v -0.0447678864 -0.1079649329 0.1107145548
v -0.0447678864 0.1079649329 0.1107145548
v -0.04308388382 -0.1038345098 0.1298904121
v -0.04308388382 0.1038345098 0.1298904121
v -0.0407105498 -0.09809554368 0.1356471479
v -0.0407105498 0.09809554368 0.1356471479
v -0.03009998798 -0.1130053848 0.1068389565
v -0.03009998798 0.1130053848 0.1068389565
v -0.03003588319 -0.1129196733 0.09960111976
v -0.03003588319 0.1129196733 0.09960111976
v -0.02986490726 -0.1123984903 0.1106865928
v -0.02986490726 0.1123984903 0.1106865928
v -0.02911062539 -0.108369641 0.1298466474
v -0.02911062539 0.108369641 0.1298466474
v -0.02754465677 -0.102580741 0.1356330961
v -0.02754465677 0.102580741 0.1356330961
v -0.01484262943 -0.1154248863 0.0995933339
v -0.01484262943 0.1154248863 0.0995933339
v -0.01481214538 -0.1154732853 0.1065497771
v -0.01481214538 0.1154732853 0.1065497771
v -0.01469149068 -0.1149165183 0.096591115
v -0.01469149068 0.1149165183 0.096591115
v -0.01466085389 -0.1148616821 0.1110292599
v -0.01466085389 0.1148616821 0.1110292599
v -0.0144198928 -0.111369364 0.1297958344
v -0.0144198928 0.111369364 0.1297958344
v -0.01361321099 -0.1053170487 0.1356490552
v -0.01361321099 0.1053170487 0.1356490552
v 5.152137965e-05 -0.1062967181 0.135629788
v 5.152137965e-05 0.1062967181 0.135629788
v 8.948147297e-05 -0.1123144701 0.1297275871
v 8.948147297e-05 0.1123144701 0.1297275871
v 0.0003387778997 -0.1155648679 0.1106621101
v 0.0003387778997 0.1155648679 0.1106621101
v 0.0003978256136 -0.1160462946 0.1065474674
v 0.0003978256136 0.1160462946 0.1065474674
v 0.0004131160676 -0.1159977466 0.09959397465
v 0.0004131160676 0.1159977466 0.09959397465
v 0.0004521347582 -0.1153904349 0.09649876505
v 0.0004521347582 0.1153904349 0.09649876505
v 0.01347134821 -0.105247356 0.1356490552
v 0.01347134821 0.105247356 0.1356490552
v 0.0143497549 -0.1113230214 0.1297831982
v 0.0143497549 0.1113230214 0.1297831982
v 0.01486307662 -0.1141780093 0.09659843892
v 0.01486307662 0.1141780093 0.09659843892
v 0.01501525007 -0.1147110462 0.09951207787
v 0.01501525007 0.1147110462 0.09951207787
v 0.01502666622 -0.1142798215 0.1106331423
v 0.01502666622 0.1142798215 0.1106331423
v 0.01504137181 -0.1147477552 0.106746152
v 0.01504137181 0.1147477552 0.106746152
v 0.02743792534 -0.1026155353 0.1356250793
v 0.02743792534 0.1026155353 0.1356250793
v 0.02850123495 -0.1065867543 0.1314740926
v 0.02850123495 0.1065867543 0.1314740926
v 0.02902764454 -0.1083472595 0.1294426471
v 0.02902764454 0.1083472595 0.1294426471
v 0.0299782753 -0.1112769991 0.1106775403
v 0.0299782753 0.1112769991 0.1106775403
v 0.03016274422 -0.1117025763 0.106767565
v 0.03016274422 0.1117025763 0.106767565
v 0.03038743883 -0.1118514389 0.09947925061
v 0.03038743883 0.1118514389 0.09947925061
v 0.04051390663 -0.09812161326 0.1356490552
v 0.04051390663 0.09812161326 0.1356490552
v 0.04273870587 -0.1038030759 0.1298097372
v 0.04273870587 0.1038030759 0.1298097372
v 0.04508395493 -0.1067207754 0.1106276065
v 0.04508395493 0.1067207754 0.1106276065
v 0.04523653537 -0.1073422283 0.1067898124
v 0.04523653537 0.1073422283 0.1067898124
v 0.04531855136 -0.1077057421 0.09949010611
v 0.04531855136 0.1077057421 0.09949010611
v 0.05297517776 -0.09203313291 0.1356490552
v 0.05297517776 0.09203313291 0.1356490552
v 0.05602645874 -0.09734199196 0.1298645288
v 0.05602645874 0.09734199196 0.1298645288
v 0.05920140445 -0.1016979665 0.1065722033
v 0.05920140445 0.1016979665 0.1065722033
v 0.05929665267 -0.1026191264 0.09951465577
v 0.05929665267 0.1026191264 0.09951465577
v 0.0642574206 -0.08484251797 0.1356490552
v 0.0642574206 0.08484251797 0.1356490552
v 0.06795240939 -0.08968054503 0.1299608648
v 0.06795240939 0.08968054503 0.1299608648
v 0.07269503176 -0.0973033756 0.09818948805
v 0.07269503176 0.0973033756 0.09818948805
v 0.07539682835 -0.07540617138 0.1356370449
v 0.07539682835 0.07540617138 0.1356370449
v 0.07951091975 -0.07975328714 0.1301175654
v 0.07951091975 0.07975328714 0.1301175654
v 0.08451808989 -0.06541419029 0.1356384754
v 0.08451808989 0.06541419029 0.1356384754
v 0.08480581641 -0.09260742366 0.09508123994
v 0.08480581641 0.09260742366 0.09508123994
v 0.08917979896 -0.06909593195 0.1302254647
v 0.08917979896 0.06909593195 0.1302254647
v 0.09076560289 -0.09082295001 0.0886214301
v 0.09076560289 0.09082295001 0.0886214301
v 0.09187808633 -1.291578335e-13 -0.07122710347
v 0.09200089425 -0.06879703701 -0.04681789503
v 0.09200089425 0.06879703701 -0.04681789503
v 0.09203492105 -0.02380963229 -0.0706210807
v 0.09203492105 0.02380963229 -0.0706210807
v 0.09207610041 -0.0617467761 -0.05818543956
v 0.09207610041 0.0617467761 -0.05818543956
v 0.09207944572 -0.07214637846 -0.03414244577
v 0.09207944572 0.07214637846 -0.03414244577
v 0.09211604297 -0.08991806209 0.09162416309
v 0.09211604297 0.08991806209 0.09162416309
v 0.09211856127 -0.01159165613 -0.07113581896
v 0.09211856127 0.01159165613 -0.07113581896
v 0.09224528074 -0.03651709855 -0.06930817664
v 0.09224528074 0.03651709855 -0.06930817664
v 0.09237784892 -0.05059274659 -0.06532055885
v 0.09237784892 0.05059274659 -0.06532055885
v 0.09256409109 -0.05355286226 0.1356323808
v 0.09256409109 0.05355286226 0.1356323808
v 0.09538212419 -0.08360278606 0.1018307507
v 0.09538212419 0.08360278606 0.1018307507
v 0.0957807973 -0.08896672726 0.08392672986
v 0.0957807973 0.08896672726 0.08392672986
v 0.09762994945 -0.05650996417 0.130223304
v 0.09762994945 0.05650996417 0.130223304
v 0.09780579805 -0.0879021734 0.08684028685
v 0.09780579805 0.0879021734 0.08684028685
v 0.09853854775 -0.04140916094 0.1356483847
v 0.09853854775 0.04140916094 0.1356483847
v 0.09999839962 -0.08742818236 0.07879880816
v 0.09999839962 0.08742818236 0.07879880816
v 0.1024947166 -0.0861415863 0.08066019416
v 0.1024947166 0.0861415863 0.08066019416
v 0.1030612364 -0.08619600534 0.07325918227
v 0.1030612364 0.08619600534 0.07325918227
v 0.1031787246 -0.02766836435 0.1356476694
v 0.1031787246 0.02766836435 0.1356476694
v 0.1039561927 -0.07938940823 0.09679783136
v 0.1039561927 0.07938940823 0.09679783136
v 0.1039754301 -0.04378252476 0.1303474009
v 0.1039754301 0.04378252476 0.1303474009
v 0.1047416776 -0.07681915164 0.09972756356
v 0.1047416776 0.07681915164 0.09972756356
v 0.1048956215 -0.06300593913 0.1129330099
v 0.1048956215 0.06300593913 0.1129330099
v 0.1052024961 -0.02303534374 -0.069203794
v 0.1052024961 0.02303534374 -0.069203794
v 0.1053037047 -1.291578335e-13 -0.06972558796
v 0.1053441688 -0.08492664993 0.06543660909
v 0.1053441688 0.08492664993 0.06543660909
v 0.1054409742 -0.01169486158 -0.06958822906
v 0.1054409742 0.01169486158 -0.06958822906
v 0.1055336297 -0.03561380506 -0.06788371503
v 0.1055336297 0.03561380506 -0.06788371503
v 0.1055479646 -0.08482635021 0.07447276264
v 0.1055479646 0.08482635021 0.07447276264
v 0.1058219895 -0.01416188758 0.1356408149
v 0.1058219895 0.01416188758 0.1356408149
v 0.1061374545 -0.04867709056 -0.06445854157
v 0.1061374545 0.04867709056 -0.06445854157
v 0.1063706279 -0.06033520028 -0.05741540715
v 0.1063706279 0.06033520028 -0.05741540715
v 0.1065909639 -0.07076565921 -0.03372595087
v 0.1065909639 0.07076565921 -0.03372595087
v 0.1066555977 -0.08298430592 0.05055144802
v 0.1066555977 0.08298430592 0.05055144802
v 0.106672287 -1.291578335e-13 0.1356500238
v 0.1067612469 -0.07411604375 -0.01460774243
v 0.1067612469 0.07411604375 -0.01460774243
v 0.1068647578 -0.06731717288 -0.04623314366
v 0.1068647578 0.06731717288 -0.04623314366
v 0.1068973094 -0.0768224448 0.003985063639
v 0.1068973094 0.0768224448 0.003985063639
v 0.107030265 -0.08005713671 0.02838042378
v 0.107030265 0.08005713671 0.02838042378
v 0.1079168618 -0.08347023278 0.06609527767
v 0.1079168618 0.08347023278 0.06609527767
v 0.1082127988 -1.291578335e-13 -0.06808620691
v 0.1082478464 -0.01164560299 -0.06793493032
v 0.1082478464 0.01164560299 -0.06793493032
v 0.1082837582 -0.02286416851 -0.06746578217
v 0.1082837582 0.02286416851 -0.06746578217
v 0.1084811389 -0.03510402516 -0.06617165357
v 0.1084811389 0.03510402516 -0.06617165357
v 0.10861063 -0.0479795076 -0.06315416098
v 0.10861063 0.0479795076 -0.06315416098
v 0.1090363264 -0.02921636216 0.1301470399
v 0.1090363264 0.02921636216 0.1301470399
v 0.1090952158 -0.0591763258 -0.0560625717
v 0.1090952158 0.0591763258 -0.0560625717
v 0.1092484593 -0.06619494408 -0.04504008964
v 0.1092484593 0.06619494408 -0.04504008964
v 0.1092983186 -0.08157966286 0.05099166185
v 0.1092983186 0.08157966286 0.05099166185
v 0.1095308438 -0.06920921057 -0.03285293281
v 0.1095308438 0.06920921057 -0.03285293281
v 0.1095550656 -0.07536998391 0.004453825764
v 0.1095550656 0.07536998391 0.004453825764
v 0.1095576286 -0.07256567478 -0.01430521067
v 0.1095576286 0.07256567478 -0.01430521067
v 0.1097330749 -0.07674764097 0.09037850797
v 0.1097330749 0.07674764097 0.09037850797
v 0.1097839177 -0.07833472639 0.02888047136
v 0.1097839177 0.07833472639 0.02888047136
v 0.1113037169 -0.07366544008 0.09261056781
v 0.1113037169 0.07366544008 0.09261056781
v 0.1116525829 -0.01511325128 0.1302976757
v 0.1116525829 0.01511325128 0.1302976757
v 0.1127667502 -1.291578335e-13 0.1302009672
v 0.1141581684 -0.07433973253 0.08144569397
v 0.1141581684 0.07433973253 0.08144569397
v 0.1151595786 -0.06066161394 0.09871196747
v 0.1151595786 0.06066161394 0.09871196747
v 0.1159760952 -0.07110698521 0.08310212195
v 0.1159760952 0.07110698521 0.08310212195
v 0.1165364981 -0.07282908261 0.07016469538
v 0.1165364981 0.07282908261 0.07016469538
v 0.1173996925 -0.06786447018 0.03162777051
v 0.1173996925 0.06786447018 0.03162777051
v 0.1174667478 -0.07066656649 0.05369114503
v 0.1174667478 0.07066656649 0.05369114503
v 0.1175209582 -0.06440132856 0.008307700045
v 0.1175209582 0.06440132856 0.008307700045
v 0.1176074743 -0.06090033799 -0.01165344473
v 0.1176074743 0.06090033799 -0.01165344473
v 0.1178599 -0.0574975498 -0.02678491361
v 0.1178599 0.0574975498 -0.02678491361
v 0.1183699071 -0.05436703563 -0.03510081396
v 0.1183699071 0.05436703563 -0.03510081396
v 0.1185237169 -0.06914876401 0.07037560642
v 0.1185237169 0.06914876401 0.07037560642
v 0.1189699247 -0.04549796879 0.1019407287
v 0.1189699247 0.04549796879 0.1019407287
v 0.1190773547 -0.06418996304 0.03199086711
v 0.1190773547 0.06418996304 0.03199086711
v 0.1190957725 -0.06083014607 0.009406437166
v 0.1190957725 0.06083014607 0.009406437166
v 0.1191282868 -0.05735844374 -0.01067787595
v 0.1191282868 0.05735844374 -0.01067787595
v 0.1191414893 -0.06695861369 0.05354322866
v 0.1191414893 0.06695861369 0.05354322866
v 0.1192778945 -0.04887696356 -0.04168589786
v 0.1192778945 0.04887696356 -0.04168589786
v 0.1193383634 -0.0540552102 -0.0255245734
v 0.1193383634 0.0540552102 -0.0255245734
v 0.1197295189 -0.05133414641 -0.03289666772
v 0.1197295189 0.05133414641 -0.03289666772
v 0.120272398 -0.04085177183 -0.04579057544
v 0.120272398 0.04085177183 -0.04579057544
v 0.1204610169 -0.04672691971 -0.03868005425
v 0.1204610169 0.04672691971 -0.03868005425
v 0.1205080599 -0.05849304423 0.08482794464
v 0.1205080599 0.05849304423 0.08482794464
v 0.1212936938 -0.03098339029 -0.04782094434
v 0.1212936938 0.03098339029 -0.04782094434
v 0.1214232445 -0.03956871852 -0.04225191101
v 0.1214232445 0.03956871852 -0.04225191101
v 0.1216594949 -0.04146793112 -0.03166194633
v 0.1216594949 0.04146793112 -0.03166194633
v 0.1217804849 -0.03022774309 0.1033055335
v 0.1217804849 0.03022774309 0.1033055335
v 0.1218378395 -0.04367660731 -0.02015940286
v 0.1218378395 0.04367660731 -0.02015940286
v 0.121906966 -0.0217045024 -0.04901141673
v 0.121906966 0.0217045024 -0.04901141673
v 0.1220382676 -0.04616516083 -0.005490733311
v 0.1220382676 0.04616516083 -0.005490733311
v 0.1223959029 -0.01078202762 -0.04955153912
v 0.1223959029 0.01078202762 -0.04955153912
v 0.1224555969 -0.03014016338 -0.04411737993
v 0.1224555969 0.03014016338 -0.04411737993
v 0.1225095689 -1.291578335e-13 -0.04972759262
v 0.1226087883 -0.05634580925 0.06954482943
v 0.1226087883 0.05634580925 0.06954482943
v 0.1228060722 -0.05398634821 0.05190265924
v 0.1228060722 0.05398634821 0.05190265924
v 0.1229401976 -0.03148747236 -0.03118139692
v 0.1229401976 0.03148747236 -0.03118139692
v 0.1231254339 -0.02117512934 -0.04511684924
v 0.1231254339 0.02117512934 -0.04511684924
v 0.123237446 -0.01512252074 0.1034642383
v 0.123237446 0.01512252074 0.1034642383
v 0.1234278008 -0.03304403275 -0.01769738831
v 0.1234278008 0.03304403275 -0.01769738831
v 0.1235662699 -0.01068689208 -0.04587258399
v 0.1235662699 0.01068689208 -0.04587258399
v 0.1237465739 -1.291578335e-13 -0.04595882818
v 0.1238441169 -0.02137988806 -0.03110520914
v 0.1238441169 0.02137988806 -0.03110520914
v 0.1239642724 -0.03481912613 -0.002620948944
v 0.1239642724 0.03481912613 -0.002620948944
v 0.1239653155 -0.04436480626 0.08638928086
v 0.1239653155 0.04436480626 0.08638928086
v 0.1240183786 0 0.1036381274
v 0.1243622378 -0.01078571286 -0.0311309658
v 0.1243622378 0.01078571286 -0.0311309658
v 0.1245379597 -0.02219756506 -0.0166865401
v 0.1245379597 0.02219756506 -0.0166865401
v 0.1245526597 -1.291578335e-13 -0.03109392151
v 0.1250665337 -0.03876305372 0.03288565949
v 0.1250665337 0.03876305372 0.03288565949
v 0.1252416074 -0.02327764966 -0.001378730056
v 0.1252416074 0.02327764966 -0.001378730056
v 0.1253581792 -1.291578335e-13 -0.01600946859
v 0.1256054491 -0.04075723141 0.05151754618
v 0.1256054491 0.04075723141 0.05151754618
v 0.1257286519 -0.04269642755 0.06943050027
v 0.1257286519 0.04269642755 0.06943050027
v 0.1259606481 -0.0116827637 -0.0005539575941
v 0.1259606481 0.0116827637 -0.0005539575941
v 0.1259889454 -0.02457587793 0.01548367552
v 0.1259889454 0.02457587793 0.01548367552
v 0.126048103 -0.02966394089 0.08740269393
v 0.126048103 0.02966394089 0.08740269393
v 0.1262026131 -1.291578335e-13 -0.0001951642334
v 0.1268290281 -0.01233123243 0.01629780233
v 0.1268290281 0.01233123243 0.01629780233
v 0.127095744 -1.291578335e-13 0.01653271914
v 0.1274499446 -0.02728744596 0.05166560411
v 0.1274499446 0.02728744596 0.05166560411
v 0.1275119036 -0.01484944951 0.08745402098
v 0.1275119036 0.01484944951 0.08745402098
v 0.1276960224 -0.0285968557 0.06973398477
v 0.1276960224 0.0285968557 0.06973398477
v 0.1277063787 -0.01300980896 0.03387261182
v 0.1277063787 0.01300980896 0.03387261182
v 0.1280300319 -1.291578335e-13 0.03403193504
v 0.1282614619 0 0.08736751974
v 0.1285856515 -0.01369808335 0.05187446252
v 0.1285856515 0.01369808335 0.05187446252
v 0.1289875954 0 0.05197112262
v 0.128999114 -0.01433918625 0.06979729235
v 0.128999114 0.01433918625 0.06979729235
v 0.1295455694 0 0.06976559758
f 37 7 38
f 37 62 36
f 36 7 37
f 56 62 37
f 37 38 56
f 56 38 119
f 1 12 10
f 443 437 441
f 3 7 1
f 86 82 26
f 26 80 47
f 82 80 26
f 46 45 18
f 57 53 77
f 62 56 131
f 305 301 273
f 278 273 173
f 136 82 114
f 114 124 136
f 90 82 86
f 90 114 82
f 102 31 30
f 30 10 39
f 30 31 1
f 81 48 66
f 33 57 59
f 358 352 366
f 226 216 271
f 374 293 295
f 215 225 270
f 211 69 215
f 369 296 341
f 428 441 432
f 1 31 2
f 2 3 1
f 24 3 2
f 9 38 7
f 7 3 9
f 45 44 17
f 17 18 45
f 17 44 43
f 52 44 45
f 52 63 44
f 73 63 79
f 77 53 73
f 127 56 119
f 127 131 56
f 127 129 145
f 212 76 149
f 62 131 149
f 149 76 62
f 417 385 383
f 415 385 417
f 383 385 350
f 350 385 344
f 330 313 303
f 275 303 284
f 278 173 282
f 259 303 275
f 311 242 248
f 195 193 201
f 212 273 280
f 280 273 301
f 271 216 280
f 280 216 212
f 119 38 109
f 38 107 109
f 117 127 119
f 129 127 117
f 119 109 117
f 117 109 107
f 276 266 318
f 318 267 276
f 88 90 86
f 114 90 94
f 90 88 94
f 1 10 11
f 11 30 1
f 10 30 11
f 65 80 82
f 47 80 65
f 57 33 42
f 43 53 42
f 53 57 42
f 39 10 40
f 40 10 12
f 61 40 41
f 301 352 299
f 271 280 299
f 299 280 301
f 299 295 271
f 299 352 358
f 358 295 299
f 410 415 429
f 410 372 415
f 360 366 352
f 415 372 360
f 358 366 380
f 374 295 364
f 364 295 358
f 358 380 364
f 223 225 77
f 77 73 223
f 61 41 49
f 49 33 59
f 49 41 33
f 75 69 211
f 61 49 75
f 75 49 69
f 59 57 71
f 71 215 69
f 71 49 59
f 69 49 71
f 225 215 67
f 77 225 67
f 67 57 77
f 67 71 57
f 215 71 67
f 150 82 136
f 150 276 82
f 106 30 39
f 154 211 217
f 217 272 154
f 211 272 217
f 279 272 211
f 279 215 270
f 211 215 279
f 296 369 316
f 318 266 316
f 390 316 369
f 318 316 390
f 24 2 32
f 32 2 31
f 32 26 24
f 3 6 8
f 8 9 3
f 22 3 24
f 25 22 24
f 23 22 25
f 28 8 6
f 29 107 38
f 29 28 103
f 8 28 29
f 38 9 29
f 9 8 29
f 125 123 113
f 113 115 125
f 46 18 19
f 19 18 7
f 7 20 19
f 7 36 21
f 21 20 7
f 36 20 21
f 34 20 36
f 34 58 46
f 60 58 34
f 46 19 34
f 34 19 20
f 50 36 62
f 62 76 50
f 50 34 36
f 60 34 50
f 79 63 74
f 63 52 74
f 63 73 51
f 51 73 53
f 51 53 43
f 43 44 51
f 44 63 51
f 155 173 273
f 212 149 155
f 344 385 346
f 402 417 383
f 423 417 402
f 429 415 433
f 415 417 433
f 423 431 433
f 433 417 423
f 340 350 330
f 383 350 340
f 344 346 332
f 332 346 334
f 338 301 305
f 338 352 301
f 356 360 338
f 338 360 352
f 234 207 228
f 265 244 242
f 265 259 244
f 265 242 311
f 242 244 240
f 191 209 240
f 195 201 230
f 230 201 248
f 207 201 199
f 199 201 193
f 125 115 137
f 139 137 151
f 151 276 175
f 145 129 143
f 153 143 141
f 159 143 153
f 141 139 153
f 139 151 153
f 169 153 167
f 159 153 169
f 129 117 133
f 133 143 129
f 141 143 133
f 227 233 249
f 341 296 249
f 193 276 238
f 86 26 84
f 84 88 86
f 26 88 84
f 96 31 102
f 104 94 98
f 114 94 104
f 104 96 102
f 98 96 104
f 81 66 83
f 83 137 115
f 276 151 83
f 83 151 137
f 27 83 87
f 27 48 81
f 81 83 27
f 15 33 14
f 15 42 33
f 1 7 15
f 15 14 1
f 7 18 15
f 18 17 15
f 39 40 55
f 55 40 61
f 61 130 55
f 14 33 13
f 33 41 13
f 13 12 1
f 1 14 13
f 13 40 12
f 13 41 40
f 372 410 368
f 366 360 368
f 368 360 372
f 376 360 356
f 415 360 376
f 356 385 376
f 376 385 415
f 405 413 408
f 400 410 429
f 366 368 400
f 400 368 410
f 429 439 421
f 269 224 226
f 269 226 271
f 271 295 269
f 79 74 214
f 214 74 224
f 256 214 224
f 291 289 261
f 261 256 291
f 270 294 298
f 298 279 270
f 270 225 268
f 268 294 270
f 225 223 268
f 288 377 290
f 290 377 292
f 395 405 408
f 138 150 136
f 152 150 138
f 108 106 39
f 116 106 108
f 102 30 100
f 61 75 148
f 148 130 61
f 148 75 211
f 148 211 154
f 430 369 422
f 430 390 369
f 430 441 437
f 432 441 430
f 430 422 432
f 92 88 26
f 26 32 92
f 92 94 88
f 92 32 31
f 31 96 92
f 98 94 92
f 92 96 98
f 5 6 3
f 5 28 6
f 93 27 89
f 89 87 91
f 87 83 91
f 91 83 115
f 111 113 123
f 107 29 111
f 111 117 107
f 101 29 103
f 103 113 101
f 101 111 29
f 113 111 101
f 46 58 54
f 54 45 46
f 54 52 45
f 54 74 52
f 72 58 60
f 60 50 72
f 70 76 212
f 70 50 76
f 212 216 70
f 216 72 70
f 70 72 50
f 147 155 149
f 147 127 145
f 131 127 147
f 147 149 131
f 173 155 157
f 155 147 157
f 157 147 145
f 218 273 212
f 212 155 218
f 218 155 273
f 348 385 356
f 348 346 385
f 334 346 348
f 342 402 362
f 362 340 324
f 362 402 383
f 383 340 362
f 442 439 429
f 429 433 442
f 443 439 442
f 442 433 431
f 442 437 443
f 442 431 437
f 373 292 377
f 373 363 294
f 294 292 373
f 330 303 326
f 326 340 330
f 324 340 326
f 344 332 328
f 330 350 328
f 328 350 344
f 328 313 330
f 309 334 305
f 309 332 334
f 278 282 309
f 305 273 309
f 309 273 278
f 305 334 336
f 336 338 305
f 334 348 336
f 252 201 207
f 248 201 252
f 207 234 252
f 311 248 252
f 252 315 311
f 342 362 322
f 324 315 322
f 322 362 324
f 173 171 183
f 183 282 173
f 284 282 183
f 275 284 183
f 191 240 183
f 183 240 244
f 244 259 183
f 183 259 275
f 303 259 286
f 259 265 286
f 286 326 303
f 232 240 209
f 220 187 195
f 195 230 220
f 191 183 181
f 181 169 167
f 171 169 181
f 181 183 171
f 185 187 175
f 185 276 193
f 175 276 185
f 185 193 195
f 195 187 185
f 135 139 141
f 135 137 139
f 135 123 125
f 125 137 135
f 141 133 135
f 163 151 175
f 163 153 151
f 317 267 318
f 203 199 193
f 193 238 203
f 203 238 228
f 228 207 203
f 207 199 203
f 246 276 267
f 246 238 276
f 267 317 246
f 246 317 297
f 250 322 234
f 250 234 228
f 228 238 250
f 250 246 297
f 238 246 250
f 250 297 342
f 342 322 250
f 64 65 82
f 64 83 66
f 82 83 64
f 64 66 48
f 48 47 64
f 47 65 64
f 85 87 89
f 89 27 85
f 85 27 87
f 16 17 43
f 16 15 17
f 43 42 16
f 42 15 16
f 39 55 118
f 118 108 39
f 116 108 118
f 426 398 435
f 393 380 366
f 366 400 393
f 393 400 429
f 429 421 393
f 213 255 223
f 213 73 79
f 213 223 73
f 222 210 79
f 79 214 222
f 222 256 261
f 214 256 222
f 224 269 263
f 263 256 224
f 263 295 293
f 263 269 295
f 293 291 263
f 263 291 256
f 223 255 262
f 262 268 223
f 262 255 290
f 290 292 262
f 294 268 262
f 262 292 294
f 261 289 287
f 260 287 288
f 290 255 260
f 260 288 290
f 357 298 294
f 294 363 357
f 357 351 298
f 365 351 357
f 394 373 377
f 374 395 378
f 289 291 378
f 378 293 374
f 378 291 293
f 227 249 237
f 102 100 112
f 112 104 102
f 114 104 112
f 124 114 112
f 112 122 124
f 30 106 110
f 110 100 30
f 110 112 100
f 122 112 110
f 110 106 116
f 134 138 136
f 136 124 134
f 124 122 134
f 154 156 146
f 146 148 154
f 130 148 146
f 172 156 154
f 154 272 172
f 172 160 156
f 170 160 172
f 341 361 401
f 401 369 341
f 422 369 401
f 414 428 432
f 272 279 300
f 279 298 300
f 298 351 300
f 23 25 4
f 25 5 4
f 4 5 3
f 3 22 4
f 4 22 23
f 35 5 25
f 28 5 35
f 25 27 35
f 35 93 28
f 27 93 35
f 97 93 99
f 103 28 97
f 28 93 97
f 95 93 89
f 89 91 95
f 99 93 95
f 95 91 115
f 78 54 58
f 74 54 78
f 226 224 78
f 224 74 78
f 161 157 145
f 145 143 161
f 161 143 159
f 159 169 161
f 161 169 171
f 161 171 173
f 173 157 161
f 428 392 420
f 420 392 386
f 440 439 443
f 435 439 440
f 440 426 435
f 324 326 320
f 320 265 311
f 320 286 265
f 326 286 320
f 311 315 320
f 320 315 324
f 307 328 332
f 332 309 307
f 313 328 307
f 307 309 282
f 307 282 284
f 307 303 313
f 307 284 303
f 354 348 356
f 354 336 348
f 356 338 354
f 338 336 354
f 315 252 254
f 254 252 234
f 254 322 315
f 234 322 254
f 205 220 209
f 187 220 205
f 236 232 209
f 209 220 236
f 242 240 236
f 240 232 236
f 236 248 242
f 236 230 248
f 236 220 230
f 121 133 117
f 121 135 133
f 117 111 121
f 123 135 121
f 121 111 123
f 167 153 165
f 153 163 165
f 126 55 130
f 126 118 55
f 116 118 126
f 130 146 126
f 405 395 389
f 398 426 389
f 389 395 374
f 374 364 389
f 389 364 380
f 407 439 435
f 435 398 407
f 407 389 380
f 398 389 407
f 387 421 380
f 380 393 387
f 387 393 421
f 210 222 257
f 257 222 261
f 261 287 257
f 287 260 257
f 255 213 221
f 221 260 255
f 79 210 221
f 221 213 79
f 210 257 221
f 221 257 260
f 404 440 418
f 408 413 404
f 404 394 408
f 363 373 388
f 373 394 388
f 394 404 388
f 388 404 418
f 396 394 377
f 396 378 395
f 396 395 408
f 408 394 396
f 266 276 245
f 276 237 245
f 296 316 245
f 245 316 266
f 245 249 296
f 245 237 249
f 227 237 202
f 120 110 116
f 122 110 120
f 120 134 122
f 116 132 120
f 120 132 134
f 140 142 152
f 140 132 142
f 134 132 140
f 152 138 140
f 138 134 140
f 168 170 180
f 180 166 168
f 168 166 152
f 168 160 170
f 277 172 272
f 384 414 416
f 416 414 432
f 432 422 416
f 422 401 416
f 321 361 341
f 341 249 321
f 321 249 233
f 325 285 302
f 339 361 323
f 323 325 339
f 361 321 323
f 323 321 314
f 359 351 365
f 365 367 359
f 399 367 365
f 365 392 399
f 399 392 428
f 337 300 351
f 351 359 337
f 423 402 370
f 370 402 342
f 370 431 423
f 342 297 370
f 297 317 370
f 105 95 115
f 99 95 105
f 115 113 105
f 105 113 103
f 103 97 105
f 105 97 99
f 226 78 68
f 68 78 58
f 216 226 68
f 68 72 216
f 58 72 68
f 443 441 438
f 438 440 443
f 441 428 438
f 428 420 438
f 420 411 438
f 419 440 405
f 426 440 419
f 405 389 419
f 419 389 426
f 187 205 177
f 167 165 177
f 175 187 177
f 177 163 175
f 177 165 163
f 142 132 128
f 128 132 116
f 116 126 128
f 412 421 439
f 439 407 412
f 380 421 412
f 412 407 380
f 436 404 427
f 440 404 436
f 436 427 405
f 405 440 436
f 424 404 413
f 427 404 424
f 413 405 424
f 405 427 424
f 363 388 379
f 365 357 379
f 379 357 363
f 379 392 365
f 386 392 379
f 379 420 386
f 379 411 420
f 381 396 377
f 378 396 381
f 377 288 381
f 288 287 381
f 381 287 289
f 289 378 381
f 192 202 237
f 192 237 276
f 158 168 152
f 160 168 158
f 152 142 158
f 142 160 158
f 178 166 180
f 178 176 166
f 174 176 186
f 276 150 174
f 308 277 272
f 302 285 258
f 258 274 302
f 264 243 258
f 258 285 264
f 172 277 281
f 277 308 281
f 384 416 382
f 339 349 382
f 382 349 384
f 382 361 339
f 382 401 361
f 382 416 401
f 253 321 233
f 314 321 253
f 325 323 319
f 264 285 319
f 285 325 319
f 319 310 264
f 319 323 314
f 314 310 319
f 251 253 233
f 314 253 251
f 251 310 314
f 247 310 251
f 375 414 384
f 375 359 414
f 414 359 371
f 371 359 367
f 355 375 384
f 359 375 355
f 355 337 359
f 367 399 409
f 414 371 409
f 409 371 367
f 428 414 409
f 409 399 428
f 343 345 384
f 384 349 343
f 343 331 345
f 329 325 302
f 339 325 329
f 329 349 339
f 437 431 403
f 403 430 437
f 390 430 403
f 318 390 403
f 418 440 425
f 425 388 418
f 397 388 425
f 189 177 205
f 191 181 189
f 142 128 144
f 144 160 142
f 144 126 146
f 144 128 126
f 144 146 156
f 156 160 144
f 406 388 397
f 406 379 388
f 411 379 406
f 406 438 411
f 176 174 162
f 162 174 150
f 162 150 152
f 184 192 276
f 276 174 184
f 184 174 186
f 186 176 204
f 204 219 186
f 208 190 239
f 219 204 208
f 219 208 235
f 182 258 243
f 243 239 182
f 239 190 182
f 182 190 180
f 274 258 182
f 180 170 182
f 170 172 182
f 172 281 182
f 306 281 308
f 306 308 331
f 247 251 200
f 384 345 347
f 347 355 384
f 431 370 391
f 391 403 431
f 391 370 317
f 318 403 391
f 391 317 318
f 440 438 434
f 434 425 440
f 397 425 434
f 434 406 397
f 438 406 434
f 179 189 181
f 177 189 179
f 179 181 167
f 167 177 179
f 191 189 197
f 197 189 205
f 197 209 191
f 197 205 209
f 166 176 164
f 176 162 164
f 152 166 164
f 164 162 152
f 331 308 333
f 335 347 333
f 345 331 333
f 333 347 345
f 272 300 304
f 304 308 272
f 300 337 304
f 337 335 304
f 304 333 308
f 335 333 304
f 176 178 188
f 188 204 176
f 188 178 180
f 180 190 188
f 241 310 247
f 247 235 241
f 264 310 241
f 241 235 239
f 241 243 264
f 241 239 243
f 231 208 239
f 239 235 231
f 231 235 208
f 274 182 283
f 283 182 281
f 302 274 283
f 283 306 302
f 281 306 283
f 312 329 302
f 302 306 312
f 327 306 331
f 331 343 327
f 329 312 327
f 327 312 306
f 327 343 349
f 349 329 327
f 202 192 198
f 192 200 198
f 206 233 227
f 227 202 206
f 206 251 233
f 206 200 251
f 202 198 206
f 206 198 200
f 194 200 192
f 194 184 186
f 192 184 194
f 186 219 194
f 355 347 353
f 353 347 335
f 337 355 353
f 353 335 337
f 196 188 190
f 204 188 196
f 190 208 196
f 196 208 204
f 247 200 229
f 200 194 229
f 229 194 219
f 229 235 247
f 219 235 229
f 82 276 83
f 27 47 48
f 27 26 47
f 24 26 27
f 27 25 24
