v -0.06933641434 -0.09056737274 0.3795328438
v -0.06933641434 0.09056734294 0.3795328438
v -0.06869062781 -0.1043319851 0.3795531392
v -0.06869062781 0.1043319553 0.3795531392
v -0.06861966848 -0.09081944823 0.008909340948
v -0.06861966848 0.09081944823 0.008909348398
v -0.06803536415 -0.1043759584 0.008585120551
v -0.06803536415 0.1043759584 0.008585129865
v -0.06565919518 -0.09067179263 -0.02179700509
v -0.06565919518 0.09067179263 -0.02179699764
v -0.06564331055 -0.09058281779 0.4022029042
v -0.06564331055 0.09058278799 0.4022029042
v -0.06499482691 -0.1044078022 0.4022176862
v -0.06499482691 0.1044077724 0.4022176862
v -0.06469231844 -0.1045585275 -0.0219819136
v -0.06469231844 0.1045585275 -0.02198190615
v -0.05914568901 -0.1137136817 0.008198912255
v -0.05914568901 0.1137136817 0.008198921569
v -0.05551706254 -0.113802433 -0.01847717725
v -0.05551706254 0.113802433 -0.01847716607
v -0.0539521426 -0.09063857794 0.4233206511
v -0.0539521426 0.09063854814 0.4233206511
v -0.05370733142 -0.1208446473 0.379945457
v -0.05370733142 0.1208446175 0.379945457
v -0.05368122458 -0.1043994576 0.4228966236
v -0.05368122458 0.1043994278 0.4228966236
v -0.05079203844 -0.1208401173 0.3976749778
v -0.05079203844 0.1208400875 0.3976749778
v -0.05062262341 -0.1209223419 0.3620507121
v -0.05062262341 0.1209223121 0.3620507121
v -0.04985724017 -0.09082135558 -0.04809618369
v -0.04985724017 0.09082135558 -0.04809617624
v -0.04890829325 -0.1043802127 -0.04787400737
v -0.04890829325 0.1043802127 -0.04787399992
v -0.04825251549 -0.117441237 0.007231328171
v -0.04825251549 0.117441237 0.007231338415
v -0.04649400339 -0.1210000217 0.3802056611
v -0.04649400339 0.1209999472 0.3802056909
v -0.04639504105 -0.1172747612 -0.01544218324
v -0.04639504105 0.1172747612 -0.01544217207
v -0.04429968446 -0.1210000589 0.3945611119
v -0.04429968446 0.120999977 0.3945611417
v -0.04400389642 -0.1210000664 0.3633769453
v -0.04400389642 0.1209999919 0.3633769751
v -0.04338505492 -0.1210001111 0.380238682
v -0.04338505492 0.1210000366 0.3802387118
v -0.04266433418 -0.1134607792 -0.04075166956
v -0.04266433418 0.1134607792 -0.04075166211
v -0.04207262397 -0.1207825691 0.4135455489
v -0.04207262397 0.1207825392 0.4135455489
v -0.04134884849 -0.1210001186 0.3935349882
v -0.04134884849 0.1210000366 0.393535018
v -0.03904824704 -0.1208756119 0.3101563454
v -0.03904824704 0.1208755821 0.3101563454
v -0.0366412513 -0.121000044 0.4083356857
v -0.0366412513 0.1209999621 0.4083357155
v -0.03569836169 -0.1171545982 -0.03306897357
v -0.03569836169 0.1171545982 -0.03306896612
v -0.03486909717 -0.0905963704 0.4397560954
v -0.03486909717 0.0905963257 0.4397560954
v -0.03484541178 -0.1042648405 0.4390403628
v -0.03484541178 0.1042647958 0.4390403628
v -0.03473792598 -0.1210001186 0.4063249528
v -0.03473792598 0.1210000366 0.4063249826
v -0.0320520103 -0.1210000739 0.3115172088
v -0.0320520103 0.1210000068 0.3115172386
v -0.02978691459 -0.09062509239 -0.06260690838
v -0.02978691459 0.09062509239 -0.06260689348
v -0.02962888777 -0.1038796902 -0.06194132939
v -0.02962888777 0.1038796902 -0.06194132194
v -0.02870480716 -0.1208138615 0.4254490137
v -0.02870480716 0.1208138317 0.4254490137
v -0.02703160048 -0.1210000664 0.293779701
v -0.02703160048 0.1210000068 0.2937797308
v -0.0257440526 -0.1210000589 0.4185683131
v -0.0257440526 0.120999977 0.4185683429
v -0.02451346628 -0.1210001186 0.4157333672
v -0.02451346628 0.1210000366 0.415733397
v -0.02429291606 -0.1134086251 -0.05390280858
v -0.02429291606 0.1134086251 -0.05390280113
v -0.02407125756 -0.1208857149 0.2765914202
v -0.02407125756 0.1208856851 0.2765914202
v -0.02398500405 -0.1210003346 0.2952678502
v -0.02398500405 0.121000275 0.29526788
v -0.02060534433 -0.1170422435 -0.04406451806
v -0.02060534433 0.1170422435 -0.04406451061
v -0.01900707558 -0.1210000664 0.281227529
v -0.01900707558 0.1210000068 0.2812275589
v -0.0165445935 -0.121000573 0.2836647332
v -0.0165445935 0.1210005134 0.283664763
v -0.01542259753 -0.1042311862 0.4464125335
v -0.01542259753 0.1042311415 0.4464125335
v -0.0153160831 -0.09077020735 0.4469905496
v -0.0153160831 0.09077016264 0.4469905496
v -0.01175817847 -0.1208678409 0.4319570661
v -0.01175817847 0.1208677962 0.4319570661
v -0.01067024097 -0.1209680587 0.266222477
v -0.01067024097 0.1209680289 0.266222477
v -0.01035209 -0.1210000888 0.4248563051
v -0.01035209 0.1210000068 0.4248563349
v -0.007567446679 -0.1210000664 0.2721708715
v -0.007567446679 0.1210000068 0.2721709013
v -0.005294597708 -0.09057168663 -0.06850344688
v -0.005294597708 0.09057168663 -0.06850343198
v -0.005109421909 -0.104581058 -0.06784985214
v -0.005109421909 0.104581058 -0.06784983724
v -0.004033781588 -0.113283813 -0.05843370035
v -0.004033781588 0.113283813 -0.0584336929
v -0.003326371312 -0.1170062423 -0.04829423502
v -0.003326371312 0.1170062423 -0.04829422757
v 0.005416548811 -0.1210000291 0.4262070954
v 0.005416548811 0.1209999397 0.4262071252
v 0.006116166711 -0.1208099648 0.4334121048
v 0.006116166711 0.1208099201 0.4334121048
v 0.006621606648 -0.1209745556 0.2598133981
v 0.006621606648 0.1209745258 0.2598133981
v 0.006955981255 -0.1210000068 0.2668951154
v 0.006955981255 0.1209999472 0.2668951452
v 0.008574031293 -0.09058182687 0.448789686
v 0.008574031293 0.09058178216 0.448789686
v 0.009281970561 -0.1044626385 0.4479509592
v 0.009281970561 0.1044625938 0.4479509592
v 0.0136911571 -0.1170349121 -0.04687756673
v 0.0136911571 0.1170349121 -0.04687755927
v 0.01462680101 -0.1134461761 -0.05709374323
v 0.01462680101 0.1134461761 -0.05709373578
v 0.01471118629 -0.1050988436 -0.06656388193
v 0.01471118629 0.1050988436 -0.06656386703
v 0.0149250403 -0.09057170153 -0.0675219968
v 0.0149250403 0.09057170153 -0.06752198189
v 0.0212449152 -0.121000044 0.4217485487
v 0.0212449152 0.1209999621 0.4217485785
v 0.02344090492 -0.1208332703 0.4283445776
v 0.02344090492 0.1208332255 0.4283445776
v 0.02668064088 -0.1210000366 0.2680691481
v 0.02668064088 0.120999977 0.2680691779
v 0.02856197022 -0.1044407114 0.4423679113
v 0.02856197022 0.1044406667 0.4423679113
v 0.02943396568 -0.09055767953 0.4427840114
v 0.02943396568 0.09055763483 0.4427840114
v 0.03056344017 -0.1171468496 -0.03787111118
v 0.03056344017 0.1171468496 -0.03787110373
v 0.03073920682 -0.1210005954 0.4106098115
v 0.03073920682 0.1210005134 0.4106098413
v 0.03304406628 -0.1210000739 0.4131810963
v 0.03304406628 0.1209999919 0.4131811261
v 0.03379130363 -0.113671422 -0.04776204005
v 0.03379130363 0.113671422 -0.0477620326
v 0.03567385674 -0.1048055291 -0.05851209536
v 0.03567385674 0.1048055291 -0.05851208791
v 0.03617936 -0.09068885446 -0.05916238204
v 0.03617936 0.09068885446 -0.05916237459
v 0.03789269552 -0.1208866686 0.4179927707
v 0.03789269552 0.1208866388 0.4179927707
v 0.03894325718 -0.1210008338 0.3988968432
v 0.03894325718 0.1210007519 0.398896873
v 0.04177243263 -0.1210000888 0.4001786709
v 0.04177243263 0.1210000068 0.4001787007
v 0.04278150946 -0.1172996163 -0.02332272008
v 0.04278150946 0.1172996163 -0.0233227089
v 0.04310492426 -0.1210000366 0.2750365436
v 0.04310492426 0.120999977 0.2750365734
v 0.04677151889 -0.1210000366 0.384403795
v 0.04677151889 0.1209999621 0.3844038248
v 0.04684026912 -0.1209687144 0.2697115839
v 0.04684026912 0.1209686846 0.2697115839
v 0.04813504219 -0.1208850592 0.4035483003
v 0.04813504219 0.1208850294 0.4035483003
v 0.0485298261 -0.1174347997 0.0002498581307
v 0.0485298261 0.1174347997 0.0002498683752
v 0.0491258651 -0.1044275016 0.4281688929
v 0.0491258651 0.1044274569 0.4281688929
v 0.04979896545 -0.09056086838 0.4282043576
v 0.04979896545 0.09056082368 0.4282043576
v 0.05070984364 -0.1138219833 -0.02907410823
v 0.05070984364 0.1138219833 -0.02907409705
v 0.05076275766 -0.1173989773 0.02105633728
v 0.05076275766 0.1173989773 0.02105634846
v 0.05349782109 -0.1210000366 0.2854735553
v 0.05349782109 0.120999977 0.2854735851
v 0.05383323133 -0.1207804829 0.3863989413
v 0.05383323133 0.1207804531 0.3863989413
v 0.05678419769 -0.1210005805 0.300210923
v 0.05678419769 0.1210005134 0.3002109528
v 0.05861476064 -0.1043401957 -0.03519331291
v 0.05861476064 0.1043401957 -0.03519330546
v 0.05890080333 -0.1139244437 -0.002748792293
v 0.05890080333 0.1139244437 -0.002748782514
v 0.05901258066 -0.1210000142 0.3331793547
v 0.05901258066 0.1209999472 0.3331793845
v 0.05939921737 -0.09062705189 -0.03568719327
v 0.05939921737 0.09062705189 -0.03568718582
v 0.05969493091 -0.1208002716 0.2820996642
v 0.05969493091 0.1208002418 0.2820996642
v 0.06014798954 -0.121000044 0.2994340062
v 0.06014798954 0.120999977 0.299434036
v 0.06126117706 -0.1136448979 0.02052082121
v 0.06126117706 0.1136448979 0.02052083239
v 0.06146255136 -0.1043630093 0.4108801782
v 0.06146255136 0.1043629795 0.4108801782
v 0.06197599694 -0.1210000739 0.3170949817
v 0.06197599694 0.1210000068 0.3170950115
v 0.06214690208 -0.0905450657 0.4107756317
v 0.06214690208 0.0905450359 0.4107756317
v 0.06386244297 -0.1132754683 0.05926518887
v 0.06386244297 0.1132754683 0.05926519632
v 0.06568990648 -0.1208487302 0.3346394897
v 0.06568990648 0.1208487004 0.3346394897
v 0.06733674556 -0.1207764894 0.2975366712
v 0.06733674556 0.1207764596 0.2975366712
v 0.06788671017 -0.1040788889 -0.005258952267
v 0.06788671017 0.1040788889 -0.005258942954
v 0.0680629015 -0.1044383869 0.3904117644
v 0.0680629015 0.1044383571 0.3904117644
v 0.06862768531 -0.0906585753 -0.005129416008
v 0.06862768531 0.0906585753 -0.005129407626
v 0.06870698929 -0.0905450657 0.3906036317
v 0.06870698929 0.0905450359 0.3906036317
v 0.06916718185 -0.1207960993 0.3165320754
v 0.06916718185 0.1207960695 0.3165320754
v 0.0700211525 -0.1045523882 0.01933807135
v 0.0700211525 0.1045523882 0.0193380788
v 0.07069945335 -0.09056994319 0.0190926902
v 0.07069945335 0.09056994319 0.01909269765
v 0.07263845205 -0.1043494791 0.05860413238
v 0.07263845205 0.1043494791 0.05860413983
v 0.0731022954 -0.0906682387 0.05771186575
v 0.0731022954 0.0906682387 0.0577118732
v 0.07495963573 -0.1044867709 0.09756777436
v 0.07495963573 0.104486756 0.09756778926
v 0.07550728321 -0.09062872827 0.09695030004
v 0.07550728321 0.09062871337 0.09695031494
v 0.07563520968 -0.1144150645 0.2961953282
v 0.07563520968 0.1144150347 0.2961953282
v 0.07748162746 -0.1038191393 0.1363893449
v 0.07748162746 0.1038191244 0.1363893449
v 0.07788413763 -0.09081422538 0.1359108537
v 0.07788413763 0.09081421047 0.1359108537
v 0.07964429259 -0.1039604023 0.1723475754
v 0.07964429259 0.1039603874 0.1723475754
v 0.08011305332 -0.09062179178 0.1722530276
v 0.08011305332 0.09062177688 0.1722530276
v 0.08032971621 -0.1045032293 0.3380523622
v 0.08032971621 0.1045031995 0.3380523622
v 0.08100390434 -0.09056615084 0.3377762437
v 0.08100390434 0.09056612104 0.3377762437
v 0.08169978857 -0.1039750054 0.2061972469
v 0.08169978857 0.1039749905 0.2061972469
v 0.08216434717 -0.09060753882 0.2057941705
v 0.08216434717 0.09060752392 0.2057941705
v 0.0835506022 -0.1044687703 0.2392110378
v 0.0835506022 0.1044687554 0.2392110378
v 0.08418601751 -0.09055707604 0.2388407588
v 0.08418601751 0.09055706114 0.2388407588
v 0.08444485068 -0.1043740883 0.3175662458
v 0.08444485068 0.1043740585 0.3175662458
v 0.08499127626 -0.09065625072 0.3172043562
v 0.08499127626 0.09065622091 0.3172043562
v 0.08554756641 -0.1044783443 0.2737659812
v 0.08554756641 0.1044783145 0.2737659812
v 0.08626979589 -0.09065899998 0.2737584412
v 0.08626979589 0.09065897018 0.2737584412
v 0.08633697033 -0.1041317135 0.2959769666
v 0.08633697033 0.1041316837 0.2959769666
v 0.08679166436 -0.09056712687 0.2960957289
v 0.08679166436 0.09056709707 0.2960957289
f 14 24 4
f 214 182 200
f 14 4 12
f 12 4 2
f 14 12 26
f 1 7 3
f 3 7 23
f 16 10 8
f 10 6 8
f 2 4 8
f 8 6 2
f 8 4 24
f 199 173 171
f 203 173 199
f 199 217 203
f 257 263 265
f 218 200 204
f 214 200 218
f 154 200 168
f 168 200 182
f 168 146 154
f 204 200 174
f 265 263 261
f 32 10 16
f 103 105 67
f 31 32 67
f 129 105 103
f 103 130 129
f 59 21 25
f 5 7 1
f 1 2 5
f 2 6 5
f 10 32 9
f 9 32 31
f 7 5 9
f 9 6 10
f 9 5 6
f 103 67 68
f 68 32 70
f 68 67 32
f 106 68 70
f 20 48 16
f 24 36 18
f 18 8 24
f 16 8 18
f 18 20 16
f 22 26 12
f 28 24 14
f 14 26 28
f 199 171 153
f 144 146 156
f 100 144 156
f 156 146 158
f 146 168 158
f 70 32 34
f 16 48 34
f 34 32 16
f 169 159 187
f 187 159 175
f 105 129 127
f 152 130 150
f 152 129 130
f 13 3 23
f 165 159 193
f 31 67 69
f 69 67 105
f 105 79 69
f 23 7 17
f 15 9 31
f 7 9 15
f 15 17 7
f 150 130 128
f 130 106 128
f 80 106 70
f 70 34 80
f 80 34 48
f 104 130 103
f 104 106 130
f 103 68 104
f 68 106 104
f 148 186 150
f 148 176 186
f 186 176 188
f 149 127 129
f 185 191 211
f 211 187 185
f 185 187 175
f 185 149 191
f 185 175 147
f 147 149 185
f 228 223 224
f 211 191 215
f 215 224 223
f 216 224 215
f 50 26 72
f 50 28 26
f 72 56 50
f 56 28 50
f 221 229 197
f 221 187 211
f 197 187 221
f 211 215 221
f 221 215 223
f 259 261 263
f 244 182 214
f 214 218 244
f 264 256 258
f 24 38 30
f 30 36 24
f 30 54 36
f 24 28 42
f 42 38 24
f 42 28 56
f 96 92 114
f 144 100 112
f 114 134 112
f 112 96 114
f 100 96 112
f 78 100 156
f 194 166 180
f 116 98 102
f 102 118 116
f 136 166 116
f 116 118 136
f 227 223 228
f 191 152 192
f 150 186 192
f 192 152 150
f 192 215 191
f 216 215 192
f 113 91 95
f 113 121 91
f 137 121 113
f 61 91 59
f 59 25 61
f 95 91 61
f 27 49 25
f 25 13 27
f 27 13 23
f 23 41 27
f 1 3 11
f 3 13 11
f 11 25 21
f 11 13 25
f 105 127 107
f 107 79 105
f 33 15 31
f 47 15 33
f 31 69 33
f 33 79 47
f 33 69 79
f 19 15 47
f 17 15 19
f 108 128 106
f 106 80 108
f 186 188 212
f 212 192 186
f 216 192 212
f 151 152 191
f 191 149 151
f 129 152 151
f 151 149 129
f 88 82 74
f 98 82 88
f 88 102 98
f 245 217 243
f 199 153 167
f 169 187 177
f 197 229 251
f 251 259 197
f 219 187 197
f 219 177 187
f 264 258 266
f 266 262 264
f 246 244 218
f 256 244 246
f 246 258 256
f 44 30 38
f 132 112 134
f 154 146 132
f 132 134 154
f 146 144 132
f 144 112 132
f 64 42 56
f 64 78 156
f 100 78 76
f 76 96 100
f 72 96 76
f 76 56 72
f 76 64 56
f 78 64 76
f 60 94 92
f 26 22 60
f 91 121 119
f 182 244 208
f 208 244 256
f 208 168 182
f 220 256 264
f 264 234 220
f 220 208 256
f 202 208 220
f 198 188 220
f 220 178 210
f 188 178 220
f 260 234 264
f 264 262 260
f 164 158 168
f 156 158 164
f 196 194 180
f 210 194 196
f 196 220 210
f 202 220 196
f 180 166 162
f 166 136 162
f 137 113 133
f 133 171 137
f 133 153 171
f 71 75 95
f 95 61 71
f 25 49 71
f 71 61 25
f 49 27 55
f 55 27 41
f 55 71 49
f 75 71 55
f 125 107 127
f 125 149 147
f 127 149 125
f 79 107 109
f 107 125 109
f 222 188 198
f 222 212 188
f 222 224 216
f 216 212 222
f 102 88 90
f 74 84 90
f 90 88 74
f 118 102 90
f 90 136 118
f 84 44 90
f 199 167 181
f 207 243 181
f 181 167 207
f 247 251 229
f 247 253 261
f 261 259 247
f 259 251 247
f 233 259 263
f 263 219 233
f 255 243 207
f 207 219 255
f 255 219 263
f 263 257 255
f 255 257 245
f 245 243 255
f 169 177 209
f 177 219 209
f 209 159 169
f 209 193 159
f 66 84 74
f 66 44 84
f 30 44 66
f 74 54 66
f 54 30 66
f 52 64 156
f 42 64 52
f 156 90 52
f 26 60 62
f 62 60 92
f 72 26 62
f 62 96 72
f 92 96 62
f 91 119 93
f 59 91 93
f 139 121 137
f 139 119 121
f 137 171 139
f 139 171 173
f 92 94 120
f 206 260 198
f 234 260 206
f 198 220 206
f 206 220 234
f 168 208 190
f 190 164 168
f 190 208 202
f 190 202 156
f 156 164 190
f 156 202 184
f 202 196 184
f 184 196 180
f 184 90 156
f 180 162 184
f 184 162 136
f 136 90 184
f 231 254 253
f 231 232 254
f 231 227 228
f 228 232 231
f 115 159 165
f 95 75 99
f 79 109 85
f 109 115 85
f 123 125 147
f 123 109 125
f 123 115 109
f 126 124 148
f 128 108 126
f 150 128 126
f 126 148 150
f 176 148 142
f 148 124 142
f 142 124 116
f 110 108 80
f 110 126 108
f 124 126 110
f 116 124 110
f 230 222 198
f 199 181 213
f 213 181 243
f 213 217 199
f 213 243 217
f 253 247 235
f 235 231 237
f 227 231 235
f 205 219 197
f 205 233 219
f 197 259 205
f 259 233 205
f 46 52 90
f 46 44 38
f 46 90 44
f 38 42 46
f 42 52 46
f 241 231 253
f 237 231 241
f 241 235 237
f 207 167 189
f 63 55 41
f 75 55 63
f 37 41 23
f 23 29 37
f 111 113 95
f 95 99 111
f 111 133 113
f 47 79 57
f 79 85 57
f 57 85 115
f 159 115 141
f 115 123 141
f 141 123 147
f 147 175 141
f 175 159 141
f 176 142 160
f 160 188 176
f 160 194 210
f 166 194 160
f 116 166 160
f 160 142 116
f 86 110 80
f 116 110 86
f 198 260 252
f 252 230 198
f 224 222 226
f 222 230 226
f 228 224 226
f 225 247 229
f 229 221 225
f 225 221 223
f 223 227 225
f 227 235 225
f 172 140 174
f 172 200 154
f 172 174 200
f 154 134 172
f 120 140 122
f 114 92 122
f 92 120 122
f 253 235 249
f 249 241 253
f 235 241 249
f 135 115 165
f 165 161 135
f 163 189 167
f 155 189 163
f 165 193 179
f 179 161 165
f 201 189 155
f 207 189 201
f 201 219 207
f 75 63 77
f 77 63 155
f 77 99 75
f 155 99 77
f 157 163 167
f 155 163 157
f 153 133 131
f 133 111 131
f 39 19 47
f 47 57 39
f 17 19 39
f 170 178 188
f 188 160 170
f 210 178 170
f 170 160 210
f 58 98 116
f 116 86 58
f 58 80 48
f 58 86 80
f 254 232 242
f 232 238 242
f 236 242 238
f 236 238 232
f 236 232 228
f 228 226 236
f 230 252 248
f 248 226 230
f 248 260 262
f 248 252 260
f 262 254 248
f 254 236 248
f 239 235 247
f 247 225 239
f 239 225 235
f 140 172 138
f 138 122 140
f 138 172 134
f 138 134 114
f 114 122 138
f 115 135 117
f 183 201 155
f 161 179 183
f 183 135 161
f 51 63 41
f 155 63 51
f 153 131 145
f 145 167 153
f 145 157 167
f 155 157 145
f 23 17 35
f 17 39 35
f 35 29 23
f 29 35 53
f 53 35 39
f 97 57 115
f 97 39 57
f 97 87 81
f 81 39 97
f 98 58 40
f 40 82 98
f 74 82 40
f 40 18 36
f 20 18 40
f 48 20 40
f 40 58 48
f 36 54 40
f 40 54 74
f 254 242 250
f 250 236 254
f 242 236 250
f 240 236 226
f 226 248 240
f 240 248 236
f 201 183 195
f 219 201 195
f 195 183 179
f 195 209 219
f 195 179 193
f 193 209 195
f 29 53 65
f 89 183 155
f 155 51 89
f 135 183 89
f 89 117 135
f 155 145 143
f 143 145 131
f 143 131 111
f 143 99 155
f 143 111 99
f 115 117 101
f 101 97 115
f 87 97 101
f 101 89 87
f 117 89 101
f 83 65 73
f 73 89 83
f 73 65 53
f 87 89 73
f 73 53 39
f 81 87 73
f 73 39 81
f 43 65 83
f 83 89 43
f 29 65 43
f 43 37 29
f 45 89 51
f 41 37 45
f 45 51 41
f 37 43 45
f 45 43 89
f 218 203 217
f 204 203 218
f 174 203 204
f 173 203 174
f 254 262 261
f 261 253 254
f 11 12 2
f 11 2 1
f 21 22 11
f 11 22 12
f 266 258 257
f 266 257 265
f 261 262 266
f 265 261 266
f 257 258 246
f 245 257 246
f 246 218 217
f 246 217 245
f 60 22 21
f 60 21 59
f 93 60 59
f 94 60 93
f 94 93 120
f 120 93 119
f 173 174 140
f 140 139 173
f 140 120 119
f 119 139 140
