v -0.0878129378 -0.0674098134 -0.04949999601
v -0.0878129378 -0.06740980595 0.04950001091
v -0.0878129378 -0.0007495103637 -0.0656164661
v -0.0878129378 -0.0007495029131 0.06474863738
v -0.0878129378 0.06591077149 -0.04949999601
v -0.0878129378 0.06591077894 0.04950001091
v -0.07267193496 -0.08949931711 -0.04949999601
v -0.07267193496 -0.08949931711 0.04950001091
v -0.07267193496 0.08800029755 -0.04949999601
v -0.07267193496 0.08800029755 0.04950001091
v -0.04967193305 -0.08949931711 -0.07249999791
v -0.04967193305 -0.08949931711 0.07250001281
v -0.04967193305 0.08800029755 -0.07249999791
v -0.04967193305 0.08800029755 0.07250001281
v 0.04967193305 -0.08949931711 -0.07249999791
v 0.04967193305 -0.08949931711 0.07250001281
v 0.04967193305 0.08800029755 -0.07249999791
v 0.04967193305 0.08800029755 0.07250001281
v 0.07267193496 -0.08949931711 -0.04949999601
v 0.07267193496 -0.08949931711 0.04950001091
v 0.07267193496 0.08800029755 -0.04949999601
v 0.07267193496 0.08800029755 0.04950001091
v 0.08749967068 -0.06740980595 -0.04949999601
v 0.08749967068 -0.06740980595 0.04950001091
v 0.08749967068 -0.0007495103055 0.06512501091
v 0.08749967068 -0.0007495029131 -0.06500292569
v 0.08749967068 0.06591077894 -0.04949999601
v 0.08749967068 0.06591077894 0.04950001091
f 5 6 9
f 1 11 7
f 7 8 1
f 1 8 2
f 2 8 12
f 6 14 10
f 9 6 10
f 13 5 9
f 18 28 22
f 12 14 4
f 4 14 6
f 4 2 12
f 19 15 23
f 18 16 25
f 25 28 18
f 25 16 24
f 21 27 17
f 3 11 1
f 5 13 3
f 3 13 11
f 24 16 20
f 23 15 26
f 26 17 27
f 15 17 26
f 18 14 16
f 16 14 12
f 28 27 22
f 22 27 21
f 17 13 9
f 9 10 17
f 17 14 18
f 17 10 14
f 18 22 17
f 17 22 21
f 17 15 11
f 11 13 17
f 6 5 3
f 3 4 6
f 1 2 3
f 2 4 3
f 11 15 20
f 12 8 20
f 20 7 11
f 8 7 20
f 20 16 12
f 15 19 20
f 23 24 20
f 20 19 23
f 26 25 24
f 26 24 23
f 26 27 28
f 28 25 26
