v -0.02995286696 2.339824515e-11 0.001249993918
v -0.02995285764 2.407417599e-10 -0.03583819419
v -0.02995284647 1.933357502e-10 -0.06175002083
v -0.02893223614 -0.04198368639 -0.04445331171
v -0.02856158093 -0.0564590618 -0.05721659213
v -0.02744962275 -0.06198368222 -0.0811605677
v -0.02593994327 0.01497643348 0.001249995315
v -0.02593993396 -0.0149764521 0.001249995199
v -0.02593993396 0.01497643441 -0.03583819419
v -0.02593992278 0.01497643441 -0.06175001711
v -0.02135640383 -0.03951720148 -0.1377529055
v -0.02135640197 -0.06198368222 -0.1377528906
v -0.01497643068 0.02593994513 0.001249998808
v -0.01497642044 0.02593994513 -0.03583819047
v -0.01497641765 -0.02593995258 0.001249998808
v -0.01497641206 0.02593994513 -0.06175001338
v -1.749798306e-09 0.02995286696 0.001250003697
v 7.368876176e-09 0.02995286696 -0.03583818674
v 1.443703646e-08 -0.02995286696 0.001250003697
v 1.648755088e-08 0.02995286696 -0.06175000966
v 0.01497642975 0.02593994699 0.001250008587
v 0.01497644279 -0.02593993768 0.001250008587
v 0.01497644838 0.02593994699 -0.06175000593
v 0.02135648392 -0.03951720148 -0.1377528906
v 0.02135648765 -0.06198368222 -0.1377528757
v 0.02593993954 0.01497644 0.001250012196
v 0.02593995072 -0.01497642044 0.001250012079
v 0.02593996003 0.01497644093 -0.06175000221
v 0.02744966373 -0.06198368222 -0.0811605528
v 0.028561607 -0.0564590618 -0.05721658468
v 0.02893225849 -0.04198368639 -0.04445328936
v 0.02995286696 1.168747499e-08 0.001250013476
v 0.02995288745 1.185741194e-08 -0.06174999848
f 11 25 12
f 24 25 11
f 33 25 24
f 10 16 11
f 29 25 33
f 33 30 29
f 6 29 5
f 5 29 30
f 1 4 5
f 19 30 22
f 15 5 19
f 19 5 30
f 3 10 11
f 11 12 3
f 3 12 6
f 3 5 4
f 6 5 3
f 16 10 9
f 31 30 33
f 33 32 31
f 31 32 30
f 22 30 27
f 27 32 22
f 30 32 27
f 1 5 8
f 8 5 15
f 17 23 20
f 11 16 20
f 20 24 11
f 20 23 24
f 33 24 28
f 24 23 28
f 28 32 33
f 10 3 2
f 2 9 10
f 1 9 2
f 2 4 1
f 2 3 4
f 21 23 17
f 21 28 23
f 16 9 14
f 9 13 14
f 7 9 1
f 7 13 9
f 17 13 7
f 7 21 17
f 15 19 7
f 7 19 22
f 1 8 7
f 7 8 15
f 32 28 26
f 28 21 26
f 21 7 26
f 22 32 26
f 26 7 22
f 18 13 17
f 18 14 13
f 17 20 18
f 18 20 16
f 16 14 18
f 29 12 25
f 6 12 29
