v -0.07082179189 -0.02286601067 -3.367899026e-08
v -0.07082179189 0.02286601067 -3.567799922e-08
v -0.06840859354 -0.02286601067 -0.01833005622
v -0.06840859354 -0.02286601067 0.01832999289
v -0.06840859354 0.02286601067 -0.01833005808
v -0.06840859354 0.02286601067 0.01832999103
v -0.06429495662 -0.02802516893 -2.857446546e-08
v -0.06429495662 0.02802516893 -3.102450208e-08
v -0.06210415438 -0.02802517265 0.01664073206
v -0.06210415438 0.02802517265 0.0166407302
v -0.06210415065 -0.02802517265 -0.01664077863
v -0.06210415065 0.02802517265 -0.01664078049
v -0.06133348495 -0.0228660088 0.03541085497
v -0.06133348495 0.02286601253 0.03541085124
v -0.06133345515 -0.02286601253 -0.0354109183
v -0.06133345515 0.0228660088 -0.03541092202
v -0.0556810759 -0.02802516706 0.03214744106
v -0.0556810759 0.02802517079 0.03214743733
v -0.05568104982 -0.02802517079 -0.03214749321
v -0.05568104982 0.02802516706 -0.03214749694
v -0.05121659115 -0.03660710156 -2.391884735e-08
v -0.05121659115 0.03660710156 -2.711914071e-08
v -0.05007859319 -0.0228660088 0.05007852986
v -0.05007859319 0.02286601253 0.05007852614
v -0.05007855594 -0.02286601253 -0.05007858574
v -0.05007855594 0.0228660088 -0.05007858947
v -0.04947142676 -0.03660710528 0.01325580664
v -0.04947142676 0.03660710528 0.01325580291
v -0.04947142303 -0.03660710528 -0.01325584576
v -0.04947142303 0.03660710528 -0.01325584948
v -0.04546341673 -0.02802517824 0.04546335712
v -0.04546341673 0.02802518196 0.0454633534
v -0.0454633832 -0.02802516706 -0.045463413
v -0.0454633832 0.02802516334 -0.04546341673
v -0.04435487837 -0.03660710156 0.02560826764
v -0.04435487837 0.03660710156 0.02560826577
v -0.04435485601 -0.03660710156 -0.02560830489
v -0.04435485601 0.03660710156 -0.02560830675
v -0.03621561453 -0.03660711274 0.03621555492
v -0.03621561453 0.03660711274 0.0362155512
v -0.03621558845 -0.03660709411 -0.03621562198
v -0.03621558845 0.03660709411 -0.0362156257
v -0.03541091457 -0.02286600135 0.06133344769
v -0.03541091457 0.02286600508 0.06133344397
v -0.03541088477 -0.02286601625 -0.06133348122
v -0.03541088477 0.02286601253 -0.06133348495
v -0.03214748949 -0.02802516706 0.05568103865
v -0.03214748949 0.02802517079 0.05568103492
v -0.03214746714 -0.02802517824 -0.05568108335
v -0.03214746714 0.02802517451 -0.05568108708
v -0.02560830675 -0.03660709783 0.04435483739
v -0.02560830675 0.03660710528 0.04435483366
v -0.02560828812 -0.03660710901 -0.04435489699
v -0.02560828812 0.03660710156 -0.04435490072
v -0.01833005622 -0.02286599949 0.06840857863
v -0.01833005622 0.02286600694 0.06840857863
v -0.01833002269 -0.02286601812 -0.06840860844
v -0.01833002269 0.02286601067 -0.06840860844
v -0.01664078236 -0.02802516706 0.06210413575
v -0.01664078236 0.02802517079 0.06210413203
v -0.01664075069 -0.02802517824 -0.06210416555
v -0.01664075069 0.02802517451 -0.06210416928
v -0.01325585041 -0.03660709783 0.04947140068
v -0.01325585041 0.03660710528 0.04947139695
v -0.01325582527 -0.03660710901 -0.04947144538
v -0.01325582527 0.03660710156 -0.04947144911
v -3.571039997e-08 -0.02286599949 0.07082177699
v -3.571039997e-08 0.02286600694 0.07082177699
v -3.300374374e-08 -0.0280251652 0.06429493427
v -3.300374374e-08 0.02802517265 0.06429493427
v -2.822079992e-08 -0.03660709783 0.05121656135
v -2.822079992e-08 0.03660710528 0.05121655762
v -2.934363863e-11 -0.03660710901 -0.05121659487
v -2.934363863e-11 0.03660710156 -0.0512165986
v 2.386514097e-09 -0.0280251801 -0.06429494917
v 2.386514097e-09 0.02802517265 -0.06429494917
v 2.502929419e-09 -0.02286601812 -0.07082179934
v 2.502929419e-09 0.02286601067 -0.07082179934
v 0.01325579453 -0.03660709783 0.04947140813
v 0.01325579453 0.03660710528 0.0494714044
v 0.01325582247 -0.03660710901 -0.04947145283
v 0.01325582247 0.03660710156 -0.04947145656
v 0.01664071903 -0.02802516706 0.06210414693
v 0.01664071903 0.02802517079 0.0621041432
v 0.01664075442 -0.02802517824 -0.06210417673
v 0.01664075442 0.02802517451 -0.06210418046
v 0.0183299873 -0.02286599949 0.06840858608
v 0.0183299873 0.02286600694 0.06840858608
v 0.01833002456 -0.02286601812 -0.06840861589
v 0.01833002456 0.02286601067 -0.06840861589
v 0.02560826764 -0.03660709783 0.04435485601
v 0.02560826764 0.03660710528 0.04435485229
v 0.02560828812 -0.03660710901 -0.04435489699
v 0.02560828812 0.03660710156 -0.04435490072
v 0.03214744478 -0.02802516706 0.05568106472
v 0.03214744478 0.02802517079 0.055681061
v 0.03214747086 -0.02802517824 -0.05568108335
v 0.03214747086 0.02802517451 -0.05568108708
v 0.03541085869 -0.02286600135 0.06133347377
v 0.03541085869 0.02286600508 0.06133347005
v 0.03541088849 -0.02286601625 -0.06133348122
v 0.03541088849 0.02286601253 -0.06133348495
v 0.03621556982 -0.03660711274 0.0362155959
v 0.03621556982 0.03660711274 0.03621559218
v 0.0362155959 -0.03660709411 -0.03621561453
v 0.0362155959 0.03660709411 -0.03621561825
v 0.04435484484 -0.03660710156 0.02560831793
v 0.04435484484 0.03660710156 0.02560831606
v 0.04435486719 -0.03660710528 -0.02560829371
v 0.04435486719 0.03660710528 -0.02560829557
v 0.04546336457 -0.02802517824 0.04546340927
v 0.04546336457 0.02802518196 0.04546340555
v 0.0454633981 -0.02802516706 -0.04546340555
v 0.0454633981 0.02802516334 -0.04546340927
v 0.04947141558 -0.03660710528 0.01325586159
v 0.04947141558 0.03660710528 0.01325585786
v 0.0494714193 -0.03660710528 -0.01325583365
v 0.0494714193 0.03660710528 -0.01325583737
v 0.05007853732 -0.0228660088 0.05007858947
v 0.05007853732 0.02286601253 0.05007858574
v 0.05007856339 -0.02286601253 -0.05007857457
v 0.05007856339 0.0228660088 -0.05007857829
v 0.05121659115 -0.03660710528 -6.855595203e-09
v 0.05121659115 0.03660710528 -1.005589034e-08
v 0.05568103492 -0.02802517079 0.03214750439
v 0.05568103492 0.02802517451 0.03214750066
v 0.055681061 -0.02802517451 -0.03214747831
v 0.055681061 0.02802517079 -0.03214748204
v 0.06133344024 -0.0228660088 0.03541092947
v 0.06133344024 0.02286601253 0.03541092575
v 0.06133346632 -0.02286601253 -0.03541089594
v 0.06133346632 0.0228660088 -0.03541089967
v 0.0621041432 -0.02802517265 0.01664080098
v 0.0621041432 0.02802517265 0.01664079912
v 0.06210414693 -0.02802517265 -0.01664076373
v 0.06210414693 0.02802517265 -0.01664076559
v 0.06429495662 -0.02802517265 -7.154042692e-09
v 0.06429495662 0.02802517265 -9.604081086e-09
v 0.06840857863 -0.02286601067 0.01833007112
v 0.06840857863 0.02286601067 0.01833006926
v 0.06840858608 -0.02286601067 -0.01833003573
v 0.06840858608 0.02286601067 -0.01833003759
v 0.07082179189 -0.02286601067 -6.088557658e-09
v 0.07082179189 0.02286601067 -8.087567949e-09
f 39 73 103
f 103 71 39
f 99 119 120
f 120 100 99
f 45 46 57
f 45 57 49
f 1 9 4
f 51 39 63
f 63 39 71
f 139 133 143
f 103 123 115
f 133 125 115
f 143 133 137
f 133 115 137
f 137 115 123
f 69 83 67
f 71 83 69
f 67 59 69
f 69 63 71
f 59 63 69
f 79 71 103
f 79 83 71
f 1 4 6
f 96 100 120
f 44 32 24
f 64 72 40
f 67 83 87
f 83 99 87
f 16 5 12
f 58 57 46
f 58 62 78
f 61 49 57
f 45 49 25
f 16 15 3
f 3 5 16
f 55 59 67
f 59 55 43
f 24 23 43
f 43 44 24
f 43 55 56
f 56 44 43
f 31 43 23
f 13 6 4
f 13 31 23
f 17 31 13
f 13 4 9
f 9 17 13
f 119 111 129
f 129 111 125
f 129 125 133
f 133 139 129
f 103 115 107
f 107 115 125
f 107 111 103
f 125 111 107
f 91 79 103
f 24 32 14
f 6 13 14
f 40 72 104
f 80 96 92
f 80 104 72
f 92 104 80
f 32 44 48
f 48 44 56
f 56 68 70
f 72 64 70
f 70 80 72
f 100 96 88
f 88 99 100
f 88 87 99
f 130 129 140
f 140 129 139
f 140 139 143
f 143 144 140
f 105 93 113
f 46 26 50
f 50 58 46
f 62 58 50
f 16 12 20
f 20 38 42
f 30 38 20
f 20 12 30
f 20 26 16
f 30 12 8
f 8 12 5
f 33 25 49
f 59 43 47
f 51 63 47
f 47 63 59
f 43 31 47
f 47 39 51
f 47 31 39
f 103 73 81
f 81 93 103
f 83 79 95
f 79 91 95
f 95 99 83
f 119 99 95
f 95 111 119
f 103 111 95
f 95 91 103
f 18 14 32
f 92 96 112
f 112 104 92
f 112 96 120
f 120 130 112
f 112 130 126
f 126 108 112
f 108 104 112
f 52 64 40
f 52 48 64
f 40 32 52
f 32 48 52
f 60 48 56
f 64 48 60
f 56 70 60
f 60 70 64
f 68 88 84
f 84 70 68
f 80 70 84
f 96 80 84
f 84 88 96
f 77 61 57
f 89 90 102
f 116 104 108
f 116 108 126
f 126 130 134
f 130 140 134
f 134 116 126
f 134 140 144
f 143 137 141
f 137 135 141
f 141 144 143
f 141 142 144
f 141 131 132
f 132 142 141
f 117 137 123
f 117 135 137
f 117 123 103
f 103 93 117
f 42 50 34
f 34 50 26
f 34 20 42
f 26 20 34
f 40 30 28
f 2 8 5
f 1 6 2
f 2 3 1
f 5 3 2
f 15 25 19
f 25 33 19
f 1 3 7
f 7 9 1
f 9 7 27
f 27 7 21
f 53 33 49
f 49 61 53
f 6 14 10
f 14 18 10
f 18 28 10
f 10 28 8
f 10 2 6
f 8 2 10
f 75 81 73
f 61 77 75
f 101 89 102
f 124 118 104
f 104 116 124
f 86 90 78
f 82 86 74
f 128 142 132
f 132 122 128
f 109 93 105
f 109 117 93
f 105 113 109
f 30 8 22
f 22 28 30
f 8 28 22
f 40 28 36
f 36 28 18
f 36 32 40
f 36 18 32
f 11 3 15
f 15 19 11
f 11 7 3
f 35 17 9
f 9 27 35
f 35 27 39
f 39 31 35
f 35 31 17
f 65 53 61
f 65 75 73
f 61 75 65
f 73 39 65
f 39 53 65
f 97 101 121
f 121 113 97
f 97 113 93
f 89 101 97
f 142 128 136
f 116 134 138
f 138 124 116
f 138 134 144
f 144 142 138
f 142 136 138
f 118 124 138
f 138 136 118
f 102 90 98
f 90 86 98
f 98 122 102
f 76 86 78
f 76 74 86
f 78 62 76
f 62 74 76
f 62 50 54
f 54 50 42
f 42 38 54
f 54 38 30
f 118 136 110
f 110 136 128
f 104 118 110
f 82 74 110
f 40 104 110
f 110 74 40
f 135 117 127
f 117 109 127
f 131 141 127
f 127 141 135
f 127 109 113
f 121 131 127
f 127 113 121
f 29 11 19
f 19 37 29
f 21 7 29
f 7 11 29
f 29 27 21
f 29 37 53
f 39 27 29
f 29 53 39
f 33 53 41
f 53 37 41
f 41 19 33
f 41 37 19
f 89 97 85
f 81 75 85
f 93 81 85
f 85 97 93
f 77 89 85
f 85 75 77
f 94 86 82
f 94 98 86
f 82 110 94
f 94 110 106
f 122 98 114
f 114 128 122
f 114 94 106
f 98 94 114
f 106 110 114
f 114 110 128
f 66 74 62
f 62 54 66
f 66 54 30
f 66 30 40
f 40 74 66
f 16 26 25
f 25 15 16
f 25 46 45
f 25 26 46
f 55 68 56
f 67 68 55
f 129 130 120
f 120 119 129
f 14 13 23
f 14 23 24
f 88 68 67
f 67 87 88
f 132 131 122
f 122 131 121
f 57 58 77
f 77 58 78
f 89 77 78
f 78 90 89
f 101 122 121
f 102 122 101
