v -0.02995288745 -2.161730173e-08 -0.06174999848
v -0.02995286696 -2.144735767e-08 0.001250013476
v -0.02893227153 0.04198367521 -0.04445328936
v -0.02856162563 0.05645905435 -0.05721658468
v -0.02744968422 0.06198367476 -0.0811605528
v -0.02593995444 -0.01497644931 -0.06175000221
v -0.02593995444 0.01497641206 0.001250012079
v -0.02593993396 -0.01497644838 0.001250012196
v -0.02135650814 0.06198367476 -0.1377528757
v -0.02135649696 0.03951719403 -0.1377528906
v -0.01497645117 0.02593993209 0.001250008587
v -0.01497644 -0.02593995258 -0.06175000593
v -0.01497642044 -0.02593995258 0.001250008587
v -2.419692002e-08 0.02995286696 0.001250003697
v -6.7276682e-09 -0.02995286696 -0.06175000966
v 2.391006948e-09 -0.02995286696 -0.03583818674
v 1.150968121e-08 -0.02995286696 0.001250003697
v 0.01497640926 0.02593995817 0.001249998808
v 0.01497642044 -0.02593993954 -0.06175001338
v 0.01497642975 -0.02593993954 -0.03583819047
v 0.01497644 -0.02593993954 0.001249998808
v 0.02135638148 0.06198368967 -0.1377528906
v 0.02135639079 0.03951720893 -0.1377529055
v 0.02593992837 -0.01497642603 -0.06175001711
v 0.02593993023 0.01497646049 0.001249995199
v 0.02593993768 -0.01497642603 -0.03583819419
v 0.02593994886 -0.0149764251 0.001249995315
v 0.02744960226 0.06198368967 -0.0811605677
v 0.0285615623 0.05645906925 -0.05721659213
v 0.0289322231 0.04198369756 -0.04445331171
v 0.02995284647 9.566541337e-09 -0.06175002083
v 0.02995285764 9.519138366e-09 -0.03583819419
v 0.02995286696 9.736485396e-09 0.001249993918
f 12 10 15
f 15 10 23
f 22 23 9
f 9 23 10
f 9 10 1
f 1 10 6
f 10 12 6
f 6 12 13
f 2 7 4
f 1 6 2
f 14 29 4
f 15 23 19
f 19 23 24
f 4 29 5
f 29 28 5
f 22 9 5
f 5 28 22
f 1 4 5
f 5 9 1
f 24 23 31
f 31 23 22
f 22 28 31
f 31 28 29
f 8 6 13
f 8 2 6
f 3 4 1
f 1 2 3
f 3 2 4
f 4 7 11
f 11 14 4
f 7 2 11
f 2 8 11
f 33 29 25
f 32 26 24
f 24 31 32
f 29 14 18
f 18 25 29
f 15 19 20
f 27 32 33
f 26 32 27
f 27 8 13
f 33 25 27
f 25 18 27
f 27 18 14
f 14 11 27
f 27 11 8
f 17 12 15
f 13 12 17
f 21 27 17
f 17 27 13
f 30 31 29
f 30 32 31
f 30 29 33
f 33 32 30
f 16 20 21
f 21 17 16
f 15 20 16
f 16 17 15
f 20 19 24
f 24 26 20
f 27 20 26
f 21 20 27
