v -0.03370363265 -0.002391243353 -0.03053291515
v -0.03367540985 -0.002841910347 -0.03353291377
v -0.03367540985 -0.002841910347 -0.03053291515
v -0.03364306688 -0.003264183179 -0.03353291377
v -0.03355351835 0.002882385626 -0.03353291377
v -0.03350564837 0.003283699974 -0.03353291377
v -0.03350564837 0.003283699974 -0.03053291515
v -0.03344211727 0.003759423271 -0.03053291515
v -0.03314478695 -0.003222646192 -0.03403291479
v -0.03305666149 0.002826355398 -0.03403291479
v -0.03276383877 -0.008475312963 -0.03053291515
v -0.03265593946 -0.008884480223 -0.03353291377
v -0.03265593946 -0.008884480223 -0.03053291515
v -0.03253713995 -0.009311100468 -0.03353291377
v -0.03227188438 0.008894518018 -0.03353291377
v -0.03215309232 0.009260529652 -0.03353291377
v -0.03215309232 0.009260529652 -0.03053291515
v -0.03205642104 -0.009173585102 -0.03403291479
v -0.03198929876 0.009741766378 -0.03053291515
v -0.03179538995 0.008743057027 -0.03403291479
v -0.03065863997 -0.01426040567 -0.03053291515
v -0.0304858163 -0.01461531781 -0.03353291377
v -0.0304858163 -0.01461531781 -0.03053291515
v -0.03027783334 -0.01502807625 -0.03353291377
v -0.02984701097 0.01454325393 -0.03353291377
v -0.02983298153 -0.01479981653 -0.03403291479
v -0.02966890484 0.01486238651 -0.03353291377
v -0.02966890484 0.01486238651 -0.03053291515
v -0.02940898389 0.01430212893 -0.03403291479
v -0.02940064669 0.01532728784 -0.03053291515
v -0.02746844292 -0.01952555217 -0.03053291515
v -0.02724718302 -0.01981754787 -0.03353291377
v -0.02695121616 -0.02019740455 -0.03353291377
v -0.02655916661 -0.01988709159 -0.03403291479
v -0.02637120336 0.01961347088 -0.03353291377
v -0.0261471197 0.01987726055 -0.03353291377
v -0.0261471197 0.01987726055 -0.03053291515
v -0.02598835528 0.01929186657 -0.03403291479
v -0.02306260169 -0.0242942851 -0.03353291377
v -0.02268396318 -0.02462220006 -0.03353291377
v -0.02235965431 -0.0242416542 -0.03403291479
v -0.02197685838 0.02391207591 -0.03353291377
v -0.02172102779 0.02411537059 -0.03353291377
v -0.02166376263 0.02352223545 -0.03403291479
v -0.02136615478 -0.004441635683 0.06926353276
v -0.02134610154 -0.008091622964 0.06970912218
v -0.02134423889 -0.003044218291 0.06909386814
v -0.02132784761 -0.008891517296 0.06983332336
v -0.02131656744 -0.009299841709 0.06989979744
v -0.02128145285 -0.006668987684 0.07017083466
v -0.02125156112 -0.002961115446 0.06973467767
v -0.02119682916 -0.01032453403 0.07073909044
v -0.0211505387 0.001605763566 0.06844757497
v -0.02112904377 -0.01332151983 0.07055772841
v -0.02094086818 0.004347476177 0.0679846704
v -0.02084235288 0.004453527741 0.06860093772
v -0.02080363221 -0.01725752652 0.07118886709
v -0.02070573904 0.006515992805 0.06745916605
v -0.02066905238 -0.01765937358 0.07196770608
v -0.02040416189 0.008172314614 0.06751182675
v -0.02020163275 -0.02130665258 0.0727211237
v -0.02015418001 -0.02208433673 0.07216389477
v -0.02012028731 0.009819490835 0.06597855687
v -0.01990417577 -0.0234442614 0.07240191102
v -0.01962655969 0.01158721745 0.06563723087
v -0.01950191148 -0.02505819127 0.07331797481
v -0.01939013042 -0.02572475001 0.07265552878
v -0.01922250725 -0.0263527669 0.07268215716
v -0.0192080643 -0.02640476823 0.07268367708
v -0.018409146 -0.02884590253 0.07342214882
v -0.01809043065 -0.02787611075 -0.03353291377
v -0.01797438599 -0.02999870852 0.07264837623
v -0.01777027734 -0.03047778085 0.07263661921
v -0.01763859019 -0.02813396044 -0.03353291377
v -0.01739435643 -0.02769767679 -0.03403291479
v -0.01683131605 0.02727536112 -0.03353291377
v -0.01681661792 -0.03247445822 0.07339373231
v -0.0165998973 0.02683214284 -0.03403291479
v -0.01655811071 0.02741631866 -0.03353291377
v -0.0159584824 -0.03484507278 0.05457607284
v -0.01576593705 -0.03421767056 0.07343919575
v -0.01567096449 -0.03530722111 0.05433619395
v -0.01525129192 -0.03565214947 0.05409536138
v -0.01511634327 -0.01560135279 0.09093736112
v -0.01511461101 -0.01260998938 0.09093752503
v -0.0151086431 -0.002309992444 0.09093804657
v -0.01510691084 0.0006813704967 0.09093819559
v -0.01490223594 -0.03536334634 0.07273110747
v -0.01484105177 -0.03600673378 0.0562680997
v -0.01446654834 -0.03587775677 0.07355776429
v -0.01445307024 -0.03631125391 0.05595109239
v -0.01444928534 0.0008648722433 0.09178107977
v -0.01420200802 0.0009146830998 0.09197951853
v -0.01388471015 -0.03649289161 0.07287693024
v -0.01386499591 0.03196944669 0.05465343967
v -0.01385343261 0.03227945045 0.05398062244
v -0.0138488356 -0.0365277864 0.07288312912
v -0.01333946921 0.0337180756 0.05381651595
v -0.01320109703 -0.03710001335 0.07300683856
v -0.01292682253 0.001037595794 0.09250587225
v -0.01275006495 0.03490068391 0.05435417965
v -0.01274421625 -0.03735918552 0.07382561266
v -0.01266206242 -0.03745881841 0.07273885608
v -0.0125188455 -0.03042745776 -0.03353291377
v -0.01222002693 0.02182741836 0.08377666771
v -0.01221145503 -0.0222928673 0.09424078465
v -0.01200723648 -0.03059895523 -0.03353291377
v -0.01194772311 0.0363496989 0.05427551642
v -0.01192648895 0.03645067289 0.05361043289
v -0.01188202761 -0.03796425834 0.07330003381
v -0.01185874082 0.02207933739 0.08509272337
v -0.01185238734 -0.03012353368 -0.03403291479
v -0.01183745079 -0.03798685968 0.07331088185
v -0.01169780083 -0.03802390397 0.07369440794
v -0.01155102439 0.0009488267824 0.09240593016
v -0.01134064235 -0.02197012305 0.0952872932
v -0.01113054156 0.02957524918 -0.03353291377
v -0.01098961383 0.0290955212 -0.03403291479
v -0.01093448885 0.02235560119 0.08610618114
v -0.0109197963 0.03772639483 0.05426295474
v -0.01090010442 0.03776867688 0.05358009413
v -0.01062193513 -0.02509412542 0.0949318558
v -0.01028336212 0.03768499941 0.04186360911
v -0.01019250974 0.03787387162 0.04365317896
v -0.01010514796 -0.02161699533 0.09580409527
v -0.009665613994 -0.03918877617 0.06881283224
v -0.009650472552 0.02245575935 0.08661559224
v -0.009577540681 0.03901518136 0.05433184281
v -0.009498629719 0.03905371577 0.05362096801
v -0.009378636256 -0.02147241682 0.09581659734
v -0.009358877316 -0.02486079186 0.09543503821
v -0.009240539744 0.02243313193 0.08665192127
v -0.008749416098 -0.02138108015 0.0956736356
v -0.008583039045 -0.0380644165 0.09244637191
v -0.008345279843 0.0391411297 0.04342331365
v -0.008326699957 -0.03507076949 0.09379675984
v -0.008282274008 0.02228376269 0.08652003109
v -0.008095275611 0.04005678371 0.05446765199
v -0.007967723534 0.04006816074 0.0537285246
v -0.007690759376 -0.04022489488 0.06542222202
v -0.007607989013 -0.03819476813 0.09344132245
v -0.007568946108 -0.02127382904 0.09492786229
v -0.007117023692 0.02191543207 0.0858361274
v -0.007065840065 -0.04058009014 0.06606791914
v -0.006558705121 -0.03185178339 -0.03353291377
v -0.006317371503 -0.03808123246 0.09393087029
v -0.006264569238 0.04007545114 0.04336125031
v -0.006103297696 -0.04087112471 0.06677506864
v -0.006052257493 0.04098685831 0.05393848196
v -0.006004370749 -0.03192328662 -0.03353291377
v -0.005944807082 -0.03142684698 -0.03403291479
v -0.00586139597 -0.04094327986 0.06612607837
v -0.005845902488 0.04225449264 0.07279379666
v -0.005727516487 -0.03451630473 0.09417916834
v -0.005447635427 0.04259416088 0.07407909632
v -0.005296645686 -0.04052922502 0.0202014856
v -0.005000850186 -0.03767488897 0.09381979704
v -0.004915239289 0.04151624069 0.05491733924
v -0.004600828514 -0.03417527676 0.0934599936
v -0.004489725456 0.04286011681 0.07506364584
v -0.00444230251 -0.04106752574 0.0665204525
v -0.003927947953 -0.03710007668 0.09312722087
v -0.00331851095 -0.04177285731 0.01889653876
v -0.003199215978 0.04285808653 0.07556645572
v -0.00314293988 -0.04104270041 0.06655572355
v -0.001861890778 0.04251571372 0.0754955709
v -0.001382088289 0.04230483621 0.07530719042
v -0.001055963337 -0.04302186146 0.01813962311
v -0.0007537025958 0.04194374382 0.07485842705
v -0.0007335171103 -0.04088874161 0.0663240701
v -0.0004355758429 -0.03209517896 -0.03353291377
v 0.0001034140587 -0.03155798465 -0.03403291479
v 0.0001414045691 -0.03205654025 -0.03353291377
v 0.0005766414106 -0.04369128123 0.01712195203
v 0.0007729791105 -0.04381296411 0.01787978038
v 0.001622052863 -0.04073677585 0.06602080166
v 0.002496428788 -0.0443305485 0.01657560095
v 0.002634160221 -0.04444359615 0.0173698701
v 0.004112314433 -0.04050562903 0.06549668312
v 0.00422806479 -0.04043489695 0.06589251757
v 0.004375139251 -0.04477461427 0.01625986025
v 0.004486551508 -0.04487228021 0.01706147194
v 0.005329251289 -0.04497971758 0.01611575857
v 0.005425580777 -0.04507048428 0.01692106575
v 0.005618810654 -0.03114843555 -0.03353291377
v 0.006061941385 -0.03051194735 -0.03403291479
v 0.00619603321 -0.03099362738 -0.03353291377
v 0.006466392428 -0.03039638884 -0.03403291479
v 0.006598565727 -0.03035733663 -0.03403291479
v 0.006729081273 -0.04518697038 0.01677340642
v 0.006734795868 -0.04519109428 0.01653036848
v 0.006744715385 -0.04506607726 0.01593084261
v 0.007861413062 -0.02995152958 -0.03403291479
v 0.008086338639 -0.04502332956 0.01683871821
v 0.008180083707 -0.04485604167 0.0159826763
v 0.008264770731 -0.02280215174 0.07456569374
v 0.009241415188 -0.0447534211 0.01700903848
v 0.009306525812 0.02600286528 0.0668425709
v 0.009367631748 -0.04455925152 0.01615232602
v 0.009451689199 0.02426763996 0.06702038646
v 0.009457824752 0.02428901941 0.06700898707
v 0.009621484205 0.02815916762 0.06587575376
v 0.009654643014 0.03043282032 0.064824
v 0.009790532291 0.02569416165 0.06630018353
v 0.009968411177 -0.02301591262 0.0722412616
v 0.01003063843 0.02722201869 0.06558413804
v 0.0101327356 0.03003260121 0.06427815557
v 0.01013598964 0.02843705192 0.06502956152
v 0.01014960557 0.02965050563 0.06446404755
v 0.01058244146 -0.0391430445 0.06340792775
v 0.01132653654 -0.04410390556 0.01746808365
v 0.01137532666 -0.02904737927 -0.03353291377
v 0.01147877797 -0.04387800023 0.01661879569
v 0.01148745604 -0.02310113236 0.07005420327
v 0.01170383766 -0.02832856961 -0.03403291479
v 0.01192893088 -0.0287750382 -0.03353291377
v 0.01286461204 -0.01857413352 0.06755693257
v 0.0130157508 -0.02333902195 0.06776618958
v 0.01328611933 -0.03850512579 0.0620338805
v 0.01349214278 -0.01869114116 0.06656649709
v 0.01371804997 -0.02362004295 0.06668928266
v 0.01437083259 -0.02402660623 0.06566569209
v 0.01522374339 -0.04270677641 0.01857379451
v 0.01540515199 -0.04240357876 0.01766459271
v 0.01563576423 -0.02762493864 0.0636497736
v 0.0158199966 -0.03772334382 0.06032413617
v 0.01610563882 -0.03721197322 0.06087430194
v 0.01661611721 -0.02587153204 -0.03353291377
v 0.01681425795 -0.02509100921 -0.03403291479
v 0.01708647609 -0.02936652675 0.06133617833
v 0.01709197462 -0.02962704748 0.06133382395
v 0.01712177694 -0.02548525669 -0.03353291377
v 0.01797993667 -0.03681690991 0.05826139823
v 0.01830608025 -0.03621510044 0.05875595286
v 0.01836219616 -0.03544431552 0.05909708515
v 0.01851559617 -0.04142523929 0.01973119751
v 0.01872577332 -0.04116342217 0.01895563677
v 0.01884578168 -0.03515893221 0.05847491696
v 0.01933450624 -0.03484700993 0.05777101591
v 0.01967249811 -0.03585851565 0.05587134138
v 0.0200187061 -0.03517850116 0.05630366877
v 0.02003781497 -0.03435425833 0.05660409108
v 0.02012452297 -0.04066154733 0.02049709484
v 0.02034811117 -0.03412083909 0.05602518097
v 0.02037684619 -0.04039267078 0.01976702735
v 0.02114284039 -0.02174106427 -0.03353291377
v 0.02131242119 -0.03421974927 0.05372371152
v 0.02162135579 -0.03977032751 0.02145097777
v 0.02192757837 -0.03948237002 0.02078419551
v 0.0228971485 -0.03878469393 0.02258267626
v 0.0232506115 -0.03846251592 0.02198633179
v 0.0239284467 -0.03777805716 0.02385177836
v 0.02431534231 -0.03741628304 0.02332543209
v 0.02538357489 -0.03590060025 0.02669616416
v 0.02580728754 -0.03545887023 0.02630183473
v 0.02622495219 -0.0343860127 0.02984348312
v 0.02623392269 -0.03197421506 0.04210527614
v 0.02642907761 -0.03246433288 0.04039046541
v 0.02666282095 -0.03387505934 0.02957261726
v 0.02671074495 -0.03196836635 0.0404596515
v 0.02704693004 -0.03276662529 0.03308169544
v 0.03924020752 0.02670994028 -0.04582975805
v 0.03924145177 0.02623735927 -0.04592670873
v 0.03930139914 0.02717997134 -0.04573997855
v 0.03930511326 0.02577026188 -0.04602918029
v 0.03942399099 0.02763945982 -0.04565889388
v 0.0394301042 0.02531658299 -0.04613542557
v 0.0394478105 0.02635944262 -0.04592366517
v 0.03950150684 0.02510065772 -0.04618587345
v 0.03958019987 0.02494950406 -0.04622653872
v 0.03960589319 0.02808059752 -0.04558787495
v 0.0396088697 0.02489461564 -0.04624090344
v 0.03963176161 0.02485046349 -0.04625238478
v 0.03964212537 0.02483055741 -0.04625756294
v 0.03984401375 0.02849588171 -0.04552814364
v 0.03987623751 0.02444921061 -0.04636061192
v 0.04013431072 0.02887825668 -0.0454807058
v 0.0401724577 0.02408362366 -0.04646703601
v 0.04047184065 0.02922121808 -0.04544636607
v 0.04051526636 0.02376013063 -0.04656979814
v 0.04063402861 0.02937841415 -0.04542838782
v 0.04085087031 0.02951894142 -0.04542571306
v 0.0408988446 0.02348423004 -0.04666714743
v 0.04099673405 0.02340555191 -0.04669064283
v 0.04123232886 0.02976719849 -0.0454124175
v 0.0412649624 0.02976636402 -0.04541910067
v 0.04131666571 0.02326061577 -0.04675742984
v 0.04160488769 0.02312638052 -0.04681256413
v 0.04170706868 0.02995927818 -0.04542663693
v 0.04176146537 0.02975762449 -0.0454737395
v 0.04176162556 0.02309308387 -0.04683911055
v 0.04189261049 0.03003771603 -0.04542727396
v 0.04216967523 0.03009440377 -0.04544819146
v 0.04222616553 0.02298448794 -0.04691080749
v 0.0422568582 0.02296216972 -0.04691560194
v 0.04259053245 0.03017998859 -0.0454724133
v 0.04264491796 0.03016944602 -0.04548339918
v 0.04270238802 0.02293667197 -0.0469712913
v 0.04293081909 0.02291841619 -0.04699629918
v 0.04312472045 0.03018312901 -0.04553166404
v 0.04318219423 0.0229504481 -0.04701953381
v 0.04330036044 0.0301887691 -0.0455461666
v 0.04360092804 0.03013521992 -0.04559216648
v 0.04360420257 0.02299658768 -0.04705195874
v 0.04365742952 0.02302558348 -0.04705472291
v 0.04399592429 0.03006373905 -0.04564581066
v 0.04406543821 0.03002653271 -0.04566387087
v 0.04412001371 0.02316079848 -0.04707625881
v 0.04425445199 0.02319406345 -0.04708071053
v 0.0442622155 0.02317526378 -0.04707357287
v 0.04451036453 0.029858917 -0.04574556649
v 0.04456208646 0.02335379831 -0.04708377272
v 0.04465157911 0.02980950288 -0.04576768354
v 0.04485979676 0.02350423299 -0.04708159715
v 0.04487053305 0.02348695695 -0.04707446694
v 0.04492813349 0.0296352189 -0.0458358638
v 0.04497613385 0.02360129915 -0.04707713425
v 0.04524315521 0.02943543904 -0.04590728134
v 0.04531165212 0.02935924381 -0.04593322426
v 0.04535511136 0.02389909513 -0.04705646634
v 0.04539996758 0.02391671017 -0.04705458879
v 0.04565439373 0.02903568372 -0.04603599012
v 0.04569258168 0.02424212359 -0.04702210799
v 0.04574883729 0.02895533666 -0.0460594669
v 0.04585687071 0.02441767976 -0.04700058699
v 0.04590143636 0.05056188256 -0.0344681032
v 0.04595053568 0.02867003717 -0.04614242166
v 0.04597630352 0.0286886692 -0.04612932354
v 0.04598280787 0.0246245563 -0.04697465152
v 0.04603776336 0.02857063338 -0.04616918042
v 0.04607455805 0.05022956431 -0.03506776318
v 0.04619493708 0.02826873772 -0.0462506488
v 0.04621521011 0.02499036677 -0.04692140222
v 0.04621768743 0.02822499163 -0.04626203328
v 0.04622085392 0.02503988706 -0.04691489786
v 0.04622804746 0.02820505202 -0.04626721516
v 0.04631232843 0.02804320678 -0.04630848765
v 0.04637885094 0.02675215341 -0.04658092558
v 0.04639613256 0.02780396119 -0.04636728019
v 0.04640267417 0.02548106201 -0.04684386775
v 0.04642047733 0.02783543989 -0.04635037109
v 0.04646298662 0.02561559528 -0.04681967944
v 0.04647999629 0.02759259753 -0.04641646519
v 0.04652120918 0.02735029906 -0.04647353292
v 0.04652518034 0.02594057657 -0.04676276445
v 0.04658495635 0.02688320726 -0.04657601193
v 0.04658629 0.02641062252 -0.04667297006
v 0.04659190029 0.02627242729 -0.04669883847
v 0.04659763351 0.02693886682 -0.04656291753
v 0.04663509876 0.05039593577 -0.03509334102
v 0.04664882645 0.05078371614 -0.03450220451
v 0.04721305519 0.05033961684 -0.03516639397
v 0.04741943628 0.05070862919 -0.03459960967
v 0.04772043973 0.05006918311 -0.03527580202
v 0.04808000103 0.04962579906 -0.0354049094
v 0.04809594527 0.05034804344 -0.03474548832
v 0.04857536405 0.04975686967 -0.03491763026
v 0.04975287989 0.04621721059 -0.01267628744
v 0.05042938888 0.04585662857 -0.01282216236
v 0.05090880394 0.04526545852 -0.01299430057
v 0.06137290969 0.02084481716 -0.04271609709
v 0.06164973602 0.02031287737 -0.04234138504
v 0.06194774434 0.02136481181 -0.04267074913
v 0.06202849746 0.02283382416 -0.04237838835
v 0.06218770519 0.02209283412 -0.04254714027
v 0.06241618469 0.02100620046 -0.04228092358
v 0.06252385676 0.02296488918 -0.0418911092
v 0.06273613125 0.02197690681 -0.04211610928
v 0.06474962831 0.01651478931 -0.02035759762
v 0.0648573041 0.01847347431 -0.01996778324
v 0.06506957859 0.01748549193 -0.02019278333
f 360 357 359
f 169 360 359
f 353 358 359
f 106 116 84
f 202 198 204
f 169 198 202
f 358 353 164
f 164 351 160
f 164 353 351
f 166 164 132
f 358 164 166
f 137 166 132
f 234 235 162
f 171 192 150
f 173 192 171
f 71 163 156
f 215 212 193
f 216 212 215
f 191 192 195
f 195 194 191
f 195 192 173
f 160 351 155
f 351 158 155
f 359 357 356
f 356 353 359
f 56 87 60
f 87 111 60
f 60 111 65
f 160 155 119
f 119 155 111
f 96 65 95
f 101 155 153
f 111 155 101
f 51 87 56
f 56 53 51
f 61 84 59
f 106 84 66
f 66 134 106
f 70 134 66
f 84 61 66
f 206 202 204
f 143 169 167
f 167 137 143
f 166 137 167
f 167 169 359
f 359 358 167
f 358 166 167
f 115 132 100
f 115 137 132
f 115 100 130
f 239 241 242
f 257 241 258
f 257 369 371
f 371 369 366
f 239 162 238
f 238 162 235
f 238 235 234
f 234 241 238
f 238 241 239
f 196 162 205
f 133 115 130
f 137 115 133
f 239 242 231
f 173 171 172
f 40 41 71
f 71 156 40
f 40 156 83
f 71 41 75
f 75 74 71
f 99 134 90
f 23 80 77
f 77 134 70
f 237 212 216
f 216 215 228
f 228 237 216
f 240 241 234
f 234 233 240
f 258 241 240
f 240 252 258
f 240 233 252
f 185 195 173
f 173 172 185
f 210 219 157
f 210 211 219
f 226 219 236
f 226 248 233
f 157 219 226
f 223 211 213
f 223 237 236
f 236 219 223
f 219 211 223
f 194 195 197
f 211 210 197
f 152 161 148
f 190 176 170
f 170 165 190
f 191 194 190
f 190 165 161
f 194 197 179
f 179 190 194
f 176 190 179
f 149 155 158
f 149 158 147
f 147 135 149
f 351 353 350
f 350 331 351
f 351 331 326
f 326 158 351
f 147 158 326
f 117 326 331
f 147 326 117
f 56 60 58
f 58 60 8
f 63 60 65
f 100 119 93
f 100 132 127
f 127 119 100
f 132 164 127
f 127 164 160
f 160 119 127
f 65 111 105
f 105 95 65
f 6 7 8
f 8 7 55
f 56 58 55
f 55 58 8
f 55 53 56
f 55 7 53
f 108 101 153
f 96 95 98
f 95 105 98
f 111 101 98
f 98 105 111
f 121 153 128
f 153 155 128
f 155 129 128
f 135 129 138
f 138 129 155
f 155 149 138
f 43 123 135
f 79 135 147
f 147 117 79
f 52 85 87
f 84 85 52
f 1 54 52
f 59 84 52
f 52 54 59
f 122 116 106
f 106 134 122
f 125 131 130
f 116 131 125
f 130 100 125
f 100 93 125
f 125 93 116
f 87 85 86
f 59 54 57
f 57 61 59
f 360 207 370
f 207 209 370
f 357 360 370
f 370 206 204
f 204 217 370
f 370 220 371
f 217 220 370
f 244 241 371
f 371 242 244
f 244 242 241
f 371 241 247
f 247 257 371
f 241 257 247
f 258 369 260
f 260 257 258
f 369 257 260
f 258 252 254
f 254 255 258
f 259 255 369
f 369 255 253
f 253 252 251
f 251 369 253
f 253 254 252
f 255 254 253
f 362 246 232
f 362 366 246
f 130 157 154
f 154 133 130
f 221 220 217
f 371 220 221
f 230 231 242
f 186 185 172
f 22 24 23
f 31 80 23
f 23 24 31
f 70 66 69
f 69 13 70
f 61 57 3
f 3 54 1
f 3 57 54
f 12 13 11
f 82 40 83
f 80 31 82
f 41 40 39
f 39 82 33
f 40 82 39
f 178 182 148
f 183 192 191
f 150 192 183
f 168 163 71
f 71 74 168
f 126 140 144
f 148 134 144
f 140 168 144
f 144 178 148
f 175 178 144
f 144 168 175
f 73 77 70
f 236 237 245
f 237 228 245
f 245 228 232
f 251 252 250
f 250 248 251
f 252 233 250
f 233 248 250
f 193 212 187
f 185 186 187
f 195 185 187
f 243 226 236
f 248 226 243
f 236 245 243
f 227 162 157
f 157 226 227
f 234 162 227
f 227 233 234
f 227 226 233
f 212 237 224
f 237 223 224
f 213 212 224
f 224 223 213
f 148 182 184
f 184 152 148
f 191 190 184
f 161 152 184
f 184 190 161
f 184 183 191
f 182 183 184
f 161 165 141
f 148 161 141
f 141 134 148
f 180 197 210
f 180 179 197
f 353 356 354
f 354 356 357
f 118 117 331
f 78 79 118
f 118 79 117
f 116 93 92
f 87 86 92
f 92 111 87
f 92 86 85
f 92 119 111
f 92 93 119
f 92 84 116
f 92 85 84
f 1 7 5
f 7 6 5
f 120 153 121
f 120 108 153
f 124 129 135
f 135 123 124
f 124 43 129
f 123 43 124
f 139 149 135
f 135 138 139
f 139 138 149
f 44 43 78
f 78 43 76
f 76 79 78
f 76 43 135
f 135 79 76
f 87 51 50
f 50 52 87
f 134 99 102
f 126 144 110
f 110 144 113
f 110 102 99
f 110 113 134
f 134 102 110
f 169 202 208
f 208 209 169
f 202 206 208
f 206 370 208
f 208 370 209
f 169 209 203
f 203 209 207
f 360 169 203
f 203 207 360
f 371 366 368
f 261 369 258
f 258 259 261
f 261 259 369
f 258 255 256
f 256 259 258
f 255 259 256
f 229 228 215
f 232 228 229
f 229 362 232
f 366 362 361
f 361 315 314
f 215 315 361
f 361 229 215
f 362 229 361
f 162 196 200
f 200 196 205
f 143 137 142
f 137 133 142
f 142 169 143
f 142 198 169
f 142 200 198
f 239 231 222
f 231 230 222
f 371 221 222
f 222 242 371
f 222 230 242
f 205 162 214
f 214 217 205
f 193 187 189
f 14 13 12
f 24 22 26
f 32 31 24
f 24 26 32
f 33 82 32
f 32 82 31
f 64 66 61
f 64 11 66
f 13 69 68
f 68 11 13
f 68 69 66
f 12 11 4
f 4 11 3
f 97 99 90
f 89 82 83
f 99 97 89
f 89 97 82
f 88 82 90
f 81 77 80
f 80 82 81
f 82 88 81
f 81 88 90
f 90 134 81
f 134 77 81
f 309 186 172
f 193 189 309
f 151 171 150
f 151 172 171
f 112 75 299
f 299 301 112
f 299 75 41
f 174 178 175
f 174 168 74
f 175 168 174
f 182 178 181
f 181 183 182
f 181 107 183
f 134 113 114
f 114 144 134
f 113 144 114
f 72 73 70
f 251 248 249
f 248 243 249
f 249 243 245
f 246 366 249
f 232 246 249
f 249 245 232
f 249 369 251
f 249 366 369
f 199 212 213
f 199 187 212
f 195 187 199
f 199 197 195
f 213 211 199
f 211 197 199
f 146 165 170
f 146 141 165
f 170 176 146
f 176 179 146
f 179 180 146
f 146 210 157
f 146 180 210
f 146 157 130
f 130 131 146
f 116 122 136
f 136 131 116
f 136 122 134
f 134 141 136
f 136 146 131
f 141 146 136
f 352 350 353
f 353 354 352
f 15 6 8
f 292 118 331
f 78 118 292
f 331 350 292
f 301 299 298
f 294 298 295
f 108 120 109
f 109 30 108
f 109 120 121
f 27 30 35
f 35 38 27
f 96 98 19
f 19 65 96
f 36 38 35
f 44 38 36
f 1 50 45
f 45 50 51
f 52 50 48
f 321 361 314
f 204 198 201
f 198 200 201
f 201 217 204
f 205 217 201
f 201 200 205
f 162 200 159
f 200 142 159
f 157 162 159
f 159 154 157
f 133 154 159
f 159 142 133
f 239 222 225
f 225 222 221
f 225 162 239
f 225 221 162
f 162 221 218
f 218 214 162
f 218 221 217
f 217 214 218
f 21 22 23
f 21 14 22
f 13 14 21
f 70 13 21
f 21 72 70
f 73 72 21
f 23 77 21
f 77 73 21
f 61 3 62
f 62 64 61
f 3 11 62
f 11 64 62
f 66 11 67
f 67 68 66
f 11 68 67
f 12 4 9
f 90 82 94
f 94 97 90
f 82 97 94
f 99 89 91
f 126 110 91
f 163 168 91
f 91 89 83
f 91 140 126
f 91 168 140
f 91 156 163
f 83 156 91
f 304 309 172
f 172 151 304
f 112 301 304
f 304 151 112
f 186 309 188
f 188 309 189
f 188 187 186
f 188 189 187
f 310 215 193
f 193 309 310
f 314 315 312
f 312 310 309
f 312 315 215
f 215 310 312
f 150 183 145
f 183 107 145
f 145 151 150
f 112 151 145
f 145 107 112
f 178 174 177
f 177 181 178
f 107 181 177
f 20 15 16
f 6 15 20
f 350 352 302
f 34 26 295
f 295 298 34
f 34 299 41
f 34 298 299
f 34 39 33
f 41 39 34
f 33 32 34
f 34 32 26
f 291 294 295
f 295 9 291
f 291 9 288
f 35 30 37
f 30 109 37
f 37 109 121
f 121 36 37
f 37 36 35
f 30 27 28
f 101 108 28
f 108 30 28
f 28 98 101
f 28 19 98
f 17 63 65
f 65 19 17
f 60 63 17
f 8 60 17
f 17 15 8
f 16 15 17
f 17 19 16
f 43 44 42
f 44 36 42
f 42 36 121
f 121 128 42
f 42 128 129
f 129 43 42
f 47 45 51
f 53 7 47
f 47 51 53
f 47 7 1
f 1 45 47
f 1 52 49
f 49 48 1
f 52 48 49
f 46 50 1
f 1 48 46
f 46 48 50
f 355 354 357
f 357 364 355
f 367 364 357
f 357 370 367
f 365 368 366
f 365 367 368
f 364 367 365
f 18 14 12
f 12 9 18
f 22 14 18
f 18 26 22
f 295 26 18
f 18 9 295
f 2 9 4
f 1 5 2
f 2 3 1
f 2 4 3
f 103 110 99
f 99 91 103
f 103 91 110
f 309 304 308
f 308 312 309
f 298 312 308
f 320 298 329
f 320 312 298
f 104 177 174
f 107 177 104
f 104 174 74
f 74 75 104
f 104 75 112
f 112 107 104
f 29 27 38
f 283 20 29
f 29 20 16
f 38 276 29
f 287 291 288
f 283 294 287
f 294 291 287
f 288 9 10
f 10 287 288
f 20 287 10
f 10 2 5
f 9 2 10
f 10 5 6
f 6 20 10
f 78 292 289
f 313 352 354
f 25 28 27
f 19 28 25
f 16 19 25
f 25 29 16
f 27 29 25
f 366 361 363
f 363 365 366
f 361 321 363
f 363 325 329
f 305 304 301
f 305 308 304
f 301 298 305
f 298 308 305
f 314 312 317
f 312 320 317
f 317 321 314
f 317 320 321
f 283 29 280
f 280 294 283
f 280 276 294
f 284 20 283
f 283 287 284
f 284 287 20
f 350 302 300
f 300 296 350
f 354 355 324
f 323 363 321
f 325 363 323
f 321 320 323
f 329 325 323
f 323 320 329
f 278 29 276
f 276 280 278
f 278 280 29
f 293 289 292
f 293 292 350
f 350 296 293
f 352 313 311
f 311 306 352
f 332 355 364
f 262 38 44
f 289 290 266
f 266 277 289
f 296 300 297
f 297 293 296
f 303 300 302
f 303 302 352
f 352 306 303
f 303 297 300
f 293 297 303
f 289 293 303
f 355 332 330
f 364 365 343
f 289 303 319
f 319 290 289
f 78 289 285
f 285 282 78
f 289 277 286
f 286 285 289
f 282 285 286
f 78 282 281
f 268 266 298
f 298 294 268
f 294 276 268
f 44 277 275
f 277 266 275
f 306 311 307
f 307 303 306
f 311 303 307
f 328 324 355
f 355 330 328
f 328 330 324
f 324 330 327
f 327 330 332
f 316 311 313
f 318 319 316
f 316 303 311
f 316 319 303
f 316 313 354
f 354 318 316
f 279 286 277
f 282 286 279
f 279 281 282
f 279 277 44
f 279 44 78
f 78 281 279
f 264 262 44
f 44 266 264
f 265 267 38
f 266 268 265
f 265 264 266
f 265 268 276
f 271 266 44
f 44 275 271
f 271 275 266
f 324 327 322
f 322 327 319
f 322 319 318
f 354 324 322
f 322 318 354
f 364 337 336
f 364 343 341
f 341 337 364
f 274 276 38
f 38 273 274
f 274 273 276
f 38 262 263
f 262 264 263
f 264 265 263
f 263 265 38
f 267 265 272
f 272 270 267
f 276 273 272
f 272 265 276
f 272 273 38
f 38 270 272
f 334 332 364
f 364 336 334
f 329 298 334
f 334 327 332
f 319 327 334
f 290 319 334
f 298 266 334
f 334 266 290
f 344 343 365
f 333 363 329
f 363 333 340
f 38 267 269
f 269 270 38
f 267 270 269
f 343 344 339
f 339 341 343
f 337 341 339
f 339 336 337
f 339 334 336
f 365 347 349
f 349 344 365
f 348 345 347
f 348 347 365
f 365 345 348
f 342 345 365
f 342 340 345
f 365 363 342
f 363 340 342
f 335 333 329
f 329 340 335
f 335 340 333
f 329 334 338
f 338 340 329
f 346 338 334
f 334 339 346
f 346 339 344
f 346 349 347
f 344 349 346
f 340 338 346
f 347 345 346
f 345 340 346
f 371 368 367
f 367 370 371
