v -0.008753521368 -2.352346883e-06 -0.02583586611
v -0.008711291477 -2.88983756e-05 -0.03114647605
v -0.008684292436 0.0009790405165 -0.02588574216
v -0.008683765307 -0.0009837097023 -0.02588573657
v -0.008676013909 0.0007498568739 -0.03113103658
v -0.008663948625 -0.000869969721 -0.03112623841
v -0.008558539674 0.001571217203 -0.03108048998
v -0.008525844663 -0.00173317187 -0.03106722981
v -0.008504537866 -0.001920725452 -0.02877473086
v -0.008488065563 0.001945927273 -0.02601505257
v -0.008487017825 -0.001950487844 -0.02601504885
v -0.008409444243 0.002010965487 -0.0232794378
v -0.008346538991 0.002437991789 -0.03098860383
v -0.008298525587 -0.00259448099 -0.03096815199
v -0.008238836192 -0.0004000690824 0.00151039823
v -0.008238700218 -0.0004448273976 0.001509008696
v -0.008237903006 -0.0005207045469 0.001506195287
v -0.008234171197 -0.0006722852122 0.001498932019
v -0.008223555982 -0.0004473899025 0.001585849561
v -0.008223040961 0.002842740854 -0.02889737673
v -0.008222734556 -0.0005237086443 0.001583014149
v -0.008221509866 -0.002847160213 -0.02889737487
v -0.008218933828 -0.0006761599216 0.001575628761
v -0.008218184114 -0.00097452302 0.001477525337
v -0.008217663504 0.002838096814 -0.03093159385
v -0.008216014132 -0.0003991593258 0.001602630713
v -0.008202729747 -0.0009801377309 0.001553836046
v -0.008182823658 0.002883753739 -0.02619340084
v -0.008181272075 -0.002888152143 -0.02619340084
v -0.00818020571 -0.0003988665994 0.001651773346
v -0.008178701624 -0.0005257550511 0.001647428609
v -0.008174907416 -0.0006783445133 0.001639966154
v -0.008158740588 -0.0009826204041 0.001617933391
v -0.008153423667 -0.0003988684912 0.001674133819
v -0.008152336814 -0.001573269721 0.001405614195
v -0.008149477653 0.0007948912098 0.001404475304
v -0.008136048913 -0.001582931262 0.001480465173
v -0.008132981136 0.0008044765564 0.001479170751
v -0.00813052617 -0.001711864024 0.001382578514
v -0.008115316741 -0.000399071112 0.001694961335
v -0.008114079945 -0.0005266172229 0.001691194135
v -0.008110346273 -0.0006786434678 0.001683715847
v -0.008094408549 -0.0009818413528 0.001661619521
v -0.008092230186 -0.001586623606 0.001543590333
v -0.008089990355 0.0008082063287 0.001542908838
v -0.008076633327 -0.0005265334621 0.001702742185
v -0.008073626086 -0.0003995152074 0.001707311952
v -0.008064718917 -0.002060016617 0.001311258296
v -0.008064460941 0.001260856632 0.001311003929
v -0.008038833737 -0.0004000645713 0.001710491837
v -0.008038317785 0.003312957007 -0.03085124493
v -0.008037925698 -0.0005260831094 0.001706058276
v -0.008034288883 -0.0006768963067 0.001698643318
v -0.008028813638 -0.001584244194 0.00158708822
v -0.008026351221 0.0008054313366 0.001585984253
v -0.00802558288 -0.002172591863 0.001359271817
v -0.008018700406 -0.0009777246742 0.001676751883
v -0.00799133908 -0.003425779054 -0.03083076701
v -0.007982023992 -0.002178792143 0.001420484041
v -0.007964182645 -0.001506696339 0.001613775967
v -0.007951711304 0.0007966351695 0.001602542005
v -0.007923133671 -0.00177603669 0.001568034873
v -0.007920172997 -0.00217609806 0.001463484135
v -0.007890132256 0.001934221364 0.001102484995
v -0.007888394408 -0.002741798293 0.001099166228
v -0.007875999436 -0.002737381728 0.001176070888
v -0.007869801484 0.001954993 0.001168892835
v -0.007850672118 0.003730107099 -0.02902908437
v -0.00784866605 -0.003734324127 -0.02902907692
v -0.007832762785 -0.002747210208 0.001233855379
v -0.007827195339 0.001965433825 0.001226619701
v -0.007786549628 0.003777974052 -0.02639034763
v -0.007773111574 -0.002745743841 0.001275634975
v -0.007767532486 0.00196404499 0.001267861342
v -0.007738482673 -0.002612184267 0.00134067866
v -0.007717012893 -0.0004000648623 0.001710486598
v -0.007715234533 -0.0004507178674 0.001708877971
v -0.007705739699 -0.0005000635865 0.001707058516
v -0.007704571355 -0.002732611494 0.001294725924
v -0.007699020673 0.00405158801 -0.03069539927
v -0.007698851172 0.001951143844 0.00128752843
v -0.007676005829 -0.0009387748432 0.001680067042
v -0.007665529381 -0.002863544738 0.001240541344
v -0.007655844558 0.0003788297181 0.001656760694
v -0.007613056339 -0.001446618466 0.001622846234
v -0.007594494615 -0.004249876365 -0.03064769134
v -0.007553074975 -0.001774564153 0.001568170846
v -0.007543400396 0.00103634526 0.001556010917
v -0.007523792796 -0.00370602007 0.0005865665735
v -0.007509551011 0.00293826405 0.0005662076292
v -0.00748988986 -0.003753951052 0.0006280335947
v -0.007485032082 0.002965238877 0.0006216419279
v -0.0074841897 -0.002066188725 0.001505161636
v -0.007447762415 -0.003768811934 0.0006770734326
v -0.00744338613 0.002980127698 0.0006710283924
v -0.007418577094 -0.003555681556 0.0008717977908
v -0.007401892915 0.004565160256 -0.0291467756
v -0.007399436552 -0.004569137469 -0.02914677374
v -0.007393328939 -0.003770287381 0.0007149633602
v -0.007388937753 0.002981135156 0.0007087971317
v -0.007388212252 0.00160337938 0.001411813078
v -0.007332515903 -0.003757672152 0.0007367917569
v -0.007327783387 0.002968291752 0.0007310427609
v -0.007317228243 0.004614040721 -0.02657546662
v -0.007300673053 -0.002626356669 0.001335944631
v -0.007286641281 -0.003859356744 0.0006643528468
v -0.007263595238 0.004813641775 -0.03048890829
v -0.007234858349 0.002000215231 0.001267867046
v -0.007199162617 -0.002863117959 0.001241275459
v -0.007167300675 0.002144239144 0.001205208478
v -0.007129265927 -0.005019251257 -0.03042633832
v -0.007107919082 -0.003050234867 0.001155340113
v -0.00704868231 0.003797471756 -0.0001351163664
v -0.007026763167 -0.004617283121 -8.242586046e-05
v -0.007021070924 0.003825447056 -9.091782704e-05
v -0.006987224333 -0.004696469288 -0.0002355734905
v -0.006986480672 -0.00463331677 -4.178820018e-05
v -0.006981105544 0.003841872793 -5.055322254e-05
v -0.006954715122 -0.00450418517 0.0001327670034
v -0.006937358063 -0.004636536818 -8.504319339e-06
v -0.00693211006 0.003845190862 -1.759609768e-05
v -0.006890129764 0.005334817339 -0.0292273704
v -0.00688726129 -0.005338521209 -0.02922736853
v -0.006878435612 0.003835229669 5.211405096e-06
v -0.006876367144 0.002658547601 0.0009318464436
v -0.006853685249 -0.004677009303 -3.774482684e-05
v -0.006834106054 -0.003524288768 0.0008912957856
v -0.006810236722 0.004162739031 -0.0005425987765
v -0.006808913313 -0.004750923719 -0.0001159865642
v -0.006792842411 0.005377402995 -0.02671835013
v -0.006785098929 -0.004985684995 -0.0004976970376
v -0.006781335454 0.004191052169 -0.0005056110094
v -0.006766994484 0.005521677434 -0.03024433739
v -0.006745821331 -0.005003240425 -0.0004634284123
v -0.006742331199 0.004208708648 -0.0004713881353
v -0.006699421443 -0.00500894431 -0.0004344503686
v -0.006696023047 0.004214262124 -0.0004425820662
v -0.006645950489 0.004207410384 -0.0004212254426
v -0.006628047209 -0.005696404725 -0.03017365001
v -0.006614387501 -0.005232499912 -0.0009420260903
v -0.006610872224 -0.003856620053 0.000666532258
v -0.006588131189 0.0044668708 -0.00100459205
v -0.00656097196 -0.005292106885 -0.000968989043
v -0.006558039691 0.004495715257 -0.000976941199
v -0.006522658747 -0.005311493762 -0.0009429415804
v -0.006520329043 -0.003983791918 0.0005720840418
v -0.006519950461 0.004515175242 -0.0009510178934
v -0.006479317788 -0.005252072122 -0.0007843148196
v -0.006478745956 -0.005320347846 -0.0009202257497
v -0.006476140581 0.004523932468 -0.0009284934495
v -0.006472851615 0.004460810684 -0.0008016261272
v -0.006406533998 0.004694910254 -0.001521300059
v -0.006377398968 -0.005521989893 -0.001495749457
v -0.00637575658 0.004723728634 -0.001502758125
v -0.006339932326 -0.005542508792 -0.001478071441
v -0.006338481326 0.004744293168 -0.001485199551
v -0.006328810006 0.0060259928 -0.02924779244
v -0.006325570866 -0.006029393524 -0.02924779616
v -0.006320541259 -0.00559750665 -0.001856922056
v -0.006297940388 -0.005553720519 -0.001462322776
v -0.006296588574 0.004755421076 -0.001469575684
v -0.006277277134 0.006101011299 -0.02999004722
v -0.006276924163 -0.005648153368 -0.002071510302
v -0.00627622148 0.004848845303 -0.00207707379
v -0.006272068247 -0.004318764433 0.000299995183
v -0.006245865487 -0.00567664858 -0.002059913473
v -0.006245228462 0.004877162166 -0.002065546345
v -0.006231376901 0.006053512916 -0.02678857371
v -0.006218511146 -0.004388962872 0.000238231034
v -0.006209051702 -0.005697438493 -0.002048867522
v -0.006208587904 0.004897947889 -0.00205456093
v -0.006207344588 -0.00561359711 -0.001632917789
v -0.006174473092 -0.0057636532 -0.002817631466
v -0.006168331485 -0.005709737539 -0.002038889332
v -0.006125971209 -0.005712770857 -0.002030549338
v -0.006110323127 -0.005827641115 -0.00323329703
v -0.006090112496 -0.006296812557 -0.0298905056
v -0.006074231118 -0.005848047789 -0.003229687689
v -0.006045413204 -0.005806460511 -0.002605224261
v -0.006043417379 0.006146525498 -0.02450067736
v -0.006034700666 -0.00586063182 -0.00322640012
v -0.005895187147 -0.004797682632 -0.0001671481295
v -0.005739822984 0.006630382966 -0.02969853953
v -0.005736257415 -0.006633467972 -0.02969853207
v -0.00560574932 0.006640331354 -0.02596928924
v -0.005578434095 -0.005167090334 -0.00064697786
v -0.005496460479 -0.005255455617 -0.000790588907
v -0.005491195247 0.006682833191 -0.02451481111
v -0.005459663924 0.00686783623 -0.02954001538
v -0.005428439938 -0.005325711332 -0.0009170882404
v -0.005296753719 0.006766132079 -0.02267897874
v -0.005193989258 -0.005541824736 -0.001411936828
v -0.005183299538 -0.007079051808 -0.02938340232
v -0.005140752532 0.00683491677 -0.02140583657
v -0.005041133147 0.007131474558 -0.02739726938
v -0.005037298892 -0.007134186104 -0.02739726752
v -0.004964631982 0.00711952569 -0.0251996275
v -0.00490347622 0.006670707371 -0.0144496439
v -0.004848196171 0.006955543533 -0.01902329735
v -0.004811328836 0.007330914494 -0.02915943787
v -0.004685218912 0.007163494825 -0.02130319178
v -0.004628805909 0.00701430114 -0.01661893353
v -0.004581872374 0.007011318114 -0.01576975174
v -0.004578838591 -0.007471336983 -0.02901740186
v -0.004494799301 0.00689489441 -0.01244736835
v -0.004466412123 0.006766355596 -0.01055461168
v -0.004402652383 0.007188943215 -0.01766175963
v -0.004384438042 0.006528423633 -0.007968971506
v -0.004327249713 0.007503122091 -0.02496345714
v -0.004323216155 -0.007505447138 -0.02496345714
v -0.004322749563 0.007153032813 -0.0157784652
v -0.0043189032 -0.0071553546 -0.01577846706
v -0.004300994799 0.006384008564 -0.006682062987
v -0.004284591414 0.007074788678 -0.01382787712
v -0.004280788824 -0.007077091374 -0.01382788736
v -0.004195907619 0.007676536683 -0.02877264284
v -0.004193020985 0.006815716624 -0.009906371124
v -0.004191745538 0.007435174659 -0.02111742087
v -0.004187748302 -0.007437427528 -0.02111741714
v -0.004108766094 0.006095770281 -0.004628170282
v -0.004067922011 0.006647641771 -0.008028840646
v -0.004052673001 0.007344998419 -0.01753027551
v -0.004048726056 -0.007347176783 -0.01753028668
v -0.004042586312 0.006404193118 -0.006174103823
v -0.004028473981 0.003562052501 0.0005362823722
v -0.004023640417 0.0007733790553 0.001222901279
v -0.00402322365 -0.0007755426923 0.001222896622
v -0.004020116292 0.0003879550204 0.001232017181
v -0.004019906744 -0.0003901175514 0.001232019393
v -0.00401588995 -1.07939934e-06 0.001233984367
v -0.004012072925 0.007164229173 -0.01372709498
v -0.00400822144 -0.007166384254 -0.01372709405
v -0.003974941093 0.001530966838 0.001163805369
v -0.00397411827 -0.001533103641 0.001163798734
v -0.003939222544 -0.007798112929 -0.02860653587
v -0.003938657232 0.006882806309 -0.009827879257
v -0.003830238478 0.002261732705 0.001032657572
v -0.003829021705 -0.002263793489 0.001032662462
v -0.003815534757 0.006171312183 -0.004509309307
v -0.003813412739 0.006710001733 -0.007969525643
v -0.003807733301 0.004665529355 -0.0004089227004
v -0.003802770283 0.007857474498 -0.02851120383
v -0.003679859918 0.004147531465 0.0001469312119
v -0.003633631859 0.002949966816 0.0008234880515
v -0.003632045817 -0.002951920033 0.0008234808338
v -0.003627225989 0.007822322659 -0.02466207184
v -0.003623018973 -0.007824270986 -0.02466206066
v -0.003605330829 0.007680309005 -0.02086957172
v -0.003601203207 -0.007682246156 -0.02086957917
v -0.003590052249 -0.007944348268 -0.02836896852
v -0.003589909058 0.00588976685 -0.003058969975
v -0.003571894253 0.005084456876 -0.000941496226
v -0.003523555584 0.007969576865 -0.02831757441
v -0.003444168251 0.005541856866 -0.001868961728
v -0.003438474378 0.005332193803 -0.001371308812
v -0.003409686498 0.003587299725 0.0005253796116
v -0.003407756798 -0.003589132102 0.0005253822892
v -0.003395460313 0.004668052774 -0.00034696277
v -0.003264123108 -0.001592258341 0.001041572541
v -0.003253710922 0.001917239628 0.001000320772
v -0.003252845258 0.0009002463194 0.001087117358
v -0.003222840838 0.005114943255 -0.0009588178364
v -0.003215986304 -0.0006026478368 0.001090211328
v -0.003214462893 -0.008079648949 -0.02810090408
v -0.003195898142 0.004169187974 0.0001281685109
v -0.00319365738 -0.004170905799 0.0001281625009
v -0.003170176642 -0.002853271784 0.0007900747587
v -0.003144900082 0.003032857785 0.0007290772628
v -0.003125342308 -8.406365737e-07 0.001078965724
v -0.003118846798 0.0002272706188 0.001076887012
v -0.003046280006 0.007424388081 -0.01336450316
v -0.003042290453 -0.007426023949 -0.01336451247
v -0.003029854735 0.004687855486 -0.0003787889727
v -0.003014327958 0.007101368159 -0.009504821151
v -0.003010826884 -8.104824474e-07 0.001055596396
v -0.003010509303 -0.007102986798 -0.009504821151
v -0.00300547923 -0.003739252919 0.00040049362
v -0.002987110987 0.007679392118 -0.01710214652
v -0.002982983598 -0.007680997252 -0.01710215397
v -0.00298012211 0.003860971425 0.0003247422865
v -0.00293221348 0.007894405164 -0.02057237737
v -0.002927971072 -0.007895981893 -0.02057238109
v -0.002917819656 0.00690278504 -0.007677452639
v -0.002901547821 0.004214528017 6.909442891e-05
v -0.002879298059 -0.004309575073 -9.46694945e-06
v -0.00286728912 0.008078831248 -0.02431117743
v -0.002862946363 -0.008080370724 -0.02431118116
v -0.002833880484 0.008195539936 -0.02781106718
v -0.002831124002 0.004567767959 -0.0002567837655
v -0.002747311257 0.006672750693 -0.005994881969
v -0.00256414013 0.001826996217 0.000856922532
v -0.002563157585 -0.001828375505 0.0008569288184
v -0.002558511449 0.005184754729 -0.001083284966
v -0.00252484763 0.006401596125 -0.004489485174
v -0.002493837383 0.001054135035 0.0009080134914
v -0.002493270673 -0.001055474277 0.0009080103482
v -0.002464861842 -0.008290468715 -0.02752606571
v -0.002411064925 0.0006892081583 0.0009081683238
v -0.002410693327 -0.0006905035698 0.0009081744356
v -0.002289843047 0.006077556405 -0.00318178162
v -0.002196896588 0.005213999655 -0.001151066157
v -0.002183418721 0.008071278222 -0.02024027891
v -0.002170752501 0.008353909478 -0.02727935463
v -0.002149927197 -0.008358313702 -0.02726537362
v -0.00212740968 0.004804736003 -0.0005969087943
v -0.002124827122 -0.004805877805 -0.0005969092599
v -0.002094964497 0.00434686197 -0.000159930627
v -0.002092629438 -0.004347987473 -0.0001599339885
v -0.00207963842 0.0038460223 0.0001722031448
v -0.002077571582 -0.003847139422 0.0001722027082
v -0.002076146193 0.005691138096 -0.002087077359
v -0.002063010819 0.003303822363 0.0004126950225
v -0.002061234554 -0.003304932034 0.0004126935091
v -0.002052136231 0.008273646235 -0.02392728254
v -0.0020476887 -0.008274747059 -0.02392728813
v -0.002038393402 0.0005113484804 0.0008246894577
v -0.002029163763 0.002717543161 0.0005753945443
v -0.002027702983 -0.002718631178 0.000575389422
v -0.00201126677 -0.0005301581696 0.0008172126836
v -0.001970682759 0.00207119924 0.0006755871582
v -0.001969570061 -0.002072257921 0.0006755769136
v -0.001868229359 0.001394301187 0.0007227127207
v -0.001867479412 -0.001395307132 0.000722712779
v -0.001784027321 -4.790802564e-07 0.0007715647807
v -0.0017449999 -0.008429536596 -0.02690927684
v -0.001691808109 0.007335055619 -0.009080050513
v -0.00168786617 -0.007335964125 -0.00908005517
v -0.001678462722 0.0007603733684 0.0007179544191
v -0.00166291045 0.007689131889 -0.01286731381
v -0.001658776659 -0.007690025959 -0.01286731847
v -0.001651094179 0.00710530486 -0.007308548782
v -0.001647274825 -0.00710619241 -0.007308546919
v -0.001567185158 -0.00526726013 -0.001294802641
v -0.001565792714 0.006829379592 -0.005705397576
v -0.001562122721 -0.006830221973 -0.005705396179
v -0.001538534649 0.007963287644 -0.01652856544
v -0.001534254872 -0.007964112796 -0.01652857102
v -0.001472670003 0.004887490999 -0.0008152091177
v -0.001470041927 -0.004888282157 -0.0008152120863
v -0.001454874058 0.00847008545 -0.02663334273
v -0.001451046788 0.006508416496 -0.004303436261
v -0.001383740106 0.004479335155 -0.000441396347
v -0.00138133124 -0.004480079282 -0.0004413876741
v -0.001369978068 0.008204740472 -0.01988776587
v -0.001365568023 -0.008205474354 -0.01988776959
v -0.001347679296 0.005294497591 -0.001362125506
v -0.001331737032 0.006148000248 -0.003120285459
v -0.001330606989 0.0003667199926 0.0006420056452
v -0.0013284327 -0.006148714107 -0.003120281734
v -0.001295751194 0.004046564922 -0.0001593989437
v -0.001293578069 -0.004047262017 -0.0001594103815
v -0.001224979293 0.005752979778 -0.002166884253
v -0.001221887651 -0.00575363636 -0.002166891471
v -0.001201512991 0.003593856469 4.370386159e-05
v -0.001199581078 -0.003594502574 4.370643728e-05
v -0.00118646794 0.008407766931 -0.0235268604
v -0.001181948348 -0.008408403955 -0.0235268604
v -0.001145635848 -0.001154935686 0.00053321413
v -0.001130974502 -0.005327621009 -0.001439504558
v -0.001093902043 0.003120341804 0.0001816265576
v -0.00109222543 -0.00312092877 0.0001816252625
v -0.001034712535 -0.008515204303 -0.02621639147
v -0.0009908941574 0.005352436099 -0.001499682199
v -0.0009880175348 -0.005352967419 -0.001499686623
v -0.0009659139905 0.002622201107 0.0002659587481
v -0.0009645052487 -0.002622721018 0.0002659488237
v -0.000951952301 -2.559471852e-07 0.0005380359944
v -0.0008577170665 0.005044621881 -0.001134970575
v -0.0008550062776 -0.005045083351 -0.001134976745
v -0.0008484409773 -0.008530019782 -0.02601641417
v -0.0008088548784 0.002101579215 0.000305670721
v -0.0008079237305 0.003779870225 -0.0001892994478
v -0.0008077235543 -0.002102013677 0.00030567465
v -0.00080589141 -0.003780304221 -0.0001893099252
v -0.0007988796569 0.008533304557 -0.02595567144
v -0.0007288103807 0.00148234854 0.000362798135
v -0.0007234142395 0.004717182368 -0.000848376425
v -0.0007208783063 -0.004717570264 -0.0008483683341
v -0.0007150220335 -0.005410367623 -0.001638657763
v -0.0006030582008 0.001584867365 0.0003065087076
v -0.0006022059824 -0.00158519065 0.0003064974444
v -0.0005817349884 0.0043678605 -0.0006292893086
v -0.0005793871242 -0.004368172493 -0.0006292843027
v -0.0005161397276 0.002911415417 1.418477768e-05
v -0.0005145741743 -0.002911691321 1.418523607e-05
v -0.0005075217923 0.005459011067 -0.001770798233
v -0.0005045882426 -0.005459282547 -0.001770803938
v -0.0004347329086 -0.008552155457 -0.02553484775
v -0.0004303447786 0.003999864683 -0.0004680612765
v -0.0004281945294 -0.004000095185 -0.0004680660786
v -0.0004224972508 -0.005759859458 -0.002278432949
v -0.000421103905 0.005779887084 -0.002317299368
v -0.0003899642325 0.005937814247 -0.002646154026
v -0.0003867735213 -0.005938022397 -0.002646154258
v -0.0003670551232 0.006079613231 -0.002977390075
v -0.0003637885966 -0.006079811137 -0.002977395896
v -0.0003605257079 0.006125572138 -0.003091153922
v -0.0003572333371 -0.006125764456 -0.003091148566
v -0.0003256955242 0.006435350981 -0.003936030902
v -0.0003222359228 -0.006435525138 -0.003936036024
v -0.0003157397732 -0.006507115439 -0.004155339207
v -0.0003147282987 0.006559532136 -0.004323193803
v -0.0003111998376 -0.006559701171 -0.00432318449
v -0.0002967182663 0.006782414392 -0.005107237492
v -0.0002930722549 -0.006782573182 -0.005107237026
v -0.0002895410289 0.006870255806 -0.00545418309
v -0.0002858480148 -0.006870411336 -0.005454192404
v -0.0002668006928 0.007105934899 -0.006529818289
v -0.0002629811934 -0.007106077392 -0.006529814564
v -0.0002345173416 0.007325259037 -0.007809028495
v -0.0002305800735 -0.007325385232 -0.007809033617
v -0.0002249141253 -0.007355133072 -0.008009447716
v -0.0002163648896 0.00855791755 -0.02524928004
v -0.0002092530485 0.007445663214 -0.008666491136
v -0.0002052515483 -0.007445774507 -0.008666491136
v -0.0001785446511 -0.005112356041 -0.001469454728
v -0.0001718279236 -0.007567658555 -0.009673931636
v -0.0001431981218 0.005066370126 -0.001439422835
v -0.0001346539066 -0.005059339106 -0.001434943522
v -0.0001046230318 -0.007741748355 -0.01140539441
v -9.883679741e-05 0.007762338035 -0.01163605228
v -9.466409392e-05 -0.007762390655 -0.01163606253
v -8.694663848e-05 0.003210317343 -0.0002821733069
v -8.563907613e-05 0.0007886913372 0.0002155757975
v -8.521835116e-05 -0.003210363677 -0.0002821621019
v -8.521469135e-05 -0.0007887376705 0.0002155720867
v -7.117822679e-05 0.004248672165 -0.0007996740169
v -6.889524229e-05 -0.004248709418 -0.0007996750064
v -5.488674901e-07 0.00206726091 -8.899684871e-06
v 5.599156907e-07 -0.002067259746 -8.908846212e-06
v 9.398189832e-06 -0.004876819905 -0.001333645545
v 8.910240285e-05 0.008035340346 -0.01513563469
v 9.342211706e-05 -0.008035291918 -0.01513563283
v 9.726646385e-05 0.005480686668 -0.002088058507
v 0.0001002117351 -0.00548063498 -0.002088053618
v 0.0001022407087 -0.008559112437 -0.02480801754
v 0.0001612990163 0.008558375761 -0.0247120522
v 0.0002669501409 0.004520032555 -0.001189730829
v 0.0002693783026 -0.0045198882 -0.001189738512
v 0.0003065197961 0.00855518505 -0.02448271774
v 0.000325042085 0.003521040548 -0.0006308443844
v 0.0003264174738 0.005869333167 -0.002865679795
v 0.0003269339795 -0.003520866623 -0.0006308406591
v 0.0003295724164 -0.005869155284 -0.002865679795
v 0.0003336001828 0.007332204375 -0.007881402969
v 0.0003460438747 0.00233838358 -0.0002326098038
v 0.0003473007819 -0.002338198479 -0.0002326090325
v 0.0004026562092 0.004322999623 -0.001132018981
v 0.0004067252157 0.008316684514 -0.01917942241
v 0.0004111965245 -0.008316464722 -0.01917941868
v 0.0005117752589 0.006263440941 -0.003820878919
v 0.0005151440855 -0.006263165735 -0.003820867278
v 0.0005189269432 0.007728615776 -0.01122458745
v 0.0005534006632 0.008419081569 -0.02099643089
v 0.0005579262506 -0.008418781683 -0.02099643275
v 0.0005799185601 -0.008543585427 -0.02401311509
v 0.0005933492212 -0.004039573483 -0.001070269733
v 0.0005960717681 1.592042622e-07 -1.787016663e-05
v 0.0005960825365 0.004032391589 -0.001068913727
v 0.0006146420492 0.005050962325 -0.001908837352
v 0.0006173562724 -0.005050630309 -0.001908832346
v 0.0006241026567 0.002556560328 -0.0004382301413
v 0.0006254782202 -0.002556225518 -0.0004382180923
v 0.0006682388484 0.006640647072 -0.004958164413
v 0.0006718084333 -0.006640288513 -0.004958155099
v 0.0007213369827 0.003838639241 -0.001038338523
v 0.0007365887286 0.008533360437 -0.02369439602
v 0.0007411753759 -0.008532964624 -0.02369439974
v 0.0008078303072 0.006978213787 -0.006273796782
v 0.0008079623221 0.008527542464 -0.0235383492
v 0.0008109274786 0.001549791312 -0.0002733951551
v 0.0008115815581 -0.006977776997 -0.006273797248
v 0.0008117602556 -0.001549356268 -0.000273391197
v 0.0008125471068 -0.008527100086 -0.02353834547
v 0.000878589577 0.008521304466 -0.02338241227
v 0.0008831694722 -0.008520830423 -0.023382416
v 0.0009262034437 -0.006106876303 -0.003761722939
v 0.0009413414518 0.007257574704 -0.007757090032
v 0.0009443772142 -0.007806142326 -0.02774675563
v 0.0009452408995 -0.007257068064 -0.007757092826
v 0.0009907383937 0.005482065957 -0.002733122325
v 0.0009929842781 -0.007798213046 -0.02774466388
v 0.0009936847491 -0.005481533706 -0.00273312116
v 0.00107804453 -0.007481609471 -0.009363728575
v 0.001127043157 0.004491107538 -0.001780163497
v 0.001129455748 -0.004490500316 -0.001780170365
v 0.001146026654 0.006497185212 -0.004893216304
v 0.001149517484 -0.006496568676 -0.004893226549
v 0.001209298032 0.007662754506 -0.01103839837
v 0.001213415293 -0.007662103511 -0.0110383993
v 0.001224697335 0.003025236074 -0.000973622431
v 0.001226323307 -0.003024576697 -0.0009736323263
v 0.001317804446 0.005907354876 -0.003707653377
v 0.00132098014 -0.005906646606 -0.00370765687
v 0.001345947501 0.006843261886 -0.006191262044
v 0.001349625411 -0.006842539646 -0.006191258319
v 0.001357260509 0.0007513563032 -0.0004214283836
v 0.001357663656 -0.0007506277761 -0.0004214373766
v 0.001501325052 0.007934585214 -0.01437040325
v 0.001505588996 -0.007933775894 -0.0143704135
v 0.001533352537 0.007128481288 -0.007648305502
v 0.001537184115 -0.007127656601 -0.007648312021
v 0.001549501554 -0.002481539501 -0.000964838604
v 0.001550121233 -0.007683581207 -0.02767505683
v 0.001551486552 0.006883119233 -0.02767571062
v 0.0015529542 0.008500638418 -0.02338153683
v 0.001601195079 0.00239235675 -0.0009658792987
v 0.001606146339 0.006304745097 -0.004836458713
v 0.001609534724 -0.006303880829 -0.004836461507
v 0.001618500217 0.004943847191 -0.002630222589
v 0.001621158211 -0.004942977335 -0.002630221425
v 0.001651042723 0.003792331321 -0.001700934605
v 0.001653080806 -0.003791442374 -0.001700938563
v 0.001695333864 -0.002233100357 -0.0009696916677
v 0.001834961935 0.008148089983 -0.01743199117
v 0.00183934113 -0.008147102781 -0.01743199863
v 0.001866787439 0.006654720753 -0.006119880825
v 0.001870363834 -0.006653715856 -0.006119886879
v 0.001892131986 0.007539407816 -0.01086559892
v 0.001957451226 5.257617204e-07 -0.0007157852524
v 0.002050464274 0.006062076893 -0.004786764272
v 0.002053723205 -0.006060974672 -0.00478676334
v 0.002063067397 -0.008465624414 -0.02338045277
v 0.002068898641 0.005374222528 -0.003617895301
v 0.00207178737 -0.005373109132 -0.003617883893
v 0.002080834704 0.001568278647 -0.001017163857
v 0.002088467823 -0.007529834751 -0.02752515487
v 0.002109753201 0.006942265667 -0.007552130613
v 0.002113483381 -0.006941132247 -0.007552132942
v 0.002151031746 -0.003800062463 -0.02750197053
v 0.00215148204 -0.007508956827 -0.0275017526
v 0.002153162844 -0.001442873152 -0.001032489352
v 0.002159093507 0.006706268061 -0.02749887854
v 0.002175681992 0.008322067559 -0.02054509334
v 0.002178317634 0.001398930093 -0.001038644463
v 0.002180155599 -0.008320898749 -0.02054508403
v 0.002197648631 0.002935157856 -0.001651376369
v 0.002199226292 -0.002933976939 -0.001651378814
v 0.0022319532 0.004236693494 -0.002552083228
v 0.002234229818 -0.004235492554 -0.002552085323
v 0.002325004432 -0.007448235527 -0.02743038535
v 0.002344759647 -0.007170735858 -0.009096188471
v 0.002362461761 0.001077696914 -0.001091033686
v 0.002371506765 0.006410491653 -0.00605706824
v 0.002374951262 -0.006409216207 -0.006057071034
v 0.002414605813 0.008433366194 -0.02337903716
v 0.00241941167 -0.008431699127 -0.02337921038
v 0.002481030533 0.005766711198 -0.004741468932
v 0.002484131139 -0.005765375216 -0.004741465207
v 0.002564738039 0.007354977075 -0.01070475299
v 0.002568691969 -0.007353596855 -0.01070474833
v 0.00257084053 0.0007118181093 -0.001172535471
v 0.002606617287 -0.007339328062 -0.0272914283
v 0.002610360039 0.0006420735735 -0.001191317104
v 0.002610706026 -0.0006406721077 -0.001191314892
v 0.002670662012 0.006696251221 -0.007465600967
v 0.002674261108 -0.00669481419 -0.007465611212
v 0.002713452093 0.006494428031 -0.02723119594
v 0.002734259237 0.001962880371 -0.001647300203
v 0.00273531233 -0.001961410046 -0.001647307421
v 0.002783812582 -0.0003326810256 -0.001288972446
v 0.002785538789 0.004643461667 -0.003536549164
v 0.002788032405 -0.0046419641 -0.00353656034
v 0.002844157396 0.003338888753 -0.002478193725
v 0.002845953684 -0.003337357659 -0.002478189999
v 0.002861359389 0.006107890978 -0.005999337882
v 0.002864643 -0.006106350105 -0.005999330897
v 0.002902851673 -0.005413877778 -0.004696754739
v 0.002957188291 -0.006922805682 -0.008978955448
v 0.002967545763 7.977889709e-07 -0.001420942484
v 0.003008431522 0.007625009399 -0.01392613351
v 0.003012528876 -0.007623392157 -0.01392614096
v 0.003182574874 0.008316649124 -0.02358658426
v 0.003184695495 0.008330460638 -0.0233755447
v 0.0031896648 0.0009654749883 -0.00171795499
v 0.003190183081 -0.0009637616458 -0.001717953011
v 0.003216252895 0.006387440022 -0.007385335863
v 0.00321968575 -0.006385712419 -0.007385338657
v 0.003224425949 0.007105853409 -0.01055447944
v 0.003228245769 -0.007104121149 -0.01055448037
v 0.003309291787 0.005005049054 -0.004648734815
v 0.003311980981 -0.005003269762 -0.004648744129
v 0.003337678732 0.005743750837 -0.00594252022
v 0.003340765368 -0.005741956644 -0.005942530464
v 0.00335655245 0.0004794051056 -0.001775755081
v 0.003356809495 -0.0004776011338 -0.001775753219
v 0.003414196894 0.002287656534 -0.002422876889
v 0.003415426472 -0.002285821829 -0.002422880614
v 0.003465445712 0.007830689661 -0.01694394834
v 0.003469654825 -0.007828826085 -0.0169439353
v 0.003474671626 9.349681136e-07 -0.001849984168
v 0.003482050262 0.003693224164 -0.003440285567
v 0.003484033281 -0.003691351973 -0.003440293483
v 0.003554085968 -0.006608843338 -0.008869316429
v 0.003675898537 -0.008226797916 -0.02358366549
v 0.00367839518 -0.008239981718 -0.02337285317
v 0.003746739589 0.00601259619 -0.007307531778
v 0.003748836694 0.007372442167 -0.01372141019
v 0.003749971977 -0.006010581739 -0.007307527587
v 0.003752798308 -0.007370426785 -0.01372142043
v 0.003801799379 0.005314894952 -0.005882431287
v 0.003804655047 -0.005312849302 -0.005882431287
v 0.003860308789 0.00115784118 -0.00241713319
v 0.003860930214 -0.001155766193 -0.002417132491
v 0.003868510714 0.006788392551 -0.01041327789
v 0.003872160101 -0.006786311511 -0.01041326765
v 0.0039004602 0.007995978929 -0.02004722692
v 0.00390475709 -0.007993881591 -0.02004723065
v 0.003964912612 1.065814672e-06 -0.002341809683
v 0.003999901935 0.0005805976107 -0.002429108601
v 0.004000212532 -0.0005784487585 -0.00242911512
v 0.004102574196 0.003998288885 -0.004530442413
v 0.004104722757 -0.003996083047 -0.004530442879
v 0.004110167734 0.002557016676 -0.003342713928
v 0.004111540969 -0.002554807579 -0.003342713695
v 0.00413428992 -0.006225424819 -0.008764496073
v 0.004232787993 0.008117916062 -0.02336916327
v 0.00426233653 0.005568468012 -0.007228428498
v 0.004265329801 -0.005566175561 -0.007228422444
v 0.004268680699 0.007573623676 -0.01672250032
v 0.004272751044 -0.007571328431 -0.01672249846
v 0.004472822417 0.007048924454 -0.01352896728
v 0.00447660964 -0.007046520244 -0.01352897193
v 0.004494313151 0.006398906931 -0.01027962752
v 0.004497752525 -0.006396491081 -0.01027962659
v 0.004575730301 0.001305854297 -0.003279722529
v 0.00457643019 -0.001303393859 -0.003279731143
v 0.004693543073 0.005771642085 -0.008661686443
v 0.004693575203 0.004254699219 -0.005739050917
v 0.004695860203 -0.004252176266 -0.005739062559
v 0.004696644377 -0.005769119132 -0.008661692031
v 0.004712027963 0.0006567614619 -0.003266155487
v 0.004712380935 -0.0006542287301 -0.003266145941
v 0.004749252927 0.007734998595 -0.0198279433
v 0.00475182943 0.007839622907 -0.02391750552
v 0.004753410816 -0.007732444908 -0.01982793398
v 0.004765929189 -0.005049285479 -0.007144257892
v 0.004772084299 0.007908663712 -0.02376362309
v 0.00477633439 -0.007906095125 -0.02376361005
v 0.004785894882 0.007955902256 -0.02357747965
v 0.004789215047 0.007967602462 -0.02336508781
v 0.004790196661 -0.007953418419 -0.02357690223
v 0.004793496337 -0.007965027355 -0.02336508408
v 0.004804930184 0.002780609764 -0.00440050289
v 0.004806424025 -0.002778028371 -0.004400505684
v 0.004985901061 0.007897094823 -0.02317542583
v 0.004990145098 -0.007894413546 -0.02317541838
v 0.005035480019 0.007788074668 -0.02382607758
v 0.005039663054 -0.007785365917 -0.02382608876
v 0.005052938592 0.00724435458 -0.01651654765
v 0.005056832917 -0.007241637912 -0.01651653461
v 0.005068922415 0.007868823595 -0.02345528826
v 0.005073150154 -0.007866096683 -0.02345528826
v 0.005089598708 0.002115578623 -0.004344585352
v 0.005090735387 -0.002112843329 -0.004344583489
v 0.005099156406 0.005933713168 -0.01015199535
v 0.005102344323 -0.005930972286 -0.010152
v 0.005174648017 0.006650137249 -0.01334928162
v 0.005178221036 -0.006647354923 -0.01334928814
v 0.005199134815 1.396939638e-06 -0.003831119044
v 0.005244692788 0.004463952035 -0.007054312155
v 0.005247090477 -0.00446113199 -0.007054321468
v 0.005272005219 0.007640837692 -0.02388923615
v 0.005276110955 -0.00763800228 -0.02388923429
v 0.005311511923 0.00142500957 -0.004300693516
v 0.005312276073 -0.001422153786 -0.004300702829
v 0.005324176513 0.007738110609 -0.02354899421
v 0.005328334868 -0.007735246327 -0.02354899049
v 0.005455776583 0.000717474788 -0.004272228107
v 0.005456161685 -0.000714543392 -0.004272226244
v 0.005473319441 0.002964180429 -0.005583661143
v 0.005474912468 -0.002961237682 -0.005583653226
v 0.005575748626 0.007401205599 -0.01962739229
v 0.005579726305 -0.007398207672 -0.01962739974
v 0.005595907103 0.007396197878 -0.02394390479
v 0.005599881522 -0.00739318924 -0.02394390479
v 0.005666054785 0.00748936832 -0.02367461659
v 0.005670079496 -0.007486322429 -0.02367460914
v 0.005680322647 0.005389170721 -0.01002887543
v 0.005683217198 -0.00538611738 -0.01002888288
v 0.005693030544 0.00381427817 -0.006963543128
v 0.005695079453 -0.003811217379 -0.006963549647
v 0.005756042898 0.004632055759 -0.00845353771
v 0.005786184222 0.002256813692 -0.005515732802
v 0.005787396338 -0.002253702842 -0.005515736993
v 0.005809988361 0.006837913301 -0.01632642001
v 0.00581366336 -0.006834789645 -0.01632641815
v 0.005848571192 0.006171757355 -0.0131828608
v 0.005851887167 -0.006168612745 -0.01318286452
v 0.005906536244 0.007502740249 -0.02235963941
v 0.005910682958 -0.00749926595 -0.02235955372
v 0.005978494417 0.007091305684 -0.02394367196
v 0.005982303061 -0.007088090759 -0.02394368127
v 0.006028315052 0.00152094604 -0.00546141481
v 0.006029131822 -0.001517705037 -0.005461412948
v 0.006053460296 0.007180636283 -0.02367438003
v 0.006057317834 -0.007177382242 -0.02367438748
v 0.006093494594 0.003113229293 -0.006877506617
v 0.006095166318 -0.003109953832 -0.006877510343
v 0.006184695754 0.0007660721312 -0.005425381474
v 0.006185106002 -0.0007627467858 -0.005425390787
v 0.006185646169 0.007348983549 -0.02269162983
v 0.006189674139 -0.007345409133 -0.02269153483
v 0.006231189705 0.004766501952 -0.009910454042
v 0.006233750377 -0.004763153382 -0.009910449386
v 0.006310177036 1.695192736e-06 -0.005533214193
v 0.006370018236 0.006988953333 -0.01944484748
v 0.00637377426 -0.00698552886 -0.01944485493
v 0.006408369169 0.007106763311 -0.02301332913
v 0.00641223276 -0.007103122771 -0.0230132509
v 0.006431328133 0.002371198963 -0.006801760755
v 0.006432601716 -0.002367741195 -0.006801754236
v 0.006488827989 0.005609510932 -0.01303020027
v 0.006491844077 -0.005606022198 -0.01303019002
v 0.00653160084 0.006349331699 -0.01615246385
v 0.006535012741 -0.006345820148 -0.01615246199
v 0.006662939675 0.003233090974 -0.008258827962
v 0.006664676126 -0.003229509573 -0.008258831687
v 0.006691518705 0.00159848202 -0.006741489284
v 0.006692376919 -0.001594884787 -0.006741490215
v 0.006737827789 0.004076024983 -0.009800100699
v 0.00674001826 -0.004072401673 -0.009800104424
v 0.006762243342 0.005993993022 -0.02420848794
v 0.006837910507 0.006962092128 -0.02156763524
v 0.00684190169 -0.006957716774 -0.02156745084
v 0.006858867593 0.0008052967605 -0.006701687817
v 0.006859299261 -0.0008016100037 -0.006701692939
v 0.00694184145 0.006153676193 -0.0239430964
v 0.006943222135 0.006769421976 -0.02253649756
v 0.006945147645 -0.006149943918 -0.0239430964
v 0.006946859881 -0.006765687838 -0.02253650129
v 0.00702108629 0.002463207347 -0.008178269491
v 0.0070224097 -0.002459433861 -0.008178266697
v 0.007028943393 0.006231193896 -0.02367379703
v 0.007032291964 -0.006227415055 -0.02367379144
v 0.007082727272 0.006791474763 -0.02191733383
v 0.007086560596 -0.006787093356 -0.02191715315
v 0.007087136619 0.004964418709 -0.01289219782
v 0.007089803461 -0.004960606806 -0.01289220341
v 0.007122137118 0.006492599845 -0.019279534
v 0.007125624921 -0.006488770247 -0.01927954145
v 0.007185505237 0.003329046071 -0.009701567702
v 0.007187294308 -0.003325184574 -0.009701562114
v 0.007209536619 0.00577369472 -0.01599499583
v 0.007212638389 -0.005769816693 -0.01599499211
v 0.007261470892 0.006539495196 -0.0222577434
v 0.007265088148 -0.006535139401 -0.02225757949
v 0.007295689546 0.001660862938 -0.00811512582
v 0.007296580356 -0.001656941837 -0.00811512582
v 0.007360581309 1.977021157e-06 -0.007651148364
v 0.007455843966 0.005714580882 -0.02367354184
v 0.0074589164 -0.005710572004 -0.02367352881
v 0.00747162709 0.0008368653944 -0.008073927835
v 0.007472075988 -0.0008328493568 -0.00807393156
v 0.007558561862 0.004954526667 -0.02420800738
v 0.007559488993 0.002536882181 -0.009618546814
v 0.007560851052 -0.002532818122 -0.009618550539
v 0.007561223581 -0.004950464703 -0.02420801111
v 0.007630498614 0.004247375298 -0.01277058292
v 0.00763278082 -0.004243274219 -0.01277057827
v 0.007759375032 0.005086516961 -0.02394260652
v 0.007762107532 -0.005082346965 -0.02394260094
v 0.007775353268 0.006222764961 -0.02083979361
v 0.007779052947 -0.006217577029 -0.02083953656
v 0.007822176442 0.005906555336 -0.01913071051
v 0.007825350389 -0.005902349949 -0.01913071051
v 0.0078344699 0.005111745093 -0.01585465297
v 0.007837215438 -0.005107534118 -0.01585465856
v 0.00784500502 0.001710824086 -0.009554755874
v 0.007845924236 -0.001706606359 -0.009554751217
v 0.007856775075 0.005150591955 -0.02367329784
v 0.007858826779 0.006033932324 -0.0217519626
v 0.007859542966 -0.005146369804 -0.02367329039
v 0.007861761376 -0.006029535551 -0.02175207995
v 0.007964917459 0.006053314544 -0.02120953798
v 0.007968424819 -0.006048202515 -0.02120930329
v 0.008027261123 0.0008621609886 -0.009513788857
v 0.008027723059 -0.0008578450652 -0.009513800032
v 0.008081739768 0.005815274082 -0.02157152258
v 0.00808501523 -0.005810278002 -0.02157130465
v 0.008105407469 0.003470370313 -0.01266709436
v 0.008107272908 -0.003466014517 -0.0126670897
v 0.008196088485 0.003810771275 -0.02420762368
v 0.008198136464 -0.00380636612 -0.02420762368
v 0.008274537511 2.222670673e-06 -0.01001648791
v 0.008388653398 0.004231223371 -0.02367297374
v 0.008390925825 -0.004226714838 -0.02367297746
v 0.008395049721 0.004374816548 -0.01573259011
v 0.008397400379 -0.00437030429 -0.01573258825
v 0.00841388572 0.003912291955 -0.02394220792
v 0.008415986784 -0.00390777085 -0.02394220978
v 0.008460296318 0.005231255665 -0.01899822243
v 0.008463105187 -0.005226708949 -0.0189982336
v 0.008498353884 0.002645390574 -0.01258350164
v 0.008499774151 -0.002640821971 -0.01258350909
v 0.008519531228 0.00396157708 -0.02367289737
v 0.0085216593 -0.003956996836 -0.02367288992
v 0.008648606017 0.005270750728 -0.02022582479
v 0.008652991615 -0.005264145322 -0.02022403851
v 0.008661403321 0.002586803632 -0.02420734614
v 0.008662793785 -0.002582148649 -0.0242073331
v 0.008721674792 2.344410859e-06 -0.02437088639
v 0.00878333766 0.005116452463 -0.02061323822
v 0.008787161671 -0.005110037047 -0.02061150968
v 0.008795823902 0.001784414519 -0.01252161805
v 0.008796782233 -0.001779688289 -0.01252160966
v 0.008840031922 0.004907276481 -0.02099417336
v 0.008843218908 -0.004901084118 -0.02099248581
v 0.008879705332 0.003575399052 -0.01562999189
v 0.008881625719 -0.00357062486 -0.01562999561
v 0.008891596459 0.002655716846 -0.02394192107
v 0.008893022314 -0.002650939394 -0.02394192293
v 0.008944712579 0.00130838796 -0.02420716546
v 0.008945414796 -0.001303579309 -0.02420716919
v 0.008984311484 0.0008994354866 -0.01248316839
v 0.008984793909 -0.0008946044836 -0.01248316653
v 0.009003261104 0.002689172747 -0.02367259562
v 0.009004704654 -0.002684334293 -0.02367260493
v 0.009026809596 0.004478388932 -0.01888306625
v 0.00902921427 -0.004473537207 -0.01888307557
v 0.009040052071 2.42921692e-06 -0.024207104
v 0.009050303139 2.433210966e-06 -0.01246996503
v 0.009064128622 0.004577950109 -0.02083031647
v 0.009066233411 -0.0045729829 -0.02082859725
v 0.009182453156 0.001343242824 -0.02394173667
v 0.009183173999 -0.00133830728 -0.02394173853
v 0.009276860394 0.002725980245 -0.01554809511
v 0.009278324433 -0.002720993711 -0.01554809697
v 0.009280332364 2.493572083e-06 -0.0239416752
v 0.009297780693 0.001360163442 -0.02367242053
v 0.009298510849 -0.00135516678 -0.02367242612
v 0.009350763634 2.512368383e-06 -0.01354011148
v 0.009355661459 0.0008786549442 -0.023672387
v 0.009356132708 -0.0008736241143 -0.02367238514
v 0.009382402524 0.004160453565 -0.01972394809
v 0.009386966005 -0.004153054208 -0.01972089708
v 0.009396892972 2.52561972e-06 -0.02367235906
v 0.009478426538 0.004022081848 -0.02012391016
v 0.009482064284 -0.004014879465 -0.0201209411
v 0.009490994737 0.003841173137 -0.02051813155
v 0.009493732825 -0.003834218252 -0.02051525004
v 0.009512048215 0.003660874674 -0.01878635213
v 0.009514013305 -0.00365576311 -0.01878636144
v 0.009574942291 0.001839054283 -0.01548809931
v 0.009575929493 -0.00183390826 -0.01548810583
v 0.009762379341 0.0009271118324 -0.01545121614
v 0.009762874804 -0.0009218644118 -0.01545121986
v 0.009827595204 2.640100547e-06 -0.01543865632
v 0.009906343184 0.002791638719 -0.01870919205
v 0.009907841682 -0.002786314581 -0.01870920137
v 0.009923705831 0.002861167071 -0.02018670179
v 0.009925063699 -0.002854847582 -0.02018639073
v 0.009958539158 0.002913796576 -0.01931574941
v 0.009960208088 -0.002906929934 -0.01931546442
v 0.009998095222 0.002652150579 -0.02012719959
v 0.009999272414 -0.002645812929 -0.02012694627
v 0.01002167258 0.002797684399 -0.01972406916
v 0.01002313755 -0.002791059436 -0.01972381771
v 0.01019616891 2.738921921e-06 -0.01718637347
v 0.01020002551 0.00188360014 -0.0186527092
v 0.01020103693 -0.001878116513 -0.01865270361
v 0.01032937411 0.001363392686 -0.01984702796
v 0.01033098716 -0.001354862936 -0.01984284818
v 0.01034514047 0.001527901739 -0.01902530715
v 0.01034930348 -0.001518456382 -0.01902090758
v 0.01038081292 0.001453240635 -0.01943855919
v 0.01038342807 0.000949682435 -0.01861799881
v 0.0103836637 -0.001444232301 -0.01943427511
v 0.01038393751 -0.0009441016009 -0.01861799695
v 0.01038777363 0.0009766597068 -0.01979259774
v 0.01038872823 -0.0009712271276 -0.01978957467
v 0.01041909866 0.0006886932533 -0.01976214349
v 0.01041993499 -0.0006817071117 -0.01976007596
v 0.01045062486 2.80773861e-06 -0.01973024383
v 0.01045469753 0.0007807262591 -0.01893757284
v 0.01045677811 -0.0007733274251 -0.01893540658
v 0.01048007701 0.000738567207 -0.01935217343
v 0.01048160344 -0.0007313499227 -0.01935004815
v 0.01049442589 2.820791224e-06 -0.01890462823
v 0.01051549707 2.825522415e-06 -0.01931971684
f 28 10 12
f 11 4 9
f 9 22 11
f 527 530 531
f 86 504 111
f 515 534 449
f 167 198 194
f 64 28 12
f 12 10 64
f 736 746 729
f 746 734 729
f 6 4 1
f 86 111 98
f 22 69 29
f 11 22 29
f 801 784 553
f 504 177 139
f 139 111 504
f 184 177 504
f 572 551 490
f 444 435 391
f 189 195 200
f 505 183 189
f 189 200 505
f 183 185 189
f 189 185 195
f 200 209 216
f 505 200 216
f 49 64 10
f 432 515 449
f 449 344 432
f 863 856 831
f 880 878 873
f 548 493 524
f 686 650 622
f 864 867 875
f 875 866 864
f 534 574 546
f 728 696 734
f 8 9 4
f 4 6 8
f 8 6 527
f 1 4 24
f 436 357 388
f 357 370 388
f 388 547 436
f 357 325 362
f 362 370 357
f 315 325 357
f 500 572 490
f 536 547 596
f 762 553 758
f 758 553 784
f 553 541 802
f 808 787 824
f 808 804 780
f 824 804 808
f 791 787 762
f 762 758 791
f 791 758 784
f 762 787 773
f 773 752 762
f 780 752 773
f 773 808 780
f 787 808 773
f 780 804 776
f 747 776 737
f 710 737 703
f 484 480 412
f 490 551 484
f 407 175 409
f 472 407 409
f 409 480 472
f 496 465 472
f 496 529 518
f 488 496 518
f 465 496 488
f 391 435 387
f 387 379 391
f 534 546 506
f 302 281 278
f 505 253 288
f 288 303 505
f 303 288 286
f 286 248 281
f 286 288 253
f 638 640 648
f 302 344 314
f 303 286 314
f 314 281 302
f 314 286 281
f 200 195 197
f 197 209 200
f 242 253 505
f 505 216 242
f 242 216 209
f 133 157 162
f 162 183 505
f 505 133 162
f 168 185 183
f 183 162 168
f 168 162 157
f 180 185 168
f 151 150 137
f 90 113 72
f 72 28 90
f 28 64 90
f 72 113 104
f 150 254 161
f 252 151 137
f 252 138 241
f 137 138 252
f 515 432 499
f 489 519 499
f 499 589 515
f 519 589 499
f 817 830 811
f 862 830 855
f 855 866 862
f 855 817 851
f 830 817 855
f 871 873 878
f 494 444 477
f 750 726 706
f 750 785 777
f 483 494 525
f 435 444 483
f 444 494 483
f 712 685 672
f 493 548 521
f 583 548 601
f 601 618 583
f 550 528 579
f 605 622 579
f 605 579 556
f 556 579 528
f 508 521 544
f 493 521 508
f 550 519 501
f 501 528 550
f 686 622 658
f 658 622 605
f 777 748 753
f 753 750 777
f 726 750 753
f 661 618 601
f 601 629 661
f 614 644 592
f 819 792 788
f 777 785 815
f 707 650 686
f 811 800 790
f 862 866 870
f 874 873 837
f 837 872 874
f 880 873 874
f 874 872 880
f 833 872 837
f 833 870 872
f 833 830 862
f 862 870 833
f 866 875 877
f 880 872 877
f 877 870 866
f 872 870 877
f 440 506 437
f 437 506 546
f 413 437 546
f 755 558 723
f 558 728 723
f 530 527 533
f 531 530 533
f 533 541 531
f 558 802 533
f 533 802 541
f 692 728 558
f 558 533 692
f 692 533 675
f 696 728 692
f 375 413 573
f 573 638 375
f 640 638 573
f 573 546 574
f 573 413 546
f 617 573 574
f 640 573 617
f 736 729 709
f 734 696 709
f 709 729 734
f 696 692 677
f 677 692 675
f 677 709 696
f 22 9 14
f 9 8 14
f 14 8 527
f 3 5 1
f 3 49 10
f 3 36 49
f 2 6 1
f 1 5 2
f 527 6 2
f 2 533 527
f 5 533 2
f 186 182 136
f 111 139 123
f 139 140 123
f 158 139 177
f 4 39 35
f 35 24 4
f 39 37 35
f 15 3 1
f 36 3 15
f 479 362 325
f 479 235 204
f 516 450 536
f 357 450 345
f 345 315 357
f 422 500 490
f 547 388 595
f 595 596 547
f 595 388 370
f 642 596 595
f 504 642 595
f 455 357 436
f 455 450 357
f 536 450 455
f 455 476 536
f 436 547 523
f 523 547 536
f 536 476 523
f 558 800 813
f 801 553 814
f 812 784 801
f 812 791 784
f 801 814 812
f 839 804 824
f 824 841 839
f 730 693 553
f 730 553 762
f 762 752 730
f 676 541 553
f 553 693 676
f 774 752 780
f 780 776 774
f 776 747 774
f 725 703 737
f 412 480 411
f 480 409 411
f 480 484 502
f 529 496 502
f 472 480 502
f 502 496 472
f 545 567 522
f 196 193 204
f 349 192 400
f 400 465 452
f 452 488 477
f 465 488 452
f 477 444 452
f 353 190 192
f 186 136 148
f 192 190 149
f 149 160 192
f 190 148 149
f 145 160 149
f 149 148 136
f 400 192 172
f 192 160 172
f 172 175 407
f 477 488 509
f 522 494 509
f 509 494 477
f 509 488 518
f 509 545 522
f 518 545 509
f 465 403 405
f 405 407 472
f 472 465 405
f 405 172 407
f 403 172 405
f 359 333 186
f 467 506 440
f 454 506 475
f 449 534 454
f 534 506 454
f 454 467 440
f 440 437 454
f 437 413 454
f 302 278 271
f 635 638 648
f 635 648 505
f 356 314 344
f 356 413 375
f 356 454 413
f 356 344 449
f 449 454 356
f 194 197 191
f 191 167 194
f 195 185 188
f 188 197 195
f 188 191 197
f 167 191 188
f 188 164 167
f 188 185 180
f 180 164 188
f 199 197 194
f 209 197 201
f 201 199 202
f 197 199 201
f 246 242 209
f 253 242 246
f 246 286 253
f 248 286 246
f 72 104 97
f 137 118 121
f 121 138 137
f 100 124 121
f 121 124 241
f 241 138 121
f 113 90 92
f 147 161 156
f 150 161 147
f 135 118 137
f 135 147 144
f 137 150 135
f 150 147 135
f 156 167 154
f 167 164 154
f 154 147 156
f 144 147 154
f 130 157 133
f 130 168 157
f 26 31 30
f 251 161 254
f 254 300 251
f 251 300 341
f 71 74 100
f 81 110 125
f 108 110 81
f 81 101 108
f 74 55 81
f 489 499 453
f 453 499 432
f 432 421 453
f 336 432 344
f 336 344 302
f 302 271 336
f 796 790 786
f 796 817 811
f 811 790 796
f 863 871 868
f 868 871 878
f 868 856 863
f 850 861 845
f 785 750 778
f 778 816 785
f 651 623 600
f 551 572 600
f 637 705 662
f 680 705 637
f 657 714 680
f 392 442 393
f 393 352 392
f 571 620 589
f 571 519 550
f 571 589 519
f 679 656 628
f 577 556 544
f 605 556 577
f 624 658 605
f 605 577 624
f 624 628 656
f 700 669 706
f 706 726 700
f 726 694 700
f 700 665 669
f 694 665 700
f 685 712 720
f 669 665 626
f 654 644 614
f 614 626 654
f 654 626 665
f 684 644 654
f 654 694 684
f 654 665 694
f 76 84 50
f 125 110 225
f 688 624 656
f 658 624 688
f 679 738 713
f 744 688 713
f 713 656 679
f 713 688 656
f 781 721 742
f 769 748 777
f 748 769 732
f 732 769 756
f 671 644 684
f 618 661 683
f 679 628 683
f 683 628 618
f 681 661 629
f 629 671 681
f 681 671 698
f 681 683 661
f 721 683 681
f 581 629 601
f 581 548 524
f 601 548 581
f 612 592 644
f 644 671 612
f 612 671 629
f 629 581 612
f 819 788 809
f 788 781 809
f 738 788 767
f 767 713 738
f 744 713 767
f 767 788 792
f 785 816 822
f 822 815 785
f 846 844 815
f 864 853 860
f 844 846 860
f 860 867 864
f 860 846 867
f 740 707 686
f 707 740 724
f 724 763 736
f 724 740 763
f 775 746 736
f 736 763 775
f 857 855 851
f 866 855 857
f 864 866 857
f 857 853 864
f 783 558 755
f 783 800 558
f 783 790 800
f 786 790 761
f 761 771 786
f 761 783 755
f 790 783 761
f 755 723 761
f 761 723 728
f 675 533 663
f 663 677 675
f 505 648 663
f 663 533 505
f 648 667 663
f 667 677 663
f 58 69 22
f 22 14 58
f 86 69 58
f 58 14 527
f 58 504 86
f 58 527 504
f 10 28 20
f 20 13 10
f 7 3 10
f 10 13 7
f 5 3 7
f 7 533 5
f 7 13 533
f 107 133 505
f 107 97 104
f 111 123 131
f 131 123 140
f 27 35 37
f 24 35 27
f 370 362 482
f 362 479 482
f 482 595 370
f 504 595 482
f 482 184 504
f 193 184 482
f 204 193 482
f 482 479 204
f 325 315 304
f 315 297 304
f 304 479 325
f 304 297 479
f 479 297 264
f 287 297 315
f 287 264 297
f 536 596 608
f 608 516 536
f 330 272 337
f 500 422 433
f 450 516 433
f 433 516 500
f 433 345 450
f 433 337 345
f 433 422 330
f 330 337 433
f 490 484 417
f 330 422 420
f 420 327 330
f 420 417 327
f 420 422 490
f 490 417 420
f 315 345 282
f 282 287 315
f 249 287 282
f 436 523 456
f 456 455 436
f 821 802 558
f 558 813 821
f 553 802 821
f 821 814 553
f 814 821 829
f 829 833 837
f 829 821 813
f 831 812 826
f 826 812 814
f 814 829 826
f 818 831 856
f 818 812 831
f 818 856 852
f 852 841 818
f 791 812 818
f 714 745 768
f 768 745 766
f 689 745 714
f 689 714 657
f 687 623 651
f 659 623 687
f 766 741 764
f 741 725 764
f 737 776 764
f 764 725 737
f 735 730 752
f 752 774 735
f 735 774 747
f 703 725 691
f 674 636 691
f 531 541 664
f 541 676 664
f 664 527 531
f 332 411 409
f 332 179 327
f 412 411 332
f 637 602 619
f 567 599 584
f 599 619 584
f 584 619 602
f 529 502 542
f 542 484 551
f 542 502 484
f 204 235 210
f 159 158 177
f 139 158 159
f 159 140 139
f 159 153 140
f 398 396 192
f 192 349 398
f 398 349 400
f 400 452 398
f 398 452 396
f 192 396 394
f 394 353 192
f 391 353 394
f 394 444 391
f 394 452 444
f 396 452 394
f 143 153 145
f 140 153 143
f 143 131 140
f 155 160 145
f 145 153 155
f 400 172 401
f 401 172 403
f 401 465 400
f 401 403 465
f 190 353 364
f 364 359 190
f 364 353 391
f 391 379 364
f 187 359 186
f 190 359 187
f 186 148 187
f 187 148 190
f 475 506 470
f 506 467 470
f 470 454 475
f 467 454 470
f 231 271 278
f 231 278 281
f 281 248 231
f 205 211 203
f 203 201 202
f 203 167 205
f 198 167 203
f 194 198 203
f 203 199 194
f 202 199 203
f 303 314 340
f 314 356 340
f 340 356 375
f 375 638 340
f 638 635 340
f 505 303 340
f 340 635 505
f 224 213 171
f 171 167 156
f 156 161 171
f 100 121 95
f 95 121 118
f 95 71 100
f 92 71 95
f 113 92 115
f 115 95 118
f 92 95 115
f 144 154 152
f 180 168 152
f 152 164 180
f 152 154 164
f 168 130 142
f 142 152 168
f 144 152 142
f 347 300 254
f 341 300 347
f 347 402 341
f 161 251 239
f 239 171 161
f 301 352 293
f 252 262 255
f 255 254 150
f 151 252 255
f 255 293 352
f 262 293 255
f 150 151 255
f 64 49 67
f 49 71 67
f 67 71 92
f 67 90 64
f 67 92 90
f 45 71 49
f 74 71 45
f 45 55 74
f 26 30 45
f 34 45 30
f 55 45 34
f 34 30 31
f 103 81 125
f 125 225 103
f 100 74 103
f 74 81 103
f 103 124 100
f 101 81 61
f 61 81 55
f 88 101 61
f 84 88 61
f 50 84 61
f 489 453 445
f 861 850 854
f 854 865 861
f 816 778 806
f 845 816 806
f 621 600 572
f 651 600 621
f 621 674 651
f 621 636 674
f 613 582 630
f 630 582 602
f 672 613 630
f 630 602 637
f 637 662 630
f 352 393 395
f 397 347 395
f 395 347 352
f 392 352 363
f 434 442 392
f 598 571 550
f 620 571 598
f 550 579 598
f 598 579 622
f 598 622 650
f 650 620 598
f 566 577 544
f 544 521 566
f 566 521 548
f 548 583 566
f 397 395 451
f 451 442 493
f 493 508 451
f 451 393 442
f 451 395 393
f 628 624 597
f 597 624 577
f 618 628 597
f 597 583 618
f 597 566 583
f 577 566 597
f 685 720 695
f 727 750 706
f 706 701 727
f 701 695 727
f 727 695 720
f 77 76 50
f 78 76 77
f 108 101 244
f 244 110 108
f 686 658 715
f 658 688 715
f 715 688 744
f 715 740 686
f 759 788 738
f 759 781 788
f 721 781 759
f 815 844 805
f 777 815 805
f 805 769 777
f 805 844 827
f 711 732 698
f 711 671 684
f 698 671 711
f 748 732 711
f 679 683 704
f 704 683 721
f 704 738 679
f 704 759 738
f 721 759 704
f 742 721 717
f 721 681 717
f 717 681 698
f 698 732 717
f 717 756 742
f 717 732 756
f 562 581 524
f 592 612 562
f 562 612 581
f 614 592 564
f 853 835 842
f 842 809 827
f 842 835 819
f 819 809 842
f 847 816 845
f 847 865 869
f 845 861 847
f 861 865 847
f 763 740 765
f 765 715 744
f 740 715 765
f 765 767 792
f 744 767 765
f 707 724 690
f 607 617 574
f 607 574 534
f 534 515 607
f 515 589 607
f 838 803 835
f 838 835 853
f 853 857 838
f 775 803 779
f 819 835 798
f 835 803 798
f 798 792 819
f 798 765 792
f 763 765 798
f 798 775 763
f 798 803 775
f 771 761 751
f 751 779 771
f 751 728 734
f 751 761 728
f 68 28 72
f 68 20 28
f 72 97 68
f 104 130 122
f 122 107 104
f 122 130 133
f 133 107 122
f 145 149 134
f 134 149 136
f 134 143 145
f 131 143 134
f 33 27 37
f 33 54 43
f 24 27 23
f 52 77 50
f 78 77 52
f 46 52 50
f 235 479 250
f 479 264 250
f 247 287 249
f 264 287 247
f 247 250 264
f 249 219 247
f 235 250 247
f 247 210 235
f 219 210 247
f 516 608 590
f 572 500 590
f 500 516 590
f 590 621 572
f 590 608 636
f 636 621 590
f 643 596 642
f 643 608 596
f 642 653 643
f 636 608 643
f 330 327 276
f 327 179 276
f 276 272 330
f 276 179 272
f 415 484 412
f 415 417 484
f 327 417 415
f 412 332 415
f 415 332 327
f 249 282 232
f 468 456 523
f 455 456 468
f 834 829 837
f 837 873 834
f 831 826 834
f 834 826 829
f 873 871 834
f 863 831 834
f 834 871 863
f 825 829 813
f 811 830 825
f 830 833 825
f 833 829 825
f 825 800 811
f 825 813 800
f 787 791 797
f 791 818 797
f 797 818 841
f 824 787 797
f 797 841 824
f 804 839 836
f 839 854 836
f 714 768 739
f 760 705 739
f 705 680 739
f 739 680 714
f 708 725 741
f 741 687 708
f 674 691 708
f 708 691 725
f 651 674 708
f 708 687 651
f 745 689 716
f 716 687 741
f 716 689 659
f 659 687 716
f 766 745 716
f 716 741 766
f 710 735 731
f 731 735 747
f 731 737 710
f 731 747 737
f 527 664 649
f 504 527 649
f 649 653 642
f 697 676 693
f 697 735 710
f 693 730 697
f 730 735 697
f 335 409 175
f 175 332 335
f 335 332 409
f 174 332 175
f 179 332 174
f 160 155 174
f 175 172 174
f 174 172 160
f 606 623 659
f 518 529 557
f 557 545 518
f 631 680 637
f 637 619 631
f 657 680 631
f 631 619 599
f 549 494 522
f 525 494 549
f 522 567 549
f 567 584 549
f 163 159 177
f 214 231 248
f 214 211 205
f 326 283 331
f 274 283 326
f 221 213 224
f 209 201 207
f 201 203 207
f 207 203 211
f 128 142 130
f 128 104 113
f 128 130 104
f 113 115 128
f 399 347 397
f 402 347 399
f 397 451 399
f 224 171 220
f 220 239 224
f 171 239 220
f 294 251 341
f 294 239 251
f 254 255 311
f 311 255 352
f 311 347 254
f 352 347 311
f 49 36 38
f 38 45 49
f 26 45 38
f 38 15 26
f 36 15 38
f 40 34 41
f 41 46 40
f 55 34 40
f 414 453 421
f 414 445 453
f 421 326 414
f 414 326 331
f 334 294 341
f 239 294 334
f 868 865 858
f 865 854 858
f 856 868 858
f 852 856 858
f 858 854 839
f 858 841 852
f 858 839 841
f 749 720 712
f 770 806 778
f 778 749 770
f 770 757 795
f 795 806 770
f 672 685 645
f 645 613 672
f 669 626 632
f 604 586 576
f 416 387 435
f 346 352 301
f 346 363 352
f 273 293 262
f 510 562 524
f 493 442 481
f 442 434 481
f 524 493 481
f 481 510 524
f 82 57 85
f 441 389 423
f 237 101 88
f 237 244 101
f 756 769 794
f 769 805 794
f 742 756 794
f 794 781 742
f 794 805 827
f 827 809 794
f 794 809 781
f 684 694 719
f 719 711 684
f 719 694 726
f 748 711 719
f 726 753 719
f 719 753 748
f 587 564 537
f 537 559 587
f 614 564 587
f 587 626 614
f 849 842 827
f 853 842 849
f 849 860 853
f 827 844 849
f 844 860 849
f 832 822 816
f 816 847 832
f 815 822 832
f 832 846 815
f 880 877 879
f 879 877 875
f 879 878 880
f 652 690 667
f 646 690 652
f 648 640 652
f 652 667 648
f 667 690 702
f 702 677 667
f 709 677 702
f 736 709 702
f 702 724 736
f 702 690 724
f 673 620 650
f 650 707 673
f 707 690 673
f 617 607 641
f 640 617 641
f 641 652 640
f 646 652 641
f 840 857 851
f 840 838 857
f 851 817 840
f 817 796 840
f 746 775 772
f 775 779 772
f 779 751 772
f 772 734 746
f 772 751 734
f 97 107 80
f 80 68 97
f 80 107 505
f 48 4 11
f 48 39 4
f 89 29 69
f 89 69 86
f 44 33 37
f 54 33 44
f 60 57 43
f 43 54 60
f 60 54 62
f 85 57 60
f 60 87 85
f 60 62 87
f 42 33 43
f 42 46 41
f 43 57 42
f 41 34 42
f 24 23 18
f 1 24 18
f 26 15 19
f 27 33 32
f 32 23 27
f 31 23 32
f 33 42 32
f 32 34 31
f 32 42 34
f 647 691 636
f 636 643 647
f 653 691 647
f 647 643 653
f 272 179 181
f 181 232 272
f 272 232 279
f 279 232 282
f 279 337 272
f 345 337 279
f 279 282 345
f 223 219 249
f 223 212 219
f 474 523 476
f 474 468 523
f 476 455 474
f 455 468 474
f 793 768 766
f 639 642 504
f 504 649 639
f 639 649 642
f 653 649 668
f 668 649 664
f 703 691 668
f 668 691 653
f 153 159 166
f 166 155 153
f 159 163 166
f 594 606 625
f 625 606 659
f 625 689 657
f 659 689 625
f 569 606 594
f 594 557 569
f 529 542 569
f 569 557 529
f 578 557 594
f 578 599 567
f 567 545 578
f 545 557 578
f 568 582 525
f 525 549 568
f 602 582 568
f 568 584 602
f 568 549 584
f 222 214 248
f 211 214 222
f 329 326 421
f 329 421 432
f 432 336 329
f 329 336 271
f 271 274 329
f 274 326 329
f 240 283 274
f 274 221 240
f 224 283 240
f 240 221 224
f 205 167 206
f 167 171 206
f 206 214 205
f 218 246 209
f 209 207 218
f 218 207 211
f 211 222 218
f 248 246 218
f 218 222 248
f 144 142 132
f 142 128 132
f 132 135 144
f 132 128 115
f 118 135 132
f 132 115 118
f 47 46 50
f 47 40 46
f 50 61 47
f 47 61 55
f 55 40 47
f 243 103 225
f 124 103 243
f 478 469 501
f 445 469 478
f 489 445 478
f 478 519 489
f 478 501 519
f 408 469 445
f 331 334 408
f 402 399 464
f 464 399 451
f 290 334 331
f 239 334 290
f 331 283 290
f 224 239 290
f 290 283 224
f 722 662 705
f 722 705 760
f 733 718 757
f 733 749 712
f 757 770 733
f 733 770 749
f 699 712 672
f 699 733 712
f 718 733 699
f 754 727 720
f 720 749 754
f 754 749 778
f 754 778 750
f 750 727 754
f 685 695 655
f 655 645 685
f 615 645 655
f 613 645 593
f 593 645 615
f 511 483 525
f 669 632 660
f 706 669 660
f 379 387 369
f 387 416 369
f 369 364 379
f 363 346 338
f 258 262 252
f 258 273 262
f 258 252 241
f 241 124 258
f 124 243 258
f 289 273 258
f 386 418 434
f 392 363 386
f 386 434 392
f 438 418 377
f 507 559 537
f 233 88 84
f 233 237 88
f 423 389 372
f 372 384 423
f 846 832 848
f 848 832 847
f 646 641 634
f 634 641 607
f 634 690 646
f 634 673 690
f 620 673 634
f 589 620 634
f 634 607 589
f 803 838 823
f 838 840 823
f 823 796 786
f 823 840 796
f 20 68 51
f 68 80 51
f 505 533 51
f 51 80 505
f 182 285 169
f 65 48 11
f 11 29 65
f 29 89 65
f 86 98 116
f 116 89 86
f 116 98 111
f 111 131 116
f 53 42 57
f 46 42 53
f 52 46 53
f 57 82 53
f 78 52 53
f 53 82 78
f 26 19 21
f 21 31 26
f 21 23 31
f 21 18 23
f 212 223 215
f 249 232 215
f 215 223 249
f 204 210 176
f 176 196 204
f 193 196 176
f 176 184 193
f 766 764 799
f 799 793 766
f 799 776 804
f 799 764 776
f 804 836 799
f 760 739 789
f 789 739 768
f 768 793 789
f 782 810 795
f 782 722 760
f 760 789 782
f 782 789 810
f 843 854 850
f 843 836 854
f 795 810 828
f 845 806 828
f 828 806 795
f 828 850 845
f 828 843 850
f 810 843 828
f 676 697 678
f 678 664 676
f 678 668 664
f 678 697 710
f 710 703 678
f 703 668 678
f 170 174 155
f 155 166 170
f 166 176 170
f 179 174 170
f 594 625 616
f 599 578 616
f 616 578 594
f 616 631 599
f 657 631 616
f 616 625 657
f 606 569 580
f 580 600 623
f 623 606 580
f 551 600 580
f 580 542 551
f 580 569 542
f 213 221 208
f 208 171 213
f 208 206 171
f 236 221 274
f 236 274 271
f 469 408 406
f 406 334 341
f 406 408 334
f 445 414 410
f 410 408 445
f 410 414 331
f 331 408 410
f 487 451 508
f 487 464 451
f 662 722 682
f 682 722 718
f 718 699 682
f 682 630 662
f 672 630 682
f 682 699 672
f 615 655 627
f 563 593 540
f 525 582 563
f 563 582 613
f 613 593 563
f 563 511 525
f 540 511 563
f 483 511 461
f 435 483 461
f 461 416 435
f 540 593 565
f 565 593 615
f 670 701 706
f 706 660 670
f 586 604 611
f 603 587 559
f 626 587 603
f 603 632 626
f 603 610 632
f 378 369 416
f 333 359 306
f 186 333 306
f 306 308 285
f 306 182 186
f 306 285 182
f 85 87 234
f 234 82 85
f 377 418 368
f 418 386 368
f 368 338 377
f 363 338 368
f 368 386 363
f 382 438 377
f 382 372 389
f 389 441 427
f 427 382 389
f 438 382 427
f 418 438 460
f 510 481 460
f 434 418 460
f 460 481 434
f 562 510 539
f 592 562 539
f 539 564 592
f 491 507 537
f 360 372 354
f 384 372 360
f 354 312 360
f 360 312 317
f 289 284 307
f 265 284 289
f 289 258 265
f 265 258 243
f 610 603 585
f 859 847 869
f 859 848 847
f 859 875 867
f 859 879 875
f 867 846 859
f 846 848 859
f 807 779 803
f 803 823 807
f 771 779 807
f 786 771 807
f 807 823 786
f 13 20 25
f 20 51 25
f 533 13 25
f 25 51 533
f 66 65 89
f 182 169 126
f 89 116 114
f 114 116 131
f 62 54 63
f 63 73 75
f 54 44 63
f 93 63 75
f 87 62 93
f 62 63 93
f 18 21 17
f 1 18 17
f 17 21 19
f 232 181 178
f 178 215 232
f 212 215 178
f 219 212 178
f 178 170 176
f 178 210 219
f 178 176 210
f 178 181 179
f 179 170 178
f 184 176 173
f 177 184 173
f 173 163 177
f 173 166 163
f 173 176 166
f 722 782 743
f 757 718 743
f 718 722 743
f 795 757 743
f 743 782 795
f 810 789 820
f 820 843 810
f 836 843 820
f 820 789 793
f 820 799 836
f 793 799 820
f 206 208 217
f 217 208 221
f 221 236 217
f 231 214 217
f 214 206 217
f 271 231 217
f 217 236 271
f 404 464 469
f 469 406 404
f 402 464 404
f 341 402 404
f 404 406 341
f 517 508 544
f 517 487 508
f 544 556 517
f 517 556 528
f 538 565 588
f 588 565 615
f 615 627 588
f 588 627 604
f 374 351 383
f 666 627 655
f 666 670 627
f 666 655 695
f 666 695 701
f 701 670 666
f 609 660 632
f 632 610 609
f 604 627 633
f 633 611 604
f 627 670 633
f 633 670 660
f 660 609 633
f 633 609 611
f 339 306 359
f 359 364 339
f 364 369 339
f 369 378 339
f 308 306 339
f 78 82 227
f 82 234 227
f 459 427 441
f 510 460 485
f 485 460 438
f 485 539 510
f 497 471 424
f 424 471 429
f 507 491 462
f 462 441 423
f 462 491 441
f 256 225 110
f 110 244 256
f 256 243 225
f 256 265 243
f 260 291 317
f 237 233 260
f 289 307 305
f 305 307 338
f 305 273 289
f 301 293 305
f 293 273 305
f 305 346 301
f 305 338 346
f 377 338 342
f 338 307 342
f 342 382 377
f 570 585 554
f 554 520 570
f 554 585 575
f 575 603 559
f 575 585 603
f 559 507 526
f 526 535 559
f 507 462 526
f 526 462 471
f 526 471 497
f 497 535 526
f 876 859 869
f 879 859 876
f 878 879 876
f 869 865 876
f 876 868 878
f 876 865 868
f 70 94 99
f 89 114 91
f 91 114 94
f 91 66 89
f 91 94 70
f 70 66 91
f 129 136 182
f 182 126 129
f 56 44 37
f 56 37 39
f 39 48 56
f 48 65 56
f 65 66 56
f 146 141 106
f 266 141 146
f 277 141 266
f 285 308 277
f 277 266 285
f 105 93 75
f 259 227 234
f 16 19 15
f 16 17 19
f 16 15 1
f 1 17 16
f 487 517 495
f 469 464 495
f 464 487 495
f 501 469 495
f 528 501 495
f 495 517 528
f 461 439 431
f 383 378 431
f 540 565 513
f 513 565 538
f 576 532 560
f 538 588 560
f 560 604 576
f 560 588 604
f 538 560 514
f 514 560 532
f 308 339 343
f 343 339 378
f 351 308 343
f 383 351 343
f 343 378 383
f 229 76 78
f 78 227 229
f 438 427 448
f 427 459 448
f 448 485 438
f 459 485 448
f 539 485 512
f 537 564 512
f 564 539 512
f 512 485 459
f 512 491 537
f 317 291 320
f 291 322 320
f 384 360 365
f 429 384 365
f 365 371 429
f 365 360 317
f 317 320 365
f 365 320 371
f 376 320 322
f 371 320 376
f 322 328 376
f 348 424 376
f 376 328 348
f 429 371 380
f 380 424 429
f 371 376 380
f 380 376 424
f 429 471 446
f 471 462 446
f 446 384 429
f 423 384 446
f 446 462 423
f 268 256 244
f 317 312 268
f 244 237 268
f 237 260 268
f 268 260 317
f 280 307 284
f 284 265 280
f 265 256 280
f 372 382 350
f 382 342 350
f 354 372 350
f 350 342 307
f 591 570 586
f 585 570 591
f 586 611 591
f 611 609 591
f 610 585 591
f 591 609 610
f 555 532 576
f 576 586 555
f 543 535 497
f 559 535 543
f 543 575 559
f 120 129 126
f 120 99 94
f 136 129 120
f 59 63 44
f 44 56 59
f 70 73 59
f 73 63 59
f 59 66 70
f 59 56 66
f 165 146 106
f 266 146 165
f 165 169 285
f 285 266 165
f 313 361 318
f 93 105 238
f 238 234 87
f 87 93 238
f 238 259 234
f 292 259 238
f 416 461 419
f 461 431 419
f 419 378 416
f 419 431 378
f 390 374 383
f 492 513 538
f 463 443 492
f 457 492 443
f 513 492 457
f 486 439 461
f 486 461 511
f 486 457 439
f 513 457 486
f 486 511 540
f 540 513 486
f 374 390 425
f 425 390 443
f 425 443 463
f 261 260 233
f 491 512 466
f 466 512 459
f 441 491 466
f 466 459 441
f 309 312 354
f 354 350 309
f 309 268 312
f 307 280 309
f 309 350 307
f 256 268 309
f 309 280 256
f 561 570 520
f 520 555 561
f 586 570 561
f 561 555 586
f 554 575 552
f 575 543 552
f 552 543 497
f 497 520 552
f 552 520 554
f 119 120 126
f 119 165 106
f 106 99 119
f 99 120 119
f 119 126 169
f 169 165 119
f 117 134 136
f 136 120 117
f 131 134 117
f 117 114 131
f 94 114 117
f 117 120 94
f 96 73 70
f 70 99 96
f 257 112 127
f 127 277 257
f 141 277 127
f 112 96 127
f 310 313 277
f 310 308 351
f 310 277 308
f 374 361 355
f 361 313 355
f 351 374 355
f 355 310 351
f 313 310 355
f 245 238 105
f 105 109 245
f 245 112 257
f 245 109 112
f 257 277 245
f 428 390 383
f 383 431 428
f 428 431 439
f 439 457 428
f 443 390 428
f 428 457 443
f 503 514 463
f 463 492 503
f 538 514 503
f 503 492 538
f 498 555 520
f 532 555 498
f 385 361 374
f 374 425 385
f 76 228 226
f 84 76 226
f 226 233 84
f 226 261 233
f 228 261 226
f 76 229 230
f 230 228 76
f 296 259 292
f 291 260 295
f 260 261 295
f 295 322 291
f 295 328 322
f 73 96 83
f 83 96 112
f 112 109 83
f 102 99 106
f 102 96 99
f 106 141 102
f 141 127 102
f 102 127 96
f 238 245 267
f 267 318 292
f 292 238 267
f 267 313 318
f 277 313 267
f 267 245 277
f 367 424 348
f 473 426 430
f 498 426 473
f 532 498 473
f 463 514 473
f 473 514 532
f 497 424 458
f 458 426 498
f 424 367 458
f 458 367 426
f 458 520 497
f 458 498 520
f 430 373 366
f 366 385 430
f 361 385 366
f 318 361 366
f 447 425 463
f 447 385 425
f 430 385 447
f 463 473 447
f 447 473 430
f 270 261 228
f 228 230 270
f 292 318 321
f 318 366 321
f 321 366 373
f 79 109 105
f 79 83 109
f 79 105 75
f 75 73 79
f 73 83 79
f 299 296 319
f 269 230 229
f 269 270 230
f 328 295 316
f 348 328 316
f 323 319 296
f 323 296 292
f 292 321 323
f 263 229 227
f 263 269 229
f 227 259 263
f 259 296 263
f 263 296 299
f 275 263 299
f 269 263 275
f 270 269 275
f 298 295 261
f 298 316 295
f 261 270 298
f 270 275 298
f 298 275 316
f 348 316 324
f 324 367 348
f 324 319 367
f 316 275 324
f 299 319 324
f 324 275 299
f 430 426 381
f 381 373 430
f 367 319 358
f 319 323 358
f 426 367 358
f 358 381 426
f 358 323 321
f 358 321 373
f 373 381 358
