v -0.02085179836 -0.006929092575 0.01951253228
v -0.02082316391 -0.004416691139 0.02047445439
v -0.02079723403 -0.006764948368 0.0190352723
v -0.02079238743 -0.004248968791 0.01997208223
v -0.0207784269 -0.007091988344 0.01998849586
v -0.0207365863 -0.002988687484 0.02090111561
v -0.02071915939 -0.009550755844 0.0184580069
v -0.02071730979 -0.003726914292 0.02266721614
v -0.02071153373 -0.002864134265 0.02038893662
v -0.02070516162 -0.002655167365 0.02092413791
v -0.02067413926 -0.00240923604 0.0206190031
v -0.02065922506 -0.009743137285 0.0189205762
v -0.02065367997 -0.00934730377 0.01800175942
v -0.0206232965 -0.004092521966 0.01949542575
v -0.0206173677 -0.006610198878 0.0185876675
v -0.02054996416 -0.002758537885 0.01989899017
v -0.02053678222 -0.00195902423 0.02031865716
v -0.02050709166 -0.01088191941 0.01781464554
v -0.02047607675 -0.009911144152 0.01935809292
v -0.02046609856 -0.009145722724 0.01758104004
v -0.02044501901 -0.01110411808 0.01826764457
v -0.02044343576 -0.01063910592 0.01737345383
v -0.02037506923 -0.002181665273 0.02121557109
v -0.02025961876 -0.01129002683 0.01870132051
v -0.02025726996 -0.01039127819 0.01697277278
v -0.02023423091 -0.001198392245 0.02003731206
v -0.02018094249 -0.01004441269 0.01974355802
v -0.02013529837 -0.01218258683 0.01704953797
v -0.02010240965 -0.002724868245 0.02299991995
v -0.02008213475 -0.01188889518 0.01663173176
v -0.02006345801 -0.01244279835 0.01748720184
v -0.01996242814 -0.01142799295 0.0190885216
v -0.01990655437 -0.01158096641 0.01626165025
v -0.01986980997 -0.01265059318 0.01791406423
v -0.01979586668 -0.01013613027 0.02005530521
v -0.01974652894 -0.0001047447586 0.01979230717
v -0.01957590133 -0.01151122618 0.01940694265
v -0.01957583427 -0.001802819083 0.02317490056
v -0.01956667192 -0.01279264037 0.01830281317
v -0.01955729909 -0.01337458286 0.01614924707
v -0.01952624694 -0.01302670036 0.01576605625
v -0.01946759969 -0.0136747472 0.01656346396
v -0.01937561482 -0.01265425794 0.01544007193
v -0.01926178113 -0.01390479133 0.01697926596
v -0.0192022603 0.001105532749 0.01956845447
v -0.01917727478 -0.01286237035 0.0186301861
v -0.01910427026 -0.000940549653 0.02327618003
v -0.01895319484 -0.01404966135 0.01736952178
v -0.01876467094 -0.0139842229 0.01479728054
v -0.0187633466 -0.01437895931 0.01513736043
v -0.01872549951 -0.01285361405 0.01887317561
v -0.01865301281 -0.01355549321 0.01452513691
v -0.01864999346 -0.01471323427 0.01552176848
v -0.01856562868 -0.01410314441 0.01770995557
v -0.01843194291 -0.01351544354 0.01841303147
v -0.01843113638 -0.01496177912 0.01592311263
v -0.018381726 0.0004108469584 0.0233813785
v -0.01812349446 -0.01405955106 0.01797646284
v -0.01812112331 -0.01510816067 0.01631497033
v -0.01809844561 0.0035132661 0.01915103011
v -0.01785102487 -0.01470799837 0.0138022285
v -0.01781632937 -0.01513198856 0.01410249993
v -0.01778149791 -0.01424370334 0.01357930712
v -0.0177436471 -0.01514658425 0.01667218097
v -0.01768053882 -0.01548732072 0.0144591853
v -0.01745657809 -0.01493147202 0.01712827571
v -0.01745193824 -0.0157471057 0.01484711096
v -0.01734331995 0.005093254615 0.01897958666
v -0.017145494 -0.01589420252 0.01524080895
v -0.01707283035 -0.01531062834 0.016680995
v -0.01700021327 0.005963263568 0.01860271022
v -0.01687532291 0.003240565537 0.02357159741
v -0.016856445 -0.01523310971 0.01284159906
v -0.01679924689 -0.01566862129 0.013116505
v -0.01678417809 -0.01592318341 0.01561451517
v -0.01665052213 -0.01603185758 0.01345597953
v -0.01656256989 0.007028073072 0.01812040247
v -0.01641951874 -0.01629554667 0.01383644342
v -0.01629720069 -0.01588995382 0.01584473439
v -0.01627571136 0.007648208179 0.01779145375
v -0.01623255387 0.004486923572 0.02359347418
v -0.01612124033 -0.01644245349 0.01423317008
v -0.01603914425 0.008100816049 0.01751533896
v -0.0157775525 -0.01646740921 0.01462007873
v -0.01563148946 0.005737194791 0.02346999571
v -0.01544697769 0.008247270249 0.0194515828
v -0.01541074272 -0.01636596583 0.01497100666
v -0.01538232435 0.006275665481 0.02337619103
v -0.01536955498 0.009208204225 0.01672079973
v -0.01534346305 -0.01427172776 0.01834626682
v -0.01524983346 0.006563011557 0.02331711724
v -0.014950132 0.0072189942 0.02315735631
v -0.01474764943 0.007670607418 0.02302864194
v -0.01471424382 -0.01596774161 0.01104420237
v -0.01465829369 -0.0166732315 0.01428794675
v -0.01463297568 -0.01640741527 0.01129661128
v -0.01447476912 -0.01677159593 0.01162326708
v -0.0144265024 0.01056387741 0.01559476182
v -0.01439176872 0.008443886414 0.02279224247
v -0.01424959488 -0.01703337207 0.0120021496
v -0.01419222914 -0.01563773304 0.01632316411
v -0.01397182792 -0.01717593521 0.01240905747
v -0.01386691816 0.009470355697 0.02240025997
v -0.0136887636 0.01146937069 0.01470868196
v -0.01366107725 -0.01719465293 0.0128172636
v -0.01337439567 0.01033098809 0.02193332464
v -0.01333726291 -0.01708561368 0.01319988258
v -0.01303803083 -0.01679366082 0.01382605545
v -0.01294761803 0.01102832053 0.0214413777
v -0.01284868643 0.01232732926 0.01369840559
v -0.01279310323 0.0112735061 0.0212466903
v -0.01244202815 -0.01645673998 0.009428342804
v -0.01234839391 -0.01689355262 0.009676632471
v -0.01233864948 -0.01449713297 0.01819486357
v -0.0123284664 -0.01731987298 0.0124493707
v -0.01218890212 -0.01725239307 0.01000497583
v -0.01210988406 -0.01325563993 0.01997707784
v -0.01210726611 0.01291617099 0.01282486971
v -0.01198046561 0.0124835195 0.02017239667
v -0.01197374891 -0.01750689745 0.01039157994
v -0.01171654556 -0.0176408682 0.0108119566
v -0.01171568967 0.01316670887 0.01237335987
v -0.01153514348 0.01307694707 0.01960078813
v -0.01143497042 -0.01765034348 0.01123844087
v -0.01114694402 -0.017532086 0.0116431918
v -0.01108453423 -0.01566203311 0.01591865346
v -0.01093447488 0.01379738655 0.01887760125
v -0.01082583144 0.01360988896 0.01134732924
v -0.01058265567 0.01426090021 0.01589078829
v -0.01014322136 -0.01676915027 0.01323070377
v -0.01011769753 0.01385848038 0.01055287942
v -0.01006851811 -0.01677987725 0.007975779474
v -0.009962321259 -0.01721306145 0.008224031888
v -0.009913034737 0.01482584048 0.01775699481
v -0.009900411591 0.01391995884 0.01031387225
v -0.009800484404 -0.01756569371 0.008556878194
v -0.009627622552 -0.01773304306 0.01070130244
v -0.009593500756 -0.01781189069 0.008952351287
v -0.009508248419 0.01498061977 0.01452438906
v -0.009487722069 0.01518847235 0.01732448116
v -0.009354437701 -0.0179360155 0.009385467507
v -0.009259733371 0.0140686417 0.009622485377
v -0.009209951386 0.0002836274216 0.03171845526
v -0.009188577533 -0.01445781346 0.01787162758
v -0.009145109914 0.01545568742 0.01698825881
v -0.009099413641 -0.01793478243 0.009827673435
v -0.008930862881 0.01561218034 0.01678306796
v -0.008817923255 0.01414750423 0.009156463668
v -0.008812456392 -0.004448969383 0.03138671443
v -0.00867319759 -0.004495903384 0.03146495298
v -0.008515389636 -0.004497159272 0.0315176025
v -0.008386181667 -0.0044663148 0.03153609857
v -0.00838102866 0.002333468059 0.03172684461
v -0.00812458992 -0.01554196142 0.01539692841
v -0.008028838784 0.01557251345 0.01271343604
v -0.008024447598 0.003420995781 0.03172637895
v -0.007886521518 0.01626947522 0.01583114639
v -0.007865755819 -0.01800589263 0.009154941887
v -0.00785184931 -0.01786559634 0.009705795906
v -0.007659279741 -0.01668684557 0.01258302294
v -0.007538232952 0.00445704395 0.03173458949
v -0.007385693025 -0.01725763828 0.006859947927
v -0.007312458474 -0.01787886024 0.009413886815
v -0.007198289037 -0.01760238968 0.007179118693
v -0.007167266682 0.01434010733 0.007497129962
v -0.006984716281 -0.0178422071 0.007568118162
v -0.006929645315 0.005426169839 0.03175134212
v -0.006824474316 -0.01786802523 0.009148195386
v -0.006758206058 -0.01796218194 0.008002879098
v -0.006753031164 1.275788964e-05 -0.00269795768
v -0.006667262409 0.01684847288 0.01479662396
v -0.00662950892 -0.002417471493 -0.002642637119
v -0.006533188745 -0.01795930602 0.008455100469
v -0.006400568876 -0.003388317069 -0.002609942108
v -0.006332499441 0.0158850532 0.01077866554
v -0.006255894899 0.002395376563 -0.002715721726
v -0.00620775437 0.00631392654 0.03177638352
v -0.006070414092 -0.004331474192 -0.00257181935
v -0.005969502963 0.01442889869 0.006375898607
v -0.005906662438 -0.003593140049 0.03166512027
v -0.005841993727 -0.0166216772 0.01192926802
v -0.005644001067 -0.00523278024 -0.002528849989
v -0.005579340272 -0.01537050586 0.01480169222
v -0.005391040817 0.009364221245 0.02938761935
v -0.005383322947 0.00710707996 0.03180934489
v -0.005367067643 0.01729249954 0.01373265311
v -0.005170736462 0.00457398314 -0.002694761381
v -0.005136376247 0.01448216103 0.005636918359
v -0.004884557799 -0.017040262 0.005718686618
v -0.004828896374 0.01715136133 0.01424208097
v -0.004809470382 0.009708927013 0.02943061665
v -0.004701090045 -0.01737631857 0.006045676768
v -0.004499149974 -0.01760759018 0.006443034858
v -0.004468637053 0.007793801371 0.03184973821
v -0.004273537546 0.01755619422 0.01283639483
v -0.004242106806 0.01453926973 0.004880527966
v -0.00422571972 -0.007207051385 -0.002406157553
v -0.004127897322 0.01669528708 0.01554801501
v -0.004008247051 0.01760735177 0.01261521876
v -0.003948964179 0.01761814021 0.0125655178
v -0.00389260333 0.01759836636 0.01265594549
v -0.003715737024 -0.01524065528 0.01417664811
v -0.003568784334 0.006405563559 -0.002636451274
v -0.003566714004 -0.008277883753 0.02730161697
v -0.003477341495 0.008363856003 0.03189694881
v -0.00308957207 0.01724207588 0.01403734088
v -0.002955890959 0.01071983203 0.02923464775
v -0.002916220343 0.0105611505 0.02954611555
v -0.002679506084 0.01463405136 0.003644309007
v -0.002624060959 0.01780042052 0.01141935401
v -0.002424202627 0.008808746934 0.03195028752
v -0.002387976972 0.01679184474 0.01539001614
v -0.002372353571 -0.0167679619 0.004734172486
v -0.002352677286 -0.008755000308 -0.00226506032
v -0.002280672081 0.01762854494 0.01233161613
v -0.002144157654 0.01466009859 0.003244210035
v -0.001785738161 -0.008680594154 0.02695881203
v -0.00165933487 0.01786452904 0.01052289456
v -0.001555196242 0.007769884542 -0.002544624731
v -0.00148070103 0.01726674102 0.01376363821
v -0.001387911849 0.01787264459 0.01025906391
v -0.00132493407 0.009121838957 0.03200895339
v -0.0012665377 -0.008747288026 0.02689185366
v -0.001242516562 -0.00864753034 0.02699290216
v -0.0008908255841 0.01125415973 0.02932512015
v -0.0008732441347 0.01108924113 0.02963490784
v -0.0008291871636 0.01759275608 0.01192241535
v -0.0007852234994 0.01681338064 0.01517257839
v -0.0005877594231 0.01617023163 0.005401773378
v -0.0004201104748 0.01781055145 0.009876855649
v -0.0003548713285 0.01468779519 0.001994211227
v -0.0002352338051 0.01117986813 0.0296559073
v -0.000195911678 0.009298464283 0.03207206726
v -0.0001947515702 0.01629397273 0.01653984189
v -0.0001478316844 -0.009775012732 -0.002114819363
v -7.783593173e-05 0.01785432361 0.008914461359
v -3.975214349e-05 0.01721388474 0.01341492869
v 0.000137369585 -0.01670293696 0.003965912387
v 0.0002105467429 -0.01692318171 0.004212645814
v 0.0002511772618 -0.01701765135 0.00435045734
v 0.0002871063189 0.01783225499 0.0085203778
v 0.0003310335742 0.01465373486 0.001551087946
v 0.0004554418556 0.01749062538 0.01144057699
v 0.0005929351319 -0.008857898414 0.02661940083
v 0.0005933982902 -0.008681887761 0.02684742585
v 0.0005947838654 -0.008786757477 0.0267464444
v 0.0006427051267 0.01674677059 0.01489108801
v 0.00073046732 0.0176900737 0.009281190112
v 0.0007378424052 0.008577391505 -0.002425303683
v 0.0008366896072 0.01460113563 0.001239353791
v 0.0009460224537 0.009335993789 0.0321386978
v 0.0009915094124 0.01125684753 0.02969178185
v 0.0009981918847 0.01142506208 0.02938489616
v 0.001218301011 0.016217364 0.01632893831
v 0.001228443463 0.01708315685 0.01300251111
v 0.001340408693 0.01772286557 0.007347515784
v 0.001392564387 0.01449317392 0.0009169299155
v 0.001588103944 0.01732830517 0.01091194712
v 0.00168848224 0.01565710269 0.01770308428
v 0.001745163347 0.01752423495 0.008661352098
v 0.001892658183 0.01659145951 0.01455579512
v 0.001922414405 0.01762840338 0.006688755006
v 0.001927354606 0.01429410838 0.000621413812
v 0.002083851956 0.009233863093 0.03220784292
v 0.00224408065 -0.01020012889 -0.001965304837
v 0.002341750078 0.01688195206 0.01254973188
v 0.00243193307 -0.008405493572 0.02682374045
v 0.002448927378 0.01604253612 0.01607452333
v 0.002457291586 -0.008509504609 0.02672326565
v 0.002475306857 -0.008580205031 0.02659581229
v 0.002528881188 0.01116086636 0.02974648401
v 0.002573314123 0.01748793386 0.005957550369
v 0.002584108617 0.01711207442 0.01036264747
v 0.00263638352 0.01731766015 0.008045617491
v 0.002836656524 0.01111365575 0.02976100519
v 0.002879306907 0.01127878856 0.02945946157
v 0.002899511019 0.01546884608 0.01752853766
v 0.002985480707 0.01635564119 0.01418731734
v 0.003117068671 0.01733788848 0.005361156538
v 0.003129065502 -0.01634979621 0.003029828891
v 0.003177430946 0.01510497835 0.001763718203
v 0.003197576152 -0.01673633978 0.003349370323
v 0.003200612031 0.008993598633 0.03227847815
v 0.003241598839 0.01490244083 0.01889115945
v 0.00327226473 0.01102911029 0.02978502214
v 0.003275830531 -0.01702966355 0.003755101934
v 0.003318486735 0.01661781408 0.01208019629
v 0.003325726604 0.01119182911 0.0294852443
v 0.003358583897 -0.0172084365 0.004220521078
v 0.003440712113 -0.01726154052 0.004716714844
v 0.003458716674 0.01684828848 0.009818734601
v 0.003505555214 0.01720880903 0.00495294109
v 0.003516935976 0.01359092072 -0.0001833755523
v 0.003520432161 0.01577839814 0.01579454914
v 0.003765341127 -0.008016634732 0.02686934918
v 0.003805867396 -0.008116961457 0.0267694965
v 0.003836329328 -0.00818467699 0.02664234862
v 0.003942518961 0.01604769006 0.01380646415
v 0.003949181642 0.01518474799 0.01733617298
v 0.004081220832 0.01682227664 0.00692442432
v 0.004155773669 0.01694049127 0.004343576729
v 0.004176903982 0.01629839465 0.01161743142
v 0.004270290025 0.01460639853 0.01878104545
v 0.004270425532 0.01688473858 0.004253338091
v 0.004279649816 0.008618778549 0.03234954923
v 0.004376687109 0.01319450233 -0.0005734600127
v 0.004405832384 0.006494266912 0.03239898384
v 0.004456612282 0.01543405745 0.01550712995
v 0.00447528949 0.01407575142 0.02010079287
v 0.004515338689 0.01312972978 -0.0006334390491
v 0.00466605043 -0.0100024445 -0.001826323569
v 0.004757757299 -0.01627131179 0.002854378894
v 0.004784909543 0.01655009575 0.005360757932
v 0.004785012454 0.01567609049 0.01343397237
v 0.004830226768 -0.01664285734 0.003178237006
v 0.004848531447 0.01053240243 0.02991695702
v 0.004862627946 0.01481494214 0.01714189351
v 0.004882430658 0.01623195969 0.008831264451
v 0.004882702604 0.01658917405 0.00383624807
v 0.004900178406 -0.01692298427 0.003584843129
v 0.00494385045 0.01067923382 0.02962480113
v 0.005014728755 -0.01713960618 0.004541248083
v 0.005112262443 0.0163111072 0.006108080968
v 0.005162368994 0.01422031596 0.01867483556
v 0.005179608241 0.01038572937 0.02995568141
v 0.005269234069 0.01372370962 0.02007327229
v 0.005281201098 0.01501872484 0.01523030177
v 0.005304885097 0.008114993572 0.03241999075
v 0.005311640445 0.01275214646 -0.0009604394436
v 0.005457023159 -0.01683006808 0.005457837135
v 0.005500030238 0.01405932754 0.0006569381803
v 0.005582853686 0.01556110196 0.01078036427
v 0.005620122887 -0.007188505959 0.0270187743
v 0.005664945114 0.01436961163 0.01696153916
v 0.005681534763 -0.007277902216 0.02692036331
v 0.005689992104 0.01618394628 0.00336080417
v 0.005729066674 -0.007336574607 0.02679483593
v 0.005831952207 0.01596844383 0.005286602303
v 0.005943809636 0.01375495084 0.01858687401
v 0.006116315257 0.01320282742 0.02006286569
v 0.006176635623 0.01482026745 0.01276510581
v 0.006307648495 0.01585046947 0.003003328107
v 0.006338284817 0.01571443118 0.00475253351
v 0.006346715614 0.009723665193 0.03013415635
v 0.006379630417 0.01386155095 0.01680645719
v 0.006386538036 -0.01607110165 0.002785837278
v 0.006483457051 0.009842968546 0.02985007688
v 0.006532236468 -0.01668878831 0.003513997421
v 0.006603543647 -0.01689519174 0.00445317477
v 0.006625645328 0.01567712054 0.002819527872
v 0.006634721532 0.01279652212 0.02008039318
v 0.006642292254 0.01321938355 0.01853029989
v 0.006659419276 0.01405249443 0.01474722661
v 0.006750220433 0.0119907856 -0.001481244341
v 0.006924153771 0.01539865322 0.004210283048
v 0.006959090941 -0.009194939397 -0.001707004383
v 0.006974676624 -0.01657121629 0.005371175706
v 0.007093078457 -0.006216688082 0.02724568173
v 0.007135878317 0.01501076855 0.006649705581
v 0.007172383368 -0.006290488411 0.02714908123
v 0.007234489545 -0.006335897837 0.02702600509
v 0.007288603112 0.01261948608 0.01851682551
v 0.007346720435 0.01315043122 -4.409812391e-05
v 0.007361783646 0.0116267642 -0.001663565636
v 0.007432871033 0.008851956576 0.03037634119
v 0.007451300509 0.01201432105 0.02018486336
v 0.00765067758 0.008638512343 0.03043641523
v 0.007666284218 -0.01641071215 0.005356006324
v 0.00772059802 0.01468283217 0.006090979092
v 0.007821274921 0.00872177165 0.03015867621
v 0.007923826575 0.008726730011 0.02983831242
v 0.00797393918 -0.01573695801 0.002812060528
v 0.00797824841 0.01123074163 -0.001823753119
v 0.008029639721 -0.005382183939 0.0274753049
v 0.008051564917 0.01488275081 0.002091132104
v 0.008119973354 -0.005441710819 0.02738023177
v 0.008126653731 -0.01631692052 0.003532452509
v 0.008166221902 -0.016516909 0.004445854574
v 0.008185617626 0.006409575231 0.03262364864
v 0.008191082627 -0.00547469873 0.02725946158
v 0.008354789577 -0.01622319408 0.005354015157
v 0.008687282912 0.01451538876 0.001828825101
v 0.008963836357 0.00731670158 0.03053313121
v 0.00897267554 -0.007830617018 -0.001615174115
v 0.009082826786 0.01212809887 -0.0004942491651
v 0.00911663752 0.0104159601 -0.002049911767
v 0.009241791442 0.01418081019 0.001632386819
v 0.009241968393 -0.00394882774 0.02795100957
v 0.00927656237 0.01411899459 0.002045376226
v 0.009344052523 -0.003984493669 0.02785872854
v 0.009405034594 -0.01588241197 0.005373273976
v 0.009424596094 -0.003995956853 0.02774225175
v 0.009503229521 -0.01527193934 0.002906800248
v 0.009667309932 -0.01581295952 0.003615766764
v 0.009689359926 -0.01600830071 0.004499676637
v 0.009815350175 0.005797057413 0.03194831684
v 0.009844792075 0.009829913266 -0.002139447257
v 0.009997555986 0.008584220894 0.02314483374
v 0.01000788994 -0.002795178443 0.02840246446
v 0.01002702489 0.00539196562 0.03179972991
v 0.01006769761 0.01335286163 0.003866164945
v 0.01020659599 -0.002594715217 0.02841287293
v 0.01024021767 0.009485014714 -0.002167603001
v 0.01027891599 0.008154269308 0.02363830805
v 0.0102871228 -0.002551331883 0.02834064327
v 0.01031699777 0.00475249486 0.031694334
v 0.01036716811 -0.002386472188 0.02841910161
v 0.0103712976 0.01343764644 0.001312159002
v 0.0104241427 0.007930131629 0.02387719974
v 0.01043758634 -0.001884087571 0.02885542251
v 0.01044083014 -0.01547886617 0.005413179286
v 0.01054510288 -0.007915120572 0.02083605528
v 0.01056965161 0.004073884338 0.03173230216
v 0.01057083625 -0.001868591295 0.02872981876
v 0.01057462674 -0.005999036599 -0.001556869596
v 0.01060498506 -0.008661998436 0.0193140693
v 0.01066278107 0.003776302561 0.03179519996
v 0.01074328925 0.003483231412 0.03188514709
v 0.01075027976 0.01095501892 -0.0006836466491
v 0.01075951662 0.01251716912 0.005660781637
v 0.01077716984 0.007362218574 0.02441462688
v 0.01085321791 -0.0007383332122 0.02950813621
v 0.01085379533 0.001471944735 0.03151098639
v 0.01086855866 0.002955900272 0.03199027479
v 0.01091821305 0.001681610476 0.03164726496
v 0.01095311996 -0.0006970973336 0.0294154156
v 0.01096123736 0.002496103989 0.03196176514
v 0.01096220966 -0.01468469948 0.003040677868
v 0.01096782368 0.002459691837 0.03195455298
v 0.01097422931 0.002423444763 0.03194708005
v 0.01097728498 0.001987542957 0.03180356696
v 0.01098857634 5.030624743e-05 0.03008070774
v 0.01099129114 0.002183201956 0.03187935427
v 0.01101724897 0.0007938122726 0.03071993962
v 0.01107354369 0.0001003764628 0.03000989743
v 0.01110194251 0.000861615059 0.0306532681
v 0.01112090144 -0.007338210475 0.02109691314
v 0.01113510132 0.000163041841 0.02992592379
v 0.01114374772 -0.01518690214 0.003736545332
v 0.01115969848 0.0009415966342 0.03057252243
v 0.01116278954 -0.01537710428 0.004591487348
v 0.01117642969 -0.01490938384 0.00335706491
v 0.01118069142 0.008570030332 -0.002167994156
v 0.0111937169 -0.01458100416 0.00306684617
v 0.01122579537 -0.007904467173 0.02010891587
v 0.0112296138 0.01263402496 0.002657023259
v 0.01124652661 -0.0151161449 0.003705292009
v 0.01130624581 -0.01412804332 0.002848597243
v 0.01134772506 0.01162185147 0.007418674417
v 0.01141106803 -0.01519630197 0.004118793644
v 0.01141502149 0.01266428828 0.0011242982
v 0.01144518796 -0.01502029132 0.005465989932
v 0.0114947306 -0.01361174323 0.002727468498
v 0.01151279639 -0.01357469987 0.002723083831
v 0.01165978983 -0.00382043072 -0.001535907388
v 0.01166800782 -0.01512682531 0.004576296546
v 0.01184719987 0.01231754106 0.001082504168
v 0.01191000734 0.01177921891 0.004407497123
v 0.01191144623 -0.007360896096 0.01981494762
v 0.01196352113 -0.007616250776 0.01933331788
v 0.01197473332 0.007662953343 -0.002084009349
v 0.01199942082 -0.01490622573 0.005038863979
v 0.012062544 0.007156156469 0.02054779232
v 0.0121569233 -0.001437811297 -0.001553671435
v 0.01226214506 0.009664111771 -0.0005889162421
v 0.01226547081 0.009777379222 0.01071543619
v 0.01230305713 0.007238043007 -0.002020034939
v 0.01241008099 0.006564658601 0.02126280032
v 0.01241188683 0.01183754019 0.001066114753
v 0.01243313588 -0.01449615601 0.005522991531
v 0.01248409692 0.01086721942 0.006109167822
v 0.01252951846 -0.007117833011 0.0188594982
v 0.01271665841 0.006012372207 0.02172986791
v 0.01272573043 0.006621997803 -0.001905057579
v 0.01282529067 -0.01407280564 0.005907448009
v 0.01308469754 -0.006487693172 0.01838746108
v 0.0131863011 -0.009597160853 0.002212552354
v 0.01320804562 -0.01364713255 0.006270348094
v 0.01328421943 0.01102526207 0.001130728051
v 0.01330098696 0.01076594926 0.00267386809
v 0.01330372039 0.005597835872 -0.00166698359
v 0.01334884856 0.005964677315 0.01954337582
v 0.0133678494 0.008984796703 0.009264511988
v 0.01345668174 0.008398641832 -0.0002743173391
v 0.01359449979 0.005468389485 0.020027766
v 0.01363297086 -0.008535629138 0.00207638368
v 0.01374878362 0.004580023699 -0.001392478123
v 0.01380361617 0.004971116781 0.02030326612
v 0.01384324208 0.009838046506 0.00432386715
v 0.0138444202 -0.01290319487 0.006836016662
v 0.01397825032 0.004430743866 0.02039988153
v 0.01405934058 -0.007522720844 0.001946765929
v 0.01410171017 0.00352517236 -0.001085694879
v 0.01412107423 0.01014146674 0.001310367137
v 0.0141463317 -0.006896628998 0.01563752629
v 0.01417583972 0.003259581747 -0.001005914062
v 0.0142451534 -0.007081399206 0.001890383661
v 0.01428838074 0.008878988214 0.005896990187
v 0.01434441563 -0.007421785966 0.01461265236
v 0.01442376804 0.0070406585 0.0001941695809
v 0.0144509552 0.009755864739 0.001419320703
v 0.01448115148 0.00189206237 -0.0005829986185
v 0.01450014766 0.004547962453 0.0181500297
v 0.0145638641 -0.006231746171 0.001773584634
v 0.01458617207 -0.01195657067 0.007416756824
v 0.01465440355 0.007915674709 0.007364719175
v 0.01466804557 0.004039595369 0.018409146
v 0.01470627263 -0.008634502068 0.01231349632
v 0.01473950967 2.611595482e-05 1.476705074e-05
v 0.01474842057 -6.263093383e-05 4.345737398e-05
v 0.01479591243 -0.005117288325 0.001580409706
v 0.01480267197 0.003503180342 0.01850540377
v 0.01482111774 -0.006703054998 0.01437589992
v 0.01485188771 0.002981100464 0.01860607043
v 0.01489861216 -0.004356258083 0.001439319924
v 0.01490351185 -0.002409647917 0.000809950754
v 0.01495123003 0.009119227529 0.001634497195
v 0.01518246252 -0.007947488688 0.01217588037
v 0.01519152522 -0.01108918712 0.007802031934
v 0.01527315937 0.005343382247 0.0008583869785
v 0.01530505251 0.002252898412 0.0174451042
v 0.01535562612 0.008511750028 0.002017781138
v 0.01546874922 0.003157402622 0.01593036391
v 0.01550360862 -0.009359464049 0.009696333669
v 0.01554985717 -0.005353139248 0.01389086619
v 0.01560237631 0.002573877107 0.01613595337
v 0.01566351391 0.008074124344 0.002060160041
v 0.01569738984 0.001992249629 0.01621005312
v 0.01572127454 -0.01023149677 0.008038480766
v 0.01574982889 0.007535332814 0.003541547805
v 0.01580746286 -0.004742755555 0.01369714737
v 0.0158538539 0.00117618707 0.01589837484
v 0.01588331163 0.003454637015 0.001614499837
v 0.01589412242 0.00108897977 0.01577730663
v 0.01590381004 -0.006690373179 0.01180213317
v 0.01591430418 -0.006251201034 0.004505970515
v 0.01593440585 0.001000637072 0.01565506682
v 0.0160625428 0.006548605859 0.004960362799
v 0.01617798768 -0.009387142025 0.008137604222
v 0.01618967578 -0.004730070475 0.00404290203
v 0.01622325741 -0.008196546696 0.009432593361
v 0.01625533588 -0.002305842936 0.003200372681
v 0.01635993831 -0.005626748782 0.01149983332
v 0.01637858711 0.006787190214 0.002664822154
v 0.01648693345 0.001322274795 0.01325057447
v 0.01649618335 -0.0003434824757 0.01382740866
v 0.01657132618 0.000633688469 0.01338972989
v 0.01661415398 -2.039538958e-05 0.0134271048
v 0.01665757969 -0.008360217325 0.008103472181
v 0.01669314876 -0.007232664153 0.009157449007
v 0.01681748964 -0.007986902259 0.008061955683
v 0.01689077355 0.005632984452 0.003250207752
v 0.01701057144 -0.001753313816 0.01193427015
v 0.01713739894 -0.007220866624 0.007958401926
v 0.01716664992 0.002019521082 0.00896329619
v 0.0172463581 0.004650699906 0.003757970408
v 0.01731462404 0.0009878638666 0.009568563662
v 0.01742109656 3.928325532e-05 0.00994765386
v 0.01742919162 -0.006508836988 0.007853216492
v 0.01742941327 0.0040597599 0.00406372454
v 0.01743320376 -0.003045094432 0.01018866338
v 0.01748612896 -0.0008322623908 0.0101498859
v 0.01750043035 -0.004867899232 0.008968987502
v 0.01750978455 -0.001632812899 0.01022458542
v 0.01755048893 -0.006207060535 0.007806379348
v 0.01767926477 -0.00586648332 0.007754534483
v 0.01769779436 0.003040920943 0.004588639364
v 0.01769820042 -0.003923780285 0.008984177373
v 0.01786954701 0.002256735926 0.004985373467
v 0.01797403581 -0.00490463106 0.007614616305
v 0.01800399646 0.001531225396 0.005339611322
v 0.01805114001 -0.004580283072 0.007557949051
v 0.01815867983 0.0004693787778 0.005832700059
v 0.01818692312 -0.003828886896 0.0073978398
v 0.01823203824 -0.003470971715 0.007306917571
v 0.01829546876 -0.001179591171 0.006531076506
v 0.01829710789 -0.002608288545 0.007050320506
v 0.01831151731 -0.001990247518 0.00683738105
f 187 148 165
f 3 7 1
f 379 180 427
f 379 396 365
f 459 472 426
f 305 222 194
f 152 143 151
f 152 180 379
f 379 143 152
f 341 353 420
f 220 247 237
f 259 277 254
f 7 3 13
f 8 143 29
f 8 149 143
f 1 5 8
f 19 27 8
f 106 89 83
f 4 3 1
f 19 8 12
f 12 8 5
f 1 7 12
f 12 5 1
f 430 180 433
f 433 180 431
f 180 425 431
f 431 425 436
f 485 396 488
f 485 473 396
f 503 485 488
f 538 485 503
f 436 435 438
f 436 425 434
f 434 435 436
f 513 435 426
f 513 438 435
f 570 568 433
f 433 431 570
f 111 191 119
f 191 208 119
f 98 89 119
f 89 111 119
f 106 194 184
f 194 191 184
f 109 191 111
f 109 89 106
f 109 111 89
f 106 184 109
f 109 184 191
f 222 305 251
f 328 305 379
f 307 143 379
f 379 305 307
f 151 143 150
f 143 149 150
f 57 8 29
f 85 8 57
f 194 167 153
f 153 305 194
f 143 307 153
f 153 307 305
f 185 194 106
f 85 57 81
f 81 57 72
f 165 200 210
f 210 200 215
f 165 148 175
f 175 200 165
f 172 443 174
f 172 170 443
f 176 187 443
f 443 170 176
f 15 170 20
f 15 176 170
f 20 13 15
f 15 13 3
f 443 187 203
f 203 219 443
f 188 203 187
f 573 571 557
f 557 571 555
f 474 464 455
f 341 314 327
f 387 408 364
f 332 314 341
f 318 302 332
f 332 302 314
f 369 332 401
f 341 420 401
f 401 332 341
f 261 247 254
f 254 247 228
f 228 234 254
f 247 220 228
f 212 234 228
f 253 234 212
f 212 198 253
f 253 198 171
f 264 275 271
f 271 251 264
f 299 303 317
f 277 303 299
f 321 303 284
f 284 303 277
f 288 316 321
f 321 284 288
f 288 284 277
f 277 259 288
f 443 214 197
f 443 265 235
f 235 214 443
f 204 217 151
f 85 68 45
f 149 8 35
f 35 150 149
f 35 8 27
f 106 83 103
f 103 185 106
f 429 427 180
f 180 430 429
f 424 418 396
f 424 396 379
f 379 427 424
f 427 512 424
f 528 512 521
f 427 429 521
f 521 430 528
f 521 429 430
f 526 512 528
f 557 555 526
f 526 555 523
f 418 424 491
f 491 424 512
f 473 485 482
f 482 485 506
f 270 381 297
f 414 459 426
f 392 402 390
f 445 459 437
f 437 402 392
f 392 390 437
f 507 526 523
f 512 526 507
f 556 503 507
f 507 503 488
f 488 491 507
f 507 491 512
f 558 573 557
f 564 553 561
f 433 568 561
f 561 553 433
f 433 553 546
f 546 430 433
f 564 548 546
f 546 553 564
f 546 537 430
f 548 537 546
f 432 434 425
f 426 435 432
f 435 434 432
f 440 431 436
f 455 504 415
f 504 497 415
f 426 472 476
f 436 438 535
f 438 513 535
f 127 208 134
f 134 110 127
f 157 147 225
f 225 171 157
f 232 253 225
f 225 253 171
f 194 222 211
f 222 208 211
f 127 110 104
f 110 176 104
f 129 134 140
f 110 134 129
f 98 119 123
f 123 104 98
f 127 104 123
f 123 208 127
f 123 119 208
f 222 251 233
f 29 143 38
f 72 57 156
f 143 153 156
f 156 38 143
f 177 103 99
f 185 103 177
f 177 167 194
f 194 185 177
f 245 152 151
f 245 267 152
f 221 188 218
f 195 175 148
f 148 186 195
f 171 198 190
f 190 186 171
f 190 198 212
f 16 176 14
f 176 15 14
f 14 4 16
f 3 4 14
f 14 15 3
f 443 219 403
f 364 408 373
f 179 187 165
f 179 188 187
f 179 218 188
f 165 210 179
f 210 218 179
f 569 571 510
f 569 555 571
f 569 567 523
f 523 555 569
f 496 502 455
f 560 502 556
f 567 502 560
f 556 507 560
f 523 567 560
f 560 507 523
f 509 502 567
f 509 569 510
f 567 569 509
f 509 510 455
f 455 502 509
f 443 403 469
f 552 503 556
f 538 503 552
f 461 265 443
f 455 415 461
f 498 482 506
f 483 482 498
f 318 332 359
f 359 332 369
f 369 401 389
f 389 359 369
f 408 387 389
f 389 401 408
f 318 359 389
f 354 387 364
f 254 277 268
f 268 261 254
f 237 247 255
f 247 261 255
f 379 365 344
f 344 328 379
f 305 316 283
f 264 251 283
f 283 251 305
f 252 253 232
f 232 233 252
f 252 233 251
f 251 271 252
f 252 271 253
f 314 302 298
f 285 288 275
f 316 288 285
f 285 283 316
f 285 275 264
f 264 283 285
f 276 271 275
f 275 288 276
f 253 271 276
f 234 253 276
f 254 234 276
f 276 259 254
f 276 288 259
f 443 197 182
f 280 235 265
f 280 282 235
f 23 45 17
f 23 8 85
f 85 45 23
f 60 45 68
f 26 83 89
f 17 45 26
f 26 89 98
f 16 17 26
f 98 104 26
f 26 176 16
f 26 104 176
f 167 92 91
f 71 60 68
f 68 91 71
f 71 91 92
f 77 45 71
f 45 60 71
f 86 103 83
f 77 99 86
f 99 103 86
f 11 10 8
f 11 23 17
f 8 23 11
f 1 8 2
f 2 4 1
f 488 396 400
f 400 406 488
f 396 406 400
f 413 406 396
f 488 406 413
f 413 491 488
f 514 512 427
f 427 521 514
f 514 521 512
f 334 327 317
f 309 303 321
f 321 326 309
f 309 326 303
f 317 303 324
f 303 326 324
f 324 326 340
f 324 334 317
f 367 365 396
f 396 370 367
f 367 370 365
f 396 473 468
f 473 482 468
f 468 482 483
f 383 421 371
f 383 370 396
f 371 370 383
f 396 468 383
f 383 468 421
f 360 376 374
f 374 358 360
f 374 376 425
f 425 358 374
f 333 358 425
f 337 452 416
f 416 470 445
f 452 470 416
f 391 297 381
f 381 378 391
f 411 452 337
f 337 297 411
f 297 391 411
f 402 414 410
f 459 414 407
f 407 414 402
f 407 437 459
f 425 390 399
f 399 390 402
f 399 410 425
f 402 410 399
f 376 390 388
f 380 390 376
f 380 437 390
f 547 537 548
f 528 430 532
f 422 432 425
f 425 410 422
f 426 432 422
f 422 410 414
f 422 414 426
f 510 571 516
f 571 573 516
f 455 510 516
f 536 497 504
f 394 378 377
f 384 461 415
f 559 535 550
f 525 440 436
f 436 535 525
f 531 440 525
f 543 531 525
f 525 535 543
f 563 570 431
f 431 440 563
f 574 561 568
f 564 561 574
f 574 575 564
f 564 575 577
f 577 515 578
f 140 225 145
f 145 225 147
f 145 129 140
f 207 225 140
f 208 225 207
f 140 134 207
f 207 134 208
f 232 225 226
f 226 225 208
f 226 208 222
f 226 233 232
f 222 233 226
f 205 191 194
f 194 211 205
f 205 208 191
f 205 211 208
f 142 186 148
f 148 187 142
f 171 186 155
f 155 131 171
f 139 147 157
f 139 122 147
f 157 171 128
f 171 131 128
f 128 139 157
f 122 139 128
f 176 122 128
f 187 176 128
f 128 131 187
f 47 156 57
f 38 156 47
f 47 57 29
f 29 38 47
f 161 81 72
f 72 156 161
f 161 167 85
f 85 81 161
f 161 153 167
f 161 156 153
f 151 217 223
f 267 245 269
f 269 296 267
f 270 297 269
f 297 296 269
f 200 175 199
f 175 195 199
f 206 195 186
f 186 190 206
f 206 190 212
f 212 228 206
f 206 228 220
f 249 403 219
f 249 373 386
f 364 373 249
f 249 354 364
f 408 386 385
f 385 373 408
f 386 373 385
f 556 502 533
f 502 496 533
f 533 552 556
f 496 552 533
f 451 386 408
f 465 461 443
f 493 552 496
f 464 487 493
f 455 464 493
f 493 496 455
f 506 485 530
f 530 485 538
f 530 498 506
f 520 493 487
f 552 493 520
f 481 527 487
f 481 487 464
f 464 474 481
f 527 481 500
f 467 474 455
f 455 461 467
f 527 500 517
f 474 501 517
f 517 481 474
f 517 500 481
f 355 343 318
f 318 389 355
f 375 350 343
f 219 203 257
f 231 242 203
f 242 231 279
f 321 316 325
f 325 316 305
f 305 328 325
f 328 344 325
f 347 326 321
f 321 325 347
f 347 325 344
f 347 370 340
f 365 370 347
f 347 344 365
f 340 326 347
f 277 299 294
f 294 268 277
f 308 327 314
f 314 298 308
f 317 327 308
f 298 294 308
f 308 299 317
f 308 294 299
f 174 443 178
f 443 182 178
f 114 144 246
f 246 223 114
f 246 245 151
f 270 269 246
f 246 269 245
f 117 223 217
f 114 223 117
f 80 26 77
f 83 26 80
f 77 86 80
f 80 86 83
f 36 45 77
f 77 26 36
f 36 26 45
f 88 68 85
f 88 91 68
f 85 167 88
f 167 91 88
f 93 71 92
f 93 177 99
f 93 99 77
f 77 71 93
f 93 92 167
f 167 177 93
f 4 2 9
f 9 11 17
f 9 17 16
f 16 4 9
f 396 418 417
f 417 413 396
f 418 491 417
f 491 413 417
f 327 334 345
f 449 420 345
f 345 420 353
f 345 353 341
f 341 327 345
f 339 324 340
f 334 324 339
f 339 345 334
f 371 421 409
f 409 404 371
f 421 468 409
f 475 478 445
f 445 470 475
f 412 416 445
f 337 416 412
f 152 267 295
f 267 296 295
f 180 152 295
f 295 296 333
f 295 425 180
f 295 333 425
f 333 296 335
f 335 337 360
f 335 297 337
f 335 296 297
f 360 358 335
f 358 333 335
f 402 437 405
f 405 407 402
f 437 407 405
f 425 376 423
f 376 388 423
f 423 390 425
f 423 388 390
f 361 376 360
f 361 380 376
f 361 412 445
f 445 437 361
f 437 380 361
f 360 337 361
f 337 412 361
f 545 526 528
f 528 547 545
f 557 526 545
f 545 558 557
f 545 547 558
f 558 547 562
f 562 548 564
f 562 547 548
f 562 577 578
f 564 577 562
f 430 537 534
f 534 532 430
f 537 547 534
f 534 547 528
f 528 532 534
f 578 515 542
f 515 516 542
f 395 378 394
f 395 391 378
f 395 411 391
f 395 441 411
f 462 470 452
f 452 411 462
f 411 441 462
f 312 280 265
f 265 346 312
f 282 280 312
f 372 377 348
f 348 346 372
f 348 322 320
f 448 384 415
f 486 477 415
f 311 346 265
f 372 346 311
f 265 461 311
f 543 535 565
f 535 559 565
f 497 536 565
f 565 559 497
f 460 505 519
f 460 459 445
f 445 505 460
f 477 486 454
f 415 477 454
f 541 535 513
f 550 535 541
f 499 476 472
f 459 460 529
f 529 460 519
f 519 505 529
f 505 539 529
f 568 570 572
f 572 574 568
f 572 570 504
f 575 574 511
f 515 577 511
f 511 577 575
f 511 504 455
f 455 516 511
f 511 516 515
f 129 145 118
f 110 129 118
f 147 122 118
f 118 145 147
f 118 176 110
f 118 122 176
f 135 155 186
f 131 155 135
f 186 142 135
f 187 131 135
f 135 142 187
f 201 199 195
f 195 206 201
f 200 199 201
f 201 206 220
f 215 200 201
f 201 220 215
f 397 249 386
f 403 249 397
f 419 403 397
f 397 451 419
f 386 451 397
f 419 451 457
f 457 403 419
f 457 469 403
f 458 420 449
f 469 458 479
f 479 458 480
f 461 465 479
f 443 469 479
f 479 465 443
f 471 458 449
f 480 458 471
f 471 466 483
f 471 404 466
f 489 517 501
f 498 517 489
f 480 471 489
f 483 498 489
f 489 471 483
f 527 530 544
f 552 520 544
f 538 552 544
f 544 530 538
f 487 527 544
f 544 520 487
f 484 501 474
f 474 467 484
f 484 467 501
f 527 517 522
f 522 517 498
f 522 530 527
f 498 530 522
f 318 343 338
f 281 319 336
f 336 319 313
f 313 338 336
f 336 338 343
f 343 355 382
f 382 375 343
f 382 389 387
f 382 355 389
f 387 354 382
f 363 382 354
f 375 382 363
f 350 375 331
f 331 306 350
f 263 257 304
f 304 319 263
f 263 319 281
f 219 257 263
f 262 231 216
f 229 256 216
f 216 256 262
f 216 231 203
f 262 274 272
f 274 279 272
f 272 231 262
f 272 279 231
f 242 279 292
f 262 256 260
f 260 274 262
f 248 260 256
f 258 260 248
f 221 218 227
f 215 220 227
f 227 220 237
f 227 210 215
f 227 218 210
f 274 260 273
f 273 260 258
f 261 268 278
f 268 294 278
f 278 294 298
f 214 235 189
f 189 162 214
f 133 197 214
f 214 162 133
f 63 172 174
f 114 117 90
f 90 204 151
f 217 204 90
f 90 117 217
f 151 223 224
f 224 246 151
f 223 246 224
f 270 246 244
f 244 246 144
f 6 9 2
f 8 10 6
f 6 2 8
f 10 11 6
f 11 9 6
f 351 370 371
f 371 366 351
f 340 370 351
f 351 339 340
f 371 404 398
f 398 366 371
f 404 471 398
f 398 471 366
f 578 542 576
f 573 558 576
f 576 516 573
f 576 542 516
f 576 562 578
f 558 562 576
f 478 475 490
f 490 475 470
f 470 462 490
f 445 478 490
f 490 505 445
f 282 312 315
f 315 312 346
f 315 348 320
f 346 348 315
f 492 415 497
f 492 486 415
f 497 454 492
f 492 454 486
f 566 531 543
f 543 565 566
f 566 440 531
f 566 563 440
f 570 563 566
f 566 565 536
f 504 570 566
f 566 536 504
f 453 448 415
f 415 454 453
f 453 454 448
f 518 541 513
f 539 541 518
f 513 499 518
f 518 499 472
f 550 541 551
f 495 499 513
f 476 499 495
f 495 513 426
f 426 476 495
f 574 572 540
f 540 511 574
f 540 572 504
f 504 511 540
f 469 457 446
f 446 458 469
f 446 457 451
f 408 401 446
f 446 451 408
f 446 401 420
f 420 458 446
f 494 479 480
f 494 489 501
f 480 489 494
f 461 479 494
f 501 467 494
f 494 467 461
f 323 313 318
f 318 338 323
f 323 338 313
f 343 350 342
f 342 336 343
f 329 331 375
f 375 363 329
f 329 363 354
f 329 249 219
f 354 249 329
f 293 263 281
f 281 336 293
f 293 306 219
f 219 263 293
f 336 342 293
f 350 306 293
f 293 342 350
f 196 188 221
f 203 188 196
f 304 257 301
f 257 292 301
f 301 319 304
f 313 319 301
f 242 292 250
f 250 292 257
f 203 242 250
f 250 257 203
f 300 292 279
f 300 301 292
f 318 313 300
f 313 301 300
f 236 196 221
f 258 248 243
f 255 258 243
f 237 255 243
f 243 227 237
f 266 273 258
f 266 258 255
f 266 255 261
f 261 278 266
f 368 378 381
f 368 381 270
f 270 357 368
f 322 348 349
f 378 368 349
f 349 368 357
f 349 377 378
f 349 348 377
f 235 282 238
f 189 238 192
f 112 182 197
f 22 13 20
f 174 178 73
f 73 63 174
f 126 101 95
f 126 144 114
f 114 101 126
f 202 357 270
f 183 202 270
f 322 349 330
f 330 349 357
f 352 351 366
f 449 345 352
f 345 339 352
f 339 351 352
f 404 409 463
f 466 404 463
f 463 409 468
f 483 466 463
f 463 468 483
f 450 395 394
f 441 395 450
f 448 454 450
f 450 444 448
f 450 454 497
f 524 529 539
f 539 518 524
f 472 459 524
f 459 529 524
f 549 541 539
f 549 551 541
f 549 539 505
f 306 331 310
f 331 329 310
f 219 306 310
f 310 329 219
f 274 273 291
f 291 279 274
f 291 300 279
f 291 302 318
f 318 300 291
f 241 248 256
f 241 236 248
f 241 256 229
f 248 236 230
f 230 243 248
f 230 236 221
f 221 227 230
f 227 243 230
f 273 266 287
f 302 291 287
f 287 291 273
f 287 298 302
f 287 278 298
f 287 266 278
f 213 189 235
f 235 238 213
f 213 238 189
f 286 315 320
f 282 315 286
f 162 189 164
f 189 192 164
f 197 133 132
f 132 112 197
f 113 132 133
f 112 132 113
f 7 13 18
f 13 22 18
f 30 22 25
f 25 33 30
f 25 22 20
f 20 170 25
f 170 33 25
f 170 172 52
f 172 63 52
f 30 33 41
f 150 35 37
f 151 150 58
f 63 73 61
f 49 52 61
f 61 52 63
f 73 74 61
f 357 202 181
f 181 183 160
f 202 183 181
f 160 183 154
f 144 126 154
f 154 244 144
f 270 244 154
f 154 183 270
f 449 352 362
f 362 352 366
f 362 471 449
f 366 471 362
f 372 311 393
f 394 377 393
f 393 377 372
f 461 384 356
f 356 311 461
f 384 448 356
f 356 393 311
f 428 393 356
f 448 444 356
f 444 428 356
f 456 462 441
f 441 450 456
f 505 490 456
f 456 490 462
f 497 505 456
f 456 450 497
f 508 518 472
f 472 524 508
f 508 524 518
f 554 549 505
f 554 505 497
f 497 559 554
f 551 549 554
f 554 559 550
f 550 551 554
f 196 236 209
f 236 241 209
f 209 216 203
f 203 196 209
f 229 216 209
f 209 241 229
f 289 286 320
f 320 322 289
f 289 322 290
f 239 238 282
f 282 286 239
f 239 192 238
f 97 113 116
f 116 113 133
f 28 22 30
f 28 18 22
f 19 12 24
f 43 41 33
f 43 33 170
f 170 52 43
f 43 52 49
f 49 41 43
f 150 37 46
f 46 37 39
f 66 90 151
f 151 58 66
f 182 112 94
f 94 178 182
f 94 73 178
f 94 74 73
f 76 74 97
f 130 154 126
f 130 137 160
f 160 154 130
f 439 450 394
f 394 447 439
f 439 447 450
f 444 450 442
f 450 447 442
f 442 428 444
f 442 447 394
f 394 393 442
f 442 393 428
f 286 289 193
f 192 239 240
f 240 239 286
f 240 193 192
f 286 193 240
f 97 116 100
f 100 102 78
f 100 76 97
f 78 76 100
f 105 107 95
f 125 124 137
f 137 130 125
f 137 124 146
f 146 124 141
f 141 158 146
f 160 137 159
f 159 181 160
f 137 146 159
f 159 146 158
f 30 41 40
f 40 28 30
f 32 27 19
f 19 24 32
f 32 35 27
f 32 37 35
f 39 37 32
f 18 28 31
f 55 58 150
f 54 66 58
f 58 55 54
f 54 55 46
f 90 66 70
f 114 90 70
f 112 113 96
f 96 94 112
f 96 113 97
f 97 74 96
f 74 94 96
f 49 61 62
f 62 61 74
f 74 76 62
f 108 130 126
f 108 126 95
f 95 107 108
f 169 193 289
f 169 289 290
f 169 158 141
f 136 116 133
f 164 138 136
f 136 133 162
f 162 164 136
f 120 100 116
f 116 136 120
f 120 136 138
f 102 100 120
f 115 125 130
f 115 108 107
f 130 108 115
f 124 125 115
f 107 105 115
f 115 105 124
f 357 181 163
f 181 159 163
f 163 330 357
f 322 330 163
f 163 159 158
f 50 41 49
f 50 40 41
f 49 62 50
f 18 31 21
f 21 31 24
f 21 24 12
f 21 12 7
f 7 18 21
f 24 31 34
f 39 32 34
f 34 32 24
f 28 40 42
f 42 31 28
f 42 34 31
f 150 46 51
f 51 55 150
f 46 55 51
f 65 62 76
f 78 67 65
f 65 76 78
f 65 50 62
f 173 169 290
f 158 169 173
f 290 322 173
f 193 169 166
f 166 164 192
f 192 193 166
f 166 138 164
f 141 138 166
f 166 169 141
f 102 120 121
f 121 105 102
f 124 105 121
f 141 124 121
f 121 138 141
f 121 120 138
f 322 163 168
f 168 163 158
f 168 173 322
f 158 173 168
f 34 42 44
f 39 34 44
f 82 67 78
f 78 102 82
f 102 105 82
f 70 75 79
f 79 101 114
f 114 70 79
f 67 82 69
f 64 70 66
f 64 75 70
f 66 54 64
f 53 65 67
f 50 65 53
f 40 50 53
f 53 42 40
f 39 44 48
f 48 46 39
f 48 54 46
f 84 79 75
f 84 105 95
f 84 82 105
f 75 69 84
f 84 69 82
f 59 48 44
f 59 64 54
f 54 48 59
f 59 69 75
f 75 64 59
f 56 44 42
f 42 53 56
f 56 59 44
f 56 53 67
f 67 69 56
f 69 59 56
f 87 84 95
f 79 84 87
f 95 101 87
f 101 79 87
