v -0.009518661536 -2.275305633e-06 -0.001899968949
v -0.009479491971 -6.122083869e-05 -0.007210511249
v -0.009449461475 0.0009791186312 -0.001949878293
v -0.009448934346 -0.000983634498 -0.001949875848
v -0.009447807446 0.0007124505937 -0.007196658757
v -0.009427759796 -0.0009111458203 -0.007188438904
v -0.009332716465 0.001540682744 -0.007147191092
v -0.009285746142 -0.001772472053 -0.007127828896
v -0.009271473624 -0.001920648268 -0.004838970024
v -0.009253313765 0.001946004573 -0.002079317579
v -0.009252266027 -0.001950414036 -0.00207931106
v -0.009121682495 0.002414901974 -0.00705594942
v -0.009094340727 -0.00250592595 -0.007044599857
v -0.009049999528 -0.0004000063345 0.0255099237
v -0.009049864486 -0.0004447638348 0.0255085174
v -0.009049067274 -0.0005206424976 0.02550570853
v -0.009045335464 -0.0006722239195 0.02549843863
v -0.009034720249 -0.0004473282315 0.02558536641
v -0.00903453026 -0.0003992312122 0.02558637038
v -0.009033897892 -0.0005236464785 0.02558252215
v -0.009030098096 -0.0006760979886 0.0255751349
v -0.009029348381 -0.0009744609706 0.02547703125
v -0.009027156048 -0.0003990934056 0.02560219541
v -0.009013893083 -0.0009800774278 0.02555335499
v -0.009005158208 0.0004484471865 0.02545181103
v -0.008991369978 -0.0003988035896 0.02565127611
v -0.008990050294 0.00284281536 -0.004961790051
v -0.008989865892 -0.0005256931181 0.02564694174
v -0.008988520131 -0.002847086638 -0.004961798433
v -0.008986071683 -0.0006782826968 0.02563947998
v -0.008985911496 0.002838187618 -0.006996005774
v -0.008969904855 -0.000982557307 0.02561744303
v -0.00896454975 -0.0003988067037 0.02567367256
v -0.008963502012 -0.001573206042 0.02540512942
v -0.008960641921 0.0007949529099 0.0254039783
v -0.008948179893 0.002883827547 -0.002257832792
v -0.008947212249 -0.001582868514 0.02547998168
v -0.008946629241 -0.002888076939 -0.002257832792
v -0.008944145404 0.0008045404684 0.02547868527
v -0.008939718828 -0.001723587397 0.02538000606
v -0.008926481009 -0.0003990093828 0.02569448762
v -0.008925244212 -0.0005265553482 0.02569070086
v -0.00892151054 -0.0006785800797 0.02568322979
v -0.008905570954 -0.0009817788377 0.02566113509
v -0.008903395385 -0.001586560044 0.02554310672
v -0.008901154622 0.000808271172 0.02554242313
v -0.008887796663 -0.00052647345 0.02570225671
v -0.008884835057 -0.0003994534491 0.02570681274
v -0.008876204491 0.001258211327 0.02531117201
v -0.008875870146 -0.002060011728 0.02531075291
v -0.008849998936 -0.0004000027257 0.0257100109
v -0.008849090897 -0.0005260222824 0.02570555918
v -0.008845451288 -0.0006768343155 0.02569815516
v -0.008839978836 -0.00158418098 0.02558660507
v -0.008837515488 0.0008054958307 0.02558549866
v -0.008829864673 -0.0009776616935 0.02567627281
v -0.008813206106 0.003296640702 -0.006918779109
v -0.008804835379 -0.001262370148 0.02564641088
v -0.008799863979 0.00158291962 0.02522293478
v -0.008788125589 -0.003357519861 -0.006908318028
v -0.008765663952 -0.001575742499 0.02560254931
v -0.008744532242 0.0009155114531 0.02558106184
v -0.008732487448 -0.001786654699 0.02556549944
v -0.008707163855 -0.002716752933 0.0251084324
v -0.008701298386 0.001934282947 0.02510199137
v -0.008693419397 -0.002761688549 0.02509078942
v -0.008687163703 -0.002737319795 0.02517558448
v -0.00868096482 0.001955058426 0.02516840771
v -0.008643927053 -0.002747145947 0.02523336373
v -0.008638357744 0.001965497853 0.02522614039
v -0.008617764339 0.003730181837 -0.005093732849
v -0.00861575827 -0.00373424869 -0.005093737971
v -0.008609002456 -0.002382988809 0.02541777864
v -0.008584273979 -0.002745682141 0.02527515218
v -0.008578697219 0.001964107621 0.02526737005
v -0.008552027866 0.003778049489 -0.002455027774
v -0.008528177626 -0.0004000015906 0.02570999973
v -0.0085263988 -0.0004506550904 0.0257083904
v -0.008516902104 -0.0005000012461 0.02570656873
v -0.008515734226 -0.002732547699 0.02529424056
v -0.00850263238 -0.0007491665892 0.02569363452
v -0.008502274752 0.001977593638 0.02527651004
v -0.008481635712 0.002562280511 0.02480268665
v -0.008470647968 0.004044784699 -0.006761775352
v -0.008470631205 -0.002883141395 0.02523153462
v -0.008466071449 0.0003856848925 0.02565551549
v -0.008422235958 -0.001456351485 0.02562094666
v -0.00840435084 -0.004171874374 -0.006731975358
v -0.008361707442 -0.001784808934 0.02556569874
v -0.008361334912 0.00284841191 0.02462627925
v -0.008351812139 0.001047997037 0.02555318736
v -0.008323383518 -0.003731323173 0.02456888929
v -0.008320714347 0.002938328311 0.02456571907
v -0.008306692354 -0.003360418137 0.02499010041
v -0.008301053196 -0.003753890051 0.02462754771
v -0.008296195418 0.002965302905 0.0246211607
v -0.008291892707 -0.002078635618 0.02550162561
v -0.00825892482 -0.003768749768 0.02467659488
v -0.008254550397 0.002980189631 0.02467054315
v -0.00820449274 -0.003770224052 0.02471447922
v -0.008200102486 0.002981199417 0.02470831014
v -0.008194062859 0.001618712442 0.02540650405
v -0.008169055916 0.004565235693 -0.005211689044
v -0.00816660095 -0.004569064826 -0.005211690906
v -0.00814368017 -0.003757608589 0.0247363057
v -0.008136926219 0.002972900867 0.02472734079
v -0.008104599081 -0.002640775405 0.02533010021
v -0.008085030131 -0.003886950435 0.02464365028
v -0.008082820103 0.004614118952 -0.002640447579
v -0.008055553772 0.001978518208 0.02527634427
v -0.008031577803 0.004813716747 -0.006553904619
v -0.007999646477 -0.002882583532 0.02523229644
v -0.007971159182 0.003611393971 0.02403832413
v -0.00797029864 0.002160880947 0.02519712597
v -0.007928985171 -0.004971568473 -0.006506746635
v -0.007869245484 -0.004583018366 0.02387844212
v -0.007859637029 -0.003161402885 0.02509892918
v -0.007837926969 -0.004617220256 0.0239170976
v -0.007832235657 0.003825508058 0.02390858158
v -0.007827283815 -0.004650669172 0.02381108142
v -0.007819361985 -0.004408919252 0.02421996556
v -0.007797644474 -0.004633252975 0.02395772934
v -0.007792269345 0.00384193752 0.02394896746
v -0.00774852233 -0.004636474419 0.02399101853
v -0.007743274327 0.003845254658 0.0239819102
v -0.00767312292 0.002680625767 0.02491789684
v -0.00765734259 0.005334894639 -0.005292597227
v -0.00765447272 -0.005338444375 -0.005292602349
v -0.007652747445 0.003896969836 0.02394139208
v -0.007606534753 0.003972820938 0.02386006527
v -0.007598982193 -0.004785158206 0.02384596877
v -0.007596261799 -0.004985623527 0.02350181527
v -0.007592499256 0.004191115499 0.02349389903
v -0.00755852228 0.005377479829 -0.002783638658
v -0.007556986064 -0.005003178958 0.02353608236
v -0.007554073818 -0.003664436284 0.02479990572
v -0.007553496864 0.004208771512 0.02352811582
v -0.007539976388 0.005515098106 -0.006312261801
v -0.007527959999 0.004294604994 0.02327617817
v -0.007510583382 -0.005008883774 0.02356506884
v -0.007507187314 0.00421432592 0.02355693094
v -0.007444577292 -0.005207227543 0.02310090326
v -0.007430614904 -0.005653404165 -0.006257352419
v -0.007402908523 -0.003883448895 0.02464645728
v -0.007388187572 -0.005110833328 0.0234370213
v -0.007372135762 -0.005292045418 0.02303053066
v -0.007369203493 0.004495776258 0.0230225753
v -0.007333821151 -0.005311432295 0.02305657603
v -0.007331115194 0.004515237641 0.02304849215
v -0.007289909292 -0.005320283119 0.02307928726
v -0.007287305314 0.004523995332 0.02307101898
v -0.007251455449 0.004506480414 0.02311682329
v -0.007246760651 -0.005313213915 0.02310558222
v -0.007219430059 0.004692877643 0.02248417772
v -0.007188562304 -0.005521929823 0.02250377275
v -0.007186922245 0.004723790102 0.02249675058
v -0.007162130438 -0.005561567843 0.02227257751
v -0.007151095197 -0.005542447791 0.02252143994
v -0.007149644662 0.00474435417 0.02251432277
v -0.00710910419 -0.005553659983 0.02253720351
v -0.007107752375 0.004755483009 0.02252993174
v -0.007105611265 -0.004289163742 0.02432496473
v -0.007096035872 0.006026067771 -0.005313366652
v -0.007092796266 -0.006029316224 -0.005313373636
v -0.00708808843 -0.00564809097 0.02192800492
v -0.007081327494 -0.005534055643 0.02260841243
v -0.007057031617 -0.005676582921 0.02193959616
v -0.007056391332 0.004877225496 0.02193397097
v -0.007049832493 0.006095805671 -0.006058223546
v -0.007029603701 -0.004388938658 0.02423770167
v -0.007020217367 -0.005697377026 0.02195063792
v -0.007019750774 0.00489801215 0.02194495499
v -0.006999016739 -0.005748707801 0.02131203562
v -0.006997099612 0.006053590681 -0.002854204737
v -0.006979495753 -0.005709675141 0.02196061425
v -0.00697911717 0.00491019059 0.0219548475
v -0.006950663403 -0.005696547218 0.02204407379
v -0.006921485998 -0.005827577319 0.02076621354
v -0.006889366545 -0.005768721458 0.02166120149
v -0.006888575386 -0.006265328731 -0.005972597282
v -0.006885395385 -0.005847983528 0.02076981962
v -0.006845864002 -0.005860571284 0.02077311464
v -0.006807741243 0.00614660373 -0.0005664291675
v -0.006737167947 -0.00475990586 0.02387388423
v -0.006507323124 0.006630457938 -0.005764465313
v -0.006503758952 -0.006633390207 -0.005764477886
v -0.006447929889 -0.005102682393 0.02344832942
v -0.006370970514 0.006640407722 -0.002035313984
v -0.006343589164 0.00677218847 -0.005672601052
v -0.006326747127 0.00665548956 -0.001416782499
v -0.006303700153 -0.005260927137 0.02319939621
v -0.006252130028 -0.005314558744 0.02310323156
v -0.006189537235 -0.005377211608 0.02298097126
v -0.006059961859 0.006766209379 0.001254815375
v -0.005945359822 -0.007082778029 -0.005446597468
v -0.005932812579 -0.005600936711 0.02240775898
v -0.005903183948 0.006834995002 0.002527855104
v -0.005807226058 0.007131549995 -0.003463624511
v -0.005803391803 -0.007134110667 -0.003463622881
v -0.005729382858 0.007119603921 -0.001266034087
v -0.005708659068 0.007246838417 -0.005303337704
v -0.00560535118 0.00695701642 0.004943842534
v -0.005447586998 0.007163572591 0.00263022352
v -0.00538831111 0.007014376577 0.007314442657
v -0.005337938666 0.007010697853 0.008225851692
v -0.005334664602 -0.007477743551 -0.005076997913
v -0.005250297021 0.006889347918 0.01158364117
v -0.005222211126 0.006766433828 0.01337865554
v -0.005162795074 0.007189022843 0.006271477323
v -0.005138653796 0.006528503727 0.01596426591
v -0.005091856234 0.007503197994 -0.001030271291
v -0.00508782221 -0.00750537077 -0.001030259067
v -0.005081740674 0.00715311151 0.008154732175
v -0.005081692245 0.007616167422 -0.004916395061
v -0.005052242428 0.006380758714 0.01727875695
v -0.005042389967 0.007074865513 0.01010529511
v -0.005038587376 -0.007077012677 0.01010528952
v -0.004954000004 0.007435250096 0.002815697808
v -0.004950002767 -0.007437352557 0.002815703396
v -0.004948423244 0.006815795787 0.0140267387
v -0.004822177347 0.006647721399 0.01590419188
v -0.004812736064 0.007345077116 0.006402749568
v -0.004795704968 0.006404271349 0.0177589152
v -0.004777491558 0.003562135156 0.02446929924
v -0.004772238899 0.0007734600222 0.02515590563
v -0.004771821201 -0.000775462715 0.02515590191
v -0.00476981001 0.007164306473 0.01020590682
v -0.004768707324 0.0003880348522 0.0251650326
v -0.004768498708 -0.0003900359734 0.02516502701
v -0.004765959457 -0.007166305557 0.01020590309
v -0.004764481913 -9.970646034e-07 0.02516698837
v -0.004723574966 0.001531046466 0.02509678341
v -0.004722752143 -0.001533023547 0.02509677224
v -0.004694010131 0.006882885005 0.0141050797
v -0.004684893414 -0.007807498332 -0.004659528378
v -0.004634923302 0.007829413749 -0.004622617271
v -0.004578950349 0.00226181373 0.02496555448
v -0.004577734973 -0.002263710834 0.02496555075
v -0.004567638505 0.006171394605 0.01942356117
v -0.004567631055 0.006710082293 0.01596336067
v -0.004557327367 0.004665611777 0.02352395467
v -0.004429115914 0.004147611093 0.02407972328
v -0.004413724877 0.007921670564 -0.004471231252
v -0.004391646944 0.007822398096 -0.0007292933296
v -0.004387442488 -0.007824195549 -0.0007292902446
v -0.004382473417 0.00295004691 0.02475625463
v -0.00438088784 -0.002951837378 0.0247562509
v -0.004367436282 0.007680386305 0.003063175594
v -0.004363306332 -0.007682168856 0.003063173266
v -0.004356729798 -0.007944277488 -0.004436219577
v -0.004341125023 0.00588984834 0.02087376639
v -0.004321815912 0.005084535573 0.02299124002
v -0.004194657318 0.005541936029 0.02206368558
v -0.004188659135 0.005332274362 0.02256134711
v -0.004158711061 0.00358737912 0.02445800975
v -0.004145018291 0.004668134265 0.02358565852
v -0.004012334626 -0.001612606109 0.02497194521
v -0.004003000446 0.001905199955 0.02493464574
v -0.004000627436 0.0008891650941 0.02501995675
v -0.003972770646 0.005115022883 0.02297371067
v -0.003965771757 -0.0006090865936 0.02502278239
v -0.003957939334 -0.008087181486 -0.004151544068
v -0.003945166711 0.004169268534 0.02406066097
v -0.00394292362 -0.004170823842 0.02406066842
v -0.003916093148 -0.002874543658 0.02471578121
v -0.003893800313 0.003032940906 0.02466154471
v -0.003862167709 0.0002131264482 0.02500837296
v -0.003833541647 -7.491902921e-07 0.02500324696
v -0.003803796368 0.007424467709 0.01056791097
v -0.003799805883 -0.007425946184 0.01056790259
v -0.003780381754 -0.003620586358 0.02439999208
v -0.003779430408 0.004687935114 0.02355362475
v -0.003769484116 0.00710144639 0.01442757342
v -0.003765666625 -0.00710290717 0.01442756597
v -0.003759526415 -7.295249134e-07 0.02498799004
v -0.003746912349 0.007679468952 0.006830221973
v -0.003742784029 -0.007680917624 0.006830220576
v -0.003732458688 0.003846741514 0.02426622435
v -0.003728699638 0.008158606477 -0.003976125736
v -0.003694134997 0.007894480601 0.003359978087
v -0.003689892124 -0.007895903662 0.003359974828
v -0.00367185846 0.00690286234 0.01625488326
v -0.003650850849 0.004214608576 0.02400141954
v -0.003633559914 -0.004286171403 0.0239429269
v -0.003631496336 0.008078909479 -0.000378872297
v -0.003627152648 -0.008080294356 -0.000378870609
v -0.003581696656 0.004561732523 0.02368187346
v -0.003500321414 0.006672829855 0.01793733612
v -0.00333507196 0.005182133522 0.02285382524
v -0.003312961897 0.001827078871 0.0247890465
v -0.003311978187 -0.00182829285 0.02478904836
v -0.003276936011 0.006401675288 0.01944261231
v -0.003242626553 0.001054214314 0.02484008484
v -0.003242059844 -0.001055395463 0.02484008484
v -0.003200512147 -0.008297469467 -0.0035693557
v -0.003159855027 0.0006892911042 0.02484018356
v -0.003159483196 -0.0006904225447 0.02484018542
v -0.003041810822 0.008332373574 -0.003435476217
v -0.00304113212 0.006077636499 0.02075016685
v -0.00295578409 -0.008350281976 -0.003367194673
v -0.002946946071 0.005214079283 0.02278082073
v -0.002877121791 0.004804817028 0.02333493158
v -0.002874537837 -0.004805795848 0.02333493531
v -0.002844408387 0.004346940666 0.02377189882
v -0.002842072863 -0.004347905051 0.02377189882
v -0.002828879282 0.003846102161 0.0241040159
v -0.002826811513 -0.003847060027 0.0241040159
v -0.002826766111 0.005691217724 0.02184474654
v -0.002812103834 0.003303902457 0.0243445076
v -0.002810329199 -0.003304848447 0.0243445076
v -0.002780718263 -0.0005164659233 0.02475474775
v -0.002779094037 0.0005167895579 0.02475421503
v -0.002778156893 0.002717621159 0.02450718544
v -0.002776697045 -0.002718551783 0.02450718358
v -0.002719615586 0.002071277937 0.02460734174
v -0.00271850219 -0.002072177362 0.02460733242
v -0.002617134014 0.001394382445 0.0246543996
v -0.002616384998 -0.001395224943 0.0246543996
v -0.002532901242 -3.991187328e-07 0.02470321208
v -0.002472733147 -0.008435280994 -0.002942910418
v -0.002446704311 0.007335133385 0.01485153101
v -0.002442762954 -0.007335883565 0.01485153474
v -0.002427370055 0.0007604554412 0.02464952879
v -0.002420121571 0.007689209655 0.0110642584
v -0.002415988361 -0.007689945865 0.01106425934
v -0.00240490865 0.007105384488 0.01662301645
v -0.002401089063 -0.007106111385 0.01662301086
v -0.002318626503 0.006829460151 0.01822611317
v -0.002317322418 -0.005267177708 0.02263670601
v -0.002297986066 0.007963365875 0.007402915508
v -0.002293705242 -0.007964034565 0.007402922492
v -0.002247911645 0.008466659114 -0.002728202613
v -0.002222512616 0.00488756923 0.02311624773
v -0.002219886519 -0.00488819927 0.023116244
v -0.002203023061 0.006508495659 0.01962799206
v -0.002133356174 0.004479416646 0.02348999865
v -0.002131482121 0.008204815909 0.004043612164
v -0.002130948706 -0.004479997791 0.02349000424
v -0.00212707161 -0.008205399849 0.004043622874
v -0.002106508939 0.005293385126 0.0225720983
v -0.00208299025 0.006148081273 0.02081108093
v -0.002079685219 -0.006148633547 0.02081107721
v -0.002079559257 0.0003667984565 0.02457337268
v -0.002045195084 0.004046646412 0.02377193794
v -0.002043019515 -0.004047179595 0.02377193607
v -0.001975650899 0.005753059406 0.02176440321
v -0.00197255821 -0.005753554404 0.02176440321
v -0.001950831735 0.003593936563 0.0239749942
v -0.001950196689 0.008407844231 0.0004044071247
v -0.001948899939 -0.003594421549 0.02397498488
v -0.001945676981 -0.008408327587 0.0004044132365
v -0.001906764111 -0.001145612099 0.02446905896
v -0.001881198841 -0.005327539053 0.02249174006
v -0.001843137085 0.003120420501 0.02411283925
v -0.001841459074 -0.003120848909 0.02411283553
v -0.001833235845 0.008512143977 -0.00231433264
v -0.001832977636 -0.008512193337 -0.002319555962
v -0.00176528201 -0.008518124931 -0.002248563338
v -0.001741155982 0.00535251433 0.02243147977
v -0.001738279709 -0.005352885462 0.02243147418
v -0.001715097111 0.002622282365 0.02419709601
v -0.001713688369 -0.002622637898 0.02419708855
v -0.001700969762 -1.756217501e-07 0.02446917444
v -0.001640210976 0.008528016508 -0.002108494751
v -0.001635211171 -0.008528388105 -0.002108889632
v -0.001607757062 0.005044701044 0.02279610559
v -0.001605044818 -0.005045003723 0.02279610746
v -0.001580283744 0.008532281034 -0.002042605774
v -0.001558013726 0.002101660473 0.02423671447
v -0.001557384967 0.003779950319 0.0237417426
v -0.00155688473 -0.002101931954 0.02423670888
v -0.00155535352 -0.003780223196 0.02374173701
v -0.001473278273 0.004717263393 0.02308262698
v -0.001470742165 -0.004717492498 0.02308262512
v -0.001458492479 -0.005411854014 0.02228836156
v -0.001451447257 0.00150387676 0.02428212576
v -0.001352217398 0.001584948273 0.02423742414
v -0.001351363608 -0.001585112303 0.02423742786
v -0.001331465784 0.004367941525 0.02330161817
v -0.00132911792 -0.004368091933 0.0233016219
v -0.001265476691 0.002911494579 0.023945041
v -0.001263911603 -0.002911612391 0.02394504659
v -0.001257951371 0.005459093023 0.02216005325
v -0.001255015493 -0.005459204316 0.02216005512
v -0.00117997604 0.003999943379 0.02346274815
v -0.001177825965 -0.004000016488 0.02346275002
v -0.001173234894 -0.005759778898 0.02165238559
v -0.001171867247 0.005779966712 0.02161351033
v -0.001163647627 -0.008553311229 -0.001559291384
v -0.001140100998 0.005942617543 0.02127411403
v -0.001136906561 -0.005942664109 0.02127410658
v -0.001118221902 0.006079694722 0.02095338516
v -0.001114954124 -0.006079729181 0.02095338702
v -0.001111761201 0.006125650369 0.02083961666
v -0.001108468627 -0.006125686225 0.02083962038
v -0.001077448484 0.00643543154 0.01999470778
v -0.001067625359 -0.006507036276 0.0197754167
v -0.00106583361 0.006570390426 0.01957240701
v -0.00106230122 -0.006570398342 0.01957241073
v -0.001049185055 0.006782492157 0.01882350259
v -0.001045539626 -0.006782494485 0.01882350259
v -0.001042219927 0.006870334968 0.01847654767
v -0.001038527815 -0.006870330311 0.01847654395
v -0.001021425938 0.007094454486 0.01745976135
v -0.001017613336 -0.007094438653 0.01745975949
v -0.001013136236 0.007164372131 0.01709167473
v -0.001009284053 -0.007164352573 0.01709168591
v -0.0009917784482 0.008557805791 -0.001332657528
v -0.0009831109783 0.007355092093 0.0159212444
v -0.0009791578632 -0.007355053909 0.01592124067
v -0.0009638972115 0.007445741445 0.01526418887
v -0.0009598956676 -0.007445695344 0.0152641898
v -0.0009287892026 -0.005112273153 0.02246120945
v -0.0009282016545 0.007577144075 0.01417159289
v -0.0009241296211 -0.007577079814 0.01417158637
v -0.0009021713049 0.005077069625 0.02248444222
v -0.0008848767029 -0.005059260409 0.02249568142
v -0.0008651022217 0.007741770707 0.01252522413
v -0.0008364639361 0.003210398834 0.02364843525
v -0.0008348521078 0.00078877341 0.02414618433
v -0.0008347381954 -0.003210284514 0.02364843339
v -0.0008344284142 -0.0007886568201 0.02414618246
v -0.0008237540605 0.007822615094 0.01159042493
v -0.0008210132364 0.00424875319 0.02313092165
v -0.0008195491391 -0.007822490297 0.01159042772
v -0.0008187297499 -0.004248628393 0.02313091233
v -0.0007499018102 0.002067341935 0.02392164804
v -0.0007487903349 -0.002067179186 0.02392164059
v -0.0007362575852 -0.004870840348 0.02259978652
v -0.0007090268773 0.0079894308 0.009424643591
v -0.0007047327235 -0.007989244536 0.009424647316
v -0.0006533566047 0.005480766762 0.02184243686
v -0.0006504104822 -0.005480556283 0.021842435
v -0.0006267193821 -0.008558620699 -0.0008242244367
v -0.0006113922573 0.008558576927 -0.0007941658259
v -0.0005635251873 -0.00463688653 0.02269966155
v -0.0004831240803 0.004520110786 0.02274064533
v -0.000480694056 -0.004519808106 0.02274064347
v -0.0004622669367 0.008555390872 -0.0005596405244
v -0.0004246907483 0.003521124134 0.02329950035
v -0.0004246796016 0.005869411863 0.02106466703
v -0.0004227971367 -0.003520786529 0.0232995078
v -0.0004215247172 -0.00586907519 0.02106467076
v -0.0004205644072 0.0073322854 0.01604894549
v -0.000403442682 0.002338466002 0.02369773947
v -0.0004021864152 -0.002338118851 0.02369773388
v -0.0003531435796 0.004331561271 0.02279607207
v -0.0002489074541 0.008392051794 0.003452215344
v -0.0002443971753 -0.00839161966 0.003452211851
v -0.0002399053628 0.006263519172 0.02010936476
v -0.0002372802119 0.007728693541 0.01270564552
v -0.0002365399559 -0.006263084244 0.02010935917
v -0.0001539174991 0.004032472614 0.0228612721
v -0.0001532861206 2.419692179e-07 0.02391231433
v -0.0001512059389 -0.008541593328 -2.061285522e-05
v -0.0001456791069 -0.004022685811 0.0228629224
v -0.000135871509 0.005051041953 0.02202133462
v -0.0001331564126 -0.005050551612 0.02202133648
v -0.0001255100942 0.002556641586 0.02349195071
v -0.0001241373102 -0.002556144726 0.02349194512
v -8.56215047e-05 0.00849801302 0.001187789952
v -8.413741307e-05 0.006640726235 0.01897198521
v -8.056902152e-05 -0.006640207488 0.01897198334
v -2.864321868e-05 0.00383871817 0.02289177664
v -2.724193655e-05 0.008533437736 0.0002357037156
v -2.265556031e-05 -0.008532888256 0.0002357090998
v 4.422677011e-05 0.008527619764 0.0003917090653
v 4.8810718e-05 -0.008527021855 0.0003917205322
v 5.46477022e-05 0.006978292484 0.0176562462
v 5.839894948e-05 -0.006977696903 0.01765625179
v 6.141346239e-05 0.001549873617 0.02365665324
v 6.224729441e-05 -0.001549274893 0.02365666442
v 0.0001149480449 0.008521379903 0.0005476009101
v 0.0001195273799 -0.008520752192 0.0005475901999
v 0.0001220583435 -0.0078078527 -0.003747623181
v 0.000133567024 -0.007806022651 -0.003747223178
v 0.0001872525027 0.0072576534 0.01617288403
v 0.0001911531726 -0.007256986573 0.01617288031
v 0.0002397224016 0.005482145119 0.02119683288
v 0.0002426690771 -0.005481455009 0.02119683288
v 0.0002828291617 -0.007780622691 -0.003738782834
v 0.0003222368541 0.006973396987 -0.003736127634
v 0.0003229724243 -0.007481529377 0.01456615422
v 0.000376607728 0.004491187166 0.02214969508
v 0.000379022531 -0.004490422551 0.02214969508
v 0.0003971806436 -0.006496489979 0.01903662831
v 0.0004532026651 0.007662833668 0.01289141271
v 0.0004573210317 -0.007662022486 0.01289140806
v 0.0004747553321 0.003025316633 0.022956172
v 0.0004763820907 -0.003024497302 0.02295616828
v 0.000566191331 0.005907435901 0.02022208646
v 0.0005693670828 -0.005906565115 0.02022209764
v 0.0005964947632 -0.006842459086 0.01773847453
v 0.0006076577702 0.0007514358149 0.02350828797
v 0.0006080608 -0.0007505468675 0.0235082861
v 0.0007403215277 0.006883182097 -0.003676202148
v 0.0007431937847 0.007934659719 0.009559229948
v 0.0007474577287 -0.007933697663 0.009559216909
v 0.0007583970437 0.008502253331 0.0005480370019
v 0.0007793307886 0.007128560916 0.01628130302
v 0.000783162599 -0.007127577439 0.01628131047
v 0.000799565285 -0.002481460338 0.02296476811
v 0.0008372248849 0.002416283125 0.02296404727
v 0.000842723588 -0.007657245733 -0.003653264837
v 0.0008538420661 0.006304826122 0.01909310743
v 0.0008572317311 -0.006303802133 0.01909310557
v 0.0008675457211 0.004943930544 0.02129933238
v 0.0008702031919 -0.004942897242 0.02129933797
v 0.0009006563923 0.003792409552 0.02222860977
v 0.000902694359 -0.00379136391 0.02222860977
v 0.0009453944513 -0.0022330184 0.02295982465
v 0.001074959873 0.00814816542 0.006497445051
v 0.00107933837 -0.00814702455 0.006497436203
v 0.001113700913 0.006654798985 0.01780953445
v 0.001117276959 -0.00665363716 0.01780952513
v 0.001136143343 0.007539486513 0.01306380145
v 0.001207667752 6.061374619e-07 0.0232135728
v 0.001298191375 0.006062158849 0.01914253086
v 0.001301449491 -0.006060892716 0.01914253272
v 0.001313533285 -0.008464366198 0.0005488843308
v 0.001317341463 0.005374302156 0.02031138912
v 0.001320229494 -0.005373029038 0.02031139657
v 0.001339866896 -0.0037999989 -0.00350246625
v 0.001340218238 -0.007508930285 -0.003502269275
v 0.001355789136 0.006942347158 0.01637712866
v 0.001359521062 -0.006941052619 0.01637713052
v 0.001382926246 -0.007494424935 -0.003485653084
v 0.001409955206 -0.001431006123 0.02289515361
v 0.001413775841 0.00832214579 0.003384135664
v 0.001418247819 -0.008320817724 0.003384126583
v 0.001428337535 0.00139900879 0.02289057709
v 0.001447292743 0.002935238648 0.02227782458
v 0.001448871219 -0.002933898475 0.02227783762
v 0.001463938039 0.006666123867 -0.003452453064
v 0.001481046085 0.004236774985 0.02137709223
v 0.001483323751 -0.004235413391 0.02137710154
v 0.001529630157 -0.00744241057 -0.003423822578
v 0.001589851454 -0.007170654833 0.01483292598
v 0.001606182777 0.001088738441 0.02284011804
v 0.001618458307 0.006410572212 0.01787203923
v 0.001621903386 -0.00640913751 0.01787203737
v 0.001650951686 0.008433445357 0.0005500346306
v 0.001655783388 -0.008431621827 0.0005498597748
v 0.001728785806 0.005766789895 0.01918756589
v 0.001731884899 -0.005765295587 0.01918756217
v 0.001808848581 0.007355054375 0.01322422829
v 0.00181280158 -0.007353519555 0.0132242348
v 0.001820777426 0.0007118983194 0.02275643311
v 0.001860286458 0.0006421552389 0.02273764089
v 0.001860631397 -0.0006405927124 0.02273764461
v 0.001876783092 -0.007305357605 -0.003246039385
v 0.001902287011 0.006494490895 -0.003231692361
v 0.001916751615 0.006696328521 0.01646331511
v 0.001920350012 -0.006694735494 0.01646330394
v 0.001983903814 0.00196296256 0.02228156477
v 0.001984959235 -0.001961331815 0.02228157036
v 0.002025766997 -0.0003467865463 0.02264492586
v 0.002034029923 0.004643542226 0.02039229311
v 0.002036525169 -0.004641884938 0.02039229684
v 0.002043356188 -0.0003152324643 0.02263364196
v 0.002093296731 0.003338966286 0.02145061828
v 0.002095090458 -0.003337278264 0.02145061456
v 0.002108345507 0.006107970141 0.0179294683
v 0.00211162772 -0.006106270477 0.01792946272
v 0.00220235181 -0.006922727916 0.01494978275
v 0.00221733097 8.795036592e-07 0.02250779234
v 0.002250570804 0.007625088096 0.01000257861
v 0.002254669555 -0.007623313926 0.01000257954
v 0.002403545892 0.008319057524 0.0003413262602
v 0.002405800857 0.008332994767 0.0005529817427
v 0.002439268399 0.0009655545 0.02221064642
v 0.002439786447 -0.0009636803297 0.02221064642
v 0.002462391509 0.006387521978 0.01654324494
v 0.002465823898 -0.006385632325 0.01654324867
v 0.002468627878 0.007105933968 0.01337410789
v 0.00247244793 -0.007104043383 0.01337410696
v 0.002557103522 0.00500512775 0.01927978545
v 0.002559792716 -0.005003187805 0.01927978359
v 0.002584700007 0.005743829999 0.01798598841
v 0.002587785479 -0.005741876084 0.01798598282
v 0.002606119029 0.0004794871493 0.02215274051
v 0.002606377471 -0.0004775210691 0.0221527461
v 0.002663370222 0.002287735464 0.02150559239
v 0.002664598403 -0.002285740338 0.02150557935
v 0.002705740742 0.007830768824 0.006984492298
v 0.002709949156 -0.007828749716 0.006984486245
v 0.002724193502 1.013514861e-06 0.02207843587
v 0.002730599837 0.003693302395 0.02048812248
v 0.002732583554 -0.003691270249 0.02048812807
v 0.002799316077 -0.006608764175 0.01505905483
v 0.002939003985 -0.008221228607 0.0003440731089
v 0.002941674553 -0.008234495297 0.0005556062679
v 0.002991101472 0.007372520398 0.0102068428
v 0.0029929257 0.006012676284 0.01662072353
v 0.002995063784 -0.007370347623 0.01020684
v 0.002996156923 -0.006010503042 0.01662073471
v 0.003048855811 0.005314974114 0.01804579422
v 0.003051711945 -0.005312771071 0.01804579236
v 0.003109485144 0.001157918829 0.02151106112
v 0.003110105637 -0.001155683422 0.0215110518
v 0.003112799022 0.006788469851 0.01351491176
v 0.00311644678 -0.006786232349 0.01351491455
v 0.003138857195 0.007996055298 0.003880933393
v 0.003143155249 -0.007993804291 0.003880941309
v 0.003225658787 1.149370291e-06 0.02157392167
v 0.003249070607 0.0005806759 0.02149900049
v 0.003249381436 -0.0005783681991 0.02149900049
v 0.003350457177 0.003998368979 0.01939759403
v 0.003352605971 -0.003996003419 0.01939759962
v 0.003358777612 0.002557097003 0.02058532462
v 0.003360152012 -0.002554729581 0.02058533579
v 0.003379586153 -0.006225346588 0.01516353618
v 0.003469147952 0.008117993362 0.0005588117638
v 0.003508571535 0.005568549503 0.01669951901
v 0.003509111702 0.007573701441 0.007205454167
v 0.003511564108 -0.005566099193 0.01669951901
v 0.003513180418 -0.007571248803 0.007205441594
v 0.003715205006 0.00704900315 0.01039885357
v 0.003718993161 -0.00704644341 0.01039885264
v 0.003738682717 0.006398987025 0.01364818029
v 0.003742121626 -0.006396411452 0.0136481747
v 0.003824377898 0.001305933809 0.0206480287
v 0.003825079417 -0.001303313416 0.02064802684
v 0.003938901238 0.005771718454 0.0152659975
v 0.003940718714 0.004254779778 0.01818862744
v 0.003942002077 -0.005769039504 0.01526599098
v 0.003943004645 -0.004252095241 0.01818862744
v 0.003960683476 0.0006568434765 0.02066151053
v 0.003961037379 -0.0006541496259 0.02066151425
v 0.003987773322 0.00783939939 9.611427231e-06
v 0.003987784963 0.007735076826 0.004099710844
v 0.003991941921 -0.007732368074 0.004099712707
v 0.004008209798 0.007908736356 0.000164027253
v 0.004012213554 -0.005049205851 0.01678337716
v 0.004012459423 -0.007906019688 0.0001640202536
v 0.0040221042 0.00795587711 0.0003495134879
v 0.004025584552 0.00796767883 0.0005625422345
v 0.004026402719 -0.007953230292 0.0003500190214
v 0.004029865377 -0.007964950986 0.0005625389167
v 0.00405289419 0.002780689858 0.01952711493
v 0.004054388497 -0.00277794851 0.01952711865
v 0.004222386982 0.007897171192 0.0007520901854
v 0.004226629622 -0.007894337177 0.0007520821528
v 0.004271565005 0.007788150571 0.0001013872534
v 0.004275750369 -0.007785289548 0.0001013905858
v 0.004293493927 0.007244433276 0.007410914637
v 0.004297387321 -0.007241559215 0.00741092395
v 0.00430523511 0.007868900895 0.0004721624427
v 0.004309463315 -0.007866020314 0.0004721619189
v 0.004337595776 0.002115659881 0.019582849
v 0.004338731989 -0.002112763003 0.019582849
v 0.004343603272 0.005933790933 0.013775439
v 0.004346791189 -0.005930891726 0.01377543807
v 0.004417140037 0.006650215015 0.01057810616
v 0.004420713522 -0.006647276692 0.01057811175
v 0.004469115287 1.48383549e-06 0.02006677538
v 0.004491032567 0.004464030731 0.01687302813
v 0.004493432119 -0.004461054225 0.01687303185
v 0.004508052487 0.007640911732 3.808787733e-05
v 0.004512158222 -0.007637925912 3.808790279e-05
v 0.004559535999 0.001425087568 0.01962661184
v 0.00456030108 -0.001422074274 0.01962660253
v 0.004560432397 0.007738186046 0.0003783036082
v 0.004564589821 -0.007735169493 0.0003782949061
v 0.004703818355 0.0007175555802 0.01965498552
v 0.004704203922 -0.0007144644624 0.01965499111
v 0.004720559809 0.00296425866 0.01834355108
v 0.004722151905 -0.002961159218 0.0183435455
v 0.004814402666 0.007401284296 0.004299745429
v 0.004818380345 -0.007398130838 0.004299740307
v 0.004831922241 0.007396273315 -1.678212357e-05
v 0.00483589666 -0.007393113803 -1.677003274e-05
v 0.004902233835 0.007489446085 0.0002524739539
v 0.004906258546 -0.007486245129 0.00025247343
v 0.00492484495 0.00538924709 0.01389820874
v 0.004927739967 -0.005386039149 0.01389820408
v 0.004939426668 0.003814356169 0.01696351916
v 0.004941476509 -0.003811139846 0.01696352661
v 0.005001528189 0.004632133525 0.01547349431
v 0.005033464171 0.002256895183 0.01841126941
v 0.005034677219 -0.002253623679 0.01841128059
v 0.005050660111 0.006837991998 0.007600581739
v 0.005054335576 -0.006834714208 0.007600587327
v 0.005091164261 0.006171836983 0.01074411161
v 0.005094482563 -0.006168535911 0.01074412465
v 0.005143520422 0.007502816152 0.001567299245
v 0.005147672258 -0.007499180268 0.001567402156
v 0.005214508157 0.007091382984 -1.678492845e-05
v 0.005218318664 -0.007088014856 -1.678376611e-05
v 0.005275628995 0.00152102788 0.01846544258
v 0.005276445765 -0.001517625409 0.01846544445
v 0.005289639346 0.007180713117 0.0002524649317
v 0.005293497816 -0.007177302148 0.0002524662414
v 0.005339942407 0.003113309154 0.01704931445
v 0.005341615528 -0.003109873971 0.0170493219
v 0.005422427785 0.00734905852 0.001235146541
v 0.005426457617 -0.007345327642 0.001235236879
v 0.005432031583 0.0007661501877 0.0185013786
v 0.005432442296 -0.0007626671577 0.01850138418
v 0.005475783721 0.004766582977 0.0140162874
v 0.005478344858 -0.004763074219 0.01401628647
v 0.00558704976 1.784897563e-06 0.01834149845
v 0.005608784966 0.00698902877 0.004481812939
v 0.005612540059 -0.00698545156 0.00448180642
v 0.005644953344 0.007106840145 0.0009133042186
v 0.005648818333 -0.007103038952 0.0009134007851
v 0.005677822512 0.002371278824 0.01712485775
v 0.005679096561 -0.002367662964 0.01712486334
v 0.005731515586 0.005609589163 0.01089638658
v 0.005734529812 -0.005605944898 0.01089638285
v 0.005772379227 0.006349408533 0.00777410157
v 0.005775791127 -0.006345744245 0.007774102036
v 0.005908543244 0.00323317037 0.01566765271
v 0.005938050337 0.001598560251 0.01718497276
v 0.005938908551 -0.001594807021 0.01718497276
v 0.005982488394 0.004076104611 0.01412631851
v 0.005984678864 -0.004072323442 0.01412631944
v 0.005998096429 0.005994068924 -0.0002820703085
v 0.006075378042 0.006962169427 0.002358730882
v 0.006079381332 -0.006957623176 0.002358937869
v 0.006105422042 0.0008053763886 0.01722465828
v 0.006105854176 -0.0008015296771 0.01722465642
v 0.006164736114 1.940059747e-06 0.01723899692
v 0.006177856121 0.006153753959 -1.678957597e-05
v 0.006180097815 0.006769498345 0.001389813493
v 0.006181162782 -0.006149866618 -1.677938781e-05
v 0.006183735561 -0.006765611935 0.001389813493
v 0.006265122909 0.006231273524 0.0002524566662
v 0.006266739685 0.002463287674 0.01574799046
v 0.006268063094 -0.002459354931 0.0157479886
v 0.006268471945 -0.006227341015 0.0002524625452
v 0.006319982 0.006791553926 0.002008887241
v 0.006323821377 -0.006786998827 0.002009079792
v 0.006329907104 0.004964496475 0.0110340165
v 0.006332574412 -0.004960529041 0.01103401557
v 0.006361003499 0.006492674816 0.004646659829
v 0.006364491768 -0.006488692015 0.004646664485
v 0.006430226844 0.00332912663 0.01422459073
v 0.006432015449 -0.003325104481 0.01422459912
v 0.006450409535 0.005773772951 0.007931143977
v 0.006453512236 -0.005769739859 0.007931146771
v 0.0064985184 0.006539571099 0.001668372075
v 0.006502137985 -0.006535049994 0.001668554265
v 0.006541380659 0.001660941401 0.01581096463
v 0.006542271934 -0.001656863722 0.01581095904
v 0.006637797225 2.067080686e-06 0.01620250009
v 0.00669202581 0.005714656319 0.0002524679003
v 0.006695095915 -0.005710493308 0.0002524610027
v 0.006717343349 0.0008369463612 0.01585204899
v 0.006717792712 -0.0008327701362 0.01585205458
v 0.00679441588 0.004954602104 -0.000282074383
v 0.006797077134 -0.004950386006 -0.0002820723457
v 0.006804260891 0.002536959946 0.01430737413
v 0.006805623416 -0.002532740124 0.01430737786
v 0.006873344537 0.004247453995 0.01115531009
v 0.006875626277 -0.004243194591 0.01115531195
v 0.006995390169 0.005086594727 -1.679366869e-05
v 0.006998123601 -0.005082270596 -1.678483386e-05
v 0.00701326644 0.006222839933 0.003086011391
v 0.007016978692 -0.006217476446 0.003086281242
v 0.007061133161 0.005906633101 0.004795053974
v 0.007064307109 -0.005902271252 0.004795060027
v 0.007075429428 0.005111823324 0.00807110779
v 0.007078175433 -0.005107454024 0.008071104065
v 0.007089816965 0.001710904762 0.01437100209
v 0.007090735715 -0.001706528128 0.01437100023
v 0.007092955988 0.00515066972 0.0002524591691
v 0.007095723413 -0.005146294367 0.0002524623997
v 0.007096180692 0.006034008693 0.002173782792
v 0.00709910877 -0.006029452197 0.002173682209
v 0.007202603854 0.006053390447 0.002716151997
v 0.007206119131 -0.006048103794 0.002716396702
v 0.007272097748 0.0008622376481 0.0144118527
v 0.007272558752 -0.0008577644476 0.01441184524
v 0.007319204509 0.005815350451 0.002354077296
v 0.007322482299 -0.005810182542 0.002354315482
v 0.007348316722 0.00347045064 0.01125851274
v 0.007350180764 -0.003465935588 0.01125851087
v 0.007431942038 0.003810847877 -0.0002820840164
v 0.007433989085 -0.00380629045 -0.0002820797963
v 0.007557243574 2.312599008e-06 0.01379807387
v 0.007624833845 0.004231299739 0.0002524545998
v 0.007627107669 -0.004226638004 0.0002524548036
v 0.007636084687 0.00437489571 0.008192835376
v 0.007638434879 -0.004370225593 0.008192836307
v 0.007649901323 0.003912368324 -1.679391789e-05
v 0.007652002387 -0.003907693084 -1.6800921e-05
v 0.007699333597 0.005231333897 0.00492714718
v 0.007702144329 -0.005226629321 0.00492715463
v 0.007741312962 0.002645468572 0.01134184934
v 0.00774273416 -0.002640743507 0.01134184934
v 0.007755711209 0.003961653914 0.0002524484007
v 0.007757839281 -0.003956920002 0.0002524478477
v 0.007865453139 0.001262295642 -0.0004456610768
v 0.00786613021 -0.001257503638 -0.000445669546
v 0.007886888459 0.005270828493 0.003699432826
v 0.007891294546 -0.005264038686 0.003701255424
v 0.007897256874 0.002586883027 -0.0002820832597
v 0.007898646407 -0.002582071815 -0.0002820802911
v 0.007957427762 2.419920747e-06 -0.0004456745519
v 0.008021384478 0.005116529763 0.003311938141
v 0.008025220595 -0.00510993693 0.003313702764
v 0.00803882163 0.001784492866 0.0114035653
v 0.008039779961 -0.001779609127 0.01140356716
v 0.008077847771 0.00490735285 0.002930975752
v 0.00808103662 -0.004900984932 0.002932678442
v 0.008120802231 0.003575474257 0.008295130916
v 0.008122722618 -0.003570546862 0.008295123465
v 0.008127612993 0.002655793214 -1.679749039e-05
v 0.008129037917 -0.002650860464 -1.680006426e-05
v 0.008180566132 0.001308465376 -0.0002820840746
v 0.008181267418 -0.001303500962 -0.0002820870432
v 0.008227331564 0.0008995136595 0.01144188736
v 0.008227813989 -0.0008945288137 0.01144188643
v 0.00823944062 0.002689248417 0.000252448197
v 0.008240885101 -0.002684257692 0.0002524542797
v 0.008265917189 0.004478466231 0.005041957367
v 0.008268323727 -0.004473460373 0.005041967146
v 0.008275905624 2.506473265e-06 -0.000282079709
v 0.008293333463 2.508358648e-06 0.01145505905
v 0.008302043192 0.004578026477 0.003094692482
v 0.008304141462 -0.004572898615 0.003096430795
v 0.008418468758 0.001343320706 -1.679575871e-05
v 0.008419190533 -0.001338232309 -1.679338857e-05
v 0.008516347967 2.570679726e-06 -1.679706656e-05
v 0.008518007584 0.00272605638 0.008376788348
v 0.008519470692 -0.002720914315 0.008376774378
v 0.008533962071 0.001360239228 0.0002524534357
v 0.008534690365 -0.001355088549 0.0002524440933
v 0.008591840975 0.0008787316619 0.0002524436859
v 0.008592313156 -0.0008735482697 0.0002524548036
v 0.00862099044 0.004160531331 0.004200864118
v 0.008625576273 -0.004152945708 0.004203933291
v 0.008633073419 2.60190177e-06 0.0002524558222
v 0.00864167884 2.603859457e-06 0.01020391658
v 0.008716770448 0.004022160545 0.003800841747
v 0.008720422164 -0.004014777485 0.003803839907
v 0.008729098365 0.003841249505 0.003406616161
v 0.008731842041 -0.003834119299 0.003409522818
v 0.008751215413 0.003660951508 0.005138383247
v 0.008753181435 -0.003655683948 0.00513837859
v 0.008816126734 0.001839131583 0.008436598815
v 0.008817113005 -0.001833828399 0.008436598815
v 0.009003585204 0.0009271876188 0.008473366499
v 0.009004081599 -0.000921783736 0.008473361842
v 0.009068808518 2.721465535e-06 0.008485886268
v 0.009145556949 0.002791716717 0.005215292796
v 0.009147056378 -0.002786236815 0.005215298384
v 0.009162011556 0.00286124344 0.003737772349
v 0.009163366631 -0.00285476679 0.003738121595
v 0.009197378531 0.002913873177 0.004608717747
v 0.009199067019 -0.002906825626 0.004609026015
v 0.009236436337 0.002652229741 0.003797224723
v 0.009237619117 -0.00264571514 0.003797515994
v 0.0092602605 0.002797759371 0.004200346302
v 0.00926173944 -0.002790955361 0.004200645722
v 0.0094392756 0.001883675694 0.005271613132
v 0.009440285154 -0.001878038514 0.00527160801
v 0.009487086907 2.830166068e-06 0.006467840169
v 0.009567890316 0.001363470685 0.00407720264
v 0.009569507092 -0.001354777021 0.004081389401
v 0.00958415959 0.00152797997 0.004898927175
v 0.009588332847 -0.001518367091 0.004903320223
v 0.00961957965 0.001453318517 0.004485649522
v 0.009622437879 -0.00144414336 0.004489940125
v 0.00962269865 0.0009497596184 0.005306214094
v 0.009623207152 -0.0009440226713 0.005306217819
v 0.009626324289 0.0009767360752 0.00413160678
v 0.009627281688 -0.0009711507591 0.004134628456
v 0.009657668881 0.0006887699128 0.004162046127
v 0.009658508003 -0.0006816293462 0.004164116457
v 0.009689215571 2.885422646e-06 0.004193923436
v 0.009693771601 0.0007808037917 0.004986588378
v 0.009695856832 -0.0007732473314 0.004988765344
v 0.009718897752 0.0007386455545 0.004571979865
v 0.009720426984 -0.0007312694215 0.004574093036
v 0.009733520448 2.89593163e-06 0.005019508768
v 0.00975433737 2.904606617e-06 0.004604409449
f 496 138 169
f 512 529 448
f 9 29 11
f 11 4 9
f 88 72 60
f 60 72 29
f 60 504 88
f 524 504 60
f 3 5 1
f 504 180 143
f 1 4 22
f 11 29 38
f 29 72 38
f 34 22 4
f 551 780 752
f 799 780 551
f 645 504 524
f 186 180 504
f 470 493 463
f 463 493 486
f 189 201 496
f 10 3 49
f 252 141 241
f 200 211 201
f 194 197 200
f 816 854 850
f 544 491 521
f 553 514 540
f 702 721 698
f 862 866 873
f 873 864 862
f 724 728 747
f 747 757 724
f 724 757 751
f 751 779 552
f 757 779 751
f 6 4 1
f 111 138 496
f 10 65 36
f 76 71 36
f 88 504 115
f 504 143 115
f 115 104 88
f 434 351 389
f 389 543 434
f 320 357 351
f 320 475 357
f 206 195 481
f 481 186 504
f 195 186 481
f 483 415 488
f 488 415 425
f 449 351 434
f 530 513 449
f 449 513 431
f 724 552 534
f 811 534 552
f 543 389 591
f 530 543 592
f 543 591 592
f 547 483 488
f 537 551 672
f 537 534 800
f 799 551 812
f 551 537 812
f 776 748 768
f 768 806 776
f 783 806 768
f 401 463 399
f 401 403 470
f 470 463 401
f 496 169 185
f 185 189 496
f 201 211 214
f 496 201 214
f 174 185 169
f 448 529 499
f 499 461 448
f 473 461 499
f 285 298 279
f 279 482 243
f 496 482 279
f 279 298 496
f 276 337 280
f 280 337 285
f 285 248 280
f 496 298 332
f 349 298 285
f 285 337 349
f 349 332 298
f 356 332 349
f 448 408 349
f 349 337 448
f 244 248 285
f 244 279 243
f 285 279 244
f 696 719 732
f 686 719 696
f 688 728 724
f 688 692 728
f 724 534 688
f 732 719 759
f 241 141 130
f 141 125 130
f 59 65 10
f 10 49 59
f 141 252 152
f 390 346 388
f 388 441 390
f 87 56 58
f 202 197 205
f 202 200 197
f 211 200 203
f 200 202 203
f 194 200 190
f 201 189 198
f 198 200 201
f 198 190 200
f 865 854 861
f 869 865 861
f 860 828 853
f 853 864 860
f 853 815 849
f 828 815 853
f 859 873 866
f 877 873 859
f 808 841 827
f 841 848 827
f 843 848 858
f 843 827 848
f 491 544 518
f 579 544 597
f 597 614 579
f 521 491 479
f 491 441 479
f 450 441 491
f 450 390 441
f 514 553 525
f 682 618 654
f 654 618 601
f 675 652 624
f 690 698 721
f 773 744 749
f 749 746 773
f 721 746 749
f 588 610 640
f 657 614 597
f 597 625 657
f 577 625 597
f 577 544 521
f 597 544 577
f 817 788 784
f 860 864 868
f 872 871 834
f 834 870 872
f 878 871 872
f 872 870 878
f 830 870 834
f 830 868 870
f 830 828 860
f 860 868 830
f 864 873 875
f 878 870 875
f 875 877 878
f 875 873 877
f 875 868 864
f 870 868 875
f 718 552 724
f 724 751 718
f 718 751 552
f 29 9 13
f 13 60 29
f 524 60 13
f 1 5 2
f 2 6 1
f 524 6 2
f 2 523 524
f 2 534 523
f 5 534 2
f 496 57 84
f 84 111 496
f 57 71 84
f 109 134 127
f 127 111 109
f 127 134 138
f 138 111 127
f 27 71 57
f 27 36 71
f 27 12 10
f 10 36 27
f 522 545 578
f 433 443 480
f 160 401 399
f 58 56 44
f 44 54 58
f 1 22 17
f 25 3 1
f 1 14 25
f 365 389 351
f 365 591 389
f 481 591 365
f 300 320 351
f 295 475 300
f 475 320 300
f 206 481 476
f 481 365 476
f 357 475 476
f 410 483 478
f 478 407 410
f 405 478 470
f 405 407 478
f 470 403 405
f 530 449 474
f 7 534 5
f 12 534 7
f 5 3 7
f 7 3 10
f 10 12 7
f 31 534 12
f 31 27 57
f 12 27 31
f 31 57 496
f 496 534 31
f 552 779 798
f 798 811 552
f 798 779 809
f 809 811 798
f 823 811 809
f 809 815 823
f 823 815 828
f 828 830 823
f 800 534 794
f 794 811 800
f 534 811 794
f 810 816 793
f 799 812 810
f 810 812 824
f 861 854 829
f 854 816 829
f 816 810 829
f 829 810 824
f 595 547 568
f 568 547 488
f 478 483 501
f 470 478 501
f 501 493 470
f 758 551 752
f 758 768 748
f 783 768 758
f 551 758 726
f 726 758 748
f 660 537 672
f 672 674 660
f 660 645 524
f 795 537 800
f 800 812 795
f 795 812 537
f 833 797 802
f 776 806 802
f 833 802 837
f 645 649 638
f 638 649 639
f 638 591 481
f 639 592 638
f 638 592 591
f 664 649 645
f 645 660 664
f 664 660 674
f 664 687 649
f 706 674 693
f 397 395 342
f 399 463 397
f 492 480 443
f 492 506 519
f 522 480 492
f 519 545 492
f 492 545 522
f 236 482 496
f 496 214 236
f 243 482 236
f 236 214 211
f 236 244 243
f 211 244 236
f 163 174 169
f 134 174 163
f 163 169 138
f 138 134 163
f 156 149 159
f 465 499 439
f 439 461 465
f 205 213 209
f 209 203 205
f 211 203 209
f 728 692 705
f 705 696 732
f 368 349 408
f 542 499 529
f 529 570 542
f 603 570 529
f 529 512 603
f 703 719 686
f 686 669 703
f 796 788 817
f 771 742 732
f 732 759 771
f 771 796 801
f 759 796 771
f 646 669 615
f 646 618 682
f 682 703 646
f 646 703 669
f 601 618 575
f 546 525 575
f 575 553 601
f 575 525 553
f 129 130 125
f 101 125 99
f 76 36 90
f 90 93 76
f 101 75 82
f 46 55 75
f 51 77 86
f 113 109 76
f 76 93 113
f 123 125 141
f 123 99 125
f 137 123 141
f 133 123 137
f 141 152 151
f 151 137 141
f 149 137 151
f 330 337 276
f 269 330 276
f 324 330 269
f 346 390 392
f 394 341 392
f 392 341 346
f 392 450 394
f 390 450 392
f 308 341 253
f 346 341 308
f 388 346 359
f 61 87 58
f 61 54 63
f 58 54 61
f 204 202 205
f 205 203 204
f 204 203 202
f 188 198 189
f 190 198 188
f 189 185 188
f 185 174 188
f 188 174 183
f 183 190 188
f 877 859 874
f 854 865 856
f 850 854 856
f 770 748 776
f 818 797 833
f 833 841 818
f 818 841 808
f 808 785 818
f 808 827 791
f 814 843 845
f 845 859 846
f 845 843 858
f 723 721 702
f 723 746 721
f 814 820 781
f 773 746 781
f 432 441 388
f 432 479 441
f 491 518 505
f 505 450 491
f 540 514 505
f 505 518 540
f 500 525 546
f 514 525 500
f 620 654 601
f 620 624 652
f 573 553 540
f 601 553 573
f 573 620 601
f 698 690 661
f 684 620 652
f 654 620 684
f 675 734 709
f 740 684 709
f 709 652 675
f 709 684 652
f 777 716 738
f 765 744 773
f 588 640 608
f 625 577 608
f 625 608 667
f 667 608 640
f 667 640 680
f 680 707 667
f 667 707 694
f 614 657 679
f 675 624 679
f 679 624 614
f 677 657 625
f 625 667 677
f 677 667 694
f 677 679 657
f 716 679 677
f 734 784 763
f 763 709 734
f 740 709 763
f 763 784 788
f 844 859 866
f 846 859 844
f 862 851 857
f 842 844 857
f 857 866 862
f 857 844 866
f 8 13 9
f 8 9 4
f 4 6 8
f 8 6 524
f 524 13 8
f 103 71 76
f 103 84 71
f 76 109 103
f 109 111 103
f 111 84 103
f 128 115 143
f 143 142 128
f 128 142 115
f 40 34 4
f 157 142 143
f 50 4 11
f 50 40 4
f 387 384 375
f 433 384 387
f 391 443 387
f 387 443 433
f 391 193 393
f 393 193 395
f 342 395 196
f 395 193 196
f 22 34 24
f 56 53 43
f 43 44 56
f 45 54 32
f 54 44 32
f 30 24 32
f 32 43 30
f 44 43 32
f 1 17 16
f 35 49 3
f 3 25 35
f 351 357 358
f 358 365 351
f 357 476 358
f 358 476 365
f 180 186 173
f 415 483 412
f 483 410 412
f 412 322 415
f 455 449 434
f 520 543 530
f 530 474 520
f 434 543 520
f 520 455 434
f 824 812 825
f 811 823 825
f 825 830 834
f 825 823 830
f 831 869 861
f 861 829 831
f 871 869 831
f 834 871 831
f 831 825 834
f 831 829 824
f 824 825 831
f 498 568 488
f 488 425 498
f 431 513 498
f 498 425 431
f 595 568 617
f 617 647 595
f 670 647 617
f 483 547 538
f 538 501 483
f 576 547 595
f 576 538 547
f 565 538 576
f 554 565 590
f 590 574 554
f 783 758 787
f 793 783 787
f 752 780 787
f 787 758 752
f 787 810 793
f 787 780 799
f 799 810 787
f 672 551 689
f 551 726 689
f 689 674 672
f 693 674 689
f 731 706 693
f 727 706 731
f 693 689 731
f 731 689 726
f 731 726 748
f 731 743 727
f 748 770 731
f 770 743 731
f 527 660 524
f 537 660 527
f 534 537 527
f 524 523 527
f 523 534 527
f 797 760 772
f 772 802 797
f 776 802 772
f 772 770 776
f 772 743 770
f 839 816 850
f 793 816 839
f 850 856 839
f 839 856 837
f 639 649 643
f 649 687 643
f 504 645 635
f 645 638 635
f 635 481 504
f 635 638 481
f 733 706 727
f 727 743 733
f 743 772 733
f 733 760 720
f 733 772 760
f 697 664 674
f 674 706 697
f 687 664 697
f 706 733 697
f 720 687 697
f 697 733 720
f 452 397 463
f 395 397 452
f 452 463 486
f 452 393 395
f 452 492 443
f 452 443 391
f 391 393 452
f 486 506 452
f 506 492 452
f 149 156 147
f 147 137 149
f 133 137 147
f 473 499 467
f 499 465 467
f 467 461 473
f 467 465 461
f 213 222 218
f 218 209 213
f 248 244 218
f 218 222 248
f 218 244 211
f 211 209 218
f 742 728 725
f 728 705 725
f 732 742 725
f 725 705 732
f 633 332 356
f 673 705 692
f 696 705 673
f 671 688 534
f 692 688 671
f 671 673 692
f 356 349 364
f 349 368 364
f 364 633 356
f 439 499 435
f 499 542 435
f 435 542 408
f 435 408 448
f 448 461 435
f 435 461 439
f 631 669 686
f 615 669 631
f 585 567 615
f 615 631 585
f 585 631 603
f 585 603 512
f 736 759 719
f 719 703 736
f 736 703 682
f 742 771 769
f 769 728 742
f 769 747 728
f 593 575 618
f 593 646 615
f 618 646 593
f 546 575 593
f 593 567 546
f 615 567 593
f 83 36 65
f 83 90 36
f 101 82 106
f 106 82 126
f 106 125 101
f 225 86 77
f 96 113 93
f 93 90 96
f 96 83 99
f 90 83 96
f 119 123 133
f 109 113 119
f 113 96 119
f 99 123 119
f 119 96 99
f 254 152 252
f 254 151 152
f 253 151 254
f 254 308 253
f 252 260 254
f 346 308 254
f 396 341 394
f 394 450 396
f 253 341 299
f 299 341 335
f 299 251 253
f 335 251 299
f 161 251 239
f 253 251 161
f 161 151 253
f 159 149 161
f 149 151 161
f 288 328 326
f 239 328 288
f 288 223 239
f 239 251 292
f 292 328 239
f 292 251 335
f 335 328 292
f 430 330 324
f 324 423 430
f 337 330 430
f 448 337 430
f 430 512 448
f 423 451 430
f 289 301 346
f 346 254 289
f 289 254 260
f 346 301 340
f 340 359 346
f 247 271 265
f 876 874 865
f 876 871 878
f 878 877 876
f 877 874 876
f 876 869 871
f 865 869 876
f 867 874 859
f 859 845 867
f 863 856 865
f 863 845 858
f 863 867 845
f 865 874 863
f 874 867 863
f 833 837 852
f 837 856 852
f 852 841 833
f 852 848 841
f 858 848 852
f 852 863 858
f 856 863 852
f 836 821 801
f 792 815 809
f 801 821 805
f 797 818 789
f 789 818 785
f 678 717 739
f 720 760 737
f 827 843 804
f 804 791 827
f 804 843 814
f 804 766 791
f 808 791 778
f 778 791 739
f 739 717 778
f 778 785 808
f 835 820 814
f 814 845 835
f 835 845 846
f 846 844 835
f 739 791 754
f 791 766 754
f 746 723 722
f 699 691 722
f 702 699 722
f 722 723 702
f 774 781 746
f 814 781 774
f 774 804 814
f 766 804 774
f 383 359 366
f 388 359 383
f 383 432 388
f 479 432 457
f 558 535 588
f 588 608 558
f 558 608 577
f 558 577 521
f 622 610 583
f 583 532 555
f 516 500 546
f 546 567 516
f 567 585 516
f 462 505 514
f 450 505 462
f 462 396 450
f 563 573 540
f 540 518 563
f 563 518 544
f 544 579 563
f 624 620 594
f 620 573 594
f 614 624 594
f 594 579 614
f 594 563 579
f 573 563 594
f 650 610 622
f 622 661 650
f 650 640 610
f 680 640 650
f 650 690 680
f 650 661 690
f 682 654 711
f 654 684 711
f 711 684 740
f 711 736 682
f 755 784 734
f 755 777 784
f 716 777 755
f 753 765 790
f 738 753 790
f 790 777 738
f 680 690 714
f 714 707 680
f 714 690 721
f 744 707 714
f 721 749 714
f 714 749 744
f 694 707 729
f 729 707 744
f 744 765 729
f 729 765 753
f 675 679 700
f 700 679 716
f 700 734 675
f 700 755 734
f 716 755 700
f 738 716 713
f 716 677 713
f 713 677 694
f 694 729 713
f 713 753 738
f 713 729 753
f 847 840 826
f 851 840 847
f 847 857 851
f 826 842 847
f 842 857 847
f 826 840 807
f 784 777 807
f 817 784 807
f 807 840 817
f 807 790 826
f 777 790 807
f 773 781 813
f 813 781 820
f 813 844 842
f 820 835 813
f 813 835 844
f 34 40 37
f 37 24 34
f 37 50 45
f 40 50 37
f 45 32 37
f 37 32 24
f 164 143 180
f 180 157 164
f 164 157 143
f 142 157 155
f 431 425 325
f 325 425 415
f 415 322 325
f 331 325 270
f 431 325 331
f 351 449 339
f 339 449 431
f 431 331 339
f 347 193 391
f 391 387 347
f 166 160 399
f 399 397 166
f 166 196 193
f 166 397 342
f 342 196 166
f 15 14 1
f 1 16 15
f 20 16 17
f 39 35 25
f 39 46 49
f 49 35 39
f 199 195 206
f 165 157 180
f 180 173 165
f 407 405 175
f 327 410 407
f 407 175 327
f 327 175 179
f 327 179 322
f 327 412 410
f 322 412 327
f 449 455 466
f 455 520 466
f 811 825 819
f 819 825 812
f 800 811 819
f 819 812 800
f 604 592 639
f 604 513 530
f 530 592 604
f 486 493 515
f 515 506 486
f 526 538 565
f 565 554 526
f 501 538 526
f 554 515 526
f 493 501 526
f 526 515 493
f 580 596 616
f 793 839 822
f 822 783 793
f 822 806 783
f 822 839 837
f 822 802 806
f 822 837 802
f 133 147 139
f 139 134 109
f 139 174 134
f 139 147 174
f 109 119 139
f 139 119 133
f 174 147 154
f 154 147 156
f 183 174 154
f 154 190 183
f 332 633 630
f 630 633 644
f 496 332 630
f 630 644 496
f 569 368 408
f 569 364 368
f 633 364 569
f 408 542 569
f 569 542 570
f 642 631 686
f 673 671 659
f 659 671 534
f 659 534 496
f 496 644 659
f 759 736 761
f 761 711 740
f 736 711 761
f 788 796 761
f 761 796 759
f 761 763 788
f 740 763 761
f 99 83 70
f 70 75 101
f 101 99 70
f 70 46 75
f 70 59 49
f 49 46 70
f 494 420 454
f 55 46 33
f 46 26 33
f 30 43 33
f 43 42 33
f 216 222 213
f 248 222 216
f 221 223 240
f 487 451 444
f 512 430 497
f 497 430 451
f 497 451 487
f 487 516 497
f 497 585 512
f 497 516 585
f 284 271 264
f 353 329 187
f 698 661 665
f 702 698 665
f 665 656 702
f 665 628 656
f 665 661 622
f 622 628 665
f 314 265 310
f 265 271 310
f 855 836 851
f 855 853 849
f 864 853 855
f 862 864 855
f 855 851 862
f 821 836 838
f 838 792 821
f 838 855 849
f 836 855 838
f 849 815 838
f 815 792 838
f 801 796 832
f 832 836 801
f 832 796 817
f 817 840 832
f 832 840 851
f 851 836 832
f 786 779 757
f 809 779 786
f 786 792 809
f 757 747 767
f 821 792 782
f 782 805 821
f 782 767 805
f 757 767 782
f 782 786 757
f 792 786 782
f 764 789 785
f 785 735 764
f 762 737 760
f 762 760 797
f 797 789 762
f 762 764 741
f 789 764 762
f 717 678 658
f 678 627 658
f 602 621 590
f 590 565 602
f 565 576 602
f 590 621 612
f 612 574 590
f 612 596 574
f 621 653 612
f 720 737 704
f 704 687 720
f 670 687 704
f 704 647 670
f 621 602 655
f 626 612 653
f 616 596 626
f 596 612 626
f 741 764 710
f 710 764 735
f 756 778 717
f 756 735 785
f 785 778 756
f 766 774 745
f 746 722 750
f 750 774 746
f 750 745 774
f 416 383 366
f 432 383 416
f 416 457 432
f 507 558 521
f 535 558 507
f 521 479 507
f 479 457 507
f 457 416 437
f 532 583 561
f 561 535 509
f 509 532 561
f 588 535 561
f 561 610 588
f 561 583 610
f 803 813 842
f 803 842 826
f 826 790 803
f 803 790 765
f 803 765 773
f 773 813 803
f 508 480 522
f 428 446 472
f 556 528 511
f 511 528 472
f 490 510 533
f 556 511 533
f 146 155 148
f 142 155 146
f 158 160 148
f 148 155 158
f 158 175 160
f 322 179 274
f 274 325 322
f 270 325 274
f 47 52 51
f 53 52 47
f 47 43 53
f 47 42 43
f 21 20 17
f 21 17 22
f 22 24 21
f 21 24 30
f 18 15 16
f 16 20 18
f 14 15 18
f 19 25 14
f 14 18 19
f 23 26 46
f 46 39 23
f 23 19 18
f 23 39 25
f 25 19 23
f 23 18 20
f 177 405 403
f 177 175 405
f 403 401 177
f 401 160 177
f 160 175 177
f 167 165 173
f 167 158 155
f 167 155 157
f 157 165 167
f 178 199 206
f 195 199 178
f 178 186 195
f 178 173 186
f 178 167 173
f 468 474 449
f 449 466 468
f 468 520 474
f 468 466 520
f 586 617 568
f 513 604 586
f 586 498 513
f 568 498 586
f 670 617 632
f 617 586 632
f 632 586 604
f 632 687 670
f 632 643 687
f 639 643 632
f 632 604 639
f 519 506 541
f 506 515 541
f 541 554 574
f 541 515 554
f 603 631 637
f 631 642 637
f 663 659 644
f 673 659 663
f 696 673 663
f 686 696 663
f 68 83 65
f 68 70 83
f 65 59 68
f 59 70 68
f 246 255 114
f 126 82 114
f 224 106 126
f 126 114 224
f 224 114 255
f 301 289 302
f 302 340 301
f 266 255 246
f 62 102 82
f 75 55 62
f 62 82 75
f 62 55 51
f 51 86 62
f 246 102 237
f 258 266 237
f 237 266 246
f 261 229 226
f 226 257 261
f 233 257 226
f 228 259 225
f 228 225 77
f 291 265 314
f 238 257 233
f 265 291 238
f 238 291 257
f 313 266 258
f 309 266 313
f 354 309 313
f 41 33 42
f 42 47 41
f 55 33 41
f 30 33 28
f 28 33 26
f 26 23 28
f 28 23 20
f 28 21 30
f 20 21 28
f 172 210 208
f 215 223 221
f 221 210 215
f 215 172 223
f 210 172 215
f 220 234 269
f 220 216 208
f 208 210 220
f 220 210 221
f 221 234 220
f 223 288 282
f 282 240 223
f 282 288 326
f 326 321 282
f 273 234 221
f 221 240 273
f 240 282 273
f 273 282 321
f 269 234 273
f 324 269 273
f 273 321 324
f 487 444 477
f 477 516 487
f 500 516 477
f 406 404 444
f 326 328 406
f 328 404 406
f 414 444 451
f 271 284 307
f 307 310 271
f 353 187 191
f 264 271 144
f 305 334 338
f 305 307 284
f 375 384 367
f 433 480 458
f 485 436 458
f 480 508 458
f 458 508 485
f 485 510 456
f 456 510 490
f 656 628 605
f 605 628 606
f 805 767 775
f 801 805 775
f 747 769 775
f 775 767 747
f 775 771 801
f 775 769 771
f 598 580 616
f 598 627 578
f 598 578 545
f 545 580 598
f 619 655 602
f 619 602 576
f 595 647 619
f 619 576 595
f 712 762 741
f 737 762 712
f 616 626 634
f 634 598 616
f 634 658 627
f 627 598 634
f 676 626 653
f 653 710 676
f 676 710 735
f 676 634 626
f 691 651 681
f 373 416 366
f 379 437 373
f 373 437 416
f 509 535 484
f 535 507 484
f 484 507 457
f 457 437 484
f 472 446 460
f 460 511 472
f 494 454 517
f 566 549 517
f 490 533 502
f 502 533 511
f 502 460 490
f 511 460 502
f 522 578 559
f 559 508 522
f 641 681 651
f 556 533 584
f 629 605 607
f 656 605 629
f 179 181 182
f 182 274 179
f 270 274 182
f 212 178 206
f 181 178 212
f 295 300 286
f 286 300 351
f 351 339 286
f 171 178 181
f 167 178 171
f 179 175 171
f 171 181 179
f 175 158 171
f 158 167 171
f 564 541 574
f 574 596 564
f 596 580 564
f 519 541 564
f 564 545 519
f 564 580 545
f 633 569 636
f 644 633 636
f 110 102 246
f 246 114 110
f 82 102 110
f 110 114 82
f 242 224 255
f 106 224 242
f 125 106 242
f 242 129 125
f 359 340 333
f 340 302 333
f 366 359 333
f 333 373 366
f 302 304 333
f 91 62 86
f 102 62 91
f 91 237 102
f 258 237 232
f 86 225 232
f 232 91 86
f 237 91 232
f 232 259 258
f 225 259 232
f 233 226 81
f 87 233 81
f 56 87 81
f 81 53 56
f 79 229 77
f 79 226 229
f 79 81 226
f 79 52 53
f 53 81 79
f 316 291 314
f 261 257 294
f 257 291 294
f 97 238 89
f 63 97 89
f 89 233 87
f 89 238 233
f 89 61 63
f 87 61 89
f 354 381 370
f 379 344 370
f 354 313 361
f 361 381 354
f 361 369 427
f 427 381 361
f 48 47 51
f 48 41 47
f 51 55 48
f 55 41 48
f 239 223 176
f 223 172 176
f 176 161 239
f 159 161 176
f 176 172 159
f 168 172 208
f 205 197 168
f 168 197 194
f 168 156 159
f 159 172 168
f 194 190 168
f 190 154 168
f 168 154 156
f 227 220 269
f 216 220 227
f 227 269 276
f 276 280 227
f 227 280 248
f 248 216 227
f 469 477 444
f 444 404 469
f 469 400 462
f 500 477 469
f 514 500 469
f 469 462 514
f 418 451 423
f 418 414 451
f 418 423 324
f 324 321 418
f 321 414 418
f 409 406 444
f 326 406 409
f 131 187 184
f 131 140 187
f 193 347 192
f 192 347 387
f 187 140 145
f 145 191 187
f 63 54 73
f 73 97 63
f 73 54 45
f 45 50 69
f 69 73 45
f 74 73 69
f 162 284 264
f 264 144 162
f 136 144 271
f 334 305 303
f 303 305 284
f 303 284 184
f 184 187 303
f 303 187 329
f 303 329 353
f 353 334 303
f 360 334 353
f 360 367 334
f 375 367 360
f 360 387 375
f 360 192 387
f 353 191 360
f 191 192 360
f 374 380 338
f 338 334 374
f 334 367 374
f 438 436 485
f 485 456 438
f 581 549 566
f 548 539 494
f 494 517 548
f 548 517 549
f 471 420 494
f 471 427 420
f 489 532 509
f 741 710 685
f 685 712 741
f 685 710 653
f 655 712 685
f 685 653 621
f 621 655 685
f 683 704 737
f 737 712 683
f 683 712 655
f 647 704 683
f 683 619 647
f 655 619 683
f 658 634 701
f 634 676 701
f 717 658 701
f 701 676 735
f 701 756 717
f 735 756 701
f 745 708 730
f 730 754 766
f 766 745 730
f 739 754 730
f 668 708 681
f 681 641 668
f 668 627 678
f 715 708 745
f 715 750 722
f 745 750 715
f 715 722 691
f 691 681 715
f 681 708 715
f 442 456 490
f 490 460 442
f 560 582 566
f 566 517 560
f 572 582 550
f 572 528 556
f 572 550 528
f 495 517 454
f 472 528 495
f 528 550 495
f 550 517 495
f 536 559 589
f 508 559 536
f 536 510 485
f 485 508 536
f 609 641 589
f 578 627 609
f 627 668 609
f 609 668 641
f 609 559 578
f 589 559 609
f 589 641 611
f 611 641 651
f 651 623 611
f 623 584 611
f 656 629 666
f 666 699 702
f 702 656 666
f 666 629 623
f 181 212 219
f 219 212 245
f 235 250 245
f 245 212 235
f 235 212 206
f 475 250 235
f 206 476 235
f 235 476 475
f 245 250 262
f 262 286 245
f 295 286 262
f 262 475 295
f 262 250 475
f 245 286 249
f 181 219 249
f 249 219 245
f 613 569 570
f 613 636 569
f 637 636 613
f 570 603 613
f 603 637 613
f 648 663 644
f 644 636 648
f 648 636 637
f 648 637 642
f 648 642 686
f 686 663 648
f 306 344 304
f 306 266 309
f 304 344 336
f 336 333 304
f 373 333 336
f 379 373 336
f 336 344 379
f 78 77 51
f 78 79 77
f 51 52 78
f 52 79 78
f 267 296 259
f 267 275 296
f 259 228 267
f 369 361 315
f 315 361 313
f 315 376 369
f 317 376 315
f 259 296 293
f 258 259 293
f 296 275 312
f 312 293 296
f 291 316 318
f 318 294 291
f 419 370 381
f 348 370 344
f 348 306 309
f 344 306 348
f 348 309 354
f 354 370 348
f 205 168 207
f 207 168 208
f 208 216 207
f 207 213 205
f 207 216 213
f 396 462 398
f 462 400 398
f 398 400 335
f 335 341 398
f 341 396 398
f 402 328 335
f 335 400 402
f 402 404 328
f 402 469 404
f 400 469 402
f 444 414 411
f 411 409 444
f 411 414 321
f 411 321 326
f 326 409 411
f 153 192 191
f 191 145 153
f 193 192 153
f 153 166 193
f 85 112 80
f 80 74 85
f 80 73 74
f 97 73 107
f 107 112 247
f 107 80 112
f 73 80 107
f 107 238 97
f 107 247 265
f 265 238 107
f 67 69 50
f 184 284 170
f 284 162 170
f 121 170 162
f 121 131 184
f 184 170 121
f 117 136 271
f 271 247 117
f 247 112 117
f 117 112 85
f 338 380 345
f 345 305 338
f 307 305 345
f 436 380 429
f 380 374 429
f 374 417 429
f 429 458 436
f 429 417 458
f 426 438 456
f 456 442 426
f 426 380 436
f 436 438 426
f 607 605 587
f 587 582 607
f 587 605 606
f 606 581 587
f 566 582 587
f 587 581 566
f 599 581 606
f 599 583 555
f 622 583 599
f 599 628 622
f 606 628 599
f 549 581 571
f 571 548 549
f 539 548 571
f 555 539 571
f 571 599 555
f 581 599 571
f 427 471 445
f 445 471 459
f 445 381 427
f 445 419 381
f 459 419 445
f 494 539 531
f 531 471 494
f 531 539 555
f 695 678 739
f 739 730 695
f 695 730 708
f 695 668 678
f 708 668 695
f 421 460 446
f 421 442 460
f 550 582 557
f 582 560 557
f 557 517 550
f 557 560 517
f 600 584 623
f 556 584 600
f 600 572 556
f 600 629 607
f 623 629 600
f 607 582 600
f 582 572 600
f 562 536 589
f 589 611 562
f 562 611 584
f 562 584 533
f 562 533 510
f 510 536 562
f 662 623 651
f 662 666 623
f 662 651 691
f 662 691 699
f 699 666 662
f 281 249 286
f 281 286 339
f 263 242 255
f 287 304 302
f 287 283 304
f 287 263 283
f 231 267 228
f 77 229 231
f 231 228 77
f 231 229 261
f 377 376 420
f 369 376 377
f 420 427 377
f 427 369 377
f 317 315 290
f 258 293 290
f 290 293 317
f 290 313 258
f 290 315 313
f 317 293 323
f 293 312 323
f 323 376 317
f 378 371 428
f 319 312 275
f 464 489 509
f 166 153 150
f 148 160 150
f 160 166 150
f 150 153 145
f 150 145 140
f 11 38 66
f 108 162 144
f 108 121 162
f 433 458 413
f 458 417 413
f 413 384 433
f 413 367 384
f 413 374 367
f 413 417 374
f 459 471 503
f 471 531 503
f 503 489 459
f 503 531 555
f 555 532 503
f 532 489 503
f 314 310 355
f 386 426 442
f 442 421 386
f 380 426 386
f 277 331 270
f 277 339 331
f 277 281 339
f 249 281 230
f 281 277 230
f 230 182 181
f 270 182 230
f 230 277 270
f 278 263 255
f 283 263 278
f 255 266 278
f 266 306 278
f 304 283 278
f 278 306 304
f 272 287 302
f 272 289 260
f 272 302 289
f 242 263 256
f 263 287 256
f 287 272 256
f 129 242 256
f 256 252 241
f 241 130 256
f 130 129 256
f 256 260 252
f 256 272 260
f 268 231 261
f 267 231 268
f 261 275 268
f 275 267 268
f 294 318 311
f 311 319 275
f 343 323 312
f 312 319 343
f 420 376 343
f 376 323 343
f 319 311 363
f 363 343 319
f 363 454 420
f 420 343 363
f 509 484 453
f 453 464 509
f 64 50 11
f 11 66 64
f 64 67 50
f 64 66 67
f 144 136 105
f 105 108 144
f 131 121 124
f 121 122 124
f 140 131 124
f 124 122 140
f 142 146 132
f 115 142 132
f 115 132 120
f 314 355 362
f 362 316 314
f 362 371 316
f 428 371 362
f 350 355 310
f 310 307 350
f 307 345 350
f 181 249 217
f 217 230 181
f 249 230 217
f 261 294 297
f 294 311 297
f 297 275 261
f 297 311 275
f 352 318 316
f 352 311 318
f 352 363 311
f 316 371 352
f 371 378 352
f 447 484 437
f 447 453 484
f 464 453 440
f 489 464 440
f 459 489 440
f 440 419 459
f 136 117 94
f 94 105 136
f 94 117 85
f 85 74 94
f 74 69 94
f 108 105 100
f 121 108 100
f 105 94 100
f 140 122 135
f 122 132 135
f 148 150 135
f 135 150 140
f 135 146 148
f 135 132 146
f 382 362 355
f 382 421 446
f 446 428 382
f 428 362 382
f 372 386 421
f 355 350 372
f 372 350 345
f 421 382 372
f 372 382 355
f 372 345 380
f 380 386 372
f 454 363 422
f 363 352 422
f 422 352 378
f 472 495 422
f 422 495 454
f 422 428 472
f 422 378 428
f 424 440 453
f 453 447 424
f 424 437 379
f 424 447 437
f 92 66 38
f 92 38 72
f 92 72 88
f 69 67 95
f 67 66 95
f 66 92 95
f 98 94 69
f 98 100 94
f 69 95 98
f 98 122 121
f 121 100 98
f 440 424 385
f 370 419 385
f 419 440 385
f 379 370 385
f 385 424 379
f 118 132 122
f 118 120 132
f 122 98 118
f 118 98 95
f 116 95 92
f 116 118 95
f 120 118 116
f 116 92 88
f 88 104 116
f 104 115 116
f 115 120 116
