v -0.009149420075 0.0002011912002 -0.006988070905
v -0.009064634331 0.001381856971 -0.006989836693
v -0.009064633399 -0.0009794738144 -0.006989842281
v -0.009049999528 5.347828846e-09 0.02550991811
v -0.009049068205 0.0001206395609 0.02550571598
v -0.009047333151 -0.0002071227937 0.02550216392
v -0.009045335464 0.0002722233476 0.02549844421
v -0.00903389696 0.0001236481476 0.02558252215
v -0.009030099027 0.0002760965435 0.02557513863
v -0.00902934745 0.0005744607188 0.02547704056
v -0.009013894014 0.0005800744402 0.02555335127
v -0.008993331343 -0.000953277573 0.02543906868
v -0.008993058465 0.0009530762909 0.02543642186
v -0.008978866972 -0.001477547223 -0.00699163042
v -0.008978866972 0.001879934687 -0.006991624832
v -0.008963502012 0.001173205674 0.02540513314
v -0.008960641921 -0.001194953918 0.02540398203
v -0.008909251541 0.001493874937 0.02534737997
v -0.008898802102 -0.00154855696 0.02533645928
v -0.008824238554 -0.001887411578 0.02351040021
v -0.008812454529 -0.002168300562 -0.006995096803
v -0.008812453598 0.002570683835 -0.006995093077
v -0.008778806776 -0.002065099077 0.0233457312
v -0.008707163855 0.002316751983 0.02510842867
v -0.008701296523 -0.002334283199 0.02510199137
v -0.008598544635 0.002649396192 0.02496494539
v -0.00857942272 -0.002702952363 0.02494076081
v -0.008542763069 0.00280336407 0.02488781326
v -0.008501311764 -0.003108008765 -0.007001582533
v -0.008501310833 0.003510395996 -0.007001584396
v -0.008342429996 0.003910792526 -0.006918234751
v -0.008325569332 0.003326548962 0.02457213961
v -0.008320715278 -0.003338327399 0.02456572093
v -0.008145635016 0.003694840241 0.02430289611
v -0.008121186867 -0.00374148041 0.02426559106
v -0.008047904819 -0.004160364624 -0.006761606783
v -0.007825284265 -0.004599242937 -0.006640546024
v -0.007825284265 0.005001626443 -0.006640546024
v -0.007769357413 -0.004341224674 0.02371675335
v -0.007723655552 0.005192049779 -0.006582487375
v -0.007590902969 0.002237656154 0.03213649616
v -0.007590409368 -0.001836167183 0.03213691339
v -0.007576917298 0.002250405727 0.03218210116
v -0.007576401345 -0.001848874614 0.03218249232
v -0.007570865564 -0.00118935667 0.03227919713
v -0.007569494657 0.001591267879 0.03228900954
v -0.007561413571 0.001597585157 0.03231978416
v -0.007552488707 0.002018392552 0.03228271753
v -0.007552311756 0.005397931673 0.005643263459
v -0.007552095689 -0.001616613707 0.03228308633
v -0.007545586675 0.002429445507 0.03217736632
v -0.007545152679 -0.00202577142 0.03217840567
v -0.007543185726 0.002468847204 0.03216607869
v -0.007542652078 -0.002066600136 0.03216672316
v -0.007537374273 0.001607891987 0.03236650303
v -0.007537216879 -0.001207923167 0.03236647695
v -0.007532229647 0.002595624188 0.0321283564
v -0.007531510666 -0.002193895401 0.03212891147
v -0.007525178604 0.002894689562 0.03192905337
v -0.007524451241 -0.00249227928 0.03192999959
v -0.007522073574 0.001322461991 0.0324100405
v -0.007521907799 -0.0009207873372 0.03241024539
v -0.007518943399 0.005467404146 0.005675953813
v -0.007515438832 0.002723326907 0.03208808601
v -0.007514773868 -0.002321066568 0.03208884224
v -0.007508065552 0.001035010908 0.03243904188
v -0.007507937029 -0.000632651092 0.0324392356
v -0.007504682057 0.002909627976 0.03197927028
v -0.007503943518 -0.002507176017 0.03198017552
v -0.007498387247 0.0008232284454 0.03245196864
v -0.007498324849 -0.0004217601963 0.03245205432
v -0.007495368831 0.002822709968 0.03205598146
v -0.007494716905 -0.002420087811 0.03205686063
v -0.007486863062 0.000201188348 0.03246647492
v -0.007470696233 0.002918782178 0.03202318028
v -0.007469973527 -0.002516288543 0.03202405199
v -0.007435631007 0.002913468983 0.03206462413
v -0.00743526686 -0.002511037048 0.03206505999
v -0.007414486259 0.003105381969 0.03195246309
v -0.007413766347 -0.002702546539 0.03195351735
v -0.007399850525 -0.002506369492 0.0321056582
v -0.007399848662 0.002908744849 0.0321056582
v -0.007394670509 -0.002492035273 0.0321207419
v -0.007335993461 0.001886193291 0.03258090466
v -0.00733599253 -0.00148381514 0.03258090466
v -0.007333002985 0.003341998905 0.03185369074
v -0.00733219739 -0.002938988153 0.03185490519
v -0.0073299082 0.003008016851 0.03210671246
v -0.007312265225 0.003517169971 0.03172673285
v -0.007271092385 0.003525548615 0.03176938742
v -0.007267697714 -0.003129662015 0.03176739067
v -0.007239620201 -0.005601691082 0.005987078883
v -0.007221445441 0.006036683917 0.006011559628
v -0.007221149281 0.002603790723 0.03245239705
v -0.007207836956 -0.005667198915 -0.006281325594
v -0.007205910981 0.003735273145 0.03166487068
v -0.007203849964 -0.003335264977 0.03166476265
v -0.007174058817 -0.002137033967 0.03252473474
v -0.007166164927 0.004083661363 0.03141820803
v -0.007156538777 -0.002796333749 0.03211516514
v -0.007149866782 -0.004020749126 0.03112039343
v -0.007141596638 0.003213847755 0.03211578727
v -0.007128576748 0.006193822715 -0.006233103573
v -0.007118357345 0.004100131802 0.03145733848
v -0.007117412053 0.004908082075 0.0307045076
v -0.007116599008 -0.004051891156 0.0311658252
v -0.007114141248 -0.003710219869 0.03145106137
v -0.007112370804 -0.001576925744 0.03278141469
v -0.007084389217 0.004944713321 0.03074573539
v -0.007075186819 0.004417220596 0.03124293871
v -0.007072687149 -0.004877110943 0.03031166643
v -0.007072632201 -0.004017146304 0.03124302812
v -0.007069281302 -0.0007230644114 0.03295003995
v -0.007069281302 0.001125444425 0.0329500325
v -0.007067430764 -0.004073966295 0.0312010292
v -0.007040755823 -0.00491651101 0.03035051562
v -0.007035437971 0.004971341696 0.03077784739
v -0.006992962211 -0.004944864195 0.03038210422
v -0.006982655264 0.005659345072 0.02981295809
v -0.006975664757 0.005462596659 0.03023997694
v -0.006964875385 0.005514456891 0.03017463535
v -0.006961079314 -0.00511666527 0.03017196618
v -0.006952563301 0.005701285321 0.02984955907
v -0.006948936731 0.0006699478254 0.03306708485
v -0.006948933005 -0.0002675723226 0.0330670923
v -0.006926815957 0.002195392968 0.03286057338
v -0.006922215223 -0.004610392265 0.03082934767
v -0.006922210567 0.005012769252 0.03082934022
v -0.006919024512 -0.006142511964 0.006437581964
v -0.00690853782 0.006561539136 0.006456605159
v -0.006906801835 0.005731326528 0.02988133952
v -0.006876205094 -0.005517052021 0.02941293642
v -0.006867513061 0.00210795668 0.03293239325
v -0.006847177632 -0.0055607385 0.02944780141
v -0.006816316396 -0.002511194674 0.03256832436
v -0.006816311739 0.002913576085 0.03256832063
v -0.006802648306 -0.005592104048 0.02947942913
v -0.006773804314 0.00606038468 0.02936363965
v -0.006764097139 0.001217402518 0.03318635002
v -0.006764092483 -0.0008150273352 0.03318634629
v -0.006722428836 0.00362392934 0.03209843859
v -0.006722426973 -0.003221554216 0.03209843859
v -0.006716131233 -0.00146932283 0.03310144693
v -0.006699981168 0.006233864464 0.02882810682
v -0.006691787392 -0.004117268603 0.03142020106
v -0.006691783667 0.004519644193 0.03142018989
v -0.006672161631 0.006279778667 0.02886037901
v -0.006629062817 0.006313106045 0.028891325
v -0.006616925821 0.006998448633 0.006982964464
v -0.006616048515 -0.006597268861 0.006981364451
v -0.006609472446 -0.006610902026 0.007901072502
v -0.006604389288 0.007015784737 0.008355010301
v -0.006597024389 -0.001877097879 0.03302976117
v -0.006597021595 0.002279477194 0.03302975744
v -0.00658973027 0.0007337365532 0.03332674876
v -0.006589728408 -0.000331359508 0.03332674503
v -0.006575343199 -0.006612055935 0.009588824585
v -0.006549295969 -0.006626836956 -0.005862532184
v -0.006500133779 -0.006108301226 0.02836005017
v -0.006485896185 0.007114263717 -0.005819847807
v -0.006463712081 0.001433703816 0.03333259746
v -0.00645753555 -0.006143149454 0.02838985249
v -0.006441165227 -0.005861880723 0.02938697115
v -0.006441163365 0.00626426097 0.02938697115
v -0.00643134024 -0.006175172981 0.02831377089
v -0.006423826329 -0.0009571583942 0.0333631523
v -0.006298759952 -0.002091265982 0.0330760181
v -0.006298754364 0.002493643435 0.03307601064
v -0.006279720925 -0.002966887318 0.03255605698
v -0.006279720925 0.003369262908 0.0325560607
v -0.006251591258 -0.003667418845 0.03201611713
v -0.00625059288 -0.006291799247 0.02832043916
v -0.006250591017 0.00669417996 0.02832043916
v -0.006232351065 0.004087628797 0.03201177344
v -0.006216521375 -0.0005401248927 0.03349766508
v -0.006182938814 -0.007100619376 -0.005609327927
v -0.006179708987 0.00750718452 -0.005607023835
v -0.006158928387 0.006885957904 0.02733952925
v -0.006137109362 0.000201188057 0.03355439752
v -0.006116246805 0.006923437584 0.02736597881
v -0.006058581173 0.0005784489913 0.03357481584
v -0.006052042358 -0.001184836961 0.03346549347
v -0.006052042358 0.001587211387 0.03346550465
v -0.006038537249 -0.006596055813 0.02713465691
v -0.006005354226 -0.00491380319 0.03105242364
v -0.006005354226 0.005316181108 0.03105243109
v -0.005986253731 -0.005717602558 0.0300665386
v -0.005986253731 0.006119975355 0.03006653488
v -0.005982031114 0.007053187583 0.02694277465
v -0.00597751746 -0.00576555077 0.02999691293
v -0.005977441557 -0.006653988734 0.02693987265
v -0.005975835491 -0.003909352235 0.03195707873
v -0.005953381769 -0.006676330697 0.02686215565
v -0.005947981495 0.0002011843608 0.03361433744
v -0.005936160684 0.004885140806 0.03149569035
v -0.005936158355 -0.004482764751 0.03149568662
v -0.00591675844 -0.004390533548 0.03158609942
v -0.005916757975 0.004792906344 0.03158609569
v -0.005915421993 -0.007475916762 0.007921092212
v -0.00591542013 0.007878295146 0.007921503857
v -0.005876313895 0.007871750742 -0.005384020507
v -0.005875601433 0.00655354606 0.02935787663
v -0.005875600036 -0.006151168607 0.0293578729
v -0.005835139193 -0.007516992278 -0.005352752283
v -0.00582674006 0.004423901904 0.03193293139
v -0.005826737732 -0.004021524452 0.03193292022
v -0.00575322099 0.006857919041 0.02870637551
v -0.005753216799 -0.006455542985 0.02870636806
v -0.005734842736 0.001151655801 0.03361278027
v -0.005734841805 -0.0007492759614 0.033612784
v -0.005730804987 -0.003486254485 0.03241024911
v -0.005730803125 0.003888636362 0.03241024539
v -0.005692347884 -0.006577619351 0.0283880271
v -0.005639999174 0.001874357695 0.033502087
v -0.00563999638 -0.00147198129 0.03350207582
v -0.005618448369 0.003030876862 0.0330375433
v -0.005618446507 -0.002628501039 0.0330375433
v -0.005606941879 0.004407725297 0.03204251826
v -0.005492428783 0.004894500598 0.0316599831
v -0.005479479209 0.005399256945 0.03116431274
v -0.005465862807 0.0006058884901 0.03368214145
v -0.005452131387 0.005908728112 0.03058627434
v -0.005419706926 -0.006992339157 0.02688916028
v -0.005419705994 0.007394716144 0.02688916028
v -0.00538924057 -0.003975154832 0.0321473591
v -0.005371566862 0.006401863415 0.02992835641
v -0.005371490493 0.0006732699112 0.03368903697
v -0.005308959167 -0.0003155636659 0.03369279951
v -0.005303822458 -0.008009608835 0.01020985376
v -0.005303015932 0.008412782103 0.01020953991
v -0.005273477174 -0.007159901317 0.02603154629
v -0.005246013869 -0.001102599665 0.03363309056
v -0.005246013403 0.001504976884 0.03363309428
v -0.005238909274 0.006861075759 0.0291608125
v -0.005228172056 0.00857491605 -0.004859650508
v -0.005203383043 -0.008197700605 -0.004838094115
v -0.005153756589 -0.004537963308 0.03172425553
v -0.005068126135 0.007270160131 0.02824293822
v -0.005063292105 -0.00509889191 0.03117557056
v -0.005025174469 0.004950745497 0.03174924478
v -0.004988437518 -0.005641469266 0.03054901212
v -0.004941750318 -0.00849086605 0.005012775771
v -0.004941746593 0.008893250488 0.005013117567
v -0.004923799075 -0.008478051983 0.007963293232
v -0.004923794419 0.008880421519 0.007963703945
v -0.004916872829 -0.003224687651 0.0328460522
v -0.004916870035 0.003627068596 0.0328460522
v -0.004915396217 0.004301227164 0.03234940767
v -0.004906820133 0.005532515235 0.03117919341
v -0.004886623472 -0.003894268302 0.03236006573
v -0.004882668145 -0.006159678567 0.02984281629
v -0.004872811958 0.007615173701 0.02714031935
v -0.004814713262 0.006088536233 0.03053196706
v -0.004777488299 0.0002011841862 0.03371428326
v -0.004770974163 -0.0007062043296 0.03369431943
v -0.004740959033 -0.006640168373 0.02903116867
v -0.004735903814 0.001134471619 0.03369228169
v -0.004720610566 -0.002160131698 0.03341240436
v -0.004720610566 0.002562507521 0.03341239318
v -0.004699967336 0.006616521627 0.02980570868
v -0.004663519561 0.007900343277 0.02586911619
v -0.004610251635 0.009164491668 -0.004281995818
v -0.004571929574 -0.007067931816 0.02807930484
v -0.004555377178 0.007104773074 0.02897601575
v -0.004539381713 -0.008825245313 -0.004209734499
v -0.004399231635 -0.004210845102 0.03218980506
v -0.004387522116 0.007539025974 0.02801033854
v -0.004384192638 -0.00743010221 0.02695805207
v -0.004355641548 0.009259890765 0.009842297994
v -0.00435031997 0.004213833716 0.032528501
v -0.004350318108 -0.003811456496 0.032528501
v -0.004218654241 -0.004566798918 0.03188778833
v -0.004203076474 0.00790705625 0.02688137814
v -0.004201447591 0.00227309647 0.03351070359
v -0.004201444797 -0.001870721579 0.03351069242
v -0.004185970873 -0.007730803918 0.02568306774
v -0.004172423854 -0.000256792584 0.0336827971
v -0.004172418732 0.0006591716083 0.03368278593
v -0.004087165464 0.004589493852 0.03225334734
v -0.004015983548 -0.009264183231 -0.003627715632
v -0.004015980754 0.009666563943 -0.003627717495
v -0.004009392112 0.008213042282 0.02560456842
v -0.004006263334 -0.001267737593 0.03360556439
v -0.003970930353 -0.005255875643 0.03118788451
v -0.00395935541 -0.009333822876 -0.000273081474
v -0.003959352151 0.009736206383 -0.0002728896216
v -0.003909921739 -0.009390493855 0.005121841095
v -0.003909916151 0.009792872705 0.005122178234
v -0.003893201239 -0.009214937687 0.009662874043
v -0.003893198911 0.009617315605 0.009662870318
v -0.003891542554 0.009717977606 0.008027539589
v -0.003891542554 -0.009315617383 0.008027128875
v -0.003887396539 0.004965127911 0.0319285728
v -0.003882941324 0.00976991374 -0.003466026857
v -0.003794131801 -0.005895304028 0.03040296957
v -0.003790250281 -0.008197195828 0.02282115072
v -0.003739926964 -0.002885591472 0.03315811232
v -0.003739926498 0.00328796939 0.03315811232
v -0.003692728933 -0.003714953084 0.03266470134
v -0.003636847716 0.004109133501 0.03267287835
v -0.003635032102 -0.0064838361 0.02954461798
v -0.003624963341 0.008687367663 0.02275164798
v -0.00360851991 0.00569010945 0.03117825091
v -0.003561241087 -0.003695626743 0.0326831229
v -0.003535883967 0.0002011896431 0.03361270577
v -0.003477729857 -0.007015841547 0.02859957516
v -0.003450270509 -0.009684202261 -0.002885058522
v -0.003410777776 0.006359045394 0.03033966571
v -0.003405766096 -0.009715022519 -0.002820303664
v -0.003355540568 0.01015179884 -0.002745997161
v -0.003321381519 0.008494938724 0.02526156977
v -0.003318517935 -0.007483639754 0.02754671872
v -0.003315652022 0.002153489739 0.03345927969
v -0.003301062854 -0.003244958352 0.03296715394
v -0.003264217172 -0.004121183883 0.03235844523
v -0.003240490332 0.0069689136 0.02943000942
v -0.003154418431 -0.007880990393 0.02636877447
v -0.003111533821 -0.00995361805 -0.0003063101321
v -0.003080070252 0.007515590172 0.02844057977
v -0.003074540524 -0.002660223749 0.03321028873
v -0.003074538428 0.003062597476 0.03321028873
v -0.00307147298 -0.009997035377 0.004223820753
v -0.0030471629 -0.009585079737 0.01151489839
v -0.003043529345 -0.004544419702 0.03197876737
v -0.003038144903 -0.009807317518 0.009012259543
v -0.002988198772 -0.008213225752 0.02507941052
v -0.002982630162 0.008996521123 0.02244481072
v -0.0029822418 0.01043601893 -0.0002892483026
v -0.002974891569 0.001530594775 0.03346870095
v -0.002974890638 -0.001128216973 0.03346870467
v -0.002941954648 0.01047803927 0.004250646569
v -0.002934771124 -0.003601290984 0.03273399174
v -0.002934769727 0.004003666807 0.03273400664
v -0.002923705615 0.00799403619 0.02735441178
v -0.002919858554 -0.0002498109534 0.03349526972
v -0.002914324868 0.01006034575 0.01150765736
v -0.002907616552 0.01028098725 0.009018919431
v -0.002903709887 -0.01004013605 -0.002013299614
v -0.002830371028 0.01048644539 -0.001882420853
v -0.002766416641 0.008400409482 0.02615782991
v -0.002735787304 -0.005348408595 0.03111195005
v -0.002671567025 -0.008726027794 0.02228090912
v -0.002636076882 0.004469874315 0.0323764123
v -0.002609786112 0.008740583435 0.02486379072
v -0.00252042478 -0.003062938107 0.03298447654
v -0.002520421986 0.003465312766 0.03298447281
v -0.002517547924 -0.006075395737 0.03015549108
v -0.002456860617 -0.002325119451 0.03320319578
v -0.002430374501 0.004930808209 0.0319618322
v -0.002417906886 -0.01031273603 -0.001075958833
v -0.002413064241 -0.009109604172 0.01938067377
v -0.002395210322 0.002768676495 0.03318141401
v -0.002347415313 -0.003509741742 0.03272826225
v -0.002334728139 -0.006726262625 0.02913299948
v -0.002317501698 0.00926460512 0.02208675444
v -0.00231727655 -0.0103634838 -0.000860016793
v -0.002317273291 0.01076586451 -0.000860016793
v -0.002291854937 0.00109241507 0.03333222494
v -0.002291854471 -0.000690043089 0.03333222494
v -0.002271945123 -0.01038839854 -0.0006621712819
v -0.00227194163 0.01079077926 -0.0006621759385
v -0.002250187797 0.0108261425 0.0003814790398
v -0.002250186168 -0.01042375807 0.0003814902157
v -0.002227616496 0.01085507404 0.001464353874
v -0.002227615565 -0.01045269519 0.00146435108
v -0.002210535109 -0.0104485387 0.004407268949
v -0.00218747789 0.0108756749 0.001763425767
v -0.002177459886 -0.009747619741 0.01395466272
v -0.002169739921 -0.007301330566 0.02804497629
v -0.002168536885 -0.0102190515 0.009054726921
v -0.00216747215 -0.01048246026 0.0018388303
v -0.002142357174 0.005784160458 0.0310275089
v -0.002119215671 0.003876124974 0.03271356598
v -0.002084987238 0.009650763124 0.01923041791
v -0.002049696166 0.0109352069 0.002128405496
v -0.002021542052 -0.0105438903 0.002176923677
v -0.002016931074 -0.007800352294 0.02688466385
v -0.002016309183 -0.003457451938 0.03270496055
v -0.001953183906 0.01097207889 0.002274402417
v -0.001941212104 0.01095790509 0.004464522935
v -0.001928271144 0.006539800204 0.03000471368
v -0.001895513735 0.01072006486 0.009066931903
v -0.001887351274 0.01026622392 0.01389196608
v -0.001871326007 -0.008223870769 0.02564729005
v -0.001843600417 0.01101172063 0.002386935055
v -0.001825420884 0.003155919956 0.0329496488
v -0.00182099652 -0.003997872118 0.03232171014
v -0.001815624884 -0.01061919052 0.002408703789
v -0.001770452713 0.004396095872 0.03231546655
v -0.001744292211 0.00721009355 0.02891700342
v -0.001733273035 -0.008578768931 0.02434447035
v -0.001664062729 0.002376638819 0.03305644169
v -0.001664061798 -0.00197426253 0.0330564566
v -0.001661067014 -0.0106705213 0.002481767908
v -0.001661065966 0.01107290294 0.002481773496
v -0.001660362352 -0.004509462509 0.03187244758
v -0.001615097979 0.0006479601725 0.03314189985
v -0.001613762928 0.004911015276 0.03186446801
v -0.001577169518 0.007799032144 0.02777060494
v -0.001557974494 0.01110343356 0.002501920797
v -0.001557974378 -0.01070105191 0.00250191614
v -0.001520449878 -0.002964088228 0.03280621767
v -0.001491495874 -0.009122496471 0.02162050456
v -0.001453643548 -0.01072963513 0.002520785667
v -0.00145363959 0.01113201585 0.002520783804
v -0.001432354096 -0.005414815154 0.03087945469
v -0.001424162881 0.008308254182 0.02656613663
v -0.001389778801 0.005818957463 0.03086888045
v -0.001367249526 -0.01075157244 0.002536392771
v -0.001367246732 0.01115395594 0.002536396496
v -0.001315037603 -0.0095112212 0.01886906847
v -0.001306361868 -0.01074621174 0.004591560923
v -0.001282887766 0.008740026504 0.02530535311
v -0.001250027912 -0.01049533766 0.009093097411
v -0.001237148535 -0.006193839945 0.02979642525
v -0.001201769919 -0.01007882319 0.01374098193
v -0.00119588594 0.006598940585 0.02978294715
v -0.001166558941 -0.00333694322 0.03257260472
v -0.001153779798 0.009101634845 0.0239992775
v -0.001097883214 -0.003625171259 0.03240333498
v -0.0010555099 -0.006878389977 0.02864602953
v -0.001053162618 -0.01081866119 0.002602704801
v -0.001053162152 0.01122104097 0.002602706663
v -0.001049249433 -0.00392516423 0.03219411895
v -0.0010144728 0.007284064312 0.02862933651
v -0.0009612469003 -0.004500667565 0.03171792254
v -0.0009488399373 0.001949209138 0.03286204115
v -0.0009488385404 -0.001546833664 0.03286204487
v -0.0009463424794 0.0002011900942 0.03290787712
v -0.0009460016154 -0.00242052949 0.03275564313
v -0.000946000102 0.002822908573 0.03275564313
v -0.0009391612839 0.009653303772 0.02131318673
v -0.0009282777319 -0.003313206602 0.03251064196
v -0.0009282770334 0.00371558289 0.03251063824
v -0.0008911695331 0.004193875473 0.03223995864
v -0.0008911687182 -0.003791510593 0.03223995119
v -0.0008854893968 -0.007478161715 0.02744143084
v -0.0008705677465 0.01123306155 0.004668789916
v -0.0008520997362 0.004560915753 0.03196583688
v -0.0008520983392 -0.004158542491 0.03196584061
v -0.0008101124549 -0.00449968176 0.03167637438
v -0.0008101076819 0.004902055487 0.03167637065
v -0.0008054361679 0.01097788382 0.009108759463
v -0.0007945914986 0.01004118007 0.01863192394
v -0.0007939477218 -0.005439577624 0.03069953807
v -0.0007313753013 0.01058191713 0.01364262309
v -0.0007294181269 -0.007995558903 0.02619268373
v -0.000719535281 0.005505467765 0.03106593713
v -0.0007195316721 -0.005103117321 0.03106590547
v -0.0006833546795 -0.00530622853 0.03082599305
v -0.0006833510706 0.005708605517 0.03082599305
v -0.0006193479057 -0.006225381047 0.02958263829
v -0.0005911956541 0.01128530409 0.002723804675
v -0.0004668815527 -0.008799658157 0.02360386029
v -0.0004435572773 0.003440051107 0.03243396431
v -0.000441520242 -0.00691559352 0.0283908993
v -0.0004222141579 -0.00649664551 0.02909487113
v -0.0004222134594 0.006899023894 0.02909487486
v -0.000328037655 -0.01088888943 0.004750161432
v -0.0002764067613 -0.01090645231 0.002819394693
v -0.0002758926712 -0.009354973212 0.02096586674
v -0.000250346493 -0.01063263789 0.009125513956
v -0.000239425106 0.002395833144 0.03254689649
v -0.0002173276152 -0.007251561154 0.02767631039
v -0.0001883450896 0.003265052103 0.0323830992
v -0.0001612652559 -0.009739178233 0.01836676151
v -0.0001477489714 -0.01025484595 0.0135344658
v -0.0001362867188 0.007927127182 0.02708406001
v -9.350827895e-05 0.003855016315 0.03214633465
v -8.834362961e-05 0.008083646186 0.02672165632
v -7.419660687e-05 -0.002783564618 0.03235650808
v -3.387639299e-05 0.004748908803 0.03155111149
v -3.387522884e-05 -0.00434654858 0.03155110031
v -3.951136021e-07 0.005514597986 0.03080549836
v -3.916211425e-07 -0.005112244748 0.03080547601
v 9.901355952e-06 -0.003928619437 0.03184134141
v 9.903684259e-06 0.004330986179 0.03184134513
v 2.698623575e-05 0.008448169567 0.02580034733
v 9.550550021e-05 0.0061880867 0.02994399145
v 9.551434778e-05 -0.005785741843 0.02994393557
v 0.0001978722867 0.0089700073 0.02423248813
v 0.0002047137823 -0.01091335621 0.002983712591
v 0.0002219227608 0.006790731102 0.02900616452
v 0.0002219295129 -0.006388391368 0.02900609747
v 0.0002261444461 0.01125302259 0.002676958218
v 0.0002769997809 -0.01091157738 0.003010150045
v 0.0002873083577 -0.01091126259 0.003013952635
v 0.0002873097546 0.01131364331 0.003013961017
v 0.0002923889551 0.009254006669 0.02320400625
v 0.0003363925498 -0.01086460892 0.005856948905
v 0.0003363946453 0.01126698963 0.005856947973
v 0.0003576804884 -0.003547936212 0.03190932795
v 0.0003873030655 -0.0007060712087 0.03232686594
v 0.0003873042297 0.001108445227 0.03232686222
v 0.0003942693584 -0.01070114132 0.008466923609
v 0.0003942737821 0.0111035239 0.008466923609
v 0.0004197275266 0.009640823118 0.02149862051
v 0.0004461326171 0.009724068455 0.02106908336
v 0.0004698736593 -0.002412544331 0.03218841553
v 0.0005027912557 -0.008059993386 0.02556206658
v 0.0005078688264 0.007826457731 0.02699479461
v 0.0005324620288 0.01071162801 0.01309028454
v 0.000552499434 -0.007326800376 -0.00370824337
v 0.0005708669778 0.01021173317 0.01787563041
v 0.0005882314872 -0.003123966511 0.03197496757
v 0.00058823172 0.003526341403 0.03197496757
v 0.0006654565223 -0.007301175967 -0.003689641133
v 0.0006800924893 0.007297724485 -0.003687327728
v 0.0006882352754 -0.005129133351 0.03048302792
v 0.0006882362068 0.005531487055 0.03048306331
v 0.0007289072964 -0.004423157778 0.03116059862
v 0.000728911953 0.004825524054 0.03116061166
v 0.0007458566688 0.006176096853 0.02965142578
v 0.0007458596956 -0.005773755722 0.0296513848
v 0.0007743239403 -0.008863181807 0.0229678005
v 0.0007822327316 0.008643611334 0.02490568534
v 0.0008138688281 0.002585155424 0.03204758093
v 0.0008184602484 -0.004054576624 0.03140110523
v 0.0008184672333 0.004456946626 0.03140110895
v 0.000856739236 0.007253576536 -0.003650585189
v 0.0008594687097 0.006764986087 0.02872117236
v 0.0008594759274 -0.006362650543 0.02872110531
v 0.0009088998195 -0.01080189086 0.002672336064
v 0.0009221334476 -0.01086460333 0.00300749857
v 0.0009507432114 -0.009408619255 0.02042590454
v 0.000994117232 -0.003688887693 0.03153723478
v 0.0009975146968 -0.0102722263 0.01337980293
v 0.001038593939 -0.009779163636 0.01796741411
v 0.0011046906 -0.002739310265 0.03181301802
v 0.001128489617 -0.001972949831 0.03190225363
v 0.001149202464 0.007784934714 0.02670747042
v 0.001214866294 0.004142022226 0.03139505908
v 0.001304922393 -0.003347308142 0.0315293856
v 0.001304922858 0.003749685595 0.03152938187
v 0.001311875647 -0.007118392736 -0.003513067961
v 0.001443373272 0.008589884266 0.02462172136
v 0.001469534589 0.007064132951 -0.003450134769
v 0.001578346593 0.002070409711 0.03166973218
v 0.001604575431 0.01116679702 0.002991928719
v 0.001604723046 -0.01076570712 0.002992086112
v 0.001619782066 0.0002011904144 0.0316692628
v 0.001672320766 -0.001602919539 0.03161779419
v 0.001677672612 0.009185794741 0.02257721126
v 0.001694353065 -0.01070861425 0.006541133858
v 0.001694368897 0.01111097634 0.006541541778
v 0.00170542323 -0.003005786566 0.03140977398
v 0.001705425559 0.00340816169 0.0314097777
v 0.001715661259 -0.01017680578 0.014185098
v 0.001810821006 -0.01046819519 0.009871227667
v 0.00181083777 0.01087054703 0.009871562943
v 0.001845548162 0.009615086019 0.02059097216
v 0.00187775935 -0.007627019659 0.02603566647
v 0.001879974036 -0.006904000882 -0.003244299442
v 0.001897870796 0.005560861435 0.02974660695
v 0.001897870796 -0.005158505403 0.02974658459
v 0.001905428478 0.01104360726 0.002652187832
v 0.001921758754 0.011106194 0.002985072322
v 0.001934378175 0.006122818682 0.02899344265
v 0.001934380038 -0.00572047336 0.02899340168
v 0.001937116263 -0.003914080095 0.03087179735
v 0.001942642266 0.01055662334 0.01323396061
v 0.001956814667 0.006870888174 -0.003199020401
v 0.001971159829 -0.004572554026 0.03032788821
v 0.001971167279 0.004974917974 0.03032789379
v 0.001988737611 -0.006856825668 -0.003178920597
v 0.001994818682 0.01016792376 0.01679638028
v 0.002006901661 -0.008892740123 0.02236370742
v 0.002038488863 0.006653238554 0.02812560275
v 0.00207118853 -0.004279045854 0.030521743
v 0.002071189461 0.00468141539 0.03052174859
v 0.00214698934 -0.01058916189 0.002647687681
v 0.002166894497 -0.01065177564 0.002979987301
v 0.002177421236 -0.009423622862 0.01991988719
v 0.002227171091 0.004393348936 0.03063086048
v 0.002227171091 -0.003990972415 0.03063086048
v 0.002245539101 -0.0002808072604 0.03128082305
v 0.002247167984 -0.009778649546 0.01759818569
v 0.002342159161 0.007601862308 0.02619759366
v 0.002441345481 -0.003717019688 0.03064505756
v 0.002441346413 0.004119397607 0.03064505383
v 0.002454177709 -0.009795822203 0.01738094911
v 0.002559693763 0.004490244202 0.03032816388
v 0.002653617645 -0.002316660713 0.03092272021
v 0.002653617645 0.002719033742 0.03092272393
v 0.00267741573 0.00836111512 0.02418204024
v 0.002715377836 -0.003445337992 0.03057369404
v 0.002715381561 0.003847712418 0.0305736959
v 0.002752824919 -0.0008208579384 0.03094194271
v 0.002823511371 0.00117124815 0.03089282848
v 0.002855760744 -0.00468342891 0.02956824563
v 0.002855763538 0.005085799377 0.02956824936
v 0.002862551948 0.005555490497 0.02902353182
v 0.002862552879 -0.005153134931 0.02902350947
v 0.002903312212 -0.004454155453 0.02975781634
v 0.002903315471 0.004856525455 0.02975782007
v 0.002920682775 -0.009469189681 0.0193996951
v 0.002936581848 -0.008132642135 0.02434327081
v 0.002947366564 0.006017474458 0.02834155038
v 0.002947372617 -0.005615121219 0.0283415094
v 0.002962297061 0.008908027783 0.02222397551
v 0.003006906016 0.01083417516 0.002972858958
v 0.003068698337 -0.004257436376 0.02979357168
v 0.003080440918 0.006469828077 0.02755499631
v 0.003082185285 -0.004262114875 0.02977818809
v 0.003092389787 -0.01033764053 0.002641897649
v 0.00310959504 -0.01040199213 0.002972370945
v 0.003129364224 -0.01040199678 0.006558121182
v 0.003129382851 0.01080436073 0.006558534689
v 0.003182865912 0.009289836511 0.02033307776
v 0.00323948008 -0.008922296576 0.02175961062
v 0.003264253261 0.001618064358 0.03056573682
v 0.003278023796 -0.0101754507 0.009874071926
v 0.00327804056 0.01057779696 0.009874406271
v 0.0032998838 -0.00909911003 0.02104065567
v 0.003376933513 -0.00381030119 0.02983764187
v 0.003376936307 0.004212680273 0.02983764187
v 0.003402136965 -0.002901549451 0.03022172675
v 0.003402138827 0.003303922014 0.03022172116
v 0.003407056211 0.000745751895 0.03046586737
v 0.003411742626 0.01022172906 0.01320989616
v 0.003418117063 0.007317725569 0.02577754483
v 0.003421323141 0.009794302285 0.01670021191
v 0.003433988662 -0.00436900137 0.0293597132
v 0.003433993785 0.00477138022 0.02935971506
v 0.003442409215 -0.008927810937 0.02165741473
v 0.003492078977 0.01061177067 0.002646845765
v 0.003504757071 0.01067746431 0.002976671793
v 0.003516475437 0.00507416483 0.02898032404
v 0.003516476369 -0.004671795759 0.02898031287
v 0.00355534046 0.004681750201 0.02931954898
v 0.003563457867 0.005216768943 0.02877979167
v 0.003563458333 -0.004814392887 0.02877978981
v 0.003609767416 -0.001649419777 0.03026925214
v 0.003609767416 0.002051792108 0.03026925586
v 0.003638896858 0.005427193828 0.02846441045
v 0.003638902446 -0.005024828482 0.0284643881
v 0.00364058488 -0.008655157872 0.02251500636
v 0.003669526661 -0.0001513822353 0.03026340529
v 0.003781474894 -0.004094968084 0.02924032882
v 0.003785797162 0.008010936901 0.02389153838
v 0.003788635368 -0.0008546013269 0.0301639922
v 0.003788635368 0.001256972668 0.03016399592
v 0.003799164435 0.004482542165 0.02923369035
v 0.003921869211 0.003758992301 0.02957249805
v 0.003921872005 -0.003356618574 0.02957249805
v 0.003964680247 -0.009859465994 0.002371962182
v 0.00396954827 0.00621802127 0.0270925276
v 0.004015180282 -0.01002421044 0.002660567872
v 0.004025344737 0.006339619402 0.02685553953
v 0.004027509131 -0.01009180769 0.002989497036
v 0.00403035339 -0.008013148792 0.02420167997
v 0.004065009765 -0.001368328463 0.02990520746
v 0.004065335728 0.000201186107 0.02994349226
v 0.004124568775 0.008491867222 0.02204193547
v 0.004136682488 -0.002415804658 0.02969355881
v 0.004136686213 0.00281817955 0.02969356254
v 0.004266077653 0.004113674629 0.02900855429
v 0.004266078584 -0.003711296711 0.02900855802
v 0.004311366007 -0.004793433007 0.02804112807
v 0.004311368801 0.005195812788 0.02804112434
v 0.004339760169 0.001095989952 0.02969118208
v 0.004340970889 -0.0006970320828 0.02968997322
v 0.004413974471 0.008812528104 0.02023726702
v 0.004420491867 0.01034023333 0.003006094135
v 0.004519302398 -0.002971120412 0.02913972363
v 0.004519303329 0.003373493673 0.02913972922
v 0.004530597478 0.00729435496 0.02464916557
v 0.004572381265 -0.00993463397 0.006538515911
v 0.004572403617 0.01033700071 0.006538930349
v 0.00472189486 0.005917158443 0.02675221488
v 0.004721895792 -0.005514781456 0.02675221488
v 0.004738212563 0.007592105307 0.02373269945
v 0.00474693533 -0.009725893848 0.009870797396
v 0.0047469493 0.01012823917 0.009871131741
v 0.004746992141 -0.003373797983 0.02869034745
v 0.004765640013 0.00376366009 0.02867661044
v 0.004788869992 0.009254829027 0.01670477353
v 0.004822959192 0.002493703272 0.02908274159
v 0.004844482988 -0.004444682039 0.02780057117
v 0.004844482988 0.004847059492 0.02780056559
v 0.00486049708 -0.009322627448 0.0132269552
v 0.004860502668 0.009724965319 0.01322724484
v 0.004886101931 -0.002280681394 0.0289737694
v 0.004995591007 -0.003200184554 0.02850494161
v 0.005014406517 0.003078661626 0.02871633135
v 0.005028607324 -0.002722783014 0.02868351713
v 0.00505331438 0.007930488326 0.02233397402
v 0.005084506236 -0.009383480996 0.002435009927
v 0.005099943839 0.003431395395 0.02847239561
v 0.005105579272 0.003513806732 0.02842325158
v 0.005105581135 -0.003111434169 0.02842325345
v 0.005120095797 0.006583114155 0.02530287579
v 0.005174009129 0.009743165225 0.002442099154
v 0.005228394642 0.009908445179 0.002728634514
v 0.005235354416 0.00998146832 0.003055750392
v 0.005298370495 -0.004009523429 0.02762944065
v 0.005298372358 0.004411900416 0.02762943693
v 0.005303893238 0.0007767612697 0.02874411643
v 0.00530389417 -0.0003743863781 0.02874411643
v 0.005314766429 0.005525602959 0.02656398341
v 0.005314769223 -0.005123226438 0.02656398341
v 0.005371041596 0.0002011891484 0.0286743734
v 0.005371133797 -0.0009390773484 0.02864480019
v 0.00537113566 0.001341452356 0.02864479832
v 0.00537516363 -0.003244094551 0.02803065255
v 0.005375164561 0.00364647177 0.02803065814
v 0.00547366403 -0.001910103718 0.02839682251
v 0.005473665893 0.002312480239 0.02839682437
v 0.005496733822 -0.002659113845 0.02815277316
v 0.005496736616 0.003061487107 0.02815277316
v 0.005535339937 0.007105413824 0.02373038977
v 0.005562843755 0.008288959041 0.01987917721
v 0.005658036098 0.003818491241 0.02757338621
v 0.005665647797 -0.00342110428 0.02756048925
v 0.005665650591 0.003823479405 0.02756049484
v 0.005702081136 0.009472648613 0.002486595884
v 0.005702081136 -0.009070270695 0.002486590296
v 0.005749093369 -0.005711346399 0.0252263844
v 0.005749093369 0.006113721058 0.02522638813
v 0.005761307664 -0.009234732017 0.002772233449
v 0.005761308596 0.009637109935 0.002772237174
v 0.005768795498 -0.009309630841 0.003098545596
v 0.005768796429 0.009712010622 0.003098547459
v 0.005804621615 -0.004579639062 0.02649524063
v 0.00580462534 0.004982014187 0.02649524435
v 0.005851521157 -0.008058577776 0.01815851033
v 0.005851523951 0.0084609529 0.01815850474
v 0.005935270339 -0.002719149459 0.02756380476
v 0.005935271271 0.003121525515 0.02756380476
v 0.005942114629 -0.009325961582 0.006499625742
v 0.005942140706 0.009728333913 0.006500033662
v 0.005975516513 0.007426859811 0.02208302356
v 0.00601501856 -0.008199857548 0.01684638858
v 0.006015020423 0.008602237329 0.01684639044
v 0.006024882197 0.008613936603 0.01674925163
v 0.006034155376 -0.009271439165 0.008042299189
v 0.006034157239 0.009673816152 0.008042301051
v 0.0060744863 0.002273055026 0.0276645869
v 0.006074488163 -0.001870683394 0.02766458876
v 0.006117628887 -0.003741469234 0.02673162892
v 0.006117631681 0.004143844359 0.02673163265
v 0.006130350754 -0.009138413705 0.009853947908
v 0.006130372174 0.009540759027 0.009854283184
v 0.00613650959 -0.00912503805 0.009991614148
v 0.006140933372 -0.000876203645 0.02775616571
v 0.006140933372 0.00127858005 0.02775616385
v 0.006154947914 0.0007416055305 0.0277806595
v 0.006154951639 -0.0003392290673 0.0277806595
v 0.006155025214 -0.008449744433 0.01497558039
v 0.006155029871 0.008852123283 0.01497558318
v 0.006192796864 -0.008922744542 0.01170669869
v 0.006192797795 0.009325117804 0.01170669869
v 0.006199045107 -0.006146669388 0.02375780419
v 0.006199046969 0.006549049169 0.02375780791
v 0.006202873774 0.009106416255 0.01324774232
v 0.006202874705 -0.008704081178 0.01324744429
v 0.006287431344 -0.005080200266 0.02522897534
v 0.006287436001 0.005482573062 0.02522897348
v 0.006409578025 -0.007205512375 0.0203818772
v 0.006409578957 0.007607885636 0.02038188092
v 0.00648580119 -0.008607478812 0.002563286573
v 0.006555990316 -0.008768035099 0.002847654745
v 0.00656785164 -0.008843930438 0.003172749653
v 0.006689123809 -0.006390439346 0.02215710655
v 0.006689125672 0.006792816799 0.02215710096
v 0.006689714268 0.000201191142 0.02712685987
v 0.006708077155 -0.002981186379 0.02631860226
v 0.006708077155 0.003383558709 0.02631860785
v 0.006780503318 0.006727219094 0.0008224854246
v 0.006787111983 -0.005444507115 0.02380162477
v 0.006787112914 0.005846885033 0.0238016285
v 0.006799357012 -0.00732815871 0.01864305884
v 0.006799357943 0.007730532903 0.01864305697
v 0.006912321784 -0.004316073842 0.02495635115
v 0.006912323646 0.00471844757 0.02495635301
v 0.007089872845 -0.001983124064 0.0261922311
v 0.007089873776 0.002385500586 0.02619222924
v 0.007103121839 -0.008179380558 0.002628051676
v 0.007106753066 -0.007474271115 0.01688267849
v 0.00710675586 0.00787665043 0.01688268036
v 0.007185650989 -0.006505876314 0.02045547031
v 0.007185651921 0.006908252835 0.02045546658
v 0.00719780568 0.008512000553 0.002639332786
v 0.007236987352 0.008953843266 0.006625914015
v 0.007236988284 -0.008551465347 0.006625912152
v 0.007281692699 0.008665707894 0.002922550775
v 0.007301169448 0.008740280755 0.003246448003
v 0.007309097797 -0.00768974144 0.01511708647
v 0.007309101522 0.008092117496 0.01511708833
v 0.007325797342 -0.00562948687 0.0222095456
v 0.007325801998 0.006031860597 0.02220954373
v 0.007364793681 -0.0009075994603 0.02608016692
v 0.007364796475 0.001309976447 0.0260801632
v 0.007379803807 0.004960319959 0.02375482954
v 0.007391558029 -0.003291836707 0.02495987527
v 0.007391559891 0.003694212297 0.02495987713
v 0.007408902049 -0.004568912555 0.02367749438
v 0.007416769862 -0.00837857835 0.00995768141
v 0.007416770793 0.0087809572 0.009957680479
v 0.007417679764 0.00834374968 0.01336316299
v 0.007417680696 -0.007941376418 0.01336316112
v 0.007426913828 -0.005533290561 0.0008090110496
v 0.00742691569 0.005935671739 0.0008090119809
v 0.007446200587 -0.0003551397531 0.02604041994
v 0.007446201518 0.0007575131021 0.02604042366
v 0.007448296994 -0.008185468614 0.01163784601
v 0.007448301651 0.008587847464 0.0116378488
v 0.007476120256 0.0002011907636 0.02602449059
v 0.007644264959 -0.006574913859 0.01869000681
v 0.007644266821 0.006977289915 0.01869000308
v 0.007698502392 0.005056502298 0.02289254963
v 0.007698503323 -0.004654129967 0.02289254963
v 0.007731824182 -0.007670267951 0.002693568356
v 0.007828008384 -0.007815510966 0.002975925803
v 0.007855192758 -0.007886567153 0.003298873082
v 0.007870269939 -0.005695248954 0.02049415372
v 0.007870269939 0.006097622681 0.02049415
v 0.007911888883 -0.002185165882 0.02471373416
v 0.007911890745 0.002587544033 0.02471373044
v 0.007986507379 -0.004678135738 0.0007973490283
v 0.007986507379 0.005080513656 0.0007973490283
v 0.00801070407 0.0002011916367 0.02517704107
v 0.008020694368 -0.006679303013 0.01689778827
v 0.008020694368 0.007081675809 0.01689778641
v 0.008026552387 0.003934910987 0.02347507328
v 0.008026554249 -0.00353253237 0.02347507887
v 0.008286963217 -0.006863972638 0.01510945335
v 0.008286964148 0.007266349159 0.01510945335
v 0.008297921158 0.001410409459 0.02449708804
v 0.008297924884 -0.001008033869 0.02449708991
v 0.008317956701 0.007509209216 0.002747949213
v 0.008358693682 -0.007642353885 0.006599984132
v 0.008358696476 0.008044731803 0.006599988788
v 0.008377118036 -0.0057208566 0.01870513521
v 0.008377121761 0.00612322893 0.01870513335
v 0.008409390226 -0.0004054161836 0.02442895807
v 0.008428967558 0.007641806267 0.003029235639
v 0.008450933732 0.007495273836 0.01334148925
v 0.008450935595 -0.007092896383 0.01334148552
v 0.008453073911 -0.003768851748 0.0007876195014
v 0.008453074843 0.00417123083 0.0007876222953
v 0.008465961553 0.007706618402 0.003350971267
v 0.008489607833 -0.002708766609 0.0005232812837
v 0.008489607833 0.003111143829 0.0005232803524
v 0.008522571065 -0.007496605627 0.009924640879
v 0.008522571996 0.007898982614 0.009924639016
v 0.008525241166 -0.007319276221 0.01160848141
v 0.008525241166 0.007721652742 0.0116084842
v 0.008608923294 -0.002357040532 0.02319458686
v 0.008608924225 0.002759413794 0.02319458686
v 0.008623096161 0.005135696847 0.02014392428
v 0.008623100817 -0.004733320326 0.02014392428
v 0.008636520244 -0.003636608599 0.02186644264
v 0.008636521176 0.004038981628 0.02186643891
v 0.008746267296 -0.001756900107 0.0005179326981
v 0.008746267296 0.002159280237 0.0005179326981
v 0.008803031407 -0.005785181653 0.0168921221
v 0.008803034201 0.006187554915 0.01689212024
v 0.008818766102 -0.006539513823 0.00278763473
v 0.008821437135 0.003217905527 0.0007799426094
v 0.008821438067 -0.00281552854 0.0007799435407
v 0.008825925179 0.006930859759 0.002786778845
v 0.008901410736 -0.0007833176642 0.0005146982148
v 0.008901410736 0.001185696339 0.0005146991462
v 0.0089432206 -0.006658256054 0.00306776911
v 0.008953316137 0.0002011872712 0.0005136178806
v 0.008989539929 -0.006715585943 0.003388172016
v 0.009041376412 -0.001098034321 0.02294735424
v 0.009041380137 0.001500410144 0.02294735424
v 0.009087514132 -0.001828742097 0.0007743984461
v 0.009087514132 0.002231120132 0.0007743965834
v 0.009112547152 0.00696113985 0.003393937834
v 0.009119487368 -0.005931554828 0.01509372797
v 0.009119490162 0.006333933212 0.01509372704
v 0.00915716216 0.0002011893666 0.02296131849
v 0.009165965952 -0.0004509334103 0.02286995202
v 0.009207241237 -0.003649411257 0.02016707137
v 0.009207244962 0.004051789641 0.02016707137
v 0.009230266325 -0.002430740977 0.02161018923
v 0.009230268188 0.002833116101 0.02161019109
v 0.009248348884 0.001221816405 0.0007710400969
v 0.009248349816 -0.0008194368565 0.0007710447535
v 0.009302160703 0.0002011887555 0.0007699225098
v 0.009314308874 0.006269807927 0.002814843319
v 0.009324574843 -0.00659083901 0.006611500867
v 0.009324576706 0.006993218791 0.006611501798
v 0.009330508299 -0.006125140935 0.0133243734
v 0.009330508299 0.006527516525 0.01332437899
v 0.00944445096 0.006723070052 0.01159525104
v 0.009444451891 -0.00632069353 0.0115952529
v 0.009451878257 0.006371346302 0.003093416803
v 0.009467515163 -0.004756595474 0.01701150462
v 0.009467515163 0.00515897572 0.0170115009
v 0.009469763376 -0.006473264657 0.009917192161
v 0.009469764307 0.006875645369 0.009917197749
v 0.00950746797 0.006418904755 0.003412050195
v 0.009666833095 -0.001136558829 0.02138494514
v 0.009666836821 0.001538933837 0.02138493955
v 0.009702167474 -0.005238385405 0.00282778684
v 0.009702167474 0.005640762858 0.00282778684
v 0.009718533605 -0.003633982968 0.01841495559
v 0.009718534537 0.004036359023 0.01841495
v 0.009780845605 -0.002436626237 0.01997256838
v 0.009780845605 0.002838999266 0.0199725721
v 0.009849080816 -0.005324706435 0.003104546107
v 0.009849085473 0.005727088545 0.003104546107
v 0.009911407717 -0.005363803357 0.003421115689
v 0.009911407717 0.005766183604 0.003421117552
v 0.009932959452 -0.004803600255 0.002831191756
v 0.009992106818 0.005354968831 0.01409543306
v 0.00999210868 -0.004952589981 0.01409543492
v 0.0100846719 -0.004880287219 0.003106461838
v 0.01008681487 0.004884521477 0.002832241356
v 0.01008685213 -0.004482062068 0.002832241356
v 0.01015030406 -0.003652911168 0.01664792374
v 0.01015030406 0.004055289552 0.01664792746
v 0.01015053503 -0.00491423998 0.003421347588
v 0.01016699243 0.0002011896577 0.02033071592
v 0.01019523107 -0.001138882246 0.01980297081
v 0.01019523479 0.001541261794 0.01980296709
v 0.01020961069 -0.005382128991 0.007775832433
v 0.01020961162 0.005784508772 0.007775832433
v 0.01026253868 -0.005247603171 0.01079050452
v 0.01026254054 0.00564998202 0.01079050638
v 0.01027330197 -0.005316406023 0.009710926563
v 0.01027418952 0.005705088843 0.009960053489
v 0.01031278819 -0.000471494277 0.01975006051
v 0.01031278819 0.0008738691104 0.01975006051
v 0.01035463531 0.0002011896577 0.01973041892
v 0.01039455086 0.004137162119 0.002831027843
v 0.01048874669 0.004137379583 0.01489387732
v 0.01048874948 -0.003735001199 0.01489387639
v 0.01052051783 -0.004090446047 0.003415526822
v 0.01053118985 -0.003339894349 0.002828895114
v 0.01055403892 0.004193651956 0.003102140501
v 0.01062608138 0.004217676818 0.00341229327
v 0.01066142507 -0.002428121166 0.01660884731
v 0.01066142786 0.002830500249 0.01660884358
v 0.01069243532 -0.003389860038 0.003098418936
v 0.01073064283 -0.003852257272 0.01316395402
v 0.01073064283 0.004254632629 0.01316395495
v 0.01076318696 -0.004114556592 0.006511195563
v 0.01076318696 0.004516937304 0.006511198357
v 0.01076604147 -0.003410930047 0.003406766802
v 0.01083637029 -0.002193630673 0.002819693647
v 0.01084897574 0.002535242587 0.002819158137
v 0.01087378059 -0.003971211147 0.01146768592
v 0.01087378152 0.004373591393 0.01146768965
v 0.01091642119 -0.00405912241 0.009813569486
v 0.01091642305 0.004461496603 0.009813567623
v 0.01094555017 -0.001595791662 0.002814491279
v 0.01096694265 -0.002715411829 0.003395980224
v 0.01098538376 -0.002480579773 0.01491608191
v 0.0109853847 0.0028829535 0.01491608284
v 0.01101248246 -0.001131442375 0.01657750644
v 0.01101248711 0.001533816918 0.01657750644
v 0.01101305801 0.002567233285 0.00308419019
v 0.01106755249 0.0008197692805 0.002806779929
v 0.01107697561 0.0002011906763 0.01688048057
v 0.0110837901 0.0002011885954 0.002805477008
v 0.01108968817 0.002580694156 0.00338739343
v 0.01110907737 0.000869749405 0.01656809635
v 0.01110907923 -0.0004673715448 0.01656810008
v 0.01111005433 -0.001620367751 0.003077870235
v 0.01118738297 -0.001630811836 0.003379179165
v 0.01122340281 -0.002558436245 0.01323311031
v 0.0112234056 0.002960809972 0.0132331131
v 0.01123210974 0.0008283787756 0.003067763522
v 0.01123679522 0.001675735228 0.003374427557
v 0.0112482775 0.000201188639 0.00306608621
v 0.01125151105 -0.00273310882 0.006663725711
v 0.01125151105 0.003135489067 0.006663721055
v 0.01131009124 0.0008321995265 0.003366322257
v 0.01131855138 -0.001156985993 0.01493775845
v 0.0113185551 0.001559365075 0.01493775751
v 0.01132630836 0.0002011878096 0.003364227712
v 0.0113681145 -0.002638272475 0.0115714306
v 0.01136811543 0.003040649928 0.01157142874
v 0.01141266525 -0.002697166987 0.009941488504
v 0.01141266618 0.003099543275 0.00994149223
v 0.01154789235 -0.001195823075 0.01329438295
v 0.01154789235 0.001598197035 0.01329438202
v 0.01156210434 0.001685478142 0.006790543906
v 0.01156210527 -0.001283099526 0.0067905467
v 0.01161885448 0.0002011892793 0.0137062734
v 0.0116647929 0.0002011895704 0.01332080085
v 0.01168933138 0.001638274523 0.01166111138
v 0.01168933418 -0.001235898468 0.01166111138
v 0.01173057687 0.0002011876495 0.007560048718
v 0.01173225138 -0.001265431405 0.01005058829
v 0.01173225138 0.001667810138 0.01005058829
v 0.01184342522 0.0002011905017 0.0105899442
v 0.01184539497 0.0002011874458 0.01009676047
f 861 843 870
f 840 861 914
f 866 863 553
f 934 861 870
f 934 914 861
f 15 30 1
f 422 459 412
f 832 815 867
f 537 553 535
f 535 30 537
f 855 553 863
f 855 882 870
f 863 882 855
f 870 843 855
f 562 553 537
f 866 553 562
f 914 934 939
f 870 882 951
f 193 289 325
f 37 535 507
f 307 280 507
f 507 535 688
f 350 338 605
f 236 199 204
f 244 199 242
f 242 199 236
f 236 265 242
f 242 287 244
f 242 265 287
f 30 15 22
f 235 262 508
f 508 262 281
f 31 30 28
f 194 221 209
f 134 111 132
f 122 111 134
f 98 143 108
f 23 25 20
f 2 15 1
f 1 10 2
f 791 771 811
f 791 811 851
f 993 992 990
f 990 992 988
f 938 904 920
f 898 904 880
f 920 904 898
f 832 894 845
f 668 736 673
f 365 338 350
f 318 338 365
f 495 548 527
f 527 467 495
f 495 467 462
f 370 323 325
f 325 366 370
f 370 366 412
f 370 296 323
f 467 527 466
f 460 356 482
f 482 459 460
f 459 422 460
f 490 459 482
f 495 462 490
f 490 462 459
f 482 356 523
f 885 894 832
f 832 867 885
f 840 914 909
f 909 899 840
f 814 813 865
f 865 867 814
f 814 867 815
f 720 688 717
f 717 688 535
f 960 951 882
f 945 939 934
f 945 934 870
f 870 951 945
f 841 562 821
f 958 881 946
f 946 881 871
f 507 158 95
f 95 37 507
f 95 151 129
f 30 535 29
f 92 95 129
f 37 95 92
f 244 287 292
f 292 184 244
f 325 289 292
f 289 193 292
f 507 338 309
f 309 307 507
f 309 338 318
f 318 307 309
f 646 338 507
f 507 688 646
f 571 523 356
f 540 523 571
f 571 356 350
f 350 605 571
f 571 605 606
f 285 265 280
f 287 265 285
f 318 287 285
f 280 307 285
f 285 307 318
f 176 158 507
f 507 204 176
f 176 204 199
f 176 151 158
f 199 151 176
f 503 204 507
f 236 204 503
f 503 265 236
f 507 280 503
f 280 265 503
f 201 508 177
f 235 508 201
f 520 294 310
f 281 294 520
f 520 508 281
f 537 30 520
f 520 30 31
f 177 508 520
f 26 28 30
f 30 22 26
f 26 22 24
f 31 28 32
f 32 49 31
f 111 25 27
f 33 132 27
f 27 132 111
f 27 29 33
f 25 29 27
f 60 25 111
f 143 98 153
f 108 113 85
f 56 50 85
f 182 153 167
f 182 166 143
f 143 153 182
f 140 166 156
f 143 166 140
f 140 113 108
f 108 143 140
f 156 166 175
f 210 194 175
f 175 182 210
f 166 182 175
f 268 213 223
f 263 213 268
f 157 151 199
f 129 151 39
f 151 157 39
f 134 132 39
f 39 157 134
f 19 20 25
f 19 60 17
f 25 60 19
f 17 60 12
f 692 670 719
f 711 692 719
f 609 622 551
f 765 782 760
f 807 799 752
f 791 851 817
f 817 765 791
f 782 765 817
f 278 257 254
f 667 692 711
f 805 822 829
f 829 793 805
f 808 822 805
f 777 793 829
f 725 741 775
f 775 741 796
f 850 898 880
f 979 988 977
f 979 990 988
f 955 963 927
f 854 851 811
f 829 822 875
f 480 509 475
f 673 751 681
f 673 736 742
f 832 845 785
f 785 815 832
f 949 979 977
f 942 979 949
f 720 722 648
f 648 688 720
f 648 646 688
f 648 605 338
f 338 646 648
f 763 722 720
f 815 785 763
f 606 668 607
f 607 668 673
f 736 668 730
f 730 785 736
f 722 763 730
f 730 763 785
f 340 419 344
f 413 419 340
f 539 556 357
f 488 545 539
f 721 716 693
f 693 520 310
f 693 716 537
f 537 520 693
f 488 357 453
f 453 423 438
f 286 294 281
f 281 262 286
f 262 288 286
f 230 245 200
f 235 201 200
f 200 201 177
f 147 200 152
f 177 520 160
f 160 520 103
f 34 144 93
f 350 356 363
f 363 365 350
f 412 366 394
f 323 296 231
f 325 323 231
f 231 193 325
f 223 193 231
f 412 459 414
f 459 462 414
f 414 370 412
f 414 462 467
f 454 447 384
f 548 581 528
f 528 527 548
f 528 466 527
f 461 466 528
f 482 523 524
f 524 523 540
f 894 885 921
f 942 949 921
f 944 942 933
f 933 939 944
f 859 813 553
f 553 802 859
f 865 813 859
f 859 905 865
f 899 905 859
f 565 802 553
f 565 861 840
f 843 861 565
f 565 855 843
f 553 855 565
f 840 899 820
f 820 565 840
f 802 565 820
f 899 859 820
f 820 859 802
f 761 717 535
f 821 562 803
f 821 803 884
f 786 716 721
f 783 562 537
f 783 831 562
f 537 716 783
f 716 786 783
f 993 990 989
f 973 989 976
f 973 969 983
f 983 989 973
f 951 960 964
f 964 976 965
f 964 945 951
f 939 945 964
f 866 562 864
f 864 881 866
f 958 960 883
f 883 881 958
f 883 960 882
f 866 881 883
f 883 863 866
f 883 882 863
f 562 841 860
f 860 946 871
f 958 946 957
f 134 157 159
f 159 157 199
f 158 151 150
f 150 95 158
f 151 95 150
f 535 37 36
f 36 29 535
f 33 29 36
f 30 29 14
f 20 19 14
f 14 19 17
f 325 292 322
f 322 292 287
f 322 366 325
f 322 287 318
f 318 365 322
f 322 365 366
f 191 292 193
f 184 292 191
f 191 193 223
f 223 184 191
f 572 571 606
f 540 571 572
f 606 607 572
f 38 520 31
f 31 49 38
f 18 59 24
f 24 22 18
f 18 22 15
f 15 2 18
f 161 155 181
f 181 194 209
f 156 155 125
f 125 140 156
f 113 140 125
f 69 60 111
f 116 127 106
f 116 69 111
f 111 122 116
f 115 112 106
f 106 127 115
f 145 112 115
f 115 127 145
f 142 112 145
f 145 169 142
f 66 67 70
f 52 85 50
f 52 98 108
f 108 85 52
f 113 67 62
f 62 85 113
f 56 85 62
f 113 74 71
f 71 67 113
f 74 70 71
f 71 70 67
f 210 182 215
f 215 182 167
f 172 184 223
f 223 213 172
f 263 306 256
f 256 306 301
f 276 268 223
f 223 231 276
f 276 231 296
f 296 342 276
f 326 268 276
f 276 342 326
f 312 306 263
f 369 306 312
f 35 132 33
f 35 39 132
f 37 92 35
f 35 92 129
f 129 39 35
f 33 36 35
f 35 36 37
f 6 4 1
f 45 50 56
f 46 4 45
f 56 62 45
f 982 978 967
f 987 978 982
f 711 719 754
f 754 719 771
f 754 771 791
f 791 765 754
f 620 613 561
f 620 622 682
f 677 622 609
f 682 622 677
f 561 502 504
f 566 551 622
f 566 620 561
f 622 620 566
f 561 504 566
f 566 504 551
f 732 687 711
f 732 765 760
f 711 754 732
f 732 754 765
f 663 677 609
f 727 677 663
f 926 924 950
f 895 924 926
f 750 677 727
f 608 627 601
f 608 545 613
f 799 784 737
f 874 893 910
f 910 893 931
f 851 854 878
f 880 904 878
f 878 854 880
f 851 893 835
f 835 817 851
f 782 817 835
f 835 810 782
f 220 249 222
f 188 164 131
f 220 222 186
f 186 222 188
f 209 221 227
f 254 257 227
f 257 278 313
f 578 585 536
f 543 536 585
f 640 585 578
f 700 719 670
f 692 667 621
f 621 640 578
f 667 640 621
f 568 621 578
f 603 621 568
f 568 598 603
f 808 805 766
f 796 741 768
f 729 777 768
f 819 777 829
f 819 850 796
f 796 768 819
f 819 768 777
f 771 719 758
f 725 775 758
f 758 700 725
f 719 700 758
f 794 811 771
f 771 758 794
f 794 758 775
f 697 741 725
f 971 942 944
f 971 979 942
f 990 979 971
f 988 992 986
f 992 987 986
f 982 985 986
f 986 987 982
f 982 967 975
f 975 985 982
f 975 962 985
f 956 938 920
f 962 975 956
f 963 985 959
f 985 962 959
f 927 963 959
f 974 985 963
f 963 955 974
f 953 966 974
f 974 955 953
f 829 875 869
f 869 875 898
f 898 850 869
f 869 819 829
f 850 819 869
f 515 567 637
f 919 955 927
f 461 528 525
f 515 454 525
f 525 454 461
f 744 751 673
f 673 742 744
f 977 966 947
f 947 949 977
f 923 949 947
f 650 648 722
f 722 730 650
f 650 730 668
f 650 668 606
f 606 605 650
f 605 648 650
f 549 548 495
f 544 524 540
f 490 524 544
f 540 572 544
f 544 572 607
f 495 490 544
f 544 549 495
f 673 581 612
f 612 607 673
f 612 581 548
f 548 549 612
f 612 544 607
f 549 544 612
f 240 249 220
f 513 483 479
f 451 474 479
f 472 474 442
f 264 316 319
f 319 267 264
f 485 357 488
f 488 539 485
f 485 539 357
f 357 556 626
f 626 556 601
f 601 627 626
f 626 627 664
f 488 453 491
f 491 453 438
f 491 545 488
f 491 496 545
f 550 502 561
f 550 496 502
f 545 496 550
f 561 613 550
f 613 545 550
f 310 294 328
f 294 286 328
f 328 286 288
f 288 331 328
f 291 331 288
f 245 269 291
f 291 288 245
f 243 200 245
f 235 200 243
f 243 262 235
f 245 288 243
f 243 288 262
f 119 144 34
f 34 32 119
f 119 147 144
f 119 32 28
f 28 26 119
f 119 26 24
f 202 164 188
f 355 374 327
f 327 374 383
f 149 160 103
f 177 160 149
f 149 200 177
f 152 200 149
f 34 93 63
f 63 32 34
f 49 32 63
f 63 38 49
f 93 38 63
f 409 422 412
f 360 363 356
f 422 409 360
f 360 460 422
f 356 460 360
f 467 466 416
f 416 414 467
f 370 414 416
f 461 454 391
f 391 454 384
f 487 524 490
f 925 949 923
f 925 921 949
f 925 923 894
f 894 921 925
f 907 867 865
f 865 905 907
f 907 885 867
f 907 921 885
f 939 933 912
f 914 939 912
f 912 909 914
f 912 905 899
f 899 909 912
f 813 814 778
f 553 813 778
f 778 535 553
f 778 761 535
f 762 814 815
f 815 763 762
f 762 778 814
f 761 778 762
f 762 763 720
f 720 717 762
f 717 761 762
f 562 831 769
f 769 803 562
f 831 803 769
f 900 884 906
f 900 841 821
f 821 884 900
f 862 803 831
f 862 884 803
f 721 723 787
f 787 786 721
f 723 784 787
f 787 784 833
f 943 972 936
f 950 978 980
f 980 943 950
f 972 943 980
f 978 987 980
f 968 973 976
f 968 960 958
f 969 973 968
f 958 957 968
f 968 957 969
f 871 881 856
f 881 864 856
f 856 864 562
f 936 972 961
f 969 957 961
f 983 969 961
f 961 972 983
f 229 199 244
f 244 159 229
f 229 159 199
f 244 184 165
f 165 159 244
f 184 172 165
f 1 30 3
f 30 14 3
f 3 6 1
f 12 6 3
f 17 12 3
f 3 14 17
f 21 29 25
f 21 14 29
f 21 25 23
f 23 20 21
f 20 14 21
f 103 520 40
f 520 38 40
f 40 93 103
f 40 38 93
f 254 227 228
f 228 227 221
f 228 194 210
f 221 194 228
f 475 509 511
f 126 94 84
f 84 133 126
f 136 94 126
f 139 155 161
f 161 133 139
f 88 94 136
f 136 102 88
f 179 155 156
f 179 181 155
f 156 175 179
f 179 175 194
f 194 181 179
f 65 98 58
f 58 60 65
f 60 69 65
f 83 100 98
f 98 65 83
f 106 69 101
f 101 116 106
f 69 116 101
f 118 116 122
f 127 116 118
f 112 142 107
f 107 142 100
f 100 142 135
f 135 142 169
f 98 100 135
f 135 153 98
f 167 153 135
f 135 169 167
f 42 60 58
f 42 12 60
f 42 6 12
f 4 6 42
f 42 45 4
f 61 67 66
f 61 62 67
f 13 41 59
f 10 41 13
f 13 2 10
f 8 4 46
f 46 41 8
f 41 9 8
f 210 215 232
f 232 228 210
f 232 215 258
f 208 213 263
f 263 256 208
f 208 172 213
f 351 342 368
f 370 416 368
f 296 370 368
f 368 342 296
f 217 215 167
f 258 215 217
f 167 169 217
f 237 239 272
f 203 208 256
f 251 256 301
f 251 203 256
f 272 239 284
f 284 324 272
f 341 324 284
f 369 312 377
f 377 312 384
f 384 447 377
f 263 268 317
f 317 312 263
f 317 268 326
f 384 312 317
f 326 391 317
f 317 391 384
f 369 377 437
f 437 377 447
f 931 938 954
f 954 975 967
f 938 956 954
f 954 956 975
f 950 924 948
f 948 978 950
f 948 967 978
f 551 504 498
f 446 504 502
f 727 663 712
f 712 663 687
f 712 732 760
f 687 732 712
f 760 782 773
f 782 810 773
f 773 712 760
f 727 712 773
f 846 799 807
f 807 848 846
f 833 784 846
f 846 784 799
f 846 895 833
f 846 848 895
f 838 789 828
f 895 926 922
f 922 926 950
f 950 943 922
f 807 752 755
f 677 750 755
f 755 752 682
f 682 677 755
f 735 750 727
f 557 539 545
f 545 608 557
f 557 608 601
f 601 556 557
f 556 539 557
f 731 784 723
f 731 737 784
f 743 752 799
f 799 737 743
f 674 608 613
f 674 743 737
f 674 620 682
f 613 620 674
f 682 752 674
f 752 743 674
f 902 893 851
f 851 878 902
f 904 938 902
f 902 878 904
f 858 893 874
f 858 835 893
f 810 835 858
f 195 186 128
f 183 214 168
f 209 214 183
f 183 181 209
f 161 181 183
f 259 214 233
f 233 214 209
f 209 227 233
f 233 227 257
f 428 499 493
f 329 313 278
f 392 352 329
f 329 352 313
f 277 278 254
f 390 316 381
f 390 319 316
f 390 425 399
f 399 319 390
f 711 687 672
f 687 640 672
f 672 667 711
f 672 640 667
f 585 640 600
f 600 543 585
f 609 551 600
f 551 543 600
f 512 474 472
f 618 644 587
f 603 598 647
f 647 635 670
f 598 635 647
f 591 564 595
f 591 554 564
f 521 483 513
f 825 775 796
f 825 794 775
f 796 850 825
f 825 850 880
f 880 854 825
f 825 854 811
f 811 794 825
f 657 644 676
f 676 697 657
f 952 971 944
f 944 939 952
f 952 964 965
f 939 964 952
f 990 971 984
f 984 989 990
f 984 952 965
f 971 952 984
f 965 976 984
f 976 989 984
f 927 959 929
f 981 986 985
f 985 974 981
f 988 986 981
f 981 974 966
f 977 988 981
f 981 966 977
f 806 845 847
f 847 801 806
f 847 845 894
f 756 751 806
f 806 801 756
f 610 637 567
f 596 681 751
f 596 581 673
f 673 681 596
f 897 919 927
f 836 875 822
f 830 836 792
f 514 480 484
f 484 522 514
f 522 559 514
f 509 480 514
f 492 518 526
f 492 526 533
f 798 744 742
f 806 751 798
f 751 744 798
f 798 845 806
f 798 785 845
f 798 742 736
f 736 785 798
f 923 947 940
f 940 966 953
f 940 947 966
f 343 279 300
f 346 298 321
f 321 352 346
f 313 352 321
f 293 303 249
f 249 240 293
f 293 240 279
f 293 279 343
f 381 316 308
f 381 308 372
f 372 308 303
f 279 240 248
f 417 390 381
f 425 390 417
f 451 479 417
f 334 340 267
f 267 319 334
f 334 319 399
f 413 340 334
f 357 626 339
f 310 328 339
f 364 328 331
f 337 380 331
f 331 291 337
f 290 337 291
f 138 119 123
f 147 119 138
f 148 147 138
f 123 131 138
f 138 164 148
f 138 131 164
f 264 267 234
f 148 164 207
f 164 202 207
f 202 234 207
f 311 340 344
f 344 355 311
f 355 327 311
f 327 282 311
f 103 93 130
f 130 149 103
f 152 149 130
f 130 93 144
f 130 147 152
f 144 147 130
f 366 365 371
f 371 376 366
f 365 363 371
f 363 376 371
f 388 376 363
f 363 360 388
f 388 360 394
f 388 394 366
f 366 376 388
f 412 394 401
f 394 360 401
f 403 466 461
f 461 391 403
f 326 342 403
f 403 391 326
f 411 342 351
f 351 368 411
f 411 368 416
f 411 403 342
f 411 416 466
f 466 403 411
f 486 490 482
f 486 487 490
f 482 524 486
f 524 487 486
f 917 912 933
f 917 933 942
f 917 907 905
f 905 912 917
f 942 921 917
f 921 907 917
f 946 860 930
f 930 860 841
f 930 957 946
f 884 862 891
f 906 884 891
f 786 787 842
f 842 787 833
f 991 980 987
f 983 972 991
f 972 980 991
f 993 989 991
f 991 989 983
f 991 992 993
f 991 987 992
f 970 964 960
f 960 968 970
f 976 964 970
f 970 968 976
f 844 860 871
f 871 856 844
f 562 860 844
f 844 856 562
f 134 159 162
f 159 165 162
f 162 165 172
f 330 277 283
f 563 511 509
f 146 195 128
f 198 195 146
f 154 168 136
f 136 126 154
f 154 126 133
f 154 133 161
f 161 183 154
f 154 183 168
f 114 133 84
f 114 139 133
f 84 61 114
f 114 61 66
f 113 125 114
f 66 70 114
f 114 74 113
f 114 70 74
f 124 125 155
f 155 139 124
f 124 114 125
f 139 114 124
f 89 109 79
f 79 109 68
f 99 109 89
f 123 119 120
f 109 117 120
f 120 117 128
f 120 186 188
f 128 186 120
f 59 68 105
f 68 109 105
f 24 59 105
f 105 119 24
f 105 120 119
f 109 120 105
f 102 104 96
f 94 88 82
f 82 79 77
f 88 79 82
f 80 87 100
f 100 83 80
f 80 76 69
f 80 69 106
f 106 87 80
f 97 107 100
f 44 42 58
f 44 52 50
f 50 45 44
f 45 42 44
f 59 18 16
f 16 13 59
f 16 18 2
f 2 13 16
f 7 9 10
f 7 10 1
f 7 8 9
f 11 41 10
f 10 9 11
f 11 9 41
f 255 232 283
f 228 232 255
f 283 277 255
f 254 228 255
f 255 277 254
f 275 232 258
f 283 232 275
f 258 297 275
f 275 297 320
f 492 433 476
f 476 518 492
f 420 433 418
f 430 499 428
f 499 430 471
f 471 430 433
f 266 237 272
f 225 197 237
f 208 203 163
f 172 208 163
f 163 162 172
f 187 118 122
f 295 251 301
f 341 284 295
f 484 457 456
f 456 437 464
f 396 324 341
f 341 406 396
f 396 449 426
f 406 449 396
f 653 641 662
f 583 588 542
f 589 619 611
f 588 619 589
f 618 587 584
f 584 589 611
f 538 589 584
f 541 493 542
f 924 910 941
f 941 948 924
f 941 910 931
f 967 948 941
f 931 954 941
f 941 954 967
f 497 543 551
f 551 498 497
f 489 543 497
f 497 419 489
f 432 498 504
f 432 355 344
f 344 419 432
f 419 497 432
f 432 497 498
f 443 491 438
f 496 491 443
f 502 496 443
f 443 446 502
f 780 789 727
f 727 773 780
f 828 789 780
f 824 773 810
f 810 858 824
f 828 780 824
f 824 780 773
f 874 828 824
f 824 858 874
f 789 838 800
f 800 848 807
f 800 838 848
f 807 755 800
f 800 755 750
f 800 735 789
f 750 735 800
f 888 828 874
f 888 838 828
f 874 910 888
f 888 910 924
f 895 922 886
f 833 895 886
f 886 842 833
f 872 842 886
f 727 789 734
f 734 735 727
f 789 735 734
f 695 731 723
f 664 627 669
f 627 608 669
f 669 695 664
f 731 695 669
f 737 731 669
f 608 674 669
f 669 674 737
f 931 893 916
f 893 902 916
f 916 938 931
f 916 902 938
f 219 195 198
f 219 248 240
f 219 240 220
f 220 186 219
f 186 195 219
f 259 233 274
f 313 321 274
f 257 313 274
f 274 233 257
f 274 298 259
f 274 321 298
f 392 427 431
f 427 463 431
f 386 434 346
f 346 352 386
f 386 352 392
f 392 431 386
f 542 493 530
f 530 493 499
f 530 583 542
f 305 329 278
f 335 329 305
f 278 277 305
f 305 330 335
f 277 330 305
f 407 478 413
f 407 334 399
f 413 334 407
f 399 425 468
f 413 478 481
f 489 419 481
f 481 419 413
f 481 543 489
f 654 663 609
f 609 600 654
f 687 663 654
f 654 640 687
f 654 600 640
f 598 568 558
f 513 554 558
f 558 521 513
f 568 521 558
f 474 512 510
f 510 554 513
f 564 554 510
f 510 512 564
f 513 479 510
f 510 479 474
f 580 587 616
f 643 630 616
f 616 587 644
f 644 657 616
f 616 657 643
f 595 564 570
f 564 512 570
f 335 330 359
f 427 397 429
f 428 493 429
f 429 359 428
f 397 359 429
f 358 329 335
f 335 359 358
f 358 359 397
f 392 329 358
f 358 427 392
f 358 397 427
f 649 621 603
f 603 647 649
f 692 621 649
f 649 670 692
f 649 647 670
f 592 635 598
f 554 591 592
f 631 635 592
f 592 591 631
f 598 558 592
f 592 558 554
f 738 777 729
f 793 777 738
f 662 703 699
f 628 591 595
f 631 591 628
f 680 630 643
f 643 657 680
f 680 657 697
f 725 700 680
f 680 697 725
f 741 697 715
f 697 713 715
f 715 768 741
f 729 768 715
f 715 713 729
f 706 697 676
f 706 713 697
f 676 690 706
f 729 713 706
f 898 875 918
f 927 929 918
f 918 897 927
f 749 756 801
f 525 596 573
f 751 756 614
f 614 596 751
f 614 573 596
f 614 610 567
f 614 567 515
f 515 525 614
f 525 573 614
f 577 525 528
f 577 596 525
f 577 528 581
f 581 596 577
f 515 637 500
f 637 597 500
f 500 454 515
f 447 454 500
f 875 836 876
f 876 836 830
f 876 918 875
f 897 918 876
f 868 876 830
f 897 876 868
f 804 822 808
f 808 766 804
f 804 836 822
f 804 792 836
f 818 868 830
f 651 597 637
f 651 559 522
f 651 500 597
f 560 526 518
f 579 533 560
f 560 533 526
f 343 300 333
f 333 389 343
f 333 298 346
f 333 300 298
f 253 222 249
f 249 303 253
f 303 308 253
f 343 389 398
f 303 293 349
f 349 372 303
f 349 293 343
f 343 398 349
f 349 398 372
f 270 300 279
f 279 248 270
f 458 479 483
f 458 417 479
f 425 417 458
f 458 468 425
f 451 417 408
f 372 398 408
f 381 372 408
f 408 417 381
f 694 339 626
f 721 693 694
f 694 693 310
f 310 339 694
f 694 626 664
f 664 695 694
f 694 723 721
f 694 695 723
f 331 380 367
f 367 364 331
f 362 339 328
f 328 364 362
f 357 339 362
f 380 337 382
f 382 327 383
f 383 446 382
f 446 443 382
f 438 380 382
f 382 443 438
f 261 282 302
f 302 282 327
f 180 147 148
f 180 269 245
f 273 311 282
f 267 340 273
f 340 311 273
f 404 409 412
f 412 401 404
f 404 360 409
f 404 401 360
f 841 900 913
f 913 930 841
f 913 900 906
f 957 930 935
f 936 961 935
f 935 961 957
f 930 913 935
f 935 906 936
f 935 913 906
f 896 891 872
f 872 886 896
f 896 886 922
f 786 842 837
f 831 783 837
f 837 783 786
f 837 862 831
f 837 842 872
f 872 891 837
f 837 891 862
f 258 217 246
f 246 297 258
f 348 330 283
f 283 275 348
f 348 275 320
f 348 320 345
f 110 146 128
f 128 117 110
f 109 99 110
f 110 117 109
f 110 99 89
f 141 102 136
f 141 104 102
f 141 110 104
f 146 110 141
f 77 79 75
f 75 79 68
f 84 94 51
f 94 53 51
f 121 131 123
f 123 120 121
f 188 131 121
f 121 120 188
f 86 79 88
f 86 88 102
f 89 79 86
f 86 110 89
f 73 83 65
f 73 65 69
f 69 76 73
f 76 80 78
f 83 73 78
f 78 73 76
f 100 87 91
f 91 97 100
f 106 112 91
f 91 87 106
f 112 107 91
f 107 97 91
f 54 44 58
f 52 44 54
f 58 98 54
f 98 52 54
f 4 8 5
f 8 7 5
f 1 4 5
f 5 7 1
f 441 440 426
f 441 449 475
f 426 449 441
f 420 424 436
f 436 433 420
f 436 476 433
f 424 440 436
f 440 476 436
f 402 418 433
f 433 430 402
f 345 418 402
f 402 348 345
f 499 471 505
f 492 533 505
f 505 433 492
f 505 471 433
f 387 424 420
f 387 440 424
f 324 396 387
f 426 440 387
f 387 396 426
f 378 418 345
f 345 353 378
f 420 418 378
f 378 387 420
f 353 387 378
f 171 169 145
f 239 237 185
f 127 118 185
f 118 187 185
f 134 162 137
f 162 163 137
f 137 122 134
f 137 163 122
f 203 251 190
f 251 187 190
f 190 163 203
f 122 163 190
f 190 187 122
f 251 295 241
f 241 187 251
f 241 284 239
f 241 295 284
f 239 185 241
f 241 185 187
f 406 415 445
f 347 406 341
f 347 415 406
f 341 295 347
f 347 295 301
f 415 347 354
f 354 347 301
f 354 306 369
f 301 306 354
f 421 456 457
f 457 415 421
f 415 354 421
f 421 354 369
f 369 437 421
f 437 456 421
f 588 641 638
f 638 619 588
f 641 653 638
f 633 641 588
f 588 583 633
f 517 538 547
f 538 584 547
f 547 584 587
f 547 587 580
f 580 534 547
f 576 589 538
f 538 541 576
f 588 589 576
f 542 588 576
f 576 541 542
f 504 446 444
f 444 432 504
f 383 374 444
f 444 446 383
f 444 374 355
f 355 432 444
f 848 838 889
f 838 888 889
f 895 848 889
f 889 924 895
f 889 888 924
f 465 463 517
f 465 431 463
f 583 530 546
f 546 533 579
f 470 407 399
f 399 468 470
f 478 407 470
f 483 521 501
f 501 458 483
f 468 458 501
f 501 470 468
f 478 470 501
f 516 481 478
f 478 501 516
f 536 543 516
f 543 481 516
f 582 574 580
f 580 616 582
f 582 616 595
f 595 570 582
f 582 570 574
f 574 570 532
f 580 574 532
f 532 534 580
f 494 429 493
f 517 463 494
f 494 463 427
f 427 429 494
f 494 538 517
f 494 541 538
f 493 541 494
f 618 584 634
f 634 656 618
f 634 584 611
f 676 644 666
f 666 644 618
f 618 656 666
f 678 666 656
f 793 738 746
f 746 805 793
f 746 766 805
f 624 628 595
f 595 616 624
f 624 616 630
f 630 680 660
f 660 624 630
f 628 624 660
f 631 628 660
f 660 680 700
f 660 635 631
f 660 700 670
f 670 635 660
f 920 898 928
f 898 918 928
f 928 918 929
f 928 956 920
f 962 956 928
f 928 959 962
f 928 929 959
f 753 651 764
f 764 651 759
f 852 816 834
f 953 955 937
f 955 919 937
f 890 847 894
f 894 923 890
f 923 887 890
f 823 873 857
f 911 873 887
f 923 940 911
f 911 887 923
f 733 726 637
f 637 749 733
f 733 749 801
f 756 749 625
f 625 614 756
f 625 749 637
f 637 610 625
f 610 614 625
f 745 739 792
f 745 804 766
f 792 804 745
f 792 739 776
f 767 818 776
f 830 792 776
f 776 818 830
f 868 818 849
f 879 897 849
f 897 868 849
f 795 818 767
f 795 849 818
f 718 651 753
f 718 701 651
f 500 651 552
f 464 437 552
f 552 456 464
f 552 437 447
f 447 500 552
f 484 456 552
f 552 522 484
f 552 651 522
f 373 333 346
f 389 333 373
f 346 434 373
f 434 435 373
f 373 435 389
f 260 308 316
f 260 253 308
f 260 316 264
f 264 234 260
f 216 214 259
f 168 214 216
f 248 219 218
f 218 212 248
f 218 205 212
f 218 219 198
f 198 205 218
f 451 408 448
f 448 408 398
f 448 398 442
f 448 474 451
f 448 442 474
f 336 337 261
f 261 302 336
f 336 382 337
f 327 382 336
f 336 302 327
f 261 337 224
f 178 245 230
f 178 180 245
f 230 200 178
f 200 147 178
f 147 180 178
f 906 891 908
f 891 896 908
f 908 896 922
f 908 922 943
f 936 906 908
f 908 943 936
f 271 246 250
f 250 266 271
f 237 266 250
f 250 225 237
f 211 246 217
f 211 217 169
f 225 250 211
f 211 250 246
f 169 171 211
f 393 430 428
f 428 359 393
f 393 402 430
f 348 402 393
f 393 359 330
f 330 348 393
f 563 594 569
f 511 563 569
f 518 511 569
f 569 560 518
f 146 141 170
f 170 141 136
f 170 216 212
f 136 168 170
f 168 216 170
f 64 68 59
f 84 51 48
f 43 51 53
f 43 48 51
f 102 96 90
f 90 86 102
f 110 86 90
f 90 96 104
f 104 110 90
f 81 80 83
f 83 78 81
f 81 78 80
f 473 476 440
f 440 441 473
f 473 511 518
f 518 476 473
f 475 511 473
f 473 441 475
f 314 353 345
f 345 320 314
f 320 297 314
f 297 246 299
f 299 314 297
f 304 314 299
f 299 246 271
f 271 266 299
f 324 387 315
f 304 299 315
f 315 299 266
f 272 324 315
f 315 266 272
f 237 197 196
f 196 185 237
f 196 197 145
f 145 127 196
f 127 185 196
f 450 449 406
f 406 445 450
f 475 449 450
f 450 480 475
f 450 445 480
f 480 445 452
f 452 445 415
f 452 415 457
f 484 480 452
f 452 457 484
f 431 465 455
f 434 386 455
f 455 386 431
f 529 530 499
f 529 546 530
f 499 505 529
f 529 505 533
f 533 546 529
f 531 501 521
f 531 568 578
f 531 521 568
f 578 536 531
f 536 516 531
f 531 516 501
f 477 532 519
f 519 512 472
f 472 477 519
f 519 570 512
f 519 532 570
f 389 435 439
f 442 398 439
f 439 398 389
f 472 442 439
f 439 477 472
f 439 435 477
f 642 634 611
f 611 619 642
f 642 638 653
f 619 638 642
f 708 678 704
f 704 746 708
f 708 746 738
f 689 690 676
f 676 666 689
f 689 706 690
f 747 746 704
f 704 698 747
f 766 746 747
f 790 764 816
f 790 816 852
f 753 764 790
f 901 937 903
f 903 937 919
f 903 897 879
f 919 897 903
f 852 901 877
f 877 853 852
f 901 903 877
f 879 853 877
f 877 903 879
f 857 834 809
f 809 823 857
f 788 779 726
f 788 733 801
f 726 733 788
f 887 873 827
f 873 823 827
f 823 779 827
f 779 788 827
f 932 911 940
f 932 940 953
f 953 937 932
f 849 795 826
f 826 853 879
f 879 849 826
f 797 826 774
f 774 826 795
f 651 701 671
f 659 671 701
f 586 546 579
f 583 546 586
f 559 651 599
f 599 593 559
f 651 593 599
f 629 594 590
f 590 594 563
f 222 253 226
f 253 260 226
f 188 222 226
f 226 260 234
f 226 202 188
f 226 234 202
f 248 212 247
f 212 216 247
f 247 270 248
f 298 300 247
f 300 270 247
f 259 298 247
f 247 216 259
f 375 367 380
f 364 367 375
f 375 362 364
f 405 380 438
f 357 362 361
f 361 453 357
f 423 453 361
f 173 224 180
f 148 207 173
f 173 180 148
f 252 173 207
f 224 173 252
f 261 224 252
f 252 282 261
f 252 273 282
f 180 224 189
f 189 290 291
f 337 290 189
f 189 224 337
f 189 291 269
f 269 180 189
f 192 211 171
f 145 197 192
f 192 171 145
f 594 604 602
f 602 569 594
f 146 170 174
f 198 146 174
f 174 205 198
f 212 205 174
f 174 170 212
f 72 75 68
f 68 64 72
f 77 75 72
f 72 82 77
f 94 82 72
f 72 64 94
f 57 64 59
f 59 41 57
f 57 53 94
f 94 64 57
f 41 43 57
f 57 43 53
f 62 61 47
f 48 43 47
f 46 45 47
f 47 45 62
f 47 41 46
f 47 43 41
f 353 314 332
f 332 314 304
f 304 315 332
f 332 387 353
f 332 315 387
f 434 455 469
f 469 435 434
f 477 435 469
f 469 532 477
f 661 642 653
f 661 653 662
f 661 698 704
f 662 699 661
f 699 698 661
f 704 678 661
f 634 642 661
f 656 634 661
f 661 678 656
f 710 738 729
f 710 708 738
f 729 706 710
f 706 689 710
f 702 698 699
f 702 747 698
f 748 699 703
f 703 745 748
f 748 702 699
f 747 702 748
f 748 745 766
f 766 747 748
f 753 790 770
f 770 718 753
f 812 826 797
f 853 826 812
f 797 770 812
f 812 770 790
f 852 853 812
f 812 790 852
f 781 834 816
f 781 809 834
f 816 764 781
f 781 764 759
f 637 726 772
f 726 779 772
f 772 651 637
f 759 651 772
f 772 781 759
f 809 781 772
f 823 809 772
f 772 779 823
f 887 827 839
f 847 890 839
f 839 890 887
f 801 847 839
f 839 788 801
f 839 827 788
f 911 932 892
f 892 901 852
f 857 873 892
f 873 911 892
f 892 834 857
f 852 834 892
f 757 774 724
f 724 701 757
f 701 718 757
f 718 770 757
f 797 774 757
f 757 770 797
f 679 701 724
f 679 659 701
f 671 659 636
f 636 593 651
f 651 671 636
f 767 714 740
f 724 774 740
f 740 795 767
f 740 774 795
f 728 714 767
f 767 776 728
f 728 776 739
f 739 709 728
f 705 728 709
f 714 728 705
f 555 590 563
f 593 590 555
f 559 593 555
f 555 563 509
f 509 514 555
f 555 514 559
f 380 395 385
f 385 361 362
f 395 361 385
f 400 395 380
f 380 405 400
f 400 361 395
f 405 361 400
f 438 423 410
f 410 405 438
f 423 361 410
f 410 361 405
f 238 252 207
f 238 234 267
f 238 207 234
f 267 273 238
f 273 252 238
f 206 192 197
f 211 192 206
f 197 225 206
f 225 211 206
f 575 602 579
f 569 602 575
f 579 560 575
f 560 569 575
f 55 47 61
f 48 47 55
f 55 61 84
f 84 48 55
f 506 455 465
f 506 469 455
f 506 465 517
f 534 532 506
f 532 469 506
f 517 547 506
f 506 547 534
f 685 689 666
f 685 710 689
f 666 678 685
f 678 708 685
f 708 710 685
f 901 892 915
f 915 892 932
f 915 937 901
f 915 932 937
f 632 659 629
f 632 636 659
f 629 590 632
f 632 590 593
f 593 636 632
f 583 586 617
f 617 633 583
f 617 655 633
f 652 703 662
f 633 655 652
f 662 641 652
f 641 633 652
f 684 705 691
f 691 705 709
f 709 686 691
f 658 639 679
f 714 705 696
f 696 679 724
f 696 658 679
f 724 740 696
f 696 740 714
f 362 375 379
f 379 385 362
f 379 375 380
f 380 385 379
f 659 679 623
f 679 639 623
f 629 659 623
f 623 639 604
f 623 594 629
f 623 604 594
f 703 652 683
f 683 652 655
f 655 617 665
f 665 683 655
f 686 683 665
f 684 691 665
f 665 691 686
f 645 617 586
f 645 665 617
f 658 696 675
f 675 645 658
f 675 705 684
f 675 696 705
f 684 665 675
f 665 645 675
f 703 683 707
f 707 745 703
f 739 745 707
f 707 709 739
f 707 686 709
f 707 683 686
f 615 645 586
f 615 586 579
f 579 602 615
f 615 602 604
f 604 639 615
f 639 658 615
f 658 645 615
