v -0.01046617236 -0.004949999042 -0.004129086155
v -0.01046617236 -0.002949998947 -0.004129088949
v -0.01046617236 0.004950000905 -0.004129086621
v -0.01046617143 0.00294999918 -0.004129083827
v -0.01045349427 -0.004949999973 -0.004703313578
v -0.01045349427 -0.002949999878 -0.004703316372
v -0.01045349427 0.00294999918 -0.0047033187
v -0.01045349427 0.004950000439 -0.004703314044
v -0.01026210748 0.002950002206 -0.003592190798
v -0.01026210655 -0.004949998576 -0.003592185909
v -0.01026210561 0.004949999508 -0.003592186607
v -0.01022593305 -0.004949999973 -0.005230682436
v -0.01022593305 0.00294999918 -0.005230687559
v -0.01022593305 0.004950000439 -0.005230682902
v -0.01022593211 -0.002949999645 -0.00523068523
v -0.009871219285 -0.004949999973 -0.003171342192
v -0.009871219285 0.004949999973 -0.003171342658
v -0.009816854261 -0.004949998111 -0.00563387014
v -0.009816854261 0.004950000439 -0.005633871071
v -0.009286236949 -0.002949999645 -0.005853747483
v -0.009286236949 0.00294999918 -0.005853749346
v -0.009286236949 0.004950000439 -0.005853744689
v -0.009286236018 -0.004949999508 -0.005853744224
v -0.008711882867 -0.004950000439 -0.005858083721
v -0.008711882867 -0.002949998248 -0.005858086515
v -0.008711882867 0.004949999973 -0.005858084187
v -0.001879808609 -0.002949998947 -0.004578873515
v -0.00187980826 0.00495000137 -0.004578871187
v -0.001879807911 -0.004949999042 -0.004578870721
v -0.001499999664 0.006999999285 2.729725779e-09
v -0.001499999315 -0.00699999975 8.127592599e-09
v -0.001385819633 -0.006999998819 0.0005740312045
v -0.0013858194 0.007000001147 0.0005740334163
v -0.001385819283 -0.00699999975 -0.0005740190973
v -0.001385818585 0.006999998819 -0.0005740171764
v -0.001288665342 -0.004949999042 -0.00443039136
v -0.001288665342 0.004950000905 -0.004430391826
v -0.001288665226 -0.002949998947 -0.004430394154
v -0.001060659997 0.007000001147 0.00106066803
v -0.001060659881 -0.00699999975 -0.001060654526
v -0.001060659764 -0.006999998819 0.001060665818
v -0.001060659648 0.006999998819 -0.001060652547
v -0.001050000312 0.004865626339 0.005105193704
v -0.001050000079 -0.004621992819 0.005545395892
v -0.001050000079 -0.002500234405 0.006989335176
v -0.001050000079 0.004254165571 0.005875431001
v -0.001049999846 -0.004865624476 0.005105202086
v -0.001049999846 0.004621993285 0.005545385648
v -0.001049999613 -0.004254162312 0.005875436123
v -0.001049999148 0.00250022742 0.00698933797
v -0.0007424473297 -0.002950000111 -0.004221298266
v -0.0007424471551 0.002949998947 -0.004221300595
v -0.0005740253837 0.007000001147 0.001385821379
v -0.0005740252091 -0.006999998819 -0.001385815907
v -0.0005740249762 0.00699999975 -0.001385813928
v -0.0005740246852 -0.00699999975 0.001385826501
v -0.0005536266835 0.003016687464 -0.004131339956
v -0.0004083712411 -0.004949998576 -0.004055188969
v -0.0004083711246 0.004950001836 -0.004055189434
v -0.0004078657948 0.003071081592 -0.004055125639
v -2.922827844e-05 0.003220936516 -0.003826494794
v -2.838438377e-05 -0.003221908817 -0.003824481741
v -2.045908721e-10 0.007000000682 -0.0014999985
v 9.433239611e-11 -0.006999998819 -0.001499993028
v 2.422133327e-10 0.006999999285 0.001500001992
v 5.411365801e-10 -0.00699999975 0.001500007347
v 9.680648873e-06 -0.003237402067 -0.003798863851
v 0.0001616831869 0.003298906377 -0.003692704486
v 0.0003827332694 -0.003388960613 -0.003520465689
v 0.0003843233571 0.004950001836 -0.003519150661
v 0.0003843236482 -0.004950000439 -0.003519150428
v 0.0004944148823 0.002071434865 0.007261659484
v 0.0004944367683 -0.002071436262 0.007261661813
v 0.000574024627 0.007000002544 -0.001385817421
v 0.0005740253255 -0.006999998819 0.001385822776
v 0.0005740255583 0.00699999975 0.001385824871
v 0.0005740257329 -0.007000000216 -0.001385812415
v 0.0006944424822 -0.003511213465 -0.003241513623
v 0.0007486915565 0.003532317467 -0.003186496673
v 0.001059059869 0.003639957635 -0.002843473339
v 0.001060382114 -0.004949999508 -0.002841927577
v 0.001060382347 0.004950001836 -0.002841920359
v 0.001060659997 0.007000001613 -0.001060656738
v 0.00106066023 0.007000000216 0.00106066349
v 0.001060660463 -0.006999999285 -0.001060651499
v 0.001060660463 -0.006999998819 0.001060668845
v 0.001191767165 -0.003679690184 -0.002673286712
v 0.001222496736 0.003687184071 -0.002633856609
v 0.001385819167 0.007000001613 -0.0005740220658
v 0.0013858194 0.007000000682 0.000574028003
v 0.001385819516 -0.006999998819 0.0005740334163
v 0.001385819865 -0.006999999285 -0.0005740168854
v 0.00141583744 0.001790141105 0.007424127776
v 0.001415845589 -0.001790145761 0.00742413383
v 0.001500000362 -0.007000000216 5.941638959e-09
v 0.001500000362 0.00699999975 8.148920427e-09
v 0.001574114314 -0.003749443451 -0.002084639389
v 0.001583931036 0.003748528427 -0.002067465335
v 0.001595043694 0.004950000905 -0.002048305934
v 0.001595043926 -0.004949999508 -0.002048305469
v 0.001845190767 -0.003712250851 -0.001515957527
v 0.00186559069 0.003703640308 -0.001461815205
v 0.00196872442 0.004950000439 -0.001167363138
v 0.001968724653 -0.004949999508 -0.001167362672
v 0.001969776349 -0.003632381558 -0.001163888606
v 0.002029561205 -0.003562538652 -0.0009577335441
v 0.002041298663 0.003544935025 -0.0009123186464
v 0.002078347141 -0.003476522397 -0.0007605733117
v 0.002133213216 -0.003312402638 -0.0004812594852
v 0.002142894547 0.003267030232 -0.0004198501119
v 0.002144598635 0.003258478828 -0.0004085900146
v 0.002167736646 -0.004949999042 -0.0002313662844
v 0.002167737344 0.004949999508 -0.0002313669829
v 0.002169718733 -0.003090271726 -0.0002150059008
v 0.002186284633 0.002882412635 -3.433545498e-05
v 0.002194515662 -0.002665251028 0.0001019373813
v 0.002194693079 0.002667874796 0.0001015105736
v 0.002198656555 0.002434100723 0.0002022057452
v 0.002199689858 -0.002184104873 0.0002638090227
v 0.00219971803 0.001950000413 0.0002826244163
v 0.002199999755 -0.002071436495 0.00726165995
v 0.002199999755 -0.001496196375 0.007562396117
v 0.002199999755 0.001496190787 0.007562398445
v 0.002199999755 0.004621995147 0.005545383785
v 0.002199999988 0.002071435796 0.007261656225
v 0.002199999988 0.004254164174 0.005875428207
v 0.002199999988 0.004950000905 0.0003357230453
v 0.002200000221 -0.004949999973 0.004609215073
v 0.002200000221 -0.004949999508 0.0003357235109
v 0.002200000221 -0.004621992353 0.005545393564
v 0.002200000221 -0.004254162777 0.005875441246
v 0.002200000221 0.004949999508 0.004609207157
v 0.002200000454 -0.004865624942 0.005105207209
v 0.002200000454 -0.0004789104569 0.005683202296
v 0.002200000687 -0.0004789105151 0.002316814149
v 0.002200000687 0.001293265261 0.002821041504
v 0.002200000687 0.004865624011 0.005105198827
f 74 89 83
f 83 89 99
f 64 24 29
f 64 29 77
f 113 89 96
f 96 127 113
f 135 127 136
f 132 127 96
f 11 3 9
f 11 50 17
f 48 43 17
f 17 39 11
f 17 43 39
f 1 3 2
f 2 3 7
f 18 12 15
f 5 31 1
f 64 77 54
f 119 120 127
f 130 44 66
f 66 133 130
f 82 83 99
f 82 70 83
f 74 83 59
f 83 70 59
f 25 24 20
f 25 29 24
f 25 26 28
f 7 3 8
f 3 30 8
f 63 55 74
f 74 28 63
f 28 26 63
f 101 100 99
f 58 77 36
f 36 77 29
f 99 89 103
f 89 113 103
f 53 89 74
f 74 39 53
f 39 43 53
f 53 43 48
f 4 3 1
f 1 31 32
f 56 95 66
f 66 44 56
f 56 32 31
f 41 32 56
f 45 16 49
f 49 16 44
f 10 16 45
f 45 50 10
f 10 50 11
f 1 32 10
f 11 9 10
f 10 4 1
f 41 16 10
f 10 32 41
f 10 9 3
f 3 4 10
f 74 55 33
f 33 39 74
f 11 39 33
f 33 3 11
f 33 30 3
f 12 5 6
f 6 2 7
f 40 54 77
f 12 18 40
f 18 54 40
f 23 54 18
f 20 24 23
f 23 18 20
f 23 24 64
f 64 54 23
f 123 72 94
f 94 50 45
f 94 72 50
f 37 59 52
f 37 28 74
f 74 59 37
f 52 59 57
f 61 59 70
f 21 25 20
f 26 25 21
f 20 18 21
f 27 25 28
f 29 25 27
f 19 21 18
f 55 19 42
f 71 69 70
f 88 82 99
f 88 81 82
f 70 82 79
f 58 36 51
f 51 57 58
f 52 57 51
f 92 95 77
f 92 112 95
f 66 95 86
f 106 103 107
f 107 103 113
f 102 101 99
f 99 103 102
f 115 113 127
f 127 117 115
f 115 117 116
f 116 112 115
f 127 120 118
f 118 117 127
f 120 119 118
f 118 119 116
f 116 117 118
f 95 112 129
f 129 112 116
f 116 119 129
f 129 119 127
f 135 133 129
f 129 127 135
f 100 101 104
f 104 92 100
f 112 92 104
f 101 102 104
f 104 102 103
f 72 125 126
f 134 125 122
f 122 125 123
f 123 94 122
f 94 121 122
f 93 72 123
f 123 125 93
f 93 125 72
f 89 53 90
f 90 53 84
f 96 89 90
f 84 53 76
f 47 56 44
f 41 56 47
f 44 16 47
f 47 16 41
f 34 77 31
f 34 40 77
f 31 5 34
f 34 5 12
f 12 40 34
f 73 94 45
f 73 121 94
f 38 37 52
f 52 51 38
f 38 51 36
f 38 36 29
f 29 27 38
f 28 37 38
f 38 27 28
f 58 57 60
f 60 57 59
f 60 61 58
f 59 61 60
f 70 69 68
f 68 61 70
f 69 71 68
f 13 18 15
f 13 19 18
f 15 12 13
f 13 6 7
f 12 6 13
f 26 21 22
f 21 19 22
f 22 19 55
f 55 63 22
f 22 63 26
f 35 8 30
f 30 33 35
f 35 33 55
f 55 42 35
f 58 61 62
f 99 100 97
f 82 81 80
f 80 79 82
f 81 79 80
f 81 71 78
f 78 79 81
f 78 71 70
f 70 79 78
f 85 92 77
f 85 77 58
f 58 71 85
f 85 71 81
f 85 81 100
f 100 92 85
f 75 133 66
f 66 86 75
f 75 86 133
f 91 95 133
f 133 86 91
f 91 86 95
f 114 112 113
f 113 115 114
f 114 115 112
f 133 95 128
f 128 129 133
f 95 129 128
f 105 103 106
f 106 104 105
f 105 104 103
f 50 72 46
f 72 126 46
f 48 17 46
f 46 17 50
f 46 124 48
f 46 126 124
f 133 134 131
f 134 122 131
f 131 130 133
f 131 122 121
f 44 130 131
f 131 49 44
f 121 73 131
f 45 49 131
f 131 73 45
f 84 76 137
f 137 90 84
f 124 126 137
f 137 132 96
f 96 90 137
f 137 126 125
f 137 125 134
f 127 132 137
f 137 134 133
f 137 136 127
f 137 133 135
f 65 53 48
f 65 76 53
f 48 124 65
f 124 137 65
f 65 137 76
f 19 13 14
f 14 42 19
f 8 35 14
f 14 35 42
f 67 68 71
f 67 71 58
f 58 62 67
f 61 68 67
f 67 62 61
f 98 88 99
f 99 97 98
f 98 97 88
f 81 88 87
f 88 97 87
f 100 81 87
f 87 97 100
f 110 107 113
f 106 107 108
f 108 109 112
f 107 110 108
f 108 110 109
f 108 104 106
f 112 104 108
f 112 109 111
f 109 110 111
f 113 112 111
f 111 110 113
f 77 95 56
f 31 77 56
f 6 5 1
f 1 2 6
f 135 136 137
f 14 13 7
f 7 8 14
