v -0.008769146167 -5.101939678e-06 -0.0259000361
v -0.008730171248 -1.417163185e-05 -0.03121069446
v -0.008700254373 0.0009763136622 -0.02594995126
v -0.00869911164 -0.000986436964 -0.02594994567
v -0.008693164214 0.0007674068329 -0.03119442612
v -0.008684882894 -0.0008504359866 -0.0311914701
v -0.00864456594 0.001010137494 -0.02315718308
v -0.008574470878 0.0015859165 -0.0311433319
v -0.008548573591 -0.001714608283 -0.03113346733
v -0.008521338925 -0.001923396834 -0.02883905172
v -0.008504409343 0.001943260315 -0.0260793902
v -0.008502140641 -0.001953155035 -0.02607937902
v -0.008362581953 0.002446997678 -0.03105149418
v -0.008324442431 -0.002571736695 -0.03103610501
v -0.008299874142 -0.0004026844399 0.0015099179
v -0.008299726062 -0.0004474438028 0.001508513815
v -0.008298904635 -0.0005233191187 0.001505719614
v -0.008295124397 -0.0006749002496 0.001498448313
v -0.008284580894 -0.000450000749 0.001585359802
v -0.008283734322 -0.0005263203057 0.001582518453
v -0.008279887028 -0.0006787703605 0.001575136557
v -0.008279042318 -0.0009771325858 0.001477042329
v -0.008277066052 -0.0004017666215 0.001602128381
v -0.00826358702 -0.0009827424074 0.001553352573
v -0.008241407573 0.002840157365 -0.02896187641
v -0.008241244592 -0.0004014644073 0.001651287894
v -0.008239703253 -0.0005283519858 0.001646934892
v -0.008238097653 -0.002849744866 -0.02896186709
v -0.008237262256 0.00283550634 -0.0309960898
v -0.008235860616 -0.0006809394108 0.001639478607
v -0.00821959693 -0.0009852118092 0.001617443515
v -0.008214713074 0.0007666543825 0.001408111653
v -0.008214483969 -0.0004014574224 0.001673627412
v -0.008213008754 -0.001575857517 0.001405135496
v -0.008210890926 0.0007923030062 0.001403977862
v -0.008199567907 0.002881183056 -0.02625791542
v -0.008196717128 -0.001585514401 0.001479981351
v -0.008196209557 -0.002890722128 -0.02625790983
v -0.008194396272 0.0008018946974 0.001478686347
v -0.008192213252 -0.001708067604 0.001383212395
v -0.008176356554 -0.0004016474122 0.001694478909
v -0.008175078779 -0.0005291934358 0.001690702396
v -0.00817129761 -0.0006812188076 0.001683221664
v -0.00815526396 -0.0009844113374 0.001661131857
v -0.00815289747 -0.00158919266 0.00154311501
v -0.008151407354 0.0008056386141 0.001542431186
v -0.008137632161 -0.0005290989066 0.001702249749
v -0.008134640753 -0.0004020795459 0.001706819516
v -0.008126159199 0.001257638331 0.001310690423
v -0.008125246502 -0.0020625412 0.001310775173
v -0.00809987355 -0.000402616919 0.001710000332
v -0.008098926395 -0.0005286369706 0.001705564675
v -0.00809524022 -0.0006794469664 0.001698152046
v -0.008089482784 -0.001586793573 0.001586599508
v -0.008087767288 0.0008028828306 0.001585507067
v -0.008086066693 -0.002175140427 0.001358788228
v -0.008079558611 -0.0009802706772 0.001676272484
v -0.008054394275 0.003319282783 -0.03091421723
v -0.0080484543 -0.001319748932 0.001639611321
v -0.008042505942 -0.002181326738 0.001419999986
v -0.008019295521 -0.003403729992 -0.03090011701
v -0.007997594774 0.0008956351085 0.001584259328
v -0.007984628901 -0.001773302094 0.001568540931
v -0.007980655879 -0.002178613795 0.001463007997
v -0.007972841151 0.001861765864 0.00112840021
v -0.007952000014 -0.002733509289 0.001102913171
v -0.007951903157 0.001931713778 0.001101992209
v -0.007936307229 -0.002739883261 0.001175582642
v -0.007931577973 0.001952493447 0.001168407849
v -0.007893066853 -0.002749699401 0.001233367133
v -0.007888974622 0.001962948358 0.001226143329
v -0.00786939729 0.00372763793 -0.0290938057
v -0.007865054533 -0.003736792598 -0.02909379639
v -0.007848977111 -0.002423081314 0.001405910356
v -0.007833416574 -0.002748214407 0.001275146613
v -0.007829312235 0.00196157652 0.001267368323
v -0.007803694345 0.003775527468 -0.02645509876
v -0.007778050844 -0.0004025158705 0.001710010576
v -0.007776257582 -0.0004531691084 0.001708387746
v -0.00776674645 -0.000502512441 0.001706568408
v -0.007764878683 -0.002735059476 0.001294250018
v -0.007761355955 0.001946189324 0.001288033323
v -0.007747600321 -0.0008154815296 0.001689321944
v -0.00772874942 -0.002856351668 0.001244195504
v -0.007717583328 0.0003721396206 0.001656749751
v -0.007716953289 0.004052883014 -0.03075932153
v -0.007708925754 0.002491989871 0.0009762672125
v -0.007663962431 -0.00150672032 0.001613855595
v -0.007651824038 0.002492041094 0.001015921356
v -0.007635744289 0.002792406594 0.0006611747085
v -0.007630593609 -0.004217260052 -0.03072137572
v -0.007614484057 -0.001771361218 0.00156875106
v -0.007606174797 0.001027257997 0.001556865405
v -0.007590018213 -0.003694683546 0.0005953225191
v -0.007549878675 -0.003756331978 0.0006275456399
v -0.007548173424 -0.003382471157 0.0009787019808
v -0.007547124289 0.002962860046 0.0006211568834
v -0.007532472257 -0.002113525756 0.001493591466
v -0.007507746108 -0.003771179123 0.0006765867583
v -0.00750548346 0.002977760276 0.0006705402047
v -0.007453313097 -0.003772638738 0.0007144849515
v -0.007452401798 0.00159286696 0.001413875027
v -0.007451035082 0.002978784731 0.0007083173259
v -0.007420951035 0.004562833346 -0.02921176329
v -0.007415635046 -0.004571464844 -0.02921176516
v -0.007403938565 0.002934100805 0.0007528406568
v -0.007392505184 -0.003760004183 0.0007362989127
v -0.007352991961 -0.003847743617 0.0006739519886
v -0.00734617468 -0.002661883133 0.001323089702
v -0.007334746886 0.004611739889 -0.02664051764
v -0.007283542305 0.004811358638 -0.03055397794
v -0.007270616014 0.00205535139 0.001243094797
v -0.007262284867 -0.002855616855 0.001245013555
v -0.007235910743 0.002128367079 0.001210875344
v -0.007165119518 -0.004993087146 -0.03050066158
v -0.007109391969 0.003797897836 -0.000138223957
v -0.007102694828 -0.003174711717 0.001093197498
v -0.00709689362 -0.004358605482 0.0002667945228
v -0.007086483296 -0.004619517829 -8.290883852e-05
v -0.00708343368 0.003823211184 -9.141753253e-05
v -0.0070552174 -0.004685634281 -0.0002224658238
v -0.007046191953 -0.00463553844 -4.226265082e-05
v -0.007043472957 0.003839651821 -5.104161028e-05
v -0.006997071207 -0.004638744052 -8.985449313e-06
v -0.006994479336 0.003842984093 -1.808238449e-05
v -0.006951265968 0.002634718781 0.0009444589377
v -0.006909477059 0.005332650617 -0.02929266542
v -0.006903267931 -0.005340686999 -0.02929267101
v -0.006885505281 -0.004725368228 -8.670076932e-05
v -0.006881006062 0.003932646476 -9.874676471e-05
v -0.0068778079 0.00393789541 -0.0001043815428
v -0.006844702177 -0.004987845663 -0.000498192443
v -0.006843809504 0.004188892432 -0.0005060936091
v -0.006810687482 0.005375267006 -0.02678371407
v -0.006805418991 -0.005005388521 -0.0004639199178
v -0.006804814562 0.004206560552 -0.0004718856362
v -0.00679798238 -0.003673995845 0.0007949746796
v -0.006784121506 0.00552328676 -0.03030824661
v -0.006759016775 -0.005011078436 -0.0004349371884
v -0.00675850641 0.00421212893 -0.0004430592235
v -0.00673859939 0.004348031245 -0.0008080428815
v -0.006682277191 -0.005223555956 -0.0009232863085
v -0.006680739578 -0.003844380612 0.0006764207501
v -0.006670493167 -0.005666497163 -0.03025279194
v -0.00662061153 0.004493625835 -0.0009774296777
v -0.006620479282 -0.005294197239 -0.0009694836335
v -0.006582528353 0.004513097927 -0.0009515035781
v -0.006582160015 -0.005313571543 -0.0009434284875
v -0.006538721733 0.004521868192 -0.0009289800073
v -0.006538242567 -0.005322411656 -0.0009207052062
v -0.006523458287 0.004475579597 -0.000831457437
v -0.006514895242 -0.005287780426 -0.0008439188241
v -0.006445663515 0.00472120475 -0.001605702913
v -0.006438401062 0.004721696489 -0.001503247186
v -0.006436835974 -0.00552402297 -0.00149623421
v -0.006401129998 0.00474227313 -0.0014856864
v -0.006399361882 -0.005544530228 -0.001478556427
v -0.006385059562 -0.005593532231 -0.001834598486
v -0.006359240506 0.004753412679 -0.001470070216
v -0.006357865408 -0.00603236258 -0.03008882888
v -0.006357366685 -0.00555572845 -0.001462800079
v -0.006354298443 -0.004291192163 0.0003250056179
v -0.006348386873 0.006024001166 -0.0293134246
v -0.006336321123 -0.005650155246 -0.002071999246
v -0.006307919044 0.00487517193 -0.002066032728
v -0.006305253599 -0.005678639282 -0.002060402418
v -0.006294689141 0.006101889536 -0.03005432896
v -0.006271284539 0.004895968363 -0.002055042656
v -0.00626843283 -0.005699419416 -0.002049353672
v -0.006252095569 -0.005633759312 -0.001696650521
v -0.006249473896 0.006051553413 -0.02685426362
v -0.006245526951 -0.004433512688 0.0001993398619
v -0.006236728746 -0.005762409884 -0.002788588637
v -0.006230652798 0.004908162169 -0.002045150148
v -0.006227707956 -0.005711705424 -0.002039379673
v -0.006185347214 -0.005714724772 -0.002031029435
v -0.00616966188 -0.005829590373 -0.003233775031
v -0.006136430893 -0.006267987657 -0.02997230738
v -0.006133566611 -0.005849985406 -0.003230186878
v -0.00609763898 -0.005816518795 -0.002672581701
v -0.006094029639 -0.005862558261 -0.003226884874
v -0.006060160231 0.006144625135 -0.02456648834
v -0.005965557881 -0.004786483478 -0.0001531102025
v -0.00575986132 0.006628575735 -0.02976453304
v -0.005752144847 -0.006635273341 -0.02976453491
v -0.005705003161 0.006619944237 -0.02762953378
v -0.005678861402 -0.005124269985 -0.0005803409149
v -0.005623535719 0.006638566963 -0.02603536844
v -0.005542226601 -0.005273089278 -0.000818610657
v -0.005508114118 0.006681105122 -0.02458096668
v -0.005451233126 0.006888876669 -0.02958982438
v -0.005424761213 -0.005391730461 -0.001045405865
v -0.005312588066 0.006764465943 -0.02274524607
v -0.005201692693 -0.007078625727 -0.02945139632
v -0.005171464756 -0.005609837361 -0.001616109163
v -0.005155839957 0.006833299063 -0.02147220448
v -0.005059934687 0.00712988805 -0.02746367827
v -0.005051635671 -0.007135770749 -0.02746368572
v -0.004982101731 0.007117962465 -0.02526608482
v -0.004863595124 0.006953388453 -0.01910489798
v -0.004803169053 0.007347030565 -0.02920907363
v -0.004700347316 0.00716201961 -0.0213698335
v -0.004641052336 0.007012845017 -0.01668560319
v -0.004600131419 -0.007469270844 -0.0290878918
v -0.004595080391 0.007010201924 -0.01586739533
v -0.004505237564 0.006896303035 -0.0125638945
v -0.004474914167 0.006764953025 -0.01062138379
v -0.004415584728 0.007187558338 -0.01772856712
v -0.004391299561 0.006527048536 -0.008035790175
v -0.004344696645 0.007501758635 -0.02503031865
v -0.00433596503 -0.007506808732 -0.02503031865
v -0.004334530793 0.007151673548 -0.01584531553
v -0.004308213014 0.006384460256 -0.006763934158
v -0.004295169841 0.007073442452 -0.01389475539
v -0.004286935553 -0.007078435272 -0.01389475726
v -0.00420684414 0.007433854975 -0.02118434571
v -0.00420114724 0.006814400665 -0.009973313659
v -0.004198191687 -0.00743874535 -0.02118435502
v -0.004190601874 0.007687638514 -0.02882321365
v -0.004074859433 0.006646365859 -0.008095844649
v -0.004065574612 0.007343723439 -0.01759729721
v -0.004048324656 0.006402924657 -0.006241135299
v -0.004029264208 0.003560792422 0.0004692471703
v -0.004023142159 0.0007721203147 0.001155855833
v -0.004022619221 0.007162967697 -0.01379414927
v -0.004022239707 -0.0007768013747 0.001155866659
v -0.004019490909 0.0003866980551 0.001164974994
v -0.00401903782 -0.0003913749242 0.001164980233
v -0.004015141632 -2.335873432e-06 0.001166942879
v -0.004014282022 -0.007167643867 -0.01379414555
v -0.003974715713 0.001529723289 0.00109673792
v -0.003972932231 -0.001534347073 0.001096731517
v -0.003965532873 -0.007794206496 -0.02868119255
v -0.003946756478 0.006881569512 -0.009894976392
v -0.0038303209 0.002260534791 0.0009655024041
v -0.003827685723 -0.00226499117 0.0009655111935
v -0.003820333863 0.006708806381 -0.00803668052
v -0.003820194863 0.006170116365 -0.004576485138
v -0.003809440415 0.004664337263 -0.0004760995798
v -0.003787148045 0.007871183567 -0.02855426446
v -0.003681068541 0.004146378487 7.968532009e-05
v -0.00364459143 0.007821178995 -0.02472934499
v -0.003635486588 -0.00782541465 -0.02472933382
v -0.003634056076 0.00294882874 0.0007562098326
v -0.003630621359 -0.002953056013 0.0007562084938
v -0.003620358882 0.007679172792 -0.02093686908
v -0.003611421678 -0.007683380041 -0.02093687281
v -0.003604736179 -0.007945477031 -0.02843627334
v -0.003593603382 0.005888641812 -0.003126273863
v -0.003574055154 0.005083337426 -0.00100881292
v -0.003519324586 0.007977457717 -0.02836808749
v -0.003447033698 0.005540777929 -0.001936362591
v -0.003440973116 0.005331116728 -0.001438699081
v -0.003410491161 0.003586232429 0.0004579664383
v -0.003397130175 0.004666990601 -0.000414376118
v -0.003263254184 -0.001582268276 0.0009752291953
v -0.003253402654 0.001922767493 0.0009318414377
v -0.003252946772 0.0009052966489 0.001019440941
v -0.00324136531 -0.008076530881 -0.0281774886
v -0.003225019434 0.005113934167 -0.001026336104
v -0.003214532975 -0.0006001341389 0.001022661803
v -0.003197126091 0.004168187268 6.06206122e-05
v -0.003192273201 -0.004171904642 6.062983812e-05
v -0.003171202727 -0.002836629516 0.0007280408754
v -0.003147247247 -1.831096711e-06 0.001015892485
v -0.003145407652 0.003031873843 0.0006615092279
v -0.003121130634 0.0002340528881 0.001009823172
v -0.003056687303 0.007423428819 -0.01343212835
v -0.003048047889 -0.007426980883 -0.01343213581
v -0.003031549742 0.004686907865 -0.0004464201047
v -0.003029920394 -0.003621540964 0.0004000049375
v -0.003022298915 0.007100421004 -0.009572466835
v -0.003014035057 -0.007103933021 -0.009572471492
v -0.00301018497 -1.751468631e-06 0.0009879558347
v -0.002999858931 0.007678451017 -0.01716981456
v -0.002990923589 -0.007681936026 -0.01716981828
v -0.002979411744 0.003867758205 0.0002521230199
v -0.002947127679 0.007893480361 -0.02064006589
v -0.002937940648 -0.007896903902 -0.02064007707
v -0.002924624132 0.006901868619 -0.007745162118
v -0.002902825596 0.004213619046 1.381508582e-06
v -0.002884522546 0.00807792414 -0.02437891625
v -0.002882926492 -0.00428689504 -5.688601232e-05
v -0.00287512131 -0.00808127597 -0.02437891625
v -0.00283213472 0.004570182413 -0.0003279874218
v -0.002830250887 0.008201052435 -0.02786122262
v -0.002753025852 0.006671888754 -0.00606270181
v -0.002564193215 0.001826193999 0.0007890047273
v -0.00256206491 -0.001829176792 0.0007890129928
v -0.002546565142 0.00518536102 -0.001153872116
v -0.002529565245 0.006400803104 -0.004557425622
v -0.00249543786 -0.008287380449 -0.02760734409
v -0.002493616892 0.001053353655 0.000840044755
v -0.002492390573 -0.001056254492 0.0008400421939
v -0.002410730347 0.0006884540198 0.0008401524974
v -0.00240992778 -0.0006912584649 0.0008401570958
v -0.00229366729 0.006076838821 -0.003249861067
v -0.002199225128 0.005213310942 -0.001219202532
v -0.002198187634 0.008070587181 -0.02030842192
v -0.002166891238 0.008357790299 -0.02732804231
v -0.002142479876 -0.008363174275 -0.02731541358
v -0.002129274886 0.004804068245 -0.0006650973228
v -0.002123683924 -0.004806542769 -0.0006650928408
v -0.002096423879 0.004346204922 -0.0002281439956
v -0.002091363771 -0.004348641727 -0.000228137942
v -0.002080738544 0.003845371073 0.0001039890849
v -0.002079188591 0.005690488033 -0.00215529534
v -0.002076262375 -0.003847789718 0.0001039864146
v -0.002069199458 0.008272995241 -0.02399552055
v -0.002063795924 0.003303176491 0.0003444687172
v -0.002059950959 -0.003305576043 0.0003444763715
v -0.002059571212 -0.008275396191 -0.02399551123
v -0.002042457461 0.0005078146933 0.0007576736389
v -0.002029665746 0.002716906136 0.0005071434425
v -0.002026504604 -0.002719266573 0.0005071361666
v -0.001999512315 -0.000538151362 0.0007458390901
v -0.00197092304 0.002070581308 0.0006072940887
v -0.001968511846 -0.002072874224 0.0006073075347
v -0.001868228661 0.001393717597 0.0006543723866
v -0.001866606297 -0.001395890606 0.0006543650525
v -0.001783560961 -1.037610105e-06 0.0007031774148
v -0.001701671747 -0.008438727818 -0.02692561038
v -0.001699596993 0.007334522903 -0.00914850086
v -0.001691061421 -0.007336495444 -0.009148498997
v -0.001678267028 0.0007598482771 0.0006494949921
v -0.001673100865 0.007688606158 -0.01293578185
v -0.001664151321 -0.007690547965 -0.01293577161
v -0.001657739165 0.007104785182 -0.007377027534
v -0.001649470301 -0.00710670976 -0.007377017755
v -0.001571380533 0.006828888319 -0.005773911718
v -0.001566317864 -0.005267750937 -0.001363320975
v -0.001551026013 0.007962799631 -0.01659711637
v -0.001541758422 -0.007964598946 -0.01659710519
v -0.001474692603 0.004887029529 -0.0008837934583
v -0.001469003852 -0.004888741765 -0.0008837825735
v -0.001458880957 0.008471480571 -0.02668771707
v -0.001455687801 0.006507961079 -0.004372035153
v -0.001385409269 0.004478903487 -0.0005100240815
v -0.001384576317 0.008204302751 -0.01995640993
v -0.001380197005 -0.004480512347 -0.0005100313574
v -0.001375029096 -0.008205909282 -0.01995640807
v -0.001345499302 0.005294723436 -0.00143233093
v -0.001335547888 0.006147581153 -0.003188951174
v -0.00133033318 0.000366303022 0.0005733428407
v -0.001328393933 -0.006149131339 -0.003188948845
v -0.00129711628 0.004046158865 -0.0002281004563
v -0.001292405766 -0.004047665745 -0.0002280937333
v -0.00122809154 0.00575259421 -0.002235620283
v -0.001221396145 -0.005754019134 -0.002235622844
v -0.001203329419 0.008407386951 -0.02359560877
v -0.001202612068 0.003593479982 -2.504072836e-05
v -0.001198428799 -0.003594877431 -2.503276119e-05
v -0.001193547156 -0.008408782072 -0.02359561063
v -0.001138431835 -0.001160272979 0.0004619587271
v -0.001130175311 -0.00532797398 -0.001508279238
v -0.001094768988 0.003119998379 0.000112816444
v -0.001091138227 -0.0031212701 0.0001128129225
v -0.0009990254184 -0.008519702591 -0.02623368986
v -0.0009934759 0.005352124572 -0.001568553504
v -0.0009872482624 -0.005353277083 -0.00156855979
v -0.0009665744146 0.002621898195 0.0001970633457
v -0.0009635227616 -0.002623021835 0.0001970656158
v -0.000951627444 -5.537883112e-07 0.000469144521
v -0.0008599841385 0.005044352263 -0.001203932101
v -0.0008541122079 -0.00504534971 -0.001203922206
v -0.0008498738171 -0.008531115018 -0.02607258223
v -0.0008093271172 0.00210132706 0.0002366913832
v -0.00080922083 0.003779615974 -0.0002582957968
v -0.0008085280424 0.008533629589 -0.0260149464
v -0.0008068818715 -0.00210226723 0.0002366868721
v -0.0008048227755 -0.003780555446 -0.000258291635
v -0.0007433930878 0.001470534015 0.0003000441939
v -0.0007254037191 0.004716956057 -0.0009173973231
v -0.0007199142128 -0.004717796575 -0.0009173988947
v -0.0007180405664 -0.005409747828 -0.001705554547
v -0.0006033690297 0.001584677841 0.0002373999014
v -0.000601523323 -0.001585379359 0.0002374029573
v -0.0005834840122 0.004367678426 -0.0006984121865
v -0.0005783998058 -0.004368354101 -0.0006984082283
v -0.0005170423537 0.002911252668 -5.498449536e-05
v -0.0005136540858 -0.00291185244 -5.49817596e-05
v -0.0005103016156 0.005458851345 -0.001839968609
v -0.0005039502284 -0.005459441338 -0.001839970821
v -0.0004318808496 0.003999729641 -0.0005372794694
v -0.00042722543 -0.004000229295 -0.0005372828455
v -0.0004243137082 0.005779753439 -0.002386505948
v -0.0004220713163 -0.005759992171 -0.002347646747
v -0.0004071003059 -0.0085536642 -0.02555386163
v -0.0003938728478 0.005935141817 -0.002709735883
v -0.0003869670036 -0.005935596302 -0.002709726803
v -0.0003707592259 0.006079497747 -0.003046639729
v -0.000364312873 0.006125457585 -0.00316040637
v -0.000363686413 -0.006079924759 -0.003046645084
v -0.0003571849375 -0.006125877146 -0.003160401713
v -0.0003300915705 0.006435247138 -0.004005315714
v -0.0003226029221 -0.006435627583 -0.00400531292
v -0.000319873885 0.006553609855 -0.004373595119
v -0.000316215679 -0.00650721509 -0.004224603996
v -0.0003122466442 -0.006553977262 -0.004373589531
v -0.0003019305586 0.006782319397 -0.005176529288
v -0.0002949902264 0.006870163605 -0.005523475818
v -0.0002940372215 -0.006782666314 -0.005176516715
v -0.0002869961027 -0.00687050214 -0.00552348746
v -0.0002737693721 0.007098729722 -0.006562780123
v -0.0002655091812 -0.007099043112 -0.00656278478
v -0.0002545822063 -0.007187824696 -0.007037807256
v -0.0002382661187 0.007343036123 -0.007997763343
v -0.0002297212777 -0.007343308069 -0.007997763343
v -0.0002285800583 0.008557942696 -0.02531100437
v -0.0002274567814 -0.007355207112 -0.008078780025
v -0.0002168259671 0.007445594296 -0.008735830896
v -0.0002081623825 -0.007445842028 -0.00873584114
v -0.000177832917 -0.005112411454 -0.001538811368
v -0.0001753101387 -0.007567715831 -0.009743285365
v -0.0001408999524 0.005060534924 -0.001505155931
v -0.00013393884 -0.005059382878 -0.001504343934
v -0.0001090987571 -0.007741784211 -0.01147480682
v -0.0001014161026 0.007776222192 -0.01186409034
v -9.23682237e-05 -0.007776334882 -0.01186408848
v -8.811994485e-05 0.003210291034 -0.0003515843127
v -8.575413813e-05 0.0007886643289 0.0001461632346
v -8.483656711e-05 -0.0007887642132 0.0001461577485
v -8.438582154e-05 -0.003210391151 -0.0003515819262
v -7.299320714e-05 0.004248649813 -0.0008691110997
v -6.804945588e-05 -0.00424873177 -0.0008691098192
v -1.203047873e-06 0.00206725928 -7.838050078e-05
v 1.201381338e-06 -0.002067260211 -7.838143938e-05
v 7.694026863e-06 -0.004879990593 -0.001404684153
v 4.908415212e-05 0.008002785034 -0.01475875173
v 5.839495861e-05 -0.008002722636 -0.01475875918
v 9.428715566e-05 0.005480716936 -0.002157591516
v 0.0001006658131 -0.005480603781 -0.002157581039
v 0.0001221614511 -0.008558705449 -0.02482924238
v 0.000148116349 0.008558350615 -0.02477482148
v 0.0001818851597 0.004637123086 -0.001300364034
v 0.0002648154041 0.004520114511 -0.00125936477
v 0.0002700740588 -0.00451980345 -0.001259376062
v 0.0002914482029 0.008555202745 -0.02454843558
v 0.0003228478017 0.005869433284 -0.002935349243
v 0.0003235569457 0.003521143226 -0.0007005094667
v 0.0003265375271 0.007332306355 -0.007951071486
v 0.0003276554926 -0.003520764178 -0.0007005090592
v 0.0003296762588 -0.00586905377 -0.002935348311
v 0.0003451720986 0.002338492079 -0.0003022868477
v 0.0003478927247 -0.002338089747 -0.0003022855381
v 0.0003925212659 0.008316806518 -0.01924913377
v 0.0004037411127 0.004318524152 -0.001200543018
v 0.0005075045046 0.006263599731 -0.003890662687
v 0.0005087744212 0.008399524726 -0.02068599127
v 0.0005097183748 0.007728774101 -0.01129437331
v 0.0005147914635 -0.006263005547 -0.003890657099
v 0.0005185474292 -0.008398926817 -0.020685995
v 0.0005880601821 -0.004048428498 -0.001141728833
v 0.0005921968259 -0.008542011492 -0.02403736301
v 0.000594173267 0.004032577388 -0.001138748601
v 0.000596060825 3.4680005e-07 -8.768967382e-05
v 0.0006119045429 0.005051152781 -0.001978685381
v 0.0006177839241 -0.005050437991 -0.001978676068
v 0.0006230375147 0.002556756837 -0.0005080683623
v 0.0006260118098 -0.002556030406 -0.0005080742994
v 0.0006612108555 0.008498138748 -0.02281223238
v 0.0006631614524 0.006640855223 -0.005028036889
v 0.0006708870642 -0.006640078966 -0.005028039683
v 0.000671098358 -0.008497364819 -0.02281222865
v 0.0007195065846 0.003838864854 -0.001108235097
v 0.0007195850485 0.008533583023 -0.02376430482
v 0.0007295152755 -0.008532739244 -0.02376430668
v 0.0007910553832 0.008527786471 -0.02360830829
v 0.0008009781595 -0.008526860736 -0.02360830829
v 0.0008018492954 0.006978463382 -0.006343767047
v 0.0008099703118 -0.00697752554 -0.006343759596
v 0.0008102777065 0.001550045679 -0.0003433522652
v 0.0008120794664 -0.001549102017 -0.000343360327
v 0.0008617772255 0.008521570824 -0.02345242351
v 0.0008716925513 -0.00852056127 -0.02345242351
v 0.0008858671645 -0.007805848494 -0.02774723247
v 0.0009187321994 0.006107661873 -0.003831761423
v 0.0009258378414 -0.006106588524 -0.003831754904
v 0.000934376556 0.007257866673 -0.007827132009
v 0.000942821207 -0.007256774232 -0.007827123627
v 0.0009873696836 0.005482375622 -0.002803190844
v 0.0009937470313 -0.00548122311 -0.002803195268
v 0.0009946780046 -0.007787604816 -0.02774167433
v 0.001048524282 -0.003317966359 -0.001058251131
v 0.001074721338 -0.007481274661 -0.009433852509
v 0.001124559669 0.004491459578 -0.001850322238
v 0.001129784971 -0.00449014781 -0.001850330736
v 0.001141030923 0.006497541443 -0.004963388201
v 0.001148591982 -0.006496209186 -0.00496339146
v 0.001200221595 0.007663128898 -0.01110860519
v 0.001209136331 -0.007661727257 -0.01110860705
v 0.001223162399 0.003025618149 -0.001043838216
v 0.001226680586 -0.00302419276 -0.001043846831
v 0.001313712564 0.005907766521 -0.003777915379
v 0.001320585492 -0.00590623403 -0.003777918406
v 0.001340060611 0.006843682379 -0.006261541974
v 0.001348022604 -0.006842118222 -0.006261535455
v 0.001356769935 0.0007517811609 -0.0004917273181
v 0.001357644796 -0.0007502018707 -0.0004917290644
v 0.001490147901 0.007935048081 -0.0144407833
v 0.0014993808 -0.007933309302 -0.0144407833
v 0.001526494976 0.00712895859 -0.007718705107
v 0.001534789801 -0.007127177902 -0.007718697656
v 0.001547657303 -0.007669054437 -0.02766382135
v 0.001549694687 -0.002481054747 -0.00103523524
v 0.00155285513 0.008500267752 -0.02345191687
v 0.001555026858 0.00686682947 -0.027662104
v 0.001601246302 0.006305245683 -0.004906903021
v 0.001607446349 0.002379971324 -0.001036533387
v 0.001608581515 -0.006303378846 -0.004906901624
v 0.001615362475 0.004944353364 -0.002700669225
v 0.001621113042 -0.004942470696 -0.002700678771
v 0.001648824429 0.003792846343 -0.001771409181
v 0.001653237385 -0.003790925723 -0.001771406387
v 0.001695446204 -0.002232569037 -0.001040193718
v 0.001701468718 -0.005662394222 -0.00373060233
v 0.00182186719 0.008148657158 -0.01750257052
v 0.001831346191 -0.00814653188 -0.01750257798
v 0.001861002529 0.006655301899 -0.006190475542
v 0.001868744846 -0.006653132383 -0.006190479733
v 0.001883199438 0.007539996877 -0.01093620807
v 0.001957016764 1.138423386e-06 -0.0007864434156
v 0.002044101013 -0.008465609513 -0.02345118672
v 0.002045671223 0.006062718108 -0.00485747261
v 0.002052723663 -0.006060333457 -0.004857476335
v 0.002065028762 0.005374869332 -0.003688606666
v 0.002071280498 -0.005372462794 -0.003688615048
v 0.002079727128 0.001568931038 -0.001087889425
v 0.002081897343 -0.007511936128 -0.02750632353
v 0.002087765373 0.006709620357 -0.02750246972
v 0.002091057133 -0.003799425671 -0.02750245854
v 0.002092302311 -0.007508442737 -0.02750237286
v 0.002103010425 0.006942924112 -0.007622883655
v 0.002111088717 -0.006940472405 -0.007622872014
v 0.00214932044 -0.001448595081 -0.001102414448
v 0.002160649048 0.008322742768 -0.02061587758
v 0.00217033294 -0.008320222609 -0.02061587386
v 0.002177251736 0.001399611006 -0.001109435339
v 0.00219573034 0.002935845172 -0.001722179353
v 0.002199144568 -0.002933288692 -0.001722178888
v 0.002229082165 0.004237391055 -0.002622911241
v 0.002234010957 -0.004234794062 -0.00262290868
v 0.002282468602 -0.00744158728 -0.02742359228
v 0.00234150188 -0.007170004304 -0.009167079814
v 0.002364836633 0.001072535175 -0.001163062523
v 0.002365836641 0.006411232054 -0.006127976347
v 0.002373295603 -0.006408474874 -0.006127970759
v 0.002397831297 0.008434112184 -0.023449976
v 0.002407904249 -0.008430950344 -0.02345013805
v 0.002476356924 0.005767485127 -0.004812449683
v 0.002483066637 -0.005764599424 -0.004812438041
v 0.002555960789 0.007355775684 -0.01077578217
v 0.00256451685 -0.007352796383 -0.01077578217
v 0.002569907811 0.000712622772 -0.001243573613
v 0.002594725229 -0.007319081575 -0.02726573125
v 0.00260943966 0.0006428909255 -0.001262364211
v 0.002610185416 -0.0006398545811 -0.001262369682
v 0.002657926176 0.006491952576 -0.02722716331
v 0.002664049389 0.006697082892 -0.007536686957
v 0.002671839902 -0.006693978794 -0.007536695339
v 0.002732647583 0.001963735325 -0.001718430663
v 0.002734930255 -0.001960554859 -0.001718435902
v 0.002777893329 -0.0003412222723 -0.001356768771
v 0.002781945281 0.004644332454 -0.003607716179
v 0.002787347417 -0.004641092382 -0.003607710125
v 0.002841614187 0.003339776536 -0.002549387049
v 0.002845498035 -0.003336468479 -0.002549382858
v 0.00285581802 0.006108784117 -0.00607053563
v 0.002862924244 -0.006105456501 -0.006070544012
v 0.002901704749 -0.005412970204 -0.004767976701
v 0.002953924006 -0.006921883672 -0.009050212801
v 0.002966686385 1.726087135e-06 -0.001492202748
v 0.002997620031 0.007625945844 -0.01399742719
v 0.003006490413 -0.007622452918 -0.01399742533
v 0.003173951292 0.008316381834 -0.02365753986
v 0.003176189959 0.008330115117 -0.02344691753
v 0.003188322298 0.0009664733661 -0.001789350063
v 0.00318944524 -0.0009627627442 -0.001789358561
v 0.003209786257 0.006388445385 -0.007456750609
v 0.003215816803 0.007106860168 -0.01062589325
v 0.00321721728 -0.006384706125 -0.007456742693
v 0.003224084387 -0.007103112992 -0.01062589884
v 0.003304913407 0.005006082356 -0.004720205441
v 0.003310735803 -0.0050022332 -0.004720206372
v 0.003332284046 0.005744793452 -0.006014021114
v 0.003338967916 -0.005740912165 -0.006014007609
v 0.003355325898 0.0004804561613 -0.00184726459
v 0.003355883993 -0.0004765513586 -0.00184725353
v 0.003412014572 0.002288724994 -0.002494419459
v 0.003414675826 -0.002284753835 -0.00249441294
v 0.003452745965 0.007831769064 -0.01701550372
v 0.003461854998 -0.007827746682 -0.01701550744
v 0.003473550547 2.020850161e-06 -0.001921553747
v 0.003478812287 0.003694311483 -0.003511863528
v 0.003483108943 -0.003690261627 -0.003511865623
v 0.003550788388 -0.006607734598 -0.008940943517
v 0.003649804508 -0.008228574879 -0.02365509048
v 0.00365240965 -0.008241716772 -0.02344461903
v 0.003738228697 0.007373610511 -0.01379315555
v 0.00374043663 0.006013767794 -0.007379264105
v 0.003746805014 -0.007369255181 -0.01379315834
v 0.003747431561 -0.006009411067 -0.007379262708
v 0.00379657466 0.005316082388 -0.005954212509
v 0.003802758874 -0.0053116614 -0.005954200402
v 0.003858482698 0.001159047591 -0.002488935133
v 0.003859828925 -0.001154557453 -0.002488933271
v 0.003860087134 0.006789599545 -0.01048508286
v 0.003867984749 -0.006785103586 -0.01048508566
v 0.003885830287 0.007997192442 -0.02011905238
v 0.003895131871 -0.007992665283 -0.02011905797
v 0.003957300913 2.302108896e-06 -0.002407024382
v 0.003998250235 0.00058184925 -0.002500998788
v 0.003998923115 -0.0005771965953 -0.002500997856
v 0.004098580685 0.003999571316 -0.004602397326
v 0.004103232175 -0.003994799219 -0.00460240012
v 0.004107343033 0.002558301901 -0.00341466954
v 0.004110318609 -0.002553520957 -0.003414660459
v 0.004130937159 -0.006224132609 -0.008836464956
v 0.004216115922 0.008119232021 -0.02344118059
v 0.004256194457 0.00757495407 -0.01679454744
v 0.004256220534 0.005569799803 -0.007300476544
v 0.00426269928 -0.00556484377 -0.007300474681
v 0.0042650057 -0.007569997106 -0.01679453999
v 0.004462431185 0.007050320506 -0.01360113639
v 0.004470631946 -0.007045122795 -0.01360113546
v 0.004486091901 0.006400310434 -0.01035181247
v 0.004493534565 -0.00639508618 -0.01035182085
v 0.004573335405 0.001307284343 -0.00335197337
v 0.004574853927 -0.001301962067 -0.00335197174
v 0.004688769579 0.004256166518 -0.005811368581
v 0.004693210591 -0.005767650902 -0.008733998053
v 0.004693719093 -0.00425070757 -0.005811368115
v 0.004709845874 0.0006582353963 -0.003338472918
v 0.004710608162 -0.0006527547957 -0.00333847967
v 0.004734837916 0.007736478932 -0.01990027167
v 0.004734959919 0.007841284387 -0.02398952283
v 0.004743836354 -0.007730964571 -0.01990028098
v 0.004755233414 0.007910148241 -0.02383597195
v 0.004757310264 0.005053335801 -0.007216618862
v 0.004763187841 -0.005047796294 -0.007216609549
v 0.004764434882 -0.007904611528 -0.02383597009
v 0.004769161344 0.007957457565 -0.02364942245
v 0.004772587214 0.007969093509 -0.02343745157
v 0.004778440576 -0.007951981388 -0.02364893258
v 0.00478185527 -0.007963534445 -0.0234374553
v 0.004801397212 0.002782112686 -0.004472885747
v 0.004804630298 -0.002776524285 -0.00447288435
v 0.004969409667 0.007898647338 -0.02324790508
v 0.004978597164 -0.0078928601 -0.02324790135
v 0.005018628202 0.007789641619 -0.02389859594
v 0.00502768904 -0.00778379757 -0.02389859594
v 0.005040679593 0.007245930843 -0.01658907533
v 0.005049107131 -0.007240060717 -0.01658906415
v 0.005052269436 0.007870401256 -0.02352782525
v 0.00506142294 -0.00786451716 -0.02352783456
v 0.00508630788 0.002117169788 -0.004417128395
v 0.005088767968 -0.002111250767 -0.004417134449
v 0.005091157276 0.00593530573 -0.0102245491
v 0.005098059773 -0.005929377861 -0.01022455469
v 0.005164490081 0.006651751697 -0.01342188288
v 0.005172226578 -0.006645738147 -0.0134218866
v 0.005185105838 3.016431492e-06 -0.003887864528
v 0.00523902569 0.004465591162 -0.007126967888
v 0.005244218744 -0.004459491465 -0.007126958575
v 0.005255161785 0.007642478682 -0.02396189049
v 0.005264050793 -0.007636359893 -0.02396189049
v 0.005307507701 0.007739768364 -0.0236216858
v 0.005308463238 0.001426669653 -0.004373381846
v 0.005310120061 -0.001420491957 -0.004373377189
v 0.005316510331 -0.007733587176 -0.02362168022
v 0.00545296818 0.0007191820769 -0.004344994202
v 0.00545379892 -0.0007128362777 -0.004345007241
v 0.005469013471 0.002965891501 -0.005656441674
v 0.005472459365 -0.002959526377 -0.005656444002
v 0.005561558064 0.007402944379 -0.01970024407
v 0.005570169073 -0.007396467496 -0.01970023476
v 0.00557910651 0.007397940382 -0.02401676774
v 0.00558771193 -0.007391443942 -0.02401675656
v 0.005649389233 0.007491134107 -0.02374750748
v 0.00565810129 -0.007484555244 -0.02374750748
v 0.005672567524 0.005390944891 -0.01010178216
v 0.005678837188 -0.005384340882 -0.0101017775
v 0.005687622819 0.003816056764 -0.007036453579
v 0.00569205964 -0.003809436923 -0.007036453113
v 0.005782139488 0.002258622786 -0.005588703323
v 0.00578476442 -0.002251893515 -0.005588708445
v 0.00579797104 0.006839727052 -0.01639939658
v 0.005805925466 -0.006832975894 -0.01639940403
v 0.005838663783 0.006173582748 -0.01325586531
v 0.005845843814 -0.006166784558 -0.01325586531
v 0.005890662316 0.007504580542 -0.02243268117
v 0.005899501964 -0.007497428916 -0.02243258618
v 0.005961789284 0.007093167864 -0.02401675656
v 0.005970038474 -0.007086226251 -0.02401676029
v 0.006024534348 0.001522831502 -0.005534536205
v 0.006026302464 -0.001515820739 -0.005534526426
v 0.006036890671 0.007182521746 -0.02374751493
v 0.006045243703 -0.007175492588 -0.02374751307
v 0.006088357419 0.00311513315 -0.006950667128
v 0.006091978867 -0.003108047182 -0.006950669922
v 0.006169619504 0.007350911386 -0.02276483364
v 0.006178243551 -0.00734348502 -0.02276474983
v 0.006181173027 0.0007680057315 -0.005498594604
v 0.006182062905 -0.0007608128944 -0.005498597398
v 0.006223700475 0.004768449813 -0.009983696043
v 0.006229246035 -0.004761204589 -0.009983687662
v 0.006290879566 3.659973117e-06 -0.005578674842
v 0.00635606749 0.00699094031 -0.01951817423
v 0.006364198867 -0.006983539555 -0.01951816864
v 0.006392223295 0.007108760998 -0.02308667079
v 0.006400533952 -0.007101126947 -0.02308659069
v 0.00642647082 0.002373209922 -0.006875107996
v 0.006429227535 -0.002365730936 -0.006875109859
v 0.006479190663 0.005611537956 -0.01310358383
v 0.006485715043 -0.005603995174 -0.01310358569
v 0.006519841496 0.006351371296 -0.0162258856
v 0.006527227815 -0.006343780085 -0.01622587256
v 0.006656930782 0.003235173179 -0.008332323283
v 0.006660690531 -0.003227425041 -0.008332323283
v 0.006686938461 0.001600574586 -0.00681501301
v 0.006688796449 -0.001592792221 -0.006815011147
v 0.006730622146 0.004078130238 -0.009873649105
v 0.006735363044 -0.004070295487 -0.00987364538
v 0.006745722611 0.005996101536 -0.02428204007
v 0.006822683848 0.006964224391 -0.02164123766
v 0.006831024308 -0.006955596618 -0.02164107002
v 0.006854559295 0.0008074407233 -0.006775320508
v 0.006855494808 -0.0007994641783 -0.006775312591
v 0.006925430615 0.006155840121 -0.02401676029
v 0.006927468814 0.006771586835 -0.02261017635
v 0.006932589225 -0.006147778127 -0.02401675843
v 0.006935344078 -0.006763521116 -0.02261017635
v 0.007012671325 0.006233386695 -0.02374751866
v 0.007015367039 0.002465402475 -0.008251990192
v 0.007018230855 -0.002457238501 -0.008251986466
v 0.007019920275 -0.006225222722 -0.02374750935
v 0.007067343686 0.006793685257 -0.02199107781
v 0.007075421046 -0.006784893572 -0.02199091762
v 0.007077782415 0.004966631532 -0.01296595577
v 0.007083555218 -0.004958392587 -0.01296596695
v 0.007108440157 0.006494821049 -0.01935331523
v 0.007115992717 -0.006486545783 -0.01935331896
v 0.007178593893 0.003331292188 -0.009775376879
v 0.007182464469 -0.003322937759 -0.009775386192
v 0.007198052481 0.005775945261 -0.01606882177
v 0.007204768248 -0.005767565686 -0.0160688255
v 0.007245960645 0.006541760638 -0.02233159356
v 0.00725366734 -0.006532880943 -0.02233144641
v 0.007290258072 0.001663144561 -0.008189014159
v 0.007292188238 -0.00165465998 -0.008189018816
v 0.007339209784 4.269986675e-06 -0.0076865023
v 0.007439733949 0.00571690686 -0.0237475168
v 0.007446382195 -0.005708245095 -0.02374751493
v 0.00746647967 0.0008392016171 -0.008147919551
v 0.007467450108 -0.0008305135416 -0.008147929795
v 0.007542366162 0.00495688431 -0.02428204753
v 0.007548129186 -0.004948105197 -0.0242820438
v 0.007552874275 0.002539244248 -0.009692600928
v 0.007555824704 -0.002530454425 -0.009692589752
v 0.00762144383 0.00424975995 -0.01284465846
v 0.007626383565 -0.004240888637 -0.01284465659
v 0.007743299007 0.005088937469 -0.0240167547
v 0.007749213837 -0.005079924595 -0.02401676401
v 0.007760799024 0.006225191988 -0.02091396041
v 0.007768381853 -0.006215165835 -0.02091372758
v 0.007808753755 0.005908997729 -0.0192049183
v 0.007815624587 -0.00589990709 -0.01920490526
v 0.007823276334 0.005114192143 -0.01592887193
v 0.007829222828 -0.005105085671 -0.01592887007
v 0.007838688791 0.001713275793 -0.009628964588
v 0.007840678096 -0.001704154187 -0.009628959
v 0.007840841077 0.005153044127 -0.0237475168
v 0.007843777537 0.006036384031 -0.02182618529
v 0.007846832275 -0.005143917631 -0.02374751866
v 0.007850494236 -0.006027086172 -0.02182630822
v 0.007950190455 0.006055800244 -0.02128382586
v 0.00795748271 -0.006045730319 -0.02128359675
v 0.008021234535 0.0008646695642 -0.009588124231
v 0.008022234775 -0.0008553351508 -0.009588122368
v 0.008066869341 0.005817796104 -0.02164587751
v 0.008073782548 -0.005807766225 -0.02164567448
v 0.008096658625 0.003472904442 -0.01274145488
v 0.008100693114 -0.003463480854 -0.01274146419
v 0.008180251345 0.00381332892 -0.02428204753
v 0.008184683509 -0.003803808708 -0.02428204566
v 0.00824798923 4.798509053e-06 -0.01003183052
v 0.008373007178 0.004233841784 -0.02374751121
v 0.008377929218 -0.004224095028 -0.02374750748
v 0.008384161629 0.004377438687 -0.01580713689
v 0.008389250375 -0.004367679823 -0.01580713317
v 0.008398177102 0.003914917819 -0.02401676029
v 0.008402726613 -0.003905143822 -0.0240167547
v 0.00844716467 0.005233897828 -0.01907280833
v 0.008453248069 -0.005224064924 -0.01907281764
v 0.008489911444 0.002648045076 -0.01265812479
v 0.008492986672 -0.002638165141 -0.01265812479
v 0.00850397069 0.003964235075 -0.02374751121
v 0.008508577012 -0.003954337444 -0.02374751121
v 0.008614560589 0.001264911029 -0.02444563247
v 0.008616027422 -0.001254886971 -0.02444562688
v 0.008634719998 0.005273450166 -0.02030052245
v 0.008642393164 -0.005261462647 -0.0202987548
v 0.008645949885 0.002589506796 -0.02428204566
v 0.008648956195 -0.002579445718 -0.02428205311
v 0.008706929162 5.065312962e-06 -0.0244456362
v 0.008769265376 0.005119194277 -0.02068802528
v 0.008776285686 -0.005107311066 -0.02068630606
v 0.008787688799 0.001787165063 -0.01259640325
v 0.008789762855 -0.001776938443 -0.01259640511
v 0.008825794794 0.004910036922 -0.02106898837
v 0.00883205235 -0.004898337647 -0.0210673213
v 0.008869130164 0.003578171832 -0.01570483297
v 0.008873286657 -0.003567849519 -0.0157048367
v 0.008876280859 0.002658492653 -0.02401676588
v 0.008879368193 -0.002648163354 -0.02401676774
v 0.008929658681 0.001311178203 -0.02428205125
v 0.0089311786 -0.00130078767 -0.02428204939
v 0.008976476267 0.0009022428421 -0.01255808398
v 0.00897752028 -0.000891797361 -0.01255807001
v 0.008988098241 0.002691982081 -0.02374750562
v 0.008991224691 -0.002681522863 -0.02374750935
v 0.009013984352 0.004481207579 -0.01895799488
v 0.009019191377 -0.004470716231 -0.01895800047
v 0.009025406092 5.250646609e-06 -0.02428205125
v 0.009042756632 5.260907528e-06 -0.01254491601
v 0.009050093591 0.004580780864 -0.02090526931
v 0.009055073373 -0.004570155405 -0.02090355195
v 0.0091675492 0.001346109319 -0.02401676029
v 0.009169108234 -0.001335441251 -0.02401676215
v 0.009265848435 5.390811111e-06 -0.02401675843
v 0.009266600944 0.002728878288 -0.01562317275
v 0.009269769304 -0.002718094504 -0.01562318113
v 0.009283034131 0.001363065909 -0.02374750748
v 0.009284613654 -0.001352263731 -0.02374751121
v 0.009316451848 5.420162324e-06 -0.01351890806
v 0.009341064841 0.0008815748733 -0.02374751307
v 0.009342084639 -0.0008707038942 -0.02374751307
v 0.009369167499 0.004163384438 -0.01979907788
v 0.009376323782 -0.004150143359 -0.01979606971
v 0.009382572025 5.458332453e-06 -0.02374750935
v 0.00946499221 0.004025042057 -0.02019910887
v 0.009471142665 -0.004011936951 -0.02019616216
v 0.009477377869 0.003844137071 -0.02059335075
v 0.009482521564 -0.003831268754 -0.02059048042
v 0.009499536827 0.003663846059 -0.01886157319
v 0.009503792971 -0.003652790328 -0.01886157133
v 0.009564996697 0.00184204604 -0.01556335948
v 0.00956713222 -0.001830915106 -0.01556336693
v 0.009752740152 0.0009301620303 -0.01552659459
v 0.009753816761 -0.0009188127005 -0.01552658342
v 0.00981825497 5.712129223e-06 -0.01551406179
v 0.009894149378 0.002794733038 -0.01878466085
v 0.009897395037 -0.002783218166 -0.01878466085
v 0.009910595603 0.002864266513 -0.02026217803
v 0.009913750924 -0.002851747675 -0.0202618707
v 0.009945940226 0.002916907659 -0.01939123869
v 0.00994942151 -0.002903839806 -0.01939097606
v 0.009985086508 0.002655272139 -0.02020272985
v 0.009987923317 -0.002642705804 -0.02020248398
v 0.01000886224 0.002800813643 -0.0197996106
v 0.0100120753 -0.002787946025 -0.01979935355
v 0.01015818957 5.910032996e-06 -0.01711869426
v 0.01018815208 0.001886786777 -0.01872833632
v 0.01019033976 -0.001874930342 -0.01872834936
v 0.01031694002 0.001366618904 -0.01992274448
v 0.01031940617 -0.00135164347 -0.01991857775
v 0.01033315156 0.001531134243 -0.01910103299
v 0.01033826638 -0.001515233074 -0.01909665018
v 0.01036859863 0.001456483151 -0.01951429993
v 0.01037186664 0.000952926348 -0.018693747
v 0.01037235651 -0.001440995955 -0.01951002143
v 0.01037296839 -0.0009408571059 -0.01869373769
v 0.01037549227 0.0009799049003 -0.01986834779
v 0.01037705969 -0.0009679818759 -0.01986532845
v 0.01040692814 0.0006919474108 -0.01983790658
v 0.01040819287 -0.0006784541765 -0.01983584836
v 0.0104386881 6.073010809e-06 -0.01980602741
v 0.01044299453 0.0007839928148 -0.01901337132
v 0.01044556405 -0.0007700637216 -0.0190111883
v 0.01046813745 0.0007418420864 -0.01942798123
v 0.01047012489 -0.0007280773716 -0.01942586526
v 0.01048298739 6.09908875e-06 -0.0189804472
v 0.01050380711 6.111195489e-06 -0.01939554513
f 452 353 433
f 507 191 201
f 66 94 68
f 312 322 353
f 194 204 198
f 243 259 284
f 284 247 243
f 773 733 747
f 768 789 793
f 864 850 848
f 11 13 8
f 10 12 4
f 4 9 10
f 10 9 14
f 507 201 219
f 507 111 138
f 138 167 507
f 184 191 507
f 507 167 184
f 481 511 526
f 457 511 481
f 193 196 199
f 28 10 14
f 12 10 28
f 135 122 132
f 121 115 132
f 224 85 78
f 259 476 292
f 284 259 292
f 292 312 284
f 204 476 233
f 284 312 279
f 279 247 284
f 341 312 353
f 276 279 341
f 341 279 312
f 353 452 341
f 452 430 341
f 105 115 121
f 178 185 173
f 504 185 178
f 178 160 504
f 128 115 144
f 144 115 504
f 504 160 144
f 483 476 204
f 204 194 483
f 483 185 504
f 483 194 185
f 504 641 483
f 597 366 483
f 537 452 475
f 475 523 537
f 475 469 523
f 649 645 655
f 597 483 644
f 644 483 641
f 644 598 597
f 645 598 644
f 655 645 644
f 597 598 549
f 537 523 549
f 549 598 537
f 549 523 433
f 8 13 530
f 530 58 507
f 831 795 808
f 579 546 568
f 568 546 524
f 743 795 782
f 614 630 583
f 450 500 429
f 339 429 446
f 517 609 536
f 517 536 449
f 449 446 517
f 446 429 517
f 517 429 500
f 524 546 508
f 559 546 579
f 579 607 559
f 519 533 496
f 519 508 546
f 519 559 533
f 546 559 519
f 812 789 782
f 782 795 812
f 812 795 831
f 552 533 580
f 533 559 580
f 580 559 607
f 881 876 883
f 804 555 817
f 829 817 824
f 859 834 866
f 859 861 855
f 855 821 859
f 859 821 834
f 838 806 801
f 822 793 789
f 789 812 822
f 838 801 822
f 822 801 793
f 791 797 814
f 841 806 838
f 814 797 820
f 797 843 820
f 737 747 730
f 747 733 730
f 693 733 729
f 693 697 733
f 729 558 693
f 558 530 693
f 518 592 501
f 518 452 537
f 518 430 452
f 501 430 518
f 537 598 610
f 610 518 537
f 592 518 610
f 610 598 645
f 419 430 501
f 417 419 491
f 491 419 501
f 574 592 623
f 501 592 574
f 574 491 501
f 449 536 506
f 506 461 449
f 474 461 506
f 86 104 111
f 86 111 507
f 507 58 86
f 13 11 25
f 25 11 36
f 90 97 77
f 77 36 90
f 7 11 3
f 3 11 8
f 1 15 3
f 6 9 4
f 6 4 1
f 1 2 6
f 242 282 251
f 246 282 242
f 111 104 110
f 110 104 77
f 210 219 201
f 201 199 210
f 197 201 191
f 197 199 201
f 191 188 197
f 198 204 177
f 177 194 198
f 173 185 177
f 185 194 177
f 61 28 14
f 73 28 61
f 66 12 38
f 12 28 38
f 38 94 66
f 38 73 94
f 38 28 73
f 94 121 119
f 121 132 119
f 119 132 122
f 139 122 135
f 55 76 46
f 50 12 66
f 4 12 50
f 4 34 22
f 1 4 22
f 59 88 83
f 63 59 54
f 63 88 59
f 63 74 98
f 85 224 231
f 235 93 231
f 231 93 85
f 301 476 322
f 301 292 476
f 322 312 301
f 312 292 301
f 259 243 248
f 243 233 248
f 248 476 259
f 248 233 476
f 211 233 243
f 204 233 211
f 211 177 204
f 179 177 211
f 322 476 358
f 353 322 358
f 358 366 353
f 476 483 358
f 358 483 366
f 230 279 276
f 247 279 230
f 91 121 94
f 91 105 121
f 94 73 91
f 73 61 91
f 115 105 91
f 504 115 91
f 91 61 504
f 824 817 805
f 805 530 558
f 433 523 454
f 464 475 452
f 469 475 464
f 464 452 433
f 433 454 464
f 692 649 655
f 388 366 597
f 597 549 388
f 388 549 433
f 433 353 388
f 353 366 388
f 785 555 804
f 785 757 555
f 799 805 558
f 816 828 824
f 814 828 816
f 816 803 814
f 824 805 816
f 805 799 816
f 558 803 816
f 816 799 558
f 8 530 5
f 5 530 2
f 5 3 8
f 5 2 1
f 1 3 5
f 29 530 13
f 58 530 29
f 13 25 29
f 29 25 58
f 843 841 860
f 847 852 831
f 831 808 847
f 779 771 809
f 550 568 524
f 526 583 550
f 583 630 603
f 603 550 583
f 663 630 683
f 770 808 795
f 660 607 626
f 626 607 579
f 564 614 583
f 564 583 526
f 526 511 564
f 630 614 673
f 699 683 673
f 673 683 630
f 567 590 540
f 617 590 567
f 662 671 633
f 246 225 278
f 278 282 246
f 299 339 309
f 300 282 309
f 309 278 299
f 282 278 309
f 573 521 552
f 337 330 291
f 307 343 252
f 488 519 496
f 508 519 488
f 524 508 494
f 494 481 526
f 526 550 494
f 494 550 524
f 624 580 607
f 624 607 660
f 660 687 624
f 624 687 652
f 660 626 689
f 689 626 658
f 793 801 766
f 768 793 766
f 766 745 768
f 872 862 850
f 876 881 874
f 864 848 853
f 866 874 871
f 871 874 881
f 871 859 866
f 861 859 871
f 830 829 824
f 824 828 830
f 834 829 837
f 840 876 837
f 837 830 840
f 829 830 837
f 876 874 837
f 866 834 837
f 837 874 866
f 834 821 815
f 815 829 834
f 815 785 804
f 804 817 815
f 817 829 815
f 810 780 806
f 780 810 772
f 838 822 845
f 845 822 812
f 831 852 845
f 845 812 831
f 877 876 840
f 840 875 877
f 883 876 877
f 877 875 883
f 858 865 833
f 833 820 858
f 833 828 814
f 814 820 833
f 701 725 737
f 701 691 725
f 507 300 636
f 636 650 507
f 665 530 507
f 507 650 665
f 637 692 676
f 649 692 637
f 637 676 623
f 645 649 637
f 637 610 645
f 623 592 637
f 592 610 637
f 430 419 327
f 327 419 417
f 417 324 327
f 514 567 540
f 565 527 584
f 584 615 565
f 512 487 458
f 512 527 565
f 180 324 329
f 601 574 623
f 818 835 849
f 849 847 818
f 818 847 808
f 850 835 819
f 809 848 819
f 819 848 850
f 819 779 809
f 786 779 819
f 851 835 850
f 850 862 851
f 849 835 851
f 851 862 849
f 466 506 438
f 438 461 466
f 438 506 434
f 434 409 449
f 449 461 434
f 434 461 438
f 251 282 286
f 286 282 300
f 507 251 286
f 286 300 507
f 552 580 599
f 599 573 552
f 620 573 599
f 580 624 599
f 652 620 599
f 599 624 652
f 691 648 635
f 741 687 716
f 716 766 741
f 745 766 716
f 716 689 745
f 716 687 660
f 660 689 716
f 652 687 708
f 725 691 708
f 741 725 708
f 708 687 741
f 77 104 72
f 104 86 72
f 72 86 58
f 72 36 77
f 58 25 72
f 72 25 36
f 240 242 251
f 240 251 507
f 507 219 240
f 219 210 240
f 240 210 242
f 191 184 186
f 186 188 191
f 186 184 167
f 193 199 190
f 199 197 190
f 190 197 188
f 171 186 167
f 188 186 171
f 85 93 62
f 62 76 55
f 87 100 97
f 97 90 87
f 102 93 235
f 102 62 93
f 235 244 102
f 102 244 112
f 127 138 111
f 127 134 138
f 111 110 127
f 110 134 127
f 486 511 457
f 165 205 196
f 165 188 153
f 165 190 188
f 193 190 165
f 165 196 193
f 404 441 407
f 470 441 404
f 328 404 407
f 330 404 328
f 287 328 280
f 330 328 287
f 200 199 196
f 196 205 200
f 214 221 212
f 214 207 217
f 217 225 214
f 214 225 246
f 246 221 214
f 202 210 199
f 199 200 202
f 208 205 212
f 208 202 205
f 210 202 208
f 99 119 122
f 118 99 122
f 98 236 92
f 92 63 98
f 88 63 92
f 183 139 187
f 78 85 51
f 51 47 52
f 85 62 51
f 59 83 57
f 40 34 4
f 4 50 40
f 46 39 23
f 23 39 15
f 1 22 18
f 74 63 64
f 64 63 54
f 98 74 109
f 162 263 143
f 227 224 78
f 80 228 78
f 232 83 88
f 88 92 232
f 232 92 236
f 218 211 243
f 179 211 218
f 218 243 247
f 247 179 218
f 215 179 247
f 247 230 215
f 215 230 179
f 800 805 817
f 655 644 651
f 651 644 641
f 651 641 504
f 680 666 678
f 555 678 543
f 678 666 543
f 531 530 543
f 530 805 543
f 805 800 543
f 543 817 555
f 543 800 817
f 469 464 467
f 467 464 454
f 523 469 467
f 467 454 523
f 726 692 702
f 767 765 802
f 653 688 625
f 623 676 653
f 653 601 623
f 625 601 653
f 625 688 661
f 574 601 553
f 491 574 553
f 553 485 491
f 827 842 807
f 802 807 839
f 839 807 842
f 844 842 827
f 844 821 855
f 855 861 844
f 861 842 844
f 774 781 753
f 757 785 763
f 788 774 763
f 731 555 763
f 555 757 763
f 763 753 731
f 763 774 753
f 753 781 775
f 854 860 858
f 843 860 854
f 858 820 854
f 854 820 843
f 856 867 860
f 856 845 852
f 838 845 856
f 856 841 838
f 856 860 841
f 849 862 870
f 863 847 849
f 849 870 863
f 863 870 867
f 852 847 863
f 863 856 852
f 867 856 863
f 809 771 796
f 684 700 674
f 759 796 771
f 695 685 656
f 568 550 585
f 550 603 585
f 795 743 758
f 758 770 795
f 685 695 720
f 663 683 722
f 722 705 663
f 722 743 782
f 656 616 628
f 633 671 628
f 628 616 589
f 614 564 594
f 646 673 614
f 614 594 646
f 646 594 616
f 646 616 656
f 656 685 646
f 685 673 646
f 617 567 595
f 565 615 595
f 647 657 617
f 647 615 674
f 617 595 647
f 647 595 615
f 617 657 629
f 629 590 617
f 268 225 217
f 332 339 299
f 299 268 332
f 332 268 326
f 429 339 332
f 332 326 429
f 450 429 418
f 429 326 418
f 350 309 339
f 350 409 369
f 449 409 350
f 350 446 449
f 350 339 446
f 591 517 500
f 500 521 591
f 521 573 591
f 609 517 591
f 591 573 620
f 591 635 609
f 620 635 591
f 479 441 470
f 392 395 343
f 448 395 392
f 249 337 291
f 249 159 252
f 252 343 297
f 343 337 297
f 297 249 252
f 337 249 297
f 343 395 397
f 397 337 343
f 400 337 397
f 343 307 348
f 477 494 508
f 477 488 448
f 508 488 477
f 764 766 801
f 737 725 764
f 764 725 741
f 741 766 764
f 882 881 883
f 857 853 846
f 846 839 857
f 864 853 857
f 857 842 861
f 857 839 842
f 879 871 881
f 881 882 879
f 862 872 879
f 879 882 862
f 785 815 792
f 792 763 785
f 788 763 792
f 826 843 797
f 826 841 843
f 806 841 826
f 826 810 806
f 787 772 810
f 787 826 797
f 810 826 787
f 797 791 787
f 729 733 752
f 733 773 752
f 773 780 752
f 780 772 752
f 883 875 880
f 875 873 880
f 880 882 883
f 724 558 729
f 729 756 724
f 724 756 558
f 791 756 762
f 762 787 791
f 772 787 762
f 762 756 729
f 729 752 762
f 762 752 772
f 784 756 791
f 814 803 784
f 784 791 814
f 784 803 558
f 558 756 784
f 865 873 836
f 836 833 865
f 836 873 875
f 836 875 840
f 828 833 836
f 840 830 836
f 836 830 828
f 737 730 710
f 710 701 737
f 733 697 710
f 710 730 733
f 650 636 638
f 677 693 530
f 530 665 677
f 697 693 677
f 276 341 333
f 333 341 430
f 430 327 333
f 269 230 276
f 276 333 269
f 269 333 327
f 615 584 632
f 664 684 632
f 674 615 632
f 632 684 674
f 604 632 584
f 542 512 565
f 565 595 542
f 542 595 567
f 567 514 542
f 542 514 487
f 487 512 542
f 273 327 324
f 324 180 273
f 273 269 327
f 180 269 273
f 463 471 497
f 497 471 503
f 503 534 497
f 497 534 520
f 570 584 527
f 527 551 570
f 570 604 584
f 503 471 480
f 480 485 503
f 451 396 463
f 825 818 786
f 835 818 825
f 786 819 825
f 825 819 835
f 786 818 778
f 778 754 786
f 808 770 778
f 778 818 808
f 474 506 468
f 506 466 468
f 468 461 474
f 468 466 461
f 667 665 650
f 691 701 667
f 652 708 675
f 675 620 652
f 675 635 620
f 691 635 675
f 675 708 691
f 153 188 182
f 182 171 153
f 188 171 182
f 138 134 163
f 134 171 163
f 167 138 163
f 163 171 167
f 415 382 364
f 389 348 386
f 431 382 415
f 457 481 431
f 431 415 457
f 431 386 382
f 36 11 67
f 67 90 36
f 82 89 76
f 82 102 112
f 76 62 82
f 62 102 82
f 266 244 235
f 266 254 244
f 376 426 367
f 112 244 114
f 244 254 114
f 126 89 114
f 114 82 112
f 89 82 114
f 223 89 126
f 126 114 223
f 223 114 254
f 106 89 223
f 223 241 106
f 254 241 223
f 252 159 149
f 125 241 255
f 222 287 280
f 222 220 213
f 237 222 280
f 220 222 237
f 209 220 217
f 213 220 209
f 217 207 209
f 156 165 154
f 154 165 153
f 206 165 207
f 205 165 206
f 207 214 206
f 212 205 206
f 206 214 212
f 400 470 401
f 470 404 401
f 401 404 330
f 401 337 400
f 330 337 401
f 203 200 205
f 205 202 203
f 203 202 200
f 216 208 212
f 212 221 216
f 242 210 216
f 210 208 216
f 246 242 216
f 216 221 246
f 94 119 95
f 119 99 95
f 95 68 94
f 99 118 101
f 487 514 453
f 162 118 172
f 139 183 129
f 129 172 118
f 183 172 129
f 283 305 308
f 283 172 183
f 283 263 162
f 162 172 283
f 15 39 32
f 32 39 35
f 32 3 15
f 32 35 7
f 7 3 32
f 48 62 55
f 48 51 62
f 55 41 48
f 41 47 48
f 47 51 48
f 52 47 53
f 53 57 83
f 47 43 53
f 53 43 57
f 53 80 52
f 83 80 53
f 54 31 45
f 45 64 54
f 60 64 45
f 56 40 50
f 68 60 56
f 60 45 56
f 66 68 56
f 56 50 66
f 19 23 15
f 20 23 19
f 42 47 41
f 42 43 47
f 1 18 17
f 17 18 20
f 20 19 17
f 20 18 21
f 21 18 22
f 44 31 54
f 43 31 44
f 57 43 44
f 54 59 44
f 59 57 44
f 245 109 113
f 96 101 107
f 99 101 96
f 113 109 81
f 81 84 113
f 81 109 74
f 108 143 107
f 107 101 108
f 108 101 118
f 108 118 162
f 162 143 108
f 271 143 263
f 271 283 308
f 263 283 271
f 308 311 271
f 78 228 229
f 229 227 78
f 224 227 258
f 295 293 258
f 258 231 224
f 79 51 52
f 52 80 79
f 78 51 79
f 79 80 78
f 83 232 226
f 226 80 83
f 228 80 226
f 261 228 226
f 261 226 256
f 256 226 232
f 236 289 256
f 256 232 236
f 670 651 666
f 666 680 670
f 655 651 670
f 670 680 702
f 670 692 655
f 702 692 670
f 702 680 711
f 698 680 678
f 698 711 680
f 666 651 529
f 529 651 504
f 14 9 529
f 9 6 529
f 529 61 14
f 504 61 529
f 529 6 2
f 529 530 531
f 2 530 529
f 738 726 702
f 702 711 738
f 738 711 732
f 738 732 748
f 765 726 738
f 742 726 765
f 765 767 742
f 794 767 802
f 582 553 601
f 582 601 625
f 827 807 811
f 811 807 781
f 781 774 811
f 811 788 827
f 811 774 788
f 827 788 798
f 798 844 827
f 821 844 798
f 788 792 798
f 798 815 821
f 798 792 815
f 777 775 781
f 781 807 777
f 765 738 777
f 802 765 777
f 777 807 802
f 748 775 777
f 777 738 748
f 771 779 750
f 786 754 751
f 686 647 674
f 657 647 686
f 832 848 809
f 809 796 832
f 832 853 848
f 846 853 832
f 690 746 715
f 783 796 744
f 796 759 744
f 718 758 743
f 718 683 699
f 743 722 718
f 718 722 683
f 770 758 734
f 758 718 734
f 734 718 699
f 754 720 727
f 727 751 754
f 727 695 703
f 727 720 695
f 782 789 760
f 760 722 782
f 705 722 760
f 639 630 663
f 639 603 630
f 663 705 639
f 705 681 639
f 745 689 714
f 768 745 714
f 714 689 658
f 658 681 714
f 656 628 668
f 668 628 671
f 668 695 656
f 668 671 703
f 703 695 668
f 633 628 605
f 605 628 589
f 541 594 564
f 541 564 511
f 511 486 541
f 541 486 513
f 634 629 672
f 672 662 634
f 672 629 669
f 669 629 657
f 472 459 444
f 444 426 472
f 380 426 444
f 472 426 421
f 421 426 376
f 522 456 499
f 522 572 556
f 378 368 384
f 561 605 589
f 492 513 465
f 465 440 492
f 492 440 459
f 459 509 492
f 272 237 280
f 326 268 272
f 220 237 272
f 299 278 275
f 275 268 299
f 275 278 225
f 225 268 275
f 450 418 411
f 411 441 450
f 407 441 411
f 411 328 407
f 300 309 336
f 309 350 336
f 336 350 369
f 369 638 336
f 336 636 300
f 336 638 636
f 450 441 490
f 441 479 490
f 490 479 521
f 490 500 450
f 490 521 500
f 502 470 496
f 502 479 470
f 496 533 502
f 502 533 552
f 552 521 502
f 521 479 502
f 448 488 462
f 462 395 448
f 462 397 395
f 496 470 462
f 462 488 496
f 462 470 400
f 400 397 462
f 391 392 343
f 343 348 391
f 391 348 389
f 389 448 391
f 448 392 391
f 253 348 307
f 253 307 252
f 252 149 253
f 253 149 151
f 151 149 140
f 776 801 806
f 776 764 801
f 806 780 776
f 776 780 773
f 737 764 776
f 776 747 737
f 776 773 747
f 861 871 868
f 868 857 861
f 864 857 868
f 868 850 864
f 868 872 850
f 868 879 872
f 871 879 868
f 860 867 869
f 869 873 865
f 869 880 873
f 869 865 858
f 858 860 869
f 867 870 878
f 878 869 867
f 880 869 878
f 882 880 878
f 878 870 862
f 862 882 878
f 369 409 575
f 575 638 369
f 181 180 179
f 181 269 180
f 179 230 181
f 230 269 181
f 540 590 562
f 562 578 535
f 590 629 606
f 606 562 590
f 578 562 606
f 606 634 613
f 629 634 606
f 588 606 613
f 578 606 588
f 535 578 557
f 578 588 557
f 499 535 557
f 557 522 499
f 473 535 499
f 515 562 535
f 535 473 515
f 515 473 460
f 540 562 515
f 640 706 664
f 664 632 640
f 632 604 640
f 581 596 618
f 187 139 152
f 179 180 169
f 169 177 179
f 128 144 142
f 142 115 128
f 142 132 115
f 571 534 544
f 544 582 571
f 553 582 544
f 544 534 503
f 503 485 544
f 485 553 544
f 547 520 560
f 520 534 560
f 560 581 547
f 560 534 571
f 571 596 560
f 596 581 560
f 516 551 527
f 405 471 403
f 405 480 471
f 305 283 303
f 303 283 183
f 303 183 187
f 489 451 463
f 463 497 489
f 489 497 520
f 432 387 443
f 654 648 691
f 691 667 654
f 654 667 650
f 679 677 665
f 665 667 679
f 697 677 679
f 679 710 697
f 701 710 679
f 679 667 701
f 270 260 255
f 255 285 270
f 359 348 342
f 359 386 348
f 382 386 359
f 359 364 382
f 342 334 359
f 334 364 359
f 439 431 481
f 481 494 439
f 494 477 439
f 386 431 439
f 439 477 448
f 439 448 389
f 389 386 439
f 304 338 334
f 373 338 378
f 415 364 373
f 373 364 334
f 334 338 373
f 69 87 90
f 90 67 69
f 277 254 306
f 254 266 306
f 306 304 277
f 361 426 380
f 361 367 426
f 361 314 317
f 317 367 361
f 262 254 277
f 262 241 254
f 262 285 255
f 255 241 262
f 486 436 447
f 147 159 156
f 147 149 159
f 156 154 147
f 106 241 103
f 241 125 103
f 103 125 100
f 103 89 106
f 100 87 103
f 87 89 103
f 159 249 238
f 287 222 238
f 238 249 291
f 291 330 238
f 330 287 238
f 308 305 347
f 357 371 381
f 357 315 311
f 381 371 423
f 437 453 425
f 425 428 437
f 487 453 437
f 458 487 437
f 437 428 458
f 122 139 124
f 139 129 124
f 124 118 122
f 124 129 118
f 40 56 37
f 37 56 45
f 34 40 37
f 37 45 31
f 27 23 20
f 20 21 27
f 16 15 1
f 1 17 16
f 16 19 15
f 16 17 19
f 109 245 264
f 264 236 98
f 98 109 264
f 264 289 236
f 264 315 289
f 311 315 264
f 264 271 311
f 245 271 264
f 99 96 70
f 70 60 68
f 68 95 70
f 70 95 99
f 143 271 137
f 107 143 137
f 137 96 107
f 117 245 113
f 117 271 245
f 117 137 271
f 96 137 117
f 113 84 117
f 84 96 117
f 227 229 267
f 267 258 227
f 295 258 267
f 231 258 257
f 235 231 257
f 257 266 235
f 314 266 257
f 316 321 296
f 377 427 422
f 427 473 422
f 499 456 422
f 422 473 499
f 370 427 377
f 289 315 318
f 318 320 289
f 731 698 694
f 694 698 678
f 694 555 731
f 694 678 555
f 736 698 731
f 731 753 736
f 732 711 736
f 711 698 736
f 748 732 736
f 753 775 736
f 736 775 748
f 532 543 666
f 666 529 532
f 531 543 532
f 532 529 531
f 709 742 688
f 726 742 709
f 709 653 676
f 688 653 709
f 676 692 709
f 692 726 709
f 717 767 746
f 717 742 767
f 688 742 717
f 717 746 690
f 690 661 717
f 717 661 688
f 769 715 746
f 740 715 769
f 746 767 769
f 767 794 769
f 618 596 627
f 627 661 690
f 735 759 771
f 771 750 735
f 813 796 783
f 813 832 796
f 846 832 813
f 682 640 631
f 706 640 682
f 682 715 740
f 740 706 682
f 723 684 664
f 664 706 723
f 783 744 723
f 770 734 749
f 749 720 754
f 754 778 749
f 749 778 770
f 712 734 699
f 685 720 712
f 720 749 712
f 712 749 734
f 699 673 712
f 712 673 685
f 621 585 603
f 603 639 621
f 621 681 658
f 621 639 681
f 739 681 705
f 739 714 681
f 705 760 739
f 768 714 739
f 739 789 768
f 739 760 789
f 611 662 633
f 613 634 611
f 611 634 662
f 594 541 566
f 589 616 566
f 616 594 566
f 566 541 513
f 657 686 696
f 696 669 657
f 696 686 721
f 721 728 696
f 456 522 498
f 472 421 498
f 498 421 456
f 420 368 380
f 459 440 420
f 440 384 420
f 420 384 368
f 380 444 420
f 420 444 459
f 378 338 346
f 346 368 378
f 338 304 346
f 304 306 346
f 509 561 539
f 539 492 509
f 513 492 539
f 539 566 513
f 539 561 589
f 589 566 539
f 234 268 217
f 234 272 268
f 217 220 234
f 220 272 234
f 323 418 326
f 323 411 418
f 328 411 323
f 326 272 323
f 280 328 323
f 323 272 280
f 131 140 125
f 409 434 548
f 548 575 409
f 548 434 506
f 548 506 536
f 563 588 572
f 563 557 588
f 572 522 563
f 522 557 563
f 445 427 381
f 381 423 445
f 445 423 460
f 460 473 445
f 445 473 427
f 505 460 493
f 505 515 460
f 505 493 540
f 540 515 505
f 631 640 622
f 622 640 604
f 345 396 394
f 396 451 394
f 451 393 394
f 192 394 393
f 173 177 166
f 177 169 166
f 175 180 329
f 175 169 180
f 463 399 402
f 403 471 402
f 402 471 463
f 396 161 170
f 170 402 399
f 161 175 170
f 403 402 170
f 495 516 482
f 432 443 482
f 482 443 495
f 458 432 482
f 482 512 458
f 527 512 482
f 482 516 527
f 485 480 410
f 510 520 547
f 510 489 520
f 495 443 478
f 478 443 451
f 478 510 495
f 451 489 478
f 489 510 478
f 342 348 298
f 302 304 334
f 285 304 302
f 302 270 285
f 302 334 342
f 342 298 302
f 435 373 378
f 415 373 435
f 457 415 435
f 435 486 457
f 435 436 486
f 87 69 71
f 76 89 71
f 71 89 87
f 71 46 76
f 49 39 46
f 46 71 49
f 49 71 69
f 35 39 49
f 49 11 7
f 7 35 49
f 310 266 314
f 310 306 266
f 277 304 281
f 281 262 277
f 281 304 285
f 285 262 281
f 486 447 455
f 465 513 455
f 513 486 455
f 455 440 465
f 378 384 424
f 424 447 436
f 424 455 447
f 424 435 378
f 436 435 424
f 424 384 440
f 440 455 424
f 136 140 149
f 149 147 136
f 145 154 153
f 145 147 154
f 145 136 147
f 153 171 145
f 159 238 174
f 174 238 222
f 156 159 174
f 352 357 311
f 371 357 352
f 352 347 371
f 352 311 308
f 308 347 352
f 484 453 514
f 540 493 484
f 484 514 540
f 385 423 371
f 24 37 31
f 24 21 22
f 24 22 34
f 34 37 24
f 43 42 33
f 33 42 41
f 33 41 55
f 55 46 33
f 30 27 21
f 30 24 31
f 21 24 30
f 30 31 43
f 43 33 30
f 30 33 27
f 75 96 84
f 75 70 96
f 84 81 75
f 75 81 74
f 74 64 75
f 75 64 60
f 60 70 75
f 265 267 229
f 265 228 261
f 265 229 228
f 288 258 293
f 288 257 258
f 317 314 288
f 314 257 288
f 294 320 316
f 316 296 294
f 289 320 294
f 294 256 289
f 261 256 294
f 294 296 261
f 316 320 354
f 377 422 354
f 320 318 354
f 354 370 377
f 354 318 370
f 313 293 295
f 313 325 293
f 363 354 422
f 456 421 363
f 363 422 456
f 363 321 316
f 316 354 363
f 372 421 376
f 372 367 317
f 376 367 372
f 315 357 362
f 362 318 315
f 370 318 362
f 362 357 381
f 381 427 362
f 427 370 362
f 661 627 608
f 608 627 596
f 625 661 608
f 608 582 625
f 608 596 571
f 571 582 608
f 719 735 700
f 700 684 719
f 719 744 759
f 759 735 719
f 684 723 719
f 719 723 744
f 700 735 713
f 721 686 713
f 713 750 721
f 713 735 750
f 674 700 713
f 713 686 674
f 721 750 755
f 755 728 721
f 755 750 779
f 751 728 755
f 755 779 786
f 786 751 755
f 707 728 751
f 707 727 703
f 751 727 707
f 707 662 672
f 703 671 707
f 671 662 707
f 790 769 794
f 790 813 783
f 740 769 790
f 690 715 659
f 715 682 659
f 659 627 690
f 659 682 631
f 631 618 659
f 618 627 659
f 761 706 740
f 761 723 706
f 783 723 761
f 761 790 783
f 740 790 761
f 585 621 600
f 579 568 600
f 568 585 600
f 600 621 658
f 600 626 579
f 658 626 600
f 633 605 612
f 612 611 633
f 561 538 545
f 545 538 498
f 528 561 509
f 528 538 561
f 528 459 472
f 528 509 459
f 472 498 528
f 498 538 528
f 260 253 250
f 255 260 250
f 250 253 151
f 151 140 250
f 130 125 255
f 255 131 130
f 130 131 125
f 239 131 255
f 140 131 239
f 255 250 239
f 239 250 140
f 576 548 536
f 575 548 576
f 536 609 576
f 609 619 576
f 576 619 575
f 586 622 604
f 586 570 551
f 604 570 586
f 161 192 150
f 150 192 152
f 150 148 161
f 150 152 139
f 150 139 135
f 135 148 150
f 390 192 393
f 390 443 387
f 390 393 451
f 451 443 390
f 195 192 161
f 195 396 345
f 195 161 396
f 345 394 195
f 394 192 195
f 164 178 173
f 173 166 164
f 160 178 164
f 176 175 329
f 176 405 403
f 403 170 176
f 176 170 175
f 396 170 398
f 398 170 399
f 463 396 398
f 398 399 463
f 480 405 406
f 406 176 329
f 405 176 406
f 417 491 414
f 491 485 414
f 414 324 417
f 305 303 335
f 303 355 335
f 331 303 187
f 187 355 331
f 331 355 303
f 189 192 387
f 189 355 187
f 187 152 189
f 152 192 189
f 383 387 432
f 495 510 525
f 551 516 525
f 525 516 495
f 525 510 547
f 650 638 642
f 642 654 650
f 638 575 642
f 575 619 642
f 260 270 290
f 290 298 348
f 270 302 290
f 290 302 298
f 348 253 290
f 290 253 260
f 65 69 67
f 65 49 69
f 65 67 11
f 11 49 65
f 314 361 356
f 356 310 314
f 356 361 380
f 380 368 356
f 100 125 123
f 125 140 123
f 140 136 123
f 168 222 213
f 168 174 222
f 213 209 168
f 207 165 168
f 168 209 207
f 168 165 156
f 156 174 168
f 423 385 442
f 453 484 442
f 425 453 442
f 442 385 425
f 442 484 493
f 493 460 442
f 460 423 442
f 371 347 379
f 379 385 371
f 425 385 379
f 379 428 425
f 379 374 428
f 46 23 26
f 26 33 46
f 23 27 26
f 27 33 26
f 274 296 321
f 267 265 274
f 261 296 274
f 274 265 261
f 321 313 274
f 295 267 274
f 274 313 295
f 293 325 319
f 319 288 293
f 317 288 319
f 319 372 317
f 325 372 319
f 344 363 421
f 421 372 344
f 344 372 325
f 321 363 344
f 344 313 321
f 325 313 344
f 704 696 728
f 728 707 704
f 704 707 672
f 672 669 704
f 669 696 704
f 823 790 794
f 802 839 823
f 823 794 802
f 823 839 846
f 846 813 823
f 813 790 823
f 556 572 587
f 587 612 605
f 622 586 602
f 602 581 618
f 602 618 631
f 631 622 602
f 547 581 569
f 569 525 547
f 581 602 569
f 569 602 586
f 569 586 551
f 551 525 569
f 387 192 349
f 349 390 387
f 192 390 349
f 161 148 157
f 148 155 157
f 157 175 161
f 169 175 157
f 157 166 169
f 157 155 166
f 142 155 146
f 146 155 148
f 132 142 146
f 135 132 146
f 146 148 135
f 160 164 158
f 158 144 160
f 158 164 166
f 166 155 158
f 158 142 144
f 158 155 142
f 408 410 480
f 480 406 408
f 329 410 408
f 408 406 329
f 485 410 412
f 412 414 485
f 324 414 412
f 329 324 412
f 412 410 329
f 305 335 340
f 340 335 374
f 340 347 305
f 340 379 347
f 374 379 340
f 360 189 387
f 355 189 360
f 360 335 355
f 413 383 432
f 413 432 458
f 648 654 643
f 654 642 643
f 643 642 619
f 643 619 609
f 609 635 643
f 643 635 648
f 351 356 368
f 310 356 351
f 368 346 351
f 351 346 306
f 306 310 351
f 77 97 116
f 116 110 77
f 116 134 110
f 611 612 593
f 612 587 593
f 593 588 613
f 613 611 593
f 572 588 593
f 593 587 572
f 605 561 577
f 577 587 605
f 561 545 577
f 556 587 577
f 387 383 375
f 375 360 387
f 458 428 416
f 416 413 458
f 428 374 416
f 374 413 416
f 120 116 97
f 97 100 120
f 100 123 120
f 556 577 554
f 554 577 545
f 554 545 498
f 554 522 556
f 554 498 522
f 383 413 365
f 365 375 383
f 365 413 374
f 374 335 365
f 335 360 365
f 360 375 365
f 133 123 136
f 133 120 123
f 136 145 133
f 116 120 133
f 134 116 133
f 134 133 141
f 141 133 145
f 141 171 134
f 141 145 171
