v -0.01046617236 0.002950001275 -0.004129087087
v -0.01046617143 -0.004949998111 -0.004129089415
v -0.01046617143 -0.002949997783 -0.004129085224
v -0.0104661705 0.00495000137 -0.004129083361
v -0.01045349427 -0.00294999918 -0.0047033187
v -0.01045349427 0.004950000905 -0.004703316838
v -0.01045349333 -0.004949998576 -0.004703315441
v -0.01026210655 -0.004949998576 -0.00359219173
v -0.01026210655 -0.002949998714 -0.003592187539
v -0.01026210655 0.00495000137 -0.003592185676
v -0.01022593305 -0.004949998576 -0.005230686162
v -0.01022593305 0.00495000137 -0.005230687559
v -0.009871219285 0.00495000137 -0.00317134778
v -0.009871218354 -0.004949998111 -0.003171346383
v -0.009816854261 -0.004949997179 -0.005633867346
v -0.009816854261 -0.002949998016 -0.005633871071
v -0.009816854261 0.00495000137 -0.005633868743
v -0.009286236949 0.004950000905 -0.005853749812
v -0.009286236018 -0.004949997645 -0.005853748415
v -0.008711883798 -0.002949997783 -0.005858086981
v -0.008711882867 -0.004949999042 -0.005858083256
v -0.008711882867 0.002950001508 -0.005858088844
v -0.008711882867 0.00495000137 -0.005858085118
v -0.001879808377 -0.002949999413 -0.004578873515
v -0.001879807911 0.004950001836 -0.004578871652
v -0.001879807678 -0.004949999042 -0.004578870255
v -0.001499999897 -0.006999998353 2.514789488e-09
v -0.001499998965 0.007000001613 8.12972134e-09
v -0.001385819516 -0.006999998819 0.0005740263732
v -0.00138581905 -0.006999999285 -0.0005740238121
v -0.00138581905 0.007000001613 -0.0005740181659
v -0.001385818585 0.007000001613 0.0005740319029
v -0.001288665109 0.004950000439 -0.004430395551
v -0.00128866476 -0.004949999042 -0.004430394154
v -0.001060659997 0.007000001147 0.001060664887
v -0.001060659764 -0.006999998353 -0.001060657902
v -0.001060659764 0.007000001613 -0.001060652197
v -0.001060659415 -0.006999997888 0.001060666516
v -0.001050000312 0.004254165106 0.005875427742
v -0.001050000195 -0.002500233939 0.006989334244
v -0.001050000195 0.004865626805 0.005105192773
v -0.001049999963 -0.004865624011 0.005105201621
v -0.001049999846 0.002500229981 0.006989336107
v -0.001049999613 -0.004621991888 0.005545395892
v -0.001049999497 0.004621995613 0.005545386113
v -0.001049999148 -0.004254159983 0.005875442177
v -0.0007424473879 -0.002949998947 -0.00422130432
v -0.0007424473297 0.002950001741 -0.004221298732
v -0.0005798274069 0.003007166553 -0.004144402687
v -0.0005740248598 0.007000001147 -0.001385814743
v -0.0005740247434 -0.006999999285 0.001385825104
v -0.0005740246852 -0.006999998353 -0.001385812997
v -0.0005740243359 0.007000001613 0.001385823241
v -0.0004083706008 0.00495000137 -0.004055188503
v -0.0004083703679 -0.004949999042 -0.004055187106
v -0.0004078184429 0.00307110115 -0.004055102356
v -0.0003764257708 -0.003083420685 -0.004037088715
v -2.922840577e-05 0.00322093931 -0.003826495958
v -3.130495998e-06 -0.003232182469 -0.003807538655
v 5.055679491e-11 0.007000000682 0.001500002458
v 1.993747807e-10 0.007000001147 -0.001499998034
v 2.154859207e-10 -0.006999998353 0.001500004204
v 3.86164517e-10 -0.006999997422 -0.001499996288
v 0.0001254671661 0.003284089267 -0.003719110042
v 0.0003828250919 -0.003388995305 -0.003520388855
v 0.0003843234445 0.00495000137 -0.003519155551
v 0.0003843237355 -0.004949998576 -0.003519154154
v 0.0004944154643 0.002071437426 0.007261660416
v 0.0004944368848 -0.002071435098 0.007261662744
v 0.0005740252091 -0.006999999285 0.00138582103
v 0.0005740252673 -0.006999998819 -0.001385817071
v 0.0005740257329 0.007000001147 0.001385826617
v 0.0005740257329 0.007000001613 -0.001385811483
v 0.0006713073817 -0.00350240618 -0.003263963154
v 0.0007107207202 0.003518044017 -0.003224334912
v 0.001059203641 0.003640001873 -0.002843299182
v 0.001060382463 -0.004949998111 -0.00284192781
v 0.001060382812 0.004950001836 -0.002841921756
v 0.001060660463 -0.006999998353 -0.001060658717
v 0.001060660579 0.007000001147 0.001060664072
v 0.001060660812 -0.006999997422 0.001060665702
v 0.001060660928 0.007000001613 -0.001060653012
v 0.0011654587 -0.003672265913 -0.002708052285
v 0.001185487839 0.003677255241 -0.002683389699
v 0.001385819633 -0.006999998819 -0.0005740182823
v 0.001385819633 -0.006999998819 0.0005740318447
v 0.001385819982 0.007000001147 -0.000574020145
v 0.001385819982 0.007000001613 0.0005740299821
v 0.001415838371 0.001790140057 0.007424131501
v 0.001415845589 -0.001790142967 0.007424134295
v 0.001500000362 0.007000001147 3.667310455e-09
v 0.001500000479 -0.006999997422 5.366313172e-09
v 0.001549089677 -0.003747909097 -0.002129042521
v 0.001551381429 0.003746619215 -0.002125933301
v 0.001595044159 -0.004949999042 -0.00204830477
v 0.001595044276 0.004950000439 -0.002048306167
v 0.001839243108 0.003714798717 -0.001528814319
v 0.001846286817 -0.003711803351 -0.001513203373
v 0.001968724653 0.004950000905 -0.001167361857
v 0.001968725119 -0.004949997645 -0.001167360577
v 0.001969728852 -0.003632424399 -0.001164042042
v 0.002022041241 0.003573284484 -0.0009844686138
v 0.00202776026 -0.00356511143 -0.0009644373786
v 0.002078215359 0.003476395039 -0.0007605563151
v 0.002078347374 -0.003476521233 -0.0007605729043
v 0.002130977111 -0.003321658354 -0.0004946450354
v 0.002131574554 0.003318032715 -0.000490553095
v 0.002147975843 0.003240739927 -0.0003857179545
v 0.002167737111 -0.004949998111 -0.0002313674049
v 0.00216773781 0.004950001836 -0.0002313614386
v 0.002173236338 -0.003056304995 -0.0001817425655
v 0.002187079052 0.002867664676 -2.34710551e-05
v 0.002194692846 0.002667875262 0.0001015057715
v 0.002195313806 -0.002632966032 0.0001184926514
v 0.002198732691 0.002425782615 0.000204994154
v 0.002199316397 -0.002316783182 0.0002363299427
v 0.0021997164 -0.002158800839 0.0002676612348
v 0.002199718263 0.001950000413 0.0002826207783
v 0.002199999988 -0.002071436262 0.007261658087
v 0.002199999988 0.004950000905 0.0003357205424
v 0.002200000221 -0.004949998111 0.0003357218229
v 0.002200000221 -0.004865623545 0.005105201621
v 0.002200000221 -0.001496196724 0.007562398445
v 0.002200000221 0.004254165571 0.005875427742
v 0.002200000221 0.004865626339 0.005105192773
v 0.002200000454 -0.004621990956 0.005545395892
v 0.002200000454 0.001496190904 0.007562400308
v 0.002200000454 0.00207143696 0.007261661347
v 0.002200000454 0.004621995147 0.005545386113
v 0.002200000687 -0.004949998576 0.004609218333
v 0.002200000687 0.00495000137 0.00460920902
v 0.002200000919 -0.00425416138 0.005875442177
v 0.002200000919 -0.001644460252 0.004598543514
v 0.002200000919 0.000875001715 0.002484463388
f 13 10 43
f 29 38 8
f 8 38 14
f 14 40 8
f 8 40 9
f 43 10 9
f 9 40 43
f 132 127 123
f 43 40 90
f 90 123 127
f 39 13 43
f 39 45 13
f 30 29 27
f 38 29 51
f 62 44 51
f 51 29 30
f 22 19 18
f 1 10 4
f 69 90 40
f 132 123 119
f 123 90 119
f 119 69 132
f 90 69 119
f 10 13 35
f 125 60 129
f 129 60 45
f 54 73 82
f 87 96 82
f 82 88 87
f 40 14 46
f 14 44 46
f 46 44 132
f 132 69 46
f 46 69 40
f 38 51 42
f 42 51 44
f 42 14 38
f 42 44 14
f 30 27 7
f 7 11 30
f 18 19 16
f 16 11 12
f 26 63 21
f 21 63 19
f 19 63 52
f 6 4 28
f 1 4 6
f 91 88 125
f 87 88 91
f 91 110 87
f 72 60 125
f 45 60 53
f 60 72 53
f 53 72 88
f 10 35 32
f 28 4 32
f 32 4 10
f 35 53 32
f 68 90 127
f 127 89 68
f 43 90 68
f 68 39 43
f 128 89 127
f 39 68 128
f 128 68 89
f 45 39 124
f 124 129 45
f 39 128 124
f 124 128 129
f 132 134 133
f 67 55 59
f 79 55 67
f 33 73 54
f 33 25 73
f 23 22 18
f 23 25 22
f 22 25 24
f 25 33 24
f 54 82 66
f 17 50 18
f 18 16 17
f 17 16 12
f 31 6 28
f 12 6 31
f 67 66 74
f 74 66 75
f 99 96 87
f 87 110 99
f 2 7 27
f 2 29 8
f 2 27 29
f 8 9 2
f 19 22 20
f 20 21 19
f 22 24 20
f 26 21 20
f 20 24 26
f 19 52 15
f 15 16 19
f 11 16 15
f 30 11 36
f 36 52 30
f 11 15 36
f 36 15 52
f 1 6 5
f 5 2 1
f 7 2 5
f 11 7 5
f 12 11 5
f 5 6 12
f 110 91 120
f 125 88 80
f 80 72 125
f 88 72 80
f 45 53 41
f 41 53 35
f 13 45 41
f 41 35 13
f 57 59 55
f 55 47 49
f 34 47 55
f 34 33 47
f 26 24 34
f 34 24 33
f 92 122 86
f 73 25 61
f 25 23 61
f 18 50 61
f 61 23 18
f 78 82 96
f 78 66 82
f 96 84 78
f 75 66 78
f 54 66 58
f 58 57 54
f 59 57 58
f 67 59 64
f 59 58 64
f 64 58 66
f 12 31 37
f 37 17 12
f 50 17 37
f 73 61 37
f 37 61 50
f 96 95 94
f 94 84 96
f 67 74 77
f 77 78 84
f 77 79 67
f 95 79 77
f 77 74 75
f 110 120 112
f 1 2 3
f 3 2 9
f 3 10 1
f 3 9 10
f 70 122 62
f 62 51 70
f 70 51 30
f 126 44 62
f 62 122 126
f 132 44 126
f 131 91 125
f 131 120 91
f 125 129 131
f 134 120 131
f 131 133 134
f 129 128 131
f 131 128 127
f 131 127 132
f 132 133 131
f 54 57 56
f 56 57 55
f 56 49 54
f 55 49 56
f 47 33 48
f 48 49 47
f 48 33 54
f 54 49 48
f 55 79 71
f 71 34 55
f 71 52 63
f 71 63 26
f 26 34 71
f 30 52 71
f 71 70 30
f 85 92 86
f 85 71 79
f 85 79 95
f 86 70 85
f 70 71 85
f 92 85 109
f 65 66 67
f 67 64 65
f 65 64 66
f 93 94 95
f 84 94 93
f 75 78 76
f 76 77 75
f 78 77 76
f 96 99 97
f 99 98 97
f 97 95 96
f 97 98 95
f 113 115 114
f 114 112 113
f 113 120 115
f 113 112 120
f 86 122 81
f 81 70 86
f 122 70 81
f 115 120 118
f 118 117 115
f 120 117 118
f 114 115 116
f 115 117 116
f 92 109 121
f 121 109 114
f 114 116 121
f 121 116 117
f 121 117 120
f 121 134 132
f 121 120 134
f 110 112 111
f 111 109 110
f 111 112 114
f 114 109 111
f 83 77 84
f 84 93 83
f 95 77 83
f 83 93 95
f 122 92 130
f 92 121 130
f 130 121 132
f 132 126 130
f 130 126 122
f 100 98 99
f 99 101 100
f 95 98 100
f 100 85 95
f 100 109 85
f 109 100 105
f 109 105 106
f 104 99 110
f 104 106 105
f 103 104 105
f 103 100 101
f 103 105 100
f 110 109 108
f 109 106 108
f 99 104 102
f 104 103 102
f 102 101 99
f 102 103 101
f 106 104 107
f 107 108 106
f 107 104 110
f 110 108 107
f 37 82 73
f 28 32 37
f 88 82 37
f 37 53 88
f 37 32 53
f 37 31 28
