v -0.01017722674 0.002886476461 -0.001047367114
v -0.01017718296 0.003942387644 -0.001374244923
v -0.01016712282 0.00429342594 -0.001558523742
v -0.01016185805 0.004241575953 -0.00164424337
v -0.01015329454 0.004624646623 -0.001775038312
v -0.01014920324 0.004564213566 -0.001855994575
v -0.010132025 0.001780429389 -0.001005883678
v -0.01009129453 0.005502418615 -0.002409621608
v -0.01006873697 0.001447211602 0.0003409210476
v -0.01004047599 0.0007048704429 -0.001254366711
v -0.01000682916 0.006243965123 -0.002943302039
v -0.009987873957 0.006117402576 -0.003110005986
v -0.009939934127 0.006702730432 -0.003272405593
v -0.009920119308 0.006825302262 -0.003360179253
v -0.009913504124 -0.0002618766739 -0.001775403507
v -0.00977566652 -0.001053775544 -0.002527632052
v -0.009720372036 0.007856588811 -0.004095974378
v -0.009716001339 -0.001345842495 -0.002938325983
v -0.009715210646 0.007724864408 -0.004271482583
v -0.009703131393 -0.001063575968 0.0002896207443
v -0.009657385759 -0.001614382025 -0.003459556494
v -0.0096284803 -0.0009970959509 0.002958229277
v -0.0095962286 -0.001732113422 -0.00551444618
v -0.009585550986 -0.001900377451 -0.004509054124
v -0.009578085504 -0.001902506105 -0.005514451303
v -0.009542209096 0.008441875689 -0.004689787049
v -0.009399100207 0.009025814943 -0.004690168425
v -0.009348490275 0.004532418679 0.03770057112
v -0.009348264895 0.004590125754 0.03785185143
v -0.009346312843 0.004745479207 0.03814530745
v -0.009344056249 0.004847010132 0.03828944266
v -0.009340910241 0.004952474497 0.03841473162
v -0.009322486818 0.005336787086 0.03874018043
v -0.009318211116 0.009261983447 -0.004764221143
v -0.00931597501 0.003388919402 0.03573413193
v -0.009313186631 0.005474404898 0.03882243484
v -0.009297143668 -0.002777736634 -0.00551444944
v -0.009296303615 0.003109533573 0.03561235964
v -0.009287108667 0.008891899139 -0.005080140196
v -0.00928291399 0.002952188719 0.03556477278
v -0.009270613082 0.005940691102 0.03900555521
v -0.009258588776 0.006045683753 0.0390288271
v -0.009252096526 0.00609925203 0.03903832659
v -0.009228744544 0.002452419372 0.03550132364
v -0.009193697013 0.009594913572 -0.004847039469
v -0.009185014293 0.009543209337 -0.005057089496
v -0.00918037165 0.006594190374 0.03906056657
v -0.009138576686 0.001849588589 0.03550132364
v -0.009092266671 0.009465394542 -0.005236816127
v -0.009084964171 0.006910939701 0.03900283948
v -0.009070552886 -0.003398119938 -0.002836804604
v -0.009020773694 0.001252419315 0.03550132364
v -0.008987559006 -0.003444367088 0.0001891834399
v -0.008931716904 0.009375667199 -0.005352222361
v -0.008920732886 0.007751501165 0.03801949322
v -0.008919660933 -0.003348367987 0.002979858778
v -0.008897802792 0.0007521995576 0.03556489199
v -0.00888797082 0.01029039454 -0.004943250213
v -0.008862045594 0.007848320529 0.03815096989
v -0.00886174012 0.01003640983 -0.005324629601
v -0.008847649209 0.0005729208933 0.03562029824
v -0.008818543516 -0.003928866237 -0.005514449906
v -0.00870664604 0.009950748645 -0.005445226561
v -0.008705593646 0.000121877747 0.03585151583
v -0.008698256686 0.01065457799 -0.004952658433
v -0.00868165493 0.01064542029 -0.005162004847
v -0.008591854014 0.01059587579 -0.005345364567
v -0.008566286415 -0.004484435078 -0.003002487356
v -0.008516874164 0.009858380072 -0.005481356289
v -0.008484982885 -0.004529891536 0.0001183840504
v -0.00847654976 0.008976826444 0.03710170463
v -0.008443671279 0.01051412337 -0.005470177159
v -0.00842179358 -0.004422019236 0.002966024214
v -0.00841485709 0.009048546664 0.03723790124
v -0.008280452341 -0.0007475810708 0.03982536495
v -0.008263817988 0.01041490026 -0.005514448974
v -0.008251769468 -0.004951025825 -0.005514445249
v -0.008236241527 -0.0007475808379 0.04020133242
v -0.008218880743 -0.000876732287 0.03977735713
v -0.00819414854 -0.0007531784941 0.04035085812
v -0.008078310639 -0.0008052508929 0.04056627676
v -0.007956599817 -0.005468455143 -0.003171924734
v -0.007946779951 0.01180066448 -0.004935310688
v -0.007936621085 0.01179288514 -0.005149399862
v -0.007878646255 -0.005515571684 3.272972026e-05
v -0.007856958546 0.01173165627 -0.005338737741
v -0.00783669576 -0.0009375463706 0.04080763832
v -0.00782088656 -0.005398923531 0.002932761097
v -0.007794538978 0.01021603588 0.03632623702
v -0.007745188661 -0.005658303853 -0.005514448043
v -0.0077340547 0.01026096195 0.03646608815
v -0.007727988064 -0.0009955393616 0.04088873789
v -0.007721432019 0.01162744127 -0.005468356889
v -0.007632127963 -0.001049797516 0.04095505551
v -0.007607837208 -0.001960870111 0.03937451541
v -0.007585253567 -0.001833985792 0.03995532542
v -0.007555485237 0.01149982493 -0.005514445715
v -0.007346582599 -0.001220932929 0.04112925753
v -0.007344832644 -0.001796227531 0.04044169188
v -0.00728563359 -0.001258618897 0.0411624983
v -0.007236022037 -0.006327243987 -0.003343161894
v -0.007232907694 -0.001291442662 0.04119025916
v -0.007163232192 -0.0063790977 -6.860424037e-05
v -0.007111489773 -0.006257643458 0.002877874998
v -0.007091862615 -0.006367496215 -0.005514449906
v -0.007024514955 0.01282415353 -0.005027700681
v -0.007014150731 0.01281297486 -0.005136681255
v -0.006989801768 0.01123094466 -0.005514450837
v -0.00694737304 0.01274095103 -0.005332003348
v -0.006939024199 -0.001477344777 0.04133026302
v -0.006840832997 0.01137806103 0.0357134454
v -0.006829979364 0.01261433866 -0.005466498435
v -0.006821575575 0.01139074191 0.03577564657
v -0.006808200385 -0.002892166376 0.03952459991
v -0.006767555606 -0.003080890747 0.03895293549
v -0.006767554674 -0.00260292436 0.04008734226
v -0.006728949491 -0.001611839049 0.04141646996
v -0.00668492727 0.01245789416 -0.005514445715
v -0.006682538893 0.01153061632 0.03564093634
v -0.006573772524 -0.001711211633 0.04147316143
v -0.006568504497 0.01162916049 0.03566239029
v -0.006519238465 0.01167916227 0.03557184339
v -0.006508088671 0.0116791632 0.03565750271
v -0.006432941649 0.009630332701 0.0421186313
v -0.006406608503 -0.007048677187 -0.003512614407
v -0.006340800319 -0.00710833678 -0.0001831587433
v -0.006338374224 -0.006990776863 -0.00551444618
v -0.006295559462 -0.006986213848 0.002803013427
v -0.006205186248 -0.001914156601 0.04160842299
v -0.00617765123 0.01002723817 0.04232768714
v -0.006096177734 -0.003361867508 0.03974218294
v -0.005907325074 -0.003838969162 0.03911351785
v -0.005870227702 0.01044235285 0.04244017974
v -0.005867630243 -0.004404393956 0.03432327881
v -0.005823628511 -0.004045811482 0.03855488822
v -0.005776464008 0.01377467904 -0.005013546906
v -0.005769894458 0.01376428735 -0.005124940537
v -0.005724162329 -0.007391459774 -0.00551444944
v -0.005718733184 0.01368262805 -0.005325765815
v -0.005683994852 -0.002267912729 0.04170133173
v -0.005668120924 0.0106857717 0.04246354848
v -0.005648219958 -0.003796916455 0.03953032568
v -0.00562637113 0.0135351792 -0.005464844871
v -0.005511063617 0.01335104741 -0.005514450371
v -0.005507334601 0.01392050833 -0.004899752792
v -0.005482899491 -0.007638560608 -0.003673983039
v -0.005425651092 -0.007708027028 -0.0003030714288
v -0.005387323443 -0.007588375825 0.002716146177
v -0.005177088547 -0.004595201928 0.03829228505
v -0.005116285291 -0.002578495769 0.04181956127
v -0.005106576718 -0.002529960359 0.04189517349
v -0.005089374725 -0.002470681444 0.04196115211
v -0.005073825363 0.01129761152 0.04238959029
v -0.005024490878 -0.005072007421 0.03479314223
v -0.004926739726 -0.00466521224 0.03869614378
v -0.004838592838 -0.002726814942 0.04185635597
v -0.004820645321 -0.007852472365 -0.005514444783
v -0.004590614233 0.01170541998 0.04222415015
v -0.004480614793 -0.008104388602 -0.003820710815
v -0.00445212191 -0.004761780147 0.03899672627
v -0.004433238879 -0.008184495382 -0.0004199692048
v -0.004402165301 -0.008069348522 0.002625846537
v -0.00432721246 0.01450919639 -0.005003810395
v -0.004323238507 0.01449955627 -0.005116781686
v -0.004287713673 0.01441179775 -0.005321383476
v -0.004222174175 0.01424972061 -0.005463615991
v -0.004139877856 0.01404609531 -0.005514445715
v -0.004107824527 -0.005653529894 0.03523155674
v -0.004093266092 -0.005363500677 0.03786291927
v -0.004054805264 0.01208402403 0.04195863008
v -0.003954280168 -0.00316449441 0.04190132767
v -0.003911810927 -0.003071407788 0.04205247015
v -0.003874567803 -0.00538084982 0.03826294467
v -0.003847395303 -0.008217954077 -0.005514451303
v -0.003787985304 0.01469319407 -0.004888765514
v -0.003628854407 -0.005297236145 0.03864201903
v -0.003598031122 -0.008293533698 -0.005514448509
v -0.003595679998 0.01235667709 0.04166134074
v -0.003415464656 -0.008453653194 -0.003946249373
v -0.003379014088 -0.008544068784 -0.0005254645366
v -0.003355468856 -0.008434353396 0.002540687099
v -0.003351125633 -0.005794084631 0.03758547083
v -0.003155940911 -0.006446153857 0.03175519407
v -0.003132336074 -0.006133222487 0.03561445698
v -0.003065771423 -0.003517157165 0.04190132394
v -0.002919531194 -0.006009405013 0.03743715584
v -0.002909829607 -0.003461154876 0.04205247015
v -0.002751216525 0.001244342537 0.04665841907
v -0.002751175547 0.001395411091 0.04678378999
v -0.002750724321 0.003074132605 0.04778579623
v -0.002750598593 0.003540748963 0.04796240106
v -0.002750385087 0.004339377861 0.04818057641
v -0.002750218147 0.004957838915 0.04828192666
v -0.002750217449 0.004964938387 0.04828275368
v -0.002749952953 0.00594382314 0.04832800105
v -0.002749886364 0.006198424846 0.04831720144
v -0.002749822335 0.006433289964 0.04829896986
v -0.002749724081 0.006796920672 0.04825489596
v -0.00274969195 0.006919394247 0.04823565856
v -0.002749513136 0.007585460786 0.04809125513
v -0.002749190899 0.008784067817 0.0476481989
v -0.00274916226 0.008888952434 0.04759700596
v -0.00274890475 0.009853734635 0.04701429605
v -0.002748784609 0.01029767375 0.04666646942
v -0.002748753643 0.01041257847 0.04656650126
v -0.002748414176 0.01167708077 0.04507548735
v -0.00274819904 0.01247831061 0.04329219088
v -0.002748167841 0.01259712595 0.04282071441
v -0.002748126397 0.01275336836 0.04135660827
v -0.002714120317 0.002609643852 0.04758649319
v -0.0026914638 0.006767604966 0.04828207567
v -0.002680187812 0.01502189226 -0.004998093937
v -0.00267811399 0.01501283236 -0.005111977458
v -0.002657507081 0.01492141746 -0.005318786949
v -0.002642899752 -0.005816548131 0.03824294358
v -0.002618931467 0.014750259 -0.005462887697
v -0.002576808678 0.004506811965 0.04828070849
v -0.002573700622 0.001134862192 0.04665287584
v -0.002570308279 0.01453445107 -0.005514451768
v -0.002522251802 -0.005870859604 0.03819775954
v -0.002459208714 0.01150310412 0.04552263394
v -0.002444380196 -0.008562340401 -0.005514451303
v -0.002436888637 0.01213151123 0.04449978471
v -0.002435713541 0.007288988214 0.04828239605
v -0.002380345482 0.009191150777 0.04759046435
v -0.002303169807 -0.008693850599 -0.004044034984
v -0.002278430387 -0.008793072775 -0.0006111917319
v -0.00226962287 0.004013977479 0.04828041792
v -0.002262620255 -0.008688607253 0.002469240921
v -0.002128676046 -0.006835065782 0.03204495087
v -0.002112994203 0.01297118329 0.04135673866
v -0.002112732036 -0.006495346315 0.03591776639
v -0.002091385657 0.01064528339 0.04665863514
v -0.002080243547 0.007748215925 0.04828267172
v -0.00206446019 -0.003797565587 0.04190132022
v -0.002032904653 -0.006364171859 0.03718041256
v -0.002022142755 0.002128012478 0.0475861989
v -0.001928993035 0.0151473498 -0.004883613437
v -0.001869519008 0.003593068337 0.0482801497
v -0.001643192256 0.009600304998 0.04759071395
v -0.001639609342 0.008126487024 0.04828290269
v -0.001587612554 0.0007116983761 0.04665261507
v -0.001509738504 0.01312146056 0.04135683551
v -0.001480728853 0.01297941431 0.04281992838
v -0.0014730189 -0.003805802437 0.0420524776
v -0.001461297623 0.005696429871 0.04870822653
v -0.001446301932 0.005992103368 0.04870840907
v -0.001416466315 0.005403789226 0.04870804399
v -0.001394816907 0.01256050542 0.04422660917
v -0.001392875332 0.003261314472 0.04827995971
v -0.001372095663 0.006278705783 0.04870858043
v -0.001317415037 -0.0062895515 0.03782450408
v -0.001313645393 0.005126165226 0.04870787263
v -0.001255301177 0.01188083272 0.04552285001
v -0.001247378415 0.001795534743 0.04758600146
v -0.001243543229 -0.0087203281 -0.005514447577
v -0.00124171481 0.006544506643 0.0487087369
v -0.001189972972 -0.006320081186 0.03779519349
v -0.001159442472 -0.008832473308 -0.004107511137
v -0.001157043385 0.004874919541 0.04870773107
v -0.001131849829 0.008408317342 0.0482830666
v -0.001071751467 -0.007081836462 0.03223530948
v -0.001067545614 0.01096651517 0.04665883258
v -0.001063719857 -0.006724162493 0.0361174047
v -0.00106049946 0.006778618786 0.04870887101
v -0.001038548886 -0.003967170604 0.04190133139
v -0.0009530716343 0.004660341889 0.04870760068
v -0.0008757546893 0.01528143045 -0.004995876923
v -0.0008751440328 0.01527262572 -0.005110109691
v -0.0008686517831 0.01517960429 -0.00531778764
v -0.0008592075901 0.003032300156 0.0482798256
v -0.000856395287 0.01500446629 -0.005462610163
v -0.0008409144939 0.01478331909 -0.005514445249
v -0.0008387654088 0.009852693416 0.04759087041
v -0.0008358662599 0.006971458439 0.04870899767
v -0.0007781293243 -0.006659318227 0.03695695847
v -0.0007100822986 0.004491216037 0.04870748892
v -0.0005777520128 0.008582167327 0.04828317091
v -0.0005770132993 0.007115135435 0.0487090759
v -0.0005365261459 0.0004956949851 0.04665248469
v -0.0004380209721 0.004374465439 0.04870741814
v -0.0004215450317 0.001625822973 0.04758589342
v -0.0002945346059 0.007203761954 0.04870913923
v -0.0002903653949 0.00291540008 0.04827975109
v -0.0001480276842 0.004314870108 0.04870738834
v -2.67608641e-07 -0.004023949616 0.04190132394
v -2.141463229e-09 0.01529322192 -0.004882403649
v -3.289608306e-10 0.005770451855 0.04885237664
v -3.162627935e-10 -0.007226291113 0.03142219409
v -2.433061806e-10 0.009937989525 0.04759091511
v -2.318846363e-10 0.007233713288 0.04870915413
v 1.338611723e-10 0.01270234305 0.04422670603
v 2.512132727e-10 -0.006461501587 0.03765426204
v 2.673146152e-10 -0.003921633586 0.0420524776
v 3.321883603e-10 0.01200848352 0.04552293196
v 3.413335726e-10 -0.008952434175 -0.002593800193
v 4.843547231e-10 0.01327498537 0.0413569361
v 5.161509554e-10 -0.008984684013 -0.0006898278371
v 5.987338405e-10 -0.006623095367 0.0372973904
v 6.840799594e-10 -0.008885746822 0.002401795471
v 7.22348015e-10 -0.00671226019 0.0369159244
v 1.007312567e-09 0.008640917949 0.04828321561
v 1.057387289e-09 -0.008926713839 0.001656428445
v 1.075462053e-09 0.01107507478 0.04665889591
v 1.154120688e-09 -0.008772474714 -0.005514444318
v 1.297413288e-09 0.01312998775 0.04282002151
v 0.0001480281935 0.004314869177 0.04870739207
v 0.0002903655113 0.002915399848 0.04827975109
v 0.0002945346059 0.007203763351 0.04870913178
v 0.0004215465451 0.001625821926 0.04758589715
v 0.0004380210303 0.004374464508 0.04870742559
v 0.0005365260295 0.0004956942284 0.04665249214
v 0.0005770119606 0.007115134969 0.04870908707
v 0.0005777516053 0.008582167327 0.04828317091
v 0.0007100823568 0.004491216037 0.04870749637
v 0.0008358656196 0.006971459836 0.04870900139
v 0.0008387652924 0.009852694348 0.04759087041
v 0.0008409931324 0.01478330698 -0.005514451303
v 0.0008564754971 0.01500445511 -0.005462614354
v 0.0008592082304 0.003032300388 0.04827981442
v 0.0008687338559 0.01517959125 -0.00531778438
v 0.0008752276772 0.01527261361 -0.005110111553
v 0.0008758393233 0.01528141741 -0.004995877389
v 0.0009530716925 0.004660342354 0.04870758951
v 0.0009907914791 -0.006362737156 0.03775323182
v 0.0009912534151 -0.008739592507 -0.005514445715
v 0.001038018148 -0.00396722788 0.04190132022
v 0.001060500159 0.006778618786 0.04870887846
v 0.001063719857 -0.006724161562 0.03611739725
v 0.001067545265 0.01096651703 0.0466588214
v 0.00107175298 -0.007081836462 0.03223531321
v 0.00113184948 0.008408317342 0.04828307033
v 0.001157042338 0.004874920473 0.04870771617
v 0.001159443404 -0.008832473308 -0.00410750974
v 0.001241715974 0.006544505246 0.0487087369
v 0.001247378066 0.001795535092 0.04758599773
v 0.001255299663 0.01188083179 0.04552285001
v 0.001310249907 -0.006291900296 0.03782183304
v 0.001313645742 0.005126163829 0.04870788381
v 0.001341545139 -0.006557416171 0.03703502938
v 0.001372096362 0.006278708111 0.04870856926
v 0.001392875565 0.003261315404 0.04827994853
v 0.001394817024 0.01256050356 0.04422662407
v 0.001416466315 0.005403790623 0.04870804027
v 0.001446303213 0.005992104299 0.0487083979
v 0.001461296459 0.005696430337 0.04870821536
v 0.001473018667 -0.003805801738 0.0420524776
v 0.001480729203 0.01297941338 0.04281992465
v 0.001509738155 0.0131214615 0.04135682806
v 0.001574536902 -0.006500442512 0.03707823902
v 0.001587611041 0.0007116975612 0.04665262252
v 0.001639609225 0.008126487024 0.04828290269
v 0.001643191557 0.009600303136 0.0475907214
v 0.001869518426 0.003593068104 0.04828016087
v 0.001928984886 0.01514733583 -0.004883611109
v 0.002022142755 0.002128012711 0.04758620262
v 0.00206393702 -0.003797680838 0.04190132022
v 0.002080244012 0.007748215459 0.04828267172
v 0.002091386355 0.01064528525 0.04665862769
v 0.002112734132 -0.006495345384 0.03591776267
v 0.002112993971 0.01297118422 0.04135674611
v 0.002120647347 -0.006334464066 0.0372024402
v 0.002128676279 -0.006835065782 0.0320449546
v 0.002161165467 -0.006021026988 0.03806876019
v 0.002262620721 -0.008688606322 0.002469239291
v 0.002269623568 0.004013977945 0.04828041792
v 0.002278431086 -0.008793072775 -0.000611191208
v 0.002294205129 -0.008588438854 -0.005514448509
v 0.002303170506 -0.008693849668 -0.004044036381
v 0.002380345482 0.009191150777 0.04759046808
v 0.002435713774 0.007288987748 0.04828239605
v 0.00243891892 0.01213085931 0.04449952394
v 0.002459209878 0.01150310412 0.04552262276
v 0.002568264026 0.01453489158 -0.005514451303
v 0.002573700389 0.001134862076 0.04665287957
v 0.002576808212 0.004506812431 0.04828070477
v 0.002616846468 0.01475071069 -0.005462889094
v 0.002655390417 0.01492187846 -0.005318786949
v 0.00267598033 0.01501329429 -0.005111979786
v 0.002678052057 0.01502235234 -0.00499808928
v 0.0026914638 0.006767606363 0.04828207195
v 0.002714121947 0.002609643387 0.04758649692
v 0.002720562741 -0.005989415105 0.03782785311
v 0.002748783911 0.001242865343 0.04665841535
v 0.002748824423 0.001393932849 0.04678380489
v 0.002749274252 0.003072655527 0.0477857925
v 0.002749401145 0.003541422542 0.04796312004
v 0.002749615582 0.004339956213 0.04818101972
v 0.002749782288 0.004956361838 0.04828192666
v 0.002749782987 0.00496346131 0.04828274995
v 0.00275004562 0.005942346994 0.04832800105
v 0.002750115003 0.006198502611 0.04831710458
v 0.002750178101 0.006431811024 0.04829896614
v 0.002750276821 0.006797047798 0.04825465381
v 0.002750308486 0.00691791717 0.04823565483
v 0.00275072665 0.008473190479 0.04778691381
v 0.002750807675 0.008782590739 0.04764819518
v 0.002750836313 0.008887475356 0.04759700224
v 0.002751097316 0.00985647738 0.04701125622
v 0.002751215827 0.01029619668 0.0466664657
v 0.002751246328 0.01041109953 0.04656651244
v 0.00275158626 0.01167560369 0.04507548362
v 0.002751801396 0.01247683354 0.04329218715
v 0.002751832595 0.01259564888 0.04282071069
v 0.002751874039 0.01275189128 0.04135660455
v 0.002824730938 -0.006053090561 0.03740632534
v 0.002909829374 -0.003461154876 0.04205248132
v 0.003065265249 -0.003517328994 0.04190133139
v 0.003132337704 -0.006133222021 0.03561446071
v 0.003155941842 -0.006446152925 0.03175519407
v 0.003355469787 -0.008434351534 0.002540684771
v 0.003379014786 -0.008544067852 -0.0005254624411
v 0.003415466985 -0.008453652263 -0.003946247511
v 0.003523742082 -0.008314762264 -0.005514446646
v 0.00359728164 0.01235580444 0.04165991768
v 0.003646951634 -0.00528719835 0.03864851221
v 0.003787969006 0.01469317731 -0.004888759926
v 0.003853650298 -0.005392374936 0.03825772926
v 0.003900356125 -0.00820102077 -0.005514444783
v 0.003911810927 -0.003071407788 0.04205248132
v 0.003954280633 -0.00316449278 0.04190132767
v 0.004053472541 0.01208488271 0.04195591807
v 0.004096004181 0.01205734443 0.04198006541
v 0.004107824992 -0.005653528497 0.03523155674
v 0.004129081964 0.01405044179 -0.005514450371
v 0.004211128689 0.01425418071 -0.005463609006
v 0.004276468419 0.0144163454 -0.005321360659
v 0.004311880562 0.01450413838 -0.005116736051
v 0.004315840546 0.01451377198 -0.005003755912
v 0.004402165301 -0.00806934759 0.002625845838
v 0.00443323981 -0.008184494451 -0.0004199640534
v 0.00448061619 -0.008104386739 -0.003820711281
v 0.004545114469 -0.005063612945 0.03804045171
v 0.004592888989 0.01170365885 0.0422237739
v 0.004836817738 -0.002723606303 0.04185387865
v 0.004901011474 -0.004683374427 0.03868879005
v 0.004932122305 -0.007802598644 -0.005514444783
v 0.004999300465 -0.002725146478 0.04170133173
v 0.005024490412 -0.00507200649 0.03479314595
v 0.005076792091 0.01129488461 0.04238958284
v 0.005088389385 -0.002464305144 0.04195775464
v 0.005334708374 -0.004075803328 0.03938562796
v 0.005387323909 -0.007588373963 0.002716144314
v 0.005425652489 -0.007708025165 -0.0003030757944
v 0.005482901353 -0.007638559211 -0.003673980711
v 0.005487075076 0.01336593647 -0.005514445249
v 0.005507306196 0.01392051391 -0.004899754655
v 0.005601780955 0.0135505069 -0.005464814603
v 0.005649039522 -0.002136222553 0.04184113815
v 0.00564926723 -0.003796865931 0.03952946886
v 0.005668121856 0.0106857717 0.04246364906
v 0.005683995783 -0.002267911332 0.04170133173
v 0.005693650804 0.01369828545 -0.005325668957
v 0.005744514056 0.01378008723 -0.005124753341
v 0.005751028657 0.01379046403 -0.005013323389
v 0.00582663808 -0.004043073393 0.03855611756
v 0.005867629312 -0.004404392093 0.03432327881
v 0.005872664042 -0.007301915903 -0.005514450371
v 0.005877741612 -0.003865278559 0.03910413012
v 0.005879371427 0.01043083146 0.04243884236
v 0.006089261733 -0.003795539727 0.03866502643
v 0.006178574171 0.01002589427 0.04232846573
v 0.006205249578 -0.001913071843 0.04160853475
v 0.006295560859 -0.006986212451 0.002803018549
v 0.006340801716 -0.007108334918 -0.0001831553236
v 0.006405536085 -0.006941734347 -0.005514447577
v 0.006406608969 -0.00704867579 -0.003512609284
v 0.006500652526 0.01167916507 0.03568156064
v 0.006519234739 0.011679166 0.03557185084
v 0.006568477955 0.01162918191 0.03566238657
v 0.006586525589 -0.001703217509 0.04146624729
v 0.006586984731 0.01161856856 0.03559985012
v 0.006684922148 0.01245789509 -0.00551444944
v 0.006766981445 -0.002602765569 0.04008801281
v 0.006767552812 0.01149415411 -0.005514449906
v 0.006767555606 -0.003080888651 0.03895293921
v 0.00677629374 -0.002928323811 0.03951274604
v 0.006786908489 0.01139756385 0.0358565785
v 0.006830126047 0.01261450443 -0.005466561764
v 0.006840827875 0.01137806475 0.03571344167
v 0.006947445218 0.01274103858 -0.005332037807
v 0.006947448943 -0.001472018892 0.04132563248
v 0.007014530711 0.0128133921 -0.005136747379
v 0.00702472683 0.01282438915 -0.005027708132
v 0.007111490704 -0.006257641129 0.00287787593
v 0.007146021817 -0.006315645762 -0.005514447577
v 0.007163233124 -0.006379095372 -6.860474241e-05
v 0.007236022037 -0.006327242125 -0.003343157237
v 0.007267554756 -0.001259368146 -0.005514451303
v 0.007315719035 -0.001239720848 0.04114811867
v 0.007343990263 -0.001796167926 0.04044279084
v 0.007360754535 -0.001211875817 0.04112342
v 0.007452832069 0.01068795659 0.03606410325
v 0.007554206531 -0.001880495693 0.03994002566
v 0.007555476855 0.01149982493 -0.005514445249
v 0.007607842796 -0.001960873371 0.03937451541
v 0.007639338262 -0.001044766977 0.04095236212
v 0.007721425034 0.0116274422 -0.005468359217
v 0.007728311233 -0.0009944230551 0.04089029878
v 0.007795755286 -0.005594692659 -0.005514445715
v 0.007811694406 0.01014348958 0.03653441742
v 0.00782088656 -0.005398921203 0.002932757838
v 0.007836265489 -0.0009375592927 0.04080819339
v 0.007856952958 0.01173165813 -0.005338739604
v 0.007872498594 0.01009586081 0.03639489785
v 0.007878647186 -0.005515569355 3.273033144e-05
v 0.007936613634 0.01179288421 -0.005149396136
v 0.007946770638 0.01180066261 -0.004935309291
v 0.007956599817 -0.005468452815 -0.003171924036
v 0.008086052723 -0.0008009203011 0.04055574164
v 0.00819414854 -0.0007531768642 0.0403508693
v 0.008218880743 -0.0008767315303 0.03977737203
v 0.008236241527 -0.0007475775201 0.04020132497
v 0.008263814263 0.01041490212 -0.005514447577
v 0.008280452341 -0.0007475782768 0.03982536122
v 0.008307543583 -0.004862632137 -0.005514448974
v 0.00842179358 -0.004422016907 0.002966025611
v 0.008443667553 0.01051412616 -0.005470176693
v 0.008482024074 0.009941017255 -0.005490362644
v 0.008484982885 -0.004529889673 0.0001183887871
v 0.008518168703 0.008813035674 0.03740461543
v 0.008566286415 -0.004484432284 -0.003002489218
v 0.008579526097 0.008736288175 0.03726921603
v 0.008591852151 0.01059587952 -0.005345360842
v 0.008681653067 0.01064542215 -0.005162001122
v 0.008698252961 0.01065458078 -0.004952660762
v 0.00870077312 0.0001078330461 0.03586123139
v 0.008807345293 -0.003952094819 -0.005514448974
v 0.008822378702 0.0004869589175 0.03565360606
v 0.008827183396 0.00965513289 -0.005405844189
v 0.008842678741 0.0005557986442 0.03562656417
v 0.008892368525 0.0007321888697 0.03557017073
v 0.008919660933 -0.003348365659 0.002979862038
v 0.008955425583 0.0075118565 0.03843969479
v 0.008985261433 0.009742869996 -0.005287799984
v 0.008987559937 -0.003444364527 0.0001891848515
v 0.009012713097 0.007408314385 0.03830990195
v 0.009020771831 0.001252422226 0.03550132737
v 0.009070551954 -0.003398116911 -0.002836808097
v 0.009077386931 0.009813345037 -0.005106131546
v 0.009127228521 0.006568024866 0.03940801695
v 0.009138574824 0.001849590917 0.03550132364
v 0.009193109348 0.009180869907 -0.005167937372
v 0.009216804989 0.006366529036 0.03928953782
v 0.009228742681 0.002452421933 0.03550132737
v 0.009229021147 -0.002963647712 -0.005514450371
v 0.009244295768 0.006170556881 0.03949409351
v 0.009253892116 0.006094917189 0.03950087726
v 0.009279539809 0.009369079955 -0.00479354756
v 0.009282912128 0.002952191513 0.03556477651
v 0.009305009618 0.005599937402 0.03947170824
v 0.00931667909 0.005449455231 0.03943784535
v 0.009342322126 0.004973875359 0.0392463766
v 0.009346886538 0.004827984143 0.03915721178
v 0.00935180299 0.00445242133 0.03882953152
v 0.009366667829 0.008625999093 -0.004982509185
v 0.00946105551 0.008727074601 -0.004812827334
v 0.009466747753 0.008814045228 -0.004612245597
v 0.009519292042 -0.001491455361 -0.005514450837
v 0.009578084573 -0.001902503427 -0.005514448043
v 0.009583904408 -0.001647285768 -0.005514447577
v 0.009585552849 -0.001900362782 -0.004508968908
v 0.0096284803 -0.0009970931569 0.00295822788
v 0.009637661278 0.00820449926 -0.004318948369
v 0.009657390416 -0.001614344772 -0.003459464293
v 0.009703130461 -0.001063573407 0.0002896248479
v 0.009715209715 0.007724867202 -0.004271483049
v 0.009716000408 -0.001345839584 -0.00293832738
v 0.009720369242 0.007856591605 -0.00409597205
v 0.009775673039 -0.001053726999 -0.002527551027
v 0.009913510643 -0.0002618292638 -0.001775350771
v 0.009922193363 0.006812694483 -0.003351149149
v 0.009939930402 0.006702733226 -0.003272401402
v 0.009987873957 0.006117405836 -0.003110012505
v 0.0100068273 0.006243968848 -0.002943305299
v 0.01004047878 0.0007049056003 -0.001254332601
v 0.01006873604 0.001447214745 0.0003409205528
v 0.01009128988 0.005502421409 -0.002409618814
v 0.01013202406 0.001780449296 -0.00100586738
v 0.01015329268 0.004624649417 -0.001775034587
v 0.01016183943 0.004241520073 -0.001644346165
v 0.01016712002 0.0042934292 -0.001558526186
v 0.01017094404 0.003899401519 -0.001464067842
v 0.0101771811 0.003942390904 -0.001374246553
v 0.01017722487 0.002886485774 -0.001047361176
f 23 8 12
f 574 578 561
f 434 440 468
f 159 161 146
f 73 70 88
f 88 95 73
f 115 95 88
f 262 229 289
f 561 514 519
f 519 514 518
f 136 163 164
f 164 214 165
f 4 23 1
f 2 4 1
f 3 4 2
f 13 12 11
f 11 12 8
f 11 47 13
f 358 371 396
f 402 440 434
f 1 23 7
f 575 574 573
f 578 574 575
f 552 510 511
f 551 510 552
f 580 578 551
f 551 552 580
f 580 552 582
f 561 578 580
f 478 440 493
f 537 544 569
f 523 537 558
f 505 521 523
f 219 222 174
f 489 222 219
f 458 222 489
f 259 296 298
f 259 256 305
f 305 296 259
f 229 262 181
f 159 174 179
f 147 146 161
f 115 88 104
f 115 104 135
f 300 365 289
f 300 303 365
f 289 229 300
f 229 303 300
f 305 256 326
f 368 222 458
f 458 414 368
f 256 222 368
f 368 326 256
f 437 414 458
f 458 445 437
f 465 464 443
f 546 539 528
f 546 516 458
f 528 516 546
f 467 488 465
f 467 458 466
f 467 445 458
f 509 488 500
f 500 516 509
f 509 516 522
f 522 516 528
f 522 539 520
f 528 539 522
f 518 514 495
f 17 47 55
f 163 136 145
f 216 165 214
f 214 272 216
f 273 219 216
f 216 272 273
f 270 272 214
f 41 5 36
f 8 5 41
f 55 47 50
f 32 2 1
f 23 4 6
f 6 8 23
f 6 5 8
f 6 4 3
f 3 5 6
f 352 358 396
f 10 7 23
f 25 10 23
f 15 10 25
f 25 108 219
f 219 174 25
f 73 95 79
f 585 583 584
f 561 580 581
f 581 580 582
f 582 584 581
f 581 584 583
f 470 468 440
f 440 478 470
f 81 191 192
f 87 191 81
f 81 96 87
f 172 242 218
f 187 242 172
f 255 242 280
f 255 218 242
f 547 575 573
f 573 544 547
f 547 462 396
f 573 574 572
f 572 544 573
f 572 569 544
f 561 557 567
f 569 572 567
f 567 574 561
f 567 572 574
f 537 569 564
f 564 558 537
f 557 558 564
f 564 567 557
f 569 567 564
f 501 505 493
f 521 505 501
f 555 515 542
f 555 579 585
f 539 546 562
f 230 181 262
f 162 230 183
f 181 230 162
f 161 181 162
f 162 147 161
f 177 174 222
f 222 179 177
f 177 179 174
f 226 179 222
f 226 222 256
f 256 259 226
f 180 181 161
f 180 161 159
f 159 179 180
f 229 181 180
f 149 135 154
f 149 168 169
f 154 168 149
f 154 135 134
f 134 135 104
f 128 168 154
f 154 134 128
f 128 134 104
f 298 296 334
f 326 368 334
f 334 296 305
f 305 326 334
f 411 431 430
f 298 334 367
f 365 303 367
f 367 303 298
f 444 431 445
f 444 467 465
f 445 467 444
f 465 443 444
f 430 431 444
f 444 443 430
f 414 437 419
f 445 431 432
f 432 437 445
f 432 419 437
f 457 464 485
f 517 502 520
f 517 515 512
f 533 515 517
f 512 515 513
f 515 555 513
f 476 485 502
f 439 464 457
f 433 409 424
f 424 439 433
f 424 443 464
f 464 439 424
f 406 433 418
f 406 409 433
f 409 406 360
f 486 500 488
f 486 467 466
f 488 467 486
f 516 500 486
f 466 458 486
f 458 516 486
f 530 519 518
f 518 535 530
f 561 519 530
f 530 535 561
f 561 535 543
f 526 505 523
f 458 489 559
f 559 546 458
f 559 475 514
f 559 514 561
f 518 495 498
f 480 478 493
f 480 470 478
f 23 12 19
f 19 26 23
f 19 17 26
f 59 71 55
f 55 50 59
f 83 111 106
f 89 111 83
f 106 136 137
f 137 136 164
f 164 165 137
f 165 139 137
f 219 108 144
f 319 270 321
f 272 270 319
f 378 319 321
f 377 319 378
f 321 270 322
f 47 11 43
f 43 11 8
f 91 133 141
f 47 200 124
f 199 200 47
f 47 43 199
f 2 32 33
f 3 2 33
f 36 5 33
f 33 5 3
f 521 462 534
f 534 537 523
f 523 521 534
f 288 339 344
f 390 510 551
f 390 344 339
f 371 358 328
f 328 335 371
f 288 335 328
f 373 401 402
f 359 401 373
f 330 373 337
f 359 373 330
f 163 123 209
f 163 145 122
f 122 123 163
f 122 145 136
f 122 136 106
f 231 212 175
f 163 209 175
f 175 209 231
f 164 163 175
f 243 212 231
f 231 244 243
f 44 15 48
f 44 10 15
f 62 51 37
f 37 25 62
f 64 61 22
f 22 61 57
f 57 52 22
f 64 22 56
f 78 33 32
f 95 96 78
f 78 79 95
f 484 480 493
f 435 420 421
f 312 280 294
f 193 194 81
f 81 192 193
f 191 87 190
f 239 191 190
f 92 190 87
f 294 266 286
f 286 327 294
f 235 266 245
f 280 242 245
f 294 280 245
f 245 266 294
f 245 187 235
f 242 187 245
f 188 152 172
f 172 218 188
f 189 152 188
f 188 218 189
f 172 156 171
f 171 156 142
f 235 187 185
f 185 187 172
f 172 171 185
f 310 336 308
f 578 575 548
f 575 547 548
f 551 578 548
f 460 462 521
f 521 501 460
f 545 555 542
f 542 571 545
f 545 571 576
f 576 579 577
f 577 555 576
f 579 555 577
f 553 552 511
f 582 552 553
f 553 584 582
f 520 539 536
f 536 517 520
f 533 517 536
f 560 562 546
f 576 571 560
f 560 559 561
f 546 559 560
f 560 579 576
f 585 579 560
f 560 583 585
f 561 581 560
f 560 581 583
f 157 174 159
f 157 138 174
f 159 146 157
f 146 138 157
f 232 230 262
f 229 180 227
f 179 226 227
f 227 180 179
f 227 303 229
f 298 303 227
f 227 259 298
f 227 226 259
f 126 101 125
f 125 147 126
f 146 147 125
f 127 138 125
f 125 138 146
f 103 101 126
f 126 128 103
f 103 128 104
f 105 138 127
f 127 125 105
f 105 125 101
f 174 138 105
f 62 25 105
f 105 25 174
f 135 149 132
f 142 131 132
f 115 135 132
f 168 128 148
f 183 168 148
f 148 162 183
f 147 162 148
f 126 147 148
f 148 128 126
f 142 156 150
f 150 131 142
f 369 334 368
f 369 367 334
f 412 432 431
f 431 411 412
f 412 411 365
f 365 367 412
f 487 464 465
f 487 485 464
f 465 488 487
f 487 488 509
f 494 513 511
f 511 510 494
f 433 439 456
f 456 439 457
f 457 485 456
f 443 424 410
f 410 424 409
f 430 443 410
f 556 557 561
f 561 543 556
f 556 543 557
f 557 543 540
f 540 543 535
f 455 428 429
f 479 481 504
f 504 498 479
f 374 377 426
f 426 425 374
f 374 489 219
f 374 559 489
f 475 559 374
f 17 19 14
f 13 47 14
f 47 17 14
f 14 12 13
f 14 19 12
f 71 59 74
f 74 133 91
f 91 89 74
f 89 71 74
f 23 26 39
f 39 49 23
f 84 83 106
f 55 71 34
f 46 58 66
f 46 39 26
f 49 39 46
f 65 71 89
f 65 58 71
f 66 58 65
f 89 83 65
f 65 84 66
f 83 84 65
f 143 109 139
f 427 378 428
f 427 453 426
f 426 377 427
f 377 378 427
f 380 355 349
f 428 378 379
f 379 355 380
f 379 322 355
f 379 378 321
f 321 322 379
f 8 41 42
f 42 43 8
f 42 41 81
f 206 153 141
f 205 141 133
f 205 206 141
f 201 124 200
f 198 43 197
f 198 199 43
f 309 314 302
f 200 199 224
f 29 30 1
f 1 7 29
f 29 7 28
f 48 30 29
f 29 44 48
f 31 32 1
f 1 30 31
f 31 78 32
f 30 78 31
f 541 544 537
f 537 534 541
f 541 547 544
f 462 547 541
f 541 534 462
f 462 460 399
f 510 388 387
f 389 388 510
f 510 390 389
f 388 389 376
f 376 390 339
f 376 389 390
f 386 342 356
f 356 375 385
f 441 449 385
f 441 420 435
f 358 352 316
f 316 328 358
f 288 328 316
f 372 343 337
f 337 373 372
f 372 373 402
f 434 468 423
f 468 422 423
f 423 422 404
f 415 422 468
f 404 422 415
f 314 332 317
f 290 302 317
f 317 302 314
f 290 317 304
f 304 317 330
f 304 330 337
f 223 254 249
f 370 352 396
f 123 122 121
f 121 153 123
f 164 175 213
f 213 175 212
f 213 214 164
f 213 270 214
f 38 29 28
f 15 25 16
f 20 52 48
f 20 22 52
f 48 15 20
f 15 16 20
f 20 56 22
f 73 79 75
f 75 56 73
f 64 56 75
f 79 78 75
f 75 61 64
f 57 61 75
f 75 52 57
f 48 52 75
f 75 30 48
f 75 78 30
f 53 70 73
f 73 56 53
f 53 51 70
f 56 20 53
f 36 33 80
f 33 78 80
f 81 41 80
f 80 41 36
f 80 96 81
f 80 78 96
f 481 453 483
f 470 480 472
f 480 484 472
f 508 484 493
f 493 505 508
f 505 526 508
f 408 420 407
f 408 421 420
f 407 357 408
f 364 357 327
f 351 356 336
f 375 356 351
f 336 310 351
f 351 310 312
f 407 420 351
f 420 375 351
f 288 265 257
f 257 251 288
f 257 224 251
f 247 246 288
f 288 251 247
f 99 87 96
f 99 92 87
f 169 168 182
f 215 220 235
f 235 185 215
f 215 185 176
f 186 220 215
f 252 266 235
f 235 220 252
f 250 267 239
f 239 190 250
f 282 255 280
f 280 312 282
f 312 310 282
f 551 548 393
f 451 501 493
f 451 460 501
f 493 440 451
f 440 402 451
f 402 401 451
f 401 460 451
f 576 555 550
f 550 545 576
f 555 545 550
f 511 513 554
f 554 553 511
f 554 513 555
f 554 555 585
f 585 584 554
f 584 553 554
f 527 515 533
f 533 563 527
f 533 536 566
f 566 563 533
f 566 571 542
f 264 232 262
f 264 262 289
f 184 232 186
f 186 182 184
f 183 230 184
f 230 232 184
f 184 168 183
f 184 182 168
f 85 104 88
f 85 103 104
f 85 88 70
f 155 132 149
f 155 149 169
f 142 132 155
f 114 132 131
f 115 132 114
f 114 95 115
f 114 96 95
f 151 150 156
f 172 152 151
f 151 156 172
f 432 412 413
f 414 419 413
f 419 432 413
f 413 368 414
f 413 369 368
f 367 369 413
f 413 412 367
f 506 487 509
f 520 502 506
f 502 485 506
f 485 487 506
f 506 522 520
f 509 522 506
f 512 513 496
f 513 494 496
f 496 517 512
f 502 517 496
f 496 476 502
f 435 421 442
f 442 450 435
f 449 441 452
f 452 441 435
f 494 491 474
f 474 491 471
f 474 452 450
f 494 474 477
f 476 496 477
f 477 496 494
f 331 329 289
f 289 365 331
f 360 329 331
f 365 411 331
f 289 329 301
f 299 276 301
f 301 264 289
f 276 264 301
f 362 360 406
f 549 558 557
f 557 540 549
f 523 558 549
f 549 526 523
f 549 540 526
f 455 429 447
f 526 540 525
f 425 446 473
f 473 495 514
f 473 446 479
f 514 475 473
f 479 498 473
f 473 498 495
f 475 374 473
f 473 374 425
f 479 446 448
f 448 481 479
f 448 453 481
f 426 453 448
f 448 425 426
f 448 446 425
f 318 319 377
f 377 374 318
f 273 272 318
f 272 319 318
f 318 219 273
f 318 374 219
f 133 74 130
f 130 74 59
f 130 59 50
f 124 201 130
f 130 50 47
f 47 124 130
f 130 203 133
f 86 84 109
f 93 67 86
f 86 67 66
f 66 84 86
f 107 84 106
f 109 84 107
f 106 137 107
f 107 137 139
f 139 109 107
f 26 17 27
f 27 46 26
f 34 46 27
f 27 17 55
f 55 34 27
f 49 46 60
f 60 63 49
f 66 67 60
f 60 46 66
f 58 46 45
f 45 46 34
f 71 58 45
f 45 34 71
f 109 143 112
f 93 86 112
f 112 86 109
f 112 143 144
f 166 216 219
f 165 216 166
f 166 139 165
f 166 143 139
f 380 349 361
f 287 268 297
f 297 268 243
f 297 243 244
f 417 429 428
f 428 379 417
f 417 379 380
f 380 361 417
f 43 42 195
f 194 246 195
f 81 194 195
f 195 42 81
f 246 247 195
f 141 153 113
f 91 141 113
f 153 121 113
f 113 89 91
f 113 111 89
f 133 203 204
f 204 205 133
f 206 205 221
f 221 254 223
f 223 206 221
f 263 254 221
f 234 201 200
f 200 224 234
f 234 257 265
f 224 257 234
f 225 240 203
f 274 302 290
f 263 240 274
f 274 240 261
f 290 304 274
f 274 304 263
f 251 224 211
f 197 251 211
f 211 198 197
f 199 198 211
f 211 224 199
f 261 279 283
f 283 279 288
f 400 460 401
f 400 399 460
f 400 401 359
f 359 399 400
f 354 342 386
f 386 387 354
f 354 315 342
f 382 356 385
f 386 356 382
f 344 390 346
f 288 344 346
f 346 345 288
f 342 315 320
f 308 336 320
f 336 356 320
f 320 356 342
f 384 375 420
f 420 441 384
f 385 375 384
f 384 441 385
f 352 332 313
f 313 316 352
f 313 314 309
f 313 332 314
f 313 309 288
f 288 316 313
f 343 372 403
f 434 423 403
f 403 423 404
f 403 402 434
f 403 372 402
f 337 343 295
f 295 304 337
f 295 254 263
f 263 304 295
f 353 317 332
f 353 332 352
f 352 370 353
f 359 330 353
f 330 317 353
f 353 399 359
f 353 370 399
f 399 370 398
f 462 399 398
f 119 121 122
f 106 111 119
f 119 122 106
f 111 113 119
f 119 113 121
f 212 243 238
f 243 268 238
f 238 213 212
f 28 7 35
f 35 38 28
f 7 38 35
f 44 29 40
f 29 38 40
f 10 44 40
f 7 10 9
f 9 38 7
f 10 40 9
f 9 40 38
f 51 53 21
f 21 53 20
f 454 483 453
f 454 428 455
f 455 484 454
f 484 483 454
f 454 427 428
f 453 427 454
f 383 406 418
f 383 362 406
f 416 408 357
f 357 364 416
f 421 408 416
f 416 383 418
f 364 383 416
f 416 442 421
f 347 351 312
f 327 357 347
f 347 357 407
f 407 351 347
f 294 327 347
f 347 312 294
f 248 246 194
f 194 253 248
f 288 246 248
f 248 253 288
f 217 193 192
f 194 193 217
f 217 253 194
f 285 307 288
f 288 281 285
f 285 281 271
f 288 267 277
f 277 281 288
f 267 250 277
f 271 281 277
f 277 250 271
f 258 276 299
f 258 252 276
f 299 293 258
f 266 252 258
f 258 286 266
f 258 293 286
f 236 220 186
f 236 252 220
f 276 252 236
f 186 232 236
f 236 264 276
f 232 264 236
f 255 271 237
f 271 250 237
f 237 210 189
f 237 190 210
f 237 250 190
f 189 218 237
f 218 255 237
f 284 271 255
f 255 282 284
f 284 285 271
f 284 310 308
f 284 282 310
f 308 307 284
f 307 285 284
f 391 390 551
f 391 346 390
f 345 346 391
f 395 547 396
f 395 548 547
f 396 371 395
f 341 335 288
f 288 345 341
f 571 566 570
f 570 560 571
f 68 85 70
f 62 77 68
f 70 51 68
f 68 51 62
f 90 105 101
f 62 105 90
f 90 77 62
f 173 155 169
f 169 182 173
f 173 215 176
f 173 182 186
f 186 215 173
f 176 185 160
f 160 185 171
f 160 173 176
f 155 173 160
f 160 171 142
f 142 155 160
f 116 114 131
f 116 99 96
f 96 114 116
f 99 116 117
f 450 442 459
f 459 474 450
f 459 477 474
f 435 450 438
f 438 452 435
f 450 452 438
f 471 491 482
f 385 471 482
f 482 382 385
f 503 494 510
f 503 491 494
f 510 387 503
f 503 387 386
f 463 474 471
f 452 474 463
f 449 452 463
f 463 471 385
f 385 449 463
f 363 331 411
f 360 331 363
f 363 411 430
f 430 410 363
f 409 360 363
f 363 410 409
f 338 383 364
f 338 364 327
f 507 525 504
f 507 508 526
f 526 525 507
f 507 504 481
f 481 483 507
f 507 483 484
f 484 508 507
f 504 525 524
f 518 498 524
f 498 504 524
f 524 535 518
f 524 540 535
f 524 525 540
f 203 130 202
f 202 130 201
f 202 225 203
f 201 225 202
f 23 49 54
f 54 63 23
f 49 63 54
f 23 63 69
f 144 97 118
f 118 112 144
f 118 97 93
f 93 112 118
f 144 143 167
f 143 166 167
f 219 144 167
f 167 166 219
f 405 415 468
f 429 417 405
f 405 417 361
f 404 415 405
f 405 361 404
f 323 297 349
f 355 322 323
f 323 349 355
f 323 322 287
f 287 297 323
f 244 249 292
f 292 295 343
f 292 249 254
f 254 295 292
f 349 297 348
f 348 403 404
f 343 403 348
f 404 361 348
f 348 361 349
f 197 43 196
f 43 195 196
f 196 195 247
f 196 251 197
f 196 247 251
f 178 209 123
f 123 170 178
f 123 153 158
f 158 170 123
f 153 206 158
f 205 204 233
f 263 221 233
f 233 221 205
f 233 240 263
f 203 240 233
f 233 204 203
f 275 279 261
f 275 234 265
f 275 265 288
f 288 279 275
f 261 240 241
f 240 225 241
f 241 275 261
f 234 275 241
f 201 234 241
f 241 225 201
f 278 274 261
f 302 274 278
f 261 283 278
f 278 283 302
f 309 302 291
f 302 283 291
f 288 309 291
f 291 283 288
f 333 339 288
f 366 387 388
f 366 354 387
f 388 376 366
f 366 376 339
f 339 333 366
f 311 320 315
f 288 307 311
f 311 315 288
f 311 307 308
f 308 320 311
f 396 462 397
f 462 398 397
f 397 370 396
f 397 398 370
f 213 238 269
f 269 238 268
f 270 213 269
f 269 322 270
f 287 322 269
f 269 268 287
f 18 16 25
f 25 21 18
f 18 20 16
f 18 21 20
f 25 37 24
f 24 21 25
f 24 37 51
f 51 21 24
f 228 217 192
f 228 191 239
f 228 192 191
f 239 267 228
f 551 393 392
f 392 391 551
f 345 391 392
f 392 341 345
f 393 341 392
f 394 393 548
f 548 395 394
f 538 532 563
f 538 566 542
f 563 566 538
f 542 515 538
f 515 532 538
f 529 527 563
f 515 527 529
f 562 560 565
f 565 566 536
f 539 562 565
f 565 536 539
f 82 68 77
f 85 68 82
f 77 90 82
f 82 90 101
f 101 103 82
f 103 85 82
f 150 151 140
f 131 150 140
f 140 116 131
f 140 151 152
f 140 152 189
f 476 477 461
f 477 459 461
f 461 459 456
f 485 476 461
f 461 456 485
f 436 459 442
f 436 416 418
f 442 416 436
f 418 433 436
f 433 456 436
f 456 459 436
f 490 491 492
f 490 482 491
f 492 382 490
f 382 482 490
f 492 491 497
f 497 382 492
f 386 382 497
f 299 301 340
f 340 301 329
f 76 69 63
f 23 69 76
f 76 25 23
f 108 25 76
f 76 144 108
f 76 97 144
f 469 405 468
f 429 405 469
f 469 447 429
f 455 447 469
f 468 470 469
f 470 472 469
f 469 484 455
f 469 472 484
f 306 348 297
f 306 297 244
f 244 292 306
f 306 292 343
f 343 348 306
f 209 178 208
f 208 244 231
f 231 209 208
f 208 178 170
f 315 354 324
f 288 315 324
f 324 333 288
f 354 366 324
f 324 366 333
f 260 228 267
f 260 267 288
f 288 253 260
f 253 217 260
f 217 228 260
f 381 395 371
f 381 394 395
f 371 335 381
f 335 341 381
f 381 341 393
f 393 394 381
f 563 532 531
f 531 529 563
f 531 532 515
f 515 529 531
f 560 570 568
f 568 565 560
f 568 570 566
f 566 565 568
f 99 117 110
f 110 102 99
f 110 117 189
f 189 210 110
f 210 102 110
f 120 117 116
f 189 117 120
f 491 503 499
f 499 497 491
f 499 503 386
f 386 497 499
f 299 340 325
f 325 340 338
f 325 293 299
f 325 338 327
f 327 286 325
f 286 293 325
f 338 340 350
f 362 383 350
f 383 338 350
f 360 362 350
f 350 329 360
f 350 340 329
f 72 76 63
f 72 67 93
f 93 97 72
f 97 76 72
f 72 60 67
f 63 60 72
f 170 158 207
f 207 208 170
f 207 206 223
f 207 158 206
f 223 249 207
f 207 249 244
f 244 208 207
f 92 99 94
f 99 98 94
f 94 98 210
f 210 190 94
f 190 92 94
f 99 102 100
f 100 98 99
f 100 102 210
f 210 98 100
f 116 140 129
f 129 120 116
f 129 140 189
f 189 120 129
