v -0.01046617236 0.004949999042 -0.004129088484
v -0.01046617143 -0.004949999973 -0.004129087087
v -0.01046617143 0.002950001741 -0.004129086155
v -0.01045349427 -0.00495000137 -0.004703318235
v -0.01045349427 0.004949999508 -0.004703320563
v -0.01026210655 -0.004950000905 -0.003592190798
v -0.01026210561 -0.002949998248 -0.003592186607
v -0.01026210561 0.002950000344 -0.003592190333
v -0.01026210561 0.004949999973 -0.003592192894
v -0.01022593305 -0.004949998111 -0.005230686162
v -0.01022593305 -0.00295000081 -0.00523068849
v -0.01022593305 0.004949998576 -0.005230687559
v -0.009871219285 -0.004950002301 -0.00317134941
v -0.009871219285 0.004949999973 -0.003171344055
v -0.009816854261 -0.004950000905 -0.005633866414
v -0.009816854261 -0.002949999878 -0.005633869208
v -0.00981685333 0.004949999508 -0.005633868277
v -0.009286236949 0.002949998947 -0.005853749812
v -0.009286236949 0.004949999508 -0.005853745155
v -0.009286236018 -0.004949997645 -0.005853744224
v -0.009286236018 -0.002950000111 -0.005853746552
v -0.008711882867 -0.004949998576 -0.005858087912
v -0.008711881936 0.00294999918 -0.005858086515
v -0.008711881936 0.004949999973 -0.005858081859
v -0.001879807678 -0.00495000137 -0.004578871187
v -0.001879807678 -0.002950000111 -0.004578873981
v -0.001879807562 0.004949999508 -0.004578873049
v -0.001499999431 0.006999998819 2.961954681e-09
v -0.001499999198 -0.006999999285 6.586247103e-09
v -0.00138581905 -0.007000001147 -0.0005740235792
v -0.001385818701 0.006999998819 0.0005740287597
v -0.001385818701 0.007000000682 -0.0005740203196
v -0.001385818468 -0.006999999285 0.0005740324268
v -0.001158739906 -0.002950001508 -0.004387230147
v -0.001158739557 0.004949999973 -0.004387229681
v -0.001158739324 -0.004949999042 -0.004387228284
v -0.001060659532 -0.00699999975 -0.001060653129
v -0.001060659415 -0.006999998819 0.001060663257
v -0.001060659299 0.007000000216 -0.001060657203
v -0.001060659182 0.007000001147 0.001060666866
v -0.00104999973 -0.004254163709 0.005875435192
v -0.00104999973 0.002500228118 0.006989334244
v -0.00104999938 -0.004621994216 0.005545395892
v -0.001049999264 -0.002500234637 0.006989336107
v -0.001049999264 0.004865626339 0.005105196033
v -0.001049999148 -0.004865624011 0.005105203949
v -0.001049999148 0.00425416464 0.005875433795
v -0.001049998798 0.004621995147 0.005545388907
v -0.0007424472715 0.002949999413 -0.004221303388
v -0.000742446864 -0.002949999413 -0.004221300129
v -0.0005740248598 0.006999998819 -0.001385817537
v -0.0005740245106 -0.006999998819 0.001385821612
v -0.0005740243942 -0.006999999285 -0.001385813928
v -0.0005740242777 0.006999999285 0.001385825686
v -0.0005494553479 0.003018212272 -0.004129243549
v -0.0004805922508 -0.002949998947 -0.004088066053
v -0.0001716077968 0.004950000905 -0.003917692695
v -0.0001716076222 -0.004949998111 -0.003917691298
v -0.0001713569363 0.003163584741 -0.003917793278
v -2.922873318e-05 0.003220938146 -0.003826500382
v -2.838336513e-05 -0.003221908584 -0.003824478248
v 2.572543568e-10 0.006999998819 -0.0014999985
v 3.59713953e-10 -0.007000001613 -0.001499994542
v 6.280053699e-10 -0.007000000216 0.001500006532
v 6.400253106e-10 0.007000000216 0.001500002458
v 1.094762411e-05 -0.003237918252 -0.003798005171
v 0.0001650611666 0.003300286829 -0.003690215526
v 0.0004944148823 0.002071433933 0.00726165669
v 0.0004944373504 -0.002071435098 0.007261664141
v 0.0005740254419 -0.007000000682 -0.001385817653
v 0.0005740255583 0.00699999975 0.001385821495
v 0.0005740257911 0.006999999285 -0.001385814045
v 0.0005740260822 -0.006999998819 0.001385825104
v 0.0006159203476 -0.003481117077 -0.003316490212
v 0.000616657373 0.003481954336 -0.003314681817
v 0.0006898979191 -0.004950000439 -0.003244863357
v 0.0006898980355 0.004949999973 -0.00324486522
v 0.0006903167814 -0.00350964535 -0.003245540662
v 0.0006967263762 -0.00351208006 -0.003239283571
v 0.0007522655069 0.003533651354 -0.003182898043
v 0.001060660812 0.006999999285 -0.00106065569
v 0.001060660928 0.00699999975 0.001060668379
v 0.001060661045 -0.006999998353 0.001060664305
v 0.001060661161 -0.006999999285 -0.001060652081
v 0.001194349839 -0.003680406837 -0.002669841051
v 0.001225984888 0.00368809374 -0.002629124559
v 0.001384602278 -0.004949999973 -0.002400896745
v 0.001384602278 0.004950000905 -0.002400898607
v 0.001385819516 -0.007000002079 0.0005740282941
v 0.001385819982 0.00699999975 0.0005740315537
v 0.001385820098 -0.006999998819 -0.0005740211927
v 0.001385820215 0.007000001147 -0.0005740175257
v 0.001415838255 0.001790138427 0.007424126845
v 0.001415845705 -0.001790144132 0.007424128707
v 0.001500000479 0.00699999975 9.940461786e-10
v 0.001500000828 -0.006999998819 4.607945581e-09
v 0.001576556941 -0.003749561496 -0.002080251928
v 0.00158703269 0.003748658346 -0.002061795676
v 0.001839663135 -0.00371445925 -0.001529767411
v 0.001868112246 0.003702454502 -0.001455242862
v 0.001879300573 0.004950000439 -0.001426137635
v 0.001879300806 -0.004949998576 -0.001426136005
v 0.001880629105 -0.003695864463 -0.001424186397
v 0.001974557526 0.003628277453 -0.001147041563
v 0.002026384929 -0.003567054169 -0.0009695322369
v 0.002043136163 0.003542001359 -0.0009052180685
v 0.002078347839 -0.003476522164 -0.0007605745341
v 0.002131685847 -0.003318762407 -0.0004904298694
v 0.002144255908 0.003260220168 -0.0004108725989
v 0.00215034862 -0.004950000905 -0.0003671652812
v 0.002150348853 0.004949999973 -0.0003671672021
v 0.002172166482 -0.003067054553 -0.0001920896029
v 0.002186204074 0.002883866196 -3.54247677e-05
v 0.002194693778 0.002667874098 0.0001015116286
v 0.002195225097 -0.002636770485 0.000116592586
v 0.002198649803 0.002434921218 0.0002019307867
v 0.002199316863 -0.002316783648 0.0002363296808
v 0.002199718729 0.001949999481 0.0002826249111
v 0.002199721057 -0.002153071109 0.0002684664796
v 0.002200000454 -0.004949999973 0.004609211814
v 0.002200000454 -0.004621994682 0.005545394495
v 0.002200000454 -0.00207143859 0.007261660881
v 0.002200000687 -0.004950000439 0.0003357269452
v 0.002200000687 -0.004865624476 0.005105202552
v 0.002200000687 -0.004254162777 0.005875441246
v 0.002200000687 0.001496189972 0.007562396117
v 0.002200000687 0.00207143533 0.007261658087
v 0.002200000687 0.004254164174 0.005875432398
v 0.002200000687 0.004865625873 0.005105194636
v 0.002200000919 -0.001720201224 0.004321566783
v 0.002200000919 -0.001496196492 0.007562399376
v 0.002200000919 -0.0014878785 0.003078748239
v 0.002200000919 -0.001054611057 0.00260347873
v 0.002200000919 0.004621994682 0.00554538751
v 0.002200000919 0.004950000439 0.0003357250243
v 0.002200000919 0.004950000905 0.004609209951
f 7 6 44
f 44 42 7
f 18 23 22
f 18 24 23
f 40 32 28
f 27 24 62
f 23 24 27
f 22 23 27
f 72 27 62
f 62 39 72
f 69 42 44
f 3 7 1
f 31 28 1
f 40 28 31
f 62 24 19
f 24 18 19
f 35 72 57
f 27 72 35
f 50 58 36
f 89 96 124
f 130 131 124
f 47 14 42
f 48 14 47
f 42 14 9
f 9 31 1
f 9 14 40
f 40 31 9
f 21 18 22
f 20 53 15
f 20 21 22
f 51 39 62
f 62 19 51
f 32 39 12
f 18 21 16
f 16 20 15
f 21 20 16
f 11 12 16
f 16 15 10
f 10 11 16
f 36 25 26
f 27 35 26
f 22 27 26
f 26 25 22
f 70 25 36
f 36 58 70
f 86 77 88
f 106 101 111
f 58 50 56
f 55 35 57
f 55 56 50
f 58 56 55
f 35 55 49
f 49 55 50
f 110 96 91
f 91 96 89
f 6 38 13
f 44 6 13
f 89 124 83
f 64 121 43
f 124 121 64
f 64 30 89
f 123 96 110
f 130 124 123
f 8 7 42
f 42 9 8
f 1 7 8
f 8 9 1
f 131 69 94
f 43 121 125
f 125 69 44
f 125 124 131
f 125 121 124
f 131 126 68
f 42 69 68
f 68 69 131
f 128 47 127
f 127 47 42
f 42 68 127
f 111 95 135
f 135 113 111
f 135 123 119
f 111 101 92
f 92 95 111
f 92 101 88
f 92 39 32
f 92 72 39
f 92 32 40
f 40 65 92
f 54 65 40
f 48 65 54
f 134 65 48
f 128 127 134
f 134 126 131
f 134 127 126
f 32 12 5
f 1 28 5
f 5 28 32
f 5 12 11
f 39 51 17
f 17 12 39
f 17 51 19
f 17 16 12
f 17 19 18
f 18 16 17
f 36 26 34
f 34 26 35
f 35 49 34
f 34 50 36
f 34 49 50
f 22 25 63
f 25 70 63
f 63 20 22
f 53 20 63
f 63 70 89
f 89 30 63
f 57 77 67
f 77 75 67
f 111 110 109
f 109 106 111
f 110 91 102
f 88 101 98
f 98 97 88
f 59 55 57
f 58 55 59
f 84 58 76
f 84 70 58
f 89 70 84
f 84 91 89
f 37 30 10
f 10 15 37
f 15 53 37
f 53 63 37
f 37 63 30
f 10 30 4
f 4 11 10
f 4 5 11
f 1 5 4
f 29 4 30
f 52 64 43
f 38 64 52
f 73 83 124
f 124 64 73
f 89 83 73
f 73 64 89
f 33 64 38
f 30 64 33
f 33 29 30
f 33 38 6
f 120 124 96
f 96 123 120
f 120 123 124
f 41 125 44
f 43 125 41
f 44 13 41
f 41 13 43
f 122 94 69
f 69 125 122
f 131 94 122
f 122 125 131
f 93 68 126
f 126 127 93
f 93 127 68
f 123 135 133
f 88 77 81
f 81 92 88
f 72 92 81
f 57 72 81
f 81 77 57
f 45 54 40
f 48 54 45
f 40 14 45
f 45 14 48
f 82 92 65
f 136 135 95
f 76 58 66
f 74 67 75
f 74 78 76
f 76 66 74
f 74 66 67
f 74 75 77
f 77 78 74
f 106 109 107
f 101 106 104
f 99 102 97
f 97 98 99
f 76 85 87
f 97 102 87
f 88 97 87
f 87 102 91
f 87 86 88
f 87 85 86
f 87 84 76
f 91 84 87
f 77 86 80
f 86 85 80
f 113 115 112
f 112 110 111
f 111 113 112
f 112 123 110
f 112 115 123
f 119 123 117
f 123 115 117
f 113 135 114
f 114 115 113
f 4 29 2
f 2 33 6
f 29 33 2
f 6 7 2
f 1 4 2
f 7 3 2
f 2 3 1
f 46 52 43
f 38 52 46
f 43 13 46
f 46 13 38
f 130 123 132
f 123 133 132
f 71 82 65
f 95 92 90
f 92 82 90
f 58 59 60
f 60 59 57
f 57 67 60
f 67 66 60
f 108 109 110
f 110 107 108
f 108 107 109
f 101 104 103
f 103 104 102
f 102 99 103
f 102 104 105
f 110 102 105
f 105 107 110
f 106 107 105
f 105 104 106
f 100 98 101
f 100 99 98
f 101 103 100
f 100 103 99
f 79 78 77
f 77 80 79
f 76 78 79
f 79 85 76
f 79 80 85
f 118 135 119
f 119 117 118
f 116 117 115
f 115 114 116
f 116 118 117
f 116 114 135
f 135 118 116
f 82 71 129
f 129 90 82
f 65 134 129
f 129 71 65
f 134 136 129
f 129 136 95
f 95 90 129
f 61 66 58
f 58 60 61
f 61 60 66
f 134 47 128
f 48 47 134
f 132 134 131
f 132 131 130
f 135 136 132
f 132 133 135
f 132 136 134
