v -0.009413414635 -8.294591669e-10 -0.03979610279
v -0.009328627959 0.001180664985 -0.03979786858
v -0.009328627028 -0.001180665917 -0.0397978723
v -0.009313994087 -0.0002011838369 -0.007298113778
v -0.009313061833 -8.054961654e-05 -0.007302314043
v -0.009311326779 -0.0004083119857 -0.00730586797
v -0.009309329093 7.103418466e-05 -0.007309587672
v -0.009297890589 -7.754102262e-05 -0.007225509733
v -0.009294093587 7.490736607e-05 -0.007232892327
v -0.009293341078 0.0003732716141 -0.007330991328
v -0.009277887642 0.0003788853064 -0.007254680619
v -0.009257324971 -0.001154466881 -0.007368963212
v -0.009257052094 0.0007518870989 -0.007371608168
v -0.0092428606 -0.001678739209 -0.03979966044
v -0.0092428606 0.001678742701 -0.03979965672
v -0.009227495641 0.0009720164817 -0.007402898744
v -0.009224635549 -0.001396143227 -0.007404049858
v -0.009173245169 0.001292685745 -0.007460650057
v -0.00916279573 -0.001749746152 -0.007471572608
v -0.009088232182 -0.002088601002 -0.00929763075
v -0.009076448157 -0.002369492315 -0.03980312869
v -0.009076447226 0.002369491849 -0.03980312496
v -0.009042800404 -0.002266288502 -0.009462299757
v -0.008971157484 0.002115562791 -0.007699601352
v -0.008965290152 -0.002535472158 -0.007706040516
v -0.008862538263 0.002448207233 -0.007843085565
v -0.008843416348 -0.002904141555 -0.007867270149
v -0.008806757629 0.002602174878 -0.0079202177
v -0.008765305392 -0.003309200751 -0.03980961442
v -0.008765305392 0.00330920401 -0.03980961442
v -0.008606424555 0.00370960054 -0.03972626477
v -0.008589563891 0.003125360003 -0.008235892281
v -0.008584708907 -0.003539516591 -0.008242310956
v -0.008409629576 0.003493651282 -0.008505134843
v -0.008385180496 -0.003942669369 -0.0085424399
v -0.008311898448 -0.004361555912 -0.03956963867
v -0.008089278825 -0.004800435156 -0.03944857791
v -0.008089278825 0.004800434224 -0.03944857791
v -0.008033351041 -0.004542413168 -0.009091277607
v -0.007987650111 0.004990858026 -0.03939051926
v -0.007854896598 0.002036467427 -0.0006715338677
v -0.007854402997 -0.002037355676 -0.0006711184978
v -0.007840910926 0.002049217466 -0.0006259288639
v -0.007840394974 -0.002050062874 -0.000625539571
v -0.007834859192 -0.001390545163 -0.0005288347602
v -0.007833487354 0.001390079386 -0.0005190223455
v -0.0078254072 0.001396396663 -0.0004882458597
v -0.007816482335 0.001817204058 -0.0005253162235
v -0.007816306315 0.005196740851 -0.02716476843
v -0.007816089317 -0.0018178022 -0.0005249455571
v -0.007809580304 0.002228257013 -0.0006306655705
v -0.007809145842 -0.002226959914 -0.0006296243519
v -0.00780717982 0.002267658478 -0.0006419532001
v -0.007806645241 -0.002267788863 -0.0006413068622
v -0.007801367901 0.001406703494 -0.0004415269941
v -0.007801210973 -0.001409111661 -0.0004415549338
v -0.007796223275 0.002394435694 -0.0006796754897
v -0.007795503829 -0.002395084128 -0.0006791204214
v -0.007789173163 0.002693501068 -0.000878976658
v -0.007788444869 -0.002693468006 -0.0008780322969
v -0.007786067203 0.001121273497 -0.000397991389
v -0.007785901427 -0.001121975831 -0.0003977846354
v -0.007782937959 0.00526621379 -0.02713207901
v -0.007779432461 0.002522138413 -0.0007199477404
v -0.007778767496 -0.002522255294 -0.0007191896439
v -0.007772058714 0.0008338225307 -0.0003689900041
v -0.007771930657 -0.0008338395855 -0.000368796289
v -0.007768676616 0.002708439482 -0.0008287597448
v -0.00776793668 -0.002708364511 -0.0008278563619
v -0.007762380876 0.0006220400101 -0.0003560632467
v -0.007762318011 -0.0006229486899 -0.0003559757024
v -0.007759362925 0.002621521475 -0.0007520504296
v -0.007758710533 -0.002621276537 -0.0007511693984
v -0.007750856224 -8.731149115e-11 -0.0003415588289
v -0.007734690327 0.002717593685 -0.0007848534733
v -0.007733967155 -0.002717477037 -0.0007839798927
v -0.007699625567 0.002712280257 -0.0007434058934
v -0.007699260022 -0.002712225541 -0.0007429718971
v -0.007678481285 0.002904193476 -0.0008555669338
v -0.007677759975 -0.002903735265 -0.0008545145392
v -0.007663844153 -0.002707558218 -0.0007023736835
v -0.007663843222 0.002707556356 -0.0007023736835
v -0.007658664603 -0.002693224 -0.0006872918457
v -0.007599986624 0.001685004681 -0.0002271253616
v -0.007599985693 -0.001685003634 -0.0002271272242
v -0.007596997079 0.003140810411 -0.0009543411434
v -0.007596191019 -0.003140176646 -0.0009531248361
v -0.007593902294 0.002806828357 -0.0007013194263
v -0.007576259319 0.003315981245 -0.001081299037
v -0.007535086945 0.003324359888 -0.0010386426
v -0.007531691343 -0.003330850741 -0.001040641218
v -0.00750361383 -0.005802881904 -0.02682095021
v -0.007485439535 0.005835493095 -0.02679647133
v -0.007485142909 0.002402602462 -0.0003556348383
v -0.007471830584 -0.005868390203 -0.03908935562
v -0.007469905075 0.003534084652 -0.001143159345
v -0.007467843592 -0.003536453471 -0.001143267378
v -0.007438052446 -0.002338222461 -0.0002832952887
v -0.007430159021 0.003882472636 -0.001389823854
v -0.007420532871 -0.002997522475 -0.00069286488
v -0.007413859945 -0.004221937619 -0.001687636599
v -0.007405590732 0.003012659028 -0.0006922446191
v -0.007392570842 0.005992631428 -0.03904113546
v -0.007382351905 0.003898943076 -0.001350691542
v -0.007381406613 0.004706894048 -0.00210352242
v -0.007380592171 -0.004253079183 -0.001642206684
v -0.007378135342 -0.003911408596 -0.001356970519
v -0.007376363967 -0.001778114121 -2.661533654e-05
v -0.007348383777 0.004743524827 -0.002062294632
v -0.007339180913 0.004216032103 -0.001565093175
v -0.007336680777 -0.005078298971 -0.002496364526
v -0.007336626295 -0.004218334332 -0.001565003768
v -0.007333274931 -0.0009242527885 0.0001420099288
v -0.007333274931 0.000924256281 0.0001420024782
v -0.007331423927 -0.004275154322 -0.00160700269
v -0.007304749452 -0.005117699504 -0.002457516268
v -0.007299432531 0.004770153202 -0.00203018263
v -0.00725695584 -0.005146052688 -0.002425927669
v -0.007246649824 0.005458156578 -0.002995073795
v -0.007239659317 0.005261408165 -0.002568055876
v -0.007228869479 0.005313268863 -0.002633396536
v -0.007225072943 -0.005317853764 -0.002636065707
v -0.00721655786 0.005500096828 -0.002958471887
v -0.007212930825 0.0004687595065 0.0002590529621
v -0.007212926634 -0.0004687606415 0.0002590604126
v -0.007190809585 0.001994204475 5.254149437e-05
v -0.007186208386 -0.004811581224 -0.001978682354
v -0.007186204661 0.004811581224 -0.001978691667
v -0.007183018606 -0.006343702786 -0.02637044899
v -0.00717253238 0.006360348314 -0.0263514258
v -0.007170796394 0.005530137569 -0.002926692367
v -0.007140198257 -0.005718240514 -0.003395093605
v -0.007131506689 0.001906768419 0.000124361366
v -0.007111171726 -0.005761926994 -0.003360230476
v -0.007080309559 -0.002712382935 -0.0002397056669
v -0.007080306765 0.002712387824 -0.0002397112548
v -0.007066641934 -0.005793292075 -0.003328599967
v -0.007037798408 0.005859196186 -0.003444394097
v -0.007028090768 0.001016214141 0.0003783199936
v -0.007028085645 -0.001016215538 0.0003783144057
v -0.006986423396 0.003422740847 -0.0007095951587
v -0.006986420602 -0.00342274271 -0.0007095914334
v -0.006980124861 -0.00167051109 0.0002934150398
v -0.006963975728 0.006032675505 -0.003979926929
v -0.006955780555 -0.004318457097 -0.001387832686
v -0.006955778692 0.004318455234 -0.001387842
v -0.006936156191 0.006078589708 -0.003947654739
v -0.00689305691 0.006111918017 -0.00391670689
v -0.00688092038 0.006797258742 -0.02582506835
v -0.006880042143 -0.006798459217 -0.0258266665
v -0.006873466074 -0.006812091917 -0.02490695938
v -0.006868383847 0.006814594381 -0.02445301972
v -0.006861017551 -0.002078286139 0.0002217311412
v -0.006861014757 0.002078288933 0.0002217274159
v -0.006853723899 0.0005325482925 0.0005187168717
v -0.00685372157 -0.0005325478269 0.0005187131464
v -0.006839336827 -0.006813245825 -0.02321920544
v -0.006813289598 -0.006828028709 -0.03867056221
v -0.006764126942 -0.00630948972 -0.004447979853
v -0.006749890279 0.006913071498 -0.03862787783
v -0.00672770571 0.001232515555 0.0005245655775
v -0.006721528713 -0.006344337948 -0.004418175668
v -0.00670515839 -0.006063069217 -0.003421060741
v -0.006705157459 0.006063072942 -0.003421060741
v -0.006695333403 -0.006376361474 -0.004494257271
v -0.006687819958 -0.001158346655 0.0005551222712
v -0.006562753115 -0.002292454243 0.0002679880708
v -0.006562747993 0.002292455407 0.0002679787576
v -0.006543715019 0.003168074647 -0.0002519693226
v -0.006543714553 -0.003168075345 -0.0002519730479
v -0.00651558442 -0.003868607339 -0.0007919128984
v -0.006514586508 -0.006492988206 -0.004487590864
v -0.006514585577 0.006492991 -0.004487592727
v -0.006496344693 0.00388644007 -0.0007962584496
v -0.006480515003 -0.0007413130952 0.0006896350533
v -0.006446931977 -0.007301811129 -0.03841735795
v -0.006443703081 0.007305992767 -0.03841505572
v -0.006422922947 0.006684768945 -0.005468504503
v -0.00640110299 -1.527951097e-10 0.0007463674992
v -0.006380241364 0.006722248159 -0.005442052148
v -0.006322574802 0.0003772607597 0.0007667858154
v -0.006316036917 0.001386023127 0.0006574708968
v -0.006316035986 -0.001386025222 0.000657459721
v -0.006302529946 -0.006797244772 -0.005673374049
v -0.00626934832 0.00511499308 -0.001755598933
v -0.006269347388 -0.005114992149 -0.001755608246
v -0.006250247825 0.005918786861 -0.00274149701
v -0.006250246894 -0.005918791518 -0.002741491422
v -0.006246025674 0.006851999089 -0.005865257233
v -0.006241510622 -0.005966738798 -0.00281111896
v -0.006241434719 -0.006855177693 -0.005868157372
v -0.006239828654 -0.004110541195 -0.0008509550244
v -0.006217374932 -0.00687751919 -0.005945873447
v -0.006211975124 -3.834429663e-09 0.0008063074201
v -0.006200154778 0.004683951847 -0.001312341541
v -0.006200151984 -0.004683952779 -0.001312345266
v -0.006180752534 0.004591718316 -0.001221934333
v -0.006180751603 -0.004591722041 -0.001221932471
v -0.006179415155 -0.007677107118 -0.02488693967
v -0.00617941469 0.007677104324 -0.02488652803
v -0.006140308455 0.007670558989 -0.03819205239
v -0.006139595527 0.006352357566 -0.003450155258
v -0.006139593199 -0.006352357566 -0.003450157121
v -0.006099132355 -0.007718184032 -0.03816078231
v -0.00609073462 0.004222713411 -0.0008750986308
v -0.006090730894 -0.00422271248 -0.0008751098067
v -0.00601721555 0.006656730548 -0.004101656377
v -0.006017209962 -0.006656731479 -0.004101663828
v -0.005998836365 0.0009504676564 0.0008047483861
v -0.005998835433 -0.0009504641639 0.0008047502488
v -0.00599479815 -0.003687442746 -0.0003977827728
v -0.005994796753 0.003687448101 -0.0003977846354
v -0.005956340581 -0.006778807379 -0.004420002922
v -0.005903992802 0.00167316955 0.0006940569729
v -0.005903990474 -0.001673169434 0.000694045797
v -0.005882441998 0.002829688834 0.0002295132726
v -0.005882440601 -0.0028296893 0.0002295095474
v -0.005870935973 0.004206537269 -0.0007655154914
v -0.005756422877 0.00469331257 -0.001148048788
v -0.005743473303 0.005198068917 -0.001643719152
v -0.005729856435 0.0004047003458 0.0008741114289
v -0.005716125946 0.005707539618 -0.002221757546
v -0.00568370102 0.007193527184 -0.005918869749
v -0.005683699623 -0.007193528116 -0.005918869749
v -0.005653233733 -0.00417634286 -0.0006606709212
v -0.005635560956 0.006200674921 -0.00287967734
v -0.005635484122 0.0004720817669 0.0008810069412
v -0.005572952796 -0.0005167517811 0.0008847694844
v -0.00556781562 -0.008210798725 -0.02259817533
v -0.005567010026 0.008211592212 -0.02259849198
v -0.005537469871 -0.007361089811 -0.006776482798
v -0.005510007497 -0.001303787809 0.0008250568062
v -0.005510007031 0.00130378874 0.0008250623941
v -0.005502903834 0.006659887731 -0.003647221252
v -0.00549216615 0.008373724297 -0.03766768053
v -0.00546737574 -0.008398892358 -0.037646126
v -0.005417749751 -0.004739151336 -0.001083774492
v -0.005332120229 0.007068972103 -0.004565093666
v -0.005327285267 -0.005300079472 -0.001632459462
v -0.005289168563 0.004749557935 -0.001058785245
v -0.005252430681 -0.005842656828 -0.0022590179
v -0.00520574348 -0.008692055941 -0.02779525518
v -0.005205741152 0.008692060597 -0.02779491432
v -0.005187792238 -0.008679241873 -0.02484473586
v -0.005187788978 0.008679230697 -0.02484432794
v -0.005180865992 -0.003425875679 3.802217543e-05
v -0.005180864129 0.003425880568 3.802217543e-05
v -0.005179390311 0.004100039601 -0.0004586242139
v -0.005170814227 0.005331327207 -0.001628836617
v -0.005150616635 -0.004095456563 -0.0004479661584
v -0.005146661308 -0.006360866129 -0.002965213731
v -0.005136806052 0.007413985208 -0.005667710677
v -0.005078707356 0.005887348205 -0.002276064828
v -0.005041481927 -3.907189239e-09 0.0009062495083
v -0.005034967791 -0.0009073924157 0.0008862894028
v -0.00500495173 -0.006841356866 -0.003776861355
v -0.004999897908 0.0009332834743 0.0008842498064
v -0.004984605126 0.002361319494 0.0006043612957
v -0.004984604195 -0.002361319959 0.0006043724716
v -0.00496396143 0.006415333599 -0.00300232321
v -0.004927514121 0.007699155249 -0.006938917562
v -0.004874245729 0.008963300847 -0.03709002584
v -0.004835922737 -0.007269119844 -0.00472872518
v -0.004819371272 0.006903585047 -0.003832015209
v -0.004803374875 -0.009026437066 -0.03701776639
v -0.004663224798 -0.004412032664 -0.0006182249635
v -0.004651516676 0.00733783748 -0.004797693342
v -0.004648185801 -0.007631290704 -0.005849977955
v -0.004619636107 0.009058700874 -0.02296573482
v -0.00461431453 0.004012645222 -0.0002795290202
v -0.00461431127 -0.004012644291 -0.0002795290202
v -0.004482647404 -0.004767986946 -0.0009202435613
v -0.004467071034 0.007705868222 -0.00592665188
v -0.00446544122 0.002071908442 0.0007026735693
v -0.004465438426 -0.002071909839 0.0007026605308
v -0.00444996357 -0.007931992412 -0.007124960423
v -0.004436417483 -0.0004579806118 0.0008747670799
v -0.004436412826 0.0004579835804 0.0008747559041
v -0.004351159558 0.00438830629 -0.0005546826869
v -0.004279976711 -0.009465374053 -0.03643574566
v -0.004279975314 0.009465373121 -0.03643574938
v -0.004273386672 0.008011853322 -0.007203461602
v -0.004270256963 -0.00146892562 0.0007975343615
v -0.004234923515 -0.005457063206 -0.001620147377
v -0.004223348573 -0.009535013698 -0.03308111057
v -0.00422334671 0.009535016492 -0.03308092058
v -0.004173914436 -0.009591684677 -0.02768618986
v -0.004173911177 0.009591681883 -0.02768585272
v -0.004157193936 -0.009416127577 -0.02314515598
v -0.004157193471 0.009416125715 -0.02314516157
v -0.004155537114 0.009516787715 -0.02478049323
v -0.004155535251 -0.009516808204 -0.02478090115
v -0.004151390865 0.004763939418 -0.0008794572204
v -0.004146935884 0.009568722919 -0.03627405688
v -0.004058124963 -0.006096492521 -0.002405061387
v -0.004054243211 -0.008398384787 -0.009986880235
v -0.004003920592 -0.003086779267 0.0003500804305
v -0.004003920592 0.003086781595 0.0003500804305
v -0.003956722096 -0.003916141111 -0.0001433286816
v -0.003900841577 0.003907945007 -0.000135153532
v -0.003899025498 -0.006685024127 -0.003263412043
v -0.003888957668 0.008486178704 -0.01005638298
v -0.003872514237 0.005488920957 -0.001629779115
v -0.003825234482 -0.003896814771 -0.0001249071211
v -0.003799877595 1.651642379e-09 0.0008046738803
v -0.003741722787 -0.00721702911 -0.004208456725
v -0.003714263439 -0.009885394014 -0.03569309041
v -0.00367477187 0.006157857366 -0.002468368039
v -0.003669758793 -0.009916214272 -0.03562833369
v -0.00361953536 0.009950607084 -0.03555402905
v -0.003585376078 0.008293749765 -0.007546460256
v -0.003582511097 -0.007684827782 -0.005261311308
v -0.003579645883 0.001952301944 0.000651249662
v -0.003565056249 -0.00344614638 0.0001591220498
v -0.003528210567 -0.004322371446 -0.0004495866597
v -0.003504484426 0.006767725572 -0.003378023393
v -0.003418411361 -0.008082179353 -0.006439255551
v -0.00337552675 -0.01015480887 -0.03311434016
v -0.003344064578 0.007314401679 -0.004367452115
v -0.003338533919 -0.002861411776 0.0004022568464
v -0.003338532289 0.002861409448 0.0004022568464
v -0.00333546591 -0.01019822527 -0.02858420834
v -0.003311155597 -0.009786268696 -0.02129313163
v -0.003307522507 -0.004745607264 -0.000829262659
v -0.003302137833 -0.01000850741 -0.02379577048
v -0.003252191702 -0.008414414711 -0.007728620432
v -0.003246624721 0.008795332164 -0.01036322117
v -0.00324623636 0.01023482811 -0.03309728205
v -0.003238885431 0.001329406863 0.0006606690586
v -0.003238884266 -0.001329404884 0.0006606727839
v -0.003205949208 0.01027684938 -0.02855738625
v -0.00319876452 -0.003802478779 -7.404014468e-05
v -0.003198763821 0.003802478779 -7.402524352e-05
v -0.003187699942 0.007792847231 -0.005453621037
v -0.003183852183 -0.0004509988939 0.000687237829
v -0.003178319661 0.009859156795 -0.02130037546
v -0.003171611112 0.01007979643 -0.02378911339
v -0.003167702584 -0.01024132781 -0.0348213315
v -0.00309436582 0.01028525364 -0.03469045088
v -0.003030411201 0.008199220523 -0.006650201976
v -0.002999780467 -0.005549596623 -0.001696081832
v -0.002935560187 -0.008927216753 -0.01052711997
v -0.002900071209 0.004268686287 -0.0004316195846
v -0.002873780439 0.008539395407 -0.007944242097
v -0.002784418175 -0.003264126135 0.0001764446497
v -0.002784415847 0.003264124971 0.0001764409244
v -0.00278154132 -0.006276583299 -0.002652537078
v -0.002720854012 -0.002526307479 0.0003951657563
v -0.002694368595 0.004729620181 -0.0008461996913
v -0.002681899583 -0.01051392592 -0.03388399258
v -0.002677057171 -0.009310794063 -0.01342735719
v -0.002659204416 0.0025674887 0.000373383984
v -0.002611408709 -0.003710929537 -7.976964116e-05
v -0.002598721301 -0.006927450188 -0.003675032407
v -0.002581496025 0.009063417092 -0.01072127838
v -0.00258126948 -0.01056467462 -0.03366804868
v -0.00258126785 0.01056467462 -0.03366804868
v -0.002555848798 0.0008912271587 0.0005241930485
v -0.002555848099 -0.0008912310004 0.0005241930485
v -0.002535938052 -0.01058958843 -0.03347020224
v -0.002535936423 0.01058958843 -0.03347020596
v -0.00251418259 0.01062495261 -0.03242655471
v -0.002514179097 -0.01062494889 -0.03242653981
v -0.002491611056 0.01065388415 -0.03134367988
v -0.002491608262 -0.01065388508 -0.03134367988
v -0.002474528039 -0.01064972859 -0.02840076201
v -0.00245147245 0.01067448407 -0.03104460612
v -0.002441452583 -0.0099488087 -0.01885336824
v -0.00243373285 -0.007502518594 -0.00476305373
v -0.002432529815 -0.01042024232 -0.02375330403
v -0.00243146508 -0.01068365015 -0.03096920066
v -0.002406351268 0.00558297243 -0.001780521125
v -0.002383209765 0.003674936946 -9.446591139e-05
v -0.002348981798 0.009449573234 -0.01357761398
v -0.002313690726 0.01073401608 -0.03067962639
v -0.002285534749 -0.01074508019 -0.03063110635
v -0.002280924004 -0.008001540788 -0.005923366174
v -0.002280302811 -0.003658639966 -0.000103071332
v -0.002217178466 0.01077088807 -0.03053362854
v -0.00220520678 0.01075671427 -0.02834350802
v -0.002192265354 0.006338612176 -0.002803319134
v -0.002159508411 0.01051887404 -0.02374109998
v -0.002151345834 0.01006503403 -0.01891606487
v -0.002135318937 -0.008425058797 -0.007160739973
v -0.002107595094 0.01081053074 -0.03042109683
v -0.002089414746 0.002954731928 0.0001416187733
v -0.002084989799 -0.00419905968 -0.0004863198847
v -0.002079617698 -0.01082038134 -0.03039932624
v -0.00203444669 0.004194907844 -0.0004925653338
v -0.002008286538 0.007008905523 -0.003891026601
v -0.001997266198 -0.008779956959 -0.008463561535
v -0.00192805659 0.002175451024 0.0002484116703
v -0.00192805531 -0.002175450558 0.0002484247088
v -0.001925060526 0.01087171212 -0.03032625839
v -0.001925059827 -0.01087171119 -0.03032626212
v -0.001924355631 -0.004710651003 -0.0009355824441
v -0.001879091724 0.0004467723193 0.0003338698298
v -0.001877757139 0.004709827714 -0.0009435620159
v -0.001841163845 0.007597843185 -0.005037428811
v -0.00182196917 0.01090224274 -0.03030611016
v -0.001821967191 -0.01090224274 -0.03030611388
v -0.001784443273 -0.003165276023 -1.814216375e-06
v -0.001755488804 -0.00932368543 -0.0111875264
v -0.001717636362 -0.01093082596 -0.03028724529
v -0.001717634266 0.01093082502 -0.03028724715
v -0.001696347375 -0.005616002716 -0.0019285772
v -0.001688157325 0.008107065223 -0.006241897121
v -0.001653773012 0.005617769435 -0.001939151436
v -0.001631242339 -0.01095276326 -0.03027163818
v -0.001631241408 0.01095276605 -0.03027163632
v -0.001579030533 -0.009712411091 -0.01393896248
v -0.001570354565 -0.01094740164 -0.02821647003
v -0.001546882093 0.008538838476 -0.007502678782
v -0.001514020725 -0.01069652755 -0.02371493354
v -0.001501141698 -0.006395027973 -0.003011604771
v -0.001465762733 -0.01028001215 -0.01906704716
v -0.001459880266 0.006397753023 -0.003025085665
v -0.001430552336 -0.003538130783 -0.000235427171
v -0.001417774241 0.008900445886 -0.008808756247
v -0.00136187661 -0.003826358821 -0.0004046969116
v -0.001319502946 -0.007079578005 -0.004161999561
v -0.001317156828 0.01101985015 -0.03020532429
v -0.001317155431 -0.01101985201 -0.03020532615
v -0.001313242828 -0.004126352258 -0.0006139110774
v -0.001278467127 0.007082876749 -0.004178696312
v -0.001225240179 -0.004701855592 -0.001090107486
v -0.001212833682 0.001748021343 5.401112139e-05
v -0.001212832052 -0.001748021459 5.401484668e-05
v -0.001210336224 2.277374733e-09 9.984709322e-05
v -0.001209995011 -0.002621717285 -5.239062011e-05
v -0.00120999408 0.002621720778 -5.238689482e-05
v -0.001203155844 0.009452114813 -0.01149484608
v -0.001192271011 0.003514395328 -0.0002973917872
v -0.001192271011 -0.003514394164 -0.0002973899245
v -0.001155163511 0.003992687911 -0.0005680732429
v -0.001155161997 -0.003992698155 -0.0005680788308
v -0.001149482443 -0.007679349743 -0.005366599187
v -0.001134562423 0.01103187073 -0.02813924104
v -0.001116093714 0.004359727725 -0.0008421931416
v -0.001116091735 -0.004359730519 -0.0008421912789
v -0.00107410585 -0.004700869322 -0.001131655648
v -0.001074101892 0.004700867459 -0.001131659374
v -0.001069430728 0.01077669393 -0.02369927242
v -0.001058585942 0.009839991108 -0.01417610887
v -0.001057940884 -0.005640765652 -0.00210849382
v -0.0009953699773 0.01038072724 -0.01916540973
v -0.0009934111731 -0.008196747862 -0.006615346298
v -0.0009835294913 0.005304279737 -0.001742094755
v -0.0009835249512 -0.005304305814 -0.00174212642
v -0.0009473478422 -0.005507417023 -0.001982036978
v -0.000947345281 0.005507417955 -0.001982038841
v -0.0008833413012 -0.006426569074 -0.003225393593
v -0.0008551902138 0.01108411327 -0.03008422814
v -0.0007308747154 -0.009000847116 -0.009204168804
v -0.0007075511385 0.003238863312 -0.0003740657121
v -0.0007055131719 -0.007116781548 -0.004417129792
v -0.0006862077862 0.006697836332 -0.003713157028
v -0.0006862073205 -0.006697833538 -0.003713160753
v -0.000592030352 -0.01109008025 -0.02805786766
v -0.0005403994583 -0.01110764313 -0.02998863533
v -0.000539885601 -0.00955616124 -0.01184216514
v -0.00051433919 -0.01083382871 -0.02368251607
v -0.0005034189671 0.002194645582 -0.0002611353993
v -0.0004813205451 -0.007452749647 -0.005131719634
v -0.0004523389507 0.00306386454 -0.0004249308258
v -0.0004252579529 -0.009940368123 -0.01444127038
v -0.0004117416684 -0.01045603584 -0.01927356422
v -0.0004002812784 0.007725938223 -0.005723972805
v -0.0003575023729 0.00365382852 -0.0006616972387
v -0.0003523381893 0.007882457227 -0.006086377427
v -0.0003381902352 -0.002984752413 -0.0004515238106
v -0.0002978707198 0.004547720775 -0.001256918535
v -0.0002978686243 -0.004547736607 -0.001256931573
v -0.0002643892076 0.005313409492 -0.002002531663
v -0.0002643847838 -0.005313432775 -0.002002555877
v -0.0002540918067 -0.004129807465 -0.0009666886181
v -0.0002540906426 0.004129798152 -0.0009666867554
v -0.0002370080911 0.008246980608 -0.007007684559
v -0.0001684885938 0.005986899137 -0.002864039503
v -0.0001684788149 -0.005986929871 -0.002864094451
v -6.612204015e-05 0.008768819273 -0.00857554283
v -5.92789147e-05 -0.01111454703 -0.02982431836
v -4.207156599e-05 0.006589543074 -0.003801869228
v -4.206364974e-05 -0.006589578465 -0.003801932558
v -3.785034642e-05 0.01105183177 -0.03013107367
v 1.300708391e-05 -0.01111276727 -0.02979787998
v 2.331519499e-05 0.01111245342 -0.02979407087
v 2.331566066e-05 -0.01111245342 -0.02979407832
v 2.839462832e-05 0.009052818641 -0.009604026563
v 7.23998528e-05 -0.01106579974 -0.02695108205
v 7.240008563e-05 0.01106579974 -0.02695108391
v 9.368709289e-05 -0.003749124007 -0.0008987020701
v 0.0001233092044 -0.0009072589455 -0.0004811640829
v 0.0001233103685 0.0009072575485 -0.0004811678082
v 0.0001302766614 -0.01090233214 -0.02434110641
v 0.0001302792225 0.01090233307 -0.02434110828
v 0.000155732967 0.009439635091 -0.01130941045
v 0.0001821380574 0.009522879496 -0.01173894946
v 0.000205880031 -0.002613732126 -0.0006196144968
v 0.0002387980931 -0.008261182345 -0.007245961577
v 0.0002438744996 0.007625269704 -0.00581323728
v 0.0002684674691 0.01051043812 -0.01971774735
v 0.0002885065041 -0.007527990267 -0.03651627526
v 0.0003068724182 0.01001054421 -0.01493240055
v 0.0003242378589 0.003325153608 -0.0008330624551
v 0.0003242380917 -0.003325154539 -0.0008330624551
v 0.0004014635924 -0.007502365857 -0.03649767116
v 0.0004160981625 0.007096534595 -0.03649535775
v 0.0004242421128 0.005330299959 -0.002324969508
v 0.0004242421128 -0.005330320448 -0.002325002104
v 0.0004649141338 -0.00462434534 -0.001647431403
v 0.0004649176262 0.004624336958 -0.001647418365
v 0.0004818625748 0.005974909291 -0.003156604245
v 0.0004818663001 -0.005974942818 -0.003156646155
v 0.0005103310104 -0.009064370766 -0.009840229526
v 0.0005182381719 0.008442423306 -0.007902346551
v 0.0005498747341 0.002383967629 -0.0007604509592
v 0.0005544670857 -0.004255764186 -0.001406924799
v 0.0005544731393 0.004255758598 -0.001406922936
v 0.0005927449092 0.00705238618 -0.03645861521
v 0.00059547415 0.006563798524 -0.004086857662
v 0.0005954827648 -0.00656383764 -0.004086923786
v 0.0006449071225 -0.01100308169 -0.03013569489
v 0.0006581407506 -0.01106579416 -0.02980053239
v 0.0006867505144 -0.009609808214 -0.01238212641
v 0.0007301238365 -0.003890075488 -0.001270795241
v 0.0007335219998 -0.01047341526 -0.0194282271
v 0.0007746012416 -0.009980352595 -0.01484061498
v 0.0008406969719 -0.002940498292 -0.0009950120002
v 0.0008644962218 -0.002174137626 -0.0009057763964
v 0.0008852081373 0.007583746687 -0.00610056147
v 0.0009508721996 0.003940834664 -0.001412970945
v 0.001040928997 0.0035484978 -0.001278650016
v 0.001040928997 -0.003548495937 -0.00127864629
v 0.001047882251 -0.007319583558 -0.03632109985
v 0.001179378945 0.008388695307 -0.008186311461
v 0.001205540262 0.006862943061 -0.03625816479
v 0.001314352732 0.001869222149 -0.001138299704
v 0.001340581104 0.0109656062 -0.0298161041
v 0.001340730116 -0.01096689794 -0.02981594391
v 0.001355788205 2.71393219e-09 -0.00113876909
v 0.001408327371 -0.001804107218 -0.001190237701
v 0.001413678285 0.008984605782 -0.01023082063
v 0.001430360135 -0.01090980414 -0.0262668971
v 0.00143037457 0.01090978552 -0.02626649104
v 0.001441429835 -0.003206974361 -0.001398256049
v 0.001441431232 0.003206974128 -0.001398256049
v 0.00145166833 -0.01037799567 -0.01862293109
v 0.001546828542 -0.01066938508 -0.02293680236
v 0.001546843443 0.01066935714 -0.02293646894
v 0.001581553835 0.00941389706 -0.01221705973
v 0.001613766421 -0.007828207687 -0.00677236449
v 0.00161598064 -0.007105191238 -0.03605233133
v 0.001633876935 0.005359673873 -0.003061424941
v 0.001633877866 -0.00535969343 -0.003061447293
v 0.001641433686 0.01084241737 -0.03015584499
v 0.001657764427 0.01090500318 -0.0298229605
v 0.001670383848 0.00592163112 -0.003814589232
v 0.001670386642 -0.005921660922 -0.003814628348
v 0.001673123334 -0.004115267657 -0.001936232671
v 0.001678647473 0.01035543345 -0.01957407221
v 0.001692820806 0.006669697352 -0.03600705042
v 0.001707166899 -0.004773741588 -0.002480141819
v 0.001707172953 0.004773730412 -0.002480138093
v 0.001724744216 -0.007058016025 -0.03598695248
v 0.001730823889 0.009966733865 -0.01601165347
v 0.001742908731 -0.009093929082 -0.01044432074
v 0.001774494536 0.006452050991 -0.004682430066
v 0.0018071956 0.004480227828 -0.002286281437
v 0.0018071956 -0.004480233416 -0.002286288887
v 0.00188299641 -0.01079035271 -0.03016034327
v 0.001902901568 -0.01085296553 -0.02982804365
v 0.001913428307 -0.009624812752 -0.01288814284
v 0.001963176765 0.004192161374 -0.002177169546
v 0.001963177696 -0.004192159511 -0.002177169546
v 0.00198154524 -0.000481994939 -0.001527206972
v 0.001983175054 -0.009979838505 -0.0152098434
v 0.0020781653 0.007400674745 -0.006610438228
v 0.002177352086 0.003918210045 -0.00216297619
v 0.002177352551 -0.003918207251 -0.002162972465
v 0.002190184779 -0.009997012094 -0.01542707905
v 0.002295699436 0.004289057106 -0.00247986801
v 0.002389623784 -0.002517848508 -0.001885309815
v 0.002389623784 0.00251784618 -0.001885307953
v 0.002413421404 0.008159926161 -0.008625990711
v 0.00245138444 -0.003646525554 -0.002234337851
v 0.002451387234 0.003646524623 -0.002234334126
v 0.002488831524 -0.001022045617 -0.001866087317
v 0.00255951751 0.0009700604714 -0.001915203407
v 0.002591767348 -0.004884616472 -0.003239786252
v 0.002591769211 0.004884611815 -0.003239782527
v 0.002598557621 0.005354302935 -0.003784500994
v 0.002598559484 -0.005354322493 -0.003784521483
v 0.002639318816 -0.004655342549 -0.003050214611
v 0.00263932161 0.004655337892 -0.003050211817
v 0.002656690311 -0.00967037864 -0.01340833493
v 0.002672589384 -0.008333829232 -0.008464760147
v 0.002683372702 0.00581628643 -0.004466481507
v 0.002683379222 -0.005816308782 -0.004466520622
v 0.002698302735 0.008706840687 -0.01058405731
v 0.002742911223 0.01063298527 -0.029835172
v 0.002804704942 -0.004458623938 -0.003014460206
v 0.002816447057 0.006268640049 -0.005253034644
v 0.002818192355 -0.004463301972 -0.00302984193
v 0.002828396857 -0.01053882949 -0.03016613238
v 0.00284560211 -0.01060318109 -0.02983566001
v 0.002865371294 -0.01060318667 -0.02624990977
v 0.002865388058 0.01060317084 -0.02624949813
v 0.00291887112 0.009088648483 -0.0124749532
v 0.00297548715 -0.009123483673 -0.0110484194
v 0.003000259399 0.001416876679 -0.002242295071
v 0.003014030866 -0.01037663966 -0.0229339581
v 0.003014045767 0.01037660893 -0.02293362655
v 0.003035891335 -0.009300298057 -0.01176737342
v 0.003112940583 -0.00401148852 -0.002970388159
v 0.00311294198 0.004011493176 -0.002970388159
v 0.003138143569 -0.003102737246 -0.002586305141
v 0.003138144501 0.003102734219 -0.002586309798
v 0.003143062815 0.0005445641582 -0.002342162654
v 0.003147748299 0.01002054103 -0.01959813572
v 0.003154123202 0.007116537541 -0.007030487061
v 0.003157328814 0.009593113326 -0.01610781811
v 0.003169995733 -0.004570188932 -0.003448316827
v 0.003169999458 0.004570192657 -0.003448315896
v 0.003178416751 -0.009128998965 -0.01115061715
v 0.003228084184 0.01041058078 -0.03016118519
v 0.003240762278 0.01047627442 -0.02983136103
v 0.00325248111 0.004872977734 -0.003827707842
v 0.003252482973 -0.004872983322 -0.003827719018
v 0.003291346133 0.004480563104 -0.003488482907
v 0.003299464006 0.005015581846 -0.004028240219
v 0.003299464937 -0.005015579984 -0.004028240219
v 0.003345773555 -0.001850607339 -0.002538777888
v 0.003345774021 0.001850604778 -0.002538776025
v 0.003374902532 0.005226006731 -0.004343620501
v 0.003374909051 -0.005226016045 -0.004343642853
v 0.003376591951 -0.008856345899 -0.01029302366
v 0.0034055328 -0.0003525698849 -0.002544625662
v 0.003517481498 -0.004296155646 -0.003567701206
v 0.003521802835 0.007809748873 -0.008916492574
v 0.003524641506 -0.001055788947 -0.00264403969
v 0.003524641506 0.001055784989 -0.002644035965
v 0.003535170108 0.004281354137 -0.003574341536
v 0.003657874651 0.003557804506 -0.003235531971
v 0.003657878377 -0.003557806136 -0.003235533834
v 0.003700688016 -0.01006065588 -0.03043606877
v 0.00370555371 0.006016832776 -0.005715504289
v 0.003751187585 -0.0102253994 -0.03014746122
v 0.003761350177 0.00613843184 -0.005952494219
v 0.003763516434 -0.01029299758 -0.02981853299
v 0.003766360693 -0.00821433682 -0.008606350981
v 0.003801016137 -0.001569516142 -0.0029028235
v 0.003801342566 -1.527951099e-09 -0.002864538692
v 0.003860574216 0.008290679194 -0.01076609548
v 0.003872689791 -0.002616991987 -0.003114472143
v 0.003872692119 0.002616991987 -0.003114468418
v 0.004002083093 0.003912487067 -0.003799476661
v 0.004002084956 -0.003912484273 -0.003799472935
v 0.004047372378 -0.004994620569 -0.004766902886
v 0.004047374241 0.004994625226 -0.004766907543
v 0.004075766541 0.0008948023897 -0.003116848879
v 0.00407697726 -0.0008982197614 -0.003118057735
v 0.004149980377 0.008611340076 -0.01257076487
v 0.004156497773 0.01013904437 -0.02980193868
v 0.00425530877 -0.003172307974 -0.003668308258
v 0.00425530877 0.003172305878 -0.00366830267
v 0.004266602919 0.007093166932 -0.008158867247
v 0.004308388568 -0.01013582386 -0.02626951411
v 0.004308409523 0.01013581175 -0.02626910247
v 0.004457900301 0.00571596995 -0.006055816077
v 0.004457902163 -0.005715969019 -0.006055815145
v 0.004474218003 0.007390917279 -0.00907533057
v 0.004482942633 -0.009927082807 -0.02293723263
v 0.004482955206 0.009927050211 -0.02293690108
v 0.004482998978 -0.003574985545 -0.004117684439
v 0.004501645453 0.003562472528 -0.004131421447
v 0.004524875898 0.009053640068 -0.01610325836
v 0.004558966029 0.002292515477 -0.003725290298
v 0.004580488894 0.004645870999 -0.005007466301
v 0.004580489825 -0.004645870067 -0.005007460713
v 0.004596504383 -0.009523815475 -0.0195810739
v 0.004596508108 0.009523777291 -0.01958078705
v 0.004622108769 -0.002481869189 -0.003834261559
v 0.004731597845 -0.003401372116 -0.004303088412
v 0.004750412423 0.002877474064 -0.004091698676
v 0.004764613695 -0.002923970576 -0.004124513827
v 0.004789320286 0.007729300298 -0.01047405694
v 0.004820513539 -0.009584670886 -0.0303730201
v 0.004835949279 0.003230207833 -0.004335636273
v 0.004841584712 0.003312618937 -0.004384779371
v 0.004841587972 -0.003312621964 -0.004384777509
v 0.004856101237 0.006381926127 -0.0075051561
v 0.004910015035 0.009541975334 -0.03036593273
v 0.004964400083 0.009707255289 -0.0300793983
v 0.004971360788 0.009780278429 -0.02975228243
v 0.005034376867 -0.004210711457 -0.005178591236
v 0.005034379661 0.004210712388 -0.005178593099
v 0.005039900541 -0.0005755739985 -0.004063915461
v 0.005039900541 0.0005755736493 -0.004063915461
v 0.005050772801 0.005324414931 -0.006244048476
v 0.005050775595 -0.005324414931 -0.006244048476
v 0.005107047968 1.506123226e-09 -0.004133656621
v 0.005107140169 -0.001140265027 -0.004163231701
v 0.005107142031 0.001140264678 -0.004163233563
v 0.005111170933 -0.003445282113 -0.004777378403
v 0.005111170933 0.003445284208 -0.004777372815
v 0.005209670402 -0.00211129128 -0.004411207512
v 0.005209672265 0.002111292444 -0.004411206581
v 0.005232740194 -0.00286030164 -0.00465525873
v 0.005232742988 0.002860299544 -0.004655257799
v 0.005271345377 0.006904225796 -0.009077641182
v 0.005298849195 0.008087770082 -0.01292885374
v 0.005394043401 0.003617303679 -0.00523464568
v 0.005401654169 -0.003622292075 -0.005247541703
v 0.005401656032 0.00362229161 -0.005247536115
v 0.005438087508 0.009271458723 -0.030321436
v 0.005438088439 -0.009271460585 -0.03032143973
v 0.005485098809 0.005912533961 -0.007581645623
v 0.005485100672 -0.005912533961 -0.007581645623
v 0.005497314036 0.009435920045 -0.03003579564
v 0.005497315899 -0.009435921907 -0.03003579751
v 0.005504801869 0.009510821663 -0.02970948443
v 0.005504802801 -0.009510820732 -0.02970948443
v 0.005540627986 -0.004780826159 -0.006312789395
v 0.005540631711 0.004780826159 -0.006312786601
v 0.00558752846 -0.008259765804 -0.01464952156
v 0.005587529391 0.008259763941 -0.01464952622
v 0.005671277642 -0.002920337254 -0.005244227126
v 0.005671277642 0.002920337953 -0.005244227126
v 0.005678121932 -0.009527151473 -0.02630840428
v 0.005678147078 0.009527144022 -0.02630799823
v 0.005711521953 0.007225671783 -0.01072500832
v 0.005751026794 0.00840104837 -0.01596163958
v 0.005751026794 -0.008401046507 -0.01596164331
v 0.005760887638 0.008412748575 -0.01605878025
v 0.005770162679 -0.009472629055 -0.0247657299
v 0.005770163611 0.009472627193 -0.0247657299
v 0.005810492672 0.002071867464 -0.005143443123
v 0.005810494535 -0.002071871189 -0.005143442191
v 0.005853634328 -0.003942657262 -0.006076402031
v 0.005853638053 0.003942657262 -0.006076399237
v 0.005866358057 -0.009339602664 -0.02295408212
v 0.005866377614 0.009339570068 -0.0229537487
v 0.005872517824 -0.009326227009 -0.02281641588
v 0.005876939744 -0.001077391207 -0.005051864311
v 0.005876939744 0.001077392488 -0.005051868036
v 0.005890954286 0.0005404178519 -0.00502737239
v 0.005890958011 -0.0005404166877 -0.00502737239
v 0.005891032517 -0.008650933392 -0.01783245057
v 0.005891035311 0.008650934324 -0.01783244871
v 0.005928803235 0.009123928845 -0.0211013332
v 0.005928804167 -0.00912393257 -0.02110133134
v 0.00593505241 -0.006347856484 -0.009050225839
v 0.00593505241 0.006347862072 -0.009050223045
v 0.005938880146 0.008905227296 -0.01956028864
v 0.005938882008 -0.008905270137 -0.0195605848
v 0.006023438647 -0.005281387828 -0.007579054683
v 0.006023442373 0.005281385966 -0.007579057477
v 0.006145583466 0.007406697609 -0.01242615096
v 0.006145585328 -0.007406700402 -0.01242615283
v 0.006221808493 -0.008808668703 -0.03024474345
v 0.00629199855 -0.008969224989 -0.02996037528
v 0.006303859875 -0.009045120329 -0.02963528037
v 0.006425131112 -0.006591627374 -0.01065092534
v 0.006425131112 0.006591629237 -0.01065092999
v 0.00642572064 3.47790774e-09 -0.005681172013
v 0.006444083527 -0.003182374174 -0.006489428692
v 0.006444083527 0.003182371147 -0.006489424035
v 0.006516508758 0.006526028737 -0.03198554739
v 0.006523118354 0.005645697936 -0.009006403387
v 0.006523119286 -0.005645695142 -0.009006404318
v 0.006535364315 0.007529345341 -0.01416497491
v 0.006535364315 -0.007529346272 -0.01416497305
v 0.006648328155 -0.004517260939 -0.007851678878
v 0.006648330018 0.004517260008 -0.007851677947
v 0.006825879216 -0.002184311626 -0.006615800783
v 0.006825880148 0.002184313023 -0.006615802646
v 0.006839130074 -0.008380569518 -0.03017997928
v 0.006842760369 -0.007675459608 -0.01592535339
v 0.006842761301 0.007675462402 -0.01592535153
v 0.006921658292 -0.006707064807 -0.01235256065
v 0.006921658292 0.006707064807 -0.01235256437
v 0.006933812052 0.008310810663 -0.0301686991
v 0.006972992793 0.008752653375 -0.0261821188
v 0.006972996518 -0.008752655238 -0.0261821188
v 0.007017698139 0.008464518003 -0.02988548018
v 0.007037175819 0.008539090864 -0.02956158482
v 0.0070451051 -0.007890930399 -0.01769094355
v 0.007045106962 0.007890929468 -0.01769094355
v 0.007061805576 -0.005830674432 -0.01059848536
v 0.007061807439 0.00583067257 -0.01059848722
v 0.007100800052 -0.001108787139 -0.006727863103
v 0.007100803778 0.001108788769 -0.006727868691
v 0.007115810178 0.004759132862 -0.009053202346
v 0.0071275644 -0.003493024502 -0.007848156616
v 0.007127566263 0.003493024502 -0.007848153822
v 0.007144908421 -0.004770100117 -0.009130536579
v 0.007152777165 0.008579769172 -0.02285035141
v 0.007152777165 -0.008579767309 -0.02285034768
v 0.007153685205 0.008142561652 -0.01944486983
v 0.007153687999 -0.008142565377 -0.01944486983
v 0.007162921131 -0.005734479986 -0.03199901804
v 0.007162921131 0.005734481849 -0.03199902177
v 0.007182206959 -0.0005563274608 -0.006767610088
v 0.007182208821 0.0005563254235 -0.006767607294
v 0.007184304297 -0.008386657573 -0.02117018402
v 0.007184308022 0.008386658505 -0.02117018402
v 0.007212126628 3.055902198e-09 -0.006783540361
v 0.007380272262 -0.006776101887 -0.01411802508
v 0.007380273193 0.006776101887 -0.0141180288
v 0.007434507832 0.00485531427 -0.009915482253
v 0.007434509695 -0.004855317064 -0.009915482253
v 0.007467832416 -0.007871457376 -0.0301144626
v 0.007564015687 -0.008016700856 -0.02983210422
v 0.00759119913 -0.008087757044 -0.02950915694
v 0.00760627538 0.005896435119 -0.01231388096
v 0.007606277242 -0.005896436982 -0.01231387723
v 0.007647895254 -0.002386353677 -0.008094297722
v 0.007647897117 0.002386356238 -0.008094299585
v 0.00772251375 -0.004879325628 -0.03201068193
v 0.00772251375 0.004879323766 -0.03201068193
v 0.007746710442 3.929017112e-09 -0.007630989887
v 0.007756699808 0.006880487315 -0.01591024362
v 0.007756702602 -0.006880491972 -0.01591024175
v 0.007762558758 0.003733723192 -0.009332957678
v 0.007762560621 -0.003733720165 -0.009332953021
v 0.008022969589 0.007065161131 -0.01769857854
v 0.00802297052 -0.007065161131 -0.01769857667
v 0.00803392753 0.001209221664 -0.008310942911
v 0.008033931255 -0.001209221664 -0.008310941979
v 0.00805396121 0.007308019325 -0.03006008267
v 0.008094700985 -0.007843543775 -0.02620804682
v 0.008094701916 0.007843542844 -0.0262080431
v 0.008113125339 -0.005922044627 -0.01410289574
v 0.008113127202 0.005922040902 -0.01410289668
v 0.008145396598 -0.0006066039787 -0.008379073814
v 0.008164972998 0.007440616377 -0.02977879532
v 0.008186939172 0.007294085808 -0.01946654357
v 0.008186942898 -0.007294084877 -0.01946654543
v 0.008189080283 -0.003970041405 -0.03202041239
v 0.008189081214 0.00397004094 -0.03202040866
v 0.008201966994 0.007505428977 -0.02945706062
v 0.008225614205 -0.002909956267 -0.03228475153
v 0.008225614205 0.002909953939 -0.03228475153
v 0.008258577436 -0.007697794586 -0.02288338915
v 0.008258577436 0.007697793655 -0.02288339287
v 0.008261246607 0.007520464249 -0.02119954675
v 0.008261248469 -0.00752046518 -0.02119954862
v 0.008344929665 -0.00255822856 -0.009613444097
v 0.008344930597 0.002558225766 -0.009613445029
v 0.008359102532 0.004934509285 -0.01266410667
v 0.008359107189 -0.004934508353 -0.01266410667
v 0.008372526616 -0.003837796627 -0.01094158925
v 0.008372527547 0.003837793367 -0.01094159111
v 0.008482273668 -0.001958089881 -0.03229009733
v 0.008482273668 0.001958090579 -0.03229009733
v 0.00853903871 -0.005986370146 -0.01591590978
v 0.008539039642 0.005986366421 -0.01591590978
v 0.008554773405 -0.006740703247 -0.03002039529
v 0.008557443507 0.003016715636 -0.03202808648
v 0.008557444438 -0.003016718198 -0.03202808648
v 0.008561930619 0.0067296708 -0.03002125397
v 0.008637417108 -0.0009845074965 -0.0322933346
v 0.008637417108 0.0009845065651 -0.03229333088
v 0.008679227903 -0.006859445013 -0.02974026091
v 0.008689322509 -2.517481334e-09 -0.03229441494
v 0.008725547232 -0.006916775368 -0.02941985801
v 0.008777382784 -0.001299222116 -0.009860677645
v 0.008777385578 0.001299222349 -0.009860676713
v 0.008823520504 -0.002029931871 -0.03203363344
v 0.008823520504 0.002029930241 -0.03203363344
v 0.008848552592 0.006759950891 -0.02941409498
v 0.008855494671 -0.006132743321 -0.01771430299
v 0.008855495602 0.006132744253 -0.01771430485
v 0.008893168531 1.571606845e-09 -0.009846712463
v 0.008901971392 -0.0006521212053 -0.009938079864
v 0.008943246678 -0.003850599285 -0.01264095958
v 0.008943250403 0.003850601846 -0.01264095958
v 0.008966272697 -0.002631929005 -0.01119784173
v 0.008966274559 0.002631928073 -0.01119783893
v 0.008984355256 0.001020626631 -0.03203698993
v 0.008984356187 -0.001020626631 -0.0320369862
v 0.009038167074 -9.822542775e-10 -0.03203810751
v 0.009050314315 0.006068618968 -0.02999318764
v 0.009060581215 -0.006792028435 -0.02619653009
v 0.009060581215 0.006792029366 -0.02619653009
v 0.00906651374 0.006326328032 -0.01948365197
v 0.009066515602 -0.006326328963 -0.01948365569
v 0.0091804564 0.006521881558 -0.02121278085
v 0.009180459194 -0.006521882489 -0.02121277899
v 0.009187883697 0.006170156412 -0.02971461415
v 0.009203521535 -0.004957783967 -0.01579652727
v 0.009203521535 0.004957786761 -0.01579652913
v 0.009205769747 0.00667445641 -0.02289083414
v 0.009205770679 -0.006674453616 -0.02289083786
v 0.009243473411 0.00621771533 -0.02939598262
v 0.009402838536 -0.001337746857 -0.01142308675
v 0.009402843192 0.001337745925 -0.0114230914
v 0.009438172914 0.005439572968 -0.02998024598
v 0.009438174777 -0.00543957483 -0.02998024411
v 0.009454539977 -0.003835171228 -0.0143930763
v 0.009454540908 0.003835171228 -0.01439308096
v 0.009516851045 0.002637811471 -0.01283545978
v 0.009516851977 -0.002637814032 -0.01283546351
v 0.009585088119 -0.005525895394 -0.02970348485
v 0.009585090913 0.00552589912 -0.02970348671
v 0.009647413157 0.005564994179 -0.02938691527
v 0.00964741502 -0.005564992316 -0.02938691527
v 0.009668965824 -0.00500478968 -0.0299768392
v 0.009728113189 0.005153780803 -0.01871259883
v 0.009728115052 -0.005153778009 -0.01871259697
v 0.009820678271 -0.005081476644 -0.02970157005
v 0.009822820313 0.004683332518 -0.02997579053
v 0.009822858498 -0.004683251493 -0.02997579053
v 0.009886310436 -0.003854099195 -0.01616010815
v 0.009886310436 0.003854101291 -0.01616010256
v 0.009886541404 -0.005115429871 -0.0293866843
v 0.009902998805 1.709850039e-09 -0.01247731596
v 0.009931237437 -0.001340070157 -0.01300506014
v 0.009931241162 0.001340073766 -0.01300506294
v 0.009945617057 0.005583319813 -0.02503219992
v 0.009945617989 -0.00558331795 -0.02503219806
v 0.009998545051 -0.00544879213 -0.02201752551
v 0.009998545982 0.005448793061 -0.02201752365
v 0.01000930928 -0.005517594516 -0.02309710346
v 0.01001019496 0.005503900349 -0.0228479784
v 0.01004879456 -0.0006726823631 -0.01305797044
v 0.01004879456 0.0006726810825 -0.01305797044
v 0.01009064168 1.666194294e-09 -0.01307761297
v 0.01013055723 0.00393597316 -0.02997700311
v 0.01022475306 0.003936191089 -0.01791415364
v 0.01022475585 -0.003936189692 -0.01791415364
v 0.0102565242 -0.004291635938 -0.02939250506
v 0.01026719622 -0.003541084006 -0.02997913584
v 0.01029004529 0.003992462531 -0.02970588952
v 0.01036208775 0.004016487859 -0.02939573675
v 0.01039743144 -0.002629309194 -0.01619918458
v 0.01039743423 0.002629311988 -0.01619918831
v 0.01042844169 -0.003591049463 -0.02970961295
v 0.0104666492 -0.004053445533 -0.019644076
v 0.0104666492 0.004053444602 -0.019644076
v 0.01049919333 -0.004315745085 -0.02629683539
v 0.01049919333 0.004315748811 -0.02629683167
v 0.01050204784 -0.003612119472 -0.02940126508
v 0.01057237666 -0.002394820331 -0.02998833731
v 0.01058498211 0.002334053162 -0.02998887375
v 0.01060978696 -0.00417239964 -0.02134034596
v 0.01060978789 0.004172403365 -0.02134034224
v 0.01065242756 -0.004260310903 -0.02299446054
v 0.01065242942 0.004260308109 -0.02299446426
v 0.01068155654 -0.001796981087 -0.02999353968
v 0.01070294902 -0.002916601254 -0.02941205166
v 0.01072139014 -0.002681768034 -0.01789194904
v 0.01072139107 0.002681765007 -0.01789194904
v 0.01074848883 -0.001332630636 -0.01623052545
v 0.01074849349 0.001332628657 -0.01623052359
v 0.01074906439 0.00236604386 -0.02972383983
v 0.01080355886 0.0006185799139 -0.03000125103
v 0.01081298199 2.495653462e-09 -0.01592755131
v 0.01081979647 -8.076312949e-10 -0.03000255488
v 0.01082569454 0.002379504964 -0.02942063846
v 0.01084508374 0.0006685612607 -0.01623993553
v 0.01084508561 -0.0006685597473 -0.01623993181
v 0.0108460607 -0.001821557176 -0.02973016165
v 0.01092338935 -0.00183200126 -0.02942885272
v 0.01095940918 -0.002759624971 -0.01957492158
v 0.01095941104 0.002759621479 -0.01957491785
v 0.01096811611 0.000627189409 -0.02974026836
v 0.0109728016 0.001474545803 -0.02943360433
v 0.01098428387 -7.275957611e-10 -0.02974194475
v 0.01098751742 -0.002934298012 -0.02614430524
v 0.01098751742 0.002934299875 -0.02614431083
v 0.01104609761 0.0006310102181 -0.0294417087
v 0.01105455775 -0.00135817437 -0.01787027344
v 0.01105456147 0.001358176698 -0.01787027344
v 0.01106231473 -1.520675141e-09 -0.02944380417
v 0.01110412087 -0.002839461202 -0.02123660035
v 0.0111041218 0.002839461435 -0.02123660222
v 0.01114867162 -0.002898355713 -0.02286654338
v 0.01114867255 0.002898354316 -0.02286653966
v 0.01128389873 -0.001397011452 -0.019513648
v 0.01128389873 0.001397008658 -0.01951364987
v 0.01129810978 0.001484289183 -0.02601748705
v 0.01129811164 -0.001484288485 -0.02601748519
v 0.01135486085 8.803908714e-10 -0.01910175756
v 0.01140079927 1.135049388e-09 -0.01948723011
v 0.01142533775 0.00143708603 -0.02114691958
v 0.01142534055 -0.001437086961 -0.02114691958
v 0.01146658324 -1.28056854e-09 -0.02524798177
v 0.01146825776 -0.001466620131 -0.02275744267
v 0.01146825776 0.001466621412 -0.02275744267
v 0.01157943066 1.848093234e-09 -0.02221808583
v 0.01158140134 -1.251464709e-09 -0.02271127142
f 861 843 870
f 840 861 914
f 866 863 553
f 934 861 870
f 934 914 861
f 870 863 882
f 15 30 1
f 423 459 412
f 832 815 867
f 537 553 535
f 535 30 537
f 855 863 870
f 855 553 863
f 870 843 855
f 562 553 537
f 866 553 562
f 914 934 939
f 870 882 951
f 193 289 325
f 37 535 507
f 307 280 507
f 507 535 688
f 350 338 605
f 236 199 204
f 244 199 242
f 242 199 236
f 236 265 242
f 242 287 244
f 242 265 287
f 30 15 22
f 235 262 508
f 508 262 281
f 31 30 28
f 194 221 209
f 134 111 132
f 122 111 134
f 98 143 108
f 23 25 20
f 2 15 1
f 1 10 2
f 791 770 811
f 791 811 851
f 993 992 990
f 990 992 988
f 938 903 920
f 898 903 880
f 920 903 898
f 832 895 845
f 668 736 673
f 365 338 350
f 318 338 365
f 495 548 527
f 527 467 495
f 495 467 462
f 370 323 325
f 325 366 370
f 370 366 412
f 370 296 323
f 467 527 466
f 460 356 482
f 482 459 460
f 459 423 460
f 490 459 482
f 495 462 490
f 490 462 459
f 482 356 523
f 885 895 832
f 832 867 885
f 840 914 909
f 909 900 840
f 814 813 865
f 865 867 814
f 814 867 815
f 721 688 717
f 717 688 535
f 960 951 882
f 945 939 934
f 945 934 870
f 870 951 945
f 841 562 821
f 958 881 946
f 946 881 871
f 507 158 95
f 95 37 507
f 95 151 129
f 30 535 29
f 92 95 129
f 37 95 92
f 244 287 292
f 292 184 244
f 325 289 292
f 289 193 292
f 507 338 309
f 309 307 507
f 309 338 318
f 318 307 309
f 646 338 507
f 507 688 646
f 571 523 356
f 540 523 571
f 571 356 350
f 350 605 571
f 571 605 606
f 285 265 280
f 287 265 285
f 318 287 285
f 280 307 285
f 285 307 318
f 176 158 507
f 507 204 176
f 176 204 199
f 176 151 158
f 199 151 176
f 503 204 507
f 236 204 503
f 503 265 236
f 507 280 503
f 280 265 503
f 201 508 177
f 235 508 201
f 520 294 310
f 281 294 520
f 520 508 281
f 537 30 520
f 520 30 31
f 177 508 520
f 26 28 30
f 30 22 26
f 26 22 24
f 31 28 32
f 32 49 31
f 111 25 27
f 33 132 27
f 27 132 111
f 27 29 33
f 25 29 27
f 60 25 111
f 143 98 153
f 108 113 85
f 56 50 85
f 183 153 167
f 183 166 143
f 143 153 183
f 140 166 156
f 143 166 140
f 140 113 108
f 108 143 140
f 156 166 175
f 210 194 175
f 175 183 210
f 166 183 175
f 268 213 224
f 263 213 268
f 157 151 199
f 129 151 39
f 151 157 39
f 134 132 39
f 39 157 134
f 19 20 25
f 19 60 17
f 25 60 19
f 17 60 12
f 692 670 718
f 711 692 718
f 609 622 551
f 765 782 759
f 807 798 751
f 791 851 816
f 816 765 791
f 782 765 816
f 278 257 254
f 667 692 711
f 805 822 829
f 829 793 805
f 808 822 805
f 777 793 829
f 725 741 775
f 775 741 796
f 850 898 880
f 979 988 977
f 979 990 988
f 955 963 927
f 854 851 811
f 829 822 875
f 480 510 475
f 673 752 681
f 673 736 742
f 832 845 785
f 785 815 832
f 949 979 977
f 942 979 949
f 721 723 648
f 648 688 721
f 648 646 688
f 648 605 338
f 338 646 648
f 763 723 721
f 815 785 763
f 606 668 607
f 607 668 673
f 736 668 730
f 730 785 736
f 723 763 730
f 730 763 785
f 340 419 344
f 413 419 340
f 539 556 357
f 487 545 539
f 720 716 693
f 693 520 310
f 693 716 537
f 537 520 693
f 487 357 453
f 453 422 438
f 286 294 281
f 281 262 286
f 262 288 286
f 230 245 200
f 235 201 200
f 200 201 177
f 147 200 152
f 177 520 160
f 160 520 103
f 34 144 93
f 350 356 363
f 363 365 350
f 412 366 395
f 323 296 231
f 325 323 231
f 231 193 325
f 224 193 231
f 412 459 414
f 459 462 414
f 414 370 412
f 414 462 467
f 454 447 384
f 548 581 528
f 528 527 548
f 528 466 527
f 461 466 528
f 482 523 524
f 524 523 540
f 895 885 922
f 942 949 922
f 944 942 933
f 933 939 944
f 859 813 553
f 553 802 859
f 865 813 859
f 859 905 865
f 900 905 859
f 565 802 553
f 565 861 840
f 843 861 565
f 565 855 843
f 553 855 565
f 840 900 820
f 820 565 840
f 802 565 820
f 900 859 820
f 820 859 802
f 761 717 535
f 821 562 803
f 821 803 884
f 786 716 720
f 783 562 537
f 783 831 562
f 537 716 783
f 716 786 783
f 993 990 989
f 973 989 976
f 973 969 983
f 983 989 973
f 951 960 964
f 964 976 965
f 964 945 951
f 939 945 964
f 866 562 864
f 864 881 866
f 958 960 883
f 883 881 958
f 883 960 882
f 866 881 883
f 883 863 866
f 883 882 863
f 562 841 860
f 860 946 871
f 958 946 957
f 134 157 159
f 159 157 199
f 158 151 150
f 150 95 158
f 151 95 150
f 535 37 36
f 36 29 535
f 33 29 36
f 30 29 14
f 20 19 14
f 14 19 17
f 325 292 322
f 322 292 287
f 322 366 325
f 322 287 318
f 318 365 322
f 322 365 366
f 191 292 193
f 184 292 191
f 191 193 224
f 224 184 191
f 572 571 606
f 540 571 572
f 606 607 572
f 38 520 31
f 31 49 38
f 18 59 24
f 24 22 18
f 18 22 15
f 15 2 18
f 161 155 181
f 181 194 209
f 156 155 125
f 125 140 156
f 113 140 125
f 69 60 111
f 116 127 106
f 116 69 111
f 111 122 116
f 115 112 106
f 106 127 115
f 145 112 115
f 115 127 145
f 142 112 145
f 145 170 142
f 66 67 70
f 52 85 50
f 52 98 108
f 108 85 52
f 113 67 62
f 62 85 113
f 56 85 62
f 113 74 71
f 71 67 113
f 74 70 71
f 71 70 67
f 210 183 215
f 215 183 167
f 172 184 224
f 224 213 172
f 263 306 256
f 256 306 301
f 276 268 224
f 224 231 276
f 276 231 296
f 296 342 276
f 326 268 276
f 276 342 326
f 312 306 263
f 369 306 312
f 35 132 33
f 35 39 132
f 37 92 35
f 35 92 129
f 129 39 35
f 33 36 35
f 35 36 37
f 6 4 1
f 45 50 56
f 46 4 45
f 56 62 45
f 982 978 967
f 987 978 982
f 711 718 754
f 754 718 770
f 754 770 791
f 791 765 754
f 620 613 561
f 620 622 682
f 677 622 609
f 682 622 677
f 561 502 504
f 566 551 622
f 566 620 561
f 622 620 566
f 561 504 566
f 566 504 551
f 732 687 711
f 732 765 759
f 711 754 732
f 732 754 765
f 663 677 609
f 727 677 663
f 926 924 950
f 894 924 926
f 750 677 727
f 608 627 601
f 608 545 613
f 798 784 737
f 874 893 910
f 910 893 931
f 851 854 878
f 880 903 878
f 878 854 880
f 851 893 835
f 835 816 851
f 782 816 835
f 835 810 782
f 220 249 222
f 187 164 131
f 220 222 185
f 185 222 187
f 209 221 227
f 254 257 227
f 257 278 313
f 578 585 536
f 543 536 585
f 640 585 578
f 700 718 670
f 692 667 621
f 621 640 578
f 667 640 621
f 568 621 578
f 603 621 568
f 568 598 603
f 808 805 766
f 796 741 768
f 729 777 768
f 819 777 829
f 819 850 796
f 796 768 819
f 819 768 777
f 770 718 758
f 725 775 758
f 758 700 725
f 718 700 758
f 794 811 770
f 770 758 794
f 794 758 775
f 697 741 725
f 971 942 944
f 971 979 942
f 990 979 971
f 988 992 986
f 992 987 986
f 982 985 986
f 986 987 982
f 982 967 975
f 975 985 982
f 975 962 985
f 956 938 920
f 962 975 956
f 963 985 959
f 985 962 959
f 927 963 959
f 974 985 963
f 963 955 974
f 953 966 974
f 974 955 953
f 829 875 869
f 869 875 898
f 898 850 869
f 869 819 829
f 850 819 869
f 515 567 637
f 919 955 927
f 461 528 525
f 515 454 525
f 525 454 461
f 744 752 673
f 673 742 744
f 977 966 947
f 947 949 977
f 923 949 947
f 650 648 723
f 723 730 650
f 650 730 668
f 650 668 606
f 606 605 650
f 605 648 650
f 549 548 495
f 544 524 540
f 490 524 544
f 540 572 544
f 544 572 607
f 495 490 544
f 544 549 495
f 673 581 612
f 612 607 673
f 612 581 548
f 548 549 612
f 612 544 607
f 549 544 612
f 240 249 220
f 513 483 479
f 451 474 479
f 472 474 442
f 264 316 319
f 319 267 264
f 485 357 487
f 487 539 485
f 485 539 357
f 357 556 626
f 626 556 601
f 601 627 626
f 626 627 664
f 487 453 491
f 491 453 438
f 491 545 487
f 491 496 545
f 550 502 561
f 550 496 502
f 545 496 550
f 561 613 550
f 613 545 550
f 310 294 328
f 294 286 328
f 328 286 288
f 288 331 328
f 291 331 288
f 245 269 291
f 291 288 245
f 243 200 245
f 235 200 243
f 243 262 235
f 245 288 243
f 243 288 262
f 119 144 34
f 34 32 119
f 119 147 144
f 119 32 28
f 28 26 119
f 119 26 24
f 202 164 187
f 355 374 327
f 327 374 383
f 149 160 103
f 177 160 149
f 149 200 177
f 152 200 149
f 34 93 63
f 63 32 34
f 49 32 63
f 63 38 49
f 93 38 63
f 409 423 412
f 360 363 356
f 423 409 360
f 360 460 423
f 356 460 360
f 467 466 416
f 416 414 467
f 370 414 416
f 461 454 391
f 391 454 384
f 488 524 490
f 925 949 923
f 925 922 949
f 925 923 895
f 895 922 925
f 908 867 865
f 865 905 908
f 908 885 867
f 908 922 885
f 939 933 912
f 914 939 912
f 912 909 914
f 912 905 900
f 900 909 912
f 813 814 778
f 553 813 778
f 778 535 553
f 778 761 535
f 762 814 815
f 815 763 762
f 762 778 814
f 761 778 762
f 762 763 721
f 721 717 762
f 717 761 762
f 562 831 769
f 769 803 562
f 831 803 769
f 899 884 906
f 899 841 821
f 821 884 899
f 862 803 831
f 862 884 803
f 720 722 787
f 787 786 720
f 722 784 787
f 787 784 833
f 943 972 936
f 950 978 980
f 980 943 950
f 972 943 980
f 978 987 980
f 968 973 976
f 968 960 958
f 969 973 968
f 958 957 968
f 968 957 969
f 871 881 856
f 881 864 856
f 856 864 562
f 936 972 961
f 969 957 961
f 983 969 961
f 961 972 983
f 229 199 244
f 244 159 229
f 229 159 199
f 244 184 165
f 165 159 244
f 184 172 165
f 1 30 3
f 30 14 3
f 3 6 1
f 12 6 3
f 17 12 3
f 3 14 17
f 21 29 25
f 21 14 29
f 21 25 23
f 23 20 21
f 20 14 21
f 103 520 40
f 520 38 40
f 40 93 103
f 40 38 93
f 254 227 228
f 228 227 221
f 228 194 210
f 221 194 228
f 475 510 511
f 126 94 84
f 84 133 126
f 136 94 126
f 139 155 161
f 161 133 139
f 88 94 136
f 136 102 88
f 179 155 156
f 179 181 155
f 156 175 179
f 179 175 194
f 194 181 179
f 65 98 58
f 58 60 65
f 60 69 65
f 83 100 98
f 98 65 83
f 106 69 101
f 101 116 106
f 69 116 101
f 118 116 122
f 127 116 118
f 112 142 107
f 107 142 100
f 100 142 135
f 135 142 170
f 98 100 135
f 135 153 98
f 167 153 135
f 135 170 167
f 42 60 58
f 42 12 60
f 42 6 12
f 4 6 42
f 42 45 4
f 61 67 66
f 61 62 67
f 13 41 59
f 10 41 13
f 13 2 10
f 8 4 46
f 46 41 8
f 41 9 8
f 210 215 232
f 232 228 210
f 232 215 259
f 208 213 263
f 263 256 208
f 208 172 213
f 351 342 368
f 370 416 368
f 296 370 368
f 368 342 296
f 217 215 167
f 259 215 217
f 167 170 217
f 237 239 272
f 203 208 256
f 251 256 301
f 251 203 256
f 272 239 284
f 284 324 272
f 341 324 284
f 369 312 377
f 377 312 384
f 384 447 377
f 263 268 317
f 317 312 263
f 317 268 326
f 384 312 317
f 326 391 317
f 317 391 384
f 369 377 437
f 437 377 447
f 931 938 954
f 954 975 967
f 938 956 954
f 954 956 975
f 950 924 948
f 948 978 950
f 948 967 978
f 551 504 498
f 446 504 502
f 727 663 712
f 712 663 687
f 712 732 759
f 687 732 712
f 759 782 772
f 782 810 772
f 772 712 759
f 727 712 772
f 846 798 807
f 807 847 846
f 833 784 846
f 846 784 798
f 846 894 833
f 846 847 894
f 838 789 827
f 894 926 921
f 921 926 950
f 950 943 921
f 807 751 755
f 677 750 755
f 755 751 682
f 682 677 755
f 735 750 727
f 557 539 545
f 545 608 557
f 557 608 601
f 601 556 557
f 556 539 557
f 731 784 722
f 731 737 784
f 743 751 798
f 798 737 743
f 674 608 613
f 674 743 737
f 674 620 682
f 613 620 674
f 682 751 674
f 751 743 674
f 902 893 851
f 851 878 902
f 903 938 902
f 902 878 903
f 858 893 874
f 858 835 893
f 810 835 858
f 195 185 128
f 182 214 168
f 209 214 182
f 182 181 209
f 161 181 182
f 258 214 233
f 233 214 209
f 209 227 233
f 233 227 257
f 428 499 493
f 329 313 278
f 392 352 329
f 329 352 313
f 277 278 254
f 390 316 381
f 390 319 316
f 390 425 399
f 399 319 390
f 711 687 672
f 687 640 672
f 672 667 711
f 672 640 667
f 585 640 600
f 600 543 585
f 609 551 600
f 551 543 600
f 512 474 472
f 618 644 587
f 603 598 647
f 647 635 670
f 598 635 647
f 591 564 595
f 591 554 564
f 521 483 513
f 825 775 796
f 825 794 775
f 796 850 825
f 825 850 880
f 880 854 825
f 825 854 811
f 811 794 825
f 657 644 676
f 676 697 657
f 952 971 944
f 944 939 952
f 952 964 965
f 939 964 952
f 990 971 984
f 984 989 990
f 984 952 965
f 971 952 984
f 965 976 984
f 976 989 984
f 927 959 929
f 981 986 985
f 985 974 981
f 988 986 981
f 981 974 966
f 977 988 981
f 981 966 977
f 806 845 848
f 848 801 806
f 848 845 895
f 756 752 806
f 806 801 756
f 610 637 567
f 596 681 752
f 596 581 673
f 673 681 596
f 897 919 927
f 836 875 822
f 830 836 792
f 514 480 484
f 484 522 514
f 522 559 514
f 510 480 514
f 492 518 526
f 492 526 534
f 799 744 742
f 806 752 799
f 752 744 799
f 799 845 806
f 799 785 845
f 799 742 736
f 736 785 799
f 923 947 940
f 940 966 953
f 940 947 966
f 343 279 300
f 346 298 321
f 321 352 346
f 313 352 321
f 293 303 249
f 249 240 293
f 293 240 279
f 293 279 343
f 381 316 308
f 381 308 372
f 372 308 303
f 279 240 248
f 417 390 381
f 425 390 417
f 451 479 417
f 334 340 267
f 267 319 334
f 334 319 399
f 413 340 334
f 357 626 339
f 310 328 339
f 364 328 331
f 337 380 331
f 331 291 337
f 290 337 291
f 138 119 123
f 147 119 138
f 148 147 138
f 123 131 138
f 138 164 148
f 138 131 164
f 264 267 234
f 148 164 207
f 164 202 207
f 202 234 207
f 311 340 344
f 344 355 311
f 355 327 311
f 327 282 311
f 103 93 130
f 130 149 103
f 152 149 130
f 130 93 144
f 130 147 152
f 144 147 130
f 366 365 371
f 371 376 366
f 365 363 371
f 363 376 371
f 388 376 363
f 363 360 388
f 388 360 395
f 388 395 366
f 366 376 388
f 412 395 401
f 395 360 401
f 403 466 461
f 461 391 403
f 326 342 403
f 403 391 326
f 411 342 351
f 351 368 411
f 411 368 416
f 411 403 342
f 411 416 466
f 466 403 411
f 486 490 482
f 486 488 490
f 482 524 486
f 524 488 486
f 917 912 933
f 917 933 942
f 917 908 905
f 905 912 917
f 942 922 917
f 922 908 917
f 946 860 930
f 930 860 841
f 930 957 946
f 884 862 891
f 906 884 891
f 786 787 842
f 842 787 833
f 991 980 987
f 983 972 991
f 972 980 991
f 993 989 991
f 991 989 983
f 991 992 993
f 991 987 992
f 970 964 960
f 960 968 970
f 976 964 970
f 970 968 976
f 844 860 871
f 871 856 844
f 562 860 844
f 844 856 562
f 134 159 162
f 159 165 162
f 162 165 172
f 330 277 283
f 563 511 510
f 146 195 128
f 197 195 146
f 154 168 136
f 136 126 154
f 154 126 133
f 154 133 161
f 161 182 154
f 154 182 168
f 114 133 84
f 114 139 133
f 84 61 114
f 114 61 66
f 66 70 114
f 114 74 113
f 114 70 74
f 124 125 155
f 155 139 124
f 139 114 124
f 113 125 124
f 124 114 113
f 89 109 79
f 79 109 68
f 99 109 89
f 123 119 120
f 109 117 120
f 120 117 128
f 120 185 187
f 128 185 120
f 59 68 105
f 68 109 105
f 24 59 105
f 105 119 24
f 105 120 119
f 109 120 105
f 102 104 96
f 94 88 82
f 82 79 77
f 88 79 82
f 80 87 100
f 100 83 80
f 80 76 69
f 80 69 106
f 106 87 80
f 97 107 100
f 44 42 58
f 44 52 50
f 50 45 44
f 45 42 44
f 59 18 16
f 16 13 59
f 16 18 2
f 2 13 16
f 7 9 10
f 7 10 1
f 7 8 9
f 11 41 10
f 10 9 11
f 11 9 41
f 255 232 283
f 228 232 255
f 283 277 255
f 254 228 255
f 255 277 254
f 275 232 259
f 283 232 275
f 259 297 275
f 275 297 320
f 492 434 476
f 476 518 492
f 420 434 418
f 430 499 428
f 499 430 471
f 471 430 434
f 266 237 272
f 225 198 237
f 208 203 163
f 172 208 163
f 163 162 172
f 188 118 122
f 295 251 301
f 341 284 295
f 484 458 456
f 456 437 464
f 396 324 341
f 341 406 396
f 396 449 426
f 406 449 396
f 653 641 662
f 583 588 542
f 589 619 611
f 588 619 589
f 618 587 584
f 584 589 611
f 538 589 584
f 541 493 542
f 924 910 941
f 941 948 924
f 941 910 931
f 967 948 941
f 931 954 941
f 941 954 967
f 497 543 551
f 551 498 497
f 489 543 497
f 497 419 489
f 432 498 504
f 432 355 344
f 344 419 432
f 419 497 432
f 432 497 498
f 443 491 438
f 496 491 443
f 502 496 443
f 443 446 502
f 780 789 727
f 727 772 780
f 827 789 780
f 823 772 810
f 810 858 823
f 827 780 823
f 823 780 772
f 874 827 823
f 823 858 874
f 789 838 800
f 800 847 807
f 800 838 847
f 807 755 800
f 800 755 750
f 800 735 789
f 750 735 800
f 887 827 874
f 887 838 827
f 874 910 887
f 887 910 924
f 894 921 886
f 833 894 886
f 886 842 833
f 872 842 886
f 727 789 733
f 733 735 727
f 789 735 733
f 695 731 722
f 664 627 669
f 627 608 669
f 669 695 664
f 731 695 669
f 737 731 669
f 608 674 669
f 669 674 737
f 931 893 916
f 893 902 916
f 916 938 931
f 916 902 938
f 219 195 197
f 219 248 240
f 219 240 220
f 220 185 219
f 185 195 219
f 258 233 274
f 313 321 274
f 257 313 274
f 274 233 257
f 274 298 258
f 274 321 298
f 392 427 431
f 427 463 431
f 386 433 346
f 346 352 386
f 386 352 392
f 392 431 386
f 542 493 530
f 530 493 499
f 530 583 542
f 305 329 278
f 335 329 305
f 278 277 305
f 305 330 335
f 277 330 305
f 407 478 413
f 407 334 399
f 413 334 407
f 399 425 468
f 413 478 481
f 489 419 481
f 481 419 413
f 481 543 489
f 654 663 609
f 609 600 654
f 687 663 654
f 654 640 687
f 654 600 640
f 598 568 558
f 513 554 558
f 558 521 513
f 568 521 558
f 474 512 509
f 509 554 513
f 564 554 509
f 509 512 564
f 513 479 509
f 509 479 474
f 579 587 616
f 643 630 616
f 616 587 644
f 644 657 616
f 616 657 643
f 595 564 569
f 564 512 569
f 335 330 359
f 427 397 429
f 428 493 429
f 429 359 428
f 397 359 429
f 358 329 335
f 335 359 358
f 358 359 397
f 392 329 358
f 358 427 392
f 358 397 427
f 649 621 603
f 603 647 649
f 692 621 649
f 649 670 692
f 649 647 670
f 592 635 598
f 554 591 592
f 631 635 592
f 592 591 631
f 598 558 592
f 592 558 554
f 738 777 729
f 793 777 738
f 662 703 698
f 628 591 595
f 631 591 628
f 679 630 643
f 643 657 679
f 679 657 697
f 725 700 679
f 679 697 725
f 741 697 715
f 697 713 715
f 715 768 741
f 729 768 715
f 715 713 729
f 706 697 676
f 706 713 697
f 676 690 706
f 729 713 706
f 898 875 918
f 927 929 918
f 918 897 927
f 749 756 801
f 525 596 573
f 752 756 614
f 614 596 752
f 614 573 596
f 614 610 567
f 614 567 515
f 515 525 614
f 525 573 614
f 577 525 528
f 577 596 525
f 577 528 581
f 581 596 577
f 515 637 500
f 637 597 500
f 500 454 515
f 447 454 500
f 875 836 876
f 876 836 830
f 876 918 875
f 897 918 876
f 868 876 830
f 897 876 868
f 804 822 808
f 808 766 804
f 804 836 822
f 804 792 836
f 818 868 830
f 651 597 637
f 651 559 522
f 651 500 597
f 560 526 518
f 580 534 560
f 560 534 526
f 343 300 333
f 333 389 343
f 333 298 346
f 333 300 298
f 253 222 249
f 249 303 253
f 303 308 253
f 343 389 398
f 303 293 349
f 349 372 303
f 349 293 343
f 343 398 349
f 349 398 372
f 270 300 279
f 279 248 270
f 457 479 483
f 457 417 479
f 425 417 457
f 457 468 425
f 451 417 408
f 372 398 408
f 381 372 408
f 408 417 381
f 694 339 626
f 720 693 694
f 694 693 310
f 310 339 694
f 694 626 664
f 664 695 694
f 694 722 720
f 694 695 722
f 331 380 367
f 367 364 331
f 362 339 328
f 328 364 362
f 357 339 362
f 380 337 382
f 382 327 383
f 383 446 382
f 446 443 382
f 438 380 382
f 382 443 438
f 261 282 302
f 302 282 327
f 180 147 148
f 180 269 245
f 273 311 282
f 267 340 273
f 340 311 273
f 404 409 412
f 412 401 404
f 404 360 409
f 404 401 360
f 841 899 913
f 913 930 841
f 913 899 906
f 957 930 935
f 936 961 935
f 935 961 957
f 930 913 935
f 935 906 936
f 935 913 906
f 896 891 872
f 872 886 896
f 896 886 921
f 786 842 837
f 831 783 837
f 837 783 786
f 837 862 831
f 837 842 872
f 872 891 837
f 837 891 862
f 259 217 246
f 246 297 259
f 348 330 283
f 283 275 348
f 348 275 320
f 348 320 345
f 110 146 128
f 128 117 110
f 109 99 110
f 110 117 109
f 110 99 89
f 141 102 136
f 141 104 102
f 141 110 104
f 146 110 141
f 77 79 75
f 75 79 68
f 84 94 51
f 94 53 51
f 121 131 123
f 123 120 121
f 187 131 121
f 121 120 187
f 86 79 88
f 86 88 102
f 89 79 86
f 86 110 89
f 73 83 65
f 73 65 69
f 69 76 73
f 76 80 78
f 83 73 78
f 78 73 76
f 100 87 91
f 91 97 100
f 106 112 91
f 91 87 106
f 112 107 91
f 107 97 91
f 54 44 58
f 52 44 54
f 58 98 54
f 98 52 54
f 4 8 5
f 8 7 5
f 1 4 5
f 5 7 1
f 441 440 426
f 441 449 475
f 426 449 441
f 420 424 436
f 436 434 420
f 436 476 434
f 424 440 436
f 440 476 436
f 402 418 434
f 434 430 402
f 345 418 402
f 402 348 345
f 499 471 506
f 492 534 506
f 506 434 492
f 506 471 434
f 387 424 420
f 387 440 424
f 324 396 387
f 426 440 387
f 387 396 426
f 378 418 345
f 345 353 378
f 420 418 378
f 378 387 420
f 353 387 378
f 171 170 145
f 239 237 186
f 127 118 186
f 118 188 186
f 134 162 137
f 162 163 137
f 137 122 134
f 137 163 122
f 203 251 190
f 251 188 190
f 190 163 203
f 122 163 190
f 190 188 122
f 251 295 241
f 241 188 251
f 241 284 239
f 241 295 284
f 239 186 241
f 241 186 188
f 406 415 445
f 347 406 341
f 347 415 406
f 341 295 347
f 347 295 301
f 415 347 354
f 354 347 301
f 354 306 369
f 301 306 354
f 421 456 458
f 458 415 421
f 415 354 421
f 421 354 369
f 369 437 421
f 437 456 421
f 588 641 638
f 638 619 588
f 641 653 638
f 633 641 588
f 588 583 633
f 517 538 547
f 538 584 547
f 547 584 587
f 547 587 579
f 579 533 547
f 576 589 538
f 538 541 576
f 588 589 576
f 542 588 576
f 576 541 542
f 504 446 444
f 444 432 504
f 383 374 444
f 444 446 383
f 444 374 355
f 355 432 444
f 847 838 889
f 838 887 889
f 894 847 889
f 889 924 894
f 889 887 924
f 465 463 517
f 465 431 463
f 583 530 546
f 546 534 580
f 470 407 399
f 399 468 470
f 478 407 470
f 483 521 501
f 501 457 483
f 468 457 501
f 501 470 468
f 478 470 501
f 516 481 478
f 478 501 516
f 536 543 516
f 543 481 516
f 582 574 579
f 579 616 582
f 582 616 595
f 595 569 582
f 582 569 574
f 574 569 532
f 579 574 532
f 532 533 579
f 494 429 493
f 517 463 494
f 494 463 427
f 427 429 494
f 494 538 517
f 494 541 538
f 493 541 494
f 618 584 634
f 634 656 618
f 634 584 611
f 676 644 666
f 666 644 618
f 618 656 666
f 678 666 656
f 793 738 746
f 746 805 793
f 746 766 805
f 624 628 595
f 595 616 624
f 624 616 630
f 630 679 660
f 660 624 630
f 628 624 660
f 631 628 660
f 660 679 700
f 660 635 631
f 660 700 670
f 670 635 660
f 920 898 928
f 898 918 928
f 928 918 929
f 928 956 920
f 962 956 928
f 928 959 962
f 928 929 959
f 753 651 764
f 764 651 760
f 852 817 834
f 953 955 937
f 955 919 937
f 890 848 895
f 895 923 890
f 923 888 890
f 824 873 857
f 911 873 888
f 923 940 911
f 911 888 923
f 734 726 637
f 637 749 734
f 734 749 801
f 756 749 625
f 625 614 756
f 625 749 637
f 637 610 625
f 610 614 625
f 745 739 792
f 745 804 766
f 792 804 745
f 792 739 776
f 767 818 776
f 830 792 776
f 776 818 830
f 868 818 849
f 879 897 849
f 897 868 849
f 795 818 767
f 795 849 818
f 719 651 753
f 719 701 651
f 500 651 552
f 464 437 552
f 552 456 464
f 552 437 447
f 447 500 552
f 484 456 552
f 552 522 484
f 552 651 522
f 373 333 346
f 389 333 373
f 346 433 373
f 433 435 373
f 373 435 389
f 260 308 316
f 260 253 308
f 260 316 264
f 264 234 260
f 216 214 258
f 168 214 216
f 248 219 218
f 218 212 248
f 218 205 212
f 218 219 197
f 197 205 218
f 451 408 448
f 448 408 398
f 448 398 442
f 448 474 451
f 448 442 474
f 336 337 261
f 261 302 336
f 336 382 337
f 327 382 336
f 336 302 327
f 261 337 223
f 178 245 230
f 178 180 245
f 230 200 178
f 200 147 178
f 147 180 178
f 906 891 907
f 891 896 907
f 907 896 921
f 907 921 943
f 936 906 907
f 907 943 936
f 271 246 250
f 250 266 271
f 237 266 250
f 250 225 237
f 211 246 217
f 211 217 170
f 225 250 211
f 211 250 246
f 170 171 211
f 393 430 428
f 428 359 393
f 393 402 430
f 348 402 393
f 393 359 330
f 330 348 393
f 563 594 570
f 511 563 570
f 518 511 570
f 570 560 518
f 146 141 169
f 169 141 136
f 169 216 212
f 136 168 169
f 168 216 169
f 64 68 59
f 84 51 48
f 43 51 53
f 43 48 51
f 102 96 90
f 90 86 102
f 110 86 90
f 90 96 104
f 104 110 90
f 81 80 83
f 83 78 81
f 81 78 80
f 473 476 440
f 440 441 473
f 473 511 518
f 518 476 473
f 475 511 473
f 473 441 475
f 314 353 345
f 345 320 314
f 320 297 314
f 297 246 299
f 299 314 297
f 304 314 299
f 299 246 271
f 271 266 299
f 324 387 315
f 304 299 315
f 315 299 266
f 272 324 315
f 315 266 272
f 237 198 196
f 196 186 237
f 196 198 145
f 145 127 196
f 127 186 196
f 450 449 406
f 406 445 450
f 475 449 450
f 450 480 475
f 450 445 480
f 480 445 452
f 452 445 415
f 452 415 458
f 484 480 452
f 452 458 484
f 431 465 455
f 433 386 455
f 455 386 431
f 529 530 499
f 529 546 530
f 499 506 529
f 529 506 534
f 534 546 529
f 531 501 521
f 531 568 578
f 531 521 568
f 578 536 531
f 536 516 531
f 531 516 501
f 477 532 519
f 519 512 472
f 472 477 519
f 519 569 512
f 519 532 569
f 389 435 439
f 442 398 439
f 439 398 389
f 472 442 439
f 439 477 472
f 439 435 477
f 642 634 611
f 611 619 642
f 642 638 653
f 619 638 642
f 708 678 704
f 704 746 708
f 708 746 738
f 689 690 676
f 676 666 689
f 689 706 690
f 747 746 704
f 704 699 747
f 766 746 747
f 790 764 817
f 790 817 852
f 753 764 790
f 901 937 904
f 904 937 919
f 904 897 879
f 919 897 904
f 852 901 877
f 877 853 852
f 901 904 877
f 879 853 877
f 877 904 879
f 857 834 809
f 809 824 857
f 788 779 726
f 788 734 801
f 726 734 788
f 888 873 828
f 873 824 828
f 824 779 828
f 779 788 828
f 932 911 940
f 932 940 953
f 953 937 932
f 849 795 826
f 826 853 879
f 879 849 826
f 797 826 774
f 774 826 795
f 651 701 671
f 659 671 701
f 586 546 580
f 583 546 586
f 559 651 599
f 599 593 559
f 651 593 599
f 629 594 590
f 590 594 563
f 222 253 226
f 253 260 226
f 187 222 226
f 226 260 234
f 226 202 187
f 226 234 202
f 248 212 247
f 212 216 247
f 247 270 248
f 298 300 247
f 300 270 247
f 258 298 247
f 247 216 258
f 375 367 380
f 364 367 375
f 375 362 364
f 405 380 438
f 357 362 361
f 361 453 357
f 422 453 361
f 173 223 180
f 148 207 173
f 173 180 148
f 252 173 207
f 223 173 252
f 261 223 252
f 252 282 261
f 252 273 282
f 180 223 189
f 189 290 291
f 337 290 189
f 189 223 337
f 189 291 269
f 269 180 189
f 192 211 171
f 145 198 192
f 192 171 145
f 594 604 602
f 602 570 594
f 146 169 174
f 197 146 174
f 174 205 197
f 212 205 174
f 174 169 212
f 72 75 68
f 68 64 72
f 77 75 72
f 72 82 77
f 94 82 72
f 72 64 94
f 57 64 59
f 59 41 57
f 57 53 94
f 94 64 57
f 41 43 57
f 57 43 53
f 62 61 47
f 48 43 47
f 46 45 47
f 47 45 62
f 47 41 46
f 47 43 41
f 353 314 332
f 332 314 304
f 304 315 332
f 332 387 353
f 332 315 387
f 433 455 469
f 469 435 433
f 477 435 469
f 469 532 477
f 661 642 653
f 661 653 662
f 661 699 704
f 662 698 661
f 698 699 661
f 704 678 661
f 634 642 661
f 656 634 661
f 661 678 656
f 710 738 729
f 710 708 738
f 729 706 710
f 706 689 710
f 702 699 698
f 702 747 699
f 748 698 703
f 703 745 748
f 748 702 698
f 747 702 748
f 748 745 766
f 766 747 748
f 753 790 771
f 771 719 753
f 812 826 797
f 853 826 812
f 797 771 812
f 812 771 790
f 852 853 812
f 812 790 852
f 781 834 817
f 781 809 834
f 817 764 781
f 781 764 760
f 637 726 773
f 726 779 773
f 773 651 637
f 760 651 773
f 773 781 760
f 809 781 773
f 824 809 773
f 773 779 824
f 888 828 839
f 848 890 839
f 839 890 888
f 801 848 839
f 839 788 801
f 839 828 788
f 911 932 892
f 892 901 852
f 857 873 892
f 873 911 892
f 892 834 857
f 852 834 892
f 757 774 724
f 724 701 757
f 701 719 757
f 719 771 757
f 797 774 757
f 757 771 797
f 680 701 724
f 680 659 701
f 671 659 636
f 636 593 651
f 651 671 636
f 767 714 740
f 724 774 740
f 740 795 767
f 740 774 795
f 728 714 767
f 767 776 728
f 728 776 739
f 739 709 728
f 705 728 709
f 714 728 705
f 555 590 563
f 593 590 555
f 559 593 555
f 555 563 510
f 510 514 555
f 555 514 559
f 380 394 385
f 385 361 362
f 394 361 385
f 400 394 380
f 380 405 400
f 400 361 394
f 405 361 400
f 438 422 410
f 410 405 438
f 422 361 410
f 410 361 405
f 238 252 207
f 238 234 267
f 238 207 234
f 267 273 238
f 273 252 238
f 206 192 198
f 211 192 206
f 198 225 206
f 225 211 206
f 575 602 580
f 570 602 575
f 580 560 575
f 560 570 575
f 55 47 61
f 48 47 55
f 55 61 84
f 84 48 55
f 505 455 465
f 505 469 455
f 505 465 517
f 533 532 505
f 532 469 505
f 517 547 505
f 505 547 533
f 685 689 666
f 685 710 689
f 666 678 685
f 678 708 685
f 708 710 685
f 901 892 915
f 915 892 932
f 915 937 901
f 915 932 937
f 632 659 629
f 632 636 659
f 629 590 632
f 632 590 593
f 593 636 632
f 583 586 617
f 617 633 583
f 617 655 633
f 652 703 662
f 633 655 652
f 662 641 652
f 641 633 652
f 684 705 691
f 691 705 709
f 709 686 691
f 658 639 680
f 714 705 696
f 696 680 724
f 696 658 680
f 724 740 696
f 696 740 714
f 362 375 379
f 379 385 362
f 379 375 380
f 380 385 379
f 659 680 623
f 680 639 623
f 629 659 623
f 623 639 604
f 623 594 629
f 623 604 594
f 703 652 683
f 683 652 655
f 655 617 665
f 665 683 655
f 686 683 665
f 684 691 665
f 665 691 686
f 645 617 586
f 645 665 617
f 658 696 675
f 675 645 658
f 675 705 684
f 675 696 705
f 684 665 675
f 665 645 675
f 703 683 707
f 707 745 703
f 739 745 707
f 707 709 739
f 707 686 709
f 707 683 686
f 615 645 586
f 615 586 580
f 580 602 615
f 615 602 604
f 604 639 615
f 639 658 615
f 658 645 615
