v -0.009353900328 0.0002011897741 -0.002205533907
v -0.009288795292 -0.001023764024 -0.002206892706
v -0.009278602898 0.00151789852 -0.002207106911
v -0.009085735306 -0.002267032396 -0.00221112743
v -0.009052101523 0.002817214932 -0.002211825922
v -0.008728688583 -0.003536559176 -0.002218564972
v -0.008691847324 0.004044705071 -0.002219333313
v -0.008549986407 0.0001860129414 0.01916116104
v -0.008541753516 0.0005515905796 0.01940764673
v -0.008529076353 0.0007598274387 0.01955952868
v -0.008481824771 -0.0008089583134 0.01988630369
v -0.008425896987 0.001558740507 0.02013959922
v -0.008362345397 -0.001467219903 0.02036173828
v -0.008282927796 -0.001783621148 0.02058803663
v -0.008233767003 -0.004758674186 -0.002228883095
v -0.008233767003 0.005161052104 -0.002228885889
v -0.008175231516 -0.002141170204 0.02084141597
v -0.008175231516 0.002541170456 0.02084141225
v -0.00803155452 0.00294005638 0.02114953473
v -0.007896544412 -0.002861833666 0.02143905871
v -0.007808174938 -0.005588875618 -0.002237753943
v -0.007599178702 0.006352594122 -0.002242114395
v -0.007545191795 0.003949999809 0.02219254337
v -0.007545189932 -0.003549998626 0.02219253965
v -0.007497219369 0.006519963499 -0.00224423781
v -0.007261930034 -0.003150001634 0.02280000225
v -0.007089506835 -0.006736839656 -0.002252734266
v -0.006913738325 0.00487617217 0.02354670316
v -0.006913736463 -0.004476173315 0.0235467013
v -0.00686782226 -0.007044011261 -0.002257362008
v -0.006745617837 0.007607765961 -0.002259902656
v -0.006668797694 -0.0065107462 0.02204542048
v -0.0066687949 0.006913125049 0.02204541676
v -0.006667321548 0.0069056754 0.02211620286
v -0.006666828878 -0.00649667019 0.02213992365
v -0.006665279157 0.006861084141 0.02221413143
v -0.00666506961 -0.006451062392 0.02222419344
v -0.006607423536 0.0077838297 -0.002262787893
v -0.006272032857 0.007396043278 0.02246922441
v -0.006261397153 0.007472494617 0.02230053395
v -0.006223499775 -0.007139227353 0.0207806658
v -0.006151296198 -0.005297888536 0.02518175915
v -0.006151296198 0.005697889719 0.02518175729
v -0.006063336506 -0.008013274521 -0.002274125814
v -0.005881337449 0.008606574498 -0.002277923748
v -0.005655983463 -0.008427198976 -0.002282623202
v -0.005637083203 -0.007771460805 0.02289672382
v -0.005615426227 -0.007855720818 0.02273621783
v -0.005281020887 -0.00826607272 0.0209050104
v -0.005274900235 -0.005996790249 0.02706119604
v -0.005274900235 0.006396791432 0.02706119791
v -0.005251794122 0.00859207008 0.02317822538
v -0.005221981555 0.008680848405 0.02302281931
v -0.005105410703 0.009314287454 -0.002294098958
v -0.004844046198 -0.009112880565 -0.002299547195
v -0.004844045267 0.00951526314 -0.002299547195
v -0.004613921046 -0.008798434399 0.02368724532
v -0.00456727948 -0.008894090541 0.02354003116
v -0.004486398771 -0.009358245879 -0.002307001501
v -0.00448639784 0.009760626592 -0.002307002433
v -0.004369228147 0.006925527938 0.02900342084
v -0.004304127768 -0.006557264831 0.02914302237
v -0.004284030758 -0.009197664447 0.02098091319
v -0.004256943241 0.009621278383 0.0216674041
v -0.004181122407 -0.009153312072 0.0240672268
v -0.004181120545 0.009555691853 0.0240672268
v -0.004120164551 -0.009253062308 0.02392513864
v -0.00412016362 0.009655442089 0.02392513491
v -0.004117853008 0.0001999995438 -0.004575038329
v -0.004115371965 0.009981038049 -0.00231473241
v -0.004115371034 -0.009578660131 -0.002314737067
v -0.004050813615 -0.0004378428566 -0.004575038329
v -0.004050812684 0.0008378422935 -0.004575042054
v -0.003965661861 -0.009642080404 -0.002317856066
v -0.003884315258 0.010065699 -0.002319547348
v -0.003857455915 -0.009441701695 0.02416543849
v -0.003852623282 0.001447806135 -0.004575038329
v -0.003852622351 -0.001047807746 -0.004575042054
v -0.003727284959 -0.009676937945 -0.002322823741
v -0.003655544249 0.01007428765 -0.002324318513
v -0.003531944705 0.002003236907 -0.004575040191
v -0.003531943774 -0.00160323747 -0.004575038329
v -0.003456732957 -0.009673078544 0.02472997457
v -0.003456732025 0.01007545553 0.02472997457
v -0.003455945989 0.01025399938 -0.001481633633
v -0.003455024911 -0.009851953015 -0.001480401494
v -0.00339865475 0.007322768215 0.0310848169
v -0.00339865475 -0.003150000703 0.03108482063
v -0.003398652887 -0.006922766101 0.0310848169
v -0.003260664409 0.007366795558 0.03135218099
v -0.003102793125 -0.002079857048 -0.004575043917
v -0.003102793125 0.002479858696 -0.004575042054
v -0.003060922725 -0.007025382947 0.0316663906
v -0.002967711305 -0.009999163449 -0.0007728077471
v -0.002965673571 0.01040206291 -0.0007696477696
v -0.002870311728 -0.01001905557 -0.0008342321962
v -0.002868923126 0.01042219345 -0.0008306810632
v -0.002850379562 0.01046873908 0.02342626452
v -0.002849414712 0.01044137869 0.02521433122
v -0.002849395154 -0.01006681006 0.02342616208
v -0.002774195513 0.01045484561 0.02551262267
v -0.002774194581 -0.01005246863 0.02551261894
v -0.002769732615 -0.01001203712 -0.0008934820071
v -0.002769049024 0.01041573938 -0.0008895713836
v -0.002652751049 -0.01013492513 0.02544786036
v -0.002624614863 0.003149998374 0.03217841685
v -0.002624613931 0.007532842923 0.03217841685
v -0.002624612069 -0.007132843137 0.03217841685
v -0.002618617145 0.0002000013192 -0.005065318197
v -0.002584338887 -0.0001261326834 -0.00506532006
v -0.002584338887 0.0005261360784 -0.005065321922
v -0.002583927242 0.00285683712 -0.004575040191
v -0.002583926311 -0.002456837799 -0.004575043917
v -0.002483005403 0.0008380132494 -0.005065316334
v -0.002483002609 -0.0004380124738 -0.00506532006
v -0.002319038613 -0.0007220102707 -0.005065316334
v -0.002319038613 0.001122011105 -0.00506532006
v -0.002167816041 -0.007216229569 0.03255991265
v -0.002145024715 0.01073780656 0.02637202665
v -0.002145023784 -0.01033542678 0.02637202293
v -0.002099611564 0.001365708536 -0.005065314472
v -0.002099609701 -0.0009657096816 -0.005065318197
v -0.002077816753 0.007629240397 0.03262172267
v -0.002026470145 -0.01014455874 0.0004084827378
v -0.002026253147 0.01054760162 0.0004128552973
v -0.002023841953 -0.01016695239 0.0005911244079
v -0.002022709465 0.01057623141 0.0006925724447
v -0.00201605889 -0.01017323416 0.000911636278
v -0.001952940365 -0.002549999394 -0.004650164396
v -0.001952752238 0.002950000577 -0.00465018861
v -0.001834308496 0.00155846437 -0.005065321922
v -0.001834307564 -0.001158460858 -0.005065321922
v -0.001808984904 0.002950000111 -0.004667434841
v -0.001805492444 -0.002549999394 -0.004667812958
v -0.001713242149 0.01091399509 0.02675944567
v -0.001694609178 0.01082928944 0.027371509
v -0.001694608247 -0.01042691059 0.02737150528
v -0.001675998559 0.01082734391 0.0274163112
v -0.001675996697 -0.01042496413 0.02741631866
v -0.001649442827 -0.01048190147 0.02733943425
v -0.001615395537 0.01091559976 0.02731683105
v -0.001583187142 -0.01053716522 0.02729634009
v -0.001534732059 -0.001291845576 -0.005065316334
v -0.001534728566 0.001691845362 -0.00506532006
v -0.00153462938 0.01096738968 0.02726671845
v -0.001519521466 0.01093919482 0.02741304971
v -0.001519520767 -0.01053681597 0.0274130553
v -0.001467487775 0.01099253353 0.02722783573
v -0.001467485446 -0.01059015375 0.02722783759
v -0.001453561243 0.007689133752 0.03295683116
v -0.001453561243 -0.003150000237 0.03295683116
v -0.001453559846 -0.007289134432 0.03295683116
v -0.001441922504 0.01099845767 0.0272136014
v -0.001441920409 -0.01059607789 0.02721360326
v -0.001432919409 -0.0102222478 0.001941466704
v -0.001432917081 0.01062462945 0.001941466704
v -0.00140610314 0.01097761281 0.02739592083
v -0.001406102441 -0.01057523303 0.02739591897
v -0.001360447146 0.01089210715 0.0275558047
v -0.001360445749 -0.0104897283 0.02755579911
v -0.001216501929 -0.01063887775 0.0271800831
v -0.00121650123 0.01104125846 0.02718007937
v -0.001213966403 0.001760023064 -0.005065318197
v -0.001213964541 -0.001360023394 -0.005065318197
v -0.001186452806 -0.01061630063 0.0273628924
v -0.001186451409 0.01101867948 0.02736289054
v -0.00116825616 0.01098261494 0.02744748443
v -0.001148749841 -0.0105289584 0.02752345987
v -0.00105000264 0.0001999982051 -0.005231186748
v -0.001050000777 0.007699999958 0.03310000151
v -0.0008860365488 -0.001360025955 -0.005065318197
v -0.0008860360831 0.00176002318 -0.005065318197
v -0.0008268761449 -0.01067689899 0.0272568129
v -0.0007978710346 -0.01063052379 0.02738294192
v -0.0007755358238 -0.007294976618 0.03316893429
v -0.0007644814905 0.00294999918 -0.004702985287
v -0.0007613608614 -0.002549998462 -0.004702862352
v -0.0005652718246 0.001691843499 -0.00506532006
v -0.0005652704276 -0.001291843597 -0.005065321922
v -0.0004946584813 0.01111304201 0.02705021389
v -0.0004946570843 -0.01071066316 0.02705021203
v -0.000474200584 -0.01070791855 0.02713778801
v -0.000473966822 0.01111037564 0.02713759802
v -0.0004637502134 0.01110299863 0.02718086168
v -0.0004537305795 0.01109153498 0.02722339518
v -0.0004537296481 -0.01068915613 0.02722339705
v -0.0002656916622 0.001558463322 -0.005065321922
v -0.0002656911965 -0.001158462022 -0.00506532006
v -7.812655531e-05 0.007636763155 0.03324918821
v -7.812608965e-05 -0.003149999771 0.03324918821
v -3.906898201e-07 0.001365709468 -0.005065316334
v -3.890600056e-07 -0.0009657087503 -0.00506532006
v 6.781658158e-05 -0.007216230035 0.03324938565
v 0.0001118050423 0.01063955296 0.004447828513
v 0.0001118059736 -0.01023717225 0.004447830375
v 0.0002117999829 0.01110212412 0.02692680992
v 0.0002119478304 -0.01069975458 0.02692683786
v 0.0002181718592 0.01103950758 0.02727385238
v 0.0002181888558 -0.01063714176 0.02727384865
v 0.0002190377563 0.001122010057 -0.005065318197
v 0.0002190391533 -0.0007220087573 -0.005065321922
v 0.0003736373037 -0.0102263093 0.004379684106
v 0.0003736375365 0.01062868722 0.004379683174
v 0.0003830029164 0.0008380148793 -0.005065321922
v 0.0003830038477 -0.000438012823 -0.005065318197
v 0.000484338263 0.0005261325277 -0.005065314472
v 0.0004843389615 -0.0001261336729 -0.00506532006
v 0.0005186161725 0.0001999991073 -0.005065318197
v 0.0005576056428 0.00752567919 0.0332083106
v 0.00070313178 -0.007092223968 0.03318349272
v 0.001002792618 0.002479858696 -0.004575040191
v 0.001002793317 -0.002079857979 -0.004575042054
v 0.001160662971 0.007366795558 0.03306585923
v 0.001187203568 -0.01016921923 0.003423172981
v 0.001187205082 0.01057159901 0.003423172981
v 0.001308293664 0.003149999771 0.03301437944
v 0.00130829378 -0.00691958284 0.03301437944
v 0.001487867325 0.01094603911 0.02684871107
v 0.001512504299 -0.01053910423 0.02684826031
v 0.001559757395 -0.01053031255 0.02684735693
v 0.001559913857 0.01093266066 0.02684735879
v 0.001564047998 -0.01051877905 0.02705322951
v 0.00156414567 0.01092160493 0.02705030888
v 0.001568199368 0.01086995192 0.02724484354
v 0.001570722787 -0.01040872 0.02737333439
v 0.001570799504 0.01081311703 0.02736956626
v 0.001643498545 -0.0101136528 0.003090128303
v 0.001643499243 0.01051603258 0.003090128303
v 0.001750629512 -0.01009806804 0.003030722961
v 0.001950122532 0.007073814049 0.03270304948
v 0.002204127144 -0.006557266228 0.03253386542
v 0.002223523799 0.01042264793 0.002702947706
v 0.002315043239 -0.01000355557 0.002624988556
v 0.002496976638 0.009433639236 -0.002452570945
v 0.002496976871 -0.009031257592 -0.002452571876
v 0.00257896143 0.01035486069 0.00236620754
v 0.0026383691 -0.009940421209 0.002299783751
v 0.003440003842 -0.009769093245 0.0006452640519
v 0.003440004075 0.01017147023 0.0006452668458
v 0.003470253199 -0.009898378514 0.02253257111
v 0.003470402677 0.01030071266 0.02253256924
v 0.003470916767 0.01014628354 0.0004502637312
v 0.003470974742 -0.009743801318 0.0004498101771
v 0.00348818046 0.01009478793 0.0002873921767
v 0.004192478955 -0.00951275602 0.0007064007223
v 0.004203755409 0.01004898734 0.02251728065
v 0.00421526935 -0.009430145845 0.0003648847342
v 0.00431308616 0.01001165342 0.01959278993
v 0.004321542569 -0.009606205858 0.01959242858
v 0.004611185752 0.007644897792 -0.002496644855
v 0.004611186218 -0.007242517546 -0.002496645786
v 0.00476383185 -0.009425196797 0.02250560559
v 0.00491988752 0.009608962573 0.0008512390777
v 0.004925353453 -0.009203956462 0.0008096136153
v 0.004940830171 -0.009119690396 0.000469321385
v 0.004941522609 0.009531764314 0.0004930747673
v 0.004956246819 0.009591971524 0.0008563054726
v 0.005425463896 0.006944022141 -0.00251361914
v 0.005425465293 -0.00654164236 -0.002513620071
v 0.005469825584 -0.009104558267 0.02249088883
v 0.005469958764 0.009506867267 0.02249088697
v 0.005561857019 0.009461149573 0.02249108069
v 0.00556281535 -0.009058288299 0.02249111049
v 0.005580949131 -0.008868657053 0.0009416015819
v 0.005634895992 0.009240657091 0.0009488211945
v 0.005653297063 -0.009012117982 0.0224954877
v 0.005653298926 0.009414496832 0.02249547094
v 0.005653594155 -0.009012309834 0.02248705737
v 0.005653596483 0.009414689615 0.0224870611
v 0.005662177689 -0.009040946141 0.01983946376
v 0.005662179086 0.009443326853 0.01983946748
v 0.005832930561 -0.008722972125 0.0009751105681
v 0.00587748969 0.009098567069 0.0009809806943
v 0.00600099517 -0.008863018826 0.0214500688
v 0.006030530203 0.009246974252 0.02153877541
v 0.006123145111 -0.008752318099 0.02258627489
v 0.006123822648 0.009154304862 0.02258644253
v 0.006131353322 0.008645668626 0.0003586411476
v 0.006131354719 -0.008243288845 0.000358639285
v 0.006154199596 0.006154542323 -0.002528807148
v 0.00615420239 -0.005752163939 -0.002528809942
v 0.006177986972 -0.008507291786 0.001020116732
v 0.006194188725 0.008899064735 0.001022210345
v 0.006194189191 -0.008496687748 0.001022207551
v 0.006198493298 -0.00841949787 0.0006680618972
v 0.006198494695 0.00882187672 0.0006680628285
v 0.006259368733 -0.00845357962 0.001030584797
v 0.006300670095 0.008828273043 0.001035879366
v 0.006303454749 -0.008686762303 0.01940814406
v 0.006362564862 0.009057330899 0.01959485747
v 0.006369660608 0.008781370707 0.001044681296
v 0.006520757452 -0.008541155607 0.02188750915
v 0.006583999842 0.008897257969 0.02202819288
v 0.006719815545 0.008221079595 0.0004412345588
v 0.006719816476 -0.007818701677 0.0004412271082
v 0.006787816063 0.005286832806 -0.002542016096
v 0.006787817925 -0.00488445349 -0.002542016096
v 0.00678933505 -0.008075363934 0.001097316854
v 0.006861688569 -0.008338114247 0.01986522414
v 0.006956140511 0.008676002733 0.02014452405
v 0.006960626692 0.008344268426 0.00111833401
v 0.007039107382 -0.007878774777 0.001127870753
v 0.007128271274 0.008207899518 0.001138631254
v 0.00724887196 0.007779527921 0.0005136271939
v 0.007248873822 -0.007377147209 0.0005136271939
v 0.00726549793 0.008382613771 0.01637509279
v 0.007317987271 0.004352295306 -0.002553069964
v 0.007317988202 -0.00394991599 -0.002553069964
v 0.007344258018 -0.007535364013 0.0008178120479
v 0.00734425988 0.00793774426 0.0008178073913
v 0.007345781662 -0.00761964405 0.001164547168
v 0.007358417846 0.008010902442 0.001166036353
v 0.007358417846 -0.007608522195 0.001166038215
v 0.007448487915 -0.007897634991 0.01961306855
v 0.007548991591 -0.007783744019 0.02626738325
v 0.007549108006 0.008186020888 0.02626736648
v 0.007553013042 -0.007763559464 0.02646035887
v 0.007554585114 0.008145771921 0.02652998827
v 0.007558095269 -0.007659786846 0.02670406364
v 0.007559750229 0.008009457029 0.02677788958
v 0.007562533952 -0.007469974924 0.0269170031
v 0.007562650368 0.007872254588 0.02691698261
v 0.007567914203 0.00782106258 0.001190512441
v 0.007579526864 0.008191326633 0.02001949772
v 0.007579747587 -0.00775731029 0.02626302093
v 0.007581472397 -0.006317742635 0.02782499045
v 0.007581569254 0.006720015313 0.02782498673
v 0.007597439922 -0.005240477622 0.0285906624
v 0.00759752281 0.005642741453 0.02859065682
v 0.007598535158 0.005564430263 0.02863939106
v 0.007664895616 0.008085244335 0.02625107579
v 0.00773601979 -0.007619225886 0.02624124661
v 0.007737747394 -0.002960830927 -0.002561820671
v 0.007737747394 0.003363210708 -0.002561816946
v 0.007750464603 -0.007566476706 0.01464146096
v 0.007802064531 -0.007558898535 0.02623225003
v 0.007818637416 -0.007543568965 0.026230013
v 0.007856160402 -0.007508579176 0.02622497827
v 0.007886588573 -0.007108832244 0.00122681167
v 0.00793200545 0.007834958844 0.01545230392
v 0.00795356743 0.007818209007 0.02621213719
v 0.00797826983 -0.007014571689 0.001237030141
v 0.008027797565 0.007745623123 0.02620258182
v 0.008033629507 0.007665108424 0.01199282333
v 0.008041579276 -0.001930192695 -0.002568153664
v 0.008041579276 0.002332575852 -0.002568153664
v 0.008043505251 0.00773063628 0.02619756572
v 0.008044298738 0.007729248144 0.02620048448
v 0.008065050468 0.007708546706 0.02619786374
v 0.008068764582 -0.007346231956 0.01848624647
v 0.008084660396 0.00768885063 0.02619540133
v 0.008090650663 0.007298050914 0.001249422319
v 0.008143860847 0.0072404081 0.001255234703
v 0.008156307042 -0.004306231625 0.02857900597
v 0.008156372234 0.004708491731 0.02857900597
v 0.008225489408 -0.0008715511067 -0.002571984194
v 0.008225489408 0.001273928792 -0.002571985126
v 0.008234994486 -0.006361307576 0.0006431993097
v 0.008234996349 0.00676368596 0.0006431974471
v 0.008235314861 0.007583170664 0.01911863498
v 0.008253725246 -0.007146939635 0.01560764294
v 0.008281083778 0.007484465372 0.02617166378
v 0.008287061006 0.0002011884644 -0.002573267557
v 0.008316507563 -0.003128390294 0.0288392473
v 0.008316552266 0.003530652728 0.0288392473
v 0.008339336142 -0.007018858567 0.02616496943
v 0.008352376521 -0.006965101697 0.01175369602
v 0.00835500285 0.006899330765 0.0009406916797
v 0.008355004713 -0.006496950518 0.000940692611
v 0.008384214714 -0.006566140335 0.001281016506
v 0.008387034759 -0.006562829018 0.001281312667
v 0.008387034759 0.00696520973 0.001281312667
v 0.008447680622 0.007368903607 0.01651348732
v 0.008519744501 -0.006880629342 0.01890247315
v 0.008524861187 0.006860148627 0.02679387853
v 0.008525300771 -0.006457228214 0.02679383196
v 0.00854376331 -0.005975461565 0.0006820559502
v 0.00854376331 0.006377837621 0.0006820540875
v 0.00860626623 0.007152472157 0.01292035077
v 0.008631909266 -0.003250550944 0.0285690967
v 0.008631955832 0.003652805462 0.0285690967
v 0.008633645251 0.006969534792 0.008651865646
v 0.008646415547 0.006983458064 0.02648011781
v 0.008646870032 -0.006580515299 0.02648007311
v 0.008654864505 -0.002046077978 0.02883219346
v 0.00865489617 0.002448335057 0.02883219533
v 0.008671987802 0.007018169388 0.02630541474
v 0.008672449738 -0.006615219638 0.02630537003
v 0.008672753349 0.007032969501 0.02613042668
v 0.008672950789 0.006614136975 0.001310891472
v 0.008673215285 -0.006630012766 0.02613038383
v 0.008735725656 -0.006182849873 0.02677569911
v 0.008735816926 0.006585109048 0.02677568793
v 0.008743140846 -0.006653780583 0.01586978883
v 0.008850518614 -0.005976465996 0.001328590326
v 0.008859887719 -0.0009307826404 0.02882792428
v 0.00885990262 0.00133303483 0.02882791869
v 0.008869731799 -0.006500974763 0.01751035638
v 0.008870542049 -0.006434022449 0.0116846757
v 0.008897524327 -0.006461429875 0.01787681878
v 0.008923457935 -0.006426401436 0.01804576628
v 0.008928570896 0.0002011259785 0.02882648632
v 0.008951058611 0.006814866327 0.01689954288
v 0.008982682601 -0.002128528897 0.02856178582
v 0.008982714266 0.002530781087 0.02856178582
v 0.009067790583 0.00561645627 0.0007455516607
v 0.009067792445 -0.005214076024 0.000745552592
v 0.009068164974 -0.005666951183 0.001349502243
v 0.009081015363 -0.006252954714 0.01369053498
v 0.009120849892 -0.005588100757 0.001354420558
v 0.009125001729 -0.006208723877 0.01416051202
v 0.009133905172 -0.005568304099 0.00135563314
v 0.009135434404 -0.006197717041 0.01427574456
v 0.009152684361 0.006556732114 0.01303865574
v 0.009153950959 -0.005537707359 0.001357484609
v 0.009157255292 -0.006172716618 0.0143797975
v 0.00917481631 -0.006089695729 0.01183314994
v 0.009175149724 0.006324040703 0.008345288225
v 0.009187765419 -0.005965702701 0.009448792785
v 0.009188661352 -0.006077524275 0.01195636205
v 0.009195225313 -0.0009723157855 0.02855735458
v 0.00919524394 0.001374561805 0.02855735272
v 0.009206909686 0.005726606119 0.001035099849
v 0.009206911549 -0.005324226804 0.001035101712
v 0.009213224053 -0.006055784412 0.01804465055
v 0.009213473648 -0.005939373747 0.009558445774
v 0.009254509583 0.005782727152 0.001366630197
v 0.009254511446 -0.005380350165 0.001366623677
v 0.009266430512 0.0002011252509 0.02855586633
v 0.009332301095 0.006360558327 0.01498592179
v 0.009368482977 0.006311582401 0.0154340677
v 0.009369365871 0.00556528382 0.02675739303
v 0.009369367734 -0.005162904039 0.02675738931
v 0.009385511279 0.006287023891 0.01565235853
v 0.009394345805 0.00627396768 0.01575959474
v 0.009435046464 -0.005824372638 0.01437445451
v 0.009440470487 0.006091241259 0.01035871357
v 0.009467221797 -0.005608549807 0.009552303702
v 0.00949129276 0.006142990198 0.013528293
v 0.009502891451 0.006033557002 0.01086265221
v 0.009503277019 0.006129053421 0.01364693511
v 0.009506259114 0.006122664548 0.01578159258
v 0.009522873908 -0.005237922538 0.02644344978
v 0.009523484856 0.005640584975 0.02644139901
v 0.009533269331 0.006004798692 0.01111338381
v 0.009548723698 0.005989736412 0.0112377964
v 0.009561035782 -0.005255030002 0.02626561932
v 0.009561035782 0.005657408386 0.02626561746
v 0.00956957601 0.00566054415 0.02608911321
v 0.00957015343 -0.005257058889 0.02608968318
v 0.009630857036 0.005713955499 0.008501770906
v 0.00965385139 0.005845655687 0.01126331929
v 0.009659051895 0.005712042563 0.009083813056
v 0.009682061151 0.005710743368 0.009581182152
v 0.009688530117 -0.005308044609 0.009725690819
v 0.009688530117 0.005710423924 0.009725694545
v 0.009735075757 0.004356258549 0.0008253157139
v 0.009735614061 -0.003953907639 0.0008262060583
v 0.009742371738 -0.005306296516 0.01105494145
v 0.009742371738 0.00570867816 0.01105494052
v 0.009771633893 -0.00532246381 0.01633821428
v 0.009771633893 0.005724844057 0.0163381435
v 0.009785452858 0.005721718073 0.01577647403
v 0.009803168476 -0.005312363617 0.01436673105
v 0.009847918525 0.004093869124 0.0008394997567
v 0.009848462418 -0.003691701218 0.0008405102417
v 0.009886492044 0.004441301338 0.001106003299
v 0.009887171909 -0.004038941581 0.001106874086
v 0.009945834056 0.004487411585 0.001427387819
v 0.009946657345 -0.004085000139 0.001428235322
v 0.009954821318 -0.003767849877 0.02680768445
v 0.009954854846 0.004170120694 0.02680769376
v 0.009972462431 0.004116255324 0.02681043558
v 0.01000873186 -0.003599630203 0.02681636252
v 0.01010485552 -0.004016650375 0.02612723224
v 0.01014116779 0.004152550362 0.02649518661
v 0.01017791219 -0.003633757122 0.02650108375
v 0.01019502245 0.004149931483 0.02614004351
v 0.01019966602 -0.004068638198 0.005517065059
v 0.01019966602 0.004471018445 0.005517064594
v 0.0102288872 0.003017191775 0.0008921204135
v 0.01022890583 -0.002614919562 0.0008921641856
v 0.01023180224 -0.003630220424 0.02614590898
v 0.01038784347 0.003077641129 0.001164315268
v 0.01038787141 -0.002675399184 0.001164360903
v 0.010391647 0.002342780586 0.02690109052
v 0.01039447077 -0.001922540716 0.02690184675
v 0.01045602001 0.003112924751 0.001475932077
v 0.01045604795 -0.002710682806 0.001475980505
v 0.01048391685 -0.004062349908 0.01103337947
v 0.01048391685 0.004464730155 0.01103337482
v 0.01049434394 -0.001135365688 0.02692977339
v 0.01049435697 0.00153760775 0.02692977525
v 0.01049932465 -0.004078191239 0.01606982201
v 0.01049932465 0.004480569623 0.01606982015
v 0.01053876802 -0.001221542596 0.0009436570108
v 0.0105392877 0.001623837161 0.0009444989264
v 0.01055246033 0.001533479546 0.0009469846264
v 0.01055835746 0.0002011869801 0.02694937028
v 0.0105624795 0.002355136443 0.02658605762
v 0.0105653014 -0.00193474174 0.02658682689
v 0.01061406732 0.002347001107 0.02623128146
v 0.0106168557 -0.001926628291 0.02623205632
v 0.01064720005 0.000201189192 0.0009659603238
v 0.01070242375 -0.001254661474 0.001209352165
v 0.01070307754 0.001656918786 0.00121017918
v 0.0107283555 0.000201190036 0.02663493901
v 0.01075478457 -0.002703633159 0.005483665038
v 0.01075478457 0.003106014337 0.005483662244
v 0.01077710278 -0.001275337068 0.001513438299
v 0.01077790558 0.001677541295 0.001514229923
v 0.01077821292 0.0002011882607 0.02628099732
v 0.01081273519 0.0002011873876 0.001229036599
v 0.0108733885 -0.002719847951 0.01953350753
v 0.01087339036 0.003122229129 0.01953350939
v 0.01089023985 0.0002011903562 0.001530035399
v 0.01106519252 0.00310684694 0.01101250667
v 0.01106519438 -0.002704466227 0.01101250667
v 0.01107760333 0.003119681962 0.0160556566
v 0.01107760519 -0.002717303578 0.01605565287
v 0.0111110732 0.001671081176 0.005460549612
v 0.01111107506 -0.001268703258 0.00546055194
v 0.01124050468 -0.001278655138 0.01953266934
v 0.01124050468 0.001681037713 0.01953266747
v 0.01141663268 0.0002011905308 0.01905811392
v 0.01144452021 -0.001270628418 0.01099675335
v 0.01144452021 0.001673007733 0.01099675428
v 0.01146204397 -0.001277728705 0.01604510657
v 0.01146204397 0.001680106274 0.0160451103
v 0.01147164404 0.0002011892502 0.008828649297
v 0.01158022322 0.0002011876204 0.0109905228
v 0.01163516007 0.0002011873585 0.01479995344
f 234 80 104
f 128 155 181
f 478 519 449
f 449 519 495
f 103 79 235
f 96 79 103
f 235 243 103
f 156 127 180
f 125 97 127
f 104 97 125
f 170 152 175
f 86 79 96
f 74 79 86
f 86 100 74
f 120 100 86
f 93 90 89
f 48 49 58
f 44 49 48
f 214 155 126
f 155 128 126
f 126 128 96
f 96 103 126
f 176 80 234
f 265 271 290
f 389 387 449
f 472 381 473
f 529 478 524
f 515 529 519
f 519 478 515
f 515 478 529
f 508 522 526
f 532 528 526
f 235 285 255
f 298 285 309
f 489 522 508
f 508 470 489
f 123 118 152
f 84 98 64
f 8 9 1
f 1 11 8
f 8 11 9
f 196 156 180
f 194 156 196
f 316 331 324
f 324 331 341
f 248 271 253
f 246 271 248
f 248 241 246
f 215 228 127
f 127 156 215
f 215 196 228
f 471 354 433
f 231 321 326
f 474 471 477
f 477 487 474
f 181 155 197
f 155 195 197
f 223 196 198
f 151 152 170
f 151 123 152
f 106 93 108
f 108 118 106
f 105 100 120
f 105 83 100
f 100 83 76
f 94 86 96
f 83 89 65
f 65 76 83
f 87 52 61
f 41 48 32
f 32 15 21
f 6 15 32
f 57 48 58
f 58 65 57
f 57 65 89
f 202 155 214
f 202 195 155
f 214 197 202
f 202 197 195
f 124 103 243
f 243 126 124
f 124 126 103
f 112 70 131
f 131 70 130
f 235 79 177
f 177 179 235
f 258 250 294
f 256 286 234
f 265 286 256
f 310 294 286
f 387 389 362
f 448 478 449
f 449 387 448
f 476 444 472
f 472 473 476
f 478 448 476
f 476 448 444
f 500 478 476
f 476 486 500
f 476 473 486
f 502 478 500
f 502 524 478
f 525 528 532
f 532 529 525
f 529 524 525
f 525 502 512
f 524 502 525
f 512 503 525
f 449 495 462
f 495 463 462
f 462 389 449
f 462 463 389
f 500 486 493
f 235 255 247
f 247 243 235
f 245 243 247
f 245 247 254
f 254 247 255
f 254 249 245
f 299 298 314
f 314 315 299
f 309 285 295
f 295 251 259
f 468 489 470
f 513 496 504
f 496 356 504
f 504 356 363
f 363 357 504
f 479 470 508
f 428 470 479
f 479 490 428
f 520 528 514
f 482 496 505
f 505 496 513
f 107 93 106
f 107 90 93
f 106 118 107
f 118 123 107
f 150 151 170
f 123 151 150
f 36 61 39
f 61 52 39
f 53 52 66
f 52 87 66
f 66 90 84
f 66 87 90
f 36 23 28
f 28 43 36
f 12 11 13
f 13 18 12
f 36 39 34
f 14 18 13
f 13 4 14
f 19 28 23
f 26 28 19
f 19 23 36
f 36 34 19
f 19 34 33
f 241 248 239
f 228 232 239
f 239 248 253
f 127 228 239
f 239 125 127
f 261 271 246
f 246 223 261
f 223 316 261
f 316 262 261
f 290 271 275
f 275 293 290
f 271 261 275
f 275 261 262
f 316 293 275
f 203 156 194
f 203 215 156
f 194 196 203
f 196 215 203
f 328 433 354
f 328 231 326
f 354 231 328
f 424 470 428
f 424 468 470
f 514 528 483
f 477 475 483
f 483 520 514
f 475 520 483
f 492 487 501
f 501 487 477
f 477 483 501
f 501 483 503
f 230 231 402
f 210 225 217
f 321 231 217
f 217 231 230
f 230 216 217
f 222 225 199
f 199 197 222
f 199 174 186
f 240 249 252
f 181 197 182
f 182 199 186
f 197 199 182
f 214 126 227
f 227 197 214
f 184 198 196
f 318 316 223
f 318 331 316
f 341 331 318
f 320 318 226
f 365 381 230
f 230 386 365
f 486 473 405
f 405 473 381
f 381 365 405
f 405 365 386
f 118 108 147
f 152 118 147
f 170 175 189
f 175 190 189
f 189 167 170
f 209 226 189
f 189 226 198
f 193 190 175
f 193 225 210
f 210 209 193
f 193 199 225
f 209 189 193
f 193 189 190
f 175 174 193
f 174 199 193
f 102 105 120
f 83 105 102
f 67 65 58
f 76 65 67
f 37 42 29
f 29 42 26
f 88 89 90
f 90 87 88
f 88 87 61
f 88 62 89
f 61 28 88
f 88 28 26
f 35 32 48
f 35 62 37
f 35 37 20
f 89 62 47
f 47 57 89
f 48 57 47
f 47 35 48
f 62 35 47
f 50 42 37
f 37 62 50
f 26 42 50
f 50 88 26
f 62 88 50
f 70 112 60
f 98 70 60
f 60 64 98
f 92 112 131
f 92 60 112
f 75 130 70
f 80 176 75
f 75 104 80
f 75 97 104
f 54 92 45
f 45 92 81
f 45 64 54
f 53 64 45
f 16 33 22
f 31 33 40
f 40 52 53
f 40 39 52
f 40 34 39
f 33 34 40
f 16 22 77
f 1 3 69
f 69 3 73
f 63 67 58
f 76 67 63
f 100 76 59
f 76 63 59
f 59 63 55
f 55 63 46
f 46 63 58
f 46 49 44
f 58 49 46
f 134 177 79
f 134 79 74
f 74 129 134
f 532 526 531
f 527 529 532
f 532 531 527
f 516 505 513
f 521 516 511
f 211 250 258
f 211 191 234
f 234 250 211
f 234 286 278
f 286 294 278
f 278 250 234
f 278 294 250
f 257 256 253
f 265 256 257
f 253 271 257
f 271 265 257
f 280 211 258
f 191 211 280
f 528 525 523
f 523 525 503
f 523 483 528
f 503 483 523
f 491 463 495
f 507 493 499
f 500 493 507
f 507 503 512
f 507 501 503
f 507 499 492
f 492 501 507
f 507 502 500
f 512 502 507
f 477 471 443
f 471 433 443
f 326 321 376
f 376 328 326
f 464 461 436
f 459 490 464
f 464 436 459
f 317 225 222
f 222 315 317
f 338 366 317
f 317 366 388
f 260 222 252
f 260 315 222
f 292 315 276
f 276 274 292
f 292 299 315
f 292 274 289
f 289 299 292
f 252 249 270
f 270 260 252
f 274 260 270
f 249 254 270
f 289 274 270
f 264 255 285
f 264 254 255
f 289 270 264
f 264 270 254
f 302 298 309
f 314 298 302
f 302 335 314
f 281 259 212
f 212 192 281
f 259 251 212
f 212 251 235
f 235 192 212
f 235 179 188
f 188 192 235
f 309 295 305
f 305 295 259
f 305 259 281
f 281 358 305
f 279 285 235
f 279 295 285
f 235 251 279
f 251 295 279
f 489 468 485
f 482 505 485
f 345 207 356
f 345 496 482
f 345 356 496
f 498 357 497
f 498 504 357
f 513 504 498
f 518 479 508
f 490 479 518
f 508 526 518
f 518 526 528
f 528 520 518
f 522 489 510
f 510 516 522
f 505 516 510
f 489 485 510
f 510 485 505
f 119 135 98
f 84 90 136
f 68 64 53
f 53 66 68
f 84 64 68
f 68 66 84
f 51 28 61
f 43 28 51
f 51 61 36
f 36 43 51
f 26 19 17
f 20 29 17
f 17 29 26
f 17 19 18
f 18 14 17
f 6 32 17
f 17 4 6
f 17 14 4
f 17 35 20
f 32 35 17
f 241 239 221
f 221 223 246
f 246 241 221
f 253 256 242
f 242 239 253
f 234 104 242
f 104 125 242
f 125 239 242
f 123 150 146
f 146 107 123
f 162 153 148
f 180 127 162
f 127 97 162
f 97 153 162
f 85 135 148
f 97 75 85
f 85 75 70
f 85 70 98
f 98 135 85
f 301 310 286
f 286 291 301
f 273 286 265
f 273 265 290
f 290 293 300
f 316 324 300
f 300 293 316
f 360 324 341
f 362 373 360
f 360 340 324
f 373 340 360
f 316 275 277
f 404 474 487
f 397 386 230
f 230 402 397
f 252 222 220
f 220 240 252
f 249 240 238
f 238 243 245
f 245 249 238
f 240 220 238
f 238 126 243
f 238 227 126
f 183 196 180
f 183 184 196
f 180 162 183
f 198 184 185
f 185 189 198
f 167 189 185
f 387 362 351
f 351 318 387
f 362 360 351
f 213 226 209
f 320 226 213
f 230 320 213
f 213 216 230
f 213 209 210
f 210 217 213
f 213 217 216
f 223 198 224
f 198 226 224
f 224 318 223
f 224 226 318
f 355 381 472
f 230 381 355
f 140 102 120
f 158 175 152
f 152 147 158
f 20 37 24
f 24 29 20
f 37 29 24
f 121 92 131
f 56 92 54
f 60 92 56
f 54 64 56
f 64 60 56
f 131 130 144
f 178 176 234
f 81 31 38
f 38 45 81
f 53 45 38
f 38 40 53
f 31 40 38
f 25 31 81
f 81 77 25
f 25 77 22
f 25 33 31
f 25 22 33
f 16 77 7
f 7 77 73
f 18 19 7
f 7 33 16
f 7 19 33
f 1 9 10
f 10 3 1
f 12 3 10
f 9 11 10
f 11 12 10
f 1 69 2
f 2 11 1
f 2 4 13
f 13 11 2
f 6 4 72
f 4 2 72
f 72 2 69
f 71 129 74
f 74 100 71
f 100 59 71
f 281 192 201
f 191 280 200
f 307 204 200
f 208 357 363
f 363 356 208
f 356 207 208
f 481 497 346
f 497 357 346
f 530 516 521
f 521 527 530
f 530 527 531
f 522 516 530
f 530 526 522
f 530 531 526
f 506 497 481
f 506 498 497
f 513 498 506
f 506 516 513
f 506 511 516
f 517 495 519
f 517 491 495
f 519 529 517
f 529 527 517
f 418 372 414
f 463 491 460
f 304 359 280
f 304 280 258
f 258 294 304
f 294 310 304
f 280 359 296
f 296 406 307
f 307 200 296
f 296 200 280
f 378 296 359
f 406 296 378
f 391 461 450
f 388 366 391
f 391 366 398
f 490 518 494
f 494 518 520
f 464 490 494
f 494 461 464
f 450 461 494
f 494 475 450
f 494 520 475
f 447 391 450
f 388 391 447
f 450 475 447
f 447 475 477
f 477 443 447
f 388 447 384
f 384 447 443
f 384 317 388
f 433 328 392
f 328 376 392
f 392 443 433
f 392 384 443
f 376 384 392
f 415 424 428
f 455 459 438
f 455 415 428
f 428 490 455
f 490 459 455
f 408 455 395
f 395 455 438
f 395 424 408
f 339 313 309
f 370 417 399
f 371 417 370
f 314 335 361
f 336 317 332
f 325 315 314
f 314 332 325
f 325 317 315
f 332 317 325
f 225 317 319
f 321 217 319
f 319 217 225
f 317 384 319
f 319 376 321
f 319 384 376
f 268 274 276
f 309 313 311
f 311 302 309
f 335 302 311
f 311 361 335
f 313 361 311
f 99 98 84
f 99 119 98
f 236 239 232
f 244 256 234
f 234 242 244
f 244 242 256
f 167 185 166
f 166 185 184
f 184 183 166
f 166 183 162
f 170 167 159
f 148 135 145
f 135 119 145
f 107 146 138
f 90 107 138
f 138 136 90
f 97 85 95
f 95 85 148
f 95 153 97
f 148 153 95
f 286 273 283
f 283 273 290
f 290 300 283
f 306 301 291
f 291 300 306
f 306 300 324
f 324 340 306
f 306 340 301
f 323 310 312
f 312 344 323
f 340 344 312
f 269 275 262
f 269 277 275
f 421 487 492
f 421 404 487
f 421 499 429
f 492 499 421
f 471 474 380
f 474 404 380
f 380 354 471
f 380 404 364
f 380 231 354
f 380 364 231
f 422 405 386
f 386 397 422
f 422 402 429
f 422 397 402
f 429 499 422
f 499 493 422
f 422 493 486
f 486 405 422
f 219 238 220
f 197 227 219
f 222 197 219
f 219 220 222
f 229 238 233
f 227 238 229
f 233 219 229
f 229 219 227
f 341 318 343
f 318 348 343
f 349 348 318
f 318 351 349
f 230 329 327
f 387 318 383
f 383 318 320
f 383 393 444
f 383 448 387
f 444 448 383
f 432 393 329
f 444 393 432
f 472 444 432
f 432 355 472
f 142 140 120
f 147 140 142
f 83 102 137
f 102 140 137
f 137 89 83
f 93 89 137
f 168 174 175
f 186 174 173
f 173 182 186
f 181 182 173
f 117 77 81
f 81 92 117
f 92 121 117
f 133 144 130
f 163 144 133
f 130 75 133
f 133 75 176
f 176 163 133
f 234 191 187
f 187 178 234
f 172 163 176
f 176 178 172
f 73 3 5
f 5 7 73
f 18 7 5
f 5 12 18
f 5 3 12
f 78 15 6
f 6 72 78
f 21 15 78
f 205 308 201
f 334 204 307
f 481 346 334
f 334 465 481
f 204 334 206
f 206 334 346
f 357 208 206
f 206 346 357
f 406 378 423
f 509 527 521
f 509 517 527
f 427 423 390
f 352 310 323
f 425 436 461
f 461 391 425
f 416 436 398
f 416 411 436
f 410 455 408
f 408 424 410
f 424 395 369
f 369 395 371
f 369 358 377
f 377 424 369
f 371 370 369
f 309 305 369
f 369 305 358
f 426 395 438
f 371 395 426
f 438 459 420
f 420 426 438
f 417 426 420
f 420 459 436
f 436 411 420
f 399 417 420
f 398 366 374
f 399 420 409
f 409 420 411
f 367 339 399
f 313 339 367
f 367 361 313
f 338 317 337
f 317 336 337
f 263 260 274
f 274 268 263
f 315 260 263
f 276 315 266
f 266 268 276
f 315 263 266
f 266 263 268
f 285 298 287
f 287 284 285
f 298 299 287
f 299 284 287
f 272 264 285
f 289 264 272
f 468 424 407
f 407 424 377
f 333 345 482
f 308 205 333
f 207 345 333
f 333 205 207
f 101 99 84
f 119 99 101
f 84 136 101
f 218 221 239
f 239 236 218
f 218 236 232
f 218 232 228
f 228 196 218
f 218 196 223
f 223 221 218
f 167 166 157
f 157 159 167
f 170 159 157
f 148 145 157
f 157 145 146
f 157 162 148
f 157 166 162
f 157 150 170
f 157 146 150
f 146 145 141
f 136 138 141
f 141 138 146
f 141 145 119
f 119 101 141
f 141 101 136
f 288 291 286
f 286 283 288
f 288 300 291
f 288 283 300
f 373 414 379
f 379 340 373
f 379 344 340
f 323 344 379
f 379 352 323
f 301 340 303
f 340 312 303
f 310 301 303
f 303 312 310
f 316 277 267
f 277 269 267
f 267 262 316
f 267 269 262
f 404 421 396
f 396 402 231
f 429 402 396
f 396 421 429
f 233 238 237
f 237 219 233
f 238 219 237
f 347 351 360
f 347 349 351
f 348 349 347
f 347 343 348
f 347 360 341
f 341 343 347
f 322 320 230
f 230 327 322
f 329 393 375
f 375 327 329
f 375 322 327
f 393 383 375
f 375 383 320
f 320 322 375
f 330 432 329
f 355 432 330
f 330 329 230
f 230 355 330
f 149 158 147
f 147 142 149
f 86 94 149
f 120 86 149
f 149 142 120
f 139 108 93
f 93 137 139
f 139 137 140
f 139 147 108
f 139 140 147
f 175 158 160
f 160 168 175
f 174 168 165
f 165 173 174
f 165 160 158
f 168 160 165
f 27 32 21
f 91 46 44
f 55 46 91
f 91 59 55
f 110 78 72
f 110 72 69
f 307 406 457
f 457 334 307
f 465 334 457
f 368 378 359
f 368 423 378
f 368 390 423
f 372 390 368
f 368 304 310
f 359 304 368
f 310 352 368
f 521 511 488
f 488 509 521
f 406 423 467
f 467 457 406
f 465 457 467
f 491 517 480
f 517 509 480
f 427 491 480
f 427 390 453
f 437 372 418
f 437 390 372
f 418 414 437
f 389 463 442
f 389 431 403
f 403 362 389
f 403 373 362
f 403 414 373
f 401 425 391
f 436 425 401
f 411 416 413
f 415 455 412
f 455 410 412
f 424 415 412
f 412 410 424
f 342 369 370
f 399 339 342
f 342 370 399
f 342 339 309
f 309 369 342
f 419 417 371
f 371 426 419
f 419 426 417
f 398 374 394
f 394 409 411
f 399 409 394
f 411 413 394
f 394 367 399
f 361 367 394
f 394 416 398
f 394 413 416
f 314 361 350
f 350 366 338
f 350 374 366
f 361 394 350
f 350 394 374
f 338 337 350
f 350 337 336
f 350 332 314
f 350 336 332
f 285 284 282
f 282 272 285
f 289 272 282
f 282 299 289
f 282 284 299
f 297 407 377
f 308 407 297
f 297 358 281
f 377 358 297
f 281 201 297
f 201 308 297
f 308 333 458
f 468 407 458
f 458 407 308
f 382 379 414
f 385 396 231
f 404 396 385
f 231 364 385
f 364 404 385
f 173 165 161
f 158 149 161
f 161 165 158
f 161 128 181
f 181 173 161
f 96 128 161
f 21 78 82
f 82 27 21
f 82 91 44
f 113 71 59
f 59 91 113
f 111 69 73
f 73 77 111
f 91 82 116
f 372 368 353
f 353 368 352
f 353 414 372
f 353 382 414
f 352 379 353
f 379 382 353
f 511 506 484
f 484 488 511
f 484 506 481
f 484 467 488
f 481 465 484
f 465 467 484
f 509 488 469
f 488 467 469
f 469 480 509
f 427 480 469
f 469 423 427
f 469 467 423
f 451 491 427
f 427 453 451
f 451 453 491
f 414 439 446
f 456 460 491
f 390 437 456
f 389 442 435
f 431 442 441
f 441 442 463
f 463 460 441
f 414 403 430
f 430 403 431
f 430 439 414
f 431 441 430
f 430 441 439
f 400 391 398
f 400 401 391
f 398 436 400
f 436 401 400
f 466 333 482
f 466 458 333
f 482 485 466
f 466 485 468
f 468 458 466
f 96 161 154
f 154 161 149
f 154 94 96
f 154 149 94
f 30 82 44
f 27 82 30
f 44 48 30
f 30 48 41
f 41 32 30
f 32 27 30
f 109 110 69
f 69 111 109
f 77 117 114
f 114 111 77
f 131 144 169
f 169 201 192
f 169 200 204
f 178 187 169
f 169 188 179
f 192 188 169
f 169 208 207
f 207 205 169
f 169 205 201
f 191 200 169
f 169 187 191
f 110 109 169
f 169 109 111
f 169 121 131
f 169 117 121
f 169 114 117
f 111 114 169
f 169 172 178
f 204 206 169
f 169 206 208
f 169 144 163
f 163 172 169
f 179 177 171
f 171 169 179
f 177 134 164
f 164 171 177
f 169 171 164
f 132 113 91
f 71 113 132
f 129 71 132
f 115 82 78
f 115 116 82
f 78 110 115
f 110 169 115
f 115 169 116
f 491 453 454
f 454 456 491
f 454 453 390
f 390 456 454
f 440 456 437
f 440 437 414
f 434 442 431
f 434 435 442
f 434 431 389
f 389 435 434
f 91 116 122
f 122 132 91
f 116 169 122
f 169 132 122
f 143 134 129
f 129 132 143
f 143 164 134
f 169 164 143
f 143 132 169
f 414 446 445
f 445 440 414
f 460 456 452
f 456 440 452
f 440 445 452
f 452 445 446
f 452 446 439
f 452 441 460
f 439 441 452
