v -0.008769148029 -2.355717697e-06 -0.02590003051
v -0.008729944006 -6.130123802e-05 -0.03121057339
v -0.008699947037 0.0009790383046 -0.02594994009
v -0.00869942084 -0.000983714941 -0.02594993636
v -0.008698260412 0.0007123702089 -0.03119671904
v -0.008678212762 -0.0009112262633 -0.03118849918
v -0.00858316943 0.001540602301 -0.03114725091
v -0.008536199108 -0.001772552379 -0.03112788871
v -0.00852194149 -0.001920728711 -0.02883902937
v -0.008503799327 0.00194592413 -0.02607937716
v -0.008502751589 -0.001950494363 -0.02607937157
v -0.008372136392 0.002414821647 -0.03105600923
v -0.008344794624 -0.002506006509 -0.03104465827
v -0.008300663903 -0.0004000867775 0.001509865164
v -0.008300528862 -0.0004448442778 0.001508458285
v -0.008299731649 -0.0005207229406 0.001505649416
v -0.00829599984 -0.0006723043625 0.001498379512
v -0.008285385557 -0.0004474086745 0.001585308346
v -0.008285195567 -0.0003993116843 0.001586311497
v -0.008284562267 -0.0005237269215 0.001582463621
v -0.008280762471 -0.0006761784316 0.001575077185
v -0.008280012757 -0.0009745414136 0.001476973295
v -0.008277821355 -0.0003991738486 0.00160213653
v -0.008264557458 -0.0009801578708 0.001553296461
v -0.008255822584 0.0004483667435 0.001451752731
v -0.008242035285 -0.0003988840617 0.001651218394
v -0.008240530267 -0.0005257736193 0.001646882738
v -0.008240517229 0.002842734801 -0.02896184847
v -0.008238987066 -0.002847166965 -0.02896185592
v -0.008236736991 -0.0006783631397 0.001639421331
v -0.008236365393 0.002838107292 -0.03099606372
v -0.008220570162 -0.00098263775 0.001617385074
v -0.008215215057 -0.0003988871758 0.001673614606
v -0.008214165457 -0.001573286485 0.001405072166
v -0.008211306296 0.0007948724669 0.001403920818
v -0.008198664524 0.00288374722 -0.02625789121
v -0.008197876625 -0.001582948957 0.001479923725
v -0.008197113872 -0.002888157265 -0.02625789121
v -0.008194808848 0.0008044600254 0.001478627324
v -0.008190382272 -0.00172366784 0.001379948459
v -0.008177146316 -0.0003990898549 0.001694430248
v -0.008175909519 -0.0005266357912 0.001690642093
v -0.008172175847 -0.0006786605227 0.001683172537
v -0.008156236261 -0.0009818592807 0.001661076793
v -0.00815405976 -0.001586640486 0.001543048187
v -0.008151818998 0.000808190729 0.001542365411
v -0.008138462901 -0.000526553893 0.001702199806
v -0.008135501295 -0.0003995339212 0.00170675572
v -0.008126867935 0.001258130884 0.001311113709
v -0.00812653359 -0.002060092287 0.001310696243
v -0.008100664243 -0.0004000831977 0.00170995295
v -0.008099756204 -0.0005261027254 0.001705501229
v -0.008096117526 -0.0006769147585 0.001698098145
v -0.008090643212 -0.001584261423 0.001586547703
v -0.008088179864 0.0008054153877 0.001585441525
v -0.00808052998 -0.0009777421365 0.001676215907
v -0.008063660003 0.003296560375 -0.03091883659
v -0.008055499755 -0.001262450591 0.001646354329
v -0.008050525561 0.001582839177 0.001222878112
v -0.008038579486 -0.003357600421 -0.03090837412
v -0.008016329259 -0.001575822942 0.001602492528
v -0.007995197549 0.0009154309519 0.001581004588
v -0.007983152755 -0.001786735142 0.001565443119
v -0.007957825437 -0.00271683326 0.001108376659
v -0.007951959968 0.001934202504 0.001101935864
v -0.007944080979 -0.002761769108 0.001090732403
v -0.007937826216 -0.002737400122 0.001175527344
v -0.007931626402 0.001954977866 0.00116835162
v -0.007894589566 -0.002747226506 0.00123330683
v -0.007889020257 0.001965417527 0.001226083958
v -0.007868230343 0.003730101511 -0.02909378894
v -0.007866224274 -0.003734329017 -0.02909379452
v -0.0078596659 -0.002383069135 0.001417722786
v -0.007834937423 -0.002745762467 0.001275095739
v -0.007829359733 0.001964027295 0.001267314539
v -0.0078025111 0.003777969163 -0.02645508386
v -0.007778843399 -0.0004000820627 0.001709943986
v -0.007777064107 -0.0004507355625 0.00170833501
v -0.007767567877 -0.0005000816891 0.001706513343
v -0.007766396739 -0.002732628025 0.001294186106
v -0.007753297687 -0.0007492470322 0.001693579019
v -0.007752938196 0.001977513079 0.001276454306
v -0.007732295431 0.002562200185 0.0008026318392
v -0.007721293718 -0.002883221721 0.001231480506
v -0.007721103262 0.004044704605 -0.03076183051
v -0.007716736291 0.0003856044204 0.001655461383
v -0.0076729008 -0.001456431928 0.001620892202
v -0.007654805668 -0.004171954934 -0.03073203005
v -0.007612371817 -0.001784889493 0.001565644983
v -0.0076119937 0.002848331584 0.0006262243842
v -0.007602476981 0.001047916594 0.001553133363
v -0.00757404184 -0.0037314035 0.0005688347155
v -0.007571372669 0.002938247984 0.0005656654248
v -0.007557353005 -0.003360498697 0.0009900468867
v -0.007551711984 -0.00375397061 0.0006274942425
v -0.007546854205 0.002965222346 0.000621106592
v -0.007542556617 -0.002078716177 0.001501571154
v -0.007509583607 -0.003768830327 0.000676541822
v -0.007505209651 0.002980109071 0.0006704888074
v -0.007455151994 -0.003770304611 0.0007144254632
v -0.007450761274 0.002981118858 0.0007082564989
v -0.007444726303 0.001618631999 0.001406451571
v -0.007419520989 0.004565155134 -0.0292117428
v -0.007417065557 -0.004569145385 -0.02921174467
v -0.007394339424 -0.003757689148 0.0007362519973
v -0.007387585472 0.002972820308 0.0007272884832
v -0.00735526206 -0.002640855964 0.00133004738
v -0.007335688453 -0.003887030762 0.0006435973337
v -0.007333301939 0.004614038859 -0.02664050087
v -0.007306216285 0.001978437882 0.001276292838
v -0.007282034494 0.004813636187 -0.03055395745
v -0.007250308525 -0.002882663859 0.001232243725
v -0.007221814245 0.003611313412 3.827323962e-05
v -0.007220961154 0.002160800621 0.00119707454
v -0.007179442327 -0.004971649032 -0.03050679713
v -0.007119898684 -0.004583098926 -0.0001216085584
v -0.007110298146 -0.003161483444 0.001098877518
v -0.0070885811 -0.004617300816 -8.295400767e-05
v -0.007082889788 0.003825427731 -9.1468748e-05
v -0.007077936549 -0.004650749732 -0.0001889692066
v -0.007070017513 -0.004408999812 0.0002199149749
v -0.007048298605 -0.004633333534 -4.232175706e-05
v -0.007042923477 0.00384185696 -5.108387268e-05
v -0.006999176927 -0.004636554979 -9.031366062e-06
v -0.006993928924 0.003845174331 -1.813981726e-05
v -0.006923783571 0.00268054544 0.0009178469772
v -0.006907807197 0.005334814545 -0.0292926468
v -0.006904937793 -0.005338524934 -0.02929265238
v -0.006903401576 0.003896889277 -5.865668209e-05
v -0.006857188419 0.003972740378 -0.0001399837638
v -0.006849635858 -0.004785238765 -0.0001540797093
v -0.006846912671 -0.004985703621 -0.0004982331302
v -0.006843150593 0.004191034939 -0.000506150478
v -0.006809003185 0.005377399269 -0.02678368799
v -0.006807637401 -0.005003259517 -0.0004639658728
v -0.006804733537 -0.003664516844 0.0007998567889
v -0.006804148201 0.004208690953 -0.0004719331919
v -0.006790434476 0.005515018012 -0.0303123109
v -0.006778609939 0.004294524435 -0.0007238697144
v -0.006761235185 -0.005008964334 -0.0004349801166
v -0.006757839117 0.00421424536 -0.0004431173438
v -0.006695226301 -0.005207307637 -0.0008991450886
v -0.006681073457 -0.005653484724 -0.03025740013
v -0.00665356731 -0.003883529454 0.0006464092876
v -0.006638838444 -0.005110913422 -0.0005630270462
v -0.00662278384 -0.005292125978 -0.000969517685
v -0.006619851571 0.004495695699 -0.0009774720529
v -0.006584469695 -0.005311512388 -0.0009434716194
v -0.006581763271 0.004515157081 -0.0009515561978
v -0.006540557835 -0.005320363678 -0.000920759514
v -0.006537953857 0.004523914773 -0.0009290290764
v -0.006502103992 0.004506400321 -0.0008832233143
v -0.006497409195 -0.005313294474 -0.0008944645524
v -0.006470074877 0.004692797083 -0.001515869517
v -0.006439207122 -0.005522010382 -0.001496274723
v -0.006437567063 0.004723709542 -0.001503296662
v -0.006412773859 -0.005561648402 -0.001727469382
v -0.00640174048 -0.00554252835 -0.001478605787
v -0.00640028948 0.00474427361 -0.001485722605
v -0.006359749474 -0.005553740542 -0.001462842338
v -0.006358397193 0.00475540245 -0.00147011457
v -0.006356267724 -0.004289244302 0.0003249180736
v -0.006346500479 0.006025987212 -0.02931341343
v -0.006343260873 -0.006029396318 -0.02931341901
v -0.006338729523 -0.005648171064 -0.002072040457
v -0.006331973244 -0.005534136202 -0.001391634345
v -0.006307672709 -0.005676663015 -0.002060449682
v -0.006307032425 0.004877145402 -0.002066075336
v -0.006300292443 0.006095725112 -0.03005826846
v -0.006280259695 -0.004389019217 0.0002376565244
v -0.006270858459 -0.005697457585 -0.002049408155
v -0.006270391867 0.004897932056 -0.002055089688
v -0.006249654107 -0.005748787895 -0.002688009758
v -0.006247580051 0.006053510122 -0.02685425058
v -0.006230137311 -0.0057097557 -0.002039431361
v -0.006229758263 0.00491011003 -0.002045196714
v -0.006201305427 -0.005696627311 -0.001955972053
v -0.00617211964 -0.005827657413 -0.003233831143
v -0.00614000624 -0.005768802017 -0.002338843187
v -0.006139035337 -0.006265409291 -0.02997264266
v -0.006136029027 -0.005848064087 -0.003230225295
v -0.006096497644 -0.005860651378 -0.003226929111
v -0.006058236584 0.00614652317 -0.02456647344
v -0.005987821613 -0.004759986419 -0.0001261598663
v -0.005757784937 0.006630377844 -0.02976450697
v -0.005754220299 -0.006633470766 -0.02976452
v -0.005698580761 -0.005102762952 -0.0005517127574
v -0.005621456541 0.006640327163 -0.0260353554
v -0.005594051443 0.00677210791 -0.02967264131
v -0.00557723688 0.006655409001 -0.0254168231
v -0.005554349627 -0.005261007696 -0.0008006455028
v -0.005502778571 -0.005314639304 -0.0008968082839
v -0.005440184847 -0.005377292167 -0.001019069343
v -0.005310469307 0.006766128819 -0.02274522372
v -0.005195823498 -0.007082858589 -0.0294466354
v -0.005183456931 -0.00560101727 -0.001592279761
v -0.005153699312 0.006834914442 -0.02147218212
v -0.005057702772 0.007131469436 -0.02746366151
v -0.005053868517 -0.007134190761 -0.02746365964
v -0.004979873542 0.007119523361 -0.02526607178
v -0.004959123675 0.007246757858 -0.02930337563
v -0.004855882376 0.006956936326 -0.01905619353
v -0.004698102828 0.007163492031 -0.02136981115
v -0.004638857208 0.007014296018 -0.01668559201
v -0.004588490818 0.007010617293 -0.01577418298
v -0.004585130606 -0.007477824111 -0.02907703258
v -0.004500871059 0.006889267359 -0.01241639256
v -0.004472796805 0.006766353268 -0.0106213782
v -0.004413334653 0.007188942283 -0.01772855595
v -0.004389256239 0.006528423168 -0.008035766892
v -0.004342348315 0.007503117435 -0.02503030375
v -0.004338314757 -0.007505451329 -0.02503029257
v -0.004332292359 0.007153030951 -0.01584530063
v -0.004332159646 0.007616086863 -0.02891642787
v -0.004302853253 0.006380678155 -0.006721275859
v -0.004292954691 0.007074785419 -0.01389473677
v -0.004289151635 -0.007077093236 -0.01389474329
v -0.00420451723 0.007435170002 -0.02118433453
v -0.004200519994 -0.007437433116 -0.02118432894
v -0.004199013114 0.006815715227 -0.009973294102
v -0.004072779324 0.006647641305 -0.008095839061
v -0.004063276574 0.007344996557 -0.01759728231
v -0.004046319053 0.00640419079 -0.00624111481
v -0.004028148949 0.00356205483 0.0004692688817
v -0.004022900946 0.0007733795792 0.001155874925
v -0.004022483248 -0.0007755431579 0.001155870385
v -0.0040203752 0.007164225914 -0.01379412413
v -0.004019369371 0.0003879544092 0.001165001304
v -0.004019160755 -0.0003901164455 0.001164996182
v -0.004016524646 -0.007166385651 -0.01379412785
v -0.004015143961 -1.077525667e-06 0.001166958245
v -0.003974236548 0.001530966023 0.001096753171
v -0.003973413724 -0.00153310399 0.00109674118
v -0.003944600467 0.006882804912 -0.009894950315
v -0.003935362212 -0.007807578892 -0.02865955979
v -0.003885392565 0.007829332724 -0.02862264775
v -0.003829611233 0.002261733403 0.0009655249305
v -0.003828395624 -0.002263791393 0.0009655217873
v -0.0038182633 0.006171314511 -0.00457646884
v -0.003818233497 0.006710001733 -0.008036669344
v -0.003807978937 0.004665531218 -0.0004760740267
v -0.003679770743 0.004147530533 7.969499711e-05
v -0.003664195072 0.00792159047 -0.0284712594
v -0.003642141353 0.007822317071 -0.02472932264
v -0.003637936898 -0.007824275643 -0.02472931892
v -0.003633132903 0.002949966351 0.0007562268875
v -0.003631547093 -0.002951917937 0.0007562224637
v -0.003617954906 0.007680306211 -0.02093685232
v -0.003613825189 -0.007682249416 -0.02093685418
v -0.00360719976 -0.007944357581 -0.02843624726
v -0.003591759363 0.005889767781 -0.003126261523
v -0.003572463756 0.005084455013 -0.001008787891
v -0.003445299342 0.005541855469 -0.001936342218
v -0.003439304419 0.005332194269 -0.00143868092
v -0.003409368452 0.003587298794 0.0004579819215
v -0.003395670094 0.004668053705 -0.0004143677652
v -0.003262995509 -0.001612686552 0.0009719196241
v -0.003253661329 0.001905119396 0.0009346191655
v -0.003251288319 0.0008890845929 0.001019930933
v -0.003223418491 0.005114942323 -0.001026315033
v -0.003216433106 -0.0006091670366 0.001022757613
v -0.003208411625 -0.008087262511 -0.02815156989
v -0.003195821773 0.004169187974 6.063470209e-05
v -0.00319357845 -0.004170903936 6.064300396e-05
v -0.003166752402 -0.002874624217 0.0007157549844
v -0.0031444591 0.003032860346 0.0006615197053
v -0.003112828825 0.0002130459761 0.001008348772
v -0.00308420253 -8.296510714e-07 0.001003222191
v -0.003054363886 0.00742438715 -0.01343211439
v -0.003050373401 -0.007426026743 -0.01343212184
v -0.003031038912 -0.003620666917 0.0003999681794
v -0.003030081978 0.004687854555 -0.0004463991208
v -0.00302007678 0.007101366296 -0.009572451003
v -0.003016259056 -0.007102987263 -0.009572458453
v -0.003010187531 -8.099856927e-07 0.0009879653808
v -0.002997455653 0.007679388393 -0.01716980152
v -0.002993327333 -0.007680998184 -0.01716980338
v -0.002983114915 0.003846660955 0.0002662005427
v -0.002979172859 0.008158526383 -0.02797614969
v -0.002944655716 0.007894400507 -0.0206400454
v -0.002940412844 -0.007895983756 -0.02064004913
v -0.002922462765 0.006902781781 -0.007745140232
v -0.002901505446 0.004214528017 1.396186803e-06
v -0.002884214045 -0.004286251962 -5.709583638e-05
v -0.002881992841 0.008078828454 -0.02437889576
v -0.002877649153 -0.008080375381 -0.0243788939
v -0.002832349157 0.004561651964 -0.000318150298
v -0.002750936663 0.006672749296 -0.006062685978
v -0.002585719107 0.005182052962 -0.001146196038
v -0.002563621616 0.001826998428 0.0007890255074
v -0.002562637907 -0.001828373293 0.0007890274283
v -0.002527561039 0.006401595194 -0.004557408392
v -0.002493286505 0.001054133871 0.0008400637889
v -0.002492719796 -0.001055475906 0.0008400646038
v -0.002450988162 -0.008297549561 -0.02756937593
v -0.002410514979 0.000689210603 0.0008401640225
v -0.002410143148 -0.0006905030459 0.0008401656523
v -0.002292287536 0.008332293481 -0.02743549645
v -0.00229176553 0.00607755594 -0.003249853151
v -0.00220626127 -0.00835036207 -0.02736721374
v -0.002197592752 0.005213998724 -0.001219197875
v -0.002127771964 0.004804736469 -0.0006650874857
v -0.00212518801 -0.004805876408 -0.0006650841096
v -0.002095061587 0.004346860573 -0.0002281192865
v -0.002092726063 -0.00434798561 -0.0002281203051
v -0.002079534577 0.003846021602 0.0001039976269
v -0.002077466575 -0.003847140586 0.0001039980853
v -0.002077406505 0.005691137165 -0.002155271126
v -0.002062760526 0.003303821897 0.0003444890026
v -0.002060985891 -0.003304929007 0.0003444885369
v -0.002031377517 -0.0005165464245 0.000754729379
v -0.002029753523 0.0005167091149 0.0007541961968
v -0.00202881475 0.002717540599 0.0005071666674
v -0.002027354902 -0.002718632109 0.0005071659689
v -0.001970274141 0.002071197378 0.0006073234836
v -0.001969160512 -0.002072257688 0.0006073150435
v -0.001867792918 0.001394302002 0.0006543821655
v -0.001867043786 -0.001395305386 0.0006543826312
v -0.001783560379 -4.795790005e-07 0.0007031958085
v -0.001723213005 -0.008435362019 -0.02694292739
v -0.001697299653 0.007335053291 -0.009148485027
v -0.001693358063 -0.007335964125 -0.009148481302
v -0.001678028842 0.0007603749982 0.0006495125708
v -0.001670692349 0.007689129096 -0.01293575764
v -0.001666558906 -0.007690026425 -0.01293575671
v -0.001655515283 0.007105303928 -0.007376999594
v -0.001651695697 -0.007106191944 -0.007377004251
v -0.001569243497 0.006829379592 -0.005773901939
v -0.001567968051 -0.005267258268 -0.001363309217
v -0.001548533095 0.007963285781 -0.0165970996
v -0.001544252154 -0.007964114659 -0.01659709215
v -0.0014983929 0.00846657902 -0.02672821656
v -0.001473161392 0.004887489136 -0.0008837674977
v -0.001470535295 -0.004888279829 -0.0008837705245
v -0.001453649253 0.006508415565 -0.004372023046
v -0.001384007279 0.004479336552 -0.0005100143026
v -0.00138200738 0.008204735816 -0.01995640248
v -0.001381599926 -0.004480078351 -0.0005100102862
v -0.001377596869 -0.008205479942 -0.0199563913
v -0.001357154106 0.005293304566 -0.00142791518
v -0.001333624008 0.006148000713 -0.003188932315
v -0.001330318977 -0.006148714107 -0.003188936273
v -0.001330217463 0.0003667179844 0.0005733587313
v -0.001295848168 0.004046565853 -0.000228074452
v -0.001293672714 -0.004047260154 -0.0002280765621
v -0.00122629106 0.005752978846 -0.002235610038
v -0.001223198138 -0.005753634498 -0.002235609107
v -0.001201486099 0.003593856003 -2.501768358e-05
v -0.001200698316 0.008407764137 -0.02359560505
v -0.001199554303 -0.003594501875 -2.502684947e-05
v -0.001196178608 -0.008408407681 -0.02359559946
v -0.001157421619 -0.001145692542 0.0004690462956
v -0.001131843659 -0.005327619612 -0.001508272951
v -0.00109379238 0.003120339941 0.00011282786
v -0.001092114369 -0.003120929468 0.0001128237418
v -0.001083719893 0.008512062952 -0.02631434426
v -0.001083461568 -0.008512274362 -0.02631956711
v -0.001015766407 -0.008518205024 -0.02624857426
v -0.0009918003343 0.005352434237 -0.001568531268
v -0.0009889240609 -0.005352966022 -0.001568537788
v -0.0009657529299 0.002622201806 0.0001970858139
v -0.0009643441299 -0.002622718224 0.000197076617
v -0.0009516273858 -2.560815915e-07 0.0004691637587
v -0.0008906963049 0.008527936414 -0.0261085052
v -0.0008856964996 -0.00852846913 -0.02610890009
v -0.0008584038005 0.00504462095 -0.001203904278
v -0.0008556914981 -0.005045084283 -0.001203903812
v -0.0008307694807 0.00853220094 -0.02604261599
v -0.0008086697781 0.002101579914 0.0002367042616
v -0.0008080378757 0.003779869759 -0.000258266984
v -0.0008075408405 -0.002102012513 0.0002366995759
v -0.0008060064283 -0.003780303523 -0.0002582733869
v -0.0007239268743 0.004717183299 -0.0009173820727
v -0.0007213907666 -0.004717573058 -0.0009173850412
v -0.0007091359585 -0.005411934573 -0.001711648656
v -0.0007021035999 0.001503796317 0.0002821169037
v -0.0006028734497 0.00158486783 0.0002374146279
v -0.0006020197179 -0.001585192746 0.00023741943
v -0.0005821157829 0.004367860965 -0.0006983912899
v -0.0005797679769 -0.004368172493 -0.0006983865169
v -0.0005161308218 0.00291141402 -5.496646554e-05
v -0.0005145657342 -0.002911692951 -5.496176163e-05
v -0.0005085939774 0.005459012464 -0.001839954057
v -0.0005056580994 -0.005459284876 -0.001839953475
v -0.0004306271148 0.003999863286 -0.0005372587475
v -0.0004284770403 -0.004000097048 -0.0005372578744
v -0.0004238742404 -0.005759859458 -0.002347621135
v -0.0004225063021 0.005779886153 -0.002386496635
v -0.0004141365353 -0.008553392254 -0.02555929869
v -0.0003907378414 0.005942536984 -0.002725893864
v -0.0003875434631 -0.005942744203 -0.002725900384
v -0.0003688566503 0.006079614162 -0.003046621801
v -0.0003655889595 -0.00607980974 -0.003046620172
v -0.0003623952507 0.006125569809 -0.003160391236
v -0.0003591026179 -0.006125766784 -0.003160386113
v -0.0003280770616 0.006435350981 -0.004005298484
v -0.0003182525397 -0.006507116836 -0.00422458956
v -0.0003164594818 0.006570309866 -0.004427600652
v -0.0003129270917 -0.006570478901 -0.004427596461
v -0.000299805979 0.006782411598 -0.005176504608
v -0.0002961606078 -0.006782575045 -0.005176504143
v -0.0002928386675 0.006870254409 -0.005523459986
v -0.0002891464974 -0.006870410871 -0.00552346278
v -0.0002720380435 0.007094374392 -0.006540244445
v -0.0002682254999 -0.007094519213 -0.006540246774
v -0.0002637460129 0.007164291572 -0.006908331532
v -0.0002598938299 -0.007164433133 -0.006908320822
v -0.0002422688558 0.008557724766 -0.02533266321
v -0.00023371313 0.007355011534 -0.008078763261
v -0.0002297600731 -0.007355134469 -0.008078765124
v -0.0002144951286 0.007445660885 -0.008735816926
v -0.0002104935847 -0.007445775904 -0.008735815994
v -0.0001794337586 -0.005112353712 -0.001538797398
v -0.0001787924703 0.007577063516 -0.009828413837
v -0.0001747204369 -0.007577159908 -0.009828419425
v -0.0001528160356 0.005076989066 -0.001515562763
v -0.0001355214772 -0.005059340969 -0.001504324377
v -0.0001156824073 0.007741690148 -0.01147478167
v -8.711620467e-05 0.003210318275 -0.0003515705757
v -8.55075923e-05 0.000788692967 0.0001461785432
v -8.539042756e-05 -0.003210364841 -0.0003515728749
v -8.508391329e-05 -0.0007887372631 0.0001461766224
v -7.432816346e-05 0.007822535001 -0.01240957994
v -7.166215073e-05 0.004248672631 -0.0008690829272
v -7.012326387e-05 -0.007822570391 -0.01240957715
v -6.937862781e-05 -0.004248708487 -0.0008690933464
v -5.558221119e-07 0.002067261375 -7.835611905e-05
v 5.556512406e-07 -0.002067259513 -7.836346776e-05
v 1.309698564e-05 -0.004870920442 -0.001400218462
v 4.041303691e-05 0.007989349775 -0.01457536127
v 4.470721251e-05 -0.007989325561 -0.01457535755
v 9.600287012e-05 0.005480686203 -0.002157567767
v 9.894896357e-05 -0.005480636377 -0.002157570096
v 0.0001227869507 -0.008558700792 -0.02482422814
v 0.0001381138864 0.008558496833 -0.02479417063
v 0.0001858287142 -0.004636967089 -0.001300341683
v 0.0002662295592 0.004520030227 -0.001259358251
v 0.0002686595835 -0.004519888666 -0.001259359997
v 0.0002872376936 0.008555310778 -0.02455964312
v 0.0003246592532 0.003521043574 -0.0007005024236
v 0.0003246848937 0.005869331304 -0.002935335739
v 0.000326552894 -0.003520866856 -0.0007004955551
v 0.000327839778 -0.00586915575 -0.002935332712
v 0.000328832597 0.007332204841 -0.007951058447
v 0.0003459047584 0.002338385442 -0.0003022630117
v 0.0003471609962 -0.002338199411 -0.0003022690362
v 0.0003962097107 0.004331480712 -0.001203930471
v 0.0005005712155 0.0083919717 -0.02054778673
v 0.0005050814361 -0.008391700685 -0.02054779045
v 0.0005094653461 0.006263438612 -0.003890636144
v 0.0005121384747 0.007728612982 -0.01129435655
v 0.0005128307384 -0.006263164803 -0.003890642431
v 0.0005954353837 0.00403239252 -0.001138729043
v 0.0005960598937 1.615103997e-07 -8.768612315e-05
v 0.0005982951843 -0.008541674353 -0.0240206141
v 0.0006036737468 -0.00402276637 -0.001137077925
v 0.0006134868017 0.005050961394 -0.001978666056
v 0.0006162018981 -0.005050631706 -0.001978664426
v 0.000623838685 0.002556561027 -0.0005080506671
v 0.0006252114545 -0.002556225285 -0.0005080566043
v 0.0006638718187 0.008497932926 -0.02281221002
v 0.00066524063 0.006640645675 -0.005028015003
v 0.0006688090507 -0.006640288047 -0.005028018262
v 0.0007207094459 0.003838637844 -0.00110822299
v 0.0007222575368 0.008533356711 -0.02376429737
v 0.0007268438931 -0.00853296835 -0.02376429178
v 0.0007937252522 0.008527538739 -0.02360829152
v 0.0007983091637 -0.00852710288 -0.02360827848
v 0.0008040342946 0.00697821239 -0.006343753077
v 0.0008077855455 -0.006977777462 -0.006343747955
v 0.0008107611793 0.001549793174 -0.0003433464444
v 0.0008115950041 -0.001549355336 -0.0003433349775
v 0.0008644455229 0.008521299809 -0.02345239744
v 0.000869024836 -0.008520832285 -0.02345240861
v 0.0008715836448 -0.007807932794 -0.02774762176
v 0.0008830923471 -0.007806103211 -0.02774722315
v 0.000936648692 0.007257572841 -0.007827114314
v 0.000940549362 -0.007257067133 -0.007827118039
v 0.0009890859947 0.00548206456 -0.002803166164
v 0.0009920326993 -0.005481535569 -0.002803166164
v 0.001032354427 -0.007780702785 -0.02773878165
v 0.001071762061 0.006973316893 -0.02773612551
v 0.001072379062 -0.007481609937 -0.009433844127
v 0.001125965151 0.004491106607 -0.001850303262
v 0.001128379954 -0.00449050311 -0.001850301516
v 0.001146558323 -0.006496570073 -0.004963368643
v 0.0012026201 0.007662753575 -0.01110858377
v 0.001206738525 -0.007662103046 -0.01110858936
v 0.001224107575 0.003025236074 -0.001043824479
v 0.001225734362 -0.003024577862 -0.001043829601
v 0.00131556124 0.005907355342 -0.003777909791
v 0.00131873705 -0.005906645674 -0.003777898848
v 0.001345880795 -0.006842539646 -0.006261522416
v 0.001357006491 0.0007513553719 -0.000491708226
v 0.001357409521 -0.0007506273105 -0.0004917103215
v 0.001489846385 0.006883102003 -0.02767619677
v 0.001492632902 0.007934579626 -0.0144407656
v 0.001496896846 -0.007933777757 -0.01444077864
v 0.001507894485 0.008502173238 -0.02345195785
v 0.001528726309 0.007128480822 -0.007718692068
v 0.001532558119 -0.007127657533 -0.007718684152
v 0.001548917498 -0.002481540665 -0.001035227091
v 0.00158657704 0.002416202798 -0.001035947935
v 0.001592248329 -0.007657325827 -0.02765326016
v 0.001603219309 0.006304745562 -0.004906887189
v 0.001606608974 -0.006303882226 -0.00490688812
v 0.001616908703 0.004943849985 -0.00270066224
v 0.001619566232 -0.004942977335 -0.002700655721
v 0.001650013379 0.003792329226 -0.001771384268
v 0.001652051345 -0.003791444236 -0.001771383802
v 0.001694746665 -0.002233098727 -0.001040168805
v 0.001824418781 0.008148085326 -0.01750254817
v 0.001828797278 -0.008147105575 -0.01750255749
v 0.001863086596 0.006654718425 -0.006190458313
v 0.001866662526 -0.006653717253 -0.00619046716
v 0.001885559643 0.007539405953 -0.01093619131
v 0.001957018394 5.256798659e-07 -0.0007864192594
v 0.002047568327 0.00606207829 -0.004857460037
v 0.002050826559 -0.006060973275 -0.004857458174
v 0.002063030843 -0.008464447223 -0.02345110662
v 0.002066710731 0.005374221597 -0.003688601544
v 0.002069598762 -0.005373109132 -0.003688594559
v 0.002089390531 -0.003800079226 -0.02750245668
v 0.002089741873 -0.007509010844 -0.0275022611
v 0.002105184132 0.006942266598 -0.007622863166
v 0.002108915942 -0.006941133179 -0.007622860372
v 0.002132449998 -0.007494505029 -0.02748564444
v 0.002159307944 -0.001431086566 -0.001104836818
v 0.002163254889 0.008322065696 -0.02061585523
v 0.002167726867 -0.008320898749 -0.02061586455
v 0.002177690156 0.001398928347 -0.001109414268
v 0.002196649322 0.002935158322 -0.001722166548
v 0.002198227914 -0.002933979034 -0.00172215316
v 0.002213461325 0.006666043308 -0.0274524428
v 0.002230408601 0.004236694425 -0.002622897271
v 0.002232686151 -0.004235493951 -0.002622887958
v 0.002279153327 -0.007442490663 -0.02742381208
v 0.002339256229 -0.007170735393 -0.009167063981
v 0.002355535747 0.001088657998 -0.001159871113
v 0.002367843408 0.006410492118 -0.006127950735
v 0.002371288603 -0.006409218069 -0.006127952598
v 0.002400449011 0.008433364332 -0.02344995551
v 0.002405280713 -0.008431701921 -0.02345012873
v 0.002478162525 0.005766709335 -0.004812422674
v 0.002481261501 -0.005765376147 -0.004812427331
v 0.00255826395 0.007354973815 -0.01077575982
v 0.002562216949 -0.007353600115 -0.0107757533
v 0.002570131095 0.0007118178764 -0.001243555336
v 0.002609640127 0.0006420747959 -0.001262347447
v 0.002609984949 -0.0006406731554 -0.001262343954
v 0.002626305213 -0.007305438165 -0.02724602818
v 0.002651809016 0.006494410336 -0.02723168023
v 0.002666145796 0.006696247961 -0.007536672987
v 0.002669744426 -0.006694815587 -0.007536683232
v 0.002733260393 0.001962882234 -0.001718421816
v 0.002734315814 -0.001961412141 -0.001718417741
v 0.002775121247 -0.0003468669893 -0.001355061657
v 0.002783398842 0.004643461667 -0.003607693827
v 0.002785894088 -0.004641965497 -0.0036076908
v 0.002792710438 -0.0003153129073 -0.001366344048
v 0.002842658665 0.003338885726 -0.00254936819
v 0.002844452392 -0.00333735859 -0.002549370984
v 0.002857730491 0.006107889581 -0.006070518866
v 0.002861012472 -0.006106351037 -0.006070523057
v 0.002951755887 -0.006922808476 -0.009050203487
v 0.002966686152 7.990473705e-07 -0.001492193667
v 0.003000007011 0.007625007536 -0.01399740763
v 0.003004105762 -0.007623394486 -0.01399740577
v 0.003153044498 0.00831897743 -0.02365865745
v 0.003155298298 0.008332914673 -0.02344700322
v 0.003188625677 0.000965474057 -0.001789338305
v 0.003189143492 -0.0009637607727 -0.00178933749
v 0.003211785341 0.006387441419 -0.007456738502
v 0.00321521773 -0.006385712884 -0.007456736173
v 0.003218042199 0.007105853409 -0.01062587555
v 0.003221862251 -0.007104123477 -0.01062587742
v 0.003306479426 0.005005047191 -0.004720198922
v 0.003309168853 -0.005003268365 -0.004720199388
v 0.003334084293 0.005743749905 -0.006013995968
v 0.003337169997 -0.005741956644 -0.006014000159
v 0.00335547654 0.0004794067063 -0.001847242122
v 0.003355734749 -0.0004776015121 -0.001847237814
v 0.003412731923 0.002287654905 -0.002494390123
v 0.003413960105 -0.002285820898 -0.002494402928
v 0.003455196507 0.00783068873 -0.01701549068
v 0.003459404688 -0.007828830741 -0.01701549627
v 0.003473551245 9.330593684e-07 -0.001921546529
v 0.003479968058 0.003693222068 -0.003511859104
v 0.003481951775 -0.003691350808 -0.003511855146
v 0.003548719455 -0.006608844735 -0.008940926753
v 0.003688502824 -0.008221308701 -0.02365590818
v 0.003691171994 -0.008234575391 -0.02344437502
v 0.003740536282 0.007372439839 -0.01379313786
v 0.003742319066 0.006012595724 -0.007379257586
v 0.003744498594 -0.007370428182 -0.01379314065
v 0.00374555029 -0.006010583602 -0.007379246876
v 0.003798239864 0.005314894021 -0.005954185966
v 0.003801095998 -0.00531285163 -0.005954187829
v 0.003858846612 0.001157838386 -0.00248891837
v 0.003859467339 -0.001155763865 -0.00248892745
v 0.003862212412 0.006788389292 -0.01048506796
v 0.00386586017 -0.006786312442 -0.01048506517
v 0.003888333216 0.007995974272 -0.02011904679
v 0.003892631037 -0.007993885316 -0.02011903748
v 0.00397501979 1.068915708e-06 -0.002426057821
v 0.003998432308 0.000580595457 -0.00250097923
v 0.003998742905 -0.0005784487003 -0.0025009776
v 0.004099832382 0.003998288885 -0.004602384754
v 0.004101981409 -0.003996083979 -0.004602379166
v 0.004108144902 0.002557016676 -0.003414652776
v 0.004109519534 -0.002554809907 -0.003414642299
v 0.004128988832 -0.006225427147 -0.008836441673
v 0.004218645394 0.008117913269 -0.02344116569
v 0.004257964436 0.005568468943 -0.007300457917
v 0.00425856607 0.007573620882 -0.01679452322
v 0.004260956775 -0.005566179752 -0.007300457917
v 0.004262635019 -0.007571329363 -0.01679453626
v 0.004464638419 0.007048922591 -0.01360112242
v 0.00446842704 -0.007046523504 -0.01360112336
v 0.004488095175 0.006398906931 -0.0103517957
v 0.004491534084 -0.006396492012 -0.01035180036
v 0.004573745187 0.001305853366 -0.00335194706
v 0.004574446473 -0.001303393859 -0.003351948457
v 0.004688303452 0.005771637894 -0.008733976632
v 0.004690101836 0.004254699219 -0.005811348092
v 0.004691403825 -0.005769120064 -0.008733984083
v 0.004692387767 -0.004252175335 -0.005811346229
v 0.004710050765 0.0006567630335 -0.003338464536
v 0.004710404202 -0.0006542300689 -0.003338459413
v 0.004737259354 0.007734996732 -0.01990026236
v 0.004737274256 0.007839318365 -0.02399036288
v 0.004741416313 -0.007732448634 -0.01990026049
v 0.004757709801 0.007908656262 -0.02383594587
v 0.004761605989 -0.005049285945 -0.007216596976
v 0.004761959426 -0.007906099781 -0.02383595333
v 0.004771602806 0.007955797017 -0.02365045995
v 0.004775081761 0.007967598736 -0.02343743108
v 0.004775901325 -0.007953310385 -0.02364995517
v 0.004779363051 -0.00796503108 -0.02343743481
v 0.004802268464 0.002780609531 -0.004472858738
v 0.004803762771 -0.002778028836 -0.004472855479
v 0.004971882794 0.007897091098 -0.02324788272
v 0.0049761259 -0.007894417271 -0.02324789017
v 0.005021065474 0.007788070012 -0.02389858477
v 0.005025250837 -0.007785370108 -0.02389858104
v 0.005042946897 0.007244352717 -0.0165890567
v 0.005046840291 -0.007241639774 -0.01658904739
v 0.00505473325 0.00786881987 -0.02352781035
v 0.005058961455 -0.007866101339 -0.02352781035
v 0.00508697005 0.002115579555 -0.004417123273
v 0.005088106263 -0.002112843329 -0.004417122807
v 0.005093015265 0.00593371084 -0.01022453234
v 0.005096203182 -0.005930972286 -0.0102245342
v 0.005166572519 0.006650134455 -0.01342186518
v 0.005170146003 -0.006647357251 -0.01342185959
v 0.005218486302 1.403383635e-06 -0.003933195025
v 0.005240424536 0.004463950172 -0.007126942277
v 0.005242823623 -0.004461134318 -0.007126939949
v 0.005257553421 0.007640831172 -0.02396188304
v 0.005261659157 -0.007638006471 -0.02396188304
v 0.005308909807 0.001425007125 -0.004373358563
v 0.005309674889 -0.001422154717 -0.004373367876
v 0.005309931003 0.007738105487 -0.02362166718
v 0.005314087961 -0.007735250052 -0.02362167463
v 0.005453191698 0.0007174751372 -0.004344983492
v 0.005453577265 -0.0007145449636 -0.004344979301
v 0.005469942 0.002964178333 -0.005656418856
v 0.005471534096 -0.002961239778 -0.005656423979
v 0.00556387566 0.007401204202 -0.01970022358
v 0.005567853805 -0.007398211397 -0.01970022917
v 0.005581423175 0.007396193221 -0.02401675098
v 0.005585398059 -0.007393194363 -0.02401673794
v 0.005651733372 0.007489365526 -0.02374749444
v 0.005655758083 -0.007486325689 -0.02374749444
v 0.005674256012 0.005389166996 -0.01010175981
v 0.005677151028 -0.005386119708 -0.01010176446
v 0.005688817706 0.003814275609 -0.007036448456
v 0.005690867547 -0.003811220173 -0.007036441006
v 0.005750929005 0.004632052965 -0.008526473306
v 0.005782845896 0.002256814856 -0.005588697735
v 0.005784058943 -0.002253704006 -0.005588686559
v 0.005800111685 0.006837911904 -0.01639938541
v 0.005803787149 -0.006834794767 -0.01639937982
v 0.005840595812 0.006171756424 -0.01325585507
v 0.005843913648 -0.00616861647 -0.01325584296
v 0.005893011112 0.007502735592 -0.02243266813
v 0.005897162948 -0.007499260362 -0.02243256383
v 0.005964009557 0.00709130289 -0.02401675098
v 0.005967820063 -0.00708809495 -0.02401674911
v 0.006025010254 0.001520947437 -0.005534523167
v 0.006025827024 -0.001517705852 -0.005534520838
v 0.006039138883 0.007180632558 -0.02374750003
v 0.006042996887 -0.007177382708 -0.02374750003
v 0.006089332979 0.003113228595 -0.006950649898
v 0.0060910061 -0.003109954298 -0.006950642914
v 0.006171920802 0.007348977961 -0.02276481874
v 0.006175950635 -0.007345408201 -0.02276472747
v 0.006181412376 0.0007660697447 -0.005498586223
v 0.006181823555 -0.0007627476007 -0.005498580169
v 0.006225193851 0.004766502883 -0.009983677417
v 0.006227754988 -0.004763154779 -0.009983678348
v 0.00633643195 1.704448778e-06 -0.005658465903
v 0.006358257029 0.006988948211 -0.01951815002
v 0.006362012122 -0.00698553212 -0.01951815747
v 0.006394448224 0.007106760051 -0.02308665961
v 0.006398313679 -0.007103119511 -0.02308656275
v 0.006427212618 0.002371198498 -0.006875105668
v 0.006428486202 -0.002367743291 -0.006875099149
v 0.006480946206 0.005609508604 -0.01310357638
v 0.006483960431 -0.005606025457 -0.01310357917
v 0.00652182987 0.006349327974 -0.01622586139
v 0.00652524177 -0.006345824338 -0.01622586139
v 0.006657942664 0.00323308981 -0.008332309313
v 0.006687439978 0.001598479808 -0.006814988796
v 0.006688298192 -0.001594887464 -0.006814989261
v 0.006731898058 0.004076024517 -0.009873642586
v 0.006734088529 -0.004072404001 -0.009873641655
v 0.006747599225 0.005993988831 -0.02428203076
v 0.006824863609 0.006962089334 -0.02164123021
v 0.006828867365 -0.006957703736 -0.02164102346
v 0.006854811218 0.0008052959456 -0.006775302812
v 0.006855243817 -0.0008016101201 -0.006775304675
v 0.006914125755 1.859612894e-06 -0.006760962307
v 0.006927357055 0.006153673399 -0.02401674911
v 0.006929589901 0.006769418251 -0.02261014655
v 0.006930664182 -0.006149946712 -0.0240167398
v 0.006933227647 -0.006765692495 -0.02261014655
v 0.007014622446 0.006231193431 -0.02374750189
v 0.007016138639 0.002463207347 -0.00825196784
v 0.007017462049 -0.002459435258 -0.008251970634
v 0.007017971482 -0.006227421574 -0.02374749631
v 0.007069469895 0.006791473366 -0.02199107222
v 0.007073309273 -0.006787079386 -0.02199087851
v 0.007079336792 0.004964415915 -0.01296594273
v 0.007082003634 -0.0049606096 -0.01296594366
v 0.007110474166 0.006492594257 -0.01935329847
v 0.0071139629 -0.006488772575 -0.01935329475
v 0.007179635577 0.003329046071 -0.009775367565
v 0.007181424182 -0.00332518504 -0.009775359184
v 0.007199859247 0.005773692392 -0.01606881432
v 0.007202961948 -0.005769820418 -0.0160688106
v 0.007248008624 0.00653949054 -0.02233158611
v 0.007251628209 -0.006535130553 -0.02233140357
v 0.007290779147 0.001660860959 -0.00818899367
v 0.007291670889 -0.001656944165 -0.008188998327
v 0.00738719292 1.98663588e-06 -0.007797457743
v 0.007441524882 0.005714576226 -0.02374748886
v 0.007444595452 -0.005710573867 -0.02374749631
v 0.007466741838 0.0008368659182 -0.008147906512
v 0.007467190735 -0.0008328505792 -0.008147901855
v 0.007543918677 0.004954521544 -0.02428203076
v 0.007546579931 -0.004950466566 -0.0242820289
v 0.007553669158 0.00253687962 -0.009692582302
v 0.007555031683 -0.00253282045 -0.009692578577
v 0.007622773293 0.004247373901 -0.01284464542
v 0.007625054568 -0.004243274685 -0.01284464356
v 0.007744891103 0.005086514167 -0.02401674911
v 0.007747624535 -0.00508235069 -0.0240167398
v 0.007762747351 0.006222759839 -0.02091394365
v 0.007766459603 -0.006217557006 -0.02091367356
v 0.007810602896 0.005906553008 -0.01920489967
v 0.007813776843 -0.005902351812 -0.01920489408
v 0.007824878208 0.005111742765 -0.01592884585
v 0.007827623747 -0.005107534584 -0.01592884958
v 0.007839224301 0.001710824319 -0.00962895155
v 0.007840143517 -0.001706608571 -0.009628954343
v 0.007842455059 0.005150589626 -0.02374749444
v 0.00784522295 -0.00514637446 -0.02374749072
v 0.007845667191 0.006033928134 -0.02182617038
v 0.007848595269 -0.006029532291 -0.02182627097
v 0.007952087559 0.006053309888 -0.02128380165
v 0.00795560237 -0.006048184354 -0.02128355578
v 0.00802150555 0.0008621572051 -0.009588100016
v 0.008021966554 -0.0008578448906 -0.009588107467
v 0.008068690076 0.005815269891 -0.02164587565
v 0.008071968332 -0.005810262635 -0.02164563723
v 0.008097744547 0.00347037008 -0.01274143998
v 0.008099609055 -0.003466016147 -0.01274144184
v 0.008181445301 0.00381076755 -0.02428203635
v 0.008183492348 -0.003806370776 -0.02428203076
v 0.008306655101 2.232158522e-06 -0.01020187698
v 0.008374333382 0.00423121918 -0.02374749631
v 0.00837660674 -0.004226718564 -0.02374749631
v 0.008385532536 0.004374815151 -0.0158071164
v 0.008387883194 -0.004370306153 -0.01580711454
v 0.008399402723 0.003912287764 -0.02401674353
v 0.008401503786 -0.003907773644 -0.02401675098
v 0.008448802866 0.005231253337 -0.01907280274
v 0.008451613598 -0.00522670988 -0.01907279529
v 0.008490740322 0.002645388013 -0.01265809964
v 0.00849216152 -0.002640823834 -0.01265809964
v 0.008505211212 0.003961573821 -0.02374750189
v 0.008507338353 -0.003957000561 -0.02374750189
v 0.008614956401 0.001262215199 -0.02444561012
v 0.008615633473 -0.001257584081 -0.02444561943
v 0.008636365645 0.005270748399 -0.02030051686
v 0.008640771732 -0.005264118779 -0.02029869333
v 0.008646760136 0.002586802468 -0.02428203262
v 0.008648148738 -0.002582152141 -0.0242820289
v 0.008706931956 2.339505954e-06 -0.02444562316
v 0.008770863526 0.005116449203 -0.02068801038
v 0.008774700575 -0.00511001749 -0.02068624459
v 0.008788249455 0.001784412423 -0.01259638276
v 0.008789206855 -0.00177968957 -0.01259637997
v 0.008827329613 0.00490727229 -0.0210689716
v 0.008830519393 -0.004901065491 -0.02106726915
v 0.008870249614 0.00357539393 -0.01570481621
v 0.008872170001 -0.003570627188 -0.01570482366
v 0.008877113461 0.002655712888 -0.02401674539
v 0.008878539316 -0.002650940791 -0.02401674725
v 0.008930068463 0.00130838505 -0.02428203076
v 0.00893077068 -0.001303581404 -0.02428203449
v 0.008976758458 0.0008994332165 -0.01255805884
v 0.008977240883 -0.0008946092566 -0.0125580607
v 0.008988940157 0.00268916809 -0.02374749817
v 0.008990384638 -0.002684338251 -0.02374749258
v 0.009015385062 0.004478386138 -0.01895798929
v 0.009017791599 -0.004473540932 -0.01895797998
v 0.009025407955 2.426058472e-06 -0.02428202517
v 0.009042759426 2.427922482e-06 -0.01254488714
v 0.009051524103 0.004577945918 -0.02090525441
v 0.009053622372 -0.004572979175 -0.0209035147
v 0.009167970158 0.001343240263 -0.02401674166
v 0.009168691002 -0.001338312752 -0.02401673794
v 0.009265849367 2.490264251e-06 -0.02401674166
v 0.009267454967 0.002725976054 -0.01562315598
v 0.009268917143 -0.002720994875 -0.01562316995
v 0.009283460677 0.001360158785 -0.02374749072
v 0.009284189902 -0.001355168992 -0.02374750003
v 0.009341340512 0.0008786512772 -0.02374750003
v 0.009341812693 -0.0008736287127 -0.02374748886
v 0.009370464832 0.004160450771 -0.01979907975
v 0.009375049733 -0.004153026268 -0.01979601011
v 0.009382572956 2.52148584e-06 -0.02374748886
v 0.009391113184 2.523425337e-06 -0.01379602682
v 0.009466246702 0.004022079986 -0.02019910142
v 0.009469898418 -0.004014858045 -0.02019610442
v 0.009478577413 0.003841168946 -0.02059332654
v 0.009481321089 -0.003834199859 -0.02059042081
v 0.009500683285 0.003660870949 -0.01886156015
v 0.009502649307 -0.003655764274 -0.01886156388
v 0.009565573186 0.00183905114 -0.01556334458
v 0.009566559456 -0.001833908842 -0.01556334365
v 0.009753031656 0.0009271071758 -0.01552657504
v 0.00975352712 -0.000921864179 -0.01552657969
v 0.00981825497 2.641034598e-06 -0.01551405527
v 0.00989502389 0.002791636158 -0.01878464781
v 0.009896524251 -0.002786317142 -0.01878464222
v 0.00991148781 0.00286116288 -0.02026216872
v 0.009912843816 -0.002854847116 -0.02026181854
v 0.009946849197 0.00291379285 -0.01939122193
v 0.009948537685 -0.002906905953 -0.01939091459
v 0.009985912591 0.002652149415 -0.02020271495
v 0.009987095371 -0.002645795466 -0.02020242438
v 0.01000973489 0.002797679044 -0.01979959384
v 0.01001121383 -0.00279103592 -0.01979929395
v 0.01018874254 0.001883595251 -0.01872832514
v 0.01018975209 -0.001878118957 -0.01872833073
v 0.01023654547 2.749738769e-06 -0.01753209904
v 0.01031736471 0.001363390242 -0.01992273517
v 0.01031898241 -0.001354857348 -0.01991854794
v 0.01033362839 0.001527899643 -0.01910101064
v 0.01033780258 -0.001518447534 -0.01909661666
v 0.01036905125 0.00145323819 -0.01951428875
v 0.01037190948 -0.001444223803 -0.01950999722
v 0.01037216466 0.0009496792336 -0.01869372278
v 0.01037267409 -0.0009441031143 -0.01869371906
v 0.01037579868 0.0009766556323 -0.01986833103
v 0.01037675515 -0.0009712312021 -0.01986530982
v 0.01040714327 0.0006886894698 -0.01983789168
v 0.01040798146 -0.0006817097892 -0.01983582042
v 0.01043868903 2.804999667e-06 -0.01980601437
v 0.0104432404 0.0007807233487 -0.01901334897
v 0.01044532564 -0.0007733277744 -0.01901117153
v 0.01046836935 0.0007385651115 -0.01942795701
v 0.01046989765 -0.0007313498645 -0.01942584477
v 0.01048298925 2.815507059e-06 -0.01898042858
v 0.01050380897 2.824182729e-06 -0.0193955265
f 496 138 169
f 512 529 448
f 9 29 11
f 11 4 9
f 88 72 60
f 60 72 29
f 60 504 88
f 524 504 60
f 3 5 1
f 504 180 143
f 1 4 22
f 11 29 38
f 29 72 38
f 34 22 4
f 551 780 752
f 799 780 551
f 645 504 524
f 186 180 504
f 470 493 463
f 463 493 486
f 189 201 496
f 10 3 49
f 252 141 241
f 200 211 201
f 194 197 200
f 816 854 850
f 544 491 521
f 553 514 540
f 702 721 698
f 862 866 873
f 873 864 862
f 724 728 747
f 747 757 724
f 718 552 724
f 724 757 718
f 6 4 1
f 111 138 496
f 10 65 36
f 76 71 36
f 88 504 115
f 504 143 115
f 115 104 88
f 434 351 389
f 389 543 434
f 320 357 351
f 320 475 357
f 206 195 481
f 481 186 504
f 195 186 481
f 483 415 488
f 488 415 425
f 449 351 434
f 530 513 449
f 449 513 431
f 724 552 534
f 811 534 552
f 543 389 591
f 530 543 592
f 543 591 592
f 547 483 488
f 537 551 672
f 537 534 800
f 799 551 812
f 551 537 812
f 776 748 768
f 768 806 776
f 783 806 768
f 401 463 399
f 401 403 470
f 470 463 401
f 496 169 185
f 185 189 496
f 201 211 214
f 496 201 214
f 174 185 169
f 448 529 499
f 499 461 448
f 473 461 499
f 285 298 279
f 279 482 243
f 496 482 279
f 279 298 496
f 276 337 280
f 280 337 285
f 285 248 280
f 496 298 332
f 349 298 285
f 285 337 349
f 349 332 298
f 356 332 349
f 448 408 349
f 349 337 448
f 244 248 285
f 244 279 243
f 285 279 244
f 696 719 732
f 686 719 696
f 688 728 724
f 688 692 728
f 724 534 688
f 732 719 759
f 241 141 130
f 141 125 130
f 59 65 10
f 10 49 59
f 141 252 152
f 390 346 388
f 388 441 390
f 87 56 58
f 202 197 205
f 202 200 197
f 211 200 203
f 200 202 203
f 194 200 190
f 201 189 198
f 198 200 201
f 198 190 200
f 865 854 861
f 869 865 861
f 860 828 853
f 853 864 860
f 853 815 849
f 828 815 853
f 859 873 866
f 877 873 859
f 808 841 827
f 841 848 827
f 843 848 858
f 843 827 848
f 491 544 518
f 579 544 597
f 597 614 579
f 521 491 479
f 491 441 479
f 450 441 491
f 450 390 441
f 514 553 525
f 682 618 654
f 654 618 601
f 675 652 624
f 690 698 721
f 773 744 749
f 749 746 773
f 721 746 749
f 588 610 640
f 657 614 597
f 597 625 657
f 577 625 597
f 577 544 521
f 597 544 577
f 817 788 784
f 860 864 868
f 872 871 834
f 834 870 872
f 878 871 872
f 872 870 878
f 830 870 834
f 830 868 870
f 830 828 860
f 860 868 830
f 864 873 875
f 878 870 875
f 875 877 878
f 875 873 877
f 875 868 864
f 870 868 875
f 552 718 751
f 751 718 757
f 751 779 552
f 757 779 751
f 29 9 13
f 13 60 29
f 524 60 13
f 1 5 2
f 2 6 1
f 524 6 2
f 2 523 524
f 2 534 523
f 5 534 2
f 496 57 85
f 85 111 496
f 57 71 85
f 109 134 127
f 127 111 109
f 127 134 138
f 138 111 127
f 28 71 57
f 28 36 71
f 28 12 10
f 10 36 28
f 522 545 578
f 433 443 480
f 160 401 399
f 58 56 44
f 44 54 58
f 1 22 17
f 25 3 1
f 1 14 25
f 365 389 351
f 365 591 389
f 481 591 365
f 300 320 351
f 295 475 300
f 475 320 300
f 206 481 476
f 481 365 476
f 357 475 476
f 410 483 478
f 478 407 410
f 405 478 470
f 405 407 478
f 470 403 405
f 530 449 474
f 7 534 5
f 12 534 7
f 5 3 7
f 7 3 10
f 10 12 7
f 31 534 12
f 31 28 57
f 12 28 31
f 31 57 496
f 496 534 31
f 552 779 798
f 798 811 552
f 798 779 809
f 809 811 798
f 823 811 809
f 809 815 823
f 823 815 828
f 828 830 823
f 800 534 794
f 794 811 800
f 534 811 794
f 799 812 810
f 810 812 824
f 861 854 829
f 854 816 829
f 816 810 829
f 829 810 824
f 595 547 568
f 568 547 488
f 478 483 501
f 470 478 501
f 501 493 470
f 758 551 752
f 758 768 748
f 783 768 758
f 551 758 726
f 726 758 748
f 660 537 672
f 672 674 660
f 660 645 524
f 795 537 800
f 800 812 795
f 795 812 537
f 833 797 802
f 776 806 802
f 833 802 837
f 645 649 638
f 638 649 639
f 638 591 481
f 639 592 638
f 638 592 591
f 664 649 645
f 645 660 664
f 664 660 674
f 664 687 649
f 706 674 693
f 397 395 342
f 399 463 397
f 492 480 443
f 492 506 519
f 522 480 492
f 519 545 492
f 492 545 522
f 236 482 496
f 496 214 236
f 243 482 236
f 236 214 211
f 236 244 243
f 211 244 236
f 163 174 169
f 134 174 163
f 163 169 138
f 138 134 163
f 156 149 159
f 465 499 439
f 439 461 465
f 205 213 209
f 209 203 205
f 211 203 209
f 728 692 705
f 705 696 732
f 368 349 408
f 542 499 529
f 529 570 542
f 603 570 529
f 529 512 603
f 703 719 686
f 686 669 703
f 796 788 817
f 771 742 732
f 732 759 771
f 771 796 801
f 759 796 771
f 646 669 615
f 646 618 682
f 682 703 646
f 646 703 669
f 601 618 575
f 546 525 575
f 575 553 601
f 575 525 553
f 129 130 125
f 101 125 99
f 76 36 90
f 90 93 76
f 101 75 82
f 46 55 75
f 51 77 86
f 113 109 76
f 76 93 113
f 123 125 141
f 123 99 125
f 137 123 141
f 133 123 137
f 141 152 151
f 151 137 141
f 149 137 151
f 330 337 276
f 269 330 276
f 324 330 269
f 346 390 392
f 394 341 392
f 392 341 346
f 392 450 394
f 390 450 392
f 308 341 253
f 346 341 308
f 388 346 359
f 61 87 58
f 61 54 63
f 58 54 61
f 204 202 205
f 205 203 204
f 204 203 202
f 188 198 189
f 190 198 188
f 189 185 188
f 185 174 188
f 188 174 183
f 183 190 188
f 877 859 874
f 854 865 856
f 850 854 856
f 770 748 776
f 818 797 833
f 833 841 818
f 818 841 808
f 808 785 818
f 808 827 791
f 814 843 845
f 845 859 846
f 845 843 858
f 723 721 702
f 723 746 721
f 814 820 781
f 773 746 781
f 432 441 388
f 432 479 441
f 491 518 505
f 505 450 491
f 540 514 505
f 505 518 540
f 500 525 546
f 514 525 500
f 620 654 601
f 620 624 652
f 573 553 540
f 601 553 573
f 573 620 601
f 698 690 661
f 684 620 652
f 654 620 684
f 675 734 709
f 740 684 709
f 709 652 675
f 709 684 652
f 777 716 738
f 765 744 773
f 588 640 608
f 625 577 608
f 625 608 667
f 667 608 640
f 667 640 680
f 680 707 667
f 667 707 694
f 614 657 679
f 675 624 679
f 679 624 614
f 677 657 625
f 625 667 677
f 677 667 694
f 677 679 657
f 716 679 677
f 734 784 763
f 763 709 734
f 740 709 763
f 763 784 788
f 844 859 866
f 846 859 844
f 862 851 857
f 842 844 857
f 857 866 862
f 857 844 866
f 8 13 9
f 8 9 4
f 4 6 8
f 8 6 524
f 524 13 8
f 103 71 76
f 103 85 71
f 76 109 103
f 109 111 103
f 111 85 103
f 128 115 143
f 143 142 128
f 128 142 115
f 40 34 4
f 157 142 143
f 50 4 11
f 50 40 4
f 387 384 375
f 433 384 387
f 391 443 387
f 387 443 433
f 391 193 393
f 393 193 395
f 342 395 196
f 395 193 196
f 22 34 24
f 56 53 43
f 43 44 56
f 45 54 32
f 54 44 32
f 30 24 32
f 32 43 30
f 44 43 32
f 1 17 16
f 35 49 3
f 3 25 35
f 351 357 358
f 358 365 351
f 357 476 358
f 358 476 365
f 180 186 173
f 415 483 412
f 483 410 412
f 412 322 415
f 455 449 434
f 520 543 530
f 530 474 520
f 434 543 520
f 520 455 434
f 824 812 825
f 811 823 825
f 825 830 834
f 825 823 830
f 831 869 861
f 861 829 831
f 871 869 831
f 834 871 831
f 831 825 834
f 831 829 824
f 824 825 831
f 498 568 488
f 488 425 498
f 431 513 498
f 498 425 431
f 595 568 617
f 617 647 595
f 670 647 617
f 483 547 538
f 538 501 483
f 576 547 595
f 576 538 547
f 565 538 576
f 554 565 590
f 590 574 554
f 783 758 787
f 793 783 787
f 752 780 787
f 787 758 752
f 787 816 793
f 787 810 816
f 787 780 799
f 799 810 787
f 672 551 689
f 551 726 689
f 689 674 672
f 693 674 689
f 731 706 693
f 727 706 731
f 693 689 731
f 731 689 726
f 731 726 748
f 731 743 727
f 748 770 731
f 770 743 731
f 527 660 524
f 537 660 527
f 534 537 527
f 524 523 527
f 523 534 527
f 797 760 772
f 772 802 797
f 776 802 772
f 772 770 776
f 772 743 770
f 839 816 850
f 793 816 839
f 850 856 839
f 839 856 837
f 639 649 643
f 649 687 643
f 504 645 635
f 645 638 635
f 635 481 504
f 635 638 481
f 733 706 727
f 727 743 733
f 743 772 733
f 733 760 720
f 733 772 760
f 697 664 674
f 674 706 697
f 687 664 697
f 706 733 697
f 720 687 697
f 697 733 720
f 452 397 463
f 395 397 452
f 452 463 486
f 452 393 395
f 452 492 443
f 452 443 391
f 391 393 452
f 486 506 452
f 506 492 452
f 149 156 147
f 147 137 149
f 133 137 147
f 473 499 467
f 499 465 467
f 467 461 473
f 467 465 461
f 213 222 218
f 218 209 213
f 248 244 218
f 218 222 248
f 218 244 211
f 211 209 218
f 742 728 725
f 728 705 725
f 732 742 725
f 725 705 732
f 633 332 356
f 673 705 692
f 696 705 673
f 671 688 534
f 692 688 671
f 671 673 692
f 356 349 364
f 349 368 364
f 364 633 356
f 439 499 435
f 499 542 435
f 435 542 408
f 435 408 448
f 448 461 435
f 435 461 439
f 630 669 686
f 615 669 630
f 585 567 615
f 615 630 585
f 585 630 603
f 585 603 512
f 736 759 719
f 719 703 736
f 736 703 682
f 742 771 769
f 769 728 742
f 769 747 728
f 593 575 618
f 593 646 615
f 618 646 593
f 546 575 593
f 593 567 546
f 615 567 593
f 83 36 65
f 83 90 36
f 101 82 106
f 106 82 126
f 106 125 101
f 225 86 77
f 96 113 93
f 93 90 96
f 96 83 99
f 90 83 96
f 119 123 133
f 109 113 119
f 113 96 119
f 99 123 119
f 119 96 99
f 254 152 252
f 254 151 152
f 253 151 254
f 254 308 253
f 252 260 254
f 346 308 254
f 396 341 394
f 394 450 396
f 253 341 299
f 299 341 335
f 299 251 253
f 335 251 299
f 161 251 239
f 253 251 161
f 161 151 253
f 159 149 161
f 149 151 161
f 288 328 326
f 239 328 288
f 288 223 239
f 239 251 292
f 292 328 239
f 292 251 335
f 335 328 292
f 430 330 324
f 324 423 430
f 337 330 430
f 448 337 430
f 430 512 448
f 423 451 430
f 289 301 346
f 346 254 289
f 289 254 260
f 346 301 340
f 340 359 346
f 247 271 265
f 876 874 865
f 876 871 878
f 878 877 876
f 877 874 876
f 876 869 871
f 865 869 876
f 867 874 859
f 859 845 867
f 863 856 865
f 863 845 858
f 863 867 845
f 865 874 863
f 874 867 863
f 833 837 852
f 837 856 852
f 852 841 833
f 852 848 841
f 858 848 852
f 852 863 858
f 856 863 852
f 836 821 801
f 792 815 809
f 801 821 805
f 797 818 789
f 789 818 785
f 678 717 739
f 720 760 737
f 827 843 804
f 804 791 827
f 804 843 814
f 804 766 791
f 808 791 778
f 778 791 739
f 739 717 778
f 778 785 808
f 835 820 814
f 814 845 835
f 835 845 846
f 846 844 835
f 739 791 754
f 791 766 754
f 746 723 722
f 699 691 722
f 702 699 722
f 722 723 702
f 774 781 746
f 814 781 774
f 774 804 814
f 766 804 774
f 383 359 366
f 388 359 383
f 383 432 388
f 479 432 457
f 558 535 588
f 588 608 558
f 558 608 577
f 558 577 521
f 622 610 583
f 583 532 555
f 516 500 546
f 546 567 516
f 567 585 516
f 462 505 514
f 450 505 462
f 462 396 450
f 563 573 540
f 540 518 563
f 563 518 544
f 544 579 563
f 624 620 594
f 620 573 594
f 614 624 594
f 594 579 614
f 594 563 579
f 573 563 594
f 650 610 622
f 622 661 650
f 650 640 610
f 680 640 650
f 650 690 680
f 650 661 690
f 682 654 711
f 654 684 711
f 711 684 740
f 711 736 682
f 755 784 734
f 755 777 784
f 716 777 755
f 753 765 790
f 738 753 790
f 790 777 738
f 680 690 714
f 714 707 680
f 714 690 721
f 744 707 714
f 721 749 714
f 714 749 744
f 694 707 729
f 729 707 744
f 744 765 729
f 729 765 753
f 675 679 700
f 700 679 716
f 700 734 675
f 700 755 734
f 716 755 700
f 738 716 713
f 716 677 713
f 713 677 694
f 694 729 713
f 713 753 738
f 713 729 753
f 847 840 826
f 851 840 847
f 847 857 851
f 826 842 847
f 842 857 847
f 826 840 807
f 784 777 807
f 817 784 807
f 807 840 817
f 807 790 826
f 777 790 807
f 773 781 813
f 813 781 820
f 813 844 842
f 820 835 813
f 813 835 844
f 34 40 37
f 37 24 34
f 37 50 45
f 40 50 37
f 45 32 37
f 37 32 24
f 164 143 180
f 180 157 164
f 164 157 143
f 142 157 155
f 431 425 325
f 325 425 415
f 415 322 325
f 331 325 270
f 431 325 331
f 351 449 339
f 339 449 431
f 431 331 339
f 347 193 391
f 391 387 347
f 166 160 399
f 399 397 166
f 166 196 193
f 166 397 342
f 342 196 166
f 15 14 1
f 1 16 15
f 20 16 17
f 39 35 25
f 39 46 49
f 49 35 39
f 199 195 206
f 165 157 180
f 180 173 165
f 407 405 175
f 327 410 407
f 407 175 327
f 327 175 179
f 327 179 322
f 327 412 410
f 322 412 327
f 449 455 466
f 455 520 466
f 811 825 819
f 819 825 812
f 800 811 819
f 819 812 800
f 604 592 639
f 604 513 530
f 530 592 604
f 486 493 515
f 515 506 486
f 526 538 565
f 565 554 526
f 501 538 526
f 554 515 526
f 493 501 526
f 526 515 493
f 580 596 616
f 793 839 822
f 822 783 793
f 822 806 783
f 822 839 837
f 822 802 806
f 822 837 802
f 133 147 139
f 139 134 109
f 139 174 134
f 139 147 174
f 109 119 139
f 139 119 133
f 174 147 154
f 154 147 156
f 183 174 154
f 154 190 183
f 332 633 631
f 631 633 644
f 496 332 631
f 631 644 496
f 569 368 408
f 569 364 368
f 633 364 569
f 408 542 569
f 569 542 570
f 642 630 686
f 673 671 659
f 659 671 534
f 659 534 496
f 496 644 659
f 759 736 761
f 761 711 740
f 736 711 761
f 788 796 761
f 761 796 759
f 761 763 788
f 740 763 761
f 99 83 70
f 70 75 101
f 101 99 70
f 70 46 75
f 70 59 49
f 49 46 70
f 494 420 454
f 55 46 33
f 46 26 33
f 30 43 33
f 43 42 33
f 216 222 213
f 248 222 216
f 221 223 240
f 487 451 444
f 512 430 497
f 497 430 451
f 497 451 487
f 487 516 497
f 497 585 512
f 497 516 585
f 284 271 264
f 353 329 187
f 698 661 665
f 702 698 665
f 665 656 702
f 665 628 656
f 665 661 622
f 622 628 665
f 314 265 310
f 265 271 310
f 855 836 851
f 855 853 849
f 864 853 855
f 862 864 855
f 855 851 862
f 821 836 838
f 838 792 821
f 838 855 849
f 836 855 838
f 849 815 838
f 815 792 838
f 801 796 832
f 832 836 801
f 832 796 817
f 817 840 832
f 832 840 851
f 851 836 832
f 786 779 757
f 809 779 786
f 786 792 809
f 757 747 767
f 821 792 782
f 782 805 821
f 782 767 805
f 757 767 782
f 782 786 757
f 792 786 782
f 764 789 785
f 785 735 764
f 762 737 760
f 762 760 797
f 797 789 762
f 762 764 741
f 789 764 762
f 717 678 658
f 678 627 658
f 602 621 590
f 590 565 602
f 565 576 602
f 590 621 612
f 612 574 590
f 612 596 574
f 621 653 612
f 720 737 704
f 704 687 720
f 670 687 704
f 704 647 670
f 621 602 655
f 626 612 653
f 616 596 626
f 596 612 626
f 741 764 710
f 710 764 735
f 756 778 717
f 756 735 785
f 785 778 756
f 766 774 745
f 746 722 750
f 750 774 746
f 750 745 774
f 416 383 366
f 432 383 416
f 416 457 432
f 507 558 521
f 535 558 507
f 521 479 507
f 479 457 507
f 457 416 437
f 532 583 561
f 561 535 509
f 509 532 561
f 588 535 561
f 561 610 588
f 561 583 610
f 803 813 842
f 803 842 826
f 826 790 803
f 803 790 765
f 803 765 773
f 773 813 803
f 508 480 522
f 428 446 472
f 556 528 511
f 511 528 472
f 490 510 533
f 556 511 533
f 146 155 148
f 142 155 146
f 158 160 148
f 148 155 158
f 158 175 160
f 322 179 274
f 274 325 322
f 270 325 274
f 47 52 51
f 53 52 47
f 47 43 53
f 47 42 43
f 21 20 17
f 21 17 22
f 22 24 21
f 21 24 30
f 18 15 16
f 16 20 18
f 14 15 18
f 19 25 14
f 14 18 19
f 23 26 46
f 46 39 23
f 23 19 18
f 23 39 25
f 25 19 23
f 23 18 20
f 177 405 403
f 177 175 405
f 403 401 177
f 401 160 177
f 160 175 177
f 167 165 173
f 167 158 155
f 167 155 157
f 157 165 167
f 178 199 206
f 195 199 178
f 178 186 195
f 178 173 186
f 178 167 173
f 468 474 449
f 449 466 468
f 468 520 474
f 468 466 520
f 586 617 568
f 513 604 586
f 586 498 513
f 568 498 586
f 670 617 632
f 617 586 632
f 632 586 604
f 632 687 670
f 632 643 687
f 639 643 632
f 632 604 639
f 519 506 541
f 506 515 541
f 541 554 574
f 541 515 554
f 603 630 637
f 630 642 637
f 663 659 644
f 673 659 663
f 696 673 663
f 686 696 663
f 68 83 65
f 68 70 83
f 65 59 68
f 59 70 68
f 246 255 114
f 126 82 114
f 224 106 126
f 126 114 224
f 224 114 255
f 301 289 302
f 302 340 301
f 266 255 246
f 62 102 82
f 75 55 62
f 62 82 75
f 62 55 51
f 51 86 62
f 246 102 237
f 258 266 237
f 237 266 246
f 261 229 226
f 226 257 261
f 233 257 226
f 228 259 225
f 228 225 77
f 291 265 314
f 238 257 233
f 265 291 238
f 238 291 257
f 313 266 258
f 309 266 313
f 354 309 313
f 41 33 42
f 42 47 41
f 55 33 41
f 30 33 27
f 27 33 26
f 26 23 27
f 27 23 20
f 27 21 30
f 20 21 27
f 172 210 208
f 215 223 221
f 221 210 215
f 215 172 223
f 210 172 215
f 220 234 269
f 220 216 208
f 208 210 220
f 220 210 221
f 221 234 220
f 223 288 282
f 282 240 223
f 282 288 326
f 326 321 282
f 273 234 221
f 221 240 273
f 240 282 273
f 273 282 321
f 269 234 273
f 324 269 273
f 273 321 324
f 487 444 477
f 477 516 487
f 500 516 477
f 406 404 444
f 326 328 406
f 328 404 406
f 414 444 451
f 271 284 307
f 307 310 271
f 353 187 191
f 264 271 144
f 305 334 338
f 305 307 284
f 375 384 367
f 433 480 458
f 485 436 458
f 480 508 458
f 458 508 485
f 485 510 456
f 456 510 490
f 656 628 605
f 605 628 606
f 805 767 775
f 801 805 775
f 747 769 775
f 775 767 747
f 775 771 801
f 775 769 771
f 598 580 616
f 598 627 578
f 598 578 545
f 545 580 598
f 619 655 602
f 619 602 576
f 595 647 619
f 619 576 595
f 712 762 741
f 737 762 712
f 616 626 634
f 634 598 616
f 634 658 627
f 627 598 634
f 676 626 653
f 653 710 676
f 676 710 735
f 676 634 626
f 691 651 681
f 373 416 366
f 379 437 373
f 373 437 416
f 509 535 484
f 535 507 484
f 484 507 457
f 457 437 484
f 472 446 460
f 460 511 472
f 494 454 517
f 566 549 517
f 490 533 502
f 502 533 511
f 502 460 490
f 511 460 502
f 522 578 559
f 559 508 522
f 641 681 651
f 556 533 584
f 629 605 607
f 656 605 629
f 179 181 182
f 182 274 179
f 270 274 182
f 212 178 206
f 181 178 212
f 295 300 286
f 286 300 351
f 351 339 286
f 171 178 181
f 167 178 171
f 179 175 171
f 171 181 179
f 175 158 171
f 158 167 171
f 564 541 574
f 574 596 564
f 596 580 564
f 519 541 564
f 564 545 519
f 564 580 545
f 633 569 636
f 644 633 636
f 110 102 246
f 246 114 110
f 82 102 110
f 110 114 82
f 242 224 255
f 106 224 242
f 125 106 242
f 242 129 125
f 359 340 333
f 340 302 333
f 366 359 333
f 333 373 366
f 302 304 333
f 91 62 86
f 102 62 91
f 91 237 102
f 258 237 232
f 86 225 232
f 232 91 86
f 237 91 232
f 232 259 258
f 225 259 232
f 233 226 81
f 87 233 81
f 56 87 81
f 81 53 56
f 79 229 77
f 79 226 229
f 79 81 226
f 79 52 53
f 53 81 79
f 316 291 314
f 261 257 294
f 257 291 294
f 97 238 89
f 63 97 89
f 89 233 87
f 89 238 233
f 89 61 63
f 87 61 89
f 354 381 370
f 379 344 370
f 354 313 361
f 361 381 354
f 361 369 427
f 427 381 361
f 48 47 51
f 48 41 47
f 51 55 48
f 55 41 48
f 239 223 176
f 223 172 176
f 176 161 239
f 159 161 176
f 176 172 159
f 168 172 208
f 205 197 168
f 168 197 194
f 168 156 159
f 159 172 168
f 194 190 168
f 190 154 168
f 168 154 156
f 227 220 269
f 216 220 227
f 227 269 276
f 276 280 227
f 227 280 248
f 248 216 227
f 469 477 444
f 444 404 469
f 469 400 462
f 500 477 469
f 514 500 469
f 469 462 514
f 418 451 423
f 418 414 451
f 418 423 324
f 324 321 418
f 321 414 418
f 409 406 444
f 326 406 409
f 131 187 184
f 131 140 187
f 193 347 192
f 192 347 387
f 187 140 145
f 145 191 187
f 63 54 73
f 73 97 63
f 73 54 45
f 45 50 69
f 69 73 45
f 74 73 69
f 162 284 264
f 264 144 162
f 136 144 271
f 334 305 303
f 303 305 284
f 303 284 184
f 184 187 303
f 303 187 329
f 303 329 353
f 353 334 303
f 360 334 353
f 360 367 334
f 375 367 360
f 360 387 375
f 360 192 387
f 353 191 360
f 191 192 360
f 374 380 338
f 338 334 374
f 334 367 374
f 438 436 485
f 485 456 438
f 581 549 566
f 548 539 494
f 494 517 548
f 548 517 549
f 471 420 494
f 471 427 420
f 489 532 509
f 741 710 685
f 685 712 741
f 685 710 653
f 655 712 685
f 685 653 621
f 621 655 685
f 683 704 737
f 737 712 683
f 683 712 655
f 647 704 683
f 683 619 647
f 655 619 683
f 658 634 701
f 634 676 701
f 717 658 701
f 701 676 735
f 701 756 717
f 735 756 701
f 745 708 730
f 730 754 766
f 766 745 730
f 739 754 730
f 668 708 681
f 681 641 668
f 668 627 678
f 715 708 745
f 715 750 722
f 745 750 715
f 715 722 691
f 691 681 715
f 681 708 715
f 442 456 490
f 490 460 442
f 560 582 566
f 566 517 560
f 572 582 550
f 572 528 556
f 572 550 528
f 495 517 454
f 472 528 495
f 528 550 495
f 550 517 495
f 536 559 589
f 508 559 536
f 536 510 485
f 485 508 536
f 609 641 589
f 578 627 609
f 627 668 609
f 609 668 641
f 609 559 578
f 589 559 609
f 589 641 611
f 611 641 651
f 651 623 611
f 623 584 611
f 656 629 666
f 666 699 702
f 702 656 666
f 666 629 623
f 181 212 219
f 219 212 245
f 235 250 245
f 245 212 235
f 235 212 206
f 475 250 235
f 206 476 235
f 235 476 475
f 245 250 262
f 262 286 245
f 295 286 262
f 262 475 295
f 262 250 475
f 245 286 249
f 181 219 249
f 249 219 245
f 613 569 570
f 613 636 569
f 637 636 613
f 570 603 613
f 603 637 613
f 648 663 644
f 644 636 648
f 648 636 637
f 648 637 642
f 648 642 686
f 686 663 648
f 306 344 304
f 306 266 309
f 304 344 336
f 336 333 304
f 373 333 336
f 379 373 336
f 336 344 379
f 78 77 51
f 78 79 77
f 51 52 78
f 52 79 78
f 267 296 259
f 267 275 296
f 259 228 267
f 369 361 315
f 315 361 313
f 315 376 369
f 317 376 315
f 259 296 293
f 258 259 293
f 296 275 312
f 312 293 296
f 291 316 318
f 318 294 291
f 419 370 381
f 348 370 344
f 348 306 309
f 344 306 348
f 348 309 354
f 354 370 348
f 205 168 207
f 207 168 208
f 208 216 207
f 207 213 205
f 207 216 213
f 396 462 398
f 462 400 398
f 398 400 335
f 335 341 398
f 341 396 398
f 402 328 335
f 335 400 402
f 402 404 328
f 402 469 404
f 400 469 402
f 444 414 411
f 411 409 444
f 411 414 321
f 411 321 326
f 326 409 411
f 153 192 191
f 191 145 153
f 193 192 153
f 153 166 193
f 84 112 80
f 80 74 84
f 80 73 74
f 97 73 107
f 107 112 247
f 107 80 112
f 73 80 107
f 107 238 97
f 107 247 265
f 265 238 107
f 67 69 50
f 184 284 170
f 284 162 170
f 121 170 162
f 121 131 184
f 184 170 121
f 117 136 271
f 271 247 117
f 247 112 117
f 117 112 84
f 338 380 345
f 345 305 338
f 307 305 345
f 436 380 429
f 380 374 429
f 374 417 429
f 429 458 436
f 429 417 458
f 426 438 456
f 456 442 426
f 426 380 436
f 436 438 426
f 607 605 587
f 587 582 607
f 587 605 606
f 606 581 587
f 566 582 587
f 587 581 566
f 599 581 606
f 599 583 555
f 622 583 599
f 599 628 622
f 606 628 599
f 549 581 571
f 571 548 549
f 539 548 571
f 555 539 571
f 571 599 555
f 581 599 571
f 427 471 445
f 445 471 459
f 445 381 427
f 445 419 381
f 459 419 445
f 494 539 531
f 531 471 494
f 531 539 555
f 695 678 739
f 739 730 695
f 695 730 708
f 695 668 678
f 708 668 695
f 421 460 446
f 421 442 460
f 550 582 557
f 582 560 557
f 557 517 550
f 557 560 517
f 600 584 623
f 556 584 600
f 600 572 556
f 600 629 607
f 623 629 600
f 607 582 600
f 582 572 600
f 562 536 589
f 589 611 562
f 562 611 584
f 562 584 533
f 562 533 510
f 510 536 562
f 662 623 651
f 662 666 623
f 662 651 691
f 662 691 699
f 699 666 662
f 281 249 286
f 281 286 339
f 263 242 255
f 287 304 302
f 287 283 304
f 287 263 283
f 231 267 228
f 77 229 231
f 231 228 77
f 231 229 261
f 377 376 420
f 369 376 377
f 420 427 377
f 427 369 377
f 317 315 290
f 258 293 290
f 290 293 317
f 290 313 258
f 290 315 313
f 317 293 323
f 293 312 323
f 323 376 317
f 378 371 428
f 319 312 275
f 464 489 509
f 166 153 150
f 148 160 150
f 160 166 150
f 150 153 145
f 150 145 140
f 11 38 66
f 108 162 144
f 108 121 162
f 433 458 413
f 458 417 413
f 413 384 433
f 413 367 384
f 413 374 367
f 413 417 374
f 459 471 503
f 471 531 503
f 503 489 459
f 503 531 555
f 555 532 503
f 532 489 503
f 314 310 355
f 386 426 442
f 442 421 386
f 380 426 386
f 277 331 270
f 277 339 331
f 277 281 339
f 249 281 230
f 281 277 230
f 230 182 181
f 270 182 230
f 230 277 270
f 278 263 255
f 283 263 278
f 255 266 278
f 266 306 278
f 304 283 278
f 278 306 304
f 272 287 302
f 272 289 260
f 272 302 289
f 242 263 256
f 263 287 256
f 287 272 256
f 129 242 256
f 256 252 241
f 241 130 256
f 130 129 256
f 256 260 252
f 256 272 260
f 268 231 261
f 267 231 268
f 261 275 268
f 275 267 268
f 294 318 311
f 311 319 275
f 343 323 312
f 312 319 343
f 420 376 343
f 376 323 343
f 319 311 363
f 363 343 319
f 363 454 420
f 420 343 363
f 509 484 453
f 453 464 509
f 64 50 11
f 11 66 64
f 64 67 50
f 64 66 67
f 144 136 105
f 105 108 144
f 131 121 124
f 121 122 124
f 140 131 124
f 124 122 140
f 142 146 132
f 115 142 132
f 115 132 120
f 314 355 362
f 362 316 314
f 362 371 316
f 428 371 362
f 350 355 310
f 310 307 350
f 307 345 350
f 181 249 217
f 217 230 181
f 249 230 217
f 261 294 297
f 294 311 297
f 297 275 261
f 297 311 275
f 352 318 316
f 352 311 318
f 352 363 311
f 316 371 352
f 371 378 352
f 447 484 437
f 447 453 484
f 464 453 440
f 489 464 440
f 459 489 440
f 440 419 459
f 136 117 94
f 94 105 136
f 94 117 84
f 84 74 94
f 74 69 94
f 108 105 100
f 121 108 100
f 105 94 100
f 140 122 135
f 122 132 135
f 148 150 135
f 135 150 140
f 135 146 148
f 135 132 146
f 382 362 355
f 382 421 446
f 446 428 382
f 428 362 382
f 372 386 421
f 355 350 372
f 372 350 345
f 421 382 372
f 372 382 355
f 372 345 380
f 380 386 372
f 454 363 422
f 363 352 422
f 422 352 378
f 472 495 422
f 422 495 454
f 422 428 472
f 422 378 428
f 424 440 453
f 453 447 424
f 424 437 379
f 424 447 437
f 92 66 38
f 92 38 72
f 92 72 88
f 69 67 95
f 67 66 95
f 66 92 95
f 98 94 69
f 98 100 94
f 69 95 98
f 98 122 121
f 121 100 98
f 440 424 385
f 370 419 385
f 419 440 385
f 379 370 385
f 385 424 379
f 118 132 122
f 118 120 132
f 122 98 118
f 118 98 95
f 116 95 92
f 116 118 95
f 120 118 116
f 116 92 88
f 88 104 116
f 104 115 116
f 115 120 116
