v -0.008749601431 -2.350705472e-06 -0.02583757974
v -0.008706291206 -7.181059482e-05 -0.03114805371
v -0.008680365048 0.0009790436598 -0.02588742971
v -0.00867983792 -0.0009837098187 -0.02588743716
v -0.008675775491 0.0007002566126 -0.03113467619
v -0.008653146215 -0.0009245937108 -0.03112533316
v -0.008626233786 -0.001017484465 -0.02309462242
v -0.008561510593 0.001530749607 -0.03108546697
v -0.008509924635 -0.001785311615 -0.03106406704
v -0.008500171825 -0.001920724753 -0.02877640352
v -0.008484119549 0.001945927273 -0.02601672523
v -0.008483071811 -0.001950489124 -0.0260167215
v -0.008405912668 0.002010964788 -0.02328109555
v -0.008350912482 0.002407269087 -0.03099422716
v -0.008315767162 -0.002524220385 -0.03097942472
v -0.008221982978 -0.0002000642999 -0.0004894625745
v -0.008221847005 -0.0002448232844 -0.0004908595001
v -0.008221051656 -0.0003207001137 -0.0004936630721
v -0.008218656294 0.002842742018 -0.02889900282
v -0.008217319846 -0.0004722831072 -0.0005009389715
v -0.008217126131 -0.002847159281 -0.02889900096
v -0.00821296405 0.00283812033 -0.03093321063
v -0.008206704631 -0.0002473852946 -0.000414017064
v -0.008206515573 -0.0001992886682 -0.0004130117304
v -0.008205883205 -0.0003237060155 -0.0004168586165
v -0.008202083409 -0.0004761558957 -0.0004242463619
v -0.008201332763 -0.0007745205658 -0.0005223469925
v -0.008199132048 -0.000199153219 -0.0003971777624
v -0.008185877465 -0.0007801353931 -0.0004460368655
v -0.008180464618 0.0006164865918 -0.0005439767265
v -0.008178847842 0.002883756533 -0.02619501017
v -0.008177298121 -0.00288815028 -0.02619501948
v -0.00816335436 -0.0001988635486 -0.0003481046006
v -0.008161851205 -0.0003257508797 -0.0003524365311
v -0.008158056065 -0.0004783400218 -0.0003599034389
v -0.008141888306 -0.0007826151559 -0.0003819376871
v -0.008136522956 -0.0001988640433 -0.000325695728
v -0.008135486394 -0.00137326424 -0.0005942563294
v -0.00813262444 0.0009948973311 -0.0005953923101
v -0.008119196631 -0.001382926712 -0.0005194009864
v -0.008116129786 0.001004484249 -0.0005206950009
v -0.00811106246 -0.001527460525 -0.0006200540811
v -0.008093493991 -0.000478636648 -0.0003161493223
v -0.008077555336 -0.0007818364538 -0.0003382495197
v -0.008075378835 -0.001386618824 -0.0004562690738
v -0.008073139004 0.001008215128 -0.0004569498124
v -0.00804825034 0.001457857667 -0.0006881311419
v -0.008047851734 -0.001860084594 -0.0006886224146
v -0.008042475209 0.003291252535 -0.030856831
v -0.008011962287 -0.001384237898 -0.000412776164
v -0.008008114062 -0.003374745371 -0.03084212542
v -0.007978491485 0.001756809885 -0.0007685762248
v -0.007879149169 -0.002516811714 -0.0008909530588
v -0.007873280905 0.002134225098 -0.0008973805816
v -0.007863405161 -0.002568199532 -0.0009111639811
v -0.007859149016 -0.002537377411 -0.0008237913717
v -0.007852949202 0.002154996619 -0.0008309739642
v -0.007846268825 0.003730107564 -0.0290306583
v -0.007844261825 -0.003734322265 -0.02903064899
v -0.007815910503 -0.002547206823 -0.0007660101401
v -0.007810344454 0.002165438142 -0.0007732419763
v -0.007782547269 0.003777974984 -0.02639190294
v -0.007780513726 -0.003782157786 -0.02639190294
v -0.007756260224 -0.002545739757 -0.0007242397987
v -0.007699018344 0.004042485729 -0.03069912456
v -0.007662075106 0.00274084718 -0.001184523688
v -0.007618764881 -0.004196093418 -0.0306627471
v -0.007533102296 0.00304884091 -0.001373426523
v -0.007492700126 0.003138268134 -0.001433660742
v -0.007491605822 -0.003539580619 -0.001436096965
v -0.007473038509 -0.00355394627 -0.001371838036
v -0.007468178403 0.003165245522 -0.001378221205
v -0.007430909667 -0.00356880459 -0.001322790748
v -0.0074266796 -0.00329401996 -0.001089289901
v -0.007426534314 0.003180129686 -0.001328842016
v -0.007397472393 0.004565158859 -0.02914828248
v -0.007395016495 -0.004569136538 -0.02914827876
v -0.007376477588 -0.00357028353 -0.001284908387
v -0.007313196547 0.004614042118 -0.02657695301
v -0.007258969825 0.004813645035 -0.03049037606
v -0.007156090345 0.003788959933 -0.001941217808
v -0.007143553812 -0.004990992136 -0.03043693118
v -0.007035170682 -0.004392937757 -0.002130593872
v -0.007017465774 -0.004421572667 -0.002158947056
v -0.007009911351 -0.004417277873 -0.002082282212
v -0.007004220039 0.004025449045 -0.002090795198
v -0.006969626527 -0.004433309194 -0.00204164465
v -0.006964254659 0.004041880369 -0.002050417475
v -0.006920506246 -0.00443653157 -0.002008363605
v -0.006885695271 0.005334819667 -0.02922879905
v -0.006882826332 -0.005338519812 -0.02922878973
v -0.006788789295 0.005377403926 -0.02671976388
v -0.006769159343 0.005512943026 -0.03024917655
v -0.006768247113 -0.004785680678 -0.002497566864
v -0.006764484569 0.004391053692 -0.002505484736
v -0.006728968583 -0.004803233314 -0.002463291865
v -0.006725479383 0.004408712499 -0.002471262822
v -0.006709534209 0.004481297452 -0.00270389393
v -0.006682570092 -0.004808940459 -0.002434316091
v -0.006641068496 -0.005674743094 -0.03018432669
v -0.006629949436 -0.004989417735 -0.002868646057
v -0.006544121075 -0.005092103966 -0.002968863584
v -0.006541188806 0.004695718642 -0.002976816846
v -0.006522866432 -0.004965507425 -0.002643714193
v -0.006505806465 -0.005111488979 -0.002942800522
v -0.006503099576 0.004715183284 -0.002950879978
v -0.006461894605 -0.00512034446 -0.002920096274
v -0.006397453602 0.004885496106 -0.00349456328
v -0.006360547151 -0.005321985576 -0.003495616606
v -0.00635890523 0.00492373528 -0.003502624575
v -0.006342324894 -0.005351872649 -0.003693989245
v -0.006324374583 0.0060259928 -0.02924912982
v -0.006323081441 -0.005342503544 -0.00347794313
v -0.006321629044 0.004944300279 -0.0034850589
v -0.00632113358 -0.006029393058 -0.02924912982
v -0.006281090435 -0.005353716202 -0.003462190973
v -0.006279179361 0.00609401986 -0.02999478392
v -0.006260072347 -0.005448149052 -0.004071373958
v -0.00622837618 0.005077168345 -0.004065402783
v -0.006227313075 0.006053514313 -0.02678989619
v -0.006192202214 -0.005497434642 -0.00404873956
v -0.00619173469 0.005097954534 -0.004054422025
v -0.006174637005 -0.00554471463 -0.004654559307
v -0.006151479669 -0.00550973136 -0.004038754851
v -0.006118341815 -1.644539793e-06 0.001046024379
v -0.006097942125 -0.006284256466 -0.02989839204
v -0.006057380699 -0.005648044869 -0.005229567643
v -0.006039701868 0.006146525033 -0.02450198121
v -0.005980696063 0.000769269478 0.001056275214
v -0.005980282091 -0.0007724851021 0.00105627533
v -0.005770759191 0.001527192886 0.0009712359752
v -0.005769939162 -0.001530295238 0.0009712266619
v -0.005735316314 0.006630384363 -0.02969977632
v -0.005731752142 -0.006633467507 -0.02969978191
v -0.005642955657 0.0007614466012 0.001198134269
v -0.00564254541 -0.0007644809084 0.001198144746
v -0.005601810291 0.006640331354 -0.02597052231
v -0.00559755927 -0.006643557455 -0.02596000768
v -0.00558978226 0.00675683422 -0.02961807512
v -0.005558056757 0.006655413657 -0.02535194717
v -0.005523282103 -1.483884603e-06 0.001274141367
v -0.005454539787 0.00225911825 0.0008266094374
v -0.005453323945 -0.002262049587 0.0008266148507
v -0.005439344328 0.001512169489 0.001112702419
v -0.005438530818 -0.001515089418 0.001112701953
v -0.005293312483 0.006766131148 -0.02268016897
v -0.005265121348 -1.416873488e-06 0.001312250039
v -0.005196181126 0.0007587262662 0.001285671373
v -0.005195772275 -0.0007615186041 0.001285672071
v -0.005171898287 -0.007084082346 -0.02938048728
v -0.005137506407 0.00683491677 -0.02140700258
v -0.005134735722 0.002238321351 0.0009658461786
v -0.005133533385 -0.002241078299 0.0009658379131
v -0.005059699062 0.002952031791 0.0006200898788
v -0.005058112554 -0.002954748692 0.0006200812641
v -0.005036976654 0.00713147549 -0.02739840932
v -0.005033141933 -0.007134181913 -0.02739840001
v -0.00500847213 0.001507000066 0.001201472245
v -0.005007660482 -0.001509691239 0.001201470383
v -0.004960808437 0.007119526155 -0.02520074882
v -0.004957827739 0.007232909556 -0.02925035916
v -0.004956981167 -0.007122192997 -0.0252007544
v -0.004937177058 0.003715824569 5.480037998e-06
v -0.004840292037 0.006957389414 -0.01897989586
v -0.00475766696 0.002927595982 0.0007539390936
v -0.00475609256 -0.00293015223 0.0007539338549
v -0.00473127095 0.002231496153 0.001052984502
v -0.004730072338 -0.002234037267 0.001052972395
v -0.004681987222 0.007163495757 -0.02130429074
v -0.004678136203 -0.007166011725 -0.0213042777
v -0.004626284353 0.007014303003 -0.01662001573
v -0.004622513428 -0.007016784512 -0.01662001386
v -0.004616007209 0.003591006156 0.0003537556331
v -0.004614075646 -0.003593486967 0.000353758951
v -0.004588001873 -1.234069828e-06 0.001306394232
v -0.004575692117 0.007010378409 -0.01568838581
v -0.004559538327 -0.007479910273 -0.0290091373
v -0.004549809266 -0.00419234205 -0.0002397531352
v -0.004533688072 -0.006992012728 -0.0146553982
v -0.004519334529 0.004226728342 -0.000261410838
v -0.004491081461 0.006887414958 -0.01231889054
v -0.004464810714 0.006766357459 -0.01055566873
v -0.004461173434 -0.006768751424 -0.01055566687
v -0.004447620828 -0.006714323536 -0.00989209488
v -0.004399971571 0.00718894368 -0.01766280271
v -0.004396107513 -0.007191307377 -0.01766281016
v -0.004393856507 0.002920303261 0.0008335256134
v -0.004392286297 -0.002922664164 0.000833521306
v -0.004383228254 0.006528424565 -0.007970014587
v -0.004327001516 0.007607382722 -0.028861342
v -0.004323461093 0.007503125351 -0.02496449091
v -0.004320355132 0.007153032813 -0.01577949896
v -0.004319429398 -0.007505446207 -0.02496450394
v -0.004316510633 -0.007155353203 -0.01577950083
v -0.004297119565 0.006379606668 -0.006646537222
v -0.004282494076 0.007074786816 -0.01382891182
v -0.004278691486 -0.007077091374 -0.01382890809
v -0.004191519227 0.006815718487 -0.009907384403
v -0.004188541789 0.007435176987 -0.02111843042
v -0.004187854938 -0.006817969494 -0.00990739651
v -0.004184543621 -0.007437424269 -0.02111843042
v -0.004176456481 0.004165029619 1.754594268e-05
v -0.004174218513 -0.004167270847 1.753781544e-05
v -0.00413705036 0.004631079733 -0.000537060143
v -0.004108063411 0.006095771678 -0.004629177041
v -0.004066703375 0.006647643168 -0.008029835299
v -0.004063129891 -0.006649825722 -0.008029828779
v -0.004050014541 0.007344999351 -0.01753127761
v -0.004046065267 -0.007347174454 -0.01753126644
v -0.004041649867 0.006404192187 -0.006175097544
v -0.004038205836 -0.0064063631 -0.006175093818
v -0.004028555471 0.003562053666 0.000535299012
v -0.00402663881 -0.003564220387 0.0005352991866
v -0.004023826215 0.0007733802195 0.001221913029
v -0.00402341038 -0.0007755440311 0.001221907674
v -0.004020301625 0.0003879575524 0.001231039758
v -0.004020092543 -0.0003901172022 0.001231039758
v -0.004017363302 0.005940227304 -0.003779788502
v -0.004016077146 -1.07728124e-06 0.00123299798
v -0.004009990953 0.007164231967 -0.01372808591
v -0.004006317351 -0.004766917787 -0.0006506076897
v -0.004006139468 -0.007166384254 -0.01372808591
v -0.003975118976 0.001530965208 0.001162814209
v -0.00397429429 -0.001533102593 0.001162821543
v -0.003938185517 0.005777332932 -0.00304166507
v -0.003937166184 0.006882807706 -0.009828860871
v -0.003933466971 -0.00688492367 -0.009828865528
v -0.003924723715 0.00574737275 -0.002918019891
v -0.003906891681 -0.007810616866 -0.02858889475
v -0.003830393543 0.002261733171 0.001031703199
v -0.003829177236 -0.00226379442 0.00103170448
v -0.0038148514 0.006171311252 -0.004510277417
v -0.003812204115 0.006710000802 -0.007970483042
v -0.003811534261 -0.00617336249 -0.004510277417
v -0.003808597336 -0.006712052505 -0.007970483042
v -0.003807670437 0.004665529821 -0.0004098781792
v -0.003805162618 -0.004667576402 -0.0004098842037
v -0.003803367494 0.005441741552 -0.001848455751
v -0.003799796337 0.005431338213 -0.001817994751
v -0.003794589546 0.005415789317 -0.001773206983
v -0.003783459542 -0.005392045248 -0.001700863591
v -0.003761853324 0.005056367721 -0.0009678259376
v -0.003759133862 -0.005058388226 -0.0009678214556
v -0.003753961064 0.005100639071 -0.001045277691
v -0.003739415668 0.005060931668 -0.0009611079004
v -0.003679881105 0.004147531465 0.0001459952036
v -0.00367765245 -0.0041495068 0.0001459909254
v -0.003658871632 0.007915130816 -0.0284161754
v -0.003633754561 0.002949966351 0.0008225608617
v -0.003632169217 -0.00295191817 0.0008225585334
v -0.003623484168 0.007822325453 -0.02466299012
v -0.003619278781 -0.007824269123 -0.02466299199
v -0.003602165962 0.007680308074 -0.02087050863
v -0.003598037874 -0.007682247553 -0.02087050676
v -0.003589446191 0.00588976685 -0.003059890354
v -0.003586279927 -0.005891695153 -0.003059897339
v -0.003585735802 -0.007944355719 -0.02836989425
v -0.003571751295 0.005084455013 -0.0009424254531
v -0.003569018096 -0.005086374469 -0.0009424241725
v -0.003443885129 0.005541855004 -0.001869868371
v -0.003440905595 -0.00554370787 -0.001869868836
v -0.003438265761 0.005332194269 -0.001372205908
v -0.003435400082 -0.005334044341 -0.001372208702
v -0.003409766592 0.003587298561 0.0005244733766
v -0.003407837823 -0.003589131869 0.0005244758213
v -0.00340484106 -0.005103812087 -0.0009385116282
v -0.003395406995 0.004668054171 -0.000347851892
v -0.003392897081 -0.004669875838 -0.0003478479921
v -0.003263616003 -0.001619311748 0.001037805458
v -0.003262454644 0.001691501122 0.001029430423
v -0.003241248429 0.0007768321084 0.001088819234
v -0.003222692991 0.005114945117 -0.0009596805321
v -0.003217614023 -0.0006112804986 0.001089412137
v -0.003195917001 0.004169189837 0.00012730663
v -0.003193676472 -0.004170904867 0.0001272928348
v -0.003179700114 -0.008089708164 -0.02807943895
v -0.003170212964 0.002863354515 0.0007854957948
v -0.003166199429 -0.002882793546 0.0007798207225
v -0.003077605739 0.0001268187625 0.001068222453
v -0.00307224784 -8.280848646e-07 0.001067364123
v -0.003062883858 -0.003470884869 0.0005441103131
v -0.003044253914 0.007424386218 -0.01336535159
v -0.003040262032 -0.007426021621 -0.01336534601
v -0.003029795829 0.004687856883 -0.0003796208766
v -0.003027276136 -0.0046894853 -0.0003796199162
v -0.003012885107 0.007101368625 -0.009505651891
v -0.003010984743 -8.074158586e-07 0.001054772176
v -0.003009067383 -0.007102984004 -0.009505652823
v -0.002984516788 0.007679392584 -0.01710298657
v -0.0029844034 0.003842017846 0.0003359597176
v -0.002980388934 -0.007680995855 -0.01710298099
v -0.002973473398 0.00815393962 -0.02792091668
v -0.002929092385 0.007894407026 -0.02057319507
v -0.002924848348 -0.007895979099 -0.02057319507
v -0.002916655038 0.006902786903 -0.007678277325
v -0.002912944183 -0.006904350594 -0.007678270806
v -0.002901558299 0.004214528017 6.827731704e-05
v -0.002883583307 -0.004289267119 7.220631687e-06
v -0.002863600617 0.008078830317 -0.02431199327
v -0.002859258559 -0.008080370724 -0.02431200072
v -0.002832510043 0.004559672903 -0.0002491652267
v -0.002804299816 -0.004721141886 -0.0004253592924
v -0.002782413037 -0.004913161509 -0.0006676107878
v -0.002776664449 -0.005159533117 -0.001041062642
v -0.002746400191 0.006672752555 -0.005995679647
v -0.002742813667 -0.006674225908 -0.00599567499
v -0.002587610157 0.005181769375 -0.001078552683
v -0.002564269584 0.001826995751 0.0008561589639
v -0.002563287038 -0.001828375272 0.0008561592549
v -0.002524164738 0.00640159566 -0.00449023908
v -0.002520724433 -0.006402953528 -0.004490246531
v -0.002493974753 0.001054134686 0.0009072518442
v -0.002493407344 -0.001055474277 0.0009072486428
v -0.002420323435 -0.008299808018 -0.02749413811
v -0.002411201363 0.0006892083329 0.0009074271657
v -0.002410831163 -0.0006905060145 0.0009074221598
v -0.002289358294 0.006077560131 -0.003182500834
v -0.002286092378 -0.006078789011 -0.003182505956
v -0.002280667424 0.008330369368 -0.02737568505
v -0.002198522445 -0.008347740397 -0.02731069922
v -0.002196721733 0.005213999189 -0.001151769888
v -0.002193919383 -0.005215179175 -0.001151777338
v -0.002127319109 0.004804735072 -0.0005976091488
v -0.002124736551 -0.004805876408 -0.000597610604
v -0.002094941214 0.004346859176 -0.0001606363221
v -0.002092603594 -0.004347987473 -0.0001606237929
v -0.00207966473 0.003846021136 0.0001715032849
v -0.002077596961 -0.003847137559 0.0001715095714
v -0.002075828612 0.005691137165 -0.0020877684
v -0.002072768752 -0.005692253821 -0.002087767469
v -0.002063073451 0.003303820034 0.000412004767
v -0.00206129672 -0.003304929007 0.0004120135272
v -0.00203869259 -0.0005121471477 0.0008241267642
v -0.002029251307 0.002717540599 0.0005746983807
v -0.002027788432 -0.002718629083 0.0005747086252
v -0.00202774303 0.0005184459151 0.0008210092201
v -0.001970786368 0.002071199007 0.0006748981541
v -0.00196967274 -0.002072257223 0.0006749001914
v -0.001904821955 -0.005235790741 -0.001211664523
v -0.00186833879 0.001394301304 0.0007220561383
v -0.001867589192 -0.001395306434 0.0007220578264
v -0.001784144435 -4.784205884e-07 0.0007709198399
v -0.001690542442 -0.008437211625 -0.0268638283
v -0.001690429635 0.007335057016 -0.009080681019
v -0.001686488278 -0.007335965987 -0.009080691263
v -0.00167857192 0.0007603724953 0.0007173233898
v -0.001660958282 0.007689130493 -0.01286794432
v -0.001656824606 -0.007690024097 -0.01286794059
v -0.00164998637 0.007105305325 -0.007309183013
v -0.001646166784 -0.007106191479 -0.007309178822
v -0.001566988183 -0.005267260596 -0.001295415452
v -0.001564927283 0.006829379126 -0.005706011318
v -0.001561255543 -0.006830219645 -0.005706004333
v -0.001536027412 0.007963287644 -0.01652917452
v -0.001531746937 -0.007964113727 -0.01652918383
v -0.001487118658 0.008465430699 -0.02666878328
v -0.001472544973 0.004887491465 -0.0008158092969
v -0.001469917945 -0.004888282157 -0.0008158070268
v -0.001450394513 0.006508415565 -0.004304048605
v -0.001446895767 -0.00650919741 -0.004304047674
v -0.00138367305 0.004479335155 -0.0004419839242
v -0.001381264767 -0.004480079282 -0.0004419724282
v -0.001366961515 0.008204741403 -0.01988835819
v -0.001362550887 -0.008205474354 -0.01988835633
v -0.001358932932 0.00529291993 -0.001358931419
v -0.001331263105 0.006147999782 -0.003120863112
v -0.001330703613 0.000366718712 0.0006414270028
v -0.001327958307 -0.006148714107 -0.003120864276
v -0.001295728027 0.004046564456 -0.0001599830866
v -0.00129355269 -0.004047262482 -0.0001599817333
v -0.0012246517 0.005752976052 -0.002167460741
v -0.00122155936 -0.005753637291 -0.002167457715
v -0.001201519393 0.003593854606 4.314786202e-05
v -0.001199587947 -0.003594502108 4.31419503e-05
v -0.001182898646 0.008407767862 -0.02352742106
v -0.001178380568 -0.008408404887 -0.02352742851
v -0.001161761 -0.001142697758 0.0005387295387
v -0.001130754594 -0.005327620544 -0.001440052292
v -0.001093929168 0.00312034064 0.0001810845424
v -0.001092252205 -0.003120929236 0.0001810716494
v -0.001063883305 0.008512067609 -0.02624609508
v -0.00106321834 -0.008512301371 -0.02625089884
v -0.0009906660998 0.005352436565 -0.001500205137
v -0.0009877898265 -0.00535296835 -0.001500213169
v -0.000984710292 -0.008519149385 -0.02616833523
v -0.0009659546195 0.002622199478 0.0002654218697
v -0.0009645452956 -0.002622720553 0.0002654214913
v -0.000952033326 -2.545057782e-07 0.0005375230103
v -0.0008729706169 -0.008527950384 -0.02604809776
v -0.0008575447719 0.005044622812 -0.001135482453
v -0.0008548339247 -0.005045081954 -0.001135481172
v -0.0008163687889 0.008531845175 -0.02597998641
v -0.0008089009789 0.002101580845 0.0003051652166
v -0.0008078945684 0.003779869992 -0.0001898098999
v -0.0008077709936 -0.002102015307 0.0003051635867
v -0.0008058620733 -0.00378030329 -0.0001898026094
v -0.0007232850767 0.004717182368 -0.000848855474
v -0.0007207489689 -0.00471757073 -0.0008488564636
v -0.0007056697505 -0.00541244261 -0.001644398319
v -0.0006938102888 0.001510740956 0.0003468717914
v -0.0006031049998 0.001584867714 0.0003060300078
v -0.0006022522575 -0.001585191698 0.0003060354211
v -0.0005816401681 0.004367859103 -0.0006297563086
v -0.0005792915472 -0.00436817389 -0.000629751652
v -0.0005161421723 0.002911413088 1.371826329e-05
v -0.0005145757459 -0.002911691088 1.373042505e-05
v -0.0005072529311 0.005459011532 -0.001771260868
v -0.000504319265 -0.00545928441 -0.001771263545
v -0.0004302735906 0.003999865148 -0.0004685116
v -0.0004281235742 -0.004000095185 -0.0004685084568
v -0.000425246777 0.005759631284 -0.002278876957
v -0.0004221503914 -0.005759857129 -0.002278865315
v -0.0003884578764 0.005944066681 -0.002660531318
v -0.0003852631489 -0.005944276229 -0.002660534577
v -0.0003831526847 -0.008553765714 -0.02547587454
v -0.0003666037519 0.006079615094 -0.002977821045
v -0.0003633353335 -0.006079808343 -0.002977821743
v -0.000325097586 0.006435352843 -0.003936461639
v -0.0003216393816 -0.006435525604 -0.003936470952
v -0.0003151091805 -0.006507113576 -0.00415575318
v -0.0003128678072 0.006573798135 -0.004370181356
v -0.0003093343694 -0.006573964842 -0.004370185081
v -0.0002959423 0.006782415323 -0.005107650068
v -0.0002922961721 -0.006782570854 -0.005107649136
v -0.0002887121518 0.006870256271 -0.00545460172
v -0.0002850202436 -0.006870411336 -0.005454605445
v -0.0002671430993 0.007094374858 -0.006471374538
v -0.0002633292461 -0.00709451735 -0.006471369416
v -0.0002606633061 -0.007699960377 -0.02958787978
v -0.0002585707698 0.007164291572 -0.006839445326
v -0.0002547205368 -0.007164432667 -0.006839448586
v -0.0002276523446 0.007355013397 -0.008009859361
v -0.0002265988733 0.008557666093 -0.02526830882
v -0.0002237004228 -0.0073551354 -0.008009866811
v -0.0002079385304 0.007445663214 -0.008666902781
v -0.0002039366082 -0.007445773575 -0.008666905575
v -0.0001810686808 0.005112257786 -0.001469849842
v -0.0001783220068 -0.005112356506 -0.001469855662
v -0.000171085383 0.007578076795 -0.0097685894
v -0.0001670124038 -0.007578170393 -0.009768591262
v -0.0001545395498 0.00508040376 -0.001448796247
v -0.0001344353077 -0.005059338175 -0.001435348648
v -0.0001070541257 0.007741689216 -0.01140579116
v -0.0001028916886 -0.007741745561 -0.01140578743
v -8.690152026e-05 0.003210319672 -0.0002825584088
v -8.567141776e-05 0.0007886905805 0.0002151820954
v -8.524686564e-05 -0.0007887375541 0.0002151821973
v -8.517670358e-05 -0.003210364375 -0.0002825648407
v -7.105682016e-05 0.004248671699 -0.0008000630769
v -6.877303531e-05 -0.004248710349 -0.0008000680828
v -6.499057781e-05 0.007822535932 -0.01234054193
v -6.078570368e-05 -0.007822566666 -0.01234054472
v -5.490550734e-07 0.002067258814 -9.285205124e-06
v 5.62196476e-07 -0.002067260444 -9.286794921e-06
v 1.556510506e-05 -0.00486900378 -0.001330203959
v 5.294541552e-05 0.007991220802 -0.01453173161
v 5.724021321e-05 -0.007991192862 -0.01453173719
v 9.758275701e-05 0.005480685271 -0.002088422189
v 0.0001005288359 -0.005480634049 -0.002088425448
v 0.0001530019799 -0.008558535948 -0.0247376468
v 0.0001541534439 0.008558541536 -0.02472903952
v 0.0001842682977 0.004637067206 -0.001231127186
v 0.0001867595274 -0.004636967555 -0.001231134753
v 0.0002671311086 0.004520031624 -0.001190070994
v 0.0003043183533 0.008555355482 -0.02449269593
v 0.0003248912399 0.007279978599 -0.02971547283
v 0.0003251380986 0.003521041013 -0.0006311688921
v 0.0003268529545 0.005869333632 -0.00286601088
v 0.000327029702 -0.00352086802 -0.0006311750039
v 0.0003300082171 -0.005869153421 -0.002866007853
v 0.0003347956517 0.007332205772 -0.00788173452
v 0.0003460813896 0.002338384977 -0.0002329256968
v 0.0003473381803 -0.002338195918 -0.0002329259296
v 0.0003670611768 -0.007676892448 -0.02972094715
v 0.0003952084226 0.004334217869 -0.001135260332
v 0.0005123566953 0.006263441872 -0.003821172286
v 0.000515722495 -0.006263165735 -0.003821178107
v 0.0005199669977 0.00839461945 -0.0205275137
v 0.0005206312053 0.007728618104 -0.01122487802
v 0.0005244800705 -0.008394340053 -0.02052750438
v 0.0005960752605 1.597376809e-07 -1.81452051e-05
v 0.0005962442956 0.004032392055 -0.001069196383
v 0.0006080413586 -0.004017306492 -0.001066584489
v 0.000614932098 0.005050963722 -0.001909119776
v 0.0006176466704 -0.00505063124 -0.001909118728
v 0.0006241704104 0.002556561958 -0.0004385042121
v 0.0006255446351 -0.002556225052 -0.0004385052598
v 0.0006269834121 -0.008541027084 -0.02393077128
v 0.0006689905422 0.006640647538 -0.004958441015
v 0.0006725600106 -0.006640288047 -0.004958440084
v 0.0006810773048 0.00849793572 -0.0227426216
v 0.0007214951329 0.003838639474 -0.001038597315
v 0.000740183692 0.008533361368 -0.02369466051
v 0.0007447699318 -0.008532962762 -0.02369466051
v 0.0008087810129 0.006978211924 -0.006274063606
v 0.0008109697956 0.001549793524 -0.0002736482129
v 0.0008115330129 0.008527542464 -0.02353860624
v 0.0008118026308 -0.001549355802 -0.0002736492897
v 0.0008125319728 -0.006977778394 -0.006274060812
v 0.0008161180303 -0.008527099155 -0.02353859507
v 0.000882136228 0.008521304466 -0.02338265814
v 0.0008867164142 -0.00852082856 -0.02338266186
v 0.0009425178869 0.007257574704 -0.007757330313
v 0.000946418324 -0.007257068995 -0.007757324725
v 0.0009513682453 0.007207592018 -0.02974734642
v 0.0009607716929 -0.007606210653 -0.0297470279
v 0.0009911550442 0.005482069217 -0.002733338857
v 0.0009941007011 -0.005481530912 -0.002733339556
v 0.001079464681 -0.007481608074 -0.009363946505
v 0.001127312193 0.00449110521 -0.001780382707
v 0.001129726646 -0.004490502179 -0.001780375955
v 0.001150260796 -0.006496566348 -0.004893419798
v 0.001210972783 0.007662755903 -0.01103858836
v 0.00121509016 -0.007662105374 -0.01103859954
v 0.001224845299 0.003025234444 -0.0009738291847
v 0.001226471504 -0.003024575068 -0.0009738178924
v 0.001318368013 0.005907357205 -0.003707828699
v 0.001321541495 -0.005906648934 -0.003707835451
v 0.001350566046 -0.00684253592 -0.006191422231
v 0.001357324421 0.0007513547898 -0.0004216148809
v 0.001357728383 -0.0007506276597 -0.0004216057714
v 0.00150350458 0.007934585214 -0.01437056251
v 0.001507145469 -0.007498011924 -0.02968738042
v 0.00150776864 -0.007933774963 -0.01437056717
v 0.001515569165 0.008502664976 -0.02338175476
v 0.001534512732 0.007128481288 -0.007648451254
v 0.001549648005 -0.002481537638 -0.0009649749263
v 0.001568337553 0.002999942051 -0.02967558429
v 0.001568337786 0.007083126344 -0.02967557497
v 0.001582765603 0.002423920203 -0.0009655552567
v 0.001606880105 0.006304746494 -0.004836592823
v 0.001610268489 -0.006303878501 -0.004836592358
v 0.001618898474 0.004943845328 -0.002630359959
v 0.001621557749 -0.004942975473 -0.002630350413
v 0.001651300583 0.003792331321 -0.001701059751
v 0.00165333855 -0.003791441442 -0.001701057539
v 0.001695481129 -0.002233100822 -0.000969820132
v 0.001837607007 0.008148089983 -0.01743208803
v 0.00184198597 -0.008147101849 -0.01743209176
v 0.00186771655 0.006654721219 -0.006119979545
v 0.001871293527 -0.006653715391 -0.006119970232
v 0.001893781475 0.007539412472 -0.01086567622
v 0.001957560191 5.256768532e-07 -0.0007158669177
v 0.002034547739 -0.007352546323 -0.02954998799
v 0.002051191404 0.006062078755 -0.004786823876
v 0.002054449636 -0.006060973275 -0.004786823411
v 0.002069448354 0.005374222528 -0.003617951646
v 0.002072337782 -0.005373108201 -0.003617945593
v 0.002092020819 -0.00846348051 -0.02338043228
v 0.002110898728 0.006942266133 -0.007552181371
v 0.002114629839 -0.006941131782 -0.007552193012
v 0.002162275137 -0.001427283278 -0.001034640707
v 0.002167881932 -0.003600059543 -0.02950185165
v 0.002167882631 -0.007309102453 -0.02950184792
v 0.002172897104 0.006907300558 -0.02949992195
v 0.002178476658 0.001398930326 -0.001038683113
v 0.002178798197 0.00832206849 -0.02054514363
v 0.002183271106 -0.008320898749 -0.02054513805
v 0.002197898459 0.002935156226 -0.001651422586
v 0.002199477283 -0.002933975542 -0.001651420142
v 0.002232341096 0.004236695357 -0.002552122809
v 0.002234617481 -0.004235492554 -0.00255212863
v 0.002346139401 -0.007170733996 -0.009096217342
v 0.002354325959 0.001092213788 -0.001088348217
v 0.002372426679 0.00641049305 -0.006057087798
v 0.002375871874 -0.006409215741 -0.006057083607
v 0.002418132266 0.008433371782 -0.02337905392
v 0.002422980499 -0.008431695402 -0.02337922901
v 0.00248174998 0.005766709335 -0.004741476849
v 0.002484850353 -0.005765374284 -0.004741465207
v 0.00256636343 0.007354977541 -0.01070474274
v 0.002570316428 -0.007353596389 -0.01070473716
v 0.002571018878 0.0007118181093 -0.001172533841
v 0.002610542811 0.000642077357 -0.001191292075
v 0.002610886004 -0.0006406732718 -0.001191304182
v 0.002671793802 0.006696247961 -0.007465585135
v 0.002675394062 -0.006694812328 -0.007465573493
v 0.002729799133 -0.007094765082 -0.02923137136
v 0.002730303211 0.002999942284 -0.02923106588
v 0.002730303211 0.006694432814 -0.02923106961
v 0.0027345079 0.001962878974 -0.001647275174
v 0.002735563321 -0.00196140958 -0.001647266909
v 0.002776093548 -0.000346865505 -0.001283880556
v 0.002786075231 0.004643462133 -0.003536505392
v 0.002788570477 -0.004641963635 -0.003536503762
v 0.002796816174 -0.0003097013396 -0.0012971838
v 0.00284453365 0.003338887356 -0.002478151582
v 0.002846328542 -0.003337359056 -0.002478145761
v 0.00286226999 0.006107890978 -0.005999282468
v 0.002865551971 -0.006106353831 -0.005999286659
v 0.002958550118 -0.006922807544 -0.008978884667
v 0.002967762528 7.989704046e-07 -0.001420863089
v 0.00301054446 0.007625011262 -0.01392605156
v 0.003014641814 -0.00762339076 -0.01392605342
v 0.003165944712 0.008319721557 -0.0235874895
v 0.003168041585 0.008333711885 -0.02337555774
v 0.003189925803 0.000965474057 -0.001717846841
v 0.003190444084 -0.0009637587355 -0.001717845793
v 0.003196775448 0.006475428119 -0.02890652046
v 0.003217374207 0.00638744235 -0.007385215256
v 0.003220805898 -0.006385712419 -0.007385227829
v 0.003226028755 0.00710585434 -0.01055435929
v 0.003229847411 -0.007104117889 -0.01055436209
v 0.003230433213 -0.006858195644 -0.02887876891
v 0.0033099961 0.00500504626 -0.004648619331
v 0.003312687622 -0.005003266502 -0.004648609553
v 0.003341666888 -0.005741956644 -0.005942398682
v 0.003356821369 0.000479404931 -0.001775632147
v 0.003357078414 -0.0004776027054 -0.001775627839
v 0.003414564533 0.002287656069 -0.002422740217
v 0.003415793646 -0.002285823924 -0.002422739286
v 0.003468016395 0.007830691524 -0.01694379561
v 0.003472225042 -0.007828826085 -0.01694379374
v 0.003474952187 9.347353399e-07 -0.001849837718
v 0.003482572502 0.003693225328 -0.003440138418
v 0.003484556451 -0.003691349877 -0.003440140747
v 0.003555430565 -0.0066088452 -0.008869159967
v 0.00358180562 -0.006663895678 -0.02854479291
v 0.003721307497 -0.0082182521 -0.02358415723
v 0.003723834874 -0.008231536485 -0.023372408
v 0.003747848328 0.006012597587 -0.007307347842
v 0.003750918433 0.00737244077 -0.01372122206
v 0.003751079785 -0.006010582671 -0.007307342254
v 0.003754880046 -0.007370424923 -0.01372122671
v 0.003802690888 0.005314895883 -0.005882236175
v 0.003805547254 -0.005312852096 -0.005882239435
v 0.003860676195 0.00115784246 -0.002416918986
v 0.003861297388 -0.001155764214 -0.002416927135
v 0.003870091168 0.00678839162 -0.01041307207
v 0.003873739159 -0.006786313374 -0.01041306742
v 0.003903501201 0.007995980792 -0.0200470183
v 0.003907797392 -0.007993882522 -0.02004702203
v 0.003980552778 1.069180485e-06 -0.002358006081
v 0.004000270739 0.0005805981928 -0.002428875538
v 0.004000582267 -0.0005784459063 -0.0024288774
v 0.00410326058 0.003998287488 -0.004530205857
v 0.004105409607 -0.003996082116 -0.004530209582
v 0.004110674374 0.002557016676 -0.003342469689
v 0.00411204854 -0.002554808278 -0.003342460142
v 0.004135619849 -0.006225423422 -0.008764246479
v 0.004236323759 0.00811792165 -0.02336889133
v 0.004263433628 0.005568468012 -0.007228153758
v 0.004266425502 -0.005566178355 -0.007228162605
v 0.004271218088 0.007573625538 -0.01672222279
v 0.004275287502 -0.007571329828 -0.01672223024
v 0.00447487412 0.007048924919 -0.01352867112
v 0.004478663672 -0.007046516519 -0.01352865901
v 0.004495873582 0.006398907863 -0.01027931646
v 0.004499312025 -0.006396491546 -0.01027932297
v 0.004576227628 0.001305853832 -0.003279413329
v 0.004576927517 -0.001303395373 -0.00327941915
v 0.004694444593 0.004254697822 -0.005738727748
v 0.004694856703 0.005771643016 -0.008661358617
v 0.00469673099 -0.004252175801 -0.005738727748
v 0.004697958473 -0.005769116338 -0.008661348373
v 0.004712523427 0.0006567601813 -0.003265816486
v 0.004712876398 -0.0006542267511 -0.00326581439
v 0.004752261098 0.007734998129 -0.01982759871
v 0.004756417591 -0.007732447237 -0.01982760057
v 0.004767011851 -0.005049288739 -0.007143924944
v 0.00477569038 0.007908666506 -0.02376326174
v 0.004789429251 0.007955757901 -0.02357804775
v 0.004792758729 0.00796760153 -0.02336474508
v 0.004793731496 -0.007953273132 -0.02357746102
v 0.004797040485 -0.007965027355 -0.02336474136
v 0.004805598874 0.002780610695 -0.004400144797
v 0.004807091784 -0.002778026974 -0.00440015737
v 0.004989416804 0.007897095755 -0.02317504957
v 0.004993660375 -0.007894415408 -0.02317504399
v 0.005039092619 0.007788073737 -0.02382570319
v 0.005043278448 -0.007785364054 -0.02382569201
v 0.005055444781 0.007244356908 -0.01651614718
v 0.005059336778 -0.007241639309 -0.01651615836
v 0.005072479602 0.007868824527 -0.02345490642
v 0.005076707341 -0.007866097614 -0.02345490642
v 0.00509025855 0.002115580253 -0.00434418628
v 0.005091393832 -0.002112845425 -0.00434419699
v 0.005100696348 0.005933713168 -0.0101516014
v 0.005103885196 -0.00593097182 -0.01015159581
v 0.005176673178 0.006650137715 -0.01334887091
v 0.005180246197 -0.00664735632 -0.01334887557
v 0.005228430498 1.406545607e-06 -0.003869730746
v 0.005245762412 0.004463951569 -0.007053902373
v 0.005248160567 -0.004461132921 -0.007053903304
v 0.005275628064 0.007640835829 -0.02388881519
v 0.005279733799 -0.007638001349 -0.02388881519
v 0.005312164314 0.001425009337 -0.00430026697
v 0.005312929396 -0.001422152272 -0.004300269764
v 0.005327749066 0.007738113403 -0.02354856208
v 0.005331905559 -0.007735248655 -0.02354856953
v 0.005456425715 0.000717476476 -0.004271777347
v 0.005456810817 -0.0007145400159 -0.004271774087
v 0.005474166013 0.002964178566 -0.005583208986
v 0.005475759972 -0.002961236984 -0.005583199207
v 0.005578726064 0.007401205134 -0.01962693408
v 0.005582704209 -0.007398205344 -0.01962692663
v 0.005599539261 0.007396197878 -0.02394343726
v 0.005669645499 0.007489369716 -0.02367414162
v 0.005673670676 -0.007486321498 -0.02367412858
v 0.005681843497 0.00538916979 -0.01002839766
v 0.005684740376 -0.005386113655 -0.01002838649
v 0.00569408806 0.003814280499 -0.006963051856
v 0.005696136504 -0.003811218543 -0.00696305884
v 0.005757325329 0.004632054362 -0.008453049697
v 0.005787020084 0.002256810898 -0.005515242461
v 0.005788232666 -0.002253704472 -0.005515239667
v 0.005812464748 0.006837914698 -0.01632592268
v 0.005816139281 -0.006834789179 -0.01632592268
v 0.005850571208 0.006171755958 -0.01318234485
v 0.005853888579 -0.006168609485 -0.01318234671
v 0.005909928586 0.007502739783 -0.02235912345
v 0.00591407856 -0.007499260828 -0.02235902473
v 0.005982125644 0.007091305219 -0.02394314297
v 0.006029143929 0.001520945807 -0.005460882094
v 0.006029961631 -0.00151770399 -0.005460873712
v 0.006057051476 0.007180635817 -0.02367384546
v 0.006060910411 -0.007177378517 -0.02367384173
v 0.006094537675 0.003113229293 -0.006876965053
v 0.006096209399 -0.003109954763 -0.006876965519
v 0.006185518578 0.0007660714327 -0.005424827803
v 0.00618592836 -0.0007627496962 -0.005424832925
v 0.006189089268 0.007348985877 -0.02269106172
v 0.006193117704 -0.007345404942 -0.0226909779
v 0.006232693326 0.004766502883 -0.00990988221
v 0.006235254463 -0.004763152916 -0.009909881279
v 0.006350277923 1.707207048e-06 -0.005601551384
v 0.006372968666 0.006988953333 -0.01944426261
v 0.00637672469 -0.006985527929 -0.01944425516
v 0.006411860697 0.007106763776 -0.02301273309
v 0.006415724754 -0.007103117183 -0.02301265113
v 0.006432360038 0.002371198032 -0.00680115493
v 0.006433634087 -0.002367741894 -0.006801153533
v 0.006490805186 0.005609511398 -0.01302959025
v 0.006493820343 -0.005606022198 -0.01302958466
v 0.00653405115 0.006349333562 -0.01615185104
v 0.00653746305 -0.006345819682 -0.01615184918
v 0.006664191838 0.003233087948 -0.008258200251
v 0.006692540832 0.001598481904 -0.006740860641
v 0.006693399977 -0.00159488339 -0.00674085645
v 0.00673931418 0.004076024983 -0.009799462743
v 0.006741504185 -0.00407240307 -0.009799461812
v 0.006841183174 0.006962093525 -0.02156697214
v 0.006845180411 -0.00695770653 -0.0215667896
v 0.006859884132 0.0008052975172 -0.006701027974
v 0.006860316265 -0.0008016072097 -0.006701030768
v 0.006919187494 1.86055172e-06 -0.00668664882
v 0.006945473608 0.006153675728 -0.02394241467
v 0.00694664102 0.006769423373 -0.02253583074
v 0.006948780734 -0.006149940193 -0.02394241281
v 0.006950278301 -0.006765689235 -0.02253582887
v 0.007022327278 0.002463207813 -0.008177584969
v 0.007023650687 -0.002459432464 -0.008177580312
v 0.007032535039 0.006231194828 -0.02367310412
v 0.007035883609 -0.006227412727 -0.02367309853
v 0.007086053956 0.006791477557 -0.02191662788
v 0.007089092396 0.004964417778 -0.01289150119
v 0.007089890074 -0.006787080318 -0.02191645466
v 0.007091759704 -0.004960605875 -0.01289150119
v 0.007125061937 0.006492600776 -0.01927883178
v 0.007128550205 -0.006488769315 -0.01927883364
v 0.007186977193 0.003329046303 -0.009700848721
v 0.007188765798 -0.003325182945 -0.009700849652
v 0.007211962715 0.005773695651 -0.01599428244
v 0.007215064485 -0.00576981809 -0.0159942843
v 0.007264849264 0.006539496128 -0.02225701697
v 0.007268466987 -0.006535130553 -0.02225684747
v 0.007296919823 0.001660865499 -0.008114401251
v 0.007297811564 -0.001656941371 -0.008114401251
v 0.007403257303 1.991592399e-06 -0.007746543735
v 0.007459436543 0.005714582745 -0.02367277816
v 0.007462507114 -0.005710571539 -0.02367278002
v 0.007472851314 0.0008368637646 -0.008073184639
v 0.007473301142 -0.0008328485419 -0.008073174395
v 0.00756094791 0.002536883578 -0.009617783129
v 0.007562310435 -0.002532817423 -0.009617780335
v 0.007632436696 0.004247377161 -0.01276979875
v 0.007634717505 -0.004243275616 -0.0127698034
v 0.007763006724 0.005086517427 -0.0239418
v 0.007765739225 -0.005082346965 -0.0239418
v 0.007778515574 0.006222766358 -0.02083898894
v 0.007782223169 -0.006217557471 -0.02083872445
v 0.007825078443 0.005906555336 -0.01912990585
v 0.00782825239 -0.005902349483 -0.01912990026
v 0.007836874574 0.005111745559 -0.01585385203
v 0.007839621045 -0.005107533187 -0.01585384645
v 0.007846456021 0.001710823854 -0.009553935379
v 0.007847373374 -0.001706608804 -0.009553942829
v 0.007860367186 0.005150595214 -0.02367247455
v 0.007862125523 0.006033931393 -0.02175115421
v 0.007863134146 -0.005146368872 -0.023672482
v 0.007865056396 -0.00602953136 -0.02175125852
v 0.007968135178 0.006053314544 -0.02120870166
v 0.007971648127 -0.006048188545 -0.02120845951
v 0.008028703742 0.0008621612797 -0.009512960911
v 0.008029166609 -0.0008578432607 -0.009512952529
v 0.008085012436 0.005815274082 -0.02157067508
v 0.008088287897 -0.005810266826 -0.02157045342
v 0.008107329719 0.003470371012 -0.01266624313
v 0.008109194227 -0.003466013586 -0.01266623195
v 0.008326773532 2.235969305e-06 -0.01016284153
v 0.008392244577 0.004231222905 -0.0236720778
v 0.008394518867 -0.004226710182 -0.02367207222
v 0.008397437632 0.004374817945 -0.015731683
v 0.008399787359 -0.004370301496 -0.01573169231
v 0.008417516947 0.003912292887 -0.02394130826
v 0.008419619873 -0.003907768987 -0.02394129895
v 0.008463176899 0.005231255665 -0.01899732836
v 0.008465988562 -0.005226706155 -0.01899732277
v 0.008500262164 0.002645388944 -0.01258259639
v 0.008501683362 -0.002640820807 -0.01258259919
v 0.008523122407 0.003961577546 -0.02367198095
v 0.00852525048 -0.003956996836 -0.02367198467
v 0.008651671931 0.005270749796 -0.02022488788
v 0.008656069636 -0.005264123902 -0.02022309043
v 0.008665075526 0.002586805727 -0.02420640737
v 0.008666464128 -0.002582150279 -0.02420640923
v 0.008786462247 0.005116451066 -0.0206122864
v 0.008790292777 -0.005110020284 -0.02061053738
v 0.008797724731 0.001784417895 -0.0125206504
v 0.0087986812 -0.001779689919 -0.01252065878
v 0.008843216114 0.004907280672 -0.02099320292
v 0.0088464031 -0.004901067354 -0.02099150978
v 0.008882076479 0.003575400449 -0.01562902518
v 0.008883995935 -0.00357062323 -0.01562903449
v 0.008895228617 0.002655716846 -0.02394094877
v 0.008896654472 -0.002650937764 -0.02394094691
v 0.008948384784 0.001308388542 -0.02420618758
v 0.008949087933 -0.001303575933 -0.02420618385
v 0.008986205794 0.0008994369418 -0.01248218119
v 0.008986688219 -0.0008946026792 -0.01248218212
v 0.009006852284 0.002689176006 -0.02367160656
v 0.009008295834 -0.002684332896 -0.02367161028
v 0.009029673412 0.004478388466 -0.01888208278
v 0.009032079019 -0.00447353581 -0.01888208091
v 0.009043723345 2.429403139e-06 -0.02420612238
v 0.009052195586 2.432393103e-06 -0.01246896386
v 0.009067286737 0.004577951971 -0.02082931809
v 0.009069385938 -0.004572981503 -0.02082759328
v 0.009186085314 0.001343243523 -0.02394071966
v 0.009186805226 -0.001338307862 -0.02394072153
v 0.009279219434 0.002725982806 -0.01554706693
v 0.009280682541 -0.002720992314 -0.01554706972
v 0.009283963591 2.493485226e-06 -0.02394065261
v 0.009301372804 0.001360166469 -0.02367138118
v 0.009302102029 -0.001355166431 -0.02367138676
v 0.009359251708 0.000878652907 -0.02367134765
v 0.009359722957 -0.0008736234158 -0.02367134579
v 0.009385390207 0.0041604531 -0.01972290128
v 0.009389966726 -0.004153035115 -0.01971984468
v 0.009400484152 2.526902108e-06 -0.0236713104
v 0.009417290799 2.530086704e-06 -0.01377901807
v 0.00948147662 0.004022084642 -0.02012284473
v 0.009485120885 -0.00401486177 -0.02011986077
v 0.009494104423 0.003841175232 -0.02051707171
v 0.009496843442 -0.003834203584 -0.0205141753
v 0.00951489713 0.003660873277 -0.01878529787
v 0.009516864084 -0.003655760549 -0.01878529228
v 0.009577292018 0.001839053817 -0.01548702549
v 0.00957827922 -0.001833907678 -0.01548702735
v 0.00976472348 0.0009271121235 -0.0154501088
v 0.009765218943 -0.0009218657506 -0.0154501209
v 0.009829936549 2.63973925e-06 -0.01543754805
v 0.009909179993 0.002791636158 -0.01870807819
v 0.009910679422 -0.002786315512 -0.01870807819
v 0.009926765226 0.0028611694 -0.02018557861
v 0.0099281203 -0.002854844322 -0.02018524148
v 0.009961467236 0.002913799835 -0.01931460574
v 0.009963147342 -0.002906911308 -0.01931432448
v 0.01000114437 0.002652152209 -0.02012606524
v 0.01000232436 -0.002645797562 -0.02012580074
v 0.01002466027 0.002797684399 -0.01972293109
v 0.01002613455 -0.002791043138 -0.01972265728
v 0.01019086316 2.736012903e-06 -0.01714401878
v 0.01020285673 0.001883602585 -0.01865152828
v 0.01020386629 -0.001878115931 -0.0186515376
v 0.01033238322 0.00136339257 -0.01984583586
v 0.01033399627 -0.001354858978 -0.0198416654
v 0.01034802478 0.001527901506 -0.01902411319
v 0.01035219245 -0.001518449048 -0.01901971921
v 0.01038376056 0.001453242498 -0.01943736151
v 0.01038625278 0.000949682435 -0.01861679181
v 0.01038661413 -0.001444223803 -0.01943306066
v 0.01038676128 -0.0009441009024 -0.01861679368
v 0.01039077528 0.000976660056 -0.01979140006
v 0.01039172988 -0.000971225847 -0.01978836767
v 0.01042209752 0.0006886959891 -0.01976093091
v 0.01042293198 -0.0006817040266 -0.01975887641
v 0.01045361906 2.810180376e-06 -0.01972902752
v 0.01045756973 0.0007807292277 -0.01893636212
v 0.0104596531 -0.0007733235834 -0.01893418469
v 0.01048301253 0.0007385686622 -0.01935096085
v 0.01048453897 -0.0007313467795 -0.01934883185
v 0.0104972925 2.818225312e-06 -0.01890342869
v 0.01051842701 2.824930789e-06 -0.01931850612
f 466 161 190
f 529 2 5
f 5 2 1
f 7 4 12
f 1 4 7
f 70 32 59
f 12 53 48
f 48 7 12
f 12 32 55
f 55 53 12
f 55 32 70
f 154 163 75
f 173 163 154
f 579 599 578
f 578 580 579
f 579 580 599
f 555 580 578
f 599 747 778
f 248 466 190
f 93 466 80
f 92 112 93
f 529 5 505
f 505 5 8
f 80 466 505
f 505 466 319
f 599 580 713
f 713 747 599
f 76 79 80
f 62 79 76
f 58 62 76
f 3 11 8
f 8 5 3
f 3 5 1
f 1 30 3
f 1 2 6
f 6 4 1
f 67 59 51
f 11 3 47
f 856 823 841
f 345 348 444
f 288 348 345
f 283 348 288
f 125 130 136
f 129 131 46
f 46 37 129
f 129 37 125
f 46 131 61
f 61 47 46
f 154 75 61
f 67 82 77
f 56 48 53
f 53 55 56
f 165 173 154
f 154 152 165
f 165 152 187
f 212 165 187
f 173 165 212
f 120 112 92
f 120 137 133
f 122 182 119
f 531 565 540
f 300 294 254
f 843 835 839
f 133 137 139
f 139 466 133
f 161 466 139
f 319 466 292
f 466 248 292
f 133 466 117
f 466 93 117
f 117 93 112
f 117 120 133
f 112 120 117
f 92 93 90
f 90 93 80
f 90 79 92
f 80 79 90
f 49 19 58
f 4 6 9
f 21 59 32
f 21 51 59
f 15 51 21
f 21 32 12
f 31 19 11
f 31 68 62
f 31 62 58
f 58 19 31
f 46 47 41
f 41 28 46
f 30 28 41
f 11 47 52
f 52 61 57
f 47 61 52
f 39 3 30
f 39 47 3
f 30 41 39
f 39 41 47
f 860 873 881
f 844 839 825
f 825 815 599
f 600 629 576
f 576 565 600
f 540 565 576
f 848 852 817
f 848 817 813
f 848 813 833
f 833 856 848
f 823 856 833
f 680 629 648
f 648 629 600
f 364 294 300
f 620 558 568
f 345 436 350
f 514 444 452
f 452 444 348
f 440 444 514
f 440 436 345
f 345 444 440
f 96 107 99
f 78 73 89
f 372 368 417
f 222 254 294
f 283 288 227
f 288 207 227
f 604 828 816
f 604 717 578
f 835 828 604
f 578 599 604
f 599 835 604
f 797 818 793
f 781 757 793
f 822 818 797
f 868 875 864
f 781 760 743
f 743 757 781
f 247 213 203
f 470 518 508
f 125 136 141
f 147 148 141
f 131 129 144
f 144 152 131
f 154 61 142
f 142 61 131
f 142 152 154
f 131 152 142
f 187 152 167
f 152 144 167
f 7 48 42
f 42 38 7
f 42 48 40
f 40 38 42
f 33 37 46
f 46 28 33
f 16 30 1
f 130 44 50
f 50 132 130
f 64 132 50
f 125 37 43
f 43 130 125
f 43 44 130
f 70 59 63
f 63 83 70
f 63 77 83
f 63 59 67
f 67 77 63
f 94 91 101
f 94 101 102
f 102 96 94
f 82 91 84
f 83 77 84
f 84 77 82
f 91 94 84
f 48 56 60
f 145 132 153
f 153 168 145
f 145 136 130
f 130 132 145
f 72 75 86
f 75 88 86
f 249 212 187
f 187 167 249
f 163 173 180
f 180 204 88
f 180 75 163
f 180 88 75
f 538 631 557
f 538 557 478
f 478 456 538
f 456 522 538
f 128 120 108
f 137 120 128
f 128 108 119
f 119 137 128
f 600 565 589
f 569 625 589
f 517 547 569
f 489 531 540
f 479 522 456
f 157 150 177
f 134 150 138
f 886 850 846
f 846 850 843
f 843 839 846
f 846 839 844
f 888 850 886
f 887 850 888
f 888 886 894
f 894 887 888
f 811 825 805
f 599 778 805
f 805 825 599
f 827 835 599
f 827 839 835
f 599 815 827
f 815 825 827
f 827 825 839
f 14 505 8
f 8 11 14
f 11 19 14
f 80 505 65
f 505 49 65
f 65 49 58
f 58 76 65
f 65 76 80
f 461 433 478
f 525 465 493
f 525 461 465
f 478 557 525
f 493 465 491
f 478 525 491
f 491 525 501
f 491 461 478
f 465 461 491
f 646 629 680
f 765 789 753
f 10 9 15
f 10 21 12
f 15 21 10
f 12 4 10
f 4 9 10
f 69 68 72
f 62 68 69
f 54 52 57
f 894 886 891
f 873 890 893
f 894 891 893
f 837 852 854
f 837 854 811
f 821 817 837
f 837 817 852
f 844 869 876
f 876 846 844
f 844 825 831
f 831 869 844
f 811 854 831
f 831 825 811
f 854 852 871
f 509 440 514
f 436 440 509
f 499 519 490
f 499 504 519
f 499 428 504
f 504 509 563
f 693 652 636
f 602 576 629
f 629 646 602
f 796 817 821
f 821 788 796
f 792 765 755
f 792 789 765
f 792 796 789
f 792 813 817
f 817 796 792
f 621 648 600
f 600 589 621
f 621 589 625
f 678 648 653
f 648 621 653
f 776 740 798
f 784 733 756
f 763 733 784
f 782 763 784
f 457 364 480
f 460 488 480
f 480 539 457
f 558 539 480
f 355 364 457
f 457 452 355
f 355 452 348
f 355 348 283
f 376 480 364
f 300 320 376
f 376 364 300
f 549 568 558
f 549 488 460
f 460 568 549
f 261 241 107
f 422 368 360
f 296 288 345
f 345 350 296
f 434 350 436
f 436 509 434
f 434 509 504
f 353 350 431
f 431 428 353
f 350 434 431
f 504 428 431
f 431 434 504
f 457 539 524
f 524 452 457
f 514 452 524
f 524 539 613
f 306 350 353
f 353 234 306
f 306 296 350
f 306 234 211
f 211 296 306
f 256 234 311
f 311 234 353
f 311 360 256
f 353 360 311
f 70 83 71
f 71 55 70
f 71 56 55
f 71 60 56
f 73 60 71
f 85 71 83
f 73 71 85
f 83 84 85
f 85 84 94
f 203 78 178
f 78 89 178
f 221 89 99
f 221 178 89
f 203 178 221
f 143 155 153
f 64 155 143
f 153 132 143
f 143 132 64
f 74 155 64
f 78 155 74
f 64 60 74
f 74 73 78
f 74 60 73
f 174 78 203
f 174 155 78
f 203 213 174
f 153 155 166
f 166 174 213
f 155 174 166
f 419 417 368
f 372 322 304
f 157 177 162
f 121 183 184
f 283 222 291
f 291 222 294
f 291 355 283
f 294 364 291
f 364 355 291
f 826 604 816
f 618 826 806
f 604 826 618
f 749 604 771
f 797 793 791
f 791 771 797
f 797 771 790
f 790 822 797
f 853 868 849
f 849 818 853
f 834 824 804
f 804 808 834
f 804 824 799
f 783 760 781
f 783 736 760
f 875 868 879
f 882 890 879
f 882 870 877
f 877 885 882
f 632 659 613
f 632 558 620
f 632 539 558
f 613 539 632
f 620 568 619
f 159 145 168
f 159 231 224
f 168 231 159
f 136 145 159
f 213 247 265
f 278 281 332
f 135 144 129
f 135 141 148
f 135 129 125
f 125 141 135
f 158 167 144
f 158 135 148
f 144 135 158
f 148 223 158
f 44 43 36
f 36 50 44
f 24 28 30
f 30 16 24
f 1 7 27
f 7 38 27
f 418 366 416
f 329 366 260
f 260 262 329
f 212 249 264
f 264 246 212
f 264 277 331
f 249 277 264
f 571 593 542
f 672 695 644
f 631 538 612
f 593 644 612
f 612 538 522
f 522 542 612
f 612 542 593
f 478 433 375
f 433 392 375
f 354 289 282
f 156 139 137
f 161 139 156
f 156 160 161
f 169 160 164
f 286 206 233
f 233 206 210
f 182 122 189
f 210 205 232
f 232 205 218
f 545 517 569
f 531 517 545
f 569 589 545
f 565 531 545
f 545 589 565
f 476 517 531
f 531 489 476
f 476 418 416
f 489 418 476
f 210 232 305
f 150 134 474
f 314 320 300
f 300 276 314
f 314 474 320
f 811 805 801
f 801 805 778
f 778 788 801
f 801 788 821
f 801 837 811
f 821 837 801
f 22 49 505
f 505 14 22
f 19 49 22
f 22 14 19
f 497 525 493
f 501 525 497
f 493 491 497
f 497 491 501
f 557 631 596
f 707 646 680
f 672 646 707
f 765 753 748
f 748 753 729
f 755 765 748
f 748 729 755
f 755 729 722
f 729 698 722
f 722 698 689
f 658 644 695
f 631 612 658
f 658 612 644
f 72 86 81
f 81 69 72
f 81 86 79
f 81 79 62
f 62 69 81
f 13 31 11
f 13 54 31
f 11 52 13
f 52 54 13
f 68 31 66
f 31 54 66
f 66 54 57
f 72 68 66
f 57 61 66
f 66 75 72
f 66 61 75
f 892 890 882
f 892 887 894
f 894 893 892
f 892 893 890
f 882 885 892
f 892 885 887
f 889 893 891
f 889 881 873
f 873 893 889
f 842 864 859
f 864 875 859
f 627 634 656
f 886 846 884
f 846 876 884
f 884 891 886
f 865 831 854
f 869 831 865
f 854 871 865
f 865 871 869
f 848 856 867
f 867 852 848
f 867 871 852
f 891 884 880
f 880 884 876
f 880 889 891
f 880 876 869
f 869 871 880
f 770 753 789
f 789 796 770
f 770 796 788
f 770 788 778
f 770 778 747
f 747 753 770
f 649 617 630
f 760 736 708
f 645 659 696
f 613 659 645
f 630 617 591
f 572 509 514
f 572 563 509
f 605 625 569
f 569 547 605
f 652 625 605
f 605 636 652
f 666 636 615
f 615 638 666
f 693 636 666
f 666 705 693
f 559 535 515
f 407 411 383
f 175 148 147
f 780 759 782
f 782 813 780
f 813 792 780
f 780 792 755
f 678 653 700
f 700 733 678
f 756 733 700
f 678 733 709
f 680 648 709
f 709 648 678
f 709 733 763
f 756 776 803
f 803 784 756
f 798 823 803
f 803 776 798
f 823 833 803
f 807 813 782
f 782 784 807
f 807 833 813
f 807 803 833
f 784 803 807
f 558 480 502
f 502 549 558
f 480 500 502
f 502 500 549
f 243 221 99
f 107 241 243
f 330 368 372
f 330 261 368
f 353 428 426
f 426 360 353
f 428 499 426
f 368 261 318
f 318 360 368
f 318 261 256
f 256 360 318
f 211 207 235
f 235 296 211
f 235 207 288
f 288 296 235
f 87 89 73
f 73 85 87
f 87 96 99
f 99 89 87
f 87 94 96
f 87 85 94
f 237 247 203
f 203 221 237
f 237 243 259
f 221 243 237
f 477 518 470
f 477 532 518
f 477 419 490
f 417 419 477
f 470 412 414
f 414 477 470
f 417 477 414
f 372 417 414
f 414 412 372
f 420 368 422
f 420 419 368
f 420 422 490
f 490 419 420
f 259 243 263
f 261 330 263
f 241 261 263
f 263 243 241
f 372 304 263
f 263 330 372
f 303 304 322
f 193 177 229
f 170 162 193
f 193 162 177
f 179 172 186
f 186 172 170
f 186 194 179
f 201 194 186
f 170 193 186
f 186 193 201
f 179 194 197
f 254 222 197
f 200 121 184
f 184 183 200
f 200 227 207
f 207 121 200
f 200 222 283
f 283 227 200
f 200 197 222
f 183 197 200
f 124 207 211
f 124 121 207
f 211 234 124
f 105 96 102
f 107 96 105
f 209 201 254
f 209 194 201
f 254 197 209
f 209 197 194
f 816 828 840
f 840 826 816
f 840 835 843
f 840 828 835
f 766 793 757
f 766 791 793
f 822 790 802
f 779 618 806
f 806 802 779
f 779 802 790
f 604 618 779
f 771 604 779
f 779 790 771
f 868 853 872
f 872 870 882
f 882 879 872
f 872 879 868
f 855 872 853
f 857 834 849
f 824 834 857
f 849 868 857
f 857 868 864
f 857 864 842
f 842 824 857
f 814 834 808
f 814 818 849
f 849 834 814
f 781 793 814
f 814 793 818
f 814 783 781
f 808 783 814
f 777 799 741
f 741 725 777
f 777 725 758
f 777 758 804
f 804 799 777
f 703 741 762
f 741 799 762
f 830 795 820
f 842 859 820
f 820 859 830
f 736 783 764
f 578 686 690
f 278 231 250
f 250 281 278
f 250 265 281
f 250 231 168
f 213 265 250
f 275 265 247
f 328 332 281
f 281 265 328
f 328 275 298
f 265 275 328
f 224 231 269
f 270 223 271
f 35 43 37
f 35 36 43
f 45 36 40
f 50 36 45
f 40 48 45
f 48 60 45
f 64 50 45
f 45 60 64
f 1 27 20
f 29 38 40
f 29 27 38
f 40 36 29
f 36 35 29
f 228 106 238
f 425 359 423
f 366 418 421
f 421 359 366
f 421 423 359
f 421 418 489
f 489 423 421
f 255 359 310
f 310 232 255
f 255 232 218
f 255 238 260
f 255 228 238
f 97 242 244
f 88 204 97
f 204 242 97
f 218 205 114
f 106 228 114
f 114 205 210
f 114 122 119
f 371 329 262
f 371 383 411
f 416 366 371
f 366 329 371
f 331 277 334
f 334 277 270
f 230 223 270
f 270 277 230
f 230 277 249
f 230 249 167
f 167 158 230
f 230 158 223
f 246 264 274
f 274 297 301
f 331 373 327
f 327 373 369
f 204 180 202
f 202 236 204
f 202 180 173
f 246 236 202
f 173 212 202
f 212 246 202
f 245 242 204
f 204 236 245
f 245 262 244
f 244 242 245
f 267 236 246
f 267 274 301
f 246 274 267
f 522 479 513
f 513 542 522
f 479 471 513
f 622 593 571
f 622 644 593
f 571 602 622
f 622 602 646
f 622 646 672
f 672 644 622
f 319 375 356
f 356 505 319
f 299 375 319
f 319 292 299
f 293 299 253
f 198 196 182
f 182 189 198
f 198 189 206
f 140 146 160
f 140 156 137
f 160 156 140
f 140 137 119
f 119 146 140
f 164 160 151
f 160 146 151
f 151 146 119
f 119 176 151
f 151 176 164
f 191 248 190
f 160 169 191
f 190 161 191
f 161 160 191
f 220 282 289
f 289 293 220
f 220 198 282
f 196 198 220
f 253 196 220
f 220 293 253
f 192 196 208
f 208 196 253
f 208 199 192
f 253 199 208
f 171 169 164
f 164 176 171
f 171 176 169
f 169 176 185
f 199 191 185
f 185 191 169
f 192 199 185
f 185 176 192
f 119 182 181
f 181 176 119
f 182 196 181
f 181 196 192
f 192 176 181
f 210 206 195
f 206 189 195
f 195 189 122
f 195 114 210
f 122 114 195
f 425 423 495
f 495 423 489
f 495 489 540
f 456 354 451
f 451 479 456
f 451 443 479
f 344 443 347
f 354 282 347
f 347 451 354
f 443 451 347
f 286 344 347
f 347 282 286
f 439 344 435
f 439 443 344
f 479 443 439
f 435 471 439
f 439 471 479
f 352 232 310
f 352 305 232
f 310 359 352
f 352 359 425
f 295 233 210
f 210 305 295
f 286 233 295
f 295 344 286
f 429 177 150
f 150 474 429
f 229 177 429
f 429 257 229
f 276 257 429
f 429 314 276
f 474 314 429
f 82 474 100
f 100 91 82
f 101 91 100
f 506 82 67
f 506 474 82
f 67 51 506
f 506 51 15
f 15 9 506
f 506 9 6
f 506 382 474
f 254 201 252
f 252 257 276
f 229 257 252
f 300 254 252
f 252 276 300
f 252 193 229
f 201 193 252
f 567 525 557
f 557 596 567
f 461 525 567
f 433 461 567
f 641 596 631
f 727 695 672
f 672 707 727
f 727 707 759
f 716 698 729
f 729 753 716
f 747 713 716
f 716 753 747
f 697 713 580
f 580 698 697
f 697 716 713
f 698 716 697
f 580 555 685
f 685 698 580
f 689 698 685
f 711 722 689
f 668 658 711
f 711 658 695
f 695 727 711
f 809 774 786
f 809 823 798
f 841 823 809
f 862 873 860
f 860 851 862
f 883 879 890
f 883 890 873
f 819 809 786
f 819 858 841
f 841 809 819
f 691 656 682
f 863 856 841
f 863 867 856
f 841 858 863
f 881 889 878
f 889 880 878
f 871 867 878
f 878 880 871
f 710 764 734
f 736 764 710
f 728 743 760
f 760 708 728
f 624 645 673
f 673 645 696
f 696 728 673
f 673 728 708
f 624 572 594
f 613 645 594
f 594 645 624
f 594 572 514
f 514 524 594
f 594 524 613
f 603 591 563
f 563 572 603
f 603 572 624
f 630 591 603
f 511 534 562
f 706 694 732
f 732 739 706
f 786 774 751
f 515 535 492
f 535 482 492
f 475 449 482
f 584 561 615
f 615 636 584
f 636 605 584
f 584 605 547
f 535 559 587
f 587 561 535
f 559 610 587
f 615 561 587
f 587 638 615
f 587 610 638
f 533 584 547
f 561 584 533
f 517 476 468
f 321 323 365
f 365 371 321
f 383 371 365
f 149 159 224
f 149 175 147
f 136 159 149
f 147 141 149
f 149 141 136
f 224 269 215
f 215 269 273
f 215 149 224
f 175 149 215
f 756 700 724
f 724 776 756
f 740 776 724
f 735 709 763
f 759 707 735
f 735 707 680
f 680 709 735
f 735 763 782
f 782 759 735
f 460 480 415
f 480 376 415
f 415 506 619
f 415 568 460
f 415 619 568
f 343 376 320
f 343 382 376
f 320 474 343
f 474 382 343
f 494 480 488
f 494 500 480
f 488 549 494
f 549 500 494
f 99 107 104
f 104 243 99
f 107 243 104
f 422 360 424
f 360 426 424
f 490 422 424
f 424 499 490
f 424 426 499
f 247 237 268
f 268 275 247
f 268 285 298
f 298 275 268
f 268 303 285
f 512 477 490
f 532 477 512
f 490 519 512
f 541 566 532
f 541 512 519
f 532 512 541
f 372 378 351
f 372 412 384
f 384 378 372
f 266 263 304
f 304 303 266
f 259 263 266
f 303 268 266
f 266 237 259
f 266 268 237
f 183 121 127
f 127 197 183
f 179 197 127
f 127 172 179
f 170 172 127
f 127 162 170
f 116 234 256
f 116 124 234
f 256 261 116
f 116 261 107
f 107 105 116
f 832 826 845
f 826 840 845
f 870 832 845
f 845 877 870
f 757 730 750
f 750 766 757
f 870 872 866
f 872 855 866
f 866 832 870
f 866 855 832
f 832 855 812
f 812 802 806
f 806 826 812
f 812 826 832
f 703 762 719
f 719 762 752
f 752 732 719
f 719 694 703
f 719 732 694
f 773 739 768
f 768 795 773
f 768 732 752
f 739 732 768
f 706 739 715
f 721 688 715
f 715 677 706
f 688 677 715
f 800 795 830
f 842 820 810
f 810 824 842
f 810 799 824
f 810 762 799
f 785 783 808
f 785 764 783
f 785 808 804
f 804 758 785
f 785 758 734
f 734 764 785
f 717 730 699
f 578 717 699
f 699 690 686
f 699 686 578
f 723 730 757
f 757 743 723
f 723 699 730
f 690 699 723
f 213 250 188
f 188 250 168
f 188 166 213
f 188 168 153
f 153 166 188
f 396 380 374
f 374 380 332
f 332 328 374
f 406 380 396
f 278 332 335
f 332 380 335
f 279 271 216
f 216 271 214
f 214 271 223
f 214 175 216
f 214 223 148
f 148 175 214
f 34 33 28
f 37 33 34
f 34 35 37
f 1 20 18
f 28 24 23
f 23 24 16
f 26 20 27
f 27 29 26
f 26 29 35
f 35 34 26
f 317 255 260
f 359 255 317
f 260 366 317
f 366 359 317
f 225 255 218
f 228 255 225
f 218 114 225
f 225 114 228
f 106 97 240
f 240 97 244
f 244 262 240
f 240 262 260
f 92 79 98
f 79 86 98
f 119 108 110
f 110 114 119
f 106 114 110
f 262 272 307
f 307 371 262
f 321 371 307
f 307 323 321
f 416 371 413
f 413 371 411
f 411 468 413
f 413 476 416
f 413 468 476
f 369 373 394
f 394 445 409
f 405 445 394
f 407 383 390
f 403 361 369
f 403 394 409
f 369 394 403
f 409 449 403
f 297 274 290
f 290 274 264
f 290 264 331
f 331 327 290
f 301 297 325
f 297 290 325
f 325 290 327
f 369 361 325
f 325 327 369
f 325 323 301
f 301 323 284
f 284 267 301
f 323 307 284
f 272 267 284
f 284 307 272
f 258 245 236
f 236 267 258
f 258 267 272
f 258 272 262
f 262 245 258
f 542 513 503
f 503 513 471
f 471 495 503
f 381 375 392
f 381 356 375
f 381 392 505
f 505 356 381
f 253 299 251
f 251 199 253
f 251 292 248
f 251 299 292
f 248 191 251
f 251 191 199
f 375 299 363
f 299 293 363
f 478 375 363
f 363 289 354
f 363 293 289
f 363 456 478
f 363 354 456
f 286 282 226
f 282 198 226
f 226 206 286
f 226 198 206
f 432 471 435
f 432 430 471
f 425 495 427
f 427 352 425
f 430 352 427
f 471 430 427
f 427 495 471
f 344 295 349
f 349 295 305
f 305 352 349
f 435 344 349
f 349 432 435
f 349 352 430
f 430 432 349
f 523 6 2
f 523 506 6
f 523 2 529
f 529 528 523
f 619 506 523
f 433 567 595
f 595 567 596
f 595 392 433
f 596 641 595
f 505 392 595
f 663 641 631
f 631 658 663
f 663 658 668
f 742 711 727
f 742 727 759
f 755 722 742
f 722 711 742
f 742 780 755
f 759 780 742
f 861 851 830
f 861 862 851
f 830 859 861
f 879 883 861
f 873 862 861
f 861 883 873
f 875 879 861
f 861 859 875
f 692 688 721
f 692 682 657
f 676 666 638
f 705 666 676
f 650 610 627
f 638 610 650
f 627 656 650
f 650 676 638
f 687 676 650
f 650 656 691
f 691 687 650
f 705 676 714
f 714 676 687
f 867 863 874
f 874 878 867
f 874 863 858
f 874 858 860
f 860 881 874
f 881 878 874
f 681 710 649
f 681 649 630
f 681 708 736
f 736 710 681
f 624 673 647
f 647 603 624
f 630 603 647
f 647 681 630
f 647 673 708
f 708 681 647
f 667 677 639
f 667 694 706
f 706 677 667
f 737 751 774
f 718 751 737
f 409 445 467
f 467 449 409
f 515 492 467
f 467 492 482
f 482 449 467
f 462 403 449
f 581 610 559
f 627 610 581
f 535 561 510
f 561 533 510
f 510 482 535
f 510 475 482
f 510 533 484
f 484 462 510
f 517 468 507
f 547 517 507
f 484 533 507
f 507 533 547
f 458 411 407
f 458 468 411
f 458 507 468
f 484 507 458
f 217 215 273
f 175 215 217
f 642 621 625
f 642 653 621
f 683 625 652
f 683 642 625
f 389 415 376
f 506 415 389
f 566 541 577
f 577 601 566
f 577 591 617
f 617 601 577
f 617 649 640
f 640 601 617
f 532 566 546
f 518 532 546
f 546 570 518
f 548 508 518
f 518 570 548
f 548 534 508
f 339 322 372
f 372 351 339
f 339 303 322
f 326 328 298
f 396 374 370
f 370 374 328
f 328 326 370
f 370 326 362
f 123 127 121
f 121 118 123
f 162 127 123
f 123 118 134
f 157 162 123
f 123 134 138
f 123 150 157
f 138 150 123
f 121 124 113
f 124 116 113
f 113 116 105
f 134 118 126
f 115 100 126
f 126 474 134
f 126 100 474
f 847 840 843
f 847 845 840
f 843 850 847
f 847 850 887
f 887 885 847
f 885 877 847
f 877 845 847
f 766 750 754
f 771 791 754
f 791 766 754
f 754 749 771
f 717 604 754
f 604 749 754
f 754 730 717
f 754 750 730
f 838 812 855
f 838 855 853
f 822 802 838
f 802 812 838
f 818 822 838
f 838 853 818
f 794 819 786
f 787 810 820
f 787 768 752
f 787 820 795
f 795 768 787
f 665 675 669
f 665 632 620
f 659 632 665
f 665 669 659
f 712 723 743
f 712 728 696
f 743 728 712
f 696 659 712
f 659 669 712
f 669 675 712
f 712 675 690
f 690 723 712
f 454 406 473
f 651 692 657
f 688 692 651
f 639 677 651
f 651 677 688
f 536 483 511
f 511 562 536
f 562 588 536
f 536 588 560
f 448 469 487
f 487 473 448
f 448 473 406
f 448 406 396
f 17 16 1
f 1 18 17
f 17 23 16
f 18 23 17
f 25 34 28
f 25 26 34
f 28 23 25
f 25 23 18
f 25 18 20
f 20 26 25
f 238 106 239
f 106 240 239
f 260 238 239
f 239 240 260
f 95 98 86
f 95 86 88
f 88 97 95
f 405 394 379
f 379 394 373
f 379 373 331
f 331 334 379
f 323 325 357
f 357 325 361
f 357 390 383
f 357 365 323
f 383 365 357
f 361 403 397
f 397 357 361
f 390 357 397
f 403 462 397
f 571 542 526
f 542 503 526
f 526 495 540
f 526 503 495
f 544 523 528
f 544 528 529
f 529 555 544
f 544 555 553
f 674 663 668
f 668 711 674
f 674 711 689
f 745 739 773
f 721 715 745
f 745 715 739
f 773 795 769
f 795 800 769
f 769 745 773
f 746 745 769
f 800 794 769
f 744 746 769
f 691 682 726
f 726 746 744
f 721 745 726
f 726 745 746
f 726 692 721
f 682 692 726
f 738 714 744
f 705 714 738
f 740 737 761
f 761 737 774
f 798 740 761
f 761 809 798
f 774 809 761
f 449 475 464
f 464 462 449
f 475 510 464
f 464 510 462
f 472 445 405
f 564 520 573
f 543 574 573
f 573 520 543
f 308 334 270
f 219 217 273
f 219 279 216
f 216 175 219
f 175 217 219
f 740 724 704
f 642 683 704
f 704 724 700
f 704 700 653
f 653 642 704
f 376 382 385
f 385 389 376
f 382 506 385
f 506 389 385
f 551 541 519
f 551 577 541
f 519 504 551
f 504 563 551
f 563 591 551
f 591 577 551
f 679 640 649
f 679 710 734
f 649 710 679
f 585 562 534
f 534 548 585
f 570 546 590
f 590 607 570
f 590 546 566
f 566 601 590
f 601 640 623
f 623 590 601
f 607 590 623
f 391 408 438
f 109 118 121
f 121 113 109
f 109 105 102
f 109 113 105
f 819 794 829
f 829 851 860
f 829 794 800
f 860 858 829
f 858 819 829
f 762 810 775
f 810 787 775
f 752 762 775
f 775 787 752
f 675 665 664
f 523 544 664
f 619 523 664
f 620 619 664
f 664 665 620
f 335 338 309
f 278 335 309
f 309 231 278
f 309 269 231
f 387 335 380
f 387 338 335
f 387 406 454
f 380 406 387
f 634 614 633
f 633 614 635
f 633 656 634
f 633 682 656
f 657 682 633
f 633 635 657
f 635 614 609
f 608 614 634
f 608 634 627
f 592 574 543
f 592 609 614
f 592 608 574
f 614 608 592
f 487 469 516
f 516 469 483
f 483 536 516
f 516 536 560
f 98 95 103
f 103 97 106
f 103 95 97
f 103 110 108
f 106 110 103
f 108 120 103
f 103 120 92
f 92 98 103
f 441 397 462
f 441 462 484
f 484 458 441
f 540 576 550
f 550 526 540
f 576 602 550
f 550 602 571
f 571 526 550
f 554 544 553
f 554 555 578
f 553 555 554
f 578 690 554
f 744 769 772
f 772 769 794
f 772 738 744
f 744 714 720
f 720 726 744
f 691 726 720
f 720 687 691
f 720 714 687
f 705 738 731
f 731 718 693
f 693 705 731
f 731 751 718
f 445 472 486
f 515 467 486
f 486 467 445
f 453 472 405
f 280 219 273
f 279 219 280
f 702 704 683
f 718 737 702
f 702 737 740
f 740 704 702
f 702 683 652
f 702 652 693
f 693 718 702
f 616 588 562
f 562 585 616
f 639 588 616
f 616 667 639
f 703 694 654
f 606 548 570
f 606 585 548
f 640 679 655
f 655 623 640
f 438 408 459
f 470 508 459
f 459 412 470
f 459 408 412
f 485 534 511
f 508 534 485
f 485 459 508
f 438 459 485
f 511 483 463
f 463 485 511
f 455 485 463
f 399 391 384
f 408 391 399
f 399 384 412
f 412 408 399
f 398 391 438
f 362 326 358
f 358 398 362
f 391 398 358
f 378 384 358
f 384 391 358
f 118 109 111
f 115 126 111
f 111 126 118
f 111 100 115
f 101 100 111
f 102 101 111
f 111 109 102
f 851 829 836
f 836 829 800
f 830 851 836
f 836 800 830
f 671 664 544
f 671 554 690
f 544 554 671
f 690 675 671
f 675 664 671
f 273 269 313
f 269 309 313
f 582 537 560
f 597 573 574
f 574 608 597
f 564 573 597
f 597 581 564
f 627 581 597
f 597 608 627
f 543 583 586
f 586 592 543
f 583 609 586
f 609 592 586
f 527 537 487
f 487 516 527
f 560 537 527
f 527 516 560
f 437 458 407
f 437 441 458
f 407 390 437
f 390 397 437
f 397 441 437
f 670 674 689
f 689 685 670
f 670 685 555
f 670 555 529
f 529 661 670
f 738 772 767
f 786 751 767
f 767 794 786
f 767 772 794
f 751 731 767
f 767 731 738
f 515 486 530
f 530 559 515
f 530 581 559
f 386 379 334
f 405 379 386
f 386 453 405
f 472 453 496
f 496 486 472
f 496 530 486
f 273 313 316
f 316 313 333
f 667 616 637
f 694 667 637
f 637 654 694
f 637 606 654
f 637 616 585
f 585 606 637
f 701 655 679
f 701 679 734
f 734 758 701
f 758 725 701
f 660 701 725
f 655 701 660
f 438 485 442
f 442 485 455
f 442 398 438
f 455 398 442
f 450 463 483
f 483 469 450
f 324 358 326
f 324 326 298
f 303 339 324
f 324 339 351
f 324 351 378
f 378 358 324
f 338 387 395
f 395 377 338
f 395 387 454
f 341 309 338
f 341 313 309
f 338 377 341
f 341 377 333
f 333 313 341
f 271 279 315
f 537 582 552
f 657 635 628
f 628 651 657
f 635 609 628
f 560 588 611
f 611 582 560
f 611 588 639
f 611 628 582
f 639 651 611
f 651 628 611
f 674 670 662
f 662 670 661
f 663 674 662
f 641 663 662
f 662 595 641
f 505 595 662
f 529 505 662
f 662 661 529
f 564 581 556
f 581 530 556
f 530 496 556
f 556 520 564
f 556 496 520
f 446 496 453
f 520 496 446
f 684 660 725
f 684 741 703
f 684 725 741
f 703 654 684
f 654 660 684
f 654 606 626
f 626 660 654
f 570 607 626
f 626 606 570
f 396 370 404
f 404 370 362
f 362 398 404
f 463 450 404
f 455 463 404
f 404 398 455
f 298 285 302
f 302 324 298
f 285 303 302
f 303 324 302
f 498 447 454
f 454 473 498
f 498 473 487
f 487 537 498
f 537 552 498
f 447 498 521
f 521 498 552
f 402 447 377
f 377 395 402
f 454 447 402
f 402 395 454
f 312 315 336
f 312 308 270
f 270 271 312
f 271 315 312
f 333 342 287
f 287 316 333
f 279 280 287
f 287 280 273
f 273 316 287
f 287 342 336
f 287 315 279
f 336 315 287
f 598 552 582
f 598 628 609
f 582 628 598
f 453 386 393
f 336 342 367
f 660 626 643
f 623 655 643
f 655 660 643
f 607 623 643
f 643 626 607
f 396 404 410
f 410 404 450
f 410 450 469
f 410 448 396
f 469 448 410
f 447 521 481
f 520 446 481
f 543 520 481
f 481 521 543
f 552 598 575
f 575 521 552
f 575 609 583
f 575 598 609
f 575 583 543
f 543 521 575
f 401 446 453
f 453 393 401
f 388 367 342
f 377 447 388
f 446 367 388
f 333 377 388
f 388 342 333
f 447 481 388
f 388 481 446
f 400 367 446
f 446 401 400
f 400 401 393
f 308 312 340
f 367 400 346
f 400 340 346
f 336 367 346
f 346 312 336
f 346 340 312
f 337 400 393
f 337 340 400
f 337 386 334
f 337 393 386
f 334 308 337
f 308 340 337
