v -0.009519146755 -2.276767873e-06 -0.001900036936
v -0.009480174631 -1.135866114e-05 -0.007210693788
v -0.009449947625 0.0009791172342 -0.001949951285
v -0.009449419565 -0.0009836336831 -0.001949946512
v -0.009442923591 0.000770208193 -0.007194425911
v -0.009435147978 -0.0008476371295 -0.007191470824
v -0.009394248948 0.001012923545 0.0008428165456
v -0.009323973209 0.001588680549 -0.007143332623
v -0.00929910969 -0.00171185215 -0.007133467589
v -0.009271940216 -0.0019206492 -0.004839051515
v -0.009253799915 0.001946002478 -0.002079390688
v -0.009252751246 -0.001950413221 -0.002079379745
v -0.009111815132 0.002449695487 -0.007051494904
v -0.009075246751 -0.002569050528 -0.007036104333
v -0.009049999528 -0.0004000061599 0.02550991811
v -0.009049865417 -0.0004447655519 0.02550851367
v -0.009049067274 -0.0005206411588 0.02550571971
v -0.009045334533 -0.0006722234539 0.02549844794
v -0.009034721181 -0.000447327242 0.02558535896
v -0.009033897892 -0.0005236470606 0.02558251843
v -0.009030099027 -0.0006760983379 0.02557513677
v -0.009029346518 -0.000974460796 0.02547704242
v -0.009027190506 -0.0003990954719 0.02560212836
v -0.009013894014 -0.0009800754488 0.02555335313
v -0.008991369046 -0.0003988044627 0.02565128729
v -0.008990517817 0.002842817223 -0.00496187713
v -0.008989867754 -0.000525692536 0.02564693429
v -0.008988988586 -0.002847085707 -0.004961867351
v -0.008986373432 0.002838165034 -0.006996090058
v -0.008986072615 -0.0006782811251 0.02563947812
v -0.008969904855 -0.0009825585876 0.02561744303
v -0.008964608423 -0.0003988058597 0.02567362785
v -0.00896447245 0.0007693059742 0.02540811151
v -0.008963501081 -0.001573206391 0.02540513501
v -0.008960641921 0.0007949533756 0.0254039783
v -0.008948665112 0.002883829875 -0.002257915447
v -0.008947212249 -0.001582868397 0.02547998168
v -0.008947113529 -0.002888076007 -0.002257910091
v -0.008944144472 0.0008045398863 0.02547868714
v -0.008942746557 -0.001705422997 0.02538321167
v -0.008926481009 -0.0003990077821 0.0256944783
v -0.008925243281 -0.000526554184 0.02569070272
v -0.00892151054 -0.0006785807782 0.02568322234
v -0.008905570954 -0.0009817782557 0.02566113137
v -0.008903393522 -0.001586560276 0.02554311417
v -0.008901153691 0.0008082703571 0.02554243058
v -0.008887796663 -0.0005264714127 0.02570224926
v -0.008884766139 -0.0003994529834 0.02570682019
v -0.008875891566 -0.002059917431 0.02531077527
v -0.008875763975 0.001260262099 0.02531068958
v -0.008849998005 -0.0004000012414 0.02570999973
v -0.008849090897 -0.0005260215839 0.02570556477
v -0.008845452219 -0.0006768327439 0.02569815144
v -0.008839978836 -0.001584181096 0.02558659948
v -0.008837514557 0.0008054946666 0.02558550797
v -0.008836746216 -0.002172528766 0.02535878867
v -0.008829864673 -0.0009776613442 0.02567627281
v -0.008803354576 0.0033218842 -0.006914217956
v -0.008798866533 -0.001317149261 0.02563961223
v -0.008793188259 -0.002178728813 0.02542000078
v -0.00877035968 -0.003401139285 -0.006900116801
v -0.008747313172 0.0008982187137 0.02558426
v -0.008735182695 -0.001770722447 0.02556854114
v -0.008731336333 -0.002176035196 0.02546300739
v -0.0087222578 0.00186434167 0.02512839995
v -0.008702855557 -0.00273093977 0.02510291338
v -0.008701297455 0.001934283064 0.02510199137
v -0.008687163703 -0.002737318631 0.02517558262
v -0.008680965751 0.00195505633 0.02516840771
v -0.008643927053 -0.002747148275 0.02523336746
v -0.008638358675 0.001965498086 0.02522614412
v -0.008618229069 0.003730181372 -0.005093805026
v -0.008616223931 -0.003734250087 -0.005093796179
v -0.008599734865 -0.002420543926 0.02540590987
v -0.008584275842 -0.002745681908 0.02527514659
v -0.008578697219 0.001964107389 0.02526736818
v -0.008552511223 0.003778050188 -0.002455099253
v -0.008528175764 -0.0004000009503 0.0257100109
v -0.0085263988 -0.0004506547411 0.02570838854
v -0.008516903035 -0.0005000010715 0.02570656873
v -0.008515734226 -0.002732548397 0.02529424988
v -0.008510746062 0.001948698889 0.02528803423
v -0.008497854695 -0.0008129760972 0.0256893225
v -0.008479642682 -0.002853851998 0.02524419501
v -0.008467465639 0.0003746355942 0.02565675043
v -0.008465684019 0.004055378493 -0.006759322248
v -0.008458144963 0.002494483022 0.02497626655
v -0.008414433338 -0.001504241023 0.02561385557
v -0.008401043713 0.00249451655 0.02501592226
v -0.008384869434 0.002794876928 0.02466117404
v -0.008381913416 -0.004214791115 -0.006721375044
v -0.008365037851 -0.001768897404 0.02556875162
v -0.008355852216 0.001029719017 0.02555686608
v -0.008341173641 -0.003692227183 0.02459532209
v -0.008301054128 -0.003753888188 0.02462754585
v -0.008299231529 -0.003380027832 0.02497870103
v -0.008296196349 0.002965302672 0.02462115698
v -0.008283132687 -0.002111087786 0.02549359202
v -0.008258925751 -0.003768748604 0.02467658743
v -0.008254550397 0.002980189864 0.02467053942
v -0.00820449274 -0.003770225216 0.02471448481
v -0.008201901801 0.0015952799 0.02541387454
v -0.008200101554 0.002981197322 0.02470831759
v -0.008169521578 0.004565236159 -0.00521176355
v -0.00816706568 -0.004569063429 -0.005211764947
v -0.008153019473 0.002936498495 0.0247528404
v -0.008143681102 -0.003757609753 0.02473629825
v -0.008104195818 -0.003845361527 0.02467395179
v -0.008097006939 -0.002659503138 0.02532308921
v -0.008083302528 0.004614115693 -0.002640517196
v -0.008032035083 0.004813718144 -0.006553977262
v -0.008019971661 0.002057707403 0.02524309419
v -0.008013177663 -0.00285326317 0.02524501272
v -0.007985243574 0.002130712382 0.02521087602
v -0.007916681468 -0.004990763962 -0.006500661373
v -0.007858201861 0.003800203325 0.02386177517
v -0.007853687741 -0.003172407858 0.02509319782
v -0.007848257199 -0.004356303718 0.02426679432
v -0.007837928832 -0.004617218859 0.02391709201
v -0.007832236588 0.003825508524 0.02390858158
v -0.007806682959 -0.004683345091 0.02377753332
v -0.007797642145 -0.004633252509 0.02395773679
v -0.007792270277 0.003841936588 0.02394895814
v -0.007748522796 -0.004636473488 0.02399101481
v -0.007743275259 0.003845253726 0.02398191765
v -0.007700440474 0.00263697491 0.02494445816
v -0.007657806855 0.005334893242 -0.005292665213
v -0.007654938847 -0.005338445771 -0.00529266987
v -0.007636983879 -0.004723132588 0.02391329966
v -0.007629774045 0.003934880253 0.02390125394
v -0.007626574486 0.003940128256 0.02389561757
v -0.007596262731 -0.004985622596 0.02350180782
v -0.007592497393 0.004191114567 0.02349390648
v -0.00755900424 0.005377478898 -0.002783713629
v -0.007556985132 -0.005003177561 0.02353608049
v -0.007553496864 0.004208770581 0.02352811396
v -0.007549131755 -0.003671787446 0.0247949753
v -0.007532391697 0.005525490269 -0.006308247335
v -0.007510584779 -0.005008882377 0.02356506325
v -0.007507187314 0.004214324523 0.02355694026
v -0.007487237453 0.004350220319 0.0231919568
v -0.007433911785 -0.005221384112 0.02307671309
v -0.007431942038 -0.003842209 0.02467642166
v -0.007422266062 -0.005664328579 -0.006252791733
v -0.007372135762 -0.005292044487 0.02303051576
v -0.007369203959 0.004495778121 0.02302256972
v -0.007333822548 -0.005311430898 0.0230565723
v -0.007331114728 0.004515238106 0.02304849587
v -0.007289907895 -0.005320284516 0.02307929471
v -0.007287305314 0.004523994867 0.02307102084
v -0.00727205677 0.004477701616 0.02316854335
v -0.007266549859 -0.005285660736 0.02315608039
v -0.007194184698 0.004723302089 0.02239429764
v -0.007188564166 -0.005521927495 0.0225037653
v -0.007186922245 0.004723791499 0.02249675244
v -0.007151096594 -0.005542446859 0.02252144367
v -0.007149644662 0.004744356498 0.02251431346
v -0.00713680964 -0.005591453053 0.02216540091
v -0.007109752856 -0.00603029225 -0.006088829134
v -0.007109105121 -0.00555365812 0.02253719978
v -0.007107751444 0.004755483009 0.02252992988
v -0.007105641067 -0.004289122764 0.02432500571
v -0.007096500136 0.006026068237 -0.005313423928
v -0.007088088896 -0.005648091435 0.0219280012
v -0.007057030685 -0.005676584784 0.02193959802
v -0.007056392264 0.004877226427 0.02193396725
v -0.00704277819 0.006103939842 -0.006054328755
v -0.00702021597 -0.005697377026 0.02195064537
v -0.007019750774 0.004898011219 0.02194495685
v -0.007003858685 -0.005631721579 0.02230335027
v -0.006997578312 0.006053589284 -0.00285426341
v -0.006996914279 -0.004431477282 0.02419934049
v -0.00698853191 -0.005760377273 0.0212114118
v -0.006979495287 -0.005709675606 0.02196061984
v -0.006979115773 0.004910192452 0.02195484936
v -0.006937135477 -0.005712707993 0.02196897008
v -0.006921485998 -0.005827578716 0.02076622471
v -0.006888392381 -0.006265986711 -0.005972308107
v -0.006885397248 -0.005847984925 0.02076981403
v -0.006849458907 -0.00581452949 0.02132741921
v -0.006845864002 -0.005860569887 0.02077311464
v -0.006808235776 0.006146601867 -0.0005664889468
v -0.00671705557 -0.004784535617 0.02384688891
v -0.006507785525 0.006630458403 -0.0057645333
v -0.006504221354 -0.006633392535 -0.005764535163
v -0.00645293016 0.006621809676 -0.003629534272
v -0.006430464797 -0.005122411996 0.02341965958
v -0.006371456664 0.006640406791 -0.002035369398
v -0.006293876562 -0.005271274131 0.02318139002
v -0.006256022025 0.006682909094 -0.0005809664726
v -0.00619907584 0.00689066248 -0.005589825101
v -0.006176448427 -0.005389952101 0.02295459434
v -0.00606046943 0.006766208448 0.001254754839
v -0.005953907967 -0.007076917216 -0.005451396108
v -0.005923219956 -0.005608138163 0.02238389105
v -0.005903699901 0.006834992673 0.002527795034
v -0.005807701964 0.007131551392 -0.003463678528
v -0.00580386864 -0.007134108804 -0.003463686444
v -0.005729872733 0.007119601592 -0.001266085659
v -0.005611417815 0.006954990327 0.004895101301
v -0.005550868344 0.007348613814 -0.005209074356
v -0.005448104348 0.007163570728 0.002630166011
v -0.0053888564 0.007014377508 0.007314396556
v -0.005352468695 -0.00746775046 -0.005087892059
v -0.005342884921 0.007011719979 0.008132605813
v -0.00525307795 0.006897793151 0.01143610571
v -0.005222795531 0.006766433362 0.01337861642
v -0.005163333844 0.007189020049 0.006271433551
v -0.005139255431 0.006528502796 0.01596421003
v -0.005092347506 0.007503197994 -0.001030318323
v -0.005088314414 -0.007505371235 -0.00103031937
v -0.005082291085 0.007153110113 0.008154684678
v -0.005056213588 0.006385888439 0.01723606512
v -0.005042954814 0.007074866444 0.01010524482
v -0.005039150827 -0.007077013142 0.01010524295
v -0.004954516422 0.007435251493 0.002815654268
v -0.004950519651 -0.007437350694 0.002815645188
v -0.004949013703 0.006815795321 0.01402668655
v -0.004938194994 0.00768902991 -0.004823213443
v -0.00482277805 0.006647720933 0.01590415463
v -0.004813274834 0.007345075719 0.006402703002
v -0.004796319641 0.006404271349 0.01775886491
v -0.004778149072 0.003562133759 0.02446924709
v -0.004772899672 0.0007734597311 0.02515585534
v -0.00477248244 -0.0007754621911 0.02515586652
v -0.004770376254 0.007164306473 0.01020585094
v -0.004769369029 0.0003880363365 0.02516497485
v -0.004769159947 -0.0003900367592 0.02516498044
v -0.004766524769 -0.007166306954 0.01020585466
v -0.004765141755 -9.989331602e-07 0.02516694367
v -0.004724236205 0.001531047514 0.02509673871
v -0.004723411985 -0.001533023315 0.02509673126
v -0.00471797213 -0.007792884484 -0.004681192338
v -0.004694601521 0.00688288454 0.01410502288
v -0.00457961252 0.002261813963 0.02496550232
v -0.004578393884 -0.002263712697 0.02496551163
v -0.004568262491 0.006171391811 0.0194235146
v -0.004568233155 0.006710081827 0.01596331969
v -0.004557979759 0.004665609449 0.02352390066
v -0.00453468319 0.007872448303 -0.004554263782
v -0.004429769702 0.004147610627 0.02407968603
v -0.004392142408 0.007822399028 -0.000729344727
v -0.004387935624 -0.00782419648 -0.0007293335511
v -0.004383132327 0.002950046444 0.02475620992
v -0.004381545354 -0.00295183924 0.02475620806
v -0.004367954098 0.007680385839 0.003063131124
v -0.004363826476 -0.007682169322 0.003063127166
v -0.004357222933 -0.007944268174 -0.004436273128
v -0.004341759253 0.005889846478 0.02087372541
v -0.004322463181 0.005084536038 0.02299118787
v -0.004266826436 0.007978638634 -0.004368087742
v -0.004195298534 0.005541936494 0.02206363715
v -0.00418930361 0.005332273431 0.02256130055
v -0.004159367643 0.003587380052 0.02445796691
v -0.004145668354 0.004668133799 0.02358562313
v -0.004013748839 -0.001581166638 0.02497522905
v -0.004002800211 0.001923865872 0.0249318406
v -0.004002662841 0.0009063949692 0.0250194408
v -0.003993893042 -0.008075435646 -0.004177487921
v -0.003973417915 0.005115023348 0.0229736641
v -0.003964720294 -0.0005990478094 0.02502266131
v -0.003945820499 0.004169267602 0.02406061999
v -0.00394357834 -0.004170824774 0.02406062931
v -0.003922089934 -0.002835556399 0.02472804114
v -0.00389724737 -7.658489381e-07 0.02501589246
v -0.003894457826 0.003032938577 0.02466150932
v -0.003871056717 0.0002351099538 0.02500982396
v -0.003804362845 0.007424465381 0.01056787185
v -0.00380037236 -0.007425946649 0.01056786347
v -0.00378105347 -0.003620512085 0.02440000512
v -0.003780081868 0.004687936511 0.02355358005
v -0.003770075506 0.007101446856 0.01442753337
v -0.003766258247 -0.007102909032 0.01442752872
v -0.00376018486 -7.291279758e-07 0.02498795651
v -0.003747454612 0.007679469418 0.006830185652
v -0.003743327921 -0.007680919487 0.006830181461
v -0.003728200449 0.003868770786 0.02425212227
v -0.003694656072 0.007894482464 0.003359934315
v -0.003690412035 -0.007895903662 0.003359923372
v -0.003672462888 0.006902863737 0.01625483856
v -0.003651505802 0.004214607645 0.02400138229
v -0.003634267952 -0.004285912029 0.02394311316
v -0.003631993197 0.008078906685 -0.0003789155453
v -0.00362765044 -0.008080295287 -0.0003789153125
v -0.003580703633 0.00457114866 0.02367201261
v -0.003577682888 0.008202018216 -0.003861223115
v -0.003500936553 0.006672830321 0.01793729886
v -0.00331362104 0.00182707666 0.02478900552
v -0.003312636865 -0.001828294597 0.02478901297
v -0.003294941271 0.00518623786 0.02284612879
v -0.003277560696 0.006401674356 0.01944257505
v -0.003248031717 -0.008286518976 -0.003607344115
v -0.003243286628 0.001054214197 0.02484004386
v -0.003242720617 -0.001055394183 0.024840042
v -0.00316051417 0.0006892886595 0.02484015189
v -0.003160143737 -0.0006904239999 0.02484015748
v -0.003041764488 0.006077636499 0.02075013891
v -0.002947592409 0.005214078818 0.02278079838
v -0.002945660613 0.00807135459 0.003691577353
v -0.002914274111 0.008358548395 -0.003328041406
v -0.002895097248 -0.008362423629 -0.003315413604
v -0.002877770457 0.004804814234 0.02333490178
v -0.0028751879 -0.004805797711 0.02333490737
v -0.002845062641 0.004346940666 0.02377185598
v -0.002842724556 -0.004347906914 0.02377186157
v -0.002829534002 0.003846102394 0.02410398982
v -0.002827466466 -0.003847059328 0.0241039861
v -0.002827406628 0.005691218656 0.0218447037
v -0.002816609107 0.008273722604 4.478589744e-06
v -0.002812761348 0.003303902457 0.02434446849
v -0.00281216111 -0.008274671622 4.488856575e-06
v -0.002810985083 -0.003304851009 0.02434447594
v -0.002792297862 0.0005085340817 0.02475767396
v -0.00277881464 0.002717621624 0.0245071426
v -0.002777355257 -0.002718552016 0.02450713702
v -0.002749680076 -0.0005374453613 0.02474583872
v -0.002720274264 0.002071278403 0.02460729331
v -0.002719160169 -0.002072177827 0.02460730821
v -0.002617791761 0.001394382329 0.02465437166
v -0.002617042745 -0.001395226223 0.02465436421
v -0.002533560619 -3.992615803e-07 0.02470317669
v -0.002454312984 -0.008438114077 -0.002925609704
v -0.002447300358 0.007335134316 0.01485149935
v -0.002443357604 -0.007335885894 0.01485150028
v -0.0024280285 0.0007604536368 0.02464949526
v -0.002420693403 0.007689209189 0.01106421836
v -0.002416558331 -0.007689946797 0.0110642286
v -0.002405514475 0.007105383556 0.01662297174
v -0.002401694423 -0.007106112782 0.01662298292
v -0.00231924234 0.006829459686 0.01822608896
v -0.002317966428 -0.005267180502 0.02263667993
v -0.002298532752 0.007963364944 0.007402883843
v -0.00229425123 -0.007964035496 0.00740289595
v -0.002223162213 0.004887570627 0.02311620675
v -0.002220533788 -0.004888201598 0.02311621793
v -0.002206228441 0.008472017013 -0.002687717322
v -0.002203649841 0.006508496124 0.01962796412
v -0.002134006703 0.004479416646 0.0234899763
v -0.002132007387 0.008204815909 0.004043589812
v -0.002131599234 -0.00448000012 0.02348996885
v -0.002127597341 -0.008205397986 0.00404359214
v -0.002093841322 0.005295224488 0.02256766893
v -0.00208362285 0.006148078945 0.02081104927
v -0.002080318518 -0.00614863541 0.02081105113
v -0.002080217935 0.0003667994752 0.02457334287
v -0.002045849105 0.00404664455 0.02377189882
v -0.002043672372 -0.004047180992 0.02377190627
v -0.001976290252 0.005753058475 0.02176437899
v -0.001973196864 -0.005753556266 0.02176437713
v -0.001951486687 0.00359393633 0.02397495881
v -0.001950697042 0.008407843299 0.0004043917579
v -0.001949553611 -0.003594422014 0.02397496812
v -0.001946178963 -0.008408327587 0.0004043885274
v -0.001888794592 -0.001159836538 0.02446195856
v -0.001881842734 -0.005327539984 0.02249172144
v -0.001843791688 0.003120420966 0.0241128169
v -0.001842114842 -0.003120848211 0.02411281317
v -0.001751691918 -0.008519309573 -0.002233689651
v -0.001741799875 0.005352515262 0.02243144624
v -0.001738923602 -0.005352887791 0.02243144065
v -0.001715753111 0.002622280736 0.02419706248
v -0.001714343438 -0.002622639993 0.0241970662
v -0.001701627159 -1.758747743e-07 0.02446914464
v -0.001608404447 0.005044701044 0.02279606834
v -0.001605691155 -0.005045002326 0.02279607765
v -0.001602543867 -0.008530768566 -0.002072581789
v -0.001558668795 0.002101660473 0.02423669212
v -0.001558037126 0.003779949155 0.02374170348
v -0.00155753945 -0.002101934515 0.02423668653
v -0.001556005795 -0.003780223196 0.02374170907
v -0.001555856084 0.008533962071 -0.002014945727
v -0.001492932206 0.001470846706 0.0243000444
v -0.00147392659 0.004717262927 0.02308260277
v -0.001471390598 -0.004717490636 0.02308260091
v -0.001469733543 -0.00540944282 0.02229444496
v -0.001352872467 0.001584946644 0.02423739992
v -0.001352019142 -0.001585111022 0.02423740365
v -0.001332116197 0.004367940594 0.02330158837
v -0.001329766819 -0.004368092865 0.0233015921
v -0.001266130479 0.002911494579 0.02394501492
v -0.001264565159 -0.00291161146 0.02394501865
v -0.001258592238 0.005459090695 0.0221600309
v -0.001255658804 -0.005459203385 0.02216002904
v -0.001180628198 0.003999944311 0.02346272022
v -0.001178477192 -0.004000015557 0.02346271649
v -0.001173874014 -0.005759779364 0.02165235393
v -0.001172503922 0.005779965781 0.02161349356
v -0.001159777516 -0.008553456515 -0.001553861657
v -0.0011420144 0.005935344845 0.02129026316
v -0.00113882462 -0.005935394671 0.02129027247
v -0.001118855551 0.006079693325 0.02095336094
v -0.00111558917 -0.006079730578 0.02095335536
v -0.00111239485 0.0061256513 0.0208395943
v -0.001109102159 -0.006125684828 0.02083959803
v -0.001078076544 0.006435430143 0.01999468356
v -0.00107461703 -0.006435445976 0.01999468729
v -0.001068252255 -0.006507035811 0.01977539621
v -0.001067821751 0.006553789601 0.01962640509
v -0.00106429786 -0.00655379938 0.01962641068
v -0.00104980683 0.006782493554 0.01882347092
v -0.001046160003 -0.006782493554 0.01882348396
v -0.001042839023 0.006870335434 0.01847652346
v -0.001039146446 -0.006870332174 0.01847651228
v -0.001021546661 0.007098895032 0.01743721962
v -0.001017731032 -0.007098879665 0.01743721589
v -0.001006831881 -0.007187664509 0.01696219295
v -0.0009859668789 0.007343190257 0.01600223593
v -0.0009820195846 -0.007343155798 0.01600223593
v -0.0009797587991 -0.007355055306 0.01592122018
v -0.0009759005043 0.00855809357 -0.001311004511
v -0.0009644946549 0.00744574191 0.01526416838
v -0.00096049282 -0.007445696276 0.01526415907
v -0.0009294328629 -0.005112275481 0.02246118896
v -0.0009276787168 -0.007567580324 0.01425671484
v -0.0008893152699 0.00506065879 0.02249484323
v -0.0008855221677 -0.005059260409 0.02249565534
v -0.0008615218103 -0.007741669659 0.01252519339
v -0.000848981319 0.007776333485 0.01213590987
v -0.0008448021254 -0.007776225451 0.0121359108
v -0.000837114465 0.003210398601 0.02364841476
v -0.0008355067694 0.0007887711399 0.02414616384
v -0.000835390354 -0.003210284514 0.02364841849
v -0.0008350830176 -0.000788657635 0.02414615825
v -0.0008216627175 0.004248752259 0.02313088812
v -0.0008193790563 -0.004248630255 0.02313088998
v -0.000750555424 0.002067339607 0.0239216201
v -0.0007494452875 -0.00206718035 0.02392161824
v -0.0007438331959 -0.004879912827 0.02259531617
v -0.0006984101492 0.008002849296 0.009241248481
v -0.0006941098254 -0.008002660237 0.00924124103
v -0.0006539966562 0.005480767228 0.02184240893
v -0.0006510494277 -0.005480554886 0.02184241824
v -0.0006305173738 -0.008558662608 -0.0008292415296
v -0.0005992040387 0.008558384143 -0.0007748211501
v -0.0005666627549 0.004637145903 0.02269963548
v -0.0004837691085 0.004520111252 0.02274063602
v -0.0004813403939 -0.00451980764 0.02274062485
v -0.0004558731453 0.008555190638 -0.0005484356661
v -0.0004253403167 0.003521121806 0.02329949103
v -0.000425314327 0.005869411863 0.02106465027
v -0.0004234462103 -0.003520786529 0.02329949103
v -0.0004221605777 -0.005869076587 0.02106465213
v -0.0004211666528 0.007332283538 0.01604892872
v -0.0004040953936 0.002338464139 0.02369771339
v -0.0004028387775 -0.002338118386 0.02369771525
v -0.0003548747045 0.008316762745 0.004750865977
v -0.0003449065262 0.004318477586 0.02279945649
v -0.0002405342675 0.006263520569 0.02010933682
v -0.0002385956905 0.008399444632 0.003314008238
v -0.0002378616773 0.007728694007 0.01270562597
v -0.0002371687297 -0.006263086107 0.02010934241
v -0.0002340813808 -0.008399008773 0.003314005909
v -0.0001632067288 -0.004048532341 0.02285827138
v -0.0001604767749 -0.0085421158 -3.736369399e-05
v -0.0001545638952 0.004032471217 0.02286125161
v -0.0001539386285 2.402129553e-07 0.0239123106
v -0.0001365137432 0.005051041022 0.02202131413
v -0.0001337966969 -0.005050551146 0.02202132344
v -0.0001261616562 0.002556641819 0.02349193208
v -0.0001247879263 -0.002556146123 0.02349192649
v -8.612839156e-05 0.008498011157 0.001187768066
v -8.475921641e-05 0.006640727166 0.01897196285
v -8.156128752e-05 -0.008497494273 0.001187770627
v -8.119118138e-05 -0.006640208419 0.01897196099
v -2.929120456e-05 0.003838719567 0.02289176546
v -2.774307904e-05 0.008533436805 0.0002356947953
v -2.315546408e-05 -0.008532887325 0.0002356936166
v 4.372544936e-05 0.008527617902 0.0003916922724
v 4.830929538e-05 -0.008527031168 0.0003916917194
v 5.403432078e-05 0.006978292018 0.01765623316
v 5.778645209e-05 -0.006977698766 0.01765624061
v 6.07633956e-05 0.001549871988 0.02365664765
v 6.159496115e-05 -0.001549276174 0.0236566402
v 0.0001144453126 0.008521380834 0.0005475757062
v 0.0001190256589 -0.008520754054 0.0005475758226
v 0.0001334239932 -0.007806045003 -0.003747232025
v 0.0001706446055 0.006107453723 0.02016823925
v 0.0001739266299 -0.006106798071 0.02016824484
v 0.0001866490347 0.007257653866 0.01617286727
v 0.0001905498939 -0.007256988902 0.01617287658
v 0.0002390863665 0.005482146051 0.02119680867
v 0.0002420315868 -0.005481454078 0.02119680494
v 0.0002422405232 -0.007787835784 -0.003741673892
v 0.0002974859672 -0.003318214323 0.02294174954
v 0.000322379783 -0.007481530774 0.0145661477
v 0.000375966134 0.004491187166 0.02214967832
v 0.0003783797147 -0.004490421154 0.02214966901
v 0.0003930654493 0.006497263908 0.01903661154
v 0.0003965587821 -0.006496488117 0.01903660782
v 0.0004526208795 0.007662832737 0.01289139502
v 0.0004567383148 -0.00766202528 0.01289139315
v 0.0004741100129 0.003025315236 0.02295616269
v 0.0004757342685 -0.003024496604 0.02295615338
v 0.000565562339 0.00590743497 0.0202220846
v 0.0005687369849 -0.005906566978 0.02022208087
v 0.0005922033451 0.006843342446 0.01773845777
v 0.0005958810798 -0.006842459552 0.01773846522
v 0.0006070057279 0.000751436397 0.02350827307
v 0.0006074103876 -0.0007505468093 0.0235082712
v 0.0007426323718 0.007934660651 0.009559216909
v 0.0007468977128 -0.007933697663 0.009559216909
v 0.0007787270588 0.00712856045 0.01628129557
v 0.0007825591019 -0.007127577905 0.01628130302
v 0.0007952569285 -0.007669458631 -0.003663822077
v 0.000798918365 -0.00248145964 0.02296476439
v 0.0008055164362 0.008499860764 0.0005480833352
v 0.000807176868 0.006866422016 -0.003662103554
v 0.0008532205247 0.006304823793 0.01909309626
v 0.0008566086181 -0.006303801667 0.01909309812
v 0.0008581918082 0.002379548037 0.02296346612
v 0.0008669107337 0.004943927284 0.02129933052
v 0.0008695662254 -0.004942897707 0.0212993212
v 0.0009000122081 0.003792410018 0.02222859114
v 0.0009020509897 -0.003791362979 0.02222859301
v 0.0009447476477 -0.002233019564 0.02295980603
v 0.0009496965213 -0.005662846379 0.02026939765
v 0.001074418426 0.008148166351 0.006497429218
v 0.00107879634 -0.00814702455 0.006497422699
v 0.00111308624 0.006654798985 0.01780952513
v 0.001116662403 -0.00665363716 0.01780951954
v 0.001135560218 0.007539486978 0.01306379214
v 0.001207017573 6.05791854e-07 0.02321355604
v 0.001291451394 -0.008466169238 0.0005488124443
v 0.001297569601 0.006062157452 0.01914252713
v 0.001300826902 -0.00606089551 0.01914252341
v 0.001316711656 0.005374302622 0.02031139284
v 0.001319598989 -0.005373030901 0.02031138539
v 0.001329546212 -0.007512507495 -0.003506324487
v 0.001330218744 0.001568359905 0.02291211113
v 0.001339866198 0.006709046196 -0.003502469976
v 0.00133986806 -0.003800000064 -0.0035024588
v 0.001339952229 -0.007509017363 -0.003502373351
v 0.001355184359 0.006942345295 0.01637711748
v 0.001358916517 -0.006941052619 0.01637712866
v 0.001398867229 -0.001449187868 0.02289758623
v 0.001413254766 0.00832214579 0.003384121461
v 0.001417728723 -0.008320821449 0.003384126816
v 0.001427690266 0.001399009372 0.02289056405
v 0.001446649665 0.002935237717 0.02227782086
v 0.001448226627 -0.002933896845 0.02227782086
v 0.001480409061 0.004236773122 0.0213770885
v 0.001482685679 -0.004235413391 0.02137709223
v 0.001530139474 -0.007442221511 -0.00342359324
v 0.001589257736 -0.007170656696 0.01483292039
v 0.001615172834 0.001071874867 0.02283693664
v 0.001617843984 0.006410570815 0.01787202433
v 0.001621289761 -0.00640913751 0.01787202992
v 0.001650471822 0.0084334407 0.0005500249099
v 0.00165526534 -0.00843162369 0.0005498616374
v 0.001728162752 0.005766789429 0.01918755099
v 0.001731262309 -0.005765296519 0.01918756217
v 0.001808263827 0.00735505484 0.01322421804
v 0.001812215312 -0.00735351909 0.01322421804
v 0.001820131321 0.0007118982612 0.02275642566
v 0.001842434402 -0.007319813594 -0.003265731037
v 0.001859641401 0.0006421540165 0.0227376353
v 0.001859985408 -0.0006405916647 0.02273762971
v 0.001909958781 0.006491200067 -0.003227164038
v 0.001916146139 0.006696328521 0.01646331325
v 0.001919744653 -0.006694735028 0.01646330394
v 0.001983262831 0.001962959999 0.0222815685
v 0.001984316856 -0.001961330883 0.02228156477
v 0.002027786803 -0.0003420118592 0.02264323086
v 0.002033399418 0.004643541295 0.0203922838
v 0.002035894897 -0.004641884472 0.02039228939
v 0.002092660172 0.003338966984 0.02145061269
v 0.002094453899 -0.003337278962 0.02145061642
v 0.002107730601 0.006107969675 0.01792946458
v 0.00211101328 -0.00610627234 0.01792945527
v 0.00215001055 -0.005413798615 0.01923202351
v 0.002201757394 -0.006922727916 0.01494978741
v 0.002216687426 8.773805575e-07 0.02250779793
v 0.002250007819 0.007625087164 0.01000257302
v 0.002254104475 -0.00762331346 0.01000257488
v 0.002426555147 0.008315467276 0.0003424595925
v 0.002428798005 0.008329200558 0.0005530829076
v 0.002438625321 0.0009655551985 0.02221065015
v 0.0024391443 -0.0009636811446 0.02221064083
v 0.002461786382 0.006387520116 0.01654324867
v 0.002465218771 -0.006385632791 0.01654325798
v 0.002468042076 0.007105933037 0.01337410603
v 0.002471861197 -0.007104041986 0.01337410137
v 0.002556480933 0.005005127285 0.01927979477
v 0.002559170127 -0.005003189668 0.0192797929
v 0.002584082773 0.005743829999 0.0179859791
v 0.002587171039 -0.005741877016 0.01798599213
v 0.002605476417 0.0004794857523 0.02215273492
v 0.002605735091 -0.000477521884 0.0221527461
v 0.002662731335 0.002287736861 0.02150558122
v 0.002663960913 -0.002285742667 0.0215055868
v 0.002705197781 0.007830767892 0.006984496024
v 0.002709404798 -0.007828749716 0.006984491833
v 0.002723551588 1.013470865e-06 0.02207844704
v 0.002729969099 0.003693302395 0.02048813552
v 0.00273195398 -0.003691271646 0.02048813365
v 0.002798720263 -0.006608765572 0.01505905576
v 0.002897228813 -0.008229637519 0.000344909291
v 0.002899829764 -0.008242779411 0.0005553808878
v 0.00299053709 0.007372519933 0.01020684466
v 0.002992319642 0.006012676284 0.01662073657
v 0.002994498238 -0.007370348088 0.01020684186
v 0.002995550632 -0.006010503974 0.01662073657
v 0.003048239043 0.005314973649 0.01804578677
v 0.003051096341 -0.005312771536 0.01804579981
v 0.003108845791 0.001157919643 0.02151106484
v 0.003109467914 -0.00115568575 0.0215110667
v 0.003112212988 0.006788470782 0.01351491734
v 0.003115860978 -0.006786234211 0.01351491455
v 0.003138334025 0.007996055298 0.003880947363
v 0.003142629983 -0.007993804291 0.003880941309
v 0.003207301721 1.143292707e-06 0.02159297466
v 0.003248432418 0.000580677588 0.02149900049
v 0.003248742782 -0.0005783684319 0.02149900235
v 0.003349832958 0.003998368047 0.01939760335
v 0.003351982217 -0.003996003419 0.01939759962
v 0.003358144313 0.002557096072 0.0205853302
v 0.003359519644 -0.002554727485 0.02058533952
v 0.003378988942 -0.006225345191 0.01516353432
v 0.003468657844 0.0081179915 0.0005588201457
v 0.003507964313 0.005568547174 0.01669952273
v 0.00350856618 0.007573700976 0.007205452304
v 0.003510957584 -0.005566097796 0.0166995246
v 0.00351263606 -0.007571251597 0.007205459289
v 0.003714638762 0.00704900315 0.01039886381
v 0.003718426917 -0.007046442013 0.01039886475
v 0.003738095751 0.006398985628 0.01364818681
v 0.00374153303 -0.006396412849 0.01364817936
v 0.003823744832 0.001305932645 0.02064802684
v 0.00382444635 -0.001303314115 0.0206480287
v 0.003940102179 0.004254778381 0.01818863116
v 0.003941405099 -0.005769039504 0.01526600216
v 0.003942388576 -0.004252096638 0.01818863302
v 0.003960052505 0.0006568409735 0.02066152729
v 0.003960404079 -0.0006541493931 0.02066151984
v 0.003987260163 0.00773507636 0.004099727608
v 0.003987414762 0.007839881815 1.047662408e-05
v 0.00399141619 -0.007732369006 0.004099718295
v 0.004007710144 0.00790873915 0.0001640276314
v 0.004008892458 0.005051926244 0.01678338088
v 0.004011607729 -0.005049207248 0.01678339019
v 0.0040119607 -0.007906022482 0.0001640303817
v 0.004021652509 0.007956043817 0.0003505779023
v 0.004025082104 0.00796767883 0.0005625482881
v 0.004025951494 -0.007953396998 0.0003510674287
v 0.004029362928 -0.007964950986 0.0005625452031
v 0.004052268341 0.002780689625 0.01952711493
v 0.004053761251 -0.002777948044 0.01952711493
v 0.004221882671 0.007897171192 0.0007520941435
v 0.004226126708 -0.007894338109 0.0007520981017
v 0.004271066748 0.007788150106 0.0001014045047
v 0.004275252577 -0.007785291411 0.0001014045847
v 0.004292947706 0.007244432345 0.007410925347
v 0.0042968411 -0.007241561078 0.007410936058
v 0.004304733593 0.007868899032 0.0004721739679
v 0.004308961332 -0.007866021246 0.0004721659352
v 0.004336970858 0.002115657553 0.01958287135
v 0.004338107072 -0.002112763468 0.01958286576
v 0.004343015607 0.005933791399 0.01377545111
v 0.00434620399 -0.005930893589 0.01377544552
v 0.004416572396 0.006650214549 0.01057811733
v 0.004420146346 -0.006647277158 0.01057811361
v 0.004435107112 1.473253405e-06 0.02011213452
v 0.004490423948 0.004464030731 0.01687303185
v 0.004492823035 -0.004461052828 0.01687304117
v 0.004507554695 0.007640913129 3.810986891e-05
v 0.004511660431 -0.007637927309 3.811003626e-05
v 0.00455891015 0.001425087801 0.01962661929
v 0.004559675697 -0.001422074158 0.01962662302
v 0.00455993088 0.007738186512 0.0003783139691
v 0.004564089235 -0.007735171355 0.0003783191496
v 0.004703193437 0.0007175549981 0.01965500601
v 0.004703576211 -0.000714463531 0.01965499297
v 0.004719942342 0.002964259358 0.01834355853
v 0.004721533041 -0.002961159218 0.01834355667
v 0.004813876003 0.007401282899 0.004299755674
v 0.004817854147 -0.007398130838 0.004299764987
v 0.004831422586 0.007396273315 -1.676726788e-05
v 0.004835398402 -0.007393112872 -1.675727071e-05
v 0.004901734181 0.007489445154 0.0002524919983
v 0.004905758426 -0.007486246061 0.0002524926676
v 0.004924255423 0.005389248487 0.01389821712
v 0.004927151836 -0.005386038683 0.01389822271
v 0.004938817583 0.003814356169 0.0169635471
v 0.004940867424 -0.003811138449 0.0169635471
v 0.005032846704 0.002256892622 0.01841129735
v 0.005034059752 -0.002253624145 0.01841129176
v 0.005050112493 0.006837991532 0.007600603625
v 0.005053786561 -0.006834712811 0.007600596175
v 0.00509059662 0.006171834655 0.01074413396
v 0.005093913525 -0.006168534514 0.01074413396
v 0.005143011454 0.007502816152 0.001567319501
v 0.005147155374 -0.007499195635 0.001567413681
v 0.0052140099 0.007091381121 -1.675654312e-05
v 0.005217820406 -0.007088014856 -1.676023567e-05
v 0.005275011528 0.001521025435 0.01846546307
v 0.005275827833 -0.001517627155 0.01846547425
v 0.005289139226 0.007180711254 0.0002524850133
v 0.005292997696 -0.007177304942 0.000252487167
v 0.005339332856 0.003113307059 0.01704933308
v 0.005341005977 -0.003109873971 0.01704932936
v 0.00542192068 0.007349059451 0.001235166332
v 0.005425944459 -0.007345338818 0.001235249452
v 0.005431413651 0.0007661507116 0.01850140467
v 0.005431824829 -0.0007626681472 0.01850140281
v 0.005475193728 0.004766581114 0.01401630323
v 0.005477755796 -0.004763074685 0.01401631162
v 0.00554088084 1.770634981e-06 0.01842132583
v 0.005608255975 0.006989030167 0.004481825046
v 0.005612012465 -0.00698545156 0.004481831565
v 0.005644448567 0.007106839214 0.0009133283747
v 0.005648310762 -0.007103050128 0.0009134090506
v 0.005677213892 0.002371278126 0.01712489128
v 0.00567848701 -0.00236766343 0.01712488942
v 0.00573094748 0.005609589163 0.01089641638
v 0.005733960774 -0.005605945364 0.01089641452
v 0.005771829747 0.00634940993 0.007774115074
v 0.005775242113 -0.006345743313 0.007774127182
v 0.005907943472 0.003233169205 0.01566767693
v 0.005909680389 -0.003229429945 0.01566767693
v 0.005937439855 0.001598561183 0.01718498766
v 0.005938298069 -0.00159480609 0.01718498953
v 0.005981898867 0.004076102749 0.0141263511
v 0.005984089337 -0.004072323442 0.01412635483
v 0.005997600034 0.00599406939 -0.0002820405934
v 0.006074863952 0.00696216803 0.002358761616
v 0.006078847218 -0.006957654376 0.002358929487
v 0.006104812026 0.0008053748752 0.01722467877
v 0.006105244625 -0.0008015302592 0.01722468808
v 0.006177357864 0.00615375163 -1.676050124e-05
v 0.006179588847 0.006769497879 0.001389823854
v 0.00618066499 -0.006149868015 -1.675853673e-05
v 0.006183227059 -0.006765611935 0.001389822923
v 0.006264622789 0.00623127073 0.0002524810261
v 0.006266138982 0.002463286277 0.01574800909
v 0.006267461926 -0.002459355397 0.01574801281
v 0.006267971359 -0.006227340084 0.0002524900483
v 0.006319470704 0.006791552529 0.002008922165
v 0.006323297042 -0.006787028164 0.002009083051
v 0.006329337601 0.004964495543 0.01103404444
v 0.006332003511 -0.004960529506 0.01103403233
v 0.006360473577 0.006492675282 0.004646684509
v 0.006363962311 -0.006488692947 0.004646681715
v 0.006429636851 0.003329125 0.01422462333
v 0.006431424059 -0.003325105878 0.01422461402
v 0.006449860521 0.005773771554 0.007931177504
v 0.006452962756 -0.00576974079 0.007931173779
v 0.006498008501 0.00653957203 0.001668405603
v 0.006501622498 -0.006535071414 0.001668554032
v 0.006540778559 0.001660942333 0.01581098512
v 0.0065416703 -0.001656862674 0.01581098139
v 0.006589211058 2.052470791e-06 0.01631349698
v 0.006691523828 0.005714657251 0.0002524831507
v 0.006694595329 -0.005710495636 0.0002524848969
v 0.006716742646 0.0008369442075 0.01585208066
v 0.006717190146 -0.0008327711839 0.01585206948
v 0.006793918088 0.004954603035 -0.0002820481895
v 0.006796580274 -0.004950387869 -0.0002820437949
v 0.006803669501 0.002536959713 0.01430739928
v 0.006805032957 -0.002532739425 0.01430741046
v 0.006872774102 0.004247453529 0.01115534175
v 0.006875056308 -0.004243195988 0.01115534361
v 0.006994891912 0.005086592864 -1.675524254e-05
v 0.006997623947 -0.005082270131 -1.676416105e-05
v 0.007012747694 0.006222842261 0.003086039098
v 0.007016436197 -0.006217517424 0.003086273093
v 0.007060603704 0.005906632636 0.004795082379
v 0.007063777652 -0.00590227358 0.004795094486
v 0.00707487762 0.005111822858 0.008071127348
v 0.007077624556 -0.005107456353 0.008071131073
v 0.00708922511 0.001710901852 0.01437103562
v 0.007090144325 -0.001706528594 0.01437104028
v 0.007092454936 0.005150669254 0.0002524824522
v 0.007095221896 -0.005146293901 0.0002524818992
v 0.007095667534 0.006034008227 0.002173815388
v 0.007098607719 -0.006029463373 0.002173691522
v 0.007202086505 0.006053390913 0.002716174582
v 0.007205589674 -0.006048141047 0.002716404153
v 0.007271505427 0.000862238463 0.01441187505
v 0.007271967363 -0.0008577664848 0.01441187784
v 0.007318690885 0.005815350451 0.002354122465
v 0.007321964018 -0.005810213275 0.002354325494
v 0.007347745355 0.003470449708 0.01125854533
v 0.007349609397 -0.003465936519 0.01125853602
v 0.007431445643 0.003810848109 -0.0002820473455
v 0.00743349269 -0.003806290682 -0.0002820461232
v 0.00749799097 2.296501634e-06 0.01396816969
v 0.007624332793 0.004231300205 0.0002524884476
v 0.007626606617 -0.004226637539 0.0002524916781
v 0.007635532413 0.004374893848 0.008192862384
v 0.007637883537 -0.004370226059 0.008192866109
v 0.007649403065 0.003912368324 -1.676023385e-05
v 0.007651504595 -0.003907694016 -1.675439671e-05
v 0.007698803209 0.005231332965 0.004927191883
v 0.007701613009 -0.005226631183 0.004927183036
v 0.007740740199 0.002645467408 0.01134187542
v 0.007742160931 -0.002640743507 0.01134187542
v 0.007755211089 0.003961652517 0.0002524885931
v 0.007757339627 -0.003956920933 0.000252489408
v 0.007864956744 0.001262294129 -0.000445632526
v 0.007865634747 -0.00125750422 -0.0004456261813
v 0.007886370644 0.00527082663 0.003699477529
v 0.007890745997 -0.005264088046 0.003701244248
v 0.007896760479 0.002586880233 -0.0002820448135
v 0.007898149081 -0.002582072979 -0.0002820535738
v 0.007956931368 2.419635393e-06 -0.0004456363677
v 0.008020867594 0.005116528831 0.003311974229
v 0.008024686947 -0.005109978374 0.003313693451
v 0.008038248867 0.00178449403 0.01140359696
v 0.008039206266 -0.001779609942 0.0114035951
v 0.008077331819 0.004907353781 0.002931012306
v 0.008080518804 -0.004901022185 0.002932678675
v 0.008120249957 0.003575475188 0.008295168169
v 0.008122170344 -0.003570547095 0.008295163512
v 0.008127112873 0.002655793913 -1.676609827e-05
v 0.008128538728 -0.002650862793 -1.6766915e-05
v 0.008180069737 0.001308462699 -0.0002820506925
v 0.008180771023 -0.001303503523 -0.0002820490045
v 0.0082267588 0.0008995127282 0.01144191623
v 0.008227241226 -0.0008945277077 0.01144192927
v 0.008238941431 0.002689248417 0.0002524941519
v 0.008240384981 -0.002684257226 0.0002524899319
v 0.008265387267 0.0044784653 0.005042005796
v 0.008267791942 -0.004473459441 0.005041998811
v 0.008275408298 2.505270231e-06 -0.0002820510126
v 0.008292757906 2.510099648e-06 0.0114550842
v 0.008301527239 0.004578027409 0.003094729967
v 0.008303642273 -0.004572909791 0.003096448258
v 0.008417970501 0.001343319309 -1.67601811e-05
v 0.008418690413 -0.00133823161 -1.676196916e-05
v 0.00851584971 2.570164952e-06 -1.675932981e-05
v 0.00851745531 0.002726057312 0.008376827464
v 0.008518918417 -0.002720916178 0.008376819082
v 0.008533461019 0.00136023981 0.0002524932788
v 0.008534190245 -0.001355090179 0.0002524897282
v 0.008566454053 2.583674586e-06 0.01048109122
v 0.008591340855 0.0008787306724 0.0002524870797
v 0.008591812104 -0.0008735483279 0.0002524876036
v 0.008620470762 0.004160531331 0.004200921394
v 0.008625023998 -0.004152998328 0.004203930032
v 0.008632573299 2.601146207e-06 0.000252490514
v 0.008716252632 0.004022158682 0.003800890176
v 0.008719887584 -0.004014821723 0.003803837346
v 0.008728581481 0.003841250204 0.003406648524
v 0.008731322363 -0.003834157018 0.003409519093
v 0.008750683628 0.003660952207 0.005138426088
v 0.00875264965 -0.003655685112 0.00513842795
v 0.008815573528 0.001839131583 0.008436639793
v 0.008816559799 -0.001833830029 0.008436633274
v 0.009003031068 0.0009271888994 0.008473405614
v 0.009003528394 -0.0009217860643 0.008473415859
v 0.009068256244 2.718553333e-06 0.008485937491
v 0.009145024233 0.002791715553 0.005215339828
v 0.009146523662 -0.002786236349 0.005215340294
v 0.00916149281 0.002861243905 0.003737822641
v 0.009162858129 -0.002854770981 0.003738129977
v 0.009196853265 0.002913874108 0.004608761054
v 0.009198512882 -0.002906874288 0.004609024618
v 0.009235917591 0.002652226249 0.00379727059
v 0.009237096645 -0.00264575216 0.003797515994
v 0.009259738959 0.002797760302 0.004200390074
v 0.009261202998 -0.002791000064 0.004200647119
v 0.009408190846 2.810041451e-06 0.006881305948
v 0.009438742884 0.001883677323 0.005271662958
v 0.009439752437 -0.001878040377 0.005271651316
v 0.009567367844 0.001363469171 0.004077256192
v 0.009568982758 -0.001354793902 0.004081423394
v 0.009583630599 0.001527979388 0.00489896629
v 0.009587791748 -0.001518389443 0.004903350025
v 0.009619054385 0.001453317236 0.004485699348
v 0.009621905163 -0.001444162917 0.004489977844
v 0.009622165002 0.0009497593855 0.00530625321
v 0.009622674435 -0.0009440243011 0.005306261592
v 0.009625799023 0.0009767367737 0.004131651483
v 0.009626756422 -0.0009711503517 0.004134670831
v 0.009657144547 0.0006887695054 0.004162093624
v 0.009657980874 -0.0006816324312 0.004164151847
v 0.009688689373 2.885209597e-06 0.004193972796
v 0.009693239816 0.0007808036171 0.004986628424
v 0.009695323184 -0.000773253676 0.00498881191
v 0.009718369693 0.0007386450307 0.004572019447
v 0.009719897062 -0.0007312750095 0.004574134015
v 0.009732988663 2.897420018e-06 0.00501955254
v 0.009753808379 2.90300909e-06 0.004604454152
f 452 353 433
f 507 191 201
f 66 94 68
f 311 322 353
f 194 204 198
f 243 259 284
f 284 247 243
f 774 733 747
f 768 789 793
f 864 850 848
f 11 13 8
f 10 12 4
f 4 9 10
f 10 9 14
f 507 201 219
f 507 111 138
f 138 167 507
f 184 191 507
f 507 167 184
f 481 511 526
f 457 511 481
f 193 196 199
f 28 10 14
f 12 10 28
f 135 122 132
f 121 115 132
f 224 85 78
f 259 476 292
f 284 259 292
f 292 311 284
f 204 476 233
f 284 311 279
f 279 247 284
f 341 311 353
f 276 279 341
f 341 279 311
f 353 452 341
f 452 430 341
f 105 115 121
f 178 185 173
f 504 185 178
f 178 159 504
f 128 115 144
f 144 115 504
f 504 159 144
f 483 476 204
f 204 194 483
f 483 185 504
f 483 194 185
f 504 641 483
f 597 366 483
f 537 452 475
f 475 523 537
f 475 469 523
f 649 645 655
f 597 483 644
f 644 483 641
f 644 598 597
f 645 598 644
f 655 645 644
f 597 598 549
f 537 523 549
f 549 598 537
f 549 523 433
f 8 13 530
f 530 58 507
f 831 795 808
f 579 546 568
f 568 546 524
f 743 795 782
f 614 630 583
f 450 500 429
f 339 429 446
f 517 609 536
f 517 536 449
f 449 446 517
f 446 429 517
f 517 429 500
f 524 546 508
f 559 546 579
f 579 607 559
f 519 533 496
f 519 508 546
f 519 559 533
f 546 559 519
f 812 789 782
f 782 795 812
f 812 795 831
f 552 533 581
f 533 559 581
f 581 559 607
f 881 876 883
f 804 555 817
f 829 817 824
f 804 817 829
f 859 834 866
f 859 861 855
f 855 821 859
f 859 821 834
f 838 806 801
f 822 793 789
f 789 812 822
f 838 801 822
f 822 801 793
f 791 797 814
f 841 806 838
f 814 797 820
f 797 843 820
f 737 747 730
f 747 733 730
f 693 733 729
f 693 697 733
f 729 558 693
f 558 530 693
f 518 592 501
f 518 452 537
f 518 430 452
f 501 430 518
f 537 598 610
f 610 518 537
f 592 518 610
f 610 598 645
f 419 430 501
f 417 419 491
f 491 419 501
f 574 592 623
f 501 592 574
f 574 491 501
f 449 536 506
f 506 461 449
f 474 461 506
f 86 104 111
f 86 111 507
f 507 58 86
f 13 11 26
f 26 11 36
f 90 97 77
f 77 36 90
f 7 11 3
f 3 11 8
f 1 15 3
f 6 9 4
f 6 4 1
f 1 2 6
f 242 283 251
f 246 283 242
f 111 104 110
f 110 104 77
f 210 219 201
f 201 199 210
f 197 201 191
f 197 199 201
f 191 188 197
f 198 204 177
f 177 194 198
f 173 185 177
f 185 194 177
f 61 28 14
f 73 28 61
f 66 12 38
f 12 28 38
f 38 94 66
f 38 73 94
f 38 28 73
f 94 121 119
f 121 132 119
f 119 132 122
f 139 122 135
f 55 76 46
f 49 12 66
f 4 12 49
f 4 34 22
f 1 4 22
f 59 88 83
f 63 59 54
f 63 88 59
f 63 74 98
f 85 224 231
f 235 93 231
f 231 93 85
f 301 476 322
f 301 292 476
f 322 311 301
f 311 292 301
f 259 243 248
f 243 233 248
f 248 476 259
f 248 233 476
f 211 233 243
f 204 233 211
f 211 177 204
f 179 177 211
f 322 476 358
f 353 322 358
f 358 366 353
f 476 483 358
f 358 483 366
f 229 279 276
f 247 279 229
f 91 121 94
f 91 105 121
f 94 73 91
f 73 61 91
f 115 105 91
f 504 115 91
f 91 61 504
f 824 817 805
f 805 530 558
f 433 523 454
f 463 475 452
f 469 475 463
f 463 452 433
f 433 454 463
f 692 649 655
f 388 366 597
f 597 549 388
f 388 549 433
f 433 353 388
f 353 366 388
f 785 555 804
f 785 757 555
f 799 805 558
f 816 828 824
f 814 828 816
f 816 803 814
f 824 805 816
f 805 799 816
f 558 803 816
f 816 799 558
f 8 530 5
f 5 530 2
f 5 3 8
f 5 2 1
f 1 3 5
f 29 530 13
f 58 530 29
f 13 26 29
f 29 26 58
f 843 841 860
f 847 852 831
f 831 808 847
f 779 771 809
f 550 568 524
f 526 583 550
f 583 630 603
f 603 550 583
f 663 630 683
f 770 808 795
f 660 607 626
f 626 607 579
f 564 614 583
f 564 583 526
f 526 511 564
f 630 614 673
f 699 683 673
f 673 683 630
f 567 590 540
f 617 590 567
f 662 671 633
f 246 226 278
f 278 283 246
f 299 339 309
f 300 283 309
f 309 278 299
f 283 278 309
f 573 521 552
f 337 330 291
f 308 343 252
f 488 519 496
f 508 519 488
f 524 508 494
f 494 481 526
f 526 550 494
f 494 550 524
f 624 581 607
f 624 607 660
f 660 687 624
f 624 687 652
f 660 626 689
f 689 626 658
f 793 801 766
f 768 793 766
f 766 745 768
f 872 862 850
f 876 881 874
f 864 848 853
f 866 874 870
f 870 874 881
f 870 859 866
f 861 859 870
f 830 829 824
f 824 828 830
f 834 829 837
f 840 876 837
f 837 830 840
f 829 830 837
f 876 874 837
f 866 834 837
f 837 874 866
f 834 821 815
f 815 829 834
f 804 829 815
f 815 785 804
f 810 780 806
f 780 810 772
f 838 822 845
f 845 822 812
f 831 852 845
f 845 812 831
f 877 876 840
f 840 875 877
f 883 876 877
f 877 875 883
f 858 865 833
f 833 820 858
f 833 828 814
f 814 820 833
f 701 725 737
f 701 691 725
f 507 300 636
f 636 650 507
f 665 530 507
f 507 650 665
f 637 692 676
f 649 692 637
f 637 676 623
f 645 649 637
f 637 610 645
f 623 592 637
f 592 610 637
f 430 419 327
f 327 419 417
f 417 324 327
f 514 567 540
f 565 527 584
f 584 615 565
f 512 487 458
f 512 527 565
f 180 324 329
f 601 574 623
f 818 835 849
f 849 847 818
f 818 847 808
f 850 835 819
f 809 848 819
f 819 848 850
f 819 779 809
f 786 779 819
f 851 835 850
f 850 862 851
f 849 835 851
f 851 862 849
f 466 506 438
f 438 461 466
f 438 506 434
f 434 410 449
f 449 461 434
f 434 461 438
f 251 283 286
f 286 283 300
f 507 251 286
f 286 300 507
f 552 581 599
f 599 573 552
f 621 573 599
f 581 624 599
f 652 621 599
f 599 624 652
f 691 648 635
f 741 687 716
f 716 766 741
f 745 766 716
f 716 689 745
f 716 687 660
f 660 689 716
f 652 687 708
f 725 691 708
f 741 725 708
f 708 687 741
f 77 104 72
f 104 86 72
f 72 86 58
f 72 36 77
f 58 26 72
f 72 26 36
f 240 242 251
f 240 251 507
f 507 219 240
f 219 210 240
f 240 210 242
f 191 184 186
f 186 188 191
f 186 184 167
f 193 199 190
f 199 197 190
f 190 197 188
f 171 186 167
f 188 186 171
f 85 93 62
f 62 76 55
f 87 100 97
f 97 90 87
f 102 93 235
f 102 62 93
f 235 244 102
f 102 244 112
f 127 138 111
f 127 134 138
f 111 110 127
f 110 134 127
f 486 511 457
f 166 205 196
f 166 188 153
f 166 190 188
f 193 190 166
f 166 196 193
f 404 443 407
f 470 443 404
f 328 404 407
f 330 404 328
f 287 328 280
f 330 328 287
f 200 199 196
f 196 205 200
f 214 221 212
f 214 207 218
f 218 226 214
f 214 226 246
f 246 221 214
f 202 210 199
f 199 200 202
f 208 205 212
f 208 202 205
f 210 202 208
f 99 119 122
f 118 99 122
f 98 236 92
f 92 63 98
f 88 63 92
f 183 139 187
f 78 85 51
f 51 47 52
f 85 62 51
f 59 83 57
f 40 34 4
f 4 49 40
f 46 39 23
f 23 39 15
f 1 22 18
f 74 63 64
f 64 63 54
f 98 74 109
f 162 263 143
f 227 224 78
f 80 228 78
f 232 83 88
f 88 92 232
f 232 92 236
f 217 211 243
f 179 211 217
f 217 243 247
f 247 179 217
f 215 179 247
f 247 229 215
f 215 229 179
f 800 805 817
f 655 644 651
f 651 644 641
f 651 641 504
f 680 666 678
f 555 678 543
f 678 666 543
f 531 530 543
f 530 805 543
f 805 800 543
f 543 817 555
f 543 800 817
f 469 463 467
f 467 463 454
f 523 469 467
f 467 454 523
f 726 692 702
f 767 765 802
f 653 688 625
f 623 676 653
f 653 601 623
f 625 601 653
f 625 688 661
f 574 601 553
f 491 574 553
f 553 485 491
f 827 842 807
f 802 807 839
f 839 807 842
f 844 842 827
f 844 821 855
f 855 861 844
f 861 842 844
f 773 781 753
f 757 785 763
f 788 773 763
f 731 555 763
f 555 757 763
f 763 753 731
f 763 773 753
f 753 781 775
f 854 860 858
f 843 860 854
f 858 820 854
f 854 820 843
f 856 867 860
f 856 845 852
f 838 845 856
f 856 841 838
f 856 860 841
f 849 862 871
f 863 847 849
f 849 871 863
f 863 871 867
f 852 847 863
f 863 856 852
f 867 856 863
f 809 771 796
f 684 700 674
f 759 796 771
f 695 685 656
f 568 550 585
f 550 603 585
f 795 743 758
f 758 770 795
f 685 695 720
f 663 683 722
f 722 705 663
f 722 743 782
f 656 616 628
f 633 671 628
f 628 616 589
f 614 564 594
f 646 673 614
f 614 594 646
f 646 594 616
f 646 616 656
f 656 685 646
f 685 673 646
f 617 567 595
f 565 615 595
f 647 657 617
f 647 615 674
f 617 595 647
f 647 595 615
f 617 657 629
f 629 590 617
f 268 226 218
f 332 339 299
f 299 268 332
f 332 268 326
f 429 339 332
f 332 326 429
f 450 429 418
f 429 326 418
f 351 309 339
f 351 410 371
f 449 410 351
f 351 446 449
f 351 339 446
f 591 517 500
f 500 521 591
f 521 573 591
f 609 517 591
f 591 573 621
f 591 635 609
f 621 635 591
f 479 443 470
f 393 395 343
f 448 395 393
f 249 337 291
f 249 161 252
f 252 343 297
f 343 337 297
f 297 249 252
f 337 249 297
f 343 395 398
f 398 337 343
f 400 337 398
f 343 308 348
f 477 494 508
f 477 488 448
f 508 488 477
f 764 766 801
f 737 725 764
f 764 725 741
f 741 766 764
f 882 881 883
f 857 853 846
f 846 839 857
f 864 853 857
f 857 842 861
f 857 839 842
f 879 870 881
f 881 882 879
f 862 872 879
f 879 882 862
f 785 815 792
f 792 763 785
f 788 763 792
f 826 843 797
f 826 841 843
f 806 841 826
f 826 810 806
f 787 772 810
f 787 826 797
f 810 826 787
f 797 791 787
f 729 733 752
f 733 774 752
f 774 780 752
f 780 772 752
f 883 875 880
f 875 873 880
f 880 882 883
f 724 558 729
f 729 756 724
f 724 756 558
f 791 756 762
f 762 787 791
f 772 787 762
f 762 756 729
f 729 752 762
f 762 752 772
f 784 756 791
f 814 803 784
f 784 791 814
f 784 803 558
f 558 756 784
f 865 873 836
f 836 833 865
f 836 873 875
f 836 875 840
f 828 833 836
f 840 830 836
f 836 830 828
f 737 730 710
f 710 701 737
f 733 697 710
f 710 730 733
f 650 636 638
f 677 693 530
f 530 665 677
f 697 693 677
f 276 341 333
f 333 341 430
f 430 327 333
f 269 229 276
f 276 333 269
f 269 333 327
f 615 584 632
f 664 684 632
f 674 615 632
f 632 684 674
f 604 632 584
f 542 512 565
f 565 595 542
f 542 595 567
f 567 514 542
f 542 514 487
f 487 512 542
f 273 327 324
f 324 180 273
f 273 269 327
f 180 269 273
f 464 471 497
f 497 471 503
f 503 534 497
f 497 534 520
f 570 584 527
f 527 551 570
f 570 604 584
f 503 471 480
f 480 485 503
f 451 396 464
f 825 818 786
f 835 818 825
f 786 819 825
f 825 819 835
f 786 818 778
f 778 754 786
f 808 770 778
f 778 818 808
f 474 506 468
f 506 466 468
f 468 461 474
f 468 466 461
f 669 665 650
f 691 701 669
f 652 708 675
f 675 621 652
f 675 635 621
f 691 635 675
f 675 708 691
f 153 188 182
f 182 171 153
f 188 171 182
f 138 134 163
f 134 171 163
f 167 138 163
f 163 171 167
f 415 382 364
f 389 348 387
f 431 382 415
f 457 481 431
f 431 415 457
f 431 387 382
f 36 11 67
f 67 90 36
f 82 89 76
f 82 102 112
f 76 62 82
f 62 102 82
f 266 244 235
f 266 254 244
f 376 426 367
f 112 244 114
f 244 254 114
f 126 89 114
f 114 82 112
f 89 82 114
f 223 89 126
f 126 114 223
f 223 114 254
f 106 89 223
f 223 241 106
f 254 241 223
f 252 161 150
f 125 241 255
f 222 287 280
f 222 220 213
f 238 222 280
f 220 222 238
f 209 220 218
f 213 220 209
f 218 207 209
f 157 166 155
f 155 166 153
f 206 166 207
f 205 166 206
f 207 214 206
f 212 205 206
f 206 214 212
f 400 470 402
f 470 404 402
f 402 404 330
f 402 337 400
f 330 337 402
f 203 200 205
f 205 202 203
f 203 202 200
f 216 208 212
f 212 221 216
f 242 210 216
f 210 208 216
f 246 242 216
f 216 221 246
f 94 119 95
f 119 99 95
f 95 68 94
f 99 118 101
f 487 514 453
f 162 118 172
f 139 183 129
f 129 172 118
f 183 172 129
f 282 305 307
f 282 172 183
f 282 263 162
f 162 172 282
f 15 39 33
f 33 39 35
f 33 3 15
f 33 35 7
f 7 3 33
f 48 62 55
f 48 51 62
f 55 41 48
f 41 47 48
f 47 51 48
f 52 47 53
f 53 57 83
f 47 43 53
f 53 43 57
f 53 80 52
f 83 80 53
f 54 31 45
f 45 64 54
f 60 64 45
f 56 40 49
f 68 60 56
f 60 45 56
f 66 68 56
f 56 49 66
f 19 23 15
f 20 23 19
f 42 47 41
f 42 43 47
f 1 18 17
f 17 18 20
f 20 19 17
f 20 18 21
f 21 18 22
f 44 31 54
f 43 31 44
f 57 43 44
f 54 59 44
f 59 57 44
f 245 109 113
f 96 101 107
f 99 101 96
f 113 109 81
f 81 84 113
f 81 109 74
f 108 143 107
f 107 101 108
f 108 101 118
f 108 118 162
f 162 143 108
f 270 143 263
f 270 282 307
f 263 282 270
f 307 312 270
f 78 228 230
f 230 227 78
f 224 227 258
f 295 293 258
f 258 231 224
f 79 51 52
f 52 80 79
f 78 51 79
f 79 80 78
f 83 232 225
f 225 80 83
f 228 80 225
f 261 228 225
f 261 225 256
f 256 225 232
f 236 289 256
f 256 232 236
f 670 651 666
f 666 680 670
f 655 651 670
f 670 680 702
f 670 692 655
f 702 692 670
f 702 680 711
f 698 680 678
f 698 711 680
f 666 651 528
f 528 651 504
f 14 9 528
f 9 6 528
f 528 61 14
f 504 61 528
f 528 6 2
f 528 530 531
f 2 530 528
f 738 726 702
f 702 711 738
f 738 711 732
f 738 732 748
f 765 726 738
f 742 726 765
f 765 767 742
f 794 767 802
f 582 553 601
f 582 601 625
f 827 807 811
f 811 807 781
f 781 773 811
f 811 788 827
f 811 773 788
f 827 788 798
f 798 844 827
f 821 844 798
f 788 792 798
f 798 815 821
f 798 792 815
f 777 775 781
f 781 807 777
f 765 738 777
f 802 765 777
f 777 807 802
f 748 775 777
f 777 738 748
f 771 779 750
f 786 754 751
f 686 647 674
f 657 647 686
f 832 848 809
f 809 796 832
f 832 853 848
f 846 853 832
f 690 746 715
f 783 796 744
f 796 759 744
f 718 758 743
f 718 683 699
f 743 722 718
f 718 722 683
f 770 758 734
f 758 718 734
f 734 718 699
f 754 720 727
f 727 751 754
f 727 695 703
f 727 720 695
f 782 789 760
f 760 722 782
f 705 722 760
f 639 630 663
f 639 603 630
f 663 705 639
f 705 681 639
f 745 689 714
f 768 745 714
f 714 689 658
f 658 681 714
f 656 628 667
f 667 628 671
f 667 695 656
f 667 671 703
f 703 695 667
f 633 628 605
f 605 628 589
f 541 594 564
f 541 564 511
f 511 486 541
f 541 486 513
f 634 629 672
f 672 662 634
f 672 629 668
f 668 629 657
f 472 459 444
f 444 426 472
f 380 426 444
f 472 426 421
f 421 426 376
f 522 456 499
f 522 572 556
f 378 368 384
f 561 605 589
f 492 513 465
f 465 439 492
f 492 439 459
f 459 510 492
f 272 238 280
f 326 268 272
f 220 238 272
f 299 278 275
f 275 268 299
f 275 278 226
f 226 268 275
f 450 418 411
f 411 443 450
f 407 443 411
f 411 328 407
f 300 309 336
f 309 351 336
f 336 351 371
f 371 638 336
f 336 636 300
f 336 638 636
f 450 443 490
f 443 479 490
f 490 479 521
f 490 500 450
f 490 521 500
f 502 470 496
f 502 479 470
f 496 533 502
f 502 533 552
f 552 521 502
f 521 479 502
f 448 488 462
f 462 395 448
f 462 398 395
f 496 470 462
f 462 488 496
f 462 470 400
f 400 398 462
f 391 393 343
f 343 348 391
f 391 348 389
f 389 448 391
f 448 393 391
f 253 348 308
f 253 308 252
f 252 150 253
f 253 150 151
f 151 150 140
f 776 801 806
f 776 764 801
f 806 780 776
f 776 780 774
f 737 764 776
f 776 747 737
f 776 774 747
f 861 870 868
f 868 857 861
f 864 857 868
f 868 850 864
f 868 872 850
f 868 879 872
f 870 879 868
f 860 867 869
f 869 873 865
f 869 880 873
f 869 865 858
f 858 860 869
f 867 871 878
f 878 869 867
f 880 869 878
f 882 880 878
f 878 871 862
f 862 882 878
f 371 410 575
f 575 638 371
f 181 180 179
f 181 269 180
f 179 229 181
f 229 269 181
f 540 590 562
f 562 578 535
f 590 629 606
f 606 562 590
f 578 562 606
f 606 634 613
f 629 634 606
f 588 606 613
f 578 606 588
f 535 578 557
f 578 588 557
f 499 535 557
f 557 522 499
f 473 535 499
f 515 562 535
f 535 473 515
f 515 473 460
f 540 562 515
f 640 706 664
f 664 632 640
f 632 604 640
f 580 596 618
f 187 139 152
f 179 180 168
f 168 177 179
f 128 144 142
f 142 115 128
f 142 132 115
f 571 534 544
f 544 582 571
f 553 582 544
f 544 534 503
f 503 485 544
f 485 553 544
f 547 520 560
f 520 534 560
f 560 580 547
f 560 534 571
f 571 596 560
f 596 580 560
f 516 551 527
f 405 471 403
f 405 480 471
f 305 282 303
f 303 282 183
f 303 183 187
f 489 451 464
f 464 497 489
f 489 497 520
f 432 386 442
f 654 648 691
f 691 669 654
f 654 669 650
f 679 677 665
f 665 669 679
f 697 677 679
f 679 710 697
f 701 710 679
f 679 669 701
f 271 260 255
f 255 285 271
f 359 348 342
f 359 387 348
f 382 387 359
f 359 364 382
f 342 334 359
f 334 364 359
f 440 431 481
f 481 494 440
f 494 477 440
f 387 431 440
f 440 477 448
f 440 448 389
f 389 387 440
f 304 338 334
f 373 338 378
f 415 364 373
f 373 364 334
f 334 338 373
f 69 87 90
f 90 67 69
f 277 254 306
f 254 266 306
f 306 304 277
f 361 426 380
f 361 367 426
f 361 314 317
f 317 367 361
f 262 254 277
f 262 241 254
f 262 285 255
f 255 241 262
f 486 436 447
f 148 161 157
f 148 150 161
f 157 155 148
f 106 241 103
f 241 125 103
f 103 125 100
f 103 89 106
f 100 87 103
f 87 89 103
f 161 249 237
f 287 222 237
f 237 249 291
f 291 330 237
f 330 287 237
f 307 305 347
f 357 370 381
f 357 315 312
f 381 370 422
f 437 453 425
f 425 428 437
f 487 453 437
f 458 487 437
f 437 428 458
f 122 139 124
f 139 129 124
f 124 118 122
f 124 129 118
f 40 56 37
f 37 56 45
f 34 40 37
f 37 45 31
f 27 23 20
f 20 21 27
f 16 15 1
f 1 17 16
f 16 19 15
f 16 17 19
f 109 245 264
f 264 236 98
f 98 109 264
f 264 289 236
f 264 315 289
f 312 315 264
f 264 270 312
f 245 270 264
f 99 96 70
f 70 60 68
f 68 95 70
f 70 95 99
f 143 270 137
f 107 143 137
f 137 96 107
f 117 245 113
f 117 270 245
f 117 137 270
f 96 137 117
f 113 84 117
f 84 96 117
f 227 230 267
f 267 258 227
f 295 258 267
f 231 258 257
f 235 231 257
f 257 266 235
f 314 266 257
f 316 321 296
f 377 427 423
f 427 473 423
f 499 456 423
f 423 473 499
f 369 427 377
f 289 315 318
f 318 320 289
f 731 698 694
f 694 698 678
f 694 555 731
f 694 678 555
f 736 698 731
f 731 753 736
f 732 711 736
f 711 698 736
f 748 732 736
f 753 775 736
f 736 775 748
f 532 543 666
f 666 528 532
f 531 543 532
f 532 528 531
f 709 742 688
f 726 742 709
f 709 653 676
f 688 653 709
f 676 692 709
f 692 726 709
f 717 767 746
f 717 742 767
f 688 742 717
f 717 746 690
f 690 661 717
f 717 661 688
f 769 715 746
f 740 715 769
f 746 767 769
f 767 794 769
f 618 596 627
f 627 661 690
f 735 759 771
f 771 750 735
f 813 796 783
f 813 832 796
f 846 832 813
f 682 640 631
f 706 640 682
f 682 715 740
f 740 706 682
f 723 684 664
f 664 706 723
f 783 744 723
f 770 734 749
f 749 720 754
f 754 778 749
f 749 778 770
f 712 734 699
f 685 720 712
f 720 749 712
f 712 749 734
f 699 673 712
f 712 673 685
f 620 585 603
f 603 639 620
f 620 681 658
f 620 639 681
f 739 681 705
f 739 714 681
f 705 760 739
f 768 714 739
f 739 789 768
f 739 760 789
f 611 662 633
f 613 634 611
f 611 634 662
f 594 541 566
f 589 616 566
f 616 594 566
f 566 541 513
f 657 686 696
f 696 668 657
f 696 686 721
f 721 728 696
f 456 522 498
f 472 421 498
f 498 421 456
f 420 368 380
f 459 439 420
f 439 384 420
f 420 384 368
f 380 444 420
f 420 444 459
f 378 338 346
f 346 368 378
f 338 304 346
f 304 306 346
f 510 561 539
f 539 492 510
f 513 492 539
f 539 566 513
f 539 561 589
f 589 566 539
f 234 268 218
f 234 272 268
f 218 220 234
f 220 272 234
f 323 418 326
f 323 411 418
f 328 411 323
f 326 272 323
f 280 328 323
f 323 272 280
f 131 140 125
f 410 434 548
f 548 575 410
f 548 434 506
f 548 506 536
f 563 588 572
f 563 557 588
f 572 522 563
f 522 557 563
f 445 427 381
f 381 422 445
f 445 422 460
f 460 473 445
f 445 473 427
f 505 460 493
f 505 515 460
f 505 493 540
f 540 515 505
f 631 640 622
f 622 640 604
f 344 396 394
f 396 451 394
f 451 392 394
f 192 394 392
f 173 177 165
f 177 168 165
f 174 180 329
f 174 168 180
f 464 399 401
f 403 471 401
f 401 471 464
f 396 160 170
f 170 401 399
f 160 174 170
f 403 401 170
f 495 516 482
f 432 442 482
f 482 442 495
f 458 432 482
f 482 512 458
f 527 512 482
f 482 516 527
f 485 480 409
f 509 520 547
f 509 489 520
f 495 442 478
f 478 442 451
f 478 509 495
f 451 489 478
f 489 509 478
f 342 348 298
f 302 304 334
f 285 304 302
f 302 271 285
f 302 334 342
f 342 298 302
f 435 373 378
f 415 373 435
f 457 415 435
f 435 486 457
f 435 436 486
f 87 69 71
f 76 89 71
f 71 89 87
f 71 46 76
f 50 39 46
f 46 71 50
f 50 71 69
f 35 39 50
f 50 11 7
f 7 35 50
f 310 266 314
f 310 306 266
f 277 304 281
f 281 262 277
f 281 304 285
f 285 262 281
f 486 447 455
f 465 513 455
f 513 486 455
f 455 439 465
f 378 384 424
f 424 447 436
f 424 455 447
f 424 435 378
f 436 435 424
f 424 384 439
f 439 455 424
f 136 140 150
f 150 148 136
f 146 155 153
f 146 148 155
f 146 136 148
f 153 171 146
f 161 237 175
f 175 237 222
f 157 161 175
f 352 357 312
f 370 357 352
f 352 347 370
f 352 312 307
f 307 347 352
f 484 453 514
f 540 493 484
f 484 514 540
f 385 422 370
f 24 37 31
f 24 21 22
f 24 22 34
f 34 37 24
f 43 42 32
f 32 42 41
f 32 41 55
f 55 46 32
f 30 27 21
f 30 24 31
f 21 24 30
f 30 31 43
f 43 32 30
f 30 32 27
f 75 96 84
f 75 70 96
f 84 81 75
f 75 81 74
f 74 64 75
f 75 64 60
f 60 70 75
f 265 267 230
f 265 228 261
f 265 230 228
f 288 258 293
f 288 257 258
f 317 314 288
f 314 257 288
f 294 320 316
f 316 296 294
f 289 320 294
f 294 256 289
f 261 256 294
f 294 296 261
f 316 320 354
f 377 423 354
f 320 318 354
f 354 369 377
f 354 318 369
f 313 293 295
f 313 325 293
f 363 354 423
f 456 421 363
f 363 423 456
f 363 321 316
f 316 354 363
f 372 421 376
f 372 367 317
f 376 367 372
f 315 357 362
f 362 318 315
f 369 318 362
f 362 357 381
f 381 427 362
f 427 369 362
f 661 627 608
f 608 627 596
f 625 661 608
f 608 582 625
f 608 596 571
f 571 582 608
f 719 735 700
f 700 684 719
f 719 744 759
f 759 735 719
f 684 723 719
f 719 723 744
f 700 735 713
f 721 686 713
f 713 750 721
f 713 735 750
f 674 700 713
f 713 686 674
f 721 750 755
f 755 728 721
f 755 750 779
f 751 728 755
f 755 779 786
f 786 751 755
f 707 728 751
f 707 727 703
f 751 727 707
f 707 662 672
f 703 671 707
f 671 662 707
f 790 769 794
f 790 813 783
f 740 769 790
f 690 715 659
f 715 682 659
f 659 627 690
f 659 682 631
f 631 618 659
f 618 627 659
f 761 706 740
f 761 723 706
f 783 723 761
f 761 790 783
f 740 790 761
f 585 620 600
f 579 568 600
f 568 585 600
f 600 620 658
f 600 626 579
f 658 626 600
f 633 605 612
f 612 611 633
f 561 538 545
f 545 538 498
f 529 561 510
f 529 538 561
f 529 459 472
f 529 510 459
f 472 498 529
f 498 538 529
f 260 253 250
f 255 260 250
f 250 253 151
f 151 140 250
f 130 125 255
f 255 131 130
f 130 131 125
f 239 131 255
f 140 131 239
f 255 250 239
f 239 250 140
f 576 548 536
f 575 548 576
f 536 609 576
f 609 619 576
f 576 619 575
f 586 622 604
f 586 570 551
f 604 570 586
f 160 192 149
f 149 192 152
f 149 147 160
f 149 152 139
f 149 139 135
f 135 147 149
f 390 192 392
f 390 442 386
f 390 392 451
f 451 442 390
f 195 192 160
f 195 396 344
f 195 160 396
f 344 394 195
f 394 192 195
f 164 178 173
f 173 165 164
f 159 178 164
f 176 174 329
f 176 405 403
f 403 170 176
f 176 170 174
f 396 170 397
f 397 170 399
f 464 396 397
f 397 399 464
f 480 405 406
f 406 176 329
f 405 176 406
f 417 491 414
f 491 485 414
f 414 324 417
f 305 303 335
f 303 355 335
f 331 303 187
f 187 355 331
f 331 355 303
f 189 192 386
f 189 355 187
f 187 152 189
f 152 192 189
f 383 386 432
f 495 509 525
f 551 516 525
f 525 516 495
f 525 509 547
f 650 638 642
f 642 654 650
f 638 575 642
f 575 619 642
f 260 271 290
f 290 298 348
f 271 302 290
f 290 302 298
f 348 253 290
f 290 253 260
f 65 69 67
f 65 50 69
f 65 67 11
f 11 50 65
f 314 361 356
f 356 310 314
f 356 361 380
f 380 368 356
f 100 125 123
f 125 140 123
f 140 136 123
f 169 222 213
f 169 175 222
f 213 209 169
f 207 166 169
f 169 209 207
f 169 166 157
f 157 175 169
f 422 385 441
f 453 484 441
f 425 453 441
f 441 385 425
f 441 484 493
f 493 460 441
f 460 422 441
f 370 347 379
f 379 385 370
f 425 385 379
f 379 428 425
f 379 374 428
f 46 23 25
f 25 32 46
f 23 27 25
f 27 32 25
f 274 296 321
f 267 265 274
f 261 296 274
f 274 265 261
f 321 313 274
f 295 267 274
f 274 313 295
f 293 325 319
f 319 288 293
f 317 288 319
f 319 372 317
f 325 372 319
f 345 363 421
f 421 372 345
f 345 372 325
f 321 363 345
f 345 313 321
f 325 313 345
f 704 696 728
f 728 707 704
f 704 707 672
f 672 668 704
f 668 696 704
f 823 790 794
f 802 839 823
f 823 794 802
f 823 839 846
f 846 813 823
f 813 790 823
f 556 572 587
f 587 612 605
f 622 586 602
f 602 580 618
f 602 618 631
f 631 622 602
f 547 580 569
f 569 525 547
f 580 602 569
f 569 602 586
f 569 586 551
f 551 525 569
f 386 192 349
f 349 390 386
f 192 390 349
f 160 147 156
f 147 154 156
f 156 174 160
f 168 174 156
f 156 165 168
f 156 154 165
f 142 154 145
f 145 154 147
f 132 142 145
f 135 132 145
f 145 147 135
f 159 164 158
f 158 144 159
f 158 164 165
f 165 154 158
f 158 142 144
f 158 154 142
f 408 409 480
f 480 406 408
f 329 409 408
f 408 406 329
f 485 409 412
f 412 414 485
f 324 414 412
f 329 324 412
f 412 409 329
f 305 335 340
f 340 335 374
f 340 347 305
f 340 379 347
f 374 379 340
f 360 189 386
f 355 189 360
f 360 335 355
f 413 383 432
f 413 432 458
f 648 654 643
f 654 642 643
f 643 642 619
f 643 619 609
f 609 635 643
f 643 635 648
f 350 356 368
f 310 356 350
f 368 346 350
f 350 346 306
f 306 310 350
f 77 97 116
f 116 110 77
f 116 134 110
f 611 612 593
f 612 587 593
f 593 588 613
f 613 611 593
f 572 588 593
f 593 587 572
f 605 561 577
f 577 587 605
f 561 545 577
f 556 587 577
f 386 383 375
f 375 360 386
f 458 428 416
f 416 413 458
f 428 374 416
f 374 413 416
f 120 116 97
f 97 100 120
f 100 123 120
f 556 577 554
f 554 577 545
f 554 545 498
f 554 522 556
f 554 498 522
f 383 413 365
f 365 375 383
f 365 413 374
f 374 335 365
f 335 360 365
f 360 375 365
f 133 123 136
f 133 120 123
f 136 146 133
f 116 120 133
f 134 116 133
f 134 133 141
f 141 133 146
f 141 171 134
f 141 146 171
