v -0.009274312295 0.0002319305495 0.009911305271
v -0.009273687378 -2.210684215e-06 0.006374241319
v -0.009271416813 -2.210482762e-06 -0.007488688454
v -0.009262031876 0.0005330750137 0.009911300614
v -0.009259299375 0.0004979036166 -0.007488687523
v -0.009257265367 -0.000537030166 -0.007488684729
v -0.00924448669 -0.0007837564335 0.009911300614
v -0.009231344797 0.0009065750637 -0.007488683797
v -0.009222564287 0.0009923201287 0.0063321013
v -0.009222031571 -0.0009967141086 0.006332105026
v -0.00915378239 0.001530710259 0.009911310859
v -0.009151229635 -0.001570773311 -0.00748868566
v -0.00910708867 -0.001798336161 0.009911308065
v -0.009086732753 0.001948508434 -0.007488682866
v -0.00907297805 0.001974806655 0.006221305113
v -0.009071913548 -0.001979120774 0.00622131303
v -0.008944390342 0.002520468319 0.009911312722
v -0.008942225017 0.002594925929 -0.007488713134
v -0.008940830827 -0.002599168802 -0.007488722913
v -0.008899915032 -0.002756531816 -0.00747500034
v -0.008864680305 -0.0028051876 0.009911312722
v -0.008860799484 -0.002896160586 -0.007461583707
v -0.008831386454 0.002933177399 0.006065273192
v -0.008829808794 -0.002937361132 0.006065273192
v -0.008659383282 0.003522775602 -0.007389685139
v -0.008634132333 0.003497961909 0.009911314584
v -0.008632252924 -0.003502037376 0.009911302477
v -0.008591447026 -0.00370603893 -0.007365551312
v -0.008553603664 0.003805487417 -0.007350796834
v -0.008550000377 6.747720438e-11 0.02723120898
v -0.008504257537 0.003855359042 0.005887426436
v -0.008502184413 -0.003859367222 0.005887422711
v -0.008463301696 0.003926419187 0.009934314527
v -0.008436055854 -2.105306901e-10 0.02853355743
v -0.008422298357 0.001378121553 0.02723120339
v -0.008422297426 -0.001378121669 0.02723120339
v -0.008373912424 -0.004129419103 0.009960826486
v -0.008310295641 0.001357183908 0.02853355743
v -0.008310293779 -0.001357184374 0.02853355743
v -0.008298657835 0.004400125239 -0.007253061514
v -0.0082944436 -0.001941142953 0.02723120525
v -0.0082944436 0.001941142371 0.02723120712
v -0.008250000887 -3.24036796e-06 -0.007234239019
v -0.008201179095 -0.004601249471 -0.007215182297
v -0.008181334473 0.004532669671 0.01004742552
v -0.008147934452 -0.0047069313 -0.007193621714
v -0.008098055609 0.00472928118 0.005711201578
v -0.008097691461 3.778254792e-11 0.02979634888
v -0.008095512167 -0.0047330698 0.005711213686
v -0.008075390011 0.004735734779 0.01010758244
v -0.008074834943 -0.004735804163 0.0101063773
v -0.008027642965 -0.002750000218 0.02723120525
v -0.008027642965 0.002750000218 0.02723120712
v -0.007992417552 -0.004886032082 0.01015842613
v -0.007977691479 -0.001295009977 0.02979634516
v -0.007977689616 0.001295009861 0.02979635634
v -0.007970757782 0.002749999985 0.02812036313
v -0.007937292568 -0.002668151166 0.02853355557
v -0.007937290706 0.002668151399 0.02853356861
v -0.007866582833 0.005218608305 -0.00707430765
v -0.007863395847 0.005109990947 0.01025042869
v -0.007842672989 -0.003179558786 0.0271805767
v -0.007801031694 -0.002749999752 0.028995011
v -0.00769717386 -0.005492302123 -0.007000990212
v -0.007691690233 -0.005500841886 -0.006998523604
v -0.007637969684 -0.005467454437 0.01042762399
v -0.007621776778 0.002545919968 0.02979634888
v -0.007621776313 -0.002545919735 0.02979634516
v -0.007619243581 0.005542868748 0.00556003442
v -0.007616263814 -0.005546400789 0.005560038611
v -0.007585325278 0.005546903703 0.01047576312
v -0.007545189932 0.003750000149 0.02764324285
v -0.007545189466 -0.003749999916 0.02764324658
v -0.007545186672 -1.605451327e-10 0.03098119982
v -0.007537571713 -0.002749999985 0.02980002575
v -0.007521231659 0.002749999985 0.02984091453
v -0.007434593979 -0.001193487435 0.03098119795
v -0.007434592117 0.001193486853 0.03098120354
v -0.007393592969 0.0059362147 -0.006859377492
v -0.007369994652 0.005850207061 0.0106757991
v -0.007366750855 -0.005853739101 0.01067589782
v -0.007325938437 0.004106409382 0.02786185779
v -0.007321976125 -0.00411245646 0.02786523476
v -0.007222936023 -0.006041285582 0.01082095318
v -0.007207824849 0.006061137188 0.01084014121
v -0.007179400884 -0.006215435453 -0.006756959949
v -0.007135921158 -0.002749999985 0.03064425662
v -0.007106580772 0.002346331719 0.03098119795
v -0.007106579375 -0.002346331952 0.03098120354
v -0.007074289955 0.006284052506 0.005457331892
v -0.007070910651 -0.006287290715 0.005457335152
v -0.006969053298 0.004605954047 0.02810511366
v -0.006968381349 -0.004606816918 0.02810547687
v -0.006869512144 0.006581510417 -0.006597149186
v -0.006816396955 0.006516110152 0.01128571853
v -0.00681289658 -0.006519207731 0.01128571387
v -0.006795329507 -2.069880239e-10 0.03205209598
v -0.006770298816 0.006466806401 0.01914622448
v -0.006766824517 -0.006469880231 0.01914622448
v -0.006759581156 0.006477622315 0.01914623007
v -0.006759575102 0.006455073133 0.02060534433
v -0.006759565789 0.006420474499 0.0224653203
v -0.006756114308 -0.006423543673 0.02246532403
v -0.00675610546 -0.006458140444 0.0206054654
v -0.006756098941 -0.006480691489 0.01914622821
v -0.00669750385 -0.001055701287 0.03205210716
v -0.006697502919 0.001055701636 0.03205210716
v -0.006651381962 0.002749999519 0.03139196709
v -0.006618428044 0.00684667239 -0.006462243851
v -0.00661474932 -0.006849666126 -0.006462252699
v -0.006602630485 0.006860141177 -0.003897013143
v -0.006562189665 0.005085840356 0.02826777101
v -0.006561868824 -0.005086187273 0.02826786786
v -0.006529080216 -0.00688541308 0.005070620682
v -0.006519420538 0.006645856891 0.02259144373
v -0.006515846122 -0.006648797542 0.02259145491
v -0.006515665445 0.00670150388 0.01982454583
v -0.00651206309 -0.006704441737 0.01982455142
v -0.006508269347 0.006879841443 0.007588297129
v -0.006491233595 0.006766092032 0.0171008613
v -0.006487596314 -0.006769017316 0.0171008762
v -0.00647296384 0.006835720502 0.01343626995
v -0.006470235996 -0.006825641729 0.01428238954
v -0.006407360546 -0.002075452125 0.03205209598
v -0.006407359615 0.002075451892 0.03205210343
v -0.006353301927 0.005303300451 0.02831383608
v -0.006353300996 -0.005303300917 0.0283138454
v -0.006343731191 -0.007109375671 -0.006310078781
v -0.006210241932 0.006908045616 0.02275785431
v -0.006082223728 0.002750000218 0.0320648402
v -0.006075513549 -0.002749999752 0.03207182139
v -0.006012266502 0.007394470274 -0.006111661904
v -0.005873435643 0.007493583485 0.0005641621538
v -0.005870902445 4.591221153e-11 0.03297652304
v -0.005839539692 -0.007184994407 0.02296140417
v -0.005814102944 0.007474779617 0.007750591729
v -0.005810121074 -0.007477363572 0.007746872026
v -0.005788818467 -0.0008858387009 0.03297652677
v -0.00578881707 0.0008858381771 0.03297653049
v -0.005778811406 0.007378033828 0.01525669731
v -0.005774819292 -0.007380707655 0.01525034942
v -0.005736797582 -0.00760660693 -0.005942675285
v -0.005702945869 -0.005882185418 0.02831399627
v -0.005687557161 0.005894324277 0.02831140161
v -0.005554401781 0.007373622619 0.02312667482
v -0.005545357708 0.001741510583 0.03297652304
v -0.005545356777 -0.001741511282 0.03297653049
v -0.005417706445 0.002749999752 0.03267275915
v -0.005367821548 0.007862518542 -0.00569746457
v -0.005298599135 -0.006180566736 0.02820292301
v -0.005292690359 0.006184624508 0.02820059098
v -0.005148814525 -0.002537878463 0.03297651932
v -0.00514881406 0.002537877765 0.03297652304
v -0.005140788388 0.007613302208 0.02337118238
v -0.005133152939 -0.007617392577 0.02337331325
v -0.005115381442 0.008012232371 0.0006745400606
v -0.005111086182 -0.00801442191 0.0006726483698
v -0.005097825546 -0.008030116558 -0.005513469223
v -0.005065361504 0.007966653444 0.007912641391
v -0.005061113276 -0.007968851365 0.0079089012
v -0.005030138418 0.007841091603 0.01547976583
v -0.005025898106 -0.007843377069 0.01547337137
v -0.004904079717 0.006433978211 0.02799510397
v -0.00490407832 -0.006433977745 0.02799511142
v -0.004892430734 -0.008148262277 -0.005365781486
v -0.004799998831 0.006495190319 0.02792443335
v -0.004799996037 7.817421016e-11 0.03372637555
v -0.004799030721 -0.006495750509 0.02792376839
v -0.004736145958 -0.000689060369 0.03372637928
v -0.004736145958 0.0006890601362 0.03372638673
v -0.004688684829 -0.002749999985 0.03318496421
v -0.004675506614 -0.008264636621 -0.005204458255
v -0.00465960335 0.008273190819 -0.00518903276
v -0.004546768032 -0.001354654902 0.033726383
v -0.004546767101 0.00135465432 0.03372637928
v -0.004422059748 0.007948261686 0.0238204319
v -0.004385338631 -0.00796302408 0.02384149283
v -0.004302242305 0.008437198587 0.0008777274634
v -0.004297711886 -0.008438955061 0.0008758368203
v -0.00426403759 0.008361648768 0.008147002198
v -0.004259572364 -0.008363435976 0.008143251762
v -0.004238311667 -0.001974118641 0.03372637555
v -0.004238311201 0.001974118408 0.03372637928
v -0.004232654348 0.008205642924 0.01576650143
v -0.004228215199 -0.008207511157 0.01576006971
v -0.00419376418 -0.008494919166 -0.004825586453
v -0.004176729359 -0.002749999985 0.03346905857
v -0.003904261161 0.008616604842 -0.004579465836
v -0.003900337033 0.002749999752 0.03360009938
v -0.003821281251 0.00252635614 0.03372637928
v -0.003821280086 -0.002526356373 0.03372639045
v -0.003708412172 -0.008196390234 0.02429827303
v -0.003680952126 0.008204350248 0.02432065643
v -0.003615148831 -1.685355605e-10 0.0342788808
v -0.003571472596 0.0004713443632 0.03427888826
v -0.003571471898 -0.0004713450326 0.03427889198
v -0.003522520419 -0.002749999985 0.03375608474
v -0.003512676572 0.002749999519 0.03375979885
v -0.003492627991 -0.008769026026 -0.004218743183
v -0.003441930516 -0.0009266384295 0.03427888453
v -0.003441929352 0.0009266386041 0.03427888826
v -0.003439350752 0.008772742935 0.001157677383
v -0.003434638027 -0.00877404213 0.001155782375
v -0.003412945429 0.008666144684 0.00844171457
v -0.003408316057 -0.008667493239 0.0084379334
v -0.003230933333 -0.001350376639 0.03427888453
v -0.0032309331 0.001350376522 0.03427888453
v -0.003229255788 0.002750000218 0.03385978565
v -0.003148923395 0.008880412206 -0.003889560467
v -0.003143605078 -0.002749999752 0.03388733789
v -0.00306551531 -0.002749999985 0.03391139209
v -0.003000125522 0.008924148977 -0.003742720466
v -0.002995613497 -0.008925116621 -0.003743005684
v -0.00294566853 -0.00172812934 0.0342788808
v -0.0029456669 0.001728129457 0.03427888826
v -0.002924808767 0.008389947936 0.02487763017
v -0.002920298139 -0.008390955627 0.02487763017
v -0.002873878693 -0.008400184102 0.02491239831
v -0.002798314672 -0.00897913333 -0.003542135004
v -0.002595847938 -0.002047032584 0.03427888826
v -0.002595847705 0.002047032351 0.0342788808
v -0.002532425337 0.008462620899 0.02511402965
v -0.002532047685 0.009023131803 0.001498298487
v -0.002527198987 -0.009023948573 0.001496392768
v -0.002514905296 0.008886516094 0.008784790523
v -0.002510152524 -0.008887401782 0.008781001903
v -0.002476107562 -0.00847204309 0.0251367595
v -0.002459444804 0.002750000451 0.03406500071
v -0.002450506901 -0.009064055979 -0.003169192001
v -0.00240994012 0.009073481895 -0.003118529916
v -0.002352359938 -1.348460232e-10 0.03461724892
v -0.002330184914 -0.000239308094 0.0346172452
v -0.002330184914 0.0002393079048 0.0346172452
v -0.002282628324 0.008502421901 0.02520850487
v -0.002277250402 -0.008503205143 0.02520875074
v -0.002264413983 -0.0004704666499 0.0346172452
v -0.00226441375 0.0004704667372 0.03461725637
v -0.002239541151 0.00910978578 -0.002924263012
v -0.002197829308 0.002749999519 0.03411377594
v -0.002197829075 -0.002750000218 0.03411377594
v -0.002193385735 -0.002296226798 0.0342788808
v -0.002193385502 0.00229622703 0.03427888826
v -0.002157289768 -0.0006856040563 0.0346172452
v -0.002157287905 0.0006856041146 0.03461725265
v -0.002012457 0.0008773944573 0.03461724147
v -0.002012455603 -0.0008773942827 0.03461725265
v -0.001905349316 0.008553512394 0.02528434992
v -0.001900751027 -0.008553971536 0.02528436109
v -0.001834847732 0.001039305236 0.03461724892
v -0.001834847499 -0.001039305818 0.03461725265
v -0.001833971124 0.008562013507 0.02529032528
v -0.001828676439 -0.008562516421 0.02529036626
v -0.001751987031 -0.002467225306 0.0342788808
v -0.001751986681 0.002467225073 0.0342788808
v -0.001751541276 -0.00919749029 -0.002331844997
v -0.001630512415 0.001165824709 0.03461724892
v -0.001630511601 -0.001165824826 0.0346172452
v -0.001614745357 -0.008585765027 0.02529293485
v -0.001604650635 0.008586952463 0.02529226616
v -0.001585670747 0.009192625061 0.001883529243
v -0.001580729848 -0.009192937985 0.001881621196
v -0.001572735724 0.009029142559 0.009164256044
v -0.001567903324 -0.009029536508 0.009160451591
v -0.001567735686 0.009225172922 -0.002080688952
v -0.001557798707 -0.00922614336 -0.002073896583
v -0.001406408614 -0.001252643415 0.0346172452
v -0.0014064071 0.001252643298 0.03461725637
v -0.001311430824 0.002749999519 0.03420393541
v -0.001311430591 -0.002750000218 0.03420393541
v -0.001286682906 -0.002554206178 0.03427888453
v -0.001286681858 0.002554205479 0.03427889198
v -0.001170166885 -0.001296804403 0.03461724892
v -0.001170166768 0.001296804287 0.0346172452
v -0.001164718997 -0.008625014685 0.02522262745
v -0.001157536753 0.008625822142 0.02521931566
v -0.001120825415 -0.009278029203 -0.001436830615
v -0.001087054843 0.008630864322 0.02519787662
v -0.001082415693 -0.008630885743 0.02519788034
v -0.00104999973 8.361685649e-11 0.03473119065
v -0.0009732230683 0.009292082861 -0.001191941672
v -0.0009600479389 -0.008638927713 0.02515357919
v -0.0009465611074 0.008640107699 0.02514623106
v -0.0009298330406 -0.00129680417 0.03461725265
v -0.0009298329242 0.001296804519 0.03461724892
v -0.0008133192896 0.00255420641 0.0342788808
v -0.0008133171359 -0.002554205712 0.03427888826
v -0.0006935927668 -0.001252643066 0.0346172452
v -0.000693591137 0.001252642716 0.03461725265
v -0.0005591198569 -0.008660033345 0.02493779361
v -0.0005441779504 0.008661150932 0.02492403612
v -0.0005355283502 0.009348236956 -0.0004012416175
v -0.0005305037485 -0.009347961284 -0.0004012509016
v -0.0004694881791 0.001165824477 0.03461725265
v -0.0004694873933 -0.001165825059 0.03461724892
v -0.0004207690654 0.002750000218 0.03418040276
v -0.0004207688908 -0.002749999985 0.03418039903
v -0.0003845919855 -0.008667070419 0.0248022452
v -0.0003826472675 0.008667673916 0.02479649149
v -0.0003480136511 -0.002467225771 0.03427888453
v -0.0003480133018 0.002467225073 0.03427888453
v -0.0003220815561 0.009343774058 4.798781811e-05
v -0.0002651522809 0.001039305585 0.03461724892
v -0.0002651520481 -0.001039305469 0.03461724892
v -9.724084521e-05 -0.009337348863 0.0005756448954
v -8.754409646e-05 0.0008773944573 0.0346172452
v -8.754400187e-05 -0.0008773943409 0.03461724147
v -7.684783486e-05 0.008678133599 0.02445994131
v -7.667039608e-05 -0.008677465841 0.02446619794
v 4.435287701e-05 0.008682230487 0.02426815033
v 5.728815086e-05 -0.0006856044056 0.0346172452
v 5.728988253e-05 0.0006856037653 0.03461725265
v 6.487192877e-05 0.009332024492 0.001039868919
v 6.888771895e-05 -0.008682354353 0.02423143946
v 9.338505333e-05 -0.002296226798 0.03427887708
v 9.338540258e-05 0.002296226565 0.03427888453
v 0.0001228077308 0.008685253561 0.02411077917
v 0.0001274741953 -0.008684622124 0.0241107773
v 0.0001644139993 -0.0004704665625 0.0346172452
v 0.0001644159347 0.0004704663588 0.03461725265
v 0.000198831287 0.009345298633 -0.0003685315605
v 0.0002038554812 -0.009344627149 -0.0003685256816
v 0.0002301850909 -0.0002393082104 0.03461725637
v 0.0002301851782 0.000239307803 0.03461725265
v 0.0002310944546 0.008690972812 0.02380497009
v 0.0002357666235 -0.008690284565 0.02380496822
v 0.0002362633095 -0.009323723614 0.001584827551
v 0.0002523602161 -1.638276181e-10 0.03461724892
v 0.0002751044813 0.009344589897 -0.0003096284054
v 0.0002780329378 -0.009343887679 -0.00031005239
v 0.0003518393787 0.009343874641 -0.0002511545317
v 0.000353151263 0.009316947311 0.002068848116
v 0.0003575014998 -0.00934312772 -0.0002521168208
v 0.0003581585479 -0.00931619294 0.002068842063
v 0.0003589859698 -0.009305865504 0.002701197518
v 0.0003828418266 0.009107746184 0.009964411147
v 0.0003877162235 -0.009107111022 0.009960598312
v 0.0004596349027 0.002750000218 0.03404357284
v 0.0004596351064 -0.002749999985 0.03404357284
v 0.0004958473146 -0.002047032816 0.03427888453
v 0.0004958474892 0.002047032118 0.03427887708
v 0.0007035273593 -0.007292128634 -0.00368341268
v 0.0007403223426 0.007283182815 -0.003676195862
v 0.0007873526192 -0.009315313771 -0.0003213445307
v 0.0008456665091 -0.00172812934 0.03427887708
v 0.0008456681389 0.001728129108 0.03427888453
v 0.0008769906126 -0.009329028428 5.785312896e-05
v 0.0008797309129 0.008716172539 0.0219008103
v 0.001038031187 0.009301258251 -0.0002128852066
v 0.001042205957 -0.009299932979 -0.0002113217197
v 0.001059588045 -0.008710205555 0.02174429037
v 0.001066432917 0.008710936643 0.02173520997
v 0.001099871122 0.009280637838 -0.0002952254727
v 0.001124493429 0.002749999752 0.03386135772
v 0.001124493661 -0.002749999985 0.03386135772
v 0.001130932826 -0.001350376871 0.0342788808
v 0.001130933058 0.001350376406 0.0342788808
v 0.001234441414 -0.008703015745 0.02162027732
v 0.001242948929 0.00870361831 0.02161202207
v 0.001265942003 0.009229693562 0.00496148644
v 0.001270901994 -0.009228448384 0.0049614897
v 0.001291613444 0.009305388667 0.0002666084329
v 0.001309194136 0.009036137722 0.01114088949
v 0.001314051333 -0.009034870192 0.01114089694
v 0.001341930125 0.0009266386041 0.0342788808
v 0.001341930358 -0.0009266384295 0.03427889198
v 0.001387424418 -0.002749999752 0.03376926482
v 0.001387426164 0.002750000451 0.03376926482
v 0.001400124282 -0.007088504266 -0.003478815546
v 0.001413556864 0.007083847187 -0.003473380115
v 0.001471472322 -0.0004713446833 0.03427887708
v 0.001471472904 0.0004713452072 0.03427888826
v 0.00151514844 -1.30900471e-10 0.03427888453
v 0.001584022655 -0.009197134525 -0.0002589909709
v 0.001625185017 0.009276683442 0.0004193440836
v 0.001645516139 -0.008677663282 0.02142222784
v 0.001655538101 0.008677995764 0.02141718939
v 0.00172128086 0.00252635614 0.03372637928
v 0.001721281908 -0.002526355907 0.03372639045
v 0.001732288045 -0.009264905937 0.0004639582767
v 0.001811394584 0.009220205247 5.518616672e-05
v 0.001816842239 -0.009218396619 5.619401054e-05
v 0.001850201166 -0.008660663851 0.02136308141
v 0.001860350487 0.008660884574 0.0213597063
v 0.001876376104 -0.006905528251 -0.003246804234
v 0.001902287942 0.006894490216 -0.003231685841
v 0.001972696278 0.009108839557 -0.0002282791247
v 0.00200637849 -0.002749999985 0.03350383043
v 0.00200637849 0.002750000451 0.03350383043
v 0.002132642781 0.002749999985 0.03344071284
v 0.002132644178 -0.002749999752 0.03344072774
v 0.002138311975 -0.001974118641 0.03372638673
v 0.00213831244 0.001974118873 0.03372639045
v 0.00229768618 0.008614332415 0.02131130174
v 0.002302315785 -0.0086125331 0.02131130733
v 0.002446766943 0.001354654552 0.03372638673
v 0.002446767641 -0.001354655134 0.03372638673
v 0.002488534898 0.008959098719 -0.0001887206017
v 0.002493380103 -0.008957246318 -0.0001888274419
v 0.002604949987 0.009086222388 0.0002911695046
v 0.002611260163 -0.00908415392 0.0002908826573
v 0.002636144636 -0.0006890599616 0.03372637928
v 0.002636146732 0.0006890600198 0.03372638673
v 0.002699995646 8.658272016e-11 0.03372637555
v 0.002759588882 0.009114033543 0.0008717910387
v 0.003018070245 0.008802789263 -8.496383816e-05
v 0.003022887744 -0.008800727315 -8.51793593e-05
v 0.003048812505 0.00253787823 0.03297651932
v 0.003048813902 -0.002537877997 0.03297653049
v 0.00314206793 0.009015816264 0.002587553812
v 0.003190960735 0.00895443745 0.005713791586
v 0.003195773577 -0.008952159435 0.005713792518
v 0.003219075035 0.009016352706 0.001031144289
v 0.003223919543 -0.009014057927 0.001031139051
v 0.003285170998 0.008770099841 0.01188876573
v 0.003289884655 -0.008767769672 0.01188877132
v 0.003301863093 0.008621803485 -0.0001886863756
v 0.003306495259 -0.008619465865 -0.0001886962564
v 0.003406400559 0.00889261812 0.0005001192912
v 0.003411179641 -0.008890222758 0.0005001265672
v 0.003445358481 0.001741511398 0.03297652304
v 0.003445358947 -0.001741510816 0.03297653049
v 0.003472262528 0.008424855769 0.02131131105
v 0.003476789221 -0.008422425948 0.02131130733
v 0.003541108454 0.008618214168 1.131311183e-05
v 0.003545739222 -0.008615747094 1.130356486e-05
v 0.003598932177 -0.002750000218 0.03243455291
v 0.003598932642 0.002749999985 0.03243454173
v 0.003688818077 0.0008858384099 0.03297653049
v 0.003688818542 -0.0008858384681 0.03297652677
v 0.00377090415 1.161381963e-10 0.03297653422
v 0.003776608268 0.008264943957 -0.0003406216274
v 0.003781276988 -0.008262225427 -0.0003406300966
v 0.0041404902 0.008703707717 0.006069118157
v 0.004145166837 -0.008700918406 0.006069114432
v 0.004165521357 0.008160310797 -0.000188691105
v 0.004169905093 -0.008157508448 -0.0001886988321
v 0.00421762513 0.008246808313 1.13045362e-05
v 0.004222056363 -0.008243978955 1.130288092e-05
v 0.004268266726 0.00853106007 0.01223678887
v 0.004272850696 -0.008528202772 0.01223678794
v 0.004297788255 0.008229643106 0.02131129988
v 0.004302211571 -0.008226769045 0.02131129988
v 0.004576126579 0.008601468988 0.001486602123
v 0.004585477058 -0.008597074077 0.001487048226
v 0.004743938334 0.008452346548 0.0009570592665
v 0.004749760963 0.008095332421 0.02136304229
v 0.004751965404 -0.008448329754 0.0009576741722
v 0.004754111171 -0.008092214353 0.02136304043
v 0.004839160945 0.008162160404 0.000469583174
v 0.004845831078 -0.008158626966 0.0004703476443
v 0.004972481169 0.008424175903 0.003311793553
v 0.004977007862 -0.008420939557 0.003311788896
v 0.004977243021 0.007612597197 -0.0001886866376
v 0.004981331993 -0.007609358057 -0.0001886983955
v 0.004985630512 0.008015586063 0.02143329009
v 0.004989937879 -0.008012343198 0.02143328264
v 0.005065320991 0.008367819712 0.006404494867
v 0.005069167353 0.007411924191 -0.0003406312317
v 0.005069817882 -0.008364533074 0.006404495798
v 0.00507335458 -0.007408475503 -0.0003406256146
v 0.005184619222 0.008021594957 0.01923903078
v 0.005188928917 -0.008018244058 0.01923902333
v 0.00523079047 0.008210134692 0.01255812775
v 0.005235202145 -0.008206759579 0.01255813055
v 0.005394730717 0.007859538309 0.0216389019
v 0.005398953799 -0.007856074721 0.02163889445
v 0.00558322994 0.007779098582 0.02177900448
v 0.005587410182 -0.007775533013 0.02177900635
v 0.005728448741 0.006984448526 -0.0001887000108
v 0.005732202437 -0.006980806123 -0.0001886929094
v 0.00589302415 0.007632762194 0.02210477367
v 0.005897126161 -0.007629031315 0.02210477367
v 0.005926120561 0.007943077944 0.001909912564
v 0.005930650979 -0.007939959876 0.001910203137
v 0.005953426007 0.007939456031 0.006715409923
v 0.005957693327 -0.007935691625 0.006715409458
v 0.006038547494 0.007787458133 0.001384078292
v 0.006040084641 0.007555548102 0.02232894674
v 0.006043151487 -0.007784088142 0.001384355943
v 0.006044144277 -0.00755173713 0.02232893929
v 0.006062276196 0.007510316093 0.0008982802974
v 0.006066762842 -0.007506619673 0.0008985833847
v 0.006108619273 0.007628785912 0.01952900738
v 0.006112718955 -0.007624938618 0.01952900738
v 0.006149398629 -0.007491943426 0.0225450322
v 0.006150747649 0.007492622826 0.02255812846
v 0.006159759592 0.007798918057 0.01284572389
v 0.006161276251 -0.00744440034 0.0009299701196
v 0.006163951475 -0.00779504329 0.01284573786
v 0.006204557605 0.006358718965 -0.0003406273026
v 0.006208148785 -0.006354628131 -0.0003406315227
v 0.006211385131 0.007455317304 0.02272911742
v 0.006215389818 -0.007451414596 0.02272910625
v 0.006273707375 0.007412138395 0.02300047874
v 0.00627768971 -0.007408202626 0.02300047129
v 0.006297866348 0.007043867372 0.02737284638
v 0.006298016291 0.007386185229 0.02331130393
v 0.006298074964 0.00716786366 0.02702676132
v 0.006298076827 0.007220833562 0.02667704225
v 0.006298161112 0.006845110096 0.02764464729
v 0.006301573012 -0.007039948832 0.02737285383
v 0.006301807705 -0.006725543644 0.02774169296
v 0.006301817484 -0.006759576499 0.02771582827
v 0.00630187802 -0.006984368432 0.02747223899
v 0.006301925983 -0.007160449401 0.0270403754
v 0.006301941816 -0.007216898259 0.02667704038
v 0.006301984191 -0.007382235955 0.0233113002
v 0.006411205046 0.006282503717 -0.0001886951504
v 0.00641458109 -0.006278494373 -0.0001886913378
v 0.006609180011 0.00748406956 0.002098997589
v 0.006613507867 -0.007480352651 0.002098702826
v 0.006633204874 0.006429283414 0.02774447203
v 0.006636651699 -0.006425159052 0.02774446085
v 0.006665462628 -0.007012473885 0.02655117214
v 0.006745862775 0.006544564385 0.02755247429
v 0.006749370135 -0.006540378556 0.02755246684
v 0.006793122273 -0.006737106945 0.02721230127
v 0.006951099262 0.007354546804 0.009989160113
v 0.006955050863 -0.007350246888 0.009989159182
v 0.006986503955 0.007138626184 0.01977800578
v 0.006990340073 -0.00713430671 0.01977801137
v 0.007018296048 0.005514179356 -0.000188698672
v 0.007021259051 -0.005509843584 -0.000188691396
v 0.007026610896 0.006770027801 0.001194694429
v 0.007030474022 -0.006765924394 0.001194658922
v 0.007042195648 0.007289005443 0.01309255883
v 0.007046112325 -0.007284656167 0.01309256442
v 0.00704880245 0.0072163078 0.01635565236
v 0.00708488049 0.005971306469 0.0277105514
v 0.007088087965 -0.005966934375 0.02771054208
v 0.00715211127 0.005133772269 -0.0003406334436
v 0.007155010942 -0.00512914639 -0.0003406297474
v 0.007163737435 0.005892490968 0.02769481018
v 0.007166903 -0.005888076965 0.02769480832
v 0.007173819933 0.006632149685 0.001233566552
v 0.007179107517 -0.006627015769 0.001233713119
v 0.007199242245 0.006992859766 0.002242144663
v 0.007206339855 -0.006986841559 0.002242008224
v 0.00720949797 0.006659175735 0.02638652734
v 0.00721307518 -0.006654737052 0.02638652362
v 0.007237085141 0.006861136761 0.001719186432
v 0.007243275177 -0.006855479907 0.00171919656
v 0.007278874982 0.006373730022 0.02710126527
v 0.007282298524 -0.006369254086 0.02710125968
v 0.007320321631 0.005649044644 0.02771054208
v 0.007323357277 -0.005644546356 0.02771054953
v 0.007333071902 0.005657969043 0.02769481204
v 0.007336110808 -0.00565346377 0.02769480459
v 0.007542577107 0.006407244597 0.0262962617
v 0.007543308195 0.004687591922 -0.0001886877435
v 0.007545826025 -0.004682974424 -0.0001886860118
v 0.007723166142 0.003698982066 -0.0004562247777
v 0.007725255098 -0.003694033716 -0.0004562211107
v 0.007734418381 0.006025648676 0.001360351103
v 0.007738166023 -0.006021304522 0.001360396389
v 0.007758136373 0.00672736112 0.01020245533
v 0.007761749439 -0.006722627673 0.01020244416
v 0.007785493508 0.005347698927 0.02748864889
v 0.007788157556 -0.005342612974 0.02748943865
v 0.007805245463 0.006541798357 0.0199795533
v 0.007808759343 -0.006537039299 0.01997954585
v 0.007852320559 0.00480018137 0.02771053836
v 0.007854899392 -0.004795397166 0.02771054395
v 0.007865115069 0.006671991199 0.01329157129
v 0.007865910418 0.004807764664 0.02769481204
v 0.007868493907 -0.004802972544 0.02769481577
v 0.007868698798 -0.00666720001 0.0132915657
v 0.007873632945 0.00661005592 0.01655490138
v 0.007886237465 0.003770168871 -0.0003406236356
v 0.007888365537 -0.003765129019 -0.0003406273026
v 0.007963198237 0.006044302601 0.0261859633
v 0.007965338416 -0.006038779858 0.02618667111
v 0.007972595282 0.00577998627 0.02689555287
v 0.007975068875 -0.005774660036 0.02689635195
v 0.007980690338 0.003811476985 -0.0001886999962
v 0.007982738316 -0.003806624096 -0.0001886988612
v 0.00811697077 0.005525437649 0.001432442572
v 0.008120831102 -0.005520179868 0.001432669815
v 0.008214578032 0.002261222806 -0.0004562227405
v 0.008215853944 -0.002255997388 -0.0004562336835
v 0.008249293081 0.005691958591 0.001922624302
v 0.008253576234 -0.00568666961 0.001922775526
v 0.008267984726 0.005781750195 0.002448936924
v 0.008272620849 -0.005776443053 0.002449052408
v 0.008295354433 0.003901674878 0.02771054022
v 0.00829745084 -0.003896652954 0.02771054767
v 0.008325826377 0.002895090962 -0.0001886903337
v 0.008327381685 -0.002890052507 -0.000188685648
v 0.00834247563 0.00472587673 0.02731335722
v 0.008345223963 -0.004720722791 0.02731317282
v 0.008387105539 0.002304739784 -0.0003406270116
v 0.008388406597 -0.002299417043 -0.0003406275646
v 0.008463865146 0.0007623924757 -0.0004562198301
v 0.008464294486 -0.0007570265443 -0.0004562241666
v 0.008492539637 0.005987763871 0.01036859769
v 0.008495757356 -0.005982635077 0.01036860142
v 0.008551975712 0.00583151402 0.02012865618
v 0.008555109613 -0.005826354027 0.02012866177
v 0.008575066924 0.001948115765 -0.000188698119
v 0.008576112799 -0.001942943549 -0.0001886867976
v 0.008588882163 0.005106692202 0.02672044002
v 0.008591950871 -0.005101393443 0.02672029659
v 0.008615686558 0.00594190415 0.01343727205
v 0.008618878201 -0.005936709698 0.01343726553
v 0.008626416326 0.005890180822 0.01669885404
v 0.008628494106 0.005345193204 0.02601438574
v 0.00862958096 -0.005884979852 0.01669885218
v 0.008631764911 -0.005339810625 0.02601421066
v 0.008641189896 0.0007770639495 -0.0003406257601
v 0.008641627617 -0.0007715976681 -0.0003406316391
v 0.008644842543 0.002962819301 0.02771054208
v 0.008646433242 -0.002957609249 0.02771054022
v 0.008725779131 0.0009805575246 -0.0001886872633
v 0.008726303466 -0.0009753048653 -0.000188696984
v 0.008776368573 2.639904778e-06 -0.0001886975224
v 0.008829636499 0.004039118066 0.02716453001
v 0.00883243978 -0.004034487065 0.02716277726
v 0.008861904964 0.004261400551 0.001547808642
v 0.008864806034 -0.004255900159 0.001548009575
v 0.008897169493 0.001993322745 0.02771054767
v 0.008898239583 -0.001987977419 0.02771054022
v 0.008912410587 0.001996471547 0.02769481018
v 0.008913481608 -0.001991117839 0.02769481763
v 0.009028579108 0.004387993366 0.002048146911
v 0.009031892754 -0.004382348154 0.002048305003
v 0.009049725719 0.001003212063 0.02771054767
v 0.009050263092 -0.0009977850132 0.02771054953
v 0.00906735193 0.004454039037 0.002584997565
v 0.00907104928 -0.004448342603 0.002585103502
v 0.009100933559 2.727397714e-06 0.02771054208
v 0.00912266504 0.00436855061 0.02657169104
v 0.009126597084 -0.004364037421 0.02656998672
v 0.009143151343 0.005146192852 0.01049092598
v 0.009145914577 -0.005140714813 0.01049092598
v 0.009200106375 0.004579360131 0.02586790547
v 0.009205133654 -0.004575170577 0.02586631663
v 0.00921492558 0.005017966498 0.02023020573
v 0.009217623621 -0.005012449343 0.02023021877
v 0.009243478067 0.003298775991 0.02703686431
v 0.00924505759 -0.003294255584 0.02703644149
v 0.009282096289 0.005109109916 0.01353473403
v 0.009284840897 -0.005103557371 0.01353473868
v 0.009295192547 0.005066968966 0.01679299772
v 0.009297914803 -0.005061409436 0.01679300703
v 0.009407934733 0.002897134516 0.001631780528
v 0.009409831837 -0.002891498618 0.001631889842
v 0.00957475137 0.003575178329 0.02644404396
v 0.009576668032 -0.003570780857 0.02644363604
v 0.009578330442 -0.002510376275 0.02693230473
v 0.009578651749 0.002515405416 0.02692948282
v 0.009595739655 0.002992156195 0.002145062899
v 0.009597921744 -0.002986388048 0.002145142062
v 0.009611243382 0.002164815553 0.001670664293
v 0.009612582624 -0.002159121912 0.001670727972
v 0.009641726501 0.003043556353 0.002695596777
v 0.009644165635 -0.003037728602 0.00269563566
v 0.009683400393 0.003755841404 0.02574197017
v 0.009685619734 -0.00375174894 0.0257416144
v 0.009699344635 0.004219621886 0.01057608426
v 0.009701609612 -0.004213844892 0.01057607401
v 0.009749769233 0.001468136441 0.001700139255
v 0.009750630707 -0.001462380867 0.00170016312
v 0.009782775305 0.004118339624 0.0202931799
v 0.009784987196 -0.004112518393 0.0202931799
v 0.009826892056 -0.001693086349 0.02684992552
v 0.00982762035 0.001698614447 0.0268468596
v 0.009852947667 0.004190701991 0.01359336171
v 0.009855199605 -0.004184843041 0.01359336916
v 0.009868383408 0.004157620482 0.01684741303
v 0.009868622757 2.933607448e-06 0.001728247735
v 0.009870616719 -0.004151752219 0.01684742421
v 0.009939829819 -0.002729811706 0.02633947507
v 0.009941658936 0.00273499079 0.02633671276
v 0.009948791936 -0.001089753117 0.02680719271
v 0.009949109517 0.001095735934 0.02680542879
v 0.009954311885 0.001524463063 0.002224655589
v 0.009955247864 -0.001518617617 0.002224669792
v 0.009982542135 -0.0008521092823 0.0267950017
v 0.009982717223 0.0008579550195 0.02679379284
v 0.01000629552 0.001557260053 0.002786959987
v 0.01000729203 -0.001551402034 0.002786967205
v 0.01003627293 2.978482826e-06 0.02677503787
v 0.01006834581 0.001118242159 0.002804689342
v 0.01007340103 -0.002876433544 0.02563874051
v 0.01007682364 0.002881728811 0.02563610114
v 0.01007980946 2.990431085e-06 0.002257491462
v 0.01013424434 3.005056215e-06 0.002824696014
v 0.01015049592 0.003225042252 0.01063071843
v 0.01015222725 -0.003219022881 0.01063071936
v 0.01021237671 -0.001849129447 0.02625706233
v 0.01021478046 0.001854975941 0.0262541119
v 0.01024420466 0.003149843309 0.0203265436
v 0.01024589501 -0.00314377388 0.02032653615
v 0.01031684503 0.003203795291 0.01362257358
v 0.01031856611 -0.003197686747 0.01362257637
v 0.01033166796 -0.002086686203 0.02556738816
v 0.0103344135 0.003179351799 0.01687218994
v 0.01033612154 -0.003173234174 0.01687219553
v 0.01036648732 -0.001955736428 0.02555754036
v 0.01037060935 0.001961806556 0.02555471286
v 0.01038436592 -0.0009358673706 0.02620213293
v 0.01038521808 0.0009420401184 0.0262010023
v 0.01044407208 3.088308631e-06 0.02618215606
v 0.01048598159 0.00217944663 0.01066148467
v 0.01048715226 -0.002173246816 0.01066148747
v 0.01055300701 -0.0009944472695 0.02550356835
v 0.01055450551 0.001000725664 0.02550244518
v 0.0105878925 0.00212968397 0.02033925615
v 0.01058903616 -0.002123429207 0.0203392636
v 0.01061826292 3.135291763e-06 0.02548397519
v 0.01066239364 0.002165503567 0.01363178808
v 0.010663555 -0.002159209223 0.01363177691
v 0.01068170741 0.002149385633 0.01687739231
v 0.01068286132 -0.002143080579 0.01687739789
v 0.01069518365 0.001099826419 0.01067507267
v 0.01069577225 -0.001093514846 0.01067506615
v 0.01070784032 3.159382459e-06 0.01011344139
v 0.01080252323 0.001075068139 0.02034031413
v 0.01080309879 -0.001068698941 0.02034030855
v 0.01087819599 0.001092941617 0.01363039389
v 0.01087878179 -0.001086531789 0.01363040321
v 0.01089868974 0.001084937947 0.01687312871
v 0.01089927088 -0.001078517176 0.01687312312
v 0.01094640885 3.223477506e-06 0.01823678054
v 0.01095851418 3.226666877e-06 0.01382260863
f 36 7 13
f 613 670 615
f 171 131 143
f 1 3 2
f 2 7 1
f 6 2 3
f 7 2 6
f 28 27 24
f 24 27 21
f 16 21 13
f 13 12 16
f 7 36 30
f 1 7 30
f 725 715 720
f 720 722 725
f 724 710 719
f 725 722 724
f 651 645 618
f 653 645 651
f 651 676 653
f 686 676 683
f 116 103 118
f 116 118 135
f 151 154 144
f 609 613 615
f 28 40 43
f 43 40 369
f 291 335 331
f 331 312 291
f 693 714 709
f 240 258 269
f 444 447 474
f 292 334 281
f 411 440 415
f 415 440 423
f 415 360 411
f 434 440 411
f 411 413 434
f 434 413 444
f 532 384 570
f 368 369 594
f 368 43 369
f 65 64 368
f 368 86 65
f 368 110 86
f 341 128 368
f 128 110 368
f 150 171 143
f 52 27 37
f 21 27 52
f 37 103 52
f 34 30 39
f 39 30 36
f 144 154 145
f 145 129 144
f 69 80 79
f 37 27 32
f 32 27 28
f 7 6 10
f 10 6 12
f 13 7 10
f 10 12 13
f 51 103 37
f 51 54 103
f 81 103 66
f 103 54 66
f 38 30 34
f 108 130 144
f 688 655 628
f 628 655 651
f 725 716 717
f 717 715 725
f 721 716 725
f 704 720 715
f 704 655 688
f 587 618 645
f 722 708 718
f 718 724 722
f 718 707 710
f 710 724 718
f 711 704 688
f 720 704 711
f 722 720 711
f 670 613 661
f 661 653 676
f 686 670 661
f 661 676 686
f 715 683 680
f 680 683 676
f 680 704 715
f 655 704 680
f 680 676 651
f 651 655 680
f 153 189 148
f 144 130 148
f 148 151 144
f 189 151 148
f 185 177 181
f 292 263 261
f 261 263 226
f 181 203 205
f 205 185 181
f 224 261 226
f 226 205 224
f 224 205 203
f 213 203 199
f 213 199 341
f 341 199 186
f 142 137 128
f 142 128 341
f 198 151 189
f 208 163 198
f 163 151 198
f 342 132 149
f 173 149 156
f 342 149 173
f 216 151 163
f 216 193 151
f 163 222 216
f 594 369 593
f 3 18 19
f 19 6 3
f 12 6 19
f 19 16 12
f 21 16 19
f 25 18 23
f 23 26 25
f 9 11 8
f 330 331 361
f 312 331 330
f 473 445 443
f 451 443 457
f 451 473 443
f 137 118 121
f 81 86 91
f 86 110 91
f 506 313 423
f 505 308 506
f 308 313 506
f 702 707 691
f 710 707 702
f 702 703 710
f 607 567 604
f 604 644 607
f 366 378 354
f 636 658 632
f 421 408 426
f 419 447 444
f 444 413 419
f 419 398 406
f 411 360 379
f 379 413 411
f 258 263 274
f 274 269 258
f 296 269 274
f 505 281 289
f 289 281 334
f 440 434 464
f 507 506 485
f 580 368 594
f 384 368 580
f 532 570 551
f 28 43 44
f 43 368 44
f 37 32 44
f 44 32 28
f 491 384 532
f 491 368 384
f 479 474 447
f 511 474 479
f 479 542 511
f 192 150 177
f 177 185 192
f 185 205 192
f 226 263 235
f 134 107 97
f 143 131 127
f 131 87 127
f 116 135 127
f 127 135 143
f 127 103 116
f 62 52 103
f 41 39 36
f 21 52 41
f 13 21 41
f 41 36 13
f 4 11 9
f 9 8 4
f 1 30 4
f 35 38 42
f 30 38 35
f 35 4 30
f 11 4 35
f 55 63 68
f 39 63 55
f 59 38 56
f 71 61 102
f 102 80 71
f 69 61 71
f 71 80 69
f 90 79 80
f 45 47 40
f 42 26 17
f 17 35 42
f 11 35 17
f 17 26 23
f 15 11 17
f 23 18 17
f 17 18 15
f 111 90 119
f 109 111 132
f 109 132 342
f 342 369 109
f 369 40 60
f 60 79 369
f 69 79 60
f 40 47 60
f 60 61 69
f 60 47 61
f 70 54 64
f 70 66 54
f 70 64 65
f 81 66 70
f 70 86 81
f 65 86 70
f 102 82 92
f 651 618 624
f 624 628 651
f 687 717 716
f 686 683 687
f 687 683 715
f 715 717 687
f 723 724 719
f 725 724 723
f 723 721 725
f 719 709 723
f 723 709 714
f 723 714 712
f 712 721 723
f 645 653 599
f 599 587 645
f 599 661 613
f 653 661 599
f 613 609 599
f 537 583 541
f 691 707 700
f 708 685 700
f 707 718 700
f 700 718 708
f 713 708 722
f 722 711 713
f 688 628 659
f 694 711 688
f 688 659 694
f 694 659 667
f 694 713 711
f 595 583 537
f 556 595 537
f 603 595 556
f 641 603 643
f 641 595 603
f 292 261 265
f 219 224 203
f 203 213 219
f 229 224 219
f 219 398 229
f 137 160 141
f 141 118 137
f 141 135 118
f 143 135 155
f 135 141 155
f 155 150 143
f 177 150 155
f 172 165 341
f 341 186 172
f 341 165 158
f 158 142 341
f 154 151 176
f 151 193 176
f 202 180 204
f 193 216 204
f 202 209 188
f 188 209 342
f 342 173 188
f 178 173 156
f 156 159 178
f 178 159 180
f 178 188 173
f 178 180 202
f 202 188 178
f 264 260 291
f 264 238 260
f 352 238 264
f 212 209 202
f 212 416 342
f 342 209 212
f 234 222 163
f 29 40 28
f 28 25 29
f 29 25 26
f 18 25 22
f 22 25 28
f 28 24 22
f 22 24 21
f 5 18 3
f 5 8 18
f 5 4 8
f 5 3 1
f 1 4 5
f 15 18 14
f 18 8 14
f 14 11 15
f 14 8 11
f 291 312 301
f 301 330 291
f 312 330 301
f 348 330 361
f 361 374 348
f 352 264 348
f 307 298 498
f 498 499 307
f 335 298 307
f 282 335 291
f 282 496 498
f 441 439 422
f 422 499 441
f 539 499 498
f 457 487 475
f 475 451 457
f 473 451 475
f 475 487 518
f 518 473 475
f 463 487 457
f 487 463 483
f 393 383 316
f 362 383 393
f 84 103 81
f 81 91 84
f 114 91 110
f 114 110 128
f 128 137 114
f 598 608 572
f 636 608 638
f 608 598 638
f 607 644 638
f 638 598 607
f 698 714 693
f 693 671 698
f 710 703 701
f 627 429 665
f 430 429 627
f 703 702 679
f 557 604 567
f 572 544 540
f 527 521 489
f 296 338 314
f 387 378 366
f 391 408 421
f 391 390 408
f 378 387 391
f 391 387 390
f 401 429 430
f 344 354 378
f 672 696 690
f 421 426 586
f 586 426 590
f 665 429 621
f 390 387 503
f 503 387 366
f 366 354 503
f 572 608 574
f 574 544 572
f 459 476 489
f 489 464 459
f 459 434 444
f 459 464 434
f 444 474 452
f 474 476 452
f 452 459 444
f 476 459 452
f 360 334 346
f 346 379 360
f 400 419 413
f 413 379 400
f 398 419 400
f 292 281 278
f 278 263 292
f 278 274 263
f 297 308 505
f 505 289 297
f 423 313 394
f 394 415 423
f 360 415 394
f 484 464 489
f 489 521 484
f 423 440 442
f 440 448 442
f 442 506 423
f 442 448 506
f 440 464 462
f 462 448 440
f 553 570 384
f 384 580 553
f 553 580 570
f 570 580 592
f 46 368 64
f 46 44 368
f 542 479 488
f 425 419 406
f 447 419 425
f 341 368 432
f 368 436 432
f 576 551 570
f 705 721 712
f 716 721 705
f 712 689 705
f 662 670 686
f 686 677 662
f 662 677 654
f 150 192 217
f 217 192 205
f 226 218 217
f 217 205 226
f 164 217 218
f 150 217 164
f 248 235 263
f 248 164 235
f 131 171 152
f 152 147 131
f 183 189 153
f 167 170 134
f 125 108 88
f 130 108 125
f 125 148 130
f 89 87 131
f 68 87 89
f 89 55 68
f 131 147 124
f 124 89 131
f 134 97 106
f 106 124 147
f 89 124 106
f 74 97 107
f 74 106 97
f 113 127 87
f 113 93 103
f 103 127 113
f 68 63 75
f 75 63 93
f 75 87 68
f 75 113 87
f 93 113 75
f 73 62 103
f 58 63 39
f 39 41 58
f 58 41 52
f 52 62 58
f 62 73 58
f 72 82 102
f 53 26 42
f 67 56 88
f 67 59 56
f 85 80 102
f 85 90 80
f 102 61 50
f 50 45 102
f 61 47 50
f 47 45 50
f 102 45 33
f 33 53 102
f 26 53 33
f 33 45 40
f 132 111 133
f 111 119 133
f 133 149 132
f 156 149 133
f 111 109 94
f 94 90 111
f 79 90 94
f 369 79 94
f 94 109 369
f 126 108 144
f 144 129 126
f 129 115 126
f 126 115 102
f 583 628 581
f 628 624 581
f 581 541 583
f 554 541 581
f 587 599 591
f 591 599 609
f 537 541 510
f 510 473 518
f 510 556 537
f 518 556 510
f 445 473 477
f 473 510 477
f 477 510 541
f 587 591 569
f 606 597 571
f 635 637 606
f 606 637 597
f 635 631 657
f 713 694 697
f 697 694 667
f 564 556 518
f 603 556 564
f 583 595 633
f 595 641 633
f 633 628 583
f 633 659 628
f 667 659 633
f 633 641 667
f 407 420 427
f 261 224 255
f 255 265 261
f 255 224 229
f 162 141 160
f 162 155 141
f 162 160 181
f 181 177 162
f 177 155 162
f 181 160 179
f 179 172 186
f 179 203 181
f 199 203 179
f 179 186 199
f 157 158 165
f 157 179 160
f 157 160 137
f 165 172 157
f 172 179 157
f 137 142 157
f 142 158 157
f 433 410 439
f 457 443 433
f 443 412 433
f 433 463 457
f 439 463 433
f 409 433 412
f 410 433 409
f 410 374 359
f 362 393 359
f 359 374 361
f 361 331 359
f 359 331 335
f 386 238 352
f 386 230 238
f 412 399 404
f 404 409 412
f 404 374 410
f 410 409 404
f 161 145 154
f 161 159 145
f 180 159 161
f 154 176 161
f 161 176 180
f 180 176 184
f 184 204 180
f 184 176 193
f 193 204 184
f 225 204 216
f 225 216 222
f 222 234 225
f 330 348 320
f 320 348 264
f 163 166 247
f 247 234 163
f 20 19 18
f 18 22 20
f 21 19 20
f 20 22 21
f 309 499 422
f 309 307 499
f 422 393 309
f 309 393 316
f 309 316 335
f 335 307 309
f 290 298 335
f 335 282 290
f 498 298 290
f 290 282 498
f 259 295 275
f 275 295 496
f 439 441 446
f 446 441 499
f 376 383 362
f 362 358 376
f 91 114 96
f 96 84 91
f 644 671 664
f 664 638 644
f 693 658 664
f 664 671 693
f 664 658 636
f 636 638 664
f 706 701 690
f 710 701 706
f 719 710 706
f 430 627 630
f 703 679 682
f 679 630 682
f 675 702 691
f 675 679 702
f 542 584 538
f 511 542 538
f 538 557 511
f 521 540 514
f 514 506 507
f 507 521 514
f 505 506 514
f 514 540 505
f 561 540 521
f 561 598 572
f 572 540 561
f 561 527 567
f 521 527 561
f 561 567 607
f 607 598 561
f 505 540 517
f 517 540 544
f 519 476 474
f 519 474 511
f 489 476 519
f 519 527 489
f 511 557 519
f 519 557 567
f 567 527 519
f 365 318 310
f 306 344 310
f 421 429 396
f 429 401 396
f 396 391 421
f 365 391 396
f 396 401 365
f 378 391 355
f 355 344 378
f 355 391 365
f 365 310 355
f 355 310 344
f 339 314 338
f 338 354 339
f 354 344 339
f 648 632 658
f 696 672 684
f 684 658 693
f 684 648 658
f 672 648 684
f 693 709 684
f 709 696 684
f 649 690 665
f 649 672 690
f 649 621 429
f 612 429 421
f 612 649 429
f 590 426 563
f 426 559 563
f 602 574 608
f 602 608 636
f 636 632 602
f 602 632 590
f 590 559 602
f 559 574 602
f 381 400 379
f 336 289 334
f 336 297 289
f 308 297 336
f 336 334 360
f 336 313 308
f 317 394 313
f 382 394 317
f 313 336 317
f 472 484 480
f 480 484 485
f 480 506 472
f 480 485 506
f 507 485 493
f 485 484 493
f 472 506 468
f 506 466 468
f 468 484 472
f 466 462 468
f 464 484 468
f 468 462 464
f 506 448 456
f 456 466 506
f 448 462 456
f 456 462 466
f 600 654 646
f 600 662 654
f 582 578 625
f 582 584 542
f 44 46 49
f 49 51 37
f 37 44 49
f 54 51 49
f 64 54 49
f 49 46 64
f 470 460 368
f 368 491 470
f 491 509 470
f 447 425 450
f 450 479 447
f 341 432 417
f 417 425 406
f 417 213 341
f 417 219 213
f 406 398 417
f 398 219 417
f 436 425 417
f 417 432 436
f 588 600 646
f 592 600 588
f 570 592 588
f 588 576 570
f 625 578 619
f 619 578 551
f 551 576 619
f 619 588 646
f 576 588 619
f 716 705 681
f 681 687 716
f 681 677 686
f 686 687 681
f 227 164 218
f 235 164 227
f 227 218 226
f 226 235 227
f 252 263 258
f 252 248 263
f 190 198 189
f 189 183 190
f 208 198 190
f 153 148 146
f 148 125 146
f 170 175 146
f 146 183 153
f 146 175 183
f 134 106 138
f 138 106 147
f 78 74 107
f 78 125 88
f 107 125 78
f 88 56 78
f 56 74 78
f 48 74 56
f 48 38 34
f 56 38 48
f 34 39 48
f 39 55 48
f 55 89 77
f 77 48 55
f 74 48 77
f 89 106 77
f 106 74 77
f 93 63 83
f 103 93 83
f 83 73 103
f 63 58 83
f 83 58 73
f 57 53 42
f 42 38 57
f 38 59 57
f 57 59 82
f 82 72 57
f 57 72 102
f 102 53 57
f 88 108 76
f 76 67 88
f 59 67 76
f 82 59 76
f 76 92 82
f 40 29 31
f 31 33 40
f 31 29 26
f 26 33 31
f 102 115 117
f 117 115 129
f 129 120 117
f 136 133 119
f 136 120 129
f 136 159 156
f 156 133 136
f 102 92 112
f 112 126 102
f 92 76 112
f 108 126 112
f 112 76 108
f 577 624 618
f 577 581 624
f 554 581 577
f 618 550 577
f 579 593 369
f 609 593 579
f 579 591 609
f 618 587 575
f 587 569 575
f 575 550 618
f 575 569 550
f 369 469 490
f 435 416 424
f 571 549 543
f 543 496 515
f 543 549 539
f 498 496 543
f 543 539 498
f 691 700 673
f 673 700 685
f 708 713 692
f 713 697 692
f 692 685 708
f 692 657 685
f 643 637 663
f 657 692 663
f 663 637 635
f 635 657 663
f 603 564 605
f 643 603 605
f 605 637 643
f 597 637 605
f 518 487 526
f 526 564 518
f 558 427 562
f 512 389 407
f 512 529 515
f 407 427 512
f 427 529 512
f 392 420 407
f 407 389 392
f 392 389 388
f 340 353 337
f 345 353 340
f 356 392 345
f 268 295 259
f 259 239 268
f 228 166 163
f 228 239 166
f 228 163 208
f 410 359 414
f 414 359 393
f 414 393 422
f 422 439 414
f 439 410 414
f 380 386 352
f 399 386 380
f 352 348 380
f 380 348 374
f 374 404 380
f 380 404 399
f 424 416 405
f 202 204 223
f 204 225 223
f 223 212 202
f 223 230 212
f 238 230 223
f 260 238 223
f 223 225 260
f 260 225 262
f 262 225 234
f 234 247 262
f 291 260 262
f 259 275 262
f 291 330 328
f 328 320 291
f 330 320 328
f 280 264 291
f 291 320 280
f 280 320 264
f 277 282 291
f 291 262 277
f 277 262 275
f 496 282 277
f 277 275 496
f 539 549 560
f 571 597 560
f 560 549 571
f 461 463 439
f 439 446 461
f 465 499 467
f 499 471 467
f 467 471 483
f 467 461 465
f 467 483 463
f 463 461 467
f 351 358 362
f 362 347 351
f 324 376 358
f 358 351 324
f 316 383 324
f 383 376 324
f 324 351 347
f 324 347 362
f 362 359 324
f 335 316 324
f 324 359 335
f 84 96 99
f 99 96 114
f 690 696 699
f 699 706 690
f 719 706 699
f 699 709 719
f 699 696 709
f 665 690 674
f 690 701 674
f 674 627 665
f 678 701 703
f 703 682 678
f 678 674 701
f 678 682 630
f 678 630 627
f 627 674 678
f 629 582 625
f 584 582 629
f 689 660 629
f 695 660 689
f 695 689 712
f 712 714 695
f 714 698 695
f 584 629 634
f 634 629 660
f 596 538 584
f 584 634 596
f 604 557 596
f 557 538 596
f 505 517 501
f 274 278 501
f 501 281 505
f 501 278 281
f 516 517 544
f 544 574 516
f 574 530 516
f 296 314 299
f 240 220 211
f 211 164 240
f 211 210 164
f 174 138 147
f 365 401 370
f 401 372 370
f 314 339 294
f 294 299 314
f 287 299 294
f 590 632 617
f 632 648 617
f 617 586 590
f 640 648 672
f 672 649 640
f 640 617 648
f 649 612 640
f 586 617 640
f 421 586 640
f 640 612 421
f 665 621 623
f 623 649 665
f 621 649 623
f 566 559 590
f 590 563 566
f 566 563 559
f 534 574 559
f 534 530 574
f 426 530 534
f 304 334 292
f 292 332 304
f 333 346 334
f 333 332 346
f 363 375 357
f 382 375 363
f 360 394 363
f 363 394 382
f 495 521 507
f 507 493 495
f 495 484 521
f 495 493 484
f 662 600 614
f 615 670 614
f 670 662 614
f 555 582 542
f 578 582 555
f 482 470 488
f 482 488 479
f 479 450 482
f 438 425 436
f 436 450 438
f 438 450 425
f 164 248 168
f 248 252 168
f 240 164 168
f 168 258 240
f 168 252 258
f 183 175 201
f 201 175 170
f 139 125 107
f 139 146 125
f 139 107 134
f 134 170 139
f 170 146 139
f 101 85 102
f 101 98 85
f 102 117 101
f 90 85 95
f 85 98 95
f 95 119 90
f 95 98 119
f 122 136 119
f 120 136 122
f 129 145 140
f 140 136 129
f 145 159 140
f 159 136 140
f 385 579 369
f 369 490 385
f 552 569 591
f 591 579 552
f 552 385 569
f 579 385 552
f 554 577 522
f 522 577 550
f 431 435 369
f 416 435 431
f 431 369 342
f 342 416 431
f 458 469 369
f 437 435 424
f 545 427 558
f 533 529 427
f 427 545 533
f 573 533 558
f 573 606 571
f 571 543 573
f 529 533 573
f 515 529 573
f 573 543 515
f 639 673 647
f 631 616 647
f 647 616 639
f 647 657 631
f 685 657 647
f 647 673 685
f 650 673 639
f 691 673 650
f 589 616 631
f 589 562 427
f 669 692 697
f 669 663 692
f 669 697 667
f 643 663 669
f 669 641 643
f 667 641 669
f 403 401 430
f 403 372 401
f 364 392 356
f 395 428 420
f 420 392 395
f 395 364 371
f 392 364 395
f 500 337 353
f 353 367 500
f 496 295 500
f 295 337 500
f 500 367 388
f 515 496 500
f 388 389 500
f 500 512 515
f 389 512 500
f 377 345 392
f 377 392 388
f 388 367 377
f 377 367 353
f 353 345 377
f 254 268 239
f 230 386 397
f 212 230 397
f 397 386 399
f 416 212 397
f 397 405 416
f 418 445 424
f 424 405 418
f 418 399 412
f 418 397 399
f 405 397 418
f 443 445 418
f 418 412 443
f 259 262 251
f 251 262 247
f 251 247 166
f 251 239 259
f 166 239 251
f 568 605 564
f 564 526 568
f 597 605 568
f 568 560 597
f 465 461 455
f 455 461 446
f 455 499 465
f 455 446 499
f 499 497 486
f 539 560 520
f 499 539 520
f 520 497 499
f 103 84 104
f 84 99 104
f 104 118 103
f 137 121 123
f 123 114 137
f 656 681 705
f 656 705 689
f 689 629 656
f 644 604 642
f 642 671 644
f 604 596 642
f 642 596 634
f 504 501 517
f 517 516 504
f 504 516 503
f 504 354 338
f 504 503 354
f 504 338 296
f 296 274 504
f 274 501 504
f 390 503 502
f 513 516 530
f 513 426 408
f 513 530 426
f 408 390 513
f 390 502 513
f 503 516 513
f 513 502 503
f 296 299 286
f 286 269 296
f 286 270 269
f 182 152 171
f 147 152 182
f 182 174 147
f 315 337 295
f 295 300 315
f 340 337 315
f 295 268 285
f 285 300 295
f 174 182 206
f 303 294 339
f 303 344 306
f 303 339 344
f 546 559 426
f 426 534 546
f 326 304 332
f 332 333 326
f 334 304 326
f 326 333 334
f 292 265 276
f 276 321 292
f 265 321 276
f 329 332 292
f 292 321 329
f 329 321 332
f 343 321 265
f 265 255 343
f 346 332 343
f 332 321 343
f 357 375 325
f 382 317 325
f 325 375 382
f 360 363 325
f 325 336 360
f 325 317 336
f 615 614 610
f 610 609 615
f 594 593 610
f 610 593 609
f 610 580 594
f 610 592 580
f 610 600 592
f 610 614 600
f 488 470 525
f 525 470 509
f 542 488 525
f 523 491 532
f 523 509 491
f 578 555 523
f 532 551 523
f 551 578 523
f 454 482 450
f 454 450 436
f 460 470 454
f 470 482 454
f 368 460 454
f 454 436 368
f 221 228 208
f 215 190 183
f 208 190 215
f 215 221 208
f 170 167 194
f 120 122 100
f 100 117 120
f 119 98 100
f 100 122 119
f 98 101 100
f 100 101 117
f 508 522 490
f 508 490 469
f 469 524 508
f 531 522 550
f 550 569 531
f 569 385 531
f 531 385 490
f 490 522 531
f 369 435 453
f 453 458 369
f 469 458 453
f 547 545 558
f 558 533 547
f 547 533 545
f 611 650 639
f 428 650 611
f 639 420 611
f 420 428 611
f 620 650 428
f 601 573 558
f 558 589 601
f 601 589 631
f 606 573 601
f 601 631 635
f 635 606 601
f 558 562 565
f 565 589 558
f 562 589 565
f 616 589 585
f 639 616 585
f 585 589 427
f 585 420 639
f 585 427 420
f 428 395 402
f 430 428 402
f 402 403 430
f 402 395 371
f 371 372 402
f 372 403 402
f 302 345 340
f 302 305 345
f 340 315 302
f 356 345 311
f 345 305 311
f 311 364 356
f 483 471 478
f 478 486 483
f 478 471 499
f 499 486 478
f 494 520 483
f 497 520 494
f 560 568 528
f 528 520 560
f 528 568 526
f 528 526 487
f 487 483 528
f 483 520 528
f 105 99 114
f 114 123 105
f 105 123 121
f 105 121 118
f 118 104 105
f 105 104 99
f 677 681 652
f 681 656 652
f 646 654 652
f 654 677 652
f 625 619 652
f 652 619 646
f 652 629 625
f 652 656 629
f 671 642 668
f 668 698 671
f 668 695 698
f 660 695 668
f 668 634 660
f 668 642 634
f 187 182 171
f 171 150 187
f 268 254 271
f 271 285 268
f 240 269 253
f 269 270 253
f 250 246 220
f 220 246 214
f 246 206 214
f 214 211 220
f 210 211 214
f 548 534 559
f 559 546 548
f 548 546 534
f 373 343 255
f 373 255 229
f 229 398 373
f 398 400 373
f 400 381 373
f 350 363 357
f 357 325 350
f 350 325 363
f 536 525 509
f 509 523 536
f 536 523 555
f 536 555 542
f 542 525 536
f 183 201 207
f 207 215 183
f 195 201 170
f 170 194 195
f 195 231 233
f 194 231 195
f 138 174 169
f 169 167 134
f 134 138 169
f 535 508 524
f 522 508 535
f 554 522 535
f 535 541 554
f 535 524 541
f 435 437 449
f 449 453 435
f 424 445 449
f 449 437 424
f 445 477 449
f 469 453 481
f 481 524 469
f 481 449 477
f 453 449 481
f 481 477 541
f 541 524 481
f 626 428 430
f 679 675 626
f 430 630 626
f 626 630 679
f 650 620 622
f 288 315 300
f 300 285 288
f 371 364 319
f 364 311 319
f 492 486 497
f 497 494 492
f 483 486 492
f 492 494 483
f 287 294 279
f 294 303 279
f 279 257 266
f 250 257 279
f 246 250 279
f 279 319 311
f 279 310 318
f 306 310 279
f 279 303 306
f 305 302 279
f 279 311 305
f 233 231 279
f 197 187 150
f 150 164 197
f 164 210 197
f 191 206 182
f 191 214 206
f 182 187 191
f 187 197 191
f 210 214 191
f 191 197 210
f 349 373 381
f 343 373 349
f 349 381 379
f 379 346 349
f 346 343 349
f 273 271 267
f 267 271 254
f 267 279 273
f 256 279 267
f 242 254 239
f 242 267 254
f 256 267 242
f 239 228 242
f 228 221 242
f 233 279 237
f 237 207 201
f 201 195 237
f 237 195 233
f 196 169 174
f 196 194 167
f 167 169 196
f 196 231 194
f 666 620 428
f 428 626 666
f 666 626 675
f 666 622 620
f 650 622 666
f 666 675 691
f 691 650 666
f 293 302 315
f 315 288 293
f 293 279 302
f 288 279 293
f 284 288 285
f 284 271 273
f 285 271 284
f 273 279 284
f 284 279 288
f 323 372 371
f 371 319 323
f 319 279 323
f 241 253 266
f 266 257 241
f 241 220 240
f 240 253 241
f 241 250 220
f 241 257 250
f 287 279 283
f 283 299 287
f 283 286 299
f 270 286 283
f 243 206 246
f 246 279 243
f 279 236 243
f 232 279 231
f 232 236 279
f 231 196 232
f 232 196 236
f 221 215 249
f 249 279 256
f 249 242 221
f 256 242 249
f 215 207 244
f 207 237 244
f 244 237 279
f 236 196 200
f 206 243 200
f 200 243 236
f 174 206 200
f 200 196 174
f 322 370 372
f 322 279 318
f 322 318 365
f 365 370 322
f 272 279 266
f 272 283 279
f 270 283 272
f 272 253 270
f 266 253 272
f 245 249 215
f 215 244 245
f 279 249 245
f 245 244 279
f 372 323 327
f 327 322 372
f 327 323 279
f 279 322 327
