v -0.009564685635 -2.28945737e-06 -0.001836352865
v -0.009522455744 -2.883548586e-05 -0.007146962918
v -0.009495456703 0.0009791033808 -0.001886228682
v -0.009494929574 -0.000983646838 -0.001886222512
v -0.009487178177 0.0007499197382 -0.007131522987
v -0.009475112893 -0.0008699068567 -0.007126723882
v -0.009369703941 0.001571280183 -0.007080976386
v -0.009337008931 -0.001733109006 -0.007067715749
v -0.009315702133 -0.001920662588 -0.004775216803
v -0.009299229831 0.001945990138 -0.002015538281
v -0.009298182093 -0.001950424979 -0.002015534323
v -0.00922060851 0.002011028584 0.0007200767286
v -0.009157703258 0.002438054653 -0.006989090238
v -0.009109688923 -0.002594418125 -0.006968637928
v -0.009050000459 -0.000400006189 0.02550991252
v -0.009049863555 -0.0004447645042 0.02550852299
v -0.009049067274 -0.0005206416827 0.02550570853
v -0.009045334533 -0.0006722222897 0.02549844608
v -0.009034719318 -0.0004473270092 0.02558536269
v -0.009034205228 0.002842803951 -0.004897862207
v -0.009033897892 -0.0005236457218 0.02558252774
v -0.009032674134 -0.002847097348 -0.004897861741
v -0.009030097164 -0.0006760970573 0.02557514235
v -0.009029348381 -0.0009744601557 0.0254770387
v -0.00902882684 0.002838159679 -0.006932081189
v -0.009027178399 -0.0003990964324 0.02560214512
v -0.009013894014 -0.0009800747503 0.02555334941
v -0.008993987925 0.002883816604 -0.002193886321
v -0.008992435411 -0.002888089279 -0.002193886321
v -0.008991369978 -0.0003988037352 0.02565128729
v -0.008989865892 -0.0005256921868 0.02564694174
v -0.008986071683 -0.0006782815908 0.02563947998
v -0.008969904855 -0.0009825575398 0.02561744675
v -0.008964587003 -0.0003988055978 0.02567364834
v -0.008963501081 -0.001573206857 0.02540512756
v -0.008960641921 0.0007949540741 0.02540398948
v -0.00894721318 -0.001582868397 0.02547997981
v -0.008944145404 0.0008045394206 0.02547868527
v -0.008941690437 -0.00171180116 0.02538209222
v -0.008926481009 -0.0003990082187 0.02569447458
v -0.008925244212 -0.0005265543587 0.02569070831
v -0.008921509609 -0.0006785805454 0.02568322979
v -0.008905571885 -0.0009817784885 0.02566113323
v -0.008903394453 -0.001586560626 0.02554310486
v -0.008901154622 0.0008082691929 0.02554242313
v -0.008887797594 -0.0005264705396 0.02570225671
v -0.008884789422 -0.000399452314 0.02570682578
v -0.008875883184 -0.002059953753 0.02531077154
v -0.008875625208 0.001260919496 0.02531051822
v -0.008849998005 -0.0004000016779 0.02571000531
v -0.008849482052 0.003313019872 -0.0068517318
v -0.008849089965 -0.000526020187 0.02570557222
v -0.008845453151 -0.0006768333842 0.02569815703
v -0.008839977905 -0.001584181329 0.02558660135
v -0.008837514557 0.0008054942591 0.02558549866
v -0.008836747147 -0.002172528999 0.02535878494
v -0.008829863742 -0.0009776618099 0.02567626536
v -0.008802503347 -0.00342571619 -0.006831253879
v -0.008793188259 -0.002178729279 0.02541999705
v -0.008775346912 -0.001506633358 0.02561328933
v -0.008762875572 0.0007966980338 0.02560205571
v -0.008734297007 -0.001775973826 0.02556754835
v -0.008731337264 -0.002176035196 0.02546299808
v -0.008701296523 0.001934284228 0.02510199882
v -0.008699558675 -0.002741735429 0.02509867959
v -0.008687163703 -0.002737318864 0.02517558448
v -0.008680965751 0.001955055865 0.02516840585
v -0.008661835454 0.003730169963 -0.005029570777
v -0.008659830317 -0.003734261263 -0.005029564258
v -0.008643927053 -0.002747147344 0.02523336932
v -0.008638359606 0.001965496689 0.02522613294
v -0.008597713895 0.003778036917 -0.002390832873
v -0.008584275842 -0.002745680977 0.02527514845
v -0.008578696288 0.001964107854 0.02526737563
v -0.008549646474 -0.002612121403 0.02534019202
v -0.008528176695 -0.000400001969 0.02570999973
v -0.0085263988 -0.000450654974 0.02570839226
v -0.008516903967 -0.0005000007222 0.02570657246
v -0.008515735157 -0.00273254863 0.0252942387
v -0.008510184474 0.004051650874 -0.006695885677
v -0.008510014974 0.001951206708 0.02528704144
v -0.008487169631 -0.000938711979 0.02567958087
v -0.008476693183 -0.002863481874 0.02524005435
v -0.00846700836 0.0003788926115 0.02565627359
v -0.008424220607 -0.001446555485 0.02562236041
v -0.008405658416 -0.004249813501 -0.006648177281
v -0.008364238776 -0.001774501288 0.02556768432
v -0.008354564197 0.001036408124 0.02555552498
v -0.008334957063 -0.003705957206 0.02458607964
v -0.008320715278 0.002938326914 0.02456572093
v -0.008301054128 -0.003753888188 0.02462754771
v -0.008296196349 0.002965301741 0.02462115511
v -0.008295353502 -0.00206612586 0.02550467476
v -0.008258926682 -0.003768749069 0.02467658743
v -0.008254550397 0.002980190795 0.02467054129
v -0.008229740895 -0.003555618692 0.02487131208
v -0.008213057183 0.00456522312 -0.005147261545
v -0.008210600354 -0.004569074605 -0.005147260148
v -0.00820449274 -0.003770224517 0.02471447736
v -0.008200101554 0.00298119802 0.02470831014
v -0.008199376054 0.001603442244 0.02541132644
v -0.00814368017 -0.003757609287 0.0247363057
v -0.008138947189 0.002968354616 0.02473055571
v -0.00812839251 0.004614103585 -0.002575953258
v -0.00811183732 -0.002626293804 0.02533545904
v -0.008097805083 -0.00385929388 0.02466386743
v -0.008074759506 0.00481370464 -0.006489393767
v -0.008046022616 0.002000278095 0.02526738122
v -0.008010326885 -0.002863055095 0.0252407901
v -0.007978464477 0.002144302242 0.02520472184
v -0.007940430194 -0.005019188393 -0.006426824257
v -0.007919083349 -0.003050172003 0.02515485324
v -0.007859846577 0.00379753462 0.02386439778
v -0.007837926969 -0.004617220256 0.02391708829
v -0.007832234725 0.003825509921 0.02390859649
v -0.007798388135 -0.004696406424 0.02376393974
v -0.007797644474 -0.004633253906 0.02395772561
v -0.007792269811 0.00384193589 0.02394896001
v -0.007765879389 -0.00450412184 0.02413228154
v -0.00774852233 -0.004636473954 0.02399100922
v -0.007743273862 0.003845253726 0.02398191765
v -0.007701293565 0.005334880203 -0.005227856804
v -0.007698425092 -0.005338458344 -0.005227854475
v -0.007689599879 0.003835292533 0.02400472574
v -0.007687530946 0.002658610465 0.02493136004
v -0.00766484905 -0.004676946439 0.02396176942
v -0.007645270322 -0.003524225904 0.02489081025
v -0.007621400524 0.004162801895 0.02345691435
v -0.00762007758 -0.004750860855 0.02388352714
v -0.007604006678 0.005377465859 -0.002718837233
v -0.007596262731 -0.00498562213 0.02350181714
v -0.007592499256 0.004191115033 0.02349390276
v -0.007578158285 0.005521740299 -0.006244824268
v -0.007556985132 -0.005003177561 0.02353608608
v -0.007553495001 0.004208771512 0.02352812514
v -0.00751058571 -0.005008881446 0.02356506325
v -0.007507186849 0.004214324988 0.02355693094
v -0.00745711429 0.004207473248 0.02357828803
v -0.007439211477 -0.005696341861 -0.006174135953
v -0.007425551303 -0.005232437048 0.02305748686
v -0.007422036026 -0.003856557189 0.02466604672
v -0.007399295457 0.004466933664 0.02299492247
v -0.007372135762 -0.005292044021 0.02303052507
v -0.007369203959 0.004495778121 0.02302257344
v -0.007333823014 -0.005311430898 0.0230565723
v -0.007331492845 -0.003983729053 0.02457159758
v -0.007331114728 0.004515238106 0.02304849587
v -0.00729048159 -0.005252009258 0.02321519889
v -0.007289910223 -0.005320284981 0.02307928726
v -0.007287304848 0.004523995332 0.02307102084
v -0.007284015417 0.004460873548 0.02319788747
v -0.007217697799 0.004694973119 0.02247821353
v -0.007188562769 -0.005521927029 0.02250376344
v -0.007186920382 0.004723791499 0.02249675617
v -0.007151096128 -0.005542445928 0.0225214418
v -0.007149645593 0.004744356032 0.02251431346
v -0.007139973808 0.006026055664 -0.005248278379
v -0.007136734668 -0.00602933066 -0.005248283036
v -0.007131705061 -0.005597443786 0.02214259095
v -0.007109104656 -0.005553657655 0.02253719047
v -0.007107752375 0.00475548394 0.02252993733
v -0.007088441402 0.006101074163 -0.005990533158
v -0.007088087965 -0.005648090504 0.02192800306
v -0.007087385282 0.004848908167 0.02192243934
v -0.007083232049 -0.004318701569 0.02429950982
v -0.007057029754 -0.005676585715 0.02193959989
v -0.007056392264 0.00487722503 0.02193396725
v -0.007042541169 0.00605357578 -0.002789059654
v -0.007029675413 -0.004388900008 0.02423774451
v -0.00702021597 -0.005697375629 0.02195064537
v -0.007019751705 0.004898010753 0.02194495313
v -0.00701850839 -0.005613534246 0.02236659639
v -0.006985636894 -0.005763590336 0.02118188143
v -0.006979495287 -0.005709674675 0.02196062356
v -0.006937135477 -0.005712707993 0.02196896449
v -0.006921486929 -0.00582757825 0.02076621726
v -0.006901276764 -0.006296749692 -0.00589099247
v -0.006885395385 -0.005847984925 0.02076982521
v -0.006856577471 -0.005806397647 0.02139429003
v -0.006854581647 0.006146588363 -0.0005011638859
v -0.006845864467 -0.005860568956 0.02077311277
v -0.006706351414 -0.004797619767 0.02383236587
v -0.006550986785 0.006630445831 -0.005699025467
v -0.006547421683 -0.006633404642 -0.005699018016
v -0.006416913588 0.006640394218 -0.001969776116
v -0.006389598362 -0.00516702747 0.02335253544
v -0.006307624746 -0.005255392753 0.0232089255
v -0.006302359048 0.006682896055 -0.0005152971135
v -0.006270827726 0.006867899094 -0.005540502258
v -0.006239604205 -0.005325648468 0.02308242582
v -0.006107917987 0.006766194943 0.001320534502
v -0.00600515306 -0.005541761871 0.02258757688
v -0.005994463339 -0.007078988943 -0.005383889191
v -0.005951916799 0.006834979635 0.002593677724
v -0.005852296948 0.007131537423 -0.003397754859
v -0.005848462693 -0.007134122774 -0.003397754161
v -0.00577579625 0.007119588554 -0.001200113096
v -0.005714640487 0.006670770235 0.009549869224
v -0.005659359973 0.006955606397 0.004976216704
v -0.005622492637 0.007330977358 -0.005159924738
v -0.005496383179 0.00716355769 0.002696322277
v -0.005439970177 0.007014364004 0.007380580995
v -0.005393036641 0.007011380978 0.008229762316
v -0.005390002392 -0.007471274119 -0.005017887335
v -0.005305963103 0.006894957274 0.0115521457
v -0.005277575925 0.006766418461 0.01344490238
v -0.005213816185 0.007189006079 0.006337754894
v -0.005195601843 0.006528486498 0.01603054255
v -0.005138413515 0.007503184956 -0.000963943603
v -0.005134380423 -0.007505384274 -0.0009639442433
v -0.005133913364 0.007153095677 0.008221048862
v -0.005130067002 -0.007155291736 0.008221046999
v -0.0051121586 0.006384071428 0.01731745154
v -0.005095755681 0.007074851543 0.01017163694
v -0.005091953091 -0.007077028509 0.01017162669
v -0.005007071886 0.007676599547 -0.004773129709
v -0.005004184786 0.006815779489 0.01409314293
v -0.005002909806 0.007435237523 0.002882092493
v -0.004998912103 -0.007437364664 0.002882097149
v -0.004919930361 0.006095833145 0.01937134378
v -0.004879085813 0.006647704635 0.01597067341
v -0.004863836803 0.007345061284 0.006469238084
v -0.004859889857 -0.007347113919 0.006469227839
v -0.004853750579 0.006404255982 0.01782540977
v -0.004839638248 0.003562115366 0.02453579567
v -0.004834804684 0.0007734419196 0.0252224151
v -0.004834387917 -0.0007754797698 0.02522240952
v -0.004831280094 0.0003880179138 0.02523153089
v -0.004831070546 -0.0003900546581 0.02523153275
v -0.004827054217 -1.016509714e-06 0.02523349784
v -0.004823237192 0.007164292037 0.01027241908
v -0.004819385242 -0.007166321389 0.01027242001
v -0.004786104895 0.001531029819 0.02516331896
v -0.004785282537 -0.001533040777 0.02516331151
v -0.004750386812 -0.007798050065 -0.00460702274
v -0.004749821033 0.006882869173 0.0141716348
v -0.004641402513 0.002261795569 0.02503217198
v -0.00464018574 -0.002263730625 0.0250321757
v -0.004626698792 0.006171375047 0.01949020475
v -0.004624576773 0.006710064597 0.01602998935
v -0.004618897103 0.00466559222 0.0235905908
v -0.00461393455 0.007857537828 -0.004511689302
v -0.004491023719 0.004147594329 0.0241464451
v -0.004444795661 0.002950029681 0.02482300252
v -0.004443210084 -0.002951857168 0.02482299507
v -0.004438390024 0.007822385058 -0.0006625581882
v -0.004434182774 -0.007824207656 -0.000662546081
v -0.00441649463 0.007680371869 0.003129941411
v -0.004412367474 -0.007682183292 0.003129933728
v -0.004401216283 -0.00794428587 -0.00436945539
v -0.00440107286 0.005889829714 0.02094054408
v -0.004383058287 0.00508451974 0.02305801772
v -0.004334719386 0.007969640195 -0.00431806175
v -0.004255332053 0.005541919731 0.02213055268
v -0.004249638412 0.005332256667 0.0226282049
v -0.0042208503 0.003587362589 0.02452489361
v -0.0042189206 -0.003589069238 0.02452489547
v -0.004206624348 0.004668115638 0.0236525517
v -0.004075287376 -0.001592195476 0.0250410866
v -0.004064875189 0.001917302492 0.0249998346
v -0.004064009059 0.0009003092418 0.025086632
v -0.004034005105 0.005115006119 0.02304069512
v -0.004027150571 -0.0006025849143 0.02508972585
v -0.004025626928 -0.008079585619 -0.004101389553
v -0.004007061943 0.004169250838 0.02412768267
v -0.004004821181 -0.004170842934 0.02412767708
v -0.003981340677 -0.00285320892 0.02478958853
v -0.003956064116 0.003032920649 0.02472859062
v -0.003936506342 -7.777470046e-07 0.0250784792
v -0.003930010833 0.0002273335122 0.02507640049
v -0.00385744404 0.007424450945 0.0106350109
v -0.003853454487 -0.007425961085 0.01063500158
v -0.00384101877 0.00468791835 0.02362072468
v -0.003825491993 0.007101431023 0.01449469291
v -0.003821990918 -7.475928215e-07 0.02505511045
v -0.003821673337 -0.007102923468 0.01449469291
v -0.003816643264 -0.003739190055 0.02440000698
v -0.003798275022 0.007679455448 0.006897368003
v -0.003794147633 -0.007680934388 0.006897358689
v -0.003791286144 0.003861034289 0.02432425693
v -0.003743377514 0.007894468494 0.003427137388
v -0.003739134874 -0.007895919494 0.003427132964
v -0.003728983691 0.006902847905 0.01632206142
v -0.003712711856 0.004214590881 0.02406860888
v -0.003690462094 -0.004309512209 0.02399004623
v -0.003678453155 0.008078893647 -0.0003116627922
v -0.003674110398 -0.008080307394 -0.0003116668668
v -0.003645044286 0.008195603266 -0.003811552655
v -0.003642288037 0.004567830823 0.0237427298
v -0.003558475291 0.006672813557 0.01800463162
v -0.003375303932 0.001827059081 0.024856437
v -0.003374321619 -0.001828312641 0.02485644259
v -0.003369675484 0.005184817594 0.02291622944
v -0.003336011665 0.006401658989 0.01951002888
v -0.003305001417 0.001054197899 0.02490752749
v -0.003304434707 -0.001055411412 0.02490752377
v -0.003276025876 -0.008290406317 -0.003526552115
v -0.003222228959 0.0006892710808 0.02490768209
v -0.003221857361 -0.0006904406473 0.02490768768
v -0.003101007082 0.006077619269 0.02081773244
v -0.003008060623 0.005214062519 0.02284844778
v -0.002994582755 0.008071340621 0.003759235609
v -0.002981916536 0.008353971876 -0.003279841738
v -0.002961090999 -0.008358251303 -0.003265860025
v -0.002938573714 0.004804798868 0.02340260521
v -0.002935991157 -0.00480581494 0.02340260521
v -0.002906128531 0.004346924834 0.02383958362
v -0.002903793473 -0.004347924609 0.0238395799
v -0.002890802454 0.003846085165 0.02417171746
v -0.002888735617 -0.003847076558 0.0241717156
v -0.002887310227 0.00569120096 0.02191243693
v -0.002874174854 0.003303885227 0.02441220917
v -0.002872398589 -0.003304869169 0.02441220731
v -0.002863300033 0.008273708634 7.223033026e-05
v -0.002858852735 -0.00827468466 7.222643762e-05
v -0.002849557437 0.0005114114028 0.02482420392
v -0.002840327797 0.002717606025 0.0245749075
v -0.002838866785 -0.002718568314 0.02457490377
v -0.002822430804 -0.0005300953053 0.02481672727
v -0.002781846793 0.002071262104 0.02467510104
v -0.002780734096 -0.002072195057 0.02467508987
v -0.002679393394 0.001394364052 0.02472222596
v -0.002678643446 -0.001395244268 0.02472222596
v -0.002595191356 -4.161906305e-07 0.02477107942
v -0.002556163818 -0.008429474197 -0.002909762552
v -0.00250297226 0.007335118484 0.01491946355
v -0.002499030204 -0.00733590126 0.01491945796
v -0.002489626873 0.0007604362327 0.02471746877
v -0.002474074485 0.007689194754 0.01113220025
v -0.002469940577 -0.007689963095 0.01113219559
v -0.002462258097 0.007105367724 0.01669096574
v -0.002458438976 -0.007106129546 0.0166909676
v -0.002378349192 -0.005267197266 0.02270471118
v -0.002376956632 0.006829442456 0.01829411648
v -0.002373286756 -0.006830159109 0.01829411834
v -0.002349698683 0.007963350974 0.007470948156
v -0.00234541879 -0.007964049466 0.007470943034
v -0.002283833921 0.004887553863 0.02318430506
v -0.002281205961 -0.004888219293 0.02318430133
v -0.002266037976 0.008470148779 -0.002633829135
v -0.002262210706 0.00650847936 0.01969607733
v -0.002194904024 0.00447939802 0.02355811745
v -0.002192495158 -0.004480016418 0.02355812676
v -0.002181142103 0.008204802871 0.004111748189
v -0.002176732058 -0.008205411956 0.004111744463
v -0.002158843214 0.00529456092 0.02263738774
v -0.002142901067 0.006148063112 0.02087922767
v -0.002141770907 0.000366782886 0.02464151941
v -0.002139596734 -0.006148651242 0.02087923139
v -0.002106915228 0.004046627786 0.02384011447
v -0.002104741987 -0.004047199152 0.0238401033
v -0.002036143327 0.005753042642 0.02183263004
v -0.002033051569 -0.005753573496 0.02183262259
v -0.002012677025 0.003593919333 0.0240432173
v -0.002010744996 -0.00359443971 0.02404322103
v -0.001997631975 0.008407830261 0.0004726540647
v -0.001993112266 -0.008408340625 0.0004726531624
v -0.001956799766 -0.001154872705 0.0245327279
v -0.001942138537 -0.005327558145 0.02256000973
v -0.001905066078 0.003120404901 0.02418114059
v -0.001903389464 -0.003120865906 0.02418113872
v -0.00184587657 -0.008515140973 -0.002216877649
v -0.001802058192 0.005352498963 0.02249983139
v -0.001799181569 -0.005352904554 0.02249982767
v -0.001777078025 0.002622264205 0.02426547185
v -0.001775669283 -0.002622658154 0.02426546253
v -0.001763116335 -1.930575735e-07 0.02453755029
v -0.001668881043 0.005044684745 0.0228645429
v -0.001666170312 -0.005045020487 0.02286453731
v -0.001659604954 -0.008529957384 -0.002016900573
v -0.001620018855 0.00210164208 0.0243051853
v -0.001619087765 0.003779933089 0.02381021343
v -0.001618887531 -0.002101950813 0.02430518903
v -0.001617055386 -0.003780241357 0.02381020412
v -0.001610043691 0.008533367887 -0.001956158085
v -0.001539974357 0.001482411404 0.02436231263
v -0.001534578274 0.004717245232 0.02315113693
v -0.001532042283 -0.0047175074 0.02315114625
v -0.00152618601 -0.005410304759 0.02236085571
v -0.001414222177 0.001584930229 0.02430602163
v -0.001413370017 -0.001585127786 0.02430601045
v -0.001392898965 0.004367923364 0.02337022498
v -0.0013905511 -0.004368109163 0.02337022871
v -0.001327303704 0.002911478281 0.0240136981
v -0.001325738151 -0.002911628457 0.0240136981
v -0.001318685827 0.005459073931 0.02222871594
v -0.001315752277 -0.005459219683 0.02222871035
v -0.001245896914 -0.008552092128 -0.001535333926
v -0.001241508755 0.003999927547 0.02353145182
v -0.001239358564 -0.004000032321 0.0235314481
v -0.001233661314 -0.005759796593 0.02172107995
v -0.001232267939 0.005779949948 0.02168221399
v -0.001201128238 0.005937877111 0.02135336027
v -0.001197937527 -0.005937959533 0.02135336027
v -0.0011782191 0.006079676095 0.02102212422
v -0.001174952602 -0.006079748273 0.02102211863
v -0.001171689713 0.006125635002 0.02090835944
v -0.001168397372 -0.006125701591 0.02090836503
v -0.00113685953 0.006435413845 0.02006348222
v -0.001133399899 -0.006435461808 0.02006347664
v -0.001126903808 -0.006507052574 0.01984417439
v -0.001125892275 0.006559595466 0.01967632025
v -0.001122363843 -0.006559638306 0.01967632957
v -0.001107882243 0.006782477256 0.01889227517
v -0.001104236231 -0.006782510318 0.01889227703
v -0.001100705005 0.00687031867 0.01854533143
v -0.001097011962 -0.006870348472 0.01854532212
v -0.001077964669 0.007105997764 0.01746969484
v -0.001074145199 -0.007106014527 0.01746969856
v -0.001045681303 0.007325322367 0.01619048603
v -0.001041744137 -0.007325322367 0.01619048044
v -0.001036078087 -0.007355070207 0.01599006541
v -0.001027528895 0.00855798088 -0.001249765977
v -0.001020417083 0.007445726078 0.01533302292
v -0.001016415539 -0.007445711643 0.01533302292
v -0.0009897087002 -0.005112293176 0.0225300584
v -0.0009829918854 -0.00756759569 0.01432558242
v -0.0009543620981 0.00506643299 0.02256009169
v -0.000945817912 -0.005059276242 0.02256456949
v -0.0009157870663 -0.007741685491 0.01259411871
v -0.0009100008174 0.007762400899 0.01236346178
v -0.0009058280848 -0.00776232779 0.01236345153
v -0.0008981106221 0.003210380208 0.02371734008
v -0.0008968031034 0.0007887542015 0.02421508916
v -0.0008963823784 -0.003210300812 0.02371735126
v -0.0008963787113 -0.0007886748062 0.02421508543
v -0.0008823422249 0.004248735029 0.02319983952
v -0.0008800592623 -0.004248646554 0.02319983952
v -0.0008117128746 0.002067323774 0.02399061434
v -0.0008106040768 -0.002067196881 0.02399060503
v -0.0008017658256 -0.004876757041 0.02266586758
v -0.0007220616098 0.008035403676 0.008863879368
v -0.0007177419029 -0.008035229519 0.00886388123
v -0.0007138975197 0.005480749533 0.02191145532
v -0.0007109522703 -0.005480572116 0.02191146091
v -0.0007089233259 -0.008559050038 -0.0008085037116
v -0.0006498650182 0.008558439091 -0.0007125388947
v -0.0005442138645 0.004520095419 0.022809783
v -0.0005417856737 -0.004519825336 0.02280977555
v -0.0005046441802 0.00855524838 -0.0004832034465
v -0.0004861219495 0.003521103412 0.02336866967
v -0.0004847465607 0.005869396031 0.0211338345
v -0.0004842300259 -0.003520803759 0.0233686734
v -0.0004815915891 -0.00586909242 0.0211338345
v -0.0004775638226 0.00733226724 0.01611811109
v -0.0004651201307 0.002338446444 0.02376690321
v -0.0004638632236 -0.002338135615 0.02376690507
v -0.0004085077962 0.004323062487 0.02286749519
v -0.0004044387897 0.008316747844 0.004820090253
v -0.0003999674809 -0.008316402324 0.00482009491
v -0.0002993887756 0.006263503805 0.02017863467
v -0.000296019949 -0.00626310287 0.02017864585
v -0.0002922370331 0.00772867864 0.01277492661
v -0.0002577633131 0.008419144899 0.003003082471
v -0.0002532377839 -0.008418719284 0.003003080375
v -0.0002312454453 -0.008543523028 -1.360111492e-05
v -0.0002178147552 -0.004039510619 0.02292924374
v -0.0002150922519 2.220938739e-07 0.02398164384
v -0.0002150814398 0.004032454453 0.02293059975
v -0.0001965219562 0.005051025189 0.02209067717
v -0.0001938077476 -0.005050567444 0.0220906809
v -0.0001870613196 0.002556623425 0.02356128395
v -0.0001856857998 -0.002556162653 0.02356129512
v -0.0001429251424 0.006640709937 0.01904135011
v -0.0001393555867 -0.006640225183 0.01904135942
v -8.982700092e-05 0.003838702105 0.02296117507
v -7.457528409e-05 0.008533422835 0.0003051180975
v -6.9988615e-05 -0.008532901295 0.0003051147214
v -3.333703944e-06 0.006978276651 0.01772571728
v -3.201692607e-06 0.008527605794 0.0004611642216
v -2.365209752e-07 0.001549854176 0.02372611873
v 4.175400647e-07 -0.006977714133 0.01772571728
v 5.962581895e-07 -0.001549293404 0.02372612245
v 1.383094059e-06 -0.008527037688 0.0004611681507
v 6.742554979e-05 0.008521366864 0.0006171009736
v 7.200549589e-05 -0.008520768024 0.0006170975976
v 0.0001150394382 -0.006106812973 0.02023779042
v 0.0001301774319 0.007257637568 0.01624242403
v 0.0001332131942 -0.007806079462 -0.003747241804
v 0.000134076894 -0.0072570052 0.0162424203
v 0.0001795743738 0.005482128821 0.0212663915
v 0.000181820229 -0.007798150182 -0.003745149355
v 0.0001825207582 -0.005481470842 0.02126639336
v 0.0002668805246 -0.007481546607 0.01463578548
v 0.0003158791515 0.004491170403 0.02221935056
v 0.0003182917135 -0.004490437452 0.02221934311
v 0.0003348626487 0.006497248076 0.01910629682
v 0.0003383534786 -0.006496505812 0.01910628751
v 0.0003981340851 0.007662817836 0.01296111569
v 0.0004022512585 -0.007662040647 0.01296111476
v 0.0004135333002 0.003025299171 0.02302589081
v 0.0004151593312 -0.003024513833 0.0230258815
v 0.0005066404701 0.005907417741 0.02029186115
v 0.0005098161055 -0.005906583741 0.02029185742
v 0.0005347835249 0.006843324751 0.01780825108
v 0.0005384614342 -0.006842476781 0.01780825481
v 0.0005460965331 0.0007514192257 0.02357808501
v 0.0005464996211 -0.0007505649119 0.02357807569
v 0.0006901610759 0.007934647612 0.009629110806
v 0.0006944250199 -0.007933713496 0.009629100561
v 0.0007221885608 0.007128544152 0.01635120809
v 0.0007260201382 -0.007127593737 0.0163512025
v 0.0007383375196 -0.002481476637 0.02303467505
v 0.0007389572565 -0.007683518343 -0.00367554347
v 0.0007403225172 0.006883182097 -0.003676197026
v 0.0007417902234 0.008500701748 0.000617976184
v 0.000790031103 0.002392419614 0.02303363383
v 0.000794982363 0.006304807961 0.01916305535
v 0.0007983706892 -0.006303817965 0.01916305162
v 0.0008073362405 0.004943910055 0.02136929147
v 0.000809994177 -0.004942914471 0.02136929147
v 0.0008398787468 0.003792394185 0.02229857817
v 0.0008419168298 -0.003791379509 0.02229857445
v 0.0008841698291 -0.002233037492 0.02302982286
v 0.0010237979 0.008148152381 0.006567522883
v 0.001028177096 -0.008147039451 0.006567515433
v 0.001055623405 0.006654783618 0.01787963323
v 0.0010591998 -0.006653652992 0.01787962765
v 0.001080967952 0.00753947068 0.01313391421
v 0.001146287192 5.886513463e-07 0.02328372933
v 0.00123930024 0.006062139757 0.01921274886
v 0.00124255917 -0.006060911808 0.01921275072
v 0.001251903479 -0.008465561084 0.0006190604181
v 0.001257734722 0.005374285392 0.02038161829
v 0.001260623452 -0.005373046268 0.02038162947
v 0.001269670553 0.001568341628 0.02298234962
v 0.001277303905 -0.007529771887 -0.003525641747
v 0.001298589166 0.006942328531 0.01644738205
v 0.001302319462 -0.006941069383 0.01644738019
v 0.001339867711 -0.003799999598 -0.003502457635
v 0.001340318006 -0.007508893963 -0.003502239706
v 0.001341998926 -0.001442810288 0.02296702377
v 0.001347929589 0.006706330925 -0.003499365179
v 0.001364517957 0.008322130889 0.003454420948
v 0.001367153483 0.001398992958 0.0229608696
v 0.001368991449 -0.008320835419 0.003454429097
v 0.001386484597 0.00293522072 0.02234813757
v 0.001388062257 -0.002933914075 0.02234813571
v 0.001420789165 0.004236756358 0.0214474313
v 0.001423065783 -0.004235429689 0.02144742757
v 0.001513840398 -0.007448172662 -0.003430872457
v 0.001533595612 -0.007170672994 0.01490332559
v 0.001551297726 0.001077759895 0.02290848084
v 0.001560342731 0.006410554517 0.01794244535
v 0.001563787344 -0.006409153342 0.01794244349
v 0.001603441895 0.008433429524 0.0006204762612
v 0.001608247752 -0.008431636728 0.0006203039084
v 0.001669866499 0.005766774062 0.01925804466
v 0.001672967104 -0.005765312351 0.01925804839
v 0.001753574004 0.007355039939 0.01329476107
v 0.001757527934 -0.007353533991 0.01329476573
v 0.001759676612 0.0007118810317 0.02282697894
v 0.001795453252 -0.007339265198 -0.003291914007
v 0.001799196005 0.0006421364378 0.02280819602
v 0.001799542108 -0.0006406092434 0.02280819975
v 0.001859497861 0.006696314085 0.01653391309
v 0.001863096957 -0.006694751326 0.01653390191
v 0.001902288059 0.006494490895 -0.003231681418
v 0.001923095202 0.001962943235 0.02235221304
v 0.001924148295 -0.001961347181 0.02235220559
v 0.001972648548 -0.0003326181322 0.02271054126
v 0.001974374754 0.004643524531 0.02046296373
v 0.001976868371 -0.004641901236 0.02046295442
v 0.002032993594 0.003338951617 0.02152132057
v 0.00203478965 -0.003337294795 0.02152132429
v 0.002050195355 0.006107953843 0.01800017618
v 0.002053478966 -0.006106287241 0.01800018363
v 0.002091687871 -0.005413814913 0.01930275932
v 0.002146024257 -0.006922742818 0.01502055861
v 0.002156381961 8.606785968e-07 0.02257857099
v 0.002197267488 0.007625072263 0.01007338054
v 0.002201364841 -0.007623328827 0.01007337309
v 0.002371411072 0.008316711523 0.0004129286099
v 0.002373531461 0.008330523036 0.0006239681388
v 0.002378500765 0.0009655378526 0.02228155918
v 0.002379019279 -0.0009636987816 0.02228156105
v 0.002405088861 0.006387502886 0.0166141782
v 0.002408521948 -0.006385649554 0.01661417447
v 0.002413262147 0.007105916739 0.01344503462
v 0.002417081734 -0.007104058284 0.01344503369
v 0.002498127753 0.005005111918 0.01935077831
v 0.002500816947 -0.005003206898 0.019350769
v 0.002526514698 0.005743813701 0.0180569943
v 0.002529601334 -0.005741893779 0.01805698313
v 0.002545388415 0.000479467999 0.02222375944
v 0.00254564546 -0.0004775382695 0.02222376131
v 0.002603032859 0.002287719399 0.0215766374
v 0.002604262438 -0.002285758965 0.02157663368
v 0.002654281678 0.007830752991 0.00705556618
v 0.002658491023 -0.007828762755 0.007055578288
v 0.002663507592 9.978576826e-07 0.02214952931
v 0.002670886228 0.003693287028 0.02055922896
v 0.002672869246 -0.003691289108 0.02055921964
v 0.002742921934 -0.006608780473 0.01513019763
v 0.002864734503 -0.008226734586 0.00041584883
v 0.002867231146 -0.008239918388 0.0006266612327
v 0.002935575554 0.006012659054 0.01669198275
v 0.00293767266 0.007372505032 0.01027810387
v 0.002938807942 -0.006010518875 0.01669198647
v 0.002941634273 -0.007370363921 0.0102780927
v 0.002990635345 0.005314957816 0.01811708324
v 0.002993491013 -0.005312786438 0.01811708137
v 0.003049144754 0.001157904044 0.02158237994
v 0.003049766179 -0.001155703329 0.0215823818
v 0.003057346679 0.006788455416 0.01358623616
v 0.003060996067 -0.006786248647 0.01358624641
v 0.003089296166 0.007996042259 0.003952287603
v 0.003093593288 -0.007993818261 0.003952282015
v 0.003153748577 1.128704298e-06 0.02165770344
v 0.003188738134 0.000580660475 0.02157040499
v 0.00318904873 -0.000578385836 0.0215703994
v 0.003291410394 0.003998351749 0.01946907118
v 0.003293558955 -0.003996020183 0.01946907118
v 0.003299003467 0.002557079541 0.0206567999
v 0.003300377168 -0.002554744715 0.0206567999
v 0.003323125886 -0.006225361954 0.01523501705
v 0.003421624191 0.008117978461 0.0006303510745
v 0.003451172495 0.005568530876 0.01677108556
v 0.003454165766 -0.005566112697 0.01677109115
v 0.003457516665 0.00757368654 0.007277013268
v 0.00346158701 -0.007571265567 0.007277015131
v 0.003661658615 0.007048987318 0.01047054678
v 0.003665445838 -0.00704645738 0.01047054213
v 0.003683149116 0.006398969796 0.01371988561
v 0.003686588258 -0.006396428216 0.01371988747
v 0.003764566267 0.001305917278 0.02071979083
v 0.003765266156 -0.001303330879 0.02071978338
v 0.003882378805 0.005771704949 0.01533782762
v 0.003882411169 0.004254762083 0.01826046221
v 0.003884696169 -0.004252113402 0.01826045103
v 0.00388548011 -0.005769056268 0.01533782203
v 0.003900864162 0.0006568243261 0.02073335834
v 0.003901216667 -0.0006541658076 0.02073336765
v 0.003938089125 0.007735061459 0.004171571229
v 0.003940665629 0.007839686237 8.200898446e-05
v 0.003942247014 -0.007732381579 0.004171579145
v 0.003954764921 -0.005049222615 0.01685525663
v 0.003960920498 0.007908726111 0.0002358913189
v 0.003965170588 -0.007906032726 0.0002359033824
v 0.003974730615 0.007955964655 0.0004220344708
v 0.003978051245 0.00796766486 0.0006344259018
v 0.003979032859 -0.007953355089 0.0004226109595
v 0.003982332535 -0.007964964956 0.0006344293943
v 0.003993765917 0.002780672628 0.01959901117
v 0.003995259758 -0.002777965274 0.01959900744
v 0.004174736794 0.007897157222 0.0008240879397
v 0.004178981297 -0.007894351147 0.000824095041
v 0.004224316217 0.007788137533 0.0001734360703
v 0.004228499252 -0.007785303053 0.0001734257094
v 0.004241774324 0.007244417444 0.007482965942
v 0.00424566865 -0.007241575047 0.007482978981
v 0.004257758148 0.007868885994 0.0005442259717
v 0.004261985887 -0.007866033353 0.0005442249239
v 0.00427843444 0.002115641488 0.01965492778
v 0.004279571585 -0.002112780465 0.01965492964
v 0.004287992138 0.005933776032 0.01384751871
v 0.004291180521 -0.005930909421 0.01384751406
v 0.004363484215 0.006650200114 0.01065023243
v 0.004367057234 -0.006647292059 0.01065022592
v 0.004387970548 1.459829264e-06 0.02016839571
v 0.00443352852 0.004464014899 0.0169452019
v 0.00443592621 -0.004461069126 0.01694519259
v 0.004460841417 0.007640900556 0.000110276902
v 0.004464946687 -0.007637939416 0.0001102799724
v 0.004500348121 0.001425072551 0.01969882101
v 0.004501111805 -0.001422090922 0.01969881169
v 0.004513012245 0.007738173474 0.0004505202232
v 0.004517171066 -0.007735183463 0.0004505237157
v 0.004644612782 0.0007175377104 0.01972728595
v 0.004644997884 -0.0007144805277 0.01972728781
v 0.004662155174 0.002964243293 0.01841585338
v 0.004663748201 -0.002961174818 0.01841586083
v 0.004764584824 0.007401268464 0.004372120835
v 0.004768562037 -0.007398144808 0.004372114316
v 0.004784743302 0.007396260742 5.560828868e-05
v 0.004788717721 -0.007393126376 5.560911086e-05
v 0.004854890984 0.007489431184 0.0003248972353
v 0.004858915694 -0.007486259099 0.0003249048605
v 0.00486915838 0.005389233585 0.01397063863
v 0.004872053396 -0.005386054516 0.01397063117
v 0.004881866742 0.003814341035 0.01703597046
v 0.004883915186 -0.003811154515 0.01703596488
v 0.004944879096 0.004632119089 0.01554597635
v 0.004975019954 0.002256876556 0.01848378032
v 0.004976232536 -0.002253639977 0.0184837766
v 0.004998824093 0.006837976165 0.007673093118
v 0.005002499092 -0.006834726781 0.007673095912
v 0.005037407391 0.00617182022 0.01081665326
v 0.005040723365 -0.006168549415 0.01081664953
v 0.005095372442 0.007502803113 0.001639873604
v 0.00509951869 -0.007499203086 0.00163995917
v 0.00516733015 0.007091368549 5.584207611e-05
v 0.005171139259 -0.007088027894 5.583298844e-05
v 0.005217151251 0.001521008904 0.01853809878
v 0.005217968021 -0.001517642173 0.01853810064
v 0.005242296495 0.007180699147 0.0003251346352
v 0.005246154033 -0.007177319378 0.0003251268645
v 0.005282330327 0.003113292158 0.01712200791
v 0.005284002051 -0.003109890968 0.01712200418
v 0.005373531953 0.0007661350537 0.01857413165
v 0.005373941734 -0.0007626839215 0.01857412234
v 0.005374481902 0.007349046413 0.00130788458
v 0.005378510337 -0.007345346268 0.001307978644
v 0.005420025904 0.004766564816 0.01408906002
v 0.005422586575 -0.004763090517 0.01408906467
v 0.005499012768 1.758082362e-06 0.0184662994
v 0.005558854435 0.006989016198 0.004554665647
v 0.005562610459 -0.006985465996 0.004554659594
v 0.005597205367 0.007106826641 0.0009861853905
v 0.005601068493 -0.007103059907 0.0009862629231
v 0.005620163865 0.002371261828 0.01719775237
v 0.005621437915 -0.002367678331 0.01719775982
v 0.005677664187 0.005609574262 0.01096931379
v 0.005680679809 -0.005605959333 0.01096932311
v 0.005720437039 0.006349394564 0.007847050205
v 0.005723848939 -0.006345756818 0.007847051136
v 0.005851775408 0.003233153839 0.01574068516
v 0.005853511859 -0.003229446709 0.01574068144
v 0.005880354438 0.001598544884 0.01725802384
v 0.005881212652 -0.001594821806 0.01725802384
v 0.005926663987 0.004076087847 0.01419941336
v 0.005928853992 -0.004072338808 0.01419940963
v 0.00595107954 0.005994055886 -0.0002089745831
v 0.00602674624 0.006962154992 0.002431878587
v 0.006030737888 -0.00695765391 0.002432062058
v 0.006047703791 0.0008053596248 0.01729782671
v 0.006048134994 -0.0008015470812 0.01729782112
v 0.006130677182 0.006153739057 5.641812822e-05
v 0.006132058334 0.00676948484 0.001463016379
v 0.006133983377 -0.006149880588 5.641692769e-05
v 0.00613569608 -0.006765624974 0.001463012071
v 0.006209922489 0.002463270212 0.01582124457
v 0.006211245898 -0.002459370997 0.01582124643
v 0.006217779592 0.006231256761 0.0003257175849
v 0.006221127696 -0.006227352191 0.0003257231729
v 0.00627156347 0.006791537628 0.002082180465
v 0.006275396794 -0.006787030492 0.002082360443
v 0.006275972351 0.004964481574 0.01110731624
v 0.006278639659 -0.004960543942 0.01110731065
v 0.006310973316 0.006492662709 0.004719979595
v 0.006314460654 -0.006488707382 0.004719973076
v 0.00637434097 0.003329108935 0.01429794636
v 0.006376130041 -0.003325121477 0.01429795194
v 0.006398372352 0.005773757584 0.008004518226
v 0.006401474588 -0.005769753829 0.00800452102
v 0.00645030709 0.00653955806 0.001741770539
v 0.006453924347 -0.006535076536 0.001741933986
v 0.006484525278 0.001660925802 0.01588438824
v 0.006485416554 -0.001656878972 0.01588438824
v 0.006549417507 2.039910669e-06 0.01634836569
v 0.006644680165 0.005714643747 0.0003259727091
v 0.006647752132 -0.00571050914 0.0003259849909
v 0.006660463288 0.0008369283169 0.01592558622
v 0.00666091172 -0.0008327864343 0.0159255825
v 0.00674739806 0.004954589531 -0.0002084934094
v 0.006748325191 0.002536945045 0.01438096724
v 0.006749686785 -0.002532755258 0.01438096352
v 0.00675005978 -0.004950401839 -0.0002084976004
v 0.006819334812 0.004247438163 0.01122893114
v 0.006821616553 -0.004243211355 0.01122893486
v 0.006948210765 0.005086579826 5.690784019e-05
v 0.006950943265 -0.0050822841 5.691315164e-05
v 0.006964189 0.006222827826 0.003159719752
v 0.006967888679 -0.006217514165 0.003159976797
v 0.007011012174 0.0059066182 0.00486880308
v 0.007014186587 -0.005902287085 0.00486880308
v 0.007023305632 0.005111807957 0.008144861087
v 0.007026051171 -0.005107471254 0.008144855499
v 0.007033841219 0.001710886951 0.01444475818
v 0.007034759969 -0.001706543495 0.01444476284
v 0.007045611273 0.005150654819 0.0003262159589
v 0.007047662511 0.006033995189 0.00224755099
v 0.007048378699 -0.005146306939 0.0003262234677
v 0.007050597575 -0.006029472686 0.002247433411
v 0.007153753191 0.006053377409 0.002789975377
v 0.007157261483 -0.00604813965 0.002790210769
v 0.007216097321 0.0008622239111 0.01448572427
v 0.007216558792 -0.0008577821427 0.01448571403
v 0.007270575967 0.005815336946 0.002427990548
v 0.007273850963 -0.005810215138 0.002428208478
v 0.007294243667 0.003470433177 0.01133241877
v 0.007296108641 -0.003465951653 0.01133242436
v 0.007384924684 0.00381083414 -0.000208110825
v 0.007386972196 -0.003806303255 -0.0002081091661
v 0.007463373709 2.285560185e-06 0.01398302522
v 0.007577489596 0.004231286235 0.0003265391861
v 0.007579762023 -0.004226651974 0.0003265371779
v 0.007583885919 0.004374879412 0.008266923018
v 0.007586236577 -0.004370241426 0.008266925812
v 0.007602721453 0.003912354819 5.730527482e-05
v 0.007604822516 -0.003907707985 5.730371413e-05
v 0.007649132516 0.00523131853 0.005001291167
v 0.007651941385 -0.005226646084 0.005001279991
v 0.007687190082 0.002645453671 0.01141601149
v 0.007688610349 -0.002640759107 0.01141600497
v 0.007708367426 0.003961639944 0.0003266162239
v 0.007710495498 -0.003956933971 0.0003266232379
v 0.007837442681 0.005270813592 0.003773689736
v 0.007841827348 -0.005264082458 0.003775474848
v 0.007850239985 0.002586866496 -0.0002078316611
v 0.007851629518 -0.002582085785 -0.0002078195976
v 0.007910510525 2.407300599e-06 -0.0003713735496
v 0.007972173393 0.005116515327 0.003386275144
v 0.007975997403 -0.005109974183 0.003388003912
v 0.007984659635 0.001784477499 0.01147789601
v 0.007985617965 -0.001779625425 0.01147790346
v 0.008028868586 0.004907339346 0.003005340695
v 0.00803205464 -0.004901021253 0.003007028718
v 0.008068541065 0.003575461917 0.008369523101
v 0.008070461452 -0.003570561996 0.008369517513
v 0.008080432191 0.00265577971 5.759264604e-05
v 0.008081858978 -0.00265087653 5.759170381e-05
v 0.008133549243 0.001308450825 -0.0002076526434
v 0.008134250529 -0.001303516445 -0.0002076552046
v 0.008173147216 0.0008994983509 0.01151634566
v 0.008173629642 -0.0008945415611 0.01151634753
v 0.008192096837 0.002689235611 0.0003269172739
v 0.008193540387 -0.002684271429 0.0003269086592
v 0.008215645328 0.004478451796 0.005116447341
v 0.008218050003 -0.004473474342 0.005116438027
v 0.008228888735 2.492106432e-06 -0.0002075900265
v 0.008239138871 2.496100706e-06 0.01152954809
v 0.008252964355 0.004578012973 0.003169196891
v 0.008255070075 -0.004572920036 0.003170915879
v 0.008371288888 0.001343305688 5.777790648e-05
v 0.008372010663 -0.001338244416 5.777495971e-05
v 0.008465697058 0.002726043109 0.008451418951
v 0.008467160165 -0.002720930846 0.008451416157
v 0.008469168097 2.556461823e-06 5.78380459e-05
v 0.008486616425 0.001360226306 0.0003270926827
v 0.008487346582 -0.001355103916 0.0003270880261
v 0.008539599366 2.575257895e-06 0.01045940258
v 0.008544497192 0.0008787178085 0.0003271272581
v 0.008544968441 -0.0008735611918 0.0003271285095
v 0.008571238257 0.00416051643 0.004275566433
v 0.008575801738 -0.004152991343 0.004278616048
v 0.008585728705 2.588509233e-06 0.0003271538008
v 0.008667263202 0.004022144713 0.003875603667
v 0.008670900017 -0.004014816135 0.003878572723
v 0.008679830469 0.003841236001 0.003481382504
v 0.008682568558 -0.003834155388 0.003484264249
v 0.008700883947 0.003660937538 0.005213160999
v 0.008702849969 -0.003655700246 0.005213152617
v 0.008763778955 0.001839117147 0.008511414751
v 0.008764766157 -0.001833845396 0.008511408232
v 0.008951215073 0.0009271747549 0.008548297919
v 0.008951711468 -0.0009218014893 0.008548293263
v 0.009016430937 2.702990287e-06 0.008560857736
v 0.009095179848 0.002791701583 0.005290322006
v 0.009096677415 -0.002786251483 0.005290313158
v 0.009112541564 0.002861229936 0.003812812502
v 0.009113899432 -0.002854784718 0.003813122865
v 0.009147374891 0.002913859673 0.00468376372
v 0.009149043821 -0.00290686707 0.004684050102
v 0.009186930954 0.002652213443 0.00387231377
v 0.009188108146 -0.002645750064 0.003872566856
v 0.009210508317 0.002797747264 0.004275445361
v 0.009211974218 -0.002790996572 0.004275696352
v 0.00938500464 2.801811661e-06 0.00681314012
v 0.009388862178 0.001883663004 0.005346805323
v 0.009389872663 -0.001878053532 0.005346809514
v 0.009518209845 0.001363455551 0.004152485635
v 0.009519822896 -0.001354800072 0.004156665877
v 0.009533977136 0.001527964603 0.00497420691
v 0.009538139217 -0.001518393517 0.004978605546
v 0.009569648653 0.001453303499 0.004560953472
v 0.009572263807 0.0009497453575 0.005381514784
v 0.009572499432 -0.001444169437 0.004565239418
v 0.009572773241 -0.0009440386784 0.005381517112
v 0.009576609358 0.0009767225711 0.004206916783
v 0.009577563964 -0.0009711642633 0.004209938925
v 0.009607935324 0.0006887561758 0.004237371031
v 0.009608770721 -0.0006816441892 0.00423943717
v 0.009639460593 2.87062835e-06 0.004269269295
v 0.009643533267 0.0007807891816 0.00506194029
v 0.009645613842 -0.0007732645608 0.005064107943
v 0.009668912739 0.0007386301295 0.00464734016
v 0.009670439176 -0.0007312870584 0.004649465438
v 0.009683261625 2.883680736e-06 0.005094884429
v 0.009704332799 2.888412155e-06 0.004679797217
f 28 10 12
f 11 4 9
f 9 22 11
f 527 530 531
f 86 504 111
f 515 534 449
f 167 198 194
f 64 28 12
f 12 10 64
f 736 746 729
f 746 734 729
f 6 4 1
f 86 111 98
f 22 69 29
f 11 22 29
f 801 784 553
f 504 177 139
f 139 111 504
f 184 177 504
f 572 551 490
f 444 435 391
f 189 195 200
f 505 183 189
f 189 200 505
f 183 185 189
f 189 185 195
f 200 209 216
f 505 200 216
f 49 64 10
f 432 515 449
f 449 344 432
f 863 856 831
f 880 878 873
f 548 493 524
f 686 650 622
f 864 867 875
f 875 866 864
f 534 574 546
f 728 696 734
f 8 9 4
f 4 6 8
f 8 6 527
f 1 4 24
f 436 357 388
f 357 370 388
f 388 547 436
f 357 325 362
f 362 370 357
f 315 325 357
f 500 572 490
f 536 547 596
f 762 553 758
f 758 553 784
f 553 541 802
f 808 787 824
f 808 804 780
f 824 804 808
f 791 787 762
f 762 758 791
f 791 758 784
f 762 787 773
f 773 752 762
f 780 752 773
f 773 808 780
f 787 808 773
f 780 804 776
f 747 776 737
f 710 737 703
f 484 480 412
f 490 551 484
f 407 175 409
f 472 407 409
f 409 480 472
f 496 465 472
f 496 529 518
f 488 496 518
f 465 496 488
f 391 435 387
f 387 379 391
f 534 546 506
f 302 281 278
f 505 253 288
f 288 303 505
f 303 288 286
f 286 248 281
f 286 288 253
f 638 640 648
f 302 344 314
f 303 286 314
f 314 281 302
f 314 286 281
f 200 195 197
f 197 209 200
f 242 253 505
f 505 216 242
f 242 216 209
f 133 157 162
f 162 183 505
f 505 133 162
f 168 185 183
f 183 162 168
f 168 162 157
f 180 185 168
f 151 150 137
f 90 113 72
f 72 28 90
f 28 64 90
f 72 113 104
f 150 254 161
f 252 151 137
f 252 138 241
f 137 138 252
f 515 432 499
f 489 519 499
f 499 589 515
f 519 589 499
f 817 830 811
f 862 830 855
f 855 866 862
f 855 817 851
f 830 817 855
f 871 873 878
f 494 444 477
f 750 726 706
f 750 785 777
f 483 494 525
f 435 444 483
f 444 494 483
f 712 685 672
f 493 548 521
f 583 548 601
f 601 618 583
f 550 528 579
f 605 622 579
f 605 579 556
f 556 579 528
f 508 521 544
f 493 521 508
f 550 519 501
f 501 528 550
f 686 622 658
f 658 622 605
f 777 748 753
f 753 750 777
f 726 750 753
f 661 618 601
f 601 629 661
f 614 644 592
f 819 792 788
f 777 785 815
f 707 650 686
f 811 800 790
f 862 866 870
f 874 873 837
f 837 872 874
f 880 873 874
f 874 872 880
f 833 872 837
f 833 870 872
f 833 830 862
f 862 870 833
f 866 875 877
f 880 872 877
f 877 870 866
f 872 870 877
f 440 506 437
f 437 506 546
f 413 437 546
f 755 558 723
f 558 728 723
f 530 527 533
f 531 530 533
f 533 541 531
f 558 802 533
f 533 802 541
f 692 728 558
f 558 533 692
f 692 533 675
f 696 728 692
f 375 413 573
f 573 638 375
f 640 638 573
f 573 546 574
f 573 413 546
f 617 573 574
f 640 573 617
f 736 729 709
f 734 696 709
f 709 729 734
f 696 692 677
f 677 692 675
f 677 709 696
f 22 9 14
f 9 8 14
f 14 8 527
f 3 5 1
f 3 49 10
f 3 36 49
f 2 6 1
f 1 5 2
f 527 6 2
f 2 533 527
f 5 533 2
f 186 182 136
f 111 139 123
f 139 140 123
f 158 139 177
f 4 39 35
f 35 24 4
f 39 37 35
f 15 3 1
f 36 3 15
f 479 362 325
f 479 235 204
f 516 450 536
f 357 450 345
f 345 315 357
f 422 500 490
f 547 388 595
f 595 596 547
f 595 388 370
f 642 596 595
f 504 642 595
f 455 357 436
f 455 450 357
f 536 450 455
f 455 476 536
f 436 547 523
f 523 547 536
f 536 476 523
f 558 800 813
f 813 800 811
f 801 553 814
f 812 784 801
f 812 791 784
f 801 814 812
f 839 804 824
f 824 841 839
f 730 693 553
f 730 553 762
f 762 752 730
f 676 541 553
f 553 693 676
f 774 752 780
f 780 776 774
f 776 747 774
f 725 703 737
f 412 480 411
f 480 409 411
f 480 484 502
f 529 496 502
f 472 480 502
f 502 496 472
f 545 567 522
f 196 193 204
f 349 192 400
f 400 465 452
f 452 488 477
f 465 488 452
f 477 444 452
f 353 190 192
f 186 136 148
f 192 190 149
f 149 160 192
f 190 148 149
f 145 160 149
f 149 148 136
f 400 192 172
f 192 160 172
f 172 175 407
f 477 488 509
f 522 494 509
f 509 494 477
f 509 488 518
f 509 545 522
f 518 545 509
f 465 403 405
f 405 407 472
f 472 465 405
f 405 172 407
f 403 172 405
f 359 333 186
f 467 506 440
f 454 506 475
f 449 534 454
f 534 506 454
f 454 467 440
f 440 437 454
f 437 413 454
f 302 278 271
f 635 638 648
f 635 648 505
f 356 314 344
f 356 413 375
f 356 454 413
f 356 344 449
f 449 454 356
f 194 197 191
f 191 167 194
f 195 185 188
f 188 197 195
f 188 191 197
f 167 191 188
f 188 164 167
f 188 185 180
f 180 164 188
f 199 197 194
f 209 197 201
f 201 199 202
f 197 199 201
f 246 242 209
f 253 242 246
f 246 286 253
f 248 286 246
f 72 104 97
f 137 118 121
f 121 138 137
f 100 124 121
f 121 124 241
f 241 138 121
f 113 90 92
f 147 161 156
f 150 161 147
f 135 118 137
f 135 147 144
f 137 150 135
f 150 147 135
f 156 167 154
f 167 164 154
f 154 147 156
f 144 147 154
f 130 157 133
f 130 168 157
f 26 31 30
f 251 161 254
f 254 300 251
f 251 300 341
f 71 74 100
f 81 110 125
f 108 110 81
f 81 101 108
f 74 55 81
f 489 499 453
f 453 499 432
f 432 421 453
f 336 432 344
f 336 344 302
f 302 271 336
f 796 790 786
f 796 817 811
f 811 790 796
f 863 871 868
f 868 871 878
f 868 856 863
f 850 861 845
f 785 750 778
f 778 816 785
f 651 623 600
f 551 572 600
f 637 705 662
f 680 705 637
f 657 714 680
f 392 442 393
f 393 352 392
f 571 620 589
f 571 519 550
f 571 589 519
f 679 656 628
f 577 556 544
f 605 556 577
f 624 658 605
f 605 577 624
f 624 628 656
f 700 669 706
f 706 726 700
f 726 694 700
f 700 665 669
f 694 665 700
f 685 712 720
f 669 665 626
f 654 644 614
f 614 626 654
f 654 626 665
f 684 644 654
f 654 694 684
f 654 665 694
f 76 84 50
f 125 110 225
f 688 624 656
f 658 624 688
f 679 738 713
f 744 688 713
f 713 656 679
f 713 688 656
f 781 721 742
f 769 748 777
f 748 769 732
f 732 769 756
f 671 644 684
f 618 661 683
f 679 628 683
f 683 628 618
f 681 661 629
f 629 671 681
f 681 671 698
f 681 683 661
f 721 683 681
f 581 629 601
f 581 548 524
f 601 548 581
f 612 592 644
f 644 671 612
f 612 671 629
f 629 581 612
f 819 788 809
f 788 781 809
f 738 788 767
f 767 713 738
f 744 713 767
f 767 788 792
f 785 816 822
f 822 815 785
f 846 844 815
f 864 853 860
f 844 846 860
f 860 867 864
f 860 846 867
f 740 707 686
f 707 740 724
f 724 763 736
f 724 740 763
f 775 746 736
f 736 763 775
f 857 855 851
f 866 855 857
f 864 866 857
f 857 853 864
f 783 558 755
f 783 800 558
f 783 790 800
f 786 790 761
f 761 771 786
f 761 783 755
f 790 783 761
f 755 723 761
f 761 723 728
f 675 533 663
f 663 677 675
f 505 648 663
f 663 533 505
f 648 667 663
f 667 677 663
f 58 69 22
f 22 14 58
f 86 69 58
f 58 14 527
f 58 504 86
f 58 527 504
f 10 28 20
f 20 13 10
f 7 3 10
f 10 13 7
f 5 3 7
f 7 533 5
f 7 13 533
f 107 133 505
f 107 97 104
f 111 123 131
f 131 123 140
f 27 35 37
f 24 35 27
f 370 362 482
f 362 479 482
f 482 595 370
f 504 595 482
f 482 184 504
f 193 184 482
f 204 193 482
f 482 479 204
f 325 315 304
f 315 297 304
f 304 479 325
f 304 297 479
f 479 297 264
f 287 297 315
f 287 264 297
f 536 596 608
f 608 516 536
f 330 272 337
f 500 422 433
f 450 516 433
f 433 516 500
f 433 345 450
f 433 337 345
f 433 422 330
f 330 337 433
f 490 484 417
f 330 422 420
f 420 327 330
f 420 417 327
f 420 422 490
f 490 417 420
f 315 345 282
f 282 287 315
f 249 287 282
f 436 523 456
f 456 455 436
f 821 802 558
f 558 813 821
f 553 802 821
f 821 814 553
f 814 821 829
f 829 833 837
f 829 821 813
f 831 812 826
f 826 812 814
f 814 829 826
f 818 831 856
f 818 812 831
f 818 856 852
f 852 841 818
f 791 812 818
f 714 745 768
f 768 745 766
f 689 745 714
f 689 714 657
f 687 623 651
f 659 623 687
f 766 741 764
f 741 725 764
f 737 776 764
f 764 725 737
f 735 730 752
f 752 774 735
f 735 774 747
f 703 725 691
f 674 636 691
f 531 541 664
f 541 676 664
f 664 527 531
f 332 411 409
f 332 179 327
f 412 411 332
f 637 602 619
f 567 599 584
f 599 619 584
f 584 619 602
f 529 502 542
f 542 484 551
f 542 502 484
f 204 235 210
f 159 158 177
f 139 158 159
f 159 140 139
f 159 153 140
f 398 396 192
f 192 349 398
f 398 349 400
f 400 452 398
f 398 452 396
f 192 396 394
f 394 353 192
f 391 353 394
f 394 444 391
f 394 452 444
f 396 452 394
f 143 153 145
f 140 153 143
f 143 131 140
f 155 160 145
f 145 153 155
f 400 172 401
f 401 172 403
f 401 465 400
f 401 403 465
f 190 353 364
f 364 359 190
f 364 353 391
f 391 379 364
f 187 359 186
f 190 359 187
f 186 148 187
f 187 148 190
f 475 506 470
f 506 467 470
f 470 454 475
f 467 454 470
f 231 271 278
f 231 278 281
f 281 248 231
f 205 211 203
f 203 201 202
f 203 167 205
f 198 167 203
f 194 198 203
f 203 199 194
f 202 199 203
f 303 314 340
f 314 356 340
f 340 356 375
f 375 638 340
f 638 635 340
f 505 303 340
f 340 635 505
f 224 213 171
f 171 167 156
f 156 161 171
f 100 121 95
f 95 121 118
f 95 71 100
f 92 71 95
f 113 92 115
f 115 95 118
f 92 95 115
f 144 154 152
f 180 168 152
f 152 164 180
f 152 154 164
f 168 130 142
f 142 152 168
f 144 152 142
f 347 300 254
f 341 300 347
f 347 402 341
f 161 251 239
f 239 171 161
f 301 352 293
f 252 262 255
f 255 254 150
f 151 252 255
f 255 293 352
f 262 293 255
f 150 151 255
f 64 49 67
f 49 71 67
f 67 71 92
f 67 90 64
f 67 92 90
f 45 71 49
f 74 71 45
f 45 55 74
f 26 30 45
f 34 45 30
f 55 45 34
f 34 30 31
f 103 81 125
f 125 225 103
f 100 74 103
f 74 81 103
f 103 124 100
f 101 81 61
f 61 81 55
f 88 101 61
f 84 88 61
f 50 84 61
f 489 453 445
f 861 850 854
f 854 865 861
f 816 778 806
f 845 816 806
f 621 600 572
f 651 600 621
f 621 674 651
f 621 636 674
f 613 582 630
f 630 582 602
f 672 613 630
f 630 602 637
f 637 662 630
f 352 393 395
f 397 347 395
f 395 347 352
f 392 352 363
f 434 442 392
f 598 571 550
f 620 571 598
f 550 579 598
f 598 579 622
f 598 622 650
f 650 620 598
f 566 577 544
f 544 521 566
f 566 521 548
f 548 583 566
f 397 395 451
f 451 442 493
f 493 508 451
f 451 393 442
f 451 395 393
f 628 624 597
f 597 624 577
f 618 628 597
f 597 583 618
f 597 566 583
f 577 566 597
f 685 720 695
f 727 750 706
f 706 701 727
f 701 695 727
f 727 695 720
f 77 76 50
f 78 76 77
f 108 101 244
f 244 110 108
f 686 658 715
f 658 688 715
f 715 688 744
f 715 740 686
f 759 788 738
f 759 781 788
f 721 781 759
f 815 844 805
f 777 815 805
f 805 769 777
f 805 844 827
f 711 732 698
f 711 671 684
f 698 671 711
f 748 732 711
f 679 683 704
f 704 683 721
f 704 738 679
f 704 759 738
f 721 759 704
f 742 721 717
f 721 681 717
f 717 681 698
f 698 732 717
f 717 756 742
f 717 732 756
f 562 581 524
f 592 612 562
f 562 612 581
f 614 592 564
f 853 835 842
f 842 809 827
f 842 835 819
f 819 809 842
f 847 816 845
f 847 865 869
f 845 861 847
f 861 865 847
f 763 740 765
f 765 715 744
f 740 715 765
f 765 767 792
f 744 767 765
f 707 724 690
f 607 617 574
f 607 574 534
f 534 515 607
f 515 589 607
f 838 803 835
f 838 835 853
f 853 857 838
f 775 803 779
f 819 835 798
f 835 803 798
f 798 792 819
f 798 765 792
f 763 765 798
f 798 775 763
f 798 803 775
f 771 761 751
f 751 779 771
f 751 728 734
f 751 761 728
f 68 28 72
f 68 20 28
f 72 97 68
f 104 130 122
f 122 107 104
f 122 130 133
f 133 107 122
f 145 149 134
f 134 149 136
f 134 143 145
f 131 143 134
f 33 27 37
f 33 54 43
f 24 27 23
f 52 77 50
f 78 77 52
f 46 52 50
f 235 479 250
f 479 264 250
f 247 287 249
f 264 287 247
f 247 250 264
f 249 219 247
f 235 250 247
f 247 210 235
f 219 210 247
f 516 608 590
f 572 500 590
f 500 516 590
f 590 621 572
f 590 608 636
f 636 621 590
f 643 596 642
f 643 608 596
f 642 653 643
f 636 608 643
f 330 327 276
f 327 179 276
f 276 272 330
f 276 179 272
f 415 484 412
f 415 417 484
f 327 417 415
f 412 332 415
f 415 332 327
f 249 282 232
f 468 456 523
f 455 456 468
f 834 829 837
f 837 873 834
f 831 826 834
f 834 826 829
f 873 871 834
f 863 831 834
f 834 871 863
f 825 829 813
f 811 830 825
f 825 813 811
f 830 833 825
f 833 829 825
f 787 791 797
f 791 818 797
f 797 818 841
f 824 787 797
f 797 841 824
f 804 839 836
f 839 854 836
f 714 768 739
f 760 705 739
f 705 680 739
f 739 680 714
f 708 725 741
f 741 687 708
f 674 691 708
f 708 691 725
f 651 674 708
f 708 687 651
f 745 689 716
f 716 687 741
f 716 689 659
f 659 687 716
f 766 745 716
f 716 741 766
f 710 735 731
f 731 735 747
f 731 737 710
f 731 747 737
f 527 664 649
f 504 527 649
f 649 653 642
f 697 676 693
f 697 735 710
f 693 730 697
f 730 735 697
f 335 409 175
f 175 332 335
f 335 332 409
f 174 332 175
f 179 332 174
f 160 155 174
f 175 172 174
f 174 172 160
f 606 623 659
f 518 529 557
f 557 545 518
f 631 680 637
f 637 619 631
f 657 680 631
f 631 619 599
f 549 494 522
f 525 494 549
f 522 567 549
f 567 584 549
f 163 159 177
f 214 231 248
f 214 211 205
f 326 283 331
f 274 283 326
f 221 213 224
f 209 201 207
f 201 203 207
f 207 203 211
f 128 142 130
f 128 104 113
f 128 130 104
f 113 115 128
f 399 347 397
f 402 347 399
f 397 451 399
f 224 171 220
f 220 239 224
f 171 239 220
f 294 251 341
f 294 239 251
f 254 255 311
f 311 255 352
f 311 347 254
f 352 347 311
f 49 36 38
f 38 45 49
f 26 45 38
f 38 15 26
f 36 15 38
f 40 34 41
f 41 46 40
f 55 34 40
f 414 453 421
f 414 445 453
f 421 326 414
f 414 326 331
f 334 294 341
f 239 294 334
f 868 865 858
f 865 854 858
f 856 868 858
f 852 856 858
f 858 854 839
f 858 841 852
f 858 839 841
f 749 720 712
f 770 806 778
f 778 749 770
f 770 757 795
f 795 806 770
f 672 685 645
f 645 613 672
f 669 626 632
f 604 586 576
f 416 387 435
f 346 352 301
f 346 363 352
f 273 293 262
f 510 562 524
f 493 442 481
f 442 434 481
f 524 493 481
f 481 510 524
f 82 57 85
f 441 389 423
f 237 101 88
f 237 244 101
f 756 769 794
f 769 805 794
f 742 756 794
f 794 781 742
f 794 805 827
f 827 809 794
f 794 809 781
f 684 694 719
f 719 711 684
f 719 694 726
f 748 711 719
f 726 753 719
f 719 753 748
f 587 564 537
f 537 559 587
f 614 564 587
f 587 626 614
f 849 842 827
f 853 842 849
f 849 860 853
f 827 844 849
f 844 860 849
f 832 822 816
f 816 847 832
f 815 822 832
f 832 846 815
f 880 877 879
f 879 877 875
f 879 878 880
f 652 690 667
f 646 690 652
f 648 640 652
f 652 667 648
f 667 690 702
f 702 677 667
f 709 677 702
f 736 709 702
f 702 724 736
f 702 690 724
f 673 620 650
f 650 707 673
f 707 690 673
f 617 607 641
f 640 617 641
f 641 652 640
f 646 652 641
f 840 857 851
f 840 838 857
f 851 817 840
f 817 796 840
f 746 775 772
f 775 779 772
f 779 751 772
f 772 734 746
f 772 751 734
f 97 107 80
f 80 68 97
f 80 107 505
f 48 4 11
f 48 39 4
f 89 29 69
f 89 69 86
f 44 33 37
f 54 33 44
f 60 57 43
f 43 54 60
f 60 54 62
f 85 57 60
f 60 87 85
f 60 62 87
f 42 33 43
f 42 46 41
f 43 57 42
f 41 34 42
f 24 23 18
f 1 24 18
f 26 15 19
f 27 33 32
f 32 23 27
f 31 23 32
f 33 42 32
f 32 34 31
f 32 42 34
f 647 691 636
f 636 643 647
f 653 691 647
f 647 643 653
f 272 179 181
f 181 232 272
f 272 232 279
f 279 232 282
f 279 337 272
f 345 337 279
f 279 282 345
f 223 219 249
f 223 212 219
f 474 523 476
f 474 468 523
f 476 455 474
f 455 468 474
f 793 768 766
f 639 642 504
f 504 649 639
f 639 649 642
f 653 649 668
f 668 649 664
f 703 691 668
f 668 691 653
f 153 159 166
f 166 155 153
f 159 163 166
f 594 606 625
f 625 606 659
f 625 689 657
f 659 689 625
f 569 606 594
f 594 557 569
f 529 542 569
f 569 557 529
f 578 557 594
f 578 599 567
f 567 545 578
f 545 557 578
f 568 582 525
f 525 549 568
f 602 582 568
f 568 584 602
f 568 549 584
f 222 214 248
f 211 214 222
f 329 326 421
f 329 421 432
f 432 336 329
f 329 336 271
f 271 274 329
f 274 326 329
f 240 283 274
f 274 221 240
f 224 283 240
f 240 221 224
f 205 167 206
f 167 171 206
f 206 214 205
f 218 246 209
f 209 207 218
f 218 207 211
f 211 222 218
f 248 246 218
f 218 222 248
f 144 142 132
f 142 128 132
f 132 135 144
f 132 128 115
f 118 135 132
f 132 115 118
f 47 46 50
f 47 40 46
f 50 61 47
f 47 61 55
f 55 40 47
f 243 103 225
f 124 103 243
f 478 469 501
f 445 469 478
f 489 445 478
f 478 519 489
f 478 501 519
f 408 469 445
f 331 334 408
f 402 399 464
f 464 399 451
f 290 334 331
f 239 334 290
f 331 283 290
f 224 239 290
f 290 283 224
f 722 662 705
f 722 705 760
f 733 718 757
f 733 749 712
f 757 770 733
f 733 770 749
f 699 712 672
f 699 733 712
f 718 733 699
f 754 727 720
f 720 749 754
f 754 749 778
f 754 778 750
f 750 727 754
f 685 695 655
f 655 645 685
f 615 645 655
f 613 645 593
f 593 645 615
f 511 483 525
f 669 632 660
f 706 669 660
f 379 387 369
f 387 416 369
f 369 364 379
f 363 346 338
f 258 262 252
f 258 273 262
f 258 252 241
f 241 124 258
f 124 243 258
f 289 273 258
f 386 418 434
f 392 363 386
f 386 434 392
f 438 418 377
f 507 559 537
f 233 88 84
f 233 237 88
f 423 389 372
f 372 384 423
f 846 832 848
f 848 832 847
f 646 641 634
f 634 641 607
f 634 690 646
f 634 673 690
f 620 673 634
f 589 620 634
f 634 607 589
f 803 838 823
f 838 840 823
f 823 796 786
f 823 840 796
f 20 68 51
f 68 80 51
f 505 533 51
f 51 80 505
f 182 285 169
f 65 48 11
f 11 29 65
f 29 89 65
f 86 98 116
f 116 89 86
f 116 98 111
f 111 131 116
f 53 42 57
f 46 42 53
f 52 46 53
f 57 82 53
f 78 52 53
f 53 82 78
f 26 19 21
f 21 31 26
f 21 23 31
f 21 18 23
f 212 223 215
f 249 232 215
f 215 223 249
f 204 210 176
f 176 196 204
f 193 196 176
f 176 184 193
f 766 764 799
f 799 793 766
f 799 776 804
f 799 764 776
f 804 836 799
f 760 739 789
f 789 739 768
f 768 793 789
f 782 810 795
f 782 722 760
f 760 789 782
f 782 789 810
f 843 854 850
f 843 836 854
f 795 810 828
f 845 806 828
f 828 806 795
f 828 850 845
f 828 843 850
f 810 843 828
f 676 697 678
f 678 664 676
f 678 668 664
f 678 697 710
f 710 703 678
f 703 668 678
f 170 174 155
f 155 166 170
f 166 176 170
f 179 174 170
f 594 625 616
f 599 578 616
f 616 578 594
f 616 631 599
f 657 631 616
f 616 625 657
f 606 569 580
f 580 600 623
f 623 606 580
f 551 600 580
f 580 542 551
f 580 569 542
f 213 221 208
f 208 171 213
f 208 206 171
f 236 221 274
f 236 274 271
f 469 408 406
f 406 334 341
f 406 408 334
f 445 414 410
f 410 408 445
f 410 414 331
f 331 408 410
f 487 451 508
f 487 464 451
f 662 722 682
f 682 722 718
f 718 699 682
f 682 630 662
f 672 630 682
f 682 699 672
f 615 655 627
f 563 593 540
f 525 582 563
f 563 582 613
f 613 593 563
f 563 511 525
f 540 511 563
f 483 511 461
f 435 483 461
f 461 416 435
f 540 593 565
f 565 593 615
f 670 701 706
f 706 660 670
f 586 604 611
f 603 587 559
f 626 587 603
f 603 632 626
f 603 610 632
f 378 369 416
f 333 359 306
f 186 333 306
f 306 308 285
f 306 182 186
f 306 285 182
f 85 87 234
f 234 82 85
f 377 418 368
f 418 386 368
f 368 338 377
f 363 338 368
f 368 386 363
f 382 438 377
f 382 372 389
f 389 441 427
f 427 382 389
f 438 382 427
f 418 438 460
f 510 481 460
f 434 418 460
f 460 481 434
f 562 510 539
f 592 562 539
f 539 564 592
f 491 507 537
f 360 372 354
f 384 372 360
f 354 312 360
f 360 312 317
f 289 284 307
f 265 284 289
f 289 258 265
f 265 258 243
f 610 603 585
f 859 847 869
f 859 848 847
f 859 875 867
f 859 879 875
f 867 846 859
f 846 848 859
f 807 779 803
f 803 823 807
f 771 779 807
f 786 771 807
f 807 823 786
f 13 20 25
f 20 51 25
f 533 13 25
f 25 51 533
f 66 65 89
f 182 169 126
f 89 116 114
f 114 116 131
f 62 54 63
f 63 73 75
f 54 44 63
f 93 63 75
f 87 62 93
f 62 63 93
f 18 21 17
f 1 18 17
f 17 21 19
f 232 181 178
f 178 215 232
f 212 215 178
f 219 212 178
f 178 170 176
f 178 210 219
f 178 176 210
f 178 181 179
f 179 170 178
f 184 176 173
f 177 184 173
f 173 163 177
f 173 166 163
f 173 176 166
f 722 782 743
f 757 718 743
f 718 722 743
f 795 757 743
f 743 782 795
f 810 789 820
f 820 843 810
f 836 843 820
f 820 789 793
f 820 799 836
f 793 799 820
f 206 208 217
f 217 208 221
f 221 236 217
f 231 214 217
f 214 206 217
f 271 231 217
f 217 236 271
f 404 464 469
f 469 406 404
f 402 464 404
f 341 402 404
f 404 406 341
f 517 508 544
f 517 487 508
f 544 556 517
f 517 556 528
f 538 565 588
f 588 565 615
f 615 627 588
f 588 627 604
f 374 351 383
f 666 627 655
f 666 670 627
f 666 655 695
f 666 695 701
f 701 670 666
f 609 660 632
f 632 610 609
f 604 627 633
f 633 611 604
f 627 670 633
f 633 670 660
f 660 609 633
f 633 609 611
f 339 306 359
f 359 364 339
f 364 369 339
f 369 378 339
f 308 306 339
f 78 82 227
f 82 234 227
f 459 427 441
f 510 460 485
f 485 460 438
f 485 539 510
f 497 471 424
f 424 471 429
f 507 491 462
f 462 441 423
f 462 491 441
f 256 225 110
f 110 244 256
f 256 243 225
f 256 265 243
f 260 291 317
f 237 233 260
f 289 307 305
f 305 307 338
f 305 273 289
f 301 293 305
f 293 273 305
f 305 346 301
f 305 338 346
f 377 338 342
f 338 307 342
f 342 382 377
f 570 585 554
f 554 520 570
f 554 585 575
f 575 603 559
f 575 585 603
f 559 507 526
f 526 535 559
f 507 462 526
f 526 462 471
f 526 471 497
f 497 535 526
f 876 859 869
f 879 859 876
f 878 879 876
f 869 865 876
f 876 868 878
f 876 865 868
f 70 94 99
f 89 114 91
f 91 114 94
f 91 66 89
f 91 94 70
f 70 66 91
f 129 136 182
f 182 126 129
f 56 44 37
f 56 37 39
f 39 48 56
f 48 65 56
f 65 66 56
f 146 141 106
f 266 141 146
f 277 141 266
f 285 308 277
f 277 266 285
f 105 93 75
f 259 227 234
f 16 19 15
f 16 17 19
f 16 15 1
f 1 17 16
f 487 517 495
f 469 464 495
f 464 487 495
f 501 469 495
f 528 501 495
f 495 517 528
f 461 439 431
f 383 378 431
f 540 565 513
f 513 565 538
f 576 532 560
f 538 588 560
f 560 604 576
f 560 588 604
f 538 560 514
f 514 560 532
f 308 339 343
f 343 339 378
f 351 308 343
f 383 351 343
f 343 378 383
f 229 76 78
f 78 227 229
f 438 427 448
f 427 459 448
f 448 485 438
f 459 485 448
f 539 485 512
f 537 564 512
f 564 539 512
f 512 485 459
f 512 491 537
f 317 291 320
f 291 322 320
f 384 360 365
f 429 384 365
f 365 371 429
f 365 360 317
f 317 320 365
f 365 320 371
f 376 320 322
f 371 320 376
f 322 328 376
f 348 424 376
f 376 328 348
f 429 371 380
f 380 424 429
f 371 376 380
f 380 376 424
f 429 471 446
f 471 462 446
f 446 384 429
f 423 384 446
f 446 462 423
f 268 256 244
f 317 312 268
f 244 237 268
f 237 260 268
f 268 260 317
f 280 307 284
f 284 265 280
f 265 256 280
f 372 382 350
f 382 342 350
f 354 372 350
f 350 342 307
f 591 570 586
f 585 570 591
f 586 611 591
f 611 609 591
f 610 585 591
f 591 609 610
f 555 532 576
f 576 586 555
f 543 535 497
f 559 535 543
f 543 575 559
f 120 129 126
f 120 99 94
f 136 129 120
f 59 63 44
f 44 56 59
f 70 73 59
f 73 63 59
f 59 66 70
f 59 56 66
f 165 146 106
f 266 146 165
f 165 169 285
f 285 266 165
f 313 361 318
f 93 105 238
f 238 234 87
f 87 93 238
f 238 259 234
f 292 259 238
f 416 461 419
f 461 431 419
f 419 378 416
f 419 431 378
f 390 374 383
f 492 513 538
f 463 443 492
f 457 492 443
f 513 492 457
f 486 439 461
f 486 461 511
f 486 457 439
f 513 457 486
f 486 511 540
f 540 513 486
f 374 390 425
f 425 390 443
f 425 443 463
f 261 260 233
f 491 512 466
f 466 512 459
f 441 491 466
f 466 459 441
f 309 312 354
f 354 350 309
f 309 268 312
f 307 280 309
f 309 350 307
f 256 268 309
f 309 280 256
f 561 570 520
f 520 555 561
f 586 570 561
f 561 555 586
f 554 575 552
f 575 543 552
f 552 543 497
f 497 520 552
f 552 520 554
f 119 120 126
f 119 165 106
f 106 99 119
f 99 120 119
f 119 126 169
f 169 165 119
f 117 134 136
f 136 120 117
f 131 134 117
f 117 114 131
f 94 114 117
f 117 120 94
f 96 73 70
f 70 99 96
f 257 112 127
f 127 277 257
f 141 277 127
f 112 96 127
f 310 313 277
f 310 308 351
f 310 277 308
f 374 361 355
f 361 313 355
f 351 374 355
f 355 310 351
f 313 310 355
f 245 238 105
f 105 109 245
f 245 112 257
f 245 109 112
f 257 277 245
f 428 390 383
f 383 431 428
f 428 431 439
f 439 457 428
f 443 390 428
f 428 457 443
f 503 514 463
f 463 492 503
f 538 514 503
f 503 492 538
f 498 555 520
f 532 555 498
f 385 361 374
f 374 425 385
f 76 228 226
f 84 76 226
f 226 233 84
f 226 261 233
f 228 261 226
f 76 229 230
f 230 228 76
f 296 259 292
f 291 260 295
f 260 261 295
f 295 322 291
f 295 328 322
f 73 96 83
f 83 96 112
f 112 109 83
f 102 99 106
f 102 96 99
f 106 141 102
f 141 127 102
f 102 127 96
f 238 245 267
f 267 318 292
f 292 238 267
f 267 313 318
f 277 313 267
f 267 245 277
f 367 424 348
f 473 426 430
f 498 426 473
f 532 498 473
f 463 514 473
f 473 514 532
f 497 424 458
f 458 426 498
f 424 367 458
f 458 367 426
f 458 520 497
f 458 498 520
f 430 373 366
f 366 385 430
f 361 385 366
f 318 361 366
f 447 425 463
f 447 385 425
f 430 385 447
f 463 473 447
f 447 473 430
f 270 261 228
f 228 230 270
f 292 318 321
f 318 366 321
f 321 366 373
f 79 109 105
f 79 83 109
f 79 105 75
f 75 73 79
f 73 83 79
f 299 296 319
f 269 230 229
f 269 270 230
f 328 295 316
f 348 328 316
f 323 319 296
f 323 296 292
f 292 321 323
f 263 229 227
f 263 269 229
f 227 259 263
f 259 296 263
f 263 296 299
f 275 263 299
f 269 263 275
f 270 269 275
f 298 295 261
f 298 316 295
f 261 270 298
f 270 275 298
f 298 275 316
f 348 316 324
f 324 367 348
f 324 319 367
f 316 275 324
f 299 319 324
f 324 275 299
f 430 426 381
f 381 373 430
f 367 319 358
f 319 323 358
f 426 367 358
f 358 381 426
f 358 323 321
f 358 321 373
f 373 381 358
