v -0.009577617049 -2.292762019e-06 0.0001618021197
v -0.009534306824 -7.175264909e-05 -0.005148672033
v -0.009508380666 0.0009791016346 0.0001119505177
v -0.009507853538 -0.0009836518439 0.0001119438457
v -0.009503791109 0.0007003145874 -0.005135294516
v -0.009481161833 -0.0009245357942 -0.005125952885
v -0.009454249404 -0.001017426606 0.002904759487
v -0.009389526211 0.001530807582 -0.005086085293
v -0.009337940253 -0.00178525364 -0.005064685829
v -0.009328187443 -0.001920666895 -0.002777023241
v -0.009312135167 0.001945985248 -1.73441058e-05
v -0.00931108743 -0.001950431266 -1.734008038e-05
v -0.009233928286 0.002011022763 0.002718285192
v -0.0091789281 0.002407327062 -0.004994845949
v -0.00914378278 -0.00252416241 -0.004980043508
v -0.009049998596 -0.0002000063541 0.02550991811
v -0.009049862623 -0.0002447653387 0.02550852112
v -0.009049067274 -0.0003206421679 0.02550571784
v -0.009046671912 0.002842799993 -0.002899621613
v -0.009045335464 -0.0004722251615 0.02549844235
v -0.009045141749 -0.002847101307 -0.002899620216
v -0.009040979668 0.002838178305 -0.004933828954
v -0.009034720249 -0.0002473273489 0.02558536455
v -0.009034531191 -0.0001992307225 0.02558636852
v -0.009033898823 -0.0003236480698 0.02558252215
v -0.009030099027 -0.00047609795 0.0255751349
v -0.009029348381 -0.0007744626491 0.02547703311
v -0.009027147666 -0.0001990952733 0.02560220286
v -0.009013893083 -0.0007800774765 0.02555334382
v -0.009008480236 0.0006165445666 0.02545540407
v -0.00900686346 0.002883814508 -0.0001956284832
v -0.009005313739 -0.002888092306 -0.0001956381166
v -0.008991369978 -0.0001988056028 0.02565127611
v -0.008989866823 -0.0003256929631 0.0256469436
v -0.008986071683 -0.0004782820761 0.02563947812
v -0.008969903924 -0.0007825572393 0.02561744303
v -0.008964538574 -0.0001988060976 0.0256736856
v -0.008963502012 -0.001373206265 0.02540512383
v -0.008960640058 0.0009949551895 0.02540398948
v -0.008947212249 -0.001382868853 0.02547997981
v -0.008944145404 0.001004542224 0.02547868527
v -0.008939078078 -0.001527402666 0.02537932619
v -0.008921509609 -0.0004785787023 0.02568323165
v -0.008905570954 -0.0007817785372 0.02566113137
v -0.008903394453 -0.001386560849 0.02554311231
v -0.008901154622 0.001008273102 0.02554243058
v -0.008876265958 0.001457915641 0.02531125024
v -0.008875867352 -0.001860026619 0.0253107585
v -0.008870490827 0.00329131051 -0.004857450258
v -0.008839977905 -0.001384179923 0.02558660507
v -0.00883612968 -0.003374687396 -0.004842743743
v -0.008806507103 0.00175686786 0.02523080446
v -0.008707164787 -0.002516753739 0.02510842867
v -0.008701296523 0.002134283073 0.02510200068
v -0.008691420779 -0.002568141557 0.02508821711
v -0.008687164634 -0.002537319437 0.02517559007
v -0.00868096482 0.002155054593 0.02516840771
v -0.008674284443 0.003730165539 -0.003031277331
v -0.008672277443 -0.00373426429 -0.00303126825
v -0.008643926121 -0.002547148848 0.02523337118
v -0.008638360538 0.002165496117 0.02522613853
v -0.008610562421 0.003778032959 -0.0003925217025
v -0.008608529344 -0.003782099811 -0.0003925224009
v -0.008584275842 -0.002545681782 0.025275141
v -0.008527033962 0.004042543471 -0.004699743353
v -0.00849009119 0.002740905154 0.02481485717
v -0.008446780965 -0.004196035676 -0.004663366824
v -0.008361117914 0.003048898885 0.02462595515
v -0.008320715278 0.003138326108 0.02456572093
v -0.008319620974 -0.003539522644 0.02456328459
v -0.008301054128 -0.003553888295 0.02462754212
v -0.008296193555 0.003165303497 0.0246211607
v -0.00825892482 -0.003568746615 0.02467659116
v -0.008254694752 -0.003293962218 0.02491009049
v -0.008254550397 0.003180187661 0.02467053942
v -0.008225487545 0.004565216601 -0.003148900578
v -0.008223031648 -0.004569078796 -0.003148897318
v -0.00820449274 -0.003570225555 0.02471447177
v -0.008141212165 0.004614100326 -0.0005775714526
v -0.008086985908 0.004813702777 -0.004490994383
v -0.007984106429 0.003789017908 0.02405816317
v -0.007971569896 -0.004990934394 -0.004437550902
v -0.0078631863 -0.004392880015 0.02386878803
v -0.007845481858 -0.004421514925 0.02384043485
v -0.007837926969 -0.004417219665 0.02391709946
v -0.007832235657 0.004025507253 0.02390858531
v -0.007797642145 -0.004433250986 0.02395773679
v -0.007792270277 0.004041938577 0.02394896373
v -0.007748521399 -0.004436473362 0.02399101667
v -0.007713710889 0.005334877409 -0.003229417605
v -0.00771084195 -0.00533846207 -0.003229408758
v -0.007616804913 0.005377461668 -0.0007203824352
v -0.007597174961 0.005513000768 -0.00424979534
v -0.007596262731 -0.00478562247 0.02350181341
v -0.007592500187 0.004391111434 0.02349389717
v -0.007556984201 -0.004803175572 0.02353608981
v -0.007553495001 0.004408770241 0.02352811769
v -0.007537549827 0.004481355194 0.02329548635
v -0.00751058571 -0.004808882717 0.02356506512
v -0.007469084114 -0.005674685352 -0.004184945952
v -0.007457965054 -0.004989359528 0.02313073538
v -0.007372136693 -0.005092046224 0.02303051762
v -0.007369204424 0.00469577685 0.02302256413
v -0.00735088205 -0.004965449218 0.02335566655
v -0.007333822083 -0.005111431237 0.02305657975
v -0.007331115194 0.004715241026 0.02304850146
v -0.007289910223 -0.005120286252 0.0230792854
v -0.00722546922 0.004885553848 0.02250481769
v -0.007188562769 -0.005321927834 0.0225037653
v -0.007186920848 0.004923793487 0.02249675617
v -0.007170340512 -0.005351814907 0.02230539173
v -0.007152390201 0.006026051007 -0.003249749076
v -0.007151097059 -0.005342445802 0.02252143808
v -0.007149644662 0.004944358487 0.02251432277
v -0.007149149198 -0.006029335316 -0.003249748144
v -0.007109106053 -0.00535365846 0.02253719047
v -0.007107194979 0.006094077602 -0.00399540225
v -0.007088087965 -0.00544809131 0.02192800678
v -0.007056391798 0.005077226087 0.02193397842
v -0.007055328693 0.006053572055 -0.0007905157399
v -0.007020217832 -0.005497376435 0.02195064165
v -0.007019750308 0.005098012742 0.02194495872
v -0.007002652623 -0.005544656422 0.0213448219
v -0.006979495287 -0.005509673618 0.02196062542
v -0.006946357433 -1.586596341e-06 0.02704540454
v -0.006925957743 -0.006284198724 -0.003899010597
v -0.006885396317 -0.005647986662 0.02076981403
v -0.006867717486 0.00614658324 0.00149740011
v -0.006808711682 0.0007693273947 0.02705565654
v -0.006808297709 -0.0007724271272 0.02705565654
v -0.006598774809 0.001527250861 0.02697061747
v -0.00659795478 -0.001530237263 0.02697060816
v -0.006563331932 0.006630442105 -0.00370039558
v -0.00655976776 -0.006633409765 -0.003700400237
v -0.006470971275 0.0007615045179 0.02719751559
v -0.006470561028 -0.0007644229918 0.02719752491
v -0.006429825909 0.006640389096 2.885827962e-05
v -0.006425574888 -0.006643499713 3.937240035e-05
v -0.006417797878 0.006756892428 -0.003618694143
v -0.006386072375 0.006655471399 0.0006474346155
v -0.006351297721 -1.42594115e-06 0.02727352269
v -0.006282555405 0.002259176224 0.02682599053
v -0.006281339563 -0.002261991613 0.02682599612
v -0.006267359946 0.001512227464 0.02711208351
v -0.006266546436 -0.001515031443 0.02711208351
v -0.006121328101 0.00676618889 0.003319212701
v -0.006093136966 -1.358930035e-06 0.02731163055
v -0.006024196744 0.0007587841828 0.02728505246
v -0.006023787893 -0.0007614606293 0.02728505246
v -0.005999913905 -0.007084024604 -0.003381106304
v -0.005965522025 0.006834974978 0.004592378624
v -0.00596275134 0.002238379093 0.02696522698
v -0.005961549003 -0.002241020557 0.02696521953
v -0.00588771468 0.002952089766 0.02661947161
v -0.005886128172 -0.002954690717 0.0266194623
v -0.005864992272 0.007131533697 -0.001399029046
v -0.005861157551 -0.007134124171 -0.001399019733
v -0.005836487748 0.001507058041 0.02720085345
v -0.0058356761 -0.001509633381 0.02720085159
v -0.005788824055 0.007119583897 0.0007986325072
v -0.005785843357 0.007232967298 -0.003250977257
v -0.00578499632 -0.00712213479 0.0007986265118
v -0.005765192676 0.003715882543 0.02600486018
v -0.005668307655 0.006957447156 0.007019484881
v -0.005585682113 0.002927653957 0.02675331943
v -0.005584108178 -0.002930094255 0.0267533157
v -0.005559286568 0.002231554128 0.02705236524
v -0.005558087956 -0.002233979292 0.02705235407
v -0.00551000284 0.007163553499 0.004695091397
v -0.005506151821 -0.007165953983 0.004695103038
v -0.005454299971 0.007014360745 0.00937936455
v -0.005450529046 -0.00701672677 0.009379366413
v -0.005444022827 0.003591064131 0.0263531357
v -0.005442091264 -0.003593428992 0.02635313943
v -0.005416017491 -1.176126375e-06 0.02730577439
v -0.005403707735 0.007010436617 0.01031099632
v -0.005387553945 -0.007479852531 -0.003009756561
v -0.005377824884 -0.004192284308 0.02575962804
v -0.00536170369 -0.00699195452 0.011343983
v -0.005347350147 0.004226786084 0.02573797107
v -0.005319097079 0.0068874727 0.01368049067
v -0.005292826332 0.006766415201 0.01544371247
v -0.005289189052 -0.006768693216 0.01544371434
v -0.005275636446 -0.006714265328 0.0161072854
v -0.005227987189 0.007189001422 0.008336578496
v -0.005224123131 -0.007191249169 0.008336570114
v -0.005221872125 0.002920361236 0.02683290653
v -0.005220301915 -0.002922606422 0.0268329028
v -0.005211243872 0.006528482772 0.01802936569
v -0.005155016668 0.007607440464 -0.002861961955
v -0.005151476711 0.007503183093 0.001034889719
v -0.00514837075 0.007153091021 0.01021988224
v -0.005147445016 -0.007505388465 0.001034877147
v -0.005144525785 -0.007155295461 0.01021987945
v -0.005125135183 0.006379664876 0.01935284398
v -0.005110509694 0.007074845023 0.01217046939
v -0.005106707104 -0.007077033166 0.01217047218
v -0.005019534845 0.006815776229 0.0160919968
v -0.005016557407 0.007435234729 0.004880950321
v -0.005015870556 -0.006817911286 0.01609198563
v -0.005012559239 -0.007437366061 0.004880951252
v -0.005004472099 0.004165087361 0.02601692639
v -0.005002234131 -0.004167212639 0.02601691894
v -0.004965065978 0.004631137475 0.02546232007
v -0.004936079029 0.00609582942 0.02137020417
v -0.004894718993 0.00664770091 0.01796954684
v -0.004891145509 -0.00664976798 0.01796955243
v -0.004878030159 0.007345057093 0.008468103595
v -0.004874080885 -0.007347116712 0.00846811384
v -0.004869665485 0.006404250395 0.0198242832
v -0.004866221454 -0.006406305358 0.01982428692
v -0.004856571089 0.00356211164 0.02653468028
v -0.004854654428 -0.003564162413 0.02653468028
v -0.004851841833 0.0007734381361 0.02722129412
v -0.004851425998 -0.0007754861144 0.02722128853
v -0.004848317243 0.0003880154982 0.02723042108
v -0.004848108161 -0.0003900592856 0.02723042108
v -0.00484537892 0.005940285046 0.02221959271
v -0.004844092764 -1.019337788e-06 0.02723237872
v -0.004838006571 0.007164289709 0.0122712953
v -0.004834332969 -0.004766860045 0.02534877323
v -0.004834155086 -0.007166326512 0.0122712953
v -0.004803134594 0.001531023183 0.02716219611
v -0.004802309908 -0.001533044619 0.0271622017
v -0.004766201135 0.005777390674 0.02295771614
v -0.004765181802 0.006882865448 0.01617052034
v -0.004761482589 -0.006884865928 0.01617051661
v -0.004752739333 0.005747430958 0.02308136038
v -0.004734907299 -0.007810558658 -0.002589513315
v -0.004658408929 0.002261791145 0.02703108452
v -0.004657192621 -0.002263736445 0.02703108639
v -0.004642867018 0.006171369459 0.02148910426
v -0.004640219733 0.006710058544 0.01802889816
v -0.004639549647 -0.006173304748 0.02148910426
v -0.004636612721 -0.006711994763 0.01802889816
v -0.004635686055 0.004665588029 0.02558950335
v -0.004633178469 -0.004667518195 0.0255894959
v -0.004631383345 0.00544179976 0.02415092476
v -0.004627811722 0.005431396421 0.02418138646
v -0.004622605164 0.005415847059 0.02422617376
v -0.004611474928 -0.005391987506 0.02429851703
v -0.004589869175 0.005056425463 0.02503155544
v -0.004587149248 -0.005058330484 0.02503155917
v -0.004581976682 0.005100697279 0.02495410293
v -0.004567431286 0.00506098941 0.02503827401
v -0.004507896956 0.004147589672 0.02614537627
v -0.004505668301 -0.004149449058 0.02614537254
v -0.00448688725 0.007915188558 -0.002416794188
v -0.004461770412 0.002950024325 0.02682194114
v -0.004460184835 -0.002951860195 0.02682193927
v -0.004451499786 0.007822383195 0.0013363912
v -0.004447294399 -0.007824211381 0.001336389803
v -0.004430181347 0.007680365816 0.005128872581
v -0.00442605326 -0.007682189811 0.005128873978
v -0.004417461809 0.005889825057 0.02293949015
v -0.004414295778 -0.005891637411 0.02293948457
v -0.00441375142 -0.007944297045 -0.002370512811
v -0.004399767146 0.005084512755 0.02505695634
v -0.004397033714 -0.005086316727 0.02505695634
v -0.004271900747 0.005541912746 0.02412951179
v -0.00426892098 -0.005543650128 0.02412951179
v -0.004266281147 0.005332252476 0.02462717518
v -0.004263415467 -0.005333986133 0.02462717146
v -0.00423778221 0.003587356536 0.02652385458
v -0.004235853441 -0.003589073895 0.02652385645
v -0.004232856911 -0.00510375388 0.02506086975
v -0.004223422613 0.004668111913 0.02565152943
v -0.004220912699 -0.004669818096 0.02565153316
v -0.004091631621 -0.001619253773 0.02703718655
v -0.004090470262 0.001691559097 0.0270288121
v -0.004069264047 0.0007768900832 0.02708820067
v -0.004050708376 0.005115003325 0.02503970079
v -0.004045629408 -0.0006112225237 0.02708879299
v -0.004023932852 0.004169247579 0.02612668835
v -0.00402169209 -0.004170847125 0.02612667345
v -0.004007715732 -0.008089650422 -0.002080058213
v -0.003998228814 0.00286341249 0.02678487636
v -0.003994214814 -0.002882735571 0.02677920088
v -0.003905621357 0.0001268767082 0.02706760354
v -0.003900263458 -7.70141412e-07 0.02706674486
v -0.003890899476 -0.003470826894 0.02654349059
v -0.003872269532 0.007424444426 0.01263402961
v -0.00386827765 -0.007425963879 0.0126340352
v -0.003857811214 0.004687914625 0.02561976016
v -0.003855291754 -0.004689427558 0.02561976016
v -0.003840900725 0.007101426367 0.01649372838
v -0.003839000361 -7.494724059e-07 0.02705415338
v -0.003837083001 -0.007102926262 0.01649372838
v -0.003812532406 0.007679450326 0.008896393701
v -0.003812419018 0.003842075821 0.02633533999
v -0.003808404552 -0.007680938113 0.008896400221
v -0.003801489016 0.008153998293 -0.001921535819
v -0.003757108003 0.0078944657 0.005426186603
v -0.003752863966 -0.007895921357 0.005426186137
v -0.003744670656 0.006902844645 0.01832110435
v -0.003740959568 -0.006904292386 0.01832110994
v -0.003729573917 0.004214585759 0.0260676574
v -0.003711598925 -0.004289208911 0.02600660175
v -0.003691616235 0.00807888899 0.001687388401
v -0.003687274177 -0.008080312051 0.001687380369
v -0.003660525661 0.004559730645 0.0257502161
v -0.003632315435 -0.004721084144 0.02557402104
v -0.003610428423 -0.004913103767 0.025331771
v -0.003604680067 -0.005159474909 0.0249583181
v -0.003574415809 0.006672810763 0.02000370249
v -0.003570829052 -0.006674168166 0.02000370622
v -0.003415625775 0.005181827582 0.02492082864
v -0.003392285202 0.001827053726 0.02685553953
v -0.003391302656 -0.001828317298 0.02685553953
v -0.003352180356 0.006401653402 0.02150914259
v -0.003348740051 -0.006402895786 0.02150913514
v -0.003321990371 0.001054192544 0.02690663375
v -0.003321422962 -0.001055416302 0.02690663002
v -0.003248339053 -0.008299749345 -0.001494757482
v -0.003239216981 0.0006892662495 0.02690680884
v -0.003238846548 -0.0006904480397 0.02690680325
v -0.003117373912 0.006077617873 0.02281687967
v -0.003114107996 -0.006078730803 0.02281687595
v -0.003108683042 0.008330428042 -0.001376304775
v -0.003026538063 -0.008347681724 -0.001311317668
v -0.003024737351 0.005214056931 0.02484761178
v -0.003021935001 -0.005215121433 0.02484760433
v -0.002955334727 0.00480479328 0.02540177107
v -0.002952752169 -0.0048058182 0.02540177107
v -0.002922956832 0.004346917383 0.0258387439
v -0.002920619212 -0.004347929265 0.02583875693
v -0.002907680348 0.003846079111 0.02617088519
v -0.002905612579 -0.003847079817 0.02617089078
v -0.00290384423 0.005691195372 0.02391161211
v -0.00290078437 -0.005692196079 0.02391161397
v -0.002891089069 0.003303878009 0.02641138621
v -0.002889312338 -0.003304871032 0.02641139366
v -0.002866708208 -0.0005120892311 0.02682350762
v -0.002857266925 0.002717598574 0.02657407895
v -0.00285580405 -0.002718571108 0.02657409012
v -0.002855758416 0.0005185038317 0.02682038955
v -0.002798801987 0.002071256982 0.02667427994
v -0.002797688358 -0.002072199248 0.02667428181
v -0.002732837573 -0.005235732533 0.02478771657
v -0.002696354408 0.001394359162 0.02672143653
v -0.002695604693 -0.001395248459 0.02672143839
v -0.002612160053 -4.204771074e-07 0.02677030116
v -0.002518557943 -0.008437153883 -0.0008644482004
v -0.002518445253 0.007335114758 0.01691870019
v -0.002514503896 -0.00733590778 0.01691868901
v -0.002506587422 0.0007604304701 0.02671670355
v -0.002488973783 0.007689188235 0.01313143689
v -0.002484840108 -0.007689966355 0.01313144062
v -0.002478001872 0.007105363067 0.01869019866
v -0.002474182285 -0.007106133737 0.01869020239
v -0.002395003801 -0.005267202388 0.02470396645
v -0.002392943017 0.006829436868 0.02029336989
v -0.002389271045 -0.006830161903 0.02029337734
v -0.002364043146 0.007963345386 0.009470205754
v -0.002359762555 -0.007964055985 0.009470197372
v -0.002315134276 0.008465488441 -0.0006694030599
v -0.002300560474 0.004887549207 0.0251835715
v -0.002297933446 -0.004888224415 0.02518357337
v -0.002278410131 0.006508473307 0.0216953326
v -0.002274911385 -0.006509139668 0.0216953326
v -0.002211688552 0.004479393363 0.02555739693
v -0.002209280385 -0.004480021074 0.02555740811
v -0.002194977133 0.008204799145 0.006111022551
v -0.002190566389 -0.008205416612 0.006111024879
v -0.002186948434 0.005292977672 0.02464045025
v -0.002159278607 0.006148057524 0.02287851833
v -0.002158719115 0.0003667766578 0.02664080821
v -0.002155974042 -0.006148656365 0.02287851647
v -0.002123743761 0.004046622198 0.02583939768
v -0.002121568192 -0.00404720474 0.02583939955
v -0.002052667318 0.00575303426 0.0238319207
v -0.002049574861 -0.005753579549 0.02383192256
v -0.002029534895 0.003593912581 0.02604252845
v -0.002027603565 -0.003594444133 0.02604252286
v -0.002010914264 0.008407825604 0.002471959917
v -0.002006396186 -0.008408347145 0.002471951535
v -0.001989776734 -0.001142639783 0.02653811127
v -0.001958770212 -0.005327562802 0.02455932833
v -0.001921944786 0.003120398615 0.02618046477
v -0.001920267823 -0.003120871494 0.02618045174
v -0.001891898923 0.008512126282 -0.0002467145096
v -0.001891233958 -0.008512243629 -0.0002515170781
v -0.001818681718 0.005352494307 0.02449917607
v -0.001815805444 -0.005352910608 0.02449916862
v -0.00181272591 -0.008519091643 -0.0001689548371
v -0.001793970237 0.002622257452 0.02626480348
v -0.001792560914 -0.002622662811 0.02626480162
v -0.001780048944 -1.965623255e-07 0.02653690428
v -0.001700986177 -0.00852789171 -4.871715646e-05
v -0.001685560332 0.00504468102 0.02486389875
v -0.001682849484 -0.005045023747 0.02486390062
v -0.001644384465 0.008531902917 1.939365939e-05
v -0.001636916539 0.00210163882 0.02630454674
v -0.001635910128 0.003779927967 0.02580957115
v -0.001635786612 -0.002101957332 0.02630454488
v -0.001633877633 -0.003780245315 0.0258095786
v -0.001551300753 0.004717240576 0.02515052631
v -0.001548764529 -0.004717512988 0.02515052445
v -0.001533685368 -0.005412384402 0.02435498312
v -0.001521825907 0.001510798931 0.02634625323
v -0.00143112056 0.001584925689 0.02630541101
v -0.001430267934 -0.001585133723 0.0263054166
v -0.001409655786 0.004367916845 0.02536962554
v -0.001407307107 -0.004368116148 0.02536962926
v -0.001344157732 0.002911471063 0.02601309866
v -0.001342591364 -0.002911633113 0.0260131117
v -0.001335268491 0.00545906974 0.02422812022
v -0.001332334825 -0.005459226202 0.02422811836
v -0.001258289209 0.00399992289 0.02553086914
v -0.001256139134 -0.004000037443 0.02553087287
v -0.001253262395 0.005759689026 0.02372050472
v -0.00125016598 -0.005759799387 0.02372051589
v -0.001216473524 0.005944124889 0.02333885059
v -0.001213278738 -0.005944218487 0.02333884686
v -0.001211168244 -0.008553707041 0.0005235067219
v -0.001194619341 0.006079673301 0.02302156016
v -0.001191350981 -0.006079750601 0.02302156016
v -0.001153113204 0.006435410585 0.02206292003
v -0.001149654971 -0.006435467396 0.02206291072
v -0.001143124769 -0.006507055834 0.0218436271
v -0.001140883425 0.006573855877 0.02162919939
v -0.001137349987 -0.006573906634 0.02162919566
v -0.001123957918 0.006782473065 0.0208917316
v -0.00112031179 -0.006782513112 0.0208917316
v -0.001116727712 0.006870314479 0.02054477856
v -0.001113035833 -0.006870353594 0.02054477483
v -0.001095158746 0.007094433066 0.01952800713
v -0.001091344864 -0.007094459608 0.01952801086
v -0.001088678837 -0.007699902169 -0.003588499734
v -0.001086586388 0.007164349779 0.01915993541
v -0.001082736067 -0.007164374925 0.01915993169
v -0.001055667992 0.007355071139 0.01798952185
v -0.001054614433 0.008557723835 0.0007310719811
v -0.001051716041 -0.007355077658 0.0179895144
v -0.001035954105 0.007445720956 0.0173324775
v -0.001031952212 -0.007445715368 0.01733247563
v -0.001009084284 0.005112315994 0.0245295316
v -0.001006337581 -0.005112298764 0.02452952601
v -0.000999100972 0.007578134537 0.01623079181
v -0.0009950279491 -0.007578112185 0.01623078994
v -0.0009825550951 0.005080461502 0.02455058508
v -0.0009624509257 -0.005059280433 0.02456403151
v -0.000935069751 0.007741746958 0.01459359005
v -0.000930907263 -0.007741687819 0.01459359378
v -0.0009149170946 0.003210377647 0.02571682259
v -0.0009136869921 0.0007887485554 0.02621456236
v -0.0009132624837 -0.0007886795793 0.02621456236
v -0.0009131922852 -0.0032103064 0.02571681701
v -0.0008990724455 0.004248729441 0.0251993183
v -0.0008967886097 -0.004248652607 0.02519931272
v -0.0008930061595 0.007822594605 0.01365883928
v -0.0008888012962 -0.007822508924 0.01365883648
v -0.0008285646327 0.002067316789 0.02599009499
v -0.0008274533902 -0.002067202469 0.02599009499
v -0.000812450482 -0.004868946038 0.02466917783
v -0.0007750701625 0.007991278544 0.0114676496
v -0.0007707753684 -0.00799113512 0.01146764401
v -0.000730432861 0.005480743013 0.02391095832
v -0.0007274867385 -0.005480576307 0.02391095459
v -0.0006750136381 -0.008558477275 0.001261734404
v -0.0006738621742 0.008558599278 0.001270341454
v -0.0006437472766 0.004637125414 0.02476825379
v -0.0006412560469 -0.004636909813 0.02476824634
v -0.0005608844804 0.004520089831 0.02480931021
v -0.0005236972356 0.008555413224 0.001506684814
v -0.0005031243199 0.007280036341 -0.00371609116
v -0.0005028775195 0.003521098988 0.02536821179
v -0.0005011626636 0.005869391374 0.02313337103
v -0.0005009858869 -0.003520810045 0.0253682062
v -0.0004980074009 -0.005869095679 0.02313337289
v -0.0004932199372 0.007332263514 0.01811764576
v -0.0004819341993 0.002338442951 0.02576645464
v -0.0004806774086 -0.002338137943 0.02576645464
v -0.0004609544121 -0.007676834706 -0.003721566405
v -0.0004328071664 0.004334275611 0.02486412041
v -0.0003156589228 0.006263499614 0.02217820846
v -0.0003122930939 -0.006263107527 0.02217820287
v -0.0003080486204 0.008394678123 0.005471867975
v -0.0003073844127 0.007728675846 0.01477450226
v -0.0003035355476 -0.008394282311 0.005471876822
v -0.0002319403429 2.176811336e-07 0.02598123625
v -0.0002317713079 0.004032450262 0.02493018471
v -0.0002199742448 -0.004017248284 0.02493279614
v -0.0002130835055 0.005051021464 0.02409026213
v -0.0002103689476 -0.005050573032 0.02409026213
v -0.0002038451639 0.002556619933 0.02556087635
v -0.0002024709684 -0.002556167077 0.02556087635
v -0.000201032206 -0.008540969342 0.002068609465
v -0.0001590250467 0.006640705746 0.02104094066
v -0.0001554555638 -0.006640230305 0.02104094066
v -0.0001469382696 0.008497994393 0.003256758908
v -0.0001065204706 0.003838697216 0.02496078424
v -8.783192607e-05 0.00853341911 0.002304719994
v -8.324566443e-05 -0.00853290502 0.002304721158
v -1.923457421e-05 0.006978270132 0.01972531714
v -1.704580609e-05 0.001549851382 0.02572573349
v -1.64825924e-05 0.008527600206 0.0024607745
v -1.621298543e-05 -0.001549297827 0.02572573163
v -1.548364344e-05 -0.006977720652 0.01972532086
v -1.189754494e-05 -0.008527040482 0.002460785676
v 5.412065366e-05 0.008521362208 0.002616722137
v 5.870083987e-05 -0.008520770818 0.002616719808
v 0.0001145022834 0.007257632446 0.01824204996
v 0.0001184027351 -0.007257011253 0.01824205555
v 0.0001233526564 0.00720764976 -0.003747964511
v 0.0001327561185 -0.007606152445 -0.003747646464
v 0.0001631394116 0.005482127424 0.02326604165
v 0.0001660850976 -0.005481472705 0.02326604165
v 0.0002514490334 -0.007481550332 0.0166354347
v 0.0002992966038 0.004491162952 0.02421899885
v 0.0003017110575 -0.004490443971 0.02421900444
v 0.0003222451487 -0.006496508606 0.02110596187
v 0.000382957136 0.007662813645 0.01496079285
v 0.0003870746004 -0.007662047632 0.01496078167
v 0.0003968296805 0.003025292186 0.02502555214
v 0.0003984559153 -0.003024517093 0.02502556331
v 0.000490352395 0.005907414947 0.02229155228
v 0.0004935259349 -0.005906590726 0.02229154482
v 0.0005225504283 -0.006842477713 0.01980795898
v 0.0005293088034 0.0007514127064 0.02557776682
v 0.0005297127645 -0.0007505696849 0.02557777613
v 0.0006754890201 0.007934642956 0.0116288187
v 0.0006791299093 -0.007497953717 -0.003687998746
v 0.0006797530223 -0.00793371629 0.01162881404
v 0.0006875536055 0.008502722718 0.002617625752
v 0.0007064971142 0.00712853903 0.01835092902
v 0.0007216324448 -0.002481479663 0.02503440529
v 0.0007403219934 0.002999999793 -0.003676202614
v 0.0007403222262 0.007083184086 -0.003676194698
v 0.0007547500427 0.002423978178 0.02503382601
v 0.0007788645453 0.006304804236 0.02116278745
v 0.0007822529296 -0.006303820759 0.02116278931
v 0.0007908827974 0.00494390307 0.02336902171
v 0.0007935421891 -0.004942917265 0.02336903103
v 0.0008232850232 0.003792389296 0.02429832146
v 0.0008253229898 -0.0037913837 0.02429832332
v 0.0008674655692 -0.002233042847 0.02502956055
v 0.001009591389 0.008148147725 0.008567292243
v 0.001013970352 -0.008147044107 0.008567289449
v 0.001039700932 0.006654779427 0.01987940073
v 0.001043277909 -0.006653657649 0.01987941004
v 0.001065765857 0.007539470214 0.01513370499
v 0.001129544456 5.836203059e-07 0.02528351359
v 0.001206532121 -0.007352488581 -0.003550606081
v 0.00122317567 0.006062136963 0.02121255733
v 0.001226434018 -0.006060915533 0.02121255733
v 0.001241432736 0.005374280736 0.02238142863
v 0.001244322164 -0.005373050459 0.02238143608
v 0.001264005201 -0.008463421836 0.002618949395
v 0.001282883226 0.006942323875 0.01844719984
v 0.001286614221 -0.006941073574 0.01844718866
v 0.001334259636 -0.001427225419 0.0249647405
v 0.00133986643 -0.003600001568 -0.003502470441
v 0.001339867013 -0.007309044711 -0.00350246625
v 0.001344881486 0.006907358766 -0.003500541206
v 0.001350460923 0.001398988301 0.02496069856
v 0.001350782695 0.008322126232 0.005454238039
v 0.001355255605 -0.008320841007 0.005454243626
v 0.001369882957 0.002935214201 0.02434795909
v 0.001371461665 -0.002933917567 0.02434796095
v 0.001404325361 0.004236753099 0.0234472584
v 0.001406601863 -0.004235434812 0.02344725281
v 0.001518123783 -0.007170676254 0.01690316387
v 0.001526310341 0.001092271763 0.02491103299
v 0.001544411061 0.006410550792 0.01994229294
v 0.001547856256 -0.006409157999 0.01994229667
v 0.001590116764 0.008433429524 0.002620327519
v 0.00159496488 -0.00843163766 0.002620151965
v 0.001653734478 0.005766767543 0.02125790343
v 0.001656834851 -0.005765316077 0.02125791647
v 0.001738347928 0.007355035748 0.01529463846
v 0.00174230081 -0.007353538182 0.01529464312
v 0.001743003144 0.0007118760259 0.02482684702
v 0.001782527193 0.0006421352737 0.02480808832
v 0.001782870386 -0.000640615297 0.02480807714
v 0.001843778184 0.006696306169 0.01853379607
v 0.001847378444 -0.006694754586 0.01853380725
v 0.001901783398 -0.007094706874 -0.003231990384
v 0.001902287593 0.003000000026 -0.003231684677
v 0.00190228771 0.006694491021 -0.003231688403
v 0.001906492282 0.001962936949 0.02435210533
v 0.001907547703 -0.001961351605 0.02435211465
v 0.00194807793 -0.0003468075593 0.02471549995
v 0.001958059613 0.00464352034 0.02246287651
v 0.001960554859 -0.004641905893 0.02246287651
v 0.001968800789 -0.0003096433938 0.02470219694
v 0.002016518032 0.003338945331 0.02352122962
v 0.002018312924 -0.003337301081 0.02352123521
v 0.002034254372 0.006107949186 0.02000009827
v 0.002037536353 -0.006106295623 0.02000009455
v 0.0021305345 -0.006922749802 0.01702049561
v 0.00213974691 8.569138572e-07 0.0245785173
v 0.002182528842 0.007625069469 0.01207332965
v 0.002186626196 -0.007623332553 0.01207332779
v 0.002337929094 0.008319780231 0.002411892172
v 0.002340025967 0.008333769627 0.00262382417
v 0.002361910185 0.0009655319736 0.02428153343
v 0.002362428466 -0.0009637007606 0.0242815353
v 0.00236875983 0.006475485861 -0.00290714018
v 0.002389358589 0.006387500092 0.01861416548
v 0.00239279028 -0.006385654211 0.01861415245
v 0.002398013137 0.007105912082 0.01544502191
v 0.002401831793 -0.007104060147 0.01544501912
v 0.002402417595 -0.006858137902 -0.002879387699
v 0.002481980482 0.005005104467 0.02135076188
v 0.002484672004 -0.005003208295 0.02135077119
v 0.00251365127 -0.005741898436 0.02005698159
v 0.002528805751 0.0004794628767 0.02422374859
v 0.002529062796 -0.0004775447596 0.02422375232
v 0.002586548915 0.002287714044 0.02357664146
v 0.002587778028 -0.00228576595 0.02357664146
v 0.002640000777 0.007830749266 0.0090555856
v 0.002644209424 -0.007828767411 0.009055586532
v 0.002646936569 9.926787925e-07 0.02414954267
v 0.002654556883 0.003693283303 0.02255924232
v 0.002656540833 -0.003691291902 0.02255924046
v 0.00272741518 -0.006608786993 0.01713022217
v 0.002753790002 -0.00666383747 -0.002545412397
v 0.002893291879 -0.008218194358 0.002415224211
v 0.002895819489 -0.008231478743 0.002626973437
v 0.00291983271 0.006012655329 0.01869203337
v 0.002922902815 0.007372498978 0.01227815822
v 0.002923064167 -0.006010524929 0.01869203895
v 0.002926864428 -0.007370366715 0.01227815356
v 0.00297467527 0.005314953625 0.02011714503
v 0.002977531636 -0.005312794354 0.02011714131
v 0.003032660577 0.001157900435 0.02358246222
v 0.00303328177 -0.001155706239 0.02358245477
v 0.00304207555 0.006788449828 0.01558630913
v 0.003045723541 -0.006786255632 0.01558631379
v 0.003075485583 0.007996038534 0.005952361971
v 0.003079781774 -0.00799382478 0.005952359643
v 0.00315253716 1.127123937e-06 0.02364137582
v 0.003172255121 0.0005806561094 0.0235705059
v 0.003172566649 -0.0005783879897 0.02357050404
v 0.003275244962 0.00399834523 0.02146917582
v 0.003277393989 -0.003996024374 0.02146917209
v 0.003282658756 0.002557074651 0.02265691198
v 0.003284033155 -0.002554750303 0.0226569213
v 0.003307604464 -0.00622536568 0.0172351338
v 0.003408308141 0.008117979392 0.002630490344
v 0.00343541801 0.005568525754 0.01877122745
v 0.003438409884 -0.005566120613 0.01877121814
v 0.003443202702 0.007573683746 0.009277157485
v 0.003447271883 -0.007571271621 0.009277150966
v 0.003646858735 0.007048982661 0.01247071009
v 0.003650648054 -0.007046458311 0.0124707222
v 0.003667858196 0.00639896607 0.01572006382
v 0.003671296407 -0.006396433339 0.01572005823
v 0.003748211777 0.001305911806 0.02271996811
v 0.003748911899 -0.001303337514 0.02271996252
v 0.003866428975 0.004254755564 0.02026065253
v 0.003866841318 0.005771700758 0.01733802259
v 0.003868715605 -0.004252118059 0.02026065253
v 0.003869943088 -0.005769058596 0.0173380319
v 0.003884507576 0.0006568181561 0.02273356542
v 0.00388486078 -0.0006541687762 0.02273356728
v 0.00392424548 0.007735056337 0.00617178157
v 0.003928401973 -0.007732389029 0.006171779707
v 0.003938996233 -0.005049230997 0.01885545626
v 0.003947674762 0.007908724248 0.002236119471
v 0.003961413633 0.007955815643 0.002421334153
v 0.003964743111 0.007967659272 0.002634635195
v 0.003965715878 -0.00795321539 0.002421919955
v 0.003969024867 -0.007964968681 0.002634638688
v 0.003977583256 0.00278066867 0.02159923688
v 0.003979076166 -0.002777968999 0.02159922384
v 0.004161401186 0.007897153497 0.002824332099
v 0.004165644757 -0.007894356735 0.002824337455
v 0.004211077001 0.007788131479 0.00217367732
v 0.00421526283 -0.007785305846 0.002173688728
v 0.004227429163 0.00724441465 0.009483234957
v 0.00423132116 -0.007241581101 0.009483221918
v 0.004244463984 0.007868882269 0.002544474322
v 0.004248691723 -0.007866039872 0.00254447409
v 0.004262242932 0.002115638228 0.02165519446
v 0.004263378214 -0.00211278745 0.02165518329
v 0.00427268073 0.00593377091 0.01584777981
v 0.004275869578 -0.005930913612 0.0158477854
v 0.00434865756 0.006650195457 0.01265050936
v 0.004352230579 -0.006647298578 0.01265050564
v 0.00440041488 1.46448906e-06 0.0221296493
v 0.004417746793 0.004464009777 0.0189454779
v 0.004420144949 -0.004461075179 0.0189454779
v 0.004447612446 0.007640894037 0.002110566245
v 0.004451718181 -0.007637943607 0.002110565081
v 0.004484148696 0.001425067312 0.02169911377
v 0.004484913778 -0.001422094414 0.02169911191
v 0.004499733448 0.007738171611 0.002450818429
v 0.004503889941 -0.007735190913 0.002450810978
v 0.004628410097 0.0007175343926 0.02172760293
v 0.004628795199 -0.0007144820993 0.02172760665
v 0.004646150395 0.002964236541 0.02041617222
v 0.004647744354 -0.002961179009 0.02041618153
v 0.004750710446 0.007401263341 0.006372447591
v 0.004754688591 -0.007398147136 0.006372454576
v 0.004771523643 0.007396256085 0.002055944409
v 0.004841629881 0.007489427924 0.002325238893
v 0.004845655058 -0.007486263756 0.002325252164
v 0.004853827879 0.005389227998 0.01597098261
v 0.004856724758 -0.005386055913 0.01597099379
v 0.004866072442 0.003814338474 0.01903633028
v 0.004868120886 -0.003811160568 0.01903632283
v 0.004929309711 0.004632112104 0.01754633151
v 0.004959004931 0.002256868873 0.02048413828
v 0.004960217047 -0.002253646497 0.02048414201
v 0.00498444913 0.006837972905 0.009673457593
v 0.004988123663 -0.006834731437 0.009673457593
v 0.00502255559 0.006171814166 0.01281703636
v 0.005025872961 -0.006168551743 0.0128170345
v 0.005081912968 0.007502797525 0.003640257521
v 0.005086062942 -0.007499203086 0.003640355542
v 0.005154110026 0.007091363426 0.002056237543
v 0.005201128311 0.001521003782 0.02053849958
v 0.005201946013 -0.001517646015 0.02053850703
v 0.005229035858 0.007180693559 0.002325535985
v 0.005232894793 -0.007177320309 0.002325538779
v 0.005266522057 0.003113287268 0.01912241615
v 0.005268193781 -0.003109896788 0.01912241615
v 0.00535750296 0.0007661294076 0.02057455294
v 0.005357913207 -0.0007626917213 0.02057454921
v 0.00536107365 0.007349043619 0.003308318788
v 0.005365102552 -0.0073453472 0.003308403306
v 0.005404677708 0.004766561091 0.016089499
v 0.005407238845 -0.004763095174 0.01608950086
v 0.005522262305 1.7651505e-06 0.02039782889
v 0.005544953048 0.006989011075 0.006555118132
v 0.005548709072 -0.006985470187 0.006555126514
v 0.005583845079 0.007106821984 0.002986647654
v 0.005587709136 -0.007103058975 0.002986729145
v 0.00560434442 0.002371256007 0.01919822581
v 0.005605618469 -0.002367683919 0.01919822767
v 0.005662789568 0.00560956914 0.01296979096
v 0.005665804725 -0.00560596399 0.01296979655
v 0.005706035532 0.006349391304 0.009847530164
v 0.005709447432 -0.006345761474 0.009847532026
v 0.00583617622 0.00323314569 0.01774118096
v 0.005864525214 0.001598539879 0.0192585215
v 0.005865384359 -0.001594825531 0.01925852522
v 0.005911298562 0.004076082725 0.01619991846
v 0.005913488567 -0.004072344862 0.01619991846
v 0.006013167556 0.006962151732 0.004432408139
v 0.006017164793 -0.006957648788 0.004432591144
v 0.006031868514 0.0008053554338 0.01929835416
v 0.006032300647 -0.0008015492931 0.01929835044
v 0.006091171876 1.918495173e-06 0.01931273192
v 0.006117458455 0.006153733935 0.002056966536
v 0.006118625402 0.006769481115 0.003463550238
v 0.006120765116 -0.006149882451 0.002056968631
v 0.006122262683 -0.006765631493 0.003463552799
v 0.00619431166 0.002463265788 0.01782179624
v 0.006195635069 -0.002459374489 0.01782180183
v 0.006204519421 0.00623125257 0.002326277085
v 0.006207867991 -0.006227354985 0.002326282905
v 0.006258038338 0.006791535299 0.004082753323
v 0.006261076778 0.00496447552 0.01310788002
v 0.006261874456 -0.006787022576 0.004082927015
v 0.006263744086 -0.004960548133 0.01310788002
v 0.006297046319 0.006492658518 0.006720549893
v 0.006300534587 -0.006488711108 0.006720546633
v 0.006358961575 0.003329104278 0.01629853249
v 0.00636075018 -0.00332512497 0.01629853062
v 0.006383947097 0.005773753393 0.01000509877
v 0.006387048867 -0.005769759882 0.0100050969
v 0.006436833646 0.006539554335 0.003742363304
v 0.006440451369 -0.006535072345 0.003742534434
v 0.006468904205 0.001660923474 0.01788497902
v 0.006469795946 -0.001656883513 0.01788497902
v 0.006575241685 2.049535851e-06 0.01825283654
v 0.006631420925 0.005714640953 0.002326602582
v 0.006634491496 -0.005710513797 0.002326601418
v 0.006644835696 0.0008369216812 0.01792619564
v 0.006645285524 -0.0008327905671 0.01792620681
v 0.006732932292 0.002536941553 0.01638159901
v 0.006734294817 -0.002532759681 0.01638160087
v 0.006804421078 0.004247434903 0.01322958246
v 0.006806701887 -0.004243217874 0.01322957687
v 0.006934991106 0.005086575169 0.002057580976
v 0.006937723607 -0.005082288757 0.002057580277
v 0.006950499956 0.0062228241 0.005160391331
v 0.006954207551 -0.006217499729 0.005160656758
v 0.006997062359 0.005906613078 0.006869475357
v 0.007000236772 -0.005902291741 0.00686948048
v 0.007008858491 0.005111803301 0.01014552917
v 0.007011605427 -0.005107474979 0.01014553476
v 0.007018439937 0.001710881712 0.01644544676
v 0.00701935729 -0.001706550946 0.01644543745
v 0.007032352034 0.005150652956 0.002326907124
v 0.00703410944 0.006033989135 0.004248226061
v 0.007035118062 -0.00514631113 0.00232689851
v 0.007037040778 -0.006029473618 0.004248122685
v 0.00714011956 0.006053372286 0.004790679086
v 0.007143632043 -0.006048130337 0.004790922161
v 0.007200688589 0.0008622191963 0.01648642123
v 0.007201151457 -0.0008577852859 0.01648642868
v 0.007256996818 0.00581533229 0.004428706132
v 0.007260272745 -0.005810208619 0.004428927321
v 0.007279314101 0.003470428986 0.01333313808
v 0.007281178609 -0.003465955844 0.01333314832
v 0.007498757448 2.293912758e-06 0.01583654061
v 0.007564228959 0.004231281113 0.002327302936
v 0.007566503249 -0.00422665244 0.00232730899
v 0.007569422014 0.004374876153 0.01026769727
v 0.007571771741 -0.004370243289 0.01026768889
v 0.007589501794 0.003912351094 0.002058072481
v 0.007591603789 -0.003907710779 0.002058081562
v 0.007635161746 0.005231313407 0.007002052385
v 0.007637972943 -0.005226648413 0.007002058905
v 0.007672246546 0.002645446919 0.01341678482
v 0.007673667278 -0.002640762832 0.01341678109
v 0.007695106789 0.003961635754 0.002327399096
v 0.007697234396 -0.003956938628 0.002327397233
v 0.007823656313 0.005270808004 0.005774493329
v 0.007828054018 -0.005264065694 0.005776290782
v 0.007837059908 0.002586863702 0.00179297314
v 0.00783844851 -0.002582092537 0.001792972209
v 0.007958446629 0.005116508808 0.005387095269
v 0.007962277159 -0.005109962542 0.005388842896
v 0.007969709113 0.001784475869 0.01347873081
v 0.007970665582 -0.001779631944 0.01347872149
v 0.008015200496 0.004907338414 0.005006177817
v 0.008018387482 -0.004901009146 0.005007871892
v 0.008054060861 0.003575458424 0.0103703551
v 0.008055980317 -0.003570565488 0.01037034765
v 0.008067212999 0.002655774821 0.002058432205
v 0.008068638854 -0.002650879789 0.002058434067
v 0.008120369166 0.001308446517 0.001793193049
v 0.008121072315 -0.001303517958 0.001793197938
v 0.008158190176 0.0008994949167 0.01351720002
v 0.008158672601 -0.0008945447044 0.01351719908
v 0.008178836666 0.002689233981 0.002327774651
v 0.008180280216 -0.002684274921 0.002327769995
v 0.008201657794 0.004478446208 0.007117298897
v 0.008204063401 -0.004473478068 0.007117299363
v 0.008215707727 2.487346592e-06 0.001793258358
v 0.008224179968 2.490336556e-06 0.01353041641
v 0.008239271119 0.004578009713 0.005170063116
v 0.00824137032 -0.004572923295 0.005171787925
v 0.008358069696 0.001343301497 0.002058661543
v 0.008358789608 -0.001338249887 0.002058659215
v 0.008451203816 0.002726040781 0.01045231428
v 0.008452666923 -0.002720934339 0.01045231149
v 0.008455947973 2.551428679e-06 0.002058727667
v 0.008473357186 0.001360224443 0.002327999566
v 0.008474086411 -0.001355108572 0.002327994443
v 0.00853123609 0.0008787108236 0.002328034025
v 0.008531707339 -0.0008735654992 0.002328034956
v 0.008557374589 0.004160511307 0.006276478991
v 0.008561951108 -0.004152977373 0.006279535592
v 0.008572468534 2.584845561e-06 0.002328069648
v 0.008589275181 2.588030156e-06 0.01222036313
v 0.008653461002 0.004022142384 0.00587653555
v 0.008657105267 -0.004014803562 0.005879520904
v 0.008666088805 0.003841233207 0.005482309498
v 0.008668827824 -0.003834145609 0.005485205445
v 0.008686881512 0.003660931252 0.007214083336
v 0.008688848466 -0.003655702807 0.007214088459
v 0.0087492764 0.001839111792 0.01051235572
v 0.008750263602 -0.001833849703 0.01051235385
v 0.008936707862 0.0009271700401 0.01054927241
v 0.008937203325 -0.0009218077757 0.0105492603
v 0.009001920931 2.697682703e-06 0.01056183316
v 0.009081164375 0.002791694133 0.007291302085
v 0.009082663804 -0.002786257537 0.007291303016
v 0.009098749608 0.002861227375 0.005813803058
v 0.009100104682 -0.002854786348 0.0058141388
v 0.009133451618 0.00291385781 0.006684774999
v 0.009135131724 -0.002906853333 0.006685056724
v 0.009173128754 0.002652210183 0.005873315502
v 0.00917430874 -0.002645739587 0.005873580463
v 0.009196644649 0.002797742141 0.006276450586
v 0.009198118933 -0.002790985163 0.006276724394
v 0.009362847544 2.793956355e-06 0.008855362423
v 0.009374841116 0.001883660443 0.007347852457
v 0.00937585067 -0.001878057956 0.007347844075
v 0.009504367597 0.001363450545 0.006153545342
v 0.009505980648 -0.001354801003 0.006157715339
v 0.00952000916 0.001527959364 0.006975267082
v 0.009524176829 -0.001518391073 0.006979661994
v 0.009555744939 0.001453300472 0.006562020164
v 0.009558237158 0.0009497404099 0.007382588927
v 0.009558598511 -0.001444165944 0.006566319615
v 0.00955874566 -0.0009440429276 0.007382587995
v 0.00956275966 0.0009767179145 0.006207981613
v 0.009563714266 -0.0009711678722 0.006211013533
v 0.009594081901 0.0006887539639 0.006238450762
v 0.009594916366 -0.00068164611 0.006240504794
v 0.009625603445 2.868123829e-06 0.006270352751
v 0.009629554115 0.0007807871443 0.007063018624
v 0.009631637484 -0.0007732656668 0.007065196987
v 0.009654996917 0.000738626637 0.006648419425
v 0.009656523354 -0.0007312888629 0.006650548894
v 0.009669276886 2.876168764e-06 0.007095952518
v 0.009690411389 2.882874242e-06 0.00668087462
f 466 161 190
f 529 2 5
f 5 2 1
f 7 4 12
f 1 4 7
f 70 32 59
f 12 53 48
f 48 7 12
f 12 32 55
f 55 53 12
f 55 32 70
f 154 163 75
f 173 163 154
f 579 599 578
f 578 580 579
f 579 580 599
f 555 580 578
f 599 747 778
f 248 466 190
f 93 466 80
f 92 112 93
f 529 5 505
f 505 5 8
f 80 466 505
f 505 466 319
f 599 580 713
f 713 747 599
f 76 79 80
f 62 79 76
f 58 62 76
f 3 11 8
f 8 5 3
f 3 5 1
f 1 30 3
f 1 2 6
f 6 4 1
f 67 59 51
f 11 3 47
f 856 823 841
f 345 348 444
f 288 348 345
f 283 348 288
f 125 130 136
f 129 131 46
f 46 37 129
f 129 37 125
f 46 131 61
f 61 47 46
f 154 75 61
f 67 82 77
f 56 48 53
f 53 55 56
f 165 173 154
f 154 152 165
f 165 152 187
f 212 165 187
f 173 165 212
f 120 112 92
f 120 137 133
f 122 182 119
f 531 565 540
f 300 294 254
f 133 137 139
f 139 466 133
f 161 466 139
f 319 466 292
f 466 248 292
f 133 466 117
f 466 93 117
f 117 93 112
f 117 120 133
f 112 120 117
f 92 93 90
f 90 93 80
f 90 79 92
f 80 79 90
f 49 19 58
f 4 6 9
f 21 59 32
f 21 51 59
f 15 51 21
f 21 32 12
f 31 19 11
f 31 68 62
f 31 62 58
f 58 19 31
f 46 47 41
f 41 28 46
f 30 28 41
f 11 47 52
f 52 61 57
f 47 61 52
f 39 3 30
f 39 47 3
f 30 41 39
f 39 41 47
f 860 873 881
f 844 839 825
f 825 815 599
f 600 629 576
f 576 565 600
f 540 565 576
f 848 852 817
f 848 817 813
f 848 813 833
f 833 856 848
f 823 856 833
f 680 629 648
f 648 629 600
f 364 294 300
f 620 558 568
f 345 436 350
f 514 444 452
f 452 444 348
f 440 444 514
f 440 436 345
f 345 444 440
f 96 107 99
f 78 73 89
f 372 368 417
f 222 254 294
f 283 288 227
f 288 207 227
f 604 828 816
f 604 717 578
f 835 828 604
f 578 599 604
f 599 835 604
f 797 818 793
f 781 757 793
f 822 818 797
f 868 875 864
f 781 760 743
f 743 757 781
f 247 213 203
f 470 518 508
f 125 136 141
f 147 148 141
f 131 129 144
f 144 152 131
f 154 61 142
f 142 61 131
f 142 152 154
f 131 152 142
f 187 152 167
f 152 144 167
f 7 48 42
f 42 38 7
f 42 48 40
f 40 38 42
f 33 37 46
f 46 28 33
f 16 30 1
f 130 44 50
f 50 132 130
f 64 132 50
f 125 37 43
f 43 130 125
f 43 44 130
f 70 59 63
f 63 83 70
f 63 77 83
f 63 59 67
f 67 77 63
f 94 91 101
f 94 101 102
f 102 96 94
f 82 91 84
f 83 77 84
f 84 77 82
f 91 94 84
f 48 56 60
f 145 132 153
f 153 168 145
f 145 136 130
f 130 132 145
f 72 75 86
f 75 88 86
f 249 212 187
f 187 167 249
f 163 173 180
f 180 204 88
f 180 75 163
f 180 88 75
f 538 631 557
f 538 557 478
f 478 456 538
f 456 522 538
f 128 120 108
f 137 120 128
f 128 108 119
f 119 137 128
f 600 565 589
f 569 625 589
f 517 547 569
f 489 531 540
f 479 522 456
f 157 150 177
f 134 150 138
f 886 850 846
f 846 850 843
f 843 839 846
f 846 839 844
f 888 850 886
f 887 850 888
f 888 886 894
f 894 887 888
f 811 825 805
f 599 778 805
f 805 825 599
f 843 835 827
f 827 839 843
f 827 835 599
f 599 815 827
f 815 825 827
f 827 825 839
f 14 505 8
f 8 11 14
f 11 19 14
f 80 505 65
f 505 49 65
f 65 49 58
f 58 76 65
f 65 76 80
f 461 433 478
f 525 465 493
f 525 461 465
f 478 557 525
f 493 465 491
f 478 525 491
f 491 525 501
f 491 461 478
f 465 461 491
f 646 629 680
f 765 789 753
f 10 9 15
f 10 21 12
f 15 21 10
f 12 4 10
f 4 9 10
f 69 68 72
f 62 68 69
f 54 52 57
f 894 886 891
f 873 890 893
f 894 891 893
f 837 852 854
f 837 854 811
f 821 817 837
f 837 817 852
f 844 869 876
f 876 846 844
f 844 825 831
f 831 869 844
f 811 854 831
f 831 825 811
f 854 852 871
f 509 440 514
f 436 440 509
f 499 519 490
f 499 504 519
f 499 428 504
f 504 509 563
f 693 652 636
f 602 576 629
f 629 646 602
f 796 817 821
f 821 788 796
f 792 765 755
f 792 789 765
f 792 796 789
f 792 813 817
f 817 796 792
f 621 648 600
f 600 589 621
f 621 589 625
f 678 648 653
f 648 621 653
f 776 740 798
f 784 733 756
f 763 733 784
f 782 763 784
f 457 364 480
f 460 488 480
f 480 539 457
f 558 539 480
f 355 364 457
f 457 452 355
f 355 452 348
f 355 348 283
f 376 480 364
f 300 320 376
f 376 364 300
f 549 568 558
f 549 488 460
f 460 568 549
f 261 241 107
f 422 368 360
f 296 288 345
f 345 350 296
f 434 350 436
f 436 509 434
f 434 509 504
f 353 350 431
f 431 428 353
f 350 434 431
f 504 428 431
f 431 434 504
f 457 539 524
f 524 452 457
f 514 452 524
f 524 539 613
f 306 350 353
f 353 234 306
f 306 296 350
f 306 234 211
f 211 296 306
f 256 234 311
f 311 234 353
f 311 360 256
f 353 360 311
f 70 83 71
f 71 55 70
f 71 56 55
f 71 60 56
f 73 60 71
f 85 71 83
f 73 71 85
f 83 84 85
f 85 84 94
f 203 78 178
f 78 89 178
f 221 89 99
f 221 178 89
f 203 178 221
f 143 155 153
f 64 155 143
f 153 132 143
f 143 132 64
f 74 155 64
f 78 155 74
f 64 60 74
f 74 73 78
f 74 60 73
f 174 78 203
f 174 155 78
f 203 213 174
f 153 155 166
f 166 174 213
f 155 174 166
f 419 417 368
f 372 322 304
f 157 177 162
f 121 183 184
f 283 222 291
f 291 222 294
f 291 355 283
f 294 364 291
f 364 355 291
f 826 604 816
f 618 826 806
f 604 826 618
f 749 604 771
f 797 793 791
f 791 771 797
f 797 771 790
f 790 822 797
f 853 868 849
f 849 818 853
f 834 824 804
f 804 808 834
f 804 824 799
f 783 760 781
f 783 736 760
f 875 868 879
f 882 890 879
f 882 870 877
f 877 885 882
f 632 659 613
f 632 558 620
f 632 539 558
f 613 539 632
f 620 568 619
f 159 145 168
f 159 231 224
f 168 231 159
f 136 145 159
f 213 247 265
f 278 281 332
f 135 144 129
f 135 141 148
f 135 129 125
f 125 141 135
f 158 167 144
f 158 135 148
f 144 135 158
f 148 223 158
f 44 43 36
f 36 50 44
f 24 28 30
f 30 16 24
f 1 7 27
f 7 38 27
f 418 366 416
f 329 366 260
f 260 262 329
f 212 249 264
f 264 246 212
f 264 277 331
f 249 277 264
f 571 593 542
f 672 695 644
f 631 538 612
f 593 644 612
f 612 538 522
f 522 542 612
f 612 542 593
f 478 433 375
f 433 392 375
f 354 289 282
f 156 139 137
f 161 139 156
f 156 160 161
f 169 160 164
f 286 206 233
f 233 206 210
f 182 122 189
f 210 205 232
f 232 205 218
f 545 517 569
f 531 517 545
f 569 589 545
f 565 531 545
f 545 589 565
f 476 517 531
f 531 489 476
f 476 418 416
f 489 418 476
f 210 232 305
f 150 134 474
f 314 320 300
f 300 276 314
f 314 474 320
f 811 805 801
f 801 805 778
f 778 788 801
f 801 788 821
f 801 837 811
f 821 837 801
f 22 49 505
f 505 14 22
f 19 49 22
f 22 14 19
f 497 525 493
f 501 525 497
f 493 491 497
f 497 491 501
f 557 631 596
f 707 646 680
f 672 646 707
f 765 753 748
f 748 753 729
f 755 765 748
f 748 729 755
f 755 729 722
f 729 698 722
f 722 698 689
f 658 644 695
f 631 612 658
f 658 612 644
f 72 86 81
f 81 69 72
f 81 86 79
f 81 79 62
f 62 69 81
f 13 31 11
f 13 54 31
f 11 52 13
f 52 54 13
f 68 31 66
f 31 54 66
f 66 54 57
f 72 68 66
f 57 61 66
f 66 75 72
f 66 61 75
f 892 890 882
f 892 887 894
f 894 893 892
f 892 893 890
f 882 885 892
f 892 885 887
f 889 893 891
f 889 881 873
f 873 893 889
f 842 864 859
f 864 875 859
f 627 634 656
f 886 846 884
f 846 876 884
f 884 891 886
f 865 831 854
f 869 831 865
f 854 871 865
f 865 871 869
f 848 856 867
f 867 852 848
f 867 871 852
f 891 884 880
f 880 884 876
f 880 889 891
f 880 876 869
f 869 871 880
f 770 753 789
f 789 796 770
f 770 796 788
f 770 788 778
f 770 778 747
f 747 753 770
f 649 617 630
f 760 736 708
f 645 659 696
f 613 659 645
f 630 617 591
f 572 509 514
f 572 563 509
f 605 625 569
f 569 547 605
f 652 625 605
f 605 636 652
f 666 636 615
f 615 638 666
f 693 636 666
f 666 705 693
f 559 535 515
f 407 411 383
f 175 148 147
f 780 759 782
f 782 813 780
f 813 792 780
f 780 792 755
f 678 653 700
f 700 733 678
f 756 733 700
f 678 733 709
f 680 648 709
f 709 648 678
f 709 733 763
f 756 776 803
f 803 784 756
f 798 823 803
f 803 776 798
f 823 833 803
f 807 813 782
f 782 784 807
f 807 833 813
f 807 803 833
f 784 803 807
f 558 480 502
f 502 549 558
f 480 500 502
f 502 500 549
f 243 221 99
f 107 241 243
f 330 368 372
f 330 261 368
f 353 428 426
f 426 360 353
f 428 499 426
f 368 261 318
f 318 360 368
f 318 261 256
f 256 360 318
f 211 207 235
f 235 296 211
f 235 207 288
f 288 296 235
f 87 89 73
f 73 85 87
f 87 96 99
f 99 89 87
f 87 94 96
f 87 85 94
f 237 247 203
f 203 221 237
f 237 243 259
f 221 243 237
f 477 518 470
f 477 532 518
f 477 419 490
f 417 419 477
f 470 412 414
f 414 477 470
f 417 477 414
f 372 417 414
f 414 412 372
f 420 368 422
f 420 419 368
f 420 422 490
f 490 419 420
f 259 243 263
f 261 330 263
f 241 261 263
f 263 243 241
f 372 304 263
f 263 330 372
f 303 304 322
f 193 177 229
f 170 162 193
f 193 162 177
f 179 172 186
f 186 172 170
f 186 194 179
f 201 194 186
f 170 193 186
f 186 193 201
f 179 194 197
f 254 222 197
f 200 121 184
f 184 183 200
f 200 227 207
f 207 121 200
f 200 222 283
f 283 227 200
f 200 197 222
f 183 197 200
f 124 207 211
f 124 121 207
f 211 234 124
f 105 96 102
f 107 96 105
f 209 201 254
f 209 194 201
f 254 197 209
f 209 197 194
f 816 828 840
f 840 826 816
f 840 835 843
f 840 828 835
f 766 793 757
f 766 791 793
f 822 790 802
f 779 618 806
f 806 802 779
f 779 802 790
f 604 618 779
f 771 604 779
f 779 790 771
f 868 853 872
f 872 870 882
f 882 879 872
f 872 879 868
f 855 872 853
f 857 834 849
f 824 834 857
f 849 868 857
f 857 868 864
f 857 864 842
f 842 824 857
f 814 834 808
f 814 818 849
f 849 834 814
f 781 793 814
f 814 793 818
f 814 783 781
f 808 783 814
f 777 799 741
f 741 725 777
f 777 725 758
f 777 758 804
f 804 799 777
f 703 741 762
f 741 799 762
f 830 795 820
f 842 859 820
f 820 859 830
f 736 783 764
f 578 686 690
f 278 231 250
f 250 281 278
f 250 265 281
f 250 231 168
f 213 265 250
f 275 265 247
f 328 332 281
f 281 265 328
f 328 275 298
f 265 275 328
f 224 231 269
f 270 223 271
f 35 43 37
f 35 36 43
f 45 36 40
f 50 36 45
f 40 48 45
f 48 60 45
f 64 50 45
f 45 60 64
f 1 27 20
f 29 38 40
f 29 27 38
f 40 36 29
f 36 35 29
f 228 106 238
f 425 359 423
f 366 418 421
f 421 359 366
f 421 423 359
f 421 418 489
f 489 423 421
f 255 359 310
f 310 232 255
f 255 232 218
f 255 238 260
f 255 228 238
f 97 242 244
f 88 204 97
f 204 242 97
f 218 205 114
f 106 228 114
f 114 205 210
f 114 122 119
f 371 329 262
f 371 383 411
f 416 366 371
f 366 329 371
f 331 277 334
f 334 277 270
f 230 223 270
f 270 277 230
f 230 277 249
f 230 249 167
f 167 158 230
f 230 158 223
f 246 264 274
f 274 297 301
f 331 373 327
f 327 373 369
f 204 180 202
f 202 236 204
f 202 180 173
f 246 236 202
f 173 212 202
f 212 246 202
f 245 242 204
f 204 236 245
f 245 262 244
f 244 242 245
f 267 236 246
f 267 274 301
f 246 274 267
f 522 479 513
f 513 542 522
f 479 471 513
f 622 593 571
f 622 644 593
f 571 602 622
f 622 602 646
f 622 646 672
f 672 644 622
f 319 375 356
f 356 505 319
f 299 375 319
f 319 292 299
f 293 299 253
f 198 196 182
f 182 189 198
f 198 189 206
f 140 146 160
f 140 156 137
f 160 156 140
f 140 137 119
f 119 146 140
f 164 160 151
f 160 146 151
f 151 146 119
f 119 176 151
f 151 176 164
f 191 248 190
f 160 169 191
f 190 161 191
f 161 160 191
f 220 282 289
f 289 293 220
f 220 198 282
f 196 198 220
f 253 196 220
f 220 293 253
f 192 196 208
f 208 196 253
f 208 199 192
f 253 199 208
f 171 169 164
f 164 176 171
f 171 176 169
f 169 176 185
f 199 191 185
f 185 191 169
f 192 199 185
f 185 176 192
f 119 182 181
f 181 176 119
f 182 196 181
f 181 196 192
f 192 176 181
f 210 206 195
f 206 189 195
f 195 189 122
f 195 114 210
f 122 114 195
f 425 423 495
f 495 423 489
f 495 489 540
f 456 354 451
f 451 479 456
f 451 443 479
f 344 443 347
f 354 282 347
f 347 451 354
f 443 451 347
f 286 344 347
f 347 282 286
f 439 344 435
f 439 443 344
f 479 443 439
f 435 471 439
f 439 471 479
f 352 232 310
f 352 305 232
f 310 359 352
f 352 359 425
f 295 233 210
f 210 305 295
f 286 233 295
f 295 344 286
f 429 177 150
f 150 474 429
f 229 177 429
f 429 257 229
f 276 257 429
f 429 314 276
f 474 314 429
f 82 474 100
f 100 91 82
f 101 91 100
f 506 82 67
f 506 474 82
f 67 51 506
f 506 51 15
f 15 9 506
f 506 9 6
f 506 382 474
f 254 201 252
f 252 257 276
f 229 257 252
f 300 254 252
f 252 276 300
f 252 193 229
f 201 193 252
f 567 525 557
f 557 596 567
f 461 525 567
f 433 461 567
f 641 596 631
f 727 695 672
f 672 707 727
f 727 707 759
f 713 698 716
f 716 698 729
f 729 753 716
f 747 713 716
f 716 753 747
f 697 713 580
f 580 698 697
f 697 698 713
f 580 555 685
f 685 698 580
f 689 698 685
f 711 722 689
f 668 658 711
f 711 658 695
f 695 727 711
f 809 774 786
f 809 823 798
f 841 823 809
f 862 873 860
f 860 851 862
f 883 879 890
f 883 890 873
f 819 809 786
f 819 858 841
f 841 809 819
f 691 656 682
f 863 856 841
f 863 867 856
f 841 858 863
f 881 889 878
f 889 880 878
f 871 867 878
f 878 880 871
f 710 764 734
f 736 764 710
f 728 743 760
f 760 708 728
f 624 645 673
f 673 645 696
f 696 728 673
f 673 728 708
f 624 572 594
f 613 645 594
f 594 645 624
f 594 572 514
f 514 524 594
f 594 524 613
f 603 591 563
f 563 572 603
f 603 572 624
f 630 591 603
f 511 534 562
f 706 694 732
f 732 739 706
f 786 774 751
f 515 535 492
f 535 482 492
f 475 449 482
f 584 561 615
f 615 636 584
f 636 605 584
f 584 605 547
f 535 559 587
f 587 561 535
f 559 610 587
f 615 561 587
f 587 638 615
f 587 610 638
f 533 584 547
f 561 584 533
f 517 476 468
f 321 323 365
f 365 371 321
f 383 371 365
f 149 159 224
f 149 175 147
f 136 159 149
f 147 141 149
f 149 141 136
f 224 269 215
f 215 269 273
f 215 149 224
f 175 149 215
f 756 700 724
f 724 776 756
f 740 776 724
f 735 709 763
f 759 707 735
f 735 707 680
f 680 709 735
f 735 763 782
f 782 759 735
f 460 480 415
f 480 376 415
f 415 506 619
f 415 568 460
f 415 619 568
f 343 376 320
f 343 382 376
f 320 474 343
f 474 382 343
f 494 480 488
f 494 500 480
f 488 549 494
f 549 500 494
f 99 107 104
f 104 243 99
f 107 243 104
f 422 360 424
f 360 426 424
f 490 422 424
f 424 499 490
f 424 426 499
f 247 237 268
f 268 275 247
f 268 285 298
f 298 275 268
f 268 303 285
f 512 477 490
f 532 477 512
f 490 519 512
f 541 566 532
f 541 512 519
f 532 512 541
f 372 378 351
f 372 412 384
f 384 378 372
f 266 263 304
f 304 303 266
f 259 263 266
f 303 268 266
f 266 237 259
f 266 268 237
f 183 121 127
f 127 197 183
f 179 197 127
f 127 172 179
f 170 172 127
f 127 162 170
f 116 234 256
f 116 124 234
f 256 261 116
f 116 261 107
f 107 105 116
f 832 826 845
f 826 840 845
f 870 832 845
f 845 877 870
f 757 730 750
f 750 766 757
f 870 872 866
f 872 855 866
f 866 832 870
f 866 855 832
f 832 855 812
f 812 802 806
f 806 826 812
f 812 826 832
f 703 762 719
f 719 762 752
f 752 732 719
f 719 694 703
f 719 732 694
f 773 739 768
f 768 795 773
f 768 732 752
f 739 732 768
f 706 739 715
f 721 688 715
f 715 677 706
f 688 677 715
f 800 795 830
f 842 820 810
f 810 824 842
f 810 799 824
f 810 762 799
f 785 783 808
f 785 764 783
f 785 808 804
f 804 758 785
f 785 758 734
f 734 764 785
f 717 730 699
f 578 717 699
f 699 690 686
f 699 686 578
f 723 730 757
f 757 743 723
f 723 699 730
f 690 699 723
f 213 250 188
f 188 250 168
f 188 166 213
f 188 168 153
f 153 166 188
f 396 380 374
f 374 380 332
f 332 328 374
f 406 380 396
f 278 332 335
f 332 380 335
f 279 271 216
f 216 271 214
f 214 271 223
f 214 175 216
f 214 223 148
f 148 175 214
f 34 33 28
f 37 33 34
f 34 35 37
f 1 20 18
f 28 24 23
f 23 24 16
f 26 20 27
f 27 29 26
f 26 29 35
f 35 34 26
f 317 255 260
f 359 255 317
f 260 366 317
f 366 359 317
f 225 255 218
f 228 255 225
f 218 114 225
f 225 114 228
f 106 97 240
f 240 97 244
f 244 262 240
f 240 262 260
f 92 79 98
f 79 86 98
f 119 108 110
f 110 114 119
f 106 114 110
f 262 272 307
f 307 371 262
f 321 371 307
f 307 323 321
f 416 371 413
f 413 371 411
f 411 468 413
f 413 476 416
f 413 468 476
f 369 373 394
f 394 445 409
f 405 445 394
f 407 383 390
f 403 361 369
f 403 394 409
f 369 394 403
f 409 449 403
f 297 274 290
f 290 274 264
f 290 264 331
f 331 327 290
f 301 297 325
f 297 290 325
f 325 290 327
f 369 361 325
f 325 327 369
f 325 323 301
f 301 323 284
f 284 267 301
f 323 307 284
f 272 267 284
f 284 307 272
f 258 245 236
f 236 267 258
f 258 267 272
f 258 272 262
f 262 245 258
f 542 513 503
f 503 513 471
f 471 495 503
f 381 375 392
f 381 356 375
f 381 392 505
f 505 356 381
f 253 299 251
f 251 199 253
f 251 292 248
f 251 299 292
f 248 191 251
f 251 191 199
f 375 299 363
f 299 293 363
f 478 375 363
f 363 289 354
f 363 293 289
f 363 456 478
f 363 354 456
f 286 282 226
f 282 198 226
f 226 206 286
f 226 198 206
f 432 471 435
f 432 430 471
f 425 495 427
f 427 352 425
f 430 352 427
f 471 430 427
f 427 495 471
f 344 295 349
f 349 295 305
f 305 352 349
f 435 344 349
f 349 432 435
f 349 352 430
f 430 432 349
f 523 6 2
f 523 506 6
f 523 2 529
f 529 528 523
f 619 506 523
f 433 567 595
f 595 567 596
f 595 392 433
f 596 641 595
f 505 392 595
f 663 641 631
f 631 658 663
f 663 658 668
f 742 711 727
f 742 727 759
f 755 722 742
f 722 711 742
f 742 780 755
f 759 780 742
f 861 851 830
f 861 862 851
f 830 859 861
f 879 883 861
f 873 862 861
f 861 883 873
f 875 879 861
f 861 859 875
f 692 688 721
f 692 682 657
f 676 666 638
f 705 666 676
f 650 610 627
f 638 610 650
f 627 656 650
f 650 676 638
f 687 676 650
f 650 656 691
f 691 687 650
f 705 676 714
f 714 676 687
f 867 863 874
f 874 878 867
f 874 863 858
f 874 858 860
f 860 881 874
f 881 878 874
f 681 710 649
f 681 649 630
f 681 708 736
f 736 710 681
f 624 673 647
f 647 603 624
f 630 603 647
f 647 681 630
f 647 673 708
f 708 681 647
f 667 677 639
f 667 694 706
f 706 677 667
f 737 751 774
f 718 751 737
f 409 445 467
f 467 449 409
f 515 492 467
f 467 492 482
f 482 449 467
f 462 403 449
f 581 610 559
f 627 610 581
f 535 561 510
f 561 533 510
f 510 482 535
f 510 475 482
f 510 533 484
f 484 462 510
f 517 468 507
f 547 517 507
f 484 533 507
f 507 533 547
f 458 411 407
f 458 468 411
f 458 507 468
f 484 507 458
f 217 215 273
f 175 215 217
f 642 621 625
f 642 653 621
f 683 625 652
f 683 642 625
f 389 415 376
f 506 415 389
f 566 541 577
f 577 601 566
f 577 591 617
f 617 601 577
f 617 649 640
f 640 601 617
f 532 566 546
f 518 532 546
f 546 570 518
f 548 508 518
f 518 570 548
f 548 534 508
f 339 322 372
f 372 351 339
f 339 303 322
f 326 328 298
f 396 374 370
f 370 374 328
f 328 326 370
f 370 326 362
f 123 127 121
f 121 118 123
f 162 127 123
f 123 118 134
f 157 162 123
f 123 134 138
f 123 150 157
f 138 150 123
f 121 124 113
f 124 116 113
f 113 116 105
f 134 118 126
f 115 100 126
f 126 474 134
f 126 100 474
f 847 840 843
f 847 845 840
f 843 850 847
f 847 850 887
f 887 885 847
f 885 877 847
f 877 845 847
f 766 750 754
f 771 791 754
f 791 766 754
f 754 749 771
f 717 604 754
f 604 749 754
f 754 730 717
f 754 750 730
f 838 812 855
f 838 855 853
f 822 802 838
f 802 812 838
f 818 822 838
f 838 853 818
f 794 819 786
f 787 810 820
f 787 768 752
f 787 820 795
f 795 768 787
f 665 675 669
f 665 632 620
f 659 632 665
f 665 669 659
f 712 723 743
f 712 728 696
f 743 728 712
f 696 659 712
f 659 669 712
f 669 675 712
f 712 675 690
f 690 723 712
f 454 406 473
f 651 692 657
f 688 692 651
f 639 677 651
f 651 677 688
f 536 483 511
f 511 562 536
f 562 588 536
f 536 588 560
f 448 469 487
f 487 473 448
f 448 473 406
f 448 406 396
f 17 16 1
f 1 18 17
f 17 23 16
f 18 23 17
f 25 34 28
f 25 26 34
f 28 23 25
f 25 23 18
f 25 18 20
f 20 26 25
f 238 106 239
f 106 240 239
f 260 238 239
f 239 240 260
f 95 98 86
f 95 86 88
f 88 97 95
f 405 394 379
f 379 394 373
f 379 373 331
f 331 334 379
f 323 325 357
f 357 325 361
f 357 390 383
f 357 365 323
f 383 365 357
f 361 403 397
f 397 357 361
f 390 357 397
f 403 462 397
f 571 542 526
f 542 503 526
f 526 495 540
f 526 503 495
f 544 523 528
f 544 528 529
f 529 555 544
f 544 555 553
f 674 663 668
f 668 711 674
f 674 711 689
f 745 739 773
f 721 715 745
f 745 715 739
f 773 795 769
f 795 800 769
f 769 745 773
f 746 745 769
f 800 794 769
f 744 746 769
f 691 682 726
f 726 746 744
f 721 745 726
f 726 745 746
f 726 692 721
f 682 692 726
f 738 714 744
f 705 714 738
f 740 737 761
f 761 737 774
f 798 740 761
f 761 809 798
f 774 809 761
f 449 475 464
f 464 462 449
f 475 510 464
f 464 510 462
f 472 445 405
f 564 520 573
f 543 574 573
f 573 520 543
f 308 334 270
f 219 217 273
f 219 279 216
f 216 175 219
f 175 217 219
f 740 724 704
f 642 683 704
f 704 724 700
f 704 700 653
f 653 642 704
f 376 382 385
f 385 389 376
f 382 506 385
f 506 389 385
f 551 541 519
f 551 577 541
f 519 504 551
f 504 563 551
f 563 591 551
f 591 577 551
f 679 640 649
f 679 710 734
f 649 710 679
f 585 562 534
f 534 548 585
f 570 546 590
f 590 607 570
f 590 546 566
f 566 601 590
f 601 640 623
f 623 590 601
f 607 590 623
f 391 408 438
f 109 118 121
f 121 113 109
f 109 105 102
f 109 113 105
f 819 794 829
f 829 851 860
f 829 794 800
f 860 858 829
f 858 819 829
f 762 810 775
f 810 787 775
f 752 762 775
f 775 787 752
f 675 665 664
f 523 544 664
f 619 523 664
f 620 619 664
f 664 665 620
f 335 338 309
f 278 335 309
f 309 231 278
f 309 269 231
f 387 335 380
f 387 338 335
f 387 406 454
f 380 406 387
f 634 614 633
f 633 614 635
f 633 656 634
f 633 682 656
f 657 682 633
f 633 635 657
f 635 614 609
f 608 614 634
f 608 634 627
f 592 574 543
f 592 609 614
f 592 608 574
f 614 608 592
f 487 469 516
f 516 469 483
f 483 536 516
f 516 536 560
f 98 95 103
f 103 97 106
f 103 95 97
f 103 110 108
f 106 110 103
f 108 120 103
f 103 120 92
f 92 98 103
f 441 397 462
f 441 462 484
f 484 458 441
f 540 576 550
f 550 526 540
f 576 602 550
f 550 602 571
f 571 526 550
f 554 544 553
f 554 555 578
f 553 555 554
f 578 690 554
f 744 769 772
f 772 769 794
f 772 738 744
f 744 714 720
f 720 726 744
f 691 726 720
f 720 687 691
f 720 714 687
f 705 738 731
f 731 718 693
f 693 705 731
f 731 751 718
f 445 472 486
f 515 467 486
f 486 467 445
f 453 472 405
f 280 219 273
f 279 219 280
f 702 704 683
f 718 737 702
f 702 737 740
f 740 704 702
f 702 683 652
f 702 652 693
f 693 718 702
f 616 588 562
f 562 585 616
f 639 588 616
f 616 667 639
f 703 694 654
f 606 548 570
f 606 585 548
f 640 679 655
f 655 623 640
f 438 408 459
f 470 508 459
f 459 412 470
f 459 408 412
f 485 534 511
f 508 534 485
f 485 459 508
f 438 459 485
f 511 483 463
f 463 485 511
f 455 485 463
f 399 391 384
f 408 391 399
f 399 384 412
f 412 408 399
f 398 391 438
f 362 326 358
f 358 398 362
f 391 398 358
f 378 384 358
f 384 391 358
f 118 109 111
f 115 126 111
f 111 126 118
f 111 100 115
f 101 100 111
f 102 101 111
f 111 109 102
f 851 829 836
f 836 829 800
f 830 851 836
f 836 800 830
f 671 664 544
f 671 554 690
f 544 554 671
f 690 675 671
f 675 664 671
f 273 269 313
f 269 309 313
f 582 537 560
f 597 573 574
f 574 608 597
f 564 573 597
f 597 581 564
f 627 581 597
f 597 608 627
f 543 583 586
f 586 592 543
f 583 609 586
f 609 592 586
f 527 537 487
f 487 516 527
f 560 537 527
f 527 516 560
f 437 458 407
f 437 441 458
f 407 390 437
f 390 397 437
f 397 441 437
f 670 674 689
f 689 685 670
f 670 685 555
f 670 555 529
f 529 661 670
f 738 772 767
f 786 751 767
f 767 794 786
f 767 772 794
f 751 731 767
f 767 731 738
f 515 486 530
f 530 559 515
f 530 581 559
f 386 379 334
f 405 379 386
f 386 453 405
f 472 453 496
f 496 486 472
f 496 530 486
f 273 313 316
f 316 313 333
f 667 616 637
f 694 667 637
f 637 654 694
f 637 606 654
f 637 616 585
f 585 606 637
f 701 655 679
f 701 679 734
f 734 758 701
f 758 725 701
f 660 701 725
f 655 701 660
f 438 485 442
f 442 485 455
f 442 398 438
f 455 398 442
f 450 463 483
f 483 469 450
f 324 358 326
f 324 326 298
f 303 339 324
f 324 339 351
f 324 351 378
f 378 358 324
f 338 387 395
f 395 377 338
f 395 387 454
f 341 309 338
f 341 313 309
f 338 377 341
f 341 377 333
f 333 313 341
f 271 279 315
f 537 582 552
f 657 635 628
f 628 651 657
f 635 609 628
f 560 588 611
f 611 582 560
f 611 588 639
f 611 628 582
f 639 651 611
f 651 628 611
f 674 670 662
f 662 670 661
f 663 674 662
f 641 663 662
f 662 595 641
f 505 595 662
f 529 505 662
f 662 661 529
f 564 581 556
f 581 530 556
f 530 496 556
f 556 520 564
f 556 496 520
f 446 496 453
f 520 496 446
f 684 660 725
f 684 741 703
f 684 725 741
f 703 654 684
f 654 660 684
f 654 606 626
f 626 660 654
f 570 607 626
f 626 606 570
f 396 370 404
f 404 370 362
f 362 398 404
f 463 450 404
f 455 463 404
f 404 398 455
f 298 285 302
f 302 324 298
f 285 303 302
f 303 324 302
f 498 447 454
f 454 473 498
f 498 473 487
f 487 537 498
f 537 552 498
f 447 498 521
f 521 498 552
f 402 447 377
f 377 395 402
f 454 447 402
f 402 395 454
f 312 315 336
f 312 308 270
f 270 271 312
f 271 315 312
f 333 342 287
f 287 316 333
f 279 280 287
f 287 280 273
f 273 316 287
f 287 342 336
f 287 315 279
f 336 315 287
f 598 552 582
f 598 628 609
f 582 628 598
f 453 386 393
f 336 342 367
f 660 626 643
f 623 655 643
f 655 660 643
f 607 623 643
f 643 626 607
f 396 404 410
f 410 404 450
f 410 450 469
f 410 448 396
f 469 448 410
f 447 521 481
f 520 446 481
f 543 520 481
f 481 521 543
f 552 598 575
f 575 521 552
f 575 609 583
f 575 598 609
f 575 583 543
f 543 521 575
f 401 446 453
f 453 393 401
f 388 367 342
f 377 447 388
f 446 367 388
f 333 377 388
f 388 342 333
f 447 481 388
f 388 481 446
f 400 367 446
f 446 401 400
f 400 401 393
f 308 312 340
f 367 400 346
f 400 340 346
f 336 367 346
f 346 312 336
f 346 340 312
f 337 400 393
f 337 340 400
f 337 386 334
f 337 393 386
f 334 308 337
f 308 340 337
