v -0.009319401346 0.0002319152845 0.01197334286
v -0.009316098876 -2.225351409e-06 0.008436281234
v -0.009308037348 0.0005166437477 0.01197334938
v -0.009303339757 -2.218373766e-06 -0.005426641088
v -0.009290386923 0.00051481009 -0.005426636897
v -0.009289775044 -0.0005257462617 -0.005426633637
v -0.009289118461 -0.0007892526919 0.01197336521
v -0.009264944121 0.0009923103498 0.008394191042
v -0.009264410473 -0.0009967278456 0.008394183591
v -0.009263269603 0.000906565343 -0.005426613148
v -0.009200604632 0.001519833226 0.01197344158
v -0.009184011258 -0.001565161278 -0.005426556803
v -0.00915011391 -0.001809293521 0.0119734779
v -0.009117588401 0.001954122679 -0.005426501855
v -0.009115273133 0.001974794781 0.008283499628
v -0.009114825167 -0.001987297321 0.01197349373
v -0.009114212357 -0.001979134744 0.008283491246
v -0.008990895003 0.00251508248 0.01197359059
v -0.008974149823 0.00259491452 -0.005426425487
v -0.008972753771 -0.002599177184 -0.005426422227
v -0.008934714831 -0.002746018581 -0.005413659383
v -0.008904967457 -0.002821447561 0.01197365858
v -0.008892732672 -0.002896208316 -0.005399221089
v -0.008873564191 0.002933163894 0.008127646521
v -0.008871986531 -0.002937374404 0.008127649315
v -0.008689614944 0.003527706256 -0.005326527171
v -0.008679221384 0.003497946309 0.01197382342
v -0.008677339181 -0.003502049716 0.01197383646
v -0.008625348099 -0.003701069625 -0.005303686019
v -0.008585632779 0.003805474378 -0.005288203713
v -0.008550000377 -1.745394052e-09 0.02723119967
v -0.008546301164 0.003855345538 0.007950045168
v -0.00854422804 -0.003859381424 0.007950047031
v -0.008511297405 0.003919604234 0.0119962329
v -0.008436056785 -5.946905549e-11 0.02853355929
v -0.008422299288 0.001378119574 0.02723120153
v -0.008422298357 -0.001378119341 0.02723120339
v -0.008417538367 -0.004132753238 0.01202408038
v -0.008326394483 0.004409437068 -0.005188546609
v -0.008310295641 0.001357182977 0.02853355743
v -0.00831029471 -0.001357184141 0.02853355557
v -0.008297617547 0.001929254271 0.02723120898
v -0.008297072724 -0.001931302482 0.02723120712
v -0.008233311586 -0.004601258785 -0.005152320489
v -0.008228169754 0.00452941237 0.01210941747
v -0.008139966056 0.004729269072 0.007774136029
v -0.008137423545 -0.00473308377 0.007774131838
v -0.008120614104 0.004735746421 0.01217053644
v -0.008116626181 -0.004742232151 0.01217141375
v -0.008097691461 -4.164713582e-10 0.02979634516
v -0.008043542504 -0.002709313761 0.02723119967
v -0.008043542504 0.002709311899 0.02723120898
v -0.008037693799 -0.004886047449 0.01222143136
v -0.007977691479 0.001295010559 0.02979635075
v -0.007977690548 -0.001295008697 0.02979635261
v -0.007970757782 -0.002750000684 0.02812036127
v -0.007970756851 0.002750003012 0.02812036313
v -0.007937292568 0.002668150933 0.02853356674
v -0.007937291637 -0.002668149769 0.02853356674
v -0.007908740081 0.005109976977 0.01231353264
v -0.007898820564 0.005218600389 -0.005011199508
v -0.007729202043 -0.005492727738 -0.004937634338
v -0.007681465708 -0.005470464937 0.01249258127
v -0.007661040872 0.005542858038 0.007623331156
v -0.007658061106 -0.005546414293 0.007623321842
v -0.00763486838 0.005540940445 0.01253553014
v -0.007621776313 -0.002545921365 0.02979635075
v -0.007621775381 0.002545921598 0.02979635634
v -0.007545186207 -5.015757818e-10 0.03098119237
v -0.007521231193 -0.002749999519 0.02984091826
v -0.007521230727 0.002750000684 0.02984092198
v -0.007434593048 -0.001193486969 0.0309812054
v -0.007434592117 0.001193487784 0.03098119982
v -0.007423259318 0.005939939525 -0.004794608336
v -0.007415656932 0.00585020287 0.01273928583
v -0.007412423845 -0.005853746086 0.01273936406
v -0.007333835587 -0.004094318952 0.02785507962
v -0.007325937506 0.004106411245 0.02786186151
v -0.007268713787 -0.006041299086 0.01288453303
v -0.007255722769 0.006058472674 0.01290153153
v -0.007214775775 -0.006211813539 -0.004694768228
v -0.007116008084 0.006284039002 0.007521042135
v -0.007112628315 -0.006287300494 0.007521048654
v -0.007106582168 -0.002346334746 0.0309811905
v -0.007106580772 0.002346331486 0.03098119982
v -0.0069804308 -0.004591295496 0.028098993
v -0.006968512665 0.004606647883 0.02810539678
v -0.00689609861 0.006588161923 -0.004530118778
v -0.006862526294 0.006516098976 0.01334961876
v -0.006859025452 -0.006519221701 0.01334961038
v -0.006822375581 0.006466791034 0.02121015824
v -0.006818899885 -0.006469895132 0.02121015266
v -0.006814152934 0.006420459598 0.02452925779
v -0.006812755018 0.006455057301 0.02266929299
v -0.006811657455 0.006477606017 0.02121016383
v -0.006810701452 -0.006423561368 0.02452925779
v -0.006809283979 -0.006458155345 0.02266940847
v -0.00680817524 -0.006480708253 0.02121016569
v -0.006795329507 5.578837384e-10 0.0320520997
v -0.006697504316 -0.001055701869 0.03205210716
v -0.006697502919 0.001055702101 0.03205210343
v -0.006651381496 -0.002749996958 0.03139196709
v -0.006651381496 0.002749999985 0.03139195591
v -0.006651130971 0.006846660748 -0.00439819973
v -0.006647449918 -0.006849676371 -0.004398198333
v -0.006637575105 0.006859869696 -0.001885893755
v -0.006576904561 -0.005069843493 0.02826363593
v -0.006574103143 0.006645841524 0.02465556376
v -0.006570530124 -0.006648813374 0.02465557121
v -0.006570506375 -0.006885424722 0.007134734187
v -0.006568254903 0.006701489445 0.02188866772
v -0.006564653013 -0.00670445757 0.02188866772
v -0.006556855049 0.005091613624 0.02826924063
v -0.006552069448 0.006879942492 0.009600502439
v -0.006541762967 0.006766078062 0.0191650074
v -0.006538125221 -0.006769034546 0.01916500926
v -0.006520720664 0.006835706066 0.01550041512
v -0.006518800743 -0.006824756507 0.01640086249
v -0.006407358218 -0.002075449331 0.03205210716
v -0.006407358218 0.002075453522 0.03205210343
v -0.006382983178 -0.007103519514 -0.004249527585
v -0.00637886906 0.005277608987 0.02830945142
v -0.006376355886 -0.005280148704 0.02830989473
v -0.006280336063 0.006895758677 0.02481384948
v -0.006082224194 -0.002749999752 0.0320648402
v -0.006082223263 0.002750000218 0.03206484392
v -0.006041852292 0.00739719579 -0.004045087844
v -0.00604132656 0.005597914103 0.02834048495
v -0.005911452696 0.007493573241 0.002628939925
v -0.005894502159 -0.007185012102 0.02502603643
v -0.005870903376 7.551550487e-10 0.03297652304
v -0.005857554264 0.007474763785 0.009815588593
v -0.005853582639 -0.007477383129 0.009810300544
v -0.005827947054 0.007378006354 0.017321961
v -0.005823938176 -0.007380764466 0.017312916
v -0.005788817536 -0.0008858385845 0.03297652677
v -0.005788817536 0.0008858395158 0.03297652677
v -0.005773305893 -0.007604098879 -0.003880139673
v -0.005708078388 -0.005878121126 0.0283148326
v -0.005687557627 0.00589432288 0.02831140161
v -0.005622076802 0.00736570172 0.02518422529
v -0.005545357708 -0.001741509652 0.03297652304
v -0.005545357242 0.001741510467 0.03297653049
v -0.005417707376 -0.002750000451 0.03267275169
v -0.005417707376 0.002749999519 0.03267275169
v -0.005393969361 0.007867146283 -0.003627619473
v -0.005206591915 0.007607640699 0.02542999387
v -0.005184525158 -0.007619488053 0.02544084191
v -0.005153483246 0.008012219332 0.00273989304
v -0.005149187054 -0.008014432155 0.002737219911
v -0.005148814525 -0.002537880093 0.03297652677
v -0.005148813594 0.002537879162 0.03297652304
v -0.005131244659 -0.008030126803 -0.003448274918
v -0.005108936224 0.007966634817 0.009978208691
v -0.005104699172 -0.007968876511 0.0099728778
v -0.005079441704 0.007841065526 0.01754561439
v -0.005075184628 -0.007843440399 0.01753650233
v -0.004937416874 -0.008141888306 -0.003308808897
v -0.004799996968 -2.170590153e-09 0.03372637555
v -0.004736145958 0.0006890583318 0.03372637555
v -0.004736145493 -0.0006890595541 0.03372638673
v -0.004693267867 0.008273181506 -0.003123498522
v -0.004546767101 -0.001354654902 0.033726383
v -0.004546767101 0.001354654436 0.03372637928
v -0.004484979901 0.007945301011 0.02588138543
v -0.004432727583 -0.007966300473 0.02591259778
v -0.00434049638 0.008437188342 0.002943709027
v -0.004335967358 -0.008438970894 0.002941014478
v -0.004307788331 0.008361630142 0.01021318976
v -0.004303334281 -0.00836346671 0.01020783093
v -0.004282177426 0.008205613121 0.01783295907
v -0.004277718253 -0.008207577281 0.01782377809
v -0.004238311201 -0.001974119106 0.03372638673
v -0.004238311201 0.001974117709 0.033726383
v -0.004235411994 -0.00849152822 -0.002766016871
v -0.003934338223 0.00861820858 -0.002509880811
v -0.003900338197 -0.002750003012 0.03360009938
v -0.003900337266 0.002750000684 0.03360009938
v -0.003821280785 -0.002526357071 0.03372638673
v -0.003821280552 0.002526354976 0.03372637928
v -0.003764385823 -0.008196407929 0.02636451833
v -0.003740708809 0.008203232661 0.02638426237
v -0.003615147434 1.129702331e-09 0.03427888826
v -0.003571472364 -0.0004713470116 0.03427887708
v -0.003571471665 0.0004713454109 0.0342788808
v -0.003530867631 -0.008767713793 -0.002155854134
v -0.003512677271 -0.002750002779 0.0337597914
v -0.003512676572 0.002750000916 0.03375979513
v -0.0034778181 0.008772731759 0.003224305576
v -0.003473104443 -0.008774057962 0.003221596358
v -0.003456921782 0.008666123264 0.01050853264
v -0.003452297766 -0.008667530492 0.0105031589
v -0.003441930516 -0.0009266406414 0.03427887708
v -0.003441929352 0.0009266386623 0.03427888826
v -0.003230933798 0.001350376289 0.0342788808
v -0.003230932401 -0.001350375824 0.03427889198
v -0.003229256254 -0.002750001615 0.03385978937
v -0.003229255322 0.002750002081 0.0338597931
v -0.003175537102 0.008882828988 -0.001815032214
v -0.003051826032 0.008919284679 -0.0016928775
v -0.003047475591 -0.008920233697 -0.001693320344
v -0.002981220372 0.008389933035 0.02694447339
v -0.002976711607 -0.008390974253 0.0269444678
v -0.002945668064 0.001728127478 0.0342788808
v -0.002945667366 -0.001728128525 0.03427888826
v -0.002833225764 -0.008979142644 -0.001475199824
v -0.002595847938 -0.002047032351 0.03427887708
v -0.002595847473 0.002047031187 0.03427888453
v -0.002586373826 0.00846305117 0.02718236111
v -0.002574019833 -0.008465194143 0.02718589455
v -0.002570773941 0.009023118764 0.003565611085
v -0.00256592175 -0.009023966268 0.003562904429
v -0.002559141489 0.008886496536 0.01085229404
v -0.002554395003 -0.008887447417 0.01084689237
v -0.002497575479 -0.009061372839 -0.00111516437
v -0.00245944527 -0.002750001149 0.03406499699
v -0.002459445037 0.002749998821 0.03406499699
v -0.002433513524 0.009076052345 -0.001038198359
v -0.002378049539 -0.008496570401 0.0272620786
v -0.002352359705 1.605715671e-09 0.03461724892
v -0.002330184449 -0.0002393079922 0.03461724892
v -0.002330184449 0.0002393070172 0.03461724892
v -0.002296473598 0.008508739993 0.02728838101
v -0.002274920233 0.009109776467 -0.0008568970952
v -0.002264414448 -0.000470466126 0.0346172452
v -0.002264413983 0.000470466679 0.03461725265
v -0.002197830938 -0.002750000218 0.03411376849
v -0.002197830938 0.002749999985 0.03411377221
v -0.002193385968 -0.002296227263 0.03427887708
v -0.002193385037 0.002296226332 0.03427888826
v -0.002157288371 0.0006856050459 0.03461724892
v -0.002157288138 -0.0006856037653 0.03461725265
v -0.002012456069 0.0008773925365 0.0346172452
v -0.002012455603 -0.0008773937006 0.0346172452
v -0.001962119015 0.00855348818 0.02735196054
v -0.001929099555 -0.008557395078 0.02735466883
v -0.001843816484 0.008567390963 0.0273605492
v -0.0018348468 -0.001039306284 0.03461725265
v -0.0018348468 0.001039305702 0.03461725265
v -0.001794633339 -0.00919635687 -0.0002735527814
v -0.001751986681 -0.002467227634 0.03427887708
v -0.001751986565 0.002467225771 0.03427888453
v -0.001720533124 -0.008580724709 0.02736213803
v -0.001630512765 -0.001165827038 0.03461724147
v -0.001630512532 0.001165821915 0.03461724147
v -0.001624688506 0.009192612022 0.003951563034
v -0.001619743533 -0.009192958474 0.003948853351
v -0.001617260627 0.00902911555 0.01123246271
v -0.001616875175 0.008591366932 0.02735748701
v -0.001612431603 -0.009029588662 0.01122706011
v -0.001600451884 -0.009225231595 -1.5083785e-05
v -0.001600291813 0.009225646965 -8.090641131e-06
v -0.001406407566 -0.001252643415 0.0346172452
v -0.001406407449 0.001252644346 0.03461724892
v -0.001311430708 -0.002750000218 0.03420392796
v -0.001311430475 0.002749999752 0.03420393169
v -0.00128668244 0.002554203384 0.03427888453
v -0.001286681509 -0.002554205246 0.03427888826
v -0.001265866798 -0.008621699177 0.02730249986
v -0.001170166652 0.001296803355 0.03461724147
v -0.001170166419 -0.001296804287 0.03461724147
v -0.001168845105 0.008629081771 0.02727406658
v -0.001160521642 -0.009277726524 0.0006263787509
v -0.001151959528 -0.008630010299 0.02727022953
v -0.00105906243 -0.008636249229 0.02723824419
v -0.001050000777 -1.6383378e-09 0.03473118693
v -0.001003879705 0.009292585775 0.0008863757248
v -0.0009622850921 0.008642585017 0.02719724551
v -0.0009298329824 0.001296806033 0.03461725265
v -0.0009298327495 -0.001296801725 0.03461725265
v -0.0008133189986 0.002554203384 0.0342788808
v -0.0008133172523 -0.002554205479 0.03427888826
v -0.0006935919519 -0.001252642716 0.03461724892
v -0.0006935918937 0.001252645045 0.03461724892
v -0.0006516692811 -0.008658451028 0.02703082003
v -0.0005728173419 0.009348224849 0.001667407108
v -0.0005677926238 -0.009347974323 0.001667407225
v -0.0005622067838 0.008662772365 0.02696472965
v -0.000478119764 -0.008665679954 0.02690242603
v -0.00046948815 0.001165825175 0.03461725265
v -0.0004694875388 -0.001165823895 0.03461725265
v -0.0004207685415 -0.002749998588 0.03418040276
v -0.0004207683669 0.002750001382 0.03418040648
v -0.0004197226954 -0.008667869493 0.02685234323
v -0.0004064073146 0.008668868802 0.02683613449
v -0.0003644606913 0.009343872778 0.002106178785
v -0.0003480140585 -0.002467227634 0.03427888453
v -0.0003480130108 0.002467225771 0.03427889198
v -0.0002651532704 0.001039304305 0.0346172452
v -0.000265153154 -0.001039307681 0.0346172452
v -0.0001596926159 -0.0086766202 0.0265714936
v -0.0001331843087 -0.009337294847 0.002650043229
v -0.000106241474 0.008678989485 0.0264907442
v -8.754382725e-05 -0.0008773944573 0.03461725265
v -8.754379814e-05 0.0008773953887 0.03461724892
v -2.60925608e-05 -0.007429779042 -0.003749907482
v 9.615491763e-06 0.008682987653 0.02629802562
v 1.197168149e-05 -0.008682333864 0.02630239353
v 1.237669403e-05 0.007424375974 -0.003749981988
v 2.465623584e-05 0.009332086891 0.003103476018
v 5.728824908e-05 0.0006856018445 0.03461724147
v 5.728891119e-05 -0.0006856033579 0.0346172452
v 6.510362437e-05 0.008685155772 0.02618409321
v 6.977291196e-05 -0.008684561588 0.0261840988
v 9.338442032e-05 -0.002296228195 0.0342788808
v 9.33859119e-05 0.002296228893 0.03427889198
v 0.0001615192596 0.009345288388 0.001700679655
v 0.0001644140139 -0.0004704685707 0.03461724147
v 0.0001644150907 0.000470467814 0.03461725265
v 0.0001665406162 -0.009344636463 0.001700676861
v 0.0001754907571 0.008690955117 0.02587418631
v 0.0001801626204 -0.008690300398 0.02587419935
v 0.0002005505376 -0.009323567152 0.003665232565
v 0.0002301843924 -0.0002393089235 0.0346172452
v 0.0002301849454 0.0002393096802 0.03461724892
v 0.0002377467317 0.009344577789 0.001759642502
v 0.0002406756685 -0.009343898855 0.001759219682
v 0.0002523602743 8.877064978e-11 0.03461724892
v 0.0003139952896 0.009316937998 0.004138177261
v 0.0003144370567 0.009343863465 0.001818173449
v 0.0003190016432 -0.009316205978 0.00413816981
v 0.0003201000509 -0.009343140759 0.001817213022
v 0.0003377112735 0.009107721969 0.01203410793
v 0.0003425829927 -0.00910716597 0.01202868298
v 0.00044664077 -0.007349154446 -0.003723309608
v 0.0004596331855 0.002749998821 0.03404356167
v 0.000459635281 -0.002749998588 0.03404357284
v 0.0004958469071 -0.002047033049 0.03427888453
v 0.0004958478385 0.00204703398 0.03427889198
v 0.0005257621524 0.007332595531 -0.00371295982
v 0.0007403217023 -0.00728318328 -0.003676200053
v 0.0007403227501 0.007283183746 -0.003676197026
v 0.0007419153117 -0.009316074662 0.001747660805
v 0.0008393526659 -0.009329042397 0.00212757173
v 0.0008456673822 0.001728130272 0.0342788808
v 0.0008456683718 -0.001728129573 0.03427889198
v 0.001000598422 0.009301248007 0.001856962102
v 0.001004772261 -0.009299943224 0.001858512056
v 0.001005543396 -0.008710221387 0.02381413989
v 0.001014358713 0.00871085003 0.02380353771
v 0.001067590201 0.009279929101 0.001775071141
v 0.001124492846 -0.002749999519 0.03386135027
v 0.001124493079 0.002750000451 0.03386135399
v 0.001130932709 0.001350373845 0.0342788808
v 0.001130933873 -0.001350374543 0.03427889198
v 0.001178389532 -0.008703128435 0.02369159088
v 0.001189004863 0.008703600615 0.02368201315
v 0.001224595704 0.009229680523 0.007031505927
v 0.001229555579 -0.009228460491 0.007031497546
v 0.001260778983 0.009304861538 0.002339965198
v 0.001263173064 0.009036124684 0.01321093924
v 0.00126802898 -0.009034884162 0.01321093645
v 0.001341928728 -0.000926640525 0.0342788808
v 0.001341929892 0.0009266387788 0.03427889198
v 0.001343763201 0.007107735146 -0.003500968684
v 0.001346322242 -0.00710687181 -0.003499987535
v 0.001387426164 -0.002749997657 0.03376926854
v 0.001387426397 0.002750002313 0.03376927227
v 0.001471472555 -0.0004713438102 0.03427888826
v 0.001471472671 0.0004713450035 0.03427889198
v 0.001476110308 0.00868702773 0.02353474312
v 0.00151514844 4.574426663e-10 0.0342788808
v 0.001541871927 -0.009198105894 0.001810888178
v 0.001587270992 0.009276673198 0.002489623846
v 0.001591716195 -0.008677680045 0.02349252254
v 0.001604093588 0.008677799255 0.02348669805
v 0.001694341772 -0.009264917113 0.002534328727
v 0.001721280161 0.00252635614 0.03372637555
v 0.001721280976 -0.00252635614 0.033726383
v 0.001773758908 0.009220194072 0.00212562317
v 0.001779204933 -0.009218408726 0.002126624342
v 0.001794028678 -0.008660897613 0.02343409322
v 0.001806596527 0.00866086781 0.02343015932
v 0.001866407809 -0.009159144014 0.001948953955
v 0.00190228771 0.006894490682 -0.003231690498
v 0.001902287942 -0.006894489285 -0.003231686307
v 0.001945011434 0.009106333368 0.001843024977
v 0.002006378723 -0.002750000684 0.03350383416
v 0.002006379422 0.002750003012 0.03350383788
v 0.002138310578 0.001974118175 0.03372637555
v 0.002138311043 -0.001974118641 0.03372637928
v 0.002228042809 -0.00674569793 -0.003016345203
v 0.002243969357 0.008614317514 0.02338210121
v 0.002248599427 -0.008612548932 0.02338210493
v 0.00227486575 0.006722743157 -0.002981185913
v 0.002446767176 0.001354653854 0.03372637928
v 0.002446767408 -0.0013546556 0.033726383
v 0.00245108339 0.008959085681 0.001882211422
v 0.002455931157 -0.008957255632 0.001882120036
v 0.002567135263 0.009086210281 0.002362196334
v 0.002636145102 0.0006890584482 0.03372637928
v 0.002636145568 -0.0006890594377 0.03372638673
v 0.00269999681 1.072405275e-09 0.03372638673
v 0.002728756284 0.009112603031 0.002945629647
v 0.002980541671 0.008802776225 0.001986378105
v 0.003102516988 0.009015806019 0.004658989608
v 0.003149045166 0.008954425342 0.007785263006
v 0.003153858008 -0.008952171542 0.007785265334
v 0.003180700354 0.009016338736 0.00310262898
v 0.003185546491 -0.009014069103 0.003102633869
v 0.003198746825 0.00855241809 0.02063342184
v 0.003238583682 0.008770085871 0.01396031119
v 0.003243296873 -0.008767783642 0.01396030746
v 0.003368429141 0.008892607875 0.002571761841
v 0.003373207059 -0.008890234865 0.00257175765
v 0.003424888011 0.008423552848 0.02338298969
v 0.003429414937 -0.008421150036 0.02338299155
v 0.003448112635 -0.008770776913 0.002319449326
v 0.00350350677 0.008618202992 0.002083044965
v 0.004098303616 0.008703696541 0.008141295984
v 0.004221415613 0.008531049825 0.01430907845
v 0.004244072828 0.008229629137 0.0233836174
v 0.004248495214 -0.008226783015 0.02338361368
v 0.004537406843 0.008601465262 0.003559134668
v 0.004546771292 -0.008597089909 0.003559584264
v 0.004698401783 0.008094540797 0.02343624644
v 0.004702751525 -0.008091452532 0.02343624644
v 0.004705620464 0.008452341892 0.003029709216
v 0.004713656381 -0.008448344655 0.003030328313
v 0.004801213276 0.008162152953 0.002542310394
v 0.004807887133 -0.008158642799 0.002543071751
v 0.004931821022 0.008015570231 0.02350611053
v 0.004932382144 0.00842416659 0.005384614691
v 0.00493612932 -0.008012358099 0.02350611798
v 0.004936908372 -0.008420950733 0.005384606309
v 0.005022882484 0.008367807604 0.008477380499
v 0.005027378909 -0.00836454425 0.008477380499
v 0.005132469349 0.008021580055 0.0213119965
v 0.005136780906 -0.008018257096 0.02131200768
v 0.00518369535 0.008210120723 0.01463113911
v 0.005188107025 -0.008206772618 0.01463113166
v 0.005342845805 0.00785866566 0.02371340618
v 0.005347068887 -0.007855231874 0.0237134099
v 0.005529158283 0.007779081818 0.02385227382
v 0.00553333899 -0.007775549311 0.02385227941
v 0.00584018603 0.00763199525 0.02418023348
v 0.00584428804 -0.007628297433 0.02418024652
v 0.005887078587 0.00794308167 0.003983465955
v 0.005891640205 -0.007939981297 0.003983760253
v 0.005910752341 0.007939442992 0.008788974956
v 0.005915019661 -0.007935701869 0.008788981475
v 0.005985597614 0.007555532269 0.02440256812
v 0.005989657715 -0.007551752031 0.02440256812
v 0.005999905523 0.007787458133 0.00345771946
v 0.006004531402 -0.007784106303 0.003457994899
v 0.006024004892 0.007510310505 0.00297194114
v 0.006028502714 -0.007506638765 0.002972236602
v 0.006056251004 0.007628771942 0.02160268649
v 0.006060350221 -0.007624952123 0.02160268463
v 0.006094744429 -0.007491961122 0.02461872809
v 0.006096081808 0.007492608856 0.02463181689
v 0.006112447474 0.007798905019 0.01491944306
v 0.006116638426 -0.007795057725 0.01491944492
v 0.006122989114 -0.007444421295 0.003003699938
v 0.006157285534 0.00745485723 0.0248051472
v 0.006161291618 -0.007450985257 0.0248051472
v 0.006218710914 0.0074121207 0.02507426403
v 0.006222693715 -0.007408218924 0.02507426403
v 0.006239563692 0.007043854333 0.02944665961
v 0.006239578594 0.006572413258 0.02991275303
v 0.006239652168 0.006845092401 0.02971845679
v 0.006240033079 0.007167846896 0.02910057269
v 0.006240298506 0.007220815402 0.02875084616
v 0.006242785603 0.007386169862 0.02538512275
v 0.006243014243 -0.006409468129 0.02998276055
v 0.006243227981 -0.006727135275 0.0298143588
v 0.006243254524 -0.006759593263 0.0297896415
v 0.006243269425 -0.007039965596 0.02944667079
v 0.006243499927 -0.006984381471 0.02954606339
v 0.006243873853 -0.00716046663 0.02911419794
v 0.00624416396 -0.007216914091 0.02875084989
v 0.0062467549 -0.007382250391 0.02538512833
v 0.006373753771 0.006282492075 0.001885212259
v 0.00637712935 -0.006278506946 0.001885215985
v 0.006432147231 0.006283736788 0.02996453643
v 0.006435516756 -0.006279721856 0.0299645327
v 0.006570004858 0.007484066766 0.004173067398
v 0.006574342959 -0.007480385713 0.004172774032
v 0.006574620493 0.00642926665 0.02981854416
v 0.006578066852 -0.006425176747 0.02981853299
v 0.006607781164 -0.007012491114 0.02862526849
v 0.006687422749 0.006544548552 0.02962662093
v 0.006690931041 -0.006540394854 0.02962661721
v 0.006734939292 -0.006737124175 0.0292864833
v 0.006904170383 0.005878269672 0.0299131535
v 0.006905946881 0.007354532368 0.01206347346
v 0.006907328498 -0.005873995367 0.02991315722
v 0.006909898948 -0.007350261323 0.01206347346
v 0.006933947094 0.007138612214 0.02185234986
v 0.00693778228 -0.007134324405 0.02185234427
v 0.006980844773 0.005514167715 0.00188567501
v 0.00698380731 -0.005509853363 0.001885671867
v 0.006988116074 0.006770022679 0.003269087058
v 0.006991982926 -0.006765948143 0.003269052366
v 0.006994696334 0.007288991474 0.01516694576
v 0.006998612545 -0.007284671534 0.01516694296
v 0.006998834666 0.007216292899 0.0184300486
v 0.007026320789 0.005971290171 0.02978495695
v 0.007029528264 -0.005966952071 0.02978495136
v 0.007105190307 0.005892475601 0.02976928093
v 0.007108355872 -0.005888094194 0.02976928279
v 0.007114775013 0.005133762024 0.001733839046
v 0.007117674686 -0.005129156169 0.001733844401
v 0.007135293912 0.006632145494 0.003308068495
v 0.007140595 -0.00662703719 0.003308217041
v 0.007151940372 0.006659159902 0.02846102975
v 0.007155518513 -0.00665475335 0.02846103907
v 0.007159947883 0.006992868148 0.004316664301
v 0.007167080883 -0.006986867171 0.004316531587
v 0.00719818892 0.006861137692 0.003793733893
v 0.007204404101 -0.006855502259 0.003793755779
v 0.007220776752 0.006373714656 0.02917582355
v 0.007224200293 -0.006369272713 0.0291758161
v 0.007261763327 0.005649029277 0.02978513949
v 0.00726479711 -0.005644564051 0.02978512831
v 0.007274523843 0.005657951348 0.02976940386
v 0.007274548057 0.005036336835 0.03000764735
v 0.007277254015 -0.005031869281 0.03000765108
v 0.00727756368 -0.005653479602 0.02976940572
v 0.007485087495 0.006407227367 0.02837102115
v 0.007505855523 0.004687581211 0.001886068378
v 0.007508374285 -0.004682984669 0.001886075013
v 0.007695799693 0.006025641691 0.003435267601
v 0.007699558977 -0.00602132827 0.003435332561
v 0.007712822407 0.006727347616 0.01227737684
v 0.007716437336 -0.006722640246 0.01227737777
v 0.007727102842 0.005347683094 0.02956359088
v 0.007729765493 -0.005342631601 0.02956438251
v 0.007752534468 0.006541782524 0.0220545046
v 0.007756049745 -0.006537054665 0.02205451392
v 0.00779376179 0.004800164141 0.02978553437
v 0.007796339225 -0.004795416724 0.02978553064
v 0.00780736329 0.004807746969 0.02976980992
v 0.007809946779 -0.004802989773 0.02976981923
v 0.007817463949 0.006671978626 0.01536657102
v 0.00782104861 -0.006667216308 0.01536656823
v 0.007823512889 0.006610040087 0.01862991229
v 0.007848899812 0.003770158626 0.001734395977
v 0.007851028815 -0.003765139729 0.001734393998
v 0.007905791514 0.006044285372 0.02826103196
v 0.007907934487 -0.006038798951 0.02826174907
v 0.007914653048 0.005779970437 0.02897063456
v 0.007917125709 -0.005774678197 0.02897142991
v 0.007943239063 0.003811465343 0.001886403654
v 0.00794528611 -0.003806636436 0.001886403188
v 0.007970434614 0.003691909602 0.0300081782
v 0.007972418331 -0.003687064396 0.03000818193
v 0.008078292944 0.005525434855 0.003507656045
v 0.008082170039 -0.005520204082 0.003507892601
v 0.008210242726 0.005691964179 0.003997935914
v 0.008214552887 -0.005686698016 0.003998093773
v 0.008228535764 0.005781760905 0.004524278454
v 0.008233210072 -0.005776474718 0.004524383228
v 0.008236795664 0.003901657183 0.02978586406
v 0.008238892071 -0.003896667156 0.02978587523
v 0.008284217678 0.004725861363 0.02938872017
v 0.008286966942 -0.004720738158 0.02938853763
v 0.008288375102 0.002895080019 0.00188666163
v 0.008289929479 -0.002890063683 0.001886662561
v 0.008349768817 0.002304729307 0.001734772348
v 0.008351069875 -0.002299427288 0.001734777004
v 0.008444503881 0.002254202263 0.03000854142
v 0.008445713669 -0.002249102807 0.03000854142
v 0.008447100408 0.005987749435 0.01244407706
v 0.008450318128 -0.005982648116 0.0124440873
v 0.00849915389 0.00583150005 0.0222041849
v 0.008502285928 -0.005826368462 0.02220417932
v 0.008531073108 0.00510667637 0.0287959855
v 0.00853414461 -0.005101410206 0.02879583649
v 0.008537614718 0.001948104007 0.001886855462
v 0.008538660593 -0.001942952978 0.001886851853
v 0.008567925543 0.005941891111 0.01551284268
v 0.008571118116 -0.005936722271 0.0155128492
v 0.008571218699 0.005345175974 0.02808995731
v 0.008574496023 -0.005339830648 0.02808977664
v 0.008576188236 0.005890166387 0.01877444051
v 0.008579352871 -0.005884993356 0.01877444051
v 0.008586283773 0.002962802071 0.02978614345
v 0.008587875403 -0.002957624383 0.02978613973
v 0.008603853174 0.000777052308 0.001734965597
v 0.008604290895 -0.000771608029 0.001734967809
v 0.008684776723 0.0007595411735 0.03000871837
v 0.008685184643 -0.000754308945 0.03000872396
v 0.008688326925 0.0009805476293 0.00188696757
v 0.008688852191 -0.0009753170889 0.001886967686
v 0.008738916367 2.627414233e-06 0.001887001912
v 0.008771492168 0.004039102234 0.02924026921
v 0.008774297312 -0.004034501035 0.02923851088
v 0.008823139593 0.004261401016 0.003623587079
v 0.008826056495 -0.004255922977 0.003623803379
v 0.008838609792 0.001993304351 0.02978632599
v 0.008839679882 -0.001987994416 0.02978632972
v 0.008853862993 0.001996455947 0.02977060899
v 0.008989434689 0.004387996159 0.0041240477
v 0.008991166018 0.001003195066 0.02978644334
v 0.008991703391 -0.0009978028247 0.02978643589
v 0.008992771618 -0.004382377956 0.004124211147
v 0.009027800523 0.004454047885 0.004660928156
v 0.009031533264 -0.004448372871 0.004661048763
v 0.009042373858 2.711023399e-06 0.02978648059
v 0.009064968675 0.004368534312 0.02864764258
v 0.009068905376 -0.00436405465 0.02864592522
v 0.009097619914 0.00514618028 0.01256690733
v 0.009100384079 -0.005140727386 0.01256690547
v 0.009142943658 0.004579343833 0.02794390917
v 0.009147981182 -0.004575184081 0.02794232219
v 0.009162026457 0.0050179502 0.02230623737
v 0.009164722636 -0.005012463313 0.02230623923
v 0.009185429662 0.003298758529 0.02911291458
v 0.009187010117 -0.003294268623 0.0291124694
v 0.009234261699 0.005109096412 0.01561081782
v 0.009237007238 -0.005103569478 0.01561081596
v 0.009244892746 0.005066954065 0.01886908896
v 0.009247615002 -0.005061422009 0.01886909455
v 0.009369106963 0.002897131955 0.003707969328
v 0.009371013381 -0.002891521435 0.003708079923
v 0.009517153725 0.003575163428 0.02852034569
v 0.009519075975 -0.003570792731 0.02851992846
v 0.0095203612 -0.002510386985 0.02900858968
v 0.009520684369 0.002515389118 0.02900578454
v 0.009556523524 0.002992153633 0.004221401177
v 0.009558722377 -0.002986409003 0.004221482668
v 0.009572387673 0.002164805774 0.003747013398
v 0.009573733434 -0.00215913495 0.003747076029
v 0.009602093138 0.003043558681 0.004771967884
v 0.009604556486 -0.003037755378 0.004772003274
v 0.009626331739 0.003755822545 0.02781833895
v 0.009628563188 -0.003751760116 0.02781798691
v 0.009653747082 0.00421960745 0.01265246794
v 0.009656013921 -0.004213855602 0.01265247725
v 0.009710888378 0.001468127361 0.003776568687
v 0.009711753577 -0.001462394837 0.003776605474
v 0.009729826823 0.004118323792 0.0223696325
v 0.009732040577 -0.004112533294 0.02236964367
v 0.009768985212 -0.001693098573 0.02892640792
v 0.009769714437 0.001698596636 0.02892334759
v 0.009805068374 0.004190688021 0.01566987485
v 0.009807320312 -0.004184856545 0.01566987857
v 0.009818041697 0.004157602787 0.01892393455
v 0.009820275009 -0.00415176712 0.01892393827
v 0.009829720482 2.924036153e-06 0.003804768668
v 0.009882314131 -0.002729823347 0.02841603383
v 0.009884139523 0.00273497426 0.02841327526
v 0.009890915826 -0.001089772559 0.02888376638
v 0.009891234338 0.001095718937 0.02888200618
v 0.009915033355 0.001524455263 0.004301237874
v 0.009915976785 -0.001518632169 0.004301261157
v 0.009924675338 -0.0008521228447 0.02887160704
v 0.009924849495 0.0008579382556 0.02887038328
v 0.009966592304 0.001557252253 0.004863586742
v 0.009967598133 -0.001551418914 0.004863596056
v 0.009978421032 2.963365887e-06 0.02885168232
v 0.01001641899 -0.00287644635 0.02771539427
v 0.01001983695 0.002881712979 0.02771278098
v 0.01002862956 0.001118230517 0.004881368484
v 0.01004050579 2.979908231e-06 0.004334168509
v 0.01009451225 2.992125019e-06 0.004901425913
v 0.01010485739 0.003225029213 0.0127074467
v 0.01010658965 -0.003219034988 0.01270745322
v 0.01015492156 -0.001849140972 0.0283338353
v 0.01015732251 0.001854958828 0.02833087742
v 0.0101912301 0.003149827477 0.02240333706
v 0.01019292232 -0.003143789014 0.02240334265
v 0.01026894338 0.003203779226 0.01569943503
v 0.01027066447 -0.003197702346 0.01569943689
v 0.01027473621 -0.002086705994 0.0276442524
v 0.01028405409 0.003179336898 0.01894906163
v 0.01028576121 -0.003173247911 0.01894906163
v 0.01030956488 -0.001955745276 0.02763443068
v 0.01031368133 0.001961789792 0.02763160691
v 0.01032694802 -0.0009358839015 0.0282790307
v 0.01032780111 0.0009420245187 0.02827791125
v 0.01038666908 3.072334948e-06 0.02825911716
v 0.01044032071 0.002179433592 0.01273846999
v 0.01044149138 -0.002173258923 0.01273848116
v 0.01049611904 -0.0009944626363 0.02758060209
v 0.0104976166 0.001000708551 0.02757948078
v 0.01053490955 0.002129667904 0.02241632156
v 0.01053605229 -0.002123445505 0.0224163197
v 0.01056138892 3.120909469e-06 0.0275610704
v 0.01061448455 0.002165490994 0.01570890099
v 0.01061564684 -0.002159222728 0.01570890285
v 0.01063134428 0.002149371896 0.0189545285
v 0.01063249726 -0.00214309548 0.01895452663
v 0.01064951066 0.001099812915 0.01275220979
v 0.01065010019 -0.001093528816 0.01275221165
v 0.010656856 3.143692993e-06 0.01213895343
v 0.01074953936 0.001075055567 0.02241753787
v 0.01075011492 -0.001068713027 0.02241753042
v 0.01083028782 0.001092927065 0.01570768096
v 0.01083087362 -0.00108654832 0.01570767909
v 0.0108483294 0.001084925258 0.01895042509
v 0.01084891055 -0.001078531845 0.01895042695
v 0.01089556143 3.208740736e-06 0.02029365674
v 0.01090945117 3.21208654e-06 0.01586240344
f 507 470 481
f 24 27 26
f 155 133 150
f 621 625 650
f 419 408 356
f 3 11 8
f 18 27 24
f 15 11 18
f 10 3 8
f 8 11 10
f 14 11 15
f 14 10 11
f 375 356 355
f 375 385 382
f 1 4 2
f 2 7 1
f 7 9 13
f 168 186 190
f 168 155 150
f 277 264 250
f 508 552 510
f 621 589 594
f 615 589 621
f 236 250 243
f 291 284 324
f 470 284 291
f 324 349 312
f 312 304 324
f 349 352 312
f 312 372 304
f 685 655 650
f 507 481 490
f 490 530 507
f 522 382 539
f 376 375 382
f 356 375 376
f 382 454 376
f 355 356 331
f 331 356 408
f 408 389 331
f 382 492 474
f 149 146 129
f 104 88 106
f 3 10 5
f 5 4 1
f 1 3 5
f 355 331 332
f 330 377 332
f 26 330 19
f 24 26 19
f 330 332 19
f 19 18 24
f 15 18 19
f 19 14 15
f 10 14 19
f 19 5 10
f 385 375 446
f 564 552 508
f 16 13 17
f 44 29 325
f 325 62 44
f 62 47 44
f 38 44 47
f 62 81 65
f 150 133 138
f 138 153 150
f 186 168 175
f 325 363 215
f 98 97 92
f 110 98 92
f 247 250 214
f 247 251 277
f 277 250 247
f 155 168 170
f 170 168 190
f 190 192 170
f 133 155 135
f 621 650 646
f 656 631 646
f 646 655 656
f 650 655 646
f 641 631 656
f 656 632 641
f 631 641 584
f 586 580 584
f 584 641 586
f 521 385 502
f 502 491 521
f 385 491 502
f 473 491 385
f 504 491 473
f 598 625 621
f 621 594 598
f 548 594 589
f 548 589 521
f 521 491 548
f 304 372 384
f 384 403 407
f 349 403 384
f 384 352 349
f 372 352 384
f 321 334 349
f 321 324 277
f 321 349 324
f 277 251 263
f 259 250 264
f 259 243 250
f 279 284 470
f 470 275 279
f 324 284 279
f 279 275 324
f 265 275 470
f 265 264 277
f 277 324 265
f 324 275 265
f 324 304 298
f 298 291 324
f 298 384 407
f 304 384 298
f 695 686 687
f 687 685 695
f 693 684 682
f 622 590 616
f 581 580 586
f 382 385 581
f 385 580 581
f 694 692 688
f 694 693 695
f 695 692 694
f 597 590 622
f 622 599 597
f 597 599 551
f 507 530 541
f 453 490 449
f 530 490 496
f 496 453 488
f 496 490 453
f 439 478 488
f 439 445 478
f 419 445 439
f 349 334 367
f 405 389 408
f 405 408 419
f 419 439 415
f 415 405 419
f 400 405 415
f 503 492 382
f 382 522 503
f 503 522 492
f 545 522 539
f 590 522 545
f 549 522 590
f 549 597 551
f 590 597 549
f 492 522 549
f 553 565 509
f 553 604 565
f 551 599 553
f 599 604 553
f 509 565 526
f 488 478 526
f 478 509 526
f 447 376 454
f 454 445 447
f 511 445 454
f 511 509 478
f 478 445 511
f 551 553 511
f 511 553 509
f 127 129 146
f 106 129 127
f 127 104 106
f 162 146 149
f 74 61 64
f 39 61 330
f 46 61 39
f 388 332 377
f 20 331 325
f 20 332 331
f 20 19 332
f 5 19 20
f 16 17 20
f 385 446 493
f 493 473 385
f 504 473 493
f 493 510 504
f 493 446 510
f 355 404 409
f 420 375 355
f 420 446 375
f 508 510 477
f 497 452 448
f 495 452 497
f 276 252 246
f 16 20 22
f 53 47 62
f 62 65 53
f 83 81 105
f 105 110 83
f 153 138 296
f 186 175 296
f 105 81 296
f 296 62 325
f 296 81 62
f 240 215 363
f 363 333 240
f 240 333 251
f 251 247 240
f 133 116 118
f 118 110 133
f 116 98 118
f 98 110 118
f 121 138 133
f 133 110 121
f 121 110 105
f 105 296 121
f 121 296 138
f 166 170 172
f 172 170 192
f 112 116 133
f 133 135 112
f 112 130 109
f 112 135 130
f 97 98 112
f 112 98 116
f 157 170 166
f 166 148 157
f 155 170 157
f 157 135 155
f 130 135 157
f 157 148 130
f 623 646 631
f 623 615 621
f 621 646 623
f 560 580 385
f 523 491 504
f 523 548 491
f 504 510 523
f 594 548 550
f 552 598 550
f 550 598 594
f 548 523 550
f 550 510 552
f 550 523 510
f 310 263 251
f 251 333 310
f 277 263 310
f 470 291 471
f 291 298 471
f 471 298 407
f 471 481 470
f 365 352 372
f 365 346 352
f 372 312 365
f 312 346 365
f 339 346 312
f 339 312 352
f 352 346 339
f 657 651 656
f 686 651 657
f 657 687 686
f 656 655 657
f 655 685 657
f 685 687 657
f 647 651 622
f 647 632 656
f 656 651 647
f 665 682 684
f 691 686 695
f 695 693 691
f 693 682 691
f 695 685 690
f 690 692 695
f 606 569 575
f 567 541 530
f 567 575 541
f 424 471 417
f 431 427 453
f 453 449 431
f 488 453 441
f 441 439 488
f 453 427 441
f 400 367 371
f 371 405 400
f 398 367 400
f 398 431 403
f 398 403 349
f 349 367 398
f 400 415 398
f 398 415 427
f 427 431 398
f 389 405 374
f 374 331 389
f 374 371 363
f 405 371 374
f 374 363 325
f 325 331 374
f 492 549 524
f 524 549 551
f 551 511 524
f 536 496 488
f 488 526 536
f 530 496 536
f 376 447 421
f 419 356 421
f 356 376 421
f 421 445 419
f 421 447 445
f 330 61 299
f 61 74 299
f 299 74 88
f 88 104 299
f 104 127 299
f 218 330 299
f 299 162 176
f 299 127 146
f 146 162 299
f 30 330 26
f 30 39 330
f 32 39 30
f 30 26 27
f 27 32 30
f 224 341 377
f 224 330 218
f 224 377 330
f 252 341 224
f 224 246 252
f 395 388 404
f 332 388 395
f 395 404 355
f 355 332 395
f 325 29 23
f 4 5 6
f 5 20 6
f 6 9 7
f 6 2 4
f 7 2 6
f 355 409 418
f 418 420 355
f 418 409 404
f 508 477 525
f 525 564 508
f 486 452 495
f 486 525 477
f 486 495 535
f 535 525 486
f 276 246 248
f 199 299 176
f 203 192 214
f 109 130 123
f 49 38 47
f 47 53 49
f 63 53 65
f 76 65 81
f 81 83 76
f 76 63 65
f 90 110 92
f 90 83 110
f 153 296 158
f 158 296 175
f 158 175 168
f 150 153 158
f 158 168 150
f 186 296 201
f 190 186 201
f 215 240 212
f 212 240 247
f 212 247 214
f 212 192 190
f 214 192 212
f 538 385 521
f 538 560 385
f 615 623 570
f 631 584 570
f 570 623 631
f 570 584 580
f 580 560 570
f 603 598 552
f 603 611 637
f 552 564 603
f 564 611 603
f 688 692 678
f 322 333 334
f 322 310 333
f 334 321 322
f 322 292 277
f 433 471 424
f 472 490 481
f 481 471 472
f 626 599 622
f 622 651 626
f 630 665 638
f 638 604 630
f 630 604 599
f 625 598 658
f 672 677 661
f 543 528 501
f 569 528 543
f 541 575 543
f 543 575 569
f 407 403 413
f 413 471 407
f 413 417 471
f 403 431 413
f 413 431 417
f 425 415 439
f 439 441 425
f 427 415 425
f 425 441 427
f 338 371 367
f 334 333 338
f 338 367 334
f 338 333 363
f 363 371 338
f 494 511 454
f 494 454 382
f 382 474 494
f 565 604 612
f 612 604 638
f 638 640 612
f 640 614 612
f 634 614 640
f 640 663 634
f 575 567 608
f 606 575 608
f 608 634 606
f 614 634 608
f 577 608 567
f 614 608 577
f 577 567 530
f 530 536 577
f 211 224 218
f 246 224 211
f 267 252 276
f 276 307 267
f 267 307 252
f 410 397 411
f 411 406 412
f 21 20 325
f 325 23 21
f 21 22 20
f 21 23 22
f 25 23 29
f 22 23 25
f 29 28 25
f 25 28 22
f 12 20 17
f 12 6 20
f 9 6 12
f 12 13 9
f 12 17 13
f 510 446 444
f 444 477 510
f 446 420 444
f 420 418 444
f 440 426 452
f 452 486 440
f 410 426 414
f 414 418 404
f 276 248 262
f 114 129 106
f 64 61 60
f 60 61 46
f 176 162 167
f 167 162 149
f 149 154 167
f 167 154 169
f 169 154 156
f 147 165 156
f 156 165 169
f 134 154 132
f 129 114 132
f 149 129 132
f 132 154 149
f 219 250 236
f 214 250 219
f 465 476 357
f 139 148 166
f 130 148 139
f 139 123 130
f 33 28 29
f 38 28 33
f 29 44 33
f 44 38 33
f 79 76 83
f 79 90 92
f 83 90 79
f 92 97 79
f 215 212 206
f 325 215 206
f 190 201 206
f 206 212 190
f 206 296 325
f 206 201 296
f 521 589 544
f 544 538 521
f 572 611 564
f 572 525 535
f 564 525 572
f 670 677 688
f 688 678 670
f 661 677 670
f 313 322 321
f 292 322 313
f 313 321 277
f 277 292 313
f 277 310 317
f 317 322 277
f 310 322 317
f 437 471 435
f 471 433 435
f 435 449 437
f 435 431 449
f 458 449 490
f 490 472 458
f 679 663 684
f 679 684 693
f 668 665 684
f 684 663 668
f 668 663 640
f 668 640 638
f 638 665 668
f 606 634 628
f 628 634 663
f 680 672 673
f 677 672 680
f 680 694 688
f 688 677 680
f 660 676 671
f 671 680 673
f 676 680 671
f 669 660 666
f 669 676 660
f 666 679 669
f 693 694 689
f 689 679 693
f 694 680 689
f 689 680 676
f 676 669 689
f 689 669 679
f 675 626 651
f 675 651 686
f 686 691 675
f 675 691 682
f 659 630 599
f 665 630 659
f 599 626 659
f 626 675 659
f 682 665 659
f 659 675 682
f 624 571 632
f 616 571 624
f 632 647 624
f 622 616 624
f 624 647 622
f 632 571 585
f 585 641 632
f 585 571 581
f 586 641 585
f 585 581 586
f 559 571 616
f 559 616 590
f 590 545 559
f 559 545 539
f 629 658 598
f 598 603 629
f 629 603 637
f 625 658 674
f 674 650 625
f 674 685 650
f 674 690 685
f 557 528 569
f 505 524 511
f 511 494 505
f 505 494 474
f 505 474 492
f 492 524 505
f 565 612 573
f 573 577 536
f 573 612 614
f 614 577 573
f 573 526 565
f 573 536 526
f 189 167 169
f 189 199 176
f 176 167 189
f 213 248 246
f 246 211 213
f 200 211 218
f 218 299 200
f 299 199 200
f 199 189 200
f 200 189 211
f 286 320 276
f 316 307 276
f 276 320 316
f 316 320 307
f 406 401 383
f 402 411 397
f 406 411 402
f 402 401 406
f 402 383 401
f 452 426 430
f 448 452 430
f 430 426 410
f 410 411 430
f 404 388 390
f 390 388 377
f 477 444 438
f 438 486 477
f 438 440 486
f 438 444 418
f 418 414 438
f 440 438 423
f 423 438 414
f 426 440 423
f 423 414 426
f 396 397 410
f 396 394 397
f 399 414 404
f 404 390 399
f 399 390 394
f 394 396 399
f 410 414 399
f 399 396 410
f 106 88 82
f 82 114 106
f 88 74 82
f 36 18 11
f 11 3 36
f 147 156 141
f 141 154 134
f 141 156 154
f 46 39 45
f 169 165 171
f 171 165 182
f 210 203 214
f 214 219 210
f 210 139 203
f 381 518 547
f 555 557 588
f 557 555 532
f 532 547 518
f 532 555 547
f 487 518 381
f 487 532 518
f 181 139 166
f 203 139 181
f 192 203 181
f 166 172 181
f 181 172 192
f 560 538 558
f 538 544 558
f 615 570 558
f 558 570 560
f 589 615 558
f 558 544 589
f 431 435 429
f 429 435 433
f 429 433 424
f 424 417 429
f 417 431 429
f 449 458 456
f 456 458 472
f 602 618 588
f 602 557 569
f 588 557 602
f 602 569 606
f 606 628 602
f 602 628 618
f 642 660 619
f 666 660 642
f 588 618 610
f 610 555 588
f 610 642 619
f 618 642 610
f 653 628 663
f 653 679 666
f 663 679 653
f 666 642 653
f 618 628 653
f 653 642 618
f 648 671 673
f 571 559 561
f 382 581 561
f 581 571 561
f 539 382 561
f 561 559 539
f 681 674 658
f 690 674 681
f 692 690 681
f 543 483 513
f 507 541 513
f 541 543 513
f 499 543 501
f 499 483 543
f 243 259 469
f 209 213 202
f 191 189 169
f 182 202 191
f 191 202 213
f 211 189 191
f 191 213 211
f 169 171 191
f 191 171 182
f 276 323 319
f 278 323 268
f 276 262 268
f 268 323 276
f 428 430 411
f 223 213 209
f 248 213 223
f 249 262 248
f 248 237 249
f 75 74 64
f 75 82 74
f 114 82 89
f 18 36 42
f 27 18 42
f 31 3 1
f 31 36 3
f 1 7 31
f 27 93 34
f 93 45 34
f 34 32 27
f 34 39 32
f 34 45 39
f 48 93 60
f 48 45 93
f 48 60 46
f 46 45 48
f 114 89 91
f 117 132 114
f 117 115 132
f 134 132 124
f 132 115 124
f 124 141 134
f 528 557 534
f 534 532 528
f 557 532 534
f 532 487 515
f 528 532 515
f 515 499 501
f 487 499 515
f 357 369 342
f 342 369 336
f 177 210 219
f 96 86 77
f 96 112 109
f 97 112 96
f 96 28 38
f 38 49 96
f 96 49 53
f 53 63 96
f 63 76 96
f 96 79 97
f 76 79 96
f 476 487 378
f 378 357 476
f 378 369 357
f 378 487 381
f 381 369 378
f 450 472 471
f 450 456 472
f 449 456 450
f 673 672 649
f 664 681 658
f 664 629 637
f 658 629 664
f 637 667 664
f 683 678 692
f 692 681 683
f 683 664 667
f 681 664 683
f 484 470 507
f 507 513 484
f 484 513 483
f 483 469 484
f 466 476 465
f 466 342 327
f 465 357 466
f 357 342 466
f 480 487 476
f 480 499 487
f 476 466 480
f 483 499 480
f 320 286 300
f 300 319 320
f 300 286 276
f 276 319 300
f 397 394 364
f 235 237 248
f 248 223 235
f 60 93 66
f 93 75 66
f 64 60 66
f 66 75 64
f 27 42 52
f 52 42 57
f 52 93 27
f 57 93 52
f 7 13 37
f 37 31 7
f 37 13 16
f 36 31 35
f 31 37 35
f 93 78 87
f 147 141 128
f 141 124 128
f 128 124 122
f 80 89 82
f 80 91 89
f 82 75 80
f 80 94 91
f 80 75 93
f 93 94 80
f 122 124 108
f 393 392 583
f 501 528 519
f 519 515 501
f 528 515 519
f 328 342 336
f 327 342 328
f 305 327 328
f 187 219 236
f 187 177 219
f 86 96 107
f 109 123 107
f 107 96 109
f 576 572 535
f 574 566 540
f 529 540 566
f 661 670 643
f 443 471 437
f 443 450 471
f 437 449 443
f 449 450 443
f 619 660 635
f 600 596 648
f 600 649 595
f 583 596 600
f 583 392 563
f 470 484 468
f 468 484 469
f 468 265 470
f 264 265 468
f 468 259 264
f 468 469 259
f 467 469 483
f 483 480 467
f 467 480 466
f 467 466 327
f 361 347 311
f 311 347 340
f 285 323 278
f 285 293 323
f 303 311 323
f 303 383 373
f 373 311 303
f 307 320 337
f 337 341 252
f 252 307 337
f 320 319 350
f 350 337 320
f 364 337 350
f 377 341 370
f 370 390 377
f 341 337 370
f 370 337 364
f 394 390 370
f 370 364 394
f 373 383 351
f 347 361 351
f 351 340 347
f 311 340 351
f 428 422 432
f 198 235 223
f 16 22 43
f 43 37 16
f 93 87 113
f 113 108 93
f 122 108 113
f 140 165 147
f 147 128 140
f 182 165 140
f 140 202 182
f 140 128 126
f 209 202 140
f 91 94 95
f 115 117 95
f 114 91 95
f 95 117 114
f 111 124 115
f 111 108 124
f 115 95 111
f 111 95 94
f 111 94 93
f 93 108 111
f 345 369 381
f 336 369 345
f 381 547 387
f 387 345 381
f 353 345 387
f 547 563 387
f 387 563 392
f 392 393 359
f 359 387 392
f 353 387 359
f 144 125 139
f 139 210 144
f 210 177 144
f 282 327 305
f 282 467 327
f 102 107 123
f 123 139 102
f 139 125 102
f 566 576 537
f 537 529 566
f 537 576 535
f 497 529 537
f 535 495 537
f 495 497 537
f 489 529 497
f 506 529 489
f 489 457 464
f 489 497 448
f 448 457 489
f 520 529 506
f 540 529 520
f 654 643 670
f 654 670 678
f 639 667 637
f 637 611 639
f 633 639 613
f 613 639 611
f 611 572 613
f 572 576 613
f 648 596 644
f 596 635 644
f 671 648 644
f 660 671 644
f 644 635 660
f 652 600 648
f 649 600 652
f 652 648 673
f 673 649 652
f 582 600 595
f 582 393 583
f 583 600 582
f 547 555 579
f 579 563 547
f 555 610 579
f 579 610 619
f 595 636 591
f 591 582 595
f 562 582 591
f 595 649 645
f 645 636 595
f 645 649 672
f 645 672 661
f 661 636 645
f 661 643 620
f 620 636 661
f 323 293 297
f 297 303 323
f 406 383 297
f 383 303 297
f 373 351 366
f 366 351 361
f 366 311 373
f 366 361 311
f 364 350 348
f 397 364 348
f 348 350 319
f 348 402 397
f 348 319 323
f 383 402 348
f 348 351 383
f 323 311 348
f 311 351 348
f 428 432 434
f 448 430 434
f 430 428 434
f 434 436 448
f 293 285 462
f 462 285 278
f 278 268 462
f 188 198 223
f 22 28 51
f 51 43 22
f 28 96 51
f 57 42 40
f 40 42 36
f 36 35 40
f 35 54 40
f 71 113 87
f 71 87 78
f 228 249 237
f 574 540 542
f 151 144 177
f 144 151 142
f 236 243 227
f 173 151 177
f 173 142 151
f 208 198 204
f 50 54 35
f 448 436 442
f 662 633 627
f 627 654 662
f 667 639 662
f 662 639 633
f 662 654 678
f 678 683 662
f 662 683 667
f 633 613 607
f 607 566 574
f 607 576 566
f 607 613 576
f 563 579 592
f 592 596 583
f 583 563 592
f 592 579 619
f 619 635 592
f 592 635 596
f 587 554 609
f 609 620 643
f 593 591 636
f 636 620 593
f 593 620 591
f 416 411 412
f 416 428 411
f 416 422 428
f 463 462 506
f 506 489 463
f 463 489 464
f 463 442 436
f 436 434 463
f 463 434 432
f 463 432 422
f 422 416 463
f 463 416 412
f 412 406 463
f 406 297 463
f 463 297 293
f 293 462 463
f 459 268 262
f 459 462 268
f 262 249 459
f 249 461 459
f 56 51 96
f 43 51 56
f 122 113 103
f 113 71 103
f 103 128 122
f 126 128 103
f 71 85 103
f 58 40 54
f 57 40 58
f 58 71 78
f 58 93 57
f 58 78 93
f 119 102 125
f 119 142 136
f 125 144 119
f 144 142 119
f 217 198 208
f 235 198 217
f 237 235 217
f 217 228 237
f 562 591 578
f 591 620 578
f 578 609 554
f 620 609 578
f 562 386 391
f 393 582 391
f 391 582 562
f 517 485 380
f 482 459 461
f 556 554 587
f 587 601 556
f 517 380 546
f 546 380 386
f 546 578 554
f 546 386 562
f 562 578 546
f 336 345 294
f 294 328 336
f 197 187 236
f 208 204 239
f 239 204 233
f 256 461 249
f 249 228 256
f 142 173 163
f 261 270 266
f 266 239 233
f 245 239 266
f 451 463 464
f 442 463 451
f 448 442 451
f 605 601 627
f 605 607 574
f 627 633 605
f 633 607 605
f 617 601 587
f 587 609 617
f 617 609 643
f 627 601 617
f 617 654 627
f 643 654 617
f 68 85 71
f 68 58 54
f 71 58 68
f 326 460 461
f 289 329 280
f 280 266 289
f 318 314 359
f 318 266 314
f 362 318 359
f 362 359 393
f 368 380 379
f 379 380 485
f 512 482 542
f 459 482 512
f 540 520 512
f 512 542 540
f 512 520 506
f 506 462 512
f 462 459 512
f 517 546 531
f 531 546 554
f 531 485 517
f 531 514 485
f 527 514 531
f 554 556 531
f 516 514 527
f 479 482 461
f 461 460 479
f 568 556 601
f 574 542 568
f 568 542 527
f 527 556 568
f 568 605 574
f 601 605 568
f 302 294 345
f 302 266 294
f 305 328 281
f 187 197 179
f 177 187 179
f 179 173 177
f 236 227 216
f 216 197 236
f 216 207 197
f 208 239 230
f 230 239 245
f 230 217 208
f 228 217 230
f 271 256 257
f 136 142 161
f 142 163 161
f 161 131 136
f 161 193 184
f 163 193 161
f 260 266 269
f 271 257 269
f 269 257 260
f 245 266 254
f 254 266 260
f 254 230 245
f 260 257 254
f 464 457 455
f 455 451 464
f 455 457 448
f 448 451 455
f 209 140 145
f 145 140 126
f 143 152 145
f 120 101 143
f 120 145 126
f 143 145 120
f 126 103 120
f 120 103 85
f 85 101 120
f 143 101 137
f 99 131 137
f 137 101 99
f 73 101 85
f 73 68 54
f 85 68 73
f 99 101 73
f 174 152 143
f 174 195 204
f 41 35 37
f 37 43 41
f 43 56 41
f 107 102 70
f 86 107 70
f 77 86 70
f 271 269 288
f 343 326 329
f 460 326 343
f 329 289 295
f 295 289 266
f 360 391 386
f 393 391 360
f 360 362 393
f 318 362 360
f 475 379 485
f 485 479 475
f 475 479 460
f 533 556 527
f 527 531 533
f 533 531 556
f 485 514 498
f 498 479 485
f 482 479 498
f 542 482 498
f 308 345 353
f 308 302 345
f 353 359 308
f 359 314 308
f 314 266 308
f 266 302 308
f 273 266 270
f 273 281 266
f 328 294 290
f 290 281 328
f 294 266 290
f 266 281 290
f 255 241 227
f 282 272 255
f 469 467 255
f 467 282 255
f 243 469 255
f 255 227 243
f 227 241 229
f 229 216 227
f 207 216 229
f 197 207 205
f 205 179 197
f 231 266 233
f 231 226 266
f 233 204 231
f 204 195 231
f 220 266 222
f 266 226 222
f 274 266 280
f 274 269 266
f 280 288 274
f 274 288 269
f 230 254 242
f 242 254 257
f 228 230 242
f 242 256 228
f 242 257 256
f 131 161 159
f 159 137 131
f 152 174 178
f 178 145 152
f 209 145 178
f 178 223 209
f 178 188 223
f 84 72 67
f 84 70 102
f 67 70 84
f 102 119 84
f 119 72 84
f 99 72 100
f 100 72 119
f 100 119 136
f 136 131 100
f 100 131 99
f 55 72 50
f 67 72 55
f 55 50 35
f 35 41 55
f 99 73 69
f 69 72 99
f 50 72 69
f 54 50 69
f 69 73 54
f 77 70 59
f 59 96 77
f 59 56 96
f 59 70 67
f 59 41 56
f 67 55 59
f 59 55 41
f 271 288 283
f 283 256 271
f 461 256 283
f 283 326 461
f 329 326 306
f 280 329 306
f 306 288 280
f 326 283 306
f 306 283 288
f 368 379 358
f 358 343 368
f 460 343 358
f 358 475 460
f 379 475 358
f 335 380 368
f 335 344 380
f 368 343 335
f 335 343 329
f 329 295 335
f 295 344 335
f 354 360 386
f 386 380 354
f 380 344 354
f 514 516 500
f 500 498 514
f 500 516 527
f 527 542 500
f 542 498 500
f 270 272 287
f 287 273 270
f 287 282 305
f 287 272 282
f 305 281 287
f 281 273 287
f 258 255 272
f 241 255 258
f 258 270 261
f 258 272 270
f 173 179 196
f 179 205 196
f 196 163 173
f 196 193 163
f 261 266 253
f 266 244 253
f 253 258 261
f 241 258 253
f 253 229 241
f 253 244 229
f 266 234 238
f 238 244 266
f 238 205 207
f 234 205 238
f 207 229 238
f 229 244 238
f 221 266 220
f 221 225 266
f 184 193 221
f 193 225 221
f 232 234 266
f 266 225 232
f 232 205 234
f 232 196 205
f 232 225 193
f 193 196 232
f 195 174 194
f 194 231 195
f 226 231 194
f 143 137 164
f 164 174 143
f 164 194 174
f 188 178 180
f 180 178 174
f 180 174 204
f 198 188 180
f 180 204 198
f 309 354 344
f 360 354 309
f 183 161 184
f 183 159 161
f 184 221 183
f 183 221 220
f 220 222 183
f 137 159 160
f 160 164 137
f 159 183 160
f 194 164 160
f 301 344 295
f 301 309 344
f 301 295 266
f 266 309 301
f 266 318 315
f 315 309 266
f 318 360 315
f 360 309 315
f 185 183 222
f 185 222 226
f 226 194 185
f 194 160 185
f 185 160 183
