v -0.01285068505 0.006112059113 0.01329569332
v -0.01280362718 0.006084348075 0.01350067556
v -0.01278320793 0.005575694144 0.0134009663
v -0.0127778016 0.006703541614 0.01354082488
v -0.01275682356 0.007251617499 0.01329532638
v -0.01275111549 0.005014338531 0.0129915541
v -0.01270585321 0.007271388546 0.01350029372
v -0.01269990858 0.004940888379 0.01318386383
v -0.01260703802 0.0045342464 0.01298146788
v -0.01259131078 0.00781419687 0.01338819601
v -0.01257476117 0.004341579042 0.01262031216
v -0.012478997 0.008318055421 0.01299048774
v -0.01246499922 0.004063503351 0.01242174953
v -0.01241645124 0.008382258937 0.01318275183
v -0.012412576 0.003950628918 0.0123349987
v -0.01240516361 0.003956364002 0.01258181781
v -0.01226547174 0.003674854059 0.01232085936
v -0.01224086806 0.00880564563 0.01295709796
v -0.01220438723 0.003584730672 0.01199831627
v -0.0120452363 0.009203791618 0.01241193153
v -0.01201979257 0.003607101273 0.01163627021
v -0.0120172631 0.003342652693 0.01167589985
v -0.01196461543 0.009304903448 0.01258008927
v -0.01184922922 0.003312646877 0.01133689843
v -0.01175865903 0.009586829692 0.01228712685
v -0.01149929408 0.009819474071 0.01161802094
v -0.01139592845 0.009946234524 0.01175309904
v -0.01122880261 0.002481562784 0.01025286317
v -0.01118897647 0.01008599065 0.01143982075
v -0.01103813946 0.001991851488 0.01008357666
v -0.01103706006 0.00201362418 0.01004589349
v -0.01089803595 0.001751330565 0.009945404716
v -0.01089625247 0.01010298822 0.01068884972
v -0.01076775882 0.01024156436 0.01078521274
v -0.0107379416 0.001504262793 0.009843452834
v -0.01058414765 0.01025728229 0.01049300283
v -0.0102969408 0.01002573594 0.009718146175
v -0.01015841216 0.0006505001802 0.009693491273
v -0.01014347654 0.01016109437 0.009774064645
v -0.009597442113 -0.0001610829495 0.009460707195
v -0.009577224962 0.006216967944 0.01554313488
v -0.009567083791 0.005311436485 0.01540763304
v -0.009561676532 0.006439283956 0.01554749161
v -0.0095442608 0.005077068228 0.01534018945
v -0.009420610033 0.007360220887 0.01544268057
v -0.009390913881 0.004269990604 0.01498813462
v -0.009375186637 0.007549939211 0.01539486274
v -0.009324863553 0.004049276002 0.01485321019
v -0.009089361876 0.008397749625 0.01504841261
v -0.009056501091 -0.0009284862317 0.009146433324
v -0.009024743922 0.0085413903 0.0149637647
v -0.008965208195 -0.0009705265984 0.0095642386
v -0.008709782735 -0.000768348109 0.005893286318
v -0.008650137112 -0.0004404254723 0.005700498819
v -0.008635107428 -0.001057962421 0.006135780364
v -0.00861508213 0.009230573662 0.01439794898
v -0.00855097454 -0.001630337909 0.008762312122
v -0.008542535827 0.009322571568 0.01429379359
v -0.00835407339 -0.001825764775 0.009082078934
v -0.008312210441 -0.001259181648 0.005281112157
v -0.008265122771 -0.00152342068 0.005569919012
v -0.008244522847 -0.000927005196 0.005078403279
v -0.008093364537 -0.001838739496 0.009400780313
v -0.008075763471 -0.002274605911 0.00830975268
v -0.008043019101 0.009779235348 0.01355334371
v -0.00803489238 0.003500005929 0.004726804793
v -0.00803489238 0.006990004797 0.004726803396
v -0.00797785446 0.003500006162 0.004641861655
v -0.00797785446 0.005550005473 0.004641861655
v -0.00797285419 0.009821732529 0.01344648562
v -0.007862358354 -0.002052635886 0.005086936522
v -0.007777432445 -0.002608409151 0.008496239781
v -0.00763159059 -0.002860840876 0.00779251568
v -0.00750574423 -0.002651740331 0.00879047066
v -0.007427750155 0.009991389699 0.01259518042
v -0.007368022576 0.009993027896 0.01249966957
v -0.007239299826 -0.003313228488 0.007811886258
v -0.00722077582 -0.00338643929 0.007216023747
v -0.007132154889 -0.001342683565 0.01062884741
v -0.006954120472 -0.003383424133 0.008079225197
v -0.006947627291 -0.003725223709 0.006769625936
v -0.006843635347 -0.003851565067 0.006584105082
v -0.006743678823 -0.003935023211 0.007034223992
v -0.00662212586 -0.003806199413 0.007573970128
v -0.006519009359 -0.004234882072 0.005939530209
v -0.006513895001 0.005550004076 0.002614696044
v -0.00651389407 0.006546035875 0.002614696044
v -0.006488033105 0.006559247151 0.002578884829
v -0.006442700978 -0.004028239753 0.007272615097
v -0.006296885666 -0.004468342755 0.006167259999
v -0.005975691136 -0.004580641631 0.006376205944
v -0.005676528439 0.00693228934 0.001455185004
v -0.00487031322 -0.006134014577 0.00238446705
v -0.004824073054 0.007220426109 0.0002747792751
v -0.0046586385 -0.006377842277 0.001928036101
v -0.004631275311 -0.006410086527 0.001873368397
v -0.004584136419 -0.006470924243 0.001816146076
v -0.004574622959 -0.006480142474 0.001782688778
v -0.004570716061 -0.006486671977 0.001789464615
v -0.004509347025 -0.006562691182 0.001705632545
v -0.004280056339 -0.0068288818 0.00151214283
v -0.004163196776 -0.006949993782 0.001404236536
v -0.003962736111 -0.007099993527 0.001404944807
v -0.003947643563 0.005778883584 0.01905582659
v -0.003941619303 0.007420476526 -0.0009471671656
v -0.003925939556 -0.00710000284 0.00148506742
v -0.003923313692 0.004680091515 0.01887213252
v -0.003796646371 0.006878622808 0.01895864308
v -0.003788560629 -0.00709999539 0.001660128124
v -0.003725796938 0.003679273883 0.01842377149
v -0.00358787505 0.00329293753 0.01815184578
v -0.003494771197 -0.006949994713 -0.001359806396
v -0.003483649343 0.007882211357 0.01858915947
v -0.003354979213 -0.007099993527 -0.001305415295
v -0.003040120238 0.007529267576 -0.002195485868
v -0.003040119074 0.003500004765 -0.002195485868
v -0.003036618233 0.007529508788 -0.00220032502
v -0.003036290407 0.008701032959 0.01797999814
v -0.002884527668 -0.006949994713 -0.002396245487
v -0.00288452697 -0.003149994649 -0.002396246418
v -0.002769147046 -0.007099993527 -0.00230039563
v -0.002682516817 0.003500005696 -0.002620416693
v -0.002587887459 -0.007099994458 -0.002281519584
v -0.002558758482 0.00754922349 -0.002741394565
v -0.002494070213 0.009262789972 0.01718495041
v -0.002457465976 0.007700004149 -0.002630753443
v -0.002444784855 0.007550005335 -0.00284350384
v -0.002346992493 0.007700006943 -0.002729763277
v -0.001977554988 -0.006949993782 -0.00318618305
v -0.001977554057 -0.003149993718 -0.003186183982
v -0.001904866542 0.009517878294 0.01627421379
v -0.001898452523 -0.007099993527 -0.003058736213
v -0.001800159109 -0.001780791674 0.01395568997
v -0.001799932448 0.003500005696 -0.003289791755
v -0.001709579024 0.007550003938 -0.003337637521
v -0.00170686061 -0.00709999539 -0.002998186275
v -0.001641195267 0.007700006012 -0.003204131499
v -0.001210988732 -0.003081857692 0.01284008101
v -0.001068454469 -0.004255951382 0.01105332188
v -0.001019190997 -0.003428489901 0.01248703338
v -0.000915726414 -0.004996399395 0.00953331776
v -0.0008789742715 0.007550007198 -0.003645529971
v -0.0008671519463 -0.006949994713 -0.003648362122
v -0.0008671519463 -0.003149995115 -0.003648361191
v -0.0008438166697 0.007700005546 -0.003499708138
v -0.0008345020469 0.007550005801 -0.003655967303
v -0.0008324653027 -0.007099993527 -0.003502426669
v -0.000801122922 0.007699885871 -0.003509728238
v -0.0007602960686 0.00350000523 -0.003672116436
v -0.000640868675 -0.00709999539 -0.003389952704
v -0.0005236860598 0.005425823852 0.02119112201
v -0.0005213731201 0.005471389741 0.02119341865
v -0.0005175106926 0.005541330203 0.02119587176
v -0.0005098332185 0.00455082627 0.02105369419
v -0.0004956001649 0.004398452118 0.02101081423
v -0.0004556460772 0.006443433464 0.02109565958
v -0.0004426693777 0.006604673341 0.02105063014
v -0.0003857406555 0.003729243297 0.02074661478
v -0.0003775367513 0.007338941563 0.02072991803
v -0.0003542954801 0.003596513765 0.02067725733
v -0.000347917201 0.007627547719 0.02054399997
v -0.0003171539865 0.005418682471 0.02114322409
v -0.0003150369739 0.005462429486 0.02114536799
v -0.0003038587747 0.004578683525 0.0210112948
v -0.000287426752 0.008124842308 0.02011954412
v -0.0002629652154 0.008291580714 0.01994181797
v -0.0002547709737 0.006377350073 0.02105526999
v -0.0002463313285 0.006480367854 0.02102820575
v -0.0002330252901 0.008470704779 0.01972632483
v -0.0002311400604 -0.007099996321 0.004639425781
v -0.0001847294625 0.003789962735 0.02071649954
v -0.0001793570118 0.003017158015 0.02028324828
v -0.0001777147409 0.003012736328 0.02027958073
v -0.0001760799205 0.007232639939 0.02071531303
v -0.0001719533466 0.008759567514 0.01930785924
v -0.0001557152718 0.007419236004 0.02060250752
v -0.0001535881311 0.003661251161 0.02064963803
v -0.000106922118 0.007813837379 0.0203059651
v -8.942920249e-05 0.007938295603 0.02019350417
v -6.733776536e-05 0.009062292986 0.01870102063
v -4.549301229e-05 0.008214393631 0.01990600303
v -1.309206709e-06 0.009174977429 0.01838331297
v 2.14127358e-05 0.003101187525 0.02027209848
v 2.260261681e-05 -0.00709999539 0.004795857705
v 2.311449498e-05 0.003096736036 0.02026843838
v 2.591486555e-05 0.008563758805 0.01944625378
v 9.27161891e-05 0.008793591522 0.01905057207
v 0.0001137927175 0.00763970241 -0.003598280251
v 0.000138209085 0.00748641137 -0.003747488372
v 0.0001737829298 0.008975707926 0.01863346249
v 0.0002065597801 0.001876395196 0.01930803433
v 0.0002197048161 0.007625367958 -0.00359325204
v 0.0002330829157 0.009348668158 0.01751475781
v 0.0002587577328 -0.007099996321 0.004856166895
v 0.0003020438598 0.009135547094 0.0180895254
v 0.0003191562137 -0.007099993527 -0.003585823812
v 0.0003324545687 -0.003149994649 -0.003735233098
v 0.0003324548015 -0.006949994713 -0.003735233098
v 0.0003456791164 0.003500004299 -0.003734031692
v 0.0003476751735 0.007455432322 -0.003733676858
v 0.0004214342916 0.001950324513 0.01929828525
v 0.0004241232527 0.009352622554 0.01700440422
v 0.0004301186418 0.009206768125 0.0176497288
v 0.0005145679461 -0.007099994458 0.004847082309
v 0.0005722426577 0.009310342371 0.01668458804
v 0.0006330757169 0.009215121157 0.01710440591
v 0.0006410841597 0.009281451814 0.01655235887
v 0.0007037274772 0.005761073902 0.01945844106
v 0.0007048103726 0.005288021639 0.01946735941
v 0.0007433973951 0.006200966425 0.01932588406
v 0.0007544561522 0.00483235158 0.01934852265
v 0.0007562249666 -0.003115078434 0.0142276641
v 0.0007592405891 0.009179572575 0.01683202386
v 0.0008220324526 0.006593097001 0.01907679252
v 0.0008236727444 -0.007099996321 0.004746221472
v 0.0008509015897 0.009140573442 0.01665721461
v 0.0008796580369 0.008535195142 0.017522946
v 0.0009367117891 0.006898067426 0.01873867959
v 0.001009905594 0.007467353251 -0.003455850296
v 0.001031454536 0.009042576887 0.01594538987
v 0.001077246736 0.007297122851 -0.003592277877
v 0.001085801865 0.00709247496 0.01834812202
v 0.001166047412 -0.007099996321 0.004534053616
v 0.001191445044 0.00892986916 0.01613166556
v 0.001211825176 0.007411976345 -0.003390746191
v 0.001278201002 0.007167525124 0.01791811548
v 0.001389223034 0.008772242814 0.01589077339
v 0.001421493362 0.003500004299 -0.003470135853
v 0.001424707589 0.00719277421 -0.003469166346
v 0.001437947038 -0.007099993527 -0.003300348297
v 0.001497861347 -0.006949994713 -0.003437862732
v 0.001497862278 -0.003149995115 -0.003437863663
v 0.001498515136 0.007107247133 0.01751007512
v 0.001576418406 -0.007099994458 -0.003068778664
v 0.001579214702 -0.007099996321 0.004162005614
v 0.001654411084 -0.007099983282 0.004082698841
v 0.00169479812 0.008485523984 0.0155831892
v 0.001718701678 0.008460924961 0.01556197181
v 0.001734483172 0.006918564904 0.01715372317
v 0.001742401742 0.001486566849 0.01718819141
v 0.001788918511 0.007215728518 -0.003124902956
v 0.001824290841 0.0020138002 0.01722832583
v 0.00193962676 -0.007099996321 0.003152406309
v 0.001946578617 0.00699657388 -0.003203235567
v 0.001956275199 -0.003168124706 0.01502424479
v 0.001967431977 0.006610132754 0.01687193289
v 0.002007554751 -0.003165701404 0.01504724473
v 0.002072930802 -0.003146261908 0.01505440474
v 0.002106412314 0.007082161959 -0.00292120222
v 0.002129985951 -0.003112191334 0.01503746398
v 0.002139415592 0.006911644246 -0.003077323548
v 0.00214597024 -0.003505700268 0.0146757625
v 0.002157376613 0.006231173407 0.01669426262
v 0.002195999026 -0.003501052037 0.01470105909
v 0.002203454264 0.004467413761 0.01695756428
v 0.002254706807 -0.003610868007 0.01448763907
v 0.002256699838 -0.003473290242 0.01471680775
v 0.002262102906 0.002831847407 0.01666874066
v 0.002292949706 0.00579058053 0.01661289297
v 0.002306449693 -0.003426221199 0.01471328549
v 0.002321539912 0.00487544667 0.01674886793
v 0.002332517877 -0.003379313275 0.01469640993
v 0.002351313829 0.005319386721 0.01663354225
v 0.002373276278 0.003500003833 -0.0029034568
v 0.00237360131 0.006799032912 -0.002901150845
v 0.00240881741 -0.007099993527 -0.002675367519
v 0.002441882156 -0.003681934439 0.01428315975
v 0.00249648001 -0.003649685066 0.0143092759
v 0.002509184647 -0.003149994183 -0.002786842175
v 0.002509185579 -0.006949994713 -0.002786842175
v 0.002526184544 0.006875224877 -0.002574129961
v 0.002536700107 -0.00359560363 0.01432195306
v 0.002553631086 -0.003541974351 0.01432061009
v 0.002577350009 -0.00709999539 0.00251341844
v 0.002702479716 0.006621535402 -0.002600640059
v 0.002763353288 -0.003654165659 0.01388096623
v 0.00279111322 0.002791982377 0.01581563614
v 0.002792964689 -0.00359990634 0.01391066611
v 0.00279972516 -0.003546105232 0.0139256455
v 0.002818258479 0.006707145367 -0.002258682624
v 0.003025127109 -0.003486193251 0.0134835355
v 0.003044333775 -0.003438611515 0.01352903247
v 0.003069504164 0.006543128751 -0.001908105798
v 0.00308240205 0.006975005846 0.01424269192
v 0.003116378561 0.006359484047 -0.002084587701
v 0.00311797997 0.003500004997 -0.002083434723
v 0.003131893463 -0.007099993527 -0.00177517347
v 0.003240488004 -0.007099993527 0.001568199601
v 0.003260490019 -0.003131173551 0.01322308369
v 0.003262388054 -0.006949994713 -0.001849139109
v 0.003262388986 -0.003149996046 -0.001849140041
v 0.003270329442 0.006248832215 -0.001829161309
v 0.003326265607 0.006353060249 -0.001421527006
v 0.003361863084 -0.00709999539 0.0007748408243
v 0.003375507891 -0.006949993782 0.001633541193
v 0.003431298304 -0.00709999539 -0.0003587380052
v 0.003480912652 0.006224466953 -0.001004771329
v 0.003532792907 -0.007099994458 -0.000692368485
v 0.003570275847 -0.007099993527 0.0004616612568
v 0.003590625245 0.003500004299 -0.001081625931
v 0.003602786921 0.006107496098 -0.0004470832646
v 0.003605337813 0.005976428278 -0.001020952128
v 0.003619799856 0.0004522367381 0.01404138468
v 0.003679992165 -0.006949994713 -0.0007212162018
v 0.003679993097 -0.003149994183 -0.0007212171331
v 0.003715686966 0.005868266337 -0.0004980610684
v 0.003719037399 -0.006949995644 0.0004808967933
v 0.003737830557 0.0007927437546 0.01397661027
v 0.003753267694 0.001523612882 0.01410654001
v 0.003784295171 0.001166008995 0.01399715338
v 0.004242893774 0.002879116917 0.01350031234
v 0.004245568998 0.002922185697 0.01350169443
v 0.004318316001 0.003492329968 0.01341780927
v 0.004406385589 0.005384914577 0.01272323355
v 0.00441708928 0.005371424835 0.01270992123
v 0.004453030881 0.004006056115 0.01314337086
v 0.004552929662 0.005134481937 0.01257517934
v 0.004582830705 0.00429403875 0.01285043266
v 0.004588934593 0.004304959904 0.01283644047
v 0.004640090745 0.004833743908 0.01255363598
v 0.004653284326 0.004541081376 0.01264504809
v 0.00467355689 -0.0003580958582 0.01218517497
v 0.00498213293 0.0002709494438 0.01193581801
v 0.004986322485 0.000280437991 0.01193179376
v 0.005024452694 0.0009938584408 0.01199942362
v 0.005052100401 0.0004956568591 0.01187853608
v 0.005064320285 0.0008062716806 0.01191082411
v 0.005069801584 0.0007312539965 0.01189158764
v 0.005102709867 0.0041815117 0.01116350666
v 0.005286479834 0.0038544829 0.01082590781
v 0.005292009097 0.003815268632 0.01088189892
v 0.00539207086 0.003416258842 0.01059896499
v 0.005393404048 0.003394466359 0.01066397503
v 0.0054067499 0.002919704653 0.0105100479
v 0.005407498684 0.002917644102 0.01057859231
f 68 67 69
f 5 67 1
f 106 215 194
f 215 204 194
f 109 91 106
f 189 192 200
f 188 192 189
f 283 280 220
f 220 280 271
f 66 68 62
f 67 68 66
f 54 66 62
f 67 66 54
f 44 8 155
f 44 3 8
f 63 133 79
f 122 127 129
f 129 127 130
f 304 334 307
f 189 143 149
f 198 143 189
f 129 143 132
f 132 143 147
f 114 121 106
f 112 121 114
f 114 102 112
f 10 5 7
f 4 5 1
f 7 5 4
f 161 113 14
f 192 188 205
f 69 67 87
f 94 92 67
f 289 307 322
f 322 282 289
f 289 282 307
f 267 204 215
f 106 194 170
f 170 194 184
f 170 109 106
f 170 184 141
f 141 91 170
f 91 109 170
f 315 317 329
f 329 317 330
f 301 329 330
f 315 329 301
f 301 314 315
f 335 328 326
f 326 334 335
f 307 334 326
f 283 293 292
f 220 271 249
f 290 287 270
f 171 164 155
f 167 153 163
f 155 164 154
f 154 42 3
f 172 111 79
f 79 133 172
f 107 44 155
f 3 44 107
f 155 154 107
f 107 154 3
f 16 63 79
f 79 111 16
f 16 9 11
f 59 16 17
f 63 16 59
f 74 63 59
f 1 67 6
f 67 11 6
f 6 3 1
f 8 3 6
f 6 9 8
f 11 9 6
f 67 54 21
f 124 122 117
f 127 122 124
f 119 121 112
f 119 122 129
f 129 132 119
f 119 132 121
f 62 68 119
f 134 127 135
f 134 130 127
f 129 130 134
f 134 143 129
f 135 143 134
f 39 205 188
f 150 234 106
f 298 304 307
f 298 287 290
f 290 304 298
f 307 282 281
f 230 198 231
f 231 270 230
f 197 198 189
f 98 96 71
f 96 95 71
f 103 114 106
f 102 114 103
f 112 102 101
f 106 121 123
f 45 10 7
f 47 10 45
f 7 4 43
f 43 4 153
f 3 42 2
f 1 3 2
f 2 4 1
f 42 154 2
f 47 45 157
f 157 45 108
f 202 39 36
f 205 39 202
f 220 249 207
f 207 249 241
f 67 5 12
f 14 18 12
f 12 10 14
f 5 10 12
f 67 92 88
f 88 87 67
f 69 87 88
f 322 273 279
f 333 328 335
f 335 334 333
f 334 332 333
f 333 332 330
f 74 140 138
f 138 63 74
f 139 140 80
f 80 84 139
f 80 140 74
f 90 101 102
f 102 103 90
f 106 91 90
f 90 103 106
f 306 301 330
f 330 332 306
f 306 332 334
f 306 304 305
f 334 304 306
f 314 301 284
f 125 27 180
f 167 316 168
f 315 314 178
f 322 307 323
f 323 273 322
f 219 200 192
f 192 205 219
f 205 207 219
f 228 229 231
f 300 304 290
f 305 304 300
f 302 293 297
f 302 292 293
f 297 301 302
f 301 306 302
f 302 300 292
f 302 306 305
f 305 300 302
f 244 229 241
f 241 249 244
f 244 270 231
f 280 283 285
f 283 292 285
f 46 9 110
f 151 154 164
f 151 2 154
f 160 172 183
f 110 172 160
f 160 46 110
f 9 46 160
f 133 191 173
f 173 172 133
f 110 9 48
f 9 16 48
f 48 16 111
f 111 172 48
f 48 172 110
f 52 59 17
f 40 38 50
f 59 52 50
f 17 40 50
f 50 52 17
f 126 128 127
f 127 124 126
f 126 39 128
f 117 122 120
f 120 119 117
f 122 119 120
f 117 119 116
f 116 119 68
f 135 127 137
f 127 128 137
f 128 39 137
f 39 145 137
f 189 149 146
f 146 188 189
f 146 149 143
f 143 144 146
f 136 132 147
f 147 150 136
f 121 132 136
f 136 123 121
f 136 150 106
f 106 123 136
f 307 288 299
f 299 298 307
f 294 299 288
f 295 288 307
f 266 270 287
f 266 230 270
f 234 230 266
f 234 150 196
f 196 230 234
f 196 150 147
f 198 230 196
f 147 143 196
f 143 198 196
f 93 95 96
f 112 101 100
f 100 71 112
f 98 71 100
f 156 153 167
f 167 168 156
f 156 168 157
f 7 43 156
f 156 43 153
f 156 157 108
f 156 45 7
f 108 45 156
f 76 202 36
f 193 202 76
f 65 27 125
f 29 27 65
f 65 70 29
f 125 180 65
f 26 27 29
f 25 27 26
f 36 34 75
f 75 34 131
f 75 76 36
f 75 131 193
f 193 76 75
f 14 113 49
f 49 18 14
f 113 161 49
f 161 51 49
f 51 18 49
f 92 94 105
f 105 88 92
f 105 94 67
f 86 68 69
f 69 88 86
f 86 116 68
f 288 236 235
f 235 236 267
f 273 240 185
f 183 172 185
f 172 173 185
f 278 282 322
f 322 279 278
f 278 279 273
f 63 138 212
f 212 138 140
f 84 80 77
f 89 90 91
f 89 91 141
f 141 139 89
f 139 84 89
f 238 301 297
f 238 284 301
f 193 131 182
f 131 34 182
f 70 65 182
f 182 65 180
f 182 34 29
f 29 70 182
f 47 157 159
f 159 161 14
f 14 10 159
f 159 10 47
f 314 284 181
f 181 284 186
f 186 169 181
f 246 317 315
f 315 178 246
f 307 326 324
f 324 323 307
f 326 310 324
f 324 310 183
f 183 185 324
f 303 240 273
f 273 323 303
f 241 229 225
f 225 207 241
f 225 219 207
f 200 219 221
f 229 228 221
f 221 225 229
f 219 225 221
f 231 198 221
f 221 228 231
f 231 229 232
f 232 244 231
f 229 244 232
f 265 249 271
f 291 285 292
f 291 300 290
f 292 300 291
f 290 270 286
f 286 291 290
f 285 291 286
f 261 313 316
f 208 313 261
f 261 316 167
f 167 208 261
f 209 313 208
f 167 163 209
f 209 208 167
f 162 151 164
f 164 171 162
f 152 163 153
f 152 162 163
f 151 162 152
f 4 2 41
f 2 151 41
f 151 152 41
f 153 4 41
f 177 160 183
f 183 310 177
f 177 309 171
f 328 309 177
f 177 326 328
f 177 310 326
f 158 171 155
f 155 8 158
f 158 177 171
f 160 177 158
f 8 9 158
f 9 160 158
f 64 59 57
f 59 50 57
f 57 38 35
f 57 50 38
f 35 38 19
f 19 40 17
f 19 38 40
f 145 146 142
f 135 137 142
f 142 137 145
f 142 146 144
f 142 143 135
f 142 144 143
f 188 146 148
f 148 146 145
f 148 39 188
f 148 145 39
f 296 294 106
f 106 234 296
f 298 299 296
f 299 294 296
f 234 266 296
f 287 298 296
f 296 266 287
f 60 54 62
f 60 53 54
f 62 119 60
f 60 119 112
f 112 71 60
f 29 34 33
f 33 26 29
f 33 34 36
f 67 26 33
f 25 23 56
f 56 23 118
f 118 169 56
f 67 12 20
f 20 26 67
f 20 12 18
f 18 23 20
f 25 26 20
f 20 23 25
f 161 178 165
f 165 51 161
f 165 18 51
f 165 23 18
f 175 169 186
f 175 27 25
f 175 180 27
f 116 86 115
f 117 116 115
f 88 105 115
f 115 86 88
f 115 105 67
f 274 294 288
f 288 235 274
f 274 235 294
f 223 215 106
f 106 235 223
f 223 267 215
f 223 235 267
f 106 294 243
f 243 235 106
f 294 235 243
f 262 260 273
f 240 303 308
f 308 303 323
f 247 254 248
f 248 173 247
f 248 185 173
f 267 236 268
f 252 139 141
f 252 140 139
f 267 254 256
f 256 194 204
f 204 267 256
f 184 194 256
f 254 252 256
f 141 184 256
f 256 252 141
f 328 333 327
f 333 321 327
f 327 309 328
f 331 333 330
f 331 321 333
f 331 320 321
f 330 317 331
f 317 320 331
f 321 320 174
f 157 168 174
f 174 159 157
f 85 93 96
f 85 96 98
f 85 100 101
f 101 90 85
f 90 82 85
f 74 59 72
f 72 80 74
f 72 77 80
f 72 59 64
f 64 57 73
f 73 72 64
f 77 72 73
f 93 85 81
f 81 85 82
f 95 93 81
f 81 57 95
f 90 89 83
f 84 77 83
f 83 89 84
f 83 82 90
f 83 81 82
f 297 293 237
f 237 238 297
f 190 182 180
f 314 181 233
f 200 221 199
f 199 221 198
f 198 197 199
f 189 200 199
f 199 197 189
f 251 244 249
f 249 265 251
f 270 244 251
f 275 271 280
f 275 265 271
f 280 285 275
f 275 286 270
f 285 286 275
f 255 312 313
f 313 209 255
f 163 312 255
f 255 209 163
f 211 312 163
f 163 162 211
f 211 162 171
f 104 152 153
f 153 41 104
f 104 41 152
f 13 11 67
f 67 21 13
f 13 16 11
f 24 21 54
f 24 13 21
f 55 53 61
f 53 60 61
f 61 60 71
f 61 71 95
f 95 57 61
f 35 55 61
f 61 57 35
f 36 39 37
f 37 33 36
f 37 124 117
f 117 115 37
f 37 126 124
f 39 126 37
f 67 33 37
f 37 115 67
f 166 181 169
f 166 165 181
f 23 165 166
f 118 23 166
f 166 169 118
f 58 56 169
f 169 175 58
f 25 56 58
f 58 175 25
f 260 262 201
f 185 248 201
f 273 185 201
f 201 262 273
f 242 308 323
f 323 324 242
f 242 324 185
f 242 185 240
f 240 308 242
f 257 248 254
f 257 254 267
f 267 268 257
f 272 278 273
f 273 260 272
f 260 257 272
f 272 257 268
f 278 272 276
f 276 272 268
f 276 268 236
f 288 295 276
f 276 236 288
f 307 281 276
f 276 295 307
f 276 281 282
f 282 278 276
f 245 212 140
f 140 252 245
f 245 254 247
f 245 252 254
f 133 63 245
f 63 212 245
f 245 191 133
f 247 173 245
f 245 173 191
f 321 319 325
f 325 327 321
f 316 313 325
f 313 312 325
f 210 174 168
f 316 263 210
f 210 168 316
f 176 174 320
f 176 178 161
f 161 159 176
f 159 174 176
f 98 100 99
f 100 85 99
f 77 73 78
f 78 83 77
f 81 83 78
f 78 73 57
f 57 81 78
f 227 293 283
f 227 237 293
f 227 283 220
f 186 284 187
f 187 175 186
f 180 175 187
f 187 190 180
f 284 238 217
f 217 187 284
f 190 187 217
f 195 217 238
f 190 217 195
f 193 182 195
f 182 190 195
f 239 178 314
f 314 233 239
f 179 233 181
f 179 165 178
f 181 165 179
f 179 239 233
f 270 251 264
f 264 251 265
f 269 275 270
f 265 275 269
f 270 264 269
f 269 264 265
f 312 211 311
f 311 211 327
f 311 325 312
f 327 325 311
f 327 211 277
f 53 19 28
f 54 53 28
f 28 24 54
f 31 30 19
f 32 53 55
f 32 55 35
f 32 31 53
f 30 31 32
f 35 19 32
f 19 30 32
f 260 201 250
f 250 201 248
f 250 257 260
f 248 257 250
f 316 325 318
f 318 325 319
f 318 263 316
f 318 210 263
f 319 210 318
f 214 210 319
f 174 210 214
f 317 246 222
f 222 246 178
f 317 222 218
f 178 176 218
f 218 222 178
f 97 85 98
f 98 99 97
f 97 99 85
f 224 227 220
f 238 237 203
f 203 195 238
f 237 227 203
f 193 195 203
f 178 239 226
f 226 179 178
f 239 179 226
f 258 211 171
f 258 277 211
f 171 309 258
f 309 327 258
f 327 277 258
f 13 24 15
f 24 28 15
f 15 28 19
f 15 19 17
f 17 16 15
f 16 13 15
f 22 19 53
f 53 31 22
f 22 31 19
f 321 174 259
f 174 214 259
f 259 319 321
f 259 214 319
f 253 176 320
f 253 218 176
f 253 320 317
f 317 218 253
f 206 203 227
f 206 202 193
f 193 203 206
f 227 224 213
f 213 206 227
f 213 207 205
f 205 202 213
f 202 206 213
f 207 213 216
f 216 213 224
f 220 207 216
f 216 224 220
