v -0.01017722953 0.002887082985 0.0009529690142
v -0.01017718483 0.003942994401 0.0006260911468
v -0.01016712282 0.004294033162 0.000441808952
v -0.01016184129 0.004242128227 0.0003560033219
v -0.01015329454 0.004625252914 0.000225300173
v -0.01014918927 0.004564756993 0.0001442572684
v -0.01013202406 0.0017810344 0.0009944569319
v -0.01009129547 0.005503024906 -0.0004092825402
v -0.0100687379 0.001447818475 0.00234125345
v -0.01004047599 0.0007054756279 0.0007459716871
v -0.0100068301 0.006244572345 -0.0009429704514
v -0.009987872094 0.006118009333 -0.001109671779
v -0.009939934127 0.006703337189 -0.001272065565
v -0.009920119308 0.006825908553 -0.001359843998
v -0.009913503192 -0.0002612718381 0.0002249340905
v -0.009775664657 -0.001053170185 -0.0005273013376
v -0.009720372036 0.007857195102 -0.002095640637
v -0.009716001339 -0.001345235505 -0.0009379929979
v -0.009715210646 0.007725471165 -0.002271145815
v -0.009703131393 -0.001062969328 0.002289957833
v -0.00965738669 -0.001613776432 -0.001459217397
v -0.0096284803 -0.0009964890778 0.004958560225
v -0.009596227668 -0.001731508179 -0.003514114767
v -0.009585550986 -0.001899771276 -0.002508719219
v -0.009578087367 -0.001901899814 -0.003514111042
v -0.009544952773 0.00843237713 -0.002684691222
v -0.009397154674 0.009032317437 -0.002691841684
v -0.009348490275 0.004533010535 0.03970086575
v -0.009348271415 0.004589772783 0.03984994441
v -0.009346270002 0.004748446867 0.04014931992
v -0.00934405718 0.004847588018 0.04028974101
v -0.009340963326 0.004951455165 0.04041329026
v -0.009322490543 0.005337368697 0.04074048623
v -0.009318137541 0.009262799285 -0.002763943747
v -0.00931597501 0.003389525227 0.03773447126
v -0.009313339368 0.005472916178 0.04082161561
v -0.00930109527 -0.002766070887 -0.00351411663
v -0.009296304546 0.003110139864 0.03761269525
v -0.009289621376 0.008884424344 -0.0030770835
v -0.009283120744 0.002955100499 0.03756570816
v -0.009270613082 0.005941282026 0.04100588337
v -0.009259589948 0.006037850399 0.0410275124
v -0.009252383374 0.006097541656 0.04103826731
v -0.009228743613 0.002453025663 0.03750166297
v -0.009195690043 0.009590446018 -0.002845620271
v -0.009187036194 0.00953852199 -0.003055645619
v -0.009180370718 0.006594796199 0.04106089845
v -0.009138575755 0.001850194298 0.03750166297
v -0.009094276465 0.009460560977 -0.003235317767
v -0.009086675942 0.006907477044 0.04100416601
v -0.009070551954 -0.003397513181 -0.0008364709211
v -0.009020773694 0.001253026421 0.03750165924
v -0.008987559937 -0.003443760565 0.002189516323
v -0.008933681995 0.00937079452 -0.003350672778
v -0.008931599557 0.0072058402 0.04090641811
v -0.008920734748 0.007752109785 0.04001983255
v -0.008919660933 -0.003347761696 0.004980197176
v -0.008897182532 0.0007505154936 0.03756581619
v -0.008882075548 0.01030300744 -0.002943675034
v -0.008862925693 0.01003432181 -0.003324039048
v -0.008862045594 0.007848929614 0.0401513055
v -0.008847649209 0.000573527941 0.03762063012
v -0.008820916526 -0.003923323005 -0.003514113603
v -0.008707804605 0.009948641062 -0.003444608767
v -0.008704921231 0.0001205151275 0.03785320371
v -0.008698258549 0.01065518521 -0.002952324692
v -0.008681656793 0.01064602658 -0.003161669243
v -0.00859185122 0.01059648208 -0.003345025703
v -0.008566287346 -0.004483828321 -0.001002151519
v -0.008484983817 -0.004529284779 0.002118723234
v -0.008476548828 0.008977436461 0.03910203278
v -0.00844367221 0.01051473059 -0.00346984528
v -0.008421796374 -0.004421412013 0.004966353998
v -0.008414855227 0.009049154818 0.03923823312
v -0.00828045141 -0.0007469741395 0.0418256931
v -0.008251769468 -0.004950419068 -0.003514115699
v -0.00823624339 -0.0007469734992 0.04220165685
v -0.008218882605 -0.000876125705 0.04177769646
v -0.008194146678 -0.0007525722031 0.04235119745
v -0.008078312501 -0.0008046433795 0.04256660491
v -0.007956601679 -0.005467848387 -0.001171587617
v -0.007946779951 0.01180127077 -0.00293497392
v -0.007936622016 0.01179349143 -0.003149060532
v -0.007878647186 -0.005514964461 0.002033065539
v -0.007856958546 0.01173226163 -0.003338400275
v -0.007836266421 -0.0009369549807 0.04280852526
v -0.00782088656 -0.005398316775 0.004933090881
v -0.007794538978 0.0102166431 0.0383265689
v -0.007750915363 -0.005650565494 -0.003514114069
v -0.007734052371 0.01026156824 0.03846642375
v -0.007728004362 -0.0009949248051 0.04288906232
v -0.007721432485 0.01162804849 -0.003468024777
v -0.007631939836 -0.001049299957 0.04295551777
v -0.00760783907 -0.001960261958 0.04137484729
v -0.007583775558 -0.001833936898 0.04195852578
v -0.007346119732 -0.001220611506 0.04312985018
v -0.007344834507 -0.001795619843 0.04244202003
v -0.007282640319 -0.001259870711 0.04316442832
v -0.007236020174 -0.006326637696 -0.001342821866
v -0.007232869044 -0.001290859771 0.04319061711
v -0.007163230795 -0.006378491409 0.001931733568
v -0.007111492567 -0.006257036701 0.004878211766
v -0.00709518278 -0.006363743916 -0.003514116164
v -0.007024513558 0.01282475982 -0.003027366474
v -0.007014152128 0.01281358209 -0.003136347514
v -0.00694737304 0.01274155732 -0.003331668442
v -0.006938680541 -0.00147695851 0.04333074391
v -0.006840833928 0.01137866918 0.03771377355
v -0.006829980761 0.01261494588 -0.003466167254
v -0.006821585819 0.01139134355 0.03777595237
v -0.006806752179 -0.002891840413 0.04152769223
v -0.006786893588 0.01139814314 0.03785690293
v -0.006767555606 -0.003080283757 0.04095327109
v -0.00676755514 -0.002602317138 0.04208767414
v -0.006729003042 -0.001611200045 0.04341679066
v -0.00668254355 0.01153122634 0.0376412645
v -0.006568512414 0.01162976399 0.03766269609
v -0.0065660947 -0.001715517719 0.04347614571
v -0.006519240327 0.01167977042 0.03757218271
v -0.006508088205 0.01167976949 0.03765782714
v -0.006406609435 -0.007048070431 -0.001512275776
v -0.006340802182 -0.007107729558 0.001817179029
v -0.006338374689 -0.006990170106 -0.003514116164
v -0.00629556179 -0.006985607091 0.004803351127
v -0.00620518811 -0.001913549844 0.04360876232
v -0.006191496737 -0.001828009612 0.04366120696
v -0.006128230132 -0.003328220919 0.04175806791
v -0.006035659928 0.01360728964 -0.003015609691
v -0.006028476171 0.01359676011 -0.003126600524
v -0.005974224769 0.0135166375 -0.003326502861
v -0.005905917846 -0.003838418983 0.04111648351
v -0.005876871292 0.01042755228 0.0424404256
v -0.005876801442 0.01337273978 -0.003464802867
v -0.005867628846 -0.004403787665 0.03632361442
v -0.005823584739 -0.004045241047 0.04055520147
v -0.005732401274 -0.007385998964 -0.003514112905
v -0.00568399718 -0.002267305506 0.04370165989
v -0.005648128223 -0.003796392586 0.04153061286
v -0.005507447757 0.01392104384 -0.002899417421
v -0.005482901819 -0.007637953851 -0.001673644874
v -0.005425651092 -0.007707420737 0.001697262633
v -0.005420329515 0.01095151436 0.04245603085
v -0.005387322046 -0.007587769534 0.004716482945
v -0.00516907312 -0.004600925837 0.04028939828
v -0.005116288085 -0.002577888081 0.04381989315
v -0.005106578581 -0.002529353136 0.04389550909
v -0.005089373328 -0.00247007492 0.04396149516
v -0.00507382676 0.01129118167 0.04239129648
v -0.005065203644 -0.002401920501 0.04401567578
v -0.005024491344 -0.005071400665 0.03679347411
v -0.004925332963 -0.004664516076 0.04069898278
v -0.004838592373 -0.002726208186 0.04385669157
v -0.004825105425 -0.007849904709 -0.003514112905
v -0.004624388181 0.01438385714 -0.003005049191
v -0.004619969986 0.01437407359 -0.003117762972
v -0.004590613768 0.01169901621 0.04222592711
v -0.004581450485 0.01428728737 -0.003321759868
v -0.004510627594 0.01412760094 -0.003463485045
v -0.00448061619 -0.00810378138 -0.001820378355
v -0.004476868547 -0.004743614234 0.04100781307
v -0.004461897071 -0.002672623843 0.04411830008
v -0.004433240276 -0.00818388816 0.001580364886
v -0.004402163904 -0.008068742231 0.004626178183
v -0.004107826389 -0.005652922671 0.03723189235
v -0.0040934477 -0.005362777971 0.03986332566
v -0.004054806661 0.01211299095 -0.004740361124
v -0.003954280633 -0.003163887188 0.04390165955
v -0.00391180953 -0.003070801729 0.04405280948
v -0.003877098206 -0.002994715236 0.04412100092
v -0.003873198759 -0.005380008835 0.04026569054
v -0.003848240012 0.01220582332 0.04183564335
v -0.003847394604 -0.008217347786 -0.00351411663
v -0.003788016271 0.01469377708 -0.002888431773
v -0.003628854873 -0.005296628457 0.04064235091
v -0.003614150221 -0.008288244717 -0.003514110576
v -0.003415466752 -0.008453046903 -0.00194591179
v -0.003379012225 -0.008543461561 0.00147487002
v -0.003355469555 -0.008433746174 0.004541021772
v -0.003332328517 -0.0058033932 0.03957910463
v -0.003155940445 -0.006445547566 0.03375552595
v -0.003132336773 -0.00613261573 0.03761478886
v -0.003123104107 0.01262257621 -0.004969690926
v -0.003065773286 -0.003516550409 0.04390165582
v -0.003003108082 0.01494461857 -0.002998539712
v -0.003000718541 0.01493547484 -0.003112298902
v -0.002977385186 0.01484458521 -0.003318812232
v -0.002919527236 -0.006008798257 0.03943747655
v -0.002909828909 -0.003460548818 0.04405280948
v -0.002855337923 -0.003292688401 0.0441683419
v -0.002750726184 0.003066884354 0.04778626189
v -0.002750599058 0.003533473238 0.0479629375
v -0.002750386484 0.004332069773 0.04818123952
v -0.002750219079 0.00495051546 0.04828267545
v -0.002750214422 0.004957614001 0.04828350991
v -0.002749954583 0.0059364927 0.04832889885
v -0.002749884268 0.006191094872 0.04831814393
v -0.002749820706 0.006425961852 0.04829994589
v -0.002749722451 0.006789600942 0.04825592041
v -0.00274969358 0.006912077311 0.04823670164
v -0.0027495143 0.007578167133 0.04809239507
v -0.002749190433 0.008776839823 0.04764952883
v -0.00274916226 0.00888173189 0.04759835452
v -0.002748901956 0.009846601635 0.04701579735
v -0.002748783212 0.01029059384 0.0466680266
v -0.002748753875 0.01040551346 0.04656808078
v -0.002748415107 0.011670243 0.04507725686
v -0.002748197643 0.01247174386 0.0432940796
v -0.00274816528 0.01259062998 0.04282262549
v -0.002748123603 0.01274709404 0.04135854915
v -0.002714122878 0.002602426335 0.04758688062
v -0.002691464499 0.006760281976 0.04828310385
v -0.002656584606 -0.005809647031 0.04024845362
v -0.002576810541 0.004499488045 0.04828139767
v -0.002522249706 -0.005870252848 0.04019809887
v -0.002459210344 0.01149619836 0.04552436993
v -0.002455588896 -0.008559709415 -0.003514113836
v -0.002436888637 0.01212476101 0.044501625
v -0.002435713308 0.007281663828 0.04828350246
v -0.002380342688 0.009183930233 0.04759186506
v -0.002303170273 -0.008693243377 -0.002043702407
v -0.002278432017 -0.008792466484 0.001389143756
v -0.002269625198 0.00400665449 0.04828102142
v -0.002262620488 -0.008688000962 0.00446957536
v -0.00212867558 -0.006834459025 0.03404528275
v -0.002112992806 0.01300009526 -0.005148559809
v -0.00211273483 -0.006494739093 0.03791809827
v -0.002091387287 0.0106382072 0.04666024446
v -0.002080245409 0.007740892004 0.04828384519
v -0.002064460889 -0.003796959296 0.04390166327
v -0.002022143919 0.002120795194 0.04758651555
v -0.002012182493 -0.006370409392 0.03917565197
v -0.001999520231 0.01299726218 0.04135873169
v -0.001928991056 0.01514793746 -0.002883275505
v -0.001869518543 0.003585744882 0.04828070104
v -0.001643191092 0.009593084455 0.04759217426
v -0.001639610971 0.008119164966 0.04828413576
v -0.001511821523 0.01314999908 -0.005221632775
v -0.001509736991 0.01311518718 0.04135882854
v -0.001505893422 0.006453956477 -0.005227299407
v -0.001480729552 0.01297291834 0.04282189533
v -0.00147301855 -0.00380519568 0.0440528132
v -0.001461298671 0.005689041689 0.04870908707
v -0.00144630007 0.00598471472 0.04870931432
v -0.001445433707 -0.003630881663 0.04416834936
v -0.001416468993 0.005396401975 0.04870885983
v -0.001394816092 0.01255379524 0.04422852397
v -0.001392878359 0.003253991948 0.04828044772
v -0.001372096711 0.006271318998 0.04870952293
v -0.001317415037 -0.006288944744 0.03982484341
v -0.001313647721 0.005118776113 0.04870865494
v -0.001255300827 0.01187392697 0.04552465305
v -0.001249356312 -0.008719223551 -0.003514113137
v -0.001247379696 0.001788317342 0.04758626595
v -0.001241714228 0.006537117064 0.04870972782
v -0.001218546298 0.01524525508 -0.00310994708
v -0.001217707992 0.01523687411 -0.002882489003
v -0.0012094673 0.01515239198 -0.003317537252
v -0.001195620513 -0.006318179425 0.03979676962
v -0.001159442589 -0.008831867017 -0.002107177861
v -0.001157044549 0.004867532756 0.0487084575
v -0.001131850295 0.008400994353 0.04828434065
v -0.001071752864 -0.007081230171 0.03423564881
v -0.001067545265 0.01095943898 0.04666048661
v -0.00106371881 -0.006723555736 0.03811773285
v -0.001060500275 0.006771229673 0.04870990664
v -0.001038551214 -0.003966563381 0.04390165582
v -0.0009530728566 0.004652954172 0.04870829731
v -0.0008592082304 0.003024976701 0.04828028008
v -0.0008387669222 0.009845475666 0.04759236425
v -0.0008358664927 0.006964070722 0.04871005192
v -0.0007603807608 0.01326535176 -0.005278646946
v -0.0007494803285 -0.006662499625 0.03895437717
v -0.0007100800867 0.004483826924 0.04870817438
v -0.0005777509068 0.008574843407 0.04828447104
v -0.000577010971 0.007107745856 0.04871015996
v -0.0004380213795 0.004367077723 0.04870807752
v -0.000421547069 0.001618604176 0.04758614302
v -0.0002945355955 0.007196374703 0.04871022329
v -0.0002903656568 0.002908076625 0.04828018695
v -0.0001480272767 0.00430748146 0.04870804399
v -7.061980796e-06 0.01326871011 0.0413589403
v -2.68888158e-07 -0.004023343325 0.04390166327
v -2.081882667e-09 -0.00722737005 0.03339506313
v -1.559253949e-09 -0.006460894365 0.03965459764
v -1.201874489e-09 -0.008885139599 0.004402130842
v -7.913651961e-10 -0.006622489076 0.03929772973
v -7.390612571e-10 -0.003921026364 0.04405280948
v -4.296548674e-10 -0.008771868423 -0.003514110576
v -1.369947214e-10 0.007226325106 0.04871025309
v 8.694902417e-11 0.01106799766 0.04666057229
v 1.39181791e-10 0.01269563474 0.04422862455
v 1.487907433e-10 0.005763041321 0.04885325208
v 4.742262137e-10 0.01312349364 0.04282200336
v 4.893487279e-10 0.008633594029 0.04828452319
v 5.228032449e-10 -0.008984077722 0.001310505904
v 6.076756871e-10 -0.00374454353 0.04416834563
v 6.397524175e-10 -0.008951559663 -0.0006011037622
v 8.589216558e-10 0.00993076805 0.04759242758
v 8.831383955e-10 -0.008928817697 0.003599348012
v 9.993273984e-10 0.0120015787 0.04552475363
v 1.013708007e-09 0.0133040119 -0.005297900643
v 1.726616516e-09 -0.006711654365 0.03891626373
v 3.644863256e-08 0.01529381052 -0.002882075962
v 0.0001480270585 0.004307481926 0.04870803654
v 0.0002903633867 0.002908077324 0.04828018323
v 0.0002945347223 0.007196374238 0.04871022329
v 0.0004215458175 0.001618604176 0.04758613929
v 0.0004380224564 0.004367076326 0.0487080887
v 0.0005770118441 0.007107746322 0.04871016368
v 0.0005777520128 0.008574842475 0.04828447849
v 0.0007100828807 0.00448382739 0.0487081781
v 0.0007604341372 0.01326534711 -0.005278644618
v 0.0008354642196 0.01518238988 -0.003317446681
v 0.0008358658524 0.006964071654 0.04871004447
v 0.0008387629641 0.009845474735 0.04759236053
v 0.0008411226445 0.01526691392 -0.002882259665
v 0.000841710018 0.01527542248 -0.003109762445
v 0.0008592093363 0.003024977166 0.04828027636
v 0.0009530706448 0.004652954172 0.04870830104
v 0.0009674304747 -0.006366613321 0.03974916413
v 0.0009789339965 -0.008739809506 -0.003514113836
v 0.001038018614 -0.003966621589 0.04390165955
v 0.001060499344 0.006771229673 0.04870989919
v 0.001063719392 -0.006723555271 0.0381177403
v 0.001067546196 0.01095943898 0.04666048661
v 0.001071751816 -0.007081229705 0.03423564881
v 0.001131849713 0.008400994353 0.0482843481
v 0.001157043385 0.004867531825 0.04870846123
v 0.001159442938 -0.008831866086 -0.00210717693
v 0.00124171644 0.00653711753 0.0487097241
v 0.001247380162 0.001788316644 0.04758626968
v 0.001255303272 0.01187392697 0.0455246605
v 0.001310250722 -0.00629129447 0.03982217237
v 0.001313644694 0.005118776113 0.04870865121
v 0.001347656595 -0.006555423606 0.03903641552
v 0.001372096129 0.006271318533 0.04870953038
v 0.001392876031 0.003253991483 0.04828044772
v 0.001394815394 0.01255379524 0.04422852397
v 0.001416466897 0.005396401975 0.04870885983
v 0.001445433008 -0.003630880732 0.04416834936
v 0.001446302747 0.005984715652 0.04870930687
v 0.001461298321 0.005689041689 0.04870908335
v 0.001473018667 -0.003805194981 0.04405280948
v 0.001480727573 0.01297291927 0.04282189161
v 0.001505890745 0.006453956477 -0.005227301735
v 0.001505892142 0.01315121818 -0.005222232547
v 0.001509740483 0.01311518718 0.04135882854
v 0.001574533293 -0.006499836221 0.03907858208
v 0.001639609458 0.008119164035 0.04828413948
v 0.001643190393 0.009593084455 0.04759217426
v 0.001869517146 0.003585745115 0.04828070104
v 0.001928982092 0.01514792442 -0.002883282257
v 0.0019859022 0.01300101448 0.04135873914
v 0.002022144618 0.002120794496 0.047586523
v 0.002063937252 -0.003797074547 0.04390165955
v 0.002080241684 0.007740893401 0.04828384146
v 0.002091385657 0.01063820627 0.04666024819
v 0.002112732967 -0.006494739093 0.037918102
v 0.002112994669 0.01300009526 -0.005148561671
v 0.002120802877 -0.006333803292 0.03920281678
v 0.002128674649 -0.006834459025 0.0340452902
v 0.002143734833 -0.006027131341 0.04006322846
v 0.002262618626 -0.008688000031 0.004469576757
v 0.002269623335 0.00400665449 0.04828102142
v 0.002278431086 -0.008792465553 0.001389141544
v 0.002288381569 -0.008588806726 -0.003514110111
v 0.002303171204 -0.008693244308 -0.002043696819
v 0.002380345715 0.009183930233 0.04759186506
v 0.002435712842 0.007281664293 0.04828349128
v 0.002438920783 0.01212410908 0.04450137168
v 0.002459211275 0.01149619836 0.04552436993
v 0.002576808911 0.004499488045 0.04828139022
v 0.002632274525 0.01492766477 -0.00331843365
v 0.002652673051 0.0150191132 -0.003111600643
v 0.002654721495 0.01502816752 -0.002997708507
v 0.002691462636 0.006760281976 0.04828310013
v 0.002714121249 0.002602425637 0.04758688435
v 0.002720558085 -0.005988808814 0.03982818872
v 0.002749277279 0.003065406345 0.04778626561
v 0.002749398118 0.003534147749 0.04796365649
v 0.00274961628 0.004332647193 0.04818167537
v 0.002749780659 0.004949038383 0.04828267545
v 0.002749783918 0.004956136923 0.04828350618
v 0.002750045154 0.005935015157 0.04832889885
v 0.002750114072 0.006191173103 0.04831804335
v 0.002750179265 0.006424484309 0.04829994962
v 0.002750275424 0.006789728533 0.04825568944
v 0.002750309883 0.006910599303 0.04823670536
v 0.002750724787 0.008465942927 0.04778819531
v 0.002750809537 0.008775361814 0.04764953256
v 0.002750836313 0.008880254813 0.04759834707
v 0.002751095919 0.009849346243 0.04701274633
v 0.002751215128 0.01028911676 0.04666802287
v 0.002751245862 0.01040403638 0.04656808451
v 0.002751586726 0.01166876592 0.04507725313
v 0.002751802094 0.01247026585 0.04329408333
v 0.002751833294 0.01258915383 0.04282262176
v 0.002751874737 0.01274561789 0.0413585417
v 0.002838149667 -0.006046380382 0.03941097856
v 0.002855338389 -0.003292688401 0.04416834936
v 0.002909827977 -0.003460547654 0.04405280575
v 0.00306526362 -0.003516722005 0.04390166327
v 0.003123105038 0.01262257528 -0.004969687667
v 0.003132337239 -0.006132615265 0.03761479259
v 0.003155942541 -0.006445546634 0.03375552967
v 0.003355467692 -0.008433745243 0.004541016649
v 0.003379012691 -0.00854346063 0.001474866294
v 0.003415466053 -0.008453045972 -0.00194591505
v 0.003523742547 -0.008314155973 -0.003514110111
v 0.003629707266 -0.005296856165 0.04064152017
v 0.003787963185 0.01469377149 -0.002888432704
v 0.003853645641 -0.005391768645 0.04025806487
v 0.003877094947 -0.002994714305 0.04412100092
v 0.003890410764 -0.008203617297 -0.003514113836
v 0.003911807667 -0.0030708001 0.04405280575
v 0.003954281099 -0.003163886489 0.04390165955
v 0.004054807127 0.01211299002 -0.004740359727
v 0.004096003249 0.01205097511 0.04198189825
v 0.004107825458 -0.005652922206 0.03723189607
v 0.004262475763 0.01442260109 -0.003320995253
v 0.004297748674 0.01451043785 -0.003116345732
v 0.004301688634 0.014520064 -0.003003354883
v 0.004402165301 -0.008068741299 0.004626180977
v 0.004433237948 -0.008183887228 0.001580368495
v 0.004480615724 -0.008103780448 -0.001820378238
v 0.004569751211 -0.00504583912 0.04005054384
v 0.004592889454 0.01169725321 0.04222554713
v 0.004836814944 -0.002722997684 0.04385421053
v 0.004901005886 -0.004682768136 0.04068912566
v 0.004927573726 -0.007804061752 -0.003514111973
v 0.004999299534 -0.002724539721 0.04370165989
v 0.005024488084 -0.005071399268 0.03679347783
v 0.005076791625 0.01128845476 0.0423913002
v 0.005088390317 -0.002463693963 0.0439580977
v 0.00532708969 -0.004081707448 0.04138252512
v 0.005387323909 -0.007587767672 0.004716481548
v 0.005410556216 0.01096171513 0.04245464876
v 0.005425652955 -0.007707418874 0.001697262982
v 0.005482901353 -0.00763795292 -0.001673646271
v 0.005507301539 0.01392111834 -0.002899422077
v 0.005595543422 0.01355498284 -0.003464470617
v 0.00564903859 -0.002135607414 0.04384147748
v 0.005649243947 -0.003796278266 0.04152978957
v 0.005683994852 -0.002267304342 0.04370166361
v 0.005687288009 0.01370284613 -0.003325306578
v 0.005738077685 0.01378468331 -0.003124367679
v 0.005744576454 0.01379505545 -0.003012932604
v 0.005826475564 -0.004042612389 0.04055639356
v 0.005867629778 -0.004403785802 0.03632361442
v 0.005872663576 -0.007301309612 -0.003514111741
v 0.005877737887 -0.003864672501 0.04110446572
v 0.005879370961 0.01042439323 0.0424404256
v 0.006123166066 -0.00376183656 0.04067952931
v 0.006191574037 -0.001826786436 0.0436613448
v 0.00620525144 -0.001912456937 0.04360887036
v 0.006295559928 -0.006985604763 0.004803346936
v 0.00634080125 -0.007107728161 0.001817172975
v 0.006398133002 -0.006946588401 -0.003514114302
v 0.006406607572 -0.007048068568 -0.0015122802
v 0.006500652526 0.01167977136 0.03768188506
v 0.006519234739 0.01167977229 0.03757217899
v 0.006568490528 0.01162978448 0.03766268864
v 0.006586984266 0.01161917485 0.03760018572
v 0.006590504665 -0.001700057066 0.04346518219
v 0.006766981445 -0.002602159046 0.04208834469
v 0.006767553743 -0.003080281662 0.04095327109
v 0.006776289083 -0.002927717054 0.04151308164
v 0.006786906626 0.01139816921 0.03785691783
v 0.006830125116 0.01261511166 -0.003466226859
v 0.006840827875 0.01137867104 0.03771377727
v 0.006946977694 -0.001471712254 0.0433261618
v 0.006947445683 0.01274164394 -0.003331701737
v 0.007014530711 0.01281399932 -0.003136412939
v 0.007024726365 0.01282499544 -0.003027377417
v 0.007111490704 -0.006257034373 0.004878210369
v 0.0071427566 -0.006318195723 -0.003514110809
v 0.007163231727 -0.006378489081 0.001931728097
v 0.007236021571 -0.006326635368 -0.001342826057
v 0.007322588935 -0.001234854921 0.04314473271
v 0.007343987934 -0.001795560587 0.04244312644
v 0.007361824159 -0.001210609567 0.04312315956
v 0.007452833001 0.01068856288 0.03806443885
v 0.007554202341 -0.001879888354 0.04194035754
v 0.007607840467 -0.001960265217 0.04137484729
v 0.007639768068 -0.001043912955 0.04295240343
v 0.007721423171 0.01162804756 -0.003468025709
v 0.00772827724 -0.0009938338771 0.04289064929
v 0.007795754354 -0.005594085436 -0.003514115931
v 0.007811689284 0.01014409773 0.03853475302
v 0.007820885628 -0.005398314912 0.004933094606
v 0.007836263627 -0.000936952536 0.04280852899
v 0.007856951095 0.01173226256 -0.003338406095
v 0.007872494869 0.01009646989 0.03839523718
v 0.007878647186 -0.005514962599 0.002033066005
v 0.007936612703 0.01179349143 -0.003149060765
v 0.007946770638 0.01180126984 -0.002934977179
v 0.007956599817 -0.005467846524 -0.001171586104
v 0.008086052723 -0.0008003145922 0.04255608469
v 0.008194147609 -0.000752569933 0.04235120118
v 0.008218879811 -0.0008761241916 0.04177770019
v 0.008236241527 -0.0007469718694 0.0422016643
v 0.008280453272 -0.0007469719276 0.0418256931
v 0.008299764246 -0.004874493927 -0.003514117328
v 0.008421791717 -0.004421410151 0.00496635586
v 0.008443666622 0.01051473245 -0.003469839692
v 0.008484981023 -0.004529282451 0.002118718345
v 0.008518163115 0.008813645691 0.03940494731
v 0.008566286415 -0.004483825527 -0.001002158155
v 0.008579520509 0.008736899123 0.03926955536
v 0.008591850288 0.01059648488 -0.003345025703
v 0.008681651205 0.01064602844 -0.00316166738
v 0.00869825203 0.010655188 -0.002952329116
v 0.008700772189 0.0001084399191 0.03786156327
v 0.00880294852 -0.00396057032 -0.003514110809
v 0.00882237684 0.0004875619779 0.03765393794
v 0.008822973818 0.009666517377 -0.003407255514
v 0.008843330666 0.0005586443003 0.03762607276
v 0.008845994249 0.007588709239 0.04055407271
v 0.008892368525 0.0007327959756 0.03757050261
v 0.008919659071 -0.003347758902 0.004980194848
v 0.00895542372 0.007512463722 0.0404400304
v 0.008980949409 0.009754178114 -0.003289116081
v 0.008987559006 -0.003443757538 0.002189515391
v 0.009012709372 0.007408922072 0.04031024128
v 0.009020771831 0.001253028284 0.03750166297
v 0.009070551023 -0.003397510154 -0.0008364753448
v 0.009073049761 0.009824374691 -0.003107386408
v 0.009126342833 0.006570635363 0.0414076969
v 0.009138575755 0.001850197441 0.03750165924
v 0.009190389886 0.009189466946 -0.003169769887
v 0.009216803126 0.006367135793 0.04128987715
v 0.009227184579 -0.002967938548 -0.003514110809
v 0.00922874175 0.00245302869 0.03750166297
v 0.009244293906 0.006171163637 0.04149442539
v 0.009253603406 0.00609784713 0.04150104523
v 0.009281780571 0.009363571182 -0.002791611012
v 0.00928311795 0.002955103526 0.03756570444
v 0.009295796975 0.005705767311 0.04148872942
v 0.009305011481 0.005600525998 0.04147202522
v 0.009316512384 0.005452392623 0.04143878445
v 0.009342323989 0.004974473268 0.04124670103
v 0.009346834384 0.004830541089 0.04115885124
v 0.00935180299 0.004453028552 0.04082985967
v 0.009365177713 0.008631778881 -0.002984235063
v 0.009459558874 0.00873270724 -0.002814468928
v 0.009465263225 0.008819455281 -0.00261380407
v 0.009578083642 -0.001901896903 -0.003514115
v 0.009583901614 -0.001646677731 -0.003514113137
v 0.00958555378 -0.001899754629 -0.002508636331
v 0.009628479369 -0.000996486051 0.004958558828
v 0.00964034535 0.008194467984 -0.002312467201
v 0.009657391347 -0.001613734174 -0.001459132764
v 0.00970312953 -0.001062966767 0.002289956203
v 0.009715207852 0.007725473493 -0.002271144651
v 0.009715999477 -0.001345232944 -0.0009379950934
v 0.009720368311 0.007857197896 -0.002095638542
v 0.009775673971 -0.001053115469 -0.0005272220005
v 0.009913510643 -0.0002612179669 0.0002249766258
v 0.009922192432 0.006813300774 -0.001350815408
v 0.009939931333 0.006703339517 -0.001272067311
v 0.009987872094 0.006118012127 -0.001109675271
v 0.01000682823 0.006244575139 -0.0009429685306
v 0.01004047971 0.000705516024 0.0007459961926
v 0.01006873604 0.001447820687 0.002341259737
v 0.01009128895 0.005503028166 -0.0004092859162
v 0.01013202406 0.001781058847 0.0009944656631
v 0.01015329175 0.004625255242 0.0002253027778
v 0.01016182918 0.004242093768 0.0003559356555
v 0.01016711909 0.004294036422 0.0004418037715
v 0.01017093286 0.003899981733 0.0005362122902
v 0.01017718017 0.003942997195 0.0006260900991
v 0.01017722487 0.002887092531 0.0009529740782
f 23 8 12
f 561 565 548
f 239 345 288
f 73 70 87
f 87 94 73
f 113 94 87
f 285 363 283
f 283 223 285
f 345 514 503
f 182 239 23
f 4 23 1
f 2 4 1
f 3 4 2
f 13 12 11
f 11 12 8
f 11 47 13
f 210 161 230
f 292 265 254
f 1 23 7
f 199 47 198
f 562 561 560
f 565 561 562
f 540 539 498
f 567 565 539
f 539 540 567
f 567 540 569
f 548 565 567
f 468 437 482
f 482 470 468
f 452 437 394
f 140 153 159
f 175 239 216
f 172 239 175
f 153 239 172
f 172 159 153
f 123 239 136
f 136 239 153
f 136 153 140
f 345 409 366
f 113 87 102
f 113 102 135
f 258 272 286
f 363 285 299
f 299 285 223
f 288 329 297
f 297 329 295
f 297 259 288
f 295 259 297
f 423 438 436
f 457 456 436
f 436 438 457
f 363 407 406
f 408 407 365
f 295 329 365
f 365 407 363
f 363 299 365
f 365 299 295
f 459 478 457
f 457 438 459
f 459 438 439
f 497 478 488
f 488 503 497
f 345 503 488
f 497 503 508
f 508 503 514
f 237 186 271
f 237 157 186
f 271 239 237
f 129 157 130
f 130 105 129
f 271 186 257
f 56 27 17
f 17 47 56
f 128 129 104
f 104 129 105
f 41 5 36
f 8 5 41
f 32 2 1
f 23 4 6
f 6 8 23
f 6 5 8
f 6 4 3
f 3 5 6
f 198 47 197
f 190 234 191
f 210 230 190
f 10 7 23
f 25 10 23
f 15 10 25
f 23 239 25
f 73 94 78
f 270 265 292
f 292 275 270
f 56 47 50
f 112 148 120
f 539 565 538
f 498 539 538
f 565 562 535
f 535 538 565
f 572 570 571
f 548 567 568
f 568 567 569
f 569 571 568
f 568 571 570
f 556 551 524
f 524 531 556
f 524 551 546
f 546 509 524
f 536 509 546
f 489 437 452
f 482 437 489
f 489 493 482
f 482 493 496
f 512 509 536
f 512 493 509
f 512 496 493
f 460 398 397
f 353 375 347
f 353 397 398
f 447 422 440
f 413 434 354
f 331 413 354
f 340 331 307
f 526 508 514
f 506 508 526
f 529 553 558
f 433 460 427
f 433 468 460
f 437 468 433
f 460 468 462
f 462 468 470
f 462 470 463
f 223 178 177
f 252 239 288
f 252 216 239
f 288 259 252
f 220 216 252
f 252 259 220
f 288 345 321
f 345 366 321
f 321 329 288
f 321 366 329
f 450 345 458
f 450 430 345
f 439 430 450
f 458 459 450
f 450 459 439
f 414 409 345
f 345 430 414
f 408 409 414
f 505 522 516
f 516 522 548
f 510 522 505
f 527 512 536
f 511 512 527
f 527 510 511
f 522 510 527
f 144 135 150
f 144 164 165
f 150 164 144
f 150 135 134
f 134 135 102
f 143 163 180
f 180 164 143
f 143 141 163
f 122 141 143
f 80 95 86
f 86 195 80
f 86 194 195
f 284 258 286
f 180 163 224
f 224 163 178
f 181 164 180
f 180 224 181
f 181 224 226
f 231 264 272
f 226 264 231
f 424 438 423
f 423 406 424
f 424 406 407
f 439 438 424
f 449 456 475
f 504 490 506
f 499 540 498
f 466 475 490
f 432 456 449
f 329 366 367
f 367 365 329
f 408 365 367
f 367 409 408
f 367 366 409
f 426 404 419
f 419 432 426
f 419 436 456
f 456 432 419
f 399 426 412
f 399 404 426
f 404 399 358
f 476 488 478
f 476 459 458
f 478 459 476
f 458 345 476
f 345 488 476
f 130 157 158
f 239 182 225
f 225 237 239
f 157 237 225
f 225 158 157
f 139 129 128
f 157 129 155
f 186 157 155
f 129 139 155
f 155 139 154
f 13 47 14
f 47 17 14
f 14 12 13
f 26 17 27
f 182 109 133
f 133 225 182
f 130 158 133
f 158 225 133
f 106 105 130
f 130 133 106
f 106 133 109
f 128 104 119
f 119 139 128
f 154 139 119
f 47 11 43
f 43 197 47
f 43 11 8
f 80 195 43
f 66 88 82
f 67 59 66
f 71 88 66
f 66 59 71
f 60 64 49
f 46 26 27
f 46 60 49
f 46 59 67
f 67 60 46
f 2 32 33
f 3 2 33
f 36 5 33
f 33 5 3
f 250 194 213
f 245 194 250
f 245 250 292
f 198 197 211
f 211 199 198
f 192 191 222
f 191 234 222
f 222 213 192
f 250 213 222
f 169 230 161
f 160 170 174
f 292 254 248
f 248 243 292
f 254 211 248
f 248 211 197
f 434 444 442
f 233 184 238
f 238 184 232
f 44 15 48
f 44 10 15
f 63 51 37
f 239 63 37
f 37 25 239
f 65 62 22
f 22 62 58
f 58 52 22
f 65 22 57
f 77 33 32
f 94 95 77
f 77 78 94
f 290 251 263
f 357 332 325
f 325 332 290
f 290 315 325
f 395 394 437
f 437 433 395
f 395 433 427
f 300 251 290
f 290 332 300
f 246 251 300
f 300 291 246
f 300 332 338
f 338 291 300
f 217 251 246
f 215 206 205
f 215 263 251
f 251 217 215
f 215 217 206
f 205 206 142
f 142 132 205
f 142 206 148
f 90 132 142
f 142 112 90
f 148 112 142
f 61 71 56
f 56 50 61
f 74 132 90
f 90 88 74
f 74 88 71
f 71 61 74
f 74 61 132
f 116 119 104
f 498 538 384
f 524 509 521
f 521 531 524
f 521 528 531
f 452 394 393
f 393 528 452
f 393 394 357
f 534 535 562
f 560 531 534
f 534 562 560
f 531 528 534
f 388 535 534
f 563 566 564
f 543 564 566
f 543 566 572
f 563 564 543
f 347 375 352
f 352 316 347
f 301 312 345
f 301 239 271
f 345 239 301
f 301 313 312
f 271 257 301
f 257 313 301
f 346 359 345
f 345 312 346
f 345 359 403
f 559 531 560
f 559 556 531
f 560 561 559
f 551 556 554
f 556 559 554
f 554 561 548
f 554 559 561
f 463 470 474
f 474 470 482
f 482 496 474
f 427 460 418
f 460 397 418
f 344 291 338
f 293 291 344
f 347 293 344
f 344 353 347
f 397 353 344
f 411 353 398
f 375 353 411
f 461 447 440
f 440 422 461
f 422 411 461
f 460 462 461
f 461 462 463
f 463 474 461
f 461 474 447
f 461 398 460
f 461 411 398
f 446 474 473
f 447 474 446
f 401 413 400
f 413 331 400
f 331 340 400
f 287 340 296
f 296 340 307
f 287 322 343
f 343 340 287
f 401 400 343
f 343 400 340
f 525 553 529
f 159 177 162
f 140 159 162
f 162 141 140
f 163 141 162
f 178 163 162
f 162 177 178
f 223 177 221
f 221 299 223
f 295 299 221
f 221 259 295
f 220 259 221
f 176 177 159
f 176 172 175
f 159 172 176
f 175 216 176
f 176 216 220
f 220 221 176
f 176 221 177
f 511 510 492
f 122 99 121
f 121 141 122
f 140 141 121
f 123 136 121
f 121 136 140
f 101 99 122
f 103 239 123
f 123 121 103
f 103 121 99
f 76 63 239
f 151 160 138
f 151 170 160
f 151 144 165
f 165 170 151
f 124 164 150
f 124 143 164
f 150 134 124
f 124 134 102
f 122 143 124
f 124 101 122
f 102 101 124
f 111 94 113
f 111 95 94
f 193 86 192
f 194 86 193
f 192 213 193
f 193 213 194
f 262 264 226
f 226 224 262
f 283 264 262
f 262 223 283
f 262 178 223
f 262 224 178
f 425 430 439
f 439 424 425
f 408 414 425
f 425 414 430
f 425 407 408
f 425 424 407
f 477 456 457
f 477 475 456
f 457 478 477
f 477 478 497
f 484 466 490
f 484 504 500
f 490 504 484
f 500 501 484
f 426 432 448
f 448 432 449
f 449 475 448
f 436 419 405
f 405 419 404
f 423 436 405
f 185 184 233
f 185 257 186
f 186 155 185
f 19 14 17
f 19 26 23
f 17 26 19
f 23 12 19
f 12 14 19
f 39 49 23
f 23 26 39
f 39 46 49
f 26 46 39
f 64 60 72
f 23 49 54
f 54 64 23
f 49 64 54
f 8 41 42
f 42 43 8
f 42 41 80
f 80 43 42
f 196 43 195
f 197 43 196
f 195 243 196
f 196 248 197
f 243 248 196
f 59 46 45
f 71 59 45
f 56 71 45
f 29 30 1
f 1 7 29
f 29 7 28
f 48 30 29
f 29 44 48
f 31 32 1
f 1 30 31
f 31 77 32
f 30 77 31
f 242 243 195
f 195 194 242
f 194 245 242
f 292 243 242
f 242 245 292
f 250 222 260
f 292 250 260
f 292 280 304
f 230 169 253
f 268 279 280
f 230 253 268
f 305 279 307
f 280 279 305
f 305 304 280
f 138 160 167
f 249 229 214
f 214 231 249
f 272 258 249
f 249 231 272
f 187 231 214
f 187 181 226
f 226 231 187
f 214 229 212
f 212 174 170
f 212 187 214
f 170 187 212
f 381 372 364
f 354 434 377
f 434 442 377
f 383 372 382
f 382 372 381
f 350 349 368
f 357 325 350
f 350 325 315
f 281 316 303
f 281 293 347
f 347 316 281
f 38 29 28
f 15 25 16
f 20 52 48
f 20 22 52
f 48 15 20
f 15 16 20
f 20 57 22
f 73 78 75
f 75 57 73
f 65 57 75
f 78 77 75
f 75 62 65
f 58 62 75
f 75 52 58
f 48 52 75
f 75 30 48
f 75 77 30
f 53 70 73
f 73 57 53
f 53 51 70
f 57 20 53
f 36 33 79
f 33 77 79
f 80 41 79
f 79 41 36
f 79 95 80
f 79 77 95
f 338 332 370
f 371 332 357
f 357 394 371
f 394 395 371
f 371 370 332
f 395 370 371
f 292 306 289
f 310 350 315
f 310 289 306
f 290 263 269
f 199 211 218
f 218 254 265
f 218 211 254
f 236 270 275
f 265 270 236
f 206 217 207
f 207 217 246
f 50 132 55
f 55 61 50
f 132 61 55
f 108 104 82
f 108 116 104
f 82 88 108
f 120 119 117
f 119 116 117
f 117 112 120
f 538 535 386
f 342 384 341
f 292 339 342
f 342 341 292
f 342 339 383
f 383 384 342
f 507 521 509
f 507 489 452
f 509 493 507
f 493 489 507
f 452 528 518
f 528 521 518
f 518 507 452
f 521 507 518
f 391 534 528
f 540 499 541
f 569 540 541
f 541 571 569
f 533 543 529
f 529 558 533
f 533 558 563
f 316 352 317
f 303 316 317
f 375 411 374
f 313 317 374
f 374 352 375
f 374 317 352
f 548 403 417
f 417 516 548
f 417 403 505
f 505 516 417
f 536 546 545
f 545 527 536
f 545 546 551
f 551 554 545
f 545 554 548
f 434 413 415
f 415 413 401
f 402 415 401
f 416 415 402
f 378 399 412
f 320 333 322
f 320 284 286
f 355 343 322
f 401 343 355
f 355 402 401
f 563 558 547
f 547 566 563
f 572 566 547
f 547 403 548
f 345 403 547
f 547 570 572
f 548 568 547
f 547 568 570
f 557 558 553
f 557 547 558
f 502 520 513
f 502 501 500
f 500 504 502
f 504 520 502
f 513 515 502
f 519 525 502
f 502 525 529
f 529 543 502
f 502 543 501
f 553 520 523
f 506 526 523
f 523 504 506
f 523 520 504
f 519 502 517
f 517 502 515
f 550 520 553
f 550 517 515
f 513 520 550
f 550 515 513
f 519 517 550
f 553 525 550
f 550 525 519
f 472 492 469
f 473 474 495
f 495 474 496
f 495 472 473
f 492 472 495
f 511 492 495
f 495 512 511
f 496 512 495
f 486 403 469
f 469 492 486
f 505 403 486
f 486 510 505
f 486 492 510
f 84 102 87
f 84 101 102
f 84 87 70
f 131 151 138
f 135 144 131
f 144 151 131
f 138 127 131
f 127 111 131
f 113 135 131
f 131 111 113
f 95 111 114
f 114 111 127
f 258 284 282
f 282 322 287
f 282 320 322
f 284 320 282
f 494 477 497
f 506 490 494
f 490 475 494
f 475 477 494
f 494 508 506
f 497 508 494
f 483 499 498
f 501 499 483
f 483 484 501
f 326 324 283
f 283 363 326
f 358 324 326
f 363 406 326
f 184 185 173
f 173 155 154
f 173 185 155
f 173 119 120
f 154 119 173
f 120 209 173
f 232 184 173
f 173 209 232
f 85 106 109
f 64 72 166
f 23 64 166
f 166 72 182
f 166 182 23
f 34 27 56
f 56 45 34
f 34 46 27
f 34 45 46
f 337 351 311
f 277 253 244
f 277 296 307
f 244 296 277
f 307 279 277
f 279 268 277
f 277 268 253
f 189 169 188
f 189 253 169
f 188 244 189
f 244 253 189
f 183 229 188
f 160 174 183
f 183 167 160
f 183 212 229
f 174 212 183
f 138 167 152
f 229 249 266
f 266 249 258
f 266 282 287
f 258 282 266
f 179 170 165
f 179 187 170
f 181 187 179
f 165 164 179
f 164 181 179
f 233 238 256
f 238 281 256
f 256 281 303
f 28 7 35
f 35 38 28
f 7 38 35
f 44 29 40
f 29 38 40
f 10 44 40
f 7 10 9
f 9 38 7
f 10 40 9
f 9 40 38
f 51 53 21
f 21 53 20
f 338 370 396
f 396 344 338
f 397 344 396
f 427 418 396
f 396 418 397
f 396 395 427
f 396 370 395
f 278 274 275
f 278 289 274
f 278 275 292
f 292 289 278
f 349 350 327
f 350 310 327
f 298 315 290
f 290 269 298
f 298 310 315
f 227 269 263
f 227 215 205
f 263 215 227
f 275 274 261
f 261 236 275
f 274 269 261
f 228 218 265
f 265 236 228
f 120 148 156
f 156 171 120
f 148 206 156
f 206 207 156
f 120 171 208
f 208 209 120
f 171 156 208
f 208 156 207
f 232 209 208
f 116 108 110
f 110 117 116
f 112 117 110
f 90 112 110
f 110 88 90
f 110 108 88
f 341 384 385
f 385 384 538
f 538 386 385
f 528 393 392
f 392 391 528
f 368 391 392
f 392 350 368
f 392 393 357
f 357 350 392
f 388 534 389
f 349 356 389
f 368 349 389
f 572 571 542
f 571 541 542
f 542 543 572
f 501 543 542
f 542 499 501
f 542 541 499
f 563 543 537
f 537 533 563
f 543 533 537
f 359 346 420
f 522 527 530
f 527 545 530
f 548 522 530
f 428 415 416
f 434 415 428
f 428 444 434
f 428 431 444
f 348 378 333
f 348 324 358
f 402 355 410
f 410 378 412
f 416 402 410
f 532 549 526
f 532 547 549
f 532 526 514
f 532 514 345
f 345 547 532
f 555 557 553
f 547 557 555
f 526 549 552
f 552 523 526
f 549 547 552
f 547 555 552
f 553 523 552
f 552 555 553
f 69 84 70
f 63 76 69
f 70 51 69
f 69 51 63
f 89 103 99
f 239 103 89
f 89 76 239
f 149 161 210
f 149 147 161
f 210 190 149
f 412 426 429
f 429 410 412
f 426 448 429
f 448 451 429
f 453 451 448
f 475 466 453
f 453 448 475
f 465 451 467
f 483 465 467
f 467 453 466
f 451 453 467
f 466 484 467
f 484 483 467
f 443 465 444
f 443 451 465
f 444 431 443
f 431 428 443
f 361 326 406
f 358 326 361
f 361 406 423
f 423 405 361
f 404 358 361
f 361 405 404
f 92 109 182
f 92 85 109
f 182 72 92
f 67 85 68
f 68 60 67
f 68 72 60
f 68 92 72
f 85 92 68
f 83 85 67
f 67 66 83
f 83 66 82
f 83 104 105
f 82 104 83
f 105 106 83
f 106 85 83
f 234 273 267
f 267 222 234
f 267 260 222
f 292 260 267
f 267 273 292
f 247 273 234
f 268 273 247
f 230 268 247
f 247 190 230
f 234 190 247
f 276 268 280
f 276 273 268
f 276 280 292
f 292 273 276
f 292 304 308
f 308 311 292
f 304 305 308
f 146 152 168
f 161 147 168
f 168 147 146
f 168 169 161
f 168 152 167
f 188 169 168
f 168 183 188
f 167 183 168
f 138 152 145
f 145 152 146
f 145 127 138
f 229 266 241
f 241 244 188
f 188 229 241
f 241 266 287
f 287 296 241
f 241 296 244
f 387 535 388
f 387 386 535
f 386 387 376
f 376 387 388
f 349 327 309
f 309 306 292
f 309 310 306
f 309 327 310
f 323 356 349
f 323 330 356
f 292 330 323
f 233 256 255
f 255 185 233
f 257 185 255
f 255 256 303
f 303 317 255
f 255 313 257
f 255 317 313
f 18 16 25
f 25 21 18
f 18 20 16
f 18 21 20
f 25 37 24
f 24 21 25
f 24 37 51
f 51 21 24
f 294 269 274
f 294 298 269
f 310 298 294
f 274 289 294
f 289 310 294
f 269 227 235
f 235 261 269
f 236 261 235
f 240 238 232
f 232 208 240
f 293 281 240
f 240 281 238
f 246 291 240
f 240 291 293
f 240 207 246
f 240 208 207
f 534 391 390
f 390 389 534
f 390 391 368
f 368 389 390
f 388 389 369
f 369 389 356
f 369 376 388
f 356 330 369
f 446 420 421
f 422 447 421
f 447 446 421
f 421 411 422
f 421 374 411
f 359 420 445
f 445 420 446
f 445 446 473
f 473 472 445
f 373 420 346
f 373 346 312
f 374 421 373
f 373 421 420
f 312 313 373
f 313 374 373
f 544 545 548
f 548 530 544
f 544 530 545
f 333 320 335
f 335 348 333
f 335 320 286
f 324 348 335
f 399 378 360
f 378 348 360
f 360 358 399
f 360 348 358
f 378 410 362
f 362 410 355
f 333 378 362
f 322 333 362
f 362 355 322
f 81 69 76
f 84 69 81
f 76 89 81
f 81 89 99
f 99 101 81
f 101 84 81
f 114 115 97
f 97 86 95
f 95 114 97
f 146 147 137
f 137 145 146
f 137 114 127
f 127 145 137
f 147 149 125
f 125 137 147
f 114 137 125
f 491 483 498
f 498 384 491
f 491 384 383
f 383 382 491
f 491 382 381
f 381 487 491
f 480 465 483
f 483 491 480
f 480 491 487
f 471 464 480
f 480 464 465
f 455 454 442
f 455 464 454
f 455 442 444
f 444 465 455
f 465 464 455
f 454 464 379
f 379 377 442
f 442 454 379
f 379 464 471
f 354 377 379
f 379 337 354
f 379 351 337
f 416 410 435
f 410 429 435
f 435 428 416
f 435 443 428
f 435 429 451
f 451 443 435
f 383 339 334
f 334 372 383
f 334 339 292
f 292 328 334
f 334 364 372
f 334 328 364
f 319 311 351
f 351 364 319
f 364 328 319
f 292 311 319
f 319 328 292
f 318 308 305
f 337 311 318
f 311 308 318
f 354 337 318
f 318 331 354
f 307 331 318
f 318 305 307
f 386 376 336
f 341 385 336
f 336 385 386
f 292 341 336
f 336 330 292
f 336 369 330
f 376 369 336
f 349 309 314
f 314 323 349
f 314 309 292
f 292 323 314
f 203 235 227
f 201 228 236
f 441 472 469
f 441 445 472
f 469 403 441
f 441 403 359
f 359 445 441
f 302 335 286
f 324 335 302
f 283 324 302
f 286 272 302
f 302 264 283
f 272 264 302
f 190 115 118
f 118 115 114
f 114 125 118
f 126 125 149
f 126 149 190
f 190 118 126
f 126 118 125
f 204 227 205
f 204 203 227
f 205 132 204
f 204 132 50
f 50 203 204
f 236 235 219
f 219 201 236
f 235 203 219
f 218 228 200
f 228 201 200
f 199 218 200
f 47 199 200
f 200 201 47
f 107 97 115
f 107 190 191
f 107 115 190
f 471 480 479
f 480 481 479
f 485 480 487
f 485 481 480
f 485 487 381
f 381 481 485
f 202 219 203
f 201 219 202
f 202 203 50
f 202 50 47
f 47 201 202
f 86 97 91
f 97 93 91
f 192 86 91
f 91 93 192
f 97 98 96
f 96 93 97
f 96 98 191
f 96 191 192
f 192 93 96
f 100 98 97
f 97 107 100
f 191 98 100
f 100 107 191
f 380 379 471
f 471 479 380
f 381 364 380
f 380 481 381
f 380 479 481
f 380 364 351
f 351 379 380
