v -0.01998178847 0.000224277057 -0.1446028799
v -0.01998178661 0.0002242739429 0.00989381969
v -0.01726937853 -0.009898579679 -0.1446028799
v -0.01726937667 -0.009898582473 0.00989381969
v -0.01726937667 0.01034713164 -0.1446028799
v -0.0172693748 0.01034712885 0.00989381969
v -0.009858936071 -0.01730902493 0.00989381969
v -0.009858936071 -0.01730902307 -0.1446028799
v -0.009858931415 0.01775757596 0.00989381969
v -0.009858930483 0.01775757782 -0.1446028799
v 0.0002639171435 -0.02002144046 0.00989381969
v 0.0002639171726 -0.0200214386 -0.1446028799
v 0.0002639256709 0.02046998776 0.009893834591
v 0.0002639257 0.02046998963 -0.1446028799
v 0.01038677339 -0.01730903424 0.009893834591
v 0.01038677432 -0.01730903238 -0.1446028799
v 0.0103867827 0.01775757596 0.009893834591
v 0.01038678363 0.01775757782 -0.1446028799
v 0.01779722236 -0.009898595512 -0.1446028799
v 0.01779722422 -0.009898598306 0.009893834591
v 0.01779722795 0.01034713071 -0.1446028799
v 0.01779722981 0.01034712791 0.009893834591
v 0.02050963975 0.0002242740011 -0.1446028799
v 0.02050964162 0.000224270887 0.009893834591
f 24 19 23
f 22 23 21
f 24 23 22
f 13 17 18
f 14 13 18
f 17 22 18
f 18 22 21
f 1 6 5
f 9 6 13
f 14 10 9
f 9 13 14
f 10 5 9
f 9 5 6
f 20 19 24
f 16 20 15
f 19 20 16
f 11 15 7
f 12 16 11
f 11 16 15
f 2 15 13
f 13 6 2
f 2 6 1
f 1 3 2
f 7 3 8
f 8 11 7
f 12 11 8
f 7 15 4
f 15 2 4
f 4 3 7
f 4 2 3
f 20 17 13
f 24 22 20
f 13 15 20
f 20 22 17
f 14 18 8
f 8 23 19
f 8 10 14
f 1 5 8
f 8 3 1
f 21 23 8
f 8 18 21
f 8 5 10
f 19 16 8
f 8 16 12
