v -0.08553031087 -2.945134111e-05 0.07751962543
v -0.08551223576 -0.0008282411145 0.07739334553
v -0.08550801873 0.000767013873 0.07738257945
v -0.08545526862 -0.001542122103 0.07701782882
v -0.08544711024 0.001475526951 0.07699730247
v -0.08539595455 -4.684431769e-05 0.07505445182
v -0.08536560833 -0.002094217343 0.07643362135
v -0.08535478264 0.002018939005 0.0764054209
v -0.08529637009 -1.569604683e-05 0.07960022986
v -0.08526339382 -0.001471409108 0.07937009633
v -0.08525571227 0.001435760874 0.0793504864
v -0.08525317907 -0.002424378647 0.0757041201
v -0.08524065465 0.002338483231 0.07567150891
v -0.08515960723 -0.002772354754 0.07868578285
v -0.08514475077 0.002726939274 0.07864835858
v -0.08513019979 -0.00249698991 0.07490804046
v -0.08511715382 0.002399410587 0.07487443089
v -0.0850096494 -0.002303857822 0.07413215935
v -0.08499773592 0.002195491921 0.07410113513
v -0.08499619365 -0.003778462298 0.07762113214
v -0.08497648686 0.00371723529 0.07756973058
v -0.0849050805 -0.001866422943 0.07345993817
v -0.08489556611 0.001748099574 0.07343518734
v -0.08482732624 -0.00123190356 0.07296483219
v -0.08482109755 0.001106459298 0.07294863462
v -0.08479133993 -0.004380156286 0.07629169524
v -0.08478520066 -0.0004688969639 0.07269991934
v -0.08478301018 0.0003397573892 0.07269438356
v -0.084768489 0.004299567081 0.07623226941
v -0.08456719667 -0.004512466956 0.07484094054
v -0.08454342186 0.004410597961 0.07477970421
v -0.08438712358 -1.540589878e-08 0.08581714332
v -0.08434749395 -0.00416051643 0.0734270215
v -0.08432579786 0.004038985353 0.0733704567
v -0.08432105929 -0.002633880591 0.08542209864
v -0.08432105184 0.00263385335 0.08542207628
v -0.08415146917 -0.005135728978 0.0844078809
v -0.08415146917 0.005135702435 0.0844078809
v -0.08388549834 0.007329106331 0.0828172043
v -0.08388549089 -0.007329132874 0.08281721175
v -0.08352915198 0.008974159136 0.08068612963
v -0.08352913707 -0.008974187076 0.08068612218
v -0.08311601728 0.01003658678 0.07821545005
v -0.08311600983 -0.01003661472 0.0782154426
v -0.08264961839 0.01044774987 0.0754262656
v -0.08264960349 -0.01044777595 0.0754262507
v -0.07712288946 -0.007220461033 0.1029920951
v -0.07712288946 0.007220427506 0.1029920951
v -0.07710810751 -2.14071072e-08 0.1040921062
v -0.07701190561 -0.01407899149 0.1001735106
v -0.07701190561 0.01407896075 0.1001735106
v -0.07669755071 -0.02009195834 0.09575773776
v -0.07669755071 0.02009192854 0.09575775266
v -0.07636507601 -0.02460168116 0.08983871341
v -0.07636507601 0.02460165136 0.08983872831
v -0.07587298006 -0.02751420252 0.08298018575
v -0.07587298006 0.02751417644 0.08298020065
v -0.07538755983 -0.02864135802 0.07523500174
v -0.07538755983 0.02864133194 0.07523500919
v -0.07517173141 -0.02037380636 0.05545210466
v -0.07517173141 0.02037378773 0.05545211211
v -0.07506691664 -0.02783753537 0.06797020882
v -0.07506691664 0.02783751301 0.06797021627
v -0.07503493875 -0.02518996224 0.06134151667
v -0.07503493875 0.02518994361 0.06134152412
v -0.07186094671 -0.03147580847 0.05732318014
v -0.07186094671 0.03147578984 0.05732318759
v -0.07174336165 -0.03556348756 0.08418166637
v -0.07174336165 0.03556346148 0.08418168128
v -0.07136052102 -0.02389014699 0.04441258311
v -0.07136052102 0.02389013208 0.04441259056
v -0.07041934133 -0.0328249298 0.09940651059
v -0.07041934133 0.03282489628 0.09940652549
v -0.06984443963 -0.03935621679 0.07769162208
v -0.06984443963 0.03935619071 0.07769163698
v -0.06895120442 -0.03855523095 0.09173439443
v -0.06895120442 0.03855519742 0.09173440933
v -0.06796832383 -0.009222351015 0.1194013208
v -0.06796832383 0.00922231283 0.1194013208
v -0.06796235591 -2.325736759e-08 0.1202292517
v -0.06763695925 -0.0183888115 0.1170246974
v -0.06763695925 0.01838877425 0.1170246974
v -0.06727275252 -0.0423980318 0.06838243455
v -0.06727275252 0.04239801317 0.06838244945
v -0.06702056527 -0.03615694493 0.04510262609
v -0.06702056527 0.03615693375 0.04510263726
v -0.06662996858 -0.02776157297 0.1135014817
v -0.06662996858 0.02776153572 0.1135014966
v -0.06375490874 -0.04554731771 0.05745802447
v -0.06375490874 0.04554729909 0.05745803937
v -0.06361871213 -0.0381552428 0.1088674217
v -0.06361871213 0.03815520927 0.1088674366
v -0.06265883148 -0.03859946504 0.03367875516
v -0.06265883148 0.03859945387 0.03367877007
v -0.06255590916 -0.04849459603 0.08232370019
v -0.06255590916 0.04849456996 0.08232371509
v -0.05949132144 -0.04821822792 0.04573269933
v -0.05949132144 0.04821821675 0.04573271424
v -0.05920985341 -0.04825386405 0.1015170738
v -0.05920985341 0.04825383052 0.1015170887
v -0.05737002939 -0.05378843471 0.07048566639
v -0.05737002939 0.05378840864 0.0704856813
v -0.05486720055 -0.05048717186 0.03392371163
v -0.05486720055 0.05048716068 0.03392372653
v -0.05399941653 -2.45847005e-08 0.1345393658
v -0.05395013839 -0.01046722662 0.1335860491
v -0.05395013839 0.01046718471 0.1335860491
v -0.05382376909 -0.05614915118 0.05880889297
v -0.05382376909 0.05614913255 0.05880891532
v -0.05374221504 -0.0208289586 0.131304279
v -0.05374221504 0.02082891762 0.131304279
v -0.0533374548 -0.03146141395 0.1276006252
v -0.0533374548 0.03146137297 0.1276006401
v -0.05262556672 -0.0001076511107 -0.03229715675
v -0.05262556672 0.000107661639 -0.03229715675
v -0.05218412727 -0.01053046063 -0.03255835176
v -0.05218412727 0.01053047273 -0.03255835176
v -0.05169272423 -0.04238174856 0.1221228763
v -0.05169272423 0.04238170758 0.1221228912
v -0.0506239906 -0.05102769285 0.02255408838
v -0.0506239906 0.05102769285 0.02255410329
v -0.05045934021 -0.02094239742 -0.03322599083
v -0.05045934021 0.02094240859 -0.03322599083
v -0.0504559204 -0.05881600454 0.08911500871
v -0.0504559204 0.05881597847 0.08911502361
v -0.05003514141 -0.05775805563 0.04701216891
v -0.05003514141 0.057758037 0.04701218754
v -0.04960728437 -0.0001510875736 -0.03972144425
v -0.04960728437 0.0001511005248 -0.03972144425
v -0.04860389978 -0.05313235894 0.1135890633
v -0.04860389978 0.05313232541 0.1135890782
v -0.0485939011 -0.01016735379 -0.03969272226
v -0.0485939011 0.01016736776 -0.03969272226
v -0.04700344056 -0.02007812262 -0.04006371647
v -0.04700344056 0.02007813752 -0.04006371647
v -0.04697953165 -0.03061776608 -0.03416284174
v -0.04697953165 0.03061777726 -0.03416282684
v -0.04594717547 -0.05924668163 0.03530271724
v -0.04594717547 0.05924667045 0.03530273959
v -0.04402321577 -0.02902675979 -0.04086939245
v -0.04402321577 0.02902677469 -0.04086937755
v -0.04322392866 -0.0001277063566 -0.04553104937
v -0.04322392866 0.0001277211995 -0.04553104937
v -0.04302489385 -0.06137559563 0.1034886539
v -0.04302489385 0.0613755621 0.1034886688
v -0.04270802438 -0.009890725836 -0.04536089301
v -0.04270802438 0.009890741669 -0.04536089301
v -0.04241364449 -0.06404937804 0.07254421711
v -0.04241364449 0.06404934824 0.07254423201
v -0.04174384102 -0.0389983803 -0.03516618162
v -0.04174384102 0.03899839148 -0.03516616672
v -0.04169649631 -0.06414805353 0.06048822403
v -0.04169649631 0.06414802372 0.06048824638
v -0.04114643857 -0.01942802779 -0.04531241208
v -0.04114643857 0.01942804269 -0.04531241208
v -0.04087236151 -0.06033878028 0.02247398347
v -0.04087236151 0.06033878028 0.02247400582
v -0.0406162031 -0.06495434791 0.07238315791
v -0.0406162031 0.06495431811 0.07238318026
v -0.04001407325 -0.06505103409 0.08435481787
v -0.04001407325 0.06505100429 0.08435483277
v -0.03964298218 -0.06461603194 0.04891199246
v -0.03964298218 0.06461601704 0.04891201109
v -0.03954106569 -0.03599369898 -0.04115501046
v -0.03954106569 0.03599371016 -0.04115499556
v -0.03919591382 -0.02762479708 -0.04523395747
v -0.03919591382 0.02762481198 -0.04523394257
v -0.03832381591 -0.06588990241 0.08362326026
v -0.03832381591 0.06588987261 0.08362329006
v -0.03793555871 -0.06557445228 0.04932643473
v -0.03793555871 0.06557443738 0.04932645336
v -0.0372129716 -0.03323652223 0.1385378689
v -0.0372129716 0.0332364738 0.1385378838
v -0.03720382228 -0.03319004923 -0.0444490239
v -0.03720382228 0.03319006041 -0.044449009
v -0.03709917888 -0.04471775144 0.1325968504
v -0.03709917888 0.04471771047 0.1325968653
v -0.03701276332 -0.06521076709 0.0385613516
v -0.03701276332 0.06521075219 0.03856137395
v -0.03691591322 -0.05814892054 0.004619469866
v -0.03691591322 0.05814892054 0.004619488493
v -0.03686884046 -0.02205982991 0.1421854496
v -0.03686884046 0.0220597852 0.1421854496
v -0.03666326031 -0.01103790756 0.1443507075
v -0.03666326031 0.01103786193 0.1443507075
v -0.03626293316 -0.05385497212 -0.01049280912
v -0.03626293316 0.05385497585 -0.01049279422
v -0.03594094142 -2.520338782e-08 0.1454823613
v -0.03585143387 -0.05583118275 0.1237831265
v -0.03585143387 0.05583114177 0.1237831414
v -0.0357125625 -0.0001003645084 -0.05011894554
v -0.0357125625 0.0001003808429 -0.05011894554
v -0.03520932421 -0.05028284714 -0.02406657487
v -0.03520932421 0.05028285831 -0.02406655997
v -0.03514571115 -0.009909943677 -0.04989907891
v -0.03514571115 0.009909961373 -0.04989907891
v -0.03509178758 -0.06670318544 0.09326387942
v -0.03509178758 0.06670315564 0.09326390922
v -0.03483146057 -0.0482872501 -0.03064294904
v -0.03483146057 0.04828726128 -0.03064293414
v -0.03473544866 -0.06580258161 0.03296785429
v -0.03473544866 0.06580256671 0.03296787664
v -0.03466926515 -0.04594476894 -0.03700958192
v -0.03466926515 0.04594478011 -0.03700956702
v -0.03386189044 -0.0195352044 -0.04950024933
v -0.03386189044 0.0195352193 -0.04950024933
v -0.03368330747 -0.06747621298 0.09204462171
v -0.03368330747 0.06747618318 0.09204463661
v -0.03319104761 -0.04111932591 -0.04298935086
v -0.03319104761 0.04111933708 -0.04298933595
v -0.03275711462 -0.06357719749 0.1136947498
v -0.03275711462 0.06357715279 0.1136947647
v -0.03267103434 -0.02815124579 -0.04865266383
v -0.03267103434 0.02815126069 -0.04865264893
v -0.03215714544 -0.0691864416 0.06120027602
v -0.03215714544 0.0691864118 0.06120029837
v -0.03206862509 -0.03537598252 -0.04657894373
v -0.03206862509 0.03537600115 -0.04657892883
v -0.03178551421 -0.06938074529 0.0729046613
v -0.03178551421 0.06938071549 0.0729046911
v -0.03165674955 -0.0690209344 0.04970888048
v -0.03165674955 0.0690209195 0.04970890284
v -0.03119404614 -0.06861822307 0.03925728798
v -0.03119404614 0.06861820817 0.03925731033
v -0.02990943938 -0.06979744136 0.08344975114
v -0.02990943938 0.06979741156 0.08344977349
v -0.02962617204 -0.06728453189 0.0224721022
v -0.02962617204 0.06728452444 0.02247212455
v -0.0275561437 -0.06858707964 0.1008476019
v -0.0275561437 0.06858704984 0.1008476168
v -0.02747039869 -0.06420393288 0.004072424024
v -0.02747039869 0.06420394033 0.004072446376
v -0.02727234736 -0.07023328543 0.09160948545
v -0.02727234736 0.07023325562 0.0916095078
v -0.02687419578 -0.06029671058 -0.01192113012
v -0.02687419578 0.06029671431 -0.01192110777
v -0.02674311772 -7.164454291e-05 -0.05395111442
v -0.02674311772 7.16621289e-05 -0.05395111442
v -0.02652119845 -0.06929863244 0.09926941246
v -0.02652119845 0.06929860264 0.09926944226
v -0.02621781081 -0.01019009296 -0.05361764878
v -0.02621781081 0.01019011065 -0.05361764878
v -0.02583221719 -0.05664089695 -0.02592615038
v -0.02583221719 0.05664090812 -0.02592613548
v -0.02566686645 -0.05148862675 -0.03958740085
v -0.02566686645 0.05148863792 -0.03958738595
v -0.02563133463 -0.05446444824 -0.03286508471
v -0.02563133463 0.05446445942 -0.03286506981
v -0.02524025366 -0.02017670125 -0.05290137976
v -0.02524025366 0.02017671987 -0.05290137976
v -0.02457578853 -0.04511151463 -0.04513755441
v -0.02457578853 0.0451115258 -0.04513753951
v -0.0244108513 -0.02948861569 -0.05157670379
v -0.0244108513 0.02948863432 -0.05157668889
v -0.02439599484 -0.07055643946 0.09718058258
v -0.02439599484 0.07055640966 0.09718061239
v -0.02421154082 -0.07129236311 0.03907741234
v -0.02421154082 0.07129234821 0.03907743469
v -0.0231205374 -0.07206594199 0.050077077
v -0.0231205374 0.07206592709 0.05007709935
v -0.0224063769 -0.07246808708 0.06130286306
v -0.0224063769 0.07246805727 0.06130288541
v -0.02135153115 -0.07270477712 0.07223746181
v -0.02135153115 0.07270474732 0.07223748416
v -0.02114417404 -0.05718998238 0.1307053119
v -0.02114417404 0.05718994141 0.1307053268
v -0.0210852772 -0.0462840572 0.1395696551
v -0.0210852772 0.04628400877 0.13956967
v -0.02024895325 -0.03462283313 0.1456112862
v -0.02024895325 0.0346227847 0.1456112862
v -0.02009187639 -0.06556402892 0.1196403205
v -0.02009187639 0.06556398422 0.1196403354
v -0.01976055279 -0.07279586047 0.08228586614
v -0.01976055279 0.07279583067 0.08228588104
v -0.01942402869 -0.02295657806 0.1491547525
v -0.01942402869 0.02295652963 0.1491547525
v -0.01869284734 -0.01137772016 0.1507609487
v -0.01869284734 0.01137767266 0.1507609487
v -0.01863379776 -0.07177220285 0.02251270786
v -0.01863379776 0.0717721954 0.02251273394
v -0.01850106195 -0.0725768432 0.02996398322
v -0.01850106195 0.0725768283 0.02996400557
v -0.0184870027 -0.07243804634 0.02796876617
v -0.0184870027 0.07243803144 0.02796879038
v -0.01835524291 -2.511072594e-08 0.1513222456
v -0.01814590022 -0.07260931283 0.09102937579
v -0.01814590022 0.07260928303 0.09102940559
v -0.01794245094 -0.0702451095 0.1060748026
v -0.01794245094 0.0702450648 0.1060748324
v -0.01730936766 -0.07209096849 0.09867363423
v -0.01730936766 0.07209093869 0.09867366403
v -0.01728143543 -0.07083937526 0.1042730361
v -0.01728143543 0.07083933055 0.1042730659
v -0.01685118675 -0.06848975271 0.003571026027
v -0.01685118675 0.06848976016 0.003571048379
v -0.01653956994 9.384645061e-09 -0.05760643631
v -0.01625959575 -0.01053210348 -0.05714412779
v -0.01625959575 0.01053212304 -0.05714412779
v -0.01587866247 -0.06457666308 -0.01361269876
v -0.01587866247 0.06457666308 -0.01361267641
v -0.01542855799 -0.07380496711 0.03898766637
v -0.01542855799 0.0738049522 0.03898768872
v -0.01524886489 -0.06283921748 -0.02097082511
v -0.01524886489 0.06283921748 -0.02097080275
v -0.01493270136 -0.05535206944 -0.04279310256
v -0.01493270136 0.05535208061 -0.04279308766
v -0.01487184875 -0.05885741115 -0.03562667221
v -0.01487184875 0.05885742232 -0.03562665731
v -0.01486794651 -0.06098001823 -0.02824179083
v -0.01486794651 0.0609800294 -0.02824177593
v -0.01459218375 -0.03073196858 -0.05468063802
v -0.01459218375 0.03073198721 -0.05468062311
v -0.01435304433 -0.0479060933 -0.04825419188
v -0.01435304433 0.04790611193 -0.04825417697
v -0.01408778131 -0.03975286707 -0.05177374184
v -0.01408778131 0.0397528857 -0.05177372694
v -0.0136043299 -0.07447621226 0.05013062805
v -0.0136043299 0.07447619736 0.0501306504
v -0.01203890145 -0.0747102946 0.06120217964
v -0.01203890145 0.0747102648 0.06120220572
v -0.01060369238 -0.074850142 0.07198701799
v -0.01060369238 0.0748501122 0.07198704779
v -0.009104574099 -0.07471644133 0.08211635053
v -0.009104574099 0.07471641153 0.08211638033
v -0.007717261091 -0.07432813942 0.09133917093
v -0.007717261091 0.07432810962 0.09133919328
v -0.007554449141 -0.07136052102 0.1091478616
v -0.007554449141 0.07136047632 0.1091478914
v -0.007288346067 -0.07348559797 0.1002355888
v -0.007288346067 0.07348556817 0.1002356187
v -0.007181307301 -0.07186190039 0.1072435528
v -0.007181307301 0.07186185569 0.1072435826
v -0.006999053061 -0.07198753953 0.007613252848
v -0.006999053061 0.07198754698 0.0076132752
v -0.006940390915 -0.07476278394 0.02243729681
v -0.006940390915 0.07476277649 0.02243731916
v -0.006729211658 -0.06671451032 0.1229690686
v -0.006729211658 0.06671446562 0.1229690835
v -0.005854232237 -0.05840158463 0.134529531
v -0.005854232237 0.05840154365 0.1345295459
v -0.005367577076 1.000093786e-08 -0.06138921529
v -0.00513612479 -0.01059638429 -0.06094840914
v -0.00513612479 0.01059640571 -0.06094840914
v -0.004503421485 -0.02130783908 -0.05992723256
v -0.004503421485 0.02130785771 -0.05992723256
v -0.004496347159 -0.04691755399 0.1433986872
v -0.004496347159 0.04691750556 0.1433987021
v -0.004458339885 -0.07583242655 0.03879720345
v -0.004458339885 0.07583241165 0.03879722953
v -0.004140350968 -0.07154751569 0.002689376473
v -0.004140350968 0.07154752314 0.002689398825
v -0.003656519577 -0.06723348796 -0.01554246619
v -0.003656519577 0.06723348796 -0.01554244384
v -0.003236522898 -0.06547046453 -0.0231349133
v -0.003236522898 0.06547046453 -0.02313489094
v -0.003104098141 -0.05750204623 -0.04595215619
v -0.003104098141 0.05750206485 -0.04595214128
v -0.002992369235 -0.04980336502 -0.05178783834
v -0.002992369235 0.04980338365 -0.05178782344
v -0.002971768379 -0.03541213274 0.1493045986
v -0.002971768379 0.03541208431 0.1493046135
v -0.002934932709 -0.06138146669 -0.03846324235
v -0.002934932709 0.06138147786 -0.03846322745
v -0.00291508995 -0.04107183963 -0.05527025461
v -0.00291508995 0.04107185826 -0.05527023971
v -0.002901857719 -0.06353835016 -0.03069253266
v -0.002901857719 0.06353835016 -0.03069251776
v -0.002577951178 -0.07616391778 0.04987920076
v -0.002577951178 0.07616390288 0.04987922683
v -0.001693302765 -0.02348461375 0.1523470879
v -0.001693302765 0.02348456532 0.1523470879
v -0.0007720235735 -0.01160751004 0.1537825763
v -0.0007720235735 0.01160746068 0.1537825763
v -0.0006945468485 -0.07622669637 0.06084948778
v -0.0006945468485 0.07622666657 0.06084951386
v -0.0003520464525 -2.455843529e-08 0.1541623175
v 0.001040427946 -0.07622189075 0.07162676752
v 0.001040427946 0.07622186095 0.07162679732
v 0.002666344866 -0.07585166395 0.08197081834
v 0.002666344866 0.07585163414 0.08197084069
v 0.004247207195 -0.07533235848 0.09159478545
v 0.004247207195 0.07533232868 0.09159480035
v 0.005313651636 -0.07437238842 0.1011291817
v 0.005313651636 0.07437235862 0.1011292115
v 0.005860894918 -0.07208850235 0.1110499725
v 0.005860894918 0.07208845764 0.1110500023
v 0.006010787562 -0.07255487144 0.1091083661
v 0.006010787562 0.07255482674 0.1091083959
v 0.006855002604 1.064591348e-08 -0.06534804404
v 0.007453670725 -0.01044330467 -0.06507793069
v 0.007453670725 0.01044332609 -0.06507793069
v 0.007693625521 -0.06765528023 0.1243302822
v 0.007693625521 0.06765523553 0.1243302971
v 0.007941595279 -0.02109874785 -0.0641174987
v 0.007941595279 0.0210987702 -0.0641174987
v 0.008528551087 -0.03165611997 -0.06262972206
v 0.008528551087 0.0316561386 -0.06262970716
v 0.00924765598 -0.04156581685 -0.059371382
v 0.00924765598 0.04156583548 -0.0593713671
v 0.009319179691 -0.05079276487 -0.05563007295
v 0.009319179691 0.0507927835 -0.05563005805
v 0.009474722669 -0.05832677707 -0.04922628403
v 0.009474722669 0.0583267957 -0.04922626913
v 0.0096606398 -0.06240066141 -0.04131577164
v 0.0096606398 0.06240067258 -0.04131575674
v 0.009898893535 -0.0598077029 0.1354878396
v 0.009898893535 0.05980766192 0.1354878545
v 0.01183374785 -0.04840557277 0.1444161832
v 0.01183374785 0.04840552434 0.1444161981
v 0.01411229838 -0.0363647379 0.1502597183
v 0.01411229838 0.03636468947 0.1502597332
v 0.01552394591 -0.07643575221 0.08146083355
v 0.01552394591 0.07643572241 0.0814608559
v 0.01591868699 -0.0239868369 0.1533952951
v 0.01591868699 0.02398678847 0.1533953249
v 0.0171225369 -0.0117480522 0.1545616537
v 0.0171225369 0.01174800284 0.1545616537
v 0.01743618585 -0.07580953836 0.09134584665
v 0.01743618585 0.07580950856 0.09134586155
v 0.01747301966 -2.370584795e-08 0.154868871
v 0.01917266659 -0.0748232156 0.1011065096
v 0.01917266659 0.0748231858 0.1011065394
v 0.0203779079 -0.07287950069 0.1095653102
v 0.0203779079 0.07287945598 0.10956534
v 0.02045597881 -0.07242753357 0.1115163341
v 0.02045597881 0.07242748886 0.1115163639
v 0.02096738294 1.135712058e-08 -0.06971339881
v 0.02101954445 -0.01010630932 -0.0693326965
v 0.02101954445 0.0101063326 -0.0693326965
v 0.02117270231 -0.02048998326 -0.06840984523
v 0.02117270231 0.02049000561 -0.06840984523
v 0.02233135328 -0.04177706316 -0.0635394603
v 0.02233135328 0.04177708179 -0.0635394454
v 0.02251616493 -0.05124769732 -0.05963352323
v 0.02251616493 0.05124771595 -0.05963350832
v 0.02257788554 -0.06217549741 -0.04393082857
v 0.02257788554 0.06217550859 -0.04393081367
v 0.02266484872 -0.05825745314 -0.05230525881
v 0.02266484872 0.05825747177 -0.05230524391
v 0.02348014712 -0.06867707521 0.123851724
v 0.02348014712 0.0686770305 0.1238517538
v 0.02644226886 -0.06102388352 0.1348147392
v 0.02644226886 0.06102384254 0.1348147392
v 0.02882608771 -0.05005559325 0.14362818
v 0.02882608771 0.05005554482 0.1436282098
v 0.02903700434 -0.07662656903 0.08061420172
v 0.02903700434 0.07662653923 0.08061422408
v 0.03145737201 -0.03731635585 0.1493966877
v 0.03145737201 0.03731630743 0.1493966877
v 0.0315679796 -0.07606722414 0.09032518417
v 0.0315679796 0.07606719434 0.09032520652
v 0.03352278098 -0.02441355586 0.1523221731
v 0.03352278098 0.02441350743 0.1523221731
v 0.03419531137 -0.0750521943 0.09982698411
v 0.03419531137 0.07505216449 0.09982701391
v 0.03433581814 -0.08005759865 0.00089963153
v 0.03433581814 0.08005761355 0.0008996613324
v 0.03491420671 -0.01183983777 0.1534896195
v 0.03491420671 0.01183978841 0.1534896195
v 0.03537028655 -2.259405818e-08 0.1538058519
v 0.03566479683 1.203693767e-08 -0.07388608903
v 0.03568591177 -0.009662302211 -0.07356487215
v 0.03568591177 0.009662327357 -0.07356487215
v 0.0358222127 -0.01972324587 -0.07287229598
v 0.0358222127 0.01972326823 -0.07287229598
v 0.03597619012 -0.03029727191 -0.07171521336
v 0.03597619012 0.03029729426 -0.07171519846
v 0.0360080041 -0.08086296171 0.007347451523
v 0.0360080041 0.08086297661 0.0073474776
v 0.03607703 -0.07866703719 -0.005148280412
v 0.03607703 0.07866705209 -0.00514825806
v 0.03634938598 -0.05790029094 -0.05469720066
v 0.03634938598 0.05790030956 -0.05469718575
v 0.03660157323 -0.04118606448 -0.06836635619
v 0.03660157323 0.04118609056 -0.06836634129
v 0.03670217097 -0.07320233434 0.1078955382
v 0.03670217097 0.07320228964 0.107895568
v 0.03701874614 -0.07275801152 0.109822832
v 0.03701874614 0.07275796682 0.1098228619
v 0.03719636798 -0.05159475654 -0.06326358765
v 0.03719636798 0.05159477517 -0.06326357275
v 0.03944355249 -0.08082892746 0.01131358184
v 0.03944355249 0.08082894236 0.01131360792
v 0.04039759189 -0.06928367913 0.1217842624
v 0.04039759189 0.06928363442 0.1217842922
v 0.04263037443 -0.07677271217 0.07949873805
v 0.04263037443 0.07677268237 0.07949875295
v 0.04287037253 -0.0809815675 0.0005568675697
v 0.04287037998 0.0809815973 0.0005569085479
v 0.04295125604 -0.08120750636 0.002011287957
v 0.04295126349 0.08120753616 0.002011328936
v 0.04326133803 -0.08066877723 -0.0008290447295
v 0.04326134548 0.08066880703 -0.0008290037513
v 0.04349591956 -0.08132185042 0.003375640139
v 0.04349592701 0.08132187277 0.003375675529
v 0.04395423457 -0.06203658134 0.1326677501
v 0.04395423457 0.06203654036 0.1326677799
v 0.04408318549 -0.08030315489 -0.001996573061
v 0.04408319294 0.08030318469 -0.001996532083
v 0.04444503412 -0.08131212741 0.00450325571
v 0.04444504157 0.08131214976 0.0045032911
v 0.04494799674 -0.08115006983 0.0007520802319
v 0.04494800419 0.08115009964 0.0007521212101
v 0.04499237984 -0.0812740624 0.001550167799
v 0.04499238729 0.0812740922 0.001550208777
v 0.04516253248 -0.08097843826 -8.419156075e-06
v 0.04516253993 0.08097846806 -8.378177881e-06
v 0.0452453196 -0.079923518 -0.002819497138
v 0.04524532706 0.0799235478 -0.002819463611
v 0.04529125243 -0.08133678883 0.002298835665
v 0.04529125988 0.08133681864 0.002298876643
v 0.04561350867 -0.08077780902 -0.000649087131
v 0.04561351612 0.08077783883 -0.0006490461528
v 0.0457303077 -0.07613246888 0.088928774
v 0.0457303077 0.07613243908 0.0889288038
v 0.04581206664 -0.08133145422 0.002917598933
v 0.0458120741 0.08133148402 0.002917639911
v 0.04625120759 -0.08056947589 -0.001100648195
v 0.04625121504 0.08056950569 -0.001100607216
v 0.04649859667 -0.08125897497 0.00333898142
v 0.04649860412 0.08125899732 0.00333901681
v 0.04669761658 -0.05111676455 0.1412751526
v 0.04669761658 0.05111671612 0.1412751675
v 0.04700697958 -0.08037655056 -0.001314003021
v 0.04700698704 0.08037658036 -0.001313962042
v 0.04727596045 -0.08112668991 0.003517424688
v 0.0472759679 0.08112671226 0.003517460078
v 0.04738909751 -0.08094546944 0.00105778873
v 0.04738910496 0.08094549924 0.001057829708
v 0.04779884964 -0.08021970838 -0.00126606971
v 0.04779885709 0.08021973819 -0.001266028732
v 0.0480607301 -0.0809494555 0.003433380276
v 0.04806073755 0.08094947785 0.003433415666
v 0.04854100943 -0.08011583984 -0.0009618662298
v 0.04854101688 0.08011586964 -0.0009618252516
v 0.04915296286 -0.08007647842 -0.0004348382354
v 0.04915297031 0.08007650822 -0.0004347972572
v 0.04920688272 -0.07512991875 0.0976845324
v 0.04920688272 0.07512988895 0.09768456221
v 0.0492587164 -0.03794372454 0.1469794363
v 0.0492587164 0.03794367611 0.1469794512
v 0.0493189767 -0.08053870499 0.002542667091
v 0.04931898415 0.08053873479 0.002542708069
v 0.04956843704 -0.08010549098 0.0002584941685
v 0.04956844449 0.08010552078 0.0002585351467
v 0.04965631664 -0.08034989983 0.001832474023
v 0.04965632409 0.08034992963 0.001832515001
v 0.04974272847 -0.08020017296 0.001042377204
v 0.04974273592 0.08020020276 0.001042418182
v 0.05013914779 -0.05723151192 -0.05602006614
v 0.05013914779 0.05723153055 -0.05602005124
v 0.05142724514 -0.02875204198 -0.07575305551
v 0.05142724514 0.02875206806 -0.07575304061
v 0.05143508315 -0.02454525419 0.1496572196
v 0.05143508315 0.02454520576 0.1496572345
v 0.05147302151 -0.01865941659 -0.07675857842
v 0.05147302151 0.01865944266 -0.07675857842
v 0.05159565061 -0.00919761695 -0.07740367949
v 0.05159565061 0.009197643958 -0.07740367949
v 0.0516211614 -5.695129948e-05 -0.07792250067
v 0.0516211614 5.697668894e-05 -0.07792250067
v 0.05190507695 -0.03973233327 -0.07301219553
v 0.05190507695 0.03973235935 -0.07301218063
v 0.0529466942 -0.0116709359 0.1506652683
v 0.0529466942 0.0116708884 0.1506652683
v 0.05336711556 -2.119407583e-08 0.150806427
v 0.05377080664 -0.07304915041 0.1061588749
v 0.05377080664 0.0730491057 0.1061589047
v 0.05433337018 -0.0505980216 -0.06645914912
v 0.05433337018 0.05059804022 -0.06645913422
v 0.05469051749 -0.07687941939 0.07754123211
v 0.05469051749 0.07687938958 0.07754125446
v 0.05823875219 -0.07615453005 0.08658827841
v 0.05823875219 0.07615450025 0.08658830822
v 0.05835811794 -0.0697510317 0.1180846319
v 0.05835811794 0.06975098699 0.1180846617
v 0.06183306128 -0.05712877959 -0.05469226837
v 0.06183306128 0.05712879822 -0.05469225347
v 0.06196998805 -0.07519361377 0.09454263747
v 0.06196998805 0.07519358397 0.09454265237
v 0.06234871224 -0.06269791722 0.128932327
v 0.06234871224 0.06269787252 0.128932327
v 0.06495110691 -0.053380128 -0.06270286441
v 0.06495110691 0.05338014662 -0.06270284951
v 0.06525573134 -0.07687719166 0.07540161908
v 0.06525573134 0.07687716186 0.07540164888
v 0.06571596861 -0.0515961796 0.1374289691
v 0.06571596861 0.05159613863 0.1374289989
v 0.06809231639 -0.03839090094 0.1425988376
v 0.06809231639 0.03839085251 0.1425988674
v 0.06877245754 -0.01754918881 -0.08039547503
v 0.06877245754 0.01754921488 -0.08039547503
v 0.0690716058 1.325078092e-08 -0.08133102953
v 0.06952088326 -0.07608653605 0.08464922011
v 0.06952088326 0.07608650625 0.08464923501
v 0.06974874437 -0.02493280545 0.1450181454
v 0.06974874437 0.02493275702 0.1450181603
v 0.06991006434 -0.05028709769 -0.0677947253
v 0.06991006434 0.05028711632 -0.0677947104
v 0.07018336654 -0.04562823847 -0.07353439182
v 0.07018336654 0.04562826455 -0.07353437692
v 0.07064759731 -0.01213827729 0.1459151059
v 0.07064759731 0.01213823166 0.1459151059
v 0.07100833952 -1.956245299e-08 0.1460725665
v 0.07181943953 -0.05917916819 -0.04607357085
v 0.07181943953 0.05917919055 -0.04607355595
v 0.0730202049 -0.07520128042 0.09157660604
v 0.0730202049 0.07520125061 0.09157663584
v 0.07317340374 -0.05676974729 -0.05293800682
v 0.07317340374 0.05676976964 -0.05293799192
v 0.0747294575 -0.05352821201 -0.06084236503
v 0.0747294575 0.05352823436 -0.06084235013
v 0.07489084452 -0.07021025568 0.1130337417
v 0.07489084452 0.07021021098 0.1130337715
v 0.07516014576 -0.07668548822 0.03568876162
v 0.07516014576 0.07668548822 0.03568878397
v 0.07617091388 -0.0505088307 -0.0667257607
v 0.07617091388 0.05050885305 -0.0667257458
v 0.07758507878 -0.04734571278 -0.07165057212
v 0.07758507878 0.04734574258 -0.07165055722
v 0.07832416892 -0.07480376959 0.0930365324
v 0.07832416892 0.07480373979 0.0930365473
v 0.07841508836 -0.06015386432 -0.02962490171
v 0.07841508836 0.06015388295 -0.02962488681
v 0.0787602067 -0.0758420825 0.08478178084
v 0.0787602067 0.0758420527 0.08478181064
v 0.07883943617 -0.04396310821 -0.0755828917
v 0.07883943617 0.04396313801 -0.0755828768
v 0.07892588526 -0.05249905959 -0.05857256055
v 0.07892588526 0.05249908566 -0.05857254565
v 0.07949855179 -0.07523843646 0.08936476707
v 0.07949855179 0.07523840666 0.08936479688
v 0.07955723256 -0.06283073127 0.1243043467
v 0.07955723256 0.06283068657 0.1243043616
v 0.0799639374 -0.0577522181 -0.0369291082
v 0.0799639374 0.05775223672 -0.0369290933
v 0.07999042422 -0.07637393475 0.04579527676
v 0.07999042422 0.07637393475 0.04579529911
v 0.08013825864 -0.07459191978 0.09390364587
v 0.08013825864 0.07459188998 0.09390366077
v 0.08050497621 -0.07714361697 0.05918213725
v 0.08050497621 0.07714359462 0.0591821596
v 0.08065024763 -0.04956008494 -0.06489039958
v 0.08065024763 0.04956011102 -0.06489038467
v 0.08068192005 -0.07581120729 0.08414074779
v 0.08068192005 0.07581117749 0.08414076269
v 0.08072698116 -0.03989517316 -0.07891622931
v 0.08072698116 0.03989520296 -0.07891621441
v 0.08132345974 -0.05548511446 -0.04368201643
v 0.08132345974 0.05548513308 -0.04368200153
v 0.08154693991 -0.07514192164 0.08950692415
v 0.08154693991 0.07514189184 0.08950693905
v 0.08265326917 -0.05284067616 -0.05018314719
v 0.08265326917 0.05284070224 -0.05018313229
v 0.08270718157 -0.04641967639 -0.06928929687
v 0.08270718157 0.04641970992 -0.06928928196
v 0.08284842968 -0.05157755688 0.132608369
v 0.08284842968 0.0515775159 0.1326083839
v 0.08409099281 -0.05013668537 -0.05644829571
v 0.08409099281 0.05013671145 -0.05644828081
v 0.08415205777 -0.03236178309 -0.08192412555
v 0.08415205777 0.03236181289 -0.08192411065
v 0.08449801803 -0.03866856918 0.1372618377
v 0.08449801803 0.0386685282 0.1372618526
v 0.08453638107 -0.04298844188 -0.07311692834
v 0.08453638107 0.04298847541 -0.07311691344
v 0.08460634947 -0.05773547664 -0.02775843441
v 0.08460634947 0.05773549527 -0.02775841206
v 0.0850925073 -0.07596220076 0.05675683171
v 0.0850925073 0.07596220076 0.05675685406
v 0.08536490053 -0.04728749022 -0.06155598909
v 0.08536490053 0.0472875163 -0.06155597419
v 0.0854608193 -0.07654488087 0.06955057383
v 0.0854608193 0.07654485852 0.06955059618
v 0.08550792933 -0.05530770868 -0.03541586548
v 0.08550792933 0.05530772731 -0.03541585058
v 0.08552121371 -0.02528768964 0.1396071315
v 0.08552121371 0.02528764494 0.1396071464
v 0.08605290204 -0.03873118386 -0.07648052275
v 0.08605290204 0.03873121738 -0.07648050785
v 0.08607446402 -0.01231065486 0.1404955685
v 0.08607446402 0.01231060922 0.1404955685
v 0.0863552168 -0.02378286421 -0.0835249424
v 0.0863552168 0.02378289402 -0.0835249275
v 0.08636630327 -1.796197679e-08 0.1407092959
v 0.08654678613 -0.05271380022 -0.04217979312
v 0.08654678613 0.05271381885 -0.04217977822
v 0.08668228239 -0.07491039485 0.08873093873
v 0.08668228239 0.07491036505 0.08873096108
v 0.08677142859 -0.0443498157 -0.06535752863
v 0.08677142859 0.04434984177 -0.06535751373
v 0.087227799 -0.01612556726 -0.0842038393
v 0.087227799 0.01612559706 -0.0842038393
v 0.08755585551 1.380767234e-08 -0.08475087583
v 0.08755585551 1.792830773e-08 -0.08475087583
v 0.08759741485 -0.008533551358 -0.08456021547
v 0.08759741485 0.008533583954 -0.08456021547
v 0.08782111853 -0.04985741898 -0.04880438
v 0.08782111853 0.04985744506 -0.0488043651
v 0.08793427795 -0.07077290863 0.106969364
v 0.08793427795 0.07077286392 0.1069693938
v 0.08837737143 -0.04092249647 -0.06855647266
v 0.08837737143 0.04092253 -0.06855645776
v 0.08859463036 -0.0472609587 -0.0545431003
v 0.08859463036 0.04726098478 -0.0545430854
v 0.08862286061 -0.03248269483 -0.07883559912
v 0.08862286061 0.03248272836 -0.07883558422
v 0.08884132653 -0.0735290274 0.09588433802
v 0.08884132653 0.0735289976 0.09588436782
v 0.08947011828 -0.04464437813 -0.05886443704
v 0.08947011828 0.0446444042 -0.05886442214
v 0.09001136571 -0.07533776015 0.06739608943
v 0.09001136571 0.07533774525 0.06739611924
v 0.09013779461 -0.03665072471 -0.07122582197
v 0.09013779461 0.03665075824 -0.07122580707
v 0.09030475467 -0.04239809141 -0.06154558063
v 0.09030475467 0.04239811748 -0.06154556572
v 0.09034903347 -0.05227138475 -0.03445843607
v 0.09034903347 0.05227140337 -0.03445842117
v 0.09065470845 -0.07541489601 0.08059649169
v 0.09065470845 0.07541487366 0.0805965215
v 0.09094820172 -0.02418407425 -0.08027151227
v 0.09094820172 0.02418410778 -0.08027149737
v 0.09114599228 0.05570986122 -0.0189027153
v 0.09114599973 -0.05570983887 -0.0189027451
v 0.09164346009 -0.03931699693 -0.06416077912
v 0.09164346009 0.03931702301 -0.06416076422
v 0.09184600413 -0.04929008707 -0.04039418697
v 0.09184600413 0.0492901057 -0.04039417207
v 0.09199656546 -0.01624017395 -0.08112303168
v 0.09199656546 0.01624020748 -0.08112303168
v 0.09213392437 0.0436770767 -0.05341175199
v 0.09213393182 -0.04367703199 -0.05341178179
v 0.09213551879 -0.03096835501 -0.0732018128
v 0.09213551879 0.03096838482 -0.0732017979
v 0.09248175472 -0.008335331455 -0.08146967739
v 0.09248175472 0.008335365914 -0.08146967739
v 0.09269757569 1.741308964e-08 -0.0815884918
v 0.09286916256 0.0409530811 -0.05733680725
v 0.09286917001 -0.0409530364 -0.05733683705
v 0.09286917001 0.04095306247 -0.05733682215
v 0.0931346491 -0.03540563956 -0.06624034047
v 0.0931346491 0.03540566564 -0.06624032557
v 0.09396699071 -0.02385851927 -0.07455498725
v 0.09396699071 0.0238585528 -0.07455497235
v 0.09444310516 0.04571627453 -0.04186189175
v 0.09444311261 -0.045716241 -0.04186192155
v 0.09444311261 0.04571625963 -0.04186190665
v 0.09484680742 -0.03037413582 -0.06776677817
v 0.09484680742 0.03037416562 -0.06776676327
v 0.09490001202 -0.01610905491 -0.07528495044
v 0.09490001202 0.01610908844 -0.07528495044
v 0.09500899911 -0.06255722791 0.1192295551
v 0.09500899911 0.06255718321 0.11922957
v 0.09503388405 -0.04811542481 -0.03427313268
v 0.09503388405 0.04811544344 -0.03427311778
v 0.09521457553 -0.07408117503 0.0784303546
v 0.09521457553 0.07408116013 0.07843037695
v 0.09526497126 0.03485926986 -0.06151069701
v 0.09546677768 -0.00808819849 -0.07569793612
v 0.09546677768 0.008088231087 -0.07569793612
v 0.09564844519 1.647133985e-08 -0.07580807805
v 0.09617198259 -0.07333952188 0.09235097468
v 0.09617198259 0.07333949953 0.09235098958
v 0.09655273706 -0.04879237339 -0.02683814615
v 0.09655273706 0.04879239202 -0.02683813125
v 0.09660150111 -0.02360569872 -0.06884694844
v 0.09660150111 0.02360572852 -0.06884693354
v 0.09706378728 -0.02996815369 -0.06253287196
v 0.09706378728 0.02996817976 -0.06253285706
v 0.09711676091 0.03473686427 -0.05662917346
v 0.09731435776 0.05014225096 -0.01877817139
v 0.09731436521 -0.0501422286 -0.01877820119
v 0.09731436521 0.05014223978 -0.01877818629
v 0.09734020382 -0.03482523933 -0.05670702457
v 0.09824498743 -0.00787573494 -0.06977198273
v 0.09824498743 0.007875765674 -0.06977198273
v 0.09837063402 -0.05096653476 0.1271167547
v 0.09837063402 0.05096649379 0.1271167696
v 0.09845523536 1.550859352e-08 -0.06989877671
v 0.09893438965 -0.02354340628 -0.06313170493
v 0.0989343971 0.02354343235 -0.06313169003
v 0.09898612648 0.03563182801 -0.04969548434
v 0.09921967983 -0.03574189916 -0.04976733774
v 0.09925239533 -0.04410902783 -0.03143545985
v 0.09925239533 0.04410904646 -0.03143544495
v 0.09973479807 -0.03862690181 0.131172508
v 0.09973479807 0.03862686083 0.1311725229
v 0.09981746227 -1.63536491e-08 0.1345888376
v 0.09997808933 -0.01192673389 0.134347856
v 0.09997808933 0.01192669198 0.134347856
v 0.1000822783 -0.02503887378 0.1333479285
v 0.1000822783 0.02503882907 0.1333479285
v 0.1001027599 -0.0494678542 -0.006783116609
v 0.1002924815 -0.01547442842 -0.06349987537
v 0.1002924815 0.01547445729 -0.06349987537
v 0.1003880128 -0.07207811624 0.08973182738
v 0.1003880128 0.07207810134 0.08973184228
v 0.1008280888 0.02509929612 -0.05686149001
v 0.1008720919 0.03569832817 -0.04360294342
v 0.1009276584 -0.007943901233 -0.06369276345
v 0.1009276584 0.007943930104 -0.06369276345
v 0.1009820551 -0.02515175194 -0.05690028518
v 0.1010770872 1.453457532e-08 -0.06392030418
v 0.1011060774 -0.03581054509 -0.04367492348
v 0.1016639173 -0.06905190647 0.1047478393
v 0.1016639173 0.06905186921 0.1047478691
v 0.1020706594 -0.04146654159 -0.02694081143
v 0.1020706594 0.04146656021 -0.02694079652
v 0.1026259288 0.0163352266 -0.0570614785
v 0.102670528 -0.01635389589 -0.05707326531
v 0.1028630584 0.03481477499 -0.03810105473
v 0.1028792784 0.02570781857 -0.05028408021
v 0.1030177101 -0.02576367185 -0.0503237918
v 0.1030958593 -0.03492304683 -0.03816469014
v 0.1034057513 0.008079354651 -0.05706770718
v 0.1034205854 -0.008081604727 -0.05707254261
v 0.1036046669 -0.04170193151 -0.01885931566
v 0.1036046669 0.04170194268 -0.01885930076
v 0.1036710963 4.96013854e-06 -0.05707322806
v 0.1047475785 0.02579349093 -0.04415754974
v 0.1047970504 0.01667372324 -0.05053324252
v 0.1048551053 -0.01669763029 -0.05054973811
v 0.1048776656 0.03344671056 -0.03273421526
v 0.1048853621 -0.02585041337 -0.0441974327
v 0.1050683036 -0.0335207209 -0.03278152645
v 0.1055707335 0.008255360648 -0.05064410716
v 0.1056034192 -0.04127600417 -0.006613139063
v 0.105603911 -0.008260486647 -0.05065397918
v 0.1058387607 5.901018085e-06 -0.05070717633
v 0.106043987 -0.06759820879 0.1021761522
v 0.106043987 0.06759819388 0.1021761671
v 0.106421411 0.02533098869 -0.03831724077
v 0.1065607741 -0.02538414113 -0.03835399449
v 0.1066399887 -0.06106427684 0.1153417453
v 0.1066399887 0.06106423959 0.1153417602
v 0.1066963598 0.01672300696 -0.04433505237
v 0.1067546755 -0.01674724184 -0.04435209185
v 0.1070636138 -0.03204346076 -0.02659539133
v 0.1070636138 0.03204347938 -0.02659538388
v 0.1075046882 0.008254334331 -0.04435649514
v 0.1075368673 -0.008260540664 -0.04436581582
v 0.1077410057 3.081994919e-06 -0.0444727689
v 0.1081408635 0.02436714061 -0.03238213062
v 0.1081435159 -0.03277231008 -0.01885937154
v 0.1081435159 0.03277232125 -0.01885936409
v 0.1082772911 -0.02439924143 -0.03241086006
v 0.1083014086 0.01650847122 -0.03833884746
v 0.1083612442 -0.01653081179 -0.03835452348
v 0.1091142669 0.008171132766 -0.0382989496
v 0.1091403589 -0.05102032796 0.1216008216
v 0.1091403589 0.0510202907 0.1216008365
v 0.1091481149 -0.008177383803 -0.03830783814
v 0.1093903482 2.827936896e-06 -0.03833290935
v 0.109543331 0.03259734064 -0.006523076445
v 0.1097262949 -0.03267763183 -0.006545126438
v 0.1097969934 0.01597120054 -0.03221940994
v 0.1098529994 -0.01598455198 -0.03223221749
v 0.1100289151 -0.02265532129 -0.0259035565
v 0.1100289151 0.02265533619 -0.02590354905
v 0.1105697155 0.007969436236 -0.03215660155
v 0.1105908528 -0.007973119617 -0.03216184676
v 0.1106431186 -0.03291783109 0.005601482466
v 0.1107933298 -0.05977737531 0.1119871587
v 0.1107933298 0.05977734923 0.1119871736
v 0.1108433977 3.726735713e-06 -0.03216940165
v 0.1110390648 -0.03900707886 0.125086844
v 0.1110390648 0.0390070416 0.125086844
v 0.1111759618 -0.02311168797 -0.01883028075
v 0.1111759618 0.02311170287 -0.0188302733
v 0.1113475785 -0.01502462197 -0.02578219026
v 0.1113475785 0.01502463967 -0.02578218281
v 0.111889042 -0.02508081309 0.1268189251
v 0.111889042 0.02508077584 0.12681894
v 0.1119740978 -0.007725169417 -0.02579922974
v 0.1119740978 0.00772518618 -0.02579922974
v 0.1121591404 8.331200618e-09 -0.02584426478
v 0.1121894196 -0.01108166948 0.1274814904
v 0.1121894196 0.01108163316 0.1274814904
v 0.1122638583 0.02391832694 -0.006462533027
v 0.1122705191 -1.666398219e-08 0.1275750697
v 0.1124102548 -0.0239620544 -0.00647328794
v 0.1124902144 -0.01553930063 -0.01882183179
v 0.1124902144 0.0155393146 -0.01882182434
v 0.1131057665 0.02439234965 0.005747230724
v 0.1131310984 -0.008155244403 -0.01882224903
v 0.1131310984 0.008155258372 -0.01882224903
v 0.1132141948 -0.02443227544 0.005735917017
v 0.1132628098 -0.05054173619 0.1177631244
v 0.1132628098 0.05054170266 0.1177631393
v 0.1133914217 7.178669215e-09 -0.01877007633
v 0.113852419 0.01585135795 -0.006392449141
v 0.1139155552 -0.01586293243 -0.006397094578
v 0.1146898717 0.007982992567 -0.006310917437
v 0.1147126257 -0.007972485386 -0.006312411278
v 0.1147543639 0.01613471657 0.005866574124
v 0.1148173511 -0.01614513062 0.005861725658
v 0.114837952 -0.03892628849 0.120999828
v 0.114837952 0.03892625496 0.1209998429
v 0.1149824113 1.823112871e-05 -0.006302621216
v 0.1150671691 0.01624491066 0.01811869629
v 0.1151288971 -0.01625361294 0.01811551303
v 0.1156276911 0.00805203896 0.00595430471
v 0.1156545505 -0.008033752441 0.005952680483
v 0.1156875417 -0.02503685281 0.1227109134
v 0.1156875417 0.02503681928 0.1227109283
v 0.1159220561 3.072934123e-05 0.00598716177
v 0.1159541756 0.008088552393 0.0182436835
v 0.1159780473 -0.00806748122 0.01824278943
v 0.1160154119 -0.01142192073 0.1231028214
v 0.1160154119 0.01142189 0.1231028214
v 0.1160486266 -1.594528598e-08 0.1231637523
v 0.1162516922 2.948797737e-05 0.01828630269
f 103 93 150
f 356 434 402
f 797 725 773
f 725 712 667
f 802 777 796
f 910 905 913
f 913 912 910
f 913 906 911
f 911 912 913
f 831 806 797
f 835 831 864
f 806 831 835
f 864 889 835
f 835 889 851
f 913 905 909
f 97 93 103
f 211 189 130
f 91 72 99
f 99 130 91
f 786 774 819
f 819 774 832
f 498 436 472
f 498 470 436
f 472 550 498
f 203 245 247
f 203 150 164
f 294 299 350
f 600 562 647
f 647 562 661
f 480 562 600
f 600 569 480
f 480 402 434
f 480 569 472
f 462 558 556
f 472 569 598
f 598 569 600
f 209 203 164
f 245 203 209
f 358 364 398
f 356 305 358
f 358 305 313
f 358 313 315
f 315 364 358
f 757 725 797
f 757 712 725
f 615 667 637
f 637 667 669
f 669 667 712
f 396 432 398
f 398 364 396
f 396 364 315
f 164 150 140
f 183 107 185
f 188 278 185
f 111 107 183
f 173 177 113
f 113 111 173
f 173 111 183
f 173 183 270
f 49 47 78
f 818 773 785
f 818 845 828
f 828 831 818
f 899 901 890
f 908 901 899
f 908 906 913
f 908 899 906
f 268 173 270
f 177 173 268
f 377 468 379
f 484 496 440
f 271 189 211
f 265 189 271
f 851 787 778
f 778 835 851
f 851 889 867
f 867 787 851
f 346 408 360
f 522 448 444
f 408 406 444
f 444 496 522
f 753 700 806
f 806 835 753
f 753 778 657
f 835 778 753
f 898 909 905
f 898 867 889
f 124 99 95
f 76 99 72
f 74 95 76
f 76 95 99
f 72 54 76
f 786 819 809
f 809 819 840
f 863 864 856
f 864 831 856
f 856 831 828
f 828 845 856
f 758 724 713
f 713 670 674
f 499 551 473
f 629 643 659
f 247 245 307
f 245 305 307
f 120 156 103
f 103 150 120
f 227 156 231
f 231 294 227
f 231 235 299
f 299 294 231
f 436 470 404
f 350 299 352
f 299 354 352
f 438 480 472
f 402 480 438
f 438 404 402
f 472 436 438
f 436 404 438
f 683 692 730
f 665 647 679
f 679 647 661
f 661 706 679
f 462 556 464
f 464 428 462
f 552 562 466
f 661 562 552
f 466 464 552
f 552 464 556
f 552 683 661
f 556 683 552
f 600 647 627
f 627 647 665
f 643 617 655
f 655 659 643
f 583 550 472
f 472 598 583
f 583 598 617
f 174 209 164
f 164 140 174
f 174 140 166
f 217 253 315
f 315 313 217
f 209 174 217
f 217 174 166
f 474 480 434
f 562 480 474
f 466 562 474
f 474 396 466
f 432 396 474
f 400 358 398
f 398 432 400
f 400 434 356
f 356 358 400
f 400 474 434
f 432 474 400
f 712 757 720
f 344 396 253
f 315 253 311
f 311 396 315
f 253 396 311
f 116 132 122
f 71 67 86
f 63 43 59
f 59 69 75
f 188 185 105
f 105 185 107
f 78 106 105
f 78 47 81
f 47 50 81
f 107 111 79
f 79 105 107
f 48 49 79
f 483 501 469
f 308 363 306
f 367 304 355
f 808 818 785
f 826 818 808
f 785 805 808
f 773 818 794
f 794 818 831
f 797 773 794
f 794 831 797
f 796 777 752
f 752 768 796
f 285 278 188
f 188 277 285
f 347 268 270
f 448 414 410
f 360 408 410
f 410 444 448
f 408 444 410
f 360 410 370
f 370 410 414
f 589 587 657
f 416 414 452
f 452 458 416
f 452 414 448
f 421 450 454
f 368 468 374
f 468 377 374
f 494 500 468
f 571 500 585
f 585 573 571
f 470 498 492
f 348 468 368
f 348 335 468
f 176 189 265
f 360 370 275
f 275 370 277
f 103 156 138
f 211 130 144
f 144 99 124
f 130 99 144
f 337 271 327
f 265 271 337
f 211 144 229
f 442 440 496
f 496 444 442
f 442 444 406
f 392 440 442
f 442 406 392
f 888 889 864
f 888 897 889
f 902 897 909
f 909 898 902
f 889 897 902
f 902 898 889
f 42 54 40
f 56 54 42
f 40 20 42
f 50 37 52
f 40 54 52
f 52 54 72
f 52 37 40
f 47 49 32
f 32 49 48
f 53 55 39
f 74 76 68
f 68 58 74
f 56 58 68
f 68 54 56
f 68 76 54
f 758 764 798
f 832 774 798
f 774 772 798
f 798 724 758
f 798 772 724
f 721 764 758
f 758 713 721
f 721 713 674
f 786 809 800
f 875 866 877
f 862 866 875
f 913 907 903
f 903 908 913
f 907 900 903
f 839 818 826
f 845 818 839
f 674 670 642
f 405 439 403
f 403 363 405
f 667 635 649
f 528 615 637
f 637 669 528
f 669 532 528
f 629 649 609
f 508 498 550
f 235 307 309
f 180 231 156
f 235 231 180
f 243 193 247
f 235 180 243
f 247 307 243
f 243 307 235
f 199 120 150
f 199 193 120
f 150 203 199
f 199 203 247
f 247 193 199
f 591 556 558
f 591 683 556
f 558 692 591
f 692 683 591
f 760 738 762
f 777 802 780
f 780 776 760
f 760 762 780
f 775 726 742
f 815 825 826
f 815 805 825
f 826 808 815
f 815 808 805
f 784 726 775
f 784 805 785
f 823 803 811
f 814 803 823
f 775 803 814
f 814 784 775
f 825 805 814
f 805 784 814
f 795 811 781
f 781 811 803
f 617 598 619
f 619 655 617
f 619 598 600
f 600 627 619
f 619 627 665
f 665 655 619
f 251 217 313
f 209 217 251
f 313 305 251
f 251 305 245
f 245 209 251
f 516 494 510
f 500 494 516
f 510 528 516
f 516 528 520
f 673 669 712
f 712 720 673
f 673 516 520
f 585 500 673
f 500 516 673
f 763 757 797
f 763 720 757
f 797 806 763
f 806 700 763
f 623 615 544
f 544 635 623
f 667 615 623
f 623 635 667
f 359 401 399
f 123 19 71
f 166 140 154
f 166 154 205
f 151 121 200
f 428 390 389
f 430 464 466
f 428 464 430
f 430 390 428
f 63 67 65
f 65 67 71
f 71 61 65
f 22 24 116
f 116 122 22
f 136 140 150
f 136 122 140
f 136 150 93
f 140 122 134
f 134 122 132
f 134 154 140
f 85 136 93
f 93 97 85
f 97 89 85
f 40 37 14
f 14 20 40
f 82 111 113
f 82 79 111
f 48 79 82
f 82 51 48
f 78 105 80
f 105 79 80
f 80 49 78
f 80 79 49
f 517 501 674
f 674 501 586
f 336 334 280
f 228 232 157
f 334 351 295
f 280 334 295
f 295 228 280
f 232 228 295
f 304 367 310
f 310 367 363
f 363 308 310
f 310 236 304
f 308 236 310
f 96 100 125
f 90 86 67
f 230 212 256
f 125 100 145
f 212 230 145
f 69 55 77
f 100 96 77
f 75 69 77
f 77 96 75
f 212 145 131
f 131 145 100
f 481 570 601
f 403 439 481
f 481 439 473
f 473 570 481
f 357 359 306
f 357 401 359
f 306 363 357
f 357 363 403
f 707 662 680
f 766 774 786
f 786 756 766
f 766 772 774
f 724 772 766
f 724 766 719
f 719 766 756
f 473 551 584
f 563 481 601
f 475 481 563
f 761 752 777
f 731 752 761
f 777 780 761
f 761 780 762
f 761 762 738
f 745 752 731
f 768 752 745
f 736 760 730
f 736 738 760
f 730 692 736
f 737 738 697
f 731 761 737
f 737 761 738
f 829 817 820
f 842 823 829
f 823 811 829
f 829 811 817
f 816 820 802
f 810 827 816
f 816 802 796
f 796 810 816
f 868 852 788
f 899 890 868
f 890 852 868
f 912 911 881
f 881 910 912
f 603 678 597
f 682 678 603
f 361 347 270
f 361 371 411
f 278 371 276
f 270 183 276
f 276 361 270
f 371 361 276
f 183 185 276
f 276 185 278
f 597 678 664
f 664 678 788
f 663 589 657
f 657 778 663
f 663 778 787
f 416 458 460
f 411 371 415
f 540 452 448
f 540 448 522
f 522 587 540
f 587 589 540
f 458 452 554
f 554 540 589
f 452 540 554
f 446 500 450
f 450 412 446
f 446 412 500
f 468 500 482
f 500 412 482
f 379 468 482
f 482 412 379
f 385 440 392
f 385 337 327
f 392 337 385
f 418 412 450
f 450 421 418
f 418 421 383
f 478 575 484
f 567 575 478
f 613 575 567
f 700 753 613
f 581 496 484
f 484 575 581
f 522 496 581
f 581 587 522
f 510 494 504
f 504 528 510
f 490 494 468
f 488 504 490
f 490 504 494
f 450 500 486
f 500 571 486
f 514 571 573
f 454 450 514
f 450 486 514
f 514 486 571
f 468 335 456
f 456 490 468
f 488 490 456
f 350 352 456
f 470 492 456
f 456 492 488
f 456 352 354
f 512 492 498
f 498 508 512
f 512 508 518
f 518 528 512
f 172 176 267
f 267 176 265
f 118 130 189
f 189 176 118
f 91 130 118
f 160 144 124
f 108 89 97
f 392 406 339
f 339 337 392
f 265 337 339
f 339 267 265
f 346 267 339
f 408 346 339
f 339 406 408
f 197 229 144
f 144 160 197
f 239 229 197
f 882 864 863
f 882 888 864
f 863 856 882
f 897 888 882
f 909 897 904
f 904 900 907
f 895 900 904
f 904 907 913
f 913 909 904
f 83 95 74
f 74 58 83
f 83 58 62
f 62 58 44
f 44 58 56
f 56 42 44
f 38 51 53
f 53 39 38
f 764 721 689
f 614 754 701
f 812 800 809
f 886 895 883
f 886 900 895
f 838 823 842
f 825 814 838
f 838 814 823
f 853 866 862
f 853 838 842
f 849 838 853
f 859 839 847
f 859 847 858
f 858 847 849
f 858 853 862
f 849 853 858
f 846 870 840
f 840 819 846
f 846 819 832
f 846 832 865
f 840 870 860
f 860 870 884
f 865 890 885
f 533 642 670
f 527 642 533
f 495 469 501
f 495 517 511
f 501 517 495
f 457 336 469
f 334 336 457
f 457 351 334
f 363 367 457
f 457 367 355
f 473 439 437
f 439 405 437
f 437 499 473
f 725 667 675
f 675 718 725
f 667 649 675
f 765 773 725
f 725 718 765
f 785 773 765
f 548 528 544
f 546 528 548
f 544 615 548
f 615 546 548
f 542 546 615
f 615 528 542
f 542 528 546
f 605 635 544
f 605 609 649
f 605 649 635
f 611 583 617
f 611 617 643
f 611 643 629
f 629 609 611
f 299 235 303
f 235 309 303
f 303 354 299
f 362 309 307
f 362 404 470
f 470 456 362
f 362 305 356
f 362 307 305
f 356 402 362
f 402 404 362
f 193 243 186
f 186 243 180
f 186 180 156
f 156 120 186
f 120 193 186
f 776 780 801
f 795 776 801
f 820 817 801
f 801 811 795
f 817 811 801
f 714 742 726
f 714 679 706
f 730 760 751
f 751 776 795
f 760 776 751
f 722 683 730
f 722 706 661
f 661 683 722
f 769 803 775
f 716 710 665
f 690 655 665
f 665 710 690
f 641 532 669
f 669 673 641
f 641 673 520
f 639 613 567
f 306 359 314
f 314 252 306
f 433 401 475
f 433 399 401
f 128 132 116
f 116 114 128
f 117 129 115
f 115 28 117
f 167 155 141
f 141 155 135
f 135 123 141
f 151 141 137
f 141 123 137
f 94 151 137
f 137 86 94
f 71 86 137
f 137 123 71
f 166 205 213
f 213 217 166
f 253 217 213
f 195 205 154
f 195 241 205
f 195 237 241
f 187 121 157
f 341 390 342
f 341 389 390
f 462 428 427
f 428 389 427
f 396 344 394
f 466 396 394
f 394 430 466
f 394 344 342
f 342 390 394
f 390 430 394
f 23 123 117
f 19 123 23
f 116 24 27
f 27 114 116
f 27 115 114
f 28 115 27
f 122 136 70
f 136 85 70
f 20 14 7
f 154 134 146
f 146 195 154
f 146 134 132
f 146 128 142
f 132 128 146
f 35 37 50
f 47 32 35
f 35 50 47
f 41 39 55
f 69 59 57
f 57 55 69
f 57 59 43
f 57 41 55
f 43 41 57
f 113 177 119
f 674 642 521
f 521 517 674
f 521 642 527
f 413 501 483
f 674 586 626
f 626 586 595
f 572 586 501
f 568 614 640
f 640 539 568
f 328 338 386
f 479 568 539
f 293 328 330
f 330 291 293
f 293 291 256
f 287 324 274
f 256 291 287
f 378 469 375
f 469 369 375
f 322 375 369
f 274 324 322
f 322 264 274
f 322 324 378
f 378 375 322
f 349 369 469
f 469 336 349
f 318 369 349
f 232 295 300
f 304 236 300
f 300 236 232
f 355 304 300
f 300 295 351
f 244 308 248
f 244 236 308
f 284 336 280
f 262 264 318
f 125 109 102
f 102 96 125
f 109 90 102
f 202 228 157
f 157 139 202
f 75 96 84
f 84 90 67
f 96 102 84
f 84 102 90
f 84 67 63
f 63 59 84
f 84 59 75
f 94 86 98
f 86 90 98
f 98 90 109
f 177 268 266
f 240 230 256
f 92 131 100
f 92 119 131
f 475 401 435
f 435 481 475
f 403 481 435
f 435 357 403
f 401 357 435
f 771 813 770
f 783 813 771
f 800 813 783
f 771 727 783
f 786 800 783
f 715 707 680
f 729 719 756
f 748 756 786
f 786 732 748
f 705 729 711
f 711 748 732
f 711 729 756
f 648 666 680
f 680 662 648
f 648 563 601
f 662 563 648
f 578 584 551
f 694 593 695
f 695 593 697
f 695 738 694
f 697 738 695
f 696 593 694
f 692 593 696
f 696 736 692
f 694 738 696
f 738 736 696
f 560 593 692
f 561 593 560
f 560 692 558
f 560 558 462
f 723 745 731
f 731 684 723
f 662 707 723
f 723 684 662
f 693 684 731
f 693 737 697
f 731 737 693
f 697 593 693
f 693 593 561
f 820 816 830
f 830 816 827
f 830 829 820
f 842 829 830
f 830 843 842
f 822 827 810
f 813 837 822
f 879 911 906
f 879 881 911
f 905 910 878
f 910 881 878
f 277 370 372
f 372 285 277
f 372 376 285
f 416 376 372
f 372 414 416
f 372 370 414
f 588 541 590
f 597 664 590
f 590 555 597
f 541 555 590
f 409 445 407
f 411 445 409
f 409 361 411
f 347 361 409
f 485 441 497
f 449 445 411
f 411 415 449
f 523 541 588
f 523 497 445
f 523 449 541
f 445 449 523
f 836 890 865
f 836 852 890
f 865 832 836
f 588 590 658
f 658 590 664
f 416 460 420
f 420 376 416
f 373 415 371
f 373 371 278
f 278 285 373
f 285 376 373
f 564 460 458
f 458 554 564
f 292 329 327
f 323 377 379
f 379 325 323
f 325 329 290
f 329 292 290
f 383 421 387
f 387 385 383
f 331 329 383
f 383 385 331
f 327 329 331
f 331 385 327
f 379 412 381
f 412 418 381
f 381 418 383
f 381 325 379
f 383 329 381
f 381 329 325
f 425 387 421
f 385 387 425
f 440 385 425
f 484 440 425
f 425 478 484
f 476 421 454
f 575 613 633
f 633 581 575
f 633 613 753
f 633 753 657
f 657 587 633
f 587 581 633
f 350 456 333
f 333 456 335
f 333 294 350
f 488 492 506
f 492 512 506
f 506 512 528
f 172 267 269
f 269 182 172
f 275 182 269
f 360 275 269
f 269 346 360
f 269 267 346
f 91 118 87
f 87 72 91
f 87 81 50
f 87 52 72
f 50 52 87
f 110 106 78
f 78 81 110
f 110 182 106
f 172 182 110
f 106 182 184
f 188 105 184
f 184 105 106
f 184 182 275
f 184 277 188
f 184 275 277
f 148 160 124
f 124 108 148
f 124 95 101
f 101 108 124
f 89 108 101
f 95 83 101
f 101 83 89
f 152 148 108
f 138 178 162
f 170 152 162
f 201 178 138
f 201 156 227
f 201 138 156
f 869 856 845
f 869 882 856
f 845 839 869
f 869 839 859
f 869 859 883
f 897 882 893
f 883 895 893
f 893 869 883
f 882 869 893
f 893 904 897
f 895 904 893
f 640 614 709
f 614 701 709
f 709 701 764
f 709 689 640
f 764 689 709
f 764 701 807
f 832 798 807
f 807 798 764
f 807 836 832
f 807 701 754
f 754 836 807
f 824 809 840
f 824 812 809
f 821 813 800
f 800 812 821
f 833 837 821
f 821 837 813
f 812 824 821
f 840 833 821
f 821 824 840
f 834 838 849
f 849 847 834
f 825 838 834
f 826 825 834
f 834 839 826
f 834 847 839
f 862 875 871
f 871 858 862
f 871 886 883
f 875 886 871
f 883 859 871
f 859 858 871
f 870 846 855
f 855 846 865
f 844 833 840
f 840 860 844
f 884 870 892
f 891 887 900
f 900 886 891
f 891 875 877
f 891 886 875
f 469 495 491
f 491 457 469
f 489 457 491
f 499 437 471
f 471 437 405
f 471 405 363
f 363 457 471
f 653 675 649
f 629 659 653
f 653 649 629
f 718 675 686
f 686 653 659
f 675 653 686
f 544 528 536
f 536 605 544
f 609 605 536
f 524 528 518
f 524 530 528
f 609 530 524
f 518 611 524
f 524 611 609
f 518 508 577
f 577 611 518
f 577 508 550
f 550 583 577
f 583 611 577
f 309 362 366
f 354 303 366
f 366 303 309
f 366 456 354
f 366 362 456
f 820 801 804
f 804 801 780
f 802 820 804
f 804 780 802
f 767 781 803
f 795 781 767
f 767 751 795
f 710 704 671
f 655 690 671
f 671 690 710
f 659 655 671
f 671 704 659
f 659 704 698
f 698 686 659
f 718 686 698
f 755 765 718
f 785 765 755
f 702 716 665
f 726 716 702
f 665 679 702
f 702 714 726
f 679 714 702
f 710 716 733
f 526 641 520
f 532 641 526
f 520 528 526
f 526 528 532
f 708 763 700
f 700 613 708
f 613 639 708
f 454 514 538
f 538 514 573
f 538 476 454
f 538 639 567
f 567 478 538
f 478 476 538
f 585 673 625
f 720 763 688
f 763 708 688
f 688 708 639
f 165 141 151
f 151 200 204
f 204 165 151
f 210 165 204
f 204 200 248
f 155 196 147
f 147 135 155
f 155 167 206
f 206 196 155
f 206 167 214
f 214 250 206
f 205 241 249
f 253 213 249
f 249 213 205
f 249 344 253
f 297 249 241
f 342 344 297
f 344 249 297
f 192 196 238
f 192 147 196
f 254 250 214
f 194 200 121
f 121 187 194
f 187 244 194
f 248 200 194
f 194 244 248
f 181 187 157
f 157 232 181
f 232 236 181
f 236 244 181
f 181 244 187
f 250 298 242
f 238 196 242
f 242 206 250
f 196 206 242
f 296 237 238
f 238 242 296
f 296 242 298
f 241 237 296
f 296 297 241
f 296 341 342
f 342 297 296
f 19 17 34
f 71 19 34
f 34 61 71
f 117 28 25
f 25 23 117
f 20 7 26
f 26 42 20
f 26 44 42
f 10 14 37
f 37 35 10
f 10 2 14
f 10 35 32
f 39 41 21
f 483 469 380
f 380 413 483
f 380 469 378
f 378 324 380
f 646 689 721
f 646 721 674
f 674 626 646
f 640 689 652
f 689 646 652
f 652 646 626
f 580 626 595
f 580 539 640
f 487 572 501
f 595 586 574
f 586 572 574
f 574 580 595
f 539 580 574
f 614 568 576
f 576 479 485
f 568 479 576
f 330 328 332
f 328 386 332
f 330 332 384
f 384 332 386
f 441 386 393
f 393 386 338
f 455 422 477
f 477 539 455
f 477 479 539
f 426 386 441
f 426 441 485
f 485 479 426
f 328 293 289
f 256 212 289
f 289 293 256
f 320 369 318
f 320 322 369
f 318 264 320
f 264 322 320
f 355 300 353
f 353 300 351
f 353 457 355
f 351 457 353
f 318 349 302
f 302 349 336
f 302 262 318
f 260 262 302
f 264 262 220
f 94 98 104
f 104 151 94
f 104 121 151
f 157 121 104
f 104 139 157
f 338 266 340
f 407 393 340
f 340 393 338
f 340 409 407
f 347 409 340
f 268 347 340
f 340 266 268
f 212 131 190
f 177 266 190
f 190 119 177
f 131 119 190
f 100 77 73
f 73 92 100
f 73 55 53
f 73 77 55
f 799 770 813
f 799 822 810
f 813 822 799
f 735 723 707
f 745 723 735
f 707 715 735
f 743 715 727
f 743 735 715
f 672 660 705
f 705 711 672
f 719 729 699
f 699 729 705
f 705 660 699
f 724 719 676
f 739 732 786
f 786 783 739
f 666 711 717
f 717 739 727
f 717 711 732
f 732 739 717
f 756 748 746
f 746 711 756
f 748 711 746
f 616 624 545
f 599 570 473
f 473 584 599
f 601 570 599
f 599 620 601
f 666 620 656
f 660 672 656
f 666 648 628
f 628 620 666
f 628 648 601
f 601 620 628
f 561 560 461
f 461 463 561
f 427 463 461
f 462 427 461
f 461 560 462
f 592 557 684
f 684 693 592
f 854 861 866
f 866 853 854
f 842 843 854
f 854 853 842
f 877 866 876
f 866 861 876
f 876 891 877
f 887 891 876
f 874 879 906
f 906 899 874
f 899 868 874
f 881 879 789
f 789 878 881
f 905 878 873
f 873 898 905
f 867 898 873
f 407 445 443
f 445 497 443
f 443 497 441
f 443 393 407
f 441 393 443
f 582 523 588
f 497 523 582
f 485 497 582
f 582 576 485
f 453 449 415
f 459 555 453
f 453 555 541
f 541 449 453
f 779 836 754
f 754 658 779
f 852 836 779
f 788 852 779
f 779 664 788
f 779 658 664
f 415 373 417
f 376 420 417
f 417 373 376
f 459 453 417
f 417 453 415
f 417 460 459
f 417 420 460
f 596 564 554
f 589 663 596
f 596 554 589
f 459 460 565
f 565 555 459
f 565 603 597
f 597 555 565
f 327 271 288
f 288 292 327
f 288 271 211
f 335 348 301
f 219 168 160
f 219 148 158
f 160 148 219
f 225 273 233
f 225 263 273
f 225 219 263
f 168 219 225
f 321 374 377
f 377 323 321
f 368 374 321
f 321 319 368
f 321 323 273
f 273 263 321
f 263 319 321
f 325 290 286
f 286 323 325
f 273 323 286
f 233 273 286
f 478 425 423
f 423 476 478
f 423 425 421
f 421 476 423
f 502 504 488
f 488 506 502
f 528 504 502
f 502 506 528
f 112 87 118
f 172 110 112
f 81 87 112
f 112 110 81
f 112 176 172
f 112 118 176
f 207 197 160
f 160 168 207
f 168 225 207
f 233 197 207
f 207 225 233
f 126 152 108
f 126 162 152
f 138 162 126
f 103 138 126
f 126 97 103
f 126 108 97
f 38 11 36
f 51 38 36
f 36 32 48
f 48 51 36
f 870 855 880
f 880 892 870
f 865 885 880
f 880 855 865
f 896 890 901
f 896 885 890
f 903 892 896
f 896 880 885
f 892 880 896
f 901 908 896
f 908 903 896
f 900 887 894
f 894 903 900
f 894 892 903
f 894 887 884
f 884 892 894
f 551 499 509
f 509 578 551
f 509 519 578
f 499 471 493
f 489 507 493
f 493 457 489
f 493 471 457
f 528 530 534
f 534 536 528
f 534 530 609
f 609 536 534
f 803 769 749
f 749 767 803
f 775 742 749
f 749 769 775
f 728 704 710
f 710 755 728
f 728 698 704
f 718 698 728
f 728 755 718
f 747 755 710
f 710 733 747
f 785 755 747
f 747 733 785
f 740 733 716
f 726 784 740
f 740 716 726
f 740 784 785
f 785 733 740
f 594 573 585
f 585 625 594
f 639 538 579
f 579 538 573
f 573 594 579
f 579 594 625
f 720 688 645
f 645 673 720
f 645 625 673
f 651 688 639
f 625 645 651
f 651 645 688
f 175 165 210
f 175 167 141
f 141 165 175
f 210 204 246
f 306 252 246
f 252 210 246
f 246 204 248
f 246 308 306
f 248 308 246
f 133 147 129
f 135 147 133
f 133 129 117
f 117 123 133
f 123 135 133
f 237 195 191
f 195 146 191
f 191 146 142
f 147 192 143
f 129 147 143
f 316 314 359
f 312 254 316
f 343 296 298
f 341 296 343
f 45 43 63
f 63 65 45
f 70 60 33
f 66 70 85
f 66 83 62
f 66 85 89
f 89 83 66
f 4 7 14
f 14 2 4
f 12 26 7
f 9 10 32
f 1 2 9
f 2 10 9
f 9 3 1
f 11 3 9
f 32 36 9
f 9 36 11
f 8 21 13
f 39 21 15
f 15 8 5
f 21 8 15
f 5 3 15
f 15 3 11
f 15 38 39
f 15 11 38
f 326 380 324
f 324 287 326
f 326 291 330
f 326 287 291
f 626 580 608
f 501 413 447
f 455 539 515
f 539 574 515
f 572 487 515
f 515 574 572
f 422 384 388
f 388 384 386
f 388 426 422
f 386 426 388
f 413 380 382
f 380 326 382
f 330 384 382
f 382 326 330
f 479 477 424
f 424 426 479
f 424 477 422
f 422 426 424
f 272 289 212
f 272 266 338
f 272 338 328
f 328 289 272
f 212 190 272
f 272 190 266
f 282 284 258
f 282 258 260
f 260 302 282
f 336 284 282
f 282 302 336
f 179 202 139
f 139 163 179
f 149 109 125
f 149 153 109
f 216 262 260
f 216 220 262
f 153 149 216
f 127 98 109
f 127 104 98
f 139 104 127
f 127 163 139
f 109 153 127
f 153 163 127
f 92 73 88
f 88 82 113
f 51 82 88
f 113 119 88
f 119 92 88
f 53 51 88
f 88 73 53
f 782 799 810
f 782 810 796
f 796 768 782
f 770 799 782
f 771 770 759
f 759 727 771
f 759 743 727
f 735 743 750
f 750 759 770
f 743 759 750
f 750 782 768
f 770 782 750
f 768 745 750
f 745 735 750
f 724 676 668
f 668 713 724
f 670 713 668
f 668 638 670
f 668 624 616
f 616 638 668
f 719 699 687
f 687 676 719
f 687 699 660
f 654 687 660
f 676 687 654
f 741 783 727
f 727 739 741
f 741 739 783
f 703 717 727
f 666 717 703
f 680 666 703
f 703 715 680
f 727 715 703
f 616 545 549
f 610 535 537
f 610 537 606
f 606 537 545
f 660 656 644
f 691 672 711
f 691 656 672
f 691 711 666
f 666 656 691
f 559 693 561
f 559 592 693
f 557 592 559
f 561 463 559
f 559 463 557
f 841 854 843
f 841 830 827
f 843 830 841
f 827 822 841
f 841 822 837
f 872 876 861
f 861 857 872
f 884 887 872
f 887 876 872
f 872 860 884
f 872 857 860
f 793 868 788
f 793 874 868
f 788 678 793
f 793 678 682
f 787 867 792
f 867 873 792
f 588 658 634
f 634 582 588
f 634 658 754
f 634 754 614
f 614 576 634
f 576 582 634
f 564 596 602
f 460 564 566
f 566 565 460
f 603 565 566
f 564 602 566
f 317 319 263
f 317 301 348
f 317 348 368
f 368 319 317
f 233 286 255
f 255 286 290
f 255 197 233
f 239 197 255
f 255 229 239
f 255 290 292
f 292 288 255
f 211 229 255
f 255 288 211
f 505 495 511
f 505 491 495
f 489 491 505
f 767 749 744
f 751 767 744
f 730 751 744
f 744 722 730
f 639 579 621
f 621 651 639
f 607 579 625
f 607 621 579
f 651 621 607
f 359 399 365
f 365 316 359
f 252 314 218
f 314 316 218
f 218 210 252
f 218 254 214
f 218 316 254
f 218 175 210
f 214 167 218
f 167 175 218
f 429 463 427
f 429 427 389
f 250 254 345
f 345 298 250
f 345 343 298
f 31 34 17
f 31 45 65
f 31 65 61
f 61 34 31
f 122 70 18
f 70 33 18
f 18 22 122
f 64 60 70
f 70 66 64
f 64 66 62
f 6 4 2
f 6 2 1
f 1 3 6
f 6 8 13
f 6 3 5
f 5 8 6
f 13 17 6
f 24 22 6
f 6 27 24
f 28 27 6
f 22 18 6
f 7 4 6
f 6 12 7
f 6 17 19
f 19 23 6
f 6 25 28
f 23 25 6
f 632 652 626
f 626 608 632
f 632 608 652
f 622 580 640
f 622 608 580
f 640 652 622
f 652 608 622
f 451 515 487
f 451 487 501
f 501 447 451
f 451 447 413
f 451 422 455
f 455 515 451
f 202 179 224
f 228 202 224
f 224 179 163
f 258 284 224
f 280 228 224
f 224 284 280
f 274 264 226
f 264 220 226
f 198 240 256
f 230 240 198
f 198 145 230
f 220 149 161
f 161 198 208
f 161 149 125
f 125 145 161
f 145 198 161
f 159 149 220
f 220 216 159
f 159 216 149
f 650 668 676
f 676 654 650
f 610 606 650
f 547 543 616
f 616 549 547
f 543 547 529
f 529 547 549
f 529 638 616
f 616 543 529
f 529 549 545
f 545 537 529
f 670 638 529
f 529 533 670
f 529 505 511
f 527 533 529
f 529 521 527
f 511 517 529
f 517 521 529
f 529 537 535
f 529 525 519
f 630 654 660
f 660 644 630
f 630 650 654
f 610 650 630
f 610 630 612
f 612 630 644
f 584 578 612
f 578 519 612
f 612 525 610
f 519 525 612
f 618 656 620
f 618 644 656
f 618 612 644
f 620 599 618
f 618 599 584
f 584 612 618
f 861 854 850
f 854 841 850
f 850 857 861
f 850 841 837
f 791 789 879
f 879 874 791
f 874 793 791
f 791 793 682
f 790 873 878
f 790 792 873
f 878 789 790
f 677 663 787
f 787 792 677
f 677 596 663
f 677 602 596
f 603 566 604
f 604 566 602
f 335 301 281
f 281 283 335
f 301 259 281
f 335 283 279
f 294 333 279
f 279 333 335
f 227 294 279
f 263 219 261
f 261 317 263
f 261 259 301
f 301 317 261
f 221 152 170
f 734 744 749
f 734 749 742
f 706 722 734
f 722 744 734
f 734 714 706
f 742 714 734
f 625 651 631
f 631 607 625
f 651 607 631
f 391 429 389
f 389 341 391
f 341 343 391
f 475 563 467
f 29 17 13
f 29 31 17
f 13 21 29
f 29 41 43
f 29 21 41
f 43 45 29
f 45 31 29
f 26 12 16
f 12 6 16
f 16 6 18
f 30 33 60
f 60 64 30
f 26 16 30
f 30 18 33
f 30 16 18
f 413 382 419
f 419 451 413
f 422 451 419
f 419 384 422
f 419 382 384
f 153 216 222
f 258 224 222
f 260 258 222
f 222 216 260
f 274 226 234
f 256 287 234
f 234 287 274
f 234 226 208
f 234 198 256
f 208 198 234
f 169 226 220
f 220 161 169
f 208 226 169
f 169 161 208
f 624 668 636
f 668 650 636
f 636 650 606
f 636 545 624
f 636 606 545
f 531 529 535
f 525 529 531
f 531 535 610
f 610 525 531
f 503 529 507
f 505 529 503
f 503 507 489
f 489 505 503
f 513 529 519
f 507 529 513
f 513 509 499
f 519 509 513
f 499 493 513
f 513 493 507
f 848 850 837
f 857 850 848
f 848 837 833
f 833 844 848
f 848 844 860
f 860 857 848
f 685 604 602
f 685 790 789
f 682 603 685
f 603 604 685
f 685 791 682
f 789 791 685
f 215 221 259
f 215 261 219
f 259 261 215
f 215 219 158
f 158 148 215
f 152 221 215
f 148 152 215
f 257 281 259
f 259 221 257
f 283 281 257
f 557 463 465
f 463 429 465
f 343 345 395
f 395 391 343
f 397 345 254
f 397 395 345
f 467 395 397
f 397 254 312
f 397 365 399
f 475 467 397
f 397 433 475
f 399 433 397
f 312 316 397
f 316 365 397
f 662 684 553
f 684 557 553
f 553 563 662
f 553 467 563
f 557 465 553
f 553 465 467
f 46 30 64
f 62 44 46
f 46 64 62
f 44 26 46
f 26 30 46
f 171 224 163
f 171 222 224
f 171 163 153
f 153 222 171
f 790 685 681
f 792 790 681
f 681 677 792
f 602 677 681
f 681 685 602
f 283 257 223
f 227 279 223
f 223 279 283
f 223 257 221
f 223 201 227
f 178 201 223
f 223 162 178
f 170 162 223
f 223 221 170
f 431 465 429
f 429 391 431
f 391 395 431
f 467 465 431
f 431 395 467
f 129 128 115
f 115 128 114
f 191 192 238
f 238 237 191
f 192 191 143
f 143 191 142
f 143 128 129
f 142 128 143
