# Convex geometry proxy; dimensions/assumptions in asset-spec.json
v -0.012 -0.003 -0.085
v -0.012 0.003 -0.085
v 0.012 -0.003 -0.085
v 0.012 0.003 -0.085
v -0.015 -0.003 -0.06
v -0.015 0.003 -0.06
v 0.015 -0.003 -0.06
v 0.015 0.003 -0.06
v -0.015 -0.003 0.06
v -0.015 0.003 0.06
v 0.015 -0.003 0.06
v 0.015 0.003 0.06
v -0.01 -0.003 0.085
v -0.01 0.003 0.085
v 0.01 -0.003 0.085
v 0.01 0.003 0.085
f 6 1 5
f 6 2 1
f 6 5 9
f 6 9 10
f 14 9 13
f 14 10 9
f 8 11 7
f 8 12 11
f 3 4 8
f 3 8 7
f 3 2 4
f 3 1 2
f 15 5 1
f 15 7 11
f 15 9 5
f 15 3 7
f 15 13 9
f 15 1 3
f 16 2 6
f 16 4 2
f 16 12 8
f 16 6 10
f 16 10 14
f 16 8 4
f 16 11 12
f 16 15 11
f 16 14 13
f 16 13 15
