v -0.01046617236 0.004949999042 -0.004129088484
v -0.01046617143 -0.004949999973 -0.004129087087
v -0.01046617143 -0.002949998714 -0.004129089881
v -0.01046617143 0.002950001741 -0.004129086155
v -0.01045349427 -0.00495000137 -0.004703318235
v -0.01045349427 -0.002949998714 -0.004703314044
v -0.01045349427 0.002950000111 -0.004703317769
v -0.01045349427 0.004949999508 -0.004703320563
v -0.01026210655 -0.004950000905 -0.003592190798
v -0.01026210561 -0.002949998248 -0.003592186607
v -0.01026210561 0.002950000344 -0.003592190333
v -0.01026210561 0.004949999973 -0.003592192894
v -0.01022593305 -0.004949998111 -0.005230686162
v -0.01022593305 -0.00295000081 -0.00523068849
v -0.01022593305 0.004949998576 -0.005230687559
v -0.01022593211 0.002949999413 -0.005230684765
v -0.009871219285 -0.004950002301 -0.00317134941
v -0.009871219285 0.002949999413 -0.003171348711
v -0.009871219285 0.004949999973 -0.003171344055
v -0.009871218354 -0.002949999645 -0.003171345219
v -0.009816854261 -0.004950000905 -0.005633866414
v -0.009816854261 -0.002949999878 -0.005633869208
v -0.00981685333 0.002950000344 -0.005633865483
v -0.00981685333 0.004949999508 -0.005633868277
v -0.009350823238 -0.00495000137 -0.002928261645
v -0.009350823238 -0.002950000111 -0.002928264672
v -0.009350822307 0.002950000111 -0.002928260947
v -0.009350822307 0.004949999508 -0.002928263741
v -0.009286236949 0.002949998947 -0.005853749812
v -0.009286236949 0.004949999508 -0.005853745155
v -0.009286236018 -0.004949997645 -0.005853744224
v -0.009286236018 -0.002950000111 -0.005853746552
v -0.008711882867 -0.004949998576 -0.005858087912
v -0.008711882867 -0.002949999645 -0.00585808279
v -0.008711881936 0.00294999918 -0.005858086515
v -0.008711881936 0.004949999973 -0.005858081859
v -0.008094245568 -0.002949998714 -0.002614961471
v -0.008094245568 0.002950000111 -0.002614965197
v -0.007662612479 0.002998621669 -0.002507347614
v -0.007662612014 -0.002998623298 -0.002507342724
v -0.007502792403 -0.002949999413 -0.002552601276
v -0.007502792403 0.002950001042 -0.002552597551
v -0.007244182751 -0.003145656548 -0.002403019927
v -0.007244182751 0.003145656781 -0.002403017832
v -0.007081804797 0.00294999918 -0.002593924524
v -0.007081803866 -0.002949999645 -0.002593921032
v -0.006867366377 -0.003383920761 -0.002309069969
v -0.006867366377 0.003383920062 -0.002309065778
v -0.006795721594 -0.002949998714 -0.002652120544
v -0.006795721594 0.002950000111 -0.002652124269
v -0.006406818051 -0.002949999645 -0.002760839649
v -0.006406817585 0.002950000577 -0.002760835923
v -0.006188774016 0.003840641351 -0.002139878459
v -0.006184490398 -0.003843026236 -0.002138810698
v -0.005446513183 0.004176063463 -0.001954806969
v -0.005437301006 -0.004179312382 -0.001952515217
v -0.00527034374 -0.002949998947 -0.003044276498
v -0.005270343274 0.002950001042 -0.003044273006
v -0.004741611425 0.002950000577 -0.003109560348
v -0.00473318249 -0.00294999918 -0.003110170364
v -0.004660819657 0.004381044768 -0.001758916187
v -0.004646408837 -0.004383498337 -0.001755319303
v -0.004354753997 -0.002949999413 -0.003121715272
v -0.004354753997 0.00295000081 -0.003121711547
v -0.004083472304 0.002949998947 -0.003109314246
v -0.004072515294 -0.002950000344 -0.003108417615
v -0.003853108268 0.004949998576 -0.001557530486
v -0.003853108035 0.004449999891 -0.001557531883
v -0.003853107803 -0.004949998576 -0.001557529322
v -0.003853107803 -0.004449999891 -0.001557527808
v -0.003621796146 0.002949998947 -0.003043140983
v -0.003621795448 -0.002949998016 -0.003043137724
v -0.003490225645 -0.002950001741 -0.003012974514
v -0.003490224946 0.002950000344 -0.003012971254
v -0.003166011302 0.00444999896 -0.001307506813
v -0.003166010603 -0.00444999896 -0.001307503087
v -0.003073042957 0.004449999891 -0.001260453835
v -0.003073042491 -0.004950000439 -0.001260450925
v -0.003073042491 0.004950000439 -0.001260452787
v -0.003073042259 -0.004449998029 -0.001260450226
v -0.002545853378 0.004449999891 -0.0009201849462
v -0.002545852913 -0.004449998029 -0.0009201812791
v -0.002508658683 -0.002950001508 -0.002655798336
v -0.002508658217 0.002950000577 -0.002655795077
v -0.002385506639 -0.004450001288 -0.0007871167036
v -0.002385506406 -0.004949999973 -0.0007871181588
v -0.002385506406 0.004449999891 -0.0007871134439
v -0.002385505941 0.004950000439 -0.0007871123962
v -0.00201969943 -0.004450000357 -0.0004124657717
v -0.002019698964 0.004450000823 -0.0004124625702
v -0.001879807678 -0.00495000137 -0.004578871187
v -0.001879807678 -0.002950000111 -0.004578873981
v -0.001879807562 0.004949999508 -0.004578873049
v -0.001879807329 0.002950000111 -0.004578870256
v -0.001829604269 -0.004950000905 -0.0001644339791
v -0.001829604269 0.004449999426 -0.0001644369768
v -0.00182960392 0.004949999973 -0.0001644359145
v -0.001829603803 -0.004449998494 -0.0001644332806
v -0.001622718177 0.002949999413 -0.002102478873
v -0.001622717944 -0.002949999413 -0.002102475148
v -0.001606240752 -0.00444516167 0.0001912098378
v -0.001606240286 0.004445160273 0.0001912164298
v -0.001499999431 -0.004949999508 1.717748277e-09
v -0.001499999431 0.006999998819 2.961954237e-09
v -0.001499999198 -0.006999999285 6.586246659e-09
v -0.001499999082 0.004950000905 7.465889684e-09
v -0.001402524067 -0.004950000905 0.0006031730445
v -0.001402523834 -0.004428877961 0.0006031740922
v -0.001402523485 0.004428878427 0.0006031774101
v -0.001402523252 0.00495000137 0.0006031783996
v -0.00138581905 -0.007000001147 -0.0005740235792
v -0.001385818934 0.004949999042 -0.0005740227061
v -0.001385818818 -0.004949999973 -0.0005740211927
v -0.001385818701 -0.004949999508 0.0005740275374
v -0.001385818701 0.006999998819 0.0005740287597
v -0.001385818701 0.007000000682 -0.0005740203196
v -0.001385818468 -0.006999999285 0.0005740324268
v -0.001385818352 0.004950000905 0.0005740332999
v -0.001301206299 0.004413641058 0.0008611845551
v -0.001301205833 -0.004413639661 0.0008611878147
v -0.001158739906 -0.002950001508 -0.004387230147
v -0.001158739557 0.004949999973 -0.004387229681
v -0.001158739324 -0.004949999042 -0.004387228284
v -0.001158739324 0.002950000577 -0.004387226887
v -0.001139045926 -0.004950001836 0.001441148575
v -0.001139045693 -0.004367109388 0.001441148343
v -0.001139045227 0.004367108457 0.00144115428
v -0.001139045111 0.004950000439 0.00144115393
v -0.001112057711 -0.004353233147 0.001584357815
v -0.001065625693 0.004314158577 0.001947401674
v -0.001065589837 -0.004314111546 0.001947822049
v -0.001060659648 -0.004949999973 -0.001060658018
v -0.001060659532 -0.00699999975 -0.001060653129
v -0.001060659532 -0.004950000905 0.0010606664
v -0.001060659415 -0.006999998819 0.001060663257
v -0.001060659415 0.004949999508 0.001060664421
v -0.001060659415 0.004950000439 -0.001060652314
v -0.001060659299 0.007000000216 -0.001060657203
v -0.001060659182 0.007000001147 0.001060666866
v -0.001049999963 0.001631824416 0.004632176366
v -0.001049999846 -0.001054611872 0.002603472676
v -0.001049999846 0.001293263864 0.002821035683
v -0.00104999973 -0.004254163709 0.005875435192
v -0.00104999973 -0.003808926558 -0.0001178188759
v -0.00104999973 0.0007800416788 0.00556653738
v -0.00104999973 0.002500228118 0.006989334244
v -0.00104999973 0.004269185476 0.002315046266
v -0.001049999613 -0.001720204251 0.004321568646
v -0.001049999613 -0.0004789108061 0.00568319764
v -0.001049999613 0.002471061191 -7.801847096e-05
v -0.001049999613 0.003433573525 -0.0007932602894
v -0.001049999613 0.003951034509 0.0002043623244
v -0.001049999497 -0.004949999508 0.00231504417
v -0.001049999497 -0.004142200574 0.0007531308802
v -0.001049999497 -0.001487881644 0.003078750335
v -0.001049999497 0.0007800407475 0.00243347045
v -0.001049999497 0.001949999831 2.223300153e-07
v -0.00104999938 -0.004949999508 0.004609213211
v -0.00104999938 -0.004621994216 0.005545395892
v -0.00104999938 -0.0004789095256 0.002316809259
v -0.00104999938 0.002756261965 -0.0001934542379
v -0.00104999938 0.004148751963 0.0007763453177
v -0.00104999938 0.004290782381 0.001576638082
v -0.001049999264 -0.004269185476 0.002315048128
v -0.001049999264 -0.002500234637 0.006989336107
v -0.001049999264 0.0001614699722 0.002257470973
v -0.001049999264 0.0001614700304 0.005742539652
v -0.001049999264 0.004865626339 0.005105196033
v -0.001049999148 -0.004865624011 0.005105203949
v -0.001049999148 -0.00428823987 0.00154322898
v -0.001049999148 -0.003079295857 -0.0004043546796
v -0.001049999148 -0.002903467277 -0.0002765426761
v -0.001049999148 -0.001957998844 2.043576184e-07
v -0.001049999148 -0.001720202039 0.003678445704
v -0.001049999148 0.001293266425 0.005178973544
v -0.001049999148 0.001631826744 0.003367832396
v -0.001049999148 0.003083795309 -0.0004081863444
v -0.001049999148 0.00425416464 0.005875433795
v -0.001049999148 0.004300130066 0.001854426111
v -0.001049999148 0.004949999508 0.004609211348
v -0.001049999148 0.00495000137 0.002315049991
v -0.001049999031 -0.001487879665 0.004921264481
v -0.001049999031 -0.001054608962 0.005396537017
v -0.001049999031 0.0017500018 0.004000006244
v -0.001049999031 0.004219630733 0.001067557489
v -0.001049998915 -0.002485682955 -8.248177619e-05
v -0.001049998915 -0.001949997852 2.229860026e-07
v -0.001049998915 0.003802903229 -0.0001305317273
v -0.001049998798 0.004621995147 0.005545388907
v -0.001049997984 -0.00344247953 -0.0008065710426
v -0.001049997751 0.003442480695 -0.0008065687143
v -0.001032136963 0.003337499453 -0.0009584837826
v -0.001031971071 -0.00333773531 -0.0009578826721
v -0.001022435375 0.003310138127 -0.0009908128995
v -0.00102171523 -0.003309139516 -0.0009915111586
v -0.0009915631963 -0.001950000762 -0.0002999129356
v -0.0009915630799 0.001950000529 -0.0002999143617
v -0.0009855463868 0.003232713789 -0.001069562277
v -0.0009849781636 -0.003232514253 -0.001069159014
v -0.0009845901513 0.003180315485 -0.000987696927
v -0.000984007027 -0.003180338303 -0.0009876800468
v -0.0009825276211 0.00299351546 -0.0007610382745
v -0.0009818930412 -0.002993540838 -0.000761020754
v -0.0009808121249 0.002768218983 -0.0005768303527
v -0.000980130746 -0.00276824506 -0.0005768073024
v -0.0009795220103 0.002512318781 -0.0004415973963
v -0.0009788036114 -0.002512338571 -0.0004415678559
v -0.0009787102463 0.002236100612 -0.0003583834332
v -0.0009786015144 0.001949999365 -0.0003301386605
v -0.0009784291033 -0.00194999855 -0.0003305201244
v -0.000977968215 -0.002236113884 -0.0003583453072
v -0.000962317572 0.003194274614 -0.001102223177
v -0.000960349862 -0.00319186179 -0.001103621908
v -0.0009337903466 0.003152950667 -0.001132787205
v -0.0009322034311 -0.003151139012 -0.001133704558
v -0.0008710699622 0.002949999878 -0.001377170673
v -0.0008710695547 -0.002949998947 -0.001377166947
v -0.0008313256549 0.0030340089 -0.001194907818
v -0.0008304801886 -0.003033098299 -0.001195302466
v -0.0007939349161 0.0029977425 -0.001205965295
v -0.0007915318711 0.002953482559 -0.001137341722
v -0.0007914983435 -0.002953465329 -0.001137359068
v -0.0007837473531 0.00279805786 -0.0009536107536
v -0.0007837079465 -0.002798052039 -0.000953642244
v -0.000777289737 0.002612924436 -0.0008052982157
v -0.0007772434037 -0.002612927696 -0.0008053447818
v -0.0007724464522 0.002404598519 -0.000697222189
v -0.0007723942981 -0.002404604573 -0.000697268697
v -0.0007694061496 0.002180966083 -0.0006311762845
v -0.0007693513762 -0.002180973068 -0.0006312352489
v -0.0007674311055 -0.001950000064 -0.0006099111051
v -0.0007674310473 0.001950001228 -0.0006099125021
v -0.0007424472715 0.002949999413 -0.004221303388
v -0.000742446864 -0.002949999413 -0.004221300129
v -0.0007401092444 0.002949999645 -0.001214456512
v -0.0007400193717 -0.002949999413 -0.001214339281
v -0.0006639061612 -0.002949999413 -0.001325707417
v -0.0006453066017 -0.002727174899 -0.0010234355
v -0.0006289795856 0.002366305096 -0.0007880161866
v -0.0006232123706 0.001949998783 -0.0007073865272
v -0.0006167396787 0.002949998947 -0.001389311627
v -0.0006112275296 -0.002950000111 -0.00139744475
v -0.0006090116221 0.002950000111 -0.00139949529
v -0.0005740248598 0.006999998819 -0.001385817537
v -0.000574024627 -0.004950000905 0.001385824755
v -0.0005740245106 -0.006999998819 0.001385821612
v -0.0005740245106 0.004949999973 0.001385822892
v -0.0005740243942 -0.006999999285 -0.001385813928
v -0.0005740242777 0.006999999285 0.001385825686
v -0.0005740241613 0.004950000905 -0.001385813113
v -0.0005740239867 -0.004949998111 -0.001385811483
v -0.0005494553479 0.003018212272 -0.004129243549
v -0.0005286229425 0.002950000111 -0.001501768944
v -0.0005283682258 -0.00294999918 -0.00150363415
v -0.0005212497781 0.002915239893 -0.0014137096
v -0.000521236565 -0.002914798213 -0.001413864084
v -0.0005042307894 0.002812242368 -0.001230114722
v -0.0004891484277 0.002679001307 -0.001070722356
v -0.0004890952841 -0.002678683493 -0.001071147854
v -0.0004805922508 -0.002949998947 -0.004088066053
v -0.0004766971688 0.002520061564 -0.0009419026319
v -0.0004766247876 -0.002519829897 -0.0009424564778
v -0.0004674058291 0.002341012005 -0.0008479117532
v -0.0004673179355 -0.002340869512 -0.0008485643775
v -0.0004669635673 -0.002949999878 -0.001578246942
v -0.0004615027865 -0.002148626605 -0.0007911293069
v -0.0004595881037 -0.001949998667 -0.0007718330598
v -0.0004291512305 0.002949999413 -0.001620963449
v -0.0004249907215 -0.001949999831 -0.0007804014604
v -0.0004249904014 0.001950001344 -0.0007804029156
v -0.0003785766312 0.002949999645 -0.004027578048
v -0.0003614647139 -0.002878063358 -0.001428533695
v -0.0003221102525 0.00265498762 -0.001094288542
v -0.0003221095249 -0.002654907992 -0.001094486099
v -0.0002956524258 0.002329644281 -0.0008749600383
v -0.0002499994298 -0.002949999413 -0.001827548724
v -0.0002499993425 0.00294999918 -0.001827544766
v -0.0002499989641 -0.001949999598 -0.0007997027715
v -0.0002499972179 0.001950001577 -0.0007995747146
v -0.0001975285704 0.002873881022 -0.001434755279
v -0.0001969583391 0.002872178098 -0.001430490287
v -0.0001965621195 -0.002870982978 -0.001427525538
v -0.0001729334326 0.00277996459 -0.001250642934
v -0.0001716660627 -0.003164018039 -0.003916654736
v -0.0001716077968 0.004950000905 -0.003917692695
v -0.0001716076222 -0.004949998111 -0.003917691298
v -0.0001713569363 0.003163584741 -0.003917793278
v -0.000151817585 0.002656764118 -0.001092573279
v -0.0001518083445 -0.002656697528 -0.001092503546
v -0.0001482631633 -0.002949998714 -0.00386779476
v -0.0001345283526 -0.002506047953 -0.0009631481953
v -0.0001216447781 0.00233149901 -0.0008667044458
v -0.0001210935807 -0.002321703359 -0.0008625767659
v -0.0001138026855 -0.002145207254 -0.0008079984109
v -0.0001110808662 0.001949999481 -0.0007876249147
v -0.000111080597 -0.001949998201 -0.0007876242162
v -5.320506898e-05 0.002949999413 -0.003792766714
v -2.922873318e-05 0.003220938146 -0.003826500382
v -2.838336513e-05 -0.003221908584 -0.003824478248
v 2.069373423e-10 -0.007000001613 2.332929405e-09
v 2.572543567e-10 0.006999998819 -0.0014999985
v 3.201153232e-10 -0.004950000439 0.001500001643
v 3.597139531e-10 -0.007000001613 -0.001499994542
v 6.2800537e-10 -0.007000000216 0.001500006532
v 6.400253105e-10 0.007000000216 0.001500002458
v 6.783223982e-10 0.007000000216 5.63271163e-09
v 7.401481095e-10 -0.004949999973 -0.001499992097
v 8.334357648e-10 0.004949999973 0.001500007347
v 9.708462922e-10 0.004950000439 -0.001499994076
v 1.094762411e-05 -0.003237918252 -0.003798005171
v 2.255698564e-05 0.003012655769 -0.003753173165
v 2.356603545e-05 -0.003013616893 -0.003751212033
v 0.0001348577789 -0.002949998947 -0.003620299278
v 0.0001650611666 0.003300286829 -0.003690215526
v 0.0002041115658 0.00295000081 -0.003549784888
v 0.0003853483649 -0.002950000111 -0.003335741581
v 0.0004483764642 0.002949998947 -0.003249391913
v 0.0004944148823 0.002071433933 0.00726165669
v 0.0004944373504 -0.002071435098 0.007261664141
v 0.0005740254419 -0.007000000682 -0.001385817653
v 0.0005740255583 0.00699999975 0.001385821495
v 0.0005740256165 0.004949999508 -0.001385816839
v 0.0005740257329 -0.004949998576 0.001385820215
v 0.0005740257911 0.006999999285 -0.001385814045
v 0.0005740258493 -0.004949999508 -0.001385815325
v 0.0005740259658 0.004949999973 0.001385826385
v 0.0005740260822 -0.006999998819 0.001385825104
v 0.0005903670099 -0.002949998714 -0.003025746671
v 0.0005944135482 -0.002958958736 -0.00303529948
v 0.0005950900377 0.00295972568 -0.003033604007
v 0.0006159203476 -0.003481117077 -0.003316490212
v 0.000616657373 0.003481954336 -0.003314681817
v 0.0006379931001 -0.003113357583 -0.003158173524
v 0.0006386931054 0.003114156192 -0.003156452905
v 0.0006452689995 -0.00329124881 -0.003253910225
v 0.0006459937431 0.003292056732 -0.003252154216
v 0.0006474106922 0.002949998481 -0.002917836187
v 0.0006892303936 0.0035098847 -0.003245392581
v 0.0006898979191 -0.004950000439 -0.003244863357
v 0.0006898980355 0.004949999973 -0.00324486522
v 0.0006903167814 -0.00350964535 -0.003245540662
v 0.0006967263762 -0.00351208006 -0.003239283571
v 0.0007508386043 -0.002950000111 -0.002687557135
v 0.0007522655069 0.003533651354 -0.003182898043
v 0.0007944679237 0.002950000577 -0.002565648174
v 0.0008576925611 -0.002949999645 -0.00234147883
v 0.0008859977243 0.00295000081 -0.002202714328
v 0.000903419219 -0.002949998248 -0.002084777458
v 0.0009134922293 0.002973483177 -0.002304503694
v 0.0009139127797 -0.00294999918 -0.001982236281
v 0.0009142134804 -0.002974082716 -0.002302707406
v 0.000915831537 0.002949843882 -0.001621980919
v 0.0009158322937 -0.002950355178 -0.001621976378
v 0.0009213189478 0.002950000111 -0.001835824223
v 0.0009277498466 -0.003408949589 -0.00296328892
v 0.0009285079432 0.003409642726 -0.002962110098
v 0.00101149804 -0.002978873439 -0.001969313482
v 0.00102128461 0.003067398909 -0.002409794834
v 0.001021992997 -0.003068041522 -0.00240785908
v 0.001046914607 -0.002943044063 -0.001479292056
v 0.001060660579 0.004949999508 -0.001060658484
v 0.001060660812 -0.004949999508 -0.001060656854
v 0.001060660812 0.006999999285 -0.00106065569
v 0.001060660928 -0.004950000439 0.001060667564
v 0.001060660928 0.004950000439 0.001060665585
v 0.001060660928 0.00699999975 0.001060668379
v 0.001060661045 -0.006999998353 0.001060664305
v 0.001060661161 -0.006999999285 -0.001060652081
v 0.001076845452 0.002966466127 -0.001667930745
v 0.001077845111 -0.002967208158 -0.001667069038
v 0.001105675707 0.00319124083 -0.00250486983
v 0.00110635336 -0.003191914875 -0.002502809046
v 0.001127846772 0.002929553622 -0.001380314003
v 0.001133858575 0.00304598012 -0.002058710437
v 0.001162408618 0.003339155344 -0.002585006645
v 0.001163031673 -0.003339868039 -0.002582826186
v 0.00118877145 0.003503737273 -0.002646348439
v 0.001189323608 -0.00350452587 -0.00264406018
v 0.001194349839 -0.003680406837 -0.002669841051
v 0.001209257287 0.003012970556 -0.001734968973
v 0.001210310846 -0.003013819456 -0.001733894693
v 0.001215663971 -0.002903007669 -0.001261484926
v 0.001225984888 0.00368809374 -0.002629124559
v 0.001241601305 0.003143903567 -0.002138500102
v 0.001243314473 -0.0031454165 -0.002134943847
v 0.001247570734 0.002889185911 -0.001214776537
v 0.001286462997 0.002867932431 -0.001153765945
v 0.001330009429 -0.003268696135 -0.002204387216
v 0.001331273816 0.003087448888 -0.001796185155
v 0.001343964599 -0.002825007774 -0.001054906985
v 0.001381253707 0.00301296846 -0.001489204238
v 0.001381298993 -0.00301302853 -0.001490560127
v 0.001382627524 -0.003725120565 -0.002401151229
v 0.001383780153 0.003723853268 -0.002401588717
v 0.001384602278 -0.004949999973 -0.002400896745
v 0.001384602278 0.004950000905 -0.002400898607
v 0.001385819516 -0.007000002079 0.0005740282941
v 0.001385819865 -0.004950000905 -0.0005740180495
v 0.001385819865 -0.004950000439 0.0005740306806
v 0.001385819982 0.004949999973 -0.0005740199704
v 0.001385819982 0.004949999973 0.0005740287597
v 0.001385819982 0.00699999975 0.0005740315537
v 0.001385820098 -0.006999998819 -0.0005740211927
v 0.001385820215 0.007000001147 -0.0005740175257
v 0.001390231308 0.0034104886 -0.002264502225
v 0.001391820842 -0.003412136342 -0.002260634676
v 0.001394076506 0.002770580119 -0.0009573003044
v 0.001415838255 0.001790138427 0.007424126845
v 0.001415845705 -0.001790144132 0.007424128707
v 0.001426154166 -0.003569514258 -0.002301360713
v 0.001431907527 -0.002712028334 -0.0008734469302
v 0.001438438776 0.00318693812 -0.001849368215
v 0.001439538435 -0.003187910421 -0.001848074491
v 0.001455616206 -0.00266149384 -0.0008132674848
v 0.001457069884 0.002657458652 -0.0008088891045
v 0.001461178996 0.002646912355 -0.0007976014167
v 0.001488483627 -0.002558734268 -0.0007153885672
v 0.001500000479 0.00699999975 9.940457344e-10
v 0.001500000595 -0.004950000905 7.784925149e-09
v 0.001500000712 0.004949999973 5.862544228e-09
v 0.001500000828 -0.006999998819 4.607945137e-09
v 0.001505210763 0.002478370909 -0.0006559448084
v 0.001519564656 -0.002377485391 -0.0005975552485
v 0.001521224505 -0.002970638685 -0.001244681771
v 0.001521336264 0.002970734378 -0.001243276172
v 0.001527695684 -0.003308657557 -0.001891086693
v 0.001528143999 0.00228444417 -0.000557058258
v 0.001534594106 -0.00217077788 -0.0005225030473
v 0.00153758144 0.002069609938 -0.0005042103003
v 0.001538681681 0.001949997502 -0.0004967292771
v 0.001538682147 -0.00195000018 -0.0004967285786
v 0.001576556941 -0.003749561496 -0.002080251928
v 0.00158703269 0.003748658346 -0.002061795676
v 0.001592406537 0.00344519224 -0.001923662494
v 0.001593423076 -0.003446205519 -0.001922300551
v 0.001607296639 0.003188073169 -0.00155043928
v 0.001607352286 -0.003188126953 -0.001552015776
v 0.001628734055 0.002884389134 -0.001009606523
v 0.001629021601 -0.00288454839 -0.001009596977
v 0.001634286717 -0.00359534123 -0.001940626651
v 0.001704305992 0.002754259156 -0.0008019628003
v 0.001704699942 -0.002754454501 -0.0008014053456
v 0.001743813045 -0.003139366163 -0.001253078226
v 0.001743922941 0.003139496315 -0.001251460169
v 0.001752410317 0.002585911658 -0.0006309901946
v 0.001752504148 -0.00258585019 -0.0006310553872
v 0.001764254877 0.003433930222 -0.001571256784
v 0.001764281886 -0.003433897858 -0.001573022571
v 0.001780173392 -0.00238905428 -0.0005051959888
v 0.001780297724 0.00238926732 -0.0005046591396
v 0.001794068143 -0.00217405241 -0.0004285579489
v 0.001794106094 0.002174148802 -0.0004283078597
v 0.001839663135 -0.00371445925 -0.001529767411
v 0.001847945619 0.003039156087 -0.0009672350134
v 0.00184824178 -0.00303932745 -0.0009672053275
v 0.001860231627 -0.00195000181 -0.0003630763968
v 0.001860232558 0.001950000878 -0.0003630705469
v 0.001868112246 0.003702454502 -0.001455242862
v 0.001879300573 0.004950000439 -0.001426137635
v 0.001879300806 -0.004949998576 -0.001426136005
v 0.001879474148 0.003696848871 -0.00142526452
v 0.001880629105 -0.003695864463 -0.001424186397
v 0.001901279902 -0.003367722966 -0.001219828497
v 0.001901417854 0.003367944853 -0.00121802662
v 0.001920662704 0.002887551673 -0.0007143129478
v 0.001921068295 -0.002887764713 -0.0007136355853
v 0.00196664012 0.00269128615 -0.0005056495429
v 0.001966734417 -0.002691203263 -0.0005057118251
v 0.001974557526 0.003628277453 -0.001147041563
v 0.001992998878 -0.002461763099 -0.0003518148151
v 0.001993137877 0.00246201735 -0.000351193652
v 0.002003771486 0.003244351596 -0.0008809168357
v 0.002004008042 -0.00324449758 -0.0008808946586
v 0.002006171504 -0.002211140469 -0.000257976295
v 0.002006236697 0.002211256884 -0.0002576820843
v 0.002009833464 0.001949998201 -0.0002263907518
v 0.002009866294 -0.001949999598 -0.0002263473871
v 0.002026384929 -0.003567054169 -0.0009695322369
v 0.002043136163 0.003542001359 -0.0009052180685
v 0.002073023701 0.003062906209 -0.0005790385767
v 0.002073355718 -0.003063115524 -0.000578293053
v 0.002078347839 -0.003476522164 -0.0007605745341
v 0.002114565112 0.002830220386 -0.0003281179233
v 0.002114599803 -0.002830100944 -0.0003281824756
v 0.002120327437 -0.001950000529 -5.642757606e-05
v 0.002120327437 0.001950000762 -5.642899487e-05
v 0.002131685847 -0.003318762407 -0.0004904298694
v 0.002136645373 -0.002558295149 -0.0001417320891
v 0.002136823721 0.002558603184 -0.0001410474943
v 0.002144255908 0.003260220168 -0.0004108725989
v 0.002146785846 -0.002260654932 -2.729859807e-05
v 0.002146879444 0.002260794165 -2.695616968e-05
v 0.00215034862 -0.004950000905 -0.0003671652812
v 0.002150348853 0.004949999973 -0.0003671672021
v 0.002172166482 -0.003067054553 -0.0001920896029
v 0.002186204074 0.002883866196 -3.54247677e-05
v 0.002194693778 0.002667874098 0.0001015116286
v 0.002195225097 -0.002636770485 0.000116592586
v 0.002198649803 0.002434921218 0.0002019307867
v 0.002199316863 -0.002316783648 0.0002363296808
v 0.002199718729 0.001949999481 0.0002826249111
v 0.002199718961 -0.001949998201 0.0002826255804
v 0.002199721057 -0.002153071109 0.0002684664796
v 0.002200000221 0.0007800402818 0.002433469286
v 0.002200000454 -0.004949999973 0.004609211814
v 0.002200000454 -0.004621994682 0.005545394495
v 0.002200000454 -0.00207143859 0.007261660881
v 0.002200000454 0.0001614695357 0.005742538255
v 0.002200000454 0.001631826162 0.003367831232
v 0.002200000687 -0.004950000439 0.0003357269452
v 0.002200000687 -0.004865624476 0.005105202552
v 0.002200000687 -0.004254162777 0.005875441246
v 0.002200000687 -0.001720202621 0.00367844454
v 0.002200000687 -0.00148788013 0.004921263549
v 0.002200000687 -0.0004789100494 0.002316808095
v 0.002200000687 0.0001614694629 0.002257469809
v 0.002200000687 0.001293264795 0.002821041737
v 0.002200000687 0.001293265959 0.005178972147
v 0.002200000687 0.001496189972 0.007562396117
v 0.002200000687 0.001631827443 0.004632174037
v 0.002200000687 0.00207143533 0.007261658087
v 0.002200000687 0.004254164174 0.005875432398
v 0.002200000687 0.004865625873 0.005105194636
v 0.002200000919 -0.001720201224 0.004321566783
v 0.002200000919 -0.001496196492 0.007562399376
v 0.002200000919 -0.0014878785 0.003078748239
v 0.002200000919 -0.001054611057 0.00260347873
v 0.002200000919 -0.001054609427 0.00539653562
v 0.002200000919 -0.0004789099039 0.005683203693
v 0.002200000919 0.0007800425519 0.005566543434
v 0.002200000919 0.001750001335 0.004000004847
v 0.002200000919 0.004621994682 0.00554538751
v 0.002200000919 0.004950000439 0.0003357250243
v 0.002200000919 0.004950000905 0.004609209951
f 37 40 41
f 41 40 43
f 41 43 46
f 46 43 49
f 49 43 47
f 49 47 51
f 50 52 48
f 50 48 45
f 38 42 39
f 39 42 45
f 39 45 44
f 44 45 48
f 51 47 54
f 51 54 57
f 57 54 56
f 57 56 60
f 60 56 63
f 63 56 62
f 63 62 66
f 66 62 72
f 72 62 70
f 72 70 73
f 304 246 300
f 397 367 300
f 300 367 327
f 300 327 304
f 368 403 300
f 300 403 421
f 300 421 397
f 248 303 300
f 300 303 320
f 300 320 368
f 105 111 300
f 300 111 133
f 300 133 248
f 246 135 300
f 300 135 117
f 300 117 105
f 296 431 294
f 294 431 428
f 294 428 293
f 428 423 293
f 293 423 417
f 293 417 291
f 291 417 414
f 291 414 289
f 414 411 289
f 289 411 390
f 289 390 282
f 353 276 360
f 360 276 282
f 360 282 382
f 382 282 390
f 234 121 276
f 72 73 92
f 92 73 83
f 92 83 121
f 121 83 100
f 121 100 276
f 276 100 217
f 51 57 34
f 236 237 217
f 217 237 242
f 353 350 276
f 276 350 348
f 276 348 346
f 51 34 49
f 316 313 276
f 242 254 217
f 217 254 265
f 217 265 276
f 313 290 276
f 276 290 260
f 276 260 234
f 26 37 34
f 57 60 34
f 34 60 63
f 34 63 92
f 92 63 66
f 92 66 72
f 346 343 276
f 276 343 328
f 276 328 316
f 37 41 34
f 34 41 46
f 34 46 49
f 34 32 26
f 26 32 22
f 26 22 14
f 10 20 3
f 3 20 26
f 3 26 6
f 6 26 14
f 296 295 431
f 431 295 430
f 280 277 352
f 288 283 386
f 352 373 280
f 280 373 386
f 280 386 281
f 281 386 283
f 386 387 288
f 288 387 407
f 288 407 415
f 288 415 292
f 292 415 416
f 292 416 422
f 430 295 429
f 429 295 292
f 429 292 427
f 427 292 422
f 74 68 71
f 71 68 61
f 71 61 65
f 65 61 64
f 64 61 55
f 64 55 59
f 59 55 53
f 59 53 58
f 58 53 48
f 58 48 52
f 277 124 233
f 94 84 74
f 268 253 216
f 233 271 277
f 277 271 297
f 277 297 315
f 84 94 99
f 99 94 124
f 99 124 216
f 216 124 277
f 216 277 268
f 253 243 216
f 216 243 241
f 216 241 235
f 59 58 35
f 35 58 52
f 315 317 277
f 277 317 337
f 277 337 345
f 345 347 277
f 277 347 354
f 277 354 352
f 74 71 94
f 94 71 65
f 94 65 35
f 35 65 64
f 35 64 59
f 52 50 35
f 35 50 45
f 35 45 42
f 11 4 7
f 42 38 35
f 35 38 27
f 35 27 29
f 29 27 18
f 29 18 23
f 23 18 11
f 23 11 16
f 16 11 7
f 305 321 306
f 115 139 306
f 306 139 249
f 306 249 305
f 138 116 306
f 306 116 104
f 306 104 115
f 324 301 306
f 306 301 244
f 306 244 138
f 418 404 306
f 306 404 363
f 306 363 324
f 321 366 306
f 306 366 402
f 306 402 418
f 126 129 170
f 170 129 131
f 170 131 164
f 126 170 120
f 120 170 154
f 120 154 108
f 108 154 144
f 108 144 101
f 213 215 217
f 217 215 219
f 217 219 236
f 195 199 89
f 101 144 98
f 98 144 190
f 98 190 89
f 89 190 193
f 89 193 195
f 83 73 70
f 70 76 83
f 83 76 80
f 83 80 100
f 199 213 89
f 89 213 217
f 89 217 85
f 85 217 100
f 85 100 82
f 82 100 80
f 278 296 294
f 272 256 259
f 242 237 238
f 201 195 193
f 215 213 201
f 201 213 199
f 201 199 195
f 215 201 219
f 219 201 222
f 219 222 236
f 173 187 196
f 186 173 211
f 211 173 196
f 211 196 210
f 190 171 203
f 203 171 172
f 203 172 205
f 205 172 186
f 205 186 207
f 207 186 211
f 237 236 238
f 238 236 222
f 238 222 224
f 224 222 201
f 210 231 211
f 211 231 230
f 211 230 207
f 207 230 228
f 207 228 205
f 205 228 226
f 205 226 203
f 278 294 269
f 267 269 266
f 266 269 294
f 266 294 264
f 264 294 293
f 264 293 262
f 282 274 289
f 289 274 262
f 289 262 291
f 291 262 293
f 282 272 274
f 274 272 259
f 274 259 262
f 262 259 226
f 262 226 264
f 264 226 228
f 264 228 266
f 266 228 230
f 266 230 267
f 267 230 231
f 193 190 201
f 201 190 203
f 201 203 224
f 224 203 226
f 224 226 238
f 238 226 259
f 238 259 242
f 242 259 256
f 242 256 254
f 254 256 272
f 254 272 265
f 265 272 282
f 265 282 276
f 279 270 263
f 277 280 268
f 243 253 255
f 255 253 268
f 243 255 241
f 241 255 257
f 241 257 235
f 235 257 221
f 235 221 220
f 198 212 200
f 200 212 214
f 200 214 221
f 221 214 218
f 221 218 220
f 191 192 200
f 200 192 194
f 200 194 198
f 208 150 161
f 273 258 257
f 257 258 223
f 257 223 221
f 221 223 202
f 221 202 200
f 268 280 255
f 255 280 281
f 255 281 257
f 257 281 283
f 257 283 273
f 225 261 263
f 225 263 239
f 239 263 270
f 239 270 240
f 157 150 197
f 197 150 208
f 197 208 209
f 209 208 229
f 209 229 232
f 177 204 206
f 206 204 225
f 206 225 227
f 227 225 239
f 240 232 239
f 239 232 229
f 239 229 227
f 227 229 208
f 227 208 206
f 206 208 161
f 206 161 177
f 283 288 273
f 273 288 275
f 275 288 292
f 275 292 295
f 295 279 275
f 275 279 263
f 275 263 273
f 273 263 261
f 273 261 258
f 258 261 225
f 258 225 223
f 223 225 204
f 223 204 202
f 202 204 177
f 202 177 200
f 200 177 151
f 200 151 191
f 235 220 216
f 216 220 218
f 216 218 214
f 212 198 90
f 90 198 194
f 194 192 90
f 90 192 191
f 90 191 96
f 96 191 102
f 191 188 102
f 102 188 152
f 102 152 109
f 109 152 119
f 152 162 119
f 119 162 185
f 119 185 127
f 185 163 127
f 127 163 179
f 127 179 130
f 130 179 147
f 214 212 216
f 216 212 90
f 216 90 99
f 90 87 99
f 99 87 81
f 99 81 84
f 68 74 75
f 75 74 84
f 75 84 77
f 77 84 81
f 34 33 31
f 34 31 32
f 32 31 21
f 32 21 22
f 22 21 13
f 22 13 14
f 14 13 5
f 14 5 6
f 6 5 2
f 6 2 3
f 3 2 9
f 3 9 10
f 10 9 17
f 10 17 20
f 20 17 25
f 20 25 26
f 37 26 25
f 69 70 62
f 69 62 25
f 62 56 25
f 25 56 54
f 25 54 47
f 47 43 25
f 25 43 40
f 25 40 37
f 70 69 76
f 76 69 78
f 76 78 80
f 80 78 82
f 82 78 86
f 82 86 85
f 85 86 89
f 89 86 95
f 89 95 98
f 98 95 101
f 101 95 107
f 101 107 108
f 153 164 131
f 153 131 125
f 131 129 125
f 125 129 126
f 125 126 107
f 107 126 120
f 107 120 108
f 506 512 143
f 143 159 506
f 506 159 169
f 506 169 511
f 511 169 158
f 511 158 505
f 33 34 91
f 91 34 92
f 440 435 448
f 353 370 350
f 442 417 446
f 446 417 423
f 446 423 449
f 449 423 428
f 449 428 451
f 451 428 431
f 451 431 456
f 390 411 442
f 442 411 414
f 442 414 417
f 442 439 390
f 390 439 424
f 390 424 382
f 382 424 392
f 382 392 360
f 360 392 381
f 353 360 370
f 370 360 381
f 370 381 350
f 350 381 357
f 350 357 348
f 348 357 351
f 348 351 346
f 346 351 343
f 312 299 284
f 313 312 290
f 290 312 284
f 290 284 260
f 260 284 234
f 448 463 478
f 372 359 388
f 388 359 385
f 388 385 426
f 426 385 413
f 426 413 437
f 435 440 406
f 406 440 410
f 406 410 376
f 376 410 378
f 376 378 333
f 333 378 355
f 333 355 335
f 335 331 310
f 477 485 474
f 474 485 491
f 474 491 470
f 470 491 488
f 470 488 468
f 468 488 484
f 468 484 466
f 466 484 481
f 466 481 455
f 455 481 473
f 455 473 443
f 443 473 463
f 443 463 437
f 437 463 448
f 437 448 426
f 426 448 435
f 426 435 388
f 388 435 406
f 388 406 372
f 372 406 376
f 372 376 329
f 329 376 333
f 478 463 482
f 482 463 473
f 482 473 487
f 487 473 481
f 487 481 495
f 495 481 484
f 495 484 498
f 498 484 488
f 498 488 500
f 500 488 491
f 500 491 503
f 503 491 485
f 503 485 502
f 478 462 448
f 448 462 453
f 448 453 440
f 440 453 432
f 440 432 410
f 410 432 393
f 410 393 378
f 378 393 379
f 378 379 355
f 355 379 342
f 355 342 335
f 335 342 341
f 335 341 331
f 456 477 451
f 451 477 474
f 451 474 449
f 449 474 470
f 449 470 446
f 446 470 468
f 446 468 442
f 442 468 466
f 442 466 439
f 439 466 455
f 439 455 424
f 424 455 443
f 424 443 392
f 392 443 437
f 392 437 381
f 381 437 413
f 381 413 357
f 357 413 385
f 357 385 351
f 351 385 359
f 351 359 343
f 343 359 372
f 343 372 328
f 328 372 329
f 328 329 316
f 316 329 333
f 316 333 313
f 313 333 335
f 313 335 312
f 312 335 310
f 312 310 299
f 431 430 457
f 501 502 486
f 486 502 485
f 486 485 476
f 476 485 477
f 476 477 457
f 457 477 456
f 457 456 431
f 389 412 436
f 356 377 375
f 371 375 405
f 407 438 441
f 315 297 311
f 311 297 271
f 271 233 252
f 271 252 311
f 311 252 287
f 311 287 298
f 373 352 369
f 369 352 354
f 369 354 347
f 345 349 347
f 347 349 380
f 347 380 369
f 369 380 391
f 369 391 373
f 373 391 425
f 373 425 386
f 438 407 425
f 425 407 387
f 425 387 386
f 422 416 441
f 441 416 415
f 441 415 407
f 441 445 422
f 422 445 450
f 422 450 427
f 427 450 452
f 427 452 429
f 429 452 457
f 429 457 430
f 412 389 384
f 384 389 374
f 384 374 358
f 375 377 405
f 405 377 394
f 405 394 434
f 434 394 433
f 434 433 447
f 336 356 334
f 334 356 375
f 334 375 330
f 330 375 371
f 314 332 336
f 336 332 338
f 336 338 356
f 356 338 344
f 356 344 377
f 377 344 383
f 377 383 394
f 358 371 384
f 384 371 405
f 384 405 412
f 412 405 434
f 412 434 436
f 436 434 447
f 436 447 444
f 444 447 464
f 444 464 454
f 454 464 472
f 454 472 465
f 465 472 480
f 465 480 467
f 467 480 483
f 467 483 471
f 471 483 489
f 471 489 475
f 475 489 492
f 475 492 476
f 476 492 486
f 501 486 499
f 499 486 492
f 499 492 497
f 497 492 489
f 497 489 496
f 496 489 483
f 496 483 490
f 490 483 480
f 490 480 479
f 479 480 472
f 479 472 469
f 469 472 464
f 469 464 461
f 461 464 447
f 461 447 458
f 458 447 433
f 298 314 311
f 311 314 336
f 311 336 315
f 315 336 334
f 315 334 317
f 317 334 330
f 317 330 337
f 337 330 371
f 337 371 345
f 345 371 358
f 345 358 349
f 349 358 374
f 349 374 380
f 380 374 389
f 380 389 391
f 391 389 436
f 391 436 425
f 425 436 444
f 425 444 438
f 438 444 454
f 438 454 441
f 441 454 465
f 441 465 445
f 445 465 467
f 445 467 450
f 450 467 471
f 450 471 452
f 452 471 475
f 452 475 457
f 457 475 476
f 36 35 29
f 36 29 30
f 30 29 23
f 30 23 24
f 24 23 16
f 24 16 15
f 15 16 7
f 15 7 8
f 8 7 4
f 8 4 1
f 1 4 11
f 1 11 12
f 12 11 18
f 12 18 19
f 19 18 27
f 19 27 28
f 53 55 28
f 28 55 67
f 67 55 61
f 67 61 68
f 27 38 28
f 28 38 39
f 39 44 28
f 28 44 48
f 28 48 53
f 68 75 67
f 67 75 79
f 75 77 79
f 79 77 81
f 79 81 88
f 88 81 87
f 88 87 97
f 97 87 90
f 97 90 96
f 130 147 181
f 130 181 127
f 127 181 128
f 127 128 119
f 119 128 110
f 119 110 109
f 97 96 110
f 110 96 102
f 110 102 109
f 36 93 35
f 35 93 94
f 189 178 522
f 522 532 189
f 189 532 523
f 189 523 168
f 168 523 534
f 168 534 180
f 519 521 408
f 408 521 318
f 319 507 409
f 409 507 525
f 162 152 142
f 145 167 146
f 146 167 165
f 164 183 182
f 157 187 160
f 167 149 165
f 165 149 183
f 165 183 143
f 143 183 164
f 176 147 142
f 142 147 179
f 179 163 142
f 142 163 185
f 142 185 162
f 176 184 147
f 147 184 180
f 147 180 181
f 168 180 189
f 189 180 184
f 189 184 178
f 178 184 140
f 178 140 146
f 146 140 175
f 146 175 145
f 169 159 158
f 158 159 143
f 158 143 153
f 153 143 164
f 182 148 164
f 164 148 174
f 164 174 170
f 170 174 155
f 170 155 154
f 154 155 141
f 154 141 144
f 144 141 190
f 160 187 141
f 141 187 173
f 141 173 186
f 186 172 141
f 141 172 171
f 141 171 190
f 160 166 157
f 157 166 156
f 157 156 150
f 150 156 142
f 150 142 161
f 161 142 152
f 161 152 177
f 177 152 188
f 177 188 151
f 151 188 191
f 165 143 319
f 319 143 512
f 319 512 507
f 125 134 245
f 505 323 364
f 505 364 510
f 323 505 302
f 302 505 158
f 302 158 245
f 245 158 153
f 245 153 125
f 307 251 123
f 364 399 510
f 510 399 419
f 510 419 493
f 493 419 460
f 419 398 460
f 460 398 362
f 460 362 395
f 395 362 325
f 395 325 339
f 339 325 307
f 339 307 286
f 286 307 123
f 134 125 114
f 114 125 107
f 114 107 103
f 103 107 95
f 103 95 113
f 95 86 113
f 113 86 78
f 113 78 132
f 132 78 33
f 132 33 251
f 251 33 91
f 251 91 123
f 78 69 33
f 33 69 25
f 33 25 31
f 31 25 17
f 17 9 2
f 21 31 13
f 13 31 17
f 13 17 5
f 5 17 2
f 340 338 285
f 285 338 332
f 285 332 314
f 314 298 285
f 285 298 287
f 285 287 122
f 122 287 252
f 122 252 233
f 433 394 396
f 396 394 383
f 396 383 340
f 340 383 344
f 340 344 338
f 433 396 458
f 458 396 459
f 458 459 461
f 461 459 469
f 469 459 494
f 469 494 479
f 495 510 487
f 487 510 493
f 487 493 482
f 495 498 510
f 510 498 500
f 510 500 503
f 503 502 510
f 510 502 501
f 510 501 533
f 533 501 499
f 499 497 533
f 533 497 496
f 533 496 494
f 494 496 490
f 494 490 479
f 395 393 432
f 395 432 460
f 432 453 460
f 460 453 462
f 460 462 493
f 493 462 478
f 493 478 482
f 393 395 379
f 379 395 339
f 379 339 342
f 286 284 299
f 299 310 286
f 286 310 331
f 286 331 339
f 339 331 341
f 339 341 342
f 284 286 234
f 234 286 123
f 234 123 121
f 121 123 91
f 121 91 92
f 233 124 122
f 122 124 94
f 122 94 93
f 309 122 250
f 250 122 93
f 250 93 137
f 459 396 322
f 322 396 340
f 322 340 309
f 309 340 285
f 309 285 122
f 12 19 28
f 36 67 79
f 93 36 137
f 137 36 79
f 137 79 112
f 112 79 88
f 112 88 106
f 106 88 97
f 106 97 118
f 118 97 110
f 118 110 136
f 136 110 128
f 136 128 247
f 247 128 181
f 247 181 308
f 308 181 180
f 308 180 326
f 326 180 534
f 322 361 459
f 459 361 400
f 459 400 494
f 494 400 420
f 494 420 533
f 533 420 401
f 533 401 534
f 534 401 365
f 534 365 326
f 67 36 28
f 28 36 30
f 28 30 12
f 8 1 15
f 15 1 12
f 15 12 24
f 24 12 30
f 521 522 318
f 318 522 178
f 318 178 146
f 146 165 319
f 525 519 409
f 409 519 408
f 409 408 319
f 319 408 318
f 319 318 146
f 515 510 516
f 516 510 533
f 516 533 504
f 504 533 517
f 514 506 524
f 524 506 511
f 524 511 513
f 513 511 505
f 513 505 526
f 526 505 510
f 526 510 527
f 527 510 515
f 534 531 533
f 533 531 509
f 533 509 517
f 519 525 529
f 529 525 528
f 528 525 507
f 528 507 514
f 514 507 512
f 514 512 506
f 534 523 531
f 531 523 532
f 531 532 520
f 520 532 522
f 520 522 518
f 518 522 521
f 518 521 530
f 530 521 519
f 530 519 508
f 508 519 529
f 295 296 279
f 279 296 278
f 279 278 270
f 187 157 196
f 196 157 197
f 196 197 210
f 210 197 209
f 210 209 231
f 209 232 231
f 231 232 240
f 231 240 267
f 267 240 270
f 267 270 269
f 269 270 278
f 304 245 246
f 246 245 134
f 246 134 135
f 135 134 114
f 135 114 117
f 117 114 103
f 117 103 105
f 105 103 113
f 105 113 111
f 111 113 132
f 111 132 133
f 133 132 251
f 133 251 248
f 248 251 307
f 248 307 303
f 303 307 325
f 303 325 320
f 320 325 362
f 320 362 368
f 368 362 398
f 368 398 403
f 403 398 419
f 403 419 421
f 421 419 399
f 421 399 397
f 397 399 364
f 397 364 367
f 367 364 323
f 367 323 327
f 327 323 302
f 327 302 304
f 304 302 245
f 308 249 247
f 247 249 139
f 247 139 136
f 136 139 115
f 136 115 118
f 118 115 104
f 118 104 106
f 106 104 116
f 106 116 112
f 112 116 138
f 112 138 137
f 137 138 244
f 137 244 250
f 250 244 301
f 250 301 309
f 309 301 324
f 309 324 322
f 322 324 363
f 322 363 361
f 361 363 404
f 361 404 400
f 400 404 418
f 400 418 420
f 420 418 402
f 420 402 401
f 401 402 366
f 401 366 365
f 365 366 321
f 365 321 326
f 326 321 305
f 326 305 308
f 308 305 249
f 184 531 140
f 140 531 520
f 140 520 175
f 175 520 518
f 175 518 145
f 145 518 530
f 145 530 167
f 167 530 508
f 167 508 149
f 149 508 529
f 149 529 183
f 183 529 528
f 183 528 182
f 182 528 514
f 182 514 148
f 148 514 524
f 148 524 174
f 174 524 513
f 174 513 155
f 155 513 526
f 155 526 141
f 141 526 527
f 141 527 160
f 160 527 515
f 160 515 166
f 166 515 516
f 166 516 156
f 156 516 504
f 156 504 142
f 142 504 517
f 142 517 176
f 176 517 509
f 176 509 184
f 184 509 531
