v -0.01046617236 -0.004949999042 -0.004129086155
v -0.01046617236 -0.002949998947 -0.004129088949
v -0.01046617236 0.004950000905 -0.004129086621
v -0.01046617143 0.00294999918 -0.004129083827
v -0.01045349427 -0.004949999973 -0.004703313578
v -0.01045349427 -0.002949999878 -0.004703316372
v -0.01045349427 0.00294999918 -0.0047033187
v -0.01045349427 0.004950000439 -0.004703314044
v -0.01026210748 0.002950002206 -0.003592190798
v -0.01026210655 -0.004949998576 -0.003592185909
v -0.01026210561 -0.002949998481 -0.003592188703
v -0.01026210561 0.004949999508 -0.003592186607
v -0.01022593305 -0.004949999973 -0.005230682436
v -0.01022593305 0.00294999918 -0.005230687559
v -0.01022593305 0.004950000439 -0.005230682902
v -0.01022593211 -0.002949999645 -0.00523068523
v -0.009871219285 -0.004949999973 -0.003171342192
v -0.009871219285 -0.002949999878 -0.003171345219
v -0.009871219285 0.004949999973 -0.003171342658
v -0.009871218354 0.00294999918 -0.003171347547
v -0.009816854261 -0.004949998111 -0.00563387014
v -0.009816854261 0.002950001974 -0.005633867811
v -0.009816854261 0.004950000439 -0.005633871071
v -0.00981685333 -0.002949998714 -0.005633865483
v -0.00935082417 -0.004949998576 -0.002928265836
v -0.009350823238 -0.002949998947 -0.002928261412
v -0.009350823238 0.004950000905 -0.002928259084
v -0.009350822307 0.002950000111 -0.002928263741
v -0.009286236949 -0.002949999645 -0.005853747483
v -0.009286236949 0.00294999918 -0.005853749346
v -0.009286236949 0.004950000439 -0.005853744689
v -0.009286236018 -0.004949999508 -0.005853744224
v -0.008711882867 -0.004950000439 -0.005858083721
v -0.008711882867 -0.002949998248 -0.005858086515
v -0.008711882867 0.002950001741 -0.005858081393
v -0.008711882867 0.004949999973 -0.005858084187
v -0.008094246499 0.00295000081 -0.002614964731
v -0.008094245568 -0.002949999878 -0.002614962636
v -0.007662612945 0.002998623764 -0.002507347614
v -0.007662612479 -0.0029986226 -0.002507341094
v -0.007503887638 -0.002950000111 -0.002552569611
v -0.007503887638 0.002949998947 -0.002552571939
v -0.007244182751 -0.003145657247 -0.002403016435
v -0.007244182751 0.003145656083 -0.002403018298
v -0.007081950083 0.002950000577 -0.00259390194
v -0.007081949152 -0.002949998248 -0.002593899611
v -0.006867367309 0.003383922856 -0.002309064148
v -0.006867366843 -0.003383920994 -0.002309066011
v -0.006798478309 0.002950002206 -0.002651465358
v -0.006798477843 -0.002949998481 -0.002651463263
v -0.006406818982 -0.00294999918 -0.002760839649
v -0.006406818517 0.00295000081 -0.002760834293
v -0.006188774481 0.003840641817 -0.002139878226
v -0.006184490863 -0.003843025537 -0.002138806041
v -0.005446513649 0.004176063463 -0.001954808831
v -0.005437301937 -0.004179310519 -0.001952514984
v -0.005272058304 -0.00294999918 -0.003043983597
v -0.005272058304 0.002950001741 -0.00304398546
v -0.004741545767 0.002950001042 -0.003109559184
v -0.004733112641 -0.002949999413 -0.0031101692
v -0.004660819657 0.004381046165 -0.001758915023
v -0.004646409769 -0.004383499734 -0.001755319303
v -0.004357624799 0.002950001974 -0.003121746704
v -0.004357624333 -0.002949998947 -0.003121744609
v -0.00408349745 0.002950001275 -0.003109317506
v -0.004072537646 -0.00294999918 -0.003108417848
v -0.0038531092 0.00495000137 -0.001557530486
v -0.003853108967 -0.004949999042 -0.00155753002
v -0.003853108967 0.004450001288 -0.001557527925
v -0.003853108035 -0.004449999891 -0.001557525364
v -0.003625653917 -0.002950000111 -0.003043944947
v -0.003625653684 0.002949998714 -0.003043947276
v -0.00349022611 0.002950001275 -0.003012975678
v -0.003490225878 -0.002949999645 -0.003012973582
v -0.003166012233 -0.004449998494 -0.001307507278
v -0.003166010836 0.004449998494 -0.001307502971
v -0.003073043423 -0.004449999891 -0.001260452438
v -0.003073043423 0.004450001754 -0.001260455116
v -0.00307304319 0.004950000439 -0.001260450343
v -0.003073042957 -0.004949999508 -0.001260449877
v -0.00254585431 -0.004449999426 -0.0009201846551
v -0.002545853611 0.004450001288 -0.0009201798821
v -0.002508658683 0.002950000111 -0.002655796707
v -0.00250865845 -0.002949998947 -0.002655794378
v -0.002385506872 -0.004450000357 -0.0007871135604
v -0.002385506872 0.004450001288 -0.0007871161797
v -0.002385506639 -0.004949999973 -0.000787110941
v -0.002385506406 0.004950000439 -0.0007871114067
v -0.002019699663 -0.004449999891 -0.0004124654806
v -0.002019699663 0.004449999426 -0.0004124683328
v -0.001879808609 -0.002949998947 -0.004578873515
v -0.00187980826 0.00495000137 -0.004578871187
v -0.001879807911 -0.004949999042 -0.004578870721
v -0.001879807445 0.002949999413 -0.004578868393
v -0.0018296052 0.00445000222 -0.0001644384465
v -0.001829604851 -0.004949999042 -0.0001644332224
v -0.001829604735 0.004950000905 -0.000164433688
v -0.001829604385 -0.004449999426 -0.0001644358708
v -0.001622718642 0.002949999878 -0.002102476545
v -0.00162271841 -0.00294999918 -0.002102474216
v -0.001606240985 0.004445161205 0.0001912128791
v -0.001606240752 -0.004445159808 0.0001912168664
v -0.001500000013 -0.004949999042 2.082788164e-09
v -0.001499999897 0.004949999042 1.409269701e-09
v -0.001499999664 0.006999999285 2.729726001e-09
v -0.001499999315 -0.00699999975 8.127592821e-09
v -0.001402524766 0.004950002301 0.0006031724624
v -0.001402524533 -0.004428876098 0.000603173452
v -0.001402524416 0.004428879358 0.0006031793309
v -0.001402523951 -0.004949999508 0.0006031726953
v -0.001385819633 -0.006999998819 0.0005740312045
v -0.0013858194 -0.004949999973 -0.0005740177585
v -0.0013858194 0.007000001147 0.0005740334163
v -0.001385819283 -0.00699999975 -0.0005740190973
v -0.001385819283 0.00495000137 0.0005740320194
v -0.001385818934 -0.004949999042 0.000574032485
v -0.001385818934 0.004949998576 -0.000574018457
v -0.001385818585 0.006999998819 -0.0005740171764
v -0.001301207347 0.004413643852 0.0008611863595
v -0.001301207114 -0.004413640592 0.0008611858357
v -0.001288665342 -0.004949999042 -0.00443039136
v -0.001288665342 0.004950000905 -0.004430391826
v -0.001288665226 -0.002949998947 -0.004430394154
v -0.001288664527 0.00294999918 -0.004430389497
v -0.001139045809 -0.004949999508 0.001441152068
v -0.001139045809 -0.004367108457 0.001441149972
v -0.001139045809 0.004367109388 0.001441153698
v -0.001139045809 0.004949998576 0.001441151369
v -0.001112058409 -0.00435323175 0.001584355952
v -0.001065625926 0.004314159509 0.001947399462
v -0.001065590768 -0.004314109683 0.001947822399
v -0.001060660346 0.004950000905 0.001060666749
v -0.001060659997 -0.004949999508 -0.001060653245
v -0.001060659997 0.007000001147 0.00106066803
v -0.001060659881 -0.00699999975 -0.001060654526
v -0.001060659881 -0.004949999042 0.001060667215
v -0.001060659764 -0.006999998819 0.001060665818
v -0.001060659648 0.006999998819 -0.001060652547
v -0.001060659532 0.004949998576 -0.001060653944
v -0.001050000428 0.001631828374 0.003367831465
v -0.001050000312 -0.001949998084 2.192453223e-07
v -0.001050000312 0.001631828607 0.004632176366
v -0.001050000312 0.001950000646 2.19832998e-07
v -0.001050000312 0.00276040053 -0.0001955669723
v -0.001050000312 0.004865626339 0.005105193704
v -0.001050000195 0.004950000905 0.004609209485
v -0.001050000079 -0.004621992819 0.005545395892
v -0.001050000079 -0.003081541974 -0.0004062332155
v -0.001050000079 -0.002500234405 0.006989335176
v -0.001050000079 -0.002097827382 -5.940381016e-06
v -0.001050000079 -0.001054609544 0.0026034771
v -0.001050000079 0.0001614703069 0.005742539652
v -0.001050000079 0.0001614709035 0.00225746748
v -0.001050000079 0.003085290315 -0.0004094234901
v -0.001050000079 0.004148776177 0.0007764246548
v -0.001050000079 0.004254165571 0.005875431001
v -0.001050000079 0.00429078564 0.001576654613
v -0.001049999963 -0.004949999508 0.002315048594
v -0.001049999963 -0.004143003374 0.0007559580845
v -0.001049999963 0.0007800431922 0.005566538312
v -0.001049999963 0.0007800433086 0.002433468821
v -0.001049999963 0.001293265843 0.002821036382
v -0.001049999963 0.003802963067 -0.0001304087928
v -0.001049999846 -0.004865624476 0.005105202086
v -0.001049999846 -0.004288346507 0.001544559142
v -0.001049999846 -0.003811206203 -0.0001129842494
v -0.001049999846 -0.00148788013 0.003078751499
v -0.001049999846 -0.0004789097875 0.005683197174
v -0.001049999846 0.001293266425 0.005178974476
v -0.001049999846 0.001749999938 0.004000002984
v -0.001049999846 0.003950394224 0.0002027954179
v -0.001049999846 0.004269185942 0.002315047197
v -0.001049999846 0.004300145898 0.001850439468
v -0.001049999846 0.004621993285 0.005545385648
v -0.00104999973 -0.004949999973 0.004609217402
v -0.00104999973 -0.002896474209 -0.000272131525
v -0.00104999973 -0.001720202737 0.003678446868
v -0.00104999973 -0.0004789098748 0.002316809259
v -0.00104999973 0.004219052847 0.001064767246
v -0.001049999613 -0.004269186407 0.002315049525
v -0.001049999613 -0.004254162312 0.005875436123
v -0.001049999613 0.003434683429 -0.0007949078572
v -0.001049999497 -0.002408791333 -6.006363037e-05
v -0.001049999497 -0.001720202505 0.004321569111
v -0.001049999497 -0.001487880014 0.004921262618
v -0.001049999497 0.00247017853 -7.774501864e-05
v -0.001049999497 0.004949999042 0.002315047896
v -0.00104999938 -0.002639865503 -0.000139110678
v -0.00104999938 -0.001054611173 0.00539653888
v -0.001049999148 0.00250022742 0.00698933797
v -0.001049998566 0.003442481393 -0.0008065693546
v -0.001049998333 -0.003442480462 -0.0008065662696
v -0.001032201573 0.003337699221 -0.0009582366911
v -0.001032035681 -0.003337931586 -0.000957634591
v -0.001022436074 0.003310139058 -0.000990814995
v -0.001021716278 -0.003309139749 -0.0009915112751
v -0.0009915637784 -0.001949998667 -0.0002999153221
v -0.0009915637784 0.00195000018 -0.00029991474
v -0.0009855463868 0.003232714022 -0.001069563325
v -0.000984977698 -0.003232510295 -0.001069161459
v -0.000984590617 0.003180315485 -0.000987698324
v -0.0009840078419 -0.003180336673 -0.0009876827244
v -0.0009825283196 0.00299351546 -0.0007610440953
v -0.0009818930412 -0.00299353851 -0.0007610170869
v -0.0009808123577 0.00276822038 -0.0005768304109
v -0.000980130164 -0.002768243663 -0.0005768006667
v -0.0009795222431 0.002512321109 -0.0004415997537
v -0.0009788037278 -0.002512338338 -0.0004415631702
v -0.0009787104791 0.002236102708 -0.0003583836078
v -0.0009786013979 0.001949998783 -0.0003301396209
v -0.0009784296853 -0.001949999947 -0.0003305207647
v -0.0009779685643 -0.002236113418 -0.0003583460348
v -0.0009624526137 0.003194484394 -0.001102058566
v -0.0009604869992 -0.003192071104 -0.001103458344
v -0.0009337909287 0.003152948804 -0.001132787904
v -0.000932203955 -0.00315113808 -0.00113370351
v -0.0008710707771 0.002950001508 -0.001377170556
v -0.0008710705442 -0.002949999413 -0.001377168461
v -0.0008315271116 0.003034211462 -0.001194834942
v -0.0008306802483 -0.003033299698 -0.001195236924
v -0.0007939333445 0.002997740405 -0.001205966109
v -0.0007939070347 -0.002997720381 -0.00120596576
v -0.0007915325114 0.002953482792 -0.001137346262
v -0.0007914995658 -0.002953466261 -0.001137359883
v -0.0007837486919 0.002798057627 -0.000953616749
v -0.0007837082376 -0.002798050409 -0.0009536402649
v -0.0007772902027 0.002612925135 -0.0008052983903
v -0.000777243753 -0.002612927463 -0.0008053407073
v -0.0007724467432 0.002404599218 -0.0006972153788
v -0.0007723949384 -0.002404606435 -0.0006972674164
v -0.0007694069645 0.002180967713 -0.0006311753532
v -0.0007693517255 -0.002180973999 -0.0006312305341
v -0.0007674319786 0.001950000529 -0.0006099151215
v -0.0007674315129 -0.001949999132 -0.0006099083694
v -0.0007424473297 -0.002950000111 -0.004221298266
v -0.0007424471551 0.002949998947 -0.004221300595
v -0.0007401094772 0.002949998714 -0.00121445593
v -0.0007400201284 -0.002949998714 -0.001214339631
v -0.0006289806333 0.002366306027 -0.0007880181074
v -0.0006232126616 0.001949999249 -0.0007073900779
v -0.0006162673235 0.00294999918 -0.001389930956
v -0.0006090058596 0.002950001275 -0.001399507513
v -0.0005740253837 0.007000001147 0.001385821379
v -0.0005740253255 -0.004949999042 -0.001385814627
v -0.0005740252091 -0.006999998819 -0.001385815907
v -0.0005740249762 0.00699999975 -0.001385813928
v -0.0005740248598 -0.004949999973 0.001385827898
v -0.0005740248598 0.004949999508 -0.001385815209
v -0.0005740247434 0.004950000439 0.001385827432
v -0.0005740246852 -0.00699999975 0.001385826501
v -0.0005536266835 0.003016687464 -0.004131339956
v -0.0005286285887 0.002950000577 -0.001501761726
v -0.0005212499527 0.002915238962 -0.001413707039
v -0.0005212370306 -0.002914794954 -0.001413864433
v -0.000504231255 0.002812245395 -0.001230109599
v -0.0005041983095 -0.002811852843 -0.001230395748
v -0.0004891484277 0.00267900317 -0.001070719096
v -0.0004890952841 -0.002678681398 -0.001071144943
v -0.0004794103734 -0.002949998481 -0.004087390378
v -0.0004766975471 0.002520062495 -0.0009419016424
v -0.0004766253987 -0.0025198285 -0.0009424597374
v -0.0004674064985 0.002341011772 -0.0008479132666
v -0.0004673190124 -0.002340869047 -0.0008485668804
v -0.0004669619666 -0.002949998714 -0.001578246825
v -0.0004615033686 -0.002148626605 -0.0007911257562
v -0.0004595888604 -0.001949999249 -0.0007718358538
v -0.0004291484947 0.002949998947 -0.001620965428
v -0.0004249915655 0.001950000762 -0.0007804032066
v -0.0004249911872 -0.001949999947 -0.0007804040215
v -0.0004083712411 -0.004949998576 -0.004055188969
v -0.0004083711246 0.004950001836 -0.004055189434
v -0.0004078657948 0.003071081592 -0.004055125639
v -0.0004077439953 -0.003071406158 -0.004054378718
v -0.0003791720083 0.002950000111 -0.004027947318
v -0.0003614651214 -0.002878060564 -0.001428533928
v -0.0003221109801 0.002654988784 -0.001094285864
v -0.0003221093793 -0.002654907061 -0.001094483654
v -0.0002956535609 0.002329644514 -0.0008749590488
v -0.0002499999537 -0.001949999481 -0.0007997070206
v -0.0002499999537 0.002950000577 -0.001827544067
v -0.0002499997208 -0.002950000344 -0.001827541972
v -0.0002499986149 0.001950000762 -0.0007995786145
v -0.0001979781955 0.002875207923 -0.001438118517
v -0.0001969590812 0.002872180194 -0.001430486562
v -0.0001966511336 -0.002871251432 -0.001428185264
v -0.0001729343057 0.002779964125 -0.001250642585
v -0.0001518085483 -0.002656697296 -0.001092500752
v -0.0001516362972 0.002655471675 -0.001091213548
v -0.0001477439801 -0.002950000344 -0.003867390798
v -0.0001345287019 -0.002506047022 -0.0009631483117
v -0.0001216095334 0.002330868039 -0.000866431219
v -0.0001211297567 -0.002322342712 -0.0008628436481
v -0.0001138025109 -0.00214520609 -0.0008079943364
v -0.0001110814701 0.001950000995 -0.0007876235759
v -0.000111081099 -0.001949999598 -0.0007876243908
v -5.426372809e-05 0.002949998714 -0.003793649841
v -2.922827844e-05 0.003220936516 -0.003826494794
v -2.838438377e-05 -0.003221908817 -0.003824481741
v -3.834257354e-10 0.007000001613 1.980846598e-09
v -2.045908718e-10 0.007000000682 -0.0014999985
v 9.433239583e-11 -0.006999998819 -0.001499993028
v 2.42213333e-10 0.006999999285 0.001500001992
v 3.177345051e-10 -0.006999999285 7.149314918e-09
v 3.65013436e-10 -0.004950000439 -0.00149999198
v 4.095806747e-10 -0.004949999973 0.001500008744
v 4.498835195e-10 0.004949998576 0.001500008046
v 4.565467728e-10 0.004949999508 -0.001499992446
v 5.411365797e-10 -0.00699999975 0.001500007347
v 9.680648873e-06 -0.003237402067 -0.003798863851
v 2.255629988e-05 0.003012657864 -0.003753171768
v 2.356548066e-05 -0.003013615031 -0.003751210868
v 0.000134857095 -0.002949999878 -0.003620297182
v 0.0001616831869 0.003298906377 -0.003692704486
v 0.0002031182667 0.002949998248 -0.003550843103
v 0.0003827332694 -0.003388960613 -0.003520465689
v 0.0003829934576 0.003389077494 -0.003520115744
v 0.0003843233571 0.004950001836 -0.003519150661
v 0.0003843236482 -0.004950000439 -0.003519150428
v 0.000387314707 -0.002949998947 -0.003333171364
v 0.0004471798311 0.002949998714 -0.003251090646
v 0.0004944148823 0.002071434865 0.007261659484
v 0.0004944367683 -0.002071436262 0.007261661813
v 0.000574024627 0.007000002544 -0.001385817421
v 0.0005740251509 -0.004949999042 0.001385824173
v 0.0005740252091 0.004949999508 0.001385823474
v 0.0005740253255 -0.006999998819 0.001385822776
v 0.0005740253255 0.004950001836 -0.001385811367
v 0.0005740255583 0.00699999975 0.001385824871
v 0.0005740256165 -0.004950000439 -0.001385811134
v 0.0005740257329 -0.007000000216 -0.001385812415
v 0.0005916475202 -0.00294999918 -0.003023476107
v 0.0005944131408 -0.002958958037 -0.003035297152
v 0.0005950894556 0.002959725214 -0.003033601679
v 0.0006379929255 -0.003113357117 -0.003158171661
v 0.000638692989 0.003114158288 -0.00315644755
v 0.000645268301 -0.003291246714 -0.003253908595
v 0.0006459935685 0.003292057198 -0.003252151888
v 0.0006461573648 0.002950001741 -0.002920305822
v 0.0006944424822 -0.003511213465 -0.003241513623
v 0.0007486915565 0.003532317467 -0.003186496673
v 0.0007515221369 -0.002949999413 -0.002685792046
v 0.0007934145397 0.00295000081 -0.00256880559
v 0.0008579798741 -0.002949998016 -0.002340242267
v 0.0008853079635 0.002950001741 -0.002206654521
v 0.0009034179384 -0.002949998248 -0.002084779553
v 0.0009134914144 0.002973484108 -0.00230450253
v 0.0009139626054 -0.002949999878 -0.001981611596
v 0.0009142129566 -0.002974084346 -0.002302707871
v 0.0009158316534 0.00294984458 -0.001621976378
v 0.000915831828 -0.002950354479 -0.001621973817
v 0.0009212289588 0.002949998947 -0.001840317738
v 0.0009277491481 -0.003408949589 -0.002963291481
v 0.0009285073029 0.003409645753 -0.002962106373
v 0.001011497458 -0.002978872741 -0.001969313016
v 0.001021283679 0.003067398444 -0.00240979623
v 0.001021992881 -0.003068040824 -0.002407856751
v 0.001049359329 -0.002942756284 -0.001476440113
v 0.001058724243 -0.003639937146 -0.002843082184
v 0.001059059869 0.003639957635 -0.002843473339
v 0.001060382114 -0.004949999508 -0.002841927577
v 0.001060382347 0.004950001836 -0.002841920359
v 0.001060659881 0.004950001836 -0.001060658018
v 0.001060659997 0.007000001613 -0.001060656738
v 0.001060660114 0.004950000439 0.001060662093
v 0.00106066023 -0.004949999973 0.001060662558
v 0.00106066023 -0.004949998576 -0.001060657552
v 0.00106066023 0.007000000216 0.00106066349
v 0.001060660463 -0.006999999285 -0.001060651499
v 0.001060660463 -0.006999998819 0.001060668845
v 0.001076845103 0.00296646636 -0.001667927718
v 0.001077844994 -0.002967206296 -0.001667065779
v 0.001105675125 0.003191241296 -0.002504869364
v 0.001106352545 -0.003191914642 -0.002502807882
v 0.001127529773 0.002929624636 -0.001380712143
v 0.00113385811 0.00304598338 -0.002058708575
v 0.001162408153 0.003339156276 -0.002585009905
v 0.001163031207 -0.003339869669 -0.002582826419
v 0.001188770868 0.003503739368 -0.002646344481
v 0.001189323491 -0.003504524473 -0.002644057153
v 0.001191767165 -0.003679690184 -0.002673286712
v 0.001209256705 0.003012968926 -0.00173496874
v 0.00121031038 -0.003013817593 -0.001733894809
v 0.001217267243 -0.002902367385 -0.001259170822
v 0.001222496736 0.003687184071 -0.002633856609
v 0.001241601072 0.003143905196 -0.002138496609
v 0.001243313425 -0.003145414172 -0.002134946175
v 0.001247591688 0.002889175899 -0.001214745338
v 0.001285984181 0.002868227195 -0.001154539757
v 0.001330009312 -0.003268695669 -0.002204386052
v 0.00133127335 0.003087450983 -0.001796185155
v 0.001344942604 -0.002824124414 -0.001053124317
v 0.001381253009 0.003012970556 -0.001489203773
v 0.001381298876 -0.003013027599 -0.001490562689
v 0.00138581905 0.00495000137 -0.0005740233464
v 0.001385819167 -0.004949999973 0.0005740271881
v 0.001385819167 -0.004949998576 -0.000574022939
v 0.001385819167 0.007000001613 -0.0005740220658
v 0.001385819283 0.004950000439 0.0005740267225
v 0.0013858194 0.007000000682 0.000574028003
v 0.001385819516 -0.006999998819 0.0005740334163
v 0.001385819865 -0.006999999285 -0.0005740168854
v 0.001390230958 0.00341048697 -0.002264499897
v 0.00139182061 -0.003412136808 -0.002260634676
v 0.001393589191 0.00277121691 -0.0009583140491
v 0.00141583744 0.001790141105 0.007424127776
v 0.001415845589 -0.001790145761 0.00742413383
v 0.001426154166 -0.003569514258 -0.00230135629
v 0.001432436169 -0.00271104346 -0.0008721821359
v 0.001438437728 0.003186937887 -0.001849370776
v 0.001439537737 -0.003187911119 -0.001848076936
v 0.00145562226 -0.00266147824 -0.0008132536896
v 0.001457081526 0.002657429548 -0.0008088520262
v 0.001460832427 0.002647823188 -0.0007985624252
v 0.001488684095 -0.002557925181 -0.0007147236611
v 0.001500000246 -0.004950000439 7.283073256e-09
v 0.001500000362 -0.007000000216 5.941639181e-09
v 0.001500000362 0.004949999973 6.817975073e-09
v 0.001500000362 0.00699999975 8.148920649e-09
v 0.001504946966 0.002479871968 -0.0006569412071
v 0.001519637415 -0.002376834396 -0.0005972320796
v 0.001521224738 -0.002970637055 -0.001244677813
v 0.001521335798 0.00297073368 -0.00124327559
v 0.001527694869 -0.00330865616 -0.00189108809
v 0.001528279856 0.002282610163 -0.0005563716986
v 0.001534608309 -0.002170408145 -0.0005224192282
v 0.001537580742 0.002069609938 -0.0005042088451
v 0.001538681565 -0.00194999855 -0.0004967291607
v 0.001538681681 0.001950000296 -0.0004967285786
v 0.001574114314 -0.003749443451 -0.002084639389
v 0.001583931036 0.003748528427 -0.002067465335
v 0.001592406305 0.003445192706 -0.001923660981
v 0.00159342261 -0.003446205985 -0.001922296826
v 0.001595043694 0.004950000905 -0.002048305934
v 0.001595043926 -0.004949999508 -0.002048305469
v 0.001607296057 0.003188072471 -0.001550443587
v 0.001607352169 -0.003188125789 -0.001552013098
v 0.001628733939 0.002884388436 -0.001009602332
v 0.001629020669 -0.002884549554 -0.001009593834
v 0.001634285902 -0.003595340764 -0.001940625138
v 0.001704305294 0.002754258923 -0.0008019626257
v 0.00170469936 -0.002754454501 -0.0008014052291
v 0.001743811881 -0.003139366861 -0.001253081951
v 0.001743922592 0.003139499109 -0.001251454232
v 0.0017524102 0.002585910959 -0.0006309854798
v 0.001752503449 -0.002585850889 -0.0006310531753
v 0.001764254179 0.003433929291 -0.001571260276
v 0.00176428142 -0.003433896927 -0.001573021873
v 0.001780173159 -0.002389053116 -0.0005051919143
v 0.001780297258 0.002389267553 -0.0005046551814
v 0.001794067211 -0.00217405241 -0.0004285596369
v 0.001794106443 0.002174150432 -0.0004283023882
v 0.001845190767 -0.003712250851 -0.001515957527
v 0.001847944921 0.003039155854 -0.0009672382148
v 0.001848241198 -0.003039325587 -0.0009672043961
v 0.001860231627 0.001950000413 -0.0003630703432
v 0.001860232092 -0.00195000018 -0.0003630711581
v 0.00186559069 0.003703640308 -0.001461815205
v 0.00190127932 -0.00336772413 -0.001219825586
v 0.001901417621 0.003367944621 -0.001218029298
v 0.001920661773 0.002887551673 -0.0007143132389
v 0.001921067946 -0.00288776448 -0.0007136319182
v 0.001966639888 0.002691284521 -0.0005056509399
v 0.001966733718 -0.002691202099 -0.0005057103699
v 0.00196872442 0.004950000439 -0.001167363138
v 0.001968724653 -0.004949999508 -0.001167362672
v 0.001969522797 0.003633110551 -0.001163200592
v 0.001969776349 -0.003632381558 -0.001163888606
v 0.001992998412 -0.002461762168 -0.0003518147278
v 0.001993137412 0.00246201735 -0.0003511923715
v 0.002003770554 0.003244354157 -0.0008809186402
v 0.002004007343 -0.003244495252 -0.000880894775
v 0.002006170107 -0.002211141633 -0.0002579813008
v 0.002006236697 0.002211259212 -0.0002576773113
v 0.002009833464 0.001950000413 -0.0002263878705
v 0.002009866061 -0.001950000413 -0.0002263459319
v 0.002029561205 -0.003562538652 -0.0009577335441
v 0.002041298663 0.003544935025 -0.0009123186464
v 0.002073023468 0.003062906908 -0.0005790331052
v 0.002073354786 -0.00306311599 -0.0005782968947
v 0.002078347141 -0.003476522397 -0.0007605733117
v 0.002114565112 0.002830221085 -0.0003281139652
v 0.002114598872 -0.002830101876 -0.0003281808167
v 0.002120326739 0.001950001344 -5.642599717e-05
v 0.002120326972 -0.001949999365 -5.64268048e-05
v 0.002133213216 -0.003312402638 -0.0004812594852
v 0.002136644209 -0.002558296546 -0.0001417363965
v 0.002136823488 0.002558602253 -0.0001410456462
v 0.002142894547 0.003267030232 -0.0004198501119
v 0.002144598635 0.003258478828 -0.0004085900146
v 0.002146785613 -0.002260654466 -2.729238986e-05
v 0.002146878978 0.002260794397 -2.695232797e-05
v 0.002167736646 -0.004949999042 -0.0002313662844
v 0.002167737344 0.004949999508 -0.0002313669829
v 0.002169718733 -0.003090271726 -0.0002150059008
v 0.002186284633 0.002882412635 -3.433545498e-05
v 0.002194515662 -0.002665251028 0.0001019373813
v 0.002194693079 0.002667874796 0.0001015105736
v 0.002198656555 0.002434100723 0.0002022057452
v 0.002199689858 -0.002184104873 0.0002638090227
v 0.002199717797 -0.001949998434 0.0002826238342
v 0.00219971803 0.001950000413 0.0002826244163
v 0.002199999755 -0.002071436495 0.00726165995
v 0.002199999755 -0.001496196375 0.007562396117
v 0.002199999755 -0.001054609427 0.002603474772
v 0.002199999755 0.0001614704815 0.005742537323
v 0.002199999755 0.0007800434832 0.002433466492
v 0.002199999755 0.001496190787 0.007562398445
v 0.002199999755 0.004621995147 0.005545383785
v 0.002199999988 0.001293266541 0.005178972147
v 0.002199999988 0.001750001102 0.004000008106
v 0.002199999988 0.002071435796 0.007261656225
v 0.002199999988 0.004254164174 0.005875428207
v 0.002199999988 0.004950000905 0.0003357230453
v 0.002200000221 -0.004949999973 0.004609215073
v 0.002200000221 -0.004949999508 0.0003357235109
v 0.002200000221 -0.004621992353 0.005545393564
v 0.002200000221 -0.004254162777 0.005875441246
v 0.002200000221 -0.001720202505 0.00367844454
v 0.002200000221 -0.001720202388 0.004321566783
v 0.002200000221 -0.001487879781 0.00492126029
v 0.002200000221 0.0001614702487 0.002257472603
v 0.002200000221 0.004949999508 0.004609207157
v 0.002200000454 -0.004865624942 0.005105207209
v 0.002200000454 -0.001487879897 0.003078749171
v 0.002200000454 -0.001054610941 0.005396536551
v 0.002200000454 -0.0004789104569 0.005683202296
v 0.002200000454 0.0007800425519 0.005566543434
v 0.002200000454 0.001631826162 0.004632181022
v 0.002200000687 -0.0004789105151 0.002316814149
v 0.002200000687 0.001293265261 0.002821041504
v 0.002200000687 0.001631826046 0.003367836121
v 0.002200000687 0.004865624011 0.005105198827
f 38 40 41
f 41 40 43
f 41 43 46
f 46 43 50
f 50 43 48
f 50 48 51
f 49 52 47
f 49 47 45
f 37 42 39
f 39 42 45
f 39 45 44
f 44 45 47
f 51 48 54
f 51 54 57
f 57 54 56
f 57 56 60
f 60 56 64
f 64 56 62
f 64 62 66
f 66 62 71
f 71 62 70
f 71 70 74
f 308 250 303
f 400 369 303
f 303 369 326
f 303 326 308
f 368 401 303
f 303 401 416
f 303 416 400
f 245 301 303
f 303 301 330
f 303 330 368
f 106 114 303
f 303 114 135
f 303 135 245
f 250 137 303
f 303 137 111
f 303 111 106
f 295 427 293
f 293 427 425
f 293 425 292
f 425 420 292
f 292 420 414
f 292 414 290
f 290 414 411
f 290 411 287
f 411 408 287
f 287 408 391
f 287 391 285
f 350 281 357
f 357 281 285
f 357 285 383
f 383 285 391
f 235 123 281
f 71 74 91
f 91 74 84
f 91 84 123
f 123 84 100
f 123 100 281
f 281 100 218
f 281 218 264
f 264 218 238
f 51 57 34
f 350 347 281
f 281 347 345
f 281 345 343
f 51 34 50
f 319 312 281
f 312 289 281
f 281 289 259
f 281 259 235
f 26 38 34
f 57 60 34
f 34 60 64
f 34 64 91
f 91 64 66
f 91 66 71
f 343 341 281
f 281 341 331
f 281 331 319
f 38 41 34
f 34 41 46
f 34 46 50
f 34 29 26
f 26 29 24
f 26 24 16
f 11 18 2
f 2 18 26
f 2 26 6
f 6 26 16
f 295 294 427
f 427 294 428
f 283 280 349
f 288 286 387
f 349 374 283
f 283 374 387
f 283 387 284
f 284 387 286
f 387 388 288
f 288 388 404
f 288 404 412
f 288 412 291
f 291 412 413
f 291 413 419
f 428 294 426
f 426 294 291
f 426 291 424
f 424 291 419
f 73 69 72
f 72 69 61
f 72 61 65
f 65 61 63
f 63 61 55
f 63 55 59
f 59 55 53
f 59 53 58
f 58 53 47
f 58 47 52
f 280 124 236
f 94 83 73
f 267 252 217
f 236 274 280
f 280 274 296
f 280 296 314
f 83 94 99
f 99 94 124
f 99 124 217
f 217 124 280
f 217 280 267
f 252 242 217
f 217 242 241
f 217 241 237
f 59 58 35
f 35 58 52
f 314 320 280
f 280 320 338
f 280 338 342
f 342 344 280
f 280 344 351
f 280 351 349
f 73 72 94
f 94 72 65
f 94 65 35
f 35 65 63
f 35 63 59
f 52 49 35
f 35 49 45
f 35 45 42
f 42 37 35
f 35 37 28
f 35 28 30
f 30 28 20
f 30 20 9
f 14 22 7
f 7 22 30
f 7 30 4
f 4 30 9
f 302 328 299
f 113 134 299
f 299 134 243
f 299 243 302
f 138 118 299
f 299 118 105
f 299 105 113
f 323 300 299
f 299 300 246
f 299 246 138
f 418 397 299
f 299 397 363
f 299 363 323
f 328 367 299
f 299 367 399
f 299 399 418
f 126 129 165
f 165 129 131
f 165 131 180
f 126 165 120
f 120 165 159
f 120 159 108
f 108 159 166
f 108 166 102
f 214 216 218
f 196 200 89
f 102 166 98
f 98 166 192
f 98 192 89
f 89 192 194
f 89 194 196
f 216 220 218
f 218 220 222
f 218 222 238
f 84 74 70
f 70 75 84
f 84 75 77
f 84 77 100
f 200 214 89
f 89 214 218
f 89 218 85
f 85 218 100
f 85 100 81
f 81 100 77
f 277 258 261
f 279 295 293
f 197 211 212
f 238 222 224
f 202 200 196
f 196 194 202
f 202 194 192
f 202 192 204
f 220 216 202
f 202 216 214
f 202 214 200
f 285 281 264
f 192 148 204
f 204 148 176
f 204 176 206
f 206 176 188
f 206 188 208
f 208 188 183
f 208 183 212
f 212 183 150
f 212 150 197
f 197 150 141
f 258 277 256
f 256 277 275
f 256 275 254
f 222 220 224
f 224 220 202
f 224 202 226
f 226 202 204
f 226 204 228
f 228 204 206
f 228 206 230
f 230 206 208
f 230 208 232
f 232 208 212
f 232 212 234
f 234 212 211
f 279 293 269
f 266 269 265
f 265 269 293
f 265 293 263
f 263 293 292
f 263 292 261
f 292 290 261
f 261 290 287
f 261 287 277
f 277 287 285
f 277 285 275
f 275 285 264
f 275 264 254
f 254 264 238
f 254 238 256
f 256 238 224
f 256 224 258
f 258 224 226
f 258 226 261
f 261 226 228
f 261 228 263
f 263 228 230
f 263 230 265
f 265 230 232
f 265 232 266
f 266 232 234
f 282 268 262
f 280 283 267
f 242 252 253
f 253 252 267
f 242 253 241
f 241 253 255
f 241 255 237
f 237 255 223
f 237 223 221
f 199 213 201
f 201 213 215
f 201 215 223
f 223 215 219
f 223 219 221
f 191 193 201
f 201 193 195
f 201 195 199
f 209 186 144
f 276 257 255
f 255 257 225
f 255 225 223
f 223 225 203
f 223 203 201
f 267 283 253
f 253 283 284
f 253 284 255
f 255 284 286
f 255 286 276
f 227 260 262
f 227 262 239
f 239 262 268
f 239 268 240
f 143 186 198
f 198 186 209
f 198 209 210
f 210 209 231
f 210 231 233
f 154 205 207
f 207 205 227
f 207 227 229
f 229 227 239
f 240 233 239
f 239 233 231
f 239 231 229
f 229 231 209
f 229 209 207
f 207 209 144
f 207 144 154
f 286 288 276
f 276 288 278
f 278 288 291
f 278 291 294
f 294 282 278
f 278 282 262
f 278 262 276
f 276 262 260
f 276 260 257
f 257 260 227
f 257 227 225
f 225 227 205
f 225 205 203
f 203 205 154
f 203 154 201
f 201 154 182
f 201 182 191
f 237 221 217
f 217 221 219
f 217 219 215
f 213 199 90
f 90 199 195
f 195 193 90
f 90 193 191
f 90 191 95
f 95 191 101
f 191 163 101
f 101 163 171
f 101 171 109
f 109 171 119
f 171 155 119
f 119 155 179
f 119 179 127
f 179 157 127
f 127 157 173
f 127 173 130
f 130 173 172
f 215 213 217
f 217 213 90
f 217 90 99
f 90 86 99
f 99 86 82
f 99 82 83
f 69 73 76
f 76 73 83
f 76 83 78
f 78 83 82
f 34 33 32
f 34 32 29
f 29 32 21
f 29 21 24
f 24 21 13
f 24 13 16
f 16 13 5
f 16 5 6
f 6 5 1
f 6 1 2
f 2 1 10
f 2 10 11
f 11 10 17
f 11 17 18
f 18 17 25
f 18 25 26
f 38 26 25
f 68 70 62
f 68 62 25
f 62 56 25
f 25 56 54
f 25 54 48
f 48 43 25
f 25 43 40
f 25 40 38
f 70 68 75
f 75 68 80
f 75 80 77
f 77 80 81
f 81 80 87
f 81 87 85
f 85 87 89
f 89 87 96
f 89 96 98
f 98 96 102
f 102 96 110
f 102 110 108
f 158 180 131
f 158 131 125
f 131 129 125
f 125 129 126
f 125 126 110
f 110 126 120
f 110 120 108
f 516 517 181
f 181 147 516
f 516 147 164
f 516 164 523
f 523 164 175
f 523 175 514
f 33 34 93
f 93 34 91
f 309 298 311
f 439 432 447
f 350 371 347
f 441 414 445
f 445 414 420
f 445 420 448
f 448 420 425
f 448 425 450
f 450 425 427
f 450 427 456
f 391 408 441
f 441 408 411
f 441 411 414
f 441 438 391
f 391 438 421
f 391 421 383
f 383 421 393
f 383 393 357
f 357 393 382
f 350 357 371
f 371 357 382
f 371 382 347
f 347 382 354
f 347 354 345
f 345 354 348
f 345 348 343
f 343 348 341
f 312 311 289
f 289 311 298
f 289 298 259
f 259 298 273
f 259 273 235
f 373 356 389
f 389 356 386
f 389 386 423
f 423 386 410
f 423 410 436
f 471 476 458
f 458 476 467
f 458 467 447
f 447 467 452
f 447 452 439
f 439 452 429
f 439 429 407
f 407 429 379
f 339 352 358
f 358 352 379
f 358 379 380
f 380 379 429
f 432 439 403
f 403 439 407
f 403 407 377
f 377 407 379
f 377 379 334
f 334 379 352
f 334 352 336
f 336 352 339
f 336 339 315
f 475 484 472
f 472 484 490
f 472 490 468
f 468 490 486
f 468 486 463
f 463 486 482
f 463 482 461
f 461 482 479
f 461 479 454
f 454 479 471
f 454 471 442
f 442 471 458
f 442 458 436
f 436 458 447
f 436 447 423
f 423 447 432
f 423 432 389
f 389 432 403
f 389 403 373
f 373 403 377
f 373 377 332
f 332 377 334
f 484 500 490
f 490 500 499
f 490 499 486
f 486 499 496
f 486 496 482
f 482 496 494
f 482 494 479
f 479 494 485
f 479 485 471
f 471 485 480
f 471 480 476
f 456 475 450
f 450 475 472
f 450 472 448
f 448 472 468
f 448 468 445
f 445 468 463
f 445 463 441
f 441 463 461
f 441 461 438
f 438 461 454
f 438 454 421
f 421 454 442
f 421 442 393
f 393 442 436
f 393 436 382
f 382 436 410
f 382 410 354
f 354 410 386
f 354 386 348
f 348 386 356
f 348 356 341
f 341 356 373
f 341 373 331
f 331 373 332
f 331 332 319
f 319 332 334
f 319 334 312
f 312 334 336
f 312 336 311
f 311 336 315
f 311 315 309
f 427 428 455
f 501 500 483
f 483 500 484
f 483 484 474
f 474 484 475
f 474 475 455
f 455 475 456
f 455 456 427
f 390 409 435
f 404 437 440
f 314 296 310
f 310 296 274
f 297 310 272
f 272 310 274
f 272 274 251
f 251 274 236
f 374 349 370
f 370 349 351
f 370 351 344
f 342 346 344
f 344 346 381
f 344 381 370
f 370 381 392
f 370 392 374
f 374 392 422
f 374 422 387
f 437 404 422
f 422 404 388
f 422 388 387
f 419 413 440
f 440 413 412
f 440 412 404
f 440 444 419
f 419 444 449
f 419 449 424
f 424 449 451
f 424 451 426
f 426 451 455
f 426 455 428
f 390 375 385
f 340 359 378
f 359 384 378
f 378 384 430
f 378 430 402
f 313 316 337
f 337 316 353
f 337 353 335
f 335 353 376
f 335 376 333
f 333 376 372
f 375 355 385
f 385 355 372
f 385 372 402
f 402 372 376
f 402 376 378
f 378 376 353
f 378 353 340
f 340 353 316
f 478 489 481
f 481 489 495
f 481 495 487
f 487 495 497
f 487 497 491
f 491 497 498
f 491 498 483
f 483 498 501
f 409 431 435
f 435 431 446
f 435 446 443
f 443 446 459
f 443 459 453
f 453 459 470
f 453 470 460
f 460 470 478
f 460 478 462
f 462 478 481
f 462 481 469
f 469 481 487
f 469 487 473
f 473 487 491
f 473 491 474
f 474 491 483
f 390 385 409
f 409 385 402
f 409 402 431
f 431 402 430
f 431 430 446
f 446 430 457
f 446 457 459
f 459 457 466
f 459 466 470
f 470 466 477
f 470 477 478
f 478 477 488
f 478 488 489
f 297 313 310
f 310 313 337
f 310 337 314
f 314 337 335
f 314 335 320
f 320 335 333
f 320 333 338
f 338 333 372
f 338 372 342
f 342 372 355
f 342 355 346
f 346 355 375
f 346 375 381
f 381 375 390
f 381 390 392
f 392 390 435
f 392 435 422
f 422 435 443
f 422 443 437
f 437 443 453
f 437 453 440
f 440 453 460
f 440 460 444
f 444 460 462
f 444 462 449
f 449 462 469
f 449 469 451
f 451 469 473
f 451 473 455
f 455 473 474
f 36 35 30
f 36 30 31
f 31 30 22
f 31 22 23
f 23 22 14
f 23 14 15
f 15 14 7
f 15 7 8
f 8 7 4
f 8 4 3
f 3 4 9
f 3 9 12
f 12 9 20
f 12 20 19
f 19 20 28
f 19 28 27
f 53 55 27
f 27 55 67
f 67 55 61
f 67 61 69
f 28 37 27
f 27 37 39
f 39 44 27
f 27 44 47
f 27 47 53
f 69 76 67
f 67 76 79
f 76 78 79
f 79 78 82
f 79 82 88
f 88 82 86
f 88 86 97
f 97 86 90
f 97 90 95
f 130 172 187
f 130 187 127
f 127 187 128
f 127 128 119
f 119 128 107
f 119 107 109
f 97 95 107
f 107 95 101
f 107 101 109
f 36 92 35
f 35 92 94
f 174 156 512
f 512 508 174
f 174 508 532
f 174 532 145
f 145 532 522
f 145 522 146
f 507 511 405
f 405 511 321
f 322 502 406
f 406 502 503
f 140 172 162
f 162 172 161
f 148 192 151
f 140 170 172
f 172 170 146
f 172 146 187
f 180 189 185
f 190 160 152
f 190 152 149
f 152 168 149
f 149 168 189
f 149 189 181
f 181 189 180
f 145 146 174
f 174 146 170
f 174 170 156
f 156 170 142
f 156 142 190
f 190 142 169
f 190 169 160
f 164 147 175
f 175 147 181
f 175 181 158
f 158 181 180
f 191 182 163
f 163 182 154
f 163 154 171
f 185 184 180
f 180 184 177
f 180 177 165
f 165 177 167
f 165 167 159
f 159 167 151
f 159 151 166
f 166 151 192
f 173 144 172
f 172 144 186
f 172 186 143
f 161 172 153
f 153 172 143
f 153 143 178
f 178 143 141
f 178 141 151
f 151 141 150
f 151 150 183
f 183 188 151
f 151 188 176
f 151 176 148
f 173 157 144
f 144 157 179
f 144 179 154
f 154 179 155
f 154 155 171
f 149 181 322
f 322 181 517
f 322 517 502
f 136 247 125
f 125 247 158
f 136 125 116
f 116 125 110
f 116 110 103
f 103 110 96
f 103 96 112
f 304 244 121
f 96 87 112
f 112 87 80
f 112 80 133
f 133 80 33
f 133 33 244
f 244 33 93
f 244 93 121
f 158 247 175
f 175 247 305
f 175 305 514
f 121 270 304
f 304 270 318
f 304 318 329
f 329 318 360
f 329 360 366
f 366 360 434
f 366 434 396
f 396 434 465
f 396 465 415
f 415 465 492
f 415 492 395
f 395 492 515
f 395 515 365
f 365 515 514
f 365 514 324
f 324 514 305
f 10 1 17
f 17 1 5
f 80 68 33
f 33 68 25
f 33 25 32
f 32 25 17
f 32 17 21
f 21 17 5
f 21 5 13
f 384 359 361
f 297 272 271
f 271 272 122
f 122 272 251
f 122 251 236
f 361 359 317
f 359 340 317
f 317 340 316
f 317 316 271
f 271 316 313
f 271 313 297
f 384 361 430
f 430 361 433
f 430 433 457
f 457 433 464
f 457 464 466
f 466 464 477
f 477 464 493
f 477 493 488
f 499 500 515
f 515 500 501
f 515 501 513
f 513 501 498
f 498 497 513
f 513 497 495
f 513 495 493
f 493 495 489
f 493 489 488
f 480 485 492
f 492 485 494
f 492 494 515
f 515 494 496
f 515 496 499
f 465 467 492
f 492 467 476
f 492 476 480
f 360 380 434
f 434 380 429
f 434 429 465
f 465 429 452
f 465 452 467
f 318 339 360
f 360 339 358
f 360 358 380
f 273 298 270
f 270 298 309
f 270 309 318
f 318 309 315
f 318 315 339
f 273 270 235
f 235 270 121
f 235 121 123
f 123 121 93
f 123 93 91
f 236 124 122
f 122 124 94
f 122 94 92
f 327 362 433
f 433 362 464
f 464 362 394
f 464 394 493
f 493 394 417
f 493 417 513
f 513 417 398
f 513 398 522
f 27 67 36
f 36 67 79
f 139 248 92
f 92 36 139
f 139 36 79
f 139 79 117
f 117 79 88
f 117 88 104
f 104 88 97
f 104 97 115
f 115 97 107
f 115 107 132
f 132 107 128
f 132 128 249
f 249 128 187
f 249 187 306
f 306 187 146
f 306 146 325
f 325 146 522
f 325 522 364
f 364 522 398
f 433 361 327
f 327 361 317
f 327 317 307
f 307 317 271
f 307 271 248
f 248 271 122
f 248 122 92
f 36 31 27
f 27 31 23
f 27 23 15
f 19 27 12
f 12 27 15
f 12 15 3
f 3 15 8
f 511 512 321
f 321 512 156
f 321 156 190
f 190 149 322
f 503 507 406
f 406 507 405
f 406 405 322
f 322 405 321
f 322 321 190
f 507 503 526
f 526 503 525
f 525 503 502
f 525 502 520
f 502 517 520
f 520 517 516
f 520 516 519
f 519 516 523
f 519 523 518
f 518 523 514
f 518 514 524
f 524 514 515
f 524 515 504
f 522 510 513
f 513 510 531
f 513 531 530
f 530 506 513
f 513 506 521
f 513 521 515
f 515 521 529
f 515 529 504
f 526 505 507
f 507 505 527
f 507 527 511
f 511 527 509
f 511 509 512
f 512 509 528
f 512 528 508
f 508 528 510
f 508 510 532
f 532 510 522
f 294 295 282
f 282 295 279
f 282 279 268
f 141 143 197
f 197 143 198
f 197 198 211
f 211 198 210
f 211 210 234
f 210 233 234
f 234 233 240
f 234 240 266
f 266 240 268
f 266 268 269
f 269 268 279
f 308 247 250
f 250 247 136
f 250 136 137
f 137 136 116
f 137 116 111
f 111 116 103
f 111 103 106
f 106 103 112
f 106 112 114
f 114 112 133
f 114 133 135
f 135 133 244
f 135 244 245
f 245 244 304
f 245 304 301
f 301 304 329
f 301 329 330
f 330 329 366
f 330 366 368
f 368 366 396
f 368 396 401
f 401 396 415
f 401 415 416
f 416 415 395
f 416 395 400
f 400 395 365
f 400 365 369
f 369 365 324
f 369 324 326
f 326 324 305
f 326 305 308
f 308 305 247
f 306 243 249
f 249 243 134
f 249 134 132
f 132 134 113
f 132 113 115
f 115 113 105
f 115 105 104
f 104 105 118
f 104 118 117
f 117 118 138
f 117 138 139
f 139 138 246
f 139 246 248
f 248 246 300
f 248 300 307
f 307 300 323
f 307 323 327
f 327 323 363
f 327 363 362
f 362 363 397
f 362 397 394
f 394 397 418
f 394 418 417
f 417 418 399
f 417 399 398
f 398 399 367
f 398 367 364
f 364 367 328
f 364 328 325
f 325 328 302
f 325 302 306
f 306 302 243
f 170 510 142
f 142 510 528
f 142 528 169
f 169 528 509
f 169 509 160
f 160 509 527
f 160 527 152
f 152 527 505
f 152 505 168
f 168 505 526
f 168 526 189
f 189 526 525
f 189 525 185
f 185 525 520
f 185 520 184
f 184 520 519
f 184 519 177
f 177 519 518
f 177 518 167
f 167 518 524
f 167 524 151
f 151 524 504
f 151 504 178
f 178 504 529
f 178 529 153
f 153 529 521
f 153 521 161
f 161 521 506
f 161 506 162
f 162 506 530
f 162 530 140
f 140 530 531
f 140 531 170
f 170 531 510
