mtllib labeled.mtl
v -0.009500 -0.004000 -0.073500
v 0.009500 -0.004000 -0.073500
v 0.009500 0.004000 -0.073500
v -0.009500 0.004000 -0.073500
v -0.009500 -0.004000 0.073500
v 0.009500 -0.004000 0.073500
v 0.009500 0.004000 0.073500
v -0.009500 0.004000 0.073500
v -0.005000 0.004000 -0.037050
v 0.005000 0.004000 -0.037050
v 0.005000 0.007000 -0.037050
v -0.005000 0.007000 -0.037050
v -0.005000 0.004000 -0.007050
v 0.005000 0.004000 -0.007050
v 0.005000 0.007000 -0.007050
v -0.005000 0.007000 -0.007050
usemtl red
f 1 4 3 2
f 5 6 7 8
usemtl blue
f 1 2 6 5
usemtl red
f 3 4 8 7
f 2 3 7 6
f 1 5 8 4
f 9 12 11 10
f 13 14 15 16
usemtl gray
f 9 10 14 13
usemtl green
f 11 12 16 15
usemtl red
f 10 11 15 14
f 9 13 16 12
