v -0.00500000 -0.00150000 -0.01500000
v -0.00500000 -0.00150000 0.01500000
v -0.00500000 -0.00090000 0.01500000
v -0.00500000 -0.00080000 0.00900000
v -0.00500000 0.00150000 0.00400000
v -0.00500000 0.00150000 -0.00400000
v -0.00500000 -0.00070000 -0.00800000
v -0.00500000 -0.00090000 -0.01500000
v 0.00500000 -0.00150000 -0.01500000
v 0.00500000 -0.00150000 0.01500000
v 0.00500000 -0.00090000 0.01500000
v 0.00500000 -0.00080000 0.00900000
v 0.00500000 0.00150000 0.00400000
v 0.00500000 0.00150000 -0.00400000
v 0.00500000 -0.00070000 -0.00800000
v 0.00500000 -0.00090000 -0.01500000
f 1 3 2
f 1 4 3
f 1 5 4
f 1 6 5
f 1 7 6
f 1 8 7
f 9 10 11
f 9 11 12
f 9 12 13
f 9 13 14
f 9 14 15
f 9 15 16
f 1 2 10 9
f 2 3 11 10
f 3 4 12 11
f 4 5 13 12
f 5 6 14 13
f 6 7 15 14
f 7 8 16 15
f 8 1 9 16
