v -0.009149420075 -0.0002011887118 -0.006988069974
v -0.009067730016 -3.588434237e-05 0.01971428326
v -0.00906695412 -0.0001349963028 0.01971428326
v -0.009065519137 0.0001343849865 0.01971428326
v -0.009064634331 -0.001381854527 -0.006989836693
v -0.009064633399 0.0009794762591 -0.006989841815
v -0.009063867528 -0.0002595760792 0.01971428326
v -0.009050661081 -0.0005082029711 0.01971428326
v -0.009050414887 0.0003447036995 0.01971428326
v -0.009035610748 -0.0007177706345 0.01971428326
v -0.009005918536 0.0009579022761 0.01971428326
v -0.009005689186 -0.001028741444 0.01971428326
v -0.008981268006 -0.00120985947 0.01971428326
v -0.008978907137 0.001157106818 0.01971428326
v -0.008978866972 -0.001879932242 -0.006991625298
v -0.008978866972 0.001477549667 -0.006991629954
v -0.008963842819 0.001244586423 0.01971428326
v -0.008936319 -0.001474361431 0.01971428326
v -0.008921377778 -0.001561122134 0.01971428326
v -0.008912726178 0.001536207798 0.01971428326
v -0.008892392219 -0.001681422896 0.01971428326
v -0.008843482766 0.001836402289 0.01971428326
v -0.008822772145 0.001922365708 0.01971428326
v -0.008812454529 0.00216830289 -0.006995097734
v -0.008812453598 -0.002570681507 -0.006995093543
v -0.008782834025 0.002077451181 0.01971428326
v -0.008724855004 -0.002359418492 0.01971428326
v -0.008719955128 0.002306421922 0.01971428326
v -0.008667734543 0.002464131908 0.01971428326
v -0.008633687386 -0.002636464675 0.01971428326
v -0.00858257365 -0.002790819718 0.01971428326
v -0.008566642031 0.002769228587 0.01971428326
v -0.008536039057 -0.002918068379 0.01971428326
v -0.008510178085 -0.002983496942 0.01971428326
v -0.008501311764 -0.003510393668 -0.00700158393
v -0.008501311764 0.003108011093 -0.007001582533
v -0.008348470344 0.003302930722 0.01971428326
v -0.008342430927 -0.003910790198 -0.006918234285
v -0.00832817127 -0.003416677215 0.01971428326
v -0.008278467087 0.003465630352 0.01971428326
v -0.008127123379 -0.00385814309 0.01971428326
v -0.008118201701 -0.00387692278 0.01971428326
v -0.008110437293 0.00380292551 0.01971428326
v -0.00807761158 0.003867796408 0.01971428326
v -0.008047904819 0.004160366952 -0.006761606783
v -0.007991254886 -0.004131498545 0.01971428326
v -0.007913791205 -0.004282321298 0.01971428326
v -0.007901678764 0.004204668654 0.01971428326
v -0.007825285196 -0.005001624115 -0.006640545093
v -0.007825284265 0.004599245265 -0.00664054649
v -0.007814287145 0.004354439156 0.01971428326
v -0.007723656483 -0.005192047451 -0.006582487375
v -0.007572390092 0.004758466794 0.01971428326
v -0.007552312221 -0.005397930276 0.005643263459
v -0.007518943865 -0.005467402749 0.005675952416
v -0.007475825637 0.004915611198 0.01971428326
v -0.007431090808 0.004984555623 0.01971428326
v -0.007239620201 0.005601692479 0.00598708028
v -0.007221445907 -0.00603668252 0.006011559162
v -0.007207836956 0.005667201243 -0.006281326059
v -0.007128577214 -0.006193820387 -0.006233104039
v -0.006919024512 0.006142513361 0.006437582429
v -0.006908538286 -0.006561537739 0.006456604693
v -0.00690827516 -0.006155102835 0.01971428326
v -0.006784944836 -0.006367354311 0.01971428326
v -0.006768660354 -0.006394804263 0.01971428326
v -0.006713942897 0.006076022724 0.01971428326
v -0.006641933783 -0.00660806261 0.01971428326
v -0.006616926752 -0.006998447701 0.006982963532
v -0.006616048515 0.006597269792 0.006981364917
v -0.006609472446 0.006610902958 0.007901072502
v -0.006604390219 -0.007015783805 0.008355010301
v -0.006575343199 0.006612056866 0.009588825516
v -0.006549295969 0.006626839284 -0.005862531718
v -0.006534773952 0.006340323644 0.01971428326
v -0.006485896651 -0.007114261389 -0.005819847807
v -0.006341618105 -0.006978010296 0.01971428326
v -0.006252797688 0.006686808394 0.01971428326
v -0.006182937883 0.007100621704 -0.005609327462
v -0.006179709453 -0.007507182192 -0.005607024767
v -0.006063306027 -0.007275637716 0.01971428326
v -0.005930275539 0.007013980476 0.01971428326
v -0.005915421527 0.007475917693 0.007921092212
v -0.005915421061 -0.007878294215 0.007921502925
v -0.005876314826 -0.007871747948 -0.005384020973
v -0.005835138727 0.007516994607 -0.005352751818
v -0.005831957251 0.007112789995 0.01971428326
v -0.005794299011 0.007148299031 0.01971428326
v -0.005777927928 -0.007565608783 0.01971428326
v -0.005672849174 -0.007670867493 0.01971428326
v -0.005645979056 -0.007695215275 0.01971428326
v -0.005607071407 0.007324492096 0.01971428326
v -0.005347481468 -0.00794364745 0.01971428326
v -0.005303821992 0.008009608835 0.01020985469
v -0.005303016398 -0.008412782103 0.01020953897
v -0.005294545809 -0.00798597671 0.01971428326
v -0.005228172522 -0.008574914187 -0.004859650508
v -0.005204754895 0.007652192715 0.01971428326
v -0.005203382112 0.008197702467 -0.004838094581
v -0.005183148089 -0.008071541806 0.01971428326
v -0.005180525936 0.007670860648 0.01971428326
v -0.005170914998 0.007677937429 0.01971428326
v -0.005108236422 -0.008125808164 0.01971428326
v -0.005097187486 0.007731353708 0.01971428326
v -0.004941749852 0.008490866981 0.005012776703
v -0.004941747058 -0.008893249556 0.005013116635
v -0.00492379861 0.008478052914 0.007963294163
v -0.00492379535 -0.008880420588 0.007963703014
v -0.004785993346 0.007930113938 0.01971428326
v -0.004742154922 -0.008354923111 0.01971428326
v -0.004610252101 -0.009164489806 -0.004281996284
v -0.004539380781 0.008825247176 -0.004209733568
v -0.004443759609 0.008142576131 0.01971428326
v -0.004411106537 -0.00855354985 0.01971428326
v -0.004355642479 -0.009259890765 0.009842297062
v -0.004304642652 0.008215274843 0.01971428326
v -0.004022145965 -0.008769915705 0.01971428326
v -0.004015982617 0.009264185093 -0.003627715399
v -0.004015981685 -0.00966656208 -0.003627718426
v -0.003959354479 0.009333823808 -0.0002730802807
v -0.003959353082 -0.009736205451 -0.0002728904074
v -0.003913875303 -0.008826047205 0.01971428326
v -0.003909920808 0.009390494786 0.005121842027
v -0.003909917083 -0.009792871773 0.005122177768
v -0.003893200308 0.009214937687 0.009662874974
v -0.003893199842 -0.009617315605 0.009662869386
v -0.003891543485 -0.009717976674 0.008027538657
v -0.003891541855 0.009315618314 0.008027129807
v -0.003882942023 -0.009769911878 -0.003466026625
v -0.003586055049 0.008578574551 0.01971428326
v -0.003450269578 0.009684204124 -0.002885058522
v -0.003432997734 -0.009058254002 0.01971428326
v -0.003424254047 0.008653496687 0.01971428326
v -0.003405765165 0.009715024382 -0.002820303664
v -0.003355541499 -0.01015179697 -0.002745997859
v -0.00322511858 0.008740472574 0.01971428326
v -0.003111532889 0.009953618981 -0.0003063095501
v -0.003071472049 0.009997036308 0.00422382215
v -0.003047161968 0.009585079737 0.01151489932
v -0.003038143972 0.009807318449 0.009012260474
v -0.002982242731 -0.010436018 -0.0002892493212
v -0.002965578084 -0.009262112147 0.01971428326
v -0.002941955579 -0.01047803834 0.004250645172
v -0.0029143258 -0.01006034575 0.01150765643
v -0.002907617483 -0.01028098632 0.009018918499
v -0.002903708955 0.01004013792 -0.002013300546
v -0.002830371959 -0.01048644353 -0.001882420038
v -0.00276074214 -0.009348310119 0.01971428326
v -0.002632959114 -0.009401879054 0.01971428326
v -0.002519254051 0.009040940473 0.01971428326
v -0.002442798691 0.009065481909 0.01971428326
v -0.002417905955 0.01031273697 -0.001075959648
v -0.002413063543 0.009109604172 0.01938067377
v -0.002317275619 0.01036348473 -0.0008600169094
v -0.002317274222 -0.01076586358 -0.0008600189467
v -0.002271944191 0.01038839947 -0.0006621706416
v -0.002271942561 -0.01079077832 -0.0006621764624
v -0.002250188729 -0.01082614157 0.0003814777592
v -0.002250185236 0.010423759 0.0003814912634
v -0.002227617428 -0.01085507311 0.001464352943
v -0.002227614634 0.01045269612 0.001464352012
v -0.002220110908 -0.009552279646 0.01971428326
v -0.002210534178 0.01044853963 0.00440726988
v -0.002187478822 -0.01087567396 0.001763424836
v -0.002177458955 0.009747619741 0.01395466365
v -0.002168535953 0.01021905243 0.009054727852
v -0.002167471219 0.01048246119 0.001838831115
v -0.00212437607 -0.009585347811 0.01971428326
v -0.002084987937 -0.009650763124 0.01923041791
v -0.002049697097 -0.01093520597 0.002128404798
v -0.00202154112 0.01054389123 0.002176924609
v -0.001953184837 -0.01097207796 0.002274401719
v -0.001941213035 -0.01095790416 0.00446452247
v -0.001895514666 -0.01072006393 0.009066930972
v -0.001887352206 -0.01026622392 0.01389196515
v -0.001843601349 -0.0110117197 0.002386933891
v -0.001815623953 0.01061919145 0.00240870472
v -0.001661066897 -0.01107290201 0.002481772332
v -0.001661066082 0.01067052223 0.002481768606
v -0.001651089469 0.009316705228 0.01971428326
v -0.001557975425 -0.01110343263 0.002501920331
v -0.001557973446 0.01070105284 0.002501917304
v -0.001453642617 0.01072963607 0.002520786365
v -0.001453640522 -0.01113201492 0.002520783339
v -0.001369243077 0.009391808404 0.01971428326
v -0.001367248595 0.01075157337 0.002536393935
v -0.001367247663 -0.01115395501 0.002536395332
v -0.001315036789 0.0095112212 0.01886906847
v -0.001306360937 0.01074621268 0.004591561388
v -0.001271703636 -0.009797887794 0.01971428326
v -0.00125002698 0.01049533859 0.009093098342
v -0.001201768988 0.01007882319 0.01374098286
v -0.001053163083 -0.01122104004 0.002602705965
v -0.001053161686 0.01081866212 0.002602705499
v -0.000870568736 -0.01123306062 0.00466878945
v -0.000852951652 -0.00988460413 0.01971428326
v -0.000805437041 -0.01097788289 0.009108758532
v -0.0007945923135 -0.01004118007 0.01863192208
v -0.0007313762908 -0.01058191713 0.01364262216
v -0.0007121728607 0.009483782115 0.01971428326
v -0.0005911966437 -0.01128530316 0.002723803511
v -0.0003280366363 0.01088889036 0.004750162829
v -0.0002764058881 0.01090645324 0.002819395624
v -0.0002503455325 0.01063263882 0.009125514887
v -0.0002368062356 -0.009913045221 0.01971428326
v -0.0002206936361 0.009539984345 0.01971428326
v -0.00016126431 0.009739178233 0.01836676151
v -0.0001477479527 0.01025484595 0.01353446674
v 0.0002047147136 0.01091335714 0.002983713057
v 0.0002261434129 -0.01125302166 0.002676957054
v 0.0002727881796 0.009532034016 0.01971428326
v 0.0002770007413 0.01091157831 0.003010150744
v 0.0002873087942 -0.01131364238 0.003013960086
v 0.000287309289 0.01091126353 0.003013953799
v 0.0003363934811 0.01086460985 0.00585694937
v 0.0003363938013 -0.0112669887 0.005856947042
v 0.0003942702897 0.01070114225 0.008466924541
v 0.0003942729672 -0.01110352296 0.008466922678
v 0.0004990493999 -0.009930957176 0.01971428326
v 0.0005324611557 -0.01071162801 0.01309028361
v 0.0005525001325 0.007326801307 -0.00370824337
v 0.0005708661047 -0.01021173317 0.01787563041
v 0.000665457279 0.007301176898 -0.003689641133
v 0.0006800917326 -0.007297723554 -0.003687327728
v 0.0008567385958 -0.007253575604 -0.003650585655
v 0.0009089008672 0.0108018918 0.002672336996
v 0.0009221343789 0.01086460426 0.003007499268
v 0.0009761730727 0.009515874438 0.01971428326
v 0.0009975157445 0.0102722263 0.01337980386
v 0.001038594986 0.009779163636 0.01796741597
v 0.001277001525 0.009501740123 0.01971428326
v 0.001311876229 0.007118393667 -0.003513068892
v 0.001433997427 -0.009807723151 0.01971428326
v 0.00146953424 -0.00706413202 -0.003450135468
v 0.001604574616 -0.01116679609 0.002991927788
v 0.001604723977 0.01076570805 0.002992086811
v 0.001694353879 0.01070861518 0.00654113479
v 0.001694367966 -0.01111097541 0.006541540381
v 0.001715661958 0.01017680578 0.01418509893
v 0.00181082217 0.01046819519 0.009871228598
v 0.001810837071 -0.01087054703 0.009871562012
v 0.001879974618 0.006904001813 -0.00324429851
v 0.001880034319 -0.009742812321 0.01971428326
v 0.001905427431 -0.01104360633 0.002652186668
v 0.001921757823 -0.01110619307 0.002985071158
v 0.001942641335 -0.01055662334 0.01323395967
v 0.001956814434 -0.006870887242 -0.003199020401
v 0.001988738077 0.0068568266 -0.003178920364
v 0.001994817751 -0.01016792376 0.01679637842
v 0.002146990271 0.01058916282 0.00264768838
v 0.002166895429 0.01065177657 0.002979987767
v 0.002200610263 -0.00965546901 0.01971428326
v 0.002247168683 0.009778649546 0.01759818755
v 0.002316794395 0.009450620746 0.01971428326
v 0.002454178641 0.009795822203 0.01738095097
v 0.002471196194 0.009441632767 0.01971428326
v 0.002920683939 0.00946918875 0.01939969696
v 0.002993380046 0.00939824111 0.01971428326
v 0.003006905084 -0.01083417516 0.002972858259
v 0.003092390718 0.01033764053 0.002641898813
v 0.003109595971 0.01040199213 0.002972371411
v 0.003129365155 0.01040199678 0.006558121648
v 0.003129381686 -0.01080436073 0.006558533758
v 0.003223481763 -0.009375765045 0.01971428326
v 0.003278024495 0.01017544977 0.009874072857
v 0.003278039861 -0.01057779789 0.009874405339
v 0.003411741694 -0.01022172999 0.01320989523
v 0.00342132221 -0.009794303216 0.01670021191
v 0.003456763204 -0.009283867812 0.01971428326
v 0.003492077813 -0.01061177067 0.0026468453
v 0.003504756372 -0.01067746431 0.002976670396
v 0.003710973722 0.009074046407 0.01971428326
v 0.003793962631 0.009031875959 0.01971428326
v 0.003964681644 0.009859465994 0.002371962648
v 0.004015181214 0.01002421044 0.002660569036
v 0.004027510062 0.01009180769 0.002989497734
v 0.004080218331 0.008876116315 0.01971428326
v 0.004231260931 0.00878878372 0.01971428326
v 0.004420491401 -0.01034023333 0.003006092971
v 0.004469477086 -0.008878012242 0.01971428326
v 0.004572382197 0.00993463397 0.006538516842
v 0.004572403152 -0.01033700071 0.006538929418
v 0.004574642746 0.008578849984 0.01971428326
v 0.004746936262 0.009725892916 0.009870798327
v 0.004746948835 -0.0101282401 0.009871130809
v 0.004775638752 -0.008724078963 0.01971428326
v 0.004788869526 -0.009254829958 0.01670477353
v 0.004813734804 0.008430203899 0.01971428326
v 0.004860498011 0.009322626516 0.01322695613
v 0.004860501736 -0.00972496625 0.01322724391
v 0.005061962217 0.008271624603 0.01971428326
v 0.005084507167 0.009383480996 0.002435011091
v 0.005174008664 -0.009743165225 0.002442098456
v 0.005228393711 -0.009908445179 0.002728633583
v 0.00523535395 -0.00998146832 0.003055748995
v 0.005590507833 -0.008305442335 0.01971428326
v 0.005702080671 -0.009472648613 0.002486595185
v 0.005702082068 0.009070270695 0.002486590995
v 0.005727789796 -0.008214468014 0.01971428326
v 0.005761307664 -0.009637109935 0.002772236476
v 0.005761309061 0.009234732017 0.002772234147
v 0.005768795963 -0.009712010622 0.003098546294
v 0.005768796429 0.009309630841 0.003098546527
v 0.005851522088 0.008058576845 0.01815851033
v 0.005851523485 -0.008460953832 0.01815850474
v 0.005925442794 0.007695288686 0.01971428326
v 0.00594211556 0.009325961582 0.006499626674
v 0.00594214024 -0.009728333913 0.00650003273
v 0.006015019957 0.008199856617 0.01684638858
v 0.006015019957 -0.00860223826 0.01684639044
v 0.006024881266 -0.008613937534 0.01674925163
v 0.006034156773 0.009271439165 0.00804230012
v 0.006034156773 -0.009673816152 0.00804230012
v 0.006130352151 0.009138412774 0.009853948839
v 0.006130371243 -0.009540759958 0.009854282252
v 0.006136510987 0.009125037119 0.009991615079
v 0.006155026145 0.008449743502 0.01497558132
v 0.006155028939 -0.008852124214 0.01497558225
v 0.006192797329 -0.009325118735 0.01170669775
v 0.006192797795 0.008922743611 0.01170669962
v 0.006202873308 -0.009106417187 0.01324774139
v 0.006202875637 0.008704080246 0.01324744523
v 0.006265732026 0.00746016444 0.01971428326
v 0.006485802121 0.008607478812 0.002563287271
v 0.006555991713 0.008768035099 0.002847655909
v 0.006559228513 -0.007654975774 0.01971428326
v 0.006559228912 0.007252599249 0.01971428326
v 0.006567853037 0.008843930438 0.003172750818
v 0.006780502852 -0.006727218628 0.0008224844933
v 0.006799357478 -0.0077305343 0.01864305697
v 0.006799357943 0.007328157313 0.01864305884
v 0.007027676705 0.006842147929 0.01971428326
v 0.007027676871 -0.007244524947 0.01971428326
v 0.007103123236 0.008179380558 0.00262805284
v 0.007106754463 0.007474270184 0.01688267849
v 0.007106754929 -0.007876651362 0.01688268036
v 0.007197805215 -0.008512000553 0.002639332088
v 0.007236986887 -0.008953843266 0.006625912618
v 0.007236989681 0.008551465347 0.006625913084
v 0.007281692233 -0.008665707894 0.002922550309
v 0.007301168982 -0.008740280755 0.003246446606
v 0.007309099194 0.007689740509 0.0151170874
v 0.007309100591 -0.008092118427 0.0151170874
v 0.007378188835 -0.006937237631 0.01971428326
v 0.007378189878 0.006534858657 0.01971428326
v 0.007416770328 -0.008780958131 0.009957679547
v 0.007416771259 0.008378577419 0.009957682341
v 0.007417678833 -0.008343750611 0.01336316206
v 0.007417682093 0.007941375487 0.01336316206
v 0.007426914759 0.005533291027 0.0008090122719
v 0.007426914759 -0.005935671274 0.0008090107003
v 0.007448298391 0.008185467683 0.01163784694
v 0.007448301185 -0.008587848395 0.01163784787
v 0.00764426589 0.006574912462 0.01869000681
v 0.007644266356 -0.006977291312 0.01869000308
v 0.007690182373 -0.006575833744 0.01971428326
v 0.007690183852 0.006173454886 0.01971428326
v 0.007731825579 0.007670267951 0.002693568822
v 0.007828009315 0.007815510966 0.002975926967
v 0.007855193689 0.007886567153 0.00329887378
v 0.007986507379 -0.00508051319 0.0007973491447
v 0.007986507379 0.004678136203 0.0007973493193
v 0.008020693436 -0.00708167674 0.01689778641
v 0.008020695299 0.006679302081 0.01689778827
v 0.008091215458 -0.006108786334 0.01971428326
v 0.008091216522 0.005706410464 0.01971428326
v 0.008286963217 -0.007266350091 0.01510945242
v 0.008286964148 0.006863971706 0.01510945428
v 0.00831795577 -0.007509209216 0.002747948281
v 0.008358694613 0.007642353885 0.006599984597
v 0.008358695544 -0.008044731803 0.006599987857
v 0.008377118967 0.005720855203 0.01870513521
v 0.00837712083 -0.006123230327 0.01870513335
v 0.008428966627 -0.007641806267 0.003029235173
v 0.008450932801 -0.007495274767 0.01334148832
v 0.008450936526 0.007092895452 0.01334148645
v 0.008453073911 0.003768851981 0.000787619967
v 0.008453074843 -0.004171230365 0.0007876224699
v 0.008465960622 -0.007706618402 0.003350970102
v 0.008489607833 -0.003111143596 0.000523280527
v 0.008489607833 0.002708766842 0.0005232812255
v 0.008522571065 -0.007898982614 0.009924639016
v 0.008522571996 0.007496605162 0.00992464181
v 0.008525240235 -0.007721653208 0.01160848327
v 0.008525242098 0.007319275755 0.01160848234
v 0.008549644841 -0.005430587713 0.01971428326
v 0.008549647456 0.005028210031 0.01971428326
v 0.008738916086 -0.005138891094 0.01971428326
v 0.008738920242 0.0047365114 0.01971428326
v 0.008746267296 -0.002159280004 0.0005179327563
v 0.008746267296 0.001756900339 0.0005179325235
v 0.008803032339 0.005785180721 0.0168921221
v 0.00880303327 -0.006187555846 0.01689212024
v 0.008818767034 0.006539513823 0.002787635662
v 0.008821437135 -0.003217905294 0.0007799429586
v 0.008821438067 0.002815528773 0.0007799438899
v 0.008825924248 -0.006930859759 0.002786777681
v 0.00889530684 -0.004862518572 0.01971428326
v 0.008895310988 0.004460138489 0.01971428326
v 0.008901410736 -0.001185696106 0.0005146989715
v 0.008901410736 0.0007833179552 0.0005146983895
v 0.008943221532 0.006658256054 0.003067770042
v 0.008953316137 -0.0002011870238 0.0005136179389
v 0.00898954086 0.006715585943 0.00338817318
v 0.009087514132 -0.002231119899 0.0007743968745
v 0.009087514132 0.00182874233 0.0007743980386
v 0.00911254622 -0.00696113985 0.003393936669
v 0.009119488299 0.005931553897 0.0150937289
v 0.00911948923 -0.006333934143 0.01509372611
v 0.009248348884 -0.001221816172 0.0007710401551
v 0.009248349816 0.0008194370312 0.0007710447535
v 0.009302160703 -0.0002011885663 0.0007699222188
v 0.009314307943 -0.006269807927 0.002814842854
v 0.009324575774 -0.006993218791 0.006611500867
v 0.009324575774 0.00659083901 0.006611501332
v 0.009330507368 -0.006527517457 0.01332437806
v 0.00933050923 0.006125140004 0.01332437433
v 0.009339371265 0.003645422826 0.01971428326
v 0.009339373847 -0.004047803415 0.01971428326
v 0.009444450028 -0.006723070517 0.01159525011
v 0.009444452822 0.006320693064 0.0115952529
v 0.009451877326 -0.006371346302 0.003093416337
v 0.009467515163 -0.005158976652 0.0170115009
v 0.009467515163 0.004756594542 0.01701150462
v 0.009469763376 -0.006875645835 0.009917197749
v 0.009469764307 0.006473264191 0.009917193092
v 0.009507467039 -0.006418904755 0.003412049264
v 0.009702166542 -0.005640762858 0.002827785909
v 0.009702168405 0.005238385405 0.002827787772
v 0.009718533605 0.003633981571 0.01841495559
v 0.009718534537 -0.00403636042 0.01841495
v 0.009770512958 0.002635171697 0.01971428326
v 0.009770513026 -0.003037550087 0.01971428326
v 0.00984846137 0.002435971559 0.01971428326
v 0.00984846241 -0.002838348268 0.01971428326
v 0.009849081747 0.005324706435 0.003104547039
v 0.009849084541 -0.005727088545 0.003104544943
v 0.009911406785 -0.005766183604 0.003421116387
v 0.009911408648 0.005363803357 0.003421116387
v 0.009932959452 0.004803600255 0.002831191756
v 0.009992106818 -0.005354969762 0.01409543306
v 0.00999210868 0.00495258905 0.01409543492
v 0.0100846719 0.004880287219 0.003106461372
v 0.01008681487 -0.004884521477 0.002832241589
v 0.01008685213 0.004482062068 0.002832240891
v 0.01015030406 -0.004055290483 0.01664792746
v 0.01015030406 0.003652909771 0.01664792374
v 0.01015053503 0.00491423998 0.003421347355
v 0.01020817534 0.001174677437 0.01971428326
v 0.01020817849 -0.001577058715 0.01971428326
v 0.01020961069 -0.005784509238 0.007775831968
v 0.01020961162 0.005382128526 0.007775832899
v 0.01021770226 0.001138676059 0.01971428326
v 0.01021770509 -0.001541058718 0.01971428326
v 0.01026253961 -0.005649982486 0.01079050638
v 0.01026253961 0.005247602705 0.01079050545
v 0.01027330291 0.005316405557 0.009710927494
v 0.01027418859 -0.005705089308 0.009960052557
v 0.01032067872 0.0004789351053 0.01971428326
v 0.01032067877 -0.0008813129282 0.01971428326
v 0.01032174148 -0.0008738243015 0.01971428326
v 0.01032174151 0.0004714464389 0.01971428326
v 0.0103223159 -0.0008654838235 0.01971428326
v 0.0103223159 0.0004631059145 0.01971428326
v 0.01035872502 -0.0002011912194 0.01971428326
v 0.01039455086 -0.004137162119 0.002831028076
v 0.01048874669 -0.004137380514 0.01489387732
v 0.01048874948 0.003735000035 0.01489387639
v 0.01052051783 0.004090446047 0.003415526589
v 0.01053118985 0.003339894349 0.002828895347
v 0.01055403892 -0.004193651956 0.003102140734
v 0.01062608138 -0.004217676818 0.003412293736
v 0.01066142507 0.002428119769 0.01660884731
v 0.01066142786 -0.002830501646 0.01660884358
v 0.01069243532 0.003389859805 0.003098418703
v 0.01073064283 -0.004254634026 0.01316395495
v 0.01073064283 0.003852256108 0.01316395402
v 0.01076318696 -0.00451693777 0.006511198822
v 0.01076318696 0.004114556126 0.006511195563
v 0.01076604147 0.003410929814 0.003406766802
v 0.01083637029 0.002193630673 0.002819693647
v 0.01084897574 -0.002535242587 0.002819157904
v 0.01087378059 0.003971210215 0.01146768592
v 0.01087378152 -0.004373592325 0.01146768965
v 0.01091642119 0.004059121478 0.009813570417
v 0.01091642305 -0.004461497534 0.009813566692
v 0.01094555017 0.001595791546 0.002814491512
v 0.01096694265 0.002715411596 0.003395980224
v 0.01098538376 0.002480578609 0.01491608191
v 0.0109853847 -0.002882954665 0.01491608284
v 0.01101248246 0.001131441095 0.01657750644
v 0.01101248711 -0.001533818198 0.01657750644
v 0.01101305801 -0.002567233518 0.003084190655
v 0.01106755249 -0.0008197694551 0.002806779696
v 0.01107697561 -0.0002011920442 0.01688048057
v 0.0110837901 -0.0002011887409 0.002805477241
v 0.01108968817 -0.002580694389 0.003387392964
v 0.01110907737 -0.0008697508019 0.01656809635
v 0.01110907923 0.0004673701769 0.01656810008
v 0.01111005433 0.001620367635 0.003077869769
v 0.01118738297 0.001630811719 0.003379178699
v 0.01122340281 0.002558435313 0.01323311031
v 0.0112234056 -0.002960810903 0.0132331131
v 0.01123210974 -0.0008283789502 0.003067763522
v 0.01123679522 -0.001675735344 0.00337442779
v 0.0112482775 -0.0002011888282 0.00306608621
v 0.01125151105 -0.003135489533 0.006663720589
v 0.01125151105 0.002733108355 0.006663725711
v 0.01131009124 -0.0008321997593 0.003366322257
v 0.01131855138 0.001156984828 0.01493775845
v 0.0113185551 -0.001559366239 0.01493775751
v 0.01132630836 -0.0002011880279 0.003364227246
v 0.0113681145 0.002638271544 0.0115714306
v 0.01136811543 -0.003040650859 0.01157142874
v 0.01141266525 0.002697166288 0.009941488504
v 0.01141266618 -0.003099543974 0.009941491298
v 0.01154789235 -0.0015981982 0.01329438202
v 0.01154789235 0.001195821911 0.01329438295
v 0.01156210434 -0.001685478725 0.006790543906
v 0.01156210527 0.001283098944 0.006790546235
v 0.01161885448 -0.0002011904289 0.0137062734
v 0.0116647929 -0.0002011906909 0.01332080085
v 0.01168933138 -0.001638275571 0.01166111138
v 0.01168933418 0.00123589742 0.01166111138
v 0.01173057687 -0.0002011882752 0.007560048718
v 0.01173225138 -0.001667810953 0.01005058829
v 0.01173225138 0.00126543059 0.01005058829
v 0.01184342522 -0.0002011913894 0.0105899442
v 0.01184539497 -0.0002011882898 0.01009676047
f 62 60 58
f 62 71 60
f 6 5 1
f 377 396 248
f 106 108 84
f 221 99 112
f 79 71 83
f 204 208 217
f 137 131 120
f 123 137 120
f 138 137 123
f 120 112 123
f 50 60 223
f 58 60 50
f 54 38 49
f 35 16 36
f 6 16 35
f 406 396 470
f 406 391 381
f 381 396 406
f 391 248 381
f 381 248 396
f 232 50 223
f 234 35 232
f 232 35 36
f 347 320 352
f 300 341 302
f 294 270 147
f 147 135 294
f 294 135 293
f 294 293 300
f 300 302 294
f 111 106 97
f 84 85 97
f 97 106 84
f 120 131 118
f 118 112 120
f 118 131 223
f 223 221 118
f 221 112 118
f 83 99 86
f 86 79 83
f 86 99 221
f 86 221 223
f 223 79 86
f 71 79 74
f 223 60 74
f 74 79 223
f 214 212 215
f 215 217 237
f 209 202 215
f 215 212 209
f 215 202 204
f 204 217 215
f 255 265 239
f 239 230 255
f 255 230 253
f 237 265 262
f 262 251 237
f 239 265 240
f 240 265 237
f 240 217 239
f 237 217 240
f 281 262 284
f 284 262 265
f 265 255 284
f 227 212 214
f 227 226 209
f 209 212 227
f 214 215 227
f 227 215 237
f 239 217 229
f 229 217 208
f 229 230 239
f 229 208 207
f 207 230 229
f 161 138 163
f 161 137 138
f 161 146 137
f 161 152 146
f 83 94 107
f 138 123 128
f 123 107 128
f 200 206 207
f 166 189 163
f 203 202 209
f 36 16 24
f 80 85 84
f 477 502 483
f 483 502 513
f 480 479 508
f 452 457 485
f 485 479 452
f 485 483 513
f 15 35 25
f 5 6 15
f 6 35 15
f 61 76 69
f 76 80 69
f 84 72 69
f 69 80 84
f 49 52 59
f 59 52 61
f 84 108 95
f 500 501 512
f 512 525 509
f 519 509 525
f 415 404 370
f 439 415 452
f 404 415 439
f 234 232 242
f 242 350 248
f 242 394 350
f 242 248 391
f 45 232 36
f 50 232 45
f 352 320 322
f 383 347 352
f 370 339 383
f 339 347 383
f 328 307 339
f 303 307 328
f 281 307 276
f 276 307 303
f 225 135 129
f 129 119 225
f 234 293 225
f 293 135 225
f 225 80 76
f 225 76 61
f 61 52 225
f 225 52 49
f 225 49 38
f 225 35 234
f 38 35 225
f 108 106 124
f 124 127 108
f 124 106 111
f 267 285 290
f 290 268 267
f 266 285 267
f 267 268 249
f 174 195 197
f 313 308 338
f 338 302 341
f 338 308 302
f 361 413 351
f 213 210 235
f 263 285 266
f 270 294 279
f 60 71 70
f 70 74 60
f 71 74 70
f 320 284 289
f 257 284 255
f 257 255 253
f 257 289 284
f 320 289 257
f 237 251 236
f 236 227 237
f 226 227 236
f 250 226 236
f 236 251 250
f 131 137 134
f 137 146 134
f 223 131 134
f 134 146 223
f 209 226 154
f 154 226 250
f 250 152 154
f 154 203 209
f 156 203 154
f 167 161 163
f 105 99 83
f 83 107 105
f 105 112 99
f 105 123 112
f 105 107 123
f 211 228 230
f 138 128 140
f 163 138 140
f 140 166 163
f 191 208 204
f 189 166 191
f 204 202 191
f 202 189 191
f 1 2 4
f 510 502 489
f 489 491 510
f 473 491 489
f 489 468 473
f 489 502 477
f 477 468 489
f 518 524 513
f 513 502 518
f 518 502 510
f 518 522 524
f 524 522 528
f 480 508 488
f 488 475 480
f 501 500 488
f 488 500 475
f 527 528 529
f 524 528 527
f 529 525 527
f 515 485 513
f 515 527 508
f 515 508 479
f 479 485 515
f 513 524 515
f 524 527 515
f 484 503 476
f 486 478 516
f 5 13 12
f 12 10 5
f 38 39 34
f 35 33 31
f 47 59 64
f 63 69 72
f 61 69 63
f 63 59 61
f 81 77 84
f 108 91 90
f 108 127 115
f 193 201 195
f 174 145 173
f 173 195 174
f 184 195 173
f 127 145 126
f 506 500 512
f 470 475 481
f 475 500 481
f 481 500 487
f 406 470 481
f 481 487 406
f 529 528 526
f 526 525 529
f 526 519 525
f 516 478 507
f 507 526 516
f 519 526 507
f 509 519 505
f 247 378 361
f 361 351 247
f 247 395 378
f 247 337 234
f 369 337 247
f 247 400 390
f 403 400 247
f 234 242 247
f 247 242 403
f 452 479 448
f 448 439 452
f 359 404 402
f 404 439 402
f 350 394 362
f 377 248 362
f 248 350 362
f 394 242 358
f 359 402 358
f 358 402 394
f 401 242 391
f 403 242 401
f 43 45 40
f 352 322 349
f 349 322 317
f 360 328 339
f 360 339 370
f 370 404 360
f 360 404 359
f 250 251 261
f 251 262 261
f 261 262 281
f 281 276 261
f 275 276 303
f 224 119 111
f 224 225 119
f 111 97 224
f 224 97 85
f 85 80 224
f 80 225 224
f 121 119 129
f 111 119 121
f 121 124 111
f 268 264 252
f 246 241 266
f 266 267 246
f 246 267 249
f 249 222 246
f 222 198 199
f 199 198 175
f 199 175 174
f 174 197 199
f 374 337 369
f 472 507 478
f 361 378 428
f 428 413 361
f 369 351 397
f 397 351 413
f 397 413 422
f 422 374 397
f 397 374 369
f 340 341 300
f 337 374 340
f 340 379 341
f 340 374 379
f 234 337 297
f 297 293 234
f 300 293 297
f 297 340 300
f 337 340 297
f 216 201 213
f 195 201 216
f 216 197 195
f 218 197 216
f 245 235 244
f 266 241 238
f 238 263 266
f 238 241 218
f 218 216 238
f 238 235 245
f 245 263 238
f 213 235 238
f 238 216 213
f 295 294 302
f 295 279 294
f 302 308 295
f 282 308 313
f 282 295 308
f 279 295 282
f 313 285 282
f 285 263 282
f 259 263 245
f 259 244 270
f 245 244 259
f 258 257 256
f 152 161 159
f 159 154 152
f 156 154 159
f 161 167 159
f 192 191 166
f 208 191 192
f 207 208 192
f 125 140 128
f 73 67 75
f 83 71 73
f 9 11 6
f 6 11 14
f 16 17 20
f 26 24 23
f 26 28 24
f 29 32 36
f 491 453 459
f 447 468 424
f 473 468 447
f 510 491 499
f 465 495 464
f 520 527 525
f 512 501 520
f 520 525 512
f 508 527 520
f 501 488 520
f 520 488 508
f 424 408 392
f 442 468 477
f 424 468 442
f 442 408 424
f 376 342 368
f 376 349 342
f 490 474 467
f 467 476 490
f 490 476 503
f 503 511 490
f 492 474 490
f 490 511 492
f 435 474 450
f 492 511 498
f 455 486 484
f 484 476 455
f 3 2 1
f 1 7 3
f 8 7 1
f 18 13 5
f 25 27 21
f 30 27 25
f 54 49 55
f 49 59 55
f 65 63 66
f 187 195 184
f 187 193 195
f 143 173 145
f 143 145 127
f 127 124 143
f 144 132 122
f 144 145 174
f 145 114 110
f 117 114 145
f 403 401 412
f 517 511 503
f 519 507 497
f 497 505 519
f 493 505 497
f 507 472 497
f 329 351 369
f 369 247 329
f 329 247 351
f 380 247 390
f 395 247 380
f 380 390 405
f 405 395 380
f 469 479 480
f 469 448 479
f 480 475 469
f 36 32 37
f 316 284 320
f 316 314 284
f 320 347 316
f 347 314 316
f 312 314 347
f 312 347 339
f 339 307 312
f 312 307 281
f 281 284 312
f 284 314 312
f 303 328 301
f 301 275 303
f 334 242 232
f 232 324 334
f 334 358 242
f 359 358 334
f 260 261 276
f 276 275 260
f 250 261 260
f 260 152 250
f 146 152 260
f 260 275 146
f 292 232 223
f 275 301 292
f 222 219 205
f 233 219 222
f 220 246 222
f 222 199 220
f 218 241 220
f 241 246 220
f 220 197 218
f 220 199 197
f 190 198 196
f 175 198 169
f 168 162 169
f 407 414 379
f 407 374 422
f 379 374 407
f 379 414 371
f 382 338 371
f 371 338 341
f 341 379 371
f 438 472 478
f 378 395 466
f 422 413 437
f 413 428 437
f 437 438 422
f 472 438 437
f 270 279 271
f 271 259 270
f 279 282 271
f 271 282 263
f 263 259 271
f 254 256 257
f 171 159 167
f 171 167 163
f 207 192 188
f 165 192 166
f 165 136 150
f 165 188 192
f 166 140 139
f 67 73 57
f 51 53 62
f 107 87 88
f 88 92 107
f 16 20 22
f 473 434 449
f 473 447 430
f 430 447 424
f 463 495 465
f 460 454 492
f 372 392 354
f 372 357 366
f 424 392 372
f 366 387 372
f 364 408 368
f 364 392 408
f 354 392 364
f 364 331 354
f 408 442 417
f 368 408 417
f 417 376 368
f 521 498 511
f 521 517 522
f 511 517 521
f 495 498 521
f 521 499 495
f 510 499 521
f 521 518 510
f 522 518 521
f 382 371 425
f 425 371 414
f 425 384 382
f 478 486 451
f 451 438 478
f 451 425 414
f 299 330 326
f 367 416 409
f 382 384 353
f 315 285 313
f 419 431 433
f 474 431 446
f 467 474 446
f 42 55 46
f 193 187 157
f 201 193 157
f 157 187 184
f 173 143 164
f 124 121 141
f 141 143 124
f 129 135 141
f 141 121 129
f 141 135 147
f 147 158 141
f 132 144 142
f 487 500 496
f 500 506 496
f 406 487 411
f 411 412 401
f 487 496 411
f 411 496 412
f 411 391 406
f 411 401 391
f 405 390 410
f 390 400 410
f 410 400 403
f 403 412 410
f 514 517 503
f 514 503 484
f 484 486 514
f 514 486 516
f 523 526 528
f 523 528 522
f 522 517 523
f 517 514 523
f 516 526 523
f 523 514 516
f 445 475 470
f 377 440 445
f 445 396 377
f 445 470 396
f 429 362 394
f 377 362 429
f 429 440 377
f 273 277 322
f 332 331 327
f 317 278 283
f 325 301 328
f 325 360 359
f 328 360 325
f 359 334 325
f 325 334 324
f 274 292 223
f 275 292 274
f 223 146 274
f 146 275 274
f 232 292 298
f 298 292 301
f 298 324 232
f 298 325 324
f 301 325 298
f 427 407 422
f 422 438 427
f 414 407 427
f 427 451 414
f 438 451 427
f 444 428 378
f 378 466 444
f 444 437 428
f 493 466 482
f 405 410 482
f 482 395 405
f 482 466 395
f 471 466 493
f 493 497 471
f 471 497 472
f 471 444 466
f 472 437 471
f 437 444 471
f 194 203 156
f 194 189 202
f 202 203 194
f 163 189 179
f 185 188 180
f 109 113 140
f 432 430 418
f 418 430 399
f 456 417 442
f 456 485 457
f 483 485 456
f 477 483 456
f 456 442 477
f 376 417 421
f 417 456 421
f 455 416 420
f 420 425 455
f 384 425 420
f 455 425 458
f 425 451 458
f 486 455 458
f 458 451 486
f 333 326 330
f 363 367 409
f 355 330 363
f 290 321 287
f 287 268 290
f 280 269 287
f 319 353 321
f 319 321 290
f 290 285 319
f 285 315 319
f 313 338 346
f 346 315 313
f 346 338 382
f 382 353 346
f 353 319 346
f 346 319 315
f 431 419 398
f 467 446 423
f 423 446 431
f 356 373 365
f 96 93 115
f 155 158 147
f 155 157 158
f 147 270 155
f 270 244 155
f 155 244 235
f 155 235 210
f 155 210 213
f 213 201 155
f 201 157 155
f 181 157 184
f 184 173 181
f 157 181 178
f 178 181 173
f 158 172 170
f 170 172 173
f 173 164 170
f 160 141 158
f 158 170 160
f 160 170 164
f 160 164 143
f 143 141 160
f 504 496 506
f 504 505 493
f 509 505 504
f 512 509 504
f 504 506 512
f 439 448 436
f 436 402 439
f 394 402 436
f 436 429 394
f 331 306 323
f 327 331 323
f 335 304 331
f 342 304 335
f 368 342 335
f 335 364 368
f 331 364 335
f 309 304 342
f 309 349 317
f 342 349 309
f 177 171 163
f 163 179 177
f 159 171 177
f 156 159 177
f 177 179 156
f 188 165 153
f 116 130 139
f 101 128 98
f 101 102 128
f 376 421 385
f 385 383 352
f 352 349 385
f 349 376 385
f 426 456 457
f 426 421 456
f 426 457 452
f 452 415 426
f 426 415 370
f 370 383 426
f 383 385 426
f 426 385 421
f 393 373 355
f 355 363 393
f 393 363 409
f 409 423 393
f 393 423 373
f 305 296 286
f 305 287 318
f 318 287 321
f 336 343 367
f 336 363 330
f 367 363 336
f 330 305 336
f 305 343 336
f 367 343 375
f 416 367 375
f 384 420 375
f 375 420 416
f 467 423 441
f 441 423 409
f 409 416 441
f 441 476 467
f 441 455 476
f 441 416 455
f 386 365 373
f 158 157 176
f 157 178 176
f 176 172 158
f 173 172 176
f 176 178 173
f 493 482 494
f 494 504 493
f 496 504 494
f 494 482 410
f 412 496 494
f 494 410 412
f 443 445 440
f 440 429 443
f 429 436 443
f 475 445 443
f 443 469 475
f 448 469 443
f 443 436 448
f 189 194 186
f 186 183 189
f 186 194 156
f 156 183 186
f 182 179 189
f 189 183 182
f 156 179 182
f 182 183 156
f 305 318 311
f 348 353 384
f 384 375 348
f 348 375 343
f 321 353 348
f 348 318 321
f 343 311 348
f 348 311 318
f 310 343 305
f 305 311 310
f 310 311 343
f 41 38 54
f 41 39 38
f 77 72 84
f 68 72 77
f 211 230 207
f 207 206 211
f 34 35 38
f 34 33 35
f 63 65 64
f 64 59 63
f 84 95 81
f 81 95 89
f 89 95 90
f 90 95 108
f 272 257 258
f 320 257 272
f 252 243 249
f 249 268 252
f 75 78 73
f 73 78 83
f 71 62 53
f 53 56 71
f 44 45 43
f 50 45 44
f 58 50 44
f 44 48 58
f 83 78 82
f 82 94 83
f 82 107 94
f 82 87 107
f 98 128 92
f 92 128 107
f 9 6 1
f 1 4 9
f 14 16 6
f 14 17 16
f 36 24 29
f 24 28 29
f 499 459 462
f 491 459 499
f 464 499 462
f 495 499 464
f 492 454 450
f 450 474 492
f 431 435 433
f 431 474 435
f 1 5 8
f 5 10 8
f 5 15 18
f 15 19 18
f 21 19 15
f 21 15 25
f 25 35 30
f 35 31 30
f 42 41 55
f 55 41 54
f 66 72 68
f 66 63 72
f 93 91 108
f 108 115 93
f 103 126 110
f 110 126 145
f 117 144 122
f 145 144 117
f 37 45 36
f 37 40 45
f 317 322 277
f 277 278 317
f 196 198 205
f 205 198 222
f 249 243 233
f 233 222 249
f 169 190 168
f 198 190 169
f 169 162 149
f 149 175 169
f 185 200 188
f 188 200 207
f 133 136 165
f 165 166 133
f 71 56 57
f 57 73 71
f 58 48 51
f 51 62 58
f 23 24 22
f 22 24 16
f 449 491 473
f 449 453 491
f 432 434 430
f 430 434 473
f 430 389 399
f 424 389 430
f 463 498 495
f 461 498 463
f 460 498 461
f 492 498 460
f 345 357 372
f 354 345 372
f 372 389 424
f 372 387 389
f 373 356 344
f 373 344 355
f 59 47 46
f 46 55 59
f 100 126 103
f 127 126 100
f 320 272 273
f 273 322 320
f 291 306 304
f 304 306 331
f 332 345 354
f 354 331 332
f 253 230 231
f 230 228 231
f 231 257 253
f 231 254 257
f 133 166 130
f 166 139 130
f 102 125 128
f 102 104 125
f 125 104 109
f 140 125 109
f 355 344 333
f 333 330 355
f 296 330 299
f 296 305 330
f 287 269 264
f 287 264 268
f 423 398 388
f 431 398 423
f 127 100 96
f 96 115 127
f 148 175 149
f 174 175 148
f 148 144 174
f 148 142 144
f 309 283 288
f 317 283 309
f 309 288 291
f 291 304 309
f 140 113 116
f 116 139 140
f 280 287 286
f 286 287 305
f 386 423 388
f 373 423 386
f 75 67 151
f 151 434 432
f 151 21 27
f 56 53 151
f 151 66 68
f 151 88 87
f 151 100 103
f 68 77 151
f 151 200 185
f 151 136 133
f 149 162 151
f 433 435 151
f 151 12 13
f 43 40 151
f 151 211 206
f 243 252 151
f 151 82 78
f 151 464 462
f 344 356 151
f 151 41 42
f 151 34 39
f 27 30 151
f 89 90 151
f 151 273 272
f 206 200 151
f 151 332 327
f 151 231 228
f 151 78 75
f 151 4 2
f 151 14 11
f 32 29 151
f 151 463 465
f 151 333 344
f 432 418 151
f 39 41 151
f 13 18 151
f 64 65 151
f 151 419 433
f 151 81 89
f 151 233 243
f 151 272 258
f 151 269 280
f 228 211 151
f 258 256 151
f 133 130 151
f 151 283 278
f 151 44 43
f 98 92 151
f 11 9 151
f 151 26 23
f 462 459 151
f 113 109 151
f 453 449 151
f 454 460 151
f 366 357 151
f 151 450 454
f 10 12 151
f 2 3 151
f 151 8 10
f 33 34 151
f 151 31 33
f 151 47 64
f 77 81 151
f 151 90 91
f 42 46 151
f 122 132 151
f 103 110 151
f 151 117 122
f 151 37 32
f 278 277 151
f 196 205 151
f 264 269 151
f 151 252 264
f 151 190 196
f 150 136 151
f 185 180 151
f 151 57 56
f 48 44 151
f 87 82 151
f 151 51 48
f 151 9 4
f 17 14 151
f 151 20 17
f 28 26 151
f 151 29 28
f 151 459 453
f 23 22 151
f 399 389 151
f 151 387 366
f 465 464 151
f 151 148 149
f 435 450 151
f 388 398 151
f 151 3 7
f 7 8 151
f 151 18 19
f 19 21 151
f 151 30 31
f 65 66 151
f 91 93 151
f 151 162 168
f 151 110 114
f 114 117 151
f 40 37 151
f 93 96 151
f 291 288 151
f 151 205 219
f 219 233 151
f 168 190 151
f 256 254 151
f 151 116 113
f 67 57 151
f 53 51 151
f 92 88 151
f 151 22 20
f 151 449 434
f 389 387 151
f 461 463 151
f 151 460 461
f 151 357 345
f 299 326 151
f 151 101 98
f 151 46 47
f 280 286 151
f 132 142 151
f 277 273 151
f 151 306 291
f 345 332 151
f 288 283 151
f 254 231 151
f 151 386 388
f 327 323 151
f 104 102 151
f 151 109 104
f 151 418 399
f 326 333 151
f 151 296 299
f 151 398 419
f 356 365 151
f 151 96 100
f 142 148 151
f 151 323 306
f 130 116 151
f 102 101 151
f 151 286 296
f 365 386 151
f 151 165 150
f 151 153 165
f 151 180 188
f 188 153 151
