v -0.009519146755 -2.276767873e-06 -0.001900036936
v -0.009480174631 -1.135866114e-05 -0.007210693788
v -0.009449947625 0.0009791172342 -0.001949951285
v -0.009449419565 -0.0009836336831 -0.001949946512
v -0.009442923591 0.000770208193 -0.007194425911
v -0.009435147978 -0.0008476371295 -0.007191470824
v -0.009394248948 0.001012923545 0.0008428165456
v -0.009323973209 0.001588680549 -0.007143332623
v -0.00929910969 -0.00171185215 -0.007133467589
v -0.009286197953 -0.0001997639963 0.0117100109
v -0.009286119422 -0.000221999934 0.0117100109
v -0.009285699297 -0.0002597031272 0.0117100109
v -0.00928378312 -0.000335069128 0.0117100109
v -0.009275650925 -0.000485581468 0.0117100109
v -0.009271940216 -0.0019206492 -0.004839051515
v -0.009253799915 0.001946002478 -0.002079390688
v -0.009252751246 -0.001950413221 -0.002079379745
v -0.009250992714 0.0002930697828 0.0117100109
v -0.009240203018 -0.0009790651449 0.0117100109
v -0.009207548425 0.0008743578476 0.0117100109
v -0.009206772663 -0.001278041071 0.0117100109
v -0.009204124435 0.0009051520124 0.0117100109
v -0.009202397606 0.0009164816822 0.0117100109
v -0.009196205807 -0.001344353481 0.0117100109
v -0.009163968328 0.001122776826 0.0117100109
v -0.009162032896 -0.001522944061 0.0117100109
v -0.009111815132 0.002449695487 -0.007051494904
v -0.009075246751 -0.002569050528 -0.007036104333
v -0.009063479575 0.001600769847 0.0117100109
v -0.009063023757 -0.002005542385 0.0117100109
v -0.008990517817 0.002842817223 -0.00496187713
v -0.008988988586 -0.002847085707 -0.004961867351
v -0.008986373432 0.002838165034 -0.006996090058
v -0.008984404734 0.0019046153 0.0117100109
v -0.008973792939 -0.00234636898 0.0117100109
v -0.008973509594 0.001940057096 0.0117100109
v -0.008948665112 0.002883829875 -0.002257915447
v -0.008947113529 -0.002888076007 -0.002257910091
v -0.008822417865 -0.002807856691 0.0117100109
v -0.008822377649 0.002399062145 0.0117100109
v -0.008803354576 0.0033218842 -0.006914217956
v -0.00877035968 -0.003401139285 -0.006900116801
v -0.008656119686 0.002837673477 0.0117100109
v -0.008631929106 -0.003306361598 0.0117100109
v -0.008618229069 0.003730181372 -0.005093805026
v -0.008616223931 -0.003734250087 -0.005093796179
v -0.008552511223 0.003778050188 -0.002455099253
v -0.008465684019 0.004055378493 -0.006759322248
v -0.008464937817 0.003264456104 0.0117100109
v -0.008460547634 -0.003710465454 0.0117100109
v -0.008418418518 0.003352856321 0.0117100109
v -0.008381913416 -0.004214791115 -0.006721375044
v -0.008357936095 -0.00390723705 0.0117100109
v -0.008178797824 0.003789974158 0.0117100109
v -0.008169521578 0.004565236159 -0.00521176355
v -0.00816706568 -0.004569063429 -0.005211764947
v -0.008083302528 0.004614115693 -0.002640517196
v -0.008034284759 -0.004497952042 0.0117100109
v -0.008032035083 0.004813718144 -0.006553977262
v -0.007961414451 0.004173396372 0.0117100109
v -0.007956701305 -0.004635772483 0.0117100109
v -0.007916681468 -0.004990763962 -0.006500661373
v -0.007850523402 -0.004805868384 0.0117100109
v -0.007722196122 -0.004987643295 0.0117100109
v -0.007721751785 0.004519525125 0.0117100109
v -0.007657806855 0.005334893242 -0.005292665213
v -0.007654938847 -0.005338445771 -0.00529266987
v -0.007619442087 -0.005132755875 0.0117100109
v -0.007577477775 0.004723125964 0.0117100109
v -0.00755900424 0.005377478898 -0.002783713629
v -0.007532391697 0.005525490269 -0.006308247335
v -0.007522470242 -0.005268286966 0.0117100109
v -0.007518960306 0.004804296277 0.0117100109
v -0.007429398465 -0.005393048034 0.0117100109
v -0.007422266062 -0.005664328579 -0.006252791733
v -0.00727138119 0.005101115848 0.0117100109
v -0.007241832442 -0.005618264823 0.0117100109
v -0.007206740609 0.005176805445 0.0117100109
v -0.007126797361 -0.005753844134 0.0117100109
v -0.007110987917 0.005286231985 0.0117100109
v -0.007109752856 -0.00603029225 -0.006088829134
v -0.007096500136 0.006026068237 -0.005313423928
v -0.007095989937 -0.005787483514 0.0117100109
v -0.00704277819 0.006103939842 -0.006054328755
v -0.007014953612 -0.005874384551 0.0117100109
v -0.007014592029 0.005385602698 0.0117100109
v -0.006997578312 0.006053589284 -0.00285426341
v -0.0069535306 -0.00593710062 0.0117100109
v -0.006888392381 -0.006265986711 -0.005972308107
v -0.00683436554 0.005561745622 0.0117100109
v -0.006817949251 -0.006067868536 0.0117100109
v -0.006808235776 0.006146601867 -0.0005664889468
v -0.006779053672 -0.006102641408 0.0117100109
v -0.006764237676 0.005629298933 0.0117100109
v -0.006692946806 0.005697180907 0.0117100109
v -0.006587260646 -0.006259131093 0.0117100109
v -0.006564000611 0.005811153181 0.0117100109
v -0.006507785525 0.006630458403 -0.0057645333
v -0.006504221354 -0.006633392535 -0.005764535163
v -0.006503763387 -0.006315909678 0.0117100109
v -0.00645293016 0.006621809676 -0.003629534272
v -0.00644910731 0.005908656862 0.0117100109
v -0.006371888567 -0.006402100218 0.0117100109
v -0.006371456664 0.006640406791 -0.002035369398
v -0.006256022025 0.006682909094 -0.0005809664726
v -0.00619907584 0.00689066248 -0.005589825101
v -0.006159824252 -0.006524682244 0.0117100109
v -0.006138557016 -0.006536769411 0.0117100109
v -0.00606046943 0.006766208448 0.001254754839
v -0.005953907967 -0.007076917216 -0.005451396108
v -0.005909044053 -0.006649990359 0.0117100109
v -0.005903699901 0.006834992673 0.002527795034
v -0.005807701964 0.007131551392 -0.003463678528
v -0.00580386864 -0.007134108804 -0.003463686444
v -0.005787037471 0.006458444991 0.0117100109
v -0.005729872733 0.007119601592 -0.001266085659
v -0.005611417815 0.006954990327 0.004895101301
v -0.005595210386 -0.006786463685 0.0117100109
v -0.005550868344 0.007348613814 -0.005209074356
v -0.005448104348 0.007163570728 0.002630166011
v -0.0053888564 0.007014377508 0.007314396556
v -0.005352468695 -0.00746775046 -0.005087892059
v -0.005342884921 0.007011719979 0.008132605813
v -0.005316967633 -0.006892073207 0.0117100109
v -0.005300129167 0.006845073488 0.0117100109
v -0.00525307795 0.006897793151 0.01143610571
v -0.005248807955 0.006879270665 0.0117100109
v -0.005163333844 0.007189020049 0.006271433551
v -0.005131121487 0.006923657535 0.0117100109
v -0.005092347506 0.007503197994 -0.001030318323
v -0.005088314414 -0.007505371235 -0.00103031937
v -0.005082291085 0.007153110113 0.008154684678
v -0.005068221808 -0.006978596813 0.0117100109
v -0.005062500366 -0.006980446801 0.0117100109
v -0.005042954814 0.007074866444 0.01010524482
v -0.005039150827 -0.007077013142 0.01010524295
v -0.005004511425 0.006968847133 0.0117100109
v -0.004954516422 0.007435251493 0.002815654268
v -0.004950519651 -0.007437350694 0.002815645188
v -0.004938194994 0.00768902991 -0.004823213443
v -0.004840701001 0.007027107029 0.0117100109
v -0.004813274834 0.007345075719 0.006402703002
v -0.004770376254 0.007164306473 0.01020585094
v -0.004766524769 -0.007166306954 0.01020585466
v -0.00471797213 -0.007792884484 -0.004681192338
v -0.00453468319 0.007872448303 -0.004554263782
v -0.004392142408 0.007822399028 -0.000729344727
v -0.004387935624 -0.00782419648 -0.0007293335511
v -0.004367954098 0.007680385839 0.003063131124
v -0.004363826476 -0.007682169322 0.003063127166
v -0.004357222933 -0.007944268174 -0.004436273128
v -0.004266826436 0.007978638634 -0.004368087742
v -0.004182339278 0.007223475763 0.0117100109
v -0.004141216539 -0.007250753406 0.0117100109
v -0.004124038732 -0.007254891634 0.0117100109
v -0.004091819146 0.007249590002 0.0117100109
v -0.003993893042 -0.008075435646 -0.004177487921
v -0.003804362845 0.007424465381 0.01056787185
v -0.00380037236 -0.007425946649 0.01056786347
v -0.003794216642 0.007328878742 0.0117100109
v -0.003790277354 -0.007330353752 0.0117100109
v -0.003747454612 0.007679469418 0.006830185652
v -0.003743327921 -0.007680919487 0.006830181461
v -0.003694656072 0.007894482464 0.003359934315
v -0.003690412035 -0.007895903662 0.003359923372
v -0.003631993197 0.008078906685 -0.0003789155453
v -0.00362765044 -0.008080295287 -0.0003789153125
v -0.003577682888 0.008202018216 -0.003861223115
v -0.003248031717 -0.008286518976 -0.003607344115
v -0.002945660613 0.00807135459 0.003691577353
v -0.002914274111 0.008358548395 -0.003328041406
v -0.002895097248 -0.008362423629 -0.003315413604
v -0.002816609107 0.008273722604 4.478589744e-06
v -0.00281216111 -0.008274671622 4.488856575e-06
v -0.002679789235 0.007576352519 0.0117100109
v -0.002675712223 -0.007577230541 0.0117100109
v -0.002454312984 -0.008438114077 -0.002925609704
v -0.002425230318 0.007628833708 0.0117100109
v -0.002421127978 -0.007629574507 0.0117100109
v -0.002420693403 0.007689209189 0.01106421836
v -0.002416558331 -0.007689946797 0.0110642286
v -0.002298532752 0.007963364944 0.007402883843
v -0.00229425123 -0.007964035496 0.00740289595
v -0.002206228441 0.008472017013 -0.002687717322
v -0.002132007387 0.008204815909 0.004043589812
v -0.002127597341 -0.008205397986 0.00404359214
v -0.001950697042 0.008407843299 0.0004043917579
v -0.001946178963 -0.008408327587 0.0004043885274
v -0.001751691918 -0.008519309573 -0.002233689651
v -0.001729194018 -0.007712809571 0.0117100109
v -0.001602543867 -0.008530768566 -0.002072581789
v -0.001555856084 0.008533962071 -0.002014945727
v -0.001473592551 0.007741709577 0.0117100109
v -0.001469437686 -0.007741937236 0.0117100109
v -0.001159777516 -0.008553456515 -0.001553861657
v -0.0009759005043 0.00855809357 -0.001311004511
v -0.0008268273958 0.007809661338 0.0117100109
v -0.0008226303957 -0.00780954136 0.0117100109
v -0.0006984101492 0.008002849296 0.009241248481
v -0.0006941098254 -0.008002660237 0.00924124103
v -0.0006305173738 -0.008558662608 -0.0008292415296
v -0.0005992040387 0.008558384143 -0.0007748211501
v -0.0005817111914 -0.007802253921 0.0117100109
v -0.0004558731453 0.008555190638 -0.0005484356661
v -0.0003702170568 0.007807482516 0.0117100109
v -0.0003548747045 0.008316762745 0.004750865977
v -0.0002385956905 0.008399444632 0.003314008238
v -0.0002340813808 -0.008399008773 0.003314005909
v -0.0001604767749 -0.0085421158 -3.736369399e-05
v -8.612839156e-05 0.008498011157 0.001187768066
v -8.156128752e-05 -0.008497494273 0.001187770627
v -2.774307904e-05 0.008533436805 0.0002356947953
v -2.315546408e-05 -0.008532887325 0.0002356936166
v 4.372544936e-05 0.008527617902 0.0003916922724
v 4.830929538e-05 -0.008527031168 0.0003916917194
v 7.239507217e-05 0.007793867826 0.0117100109
v 0.0001144453126 0.008521380834 0.0005475757062
v 0.0001190256589 -0.008520754054 0.0005475758226
v 0.0001334239932 -0.007806045003 -0.003747232025
v 0.0002422405232 -0.007787835784 -0.003741673892
v 0.0005554410048 0.007759206091 0.0117100109
v 0.0005596107736 -0.007758343394 0.0117100109
v 0.0007426323718 0.007934660651 0.009559216909
v 0.0007468977128 -0.007933697663 0.009559216909
v 0.0007952569285 -0.007669458631 -0.003663822077
v 0.0008055164362 0.008499860764 0.0005480833352
v 0.000807176868 0.006866422016 -0.003662103554
v 0.0009837762469 0.007692138489 0.0117100109
v 0.001074418426 0.008148166351 0.006497429218
v 0.00107879634 -0.00814702455 0.006497422699
v 0.001191771219 -0.007646194081 0.0117100109
v 0.001291451394 -0.008466169238 0.0005488124443
v 0.001329546212 -0.007512507495 -0.003506324487
v 0.001339866198 0.006709046196 -0.003502469976
v 0.00133986806 -0.003800000064 -0.0035024588
v 0.001339952229 -0.007509017363 -0.003502373351
v 0.001413254766 0.00832214579 0.003384121461
v 0.001417728723 -0.008320821449 0.003384126816
v 0.001485098363 0.0076043515 0.0117100109
v 0.001530139474 -0.007442221511 -0.00342359324
v 0.001628409046 0.00757734246 0.0117100109
v 0.001650471822 0.0084334407 0.0005500249099
v 0.00165526534 -0.00843162369 0.0005498616374
v 0.001842434402 -0.007319813594 -0.003265731037
v 0.001909958781 0.006491200067 -0.003227164038
v 0.002015888163 0.007481972881 0.0117100109
v 0.002019908 -0.007480325363 0.0117100109
v 0.002250007819 0.007625087164 0.01000257302
v 0.002254104475 -0.00762331346 0.01000257488
v 0.002401563492 0.00736381934 0.0117100109
v 0.002405519276 -0.007361964371 0.0117100109
v 0.002426555147 0.008315467276 0.0003424595925
v 0.002428798005 0.008329200558 0.0005530829076
v 0.002705197781 0.007830767892 0.006984496024
v 0.002709404798 -0.007828749716 0.006984491833
v 0.002742563596 0.007245999139 0.0117100109
v 0.002746456732 -0.007243960249 0.0117100109
v 0.002897228813 -0.008229637519 0.000344909291
v 0.002899829764 -0.008242779411 0.0005553808878
v 0.00299053709 0.007372519933 0.01020684466
v 0.002994498238 -0.007370348088 0.01020684186
v 0.003138334025 0.007996055298 0.003880947363
v 0.003142629983 -0.007993804291 0.003880941309
v 0.003165281266 0.007074091345 0.0117100109
v 0.003169082425 -0.007071825535 0.0117100109
v 0.003461155055 0.006939378507 0.0117100109
v 0.00346488411 -0.006936953885 0.0117100109
v 0.003468657844 0.0081179915 0.0005588201457
v 0.00350856618 0.007573700976 0.007205452304
v 0.00351263606 -0.007571251597 0.007205459289
v 0.003714638762 0.00704900315 0.01039886381
v 0.003718426917 -0.007046442013 0.01039886475
v 0.003913849698 0.006703500895 0.0117100109
v 0.00391745069 -0.006700833771 0.0117100109
v 0.003987260163 0.00773507636 0.004099727608
v 0.003987414762 0.007839881815 1.047662408e-05
v 0.00399141619 -0.007732369006 0.004099718295
v 0.004007710144 0.00790873915 0.0001640276314
v 0.0040119607 -0.007906022482 0.0001640303817
v 0.004021652509 0.007956043817 0.0003505779023
v 0.004025082104 0.00796767883 0.0005625482881
v 0.004025951494 -0.007953396998 0.0003510674287
v 0.004029362928 -0.007964950986 0.0005625452031
v 0.004166427128 0.006557589805 0.0117100109
v 0.004169949563 -0.006554786425 0.0117100109
v 0.004221882671 0.007897171192 0.0007520941435
v 0.004226126708 -0.007894338109 0.0007520981017
v 0.004271066748 0.007788150106 0.0001014045047
v 0.004275252577 -0.007785291411 0.0001014045847
v 0.004292947706 0.007244432345 0.007410925347
v 0.0042968411 -0.007241561078 0.007410936058
v 0.004304733593 0.007868899032 0.0004721739679
v 0.004308961332 -0.007866021246 0.0004721659352
v 0.004416572396 0.006650214549 0.01057811733
v 0.004420146346 -0.006647277158 0.01057811361
v 0.004507554695 0.007640913129 3.810986891e-05
v 0.004511660431 -0.007637927309 3.811003626e-05
v 0.00455993088 0.007738186512 0.0003783139691
v 0.004564089235 -0.007735171355 0.0003783191496
v 0.004640759972 0.006247384205 0.0117100109
v 0.00464411576 -0.006244326176 0.0117100109
v 0.004813876003 0.007401282899 0.004299755674
v 0.004817854147 -0.007398130838 0.004299764987
v 0.004831422586 0.007396273315 -1.676726788e-05
v 0.004835398402 -0.007393112872 -1.675727071e-05
v 0.004852392821 0.006095986276 0.0117100109
v 0.004855668336 -0.006092814191 0.0117100109
v 0.004901734181 0.007489445154 0.0002524919983
v 0.004905758426 -0.007486246061 0.0002524926676
v 0.005050112493 0.006837991532 0.007600603625
v 0.005053786561 -0.006834712811 0.007600596175
v 0.00509059662 0.006171834655 0.01074413396
v 0.005093913525 -0.006168534514 0.01074413396
v 0.005143011454 0.007502816152 0.001567319501
v 0.005147155374 -0.007499195635 0.001567413681
v 0.0052140099 0.007091381121 -1.675654312e-05
v 0.005217820406 -0.007088014856 -1.676023567e-05
v 0.005289139226 0.007180711254 0.0002524850133
v 0.005292997696 -0.007177304942 0.000252487167
v 0.005338727909 0.005701206385 0.0117100109
v 0.005341789276 -0.005697773725 0.0117100109
v 0.00542192068 0.007349059451 0.001235166332
v 0.005425944459 -0.007345338818 0.001235249452
v 0.005512305307 0.005549869021 0.0117100109
v 0.005515286964 -0.005546342861 0.0117100109
v 0.005608255975 0.006989030167 0.004481825046
v 0.005612012465 -0.00698545156 0.004481831565
v 0.005644448567 0.007106839214 0.0009133283747
v 0.005648310762 -0.007103050128 0.0009134090506
v 0.00573094748 0.005609589163 0.01089641638
v 0.005733960774 -0.005605945364 0.01089641452
v 0.005771829747 0.00634940993 0.007774115074
v 0.005775242113 -0.006345743313 0.007774127182
v 0.005997600034 0.00599406939 -0.0002820405934
v 0.005997727556 0.005064740458 0.0117100109
v 0.006000443977 -0.005060954076 0.0117100109
v 0.006074863952 0.00696216803 0.002358761616
v 0.006078847218 -0.006957654376 0.002358929487
v 0.006135735149 0.004919635749 0.0117100109
v 0.006138375385 -0.004915773393 0.0117100109
v 0.006177357864 0.00615375163 -1.676050124e-05
v 0.006179588847 0.006769497879 0.001389823854
v 0.00618066499 -0.006149868015 -1.675853673e-05
v 0.006183227059 -0.006765611935 0.001389822923
v 0.006264622789 0.00623127073 0.0002524810261
v 0.006267971359 -0.006227340084 0.0002524900483
v 0.006319470704 0.006791552529 0.002008922165
v 0.006323297042 -0.006787028164 0.002009083051
v 0.006329337601 0.004964495543 0.01103404444
v 0.006332003511 -0.004960529506 0.01103403233
v 0.006360473577 0.006492675282 0.004646684509
v 0.006363962311 -0.006488692947 0.004646681715
v 0.006449860521 0.005773771554 0.007931177504
v 0.006452962756 -0.00576974079 0.007931173779
v 0.006498008501 0.00653957203 0.001668405603
v 0.006501622498 -0.006535071414 0.001668554032
v 0.006601818089 0.004348099434 0.0117100109
v 0.00660415608 -0.004343986946 0.0117100109
v 0.006691523828 0.005714657251 0.0002524831507
v 0.006694595329 -0.005710495636 0.0002524848969
v 0.006706453182 0.004215463394 0.0117100109
v 0.006708718924 -0.004211295263 0.0117100109
v 0.006793918088 0.004954603035 -0.0002820481895
v 0.006796580274 -0.004950387869 -0.0002820437949
v 0.006872774102 0.004247453529 0.01115534175
v 0.006875056308 -0.004243195988 0.01115534361
v 0.006994891912 0.005086592864 -1.675524254e-05
v 0.006997623947 -0.005082270131 -1.676416105e-05
v 0.007012747694 0.006222842261 0.003086039098
v 0.007016436197 -0.006217517424 0.003086273093
v 0.007060603704 0.005906632636 0.004795082379
v 0.007063777652 -0.00590227358 0.004795094486
v 0.00707487762 0.005111822858 0.008071127348
v 0.007077624556 -0.005107456353 0.008071131073
v 0.007092454936 0.005150669254 0.0002524824522
v 0.007095221896 -0.005146293901 0.0002524818992
v 0.007095667534 0.006034008227 0.002173815388
v 0.007098607719 -0.006029463373 0.002173691522
v 0.007132726378 0.003565794901 0.0117100109
v 0.007134638352 -0.003561398779 0.0117100109
v 0.007202086505 0.006053390913 0.002716174582
v 0.007205589674 -0.006048141047 0.002716404153
v 0.00720800042 0.00344893873 0.0117100109
v 0.007209849884 -0.0034445003 0.0117100109
v 0.007318690885 0.005815350451 0.002354122465
v 0.007321964018 -0.005810213275 0.002354325494
v 0.007347745355 0.003470449708 0.01125854533
v 0.007349609397 -0.003465936519 0.01125853602
v 0.007431445643 0.003810848109 -0.0002820473455
v 0.00743349269 -0.003806290682 -0.0002820461232
v 0.007573308402 0.002732772516 0.0117100109
v 0.007574775393 -0.0027281389 0.0117100109
v 0.007624332793 0.004231300205 0.0002524884476
v 0.007624413712 0.002631997433 0.0117100109
v 0.007625827772 -0.0026273361 0.0117100109
v 0.007626606617 -0.004226637539 0.0002524916781
v 0.007635532413 0.004374893848 0.008192862384
v 0.007637883537 -0.004370226059 0.008192866109
v 0.007649403065 0.003912368324 -1.676023385e-05
v 0.007651504595 -0.003907694016 -1.675439671e-05
v 0.007661561217 0.002531889149 0.0117100109
v 0.007662921121 -0.002527208037 0.0117100109
v 0.007698803209 0.005231332965 0.004927191883
v 0.007701613009 -0.005226631183 0.004927183036
v 0.007740740199 0.002645467408 0.01134187542
v 0.007742160931 -0.002640743507 0.01134187542
v 0.007755211089 0.003961652517 0.0002524885931
v 0.007757339627 -0.003956920933 0.000252489408
v 0.007864956744 0.001262294129 -0.000445632526
v 0.007865634747 -0.00125750422 -0.0004456261813
v 0.007886370644 0.00527082663 0.003699477529
v 0.007890745997 -0.005264088046 0.003701244248
v 0.007896760479 0.002586880233 -0.0002820448135
v 0.007898149081 -0.002582072979 -0.0002820535738
v 0.007940253881 0.001776894996 0.0117100109
v 0.007941206957 -0.001772063626 0.0117100109
v 0.007956931368 2.419635393e-06 -0.0004456363677
v 0.007960150741 0.001690555919 0.0117100109
v 0.007961057321 -0.001685713381 0.0117100109
v 0.008020867594 0.005116528831 0.003311974229
v 0.008024686947 -0.005109978374 0.003313693451
v 0.008038248867 0.00178449403 0.01140359696
v 0.008039206266 -0.001779609942 0.0114035951
v 0.008077331819 0.004907353781 0.002931012306
v 0.008080518804 -0.004901022185 0.002932678675
v 0.008120249957 0.003575475188 0.008295168169
v 0.008122170344 -0.003570547095 0.008295163512
v 0.008127112873 0.002655793913 -1.676609827e-05
v 0.008128538728 -0.002650862793 -1.6766915e-05
v 0.008140529207 0.0008961480243 0.0117100109
v 0.008141013679 -0.0008912094655 0.0117100109
v 0.008149419461 0.0008042970679 0.0117100109
v 0.008149854054 -0.0007993577871 0.0117100109
v 0.008180069737 0.001308462699 -0.0002820506925
v 0.008180771023 -0.001303503523 -0.0002820490045
v 0.008212136966 2.488432324e-06 0.0117100109
v 0.0082267588 0.0008995127282 0.01144191623
v 0.008227241226 -0.0008945277077 0.01144192927
v 0.008238941431 0.002689248417 0.0002524941519
v 0.008240384981 -0.002684257226 0.0002524899319
v 0.008265387267 0.0044784653 0.005042005796
v 0.008267791942 -0.004473459441 0.005041998811
v 0.008275408298 2.505270231e-06 -0.0002820510126
v 0.008292757906 2.510099648e-06 0.0114550842
v 0.008301527239 0.004578027409 0.003094729967
v 0.008303642273 -0.004572909791 0.003096448258
v 0.008417970501 0.001343319309 -1.67601811e-05
v 0.008418690413 -0.00133823161 -1.676196916e-05
v 0.00851584971 2.570164952e-06 -1.675932981e-05
v 0.00851745531 0.002726057312 0.008376827464
v 0.008518918417 -0.002720916178 0.008376819082
v 0.008533461019 0.00136023981 0.0002524932788
v 0.008534190245 -0.001355090179 0.0002524897282
v 0.008566454053 2.583674586e-06 0.01048109122
v 0.008591340855 0.0008787306724 0.0002524870797
v 0.008591812104 -0.0008735483279 0.0002524876036
v 0.008620470762 0.004160531331 0.004200921394
v 0.008625023998 -0.004152998328 0.004203930032
v 0.008632573299 2.601146207e-06 0.000252490514
v 0.008716252632 0.004022158682 0.003800890176
v 0.008719887584 -0.004014821723 0.003803837346
v 0.008728581481 0.003841250204 0.003406648524
v 0.008731322363 -0.003834157018 0.003409519093
v 0.008750683628 0.003660952207 0.005138426088
v 0.00875264965 -0.003655685112 0.00513842795
v 0.008815573528 0.001839131583 0.008436639793
v 0.008816559799 -0.001833830029 0.008436633274
v 0.009003031068 0.0009271888994 0.008473405614
v 0.009003528394 -0.0009217860643 0.008473415859
v 0.009068256244 2.718553333e-06 0.008485937491
v 0.009145024233 0.002791715553 0.005215339828
v 0.009146523662 -0.002786236349 0.005215340294
v 0.00916149281 0.002861243905 0.003737822641
v 0.009162858129 -0.002854770981 0.003738129977
v 0.009196853265 0.002913874108 0.004608761054
v 0.009198512882 -0.002906874288 0.004609024618
v 0.009235917591 0.002652226249 0.00379727059
v 0.009237096645 -0.00264575216 0.003797515994
v 0.009259738959 0.002797760302 0.004200390074
v 0.009261202998 -0.002791000064 0.004200647119
v 0.009408190846 2.810041451e-06 0.006881305948
v 0.009438742884 0.001883677323 0.005271662958
v 0.009439752437 -0.001878040377 0.005271651316
v 0.009567367844 0.001363469171 0.004077256192
v 0.009568982758 -0.001354793902 0.004081423394
v 0.009583630599 0.001527979388 0.00489896629
v 0.009587791748 -0.001518389443 0.004903350025
v 0.009619054385 0.001453317236 0.004485699348
v 0.009621905163 -0.001444162917 0.004489977844
v 0.009622165002 0.0009497593855 0.00530625321
v 0.009622674435 -0.0009440243011 0.005306261592
v 0.009625799023 0.0009767367737 0.004131651483
v 0.009626756422 -0.0009711503517 0.004134670831
v 0.009657144547 0.0006887695054 0.004162093624
v 0.009657980874 -0.0006816324312 0.004164151847
v 0.009688689373 2.885209597e-06 0.004193972796
v 0.009693239816 0.0007808036171 0.004986628424
v 0.009695323184 -0.000773253676 0.00498881191
v 0.009718369693 0.0007386450307 0.004572019447
v 0.009719897062 -0.0007312750095 0.004574134015
v 0.009732988663 2.897420018e-06 0.00501955254
v 0.009753808379 2.90300909e-06 0.004604454152
f 258 282 259
f 1 5 2
f 59 71 227
f 15 17 4
f 4 21 19
f 222 203 224
f 259 263 238
f 238 263 230
f 482 468 490
f 234 2 5
f 234 41 227
f 315 299 323
f 348 338 323
f 323 338 315
f 282 258 220
f 37 31 16
f 16 31 27
f 2 234 233
f 106 119 227
f 227 98 106
f 227 71 84
f 84 98 227
f 227 41 48
f 48 59 227
f 22 23 7
f 30 17 35
f 4 26 24
f 24 21 4
f 32 15 28
f 17 15 32
f 259 238 243
f 243 238 232
f 243 258 259
f 243 232 201
f 208 238 230
f 208 188 201
f 181 159 183
f 174 188 186
f 186 165 174
f 188 208 186
f 177 188 174
f 224 230 255
f 230 263 255
f 303 270 277
f 277 255 263
f 270 255 277
f 277 315 303
f 277 287 315
f 481 490 468
f 482 490 486
f 490 481 497
f 497 486 490
f 488 486 497
f 146 152 227
f 168 171 227
f 227 152 168
f 469 438 467
f 467 438 423
f 370 338 348
f 259 282 283
f 283 263 259
f 283 277 263
f 287 277 283
f 240 234 417
f 443 417 434
f 8 234 5
f 27 234 8
f 8 16 27
f 41 234 33
f 33 234 27
f 33 31 41
f 27 31 33
f 485 493 489
f 489 487 480
f 489 478 485
f 480 478 489
f 502 496 494
f 495 496 502
f 474 480 463
f 474 478 480
f 174 165 167
f 183 159 163
f 163 186 183
f 165 186 163
f 150 167 165
f 34 16 29
f 9 233 28
f 28 15 9
f 9 15 4
f 279 289 282
f 282 220 279
f 45 48 41
f 45 37 47
f 41 31 45
f 45 31 37
f 47 57 55
f 55 45 47
f 48 45 55
f 59 48 55
f 55 57 59
f 3 5 1
f 3 8 5
f 3 7 16
f 16 8 3
f 1 14 13
f 225 81 75
f 89 81 225
f 225 75 62
f 225 279 220
f 62 52 225
f 225 233 289
f 289 279 225
f 56 52 62
f 42 32 28
f 46 32 42
f 42 52 46
f 42 225 52
f 28 233 42
f 233 225 42
f 38 44 39
f 17 32 38
f 38 32 46
f 232 238 218
f 238 208 218
f 218 215 232
f 179 181 190
f 176 181 179
f 200 186 208
f 200 208 230
f 183 186 200
f 200 230 224
f 200 181 183
f 191 220 258
f 224 255 249
f 247 231 249
f 249 255 270
f 472 467 451
f 451 467 423
f 500 495 502
f 500 489 493
f 493 495 500
f 469 487 491
f 491 481 469
f 432 437 430
f 470 481 468
f 469 481 470
f 488 497 499
f 502 494 499
f 501 497 481
f 502 499 501
f 501 499 497
f 501 500 502
f 171 168 166
f 166 168 152
f 318 304 308
f 419 416 423
f 431 438 433
f 483 467 472
f 483 487 469
f 469 467 483
f 382 370 348
f 287 283 293
f 293 299 315
f 315 287 293
f 293 283 282
f 282 289 293
f 293 289 299
f 407 439 428
f 413 389 428
f 428 434 413
f 413 434 245
f 245 389 413
f 245 417 234
f 296 304 234
f 227 288 296
f 296 234 227
f 308 304 296
f 296 298 308
f 288 298 296
f 463 480 461
f 461 446 463
f 476 483 472
f 476 461 480
f 458 461 476
f 480 487 476
f 487 483 476
f 435 417 443
f 478 474 440
f 440 474 463
f 131 122 145
f 169 167 157
f 174 167 169
f 144 163 159
f 165 163 144
f 136 150 144
f 144 150 165
f 220 122 110
f 25 7 23
f 2 233 6
f 233 9 6
f 6 9 4
f 6 4 1
f 1 2 6
f 235 233 234
f 235 236 233
f 235 234 240
f 240 236 235
f 59 57 66
f 57 70 66
f 71 59 66
f 66 70 71
f 40 43 37
f 82 84 71
f 82 87 84
f 71 70 82
f 70 87 82
f 20 3 18
f 1 13 12
f 85 89 88
f 77 74 75
f 62 75 67
f 201 232 209
f 211 218 208
f 215 218 211
f 211 208 201
f 201 209 211
f 194 190 181
f 188 177 189
f 189 191 188
f 220 191 189
f 195 243 201
f 201 188 195
f 188 191 195
f 258 243 195
f 195 191 258
f 261 249 270
f 291 270 303
f 291 261 270
f 331 313 354
f 354 313 333
f 333 372 354
f 354 372 374
f 374 331 354
f 350 331 374
f 472 451 465
f 465 476 472
f 458 476 465
f 498 491 487
f 487 489 498
f 489 500 498
f 500 501 498
f 481 491 498
f 498 501 481
f 466 437 468
f 466 422 437
f 466 468 482
f 454 438 469
f 469 470 454
f 468 437 454
f 454 470 468
f 227 119 140
f 140 146 227
f 146 140 130
f 130 140 119
f 119 116 130
f 130 116 120
f 180 178 193
f 175 178 180
f 207 229 237
f 242 252 196
f 196 252 192
f 173 166 164
f 171 166 173
f 173 184 171
f 298 314 322
f 308 298 322
f 404 374 372
f 407 428 399
f 399 428 389
f 399 393 407
f 399 367 393
f 409 434 417
f 417 245 409
f 409 245 434
f 452 428 439
f 484 455 452
f 492 455 484
f 494 455 492
f 492 499 494
f 484 488 492
f 488 499 492
f 459 494 496
f 459 455 494
f 459 449 455
f 496 495 459
f 240 417 410
f 410 435 240
f 417 435 410
f 414 390 244
f 240 435 244
f 244 435 414
f 343 317 244
f 368 390 400
f 343 244 368
f 400 390 429
f 429 390 414
f 240 244 305
f 305 244 317
f 396 446 425
f 425 376 396
f 396 368 400
f 376 368 396
f 386 376 425
f 219 122 220
f 219 145 122
f 219 169 157
f 220 189 219
f 219 189 177
f 151 219 157
f 145 219 151
f 36 16 34
f 87 104 101
f 98 84 101
f 84 87 101
f 101 106 98
f 101 104 106
f 70 65 69
f 73 70 69
f 47 49 51
f 51 54 47
f 11 10 1
f 1 12 11
f 83 79 81
f 62 68 64
f 64 63 62
f 53 52 58
f 232 215 213
f 213 209 232
f 215 211 213
f 213 211 209
f 159 161 155
f 155 154 159
f 261 291 272
f 321 331 325
f 338 370 352
f 370 372 352
f 372 333 352
f 350 340 336
f 362 358 366
f 406 451 423
f 379 383 387
f 422 415 418
f 450 405 422
f 422 466 450
f 381 355 347
f 393 367 375
f 375 367 359
f 462 439 407
f 438 454 444
f 444 454 437
f 119 106 113
f 113 116 119
f 106 104 113
f 121 123 120
f 109 116 105
f 105 113 104
f 116 113 105
f 205 199 197
f 206 229 207
f 206 199 229
f 185 199 206
f 180 199 182
f 182 199 185
f 182 158 180
f 207 237 226
f 226 237 242
f 253 252 242
f 242 237 253
f 229 199 223
f 275 314 286
f 171 184 276
f 227 171 276
f 276 288 227
f 278 184 192
f 192 252 278
f 252 280 278
f 278 276 184
f 278 280 288
f 288 276 278
f 292 298 288
f 288 280 292
f 286 314 292
f 292 314 298
f 212 226 204
f 187 196 192
f 192 184 187
f 207 196 187
f 184 173 187
f 187 173 185
f 187 206 207
f 185 206 187
f 363 245 334
f 389 245 363
f 363 399 389
f 367 399 363
f 355 345 342
f 347 355 342
f 359 367 341
f 341 345 359
f 341 363 334
f 367 363 341
f 334 245 341
f 312 353 332
f 370 382 412
f 412 372 370
f 412 404 372
f 458 465 442
f 442 412 458
f 404 412 442
f 448 435 443
f 443 449 448
f 414 435 448
f 448 429 414
f 447 452 455
f 455 449 447
f 434 428 447
f 428 452 447
f 443 434 447
f 447 449 443
f 364 244 390
f 390 368 364
f 364 368 244
f 299 289 297
f 240 305 297
f 297 236 240
f 289 233 297
f 233 236 297
f 319 305 317
f 319 317 343
f 356 382 348
f 348 344 356
f 463 446 408
f 446 396 408
f 408 440 463
f 408 396 400
f 400 429 408
f 408 429 440
f 172 219 177
f 169 219 172
f 172 177 174
f 174 169 172
f 144 134 133
f 89 225 99
f 99 225 220
f 220 110 99
f 114 110 122
f 131 108 107
f 150 139 148
f 148 151 157
f 145 151 148
f 157 167 148
f 167 150 148
f 148 139 131
f 131 145 148
f 87 76 78
f 78 80 87
f 92 104 87
f 261 257 251
f 265 272 267
f 311 272 291
f 311 352 333
f 313 307 301
f 388 384 380
f 395 406 402
f 391 394 405
f 405 394 401
f 387 405 426
f 405 450 426
f 482 486 475
f 471 466 482
f 471 450 466
f 482 475 471
f 369 381 347
f 355 381 377
f 377 345 355
f 359 345 377
f 393 375 424
f 484 452 477
f 477 452 439
f 477 488 484
f 127 126 125
f 123 126 132
f 142 138 132
f 112 116 109
f 170 182 185
f 170 173 164
f 185 173 170
f 158 182 170
f 160 158 156
f 162 170 164
f 158 170 162
f 149 138 142
f 164 166 149
f 268 280 252
f 252 253 268
f 212 204 210
f 207 226 210
f 226 217 210
f 202 196 207
f 207 210 202
f 202 210 204
f 242 196 202
f 202 226 242
f 202 204 226
f 328 345 318
f 328 342 345
f 328 318 308
f 308 322 328
f 328 322 347
f 347 342 328
f 318 345 316
f 345 341 316
f 304 318 316
f 234 304 316
f 316 245 234
f 316 341 245
f 330 353 312
f 330 373 353
f 300 306 312
f 294 332 310
f 312 332 294
f 314 326 337
f 347 322 337
f 337 322 314
f 337 369 347
f 314 275 302
f 302 326 314
f 373 330 349
f 421 412 382
f 421 386 425
f 382 386 421
f 425 446 421
f 446 461 421
f 421 461 458
f 458 412 421
f 398 366 350
f 350 374 398
f 374 404 398
f 404 442 398
f 388 366 398
f 449 459 456
f 456 448 449
f 456 495 493
f 456 459 495
f 456 493 485
f 440 429 453
f 429 448 453
f 448 456 453
f 453 456 485
f 485 478 453
f 478 440 453
f 299 297 309
f 309 297 305
f 305 319 309
f 309 323 299
f 348 323 329
f 329 344 348
f 323 309 329
f 329 309 319
f 346 319 343
f 346 356 344
f 344 329 346
f 346 329 319
f 378 386 382
f 382 356 378
f 356 346 378
f 104 90 94
f 295 285 274
f 272 311 295
f 295 311 333
f 295 333 313
f 327 291 303
f 327 311 291
f 303 315 327
f 315 338 327
f 338 352 327
f 352 311 327
f 406 395 392
f 397 426 441
f 441 403 397
f 397 403 373
f 373 349 397
f 387 426 397
f 479 486 488
f 479 475 486
f 488 477 479
f 479 460 475
f 462 460 479
f 464 426 450
f 450 471 464
f 441 426 464
f 464 471 475
f 385 375 359
f 359 377 385
f 385 424 375
f 420 424 385
f 385 381 420
f 385 377 381
f 439 462 473
f 473 477 439
f 462 479 473
f 473 479 477
f 123 132 128
f 128 132 138
f 120 123 128
f 128 130 120
f 128 138 130
f 117 112 123
f 123 121 117
f 116 112 117
f 120 116 117
f 117 121 120
f 153 156 158
f 158 162 143
f 143 162 164
f 164 149 143
f 147 166 152
f 147 149 166
f 152 146 147
f 138 149 147
f 146 130 147
f 130 138 147
f 214 226 212
f 214 217 226
f 212 210 214
f 214 210 217
f 262 237 229
f 262 253 237
f 262 268 253
f 221 223 216
f 221 228 223
f 241 246 248
f 324 330 320
f 284 294 273
f 351 337 326
f 369 337 351
f 351 326 310
f 310 332 351
f 339 349 335
f 420 381 411
f 381 369 411
f 411 403 441
f 353 373 371
f 373 403 371
f 369 351 371
f 371 411 369
f 403 411 371
f 371 332 353
f 371 351 332
f 427 442 465
f 427 398 442
f 427 465 451
f 388 398 427
f 427 406 388
f 451 406 427
f 376 386 360
f 386 378 360
f 360 378 346
f 360 346 343
f 343 368 360
f 360 368 376
f 99 93 91
f 387 397 365
f 365 397 349
f 445 460 462
f 445 462 407
f 445 424 420
f 420 460 445
f 407 393 445
f 393 424 445
f 441 464 457
f 457 411 441
f 475 460 457
f 457 464 475
f 457 460 420
f 420 411 457
f 135 132 126
f 142 132 135
f 135 149 142
f 135 143 149
f 268 262 281
f 280 268 281
f 281 275 286
f 281 262 275
f 286 292 281
f 281 292 280
f 254 262 229
f 229 223 254
f 275 262 254
f 256 260 250
f 310 326 290
f 326 302 290
f 271 290 260
f 310 290 271
f 271 294 310
f 361 365 357
f 137 135 129
f 248 260 269
f 269 254 248
f 275 254 269
f 260 290 269
f 269 302 275
f 269 290 302
f 266 271 264
f 26 17 30
f 4 17 26
f 1 4 14
f 4 19 14
f 47 37 43
f 43 49 47
f 10 18 3
f 1 10 3
f 50 52 53
f 46 52 50
f 39 35 38
f 38 35 17
f 38 50 44
f 46 50 38
f 203 198 200
f 224 203 200
f 249 231 222
f 249 222 224
f 419 438 431
f 423 438 419
f 16 7 25
f 25 29 16
f 65 70 57
f 57 60 65
f 54 60 57
f 54 57 47
f 22 7 20
f 7 3 20
f 75 81 77
f 81 79 77
f 72 68 67
f 67 68 62
f 74 72 67
f 75 74 67
f 62 63 61
f 61 56 62
f 194 200 198
f 181 200 194
f 159 181 161
f 181 176 161
f 199 193 197
f 180 193 199
f 160 175 158
f 158 175 180
f 159 154 134
f 134 144 159
f 136 124 118
f 118 150 136
f 111 108 139
f 139 108 131
f 139 118 111
f 150 118 139
f 37 16 36
f 36 40 37
f 76 70 73
f 76 87 70
f 83 81 89
f 89 85 83
f 56 61 58
f 52 56 58
f 265 257 272
f 272 257 261
f 321 307 313
f 313 331 321
f 325 331 336
f 336 331 350
f 366 358 340
f 366 340 350
f 406 416 402
f 423 416 406
f 430 437 418
f 437 422 418
f 436 433 444
f 444 433 438
f 444 432 436
f 437 432 444
f 223 205 216
f 199 205 223
f 133 124 136
f 136 144 133
f 107 122 131
f 107 103 122
f 80 86 92
f 87 80 92
f 86 90 92
f 92 90 104
f 247 249 251
f 249 261 251
f 362 366 380
f 380 366 388
f 387 383 391
f 391 405 387
f 401 415 422
f 422 405 401
f 123 115 125
f 125 126 123
f 97 105 95
f 109 105 97
f 112 97 102
f 109 97 112
f 112 102 115
f 112 115 123
f 284 300 294
f 294 300 312
f 349 324 335
f 349 330 324
f 110 96 93
f 93 99 110
f 122 103 100
f 100 114 122
f 100 96 110
f 110 114 100
f 95 105 94
f 94 105 104
f 274 267 295
f 295 267 272
f 295 301 285
f 313 301 295
f 392 384 388
f 388 406 392
f 141 153 143
f 143 153 158
f 312 306 320
f 320 330 312
f 88 89 91
f 89 99 91
f 361 379 365
f 365 379 387
f 127 129 135
f 135 126 127
f 248 246 250
f 250 260 248
f 266 273 271
f 271 273 294
f 349 339 357
f 357 365 349
f 141 143 137
f 143 135 137
f 223 228 239
f 239 254 223
f 239 241 248
f 248 254 239
f 402 416 264
f 383 379 264
f 21 24 264
f 264 358 362
f 264 36 34
f 179 190 264
f 154 155 264
f 264 18 10
f 264 320 306
f 264 273 266
f 264 50 53
f 264 26 30
f 74 77 264
f 264 231 247
f 264 176 179
f 264 432 430
f 160 156 264
f 34 29 264
f 73 69 264
f 264 23 22
f 22 20 264
f 30 35 264
f 264 19 21
f 79 83 264
f 203 222 264
f 264 198 203
f 264 25 23
f 124 133 264
f 264 35 39
f 264 24 26
f 264 14 19
f 264 51 49
f 39 44 264
f 222 231 264
f 264 239 228
f 53 58 264
f 274 285 264
f 264 419 431
f 127 125 264
f 178 175 264
f 216 205 264
f 431 433 264
f 306 300 264
f 49 43 264
f 80 78 264
f 264 13 14
f 264 85 88
f 264 72 74
f 44 50 264
f 63 64 264
f 264 194 198
f 247 251 264
f 264 321 325
f 436 432 264
f 415 401 264
f 264 193 178
f 416 419 264
f 264 433 436
f 264 118 124
f 29 25 264
f 43 40 264
f 264 76 73
f 264 65 60
f 60 54 264
f 264 20 18
f 264 12 13
f 10 11 264
f 264 77 79
f 264 68 72
f 264 61 63
f 190 194 264
f 264 161 176
f 264 100 103
f 325 336 264
f 362 380 264
f 430 418 264
f 264 395 402
f 197 193 264
f 264 175 160
f 335 324 264
f 264 134 154
f 264 339 335
f 111 118 264
f 264 108 111
f 40 36 264
f 103 107 264
f 264 86 80
f 264 69 65
f 54 51 264
f 264 11 12
f 264 83 85
f 264 64 68
f 264 58 61
f 264 155 161
f 264 257 265
f 264 267 274
f 307 321 264
f 264 336 340
f 340 358 264
f 264 301 307
f 264 379 361
f 264 418 415
f 264 391 383
f 115 102 264
f 264 205 197
f 264 97 95
f 264 129 127
f 246 241 264
f 264 153 141
f 264 133 134
f 264 107 108
f 264 78 76
f 264 90 86
f 264 251 257
f 265 267 264
f 285 301 264
f 264 380 384
f 95 94 264
f 394 391 264
f 264 401 394
f 264 125 115
f 102 97 264
f 384 392 264
f 361 357 264
f 88 91 264
f 264 221 216
f 264 300 284
f 264 93 96
f 96 100 264
f 264 94 90
f 264 392 395
f 156 153 264
f 228 221 264
f 141 137 264
f 324 320 264
f 284 273 264
f 264 250 246
f 264 91 93
f 256 250 264
f 264 357 339
f 264 137 129
f 241 239 264
f 264 260 256
f 264 271 260
