v -0.009564685635 -2.28945737e-06 -0.001836352865
v -0.009522455744 -2.883548586e-05 -0.007146962918
v -0.009495456703 0.0009791033808 -0.001886228682
v -0.009494929574 -0.000983646838 -0.001886222512
v -0.009487178177 0.0007499197382 -0.007131522987
v -0.009475112893 -0.0008699068567 -0.007126723882
v -0.009369703941 0.001571280183 -0.007080976386
v -0.009337008931 -0.001733109006 -0.007067715749
v -0.009315702133 -0.001920662588 -0.004775216803
v -0.009309729075 -0.0001993040487 0.01171000531
v -0.009309648299 -0.0002214868493 0.01171000531
v -0.009309227537 -0.0002591020219 0.01171000531
v -0.009307309824 -0.0003342893423 0.01171000531
v -0.009299229831 0.001945990138 -0.002015538281
v -0.009299179604 -0.0004844475394 0.01171000531
v -0.009298182093 -0.001950424979 -0.002015534323
v -0.009274384426 0.0002946750054 0.01171000531
v -0.009263592091 -0.0009790821692 0.01171000531
v -0.009230178184 -0.001277358667 0.01171000531
v -0.009229007132 0.0008873585274 0.01171000531
v -0.00922060851 0.002011028584 0.0007200767286
v -0.009219079548 -0.001346711155 0.01171000531
v -0.009185589715 0.001119989269 0.01171000531
v -0.00918545803 -0.001521710493 0.01171000531
v -0.009157703258 0.002438054653 -0.006989090238
v -0.009109688923 -0.002594418125 -0.006968637928
v -0.009086458415 0.001601887543 0.01171000531
v -0.009086068519 -0.002005439423 0.01171000531
v -0.009034205228 0.002842803951 -0.004897862207
v -0.009032674134 -0.002847097348 -0.004897861741
v -0.00902882684 0.002838159679 -0.006932081189
v -0.008996585839 0.001940065191 0.01171000531
v -0.008995151753 -0.002350995801 0.01171000531
v -0.008993987925 0.002883816604 -0.002193886321
v -0.008992435411 -0.002888089279 -0.002193886321
v -0.008986533377 0.001976436767 0.01171000531
v -0.008849482052 0.003313019872 -0.0068517318
v -0.008844897705 0.002400146806 0.01171000531
v -0.008843232642 -0.002813530951 0.01171000531
v -0.008802503347 -0.00342571619 -0.006831253879
v -0.008661835454 0.003730169963 -0.005029570777
v -0.008659830317 -0.003734261263 -0.005029564258
v -0.0086510792 -0.003312718162 0.01171000531
v -0.008644165529 0.002912139345 0.01171000531
v -0.008597713895 0.003778036917 -0.002390832873
v -0.008510184474 0.004051650874 -0.006695885677
v -0.008476203094 -0.003718263038 0.01171000531
v -0.008452817307 0.003338788823 0.01171000531
v -0.008405658416 -0.004249813501 -0.006648177281
v -0.008364103135 -0.003930157644 0.01171000531
v -0.008213057183 0.00456522312 -0.005147261545
v -0.008210600354 -0.004569074605 -0.005147260148
v -0.00820142914 0.003788508505 0.01171000531
v -0.00812839251 0.004614103585 -0.002575953258
v -0.008074759506 0.00481370464 -0.006489393767
v -0.008039081545 -0.00451939797 0.01171000531
v -0.007983294736 0.004172904057 0.01171000531
v -0.007970251602 -0.004643318022 0.01171000531
v -0.007940430194 -0.005019188393 -0.006426824257
v -0.007855099706 -0.004825280032 0.01171000531
v -0.00785017243 0.004366444459 0.01171000531
v -0.007731863873 -0.004998847156 0.01171000531
v -0.007701293565 0.005334880203 -0.005227856804
v -0.007698425092 -0.005338458344 -0.005227854475
v -0.007638194269 -0.005130440292 0.01171000531
v -0.007613594676 0.004707907431 0.01171000531
v -0.007604006678 0.005377465859 -0.002718837233
v -0.007578158285 0.005521740299 -0.006244824268
v -0.007535022504 -0.005274970553 0.01171000531
v -0.007489136429 0.004866536076 0.01171000531
v -0.007439211477 -0.005696341861 -0.006174135953
v -0.007430854073 -0.005412521176 0.01171000531
v -0.007244998063 -0.005633880293 0.01171000531
v -0.00724315423 0.005161361885 0.01171000531
v -0.007143050921 0.00527397174 0.01171000531
v -0.007139973808 0.006026055664 -0.005248278379
v -0.007136734668 -0.00602933066 -0.005248283036
v -0.007133620728 -0.005761940063 0.01171000531
v -0.007088441402 0.006101074163 -0.005990533158
v -0.007047540433 0.005375204568 0.01171000531
v -0.007045952094 -0.005857687674 0.01171000531
v -0.007042541169 0.00605357578 -0.002789059654
v -0.007019471669 -0.005886344905 0.01171000531
v -0.006981358978 0.005439913692 0.01171000531
v -0.006956122159 -0.005950124628 0.01171000531
v -0.006901276764 -0.006296749692 -0.00589099247
v -0.006854581647 0.006146588363 -0.0005011638859
v -0.006831225387 -0.006070082065 0.01171000531
v -0.006793484509 -0.006103326209 0.01171000531
v -0.006730084151 0.00568363944 0.01171000531
v -0.006712986495 0.005699573216 0.01171000531
v -0.006600443413 -0.006260962355 0.01171000531
v -0.006585962859 0.005814126551 0.01171000531
v -0.006550986785 0.006630445831 -0.005699025467
v -0.006547421683 -0.006633404642 -0.005699018016
v -0.006519337186 -0.006317247102 0.01171000531
v -0.006472527421 0.005912163444 0.01171000531
v -0.006416913588 0.006640394218 -0.001969776116
v -0.006383579998 -0.006404897432 0.01171000531
v -0.006302359048 0.006682896055 -0.0005152971135
v -0.006270827726 0.006867899094 -0.005540502258
v -0.006176696547 -0.006526816816 0.01171000531
v -0.006155476895 -0.006538879324 0.01171000531
v -0.006107917987 0.006766194943 0.001320534502
v -0.005994463339 -0.007078988943 -0.005383889191
v -0.005951916799 0.006834979635 0.002593677724
v -0.005948679852 0.00635792535 0.01171000531
v -0.005929924757 -0.00665297783 0.01171000531
v -0.005852296948 0.007131537423 -0.003397754859
v -0.005848462693 -0.007134122774 -0.003397754161
v -0.005815453103 0.006469402707 0.01171000531
v -0.00577579625 0.007119588554 -0.001200113096
v -0.005714640487 0.006670770235 0.009549869224
v -0.005659359973 0.006955606397 0.004976216704
v -0.005622492637 0.007330977358 -0.005159924738
v -0.005618103961 -0.006791818983 0.01171000531
v -0.005496383179 0.00716355769 0.002696322277
v -0.005439970177 0.007014364004 0.007380580995
v -0.005393036641 0.007011380978 0.008229762316
v -0.005390002392 -0.007471274119 -0.005017887335
v -0.005352279719 -0.006898627022 0.01171000531
v -0.005332579055 0.006864276876 0.01171000531
v -0.005305963103 0.006894957274 0.0115521457
v -0.005303595557 0.006884236886 0.01171000531
v -0.005213816185 0.007189006079 0.006337754894
v -0.005181207509 0.006929894249 0.01171000531
v -0.005138413515 0.007503184956 -0.000963943603
v -0.005134380423 -0.007505384274 -0.0009639442433
v -0.005133913364 0.007153095677 0.008221048862
v -0.005130067002 -0.007155291736 0.008221046999
v -0.005102318572 -0.006985779523 0.01171000531
v -0.005096818056 -0.00698755885 0.01171000531
v -0.005095755681 0.007074851543 0.01017163694
v -0.005091953091 -0.007077028509 0.01017162669
v -0.005059833317 0.006973220115 0.01171000531
v -0.005007071886 0.007676599547 -0.004773129709
v -0.005002909806 0.007435237523 0.002882092493
v -0.004998912103 -0.007437364664 0.002882097149
v -0.004891320566 0.007033160644 0.01171000531
v -0.004863836803 0.007345061284 0.006469238084
v -0.004859889857 -0.007347113919 0.006469227839
v -0.004823237192 0.007164292037 0.01027241908
v -0.004819385242 -0.007166321389 0.01027242001
v -0.004750386812 -0.007798050065 -0.00460702274
v -0.00461393455 0.007857537828 -0.004511689302
v -0.004438390024 0.007822385058 -0.0006625581882
v -0.004434182774 -0.007824207656 -0.000662546081
v -0.00441649463 0.007680371869 0.003129941411
v -0.004412367474 -0.007682183292 0.003129933728
v -0.004401216283 -0.00794428587 -0.00436945539
v -0.004334719386 0.007969640195 -0.00431806175
v -0.0042139197 0.007235239426 0.01171000531
v -0.004170757368 -0.007259973324 0.01171000531
v -0.004153508568 -0.007264143996 0.01171000531
v -0.00412869151 0.007259831411 0.01171000531
v -0.004025626928 -0.008079585619 -0.004101389553
v -0.00385744404 0.007424450945 0.0106350109
v -0.003853454487 -0.007425961085 0.01063500158
v -0.003848544791 0.00733448379 0.01171000531
v -0.003844602781 -0.007335988438 0.01171000531
v -0.003798275022 0.007679455448 0.006897368003
v -0.003794147633 -0.007680934388 0.006897358689
v -0.003743377514 0.007894468494 0.003427137388
v -0.003739134874 -0.007895919494 0.003427132964
v -0.003678453155 0.008078893647 -0.0003116627922
v -0.003674110398 -0.008080307394 -0.0003116668668
v -0.003645044286 0.008195603266 -0.003811552655
v -0.003276025876 -0.008290406317 -0.003526552115
v -0.002994582755 0.008071340621 0.003759235609
v -0.002981916536 0.008353971876 -0.003279841738
v -0.002961090999 -0.008358251303 -0.003265860025
v -0.002863300033 0.008273708634 7.223033026e-05
v -0.002858852735 -0.00827468466 7.222643762e-05
v -0.002706299789 0.007588194426 0.01171000531
v -0.002702221604 -0.007589086523 0.01171000531
v -0.002556163818 -0.008429474197 -0.002909762552
v -0.002478483283 0.007635174992 0.01171000531
v -0.002474378682 -0.007635945087 0.01171000531
v -0.002474074485 0.007689194754 0.01113220025
v -0.002469940577 -0.007689963095 0.01113219559
v -0.002349698683 0.007963350974 0.007470948156
v -0.00234541879 -0.007964049466 0.007470943034
v -0.002266037976 0.008470148779 -0.002633829135
v -0.002181142103 0.008204802871 0.004111748189
v -0.002176732058 -0.008205411956 0.004111744463
v -0.001997631975 0.008407830261 0.0004726540647
v -0.001993112266 -0.008408340625 0.0004726531624
v -0.001855677766 -0.007710405827 0.01171000531
v -0.00184587657 -0.008515140973 -0.002216877649
v -0.001740087704 0.007723548854 0.01171000531
v -0.001735926329 -0.007723922748 0.01171000531
v -0.001659604954 -0.008529957384 -0.002016900573
v -0.001610043691 0.008533367887 -0.001956158085
v -0.001245896914 -0.008552092128 -0.001535333926
v -0.001027528895 0.00855798088 -0.001249765977
v -0.0008749080332 0.007813377104 0.01171000531
v -0.0008707082861 -0.007813284504 0.01171000531
v -0.0007220616098 0.008035403676 0.008863879368
v -0.0007177419029 -0.008035229519 0.00886388123
v -0.0007089233259 -0.008559050038 -0.0008085037116
v -0.0006498650182 0.008558439091 -0.0007125388947
v -0.0005234048506 -0.007803284984 0.01171000531
v -0.0005046441802 0.00855524838 -0.0004832034465
v -0.0004092720157 0.007812195408 0.01171000531
v -0.0004044387897 0.008316747844 0.004820090253
v -0.0003999674809 -0.008316402324 0.00482009491
v -0.0002577633131 0.008419144899 0.003003082471
v -0.0002532377839 -0.008418719284 0.003003080375
v -0.0002312454453 -0.008543523028 -1.360111492e-05
v -7.457528409e-05 0.008533422835 0.0003051180975
v -6.9988615e-05 -0.008532901295 0.0003051147214
v -3.201692607e-06 0.008527605794 0.0004611642216
v 1.383094059e-06 -0.008527037688 0.0004611681507
v 4.032429072e-05 0.007798403239 0.01171000531
v 6.742554979e-05 0.008521366864 0.0006171009736
v 7.200549589e-05 -0.008520768024 0.0006170975976
v 0.0001332131942 -0.007806079462 -0.003747241804
v 0.000181820229 -0.007798150182 -0.003745149355
v 0.0005077851843 0.007764885229 0.01171000531
v 0.0005119570792 -0.007764048756 0.01171000531
v 0.0006901610759 0.007934647612 0.009629110806
v 0.0006944250199 -0.007933713496 0.009629100561
v 0.0007389572565 -0.007683518343 -0.00367554347
v 0.0007403225172 0.006883182097 -0.003676197026
v 0.0007417902234 0.008500701748 0.000617976184
v 0.0009221934575 0.007700020612 0.01171000531
v 0.0010237979 0.008148152381 0.006567522883
v 0.001028177096 -0.008147039451 0.006567515433
v 0.001181714333 -0.007645268813 0.01171000531
v 0.001251903479 -0.008465561084 0.0006190604181
v 0.001277303905 -0.007529771887 -0.003525641747
v 0.001339867711 -0.003799999598 -0.003502457635
v 0.001340318006 -0.007508893963 -0.003502239706
v 0.001347929589 0.006706330925 -0.003499365179
v 0.001364517957 0.008322130889 0.003454420948
v 0.001368991449 -0.008320835419 0.003454429097
v 0.001449531153 0.007607706239 0.01171000531
v 0.001513840398 -0.007448172662 -0.003430872457
v 0.001600324709 0.007579296694 0.01171000531
v 0.001603441895 0.008433429524 0.0006204762612
v 0.001608247752 -0.008431636728 0.0006203039084
v 0.001795453252 -0.007339265198 -0.003291914007
v 0.001902288059 0.006494490895 -0.003231681418
v 0.001971848684 0.00748788214 0.01171000531
v 0.001975872992 -0.007486259251 0.01171000531
v 0.002197267488 0.007625072263 0.01007338054
v 0.002201364841 -0.007623328827 0.01007337309
v 0.002371411072 0.008316711523 0.0004129286099
v 0.002373531461 0.008330523036 0.0006239681388
v 0.00237562253 0.007364214964 0.01171000531
v 0.002379579059 -0.007362375322 0.01171000531
v 0.002654281678 0.007830752991 0.00705556618
v 0.002658491023 -0.007828762755 0.007055578288
v 0.002700564801 0.007251969349 0.01171000531
v 0.002704461115 -0.007249955488 0.01171000531
v 0.002864734503 -0.008226734586 0.00041584883
v 0.002867231146 -0.008239918388 0.0006266612327
v 0.00293767266 0.007372505032 0.01027810387
v 0.002941634273 -0.007370363921 0.0102780927
v 0.003089296166 0.007996042259 0.003952287603
v 0.003093593288 -0.007993818261 0.003952282015
v 0.003141456236 0.007072709605 0.01171000531
v 0.003145255642 -0.007070459533 0.01171000531
v 0.003421256093 0.006945344609 0.01171000531
v 0.003421624191 0.008117978461 0.0006303510745
v 0.00342498873 -0.006942943337 0.01171000531
v 0.003457516665 0.00757368654 0.007277013268
v 0.00346158701 -0.007571265567 0.007277015131
v 0.003661658615 0.007048987318 0.01047054678
v 0.003665445838 -0.00704645738 0.01047054213
v 0.003892023936 0.006700104416 0.01171000531
v 0.003895624313 -0.006697449518 0.01171000531
v 0.003938089125 0.007735061459 0.004171571229
v 0.003940665629 0.007839686237 8.200898446e-05
v 0.003942247014 -0.007732381579 0.004171579145
v 0.003960920498 0.007908726111 0.0002358913189
v 0.003965170588 -0.007906032726 0.0002359033824
v 0.003974730615 0.007955964655 0.0004220344708
v 0.003978051245 0.00796766486 0.0006344259018
v 0.003979032859 -0.007953355089 0.0004226109595
v 0.003982332535 -0.007964964956 0.0006344293943
v 0.004128604036 0.006563464883 0.01171000531
v 0.004132130032 -0.006560683054 0.01171000531
v 0.004174736794 0.007897157222 0.0008240879397
v 0.004178981297 -0.007894351147 0.000824095041
v 0.004224316217 0.007788137533 0.0001734360703
v 0.004228499252 -0.007785303053 0.0001734257094
v 0.004241774324 0.007244417444 0.007482965942
v 0.00424566865 -0.007241575047 0.007482978981
v 0.004257758148 0.007868885994 0.0005442259717
v 0.004261985887 -0.007866033353 0.0005442249239
v 0.004363484215 0.006650200114 0.01065023243
v 0.004367057234 -0.006647292059 0.01065022592
v 0.004460841417 0.007640900556 0.000110276902
v 0.004464946687 -0.007637939416 0.0001102799724
v 0.004513012245 0.007738173474 0.0004505202232
v 0.004517171066 -0.007735183463 0.0004505237157
v 0.004620689311 0.006241716293 0.01171000531
v 0.004624042249 -0.006238670035 0.01171000531
v 0.004764584824 0.007401268464 0.004372120835
v 0.004768562037 -0.007398144808 0.004372114316
v 0.004784743302 0.007396260742 5.560828868e-05
v 0.004788717721 -0.007393126376 5.560911086e-05
v 0.004816516142 0.006101656345 0.01171000531
v 0.004819793519 -0.006098504363 0.01171000531
v 0.004854890984 0.007489431184 0.0003248972353
v 0.004858915694 -0.007486259099 0.0003249048605
v 0.004998824093 0.006837976165 0.007673093118
v 0.005002499092 -0.006834726781 0.007673095912
v 0.005037407391 0.00617182022 0.01081665326
v 0.005040723365 -0.006168549415 0.01081664953
v 0.005095372442 0.007502803113 0.001639873604
v 0.00509951869 -0.007499203086 0.00163995917
v 0.00516733015 0.007091368549 5.584207611e-05
v 0.005171139259 -0.007088027894 5.583298844e-05
v 0.005242296495 0.007180699147 0.0003251346352
v 0.005246154033 -0.007177319378 0.0003251268645
v 0.005320039094 0.005693005953 0.01171000531
v 0.005323101936 -0.005689582954 0.01171000531
v 0.005374481902 0.007349046413 0.00130788458
v 0.005378510337 -0.007345346268 0.001307978644
v 0.005478134503 0.005555196785 0.01171000531
v 0.005481121756 -0.005551689801 0.01171000531
v 0.005558854435 0.006989016198 0.004554665647
v 0.005562610459 -0.006985465996 0.004554659594
v 0.005597205367 0.007106826641 0.0009861853905
v 0.005601068493 -0.007103059907 0.0009862629231
v 0.005677664187 0.005609574262 0.01096931379
v 0.005680679809 -0.005605959333 0.01096932311
v 0.005720437039 0.006349394564 0.007847050205
v 0.005723848939 -0.006345756818 0.007847051136
v 0.00595107954 0.005994055886 -0.0002089745831
v 0.005979857806 0.005053885895 0.01171000531
v 0.005982570105 -0.005050108819 0.01171000531
v 0.00602674624 0.006962154992 0.002431878587
v 0.006030737888 -0.00695765391 0.002432062058
v 0.006102962995 0.004924477376 0.01171000531
v 0.006105607739 -0.004920633163 0.01171000531
v 0.006130677182 0.006153739057 5.641812822e-05
v 0.006132058334 0.00676948484 0.001463016379
v 0.006133983377 -0.006149880588 5.641692769e-05
v 0.00613569608 -0.006765624974 0.001463012071
v 0.006217779592 0.006231256761 0.0003257175849
v 0.006221127696 -0.006227352191 0.0003257231729
v 0.00627156347 0.006791537628 0.002082180465
v 0.006275396794 -0.006787030492 0.002082360443
v 0.006275972351 0.004964481574 0.01110731624
v 0.006278639659 -0.004960543942 0.01110731065
v 0.006310973316 0.006492662709 0.004719979595
v 0.006314460654 -0.006488707382 0.004719973076
v 0.006398372352 0.005773757584 0.008004518226
v 0.006401474588 -0.005769753829 0.00800452102
v 0.00645030709 0.00653955806 0.001741770539
v 0.006453924347 -0.006535076536 0.001741933986
v 0.00658397081 0.004334755356 0.01171000531
v 0.006586301365 -0.004330654415 0.01171000531
v 0.006644680165 0.005714643747 0.0003259727091
v 0.006647752132 -0.00571050914 0.0003259849909
v 0.006674765396 0.004219687715 0.01171000531
v 0.006677033036 -0.004215538427 0.01171000531
v 0.00674739806 0.004954589531 -0.0002084934094
v 0.00675005978 -0.004950401839 -0.0002084976004
v 0.006819334812 0.004247438163 0.01122893114
v 0.006821616553 -0.004243211355 0.01122893486
v 0.006948210765 0.005086579826 5.690784019e-05
v 0.006950943265 -0.0050822841 5.691315164e-05
v 0.006964189 0.006222827826 0.003159719752
v 0.006967888679 -0.006217514165 0.003159976797
v 0.007011012174 0.0059066182 0.00486880308
v 0.007014186587 -0.005902287085 0.00486880308
v 0.007023305632 0.005111807957 0.008144861087
v 0.007026051171 -0.005107471254 0.008144855499
v 0.007045611273 0.005150654819 0.0003262159589
v 0.007047662511 0.006033995189 0.00224755099
v 0.007048378699 -0.005146306939 0.0003262234677
v 0.007050597575 -0.006029472686 0.002247433411
v 0.007114131823 0.003550198606 0.01171000531
v 0.007116041683 -0.003545812629 0.01171000531
v 0.007153753191 0.006053377409 0.002789975377
v 0.007157261483 -0.00604813965 0.002790210769
v 0.007177116826 0.003452439033 0.01171000531
v 0.007178973868 -0.003448020681 0.01171000531
v 0.007270575967 0.005815336946 0.002427990548
v 0.007273850963 -0.005810215138 0.002428208478
v 0.007294243667 0.003470433177 0.01133241877
v 0.007296108641 -0.003465951653 0.01133242436
v 0.007384924684 0.00381083414 -0.000208110825
v 0.007386972196 -0.003806303255 -0.0002081091661
v 0.00755326286 0.002715195159 0.01171000531
v 0.007554718343 -0.002710573983 0.01171000531
v 0.007577489596 0.004231286235 0.0003265391861
v 0.007579762023 -0.004226651974 0.0003265371779
v 0.007583885919 0.004374879412 0.008266923018
v 0.007586236577 -0.004370241426 0.008266925812
v 0.007594095783 0.002634694365 0.01171000531
v 0.007595508255 -0.002630049625 0.01171000531
v 0.007602721453 0.003912354819 5.730527482e-05
v 0.007604822516 -0.003907707985 5.730371413e-05
v 0.007623770935 0.002554737322 0.01171000531
v 0.007625141348 -0.002550075162 0.01171000531
v 0.007649132516 0.00523131853 0.005001291167
v 0.007651941385 -0.005226646084 0.005001279991
v 0.007687190082 0.002645453671 0.01141601149
v 0.007688610349 -0.002640759107 0.01141600497
v 0.007708367426 0.003961639944 0.0003266162239
v 0.007710495498 -0.003956933971 0.0003266232379
v 0.007837442681 0.005270813592 0.003773689736
v 0.007841827348 -0.005264082458 0.003775474848
v 0.007850239985 0.002586866496 -0.0002078316611
v 0.007851629518 -0.002582085785 -0.0002078195976
v 0.007910273369 0.001778720221 0.01171000531
v 0.007910510525 2.407300599e-06 -0.0003713735496
v 0.007911230921 -0.001773908116 0.01171000531
v 0.007925350909 0.001713308663 0.01171000531
v 0.007926272454 -0.001708490117 0.01171000531
v 0.007972173393 0.005116515327 0.003386275144
v 0.007975997403 -0.005109974183 0.003388003912
v 0.007984659635 0.001784477499 0.01147789601
v 0.007985617965 -0.001779625425 0.01147790346
v 0.008028868586 0.004907339346 0.003005340695
v 0.00803205464 -0.004901021253 0.003007028718
v 0.008068541065 0.003575461917 0.008369523101
v 0.008070461452 -0.003570561996 0.008369517513
v 0.008080432191 0.00265577971 5.759264604e-05
v 0.008081858978 -0.00265087653 5.759170381e-05
v 0.008110729462 0.0008970673524 0.01171000531
v 0.008111210866 -0.0008921441651 0.01171000531
v 0.008117422715 0.0008290579431 0.01171000531
v 0.008117867759 -0.0008241320564 0.01171000531
v 0.008133549243 0.001308450825 -0.0002076526434
v 0.008134250529 -0.001303516445 -0.0002076552046
v 0.008173147216 0.0008994983509 0.01151634566
v 0.008173629642 -0.0008945415611 0.01151634753
v 0.008182080086 2.480615109e-06 0.01171000531
v 0.008192096837 0.002689235611 0.0003269172739
v 0.008193540387 -0.002684271429 0.0003269086592
v 0.008215645328 0.004478451796 0.005116447341
v 0.008218050003 -0.004473474342 0.005116438027
v 0.008228888735 2.492106432e-06 -0.0002075900265
v 0.008239138871 2.496100706e-06 0.01152954809
v 0.008252964355 0.004578012973 0.003169196891
v 0.008255070075 -0.004572920036 0.003170915879
v 0.008371288888 0.001343305688 5.777790648e-05
v 0.008372010663 -0.001338244416 5.777495971e-05
v 0.008465697058 0.002726043109 0.008451418951
v 0.008467160165 -0.002720930846 0.008451416157
v 0.008469168097 2.556461823e-06 5.78380459e-05
v 0.008486616425 0.001360226306 0.0003270926827
v 0.008487346582 -0.001355103916 0.0003270880261
v 0.008539599366 2.575257895e-06 0.01045940258
v 0.008544497192 0.0008787178085 0.0003271272581
v 0.008544968441 -0.0008735611918 0.0003271285095
v 0.008571238257 0.00416051643 0.004275566433
v 0.008575801738 -0.004152991343 0.004278616048
v 0.008585728705 2.588509233e-06 0.0003271538008
v 0.008667263202 0.004022144713 0.003875603667
v 0.008670900017 -0.004014816135 0.003878572723
v 0.008679830469 0.003841236001 0.003481382504
v 0.008682568558 -0.003834155388 0.003484264249
v 0.008700883947 0.003660937538 0.005213160999
v 0.008702849969 -0.003655700246 0.005213152617
v 0.008763778955 0.001839117147 0.008511414751
v 0.008764766157 -0.001833845396 0.008511408232
v 0.008951215073 0.0009271747549 0.008548297919
v 0.008951711468 -0.0009218014893 0.008548293263
v 0.009016430937 2.702990287e-06 0.008560857736
v 0.009095179848 0.002791701583 0.005290322006
v 0.009096677415 -0.002786251483 0.005290313158
v 0.009112541564 0.002861229936 0.003812812502
v 0.009113899432 -0.002854784718 0.003813122865
v 0.009147374891 0.002913859673 0.00468376372
v 0.009149043821 -0.00290686707 0.004684050102
v 0.009186930954 0.002652213443 0.00387231377
v 0.009188108146 -0.002645750064 0.003872566856
v 0.009210508317 0.002797747264 0.004275445361
v 0.009211974218 -0.002790996572 0.004275696352
v 0.00938500464 2.801811661e-06 0.00681314012
v 0.009388862178 0.001883663004 0.005346805323
v 0.009389872663 -0.001878053532 0.005346809514
v 0.009518209845 0.001363455551 0.004152485635
v 0.009519822896 -0.001354800072 0.004156665877
v 0.009533977136 0.001527964603 0.00497420691
v 0.009538139217 -0.001518393517 0.004978605546
v 0.009569648653 0.001453303499 0.004560953472
v 0.009572263807 0.0009497453575 0.005381514784
v 0.009572499432 -0.001444169437 0.004565239418
v 0.009572773241 -0.0009440386784 0.005381517112
v 0.009576609358 0.0009767225711 0.004206916783
v 0.009577563964 -0.0009711642633 0.004209938925
v 0.009607935324 0.0006887561758 0.004237371031
v 0.009608770721 -0.0006816441892 0.00423943717
v 0.009639460593 2.87062835e-06 0.004269269295
v 0.009643533267 0.0007807891816 0.00506194029
v 0.009645613842 -0.0007732645608 0.005064107943
v 0.009668912739 0.0007386301295 0.00464734016
v 0.009670439176 -0.0007312870584 0.004649465438
v 0.009683261625 2.883680736e-06 0.005094884429
v 0.009704332799 2.888412155e-06 0.004679797217
f 466 477 464
f 222 228 253
f 1 5 2
f 55 68 224
f 9 16 4
f 220 202 222
f 478 464 485
f 485 464 477
f 275 313 301
f 234 2 5
f 234 37 224
f 481 486 474
f 489 486 481
f 313 297 321
f 34 29 14
f 14 29 25
f 2 234 231
f 101 115 224
f 224 94 101
f 224 68 79
f 79 94 224
f 224 37 46
f 46 55 224
f 44 34 38
f 1 11 10
f 19 18 4
f 19 4 22
f 16 33 28
f 77 71 86
f 257 236 241
f 241 236 230
f 241 256 257
f 241 230 200
f 208 187 200
f 180 158 182
f 200 187 194
f 194 241 200
f 256 241 194
f 440 433 450
f 466 464 450
f 486 489 496
f 465 477 466
f 466 450 465
f 465 450 433
f 495 484 493
f 493 485 477
f 301 313 325
f 285 275 281
f 313 275 285
f 257 281 261
f 281 275 261
f 261 275 253
f 261 236 257
f 261 253 228
f 228 236 261
f 238 234 412
f 7 234 5
f 25 234 7
f 7 14 25
f 294 234 224
f 37 234 31
f 31 234 25
f 31 29 37
f 25 29 31
f 490 495 498
f 498 492 490
f 491 496 489
f 491 492 498
f 498 496 491
f 291 285 281
f 291 297 313
f 313 285 291
f 280 281 257
f 257 256 280
f 280 291 281
f 86 71 223
f 223 71 59
f 59 49 223
f 277 280 223
f 256 218 223
f 223 280 256
f 34 14 21
f 3 17 20
f 3 5 1
f 3 7 5
f 14 7 3
f 8 231 26
f 26 9 8
f 8 9 4
f 233 234 238
f 287 280 277
f 277 223 287
f 287 223 231
f 297 291 287
f 291 280 287
f 76 79 68
f 41 46 37
f 41 34 45
f 37 29 41
f 41 29 34
f 55 46 51
f 51 41 45
f 46 41 51
f 67 76 68
f 1 15 13
f 22 4 24
f 40 49 42
f 26 231 40
f 231 223 40
f 40 223 49
f 52 49 59
f 206 236 228
f 206 208 236
f 187 208 206
f 230 236 216
f 236 208 216
f 216 213 230
f 208 213 216
f 182 158 162
f 158 143 162
f 162 143 164
f 173 164 166
f 166 156 168
f 168 173 166
f 171 173 168
f 167 170 224
f 224 151 167
f 145 127 146
f 146 151 145
f 145 151 224
f 224 170 183
f 183 274 224
f 186 193 183
f 195 193 186
f 195 207 201
f 186 207 195
f 383 373 357
f 260 249 235
f 235 227 260
f 260 227 252
f 260 265 249
f 174 177 179
f 225 207 235
f 179 177 190
f 179 198 181
f 198 184 181
f 205 207 186
f 186 184 205
f 205 184 198
f 198 227 205
f 235 207 205
f 205 227 235
f 477 465 487
f 482 493 484
f 485 493 482
f 478 485 482
f 482 471 478
f 498 495 497
f 495 493 497
f 497 493 477
f 497 496 498
f 396 404 400
f 463 433 419
f 463 465 433
f 429 427 433
f 415 413 419
f 245 229 247
f 222 253 247
f 270 259 289
f 301 325 289
f 336 325 313
f 336 321 346
f 313 321 336
f 350 325 336
f 457 454 417
f 365 361 332
f 357 373 365
f 361 365 387
f 405 435 424
f 424 430 409
f 409 430 243
f 243 387 409
f 243 430 439
f 361 387 243
f 439 412 243
f 243 412 234
f 332 361 243
f 224 274 286
f 286 294 224
f 296 294 286
f 474 470 436
f 436 470 459
f 346 321 327
f 459 457 442
f 417 421 442
f 442 457 417
f 128 120 144
f 218 120 105
f 14 27 32
f 23 3 20
f 2 231 6
f 231 8 6
f 6 8 4
f 6 4 1
f 1 2 6
f 232 231 234
f 234 233 232
f 232 233 231
f 68 55 63
f 63 67 68
f 12 11 1
f 1 13 12
f 83 86 85
f 73 72 71
f 62 60 59
f 42 35 30
f 30 40 42
f 26 40 30
f 30 35 16
f 30 9 26
f 16 9 30
f 43 39 35
f 199 228 222
f 199 206 228
f 199 180 182
f 200 230 209
f 209 208 200
f 185 173 187
f 187 206 185
f 164 173 185
f 185 199 182
f 206 199 185
f 182 162 185
f 185 162 164
f 180 191 188
f 178 180 188
f 175 180 178
f 154 153 158
f 158 160 154
f 192 194 187
f 187 189 192
f 256 194 192
f 192 218 256
f 192 189 218
f 187 173 176
f 176 189 187
f 176 173 171
f 403 418 445
f 432 450 464
f 426 428 432
f 440 450 432
f 445 418 462
f 462 464 478
f 462 432 464
f 418 432 462
f 377 381 385
f 146 127 137
f 115 127 136
f 127 145 136
f 224 115 136
f 136 145 224
f 274 183 276
f 276 183 193
f 276 286 274
f 240 195 201
f 201 225 240
f 235 249 240
f 240 225 235
f 478 471 467
f 467 462 478
f 445 462 467
f 458 435 405
f 458 469 435
f 306 294 296
f 296 320 306
f 286 276 278
f 198 196 204
f 221 214 219
f 252 227 221
f 221 227 198
f 477 487 494
f 494 497 477
f 496 497 494
f 486 496 494
f 465 463 479
f 390 404 396
f 268 247 253
f 259 247 268
f 253 275 268
f 268 289 259
f 268 275 301
f 301 289 268
f 259 255 251
f 270 266 263
f 408 380 417
f 438 402 408
f 408 454 438
f 417 454 408
f 391 365 373
f 409 387 397
f 397 424 409
f 405 424 397
f 397 391 405
f 397 387 365
f 365 391 397
f 435 469 473
f 473 484 480
f 430 424 443
f 488 451 480
f 490 451 488
f 495 490 488
f 480 484 488
f 488 484 495
f 455 490 492
f 455 451 490
f 492 491 455
f 425 436 398
f 398 388 425
f 425 388 410
f 410 431 425
f 481 474 449
f 474 436 449
f 436 425 449
f 354 380 346
f 354 376 380
f 384 421 417
f 417 380 384
f 380 376 384
f 217 120 218
f 217 144 120
f 217 168 156
f 171 168 217
f 217 176 171
f 218 189 217
f 189 176 217
f 150 217 156
f 144 217 150
f 149 143 134
f 164 143 149
f 166 164 149
f 376 354 344
f 76 67 82
f 94 79 82
f 79 76 82
f 54 51 45
f 67 63 54
f 54 57 61
f 55 51 54
f 54 63 55
f 45 48 53
f 67 66 70
f 86 83 81
f 59 71 64
f 230 213 211
f 211 209 230
f 211 213 208
f 208 209 211
f 143 132 131
f 418 411 414
f 169 181 184
f 113 119 106
f 129 137 125
f 125 119 129
f 125 137 127
f 371 393 401
f 422 393 385
f 385 403 422
f 422 403 445
f 401 393 437
f 393 422 437
f 374 383 357
f 357 343 374
f 374 343 353
f 401 437 407
f 294 306 302
f 234 294 302
f 357 365 339
f 339 343 357
f 339 365 332
f 332 243 339
f 316 343 339
f 353 343 340
f 345 353 340
f 246 239 244
f 246 267 252
f 246 258 267
f 248 276 193
f 248 278 276
f 193 195 248
f 249 265 248
f 265 278 248
f 248 240 249
f 195 240 248
f 201 207 203
f 203 225 201
f 207 225 215
f 215 212 207
f 225 212 215
f 226 221 219
f 486 494 483
f 483 494 487
f 483 487 465
f 465 479 483
f 438 454 461
f 461 423 438
f 386 423 404
f 438 423 394
f 394 402 438
f 372 402 394
f 394 348 372
f 423 386 394
f 404 423 446
f 419 404 446
f 446 463 419
f 423 461 446
f 272 293 283
f 309 293 270
f 270 289 309
f 309 289 325
f 309 325 350
f 370 408 402
f 370 402 372
f 372 352 370
f 484 473 475
f 475 482 484
f 471 482 475
f 475 473 469
f 456 471 475
f 475 458 456
f 469 458 475
f 448 424 435
f 448 443 424
f 451 443 448
f 480 451 448
f 448 473 480
f 435 473 448
f 444 425 431
f 444 449 425
f 447 443 451
f 451 455 447
f 439 430 447
f 430 443 447
f 447 431 439
f 447 444 431
f 362 388 398
f 398 366 362
f 242 366 341
f 341 315 242
f 242 362 366
f 242 303 238
f 315 303 242
f 388 362 242
f 410 388 242
f 242 431 410
f 439 431 242
f 238 412 242
f 242 412 439
f 392 366 398
f 392 442 421
f 452 491 489
f 452 489 481
f 481 449 452
f 452 455 491
f 452 447 455
f 449 444 452
f 444 447 452
f 346 327 342
f 342 354 346
f 327 344 342
f 342 344 354
f 86 223 95
f 95 223 218
f 218 105 95
f 110 105 120
f 134 130 141
f 141 149 134
f 141 130 138
f 138 149 141
f 147 149 138
f 144 150 147
f 147 150 156
f 147 138 128
f 128 144 147
f 147 156 166
f 166 149 147
f 297 287 295
f 238 303 295
f 295 233 238
f 231 233 295
f 295 287 231
f 317 303 315
f 317 344 327
f 317 315 341
f 341 344 317
f 341 366 358
f 358 344 341
f 358 384 376
f 376 344 358
f 75 82 74
f 98 101 94
f 94 82 98
f 98 82 87
f 87 100 98
f 65 64 69
f 56 50 49
f 389 395 403
f 403 395 399
f 123 133 129
f 129 119 123
f 123 122 124
f 146 137 148
f 148 133 142
f 179 181 157
f 181 169 157
f 172 183 170
f 186 183 172
f 172 184 186
f 172 169 184
f 112 127 115
f 104 106 112
f 112 100 104
f 369 371 401
f 369 349 330
f 367 349 369
f 401 407 369
f 369 407 367
f 385 393 363
f 460 467 471
f 460 437 422
f 445 467 460
f 460 422 445
f 383 374 379
f 367 407 379
f 345 367 379
f 379 353 345
f 379 374 353
f 345 320 335
f 324 349 335
f 335 367 345
f 335 349 367
f 267 258 288
f 258 269 288
f 453 407 437
f 437 460 453
f 453 471 456
f 453 460 471
f 416 453 456
f 407 453 416
f 383 379 416
f 416 379 407
f 316 339 314
f 314 306 316
f 314 302 306
f 314 339 243
f 314 243 234
f 234 302 314
f 316 306 326
f 326 306 320
f 326 343 316
f 326 340 343
f 326 320 345
f 345 340 326
f 250 254 258
f 264 269 262
f 279 278 265
f 265 260 279
f 252 267 273
f 273 260 252
f 273 279 260
f 284 279 273
f 207 212 210
f 210 203 207
f 210 212 225
f 225 203 210
f 454 457 472
f 472 461 454
f 472 483 479
f 378 386 382
f 364 394 386
f 348 394 364
f 331 309 350
f 350 370 331
f 331 370 352
f 352 311 331
f 331 311 293
f 293 309 331
f 348 338 334
f 299 311 305
f 329 311 352
f 372 348 329
f 329 352 372
f 380 408 368
f 408 370 368
f 368 370 350
f 350 336 368
f 346 380 368
f 368 336 346
f 459 442 406
f 442 392 406
f 406 436 459
f 398 436 406
f 406 392 398
f 128 103 102
f 297 295 307
f 307 295 303
f 303 317 307
f 307 317 327
f 307 321 297
f 307 327 321
f 366 392 375
f 375 358 366
f 384 358 375
f 421 384 375
f 375 392 421
f 100 90 91
f 87 80 84
f 133 126 135
f 129 133 140
f 133 148 140
f 140 137 129
f 140 148 137
f 163 148 142
f 169 172 163
f 155 157 152
f 159 157 155
f 114 106 119
f 114 112 106
f 115 101 109
f 109 112 115
f 101 98 109
f 109 98 100
f 100 112 109
f 371 328 347
f 393 371 347
f 347 363 393
f 330 292 310
f 351 328 371
f 351 369 330
f 371 369 351
f 330 310 351
f 351 310 328
f 269 292 308
f 308 288 269
f 324 288 308
f 308 292 330
f 330 349 308
f 308 349 324
f 456 458 441
f 441 416 456
f 441 458 405
f 405 391 441
f 290 279 284
f 278 279 290
f 296 286 290
f 286 278 290
f 284 273 312
f 312 290 284
f 312 320 296
f 296 290 312
f 312 335 320
f 324 335 312
f 476 472 457
f 459 470 476
f 476 457 459
f 476 470 474
f 476 474 486
f 486 483 476
f 483 472 476
f 468 472 479
f 468 479 463
f 463 446 468
f 468 446 461
f 461 472 468
f 356 364 360
f 319 329 323
f 95 89 88
f 142 157 161
f 161 163 142
f 161 157 169
f 169 163 161
f 165 163 172
f 170 167 165
f 165 172 170
f 165 151 146
f 165 167 151
f 146 148 165
f 148 163 165
f 112 114 117
f 127 112 117
f 117 125 127
f 119 125 117
f 271 282 292
f 318 322 328
f 337 347 333
f 304 310 298
f 420 391 373
f 420 441 391
f 373 383 420
f 383 416 420
f 416 441 420
f 324 312 300
f 300 312 273
f 300 288 324
f 267 288 300
f 300 273 267
f 118 114 119
f 119 117 118
f 118 117 114
f 359 363 355
f 1 4 15
f 4 18 15
f 36 38 21
f 21 38 34
f 3 10 17
f 1 10 3
f 48 34 44
f 45 34 48
f 4 16 24
f 16 28 24
f 39 33 16
f 16 35 39
f 190 198 179
f 190 196 198
f 419 413 400
f 400 404 419
f 429 433 440
f 440 434 429
f 419 433 415
f 433 427 415
f 247 229 220
f 247 220 222
f 36 21 32
f 32 21 14
f 23 27 14
f 14 3 23
f 71 77 73
f 77 78 73
f 59 60 58
f 58 52 59
f 43 42 47
f 43 35 42
f 202 197 199
f 222 202 199
f 197 191 199
f 199 191 180
f 158 153 132
f 132 143 158
f 158 180 175
f 175 160 158
f 432 428 434
f 432 434 440
f 221 204 214
f 198 204 221
f 245 247 251
f 251 247 259
f 263 259 270
f 263 255 259
f 61 66 54
f 54 66 67
f 53 54 45
f 57 54 53
f 74 82 70
f 70 82 67
f 81 78 77
f 81 77 86
f 72 69 64
f 71 72 64
f 47 42 50
f 42 49 50
f 131 121 134
f 134 143 131
f 426 432 414
f 414 432 418
f 386 390 382
f 404 390 386
f 272 266 270
f 270 293 272
f 299 283 311
f 283 293 311
f 134 121 116
f 116 130 134
f 138 130 116
f 116 108 138
f 138 108 103
f 128 138 103
f 87 82 75
f 75 80 87
f 107 119 113
f 107 111 119
f 65 62 59
f 59 64 65
f 52 58 56
f 49 52 56
f 385 381 389
f 389 403 385
f 399 411 418
f 418 403 399
f 119 111 123
f 111 122 123
f 126 123 124
f 133 123 126
f 139 152 157
f 142 139 157
f 159 174 157
f 157 174 179
f 359 377 363
f 363 377 385
f 250 246 244
f 258 246 250
f 262 269 258
f 258 254 262
f 237 246 252
f 239 246 237
f 252 221 237
f 221 226 237
f 364 378 360
f 386 378 364
f 329 334 323
f 348 334 329
f 105 92 89
f 89 95 105
f 120 99 96
f 96 110 120
f 96 92 105
f 105 110 96
f 102 99 120
f 102 120 128
f 91 93 104
f 104 100 91
f 84 100 87
f 84 90 100
f 104 93 97
f 97 106 104
f 97 107 113
f 113 106 97
f 135 139 142
f 142 133 135
f 347 322 333
f 328 322 347
f 356 338 348
f 348 364 356
f 319 305 311
f 311 329 319
f 85 86 88
f 86 95 88
f 271 269 264
f 271 292 269
f 318 310 304
f 328 310 318
f 292 282 298
f 298 310 292
f 355 19 22
f 20 17 355
f 355 429 434
f 177 174 355
f 355 53 48
f 355 283 299
f 355 400 413
f 74 70 355
f 78 81 355
f 47 50 355
f 36 32 355
f 22 24 355
f 355 229 245
f 153 154 355
f 355 56 58
f 355 390 396
f 355 48 44
f 355 263 266
f 44 38 355
f 355 10 11
f 72 73 355
f 60 62 355
f 202 220 355
f 355 197 202
f 355 318 304
f 355 190 177
f 355 428 426
f 61 57 355
f 355 38 36
f 17 10 355
f 355 15 18
f 18 19 355
f 355 28 33
f 11 12 355
f 220 229 355
f 355 43 47
f 178 188 355
f 139 135 355
f 381 377 355
f 219 214 355
f 434 428 355
f 239 237 355
f 413 415 355
f 299 305 355
f 266 272 355
f 355 23 20
f 333 322 355
f 355 13 15
f 355 24 28
f 355 83 85
f 355 69 72
f 33 39 355
f 355 191 197
f 355 175 178
f 121 131 355
f 85 88 355
f 355 174 159
f 355 250 244
f 196 190 355
f 396 400 355
f 355 204 196
f 427 429 355
f 355 415 427
f 355 226 219
f 245 251 355
f 323 334 355
f 355 32 27
f 27 23 355
f 355 96 99
f 355 66 61
f 355 12 13
f 355 84 80
f 355 73 78
f 124 122 355
f 355 58 60
f 39 43 355
f 355 132 153
f 355 188 191
f 160 175 355
f 355 154 160
f 426 414 355
f 355 377 359
f 244 239 355
f 214 204 355
f 382 390 355
f 355 251 255
f 255 263 355
f 355 319 323
f 355 116 121
f 355 75 74
f 57 53 355
f 355 70 66
f 99 102 355
f 355 81 83
f 355 65 69
f 355 131 132
f 355 414 411
f 355 389 381
f 411 399 355
f 159 155 355
f 355 126 124
f 264 262 355
f 355 272 283
f 360 378 355
f 108 116 355
f 355 103 108
f 80 75 355
f 93 91 355
f 111 107 355
f 355 122 111
f 62 65 355
f 50 56 355
f 395 389 355
f 355 399 395
f 355 152 139
f 355 97 93
f 254 250 355
f 355 262 254
f 355 237 226
f 355 378 382
f 355 334 338
f 355 356 360
f 355 89 92
f 92 96 355
f 355 102 103
f 355 91 90
f 90 84 355
f 107 97 355
f 355 135 126
f 355 155 152
f 355 337 333
f 355 271 264
f 338 356 355
f 305 319 355
f 355 88 89
f 282 271 355
f 322 318 355
f 304 298 355
f 355 298 282
f 363 347 355
f 347 337 355
