v -0.009353899397 -0.0002011897595 -0.00220553414
v -0.009288794361 0.001023764024 -0.002206892939
v -0.009278601967 -0.00151789852 -0.002207106911
v -0.009085735306 0.002267032629 -0.002211127663
v -0.009052101523 -0.002817214932 -0.002211825456
v -0.008728687651 0.003536559409 -0.002218565205
v -0.008691846393 -0.004044705071 -0.002219333081
v -0.008549986407 -0.0001860129269 0.01916116104
v -0.008541753516 -0.0005515905796 0.01940764673
v -0.008529075421 -0.0007598274387 0.01955952868
v -0.008481823839 0.0008089583134 0.01988630369
v -0.008425896056 -0.001558740507 0.02013959922
v -0.008362345397 0.001467219903 0.02036173828
v -0.008282927796 0.001783621032 0.02058803663
v -0.008233766071 -0.005161052104 -0.002228886355
v -0.008233766071 0.004758674186 -0.002228883095
v -0.008175231516 -0.002541170223 0.02084141225
v -0.008175230585 0.002141170437 0.02084141597
v -0.00803155452 -0.002940056147 0.02114953473
v -0.00789654348 0.002861833666 0.02143905871
v -0.007808174472 0.005588875618 -0.00223775371
v -0.007599178702 -0.006352594122 -0.002242113929
v -0.007545190863 -0.003949999809 0.02219254337
v -0.007545189466 0.003549998626 0.02219253965
v -0.007497219369 -0.006519963499 -0.002244237345
v -0.007261929568 0.003150001634 0.02280000225
v -0.007089506369 0.006736839656 -0.002252734499
v -0.006913737394 -0.00487617217 0.02354670316
v -0.006913735997 0.004476173315 0.0235467013
v -0.006867821328 0.007044011261 -0.002257362008
v -0.006745616905 -0.007607765961 -0.002259902889
v -0.006668797228 0.0065107462 0.02204542048
v -0.0066687949 -0.006913125049 0.02204541676
v -0.006667320617 -0.0069056754 0.02211620286
v -0.006666828413 0.00649667019 0.02213992365
v -0.006665278692 -0.006861084141 0.02221413143
v -0.006665068679 0.006451062392 0.02222419344
v -0.006607423071 -0.0077838297 -0.002262788126
v -0.006272032857 -0.007396043278 0.02246922441
v -0.006261396687 -0.007472494617 0.02230053395
v -0.006223499775 0.007139227353 0.0207806658
v -0.006151295267 0.005297888536 0.02518175915
v -0.006151295267 -0.005697889719 0.02518175729
v -0.006063336506 0.008013274521 -0.002274125349
v -0.005881337449 -0.008606574498 -0.002277923748
v -0.005655982997 0.008427198976 -0.002282622969
v -0.005637082271 0.007771460805 0.02289672382
v -0.005615425762 0.007855720818 0.02273621783
v -0.005281020422 0.00826607272 0.0209050104
v -0.00527489977 0.005996790249 0.02706119604
v -0.00527489977 -0.006396791432 0.02706119791
v -0.005251793656 -0.00859207008 0.02317822538
v -0.005221980624 -0.008680848405 0.02302281931
v -0.005105410237 -0.009314287454 -0.002294099424
v -0.004844045732 0.009112880565 -0.00229954673
v -0.004844044801 -0.00951526314 -0.002299547661
v -0.004613920581 0.008798434399 0.02368724532
v -0.004567278549 0.008894090541 0.02354003116
v -0.00448639784 0.009358245879 -0.002307001501
v -0.004486397374 -0.009760626592 -0.002307002665
v -0.004369227216 -0.006925527938 0.02900342084
v -0.004304126836 0.006557264831 0.02914302237
v -0.004284029827 0.009197664447 0.02098091319
v -0.004256942309 -0.009621278383 0.0216674041
v -0.004181121942 0.009153312072 0.0240672268
v -0.004181120079 -0.009555691853 0.0240672268
v -0.00412016362 0.009253062308 0.02392513864
v -0.004120163154 -0.009655442089 0.02392513491
v -0.004117852543 -0.0001999995438 -0.004575037863
v -0.004115371034 -0.009981038049 -0.002314732643
v -0.004115370568 0.009578660131 -0.002314737532
v -0.004050812684 0.0004378428566 -0.004575038794
v -0.004050812218 -0.0008378422935 -0.004575042054
v -0.003965661395 0.009642080404 -0.002317855833
v -0.003884314792 -0.010065699 -0.002319547348
v -0.003857455682 0.009441701695 0.02416543849
v -0.003852622816 -0.001447806135 -0.004575037863
v -0.003852622118 0.001047807746 -0.004575041588
v -0.003727284726 0.009676937945 -0.002322823973
v -0.003655543784 -0.01007428765 -0.002324318746
v -0.003531944705 -0.002003236907 -0.004575039726
v -0.003531943541 0.00160323747 -0.004575038794
v -0.003456732491 0.009673078544 0.02472997457
v -0.00345673156 -0.01007545553 0.02472997457
v -0.003455945989 -0.01025399938 -0.001481633983
v -0.003455024678 0.009851953015 -0.001480401144
v -0.003398654517 0.003150000703 0.03108482063
v -0.003398654284 -0.007322768215 0.0310848169
v -0.003398652654 0.006922766101 0.0310848169
v -0.003260663943 -0.007366795558 0.03135218099
v -0.003102793125 0.00207985728 -0.004575043451
v -0.003102793125 -0.002479858464 -0.004575042054
v -0.003060922725 0.007025382947 0.0316663906
v -0.00296771084 0.009999163449 -0.0007728076307
v -0.002965673339 -0.01040206291 -0.0007696478278
v -0.002870311262 0.01001905557 -0.0008342320216
v -0.002868922893 -0.01042219345 -0.0008306811797
v -0.002850379096 -0.01046873908 0.02342626452
v -0.002849414712 -0.01044137869 0.02521433122
v -0.002849395154 0.01006681006 0.02342616208
v -0.002774195513 -0.01045484561 0.02551262267
v -0.002774194581 0.01005246863 0.02551261894
v -0.002769732149 0.01001203712 -0.0008934824145
v -0.002769048326 -0.01041573938 -0.0008895713836
v -0.002652751049 0.01013492513 0.02544786036
v -0.00262461463 -0.003149998374 0.03217841685
v -0.002624613466 -0.007532842923 0.03217841685
v -0.002624612069 0.007132843137 0.03217841685
v -0.002618617145 -0.0002000013192 -0.005065317731
v -0.002584338421 0.0001261326979 -0.005065319594
v -0.002584338188 -0.0005261360784 -0.005065320991
v -0.002583926544 -0.002856836887 -0.004575040191
v -0.002583925845 0.002456837799 -0.004575043917
v -0.002483004704 -0.0008380132494 -0.0050653168
v -0.002483002143 0.0004380124738 -0.005065320525
v -0.00231903838 -0.001122011105 -0.005065320525
v -0.002319038147 0.0007220102707 -0.005065316334
v -0.002167816041 0.007216229569 0.03255991265
v -0.002145024482 -0.01073780656 0.02637202665
v -0.002145023784 0.01033542678 0.02637202293
v -0.002099611098 -0.001365708536 -0.005065314937
v -0.002099609701 0.0009657096816 -0.005065318197
v -0.002077816287 -0.007629240397 0.03262172267
v -0.00202646968 0.01014455874 0.0004084831162
v -0.002026253147 -0.01054760162 0.000412854919
v -0.002023841953 0.01016695239 0.0005911242333
v -0.002022708999 -0.01057623141 0.0006925725611
v -0.00201605889 0.01017323416 0.0009116363944
v -0.0019529399 0.002549999626 -0.004650165327
v -0.001952751656 -0.002950000344 -0.004650189076
v -0.001834308146 -0.00155846437 -0.005065320991
v -0.001834307564 0.001158460858 -0.005065320991
v -0.001808984671 -0.002949999878 -0.00466743391
v -0.001805492211 0.002549999394 -0.004667812958
v -0.001713242033 -0.01091399509 0.02675944567
v -0.001694608713 -0.01082928944 0.027371509
v -0.001694607548 0.01042691059 0.02737150528
v -0.001675998443 -0.01082734391 0.0274163112
v -0.00167599658 0.01042496413 0.02741631866
v -0.001649442478 0.01048190147 0.02733943425
v -0.001615395304 -0.01091559976 0.02731683105
v -0.001583186677 0.01053716522 0.02729634009
v -0.001534731477 0.001291845576 -0.005065316334
v -0.001534728101 -0.001691845362 -0.00506532006
v -0.001534628915 -0.01096738968 0.02726671845
v -0.001519521 -0.01093919482 0.02741304971
v -0.001519520185 0.01053681597 0.0274130553
v -0.001467487193 -0.01099253353 0.02722783573
v -0.001467484864 0.01059015375 0.02722783759
v -0.001453560777 0.00315000047 0.03295683116
v -0.001453560777 -0.007689133752 0.03295683116
v -0.001453559264 0.007289134432 0.03295683116
v -0.001441922155 -0.01099845767 0.0272136014
v -0.001441919943 0.01059607789 0.02721360326
v -0.00143291906 0.0102222478 0.00194146717
v -0.001432916732 -0.01062462945 0.001941466238
v -0.001406102674 -0.01097761281 0.02739592083
v -0.001406101976 0.01057523303 0.02739591897
v -0.001360446797 -0.01089210715 0.0275558047
v -0.001360445283 0.0104897283 0.02755579911
v -0.001216501463 0.01063887775 0.0271800831
v -0.001216500765 -0.01104125846 0.02718007937
v -0.001213966054 -0.001760023064 -0.005065318197
v -0.001213963958 0.001360023394 -0.005065317266
v -0.001186452457 0.01061630063 0.0273628924
v -0.001186450827 -0.01101867948 0.02736289054
v -0.001168255578 -0.01098261494 0.02744748443
v -0.001148749376 0.0105289584 0.02752345987
v -0.001050002174 -0.0001999981905 -0.005231187213
v -0.001050000312 -0.007699999958 0.03310000151
v -0.0008860359667 0.001360025955 -0.005065317731
v -0.0008860357339 -0.00176002318 -0.005065317266
v -0.0008268757374 0.01067689899 0.0272568129
v -0.0007978704525 0.01063052379 0.02738294192
v -0.0007755354163 0.007294976618 0.03316893429
v -0.0007644810248 -0.00294999918 -0.004702985287
v -0.0007613604539 0.002549998462 -0.004702863283
v -0.0005652713007 -0.001691843499 -0.00506532006
v -0.000565269962 0.001291843597 -0.005065321457
v -0.0004946580739 -0.01111304201 0.02705021389
v -0.0004946567351 0.01071066316 0.02705021203
v -0.0004742001183 0.01070791855 0.02713778801
v -0.00047396624 -0.01111037564 0.02713759802
v -0.0004637497477 -0.01110299863 0.02718086168
v -0.0004537302302 -0.01109153498 0.02722339518
v -0.0004537291534 0.01068915613 0.02722339705
v -0.0002656912548 -0.001558463322 -0.005065320991
v -0.0002656907018 0.001158462022 -0.005065320525
v -7.812605327e-05 -0.007636763155 0.03324918821
v -7.812554395e-05 0.003150000004 0.03324918821
v -3.901245976e-07 -0.001365709468 -0.005065316334
v -3.886410697e-07 0.0009657088085 -0.005065319594
v 6.781701813e-05 0.007216230035 0.03324938565
v 0.000111805406 -0.01063955296 0.004447828513
v 0.0001118064829 0.01023717225 0.004447830375
v 0.0002118004631 -0.01110212412 0.02692680992
v 0.0002119483397 0.01069975458 0.02692683786
v 0.000218172223 -0.01103950758 0.02727385238
v 0.000218189205 0.01063714176 0.02727384865
v 0.0002190383384 -0.001122010057 -0.005065318663
v 0.0002190395753 0.0007220087573 -0.005065320991
v 0.0003736378276 0.0102263093 0.004379684106
v 0.000373637944 -0.01062868722 0.004379683174
v 0.000383003382 -0.0008380148793 -0.005065320991
v 0.0003830042551 0.000438012823 -0.005065317731
v 0.0004843386705 -0.0005261325277 -0.005065314937
v 0.0004843393981 0.0001261336874 -0.005065320525
v 0.0005186166381 -0.0001999991073 -0.005065317266
v 0.0005576060503 -0.00752567919 0.0332083106
v 0.0007031323039 0.007092223968 0.03318349272
v 0.001002793084 -0.002479858464 -0.004575041123
v 0.001002793782 0.002079857979 -0.00457504252
v 0.001160663436 -0.007366795558 0.03306585923
v 0.001187204034 0.01016921923 0.003423173446
v 0.001187205547 -0.01057159901 0.003423173446
v 0.00130829413 -0.003149999771 0.03301437944
v 0.001308294246 0.00691958284 0.03301437944
v 0.00148786779 -0.01094603911 0.02684871107
v 0.001512504765 0.01053910423 0.02684826031
v 0.00155975786 0.01053031255 0.02684735693
v 0.001559914323 -0.01093266066 0.02684735879
v 0.001564048463 0.01051877905 0.02705322951
v 0.001564146136 -0.01092160493 0.02705030888
v 0.001568199834 -0.01086995192 0.02724484354
v 0.001570723252 0.01040872 0.02737333439
v 0.00157079997 -0.01081311703 0.02736956626
v 0.00164349901 0.0101136528 0.003090128303
v 0.001643499709 -0.01051603258 0.003090128768
v 0.001750629977 0.01009806804 0.003030723194
v 0.001950122998 -0.007073814049 0.03270304948
v 0.00220412761 0.006557266228 0.03253386542
v 0.002223524265 -0.01042264793 0.00270294724
v 0.002315043705 0.01000355557 0.00262498809
v 0.002496977104 -0.009433639236 -0.002452571411
v 0.002496977337 0.009031257592 -0.002452572109
v 0.002578961896 -0.01035486069 0.00236620754
v 0.002638369566 0.009940421209 0.002299784217
v 0.003440004308 0.009769093245 0.0006452644011
v 0.003440004541 -0.01017147023 0.0006452663802
v 0.003470253665 0.009898378514 0.02253257111
v 0.003470403142 -0.01030071266 0.02253256924
v 0.003470917232 -0.01014628354 0.0004502632946
v 0.003470975207 0.009743801318 0.0004498102062
v 0.003488180926 -0.01009478793 0.0002873919439
v 0.00419247942 0.00951275602 0.0007064002566
v 0.004203755874 -0.01004898734 0.02251728065
v 0.004215269815 0.009430145845 0.0003648851998
v 0.004313086625 -0.01001165342 0.01959278993
v 0.004321543034 0.009606205858 0.01959242858
v 0.004611186218 -0.007644897792 -0.002496644855
v 0.004611186683 0.007242517546 -0.002496645786
v 0.004763832316 0.009425196797 0.02250560559
v 0.004919887986 -0.009608962573 0.0008512388449
v 0.004925353918 0.009203956462 0.0008096137317
v 0.004940830637 0.009119690396 0.0004693211231
v 0.004941523075 -0.009531764314 0.0004930748255
v 0.004956247285 -0.009591971524 0.0008563058218
v 0.005425464362 -0.006944022141 -0.002513618907
v 0.005425465759 0.00654164236 -0.002513620304
v 0.00546982605 0.009104558267 0.02249088883
v 0.005469959229 -0.009506867267 0.02249088697
v 0.005561857484 -0.009461149573 0.02249108069
v 0.005562815815 0.009058288299 0.02249111049
v 0.005580949597 0.008868657053 0.0009416019893
v 0.005634896457 -0.009240657091 0.0009488214855
v 0.005653297529 0.009012117982 0.0224954877
v 0.005653299391 -0.009414496832 0.02249547094
v 0.005653594621 0.009012309834 0.02248705737
v 0.005653596949 -0.009414689615 0.0224870611
v 0.005662178155 0.009040946141 0.01983946376
v 0.005662179552 -0.009443326853 0.01983946748
v 0.005832931027 0.008722972125 0.0009751102771
v 0.005877490155 -0.009098567069 0.0009809808107
v 0.006000995636 0.008863018826 0.0214500688
v 0.006030530669 -0.009246974252 0.02153877541
v 0.006123145577 0.008752318099 0.02258627489
v 0.006123823114 -0.009154304862 0.02258644253
v 0.006131353788 -0.008645668626 0.0003586414387
v 0.006131355185 0.008243288845 0.0003586393141
v 0.006154200062 -0.006154542323 -0.002528807381
v 0.006154202856 0.005752163939 -0.002528810175
v 0.006177987438 0.008507291786 0.001020116848
v 0.006194189191 -0.008899064735 0.001022210112
v 0.006194189657 0.008496687748 0.001022207434
v 0.006198493764 0.00841949787 0.00066806213
v 0.006198495161 -0.00882187672 0.0006680625374
v 0.006259369198 0.00845357962 0.001030585263
v 0.00630067056 -0.008828273043 0.001035879133
v 0.006303455215 0.008686762303 0.01940814406
v 0.006362565327 -0.009057330899 0.01959485747
v 0.006369661074 -0.008781370707 0.001044681296
v 0.006520757917 0.008541155607 0.02188750915
v 0.006584000774 -0.008897257969 0.02202819288
v 0.00671981601 -0.008221079595 0.0004412341805
v 0.006719816942 0.007818701677 0.0004412275448
v 0.006787816994 -0.005286832806 -0.002542015864
v 0.006787818857 0.00488445349 -0.002542016096
v 0.006789335981 0.008075363934 0.00109731697
v 0.006861689035 0.008338114247 0.01986522414
v 0.006956141442 -0.008676002733 0.02014452405
v 0.006960627623 -0.008344268426 0.001118334476
v 0.007039107848 0.007878774777 0.001127870288
v 0.007128272206 -0.008207899518 0.001138631138
v 0.007248872425 -0.007779527921 0.0005136273685
v 0.007248874288 0.007377147209 0.0005136268446
v 0.007265498396 -0.008382613771 0.01637509279
v 0.007317988202 -0.004352295306 -0.002553070197
v 0.007317989133 0.00394991599 -0.002553070197
v 0.007344258949 0.007535364479 0.0008178117569
v 0.007344260812 -0.00793774426 0.0008178073913
v 0.007345782593 0.00761964405 0.001164547284
v 0.007358418312 -0.008010902442 0.001166036353
v 0.007358418778 0.007608522661 0.001166038564
v 0.007448488381 0.007897634991 0.01961306855
v 0.007548992056 0.007783744484 0.02626738325
v 0.007549108937 -0.008186020888 0.02626736648
v 0.007553013973 0.00776355993 0.02646035887
v 0.007554586045 -0.008145771921 0.02652998827
v 0.0075580962 0.007659787312 0.02670406364
v 0.00755975116 -0.008009457029 0.02677788958
v 0.007562534884 0.007469974924 0.0269170031
v 0.007562650833 -0.007872254588 0.02691698261
v 0.007567914668 -0.00782106258 0.001190512674
v 0.00757952733 -0.008191326633 0.02001949772
v 0.007579748519 0.00775731029 0.02626302093
v 0.007581472863 0.006317742635 0.02782499045
v 0.00758156972 -0.006720015313 0.02782498673
v 0.007597440388 0.005240477622 0.0285906624
v 0.007597523276 -0.005642741453 0.02859065682
v 0.007598536089 -0.005564430263 0.02863939106
v 0.007664896548 -0.008085244335 0.02625107579
v 0.007736020721 0.007619226351 0.02624124661
v 0.007737747859 -0.003363210708 -0.00256181648
v 0.007737748325 0.002960830927 -0.002561820205
v 0.007750465535 0.007566477172 0.01464146096
v 0.007802064996 0.007558898535 0.02623225003
v 0.007818638347 0.007543569431 0.026230013
v 0.007856160402 0.007508579176 0.02622497827
v 0.007886588573 0.007108832244 0.001226811437
v 0.007932006381 -0.007834958844 0.01545230392
v 0.007953568362 -0.007818209007 0.02621213719
v 0.007978270762 0.007014571689 0.001237030141
v 0.008027797565 -0.007745623123 0.02620258182
v 0.008033630438 -0.007665108424 0.01199282333
v 0.008041580208 -0.002332575852 -0.002568153199
v 0.008041580208 0.001930192695 -0.002568153897
v 0.008043505251 -0.00773063628 0.02619756572
v 0.008044298738 -0.007729248144 0.02620048448
v 0.008065051399 -0.007708546706 0.02619786374
v 0.008068764582 0.007346232422 0.01848624647
v 0.008084661327 -0.00768885063 0.02619540133
v 0.008090651594 -0.007298050914 0.001249422319
v 0.008143861778 -0.0072404081 0.00125523482
v 0.008156307042 0.004306231625 0.02857900597
v 0.008156372234 -0.004708491731 0.02857900597
v 0.008225489408 -0.001273928792 -0.00257198466
v 0.008225489408 0.0008715511649 -0.002571984427
v 0.008234995417 0.006361307576 0.0006431997754
v 0.008234996349 -0.00676368596 0.0006431977963
v 0.008235314861 -0.007583170664 0.01911863498
v 0.008253725246 0.007146939635 0.01560764294
v 0.008281084709 -0.007484465372 0.02617166378
v 0.008287061937 -0.0002011884644 -0.00257326779
v 0.008316508494 0.003128390294 0.0288392473
v 0.008316552266 -0.003530652728 0.0288392473
v 0.008339336142 0.007018858567 0.02616496943
v 0.008352377452 0.006965101697 0.01175369602
v 0.008355003782 -0.006899330765 0.0009406917379
v 0.008355005644 0.006496950518 0.0009406929021
v 0.008384214714 0.006566140335 0.001281016273
v 0.00838703569 -0.00696520973 0.001281312667
v 0.00838703569 0.006562829018 0.001281312434
v 0.008447681554 -0.007368903607 0.01651348732
v 0.008519744501 0.006880629342 0.01890247315
v 0.008524861187 -0.006860148627 0.02679387853
v 0.008525300771 0.006457228214 0.02679383196
v 0.008543764241 -0.006377837621 0.0006820536219
v 0.008543764241 0.005975461565 0.0006820555427
v 0.008606267162 -0.007152472157 0.01292035077
v 0.008631910197 0.003250550944 0.0285690967
v 0.008631956764 -0.003652805462 0.0285690967
v 0.008633646183 -0.006969534792 0.008651865646
v 0.008646416478 -0.006983458064 0.02648011781
v 0.008646870032 0.006580515299 0.02648007311
v 0.008654865436 0.002046078211 0.02883219346
v 0.00865489617 -0.002448335057 0.02883219533
v 0.008671987802 -0.007018169388 0.02630541474
v 0.008672449738 0.006615219638 0.02630537003
v 0.00867275428 -0.007032969501 0.02613042668
v 0.008672951721 -0.006614136975 0.001310891472
v 0.008673215285 0.006630012766 0.02613038383
v 0.008735725656 0.006182849873 0.02677569911
v 0.008735816926 -0.006585109048 0.02677568793
v 0.008743140846 0.006653780583 0.01586978883
v 0.008850519545 0.005976465996 0.001328590559
v 0.008859887719 0.0009307826404 0.02882792428
v 0.008859903552 -0.00133303483 0.02882791869
v 0.00886973273 0.006500974763 0.01751035638
v 0.008870542049 0.006434022449 0.0116846757
v 0.008897524327 0.006461429875 0.01787681878
v 0.008923457935 0.006426401436 0.01804576628
v 0.008928571828 -0.0002011259785 0.02882648632
v 0.008951059543 -0.006814866327 0.01689954288
v 0.008982682601 0.002128528897 0.02856178582
v 0.008982714266 -0.002530781087 0.02856178582
v 0.009067791514 -0.00561645627 0.000745551195
v 0.009067792445 0.005214076024 0.0007455525338
v 0.009068164974 0.005666951183 0.001349502476
v 0.009081016295 0.006252954714 0.01369053498
v 0.009120849892 0.005588100757 0.00135442079
v 0.00912500266 0.006208723877 0.01416051202
v 0.009133905172 0.005568304099 0.001355633256
v 0.009135434404 0.006197717041 0.01427574456
v 0.009152685292 -0.006556732114 0.01303865574
v 0.009153950959 0.005537707359 0.001357484492
v 0.009157256223 0.006172716618 0.0143797975
v 0.00917481631 0.006089695729 0.01183314994
v 0.009175150655 -0.006324040703 0.008345288225
v 0.009187765419 0.005965702701 0.009448792785
v 0.009188662283 0.006077524275 0.01195636205
v 0.009195226245 0.0009723158437 0.02855735458
v 0.00919524394 -0.001374561805 0.02855735272
v 0.009206910618 -0.005726606119 0.001035100315
v 0.009206911549 0.005324226804 0.001035101595
v 0.009213224053 0.006055784412 0.01804465055
v 0.009213474579 0.005939373747 0.009558445774
v 0.009254509583 -0.005782727152 0.001366630429
v 0.009254511446 0.005380350165 0.001366624027
v 0.009266431443 -0.0002011252509 0.02855586633
v 0.009332301095 -0.006360558327 0.01498592179
v 0.009368483908 -0.006311582401 0.0154340677
v 0.009369366802 -0.00556528382 0.02675739303
v 0.009369367734 0.005162904039 0.02675738931
v 0.00938551221 -0.006287023891 0.01565235853
v 0.009394346736 -0.00627396768 0.01575959474
v 0.009435047396 0.005824372638 0.01437445451
v 0.009440471418 -0.006091241259 0.01035871357
v 0.009467222728 0.005608549807 0.009552303702
v 0.009491293691 -0.006142990198 0.013528293
v 0.009502891451 -0.006033557002 0.01086265221
v 0.00950327795 -0.006129053421 0.01364693511
v 0.009506259114 -0.006122664548 0.01578159258
v 0.009522873908 0.005237922538 0.02644344978
v 0.009523485787 -0.005640584975 0.02644139901
v 0.009533269331 -0.006004798692 0.01111338381
v 0.009548723698 -0.005989736412 0.0112377964
v 0.009561035782 -0.005657408386 0.02626561746
v 0.009561036713 0.005255030002 0.02626561932
v 0.009569576941 -0.00566054415 0.02608911321
v 0.009570154361 0.005257058889 0.02608968318
v 0.009630857036 -0.005713955499 0.008501770906
v 0.009653852321 -0.005845655687 0.01126331929
v 0.009659051895 -0.005712042563 0.009083813056
v 0.009682061151 -0.005710743368 0.009581182152
v 0.009688530117 -0.005710423924 0.009725694545
v 0.009688531049 0.005308044609 0.009725690819
v 0.009735076688 -0.004356258549 0.0008253159467
v 0.009735614993 0.003953907639 0.0008262063493
v 0.009742371738 0.005306296516 0.01105494145
v 0.009742372669 -0.00570867816 0.01105494052
v 0.009771634825 -0.005724844057 0.0163381435
v 0.009771634825 0.00532246381 0.01633821428
v 0.009785453789 -0.005721718073 0.01577647403
v 0.009803168476 0.005312363617 0.01436673105
v 0.009847919457 -0.004093869124 0.0008394996403
v 0.009848463349 0.003691701218 0.0008405106491
v 0.009886492044 -0.004441301338 0.001106002834
v 0.009887172841 0.004038941581 0.001106874086
v 0.009945834056 -0.004487411585 0.001427387586
v 0.009946658276 0.004085000139 0.001428235089
v 0.00995482225 0.00376785011 0.02680768445
v 0.009954854846 -0.004170120694 0.02680769376
v 0.009972463362 -0.004116255324 0.02681043558
v 0.01000873186 0.003599630436 0.02681636252
v 0.01010485645 0.004016650375 0.02612723224
v 0.01014116779 -0.004152550362 0.02649518661
v 0.01017791312 0.003633757355 0.02650108375
v 0.01019502245 -0.004149931483 0.02614004351
v 0.01019966602 -0.004471018445 0.005517064594
v 0.01019966602 0.004068638198 0.005517065059
v 0.01022888813 -0.003017191542 0.0008921207045
v 0.01022890676 0.002614919562 0.0008921641274
v 0.01023180224 0.003630220424 0.02614590898
v 0.01038784441 -0.003077641129 0.001164315268
v 0.01038787235 0.002675399417 0.00116436102
v 0.010391647 -0.002342780586 0.02690109052
v 0.0103944717 0.001922540716 0.02690184675
v 0.01045602094 -0.003112924518 0.001475931727
v 0.01045604795 0.002710682806 0.00147598004
v 0.01048391685 0.004062349908 0.01103337947
v 0.01048391778 -0.004464730155 0.01103337482
v 0.01049434394 0.001135365688 0.02692977339
v 0.01049435791 -0.00153760775 0.02692977525
v 0.01049932465 -0.004480569623 0.01606982015
v 0.01049932558 0.004078191239 0.01606982201
v 0.01053876895 0.001221542596 0.00094365736
v 0.0105392877 -0.001623837161 0.0009444990428
v 0.01055246033 -0.001533479546 0.0009469849756
v 0.01055835746 -0.0002011869947 0.02694937028
v 0.01056248043 -0.002355136443 0.02658605762
v 0.0105653014 0.001934741857 0.02658682689
v 0.01061406825 -0.002347001107 0.02623128146
v 0.01061685663 0.001926628291 0.02623205632
v 0.01064720005 -0.000201189192 0.0009659600328
v 0.01070242468 0.001254661474 0.001209351816
v 0.01070307754 -0.001656918786 0.001210179646
v 0.01072835643 -0.000201190036 0.02663493901
v 0.01075478457 0.002703633392 0.005483665038
v 0.0107547855 -0.003106014105 0.005483662244
v 0.01077710371 0.001275337068 0.001513438416
v 0.01077790558 -0.001677541295 0.001514229574
v 0.01077821385 -0.0002011882461 0.02628099732
v 0.01081273612 -0.000201187373 0.001229036367
v 0.01087338943 0.002719848184 0.01953350753
v 0.01087339036 -0.003122228896 0.01953350939
v 0.01089024078 -0.0002011903562 0.001530035632
v 0.01106519252 -0.00310684694 0.01101250667
v 0.01106519438 0.00270446646 0.01101250667
v 0.01107760333 -0.003119681729 0.0160556566
v 0.01107760519 0.002717303578 0.01605565287
v 0.0111110732 -0.001671081176 0.005460549612
v 0.01111107506 0.001268703258 0.00546055194
v 0.01124050468 0.001278655138 0.01953266934
v 0.01124050561 -0.001681037713 0.01953266747
v 0.01141663361 -0.0002011905453 0.01905811392
v 0.01144452021 0.001270628418 0.01099675335
v 0.01144452114 -0.001673007733 0.01099675428
v 0.0114620449 -0.001680106274 0.0160451103
v 0.0114620449 0.001277728705 0.01604510657
v 0.01147164404 -0.0002011892357 0.008828649297
v 0.01158022322 -0.0002011876059 0.0109905228
v 0.01163516007 -0.0002011873585 0.01479995344
f 104 80 234
f 181 155 128
f 449 519 478
f 494 519 449
f 235 79 103
f 103 79 96
f 103 243 235
f 180 127 156
f 127 97 125
f 125 97 104
f 175 152 170
f 96 79 86
f 86 79 74
f 74 100 86
f 86 100 120
f 89 90 93
f 58 49 48
f 48 49 44
f 126 155 214
f 126 128 155
f 96 128 126
f 126 103 96
f 234 80 176
f 290 271 265
f 449 387 389
f 473 381 472
f 524 478 528
f 519 528 515
f 515 478 519
f 528 478 515
f 526 522 508
f 526 529 532
f 255 285 235
f 309 285 298
f 508 522 489
f 489 470 508
f 152 118 123
f 64 98 84
f 1 9 8
f 8 11 1
f 9 11 8
f 180 156 196
f 196 156 194
f 324 331 316
f 341 331 324
f 253 271 248
f 248 271 246
f 246 241 248
f 127 228 215
f 215 156 127
f 228 196 215
f 433 354 471
f 326 321 231
f 477 471 474
f 474 487 477
f 197 155 181
f 197 195 155
f 198 196 223
f 170 152 150
f 152 123 150
f 108 93 106
f 106 118 108
f 120 100 105
f 100 83 105
f 76 83 100
f 96 86 94
f 65 89 83
f 83 76 65
f 61 52 88
f 32 48 41
f 21 16 32
f 32 16 6
f 58 48 57
f 57 65 58
f 89 65 57
f 214 155 202
f 155 195 202
f 202 197 214
f 195 197 202
f 243 103 124
f 124 126 243
f 103 126 124
f 131 70 112
f 130 70 131
f 177 79 235
f 235 179 177
f 294 250 258
f 234 286 256
f 256 286 265
f 286 294 310
f 362 389 387
f 449 478 447
f 447 387 449
f 472 444 476
f 476 473 472
f 476 447 478
f 444 447 476
f 476 478 500
f 500 486 476
f 486 473 476
f 500 478 502
f 478 524 502
f 532 529 525
f 525 528 532
f 525 524 528
f 512 502 525
f 525 502 524
f 525 503 512
f 461 494 449
f 461 463 494
f 449 389 461
f 389 463 461
f 493 486 500
f 247 255 235
f 235 243 247
f 247 243 245
f 254 247 245
f 255 247 254
f 245 249 254
f 314 298 299
f 299 315 314
f 295 285 309
f 259 251 295
f 470 489 468
f 504 496 513
f 504 357 496
f 363 357 504
f 504 356 363
f 508 470 480
f 480 470 428
f 428 490 480
f 514 529 520
f 505 496 482
f 513 496 505
f 106 93 107
f 93 90 107
f 107 118 106
f 107 123 118
f 170 150 151
f 151 150 123
f 39 61 36
f 39 52 61
f 66 52 53
f 66 88 52
f 84 90 66
f 90 88 66
f 28 23 36
f 36 43 28
f 13 11 12
f 12 17 13
f 34 39 36
f 13 17 14
f 14 4 13
f 23 28 19
f 19 28 26
f 36 23 19
f 19 34 36
f 33 34 19
f 239 248 241
f 239 232 228
f 253 248 239
f 239 228 127
f 127 125 239
f 246 271 261
f 261 223 246
f 261 316 223
f 261 262 316
f 275 271 290
f 290 293 275
f 275 261 271
f 262 261 275
f 275 293 316
f 194 156 203
f 156 215 203
f 203 196 194
f 203 215 196
f 354 433 328
f 326 231 328
f 328 231 354
f 428 470 424
f 470 468 424
f 483 529 514
f 483 475 477
f 514 520 483
f 483 520 475
f 501 487 492
f 477 487 501
f 501 483 477
f 503 483 501
f 402 231 230
f 217 225 210
f 217 231 321
f 230 231 217
f 217 216 230
f 199 225 222
f 222 197 199
f 186 174 199
f 252 249 240
f 182 197 181
f 186 199 182
f 182 199 197
f 227 126 214
f 214 197 227
f 196 198 184
f 223 316 318
f 316 331 318
f 318 331 341
f 226 318 320
f 230 381 365
f 365 386 230
f 405 473 486
f 381 473 405
f 405 365 381
f 386 365 405
f 147 108 118
f 147 118 152
f 189 175 170
f 189 190 175
f 170 167 189
f 189 226 209
f 198 226 189
f 175 190 193
f 210 225 193
f 193 209 210
f 225 199 193
f 193 189 209
f 190 189 193
f 193 174 175
f 193 199 174
f 120 105 102
f 102 105 83
f 58 65 67
f 67 65 76
f 29 42 37
f 90 89 87
f 87 88 90
f 61 88 87
f 87 28 61
f 26 28 87
f 48 32 35
f 37 62 35
f 20 37 35
f 47 62 89
f 89 57 47
f 47 57 48
f 48 35 47
f 47 35 62
f 37 42 50
f 50 62 37
f 50 29 26
f 42 29 50
f 89 62 50
f 26 87 50
f 50 87 89
f 60 112 70
f 60 70 98
f 98 64 60
f 131 112 92
f 112 60 92
f 70 130 75
f 75 176 80
f 80 104 75
f 104 97 75
f 45 92 54
f 81 92 45
f 54 64 45
f 45 64 53
f 22 33 15
f 40 33 31
f 53 52 40
f 52 39 40
f 39 34 40
f 40 34 33
f 77 22 15
f 69 3 1
f 73 3 69
f 58 67 63
f 63 67 76
f 59 76 100
f 59 63 76
f 55 63 59
f 46 63 55
f 58 63 46
f 44 49 46
f 46 49 58
f 79 177 134
f 74 79 134
f 134 129 74
f 531 526 532
f 532 528 527
f 527 531 532
f 513 505 516
f 511 516 521
f 258 250 211
f 234 191 211
f 211 250 234
f 278 286 234
f 278 294 286
f 234 250 278
f 250 294 278
f 253 256 257
f 257 256 265
f 257 271 253
f 257 265 271
f 258 211 280
f 280 211 191
f 523 525 529
f 503 525 523
f 529 483 523
f 523 483 503
f 494 463 491
f 499 493 507
f 507 493 500
f 512 503 507
f 503 501 507
f 492 499 507
f 507 501 492
f 500 502 507
f 507 502 512
f 443 471 477
f 443 433 471
f 376 321 326
f 326 328 376
f 436 462 464
f 464 490 459
f 459 436 464
f 222 225 317
f 317 315 222
f 317 366 338
f 388 366 317
f 252 222 260
f 222 315 260
f 276 315 292
f 292 274 276
f 315 299 292
f 289 274 292
f 292 299 289
f 270 249 252
f 252 260 270
f 270 260 274
f 270 254 249
f 270 274 289
f 285 255 264
f 255 254 264
f 264 270 289
f 254 270 264
f 309 298 302
f 302 298 314
f 314 335 302
f 212 259 281
f 281 192 212
f 212 251 259
f 235 251 212
f 212 192 235
f 188 179 235
f 235 192 188
f 305 295 309
f 259 295 305
f 281 259 305
f 305 358 281
f 235 285 279
f 285 295 279
f 279 251 235
f 279 295 251
f 485 468 489
f 485 505 482
f 357 207 346
f 482 496 346
f 496 357 346
f 497 356 498
f 356 504 498
f 498 504 513
f 508 480 518
f 518 480 490
f 518 526 508
f 529 526 518
f 518 520 529
f 510 489 522
f 522 516 510
f 510 516 505
f 510 485 489
f 505 485 510
f 98 135 119
f 136 90 84
f 53 64 68
f 68 66 53
f 68 64 84
f 84 66 68
f 61 28 51
f 51 28 43
f 36 61 51
f 51 43 36
f 18 19 26
f 26 29 18
f 17 19 18
f 18 14 17
f 18 32 6
f 6 4 18
f 4 14 18
f 20 35 18
f 18 35 32
f 221 239 241
f 246 223 221
f 221 241 246
f 242 256 253
f 253 239 242
f 242 104 234
f 242 125 104
f 242 239 125
f 146 151 123
f 123 107 146
f 148 153 162
f 162 127 180
f 162 97 127
f 162 153 97
f 148 135 85
f 85 75 97
f 70 75 85
f 98 70 85
f 85 135 98
f 286 310 301
f 301 291 286
f 265 286 273
f 290 265 273
f 300 293 290
f 300 324 316
f 316 293 300
f 341 324 360
f 360 373 362
f 324 340 360
f 360 340 373
f 277 275 316
f 487 474 404
f 230 386 397
f 397 402 230
f 220 222 252
f 252 240 220
f 238 240 249
f 245 243 238
f 238 249 245
f 238 220 240
f 243 126 238
f 126 227 238
f 180 196 183
f 196 184 183
f 183 162 180
f 185 184 198
f 198 189 185
f 185 189 167
f 351 362 387
f 387 318 351
f 351 360 362
f 209 226 213
f 213 226 320
f 213 320 230
f 230 216 213
f 210 209 213
f 213 217 210
f 216 217 213
f 224 198 223
f 224 226 198
f 223 318 224
f 318 226 224
f 472 381 355
f 355 381 230
f 120 102 140
f 152 175 158
f 158 147 152
f 24 37 20
f 24 29 37
f 20 18 24
f 24 18 29
f 131 92 121
f 54 92 56
f 56 92 60
f 56 64 54
f 56 60 64
f 144 130 131
f 234 176 178
f 38 31 81
f 81 45 38
f 38 45 53
f 53 40 38
f 38 40 31
f 81 31 25
f 25 77 81
f 22 77 25
f 31 33 25
f 33 22 25
f 7 77 15
f 73 77 7
f 7 19 17
f 15 33 7
f 33 19 7
f 10 9 1
f 1 3 10
f 10 3 12
f 10 11 9
f 10 12 11
f 2 69 1
f 1 11 2
f 13 4 2
f 2 11 13
f 72 4 6
f 72 2 4
f 69 2 72
f 74 129 71
f 71 100 74
f 71 59 100
f 201 192 281
f 363 356 208
f 208 357 363
f 208 207 357
f 345 497 481
f 345 356 497
f 521 516 530
f 530 527 521
f 531 527 530
f 530 516 522
f 522 526 530
f 526 531 530
f 481 497 506
f 497 498 506
f 506 498 513
f 513 516 506
f 516 511 506
f 519 494 517
f 494 491 517
f 517 528 519
f 517 527 528
f 414 371 418
f 460 491 463
f 280 359 304
f 258 280 304
f 304 294 258
f 304 310 294
f 296 359 280
f 307 406 296
f 359 296 377
f 377 296 406
f 450 462 391
f 391 366 388
f 398 366 391
f 495 518 490
f 520 518 495
f 495 490 464
f 464 462 495
f 495 462 450
f 450 475 495
f 475 520 495
f 450 391 448
f 448 391 388
f 448 475 450
f 477 475 448
f 448 443 477
f 384 448 388
f 443 448 384
f 388 317 384
f 392 328 433
f 392 376 328
f 433 443 392
f 443 384 392
f 392 384 376
f 428 424 415
f 438 459 456
f 428 415 456
f 456 490 428
f 456 459 490
f 395 456 408
f 438 456 395
f 408 424 395
f 309 313 339
f 399 417 370
f 370 417 372
f 361 335 314
f 332 317 336
f 314 315 325
f 325 332 314
f 315 317 325
f 325 317 332
f 319 317 225
f 319 217 321
f 225 217 319
f 319 384 317
f 321 376 319
f 376 384 319
f 276 274 268
f 311 313 309
f 309 302 311
f 311 302 335
f 335 361 311
f 311 361 313
f 84 98 99
f 98 119 99
f 232 239 236
f 234 256 244
f 244 242 234
f 256 242 244
f 166 185 167
f 184 185 166
f 166 183 184
f 162 183 166
f 159 167 170
f 145 135 148
f 145 119 135
f 138 146 107
f 138 107 90
f 90 136 138
f 95 85 97
f 148 85 95
f 97 153 95
f 95 153 148
f 283 273 286
f 290 273 283
f 283 300 290
f 291 301 306
f 306 300 291
f 324 300 306
f 306 340 324
f 301 340 306
f 312 310 323
f 323 344 312
f 312 344 340
f 262 275 269
f 275 277 269
f 492 487 421
f 487 404 421
f 429 499 421
f 421 499 492
f 380 474 471
f 380 404 474
f 471 354 380
f 364 404 380
f 354 231 380
f 231 364 380
f 386 405 422
f 422 397 386
f 429 402 422
f 402 397 422
f 422 499 429
f 422 493 499
f 486 493 422
f 422 405 486
f 220 238 219
f 219 227 197
f 219 197 222
f 222 220 219
f 233 238 229
f 229 238 227
f 229 219 233
f 227 219 229
f 343 318 341
f 343 348 318
f 318 348 349
f 349 351 318
f 327 329 230
f 383 318 387
f 320 318 383
f 444 393 383
f 387 447 383
f 383 447 444
f 329 393 432
f 432 393 444
f 432 444 472
f 472 355 432
f 120 140 142
f 142 140 147
f 137 102 83
f 137 140 102
f 83 89 137
f 137 89 93
f 175 174 168
f 173 174 186
f 186 182 173
f 173 182 181
f 81 77 116
f 116 92 81
f 116 121 92
f 130 144 133
f 133 144 163
f 133 75 130
f 176 75 133
f 133 163 176
f 176 163 172
f 172 178 176
f 200 280 191
f 200 296 280
f 200 204 307
f 307 296 200
f 187 191 234
f 234 178 187
f 5 3 73
f 73 7 5
f 5 7 17
f 17 12 5
f 12 3 5
f 6 16 78
f 78 72 6
f 78 16 21
f 201 308 205
f 307 204 333
f 333 345 481
f 481 465 333
f 206 333 204
f 345 333 206
f 206 208 356
f 356 345 206
f 423 377 406
f 521 527 509
f 527 517 509
f 390 423 427
f 323 310 352
f 462 436 425
f 425 391 462
f 398 436 416
f 436 411 416
f 408 456 410
f 410 424 408
f 369 395 424
f 372 395 369
f 378 358 369
f 369 424 378
f 369 370 372
f 369 305 309
f 358 305 369
f 438 395 426
f 426 395 372
f 420 459 438
f 438 426 420
f 420 426 417
f 436 459 420
f 420 411 436
f 420 417 399
f 374 366 398
f 409 420 399
f 411 420 409
f 399 339 367
f 367 339 313
f 313 361 367
f 337 317 338
f 337 336 317
f 274 260 263
f 263 268 274
f 263 260 315
f 266 315 276
f 276 268 266
f 266 263 315
f 268 263 266
f 287 298 285
f 285 284 287
f 287 299 298
f 287 284 299
f 285 264 272
f 272 264 289
f 407 424 468
f 378 424 407
f 482 346 334
f 334 205 308
f 334 346 207
f 207 205 334
f 84 99 101
f 101 99 119
f 101 136 84
f 239 221 218
f 218 236 239
f 232 236 218
f 228 232 218
f 218 196 228
f 223 196 218
f 218 221 223
f 157 166 167
f 167 159 157
f 157 159 170
f 157 145 148
f 146 145 157
f 148 162 157
f 162 166 157
f 170 151 157
f 151 146 157
f 141 145 146
f 141 138 136
f 146 138 141
f 119 145 141
f 141 101 119
f 136 101 141
f 286 291 288
f 288 283 286
f 291 300 288
f 300 283 288
f 379 414 373
f 373 340 379
f 340 344 379
f 379 344 323
f 323 352 379
f 303 340 301
f 303 312 340
f 303 301 310
f 310 312 303
f 267 277 316
f 267 269 277
f 316 262 267
f 262 269 267
f 396 421 404
f 231 402 396
f 396 402 429
f 429 421 396
f 237 238 233
f 233 219 237
f 237 219 238
f 360 351 347
f 351 349 347
f 347 349 348
f 348 343 347
f 341 360 347
f 347 343 341
f 230 320 322
f 322 327 230
f 375 393 329
f 329 327 375
f 327 322 375
f 375 383 393
f 320 383 375
f 375 322 320
f 329 432 330
f 330 432 355
f 230 329 330
f 330 355 230
f 147 158 149
f 149 142 147
f 149 94 86
f 149 86 120
f 120 142 149
f 93 108 139
f 139 137 93
f 140 137 139
f 108 147 139
f 147 140 139
f 160 158 175
f 175 168 160
f 165 168 174
f 174 173 165
f 158 160 165
f 165 160 168
f 21 32 27
f 44 46 91
f 91 46 55
f 55 59 91
f 72 78 110
f 69 72 110
f 457 406 307
f 307 333 457
f 457 333 465
f 359 377 368
f 377 423 368
f 423 390 368
f 368 390 371
f 310 304 368
f 368 304 359
f 368 352 310
f 488 511 521
f 521 509 488
f 467 423 406
f 406 457 467
f 467 457 465
f 479 517 491
f 479 509 517
f 479 491 427
f 453 390 427
f 418 371 437
f 371 390 437
f 437 414 418
f 442 463 389
f 403 431 389
f 389 362 403
f 362 373 403
f 373 414 403
f 391 425 401
f 401 425 436
f 413 416 411
f 412 456 415
f 412 410 456
f 412 415 424
f 424 410 412
f 370 369 342
f 342 339 399
f 399 370 342
f 309 339 342
f 342 369 309
f 372 417 419
f 419 426 372
f 417 426 419
f 394 374 398
f 411 409 394
f 394 409 399
f 394 413 411
f 399 367 394
f 394 367 361
f 398 416 394
f 416 413 394
f 350 361 314
f 338 366 350
f 366 374 350
f 350 394 361
f 374 394 350
f 350 337 338
f 336 337 350
f 314 332 350
f 332 336 350
f 282 284 285
f 285 272 282
f 282 272 289
f 289 299 282
f 299 284 282
f 378 407 297
f 297 407 308
f 281 358 297
f 297 358 378
f 297 201 281
f 297 308 201
f 458 334 308
f 458 407 468
f 308 407 458
f 414 379 382
f 231 396 385
f 385 396 404
f 385 364 231
f 385 404 364
f 161 165 173
f 161 149 158
f 158 165 161
f 181 128 161
f 161 173 181
f 161 128 96
f 82 78 21
f 21 27 82
f 44 91 82
f 59 71 113
f 113 91 59
f 69 110 109
f 169 109 110
f 131 121 169
f 121 116 169
f 169 144 131
f 169 187 178
f 204 200 169
f 163 144 169
f 179 188 169
f 169 200 191
f 191 187 169
f 169 172 163
f 178 172 169
f 169 188 192
f 192 201 169
f 207 208 169
f 169 205 207
f 201 205 169
f 169 206 204
f 208 206 169
f 353 368 371
f 352 368 353
f 371 414 353
f 414 382 353
f 353 379 352
f 353 382 379
f 484 506 511
f 511 488 484
f 481 506 484
f 488 467 484
f 484 465 481
f 484 467 465
f 469 488 509
f 469 467 488
f 509 479 469
f 469 479 427
f 427 423 469
f 423 467 469
f 427 491 451
f 451 453 427
f 491 453 451
f 446 439 414
f 491 460 455
f 455 437 390
f 435 442 389
f 441 442 431
f 463 442 441
f 441 460 463
f 430 403 414
f 431 403 430
f 414 439 430
f 430 441 431
f 439 441 430
f 398 391 400
f 391 401 400
f 400 436 398
f 400 401 436
f 482 334 466
f 334 458 466
f 466 485 482
f 468 485 466
f 466 458 468
f 154 161 96
f 149 161 154
f 96 94 154
f 94 149 154
f 115 110 78
f 78 82 115
f 115 169 110
f 44 82 30
f 30 82 27
f 30 48 44
f 41 48 30
f 30 32 41
f 30 27 32
f 114 116 77
f 114 169 116
f 454 453 491
f 491 455 454
f 390 453 454
f 454 455 390
f 437 455 440
f 414 437 440
f 431 442 434
f 442 435 434
f 389 431 434
f 434 435 389
f 91 113 132
f 132 71 129
f 132 113 71
f 109 169 111
f 169 114 111
f 73 69 111
f 69 109 111
f 111 77 73
f 111 114 77
f 445 446 414
f 414 440 445
f 452 455 460
f 452 440 455
f 452 445 440
f 446 445 452
f 439 446 452
f 460 441 452
f 452 441 439
f 91 132 122
f 122 132 169
f 129 134 143
f 143 132 129
f 169 132 143
f 117 82 91
f 91 122 117
f 117 115 82
f 169 115 117
f 117 122 169
f 164 134 177
f 164 143 134
f 169 143 164
f 171 177 179
f 171 164 177
f 179 169 171
f 169 164 171
