v -0.009309152141 0.0002319197374 0.009975139983
v -0.009306385182 -2.22163635e-06 0.006438080687
v -0.009298065677 0.0005115470849 0.009975153022
v -0.009295730852 -2.217862402e-06 -0.007424847689
v -0.00928251259 0.0005200665328 -0.007424840238
v -0.009282346815 -0.0005222356995 -0.007424839307
v -0.009278727695 -0.0007909547421 0.009975156747
v -0.009255658835 0.0009065679042 -0.007424817886
v -0.009255238809 0.0009923098842 0.006395979319
v -0.009254703298 -0.000996723189 0.006395979784
v -0.009190891869 0.001516457065 0.009975212626
v -0.009176666848 -0.001563412137 -0.007424774114
v -0.009139221162 -0.001812689821 0.009975251742
v -0.009109644219 0.00195586984 -0.007424729876
v -0.009105584584 0.001974796643 0.006285260897
v -0.009104575031 -0.00198729313 0.009975272231
v -0.009104521014 -0.001979129622 0.006285266485
v -0.008981085382 0.002513414482 0.009975336492
v -0.008966539986 0.002594918478 -0.007424679119
v -0.008965143003 -0.002599175554 -0.007424678653
v -0.008927990682 -0.002742744982 -0.007412223611
v -0.008893221617 -0.002826492768 0.009975401685
v -0.008885114454 -0.002896219259 -0.007397489622
v -0.008863897994 0.002933168551 0.006129378919
v -0.008862319402 -0.002937370446 0.006129383575
v -0.008681440726 0.003529242938 -0.007324625272
v -0.008668971248 0.003497951897 0.009975533932
v -0.008667090908 -0.003502046224 0.009975538589
v -0.008618305437 -0.003699522465 -0.007302210201
v -0.008578002453 0.003805476008 -0.007286518347
v -0.008549999446 -1.172522524e-09 0.02723119967
v -0.008536663838 0.003855349962 0.005951729137
v -0.008534589782 -0.003859377466 0.005951731
v -0.008501940407 0.003917494323 0.009997684509
v -0.008436055854 -4.613762538e-11 0.02853356674
v -0.008422299288 -0.001378121437 0.0272311978
v -0.008422298357 0.001378122019 0.02723120153
v -0.008406815119 -0.004133784678 0.01002590638
v -0.008317391388 0.004412331618 -0.007186361123
v -0.008310295641 0.00135718321 0.02853355743
v -0.00831029471 -0.001357185422 0.02853355743
v -0.0082944436 -0.001941143302 0.02723119967
v -0.0082944436 0.001941142138 0.02723120339
v -0.00822565984 -0.004601255991 -0.007150691003
v -0.008218409494 0.004528407473 0.01011078153
v -0.008130352944 0.004729271866 0.005775764119
v -0.008127811365 -0.004733079113 0.005775750615
v -0.00811033044 0.004735757131 0.01017215941
v -0.008105276152 -0.004744220059 0.01017368305
v -0.00809769053 -1.230994973e-09 0.02979634516
v -0.008027642034 -0.002749999752 0.02723120712
v -0.008027642034 0.002750000916 0.02723120525
v -0.008027406409 -0.00488604093 0.01022304781
v -0.007977691479 0.001295009279 0.02979634516
v -0.007977690548 -0.001295010443 0.02979634888
v -0.007970756851 0.002750000451 0.02812035941
v -0.0079372935 -0.002668151399 0.02853355743
v -0.0079372935 0.002668151166 0.02853355743
v -0.007898440585 0.005109979771 0.01031511277
v -0.007891148329 0.00521860132 -0.007009614259
v -0.007851312868 -0.00316103315 0.02716163918
v -0.007801030762 -0.002750000916 0.02899501473
v -0.007723138668 -0.005490199197 -0.006936802994
v -0.00767052127 -0.005471391138 0.01049466617
v -0.007651450578 0.005542859901 0.005624878686
v -0.007648471743 -0.005546409637 0.005624872167
v -0.007625786122 0.005539094564 0.01053597499
v -0.00762177771 0.002545919968 0.02979634702
v -0.007621776313 -0.002545920433 0.02979634702
v -0.007545190863 0.003749999218 0.02764323726
v -0.007545189466 -0.003749999916 0.02764324285
v -0.007545185741 -6.867021579e-11 0.03098119423
v -0.007537570316 -0.002749999287 0.02980002947
v -0.007521231193 0.002750000684 0.02984092012
v -0.007434593979 -0.0011934879 0.03098119237
v -0.007434592582 0.001193488366 0.03098119982
v -0.007414703723 0.005941100419 -0.006792688277
v -0.007405290846 0.005850206595 0.01074078679
v -0.007402060553 -0.005853738636 0.01074087713
v -0.007333833724 -0.004094317555 0.02785508148
v -0.007325937971 0.004106409382 0.02786185406
v -0.00725832535 -0.006041294895 0.0108860312
v -0.007245987654 0.006057651248 0.01090232562
v -0.007207955234 -0.006210681982 -0.006693731528
v -0.007135921158 -0.002749999752 0.03064426593
v -0.007106582168 -0.002346332651 0.0309811905
v -0.007106581237 0.002346333116 0.03098120354
v -0.007106433157 0.006284043193 0.005522511899
v -0.007103053853 -0.006287300028 0.00552250864
v -0.006979725789 -0.004592205863 0.02809938043
v -0.006969053298 0.004605954979 0.02810511552
v -0.006886484101 0.006590234116 -0.006527701858
v -0.006852068007 0.006516100373 0.01135104522
v -0.006848567165 -0.006519217975 0.01135103311
v -0.006810723804 0.00646679569 0.0192115847
v -0.006807248574 -0.006469892338 0.01921158284
v -0.006801999174 0.006420461927 0.02253067866
v -0.006800882984 0.006455062889 0.02067071572
v -0.006800007075 0.006477609742 0.01921158098
v -0.006798546296 -0.006423556246 0.02253068611
v -0.006797412876 -0.006458151154 0.02067082375
v -0.00679652486 -0.006480702199 0.01921158656
v -0.006795327645 4.68506955e-10 0.03205210716
v -0.006697504316 -0.001055702684 0.0320520997
v -0.00669750385 0.001055700588 0.0320520997
v -0.006651381496 0.002749999752 0.03139196709
v -0.006643364672 0.006846665405 -0.006396797486
v -0.006639684085 -0.006849673111 -0.006396799814
v -0.006629526615 0.006859789137 -0.003900968935
v -0.006571886595 -0.005075309426 0.02826505527
v -0.00656219013 0.005085839424 0.02826776914
v -0.006561930291 0.006645844784 0.0226569511
v -0.00656099245 -0.006885423325 0.005136114545
v -0.006558357272 -0.006648808252 0.02265695669
v -0.006556502078 0.006701491773 0.0198900532
v -0.006552899722 -0.006704453379 0.01989005506
v -0.006542330608 0.006879978813 0.007585727144
v -0.006530421786 0.006766081788 0.01716639102
v -0.006526784506 -0.006769028492 0.01716640033
v -0.006509935483 0.006835710257 0.01350179873
v -0.006507930811 -0.006824473385 0.01441913657
v -0.006407359615 -0.002075451892 0.0320520997
v -0.006407359615 0.002075452125 0.03205210716
v -0.006377193611 -0.007101692259 -0.006249322556
v -0.006353301462 0.00530329952 0.02831383608
v -0.006353300065 -0.005303300451 0.02831383981
v -0.006257382687 0.006904403679 0.02282106318
v -0.006082222797 0.002750000916 0.03206485137
v -0.006075513083 -0.002749999519 0.03207182884
v -0.006032982841 0.007398046553 -0.006043139379
v -0.005902633071 0.007493575104 0.0006281198002
v -0.005882273428 -0.007185006514 0.02302731946
v -0.005870902445 -9.182997465e-11 0.03297652304
v -0.005847671069 0.007474794518 0.007812657394
v -0.005843616556 -0.007477349602 0.007816578262
v -0.005816855468 0.007378160488 0.01531602629
v -0.00581291737 -0.007380584255 0.01532274205
v -0.005788818467 -0.0008858393412 0.03297652304
v -0.00578881707 0.0008858390502 0.03297652304
v -0.005766523071 -0.007603316102 -0.005879553966
v -0.005708078388 -0.005878120195 0.02831484191
v -0.005687555764 0.005894325674 0.02831141278
v -0.005597235635 0.007373611443 0.02319276705
v -0.005545358174 0.001741511398 0.03297652304
v -0.005545357242 -0.001741511398 0.03297653049
v -0.005417707842 0.002749999752 0.03267275169
v -0.005383871496 0.007868586108 -0.005624911282
v -0.00530117983 -0.0061787921 0.02820393257
v -0.005292689893 0.006184624974 0.02820060216
v -0.005199022125 0.007605107501 0.02342831343
v -0.005171022844 -0.0076201302 0.02344274148
v -0.00514881406 0.002537878463 0.03297652677
v -0.005148813594 -0.002537878696 0.03297652304
v -0.00514464546 0.008012226783 0.0007389237289
v -0.005140327848 -0.008014427498 0.0007409156533
v -0.005123334005 -0.008030123077 -0.005447107367
v -0.005099027418 0.007966684178 0.007975122891
v -0.00509470934 -0.007968820632 0.007979077287
v -0.005068316124 0.007841232233 0.01553950459
v -0.005064130295 -0.007843241096 0.01554626971
v -0.004933044314 -0.008139899001 -0.005310276523
v -0.004904079717 -0.00643397728 0.02799510211
v -0.004904078785 0.006433978211 0.02799511142
v -0.004800000228 0.006495190784 0.02792443149
v -0.004799996503 -2.994387243e-10 0.03372637928
v -0.004799030256 -0.006495750975 0.0279237628
v -0.004736145958 0.0006890594377 0.03372637928
v -0.004736145027 -0.0006890604855 0.03372637928
v -0.00468868576 -0.002749999054 0.03318496794
v -0.004685308784 0.008273183368 -0.005122398026
v -0.004546767101 -0.001354654436 0.03372638673
v -0.004546767101 0.001354654436 0.03372637928
v -0.004475850612 0.007943999954 0.02388036437
v -0.004417803604 -0.007967310026 0.02391531505
v -0.004331622738 0.008437198587 0.0009426047909
v -0.004327082075 -0.00843895413 0.000944600848
v -0.004297840875 0.008361700922 0.008209959604
v -0.004293314181 -0.008363384753 0.008213938214
v -0.004271002486 0.008205796592 0.01582668908
v -0.00426662527 -0.008207363077 0.01583348587
v -0.004238311201 -0.001974118873 0.03372638673
v -0.004238310736 0.001974118175 0.03372638673
v -0.004229792859 -0.008490468375 -0.004766941536
v -0.004176730756 -0.002749999054 0.03346906602
v -0.003925027791 0.008618712425 -0.004507824313
v -0.003900337266 0.002749999519 0.03360010684
v -0.003821281018 0.002526354976 0.03372637928
v -0.003821280319 -0.002526356839 0.03372637555
v -0.003751953598 -0.008196403272 0.02436548285
v -0.003729912918 0.00820275303 0.02438405715
v -0.003615148598 6.195337016e-10 0.03427888826
v -0.003571470734 0.0004713459348 0.03427889198
v -0.003571470501 -0.0004713441595 0.03427889198
v -0.003523953026 -0.008767297491 -0.004156021401
v -0.003522519954 -0.002749999519 0.03375606984
v -0.003512677271 0.002749999752 0.0337597914
v -0.003468898358 0.008772750385 0.001223069034
v -0.003464180976 -0.00877403561 0.001225075684
v -0.003446924267 0.008666217327 0.008505158126
v -0.003442238783 -0.00866742339 0.008509152569
v -0.003441930516 -0.0009266381385 0.03427888453
v -0.003441929352 0.0009266380221 0.03427889198
v -0.0032309331 0.001350375707 0.03427887708
v -0.003230932867 -0.001350376871 0.03427888826
v -0.003229256719 0.002750000684 0.0338597931
v -0.003164882539 0.008883585222 -0.003811726347
v -0.003143606242 -0.002749999519 0.03388733417
v -0.003065515775 -0.002750001382 0.03391139209
v -0.003048919374 0.008917770348 -0.003697282402
v -0.003044620156 -0.008918704465 -0.003697779961
v -0.002968699904 0.008389935829 0.02494531125
v -0.00296419044 -0.008390967734 0.02494531125
v -0.002945668297 -0.00172812934 0.03427888453
v -0.002945667598 0.001728128991 0.03427888453
v -0.002825015923 -0.008979141712 -0.003474379424
v -0.002595847938 -0.002047032351 0.03427888826
v -0.002595847007 0.002047032118 0.03427888453
v -0.002568890108 -0.008463939652 0.02518331073
v -0.002561798552 0.00902314391 0.001564236707
v -0.00255695032 -0.009023937397 0.001566237421
v -0.002549088327 0.008886607364 0.008848757483
v -0.002544288291 -0.008887312375 0.008852772415
v -0.002530334285 0.008470331319 0.02520230785
v -0.002493004547 -0.009060531855 -0.003118491266
v -0.002459445735 0.002750000218 0.03406499326
v -0.002421616809 0.009076853283 -0.003033369547
v -0.002352359705 -1.12482157e-09 0.0346172452
v -0.002334674355 0.008501216769 0.02527413145
v -0.002330185613 -0.0002393084869 0.03461724147
v -0.002330184216 0.0002393073955 0.03461724892
v -0.002316350117 -0.008503960446 0.02527833171
v -0.00226661819 0.00910977833 -0.002856174717
v -0.002264414448 0.000470466679 0.0346172452
v -0.002264413284 -0.0004704660387 0.03461725265
v -0.002197829541 -0.002749999519 0.03411378339
v -0.002197829541 0.002750001149 0.03411377966
v -0.002193385269 0.002296226565 0.03427888826
v -0.002193385037 -0.00229622703 0.03427889198
v -0.002157289069 -0.0006856037653 0.03461725265
v -0.002157288371 0.0006856042892 0.03461724892
v -0.00201245537 0.000877395214 0.03461725637
v -0.002012454439 -0.0008773943409 0.03461725265
v -0.001949480735 0.008553500287 0.02535265125
v -0.001944903634 -0.008553982712 0.02535264194
v -0.001883329824 0.008561392315 0.02535830438
v -0.001864235732 -0.008563522249 0.02535924129
v -0.001834847382 0.001039306168 0.03461724892
v -0.001834846917 -0.0010393064 0.0346172452
v -0.001788500231 -0.009195996448 -0.002275822684
v -0.001751986332 0.002467226237 0.03427888453
v -0.001751985983 -0.002467226237 0.03427888453
v -0.001673067221 0.008584467694 0.02536175959
v -0.001638122951 -0.008587870747 0.02536043897
v -0.001630512998 0.001165823895 0.0346172452
v -0.001630511601 -0.001165824593 0.03461724892
v -0.001615653047 0.009192642756 0.001950043254
v -0.001610714942 -0.009192921221 0.001952043385
v -0.001607142854 0.009029250592 0.009228792042
v -0.00160227099 -0.0090294322 0.009232804179
v -0.001594083384 -0.009224938229 -0.00201726309
v -0.001590784523 0.009225798771 -0.002005983144
v -0.001406408264 0.001252642716 0.03461724147
v -0.001406406634 -0.001252643764 0.03461725265
v -0.00131143094 0.002749999287 0.03420392796
v -0.001311430708 -0.002750001149 0.03420392796
v -0.001286682324 0.002554205945 0.03427888826
v -0.001286680694 -0.002554205013 0.03427889198
v -0.001219467027 0.00862449035 0.02529301122
v -0.001188032562 -0.008626545779 0.02528550103
v -0.001170166768 0.001296804519 0.03461724892
v -0.001170166652 -0.00129680417 0.03461724892
v -0.001152985031 -0.009277623147 -0.001374602201
v -0.00114803086 0.008629669435 0.02527205646
v -0.001143387984 -0.008629723452 0.02527205646
v -0.001049998915 6.370636236e-10 0.03473119438
v -0.001017179922 0.008638429455 0.02522579022
v -0.0009934391128 0.009292747825 -0.001109980862
v -0.0009803936118 -0.008640405722 0.02521279827
v -0.0009298335062 0.001296805334 0.03461725265
v -0.0009298333898 -0.001296803472 0.03461725265
v -0.000813319115 -0.002554206876 0.0342788808
v -0.0008133187657 0.002554205712 0.0342788808
v -0.0006935931742 -0.001252642949 0.0346172452
v -0.000693591719 0.001252642949 0.03461724892
v -0.0006125748623 0.008660065942 0.02501025982
v -0.000575786049 -0.008661218919 0.02498769201
v -0.0005641309544 0.009348229505 -0.0003321162658
v -0.0005591062363 -0.009347969666 -0.000332115218
v -0.0004694885283 0.001165825641 0.03461725265
v -0.0004694884119 -0.00116582599 0.03461724147
v -0.0004403016937 0.008667140268 0.02487766743
v -0.0004207679303 0.002749999054 0.03418040276
v -0.0004207676102 -0.002749999752 0.03418040276
v -0.0004173809721 -0.008667493239 0.02486179955
v -0.0003571883135 0.009343910962 0.0001033183216
v -0.0003480135638 0.002467225073 0.03427888826
v -0.0003480131854 -0.002467225539 0.03427888453
v -0.0002651527757 -0.00103930512 0.03461725265
v -0.0002651527175 0.001039304188 0.03461724147
v -0.0001285860635 0.008677856065 0.02454055659
v -0.0001237026008 -0.009337271564 0.0006521273754
v -0.0001104707626 -0.008677794598 0.02452184446
v -8.754472219e-05 -0.0008773941081 0.0346172452
v -8.754392911e-05 0.000877393526 0.03461724892
v 8.430833986e-06 -0.008681758307 0.02433232032
v 1.921721741e-05 0.008682885207 0.02430375107
v 3.298708543e-05 0.009332111105 0.0011021354
v 5.728890756e-05 0.0006856048713 0.03461724892
v 5.729004624e-05 -0.0006856032996 0.03461725265
v 7.692645886e-05 0.008685137145 0.02418577857
v 8.159472054e-05 -0.008684533648 0.02418577299
v 9.338370728e-05 0.002296225866 0.03427887708
v 9.338393284e-05 -0.002296227496 0.0342788808
v 0.0001644142467 -0.000470465573 0.03461725637
v 0.0001644150616 0.0004704670573 0.03461724892
v 0.0001702090376 0.00934528932 -0.000298965082
v 0.0001752310927 -0.0093446346 -0.0002989621134
v 0.0001878493786 0.008690960705 0.02387455478
v 0.0001925204706 -0.008690297604 0.02387454733
v 0.0001976498752 0.009324080311 0.0016406863
v 0.0002104935265 -0.009323514067 0.001669062418
v 0.0002301842178 0.0002393082541 0.0346172452
v 0.0002301859058 -0.0002393082395 0.03461725265
v 0.0002464467834 0.009344582446 -0.0002400031517
v 0.0002493751526 -0.009343897924 -0.0002404357656
v 0.0002523612347 2.846878839e-10 0.03461725637
v 0.0003230536531 0.009316937998 0.002138504991
v 0.0003231458832 0.00934386719 -0.0001814846473
v 0.0003280623932 -0.009316201322 0.002138511976
v 0.0003288091975 -0.009343136102 -0.000182445845
v 0.0003479491861 0.009107876569 0.01003011595
v 0.0003528630186 -0.009106986225 0.01003413647
v 0.0004596340004 0.002749999287 0.03404356912
v 0.0004596343206 -0.002749999519 0.03404356912
v 0.0004958463833 0.002047031419 0.0342788808
v 0.000495847431 -0.002047033282 0.03427888826
v 0.0007481040084 -0.009316303767 -0.0002522679279
v 0.0008376381593 0.008716160432 0.0219707936
v 0.0008456669748 0.001728130155 0.03427888826
v 0.0008456679643 -0.001728130039 0.03427888453
v 0.0008481091354 -0.009329037741 0.0001278339332
v 0.000872270728 0.007249474991 -0.003647137899
v 0.000873421377 -0.007249169983 -0.003646873636
v 0.00100931467 0.009301248007 -0.0001428100222
v 0.001013487577 -0.009299941361 -0.00014124476
v 0.001017589006 -0.008710216731 0.02181437239
v 0.001027013059 0.008710834198 0.0218032971
v 0.001077872817 0.009279713035 -0.000224583302
v 0.001124491682 0.002750000451 0.03386135027
v 0.001124492846 -0.002750000218 0.03386135027
v 0.001130932476 0.001350375824 0.0342788808
v 0.001130933408 -0.001350376755 0.03427889198
v 0.001189762959 -0.008703157306 0.02169221081
v 0.001201030449 0.008703605272 0.02168221585
v 0.001234094962 0.009229683317 0.005031700246
v 0.001239056117 -0.009228456765 0.005031703506
v 0.001271706307 0.009304704145 0.0003411668586
v 0.001273609116 0.009036127478 0.01121113263
v 0.001278465963 -0.009034879506 0.01121112704
v 0.001341928844 -0.0009266390116 0.0342788808
v 0.001341930008 0.0009266390116 0.03427888826
v 0.001387424767 0.002749999752 0.03376926482
v 0.001387425 -0.002750000916 0.03376926482
v 0.001407743664 0.00708586676 -0.003475735663
v 0.001408296637 -0.007085674442 -0.003475507721
v 0.001471471274 -0.000471345149 0.0342788808
v 0.001471472206 0.000471346284 0.03427889198
v 0.001515148091 2.106772113e-10 0.03427888453
v 0.001549103414 -0.009198401123 -0.0001890766143
v 0.001596089103 0.00927667506 0.0004897731123
v 0.001603713608 -0.008677674457 0.02149267867
v 0.001616820111 0.008677747101 0.021486599
v 0.001703158952 -0.00926491525 0.0005344579695
v 0.001721280511 0.002526355442 0.03372637555
v 0.001721281442 -0.002526354976 0.03372638673
v 0.001782517647 0.009220195934 0.0001257419644
v 0.001787960879 -0.009218405001 0.0001267416228
v 0.001805265318 -0.008660961874 0.0214343816
v 0.001818583813 0.008660872467 0.02143027633
v 0.00187513663 -0.009159140289 -5.094240623e-05
v 0.00190228736 -0.00689448975 -0.003231690731
v 0.001902287477 0.006894490682 -0.003231686307
v 0.001956747379 0.00910556037 -0.0001566510036
v 0.002006378258 0.002749999287 0.03350382671
v 0.00200637849 -0.002749999519 0.03350383043
v 0.002132644178 0.002749999287 0.03344072402
v 0.002132644644 -0.002749999519 0.03344072402
v 0.002138310578 0.001974118873 0.03372637928
v 0.002138311043 -0.001974118175 0.03372637928
v 0.002255949192 0.008614321239 0.02138214931
v 0.002260579262 -0.008612544276 0.02138214558
v 0.002446767408 -0.001354654436 0.03372638673
v 0.002446767408 0.001354654436 0.03372637928
v 0.002459802432 0.008959089406 -0.0001177694721
v 0.002464648103 -0.008957255632 -0.000117874537
v 0.002575929975 0.009086215869 0.0003622011864
v 0.002636145335 -0.0006890593795 0.03372638673
v 0.002636145568 0.0006890604855 0.03372638673
v 0.00269999681 3.035952318e-10 0.03372638673
v 0.002739910968 0.009112167172 0.0009464208269
v 0.002989276545 0.008802781813 -1.36849867e-05
v 0.002994093113 -0.008800733835 -1.390163106e-05
v 0.003048813902 -0.002537878463 0.03297652304
v 0.003048814135 0.002537878463 0.03297652304
v 0.00311165629 0.009015807882 0.002658898011
v 0.003158658743 0.008954429068 0.005785173737
v 0.003163472051 -0.008952169679 0.005785178859
v 0.003189605195 0.009016344324 0.001102543902
v 0.003194449702 -0.00901406724 0.00110253843
v 0.003210308962 0.008552419953 0.01863331534
v 0.003214905737 -0.008550132625 0.01863332093
v 0.003249134868 0.008770089597 0.01196021307
v 0.003253847593 -0.008767779917 0.01196021121
v 0.003273129929 0.008621796034 -0.0001172462071
v 0.003277763026 -0.008619474247 -0.0001172510238
v 0.003377251327 0.008892608806 0.0005716306041
v 0.003382030409 -0.00889023114 0.0005716363667
v 0.003438838292 0.008423154242 0.02138286084
v 0.003443365451 -0.008420743048 0.02138286456
v 0.003445358016 0.001741510816 0.03297653422
v 0.003445358248 -0.001741511514 0.03297652304
v 0.003456896637 -0.008770775981 0.0003193071752
v 0.003512254683 0.008618204854 8.289191464e-05
v 0.00351688615 -0.008615754545 8.290020924e-05
v 0.003598931711 -0.002750000218 0.03243454173
v 0.00359893241 0.002749998588 0.03243454173
v 0.003688817844 -0.0008858392248 0.03297652304
v 0.003688818077 0.0008858392248 0.03297652677
v 0.003747969167 0.008264936507 -0.0002688846143
v 0.003752637189 -0.008262233809 -0.0002688939276
v 0.003770902287 -4.703097727e-12 0.03297652677
v 0.00410797121 0.008703698404 0.006141060498
v 0.004136789124 0.008160303347 -0.0001167171067
v 0.004141174722 -0.008157515898 -0.0001167158771
v 0.004188772757 0.008246800862 8.330780838e-05
v 0.004193203524 -0.008243986405 8.330864512e-05
v 0.004232018255 0.008531049825 0.01230881363
v 0.004256052431 0.008229631931 0.02138335817
v 0.004260474816 -0.008226781152 0.02138335258
v 0.004546381533 0.008601456881 0.001558815013
v 0.004555739928 -0.008597086184 0.00155927008
v 0.004711132962 0.008094302379 0.02143608406
v 0.004714513198 0.008452336304 0.001029378502
v 0.00471548317 -0.008091208525 0.02143609151
v 0.004722545855 -0.00844834093 0.001030001207
v 0.004810030572 0.008162151091 0.0005419618101
v 0.00481670443 -0.008158637211 0.0005427306751
v 0.004941631109 0.008424167521 0.003384248586
v 0.004943819717 0.008015574887 0.02150575444
v 0.004946158268 -0.00842094887 0.003384243231
v 0.004948126618 -0.008012354374 0.02150574699
v 0.004948509857 0.00761258835 -0.0001162340704
v 0.004952600226 -0.007609365974 -0.0001162360641
v 0.005032600369 0.008367810398 0.006477009971
v 0.005037098657 -0.008364541456 0.006477010436
v 0.005040527787 0.007411917672 -0.0002681054757
v 0.005044715013 -0.007408483885 -0.0002681039041
v 0.005144135561 0.008021584712 0.01931161433
v 0.005148445722 -0.008018255234 0.01931160316
v 0.005194346886 0.008210124448 0.01263073739
v 0.005198759958 -0.008206768893 0.01263073832
v 0.005355521105 0.007858403958 0.02171340398
v 0.005359743256 -0.00785496179 0.02171340212
v 0.005541210063 0.00777908694 0.02185183205
v 0.005545389839 -0.007775544655 0.02185182832
v 0.005699716974 0.00698444061 -0.0001157822189
v 0.005703469273 -0.006980815437 -0.0001157834267
v 0.005852746777 0.007631768938 0.02218035609
v 0.005856847391 -0.007628059946 0.02218034863
v 0.005896120798 0.007943063043 0.001982946415
v 0.005900669377 -0.007939974777 0.001983251888
v 0.00592051819 0.007939445786 0.006788463797
v 0.005924785044 -0.007935701869 0.006788467988
v 0.005997731816 0.007555535529 0.0224020388
v 0.006001790985 -0.007551748771 0.02240203507
v 0.006008862983 0.007787444629 0.00145717233
v 0.006013482343 -0.007784103509 0.001457464299
v 0.006032887381 0.007510304917 0.0009714066982
v 0.006037382409 -0.007506632246 0.0009717053035
v 0.006067960523 0.007628774736 0.0196021609
v 0.006072060205 -0.007624950726 0.01960215531
v 0.006123143248 0.007798907813 0.01291890349
v 0.0061273342 -0.007795054 0.01291890536
v 0.006131873932 -0.007444417104 0.00100314687
v 0.006169696338 0.00745472312 0.02280531451
v 0.006173701026 -0.007450843696 0.02280530334
v 0.006175917573 0.006358710583 -0.0002674267162
v 0.006179508753 -0.006354636978 -0.0002674282005
v 0.006230947096 0.007412126753 0.02307370864
v 0.006234930363 -0.007408215199 0.02307370678
v 0.00625246251 0.00704385573 0.02744609676
v 0.006252592895 0.006845096126 0.02771790698
v 0.006252880674 0.007167850621 0.02710001543
v 0.006253093015 0.007220820989 0.02675028332
v 0.006255068816 0.007386173122 0.02338456362
v 0.006256169174 -0.007039962336 0.02744611166
v 0.006256207358 -0.00675958721 0.02778908797
v 0.006256413646 -0.006984380074 0.0275454931
v 0.006256722845 -0.007160460576 0.02711363696
v 0.00625695847 -0.007216911763 0.02675029449
v 0.006259037182 -0.007382248528 0.02338455804
v 0.006382472813 0.006282494869 -0.0001153717094
v 0.006385848392 -0.006278503221 -0.0001153663979
v 0.006579060573 0.007484056521 0.002172438661
v 0.006583404262 -0.007480375469 0.002172164852
v 0.006587575655 0.006429270841 0.02781792544
v 0.00659102248 -0.006425172091 0.02781791799
v 0.006620556116 -0.007012485992 0.02662465163
v 0.006700350437 0.006544551812 0.02762600221
v 0.006703858264 -0.006540390197 0.02762599848
v 0.006747813895 -0.00673712045 0.02728584409
v 0.006916210055 0.007354537956 0.01006281748
v 0.006920161657 -0.007350257598 0.01006281003
v 0.006945694331 0.007138614543 0.01985168085
v 0.006949530449 -0.007134317886 0.01985167898
v 0.006989563815 0.005514170974 -0.0001149944437
v 0.006992526352 -0.0055098515 -0.0001149979871
v 0.006997040939 0.006770017557 0.001268399763
v 0.007000910118 -0.006765942089 0.001268377993
v 0.007005429361 0.007288995199 0.01316627208
v 0.007009346504 -0.007284666412 0.01316627301
v 0.007010062691 0.007216296159 0.01642936282
v 0.007039271761 0.005971293896 0.02778428234
v 0.007042479701 -0.005966946948 0.02778427675
v 0.00711813895 0.005892478395 0.02776858956
v 0.007121304981 -0.005888089072 0.02776858956
v 0.007123471238 0.005133763887 -0.000266852614
v 0.007126370445 -0.00512915384 -0.0002668490633
v 0.007144226693 0.006632137578 0.001307354076
v 0.007149524987 -0.006627031136 0.001307512517
v 0.007164690178 0.006659163162 0.02646033838
v 0.007168268319 -0.006654749624 0.0264603328
v 0.007169040386 0.006992843468 0.002315944526
v 0.007176159881 -0.006986860186 0.002315829275
v 0.007207198534 0.006861121859 0.00179300434
v 0.007213404868 -0.006855496671 0.001793036587
v 0.007233635057 0.00637371745 0.02717511356
v 0.007237059064 -0.006369266193 0.02717510983
v 0.007274713367 0.005649031606 0.02778442018
v 0.007277748082 -0.005644558463 0.02778441645
v 0.007287472952 0.005657956004 0.02776869573
v 0.007290512323 -0.005653475877 0.02776868828
v 0.007497824263 0.006407231558 0.02637027204
v 0.007514574565 0.004687583074 -0.0001146821814
v 0.007517092861 -0.004682983272 -0.0001146801369
v 0.007694596425 0.003698974382 -0.0003821073333
v 0.007696684916 -0.003694042098 -0.000382109778
v 0.007704745978 0.006025639363 0.001434474834
v 0.007708508521 -0.006021321751 0.001434548292
v 0.007723117713 0.006727351807 0.01027659047
v 0.007726732176 -0.006722637918 0.01027659047
v 0.007740019355 0.005347686354 0.02756280079
v 0.007742682472 -0.005342626479 0.02756359428
v 0.007764312439 0.006541786715 0.02005371638
v 0.00776782725 -0.006537052337 0.02005371451
v 0.007806712296 0.004800168797 0.02778473869
v 0.007809291594 -0.004795409739 0.02778474241
v 0.007820311002 0.004807750229 0.02776900679
v 0.007822894491 -0.004802986048 0.0277690161
v 0.007828228176 0.006671981886 0.01336577814
v 0.007831812836 -0.006667211186 0.01336576696
v 0.007834771648 0.00661004521 0.01662911475
v 0.007857596502 0.00377016142 -0.000266407762
v 0.007859726436 -0.003765136702 -0.000266399089
v 0.007918509655 0.006044288632 0.02626021579
v 0.007920652628 -0.006038793363 0.02626093663
v 0.007927479222 0.005779973697 0.02696982212
v 0.007929952815 -0.005774674471 0.02697061747
v 0.007951958105 0.003811468836 -0.0001144159978
v 0.007954006083 -0.003806632478 -0.0001144170383
v 0.008087256923 0.005525425076 0.00150680216
v 0.008091129363 -0.005520198029 0.001507043606
v 0.008186008781 0.002261215821 -0.0003818015975
v 0.008187284693 -0.002256005304 -0.000381803693
v 0.008219282143 0.005691942759 0.001997047104
v 0.008223584853 -0.0056866901 0.001997228712
v 0.008237658069 0.005781732034 0.002523381729
v 0.008242318407 -0.005776465405 0.002523519099
v 0.008249747567 0.003901663236 0.0277850125
v 0.008251843043 -0.003896665527 0.02778500877
v 0.008297093213 0.002895082347 -0.0001142113179
v 0.008297106251 0.004725864623 0.02738784254
v 0.00829864759 -0.002890062053 -0.0001142126785
v 0.008299856447 -0.004720736761 0.02738766
v 0.008358465508 0.002304732101 -0.0002660994069
v 0.008359765634 -0.002299424727 -0.000266105897
v 0.008435295895 0.0007623854326 -0.0003816542157
v 0.008435724303 -0.0007570353919 -0.0003816613171
v 0.008457421325 0.005987752695 0.01044318266
v 0.008460639045 -0.005982644856 0.01044319384
v 0.008510954678 0.005831502844 0.02020328306
v 0.008514086716 -0.0058263666 0.02020327374
v 0.008543870412 0.005106681492 0.02679509111
v 0.00854633376 0.001948108431 -0.0001140543682
v 0.008546942845 -0.005101407412 0.02679492906
v 0.008547379635 -0.001942952164 -0.0001140551831
v 0.008578712121 0.005941894371 0.01351193711
v 0.008581903763 -0.005936720874 0.01351193339
v 0.008583907038 0.005345182493 0.02608905546
v 0.008587186225 -0.00533982506 0.02608886547
v 0.008587468415 0.005890168715 0.01677351631
v 0.00859063305 -0.005884991027 0.0167735219
v 0.008599234745 0.002962805796 0.02778522298
v 0.008600824513 -0.002957622288 0.02778521366
v 0.008612549864 0.0007770567317 -0.0002659472812
v 0.008612987585 -0.0007716051186 -0.0002659471356
v 0.008697045036 0.0009805492591 -0.0001139699598
v 0.008697570302 -0.0009753128397 -0.0001139724918
v 0.008747635409 2.630954668e-06 -0.0001139407032
v 0.008784357458 0.004039108288 0.02723933011
v 0.008787163533 -0.004034498241 0.02723756805
v 0.008832121268 0.004261388909 0.001622616081
v 0.008835033514 -0.004255919252 0.00162283692
v 0.008851560764 0.001993309706 0.02778537571
v 0.008852630854 -0.001987989759 0.02778537013
v 0.008866811171 0.001996459672 0.02776965126
v 0.008998491801 0.004387978464 0.002123041078
v 0.009001822211 -0.004382369108 0.002123221289
v 0.009004116058 0.001003199024 0.02778545767
v 0.009004654363 -0.0009977985173 0.0277854614
v 0.009036940522 0.004454021808 0.002659917809
v 0.009040662088 -0.004448365886 0.002660052152
v 0.00905532483 2.715091796e-06 0.02778549865
v 0.009077738971 0.004368542228 0.0266466625
v 0.009081681259 -0.004364049993 0.02664494514
v 0.009107957594 0.005146182142 0.01056590211
v 0.009110723622 -0.005140723661 0.01056591421
v 0.009155604057 0.004579350818 0.02594291978
v 0.009160646237 -0.004575181752 0.02594132535
v 0.009173842147 0.005017954856 0.02030523308
v 0.009176538326 -0.005012460984 0.02030522935
v 0.009198274463 0.003298766213 0.02711190656
v 0.009199858643 -0.003294266062 0.02711147256
v 0.009245062247 0.005109099671 0.01360980235
v 0.009247806855 -0.005103568546 0.01360979769
v 0.009256187826 0.005066958722 0.01686807722
v 0.009258910082 -0.005061420146 0.01686807722
v 0.009378099814 0.002897123341 0.001706915908
v 0.0093800053 -0.002891513752 0.001707036514
v 0.0095299026 0.003575168317 0.02651928738
v 0.009531830437 -0.003570792032 0.02651887201
v 0.009533193894 -0.002510387218 0.02700754069
v 0.009533514269 0.002515394706 0.02700473182
v 0.009565595537 0.002992143622 0.002220320748
v 0.009567789733 -0.002986403881 0.002220409689
v 0.009581386112 0.002164806239 0.001745930756
v 0.009582730941 -0.002159132855 0.001745999907
v 0.00961124897 0.003043542383 0.002770877443
v 0.00961370673 -0.003037746297 0.00277093309
v 0.009638971649 0.003755832324 0.02581727877
v 0.009641208686 -0.003751759417 0.02581691556
v 0.009664099663 0.004219612107 0.01065139938
v 0.009666366503 -0.004213853739 0.01065140218
v 0.009719892405 0.001468126662 0.001775472076
v 0.009720758535 -0.001462392393 0.001775517827
v 0.009741652757 0.004118328448 0.02036854066
v 0.009743865579 -0.004112530965 0.02036854625
v 0.009781803936 -0.001693098107 0.0269253049
v 0.009782533161 0.001698602806 0.02692225389
v 0.009815878235 0.004190692212 0.01366877928
v 0.009818129241 -0.00418485282 0.01366877276
v 0.009829345159 0.004157608841 0.01692283712
v 0.009831579402 -0.004151763394 0.01692284085
v 0.009838730097 2.924044338e-06 0.001803656691
v 0.009895054623 -0.002729821485 0.0264149271
v 0.009896875359 0.00273498008 0.02641216852
v 0.009903729893 -0.001089765225 0.02688266151
v 0.009904047474 0.001095723594 0.02688089386
v 0.009924119338 0.001524453983 0.002300123451
v 0.009925059974 -0.001518629142 0.002300141379
v 0.009937486611 -0.0008521212148 0.02687047981
v 0.0099376617 0.0008579415153 0.02686926536
v 0.009975762106 0.001557249459 0.002862448804
v 0.009976766072 -0.001551413327 0.002862474881
v 0.009991229512 2.965985232e-06 0.02685054392
v 0.01002905052 -0.00287644309 0.02571426332
v 0.01003246196 0.002881718334 0.02571165375
v 0.01003780123 0.001118232612 0.002880218672
v 0.01004959643 2.981114903e-06 0.002333031269
v 0.01010368951 2.996179319e-06 0.002900284482
v 0.01011521649 0.003225031309 0.01070629433
v 0.01011694875 -0.003219033591 0.0107062934
v 0.01016764995 -0.001849140041 0.02633268014
v 0.01017004903 0.001854964416 0.02632972971
v 0.01020306256 0.003149832599 0.02040219121
v 0.01020475384 -0.003143785521 0.02040218934
v 0.0102797579 0.003203784581 0.01369825937
v 0.01028147805 -0.003197696991 0.01369825751
v 0.01028735936 -0.002086700173 0.02564307861
v 0.01029536128 0.003179341089 0.01694788784
v 0.01029706839 -0.003173245583 0.01694788411
v 0.01032218523 -0.001955745276 0.02563325502
v 0.01032629889 0.001961795148 0.02563042194
v 0.01033966988 -0.0009358788375 0.02627785876
v 0.01034052204 0.0009420281276 0.02627673373
v 0.01039938815 3.076553867e-06 0.0262579266
v 0.01045068633 0.002179436153 0.01073728036
v 0.01045185607 -0.002173256828 0.01073728316
v 0.0105087338 -0.0009944578633 0.02557939291
v 0.01051023044 0.001000714255 0.02557827346
v 0.01054674294 0.002129672328 0.02041510679
v 0.0105478866 -0.002123441547 0.02041510865
v 0.01057400182 3.123648185e-06 0.0255598519
v 0.0106253 0.002165493323 0.01370767783
v 0.01062646322 -0.002159218537 0.01370768249
v 0.01064265054 0.002149372827 0.01695329696
v 0.01064380538 -0.002143090824 0.01695330627
v 0.01065987907 0.001099816523 0.01075099129
v 0.0106604686 -0.001093523926 0.01075099315
v 0.01066531986 3.147513098e-06 0.01012154482
v 0.01076137181 0.001075057546 0.02041628957
v 0.0107619483 -0.001068709884 0.02041628957
v 0.0108411042 0.001092932303 0.0137064252
v 0.01084169 -0.001086541684 0.01370643266
v 0.01085963659 0.001084927819 0.01694916748
v 0.01086021774 -0.001078529051 0.01694916375
v 0.01090723835 3.211846888e-06 0.01828604378
v 0.01091996673 3.215793413e-06 0.01384939067
f 414 429 342
f 38 44 47
f 47 44 63
f 169 129 141
f 1 4 2
f 2 7 1
f 38 100 28
f 53 47 63
f 31 36 35
f 7 36 31
f 1 7 31
f 16 36 13
f 13 36 7
f 718 708 713
f 713 715 718
f 717 703 712
f 718 715 717
f 644 638 612
f 646 638 644
f 644 669 646
f 679 669 678
f 609 607 664
f 114 100 116
f 114 116 132
f 149 150 142
f 343 124 108
f 108 84 343
f 44 29 365
f 63 44 365
f 343 84 365
f 365 84 63
f 686 707 702
f 235 253 265
f 253 293 265
f 422 445 417
f 332 329 356
f 332 305 302
f 288 329 332
f 332 278 288
f 148 169 141
f 141 129 126
f 129 85 126
f 114 132 126
f 126 132 141
f 126 100 114
f 152 186 146
f 146 149 142
f 186 149 146
f 16 13 17
f 17 13 12
f 6 2 4
f 7 2 6
f 49 100 38
f 49 53 100
f 38 47 49
f 47 53 49
f 79 100 64
f 100 53 64
f 35 54 40
f 10 13 7
f 12 13 10
f 7 6 10
f 10 6 12
f 681 648 621
f 621 648 644
f 718 709 710
f 710 708 718
f 714 709 718
f 697 713 708
f 697 648 681
f 715 701 711
f 711 717 715
f 711 700 703
f 703 717 711
f 704 697 681
f 713 697 704
f 715 713 704
f 708 678 673
f 673 678 669
f 673 697 708
f 648 697 673
f 673 669 644
f 644 648 673
f 654 646 669
f 654 669 679
f 679 664 654
f 654 664 607
f 180 174 178
f 288 259 257
f 257 259 222
f 178 198 200
f 200 180 178
f 222 212 200
f 220 257 222
f 222 200 220
f 220 200 198
f 210 198 194
f 210 194 343
f 343 194 183
f 183 161 343
f 140 135 124
f 140 124 343
f 342 130 147
f 120 134 117
f 196 149 186
f 205 163 196
f 163 149 196
f 211 149 163
f 211 190 149
f 163 223 211
f 287 331 327
f 327 307 287
f 494 438 418
f 440 470 443
f 504 470 512
f 135 116 119
f 79 84 89
f 84 108 89
f 25 28 22
f 25 29 28
f 25 22 23
f 23 29 25
f 33 44 38
f 33 29 44
f 38 28 33
f 28 29 33
f 528 381 564
f 606 586 588
f 381 365 574
f 588 586 574
f 574 365 588
f 419 439 500
f 500 305 419
f 499 302 500
f 302 305 500
f 691 707 686
f 657 651 629
f 686 651 657
f 695 700 684
f 703 700 695
f 695 696 703
f 363 375 350
f 629 651 625
f 604 427 421
f 421 403 425
f 253 259 269
f 499 278 286
f 278 332 286
f 407 461 413
f 461 439 413
f 413 439 419
f 419 411 413
f 413 356 407
f 488 381 528
f 488 365 381
f 488 467 365
f 513 471 505
f 189 148 174
f 212 148 189
f 189 200 212
f 174 180 189
f 180 200 189
f 222 259 231
f 110 126 85
f 110 90 100
f 100 126 110
f 35 36 41
f 41 55 35
f 15 11 18
f 24 19 18
f 18 19 15
f 3 11 9
f 1 31 3
f 87 106 74
f 142 106 128
f 128 146 142
f 66 53 63
f 66 64 53
f 79 64 66
f 66 84 79
f 63 84 66
f 100 90 80
f 80 71 100
f 37 3 31
f 11 3 37
f 37 31 35
f 35 40 37
f 37 40 43
f 43 18 37
f 37 18 11
f 644 612 617
f 617 621 644
f 680 710 709
f 680 674 679
f 709 674 680
f 679 678 680
f 680 678 708
f 708 710 680
f 716 717 712
f 718 717 716
f 716 714 718
f 712 702 716
f 716 702 707
f 716 707 705
f 705 714 716
f 596 647 639
f 586 606 596
f 698 674 709
f 698 714 705
f 709 714 698
f 679 674 670
f 684 700 693
f 701 677 693
f 700 711 693
f 693 711 701
f 706 701 715
f 715 704 706
f 681 621 652
f 687 704 681
f 681 652 687
f 687 652 660
f 687 706 704
f 589 577 533
f 533 504 550
f 550 504 512
f 550 589 533
f 597 589 550
f 634 597 636
f 634 589 597
f 236 264 252
f 288 257 260
f 215 220 198
f 198 210 215
f 224 220 215
f 215 210 343
f 135 158 137
f 137 116 135
f 137 132 116
f 141 132 151
f 151 148 141
f 174 148 151
f 161 183 176
f 178 158 176
f 176 198 178
f 194 198 176
f 176 183 194
f 343 161 156
f 156 140 343
f 107 109 130
f 107 92 109
f 107 130 342
f 342 92 107
f 77 60 65
f 131 147 130
f 131 117 134
f 130 109 131
f 109 117 131
f 261 256 287
f 261 232 256
f 209 206 197
f 209 414 342
f 342 206 209
f 232 383 226
f 228 223 163
f 221 211 223
f 223 228 221
f 328 327 357
f 416 443 423
f 416 440 443
f 408 440 416
f 433 414 423
f 429 414 433
f 487 382 364
f 342 429 364
f 429 433 364
f 364 39 60
f 364 365 29
f 364 587 588
f 588 365 364
f 60 77 364
f 364 92 342
f 364 77 92
f 533 577 535
f 535 504 533
f 529 535 548
f 390 379 310
f 358 379 390
f 300 291 493
f 493 494 300
f 331 291 300
f 276 331 287
f 276 491 493
f 418 438 437
f 531 494 493
f 454 482 472
f 512 470 472
f 472 482 512
f 20 17 12
f 12 6 20
f 16 17 20
f 20 6 4
f 4 19 20
f 20 22 16
f 26 19 24
f 26 29 23
f 23 19 26
f 8 3 9
f 9 11 8
f 82 100 79
f 79 89 82
f 113 89 108
f 113 108 124
f 124 135 113
f 583 564 586
f 583 596 639
f 586 596 583
f 586 564 547
f 547 574 586
f 547 564 381
f 381 574 547
f 592 600 566
f 629 600 631
f 631 657 629
f 637 657 631
f 600 592 631
f 602 637 631
f 631 592 602
f 627 635 590
f 703 696 694
f 397 427 431
f 620 427 658
f 431 427 620
f 696 695 672
f 566 538 532
f 293 334 313
f 385 375 363
f 340 350 375
f 665 689 683
f 580 604 421
f 421 425 580
f 580 425 584
f 658 427 615
f 427 604 615
f 387 385 497
f 497 385 363
f 363 350 497
f 566 600 568
f 568 538 566
f 288 278 274
f 274 259 288
f 274 269 259
f 294 302 499
f 499 286 294
f 294 332 302
f 294 286 332
f 419 305 391
f 391 411 419
f 391 413 411
f 356 413 391
f 391 359 356
f 391 378 359
f 444 439 461
f 444 500 439
f 501 500 475
f 481 461 483
f 483 515 481
f 528 564 545
f 613 583 639
f 572 545 613
f 627 590 578
f 517 488 528
f 528 545 517
f 517 545 572
f 477 471 445
f 505 471 477
f 477 536 505
f 365 467 457
f 343 365 430
f 365 434 430
f 473 513 483
f 471 513 473
f 473 450 471
f 521 513 561
f 521 515 483
f 483 513 521
f 483 461 455
f 455 473 483
f 450 473 455
f 455 461 407
f 445 471 441
f 471 450 441
f 441 417 445
f 441 409 417
f 450 455 441
f 407 409 441
f 441 455 407
f 417 409 377
f 356 329 341
f 162 148 212
f 244 231 259
f 244 162 231
f 129 169 153
f 153 145 129
f 182 186 152
f 165 167 133
f 86 85 129
f 129 145 122
f 122 86 129
f 104 122 145
f 86 122 104
f 71 80 57
f 27 18 43
f 24 18 27
f 27 26 24
f 142 150 143
f 143 127 142
f 68 40 54
f 68 58 40
f 74 58 68
f 68 87 74
f 54 87 68
f 43 40 56
f 40 58 56
f 56 70 97
f 577 621 575
f 621 617 575
f 575 535 577
f 575 548 535
f 647 596 655
f 655 670 647
f 655 664 679
f 679 670 655
f 587 585 605
f 605 607 609
f 609 606 605
f 588 587 605
f 605 606 588
f 581 612 638
f 581 569 612
f 569 581 563
f 563 581 585
f 594 654 607
f 646 654 594
f 607 605 594
f 594 605 585
f 638 646 594
f 594 581 638
f 585 581 594
f 599 591 565
f 628 630 599
f 599 630 591
f 628 624 650
f 706 687 690
f 690 687 660
f 560 550 512
f 597 550 560
f 577 589 626
f 589 634 626
f 626 621 577
f 626 652 621
f 660 652 626
f 626 634 660
f 225 164 163
f 225 163 205
f 345 341 337
f 257 220 249
f 249 260 257
f 249 220 224
f 249 337 260
f 132 137 160
f 160 151 132
f 160 137 158
f 160 158 178
f 178 174 160
f 174 151 160
f 155 156 161
f 161 176 155
f 155 176 158
f 155 158 135
f 135 140 155
f 140 156 155
f 147 131 154
f 134 157 154
f 154 131 134
f 150 149 173
f 149 190 173
f 159 177 157
f 159 143 150
f 157 143 159
f 150 173 159
f 159 173 177
f 197 177 199
f 190 211 199
f 211 221 199
f 117 93 95
f 93 83 95
f 243 228 163
f 163 164 243
f 219 209 197
f 219 226 209
f 197 199 219
f 219 199 221
f 232 226 219
f 256 232 219
f 219 221 256
f 287 307 295
f 295 328 287
f 307 328 295
f 307 327 320
f 320 328 307
f 327 328 320
f 232 261 348
f 348 383 232
f 348 376 383
f 370 400 376
f 423 414 401
f 401 416 423
f 383 376 396
f 376 400 396
f 396 400 408
f 408 416 396
f 423 443 446
f 487 364 466
f 466 364 456
f 456 364 452
f 452 364 433
f 433 446 452
f 452 466 456
f 573 364 382
f 573 585 587
f 587 364 573
f 487 466 502
f 612 569 544
f 569 563 544
f 372 379 358
f 358 354 372
f 358 390 355
f 355 370 357
f 357 327 355
f 355 327 331
f 306 494 418
f 306 300 494
f 418 390 306
f 306 390 310
f 306 310 331
f 331 300 306
f 285 291 331
f 331 276 285
f 493 291 285
f 285 276 493
f 268 292 491
f 252 264 268
f 264 292 268
f 438 494 442
f 442 437 438
f 458 437 442
f 418 437 412
f 412 355 390
f 432 440 408
f 454 440 432
f 470 440 448
f 448 472 470
f 448 440 454
f 454 472 448
f 460 480 482
f 460 482 454
f 460 437 458
f 454 432 460
f 460 432 437
f 21 19 23
f 21 20 19
f 23 22 21
f 22 20 21
f 29 26 30
f 39 364 30
f 30 364 29
f 26 27 30
f 5 19 4
f 5 8 19
f 3 8 5
f 5 4 1
f 1 3 5
f 15 19 14
f 19 8 14
f 14 11 15
f 14 8 11
f 89 113 94
f 94 82 89
f 637 635 663
f 663 657 637
f 663 691 686
f 686 657 663
f 598 590 635
f 598 637 602
f 598 635 637
f 602 561 598
f 699 694 683
f 703 694 699
f 712 703 699
f 399 397 431
f 431 428 399
f 399 428 398
f 399 398 367
f 421 427 392
f 427 397 392
f 392 403 421
f 366 314 360
f 360 392 366
f 366 392 397
f 431 620 623
f 696 672 675
f 672 623 675
f 668 695 684
f 668 672 695
f 515 532 508
f 508 500 501
f 501 515 508
f 499 500 508
f 508 532 499
f 555 532 515
f 555 592 566
f 566 532 555
f 555 521 561
f 515 521 555
f 555 561 602
f 602 592 555
f 499 532 511
f 511 532 538
f 336 313 334
f 334 350 336
f 350 340 336
f 303 340 309
f 641 625 651
f 689 665 676
f 676 651 686
f 676 641 651
f 665 641 676
f 686 702 676
f 702 689 676
f 642 683 658
f 642 665 683
f 658 615 642
f 642 615 604
f 584 425 557
f 425 553 557
f 595 568 600
f 595 600 629
f 629 625 595
f 595 625 584
f 584 553 595
f 553 568 595
f 311 391 305
f 378 391 311
f 305 332 311
f 359 378 371
f 371 353 359
f 459 444 461
f 469 481 475
f 469 475 500
f 490 515 501
f 490 481 515
f 564 583 570
f 583 613 570
f 570 545 564
f 570 613 545
f 572 613 618
f 576 578 536
f 572 618 576
f 536 578 534
f 534 578 590
f 505 536 534
f 536 477 484
f 484 477 479
f 484 519 536
f 484 479 467
f 467 519 484
f 488 517 503
f 467 488 503
f 503 519 467
f 549 517 572
f 549 576 536
f 572 576 549
f 453 434 365
f 365 457 453
f 467 479 453
f 453 457 467
f 343 430 415
f 415 215 343
f 422 402 415
f 415 430 434
f 422 417 395
f 395 402 422
f 224 215 395
f 395 415 402
f 215 415 395
f 373 377 409
f 407 356 373
f 373 409 407
f 356 341 373
f 345 377 373
f 373 341 345
f 330 341 329
f 330 301 288
f 330 337 341
f 218 162 212
f 231 162 218
f 218 212 222
f 222 231 218
f 246 259 253
f 246 244 259
f 246 253 235
f 187 196 186
f 186 182 187
f 205 196 187
f 133 103 138
f 103 104 138
f 138 104 145
f 138 165 133
f 55 72 50
f 35 55 50
f 50 54 35
f 76 87 54
f 54 50 76
f 76 50 72
f 76 72 103
f 103 105 76
f 55 86 75
f 75 72 55
f 86 104 75
f 75 104 103
f 103 72 75
f 71 57 51
f 51 28 100
f 22 28 51
f 85 86 69
f 69 86 55
f 62 80 90
f 62 57 80
f 62 69 55
f 55 41 62
f 41 57 62
f 112 115 97
f 127 115 112
f 134 127 136
f 127 143 136
f 136 157 134
f 136 143 157
f 97 70 81
f 81 91 97
f 70 56 81
f 81 56 58
f 81 58 74
f 74 91 81
f 139 103 133
f 139 105 103
f 133 167 139
f 52 56 97
f 52 27 43
f 43 56 52
f 608 596 606
f 608 655 596
f 664 655 608
f 609 664 608
f 608 606 609
f 565 543 537
f 537 491 509
f 537 543 531
f 493 491 537
f 537 531 493
f 684 693 666
f 666 693 677
f 579 632 610
f 603 632 579
f 701 706 685
f 706 690 685
f 685 677 701
f 685 650 677
f 636 630 656
f 650 685 656
f 656 630 628
f 628 650 656
f 597 560 601
f 636 597 601
f 601 630 636
f 591 630 601
f 512 482 520
f 520 560 512
f 157 177 175
f 175 154 157
f 175 177 197
f 177 173 179
f 179 199 177
f 179 173 190
f 190 199 179
f 88 83 93
f 109 92 88
f 92 77 88
f 88 117 109
f 88 93 117
f 120 117 99
f 117 95 99
f 245 243 164
f 164 225 245
f 245 236 252
f 245 225 236
f 258 221 228
f 228 243 258
f 256 221 258
f 243 245 258
f 258 245 252
f 287 256 258
f 252 268 258
f 277 261 287
f 287 316 277
f 277 316 261
f 287 328 324
f 324 316 287
f 328 316 324
f 261 316 344
f 344 348 261
f 344 316 328
f 344 328 357
f 357 370 344
f 376 348 344
f 344 370 376
f 414 209 394
f 394 401 414
f 209 226 394
f 394 226 383
f 416 401 394
f 383 396 394
f 394 396 416
f 435 433 423
f 423 446 435
f 435 446 433
f 476 446 443
f 443 470 476
f 470 504 476
f 504 535 476
f 546 563 585
f 585 573 546
f 382 563 546
f 546 573 382
f 529 548 516
f 516 502 529
f 487 502 516
f 347 354 358
f 358 338 347
f 318 372 354
f 354 347 318
f 310 379 318
f 379 372 318
f 318 347 338
f 318 338 358
f 358 355 318
f 331 310 318
f 318 355 331
f 273 276 287
f 287 258 273
f 273 258 268
f 491 276 273
f 273 268 491
f 462 458 449
f 458 442 449
f 449 494 462
f 449 442 494
f 410 390 418
f 418 412 410
f 410 412 390
f 405 432 408
f 408 400 405
f 406 412 437
f 437 432 406
f 432 405 406
f 406 405 400
f 355 412 406
f 400 370 406
f 370 355 406
f 531 543 554
f 565 591 554
f 554 543 565
f 462 494 464
f 494 468 464
f 464 468 480
f 464 458 462
f 464 460 458
f 480 460 464
f 82 94 96
f 96 94 113
f 683 689 692
f 692 699 683
f 712 699 692
f 692 702 712
f 692 689 702
f 375 385 389
f 389 385 387
f 389 387 403
f 403 392 389
f 397 399 368
f 368 366 397
f 368 399 367
f 658 683 667
f 683 694 667
f 667 620 658
f 671 694 696
f 696 675 671
f 671 667 694
f 671 675 623
f 671 623 620
f 620 667 671
f 499 511 496
f 269 274 496
f 496 278 499
f 496 274 278
f 510 511 538
f 538 568 510
f 568 524 510
f 293 313 297
f 313 283 297
f 235 216 208
f 208 162 235
f 208 207 162
f 171 138 145
f 282 292 264
f 313 336 298
f 298 340 303
f 298 336 340
f 584 625 611
f 625 641 611
f 611 580 584
f 633 641 665
f 665 642 633
f 633 611 641
f 633 642 604
f 604 580 633
f 580 611 633
f 559 553 584
f 584 557 559
f 559 557 553
f 526 568 553
f 526 524 568
f 425 524 526
f 356 359 319
f 353 371 319
f 319 332 356
f 319 311 332
f 378 311 319
f 319 371 378
f 451 459 463
f 444 459 451
f 451 463 500
f 500 444 451
f 463 459 465
f 481 469 465
f 461 481 465
f 465 459 461
f 500 463 465
f 465 469 500
f 475 481 486
f 481 490 486
f 501 475 486
f 486 490 501
f 645 613 639
f 645 618 613
f 639 647 645
f 647 670 645
f 645 670 674
f 627 578 622
f 578 576 622
f 622 576 618
f 618 645 622
f 551 534 590
f 551 598 561
f 590 598 551
f 505 534 551
f 551 513 505
f 561 513 551
f 519 503 530
f 536 519 530
f 530 549 536
f 530 503 517
f 517 549 530
f 447 436 434
f 434 453 447
f 447 445 422
f 447 453 479
f 447 477 445
f 479 477 447
f 422 415 424
f 424 447 422
f 436 447 424
f 434 436 424
f 424 415 434
f 417 377 380
f 380 395 417
f 321 330 329
f 301 330 321
f 321 329 288
f 288 301 321
f 260 337 317
f 337 330 317
f 162 244 166
f 244 246 166
f 235 162 166
f 166 246 235
f 42 51 57
f 42 41 36
f 42 57 41
f 22 51 42
f 16 22 42
f 42 36 16
f 100 71 61
f 61 51 100
f 71 51 61
f 73 62 90
f 69 62 73
f 85 69 73
f 73 110 85
f 90 110 73
f 34 52 97
f 27 52 34
f 60 39 46
f 125 112 97
f 125 106 142
f 142 127 125
f 127 112 125
f 167 172 144
f 144 139 167
f 144 182 152
f 144 172 182
f 152 146 144
f 567 525 552
f 567 599 565
f 565 537 567
f 523 525 567
f 509 523 567
f 567 537 509
f 632 666 640
f 624 610 640
f 640 610 632
f 640 650 624
f 677 650 640
f 640 666 677
f 643 666 632
f 632 603 643
f 684 666 643
f 582 610 624
f 579 610 582
f 662 685 690
f 662 656 685
f 662 690 660
f 636 656 662
f 662 634 636
f 660 634 662
f 492 333 349
f 509 491 492
f 491 292 492
f 292 333 492
f 374 388 384
f 197 206 185
f 185 175 197
f 185 206 342
f 120 99 118
f 118 99 115
f 118 134 120
f 118 127 134
f 118 115 127
f 98 99 95
f 98 83 97
f 98 95 83
f 97 115 98
f 115 99 98
f 478 476 535
f 466 452 478
f 478 452 446
f 446 476 478
f 571 516 548
f 544 516 571
f 612 544 571
f 548 575 571
f 571 617 612
f 571 575 617
f 527 516 544
f 527 544 563
f 527 563 382
f 527 382 487
f 487 516 527
f 562 601 560
f 560 520 562
f 591 601 562
f 562 554 591
f 480 468 474
f 474 468 494
f 494 495 474
f 531 554 514
f 494 531 514
f 514 495 494
f 100 82 101
f 82 96 101
f 101 116 100
f 135 119 121
f 121 113 135
f 352 392 360
f 352 389 392
f 352 309 340
f 352 340 375
f 375 389 352
f 360 314 352
f 314 309 352
f 498 496 511
f 511 510 498
f 498 510 497
f 498 350 334
f 498 497 350
f 498 334 293
f 498 293 253
f 253 269 498
f 269 496 498
f 507 510 524
f 507 425 403
f 507 524 425
f 497 510 507
f 403 387 507
f 387 497 507
f 165 138 168
f 138 171 168
f 181 153 169
f 145 153 181
f 181 171 145
f 238 216 235
f 293 297 281
f 281 265 293
f 281 267 265
f 366 368 326
f 326 368 367
f 367 322 326
f 217 225 205
f 171 181 204
f 290 283 313
f 313 298 290
f 280 297 283
f 280 281 297
f 280 271 267
f 267 281 280
f 540 553 425
f 425 526 540
f 359 353 346
f 346 319 359
f 353 319 346
f 705 707 688
f 707 691 688
f 224 395 369
f 395 380 369
f 369 249 224
f 345 337 369
f 337 249 369
f 369 377 345
f 369 380 377
f 288 260 272
f 272 317 288
f 260 317 272
f 325 330 288
f 288 317 325
f 325 317 330
f 97 48 45
f 45 34 97
f 48 46 45
f 39 34 45
f 45 46 39
f 39 30 32
f 32 34 39
f 32 30 27
f 27 34 32
f 97 83 78
f 78 67 97
f 65 67 78
f 83 88 78
f 78 77 65
f 78 88 77
f 59 48 97
f 97 67 59
f 59 67 65
f 65 60 59
f 60 46 59
f 59 46 48
f 97 91 111
f 111 125 97
f 111 91 74
f 74 106 111
f 106 125 111
f 105 139 123
f 139 144 123
f 123 128 106
f 146 128 123
f 123 144 146
f 106 87 123
f 87 76 123
f 123 76 105
f 426 525 523
f 426 539 525
f 552 539 426
f 426 556 552
f 426 582 556
f 579 582 426
f 659 668 684
f 684 643 659
f 614 603 428
f 614 643 603
f 593 567 552
f 552 582 593
f 593 582 624
f 599 567 593
f 593 624 628
f 628 599 593
f 552 556 558
f 558 582 552
f 556 582 558
f 292 282 296
f 384 492 362
f 362 492 349
f 362 374 384
f 349 374 362
f 386 492 384
f 384 388 386
f 388 404 386
f 339 351 388
f 388 374 339
f 339 374 349
f 308 351 339
f 175 185 170
f 147 154 170
f 154 175 170
f 342 147 170
f 170 185 342
f 529 502 518
f 518 535 529
f 518 478 535
f 518 502 466
f 466 478 518
f 480 474 485
f 485 474 495
f 554 562 522
f 522 514 554
f 522 562 520
f 522 520 482
f 482 480 522
f 480 514 522
f 102 96 113
f 113 121 102
f 102 121 119
f 102 119 116
f 116 101 102
f 102 101 96
f 184 181 169
f 169 148 184
f 251 238 235
f 235 265 251
f 265 267 251
f 275 262 254
f 275 326 322
f 271 280 275
f 275 309 314
f 275 280 283
f 303 309 275
f 275 298 303
f 283 290 275
f 275 290 298
f 314 366 323
f 366 326 323
f 323 275 314
f 326 275 323
f 266 282 264
f 236 225 237
f 225 217 237
f 205 187 214
f 214 217 205
f 214 187 182
f 181 184 188
f 542 526 553
f 553 540 542
f 542 540 526
f 682 698 705
f 705 688 682
f 388 351 361
f 361 393 388
f 361 351 308
f 367 398 361
f 398 393 361
f 552 525 541
f 541 539 552
f 525 539 541
f 579 426 420
f 420 603 579
f 420 426 404
f 428 603 420
f 398 428 420
f 420 393 398
f 420 404 388
f 388 393 420
f 668 659 619
f 619 428 431
f 619 614 428
f 659 614 619
f 672 668 619
f 431 623 619
f 619 623 672
f 616 659 643
f 643 614 616
f 616 614 659
f 506 386 404
f 492 386 506
f 509 492 506
f 506 523 509
f 506 426 523
f 404 426 506
f 495 514 489
f 489 485 495
f 489 514 480
f 480 485 489
f 279 275 284
f 282 266 279
f 284 296 279
f 279 296 282
f 308 275 315
f 315 275 322
f 315 361 308
f 315 322 367
f 367 361 315
f 271 275 263
f 238 251 263
f 267 271 263
f 263 251 267
f 236 237 250
f 264 236 250
f 250 266 264
f 254 262 250
f 250 237 254
f 182 172 202
f 202 172 167
f 254 237 247
f 247 237 217
f 247 275 254
f 213 204 181
f 181 188 213
f 213 188 207
f 213 208 216
f 207 208 213
f 207 188 195
f 195 188 184
f 195 184 148
f 148 162 195
f 162 207 195
f 649 622 645
f 649 682 622
f 698 682 649
f 674 698 649
f 649 645 674
f 653 682 688
f 627 622 653
f 622 682 653
f 308 339 304
f 304 275 308
f 304 299 275
f 284 275 289
f 275 299 289
f 289 296 284
f 262 275 270
f 275 279 270
f 270 279 266
f 270 250 262
f 266 250 270
f 255 275 248
f 255 263 275
f 238 263 255
f 216 238 255
f 255 248 216
f 203 214 182
f 182 202 203
f 167 165 192
f 192 202 167
f 661 653 688
f 661 663 635
f 661 635 627
f 627 653 661
f 691 663 661
f 661 688 691
f 335 289 299
f 335 304 339
f 299 304 335
f 349 333 335
f 335 339 349
f 240 203 202
f 191 192 165
f 296 289 312
f 289 335 312
f 312 335 333
f 312 333 292
f 292 296 312
f 202 192 230
f 192 191 230
f 214 203 241
f 203 240 241
f 217 214 241
f 241 247 217
f 275 247 241
f 241 240 275
f 233 240 202
f 202 230 233
f 275 240 233
f 233 230 275
f 204 234 201
f 171 204 201
f 227 230 191
f 275 230 227
f 204 213 242
f 216 248 242
f 242 213 216
f 248 275 242
f 193 227 191
f 193 201 234
f 165 168 193
f 193 191 165
f 193 168 171
f 171 201 193
f 239 234 204
f 204 242 239
f 275 234 239
f 239 242 275
f 229 193 234
f 227 193 229
f 229 234 275
f 275 227 229
