v -0.01017722674 0.002884034533 -0.001119719585
v -0.01017718203 0.003939942457 -0.001446588896
v -0.01016712096 0.004290981218 -0.001630872488
v -0.01016184688 0.004239095841 -0.001716646133
v -0.01015329361 0.00462220097 -0.001847377629
v -0.01014919207 0.004561727867 -0.001928395941
v -0.010132025 0.001777994563 -0.001078250585
v -0.01009129267 0.005499973428 -0.002481966978
v -0.01006873697 0.001444766182 0.0002685787622
v -0.01004047692 0.0007024380029 -0.001326733967
v -0.01000682916 0.006241519935 -0.003015647875
v -0.009987872094 0.006114957854 -0.003182355547
v -0.009939932264 0.006700284779 -0.003344745142
v -0.009920119308 0.006822856609 -0.003432523692
v -0.00991350878 -0.0002643070184 -0.001847774489
v -0.009775672108 -0.001056203619 -0.002600001171
v -0.009720370173 0.007854144089 -0.004168325104
v -0.009715999477 -0.001348287333 -0.003010674147
v -0.009715208784 0.007722418755 -0.004343828186
v -0.00970312953 -0.001066021388 0.0002172767709
v -0.009657391347 -0.001616813592 -0.003531915136
v -0.0096284803 -0.0009995414875 0.002885883208
v -0.009596227668 -0.001734560588 -0.005586794112
v -0.009589421563 -0.001677004504 -0.005586795975
v -0.009585552849 -0.001902817865 -0.004581404384
v -0.009578084573 -0.001904951874 -0.005586794112
v -0.0095443381 0.008431580849 -0.004758432508
v -0.009397587739 0.009027947672 -0.004764072597
v -0.009348489344 0.004529957194 0.03762817755
v -0.009348268621 0.004586929455 0.03777775541
v -0.009346277453 0.004744866397 0.03807581961
v -0.009344056249 0.004844532348 0.03821706399
v -0.009340950288 0.004948759452 0.03834099323
v -0.00932248868 0.005334314425 0.03866780549
v -0.009318152443 0.009259700775 -0.004836614244
v -0.009315974079 0.003386473516 0.03566179052
v -0.009313304909 0.005470327102 0.03874917701
v -0.009300212376 -0.002771593397 -0.005586794112
v -0.009296303615 0.003107088152 0.03554000705
v -0.009289058857 0.008883176371 -0.005150366109
v -0.00928307604 0.002951533534 0.03549289703
v -0.00927061215 0.005938229151 0.03893319145
v -0.009259363636 0.006036686245 0.03895519674
v -0.009252318181 0.006095005199 0.03896567598
v -0.009228743613 0.002449973952 0.03542898223
v -0.009195245802 0.009588527493 -0.004918542691
v -0.00918658264 0.009536651894 -0.005128568038
v -0.009180370718 0.006591745652 0.03898821399
v -0.009138575755 0.001847143052 0.03542897478
v -0.009093826637 0.009458724409 -0.005308258813
v -0.009086293168 0.00690533407 0.0389312692
v -0.009070550092 -0.003400564659 -0.002909156028
v -0.0090207709 0.001249974943 0.03542897478
v -0.008987559006 -0.003446812043 0.0001168346935
v -0.008933240548 0.009368966334 -0.005423628725
v -0.008920732886 0.007749056444 0.03794715554
v -0.008919659071 -0.003350813175 0.002907513408
v -0.008897319436 0.0007479756023 0.03549300134
v -0.008883391507 0.01029727422 -0.00501618674
v -0.008862657472 0.0100318715 -0.005396778695
v -0.008862045594 0.007845875807 0.03807862848
v -0.008847648278 0.0005704761716 0.03554794937
v -0.008820384741 -0.003927478101 -0.005586794112
v -0.008707543835 0.009946195409 -0.005517356563
v -0.008705069311 0.0001179027604 0.03578022122
v -0.008698255755 0.01065213326 -0.005025006365
v -0.008681653999 0.01064297464 -0.005234348588
v -0.008591850288 0.01059343014 -0.005417705979
v -0.008566285484 -0.004486880265 -0.00307483389
v -0.008517739363 0.009853853844 -0.005553456489
v -0.008484981023 -0.004532337189 4.60441006e-05
v -0.008476546966 0.008974382654 0.03702935576
v -0.008443669416 0.01051167864 -0.005542523228
v -0.008421792649 -0.004424464889 0.002893679542
v -0.008414855227 0.009046101943 0.0371655561
v -0.008280452341 -0.0007500262582 0.03975301981
v -0.008263817057 0.01041245367 -0.005586791784
v -0.008251769468 -0.004953471012 -0.005586791318
v -0.00823624339 -0.0007500264328 0.04012898728
v -0.008218879811 -0.0008791781147 0.03970501572
v -0.008194146678 -0.000755623274 0.04027850926
v -0.00807831157 -0.0008076953818 0.04049392417
v -0.007956597954 -0.005470900331 -0.003244268242
v -0.007946778089 0.01179821882 -0.005007659551
v -0.007936619222 0.01179043949 -0.005221744999
v -0.007878645323 -0.005518016405 -3.961823313e-05
v -0.007856956683 0.01172920875 -0.005411081016
v -0.007836693898 -0.000939991849 0.04073528945
v -0.007820885628 -0.005401368719 0.002860410605
v -0.00779453665 0.01021359023 0.03625388443
v -0.007749635726 -0.005655210931 -0.005586790387
v -0.007734053768 0.01025851537 0.03639374301
v -0.007727997378 -0.0009979794268 0.0408163853
v -0.007721431088 0.01162499562 -0.005540704355
v -0.007631980348 -0.001052327687 0.04088280722
v -0.007607838605 -0.001963317394 0.039302174
v -0.007585254032 -0.00183643098 0.03988297284
v -0.007577854209 0.01041245554 -0.005586796906
v -0.007555482909 0.01149738021 -0.005586795043
v -0.007346220315 -0.00122360047 0.04105711356
v -0.007344832644 -0.001798673184 0.04036934674
v -0.007283308543 -0.001262508333 0.04109139368
v -0.007236019708 -0.006329689175 -0.00341550773
v -0.007232877892 -0.001293906011 0.0411179252
v -0.007163232192 -0.006381543353 -0.0001409456017
v -0.007111489307 -0.006260089111 0.002805535216
v -0.007094439119 -0.006367499474 -0.005586793646
v -0.007024514023 0.01282170694 -0.005100041628
v -0.007014148869 0.01281052828 -0.005209025927
v -0.006947368849 0.01273850352 -0.00540434802
v -0.006938755512 -0.001479961677 0.04125802591
v -0.0068408316 0.01137561724 0.03564110026
v -0.006829978433 0.01261189301 -0.005538848229
v -0.006821583956 0.01138829254 0.03570327908
v -0.006808203645 -0.002894611331 0.03945225477
v -0.006767554674 -0.003083335934 0.03888059035
v -0.006767553277 -0.002605368616 0.04001498595
v -0.006728989538 -0.001614259905 0.0413441211
v -0.006684925873 0.01245544944 -0.005586795509
v -0.006682540756 0.01152817346 0.03556859493
v -0.006568511482 0.01162671205 0.03559001908
v -0.006567811128 -0.001717471983 0.04140287265
v -0.006519237068 0.01167671848 0.03549949825
v -0.006508089602 0.01167671662 0.03558515385
v -0.006432941649 0.009656080045 0.04211272299
v -0.006406608038 -0.00705112284 -0.003584957914
v -0.006340799388 -0.007110781502 -0.00025550797
v -0.006338373758 -0.00699322205 -0.005586791784
v -0.006295558531 -0.006988659035 0.002730671084
v -0.006205183454 -0.001916602021 0.04153607786
v -0.00617765123 0.01005311217 0.04232155904
v -0.006121082697 -0.00333866803 0.03968190774
v -0.006118609104 -0.005637487397 -0.005586796906
v -0.006024878006 0.01361148432 -0.005088183563
v -0.00601771893 0.0136009641 -0.005199198145
v -0.005963598378 0.01352077443 -0.005399135873
v -0.005907327868 -0.003841413651 0.03904116899
v -0.005870226771 0.01046829484 0.04243379459
v -0.005867628381 -0.004406839609 0.03425093368
v -0.00586638879 0.01337672025 -0.005537468009
v -0.005823598243 -0.004048289731 0.03848253563
v -0.005745195784 0.01319708023 -0.005586792249
v -0.005730561912 -0.007390135899 -0.005586790852
v -0.005683993921 -0.002270357218 0.04162897542
v -0.005668120459 0.01071173046 0.04245699942
v -0.005648148246 -0.003799431026 0.03945794702
v -0.00550743565 0.01391798072 -0.004972103983
v -0.005482898559 -0.00764100533 -0.003746331437
v -0.005425649695 -0.007710471749 -0.0003754199133
v -0.005387322046 -0.007590821013 0.002643798478
v -0.005170857534 -0.00460257614 0.03821742907
v -0.005116283894 -0.002580940491 0.04174721241
v -0.005106575321 -0.002532404615 0.0418228209
v -0.005089372862 -0.002473126631 0.04188880697
v -0.00507382676 0.01132352278 0.04238267615
v -0.005024488084 -0.005074452609 0.03472078964
v -0.004926743917 -0.004667656496 0.03862379119
v -0.004838591442 -0.002729260363 0.04178401083
v -0.004824107513 -0.007853395306 -0.005586794578
v -0.004613318481 0.01438565832 -0.005077670794
v -0.004608919378 0.01437588315 -0.005190396681
v -0.004590614699 0.01173123065 0.04221699387
v -0.004570508841 0.01428906247 -0.00539441267
v -0.004499885719 0.01412928384 -0.005536158569
v -0.004480614327 -0.008106833324 -0.003893060377
v -0.004471342079 -0.004750598222 0.03893272951
v -0.004433236085 -0.008186940104 -0.0004923160304
v -0.004411288071 0.01392873377 -0.005586795043
v -0.004402162507 -0.008071794175 0.002553497674
v -0.004107822198 -0.005655975081 0.03515920788
v -0.004093407653 -0.005365859717 0.03779062629
v -0.004054803867 0.01210967451 0.04195122421
v -0.003954278771 -0.003166939132 0.04182897508
v -0.003911809064 -0.003073853441 0.04198012874
v -0.003874571528 -0.005383295007 0.03819060326
v -0.003847393673 -0.008220398799 -0.005586795043
v -0.003787991358 0.01469065435 -0.004961112514
v -0.003628856735 -0.005299682263 0.03856967017
v -0.003610549029 -0.008292344399 -0.005586795509
v -0.003595681163 0.01238214318 0.0416537784
v -0.003415464889 -0.008456098847 -0.004018597305
v -0.003379011992 -0.008546513505 -0.0005978086265
v -0.003355466994 -0.008436798118 0.002468340797
v -0.00333650317 -0.005804249085 0.03750790656
v -0.003155940445 -0.00644859951 0.03168285266
v -0.003132335609 -0.00613566814 0.03554211557
v -0.003065769095 -0.003519602818 0.04182897881
v -0.002992627677 0.01494413521 -0.005071203224
v -0.002990245353 0.01493499987 -0.005184964277
v -0.002966996282 0.01484409627 -0.005391484126
v -0.002923580818 0.01467419788 -0.005535334349
v -0.002919537015 -0.006011848804 0.03736480325
v -0.002909827977 -0.003463600995 0.04198013619
v -0.002868889365 0.01446007565 -0.005586797372
v -0.002751215827 0.001272866502 0.04665765166
v -0.002751175314 0.001424010843 0.0467829369
v -0.002750723157 0.003103346564 0.04778391123
v -0.002750600455 0.003570069326 0.04796022549
v -0.002750385785 0.004368830938 0.04817792401
v -0.00275021838 0.004987355322 0.04827887565
v -0.002750215586 0.004994454328 0.04827971756
v -0.00274995435 0.00597336702 0.04832435772
v -0.002749887528 0.006227960344 0.04831341282
v -0.002749823267 0.006462814752 0.04829502478
v -0.002749724314 0.006826420315 0.04825072736
v -0.002749691717 0.006948880851 0.04823141918
v -0.002749513136 0.007614859845 0.04808660597
v -0.00274919183 0.008813195862 0.04764281586
v -0.002749162726 0.008918048814 0.04759155214
v -0.002748903586 0.009882474318 0.04700827226
v -0.002748783911 0.01032620203 0.04666015878
v -0.002748754108 0.01044104341 0.04656012729
v -0.002748416038 0.01170463488 0.04506834224
v -0.002748201368 0.01250477321 0.04328455776
v -0.00274816528 0.01262330264 0.04281299934
v -0.002748126164 0.01277864818 0.04134880751
v -0.002714121714 0.00263873511 0.04758488014
v -0.002691464731 0.006797120441 0.04827793688
v -0.002653526841 -0.005814109929 0.03817461804
v -0.002576811472 0.004536326509 0.04827794805
v -0.002573699458 0.001163382549 0.04665217549
v -0.002522251802 -0.005873305723 0.0381254144
v -0.002459211741 0.01153093111 0.04551559314
v -0.002453084337 -0.008563214913 -0.005586791784
v -0.002436890965 0.01215871237 0.04449236766
v -0.002435713541 0.007318504155 0.0482779257
v -0.002380344085 0.0092202425 0.04758484662
v -0.002303169109 -0.008696296252 -0.004116381053
v -0.00227842899 -0.008795518428 -0.0006835396052
v -0.002269622171 0.00404349342 0.04827795178
v -0.002262617694 -0.008691052906 0.002396893222
v -0.002128675114 -0.006837511435 0.03197260946
v -0.002112994669 0.01299646404 0.04134880751
v -0.002112732036 -0.006497791503 0.0358454138
v -0.002091386821 0.010673807 0.04665211588
v -0.002080243779 0.0077777314 0.04827792943
v -0.00206445693 -0.00380001124 0.04182897508
v -0.002022142755 0.002157104667 0.04758488759
v -0.002016791143 -0.00637194654 0.03710410371
v -0.001928959857 0.0151446946 -0.004955974407
v -0.001869518077 0.003622583579 0.04827795923
v -0.001643189695 0.009629396722 0.04758483544
v -0.001639611204 0.00815600343 0.04827792943
v -0.001587611507 0.0007402182673 0.04665218294
v -0.001509738853 0.01314674132 0.04134881124
v -0.001480727806 0.01300558913 0.04281197488
v -0.001473019598 -0.003808247391 0.04198012501
v -0.001461296109 0.005726206582 0.04870472476
v -0.001446303795 0.006021880545 0.04870472848
v -0.001416468178 0.005433565937 0.04870473593
v -0.001394815743 0.01258754078 0.0442189239
v -0.001392877777 0.00329083018 0.0482779555
v -0.001372094499 0.006308484357 0.04870472476
v -0.001317414804 -0.006291996688 0.03775215894
v -0.001313646673 0.00515594054 0.04870473966
v -0.001255300594 0.01190865971 0.04551558197
v -0.001248057 -0.008722386323 -0.005586795043
v -0.00124737795 0.001824626466 0.04758489132
v -0.001241717488 0.006574281957 0.04870472476
v -0.001209129347 0.01524286158 -0.00518262852
v -0.001208304428 0.01523446385 -0.004955179058
v -0.001200115192 0.01515000593 -0.005390224513
v -0.00119435892 -0.006321521476 0.03772381693
v -0.001183115877 0.01497525908 -0.005534983706
v -0.001161649707 0.01475463156 -0.00558679644
v -0.001159441192 -0.008834918961 -0.004179857671
v -0.00115704257 0.004904696718 0.04870473966
v -0.001131850644 0.008437833749 0.04827791825
v -0.001071752049 -0.007084282581 0.03216297179
v -0.00106754771 0.01099503785 0.04665211961
v -0.001063716598 -0.006726607215 0.03604505211
v -0.001060500625 0.006808394566 0.04870472103
v -0.001038548769 -0.003969615791 0.04182898253
v -0.0009530730313 0.0046901186 0.04870473966
v -0.0008592084632 0.003061815165 0.04827796295
v -0.0008387643611 0.009881787002 0.04758483917
v -0.0008358649793 0.007001237012 0.04870472476
v -0.0007558516227 -0.006664721295 0.03688233718
v -0.0007100798539 0.00452099368 0.04870473221
v -0.0005777524202 0.008611682802 0.04827792197
v -0.0005770134158 0.00714491168 0.04870471731
v -0.0005365244579 0.0005242147599 0.04665218666
v -0.0004380199825 0.00440424215 0.04870473221
v -0.0004215464287 0.00165491295 0.04758489132
v -0.0002945361193 0.007233539596 0.04870471731
v -0.0002903657441 0.002944915555 0.04827795178
v -0.0001480272476 0.004344645888 0.04870473966
v -2.647757924e-07 -0.004026395269 0.04182897881
v -1.320214493e-09 0.005800315645 0.04884883761
v -1.145087469e-09 0.01110359747 0.04665211961
v -8.620941736e-10 0.01203631237 0.04551557824
v -7.355295816e-10 0.008670434356 0.04827792197
v -6.495475822e-10 0.01315616444 0.04281197861
v -6.04881145e-10 0.01330026705 0.04134880751
v -4.935412633e-10 0.00726349093 0.04870471731
v -3.281581672e-10 0.009967081249 0.04758483917
v 1.264016112e-10 -0.00646394724 0.03758192062
v 2.768348605e-10 -0.003924079239 0.04198013246
v 2.913090326e-10 0.01272937935 0.04421892762
v 4.442826938e-10 -0.006714705843 0.03684358299
v 1.06826914e-09 -0.008931269869 0.001539509278
v 1.865676058e-09 -0.006625540555 0.03722504154
v 1.867718202e-09 -0.007230046205 0.03132851422
v 1.870770427e-09 -0.008955282159 -0.002654617419
v 2.135290389e-09 -0.008774919435 -0.005586792715
v 2.280135636e-09 -0.008888192475 0.00232945336
v 2.438426572e-09 -0.008987129666 -0.0007621729164
v 4.275403853e-08 0.01529045589 -0.00495477207
v 0.0001480293722 0.004344646819 0.04870473221
v 0.0002903659188 0.002944915788 0.04827795178
v 0.0002945362357 0.007233540062 0.04870472476
v 0.0004215454974 0.001654913067 0.04758489504
v 0.0004380214959 0.004404242616 0.04870473221
v 0.0005365260877 0.000524215051 0.04665218294
v 0.0005770116695 0.007144912146 0.04870471358
v 0.0005777534097 0.008611683734 0.04827791825
v 0.0007100827061 0.004520993214 0.04870473221
v 0.0008161452133 0.01478226297 -0.005586790852
v 0.0008311557467 0.01500342693 -0.005534958094
v 0.0008358672494 0.007001237012 0.04870471731
v 0.0008387660491 0.009881786071 0.04758484289
v 0.0008430376183 0.01517857332 -0.005390138831
v 0.0008487291634 0.01526307408 -0.004954960197
v 0.0008493300411 0.01527159195 -0.005182460416
v 0.000859210093 0.003061815631 0.04827795923
v 0.0009530735551 0.0046901186 0.04870474339
v 0.0009725876735 -0.006368686445 0.03767744452
v 0.0009816882666 -0.008742677979 -0.005586793181
v 0.001038020477 -0.003969673999 0.04182898626
v 0.001060500508 0.006808395032 0.04870472476
v 0.001063719974 -0.006726607215 0.03604505211
v 0.001067546546 0.01099503972 0.04665210843
v 0.001071755192 -0.007084281184 0.03216296434
v 0.001131850993 0.00843783468 0.04827791452
v 0.001157045015 0.004904696252 0.04870474339
v 0.001159444335 -0.008834918961 -0.004179854877
v 0.001241715625 0.006574282423 0.04870471731
v 0.001247376786 0.001824625768 0.04758489504
v 0.00125530106 0.01190865971 0.04551557451
v 0.001310246647 -0.006294348277 0.03774948418
v 0.001313647139 0.005155941471 0.04870473593
v 0.001346284524 -0.006558786612 0.03696350381
v 0.001372095314 0.00630848296 0.04870472476
v 0.001392876846 0.00329083018 0.04827794805
v 0.001394814579 0.01258753985 0.04421892762
v 0.00141646585 0.005433565937 0.04870472848
v 0.00144630461 0.006021880545 0.04870472476
v 0.001461298554 0.005726206116 0.04870473221
v 0.001473021228 -0.003808246693 0.04198012128
v 0.001480728039 0.01300558913 0.04281197488
v 0.001509739552 0.01314674318 0.04134879634
v 0.001574520604 -0.006502891425 0.03700590134
v 0.001587610692 0.0007402184419 0.04665217921
v 0.001639607479 0.00815600343 0.04827792943
v 0.001643190393 0.009629396722 0.04758483544
v 0.001869517495 0.003622582881 0.04827795178
v 0.001928954618 0.0151446471 -0.004955973011
v 0.002022143686 0.002157104202 0.04758489132
v 0.002044114517 0.01432687975 -0.00558679644
v 0.002063936321 -0.00380012719 0.04182898626
v 0.002080243779 0.007777731866 0.04827792197
v 0.002091385191 0.010673807 0.04665210471
v 0.002112735063 -0.006497790571 0.03584541753
v 0.002112993971 0.01299646404 0.04134880751
v 0.002120767487 -0.006336863153 0.03713012859
v 0.002128676046 -0.006837510969 0.03197260946
v 0.002147558145 -0.00602871133 0.03799182177
v 0.002262622351 -0.008691051975 0.002396894852
v 0.002269622637 0.004043492489 0.04827794805
v 0.002278433414 -0.008795517497 -0.0006835398963
v 0.002289681695 -0.008591640741 -0.005586795043
v 0.002303172601 -0.008696295321 -0.00411638245
v 0.002380343853 0.0092202425 0.04758483917
v 0.002435711678 0.007318503223 0.04827792943
v 0.002438920317 0.01215806231 0.04449210688
v 0.002459208481 0.01153093111 0.04551559314
v 0.002550904639 0.01453618612 -0.005586790852
v 0.002573701087 0.001163382665 0.04665217921
v 0.002576810075 0.00453632744 0.0482779406
v 0.002599142026 0.01475208532 -0.005535234697
v 0.002637406811 0.01492330898 -0.005391122773
v 0.002657843987 0.01501474623 -0.005184292793
v 0.002659890801 0.01502379868 -0.005070406012
v 0.002691464964 0.006797121838 0.0482779257
v 0.002714120317 0.002638734644 0.04758488759
v 0.002720536897 -0.005991862155 0.03775550798
v 0.002748784609 0.001271389076 0.04665765166
v 0.002748824889 0.001422533765 0.0467829369
v 0.002749273553 0.003101867624 0.04778391123
v 0.002749400912 0.003570743371 0.04796095192
v 0.00274961628 0.004369410686 0.04817835614
v 0.002749780891 0.004992976785 0.04827971756
v 0.002749781823 0.004985878244 0.04827887565
v 0.002750045853 0.005971889943 0.04832435772
v 0.002750113374 0.006228038576 0.04831331596
v 0.002750176936 0.00646133814 0.04829502478
v 0.002750276122 0.006826548371 0.04825048149
v 0.002750308486 0.006947403774 0.04823141918
v 0.002750725718 0.008502404206 0.04778172076
v 0.002750808606 0.008811717853 0.04764281958
v 0.002750837477 0.008916571736 0.04759155214
v 0.002751097782 0.0098852152 0.04700522497
v 0.002751216525 0.01032472402 0.04666016251
v 0.002751246095 0.01043956634 0.04656013101
v 0.002751584165 0.0117031578 0.04506834224
v 0.002751798835 0.01250329614 0.04328455776
v 0.002751831431 0.01262182463 0.04281299934
v 0.002751874272 0.0127771711 0.04134880751
v 0.002835136838 -0.006050798576 0.03733734041
v 0.002909828676 -0.003463600762 0.04198013619
v 0.003065267811 -0.003519773716 0.04182897881
v 0.003132337239 -0.006135667674 0.03554211929
v 0.003155941842 -0.006448598579 0.03168284521
v 0.00335547165 -0.008436797187 0.002468337538
v 0.003379015019 -0.008546512574 -0.000597808219
v 0.003415466985 -0.008456097916 -0.004018594045
v 0.003523742082 -0.008317207918 -0.005586793181
v 0.003597280476 0.0123812696 0.04165235907
v 0.003633471206 -0.005297661759 0.03857042268
v 0.003787948517 0.0146906618 -0.004961111583
v 0.003853621194 -0.005394821521 0.03818537295
v 0.003892633598 -0.008205953985 -0.005586795975
v 0.00391181279 -0.003073852044 0.04198012501
v 0.003954280633 -0.003166938201 0.04182897508
v 0.004096002784 0.01208300516 0.04197269306
v 0.004107827321 -0.005655973684 0.03515921161
v 0.004118546378 0.01405220479 -0.005586793646
v 0.004200359806 0.0142560564 -0.005535953213
v 0.004265509546 0.0144183021 -0.005393682513
v 0.004300809931 0.01450612769 -0.00518903695
v 0.004304750822 0.01451575477 -0.005076047964
v 0.004402166232 -0.008071793243 0.002553501632
v 0.004433240276 -0.008186939172 -0.0004923102097
v 0.004480615258 -0.008106832393 -0.003893058049
v 0.004564238247 -0.005052721128 0.03797567636
v 0.004592887592 0.01172947045 0.04221661016
v 0.004836815875 -0.002726047067 0.04178153723
v 0.004900982138 -0.004685822409 0.03861643746
v 0.004928592592 -0.00780665176 -0.005586794112
v 0.004999303259 -0.002727590967 0.04162897542
v 0.005024492275 -0.005074451678 0.03472080082
v 0.005076793488 0.0113207968 0.04238266498
v 0.005088393576 -0.002466736827 0.04188540578
v 0.005328739062 -0.004083340988 0.03931057081
v 0.00538732484 -0.007590819616 0.002643799409
v 0.005425652489 -0.007710470818 -0.0003754202917
v 0.00548230065 0.0133664459 -0.005586792715
v 0.005482901819 -0.007641004864 -0.003746327478
v 0.005507306661 0.01391807105 -0.004972102121
v 0.00559688732 0.01355110947 -0.005537157413
v 0.005649040919 -0.002138646552 0.04176879674
v 0.005649245344 -0.003799320897 0.03945710883
v 0.005668120924 0.01071173046 0.04245710373
v 0.005683994852 -0.002270356985 0.0416289866
v 0.005688657053 0.013698956 -0.005397995003
v 0.005739462096 0.01378078479 -0.00519706076
v 0.005745969247 0.01379115507 -0.005085627548
v 0.005764991045 -0.005897041876 -0.005586796906
v 0.00582650397 -0.004045618232 0.03848373517
v 0.005867630709 -0.004406837747 0.03425093368
v 0.005872665439 -0.007304361556 -0.005586790387
v 0.005877720192 -0.003867725609 0.03903178498
v 0.005879372824 0.01045677345 0.04243245721
v 0.006115610711 -0.003772263648 0.03860369697
v 0.006178572308 0.01005177014 0.04232232645
v 0.006205254234 -0.001915494795 0.04153619334
v 0.006295563187 -0.006988657173 0.002730672248
v 0.006340802182 -0.007110780571 -0.0002555044775
v 0.006399790291 -0.006948421244 -0.005586795509
v 0.006406608503 -0.007051121444 -0.003584956285
v 0.006435011048 0.009652622975 0.04211273044
v 0.006500652526 0.01167672034 0.03560920432
v 0.006519235671 0.01167672034 0.03549950197
v 0.006568489596 0.0116267316 0.03559001535
v 0.00658698706 0.01161612384 0.03552750498
v 0.006589700468 -0.001703623682 0.04139278084
v 0.006684924942 0.01245545037 -0.005586791318
v 0.006766975857 -0.002605207497 0.0400156714
v 0.006767554209 -0.003083334304 0.03888059035
v 0.006776272785 -0.002930768766 0.03944040462
v 0.006786907557 0.01139511634 0.03578423709
v 0.006796175614 -0.001598434988 -0.005586796906
v 0.006830126047 0.01261205878 -0.005538905505
v 0.006840830669 0.0113756191 0.03564109653
v 0.006947117858 -0.001474675722 0.04125341773
v 0.006947448477 0.01273859292 -0.005404382944
v 0.007014532574 0.01281094644 -0.005209089722
v 0.007024728227 0.01282194443 -0.00510005746
v 0.007111490704 -0.006260087248 0.002805531258
v 0.007143488154 -0.006320542656 -0.005586789921
v 0.007163233124 -0.006381541025 -0.0001409519027
v 0.007236022502 -0.006329687778 -0.00341550447
v 0.007321186364 -0.001238778583 0.04107281566
v 0.007343987003 -0.001798611018 0.04037045315
v 0.007361627184 -0.001213785145 0.04105058685
v 0.007452833932 0.01068551 0.03599176183
v 0.007554199547 -0.001882939832 0.03986767679
v 0.007555478718 0.01149737928 -0.005586795975
v 0.007607833017 -0.001963309711 0.03930217028
v 0.007639688905 -0.001047010184 0.04087977484
v 0.0077214255 0.01162499376 -0.005540704355
v 0.007728287019 -0.0009968819795 0.04081797227
v 0.007795756683 -0.005597137846 -0.005586792715
v 0.007811684627 0.01014104858 0.03646208346
v 0.00782088656 -0.005401366856 0.002860412467
v 0.007836266421 -0.000940005295 0.0407358557
v 0.007856946439 0.01172920782 -0.005411080085
v 0.00787248835 0.01009342261 0.03632255644
v 0.007878647186 -0.005518014543 -3.9618546e-05
v 0.00793661084 0.01179043669 -0.005221746862
v 0.007946773432 0.01179821789 -0.005007656757
v 0.007956599817 -0.005470898934 -0.003244268009
v 0.008086052723 -0.0008033666527 0.0404833965
v 0.008194147609 -0.000755621586 0.04027851298
v 0.008218880743 -0.0008791751461 0.03970501572
v 0.008236241527 -0.0007500239881 0.04012898356
v 0.008263816126 0.0104124574 -0.005586796906
v 0.008280453272 -0.0007500236388 0.03975301608
v 0.008301505819 -0.004874762613 -0.005586795975
v 0.008421796374 -0.004424462095 0.002893677214
v 0.008443666622 0.01051168051 -0.00554252509
v 0.008477932774 0.009948139079 -0.005563665647
v 0.008484983817 -0.00453233486 4.604394053e-05
v 0.008518151939 0.008810601197 0.03733227029
v 0.008566285484 -0.004486878403 -0.003074832726
v 0.008579512127 0.008733857423 0.03719686717
v 0.008591847494 0.010593432 -0.005417703185
v 0.008681650274 0.01064297557 -0.005234348588
v 0.008698254824 0.01065213606 -0.005025004968
v 0.008700774051 0.0001053876331 0.0357888788
v 0.008803931065 -0.003961594775 -0.005586792715
v 0.008822379634 0.0004845103249 0.03558126464
v 0.008823913522 0.009661062621 -0.005479552317
v 0.008843186311 0.0005550924107 0.03555357084
v 0.008892366663 0.0007297428092 0.03549783304
v 0.008919662796 -0.003350810613 0.002907512477
v 0.008955419064 0.007509416435 0.0383673422
v 0.008981905878 0.009748738259 -0.005361429416
v 0.008987559937 -0.003446809947 0.0001168385861
v 0.00901270844 0.007405873854 0.03823756427
v 0.009020774625 0.001249977504 0.03542897478
v 0.009070551954 -0.003400562797 -0.002909151139
v 0.009074017406 0.009818998165 -0.005179714877
v 0.009126542136 0.006567136385 0.03933516145
v 0.009138577618 0.001847145148 0.03542898223
v 0.009190992452 0.009184631519 -0.005241966806
v 0.00921680592 0.006364082452 0.03921720013
v 0.009227597155 -0.002969896188 -0.005586795509
v 0.009228742681 0.00244997628 0.03542898223
v 0.009244294837 0.006168111693 0.03942173347
v 0.009253671393 0.006094258744 0.03942839429
v 0.009281281382 0.009361884557 -0.004864649381
v 0.009283073246 0.002951536095 0.03549289703
v 0.009305012412 0.005597448442 0.03939934075
v 0.009316549636 0.005448809825 0.03936596215
v 0.009342325851 0.004971411079 0.03917401284
v 0.009346850216 0.004827047233 0.03908586875
v 0.00935180299 0.004449976608 0.03875717521
v 0.009365505539 0.008627572097 -0.005056452006
v 0.009459891357 0.008728533983 -0.004886713345
v 0.009465594776 0.008815331385 -0.00468606269
v 0.009578087367 -0.001904948731 -0.005586795509
v 0.00958389882 -0.001649726066 -0.005586790852
v 0.009585557505 -0.001902800519 -0.004581321962
v 0.009628482163 -0.0009995381115 0.00288588088
v 0.009639748372 0.008193790913 -0.004386526067
v 0.009657403454 -0.00161676947 -0.003531828988
v 0.009703131393 -0.001066018711 0.0002172765671
v 0.009715207852 0.007722421549 -0.004343825858
v 0.009716002271 -0.001348284539 -0.003010676242
v 0.009720370173 0.007854145952 -0.004168325104
v 0.009775685146 -0.001056146692 -0.002599928528
v 0.009913518094 -0.0002642522159 -0.001847728156
v 0.009922193363 0.006810248829 -0.003423494054
v 0.009939931333 0.006700288504 -0.003344751196
v 0.009987871163 0.006114960648 -0.003182352753
v 0.0100068301 0.006241523195 -0.003015653929
v 0.01004048064 0.000702479505 -0.001326711383
v 0.01006873511 0.001444768626 0.000268575357
v 0.01009129267 0.005499975756 -0.002481960924
v 0.01013202872 0.001778020174 -0.001078242552
v 0.01015329175 0.004622202832 -0.001847377978
v 0.01016185526 0.004239131697 -0.001716597588
v 0.01016712096 0.004290984012 -0.001630872139
v 0.01017096173 0.003897003829 -0.001536315889
v 0.01017718296 0.003939945251 -0.001446591225
v 0.0101772286 0.002884046407 -0.001119718887
f 23 8 12
f 576 580 563
f 471 465 399
f 74 71 89
f 89 96 74
f 116 96 89
f 269 231 303
f 306 368 303
f 303 231 306
f 4 23 1
f 2 4 1
f 3 4 2
f 13 12 11
f 11 12 8
f 11 48 13
f 17 48 56
f 72 46 56
f 361 374 399
f 1 23 7
f 496 453 504
f 577 576 575
f 580 576 577
f 555 513 514
f 554 513 555
f 582 580 554
f 554 555 582
f 582 555 584
f 563 580 582
f 198 199 82
f 442 453 496
f 442 472 436
f 231 182 229
f 229 182 181
f 116 89 106
f 116 106 141
f 368 306 301
f 301 229 307
f 301 306 231
f 231 229 301
f 371 422 417
f 417 372 371
f 336 371 372
f 368 301 370
f 370 301 307
f 307 336 370
f 370 336 372
f 468 467 445
f 548 542 531
f 531 519 548
f 470 492 468
f 512 492 503
f 503 519 512
f 469 519 503
f 512 519 525
f 525 519 531
f 525 542 523
f 531 542 525
f 469 422 458
f 458 519 469
f 458 422 133
f 133 194 458
f 42 5 37
f 8 5 42
f 56 48 51
f 33 2 1
f 23 4 6
f 6 8 23
f 6 5 8
f 6 4 3
f 3 5 6
f 133 63 24
f 23 77 24
f 517 522 563
f 28 17 56
f 13 48 14
f 48 17 14
f 14 12 13
f 70 77 23
f 46 72 59
f 61 72 56
f 56 51 61
f 64 60 73
f 73 77 64
f 77 70 64
f 23 55 64
f 64 70 23
f 10 7 23
f 26 10 23
f 15 10 26
f 23 24 26
f 74 96 80
f 537 547 540
f 463 504 453
f 580 577 551
f 554 580 551
f 587 585 586
f 563 582 583
f 583 582 584
f 584 586 583
f 583 586 585
f 410 423 353
f 82 199 200
f 200 201 82
f 578 581 579
f 558 518 545
f 558 579 581
f 558 581 587
f 578 579 558
f 542 548 564
f 481 442 496
f 404 463 453
f 181 182 165
f 307 229 266
f 181 224 228
f 228 229 181
f 228 266 229
f 151 141 156
f 151 170 171
f 156 170 151
f 156 141 139
f 139 141 106
f 185 170 150
f 127 149 150
f 115 96 116
f 115 97 96
f 298 273 288
f 288 329 298
f 263 278 302
f 263 288 273
f 169 232 185
f 169 150 149
f 185 150 169
f 185 232 186
f 186 170 185
f 222 192 239
f 133 422 179
f 179 224 181
f 439 422 469
f 368 370 415
f 305 336 304
f 304 336 307
f 304 266 305
f 307 266 304
f 328 336 305
f 371 336 328
f 446 445 432
f 468 445 446
f 446 470 468
f 448 470 446
f 460 467 489
f 520 505 523
f 520 518 515
f 536 518 520
f 515 518 516
f 518 558 516
f 479 489 505
f 441 467 460
f 435 412 426
f 426 441 435
f 426 445 467
f 467 441 426
f 409 435 421
f 409 412 435
f 412 409 363
f 469 503 490
f 490 503 492
f 490 470 469
f 492 470 490
f 501 498 477
f 498 447 477
f 427 447 498
f 496 504 508
f 571 566 540
f 540 547 571
f 563 546 559
f 563 559 560
f 560 559 546
f 48 11 44
f 44 11 8
f 48 207 125
f 206 207 48
f 48 44 206
f 2 33 34
f 3 2 34
f 37 5 34
f 34 5 3
f 98 24 77
f 98 194 133
f 133 24 98
f 482 458 194
f 194 517 482
f 519 458 482
f 482 517 519
f 521 498 501
f 521 517 498
f 522 517 521
f 56 46 35
f 35 28 56
f 17 28 27
f 19 14 17
f 19 27 23
f 17 27 19
f 23 12 19
f 12 14 19
f 72 61 75
f 138 92 75
f 90 72 75
f 75 92 90
f 262 319 264
f 264 190 262
f 382 430 381
f 322 319 262
f 382 381 322
f 322 381 319
f 161 190 163
f 161 163 135
f 90 92 114
f 114 112 90
f 392 513 554
f 374 361 330
f 436 472 425
f 350 407 364
f 354 361 399
f 354 330 361
f 339 345 291
f 291 345 299
f 108 112 120
f 112 114 120
f 45 15 49
f 45 10 15
f 63 52 38
f 38 24 63
f 38 26 24
f 65 62 22
f 22 62 58
f 58 53 22
f 65 22 57
f 79 34 33
f 96 97 79
f 79 80 96
f 544 537 465
f 547 537 544
f 550 551 577
f 575 547 550
f 550 577 575
f 547 544 550
f 550 544 465
f 465 471 550
f 550 471 399
f 437 423 424
f 378 353 423
f 410 353 349
f 298 329 349
f 201 200 220
f 220 200 199
f 556 555 514
f 584 555 556
f 556 586 584
f 549 558 545
f 545 573 549
f 549 573 578
f 523 542 539
f 539 520 523
f 536 520 539
f 562 564 548
f 578 573 562
f 562 581 578
f 562 517 563
f 587 581 562
f 562 548 519
f 519 517 562
f 562 585 587
f 563 583 562
f 562 583 585
f 484 481 496
f 472 442 474
f 442 481 474
f 481 484 474
f 474 484 475
f 474 473 472
f 475 473 474
f 453 442 405
f 405 404 453
f 405 442 436
f 465 463 402
f 402 401 465
f 167 149 148
f 148 165 167
f 167 165 182
f 167 169 149
f 127 103 126
f 126 149 127
f 148 149 126
f 128 143 126
f 126 143 148
f 105 103 127
f 107 63 133
f 128 126 107
f 107 126 103
f 63 107 78
f 157 166 146
f 157 175 166
f 157 151 171
f 171 175 157
f 127 150 129
f 129 105 127
f 106 105 129
f 156 139 129
f 129 139 106
f 129 170 156
f 129 150 170
f 254 263 273
f 222 239 254
f 278 263 254
f 254 239 278
f 297 263 302
f 288 263 297
f 298 282 247
f 247 273 298
f 244 221 174
f 174 193 244
f 282 258 244
f 244 247 282
f 193 247 244
f 166 175 178
f 187 193 174
f 166 178 187
f 184 175 171
f 192 175 184
f 184 186 192
f 171 170 184
f 170 186 184
f 183 182 231
f 232 169 183
f 183 167 182
f 169 167 183
f 231 269 183
f 269 232 183
f 234 186 232
f 234 232 269
f 192 186 234
f 234 239 192
f 422 371 257
f 257 179 422
f 257 328 305
f 371 328 257
f 224 179 257
f 305 266 257
f 257 228 224
f 266 228 257
f 181 165 176
f 176 179 181
f 461 439 469
f 448 439 461
f 469 470 461
f 461 470 448
f 368 415 414
f 416 370 372
f 416 415 370
f 416 372 417
f 417 422 416
f 433 446 432
f 432 414 433
f 433 414 415
f 448 446 433
f 491 467 468
f 491 489 467
f 468 492 491
f 491 492 512
f 497 516 514
f 514 513 497
f 435 441 459
f 459 441 460
f 460 489 459
f 445 426 413
f 413 426 412
f 432 445 413
f 428 455 450
f 450 427 428
f 447 427 450
f 359 427 498
f 498 517 359
f 359 194 265
f 359 517 194
f 265 264 318
f 318 264 319
f 318 359 265
f 574 547 575
f 574 571 547
f 575 576 574
f 566 571 569
f 563 560 569
f 569 560 566
f 571 574 569
f 569 576 563
f 569 574 576
f 529 508 526
f 526 552 529
f 526 537 540
f 566 560 561
f 561 560 552
f 540 566 561
f 561 526 540
f 552 526 561
f 8 42 43
f 43 44 8
f 43 42 82
f 208 125 207
f 205 44 204
f 205 206 44
f 280 242 268
f 207 206 226
f 30 31 1
f 1 7 30
f 30 7 29
f 49 31 30
f 30 45 49
f 32 33 1
f 1 31 32
f 32 79 33
f 31 79 32
f 529 552 543
f 543 560 546
f 552 560 543
f 522 521 533
f 563 522 533
f 113 94 87
f 140 142 113
f 73 60 68
f 68 94 73
f 87 94 68
f 90 112 84
f 84 112 108
f 50 55 23
f 50 64 55
f 60 64 50
f 138 75 131
f 131 75 61
f 131 61 51
f 125 208 131
f 131 51 48
f 48 125 131
f 131 210 138
f 456 430 457
f 456 487 455
f 449 473 457
f 429 381 430
f 429 455 428
f 429 456 455
f 430 456 429
f 382 322 324
f 124 180 216
f 147 160 161
f 161 135 147
f 262 190 189
f 189 190 161
f 261 294 308
f 261 245 294
f 240 245 261
f 168 142 140
f 191 163 190
f 190 264 191
f 265 194 191
f 191 264 265
f 134 135 108
f 134 147 135
f 145 92 138
f 145 114 92
f 138 212 145
f 145 212 213
f 513 391 390
f 390 356 389
f 393 391 513
f 513 392 393
f 394 392 554
f 394 348 392
f 443 423 437
f 369 390 391
f 356 390 369
f 289 343 337
f 337 330 289
f 337 343 374
f 374 330 337
f 347 343 289
f 289 348 347
f 348 394 347
f 341 392 346
f 392 348 346
f 289 341 346
f 346 348 289
f 418 425 472
f 407 425 418
f 350 364 351
f 420 430 382
f 296 321 290
f 290 321 332
f 290 332 339
f 339 291 290
f 355 402 362
f 362 321 355
f 332 321 362
f 334 354 355
f 355 321 334
f 334 321 316
f 334 316 311
f 330 354 320
f 289 330 320
f 270 290 256
f 256 290 291
f 256 251 225
f 299 251 256
f 256 291 299
f 172 124 162
f 172 180 124
f 121 120 114
f 39 30 29
f 15 26 16
f 20 53 49
f 20 22 53
f 49 15 20
f 15 16 20
f 20 57 22
f 74 80 76
f 76 57 74
f 65 57 76
f 80 79 76
f 76 62 65
f 58 62 76
f 76 53 58
f 49 53 76
f 76 31 49
f 76 79 31
f 54 71 74
f 74 57 54
f 54 52 71
f 57 20 54
f 37 34 81
f 34 79 81
f 82 42 81
f 81 42 37
f 81 97 82
f 81 79 97
f 411 423 410
f 411 424 423
f 386 409 421
f 358 378 388
f 314 312 282
f 314 349 353
f 314 282 298
f 298 349 314
f 289 272 259
f 259 253 289
f 249 248 289
f 289 253 249
f 514 516 557
f 557 556 514
f 557 516 558
f 557 558 587
f 587 586 557
f 586 556 557
f 578 558 553
f 553 549 578
f 558 549 553
f 530 518 536
f 536 565 530
f 536 539 568
f 568 565 536
f 568 573 545
f 406 405 436
f 436 425 406
f 406 425 407
f 406 407 350
f 350 345 406
f 399 465 400
f 465 401 400
f 463 404 403
f 403 402 463
f 404 362 403
f 403 362 402
f 373 402 355
f 401 402 373
f 373 400 401
f 355 354 373
f 373 354 399
f 399 400 373
f 86 106 89
f 86 105 106
f 86 89 71
f 133 179 159
f 159 107 133
f 179 176 159
f 128 107 159
f 159 143 128
f 159 176 165
f 148 143 159
f 159 165 148
f 137 157 146
f 141 151 137
f 151 157 137
f 146 132 137
f 137 132 115
f 116 141 137
f 137 115 116
f 327 340 329
f 329 288 327
f 288 297 327
f 327 297 302
f 238 196 221
f 221 244 238
f 238 244 258
f 217 196 238
f 238 197 217
f 238 252 197
f 173 187 174
f 166 187 173
f 146 166 173
f 219 187 178
f 219 178 175
f 219 192 222
f 219 175 192
f 237 247 193
f 193 187 237
f 187 219 237
f 237 219 222
f 273 247 237
f 222 254 237
f 237 254 273
f 278 239 271
f 239 234 271
f 271 234 269
f 271 269 303
f 434 439 448
f 448 433 434
f 422 439 434
f 434 416 422
f 415 416 434
f 434 433 415
f 509 491 512
f 523 505 509
f 505 489 509
f 489 491 509
f 509 525 523
f 512 525 509
f 515 516 499
f 516 497 499
f 499 520 515
f 505 520 499
f 499 479 505
f 437 424 444
f 444 452 437
f 451 443 454
f 454 443 437
f 497 494 478
f 478 494 476
f 478 454 452
f 497 478 480
f 479 499 480
f 480 499 497
f 333 331 303
f 303 368 333
f 363 331 333
f 368 414 333
f 483 477 447
f 447 450 483
f 501 477 483
f 427 359 377
f 359 318 377
f 428 427 377
f 496 508 511
f 511 508 529
f 529 510 511
f 457 473 488
f 488 456 457
f 487 456 488
f 488 473 475
f 510 487 488
f 488 511 510
f 475 484 488
f 488 484 496
f 496 511 488
f 524 508 504
f 524 526 508
f 504 463 524
f 524 463 465
f 465 537 524
f 537 526 524
f 82 201 202
f 202 43 82
f 201 248 202
f 44 43 202
f 248 249 202
f 236 208 207
f 207 226 236
f 236 259 272
f 226 259 236
f 227 242 210
f 138 210 211
f 211 212 138
f 296 280 292
f 292 321 296
f 316 321 292
f 311 316 292
f 276 280 296
f 242 280 276
f 296 290 276
f 276 290 270
f 204 253 218
f 218 205 204
f 253 259 218
f 218 259 226
f 206 205 218
f 218 226 206
f 528 510 529
f 529 543 528
f 538 533 521
f 538 543 546
f 538 546 563
f 563 533 538
f 99 98 77
f 99 77 73
f 73 94 99
f 140 113 110
f 110 113 87
f 67 68 60
f 87 68 67
f 23 27 40
f 40 50 23
f 28 35 47
f 47 27 28
f 47 35 46
f 47 40 27
f 50 40 47
f 60 50 47
f 47 67 60
f 46 59 47
f 59 67 47
f 210 131 209
f 209 131 208
f 209 227 210
f 208 227 209
f 177 160 124
f 124 216 177
f 177 216 233
f 161 160 177
f 177 189 161
f 124 160 123
f 160 147 123
f 147 134 123
f 123 134 108
f 123 121 124
f 108 120 123
f 120 121 123
f 262 189 260
f 260 189 240
f 240 261 260
f 260 261 308
f 308 324 260
f 260 322 262
f 260 324 322
f 240 189 188
f 188 245 240
f 233 245 188
f 188 177 233
f 189 177 188
f 293 251 299
f 294 245 293
f 293 345 350
f 299 345 293
f 350 351 293
f 293 351 294
f 163 191 164
f 164 168 140
f 194 168 164
f 164 191 194
f 114 145 155
f 155 121 114
f 155 213 162
f 155 145 213
f 162 124 155
f 124 121 155
f 385 358 388
f 389 358 385
f 398 550 399
f 551 550 398
f 399 374 398
f 387 378 423
f 423 443 387
f 388 378 387
f 387 451 388
f 387 443 451
f 379 392 341
f 379 393 392
f 391 393 379
f 379 369 391
f 198 197 241
f 197 252 241
f 325 309 310
f 310 312 325
f 335 341 289
f 289 326 335
f 335 379 341
f 369 379 335
f 356 369 335
f 335 326 356
f 289 309 313
f 313 309 325
f 356 326 344
f 325 358 344
f 389 356 344
f 344 358 389
f 408 364 407
f 407 418 408
f 408 418 472
f 472 473 408
f 408 420 364
f 294 351 323
f 308 294 323
f 323 324 308
f 430 420 431
f 473 449 431
f 431 408 473
f 420 408 431
f 457 430 431
f 431 449 457
f 404 405 376
f 376 362 404
f 339 332 376
f 332 362 376
f 315 311 289
f 289 320 315
f 315 334 311
f 354 334 315
f 315 320 354
f 213 212 223
f 225 213 223
f 223 256 225
f 270 256 223
f 214 172 162
f 225 251 214
f 214 213 225
f 162 213 214
f 29 7 36
f 36 39 29
f 7 39 36
f 45 30 41
f 30 39 41
f 10 45 41
f 7 10 9
f 9 39 7
f 10 41 9
f 9 41 39
f 52 54 21
f 21 54 20
f 352 386 340
f 352 331 363
f 410 349 360
f 360 411 410
f 360 349 329
f 325 312 338
f 338 358 325
f 338 314 353
f 312 314 338
f 353 378 338
f 378 358 338
f 573 568 572
f 572 562 573
f 375 406 345
f 405 406 375
f 375 345 339
f 339 376 375
f 375 376 405
f 69 86 71
f 63 78 69
f 71 52 69
f 69 52 63
f 91 107 103
f 91 78 107
f 115 132 117
f 97 115 117
f 117 101 97
f 174 221 195
f 195 154 174
f 221 196 195
f 196 154 195
f 144 117 132
f 144 154 196
f 158 173 174
f 146 173 158
f 452 444 462
f 462 478 452
f 462 480 478
f 437 452 440
f 440 454 437
f 452 454 440
f 476 494 485
f 485 494 493
f 388 476 485
f 485 385 388
f 493 385 485
f 506 497 513
f 506 494 497
f 513 390 506
f 506 390 389
f 466 478 476
f 454 478 466
f 451 454 466
f 466 476 388
f 388 451 466
f 363 333 366
f 366 333 414
f 412 363 366
f 366 413 412
f 366 414 432
f 432 413 366
f 486 487 510
f 455 487 486
f 486 450 455
f 486 483 450
f 428 377 380
f 380 429 428
f 381 429 380
f 319 381 380
f 380 318 319
f 380 377 318
f 204 44 203
f 44 202 203
f 203 202 249
f 203 253 204
f 203 249 253
f 268 242 243
f 242 227 243
f 208 236 243
f 243 227 208
f 212 211 235
f 270 223 235
f 235 223 212
f 235 276 270
f 242 276 235
f 210 242 235
f 235 211 210
f 295 292 280
f 280 285 295
f 311 292 295
f 289 311 295
f 295 285 289
f 281 280 268
f 281 285 280
f 289 285 281
f 510 528 507
f 507 486 510
f 501 483 507
f 483 486 507
f 527 538 521
f 527 507 528
f 527 528 543
f 543 538 527
f 527 521 501
f 501 507 527
f 94 113 119
f 119 99 94
f 119 113 142
f 142 168 119
f 119 168 194
f 194 98 119
f 98 99 119
f 140 110 136
f 136 135 163
f 136 164 140
f 163 164 136
f 108 135 109
f 135 136 109
f 109 136 110
f 90 84 66
f 66 67 59
f 66 72 90
f 66 59 72
f 87 67 85
f 85 66 84
f 67 66 85
f 85 110 87
f 85 109 110
f 85 84 108
f 108 109 85
f 554 551 396
f 199 198 230
f 198 241 230
f 230 220 199
f 287 310 309
f 287 309 289
f 275 238 258
f 252 238 275
f 317 326 289
f 289 313 317
f 317 344 326
f 317 313 325
f 325 344 317
f 364 420 383
f 383 351 364
f 383 420 382
f 180 172 215
f 172 214 215
f 215 216 180
f 233 216 215
f 18 16 26
f 26 21 18
f 18 20 16
f 18 21 20
f 26 38 25
f 25 21 26
f 25 38 52
f 52 21 25
f 340 327 342
f 342 352 340
f 342 327 302
f 331 352 342
f 409 386 365
f 386 352 365
f 365 363 409
f 365 352 363
f 411 360 419
f 419 386 421
f 424 411 419
f 419 444 424
f 541 535 565
f 541 568 545
f 565 568 541
f 545 518 541
f 518 535 541
f 532 530 565
f 518 530 532
f 564 562 567
f 567 568 539
f 542 564 567
f 567 539 542
f 83 69 78
f 86 69 83
f 78 91 83
f 83 91 103
f 103 105 83
f 105 86 83
f 174 154 153
f 153 158 174
f 154 144 153
f 479 480 464
f 480 462 464
f 464 462 459
f 489 479 464
f 464 459 489
f 438 462 444
f 438 419 421
f 444 419 438
f 421 435 438
f 435 459 438
f 459 462 438
f 268 243 277
f 277 281 268
f 277 236 272
f 277 243 236
f 277 272 289
f 289 281 277
f 551 398 397
f 397 396 551
f 395 394 554
f 554 396 395
f 395 347 394
f 343 347 395
f 395 396 343
f 267 230 241
f 284 275 258
f 284 258 282
f 282 312 284
f 357 323 351
f 351 383 357
f 324 323 357
f 382 324 357
f 357 383 382
f 246 293 245
f 246 245 233
f 233 215 246
f 251 293 246
f 246 214 251
f 246 215 214
f 300 342 302
f 331 342 300
f 303 331 300
f 302 278 300
f 300 271 303
f 278 271 300
f 386 419 367
f 367 419 360
f 340 386 367
f 329 340 367
f 367 360 329
f 565 535 534
f 534 532 565
f 534 535 518
f 518 532 534
f 562 572 570
f 570 567 562
f 570 572 568
f 568 567 570
f 101 117 118
f 117 122 118
f 118 122 196
f 117 144 130
f 130 122 117
f 130 144 196
f 196 122 130
f 146 158 152
f 158 153 152
f 152 132 146
f 152 144 132
f 152 153 144
f 493 494 495
f 494 500 495
f 495 385 493
f 495 500 385
f 494 506 502
f 502 500 494
f 502 506 389
f 389 385 502
f 385 500 502
f 384 398 374
f 384 397 398
f 374 343 384
f 343 396 384
f 396 397 384
f 220 230 255
f 230 267 255
f 201 220 255
f 255 267 289
f 274 241 252
f 274 267 241
f 289 267 274
f 275 284 286
f 310 287 286
f 287 275 286
f 312 310 286
f 286 284 312
f 250 248 201
f 201 255 250
f 289 248 250
f 250 255 289
f 252 275 279
f 279 274 252
f 289 274 279
f 82 97 88
f 97 101 88
f 88 198 82
f 88 197 198
f 104 196 217
f 283 275 287
f 283 279 275
f 283 287 289
f 289 279 283
f 101 95 93
f 93 88 101
f 197 88 93
f 217 197 93
f 93 95 217
f 101 118 111
f 111 104 101
f 111 118 196
f 196 104 111
f 100 95 101
f 217 95 100
f 101 104 102
f 102 100 101
f 102 104 217
f 217 100 102
