v -0.01285068505 -0.006112058647 0.01329569332
v -0.01280362718 -0.006084347609 0.01350067556
v -0.01278320793 -0.005575693678 0.0134009663
v -0.0127778016 -0.006703541148 0.01354082488
v -0.01275682356 -0.007251617033 0.01329532638
v -0.01275111549 -0.005014338065 0.0129915541
v -0.01270585321 -0.00727138808 0.01350029279
v -0.01269990858 -0.004940887913 0.01318386383
v -0.01260703802 -0.004534245934 0.01298146788
v -0.01259131078 -0.00781419687 0.01338819508
v -0.01257476117 -0.004341578577 0.01262031216
v -0.01247899793 -0.00831805449 0.01299048681
v -0.01246499922 -0.004063502885 0.01242174953
v -0.01241645217 -0.008382258937 0.01318275183
v -0.012412576 -0.003950628452 0.0123349987
v -0.01240516361 -0.003956363536 0.01258181781
v -0.01226547174 -0.00367485336 0.01232085936
v -0.01224086899 -0.008805644698 0.01295709703
v -0.01220438723 -0.003584729973 0.01199831627
v -0.01204523724 -0.009203790687 0.01241193153
v -0.01201979257 -0.003607100574 0.01163627021
v -0.0120172631 -0.003342651995 0.01167589985
v -0.01196461637 -0.009304903448 0.01258008927
v -0.01184922922 -0.003312646179 0.01133689843
v -0.01175865997 -0.009586828761 0.01228712592
v -0.01149929501 -0.00981947314 0.01161802001
v -0.01139592938 -0.009946234524 0.01175309811
v -0.01122880261 -0.002481562085 0.01025286317
v -0.0111889774 -0.01008598972 0.01143981982
v -0.01103813946 -0.00199185079 0.01008357666
v -0.01103706006 -0.002013623482 0.01004589349
v -0.01089803595 -0.001751329866 0.009945404716
v -0.0108962534 -0.01010298729 0.01068884879
v -0.01076775976 -0.01024156343 0.01078521181
v -0.0107379416 -0.001504262094 0.009843452834
v -0.01058414858 -0.01025728136 0.0104930019
v -0.01029694173 -0.01002573501 0.009718145244
v -0.01015841216 -0.0006504995399 0.009693491273
v -0.01014347747 -0.01016109344 0.009774063714
v -0.009597442113 0.0001610837498 0.009460707195
v -0.009577224962 -0.006216967944 0.01554313488
v -0.009567083791 -0.005311436485 0.01540763304
v -0.009561676532 -0.006439283956 0.01554749161
v -0.0095442608 -0.005077068228 0.01534018945
v -0.009420610033 -0.007360220887 0.01544267964
v -0.009390913881 -0.004269990604 0.01498813462
v -0.009375186637 -0.007549939211 0.01539486181
v -0.009324863553 -0.004049276002 0.01485321019
v -0.009089361876 -0.008397749625 0.01504841167
v -0.009056500159 0.0009284869302 0.009146433324
v -0.009024743922 -0.0085413903 0.01496376377
v -0.008965207264 0.0009705272969 0.0095642386
v -0.008709781803 0.0007683491567 0.005893286318
v -0.00865013618 0.0004404263454 0.005700499285
v -0.008635106497 0.001057963353 0.00613578083
v -0.00861508213 -0.009230573662 0.01439794805
v -0.008550973609 0.001630338375 0.008762312122
v -0.008542535827 -0.009322571568 0.01429379266
v -0.008354072459 0.001825765125 0.009082078934
v -0.008312209509 0.001259182347 0.005281112157
v -0.00826512184 0.001523421612 0.005569919478
v -0.008244521916 0.0009270060109 0.005078403745
v -0.008093363605 0.001838739845 0.009400780313
v -0.00807576254 0.002274606377 0.00830975268
v -0.008043019101 -0.009779235348 0.01355334278
v -0.00803489238 -0.006990003865 0.00472680293
v -0.00803489238 -0.003500004997 0.004726804793
v -0.00797785446 -0.005550005008 0.004641861655
v -0.00797785446 -0.00350000523 0.004641861655
v -0.00797285419 -0.009821732529 0.01344648562
v -0.007862357423 0.002052636584 0.005086936988
v -0.00777743198 0.002608409617 0.008496240713
v -0.007631590124 0.002860841341 0.007792516146
v -0.007505743764 0.00265174103 0.008790471591
v -0.007427750621 -0.009991389699 0.01259517949
v -0.007368023042 -0.009993027896 0.01249966864
v -0.007239299361 0.003313228954 0.007811886724
v -0.007220775355 0.003386439523 0.007216024213
v -0.007132154424 0.001342684031 0.01062884834
v -0.006954120006 0.003383424599 0.008079226129
v -0.006947626825 0.003725223942 0.006769626401
v -0.006843634881 0.0038515653 0.006584105548
v -0.006743678357 0.003935023677 0.007034224458
v -0.006622125395 0.003806199646 0.007573970594
v -0.006519008894 0.004234882537 0.005939530674
v -0.006513895467 -0.005550003145 0.002614695812
v -0.006513894536 -0.006546034943 0.002614695812
v -0.00648803357 -0.00655924622 0.00257888413
v -0.006442700513 0.004028240219 0.007272615563
v -0.0062968852 0.004468343221 0.006167260464
v -0.00597569067 0.004580642097 0.006376206875
v -0.005676528905 -0.006932288408 0.001455184422
v -0.004870312288 0.006134015508 0.002384467982
v -0.00482407352 -0.007220424712 0.0002747793624
v -0.004658637568 0.006377843209 0.001928036916
v -0.00463127438 0.006410087924 0.001873369212
v -0.004584135488 0.006470924709 0.001816147123
v -0.004574622028 0.006480143405 0.001782689826
v -0.004570715129 0.006486672908 0.001789465314
v -0.004509346094 0.006562692579 0.001705633709
v -0.004280055407 0.006828882731 0.001512143528
v -0.004163195845 0.006949994713 0.001404237584
v -0.00396273518 0.007099994924 0.001404945739
v -0.003947643563 -0.00577888405 0.01905582659
v -0.003941619769 -0.007420475595 -0.0009471670492
v -0.003925938625 0.007100003771 0.001485068467
v -0.003923313692 -0.004680092447 0.01887213252
v -0.003796646837 -0.006878623739 0.01895864308
v -0.00378855993 0.007099995855 0.001660129172
v -0.003725796938 -0.003679274581 0.01842377149
v -0.00358787505 -0.003292938229 0.01815184578
v -0.003494770499 0.00694999611 -0.001359805581
v -0.003483649809 -0.007882212289 0.01858915947
v -0.003354978515 0.007099994458 -0.001305414014
v -0.003040120704 -0.007529266644 -0.002195485868
v -0.003040119307 -0.003500003833 -0.002195486333
v -0.003036618698 -0.007529507857 -0.002200324554
v -0.003036291106 -0.00870103389 0.01797999814
v -0.002884526737 0.006949995644 -0.002396244556
v -0.002884526504 0.00314999558 -0.002396245487
v -0.002769146347 0.007099994924 -0.002300394466
v -0.002682516817 -0.003500004765 -0.002620417159
v -0.002558758948 -0.007549222559 -0.002741394332
v -0.002494070912 -0.009262790903 0.01718494855
v -0.002457466442 -0.007700003218 -0.002630753675
v -0.002444785321 -0.007550004404 -0.002843503375
v -0.002346992958 -0.007700006012 -0.002729763044
v -0.001977554057 0.006949994713 -0.003186182585
v -0.001977553591 0.003149994882 -0.00318618305
v -0.001904867124 -0.009517878294 0.01627421193
v -0.001898451708 0.007099994924 -0.003058735048
v -0.00180015876 0.001780791441 0.0139556909
v -0.001799932565 -0.003500004532 -0.00328979129
v -0.00170957949 -0.007550003007 -0.003337637754
v -0.001706859795 0.007099996321 -0.00299818581
v -0.001641195733 -0.007700005081 -0.003204131499
v -0.001210988266 0.00308185746 0.01284008101
v -0.001068453887 0.004255950917 0.01105332281
v -0.001019190415 0.003428489435 0.01248703431
v -0.0009157257155 0.004996399395 0.009533318691
v -0.0008789746789 -0.007550006267 -0.003645529738
v -0.0008671514224 0.003149996046 -0.003648360027
v -0.0008671510732 0.006949995644 -0.003648361191
v -0.0008438170771 -0.007700004615 -0.003499707906
v -0.0008345024544 -0.00755000487 -0.00365596707
v -0.0008324644295 0.007099994458 -0.003502426203
v -0.0008011233294 -0.00769988494 -0.003509728471
v -0.0007602961268 -0.003500004299 -0.003672116203
v -0.0006408678601 0.007099995855 -0.00338995154
v -0.0005236862344 -0.005425824784 0.02119112201
v -0.0005213734112 -0.005471390672 0.02119341865
v -0.0005175109836 -0.005541331135 0.02119587176
v -0.0005098332767 -0.004550827667 0.02105369419
v -0.0004956002813 -0.004398453049 0.02101081423
v -0.0004556464264 -0.006443434861 0.02109565958
v -0.000442669756 -0.006604674738 0.02105063014
v -0.0003857407428 -0.003729244461 0.02074661478
v -0.0003775370715 -0.007338942494 0.02072991803
v -0.0003542956256 -0.003596514929 0.02067725733
v -0.0003479176958 -0.00762754865 0.02054399997
v -0.0003171542485 -0.005418683868 0.02114322409
v -0.000315037265 -0.005462430883 0.02114536799
v -0.0003038589202 -0.004578684922 0.0210112948
v -0.0002874272177 -0.00812484324 0.02011954412
v -0.000262965681 -0.008291581646 0.01994181797
v -0.0002547712647 -0.00637735147 0.02105526999
v -0.0002463316778 -0.006480369251 0.02102820575
v -0.0002330257994 -0.00847070571 0.01972632483
v -0.00023113926 0.007099995855 0.004639426712
v -0.0001847296226 -0.003789963899 0.02071649954
v -0.0001793569973 -0.003017159179 0.02028324828
v -0.0001777147845 -0.003012737492 0.02027958073
v -0.0001760802261 -0.00723264087 0.02071531303
v -0.0001719538704 -0.008759568445 0.01930785924
v -0.0001557157375 -0.007419236936 0.02060250752
v -0.0001535882766 -0.003661252325 0.02064963803
v -0.0001069225327 -0.007813838311 0.0203059651
v -8.942967543e-05 -0.007938296534 0.02019350417
v -6.733839837e-05 -0.009062293917 0.01870102063
v -4.549345977e-05 -0.008214394562 0.01990600117
v -1.309784466e-06 -0.009174978361 0.01838331297
v 2.141270488e-05 -0.003101188689 0.02027209848
v 2.260346264e-05 0.00709999539 0.004795858636
v 2.311448225e-05 -0.0030967372 0.02026843838
v 2.591436532e-05 -0.008563759737 0.01944625191
v 9.271556337e-05 -0.008793592453 0.0190505702
v 0.0001137922518 -0.007639701478 -0.003598280484
v 0.0001382086775 -0.007486410439 -0.003747488605
v 0.000173782304 -0.008975708857 0.01863346249
v 0.0002065599256 -0.001876396243 0.01930803433
v 0.0002197043505 -0.007625367027 -0.003593251575
v 0.0002330823481 -0.009348669089 0.01751475781
v 0.0002587586059 0.007099995855 0.004856167827
v 0.0003020433651 -0.009135548025 0.01808952354
v 0.0003191572323 0.007099994458 -0.003585822647
v 0.0003324550635 0.003149995347 -0.003735231701
v 0.000332455762 0.006949995179 -0.003735232633
v 0.0003456790873 -0.003500003368 -0.003734031925
v 0.0003476746497 -0.007455431391 -0.003733676393
v 0.0004214342916 -0.001950325561 0.01929828525
v 0.0004241228162 -0.009352623485 0.01700440235
v 0.0004301180597 -0.009206769057 0.0176497288
v 0.0005145689356 0.007099994458 0.004847083241
v 0.0005722423084 -0.009310343303 0.01668458618
v 0.0006330751348 -0.009215122089 0.01710440405
v 0.0006410835776 -0.009281452745 0.01655235887
v 0.0007037272444 -0.005761074834 0.01945844106
v 0.0007048101979 -0.005288023036 0.01946735941
v 0.0007433971041 -0.006200967357 0.01932588406
v 0.000754455803 -0.004832352512 0.01934852265
v 0.0007562254905 0.003115077969 0.0142276641
v 0.000759240007 -0.009179573506 0.016832022
v 0.0008220323361 -0.006593098398 0.01907679252
v 0.0008236736176 0.007099996321 0.004746222403
v 0.0008509011823 -0.009140574373 0.01665721275
v 0.0008796575712 -0.008535196073 0.01752294414
v 0.0009367113234 -0.006898068357 0.01873867959
v 0.001009905129 -0.007467352785 -0.003455850063
v 0.001031453954 -0.009042577818 0.01594538987
v 0.00107724627 -0.007297122385 -0.00359227811
v 0.001085801516 -0.007092476357 0.01834812202
v 0.001166048227 0.007099995855 0.004534054548
v 0.001191444579 -0.008929870091 0.01613166556
v 0.001211824594 -0.007411975879 -0.003390746191
v 0.00127820042 -0.007167526521 0.01791811548
v 0.001389222452 -0.008772243746 0.01589077339
v 0.001421493245 -0.0035000036 -0.003470136086
v 0.001424707123 -0.007192773744 -0.003469166579
v 0.001437947853 0.007099994458 -0.003300347598
v 0.001497862278 0.006949995644 -0.003437862033
v 0.001497862744 0.00314999558 -0.003437862499
v 0.00149851467 -0.00710724853 0.01751007512
v 0.001576419221 0.00709999539 -0.0030687775
v 0.001579215634 0.007099995855 0.004162006546
v 0.001654411899 0.007099982817 0.004082699772
v 0.001694797655 -0.008485524915 0.01558318827
v 0.001718701213 -0.008460925892 0.01556197181
v 0.001734482707 -0.006918566301 0.01715372317
v 0.001742401742 -0.001486568013 0.01718819141
v 0.001788918045 -0.007215728052 -0.003124903189
v 0.001824290957 -0.002013801364 0.01722832583
v 0.001946578152 -0.006996573415 -0.003203235567
v 0.001956275664 0.003168123541 0.01502424572
v 0.001967431745 -0.006610133685 0.01687193289
v 0.002007554984 0.003165700706 0.01504724566
v 0.002072931267 0.003146260744 0.01505440474
v 0.002106411848 -0.007082161494 -0.002921201754
v 0.002129986184 0.00311219017 0.01503746491
v 0.002139414893 -0.006911643781 -0.003077323781
v 0.002145970473 0.003505699337 0.0146757625
v 0.002157376613 -0.006231174339 0.01669426262
v 0.002195999492 0.003501051338 0.01470106002
v 0.002203454264 -0.004467414692 0.01695756428
v 0.00225470704 0.003610867308 0.01448764
v 0.002256700071 0.003473289544 0.01471680775
v 0.002262102906 -0.002831848571 0.01666874066
v 0.002292949008 -0.005790581461 0.01661289297
v 0.002306450158 0.003426220268 0.01471328642
v 0.002321539912 -0.004875448067 0.01674886793
v 0.002332518343 0.003379312577 0.01469641086
v 0.002351313597 -0.005319388118 0.01663354225
v 0.002373276046 -0.003500003135 -0.002903456567
v 0.002373600611 -0.006799032446 -0.002901151311
v 0.002408818342 0.007099994924 -0.002675366821
v 0.002441882389 0.003681933274 0.01428316068
v 0.002496480243 0.003649684135 0.0143092759
v 0.002509185113 0.003149994882 -0.002786841011
v 0.002509186277 0.006949995179 -0.002786841244
v 0.002526184078 -0.006875224411 -0.002574129729
v 0.002536700573 0.003595602466 0.01432195306
v 0.002553631319 0.003541973419 0.01432061009
v 0.002577350941 0.007099995855 0.002513419371
v 0.002702479251 -0.006621534936 -0.002600640059
v 0.002763353754 0.003654164728 0.01388096623
v 0.002791112987 -0.002791983308 0.01581563614
v 0.002792964922 0.003599905642 0.01391066611
v 0.002799725626 0.003546104301 0.01392564643
v 0.002818257781 -0.006707144901 -0.002258682624
v 0.003025127575 0.00348619232 0.0134835355
v 0.003044334007 0.003438610351 0.0135290334
v 0.003069503466 -0.006543128286 -0.001908106031
v 0.003082401585 -0.006975006778 0.01424269099
v 0.003116377862 -0.006359483581 -0.002084587468
v 0.003117979737 -0.003500004532 -0.002083435189
v 0.003131894162 0.007099994458 -0.001775172772
v 0.003240488702 0.007099994924 0.001568200532
v 0.003260490252 0.003131172387 0.01322308369
v 0.003262388986 0.00694999611 -0.001849138644
v 0.003262389451 0.003149996279 -0.001849139226
v 0.003270328976 -0.006248831749 -0.001829161658
v 0.003326265141 -0.006353059784 -0.00142152654
v 0.003361864015 0.007099995855 0.0007748415228
v 0.00337550859 0.006949994713 0.001633542241
v 0.003431299003 0.007099995855 -0.0003587374813
v 0.003480911953 -0.006224466488 -0.001004771562
v 0.003532793606 0.00709999539 -0.0006923673209
v 0.003570276778 0.007099994924 0.00046166213
v 0.003590625245 -0.003500004066 -0.001081625931
v 0.003602786455 -0.006107495632 -0.0004470834683
v 0.003605337348 -0.005976427812 -0.001020952011
v 0.003619799856 -0.0004522376985 0.01404138468
v 0.003679993097 0.006949994713 -0.0007212154451
v 0.003679993562 0.003149994882 -0.0007212160854
v 0.003715686267 -0.005868265871 -0.0004980608937
v 0.00371903833 0.006949995644 0.0004808977246
v 0.003737830324 -0.0007927446859 0.01397661027
v 0.003753267694 -0.001523613813 0.01410654001
v 0.003784294939 -0.001166009926 0.01399715338
v 0.004242893774 -0.002879117848 0.01350031234
v 0.004245568998 -0.002922186628 0.01350169443
v 0.004318316001 -0.003492330899 0.01341780927
v 0.004406385124 -0.005384915508 0.01272323262
v 0.004417088814 -0.005371425766 0.01270992029
v 0.004453030881 -0.004006057046 0.01314337086
v 0.004552929662 -0.005134482868 0.01257517934
v 0.004582830705 -0.004294039682 0.01285043266
v 0.004588934593 -0.004304960836 0.01283644047
v 0.004640090745 -0.004833744839 0.01255363598
v 0.004653284326 -0.004541082308 0.01264504809
v 0.004673557356 0.0003580951015 0.01218517497
v 0.00498213293 -0.0002709503751 0.01193581801
v 0.004986322485 -0.0002804388932 0.01193179376
v 0.005024452694 -0.0009938593721 0.01199942362
v 0.005052100401 -0.0004956577905 0.01187853608
v 0.005064320285 -0.000806272612 0.01191082411
v 0.005069801584 -0.000731254986 0.01189158764
v 0.005102709867 -0.004181512631 0.01116350666
v 0.005286479834 -0.003854483832 0.01082590781
v 0.005292009097 -0.003815269331 0.01088189892
v 0.00539207086 -0.00341625954 0.01059896499
v 0.005393404048 -0.00339446729 0.01066397503
v 0.0054067499 -0.002919705352 0.0105100479
v 0.005407498684 -0.002917644801 0.01057859231
f 68 66 69
f 1 66 5
f 193 214 106
f 193 203 214
f 106 91 109
f 109 91 140
f 199 191 188
f 188 191 187
f 219 278 281
f 269 278 219
f 62 69 67
f 67 69 66
f 62 67 54
f 54 67 66
f 154 8 44
f 8 3 44
f 79 132 63
f 128 126 122
f 129 126 128
f 305 332 302
f 148 143 188
f 188 143 197
f 131 143 128
f 146 143 131
f 106 121 114
f 114 121 112
f 112 102 114
f 7 5 10
f 1 5 4
f 4 5 7
f 14 113 160
f 204 187 191
f 87 66 68
f 320 305 287
f 287 280 320
f 305 280 287
f 214 203 265
f 169 193 106
f 183 193 169
f 106 109 169
f 140 183 169
f 169 109 140
f 327 315 313
f 328 315 327
f 328 327 299
f 299 327 313
f 313 312 299
f 324 326 333
f 333 332 324
f 324 332 305
f 290 291 281
f 247 269 219
f 154 163 170
f 162 152 166
f 153 163 154
f 3 42 153
f 79 111 171
f 171 132 79
f 154 44 107
f 107 44 3
f 107 153 154
f 3 153 107
f 79 63 16
f 16 111 79
f 11 9 16
f 17 16 59
f 59 16 63
f 59 63 74
f 6 66 1
f 6 11 66
f 1 3 6
f 6 3 8
f 8 9 6
f 6 9 11
f 21 54 66
f 117 122 123
f 123 122 126
f 112 121 119
f 128 122 119
f 119 131 128
f 121 131 119
f 119 69 62
f 134 126 133
f 126 129 133
f 133 129 128
f 128 143 133
f 133 143 134
f 187 204 39
f 106 233 149
f 264 285 288
f 288 268 264
f 305 302 296
f 288 285 296
f 296 302 288
f 285 264 296
f 279 280 305
f 230 197 229
f 233 264 229
f 229 268 230
f 229 264 268
f 188 197 196
f 71 96 98
f 106 114 103
f 103 114 102
f 101 102 112
f 7 10 45
f 45 10 47
f 43 4 7
f 152 4 43
f 2 42 3
f 2 3 1
f 1 4 2
f 2 153 42
f 156 45 47
f 108 45 156
f 36 39 201
f 201 39 204
f 206 247 219
f 240 247 206
f 12 5 66
f 12 18 14
f 14 10 12
f 12 10 5
f 88 92 66
f 66 87 88
f 68 69 88
f 88 87 68
f 105 115 66
f 92 88 105
f 105 88 115
f 277 271 320
f 333 326 331
f 331 332 333
f 331 330 332
f 328 330 331
f 137 139 74
f 74 63 137
f 80 139 138
f 138 84 80
f 74 139 80
f 102 101 90
f 90 103 102
f 90 91 106
f 106 103 90
f 328 299 304
f 304 330 328
f 332 330 304
f 303 302 304
f 304 302 332
f 282 299 312
f 179 27 124
f 167 314 166
f 177 312 313
f 321 305 320
f 320 271 321
f 191 199 218
f 218 204 191
f 218 206 204
f 230 228 227
f 288 302 298
f 298 302 303
f 295 291 300
f 291 290 300
f 300 299 295
f 300 304 299
f 290 298 300
f 303 304 300
f 300 298 303
f 240 228 242
f 242 247 240
f 230 268 242
f 283 281 278
f 283 290 281
f 110 9 46
f 163 153 150
f 153 2 150
f 182 171 159
f 159 171 110
f 110 46 159
f 159 46 9
f 172 190 132
f 132 171 172
f 48 9 110
f 48 16 9
f 111 16 48
f 48 171 111
f 110 171 48
f 17 59 52
f 50 52 59
f 50 38 40
f 50 40 17
f 17 52 50
f 126 127 125
f 125 123 126
f 127 39 125
f 120 122 117
f 117 119 120
f 120 119 122
f 69 119 116
f 115 88 116
f 117 115 116
f 116 119 117
f 136 126 134
f 136 127 126
f 136 39 127
f 136 144 39
f 145 148 188
f 188 187 145
f 143 148 145
f 145 142 143
f 146 131 135
f 135 149 146
f 106 149 135
f 135 121 106
f 135 131 121
f 305 286 293
f 234 235 286
f 265 235 234
f 106 292 294
f 294 233 106
f 294 264 233
f 294 296 264
f 297 286 305
f 297 292 286
f 305 296 297
f 296 294 297
f 297 294 292
f 195 149 233
f 233 229 195
f 146 149 195
f 195 229 197
f 195 143 146
f 195 197 143
f 100 101 112
f 112 71 100
f 100 71 98
f 166 152 155
f 155 167 166
f 156 167 155
f 155 43 7
f 152 43 155
f 108 156 155
f 7 45 155
f 155 45 108
f 36 201 76
f 76 201 192
f 124 27 65
f 65 27 29
f 29 70 65
f 65 179 124
f 29 27 26
f 26 27 25
f 75 34 36
f 130 34 75
f 36 76 75
f 192 130 75
f 75 76 192
f 49 113 14
f 14 18 49
f 49 160 113
f 49 51 160
f 49 18 51
f 66 92 94
f 94 105 66
f 92 105 94
f 184 239 271
f 184 171 182
f 184 172 171
f 320 280 276
f 276 277 320
f 211 137 63
f 139 137 211
f 91 90 89
f 140 91 89
f 89 138 140
f 89 84 138
f 295 299 237
f 299 282 237
f 181 130 192
f 181 34 130
f 181 65 70
f 179 65 181
f 29 34 181
f 181 70 29
f 158 156 47
f 14 160 158
f 158 10 14
f 47 10 158
f 180 282 312
f 185 282 180
f 180 168 185
f 313 315 244
f 244 177 313
f 322 324 305
f 305 321 322
f 322 308 324
f 182 308 322
f 322 184 182
f 271 239 301
f 301 321 271
f 224 228 240
f 240 206 224
f 206 218 224
f 220 218 199
f 220 227 228
f 228 224 220
f 220 224 218
f 220 197 230
f 230 227 220
f 231 228 230
f 230 242 231
f 231 242 228
f 269 247 263
f 290 283 289
f 288 298 289
f 289 298 290
f 284 268 288
f 288 289 284
f 284 289 283
f 314 311 259
f 259 311 207
f 166 314 259
f 259 207 166
f 207 311 208
f 208 162 166
f 166 207 208
f 163 150 161
f 161 170 163
f 152 162 151
f 162 161 151
f 151 161 150
f 41 2 4
f 41 150 2
f 41 151 150
f 41 4 152
f 182 159 176
f 176 308 182
f 170 307 176
f 176 307 326
f 326 324 176
f 324 308 176
f 154 170 157
f 157 8 154
f 170 176 157
f 157 176 159
f 157 9 8
f 157 159 9
f 77 80 84
f 57 59 64
f 57 50 59
f 64 73 57
f 35 38 57
f 38 50 57
f 19 38 35
f 17 40 19
f 40 38 19
f 86 88 69
f 69 116 86
f 86 116 88
f 141 145 144
f 141 136 134
f 144 136 141
f 142 145 141
f 134 143 141
f 143 142 141
f 147 145 187
f 144 145 147
f 187 39 147
f 39 144 147
f 286 292 272
f 272 234 286
f 272 292 106
f 106 214 272
f 214 234 272
f 214 265 222
f 222 234 214
f 265 234 222
f 62 54 60
f 54 53 60
f 60 119 62
f 112 119 60
f 60 71 112
f 96 71 95
f 95 93 96
f 33 34 29
f 29 26 33
f 36 34 33
f 33 26 66
f 56 23 25
f 118 23 56
f 56 168 118
f 20 12 66
f 66 26 20
f 18 12 20
f 20 23 18
f 20 26 25
f 25 23 20
f 164 177 160
f 160 51 164
f 51 18 164
f 18 23 164
f 185 168 174
f 25 27 174
f 27 179 174
f 271 258 260
f 306 301 239
f 321 301 306
f 246 252 245
f 245 172 246
f 172 184 246
f 266 235 265
f 271 277 270
f 277 276 270
f 270 258 271
f 270 266 258
f 140 138 250
f 138 139 250
f 254 252 265
f 203 193 254
f 254 265 203
f 254 193 183
f 254 250 252
f 254 183 140
f 140 250 254
f 325 331 326
f 325 319 331
f 326 307 325
f 328 331 329
f 331 319 329
f 319 318 329
f 329 315 328
f 329 318 315
f 173 318 319
f 173 167 156
f 156 158 173
f 236 291 295
f 295 237 236
f 179 181 189
f 232 180 312
f 198 220 199
f 197 220 198
f 198 196 197
f 198 199 188
f 188 196 198
f 247 242 249
f 249 263 247
f 249 242 268
f 278 269 273
f 269 263 273
f 273 283 278
f 268 284 273
f 273 284 283
f 311 310 253
f 253 208 311
f 253 310 162
f 162 208 253
f 162 310 210
f 210 161 162
f 170 161 210
f 152 151 104
f 104 41 152
f 151 41 104
f 99 100 98
f 85 90 101
f 85 82 90
f 101 100 85
f 100 99 85
f 98 96 85
f 96 93 85
f 73 77 78
f 78 57 73
f 84 89 83
f 83 77 84
f 83 89 90
f 90 82 83
f 83 78 77
f 74 80 72
f 80 77 72
f 72 59 74
f 64 59 72
f 72 73 64
f 72 77 73
f 66 11 13
f 13 21 66
f 11 16 13
f 54 21 24
f 21 13 24
f 61 53 55
f 61 60 53
f 71 60 61
f 61 95 71
f 57 95 61
f 61 55 35
f 35 57 61
f 37 39 36
f 36 33 37
f 117 123 37
f 37 115 117
f 123 125 37
f 37 125 39
f 66 115 37
f 37 33 66
f 168 180 165
f 180 164 165
f 165 164 23
f 165 23 118
f 118 168 165
f 168 56 58
f 58 174 168
f 58 56 25
f 25 174 58
f 200 260 258
f 200 246 184
f 200 184 271
f 271 260 200
f 321 306 241
f 241 322 321
f 184 322 241
f 239 184 241
f 241 306 239
f 252 246 255
f 258 266 255
f 265 252 255
f 255 266 265
f 274 270 276
f 266 270 274
f 235 266 274
f 274 293 286
f 286 235 274
f 274 279 305
f 305 293 274
f 280 279 274
f 274 276 280
f 139 211 243
f 243 250 139
f 245 252 243
f 252 250 243
f 243 63 132
f 243 211 63
f 132 190 243
f 243 172 245
f 190 172 243
f 323 317 319
f 319 325 323
f 323 311 314
f 323 310 311
f 167 173 209
f 209 261 314
f 314 167 209
f 318 173 175
f 160 177 175
f 175 158 160
f 175 173 158
f 281 291 226
f 291 236 226
f 219 281 226
f 186 282 185
f 185 174 186
f 186 174 179
f 179 189 186
f 216 237 282
f 282 186 216
f 216 186 189
f 237 216 194
f 194 216 189
f 194 181 192
f 194 189 181
f 312 177 238
f 238 232 312
f 180 232 178
f 177 164 178
f 178 164 180
f 232 238 178
f 262 249 268
f 263 249 262
f 268 273 267
f 267 273 263
f 267 262 268
f 263 262 267
f 309 210 310
f 325 210 309
f 310 323 309
f 309 323 325
f 256 307 170
f 170 210 256
f 256 325 307
f 97 99 98
f 98 85 97
f 97 85 99
f 81 83 82
f 78 83 81
f 81 85 93
f 82 85 81
f 57 78 81
f 93 95 81
f 81 95 57
f 28 19 53
f 28 53 54
f 54 24 28
f 19 30 31
f 55 53 32
f 35 55 32
f 53 31 32
f 32 31 30
f 32 19 35
f 32 30 19
f 248 200 258
f 246 200 248
f 258 255 248
f 248 255 246
f 316 323 314
f 317 323 316
f 314 261 316
f 261 209 316
f 316 209 317
f 317 209 213
f 213 209 173
f 221 244 315
f 177 244 221
f 217 221 315
f 217 175 177
f 177 221 217
f 219 226 223
f 202 236 237
f 237 194 202
f 202 226 236
f 202 194 192
f 225 238 177
f 177 178 225
f 225 178 238
f 275 210 325
f 325 256 275
f 275 256 210
f 15 24 13
f 15 28 24
f 19 28 15
f 17 19 15
f 15 16 17
f 15 13 16
f 53 19 22
f 22 31 53
f 19 31 22
f 257 173 319
f 257 213 173
f 319 317 257
f 317 213 257
f 318 175 251
f 175 217 251
f 315 318 251
f 251 217 315
f 226 202 205
f 192 201 205
f 205 202 192
f 212 223 226
f 226 205 212
f 204 206 212
f 212 201 204
f 212 205 201
f 215 212 206
f 223 212 215
f 215 206 219
f 219 223 215
