v -0.01831151731 -0.001990247751 0.006837381516
v -0.01829710789 -0.002608288778 0.007050320972
v -0.01829546876 -0.001179591287 0.006531076506
v -0.01823203824 -0.003470971948 0.007306917571
v -0.01818692312 -0.003828887129 0.007397839334
v -0.01815867983 0.0004693786614 0.005832700059
v -0.01805114001 -0.004580283538 0.007557949051
v -0.01800399646 0.00153122528 0.005339611787
v -0.01797403581 -0.004904631525 0.007614615839
v -0.01786954701 0.002256735926 0.004985373933
v -0.01769820042 -0.00392378075 0.008984177373
v -0.01769779436 0.003040921176 0.004588639829
v -0.01767926477 -0.005866483785 0.007754533552
v -0.01755048707 -0.006207061 0.007806378417
v -0.01750978455 -0.001632813364 0.01022458542
v -0.01750043035 -0.004867899697 0.008968987502
v -0.01748612896 -0.0008322627982 0.0101498859
v -0.01743320376 -0.003045094665 0.01018866338
v -0.01742941327 0.0040597599 0.00406372454
v -0.01742918976 -0.006508837454 0.00785321556
v -0.01742109656 3.928283695e-05 0.00994765386
v -0.01731462404 0.0009878635174 0.009568563662
v -0.0172463581 0.004650699906 0.003757970873
v -0.01716664992 0.002019520849 0.00896329619
v -0.01713739708 -0.00722086709 0.007958400995
v -0.01701057144 -0.001753314398 0.01193427015
v -0.01689077355 0.005632984918 0.003250208916
v -0.01681748778 -0.007986902259 0.008061954752
v -0.0166931469 -0.007232664153 0.009157448076
v -0.01665757783 -0.008360217325 0.008103471249
v -0.01661415398 -2.039605897e-05 0.0134271048
v -0.01657132618 0.0006336878287 0.01338972989
v -0.01649618335 -0.0003434832033 0.01382740866
v -0.01648693345 0.001322274096 0.01325057447
v -0.01637858897 0.006787190679 0.002664823551
v -0.01635993831 -0.005626749247 0.01149983332
v -0.01625533588 -0.00230584247 0.003200372914
v -0.01622325554 -0.008196546696 0.009432592429
v -0.01618967578 -0.00473007001 0.00404290203
v -0.01617798582 -0.009387142025 0.00813760329
v -0.01606254466 0.006548605859 0.004960364196
v -0.01593440585 0.001000636257 0.01565506682
v -0.01591430232 -0.006251200568 0.004505969584
v -0.01590380818 -0.006690373644 0.01180213317
v -0.01589412242 0.001088978956 0.01577730663
v -0.01588331163 0.003454637481 0.001614499022
v -0.0158538539 0.001176186255 0.01589837484
v -0.01580746286 -0.00474275602 0.01369714644
v -0.01574983075 0.00753533328 0.003541548504
v -0.01572127268 -0.0102314977 0.008038479835
v -0.01569738984 0.001992248697 0.01621005312
v -0.01566351205 0.008074123412 0.002060160274
v -0.01560237631 0.002573876409 0.01613595337
v -0.01554985717 -0.005353139713 0.01389086526
v -0.01550360769 -0.009359464981 0.009696332738
v -0.01546874922 0.003157401923 0.01593036391
v -0.01535562612 0.008511750028 0.002017781604
v -0.01530505251 0.002252897481 0.0174451042
v -0.0152731603 0.005343382712 0.0008583868621
v -0.01519152429 -0.01108918712 0.007802031003
v -0.01518246252 -0.007947488688 0.01217587944
v -0.01495123003 0.00911922846 0.001634497894
v -0.01490351185 -0.002409647452 0.0008099509869
v -0.01489861123 -0.004356257617 0.001439319807
v -0.01485188771 0.002981099533 0.01860607043
v -0.01482111774 -0.006703055464 0.01437589899
v -0.0148026729 0.00350317941 0.01850540377
v -0.0147959115 -0.005117287859 0.001580410055
v -0.01474842057 -6.263032992e-05 4.345807247e-05
v -0.01473950967 2.611657692e-05 1.476682155e-05
v -0.01470627263 -0.008634502068 0.01231349539
v -0.0146680465 0.004039594438 0.018409146
v -0.01465440355 0.007915674709 0.00736471964
v -0.01458617114 -0.01195657067 0.007416755892
v -0.0145638641 -0.006231745705 0.001773584052
v -0.01450014859 0.004547961522 0.0181500297
v -0.01448115148 0.001892063068 -0.0005829979782
v -0.01445095614 0.009755865671 0.001419321168
v -0.01442376804 0.007040658966 0.000194169188
v -0.01434441563 -0.007421786431 0.01461265143
v -0.01428838074 0.008878988214 0.005896990653
v -0.0142451534 -0.00708139874 0.001890383079
v -0.01417584065 0.003259582445 -0.001005914877
v -0.0141463317 -0.00689662993 0.01563752629
v -0.01412107516 0.01014146768 0.001310367719
v -0.0141017111 0.003525173059 -0.001085694646
v -0.01405934058 -0.007522720378 0.001946765929
v -0.01397825126 0.004430742934 0.02039988153
v -0.01384441927 -0.01290319487 0.006836015731
v -0.01384324301 0.009838046506 0.004323868081
v -0.0138036171 0.004971116316 0.02030326612
v -0.01374878455 0.004580025095 -0.001392477774
v -0.01363297086 -0.008535629138 0.002076383447
v -0.01359449979 0.005468389019 0.020027766
v -0.01345668174 0.008398642763 -0.0002743177465
v -0.0133678494 0.008984796703 0.009264512919
v -0.01334884856 0.005964676384 0.01954337582
v -0.01330372039 0.005597836804 -0.001666983357
v -0.01330098789 0.01076594926 0.002673868788
v -0.01328422036 0.011025263 0.001130730379
v -0.01320804469 -0.01364713255 0.006270347163
v -0.01318630017 -0.009597160853 0.002212551655
v -0.01308469754 -0.006487694103 0.01838746108
v -0.01282528974 -0.01407280564 0.005907447077
v -0.01272573043 0.006621998735 -0.001905058278
v -0.01271665841 0.00601237081 0.02172986791
v -0.01252951846 -0.007117833942 0.0188594982
v -0.01248409785 0.01086721942 0.006109168287
v -0.01243313495 -0.01449615601 0.005522990134
v -0.01241188776 0.01183754113 0.00106611615
v -0.01241008099 0.006564657204 0.02126280032
v -0.01230305713 0.007238043938 -0.002020034473
v -0.01226547174 0.009777379222 0.01071543712
v -0.01226214599 0.009664112702 -0.0005889158347
v -0.0121569233 -0.001437810366 -0.0015536719
v -0.012062544 0.007156155072 0.02054779232
v -0.01199941989 -0.01490622573 0.005038862582
v -0.01197473332 0.007662954275 -0.002084009117
v -0.01196352113 -0.007616251707 0.01933331788
v -0.01191144623 -0.007360897027 0.01981494762
v -0.01191000827 0.01177921891 0.004407498054
v -0.0118472008 0.01231754199 0.001082506147
v -0.01166800689 -0.01512682531 0.004576295149
v -0.0116597889 -0.003820430022 -0.001535906573
v -0.01151279546 -0.01357469987 0.002723082434
v -0.01149472967 -0.01361174323 0.002727467101
v -0.01144518703 -0.01502029132 0.005465989001
v -0.01141502243 0.01266428921 0.001124300528
v -0.0114110671 -0.01519630197 0.004118792713
v -0.01134772599 0.01162185147 0.007418674883
v -0.01130624488 -0.01412804332 0.002848596079
v -0.01124652568 -0.0151161449 0.003705291077
v -0.01122961473 0.01263402496 0.002657023724
v -0.01122579537 -0.007904468104 0.02010891587
v -0.01119371597 -0.01458100416 0.003066845704
v -0.01118069142 0.008570031263 -0.002167994622
v -0.01117642876 -0.01490938384 0.003357063746
v -0.01116278768 -0.01537710428 0.004591486417
v -0.01115969848 0.0009415948298 0.03057252243
v -0.01114374679 -0.01518690214 0.003736544168
v -0.01113510132 0.0001630400802 0.02992592379
v -0.01112090144 -0.007338211872 0.02109691314
v -0.01110194251 0.0008616132545 0.0306532681
v -0.01107354369 0.0001003746875 0.03000989743
v -0.01101724897 0.0007938104682 0.03071993962
v -0.01099129114 0.002183200093 0.03187935427
v -0.01098857634 5.030447574e-05 0.03008070774
v -0.01097728498 0.001987541094 0.03180356696
v -0.01097422931 0.0024234429 0.03194708005
v -0.01096782368 0.002459689975 0.03195455298
v -0.01096220873 -0.01468469948 0.003040677402
v -0.01096123736 0.002496102126 0.03196176514
v -0.01095311996 -0.0006970990216 0.0294154156
v -0.01091821305 0.001681608614 0.03164726496
v -0.01086855866 0.00295589841 0.03199027479
v -0.01085379533 0.001471942873 0.03151098639
v -0.01085321791 -0.0007383349002 0.02950813621
v -0.01077716984 0.007362217642 0.02441462688
v -0.01075951755 0.01251716912 0.005660782568
v -0.01075028069 0.01095501985 -0.0006836450775
v -0.01074329019 0.00348322955 0.03188514709
v -0.01066278201 0.003776300699 0.03179519996
v -0.01060498506 -0.008661999367 0.0193140693
v -0.01057462674 -0.005999035202 -0.001556869014
v -0.01057083625 -0.001868592924 0.02872981876
v -0.01056965254 0.004073882475 0.03173230216
v -0.01054510288 -0.007915121503 0.02083605528
v -0.01044082828 -0.01547886617 0.005413178355
v -0.01043758634 -0.001884089201 0.02885542251
v -0.0104241427 0.007930129766 0.02387719974
v -0.01037129853 0.01343764737 0.001312161563
v -0.01036716811 -0.002386473818 0.02841910161
v -0.0103169987 0.004752492998 0.031694334
v -0.0102871228 -0.002551333513 0.02834064327
v -0.01027891599 0.008154267445 0.02363830991
v -0.0102402186 0.009485015646 -0.002167602768
v -0.01020659599 -0.002594716847 0.02841287293
v -0.01006769855 0.01335286163 0.003866166109
v -0.01002702583 0.005391963758 0.03179972991
v -0.01000788994 -0.00279517984 0.02840246446
v -0.009997555986 0.008584219962 0.02314483374
v -0.009844793007 0.009829914197 -0.002139446326
v -0.009815350175 0.00579705555 0.03194831684
v -0.009689358994 -0.01600830071 0.004499674775
v -0.00966730807 -0.01581295952 0.003615766065
v -0.00950322859 -0.01527193934 0.002906799782
v -0.009424595162 -0.00399595825 0.02774225175
v -0.009405032732 -0.01588241197 0.005373273045
v -0.009344051592 -0.003984495066 0.02785872854
v -0.009276563302 0.01411899552 0.002045378322
v -0.009241967462 -0.003948829137 0.02795100957
v -0.009241792373 0.01418081205 0.001632387866
v -0.009116638452 0.01041596197 -0.002049912
v -0.009082827717 0.01212810073 -0.0004942475935
v -0.00897267554 -0.007830615155 -0.001615174464
v -0.008963836357 0.007316700183 0.03053313307
v -0.008687283844 0.01451539062 0.00182882743
v -0.008354788646 -0.01622319408 0.005354012828
v -0.008191082627 -0.005474700127 0.02725945972
v -0.008185617626 0.006409573369 0.03262364864
v -0.00816622097 -0.016516909 0.004445852712
v -0.0081266528 -0.01631692052 0.003532450413
v -0.008119973354 -0.005441712216 0.02738022991
v -0.008051565848 0.01488275174 0.002091133501
v -0.008029639721 -0.005382185802 0.0274753049
v -0.007978249341 0.01123074349 -0.001823751256
v -0.007973937318 -0.01573695801 0.002812059131
v -0.007923826575 0.00872672908 0.02983831242
v -0.007821274921 0.008721770719 0.03015867807
v -0.007720598951 0.01468283311 0.006090980023
v -0.007666283287 -0.01641071215 0.005356004927
v -0.007650678046 0.008638511412 0.03043641523
v -0.007451301441 0.01201432105 0.02018486336
v -0.007432871498 0.008851955645 0.03037634306
v -0.007361784577 0.01162676606 -0.001663563191
v -0.007346721366 0.01315043308 -4.409630856e-05
v -0.007288604043 0.01261948608 0.01851682737
v -0.00723448908 -0.006335899234 0.02702600509
v -0.007172382902 -0.006290489808 0.02714908123
v -0.007135879248 0.01501076948 0.006649706047
v -0.007093077991 -0.006216689479 0.02724568173
v -0.006974675693 -0.01657121629 0.005371174309
v -0.006959090475 -0.009194937535 -0.001707004616
v -0.006924154703 0.01539865416 0.00421028398
v -0.006750221364 0.01199078746 -0.001481243293
v -0.006659420207 0.01405249443 0.01474722754
v -0.006642293185 0.01321938355 0.01853030175
v -0.006634722464 0.01279652212 0.02008039504
v -0.00662564626 0.0156771224 0.002819528338
v -0.00660354225 -0.01689519174 0.004453172907
v -0.006532235537 -0.01668878831 0.003513995791
v -0.006483457517 0.009842967615 0.02985007875
v -0.006386537105 -0.01607110165 0.002785834949
v -0.006379630882 0.01386155095 0.01680645905
v -0.00634671608 0.009723664261 0.03013415635
v -0.006338285748 0.01571443118 0.004752534442
v -0.006307649426 0.01585046947 0.003003329039
v -0.006176636554 0.01482026745 0.01276510675
v -0.006116316188 0.01320282742 0.02006286755
v -0.005943810102 0.01375495084 0.01858687587
v -0.005831953138 0.01596844569 0.005286603235
v -0.005729066208 -0.007336576004 0.02679483406
v -0.005689993035 0.01618394814 0.003360805567
v -0.005681534298 -0.007277903613 0.02692036144
v -0.005664946046 0.01436961163 0.01696154103
v -0.005620122422 -0.007188507356 0.0270187743
v -0.005582854617 0.01556110289 0.01078036614
v -0.00550003117 0.01405932941 0.0006569407997
v -0.005457022227 -0.01683006622 0.005457835272
v -0.005311641376 0.01275214739 -0.0009604366496
v -0.005304885563 0.00811499171 0.03241999075
v -0.005281202029 0.01501872391 0.01523030363
v -0.005269234534 0.01372370869 0.02007327415
v -0.005179608706 0.01038572751 0.02995568328
v -0.005162369926 0.01422031503 0.01867483743
v -0.005112263374 0.01631110907 0.006108083297
v -0.005014727358 -0.01713960432 0.004541245755
v -0.004943850916 0.01067923196 0.02962480299
v -0.004900177009 -0.01692298241 0.003584841499
v -0.004882703535 0.01658917591 0.003836250398
v -0.004882431589 0.01623195969 0.008831266314
v -0.004862628877 0.01481494121 0.01714189537
v -0.004848531913 0.01053240057 0.02991695888
v -0.004830225836 -0.01664285548 0.003178235609
v -0.004785013385 0.01567609049 0.0134339733
v -0.004784910474 0.01655009761 0.005360759795
v -0.004757756367 -0.01627130993 0.002854377031
v -0.004666049965 -0.01000244357 -0.001826324384
v -0.00451533962 0.01312973071 -0.0006334371865
v -0.004475290421 0.01407575049 0.02010079473
v -0.004456613213 0.01543405652 0.01550713088
v -0.004405832849 0.006494265515 0.03239898384
v -0.004376688041 0.01319450326 -0.0005734572187
v -0.004279650282 0.008618776686 0.03234954923
v -0.004270426463 0.01688474044 0.004253339954
v -0.004270290956 0.0146063976 0.01878104731
v -0.004176904913 0.01629839465 0.01161743235
v -0.004155774601 0.01694049314 0.004343578126
v -0.004081221763 0.0168222785 0.006924425717
v -0.003949182574 0.01518474706 0.01733617485
v -0.003942519892 0.01604769006 0.01380646508
v -0.003836329095 -0.008184678853 0.02664234675
v -0.003805867163 -0.008116963319 0.02676949464
v -0.003765340894 -0.008016636595 0.02686934732
v -0.003520433325 0.01577839814 0.015794551
v -0.00351693714 0.01359092165 -0.0001833745919
v -0.003505556611 0.0172088109 0.004952942953
v -0.003458718071 0.01684828848 0.009818736464
v -0.003440711414 -0.01726153865 0.004716712516
v -0.003358582966 -0.01720843464 0.004220518749
v -0.003325727535 0.01119182725 0.0294852443
v -0.003318488132 0.01661781408 0.01208019815
v -0.0032758296 -0.01702966169 0.003755100071
v -0.003272265662 0.01102910843 0.02978502214
v -0.003241600003 0.0149024399 0.01889116131
v -0.003200612962 0.00899359677 0.03227847815
v -0.003197575221 -0.01673633792 0.003349368693
v -0.003177432111 0.01510497928 0.0017637196
v -0.003129064571 -0.01634979434 0.003029827261
v -0.003117070068 0.01733789034 0.005361157935
v -0.002985482104 0.01635564119 0.01418731827
v -0.002899512183 0.01546884608 0.01752853952
v -0.002879307838 0.01127878763 0.02945946157
v -0.002836657455 0.01111365482 0.02976100706
v -0.002636384917 0.01731766015 0.008045619354
v -0.002584110014 0.01711207442 0.01036264841
v -0.002573315287 0.01748793572 0.005957552232
v -0.00252888212 0.01116086543 0.02974648587
v -0.002475306392 -0.008580205962 0.02659581229
v -0.002457291121 -0.00850950554 0.02672326565
v -0.002448928542 0.01604253612 0.01607452519
v -0.002431932837 -0.008405494504 0.02682374045
v -0.002341751475 0.01688195206 0.01254973281
v -0.002244080184 -0.01020012703 -0.001965305535
v -0.002083852887 0.009233862162 0.03220784292
v -0.001927355421 0.01429411024 0.0006214160239
v -0.001922415569 0.01762840524 0.006688756403
v -0.001892659231 0.01659145951 0.01455579698
v -0.001745164511 0.01752423495 0.008661353961
v -0.001688483171 0.01565710269 0.01770308614
v -0.001588104991 0.01732830517 0.01091194805
v -0.001392565318 0.01449317578 0.0009169314289
v -0.001340409857 0.01772286557 0.007347517647
v -0.001228444511 0.01708315685 0.01300251298
v -0.001218302059 0.016217364 0.01632894017
v -0.0009981926996 0.01142506115 0.02938489616
v -0.0009915102273 0.0112568466 0.02969178371
v -0.0009460230358 0.009335992858 0.0321386978
v -0.0008366905386 0.01460113749 0.001239355654
v -0.0007378429291 0.008577393368 -0.002425303916
v -0.0007304684841 0.0176900737 0.009281191975
v -0.0006427061744 0.01674677059 0.01489108894
v -0.0005947832833 -0.008786758408 0.02674644254
v -0.0005933977081 -0.008681888692 0.02684742585
v -0.0005929345498 -0.008857899345 0.02661940083
v -0.0004554429906 0.01749062538 0.01144057792
v -0.0003310345346 0.01465373673 0.001551089459
v -0.0002871074539 0.01783225499 0.008520379663
v -0.0002511762141 -0.01701764949 0.004350455478
v -0.0002105456952 -0.01692317985 0.004212643486
v -0.0001373685518 -0.0167029351 0.003965910524
v 3.975102663e-05 0.01721388474 0.01341493055
v 7.783478213e-05 0.01785432361 0.008914463222
v 0.0001478322811 -0.009775010869 -0.002114819828
v 0.0001947505079 0.01629397273 0.01653984375
v 0.0001959110523 0.009298463352 0.03207206726
v 0.0002352330484 0.0111798672 0.02965590917
v 0.000354870368 0.01468779612 0.001994212158
v 0.0004201093107 0.01781055145 0.009876857512
v 0.0005877583753 0.01617023349 0.005401774775
v 0.0007852224517 0.01681338064 0.01517258026
v 0.0008291860577 0.01759275608 0.01192241721
v 0.0008732434362 0.0110892402 0.0296349097
v 0.0008908248856 0.0112541588 0.02932512015
v 0.001242517028 -0.008647531271 0.0269929003
v 0.001266538166 -0.008747288957 0.0268918518
v 0.001324933488 0.009121838026 0.03200895339
v 0.001387910685 0.01787264459 0.01025906578
v 0.001480699982 0.01726674102 0.01376363914
v 0.001555195777 0.00776988687 -0.002544624265
v 0.001659333706 0.01786452904 0.01052289549
v 0.001785738626 -0.008680595085 0.02695881017
v 0.00214415649 0.01466009952 0.003244210733
v 0.002280670917 0.01762854494 0.012331618
v 0.002352677751 -0.008754998446 -0.002265060786
v 0.002372354502 -0.01676796004 0.004734170623
v 0.002387975575 0.01679184474 0.015390018
v 0.002424201695 0.008808746003 0.03195028752
v 0.002624059794 0.01780042052 0.01141935494
v 0.00267950492 0.01463405229 0.003644309705
v 0.002916219411 0.01056114957 0.02954611741
v 0.002955890028 0.0107198311 0.02923464961
v 0.003089570673 0.01724207588 0.01403734274
v 0.003477340797 0.008363856003 0.03189694881
v 0.003566714237 -0.008277883753 0.0273016151
v 0.003568783635 0.006405565422 -0.002636451507
v 0.003715737723 -0.01524065435 0.01417664625
v 0.003892601933 0.01759836636 0.01265594736
v 0.003948962782 0.01761814021 0.01256551873
v 0.004008245654 0.01760735177 0.01261522062
v 0.004127896391 0.01669528708 0.01554801688
v 0.004225720186 -0.007207049523 -0.00240615732
v 0.004242105875 0.01453927159 0.004880528897
v 0.004273536149 0.01755619422 0.01283639669
v 0.004468636122 0.007793799974 0.03184973821
v 0.004499151371 -0.01760758832 0.006443032529
v 0.004701091442 -0.01737631671 0.006045675371
v 0.004809469916 0.009708927013 0.02943061665
v 0.004828894977 0.01715136133 0.01424208283
v 0.004884559195 -0.01704026014 0.005718684755
v 0.005136375315 0.01448216289 0.005636919755
v 0.005170736462 0.004573985469 -0.002694760682
v 0.005367066246 0.01729249954 0.01373265404
v 0.005383322481 0.007107079029 0.03180934489
v 0.005391040351 0.009364220314 0.02938762121
v 0.005579341203 -0.01537050586 0.01480169035
v 0.005644001532 -0.005232777912 -0.002528850455
v 0.005841994658 -0.0166216772 0.01192926709
v 0.005906662438 -0.003593140747 0.03166512027
v 0.005969502032 0.01442889962 0.006375900004
v 0.006070414092 -0.004331471864 -0.002571820281
v 0.006207753904 0.006313925609 0.03177638352
v 0.006255894434 0.002395378891 -0.002715722425
v 0.006332498509 0.01588505507 0.01077866647
v 0.006400568876 -0.003388314741 -0.00260994141
v 0.006533190142 -0.01795930415 0.008455098607
v 0.006629509386 -0.002417469397 -0.002642636653
v 0.006667261478 0.01684847474 0.01479662582
v 0.006753031164 1.276011608e-05 -0.002697958145
v 0.006758207455 -0.01796218008 0.008002877235
v 0.006824475713 -0.01786802337 0.009148193523
v 0.006929644849 0.005426168907 0.03175134212
v 0.006984717678 -0.01784220524 0.0075681163
v 0.00716726575 0.01434010826 0.007497130893
v 0.007198290434 -0.01760238595 0.007179116365
v 0.007312459871 -0.01787885837 0.009413884953
v 0.007385694422 -0.01725763455 0.006859946065
v 0.007538232952 0.004457043018 0.03173458949
v 0.007659280673 -0.01668684371 0.01258302201
v 0.007851850241 -0.01786559448 0.009705794044
v 0.00786575675 -0.01800589077 0.009154940024
v 0.007886520587 0.01626947708 0.01583114825
v 0.008024446666 0.003420995083 0.03172637895
v 0.008028836921 0.01557251345 0.01271343697
v 0.008124591783 -0.01554196142 0.01539692748
v 0.00838102866 0.002333467361 0.03172684461
v 0.008386182599 -0.004466315731 0.03153609857
v 0.008515390567 -0.004497160204 0.0315176025
v 0.008673198521 -0.004495904315 0.03146495298
v 0.008812457323 -0.004448970314 0.03138671443
v 0.008817922324 0.01414750516 0.009156464599
v 0.008930861019 0.01561218034 0.01678306982
v 0.009099414572 -0.01793478057 0.009827671573
v 0.009145108983 0.01545568742 0.01698826067
v 0.009188578464 -0.01445781253 0.01787162572
v 0.009209951386 0.0002836268104 0.03171845526
v 0.00925973244 0.01406864356 0.009622486308
v 0.009354438633 -0.01793601364 0.009385465644
v 0.009487721138 0.01518847328 0.01732448302
v 0.009508247487 0.0149806207 0.01452439092
v 0.009593501687 -0.01781188883 0.008952349424
v 0.009627623484 -0.0177330412 0.01070130058
v 0.009800485335 -0.01756569184 0.008556876332
v 0.00990041066 0.01391996071 0.01031387411
v 0.009913033806 0.01482584141 0.01775699668
v 0.00996232219 -0.01721305959 0.008224030025
v 0.01006851904 -0.01677987538 0.007975777611
v 0.0101176966 0.01385848224 0.01055288035
v 0.01014322229 -0.01676914841 0.01323070284
v 0.01058265474 0.01426090114 0.01589079015
v 0.01082583051 0.01360989083 0.01134733111
v 0.01093447395 0.01379738748 0.01887760311
v 0.01108453609 -0.01566203311 0.0159186516
v 0.01114694495 -0.017532086 0.01164318994
v 0.01143497135 -0.01765034348 0.01123843994
v 0.01153514255 0.013076948 0.01960078999
v 0.01171568874 0.01316671073 0.01237336081
v 0.01171654649 -0.0176408682 0.01081195474
v 0.01197374985 -0.01750689745 0.01039157901
v 0.01198046468 0.01248352043 0.02017239854
v 0.01210726518 0.01291617192 0.01282487065
v 0.01210988499 -0.013255639 0.01997707598
v 0.01218890306 -0.01725239307 0.01000497397
v 0.01232846733 -0.01731987298 0.01244936977
v 0.01233865041 -0.01449713204 0.01819486171
v 0.01234839484 -0.01689355262 0.009676630609
v 0.01244202908 -0.01645673998 0.009428340942
v 0.0127931023 0.01127350703 0.0212466903
v 0.0128486855 0.01232733019 0.01369840652
v 0.0129476171 0.01102832146 0.0214413777
v 0.01303803176 -0.01679366082 0.01382605452
v 0.01333726384 -0.01708561368 0.01319988165
v 0.01337439474 0.01033098903 0.02193332464
v 0.01366107818 -0.01719465293 0.01281726267
v 0.01368876267 0.01146937162 0.01470868289
v 0.01386691723 0.009470356628 0.02240026183
v 0.01397182886 -0.01717593521 0.01240905654
v 0.014192231 -0.01563773304 0.01632316224
v 0.01424959581 -0.01703337207 0.01200214867
v 0.01439176872 0.008443887345 0.02279224247
v 0.01442650147 0.01056387834 0.01559476275
v 0.01447477005 -0.01677159593 0.01162326615
v 0.01463297661 -0.01640741527 0.01129661035
v 0.01465829462 -0.0166732315 0.01428794488
v 0.01471424475 -0.01596774161 0.01104420144
v 0.01474764943 0.007670607883 0.02302864194
v 0.014950132 0.007218994666 0.02315735631
v 0.01524983346 0.006563012023 0.02331711724
v 0.01534346398 -0.01427172683 0.01834626496
v 0.01536955498 0.009208206087 0.01672079973
v 0.01538232435 0.006275665946 0.02337619103
v 0.01541074365 -0.01636596583 0.01497100573
v 0.01544697769 0.008247272111 0.0194515828
v 0.01563148946 0.005737195257 0.02346999571
v 0.0157775525 -0.01646740921 0.0146200778
v 0.01603914239 0.00810081698 0.01751533896
v 0.01612124033 -0.01644245349 0.01423316821
v 0.01623255387 0.004486924037 0.02359347418
v 0.01627570949 0.00764820911 0.01779145375
v 0.01629720069 -0.01588995382 0.01584473252
v 0.01641951874 -0.01629554667 0.01383644249
v 0.01656256802 0.007028074004 0.01812040247
v 0.01665052213 -0.01603185758 0.01345597766
v 0.01678417809 -0.01592318341 0.01561451331
v 0.01679924689 -0.01566862129 0.01311650407
v 0.016856445 -0.01523310877 0.01284159813
v 0.01687532291 0.003240566235 0.02357159741
v 0.01700021327 0.005963264965 0.01860271022
v 0.01707283035 -0.01531062741 0.01668099314
v 0.017145494 -0.01589420252 0.01524080802
v 0.01734331995 0.005093256012 0.01897958666
v 0.01745193824 -0.0157471057 0.01484710909
v 0.01745657809 -0.01493147109 0.01712827384
v 0.01768053882 -0.01548731979 0.01445918344
v 0.0177436471 -0.01514658332 0.0166721791
v 0.01778149791 -0.0142437024 0.01357930619
v 0.01781632937 -0.01513198763 0.014102499
v 0.01785102487 -0.01470799744 0.01380222663
v 0.01809844561 0.003513267264 0.01915103011
v 0.01812112331 -0.01510815974 0.01631496847
v 0.01812349446 -0.01405955013 0.01797646098
v 0.018381726 0.000410847686 0.0233813785
v 0.01843113638 -0.01496177819 0.01592311077
v 0.01843194291 -0.01351544261 0.01841302961
v 0.01856562868 -0.01410314348 0.01770995371
v 0.01864999346 -0.01471323334 0.01552176755
v 0.01865301281 -0.01355549227 0.01452513598
v 0.01872549951 -0.01285361312 0.01887317374
v 0.0187633466 -0.01437895838 0.0151373595
v 0.01876467094 -0.01398422197 0.01479727961
v 0.01895319484 -0.01404966041 0.01736951992
v 0.01910427026 -0.0009405487799 0.02327618003
v 0.01917727478 -0.01286236942 0.01863018423
v 0.0192022603 0.001105533913 0.01956845447
v 0.01926178113 -0.01390479039 0.0169792641
v 0.01937561482 -0.01265425701 0.015440071
v 0.01946759969 -0.01367474627 0.01656346209
v 0.01952624694 -0.01302669942 0.01576605439
v 0.01955729909 -0.01337458193 0.0161492452
v 0.01956667192 -0.01279263943 0.01830281131
v 0.01957583427 -0.001802818384 0.02317490056
v 0.01957590133 -0.01151122525 0.01940694079
v 0.01974652894 -0.0001047436672 0.01979230717
v 0.01979586855 -0.01013612933 0.02005530521
v 0.01986980997 -0.01265059225 0.01791406237
v 0.01990655437 -0.01158096548 0.01626164839
v 0.01996242814 -0.01142799202 0.01908851974
v 0.02006345801 -0.01244279742 0.01748719998
v 0.02008213475 -0.01188889425 0.0166317299
v 0.02010240965 -0.002724867547 0.02299991995
v 0.02013529837 -0.0121825859 0.01704953611
v 0.02018094435 -0.01004441176 0.01974355616
v 0.02023423091 -0.001198391197 0.02003731206
v 0.02025727183 -0.01039127726 0.01697277278
v 0.02025961876 -0.0112900259 0.01870131865
v 0.02037506923 -0.002181664342 0.02121557109
v 0.02044343576 -0.01063910499 0.01737345196
v 0.02044501901 -0.01110411715 0.01826764271
v 0.02046610042 -0.009145721793 0.01758104004
v 0.02047607861 -0.009911143221 0.01935809292
v 0.02050709166 -0.01088191848 0.01781464368
v 0.02053678222 -0.001959023299 0.02031865716
v 0.02054996416 -0.002758536953 0.01989899017
v 0.02061736956 -0.006610197481 0.0185876675
v 0.0206232965 -0.004092520569 0.01949542575
v 0.02065368183 -0.009347302839 0.01800175942
v 0.02065922692 -0.009743136354 0.0189205762
v 0.02067413926 -0.002409235109 0.0206190031
v 0.02070516162 -0.002655166434 0.02092413791
v 0.02071153373 -0.002864133334 0.02038893662
v 0.02071730979 -0.003726913594 0.02266721614
v 0.02071916126 -0.009550754912 0.0184580069
v 0.0207365863 -0.002988686552 0.02090111561
v 0.02077842876 -0.007091986947 0.01998849586
v 0.02079238743 -0.004248967394 0.01997208223
v 0.02079723589 -0.006764946971 0.0190352723
v 0.02082316391 -0.004416689742 0.02047445439
v 0.02085180022 -0.006929091178 0.01951253228
f 403 409 136
f 427 436 200
f 200 399 427
f 428 436 427
f 427 334 428
f 334 427 312
f 564 409 403
f 428 362 375
f 405 136 407
f 407 136 409
f 473 496 490
f 550 436 571
f 436 430 571
f 571 574 578
f 553 490 496
f 481 490 553
f 553 563 403
f 476 496 473
f 147 154 145
f 334 312 310
f 399 154 284
f 284 427 399
f 284 312 427
f 153 107 120
f 23 76 27
f 27 76 41
f 81 49 73
f 57 49 81
f 72 76 23
f 91 76 72
f 72 88 91
f 67 88 72
f 67 72 53
f 265 271 281
f 358 343 349
f 349 343 331
f 313 306 292
f 292 301 313
f 281 301 292
f 321 306 313
f 461 450 469
f 403 461 469
f 200 436 272
f 200 272 274
f 223 268 186
f 105 124 115
f 404 384 431
f 338 343 370
f 323 331 338
f 331 343 338
f 356 362 428
f 428 355 356
f 428 334 333
f 333 355 428
f 333 356 355
f 333 310 309
f 334 310 333
f 428 375 489
f 489 375 362
f 428 521 429
f 429 436 428
f 429 430 436
f 309 310 282
f 502 553 499
f 499 553 496
f 534 511 494
f 563 570 575
f 573 570 568
f 436 423 426
f 412 385 426
f 385 274 426
f 426 272 436
f 426 274 272
f 473 385 394
f 394 476 473
f 157 147 153
f 154 147 157
f 148 154 399
f 148 9 16
f 152 399 200
f 246 284 154
f 283 310 312
f 312 284 283
f 283 282 310
f 284 246 283
f 52 49 57
f 35 27 41
f 41 49 35
f 49 52 35
f 35 52 92
f 67 53 51
f 47 149 51
f 21 32 34
f 32 51 34
f 34 51 53
f 214 232 209
f 214 183 200
f 91 173 179
f 179 183 91
f 173 183 179
f 196 183 209
f 73 49 94
f 91 183 94
f 94 76 91
f 94 49 41
f 41 76 94
f 238 265 247
f 281 271 285
f 285 301 281
f 313 301 318
f 183 196 111
f 252 265 238
f 262 271 252
f 271 265 252
f 253 270 276
f 209 232 239
f 232 253 239
f 208 196 209
f 217 227 130
f 217 213 227
f 130 108 217
f 108 213 217
f 277 265 281
f 281 292 277
f 261 247 277
f 277 247 265
f 319 305 306
f 306 321 319
f 319 331 323
f 319 321 331
f 171 192 215
f 408 354 422
f 326 354 408
f 403 469 475
f 481 553 475
f 475 553 403
f 475 469 452
f 395 385 473
f 395 388 385
f 374 388 371
f 385 388 374
f 371 388 460
f 388 468 460
f 460 490 481
f 460 468 490
f 371 452 445
f 452 469 445
f 445 469 450
f 450 439 445
f 422 354 432
f 432 440 422
f 372 354 371
f 439 354 372
f 371 445 372
f 372 445 439
f 276 270 258
f 263 291 258
f 270 253 258
f 258 253 232
f 332 318 325
f 200 274 251
f 263 274 296
f 268 223 118
f 164 124 118
f 118 314 268
f 136 314 118
f 164 82 75
f 75 124 164
f 75 68 124
f 39 68 75
f 382 365 136
f 136 365 344
f 344 314 136
f 69 8 10
f 10 8 24
f 56 53 72
f 12 10 56
f 24 53 56
f 56 10 24
f 17 32 21
f 32 17 31
f 31 17 15
f 23 77 19
f 19 77 12
f 19 72 23
f 19 56 72
f 12 56 19
f 12 77 70
f 69 10 70
f 70 10 12
f 70 124 69
f 70 77 124
f 23 27 46
f 46 77 23
f 86 92 115
f 115 124 86
f 115 92 98
f 98 105 115
f 92 52 98
f 98 52 79
f 164 118 195
f 195 118 223
f 409 564 559
f 527 407 409
f 182 193 330
f 330 176 182
f 422 440 451
f 451 408 422
f 225 330 215
f 225 250 330
f 215 192 225
f 323 338 350
f 350 338 370
f 360 176 330
f 360 273 286
f 360 376 136
f 136 176 360
f 330 250 360
f 356 333 465
f 335 333 309
f 420 398 416
f 222 398 377
f 309 211 222
f 222 377 309
f 222 416 398
f 188 282 168
f 168 184 188
f 74 89 134
f 30 25 74
f 74 25 82
f 201 188 184
f 493 476 480
f 493 480 502
f 502 499 493
f 496 476 493
f 493 499 496
f 508 534 502
f 508 488 511
f 543 553 502
f 502 534 543
f 543 534 553
f 556 534 494
f 494 571 556
f 556 571 568
f 553 534 562
f 563 553 562
f 562 556 568
f 534 556 562
f 562 570 563
f 568 570 562
f 563 575 565
f 403 563 565
f 565 564 403
f 576 575 578
f 564 565 576
f 576 565 575
f 568 571 569
f 569 573 568
f 571 573 569
f 577 575 570
f 570 573 577
f 577 573 571
f 577 571 578
f 578 575 577
f 412 426 418
f 418 426 423
f 418 494 412
f 418 498 494
f 507 498 418
f 418 423 507
f 550 532 541
f 541 532 423
f 541 436 550
f 541 423 436
f 507 423 522
f 423 532 522
f 522 498 507
f 522 532 550
f 550 571 522
f 522 571 494
f 494 498 522
f 402 385 412
f 402 394 385
f 480 476 402
f 476 394 402
f 203 156 191
f 203 218 219
f 154 156 203
f 399 149 146
f 146 148 399
f 9 148 146
f 150 149 399
f 399 152 150
f 221 246 154
f 168 282 242
f 219 218 242
f 65 152 67
f 8 6 22
f 24 8 22
f 22 6 21
f 21 34 22
f 22 53 24
f 22 34 53
f 235 214 200
f 232 214 235
f 200 251 235
f 209 183 212
f 212 214 209
f 183 214 212
f 220 247 261
f 280 276 302
f 302 285 280
f 262 276 280
f 280 271 262
f 280 285 271
f 301 285 311
f 311 318 301
f 311 285 302
f 302 325 311
f 311 325 318
f 90 81 96
f 96 108 90
f 116 111 170
f 116 96 111
f 97 81 73
f 73 94 97
f 97 96 81
f 111 96 97
f 106 94 183
f 183 111 106
f 106 97 94
f 111 97 106
f 170 111 158
f 158 111 196
f 158 208 170
f 196 208 158
f 238 226 234
f 234 252 238
f 130 227 234
f 255 239 253
f 255 276 262
f 255 253 276
f 181 208 213
f 181 213 108
f 227 213 228
f 213 208 228
f 228 208 209
f 209 239 228
f 288 292 306
f 288 277 292
f 306 305 288
f 261 277 288
f 336 349 331
f 331 321 336
f 286 243 298
f 57 81 62
f 62 81 90
f 62 52 57
f 79 52 62
f 62 98 79
f 105 98 62
f 90 108 99
f 99 85 90
f 159 226 238
f 130 234 159
f 159 234 226
f 206 171 215
f 215 330 206
f 330 193 206
f 352 336 342
f 358 349 352
f 349 336 352
f 393 408 424
f 393 431 384
f 393 437 431
f 381 367 326
f 326 408 381
f 371 354 353
f 473 490 470
f 490 468 470
f 470 468 388
f 470 395 473
f 388 395 470
f 456 452 371
f 371 460 456
f 456 460 481
f 481 475 456
f 456 475 452
f 434 354 439
f 434 432 354
f 434 439 450
f 434 450 461
f 461 432 434
f 295 291 302
f 295 258 291
f 302 276 295
f 276 258 295
f 326 367 345
f 302 291 320
f 320 325 302
f 357 274 385
f 371 353 357
f 124 105 112
f 112 118 124
f 112 85 118
f 69 124 63
f 124 68 63
f 63 8 69
f 63 6 8
f 397 382 136
f 467 382 397
f 365 382 446
f 314 344 299
f 299 267 314
f 16 9 13
f 9 75 13
f 103 107 153
f 66 38 61
f 32 31 42
f 27 35 59
f 59 86 27
f 59 35 92
f 92 86 59
f 77 46 83
f 124 77 83
f 83 86 124
f 83 46 27
f 27 86 83
f 223 135 131
f 131 195 223
f 164 195 131
f 7 75 9
f 39 75 7
f 68 4 2
f 2 4 15
f 2 17 1
f 15 17 2
f 554 546 409
f 409 559 554
f 409 546 536
f 536 527 409
f 516 527 518
f 407 527 516
f 405 407 516
f 383 376 370
f 370 343 383
f 383 343 358
f 403 136 392
f 136 376 392
f 431 437 392
f 392 451 403
f 369 400 361
f 358 352 361
f 361 352 369
f 457 461 403
f 403 451 457
f 457 451 440
f 457 432 461
f 440 432 457
f 444 393 424
f 437 393 444
f 444 392 437
f 250 225 216
f 370 376 363
f 376 348 363
f 363 350 370
f 323 350 363
f 376 329 337
f 337 348 376
f 316 360 286
f 286 298 316
f 269 360 250
f 273 360 269
f 462 489 362
f 462 465 489
f 362 356 462
f 356 465 462
f 453 465 435
f 435 465 333
f 333 335 435
f 489 465 509
f 257 416 249
f 416 222 249
f 419 398 420
f 453 449 471
f 471 484 453
f 472 484 471
f 282 188 198
f 198 211 309
f 309 282 198
f 198 201 211
f 188 201 198
f 134 89 101
f 117 109 89
f 50 74 60
f 230 222 211
f 211 201 230
f 257 249 230
f 230 249 222
f 185 201 184
f 185 137 186
f 494 511 491
f 511 488 491
f 412 494 491
f 491 488 412
f 502 480 486
f 486 508 502
f 486 402 412
f 480 402 486
f 511 534 519
f 519 508 511
f 534 508 519
f 572 576 578
f 566 559 564
f 564 576 566
f 576 572 566
f 189 177 187
f 189 203 191
f 189 156 154
f 191 156 189
f 165 157 153
f 153 120 165
f 154 157 169
f 157 165 169
f 169 165 177
f 187 177 142
f 142 189 187
f 142 120 134
f 134 218 142
f 58 150 152
f 152 65 58
f 58 51 149
f 149 150 58
f 67 51 58
f 58 65 67
f 166 183 173
f 166 173 91
f 91 88 166
f 183 161 155
f 200 183 155
f 155 152 200
f 67 152 155
f 155 88 67
f 155 161 88
f 205 203 219
f 219 221 205
f 154 203 205
f 205 221 154
f 168 242 127
f 127 117 168
f 109 117 127
f 244 283 246
f 219 242 244
f 282 283 244
f 244 242 282
f 244 221 219
f 246 221 244
f 167 218 134
f 167 242 218
f 254 251 274
f 254 235 251
f 254 274 263
f 263 258 254
f 254 258 232
f 232 235 254
f 190 220 261
f 192 171 190
f 108 96 113
f 96 116 113
f 240 234 227
f 227 228 240
f 240 228 239
f 239 255 240
f 170 208 175
f 208 181 175
f 175 116 170
f 175 113 116
f 175 181 108
f 108 113 175
f 287 337 329
f 324 321 313
f 324 336 321
f 313 318 324
f 342 336 324
f 324 318 332
f 332 342 324
f 261 288 279
f 279 287 278
f 305 319 317
f 317 307 305
f 317 319 323
f 348 307 317
f 323 363 317
f 317 363 348
f 78 62 90
f 90 85 78
f 105 62 78
f 85 112 78
f 160 182 176
f 85 99 100
f 118 85 100
f 193 171 194
f 194 206 193
f 171 206 194
f 380 384 404
f 404 379 380
f 359 342 332
f 359 352 342
f 408 393 389
f 389 381 408
f 367 381 389
f 303 308 326
f 326 345 303
f 303 345 325
f 303 320 291
f 325 320 303
f 294 291 263
f 263 296 294
f 385 374 368
f 368 357 385
f 368 374 371
f 371 357 368
f 346 357 353
f 6 63 3
f 21 6 3
f 1 17 3
f 3 17 21
f 64 63 68
f 64 2 1
f 68 2 64
f 467 397 485
f 401 136 405
f 401 397 136
f 401 485 397
f 447 382 467
f 447 446 382
f 466 447 467
f 446 447 466
f 267 299 297
f 297 299 344
f 43 75 82
f 43 13 75
f 144 66 153
f 144 141 66
f 153 147 144
f 144 147 145
f 28 25 30
f 30 38 28
f 50 120 55
f 55 120 107
f 66 61 80
f 107 103 80
f 80 61 107
f 32 42 45
f 47 51 45
f 45 51 32
f 45 149 47
f 45 42 149
f 149 42 33
f 33 42 31
f 33 146 149
f 33 31 15
f 164 125 102
f 102 93 164
f 125 93 102
f 87 125 82
f 87 93 125
f 87 82 164
f 164 93 87
f 126 125 164
f 164 131 126
f 126 131 125
f 39 7 5
f 5 68 39
f 5 4 68
f 15 4 5
f 544 571 430
f 430 429 544
f 429 542 544
f 533 542 429
f 376 383 391
f 391 392 376
f 400 392 391
f 391 383 358
f 358 361 391
f 391 361 400
f 431 392 414
f 414 392 400
f 404 431 414
f 414 400 369
f 414 379 404
f 369 379 414
f 451 392 448
f 392 444 448
f 448 444 424
f 424 408 448
f 408 451 448
f 250 216 204
f 360 316 322
f 322 329 376
f 376 360 322
f 322 287 329
f 278 287 322
f 322 275 278
f 316 275 322
f 510 495 497
f 489 509 513
f 513 521 428
f 428 489 513
f 513 509 515
f 500 509 465
f 411 416 257
f 257 406 411
f 257 290 289
f 289 406 257
f 377 398 396
f 398 419 396
f 309 377 396
f 442 454 449
f 442 419 420
f 449 419 442
f 449 454 464
f 472 471 464
f 464 471 449
f 89 109 104
f 104 101 89
f 104 109 134
f 134 101 104
f 138 184 168
f 168 117 138
f 119 60 74
f 134 120 119
f 119 74 134
f 119 120 50
f 50 60 119
f 186 137 151
f 151 137 135
f 151 223 186
f 151 135 223
f 132 185 140
f 137 185 132
f 257 230 231
f 412 488 487
f 487 486 412
f 488 508 487
f 508 486 487
f 557 554 559
f 559 566 557
f 180 189 154
f 177 189 180
f 154 169 180
f 180 169 177
f 172 165 120
f 177 165 172
f 120 142 172
f 203 189 199
f 189 142 199
f 218 203 199
f 199 142 218
f 162 161 183
f 183 166 162
f 88 161 162
f 162 166 88
f 163 127 242
f 242 167 163
f 109 127 163
f 134 109 163
f 163 167 134
f 178 190 171
f 171 133 178
f 238 247 178
f 178 159 238
f 178 133 159
f 247 220 210
f 220 190 210
f 210 178 247
f 190 178 210
f 245 255 262
f 245 240 255
f 262 252 245
f 252 234 245
f 234 240 245
f 300 288 305
f 305 307 300
f 300 279 288
f 287 279 300
f 337 287 300
f 300 307 348
f 348 337 300
f 241 236 261
f 243 236 241
f 224 190 261
f 261 236 224
f 266 279 278
f 243 241 266
f 261 279 266
f 95 112 105
f 105 78 95
f 95 78 112
f 136 118 114
f 114 100 136
f 118 100 114
f 122 160 176
f 121 100 99
f 159 133 121
f 121 99 108
f 121 108 130
f 130 159 121
f 351 359 332
f 332 325 351
f 325 345 351
f 351 345 367
f 369 352 364
f 352 359 364
f 364 379 369
f 384 380 378
f 378 380 379
f 379 364 378
f 378 364 359
f 367 389 373
f 373 351 367
f 359 351 373
f 384 378 373
f 373 378 359
f 373 393 384
f 373 389 393
f 308 303 304
f 304 303 291
f 291 294 304
f 326 308 327
f 357 346 328
f 328 296 274
f 274 357 328
f 346 327 328
f 328 327 308
f 1 3 37
f 37 64 1
f 37 3 63
f 63 64 37
f 485 401 506
f 506 505 485
f 506 401 405
f 518 505 506
f 405 516 506
f 506 516 518
f 482 466 483
f 483 505 482
f 485 505 483
f 467 485 483
f 483 466 467
f 446 466 463
f 463 466 482
f 482 479 463
f 463 479 459
f 386 387 413
f 386 290 293
f 365 446 417
f 339 386 293
f 387 386 339
f 344 366 341
f 341 297 344
f 139 148 16
f 16 13 139
f 44 38 66
f 66 141 44
f 107 61 71
f 71 55 107
f 61 55 71
f 40 61 38
f 40 55 61
f 50 55 40
f 40 38 30
f 40 74 50
f 30 74 40
f 66 80 84
f 84 80 103
f 153 66 84
f 84 103 153
f 146 33 26
f 26 33 15
f 538 536 546
f 526 537 523
f 539 537 526
f 524 429 521
f 542 533 540
f 286 273 229
f 229 204 236
f 197 204 216
f 197 225 192
f 197 216 225
f 192 190 197
f 190 224 197
f 236 204 197
f 197 224 236
f 520 510 523
f 523 510 512
f 512 526 523
f 497 501 512
f 512 510 497
f 478 500 465
f 478 465 453
f 453 484 478
f 492 484 495
f 495 500 492
f 492 478 484
f 500 478 492
f 495 510 504
f 504 500 495
f 504 520 515
f 510 520 504
f 515 509 504
f 509 500 504
f 410 289 290
f 406 289 410
f 410 386 413
f 290 386 410
f 425 419 449
f 425 396 419
f 425 449 453
f 453 435 425
f 425 435 335
f 425 335 309
f 309 396 425
f 413 441 438
f 438 410 413
f 123 138 117
f 123 74 82
f 89 74 123
f 123 117 89
f 264 297 293
f 267 297 264
f 267 264 233
f 233 264 231
f 268 314 233
f 314 267 233
f 202 230 201
f 202 231 230
f 201 185 202
f 202 185 186
f 561 566 572
f 561 557 566
f 572 558 561
f 174 142 177
f 177 172 174
f 174 172 142
f 260 266 278
f 243 266 260
f 278 275 260
f 260 298 243
f 260 316 298
f 260 275 316
f 256 241 261
f 261 266 256
f 256 266 241
f 128 133 171
f 128 122 133
f 128 171 193
f 160 122 128
f 193 182 128
f 182 160 128
f 100 121 110
f 110 122 176
f 133 122 110
f 110 121 133
f 110 176 136
f 136 100 110
f 347 346 353
f 347 327 346
f 326 327 347
f 347 354 326
f 347 353 354
f 296 328 315
f 315 328 308
f 315 294 296
f 315 304 294
f 308 304 315
f 482 505 503
f 503 479 482
f 501 479 503
f 459 441 443
f 443 463 459
f 446 463 443
f 443 417 446
f 413 387 415
f 417 443 415
f 415 441 413
f 415 443 441
f 365 417 390
f 390 344 365
f 390 415 387
f 417 415 390
f 390 366 344
f 390 341 366
f 387 341 390
f 297 341 340
f 293 297 340
f 340 339 293
f 387 339 340
f 340 341 387
f 82 25 20
f 14 36 13
f 14 44 36
f 14 20 44
f 13 43 14
f 14 43 82
f 82 20 14
f 143 44 141
f 141 144 143
f 143 144 145
f 148 139 143
f 145 154 143
f 154 148 143
f 36 44 54
f 54 143 139
f 44 143 54
f 146 26 18
f 15 5 18
f 18 26 15
f 529 538 539
f 539 526 529
f 528 533 429
f 429 524 528
f 528 524 533
f 515 520 525
f 525 524 521
f 533 524 525
f 521 513 525
f 525 513 515
f 273 269 248
f 248 229 273
f 248 269 250
f 250 204 248
f 204 229 248
f 237 243 286
f 286 229 237
f 237 236 243
f 237 229 236
f 433 442 420
f 458 441 459
f 458 438 441
f 82 125 129
f 129 123 82
f 129 131 135
f 125 131 129
f 135 137 129
f 137 132 129
f 129 132 140
f 138 123 129
f 140 185 129
f 129 185 184
f 184 138 129
f 259 264 293
f 231 264 259
f 293 290 259
f 259 290 257
f 257 231 259
f 207 233 231
f 231 202 207
f 207 202 186
f 186 268 207
f 268 233 207
f 571 544 552
f 552 560 571
f 574 571 567
f 571 560 567
f 578 574 567
f 567 572 578
f 567 558 572
f 557 561 551
f 551 537 539
f 526 512 514
f 514 529 526
f 514 512 501
f 501 503 514
f 29 20 25
f 44 20 29
f 25 28 29
f 29 28 38
f 38 44 29
f 36 54 48
f 48 54 139
f 13 36 48
f 48 139 13
f 9 146 11
f 146 18 11
f 11 7 9
f 11 5 7
f 11 18 5
f 538 529 530
f 527 536 530
f 536 538 530
f 518 527 530
f 535 520 523
f 523 537 535
f 535 537 545
f 545 540 535
f 420 416 421
f 421 433 420
f 416 411 421
f 421 411 406
f 406 410 421
f 410 438 421
f 438 433 421
f 459 479 477
f 477 458 459
f 477 501 497
f 477 479 501
f 547 544 542
f 547 552 544
f 542 540 547
f 547 540 545
f 560 552 547
f 557 551 549
f 546 554 549
f 554 557 549
f 549 538 546
f 539 538 549
f 549 551 539
f 545 537 548
f 537 551 548
f 548 561 558
f 548 551 561
f 529 514 517
f 518 530 517
f 517 530 529
f 517 505 518
f 517 503 505
f 517 514 503
f 531 525 520
f 520 535 531
f 531 535 540
f 531 540 533
f 533 525 531
f 458 477 474
f 472 464 474
f 474 484 472
f 495 484 474
f 497 495 474
f 474 477 497
f 555 547 545
f 545 548 555
f 555 548 558
f 560 547 555
f 558 567 555
f 555 567 560
f 458 474 455
f 455 464 454
f 455 474 464
f 454 442 455
f 442 433 455
f 455 433 438
f 438 458 455
