v -0.008259265673 -0.0003161700314 -0.0133883688
v -0.008259180044 -0.0003393965584 -0.0133883688
v -0.008258737088 -0.0003787795777 -0.0133883688
v -0.008256721514 -0.0004574992535 -0.0133883688
v -0.008248183498 -0.0006147007721 -0.0133883688
v -0.008237090876 0.0001081235566 -0.0133883688
v -0.008213711175 -0.001116718385 -0.0133883688
v -0.008203377519 0.0005789608382 -0.0133883688
v -0.008182629828 -0.00139329135 -0.0133883688
v -0.008177880897 0.0007760659615 -0.0133883688
v -0.008171059759 -0.001464881038 -0.0133883688
v -0.008140970373 -0.001620096902 -0.0133883688
v -0.00813263275 0.001018600365 -0.0133883688
v -0.008038123368 0.001477832939 -0.0133883688
v -0.008037412817 -0.002114165107 -0.0133883688
v -0.008005359559 -0.0004113158502 -0.001190081239
v -0.008005223586 -0.0004560748348 -0.001191478223
v -0.008004428237 -0.000531951664 -0.001194281504
v -0.008000696427 -0.0006835346576 -0.001201556996
v -0.008000565522 0.00163483711 -0.0133883688
v -0.007990081212 -0.000458636845 -0.001114634797
v -0.007989892154 -0.0004105402186 -0.001113630831
v -0.007989259786 -0.0005349575658 -0.001117477193
v -0.007988164703 0.001680119781 -0.0133883688
v -0.00798545999 -0.0006874074461 -0.001124864444
v -0.007984709344 -0.0009857721452 -0.001222966239
v -0.007982508629 -0.0004104047694 -0.001097796485
v -0.007969254046 -0.0009913869726 -0.00114665553
v -0.007963841199 0.0004052350705 -0.001244595274
v -0.007946730941 -0.0004101150989 -0.001048723236
v -0.007946073432 -0.002462169206 -0.0133883688
v -0.007945227786 -0.0005370024592 -0.001053055748
v -0.007941432646 -0.0006895915722 -0.00106052123
v -0.007937456746 -0.002489693743 -0.0133883688
v -0.007937215271 0.001858047597 -0.0133883688
v -0.007925264887 -0.0009938667354 -0.001082556322
v -0.007919899537 -0.0004101155937 -0.001026313752
v -0.007918862975 -0.001584515761 -0.001294875517
v -0.007916001021 0.0007836456934 -0.001296009868
v -0.007902573212 -0.001594178349 -0.001220019534
v -0.007899506367 0.000793232728 -0.001221314073
v -0.007894439041 -0.001738712162 -0.001320673153
v -0.007876870572 -0.0006898881984 -0.001016767696
v -0.007860931917 -0.0009930880333 -0.00103886798
v -0.007858755416 -0.001597870345 -0.00115688704
v -0.007856515585 0.0007969636063 -0.001157568768
v -0.007831626921 0.001246606145 -0.001388749108
v -0.007831228315 -0.002071336115 -0.001389240846
v -0.00779907191 0.002272304852 -0.0133883688
v -0.007795338868 -0.001595489419 -0.001113394275
v -0.007792985222 -0.002928476099 -0.0133883688
v -0.007761868066 0.001545558363 -0.001469194889
v -0.007683134404 0.002595324837 -0.0133883688
v -0.00766252575 -0.002728063235 -0.001591570675
v -0.007656657486 0.001922973577 -0.001597998664
v -0.007646781742 -0.002779451053 -0.001611782238
v -0.007642525597 -0.002748628933 -0.001524409279
v -0.007636325783 0.001943745097 -0.001531591639
v -0.007610826523 0.002762339628 -0.0133883688
v -0.007599287084 -0.002758458344 -0.001466628164
v -0.007593721501 0.00195418662 -0.001473860815
v -0.007586593951 -0.003454790633 -0.0133883688
v -0.007539636805 -0.002756991278 -0.001424858347
v -0.007445452153 0.002529595658 -0.001885142177
v -0.007429287348 0.003167332068 -0.0133883688
v -0.007418777295 -0.003830237871 -0.0133883688
v -0.007406773182 0.003215471165 -0.0133883688
v -0.007405240078 -0.003860201249 -0.0133883688
v -0.007316478877 0.002837589389 -0.002074044198
v -0.007276076241 0.002927016612 -0.002134278417
v -0.007274981937 -0.00375083214 -0.002136714756
v -0.007256415091 -0.003765197791 -0.002072457224
v -0.007251554518 0.002953994001 -0.002078838646
v -0.0072148065 0.003572880322 -0.0133883688
v -0.007214285783 -0.003780056111 -0.002023408189
v -0.007210055715 -0.003505271714 -0.001789908856
v -0.00720991136 0.002968878165 -0.002029459924
v -0.007159853703 -0.003781535052 -0.001985527575
v -0.007142878627 -0.004338412326 -0.0133883688
v -0.007007999626 0.003937623603 -0.0133883688
v -0.006959156792 -0.004673039165 -0.0133883688
v -0.006948128712 -0.00469039054 -0.0133883688
v -0.006939467392 0.003577708412 -0.002641836181
v -0.006921313402 0.004068925121 -0.0133883688
v -0.006847789456 -0.004844837618 -0.0133883688
v -0.006818547263 -0.004604189511 -0.002831211314
v -0.006800842821 -0.004632824421 -0.002859564498
v -0.006793287932 -0.004628529161 -0.002782899886
v -0.00678759662 0.003814197757 -0.002791414037
v -0.006753003108 -0.004644560482 -0.002742262557
v -0.006748474685 -0.004989470628 -0.0133883688
v -0.00674763124 0.003830629081 -0.002751035616
v -0.006745365997 0.004325560507 -0.0133883688
v -0.006703882362 -0.004647782858 -0.002708982676
v -0.006595302325 -0.005207679405 -0.0133883688
v -0.006551623694 -0.004996931966 -0.003198185936
v -0.00654786115 0.004179801937 -0.003206102178
v -0.006525858645 0.004642574291 -0.0133883688
v -0.006512345164 -0.005014485068 -0.00316390954
v -0.006508855964 0.004197460745 -0.003171881661
v -0.006507522192 -0.005330709074 -0.0133883688
v -0.00649291079 0.004270045698 -0.003404513001
v -0.006465946673 -0.005020192213 -0.003134934232
v -0.006425834701 0.004763278409 -0.0133883688
v -0.00641732296 -0.005447021514 -0.0133883688
v -0.006413326017 -0.005200669024 -0.003569263965
v -0.006327497656 -0.00530335572 -0.003669481725
v -0.006324565387 0.004484467354 -0.003677435219
v -0.006306243013 -0.005176758714 -0.003344332799
v -0.006289183046 -0.005322740733 -0.003643419594
v -0.006286476157 0.00450393153 -0.003651497886
v -0.006245271186 -0.005331595748 -0.003620713949
v -0.006227128216 -0.005672742472 -0.0133883688
v -0.006196567397 0.005038173936 -0.0133883688
v -0.006180830183 0.004674244352 -0.004195181653
v -0.006143923732 -0.00553323733 -0.004196234047
v -0.006142281811 0.004712483991 -0.004203243181
v -0.006125701475 -0.005563124403 -0.004394607618
v -0.006118243499 -0.005801567894 -0.0133883688
v -0.006113686534 0.005135186884 -0.0133883688
v -0.006106458022 -0.005553755298 -0.00417856127
v -0.006105005625 0.004733048991 -0.004185676575
v -0.006064467016 -0.005564967956 -0.00416280888
v -0.006043448928 -0.005659400806 -0.004771992564
v -0.006041825482 -0.005883133128 -0.0133883688
v -0.006024272214 0.005226091296 -0.0133883688
v -0.006011752761 0.004865916591 -0.004766020924
v -0.005989359252 -0.005938341883 -0.0133883688
v -0.005975578795 -0.005708685931 -0.0047493577
v -0.005975111271 0.004886703246 -0.004755040631
v -0.005958013586 -0.005755965918 -0.005355177447
v -0.00593485625 -0.005720983114 -0.004739373922
v -0.005932149633 0.00531708651 -0.0133883688
v -0.005901718396 -0.0002128960924 0.0003454051912
v -0.005865825494 -0.006057909763 -0.0133883688
v -0.00584075728 -0.005859296158 -0.005930185318
v -0.005815959392 -0.006105180786 -0.0133883688
v -0.005765122337 0.005481212703 -0.0133883688
v -0.005764072645 0.0005580178986 0.0003556571901
v -0.005763658672 -0.0009837366233 0.0003556571901
v -0.005740427194 -0.006170283317 -0.0133883688
v -0.005740232532 0.005505202153 -0.0133883688
v -0.005632234431 -0.006256090284 -0.0133883688
v -0.005578631839 0.005648243108 -0.0133883688
v -0.00555483419 -0.006317370574 -0.0133883688
v -0.005554135772 0.001315941365 0.0002706181258
v -0.005553315743 -0.001741546759 0.0002706088126
v -0.005481931961 -0.006372731472 -0.0133883688
v -0.005469365739 0.005739879927 -0.0133883688
v -0.005429816014 -0.006409812606 -0.0133883688
v -0.005426332238 0.0005501950218 0.0004975162446
v -0.005425921991 -0.0009757324879 0.0004975255579
v -0.005306658684 -0.0002127354372 0.0005735233426
v -0.005237916368 0.002047866728 0.0001259911805
v -0.005236700526 -0.002473301109 0.0001259967685
v -0.005222720909 0.001300917967 0.0004120841622
v -0.005221907399 -0.001726340939 0.0004120841622
v -0.005200829226 -0.006563587439 -0.0133883688
v -0.005048497929 -0.0002126684261 0.0006116311997
v -0.004979557707 0.0005474746868 0.0005850531161
v -0.004979148856 -0.0009727701254 0.0005850531161
v -0.004918112303 0.002027069597 0.0002652276307
v -0.004916909966 -0.002452330053 0.0002652201802
v -0.004901241667 -0.00675551334 -0.0133883688
v -0.004843075643 0.00274078027 -8.052773774e-05
v -0.004841489135 -0.003166000213 -8.053705096e-05
v -0.004791848711 0.001295748545 0.0005008541048
v -0.004791037063 -0.001720942877 0.0005008522421
v -0.004785732038 0.006300041978 -0.0133883688
v -0.004720553639 0.003504573047 -0.0006951391697
v -0.004635136349 -0.006922709968 -0.0133883688
v -0.004541043076 0.002716344461 5.332008004e-05
v -0.004539469141 -0.003141403751 5.331635475e-05
v -0.004514647531 0.002020244632 0.0003523658961
v -0.004513448919 -0.002445288788 0.0003523547202
v -0.00439938379 0.003379754635 -0.0003468636423
v -0.004397452227 -0.003804738488 -0.000346859917
v -0.004371378454 -0.0002124856225 0.0006057750434
v -0.004333185847 -0.004403593804 -0.0009403713048
v -0.00430271111 0.004015476588 -0.0009620282799
v -0.004298105441 -0.00709870392 -0.0133883688
v -0.00428372041 0.006689624122 -0.0133883688
v -0.004274458042 0.006676163204 -0.01301950868
v -0.004256260626 0.00670447499 -0.0133883688
v -0.004248187295 0.006555105705 -0.01125628687
v -0.004244550015 -0.006980002712 -0.01125628501
v -0.004230997409 -0.006925574824 -0.01059271395
v -0.004223505404 0.006721933538 -0.0133883688
v -0.004177233088 0.00270905174 0.000132907182
v -0.004175662878 -0.003133915918 0.0001329034567
v -0.004166604835 0.006317173276 -0.008670633659
v -0.004129432287 0.006756006656 -0.0133883688
v -0.004125687192 -0.007180845356 -0.0133883688
v -0.004080496146 0.006168355379 -0.007347155362
v -0.004039397053 0.006788146727 -0.0133883688
v -0.004035634679 -0.00721293833 -0.0133883688
v -0.003974895808 0.006604466733 -0.01060800254
v -0.003971231519 -0.007029220782 -0.01060801372
v -0.003959833062 0.003953777865 -0.0006830729544
v -0.003957595094 -0.004378522135 -0.000683080405
v -0.003920426941 0.004419827979 -0.001237679273
v -0.003891439992 0.005884519924 -0.005329795182
v -0.003850079956 0.006436391413 -0.008730452508
v -0.003846506472 -0.006861077476 -0.00873044692
v -0.003842795698 0.006858083803 -0.0133883688
v -0.00383899533 -0.007282766074 -0.0133883688
v -0.003825026448 0.006192940898 -0.00687571615
v -0.003821582417 -0.006617614854 -0.006875712425
v -0.003811932052 0.003350802144 -0.0001653190702
v -0.003810015391 -0.003775471909 -0.0001653190702
v -0.003807202796 0.00056212864 0.0005212947726
v -0.003806786961 -0.0009867956105 0.0005212891847
v -0.003803678206 0.0001767060021 0.0005304217339
v -0.003803469124 -0.0006013687816 0.0005304217339
v -0.003800739883 0.00572897555 -0.004480406642
v -0.003799453727 -0.0002123288339 0.0005323793739
v -0.003789693932 -0.004978169542 -0.001351226121
v -0.003758495557 0.001319713687 0.0004621967673
v -0.003757670871 -0.001744354115 0.0004622023553
v -0.003721562098 0.005566081178 -0.00374228321
v -0.003720542765 0.006671555951 -0.01052947901
v -0.003716843552 -0.007096175425 -0.01052948274
v -0.003708100296 0.005536121462 -0.003618638963
v -0.003613769892 0.002050481649 0.0003310851753
v -0.003612553584 -0.002475045942 0.0003310870379
v -0.003598227981 0.005960059963 -0.005210895091
v -0.003595580696 0.006498749048 -0.008671101183
v -0.00359491061 -0.006384614244 -0.005210895091
v -0.003591973684 -0.00692330426 -0.008671101183
v -0.003591047018 0.004454278533 -0.001110495999
v -0.003588539432 -0.004878827691 -0.00111050345
v -0.003586744308 0.005230490264 -0.00254907459
v -0.003583172685 0.005220086925 -0.002518612891
v -0.003577966127 0.005204537563 -0.002473825589
v -0.003566835891 -0.005603297002 -0.002401482314
v -0.003545230138 0.004845115967 -0.001668443903
v -0.003542510211 -0.00526963998 -0.001668440178
v -0.003537337645 0.004889387783 -0.001745896414
v -0.003522792249 0.004849679914 -0.001661725342
v -0.003463257919 0.003936280176 -0.0005546230823
v -0.003461029264 -0.004360758554 -0.0005546268076
v -0.003417131375 0.002738714829 0.00012194179
v -0.003415545798 -0.003163169691 0.0001219399273
v -0.003372822772 0.005678515561 -0.003760509193
v -0.003369656741 -0.006102946907 -0.003760514781
v -0.003355128109 0.004873203259 -0.001643043011
v -0.003352394677 -0.005297626223 -0.001643043011
v -0.00322726171 0.00533060325 -0.002570487559
v -0.003224281943 -0.005754959624 -0.002570487559
v -0.00322164211 0.00512094298 -0.002072824165
v -0.00321877643 -0.005545295629 -0.002072827891
v -0.003193143173 0.00337604704 -0.0001761447638
v -0.003191214404 -0.003800383391 -0.0001761429012
v -0.003188217874 -0.005315063376 -0.001639129594
v -0.003178783576 0.004456802417 -0.001048469916
v -0.003176273662 -0.004881127592 -0.001048466191
v -0.003052441202 0.007093864238 -0.0133883688
v -0.003048512749 -0.007518123718 -0.0133883688
v -0.003046992584 -0.001830563269 0.0003371872008
v -0.003045831225 0.001480249601 0.0003288127482
v -0.00302462501 0.0005655805871 0.0003882013261
v -0.003006069339 0.004903693829 -0.001660298556
v -0.003000990371 -0.0008225320198 0.0003887936473
v -0.002998714837 0.007109366971 -0.0133883688
v -0.002994778071 -0.007533598165 -0.0133883688
v -0.002979293815 0.003957938083 -0.0005733110011
v -0.002977053053 -0.004382156621 -0.0005733259022
v -0.002953589777 0.002652102994 8.487701416e-05
v -0.002949575777 -0.003094045067 7.920153439e-05
v -0.00286098232 -8.443278784e-05 0.0003676041961
v -0.002855624421 -0.0002120796375 0.0003667455167
v -0.002846260439 -0.00368213639 -0.0001565087587
v -0.00282212345 0.007156426531 -0.0133883688
v -0.002818162181 -0.007580561928 -0.0133883688
v -0.002813172177 0.004476605129 -0.001080239192
v -0.002810652717 -0.004900737054 -0.001080239192
v -0.002796261688 0.006890116871 -0.01020627096
v -0.002794361324 -0.0002120589685 0.0003541540354
v -0.002792443964 -0.007314235758 -0.01020627096
v -0.002767779981 0.003630766325 -0.0003646593541
v -0.002700031619 0.006691535149 -0.008378895
v -0.002696320531 -0.007115601882 -0.008378889412
v -0.00268493488 0.004003276263 -0.0006323419511
v -0.002666959888 -0.004500518407 -0.0006933975965
v -0.002615886624 0.004348421149 -0.0009497832507
v -0.002587676398 -0.00493239364 -0.001125978306
v -0.002565789386 -0.005124413263 -0.001368228346
v -0.00256004103 -0.005370784405 -0.001741681248
v -0.002529776772 0.006461501267 -0.006696296856
v -0.002526190015 -0.006885477662 -0.006696293131
v -0.002370986738 0.004970518086 -0.001779170707
v -0.002347646165 0.00161574423 0.0001555401832
v -0.002346663619 -0.002039626794 0.0001555401832
v -0.002307541319 0.006190343905 -0.005190856755
v -0.002304101014 -0.006614205282 -0.005190864205
v -0.002277351334 0.0008428830479 0.0002066344023
v -0.002276783925 -0.001266725798 0.000206630677
v -0.002194577944 0.0004779567535 0.0002068094909
v -0.002194207511 -0.0009017575358 0.000206803903
v -0.002072734875 0.005866308376 -0.003883119673
v -0.002069468959 -0.006290040299 -0.003883123398
v -0.001980098314 0.005002747435 -0.001852387562
v -0.001977295964 -0.005426430929 -0.001852395013
v -0.00191069569 0.004593483784 -0.001298228279
v -0.001908113132 -0.005017127696 -0.001298228279
v -0.001878317795 0.004135607887 -0.000861255452
v -0.001875980175 -0.004559238761 -0.0008612424135
v -0.001863041311 0.003634769615 -0.000529114157
v -0.001860973542 -0.004058389313 -0.000529108569
v -0.001859205193 0.005479885876 -0.002788387239
v -0.001856145333 -0.005903505575 -0.002788385376
v -0.001846450032 0.003092568513 -0.0002886131406
v -0.001844673301 -0.003516180528 -0.00028860569
v -0.001822069171 -0.0007233987271 0.0001235082746
v -0.001812627888 0.002506289078 -0.0001259204
v -0.001811165013 -0.002929880604 -0.0001259092242
v -0.001811119379 0.0003071943356 0.0001203902066
v -0.00175416295 0.001859947486 -2.571940422e-05
v -0.001753049321 -0.002283508744 -2.571754158e-05
v -0.001688198536 -0.005447042029 -0.00191228278
v -0.001651715371 0.001183049666 2.143718302e-05
v -0.001650965656 -0.001606557955 2.143904567e-05
v -0.001567521016 -0.0002117299732 7.030181587e-05
v -0.00151678791 0.007446379102 -0.0133883688
v -0.00151266975 -0.007869815512 -0.0133883688
v -0.001473806216 0.007123805262 -0.009781299159
v -0.001469864859 -0.007547217276 -0.009781310335
v -0.001461948385 0.000549120974 1.67042017e-05
v -0.001445736965 0.007461032327 -0.0133883688
v -0.001441612417 -0.007884430431 -0.0133883688
v -0.001433362835 0.006894053571 -0.008009800687
v -0.001429543248 -0.007317443233 -0.008009796962
v -0.001350364764 -0.005478511885 -0.001996032894
v -0.00134830398 0.006618127372 -0.006406629458
v -0.001344632008 -0.007041471399 -0.006406622007
v -0.001255921437 0.004676239711 -0.001516427845
v -0.001253294409 -0.005099533912 -0.001516425982
v -0.001252833845 0.007484356 -0.0133883688
v -0.001248700578 -0.007907649798 -0.0133883688
v -0.001233771094 0.006297163811 -0.005004666746
v -0.001230272348 -0.006720449164 -0.005004666746
v -0.001167049515 0.004268083867 -0.001142602414
v -0.001164641348 -0.00469133057 -0.001142591238
v -0.001142309397 0.005081668176 -0.002059549093
v -0.00111463957 0.005936748028 -0.003821481019
v -0.001114080078 0.0001554671617 -5.919113755e-05
v -0.001111335005 -0.006359965861 -0.003821482882
v -0.001079104724 0.003835312702 -0.0008606016636
v -0.001076929155 -0.004258514236 -0.0008605998009
v -0.001008028281 0.005541724764 -0.002868078649
v -0.001004935824 -0.005964889046 -0.002868076786
v -0.000984895858 0.003382603085 -0.0006574708968
v -0.0009829645278 -0.003805753629 -0.0006574764848
v -0.0009451376973 -0.001353949279 -0.0001618880779
v -0.0009141311748 -0.005538872298 -0.002140671015
v -0.0008990523447 0.007523458702 -0.0133883688
v -0.0008948988802 -0.007946560309 -0.0133883688
v -0.0008773057489 0.002909089118 -0.000519534573
v -0.0008756287862 -0.00333218099 -0.0005195476115
v -0.0007740426809 0.005141184811 -0.002200823277
v -0.0007711664075 -0.005564220104 -0.002200830728
v -0.0007493312005 0.002410947956 -0.0004351958632
v -0.0007479218766 -0.002833972307 -0.0004351977259
v -0.0007354099071 -0.0002115060584 -0.0001630950719
v -0.0006409212947 0.004833371524 -0.001836100593
v -0.0006382104475 -0.005256333243 -0.001836098731
v -0.0005922775017 0.001890329324 -0.0003954526037
v -0.0005912710913 0.003568618471 -0.0008904282004
v -0.0005911475746 -0.002313266828 -0.0003954544663
v -0.0005892385961 -0.003991554811 -0.0008904207498
v -0.0005066617159 0.00450593108 -0.001549473032
v -0.0005041254917 -0.004928822484 -0.001549474895
v -0.0004890463315 -0.005623693898 -0.002345016226
v -0.0004771868698 0.001299489435 -0.0003537461162
v -0.0003864815226 0.001373616193 -0.0003945883363
v -0.0003856288968 -0.001796443219 -0.0003945827484
v -0.0003650167491 0.004156607349 -0.001330373809
v -0.00036266807 -0.004579425644 -0.001330370083
v -0.0002995186951 0.002700161567 -0.0006869006902
v -0.0002979523269 -0.003122942609 -0.0006868876517
v -0.000290629454 0.005247760244 -0.002471879125
v -0.0002876957878 -0.005670535698 -0.002471880987
v -0.0002136501716 0.003788613394 -0.001169130206
v -0.0002115000971 -0.004211346939 -0.001169126481
v -0.000208623358 0.00554837953 -0.002979494631
v -0.0002055269433 -0.005971108883 -0.002979483455
v -0.0001718344865 0.005732815393 -0.00336114876
v -0.0001686397009 -0.006155527983 -0.003361152485
v -0.0001499803038 0.005868363805 -0.003678439185
v -0.0001467119437 -0.006291060097 -0.003678439185
v -0.0001084741671 0.006224101089 -0.004637079313
v -0.0001050159335 -0.006646776892 -0.004637088627
v -9.848573245e-05 -0.00671836533 -0.004856372252
v -9.624438826e-05 0.006362546381 -0.005070799962
v -9.271095041e-05 -0.00678521613 -0.005070803687
v -7.931888103e-05 0.006571163569 -0.005808267742
v -7.567275316e-05 -0.006993822608 -0.005808267742
v -7.208867464e-05 0.006659004983 -0.006155220792
v -6.839679554e-05 -0.007081663091 -0.006155224517
v -5.051970948e-05 0.006883123569 -0.007171992213
v -4.670582712e-05 -0.007305769104 -0.007171988487
v -4.194735084e-05 0.006953040283 -0.007540063933
v -3.809703048e-05 -0.007375684421 -0.007540067658
v -1.102895476e-05 0.007143761643 -0.008710477501
v -7.077003829e-06 -0.007566387154 -0.008710484952
v 8.684932254e-06 0.00723441146 -0.009367521852
v 1.268682536e-05 -0.007657024864 -0.009367523715
v 2.969409192e-05 0.007622952375 -0.0133883688
v 3.390637632e-05 -0.008045551582 -0.0133883688
v 3.555475269e-05 0.004901006498 -0.002170467749
v 3.830145579e-05 -0.00532360826 -0.002170473337
v 4.553806502e-05 0.007366825041 -0.01046920754
v 4.961108789e-05 -0.007789421681 -0.0104692094
v 6.208394188e-05 0.004869152006 -0.002149414271
v 8.218811126e-05 -0.005270589929 -0.002135967836
v 0.000109569286 0.007530437462 -0.0121064093
v 0.000113731774 -0.007952997315 -0.01210640557
v 0.0001297219424 0.002999068151 -0.0009831767529
v 0.0001309520449 0.0005774390593 -0.0004854369909
v 0.0001313765533 -0.0009999890754 -0.0004854369909
v 0.0001314467518 -0.003421615897 -0.0009831823409
v 0.0001455665915 0.004037419945 -0.001500681043
v 0.0001478504273 -0.004459962103 -0.001500686631
v 0.0001516328775 0.007611285109 -0.01304116007
v 0.0001558377407 -0.00803381842 -0.01304116286
v 0.0001703206289 0.007638014213 -0.0133883688
v 0.0001745395679 -0.008060538125 -0.0133883688
v 0.0002160744043 0.001856007293 -0.0007099043578
v 0.0002171856468 -0.002278511965 -0.0007099043578
v 0.0002321885549 -0.005080255534 -0.002030821517
v 0.000314206176 0.005269433517 -0.002789041027
v 0.0003171522985 -0.005691885803 -0.002789044753
v 0.0004008917604 0.004425815918 -0.001931745559
v 0.00040338299 -0.004848219309 -0.00193175301
v 0.0004241162388 -0.008052838829 -0.0133883688
v 0.0004837545566 0.004308780335 -0.001890689135
v 0.0005303617496 0.007633535438 -0.0133883688
v 0.0005417615175 0.003309789492 -0.001331787556
v 0.0005434763734 0.005658081878 -0.003566628322
v 0.0005436531501 -0.003732119541 -0.001331793144
v 0.0005466316361 -0.006080405175 -0.003566626459
v 0.0005514190998 0.007120954018 -0.008582353592
v 0.0005627048376 0.002127133455 -0.0009335447103
v 0.0005639616284 -0.002549447439 -0.0009335447103
v 0.0006118318706 0.004122966115 -0.001835878938
v 0.0007289801142 0.006052190118 -0.004521790892
v 0.0007323459431 -0.006474417023 -0.00452179648
v 0.0007372546243 0.00751736635 -0.01192549709
v 0.0008126986941 -0.0002110918149 -0.0007187630981
v 0.0008128677291 0.003821140766 -0.00176981464
v 0.0008246647922 -0.00422855778 -0.001767203212
v 0.0008315555315 0.004839711968 -0.002609737217
v 0.0008342700894 -0.005261882528 -0.002609737217
v 0.0008407938731 0.002345310437 -0.001139122993
v 0.0008421680686 -0.002767476573 -0.001139122993
v 0.0008856139902 0.00642939625 -0.00565905869
v 0.0008891834732 -0.006851539802 -0.00565905869
v 0.0009381185664 0.003627387719 -0.001739215106
v 0.001025404463 0.006766960636 -0.006974682212
v 0.001027593231 0.001338541886 -0.0009742658585
v 0.001028426052 -0.001760607323 -0.0009742677212
v 0.001029155394 -0.007189030148 -0.006974678487
v 0.00115914132 0.007046322949 -0.008457949385
v 0.001163041772 -0.007468320749 -0.008457943797
v 0.001194331031 0.007613149493 -0.0133883688
v 0.001207778449 0.005270817928 -0.003433957696
v 0.001210724135 -0.005692782201 -0.003433957696
v 0.00129608807 -0.007692859828 -0.01006456465
v 0.001343935641 0.004279853456 -0.002481000498
v 0.001346350095 -0.004701753467 -0.00248099491
v 0.001366884186 -0.006707818102 -0.005594037473
v 0.001427596173 0.007451504149 -0.0117392065
v 0.001431713637 -0.007873357128 -0.01173921768
v 0.001441468718 0.00281398269 -0.001674447209
v 0.001443094952 -0.003235826589 -0.001674436033
v 0.001534991432 0.005696105451 -0.004408447072
v 0.001538164972 -0.006117900222 -0.004408454522
v 0.001567189465 -0.007053787209 -0.006892040372
v 0.001572384978 0.007586046204 -0.0133883688
v 0.00157394784 0.0005401032104 -0.001122232527
v 0.001574351802 -0.000961879181 -0.001122223213
v 0.001576574273 -0.00800781902 -0.0133883688
v 0.001751136151 0.006917229533 -0.008349070325
v 0.001766271482 -0.002692789159 -0.001665594056
v 0.00179938908 0.002212668682 -0.001666173339
v 0.001823503582 0.00609349474 -0.005537211895
v 0.001826891967 -0.006515130255 -0.005537210032
v 0.001835521834 0.004732593574 -0.003330977634
v 0.001838181226 -0.005154226761 -0.00333096832
v 0.00186792406 0.0035810798 -0.002401677892
v 0.001869962027 -0.004002693197 -0.002401676029
v 0.001907512877 0.007533597954 -0.0133883688
v 0.001912104606 -0.002444352343 -0.001670438796
v 0.002084339969 0.006443469931 -0.006820598617
v 0.002087916946 -0.006864967145 -0.006820589304
v 0.002110404894 0.007328160718 -0.01156629436
v 0.002174183493 -0.0002107258758 -0.001416485757
v 0.002267814707 0.005850827467 -0.005487442017
v 0.002271073055 -0.00627222503 -0.005487442017
v 0.002286071773 0.00516297124 -0.004318570718
v 0.002288961201 -0.005584359955 -0.004318563268
v 0.002327522263 0.006731014379 -0.008252799511
v 0.002331253258 -0.00715238307 -0.008252810687
v 0.002378898673 -0.001638534915 -0.001735258847
v 0.00239509996 0.001187678805 -0.001739300787
v 0.002414521994 0.002723904705 -0.002352040261
v 0.002416100702 -0.003145227063 -0.002352038398
v 0.002448964398 0.004025443603 -0.003252740949
v 0.0024512409 -0.004446744308 -0.003252746537
v 0.002459516212 -0.007851245254 -0.0133883688
v 0.00256276282 -0.00738198575 -0.009796835482
v 0.002570949378 0.0008809622668 -0.001788966358
v 0.002582322774 0.007415479193 -0.0133883688
v 0.002589050098 0.006199241296 -0.006757706404
v 0.002592495293 -0.006620467495 -0.006757702678
v 0.002698373515 0.005555458047 -0.00544209592
v 0.002701473888 -0.005976625573 -0.005442082882
v 0.002775298924 0.007379124472 -0.0133883688
v 0.002782986965 0.007143726252 -0.01140536088
v 0.002786939847 -0.007564847678 -0.01140535623
v 0.002787642181 0.0005005665298 -0.001873152331
v 0.00282716623 0.0004308257776 -0.00189191103
v 0.002827509423 -0.0008519247931 -0.001891922206
v 0.002888417221 0.006484996673 -0.008166203275
v 0.002892017481 -0.006906064082 -0.008166192099
v 0.002951131319 0.001751627453 -0.002347894013
v 0.00295218674 -0.002172661101 -0.0023478847
v 0.002992716967 -0.0005581170553 -0.001984499395
v 0.00300269865 0.004432210844 -0.004237122834
v 0.003005193896 -0.004853215389 -0.004237122834
v 0.003013439826 -0.0005209528899 -0.001997802407
v 0.003056420628 0.007309956514 -0.0133883688
v 0.003060462534 -0.007730930651 -0.0133883688
v 0.003061157069 0.003127635835 -0.003178769723
v 0.003062951961 -0.003548610577 -0.003178764135
v 0.003078893409 0.00589663969 -0.006699901074
v 0.00308217539 -0.006317605119 -0.006699904799
v 0.003175173537 -0.007134059299 -0.009679503739
v 0.003184385947 -0.0002104525822 -0.002121482044
v 0.003406549222 0.0007542224776 -0.002418465912
v 0.003407067503 -0.001175010257 -0.00241846405
v 0.003433997626 0.006176190596 -0.008085833862
v 0.003437429317 -0.006596963707 -0.008085846901
v 0.003442652174 0.006894602586 -0.01125497743
v 0.00344647083 -0.007315369643 -0.01125498023
v 0.003526619519 0.004793794971 -0.005349237472
v 0.003529311041 -0.005214517791 -0.005349228159
v 0.003558290307 -0.005953207932 -0.006643017754
v 0.00356170306 0.007155206428 -0.0133883688
v 0.003565661107 -0.007575910601 -0.0133883688
v 0.003573444788 0.0002681533806 -0.002476250753
v 0.003573701833 -0.0006888542557 -0.002476247028
v 0.003631187952 0.002076404548 -0.003123357892
v 0.003632417065 -0.002497075446 -0.003123357892
v 0.003691575606 -0.0002103168173 -0.002550456673
v 0.00369919592 0.003481973807 -0.004140757024
v 0.00370117987 -0.003902601398 -0.004140758887
v 0.003772054217 -0.006820096489 -0.009569777176
v 0.003796249681 0.00707419168 -0.0133883688
v 0.00380016397 -0.007494769551 -0.0133883688
v 0.003964471747 0.005801345833 -0.008007965982
v 0.003967703204 -0.006221834425 -0.008007960394
v 0.004019314307 0.005103644129 -0.006582854316
v 0.004022170673 -0.00552410385 -0.006582858041
v 0.004077299614 0.0009465909388 -0.003117537126
v 0.004077920807 -0.001367015735 -0.003117544577
v 0.004086714587 0.006577140332 -0.01111369021
v 0.004090362578 -0.006997565128 -0.01111368556
v 0.004197176197 -0.0002101823721 -0.003058623523
v 0.004216894158 0.0003693466133 -0.003129493445
v 0.004217205686 -0.0007896974857 -0.003129495308
v 0.004319883999 0.003787035734 -0.005230823532
v 0.004322033026 -0.00420733387 -0.005230827257
v 0.004327297793 0.002345765155 -0.004043087363
v 0.004328672192 -0.002766059799 -0.00404307805
v 0.00433841448 0.006853768692 -0.0133883688
v 0.004342215408 -0.007274053291 -0.0133883688
v 0.004352243501 -0.006436675176 -0.00946486555
v 0.004480057047 0.005357216258 -0.007928771898
v 0.004483048921 -0.005777430109 -0.007928781211
v 0.004528262855 0.006767353658 -0.0133883688
v 0.004532015989 -0.007187538254 -0.0133883688
v 0.004712497233 0.006187656574 -0.01097993553
v 0.004715935444 -0.006607742835 -0.01097994111
v 0.004792850814 0.00109460231 -0.003980031237
v 0.004793550936 -0.00151464701 -0.003980036825
v 0.004911068012 0.004043446068 -0.00643934682
v 0.004911480355 0.005560391262 -0.009361976758
v 0.004913354642 -0.004463427555 -0.00643934682
v 0.004914582125 -0.005980368092 -0.009361967444
v 0.004929146613 0.0004455086601 -0.003966433927
v 0.004929499817 -0.0008654782723 -0.003966432065
v 0.00498363527 -0.005260540493 -0.007844543085
v 0.005022222293 0.002569359174 -0.005100762472
v 0.005023715203 -0.002989278495 -0.00510077551
v 0.005099063641 0.00647001986 -0.0133883688
v 0.005102652726 -0.006889900299 -0.0133883688
v 0.005246665909 0.006384776131 -0.0133883688
v 0.005250208978 -0.006804576337 -0.0133883688
v 0.005306881969 0.001904328732 -0.005044804886
v 0.005308017251 -0.002324096946 -0.005044816062
v 0.005317319767 0.005722461414 -0.01085221954
v 0.005320508615 -0.006142223108 -0.01085221395
v 0.005445053917 -0.000209845007 -0.004570350051
v 0.00546238583 0.004252700281 -0.007754521444
v 0.005464783986 -0.004672384675 -0.007754521444
v 0.005528787733 0.001213757816 -0.005000885576
v 0.005529552815 -0.00163340391 -0.005000887439
v 0.005673049134 0.0005062248965 -0.004972396418
v 0.005673434236 -0.0009257915954 -0.004972392693
v 0.005690789432 0.002752927045 -0.006283827126
v 0.005692383391 -0.003172488505 -0.006283817813
v 0.005836392313 0.005999204962 -0.0133883688
v 0.005839729106 -0.006418686046 -0.0133883688
v 0.005898466916 0.005177918501 -0.01072901674
v 0.005901363795 -0.005597365409 -0.01072900556
v 0.005910711479 0.003603028978 -0.007663669065
v 0.005912759923 -0.004022470064 -0.007663676515
v 0.005944820776 0.005921657828 -0.0133883688
v 0.005948117013 -0.00634108046 -0.0133883688
v 0.005973948748 0.004420802608 -0.009153667837
v 0.006003643968 0.002045559377 -0.006215861067
v 0.006004856084 -0.002464955993 -0.006215857342
v 0.006245767348 0.001309694286 -0.006161499768
v 0.00624658505 -0.001728955511 -0.006161492318
v 0.006311161094 0.002901977772 -0.007577583194
v 0.006312832818 -0.003321206284 -0.007577583194
v 0.006402141997 0.0005548199115 -0.006125446409
v 0.006402552244 -0.0009740012174 -0.006125450134
v 0.006449316745 0.004555251595 -0.01061050035
v 0.006451877882 -0.00497440467 -0.01061049849
v 0.006542315306 0.005436767437 -0.0133883688
v 0.006545353792 -0.005855869476 -0.0133883688
v 0.006566901342 -0.0002095443456 -0.006302170455
v 0.006615286828 0.005373162504 -0.0133883688
v 0.006618290191 -0.005792226129 -0.0133883688
v 0.006648983457 0.002159946511 -0.007501773536
v 0.006650257506 -0.002578993415 -0.007501771674
v 0.006880815257 0.003021836194 -0.008958818391
v 0.006909164251 0.001387230383 -0.00744147785
v 0.006910023396 -0.001806135027 -0.007441474125
v 0.006955937599 0.003864773229 -0.01050008088
v 0.006958127604 -0.004283654358 -0.01050008088
v 0.007076507551 0.0005940459378 -0.007401645184
v 0.007076939684 -0.001012858789 -0.007401648909
v 0.007135810913 -0.0002093910009 -0.007387267426
v 0.007205570013 0.004783393212 -0.0133883688
v 0.007208254049 -0.00520213845 -0.0133883688
v 0.007238950697 0.002251956292 -0.008878203109
v 0.007240274106 -0.002670683985 -0.008878197521
v 0.007247193326 0.004739641435 -0.0133883688
v 0.007249853416 -0.005158364584 -0.0133883688
v 0.007403600612 0.003117794782 -0.01040146686
v 0.007405389217 -0.003536434466 -0.01040146872
v 0.007513543242 0.001449613977 -0.008815020323
v 0.007514434983 -0.001868193009 -0.008815020323
v 0.007619880722 -0.0002092599602 -0.008447162807
v 0.007689474733 0.0006256121851 -0.008773803711
v 0.007689924561 -0.001044100063 -0.008773792535
v 0.007777571329 0.002325632056 -0.01031840034
v 0.007778933854 -0.002744069177 -0.01031839848
v 0.007808902906 0.004051018608 -0.0133883688
v 0.007811189127 -0.004469443097 -0.0133883688
v 0.007824389844 0.004031392232 -0.0133883688
v 0.007826666511 -0.004449807119 -0.0133883688
v 0.008063078974 0.001499572216 -0.01025455259
v 0.008063996327 -0.001917860442 -0.0102545619
v 0.008225322309 0.003420496335 -0.0133883688
v 0.008227241411 -0.003838747581 -0.0133883688
v 0.008245327626 0.0006509097002 -0.01021357812
v 0.008245790494 -0.001069094782 -0.01021357067
v 0.008323953138 0.00325911949 -0.01336686127
v 0.008325817646 -0.00367726534 -0.01336685102
v 0.008325988573 0.003265465209 -0.0133883688
v 0.008327857443 -0.003683612922 -0.0133883688
v 0.008329577205 0.003259881924 -0.0133883688
v 0.008331444757 -0.003678025083 -0.0133883688
v 0.008543396485 -0.0002090155833 -0.01086345874
v 0.008716885583 0.002434137423 -0.01328321453
v 0.008718306315 -0.002852072328 -0.01328321826
v 0.008730064749 0.00246623883 -0.0133883688
v 0.008731502213 -0.00288416535 -0.0133883688
v 0.008744516379 0.002436996209 -0.0133883688
v 0.008745937644 -0.002854916033 -0.0133883688
v 0.00901434815 0.001573166373 -0.01322126854
v 0.009015304619 -0.00199094144 -0.01322127786
v 0.00904093335 0.001625153844 -0.0133883688
v 0.009041916366 -0.002042911632 -0.0133883688
v 0.009058262318 0.001576244095 -0.0133883688
v 0.009059218181 -0.001993995444 -0.0133883688
v 0.009202829213 0.0006881854206 -0.01318279933
v 0.009203311638 -0.0011058542 -0.01318280026
v 0.009243267009 0.0007524671345 -0.0133883688
v 0.009243783771 -0.001170114267 -0.0133883688
v 0.009256752181 0.0006901023004 -0.0133883688
v 0.009257235062 -0.001107742524 -0.0133883688
v 0.009268819005 -0.0002088191595 -0.01316958293
v 0.009271163108 0.000546011278 -0.0133883688
v 0.009271568801 -0.0009636447995 -0.0133883688
v 0.009329791848 -0.0002088028442 -0.0133883688
f 146 139 156
f 151 156 139
f 46 139 146
f 46 37 139
f 178 160 159
f 340 345 394
f 300 345 340
f 486 514 494
f 476 486 446
f 201 230 239
f 199 230 201
f 240 230 199
f 244 300 340
f 197 185 191
f 191 185 130
f 66 71 62
f 68 71 66
f 48 60 45
f 543 515 525
f 503 538 525
f 129 187 198
f 649 666 660
f 657 671 678
f 692 678 671
f 659 671 657
f 161 178 159
f 139 37 134
f 134 151 139
f 78 200 177
f 14 13 47
f 41 46 47
f 46 41 27
f 27 41 29
f 127 122 130
f 127 185 183
f 130 185 127
f 448 412 442
f 398 334 340
f 326 412 416
f 416 448 424
f 412 448 416
f 408 424 426
f 408 356 424
f 615 588 621
f 621 588 579
f 524 514 542
f 502 494 524
f 524 494 514
f 498 514 486
f 486 476 498
f 201 239 236
f 170 165 176
f 98 93 102
f 102 89 97
f 215 122 220
f 220 122 223
f 220 244 215
f 223 244 220
f 340 334 294
f 294 244 340
f 232 244 223
f 300 244 248
f 345 300 248
f 244 232 248
f 273 277 324
f 194 191 130
f 130 122 194
f 194 122 207
f 334 331 289
f 207 289 281
f 281 289 331
f 326 277 281
f 281 331 326
f 12 15 48
f 198 206 258
f 196 206 198
f 198 187 186
f 187 129 186
f 63 45 60
f 511 538 503
f 650 627 654
f 606 643 618
f 643 654 618
f 618 654 627
f 453 467 489
f 503 525 495
f 495 525 515
f 471 447 457
f 457 397 462
f 679 660 666
f 649 660 639
f 604 634 609
f 609 591 604
f 610 634 604
f 657 658 644
f 655 666 649
f 649 637 655
f 670 678 691
f 666 655 670
f 670 655 658
f 670 658 657
f 657 678 670
f 678 692 697
f 691 678 697
f 595 623 601
f 601 623 625
f 645 659 657
f 565 591 585
f 591 609 585
f 480 505 460
f 389 387 446
f 410 414 431
f 414 452 431
f 350 389 345
f 387 389 350
f 167 174 156
f 167 151 160
f 156 151 167
f 43 134 37
f 219 161 168
f 157 175 168
f 168 152 157
f 161 152 168
f 163 175 157
f 163 190 175
f 565 526 540
f 570 591 565
f 429 461 420
f 429 444 461
f 83 80 74
f 97 89 92
f 29 8 6
f 39 41 47
f 29 41 39
f 22 29 16
f 22 27 29
f 37 46 30
f 46 27 30
f 33 43 37
f 149 127 169
f 472 448 442
f 463 472 442
f 496 472 463
f 446 486 456
f 486 494 456
f 197 205 195
f 257 205 197
f 542 583 567
f 567 524 542
f 561 579 588
f 561 583 542
f 588 583 561
f 146 156 162
f 162 154 146
f 156 174 162
f 174 189 162
f 165 154 162
f 61 154 165
f 146 154 61
f 61 46 146
f 47 46 61
f 61 52 47
f 250 248 234
f 108 102 97
f 203 194 207
f 191 194 203
f 277 221 203
f 197 191 203
f 203 221 197
f 226 294 334
f 334 289 226
f 244 294 226
f 215 244 226
f 226 289 207
f 442 412 406
f 406 404 442
f 406 412 326
f 326 331 406
f 331 404 406
f 442 404 402
f 402 331 334
f 402 404 331
f 48 54 57
f 57 60 48
f 57 72 60
f 56 57 54
f 71 72 56
f 72 57 56
f 5 7 26
f 48 45 40
f 427 435 425
f 473 417 425
f 325 279 274
f 204 208 132
f 204 129 198
f 132 129 204
f 76 63 60
f 520 533 550
f 473 482 510
f 633 603 620
f 631 643 606
f 606 593 631
f 537 515 543
f 543 562 537
f 537 562 548
f 499 515 537
f 499 537 517
f 517 537 548
f 564 517 548
f 612 623 595
f 612 618 627
f 489 530 509
f 530 557 509
f 509 557 535
f 545 511 520
f 538 511 545
f 136 186 129
f 129 131 136
f 171 181 136
f 106 101 105
f 507 554 527
f 535 554 507
f 478 495 471
f 471 457 478
f 478 457 462
f 503 495 478
f 471 495 487
f 487 447 471
f 487 515 499
f 487 495 515
f 341 295 335
f 395 457 393
f 397 457 395
f 395 341 397
f 393 347 395
f 347 341 395
f 393 457 392
f 392 457 447
f 392 347 393
f 295 341 245
f 685 679 666
f 666 670 685
f 685 670 691
f 626 639 617
f 617 611 626
f 626 611 637
f 626 637 649
f 649 639 626
f 592 610 604
f 586 610 592
f 622 611 594
f 637 611 622
f 628 644 624
f 634 644 628
f 628 609 634
f 657 644 646
f 646 644 634
f 646 645 657
f 634 645 646
f 640 655 637
f 624 644 640
f 640 644 658
f 658 655 640
f 640 622 624
f 637 622 640
f 667 680 686
f 686 692 671
f 671 667 686
f 661 680 667
f 654 680 661
f 661 667 650
f 650 654 661
f 608 601 625
f 608 610 586
f 586 601 608
f 625 645 629
f 629 645 634
f 634 610 629
f 629 608 625
f 610 608 629
f 641 645 625
f 625 623 641
f 659 645 641
f 443 460 454
f 594 556 574
f 574 556 534
f 600 622 594
f 624 622 600
f 594 574 600
f 600 574 585
f 449 497 480
f 508 490 534
f 534 556 508
f 488 452 469
f 469 508 488
f 490 508 469
f 534 490 506
f 250 239 246
f 246 262 250
f 246 239 230
f 255 230 240
f 255 246 230
f 262 246 255
f 391 389 446
f 446 456 391
f 391 456 394
f 391 394 345
f 345 389 391
f 466 431 452
f 466 452 488
f 439 476 446
f 446 387 439
f 439 466 476
f 431 466 439
f 385 439 387
f 431 439 385
f 387 350 385
f 385 350 360
f 310 248 250
f 250 350 310
f 345 248 310
f 310 350 345
f 302 350 291
f 250 262 291
f 291 350 250
f 344 350 302
f 360 350 344
f 371 414 410
f 342 377 371
f 240 199 209
f 199 176 209
f 242 189 174
f 242 209 189
f 140 152 134
f 134 43 140
f 157 152 140
f 151 134 153
f 134 152 153
f 159 160 153
f 160 151 153
f 153 161 159
f 153 152 161
f 210 200 241
f 177 200 210
f 190 163 173
f 177 210 173
f 173 210 190
f 212 161 219
f 178 161 212
f 218 167 160
f 522 497 539
f 551 522 539
f 540 522 551
f 565 540 551
f 551 570 565
f 219 168 225
f 225 168 175
f 259 212 219
f 263 212 259
f 219 225 259
f 259 225 293
f 263 259 297
f 297 259 293
f 461 444 455
f 455 444 421
f 421 440 455
f 444 429 380
f 421 444 380
f 200 78 179
f 78 94 179
f 103 94 90
f 97 92 100
f 201 236 100
f 100 92 201
f 100 108 97
f 201 92 180
f 180 199 201
f 170 176 180
f 180 176 199
f 77 92 89
f 170 180 77
f 77 180 92
f 77 165 170
f 77 61 165
f 65 59 69
f 20 52 24
f 61 77 64
f 21 22 16
f 27 22 21
f 32 30 27
f 37 30 32
f 32 33 37
f 43 33 36
f 36 40 45
f 184 182 183
f 183 188 184
f 142 127 144
f 127 149 144
f 115 126 120
f 448 465 437
f 394 456 396
f 340 394 396
f 396 398 340
f 459 456 494
f 398 396 459
f 459 396 456
f 459 463 442
f 630 615 621
f 598 583 613
f 632 619 602
f 588 615 602
f 602 583 588
f 581 567 596
f 544 576 559
f 544 519 502
f 502 524 544
f 524 567 544
f 514 498 536
f 542 514 536
f 536 561 542
f 165 162 172
f 172 162 189
f 172 176 165
f 172 209 176
f 189 209 172
f 238 239 250
f 250 234 238
f 238 236 239
f 238 100 236
f 234 100 238
f 233 248 232
f 233 234 248
f 104 108 114
f 227 281 277
f 277 203 227
f 207 281 227
f 227 203 207
f 202 122 215
f 215 226 202
f 207 122 202
f 202 226 207
f 51 56 34
f 48 40 42
f 42 40 38
f 26 38 28
f 38 40 28
f 40 36 28
f 28 36 33
f 464 511 503
f 503 478 464
f 464 478 462
f 413 417 473
f 327 417 413
f 401 464 462
f 335 290 332
f 222 204 198
f 279 204 222
f 208 204 229
f 229 204 279
f 590 603 616
f 616 593 590
f 616 631 593
f 543 525 558
f 558 525 538
f 614 584 599
f 501 530 489
f 489 467 501
f 593 564 580
f 590 593 580
f 580 562 590
f 548 562 580
f 580 564 548
f 573 557 530
f 573 612 595
f 595 557 573
f 566 554 586
f 586 592 566
f 566 541 527
f 527 554 566
f 595 601 575
f 575 557 595
f 575 601 586
f 586 554 575
f 535 557 575
f 575 554 535
f 577 545 560
f 124 131 129
f 158 136 150
f 113 119 118
f 96 90 88
f 116 124 129
f 118 124 116
f 475 440 451
f 475 507 484
f 484 455 475
f 475 455 440
f 491 475 451
f 507 475 491
f 491 509 535
f 535 507 491
f 421 380 370
f 370 380 359
f 432 441 467
f 467 453 432
f 447 441 388
f 447 487 477
f 477 441 447
f 467 441 477
f 477 487 499
f 477 501 467
f 499 517 477
f 517 501 477
f 301 341 347
f 301 245 341
f 295 245 228
f 335 295 228
f 228 290 335
f 132 208 228
f 208 290 228
f 228 123 132
f 228 245 123
f 691 698 695
f 695 693 691
f 681 679 683
f 660 679 653
f 653 639 660
f 696 699 692
f 692 694 696
f 684 680 682
f 673 680 654
f 673 654 643
f 638 627 650
f 638 641 623
f 638 612 627
f 623 612 638
f 650 667 656
f 656 638 650
f 641 638 656
f 659 641 656
f 656 667 671
f 671 659 656
f 352 312 358
f 418 454 438
f 418 438 383
f 443 454 418
f 418 379 443
f 565 585 553
f 585 574 553
f 553 526 565
f 553 574 534
f 534 506 553
f 553 506 526
f 624 600 607
f 607 628 624
f 609 628 607
f 607 585 609
f 607 600 585
f 420 449 364
f 364 354 420
f 420 461 481
f 481 449 420
f 497 449 481
f 481 523 497
f 587 611 617
f 500 466 488
f 476 466 500
f 529 508 556
f 546 500 529
f 488 508 529
f 529 500 488
f 445 469 436
f 474 490 458
f 474 506 490
f 458 438 474
f 438 454 474
f 410 431 381
f 431 385 381
f 381 385 360
f 304 344 302
f 302 291 304
f 365 371 410
f 410 381 365
f 365 381 360
f 433 371 377
f 414 371 433
f 433 452 414
f 433 469 452
f 436 469 433
f 240 209 252
f 209 242 252
f 252 242 268
f 268 312 252
f 252 312 280
f 157 140 147
f 155 163 147
f 147 163 157
f 147 63 155
f 253 210 241
f 253 309 272
f 166 163 155
f 166 173 163
f 155 63 166
f 177 173 166
f 63 76 166
f 166 78 177
f 166 76 78
f 160 178 211
f 211 218 160
f 174 167 224
f 167 218 224
f 224 242 174
f 268 242 224
f 224 260 268
f 224 218 260
f 362 379 358
f 315 312 268
f 268 260 315
f 318 362 315
f 358 312 315
f 315 362 358
f 512 505 480
f 512 526 505
f 512 540 526
f 539 497 531
f 263 297 299
f 420 354 376
f 376 354 369
f 376 429 420
f 369 429 376
f 322 297 293
f 293 225 269
f 269 316 293
f 359 316 313
f 272 309 313
f 313 269 272
f 316 269 313
f 461 455 493
f 493 455 484
f 493 507 527
f 484 507 493
f 359 380 363
f 363 316 359
f 363 429 369
f 363 380 429
f 60 72 75
f 75 94 78
f 75 90 94
f 75 72 88
f 88 90 75
f 75 76 60
f 78 76 75
f 73 89 83
f 73 77 89
f 83 70 73
f 73 70 69
f 69 64 73
f 73 64 77
f 17 21 16
f 18 21 17
f 23 18 19
f 23 21 18
f 27 21 23
f 23 32 27
f 50 36 45
f 50 147 140
f 45 63 50
f 63 147 50
f 138 133 127
f 138 127 142
f 127 115 117
f 122 127 117
f 117 115 108
f 513 492 496
f 496 518 513
f 549 532 519
f 483 494 502
f 483 459 494
f 463 459 483
f 502 519 483
f 483 519 496
f 496 463 483
f 442 402 400
f 400 459 442
f 398 459 400
f 334 398 400
f 400 402 334
f 647 635 615
f 651 630 662
f 516 536 498
f 516 500 546
f 516 498 476
f 476 500 516
f 234 233 111
f 111 100 234
f 108 100 111
f 111 233 232
f 111 232 223
f 223 122 111
f 122 117 111
f 111 117 108
f 427 425 409
f 425 357 409
f 468 413 473
f 473 520 468
f 468 464 405
f 520 511 468
f 511 464 468
f 462 397 399
f 399 401 462
f 335 401 399
f 399 341 335
f 397 341 399
f 405 464 403
f 464 401 403
f 403 332 405
f 403 401 335
f 335 332 403
f 282 279 327
f 327 332 282
f 282 229 279
f 282 332 290
f 282 290 208
f 208 229 282
f 631 652 663
f 578 562 543
f 543 558 578
f 578 558 584
f 590 562 578
f 578 584 603
f 578 603 590
f 538 545 568
f 568 558 538
f 582 597 568
f 584 558 568
f 606 618 589
f 618 612 589
f 612 573 589
f 589 593 606
f 589 564 593
f 547 573 530
f 517 564 547
f 564 589 547
f 547 589 573
f 530 501 547
f 547 501 517
f 569 592 604
f 604 591 569
f 591 570 569
f 141 131 137
f 131 145 148
f 171 136 164
f 136 158 164
f 85 91 87
f 87 96 88
f 87 82 85
f 107 96 106
f 116 110 107
f 107 106 118
f 118 116 107
f 103 90 99
f 90 96 99
f 96 107 99
f 99 107 110
f 123 110 121
f 121 110 116
f 121 116 129
f 121 129 132
f 132 123 121
f 453 415 411
f 411 432 453
f 343 337 372
f 372 337 366
f 372 411 415
f 366 411 372
f 355 337 305
f 309 284 307
f 307 284 305
f 307 337 343
f 305 337 307
f 430 415 453
f 453 434 430
f 430 372 415
f 470 434 453
f 470 453 489
f 470 491 451
f 451 434 470
f 489 509 470
f 509 491 470
f 423 434 451
f 451 440 423
f 432 411 382
f 382 366 373
f 382 411 366
f 441 432 386
f 386 388 441
f 432 382 386
f 386 382 373
f 351 388 386
f 390 351 347
f 390 388 351
f 347 392 390
f 390 392 447
f 447 388 390
f 685 689 687
f 672 653 679
f 688 690 686
f 280 312 308
f 312 352 308
f 368 418 383
f 383 377 368
f 368 352 358
f 358 379 368
f 379 418 368
f 546 587 563
f 563 516 546
f 536 516 563
f 579 561 563
f 561 536 563
f 605 617 621
f 605 587 617
f 605 563 587
f 621 579 605
f 579 563 605
f 572 587 546
f 572 529 556
f 546 529 572
f 572 556 594
f 594 611 572
f 611 587 572
f 450 438 458
f 469 445 450
f 458 490 450
f 490 469 450
f 422 445 436
f 436 433 422
f 422 433 377
f 422 377 383
f 422 450 445
f 383 438 422
f 438 450 422
f 485 474 454
f 485 460 505
f 485 454 460
f 505 526 485
f 526 506 485
f 506 474 485
f 266 255 240
f 280 283 266
f 240 252 266
f 266 252 280
f 306 283 280
f 280 308 306
f 275 304 291
f 262 255 275
f 275 291 262
f 336 306 342
f 304 306 336
f 342 371 336
f 371 365 336
f 336 365 360
f 360 344 336
f 344 304 336
f 267 253 241
f 267 284 309
f 309 253 267
f 260 218 261
f 218 211 261
f 261 296 260
f 260 296 292
f 292 315 260
f 318 315 292
f 480 460 419
f 419 449 480
f 419 364 449
f 521 512 480
f 480 497 521
f 497 522 521
f 521 522 540
f 540 512 521
f 497 523 528
f 528 531 497
f 293 316 319
f 319 322 293
f 319 363 369
f 316 363 319
f 369 354 319
f 354 322 319
f 314 322 354
f 314 299 297
f 297 322 314
f 314 364 323
f 354 364 314
f 243 269 225
f 175 190 243
f 243 225 175
f 190 210 243
f 210 253 243
f 243 253 272
f 272 269 243
f 353 313 309
f 353 370 359
f 359 313 353
f 523 481 504
f 504 493 527
f 504 481 461
f 461 493 504
f 527 541 504
f 541 523 504
f 35 55 49
f 58 55 52
f 52 61 58
f 64 55 58
f 61 64 58
f 25 23 19
f 25 19 26
f 26 28 25
f 25 28 33
f 33 32 25
f 32 23 25
f 44 50 140
f 36 50 44
f 44 140 43
f 43 36 44
f 407 468 405
f 413 468 407
f 327 413 407
f 407 332 327
f 405 332 407
f 616 636 648
f 571 566 592
f 592 569 571
f 570 551 555
f 555 569 570
f 555 551 539
f 555 571 569
f 143 145 131
f 131 141 143
f 124 128 135
f 118 119 125
f 86 87 88
f 88 72 86
f 86 72 71
f 86 79 81
f 349 307 343
f 309 307 349
f 349 353 309
f 370 353 349
f 333 355 305
f 351 355 333
f 351 303 288
f 288 251 351
f 245 301 249
f 123 245 249
f 249 301 347
f 112 109 103
f 103 99 112
f 112 99 110
f 112 110 123
f 123 249 112
f 384 423 440
f 384 440 421
f 421 370 384
f 434 423 378
f 378 430 434
f 372 430 378
f 423 384 378
f 343 372 378
f 378 349 343
f 370 349 378
f 378 384 370
f 361 355 351
f 351 386 361
f 361 386 373
f 373 366 361
f 366 337 361
f 337 355 361
f 653 672 642
f 642 630 621
f 639 653 642
f 621 617 642
f 617 639 642
f 677 673 675
f 673 669 675
f 342 306 348
f 348 306 308
f 348 377 342
f 348 368 377
f 348 308 352
f 352 368 348
f 283 306 285
f 285 306 304
f 304 275 285
f 285 266 283
f 255 266 285
f 285 275 255
f 213 211 178
f 178 216 213
f 213 261 211
f 214 212 263
f 263 216 214
f 178 212 214
f 214 216 178
f 270 213 216
f 261 213 270
f 317 328 296
f 428 419 460
f 428 460 443
f 443 379 428
f 379 362 428
f 364 419 346
f 323 364 346
f 346 317 323
f 328 317 346
f 367 362 318
f 367 428 362
f 318 292 321
f 321 292 296
f 296 328 321
f 541 566 552
f 566 571 552
f 571 555 552
f 531 528 552
f 539 531 552
f 552 555 539
f 552 523 541
f 552 528 523
f 320 303 351
f 351 333 320
f 320 333 305
f 351 251 311
f 251 249 311
f 347 351 311
f 311 249 347
f 200 179 217
f 217 179 94
f 217 94 103
f 251 288 254
f 254 247 251
f 235 249 251
f 235 112 249
f 674 672 676
f 674 668 672
f 271 216 263
f 271 270 216
f 296 261 298
f 298 317 296
f 261 270 298
f 419 428 375
f 428 367 375
f 287 320 305
f 303 320 287
f 287 288 303
f 287 254 288
f 247 254 231
f 241 200 231
f 200 217 231
f 237 217 103
f 103 109 237
f 247 231 237
f 237 231 217
f 109 112 237
f 112 235 237
f 251 247 237
f 237 235 251
f 263 299 278
f 278 271 263
f 299 314 278
f 278 314 323
f 270 271 278
f 323 317 278
f 278 298 270
f 317 298 278
f 419 375 374
f 374 321 328
f 318 321 374
f 328 346 374
f 374 346 419
f 374 367 318
f 374 375 367
f 286 287 305
f 276 287 286
f 305 284 286
f 284 276 286
f 241 231 256
f 256 267 241
f 256 231 254
f 284 267 256
f 256 276 284
f 256 287 276
f 254 287 256
f 84 80 89
f 89 80 83
f 127 182 169
f 183 182 127
f 102 93 84
f 84 89 102
f 326 329 324
f 324 277 326
f 38 7 9
f 26 7 38
f 193 196 186
f 186 196 198
f 70 74 67
f 83 74 70
f 1 16 6
f 16 29 6
f 188 185 192
f 183 185 188
f 479 465 472
f 472 465 448
f 338 329 326
f 326 416 338
f 424 356 338
f 338 416 424
f 192 185 195
f 195 185 197
f 48 15 31
f 31 54 48
f 56 51 62
f 62 71 56
f 425 435 482
f 425 482 473
f 330 327 325
f 327 279 325
f 510 520 473
f 510 533 520
f 545 550 560
f 520 550 545
f 193 186 136
f 136 181 193
f 698 697 700
f 691 697 698
f 700 697 699
f 699 697 692
f 65 70 67
f 69 70 65
f 20 14 47
f 47 52 20
f 64 59 53
f 69 59 64
f 47 13 10
f 10 39 47
f 10 8 29
f 29 39 10
f 115 133 126
f 127 133 115
f 120 114 115
f 114 108 115
f 426 424 437
f 424 448 437
f 479 472 492
f 492 472 496
f 532 518 496
f 496 519 532
f 264 277 273
f 264 221 277
f 197 221 264
f 264 257 197
f 602 635 632
f 615 635 602
f 619 613 602
f 602 613 583
f 596 583 598
f 596 567 583
f 581 576 544
f 544 567 581
f 98 102 104
f 102 108 104
f 54 31 34
f 34 56 54
f 26 19 4
f 4 5 26
f 42 11 12
f 42 12 48
f 42 38 9
f 9 11 42
f 258 265 222
f 198 258 222
f 222 265 274
f 274 279 222
f 614 620 603
f 603 584 614
f 113 106 105
f 118 106 113
f 96 95 101
f 101 106 96
f 691 693 689
f 689 685 691
f 690 694 692
f 692 686 690
f 677 682 673
f 673 682 680
f 55 35 24
f 24 52 55
f 549 544 559
f 519 544 549
f 615 630 647
f 647 630 651
f 3 4 19
f 19 18 3
f 339 327 330
f 339 417 327
f 339 425 417
f 339 357 425
f 663 665 643
f 643 631 663
f 636 603 633
f 636 616 603
f 568 577 582
f 545 577 568
f 568 597 599
f 599 584 568
f 150 136 148
f 148 136 131
f 91 95 87
f 95 96 87
f 683 679 687
f 679 685 687
f 672 681 676
f 679 681 672
f 688 680 684
f 688 686 680
f 643 665 669
f 669 673 643
f 49 64 53
f 49 55 64
f 2 16 1
f 2 17 16
f 2 3 18
f 18 17 2
f 631 616 648
f 648 652 631
f 137 131 135
f 131 124 135
f 125 124 118
f 125 128 124
f 81 82 86
f 82 87 86
f 68 79 86
f 86 71 68
f 664 662 642
f 642 662 630
f 642 668 664
f 672 668 642
f 674 577 560
f 674 258 206
f 67 74 674
f 150 148 674
f 13 14 674
f 674 264 273
f 62 51 674
f 674 79 68
f 674 188 192
f 329 338 674
f 674 80 84
f 142 144 674
f 633 620 674
f 674 662 664
f 674 181 171
f 674 408 426
f 274 265 674
f 674 510 482
f 206 196 674
f 84 93 674
f 1 6 674
f 674 513 518
f 182 184 674
f 674 324 329
f 674 91 85
f 674 66 62
f 15 12 674
f 674 49 53
f 674 93 98
f 674 669 665
f 53 59 674
f 684 682 674
f 479 492 674
f 559 576 674
f 674 698 700
f 598 613 674
f 674 619 632
f 105 101 674
f 85 82 674
f 101 95 674
f 674 31 15
f 68 66 674
f 674 11 9
f 599 597 674
f 674 435 427
f 171 164 674
f 24 35 674
f 674 65 67
f 674 20 24
f 169 182 674
f 356 408 674
f 192 195 674
f 674 576 581
f 273 324 674
f 674 596 598
f 674 82 81
f 81 79 674
f 9 7 674
f 51 34 674
f 330 325 674
f 674 196 193
f 482 435 674
f 560 550 674
f 700 699 674
f 674 614 599
f 193 181 674
f 674 636 633
f 693 695 674
f 674 696 694
f 674 74 80
f 683 687 674
f 674 6 8
f 674 10 13
f 674 149 169
f 120 126 674
f 674 465 479
f 426 437 674
f 674 338 356
f 674 195 205
f 205 257 674
f 674 647 651
f 632 635 674
f 674 114 120
f 674 95 91
f 98 104 674
f 7 5 674
f 12 11 674
f 674 325 274
f 674 265 258
f 674 550 533
f 533 510 674
f 665 663 674
f 145 143 674
f 674 113 105
f 674 125 119
f 674 681 683
f 674 688 684
f 59 65 674
f 14 20 674
f 8 10 674
f 674 184 188
f 674 144 149
f 126 133 674
f 674 437 465
f 674 138 142
f 518 532 674
f 257 264 674
f 674 549 559
f 674 613 619
f 581 596 674
f 674 104 114
f 674 34 31
f 5 4 674
f 427 409 674
f 674 339 330
f 620 614 674
f 674 597 582
f 582 577 674
f 674 141 137
f 674 158 150
f 119 113 674
f 674 695 698
f 674 689 693
f 676 681 674
f 699 696 674
f 694 690 674
f 674 682 677
f 133 138 674
f 492 513 674
f 532 549 674
f 635 647 674
f 651 662 674
f 4 3 674
f 674 409 357
f 357 339 674
f 674 663 652
f 674 2 1
f 652 648 674
f 674 148 145
f 137 135 674
f 674 164 158
f 674 687 689
f 690 688 674
f 664 668 674
f 35 49 674
f 3 2 674
f 674 648 636
f 674 143 141
f 674 135 128
f 128 125 674
f 677 675 674
f 674 675 669
