v -0.01046617236 0.002949999645 -0.004129088484
v -0.01046617143 -0.004949999973 -0.004129086621
v -0.01046617143 0.004949999508 -0.004129083827
v -0.0104534952 0.004949999508 -0.004703319166
v -0.01045349427 -0.004949999973 -0.004703314509
v -0.01045349427 -0.002949999645 -0.004703317303
v -0.01026210748 -0.004949999973 -0.003592189401
v -0.01026210561 0.004949999973 -0.00359218684
v -0.01022593398 -0.004949999973 -0.005230683833
v -0.01022593398 -0.002949999645 -0.005230686627
v -0.01022593305 0.004949999508 -0.005230688956
v -0.009871219285 -0.004949999508 -0.003171348013
v -0.009871219285 0.004949999973 -0.003171345219
v -0.009816854261 0.002950000111 -0.005633868277
v -0.009816854261 0.004949999973 -0.005633864086
v -0.00981685333 -0.004949999973 -0.00563386688
v -0.00981685333 -0.002949999645 -0.005633869674
v -0.009286236949 -0.004949999973 -0.005853743292
v -0.009286236949 -0.002949999645 -0.005853746552
v -0.009286236018 0.004949999508 -0.005853748415
v -0.008711882867 0.002950000111 -0.005858088378
v -0.008711882867 0.004949999973 -0.005858084187
v -0.008711881936 -0.004949999973 -0.005858086515
v -0.001879807562 -0.004949999973 -0.004578868393
v -0.001879807562 -0.002949999645 -0.004578871187
v -0.001879807562 0.004949999973 -0.004578873049
v -0.001493601128 -0.00699999975 0.0001384039933
v -0.001493600663 0.007000000216 0.000138405856
v -0.001442737994 -0.00699999975 -0.0004104901745
v -0.001442737528 0.00699999975 -0.000410488341
v -0.001342744916 -0.00699999975 0.0006686104462
v -0.00134274445 0.007000000216 0.0006686123088
v -0.001288665459 -0.004949999973 -0.004430395085
v -0.001288664876 0.004949999508 -0.004430392291
v -0.001197025413 0.007000000216 -0.0009039501892
v -0.00119702518 -0.00699999975 -0.0009039446595
v -0.001049999963 -0.004621993285 0.005545391236
v -0.001049999963 0.004865625408 0.00510519417
v -0.00104999973 0.004254163709 0.005875429604
v -0.001049999613 -0.002500234405 0.006989335641
v -0.001049999497 -0.004254162312 0.00587543752
v -0.001049999497 0.002500228817 0.006989335641
v -0.001049999497 0.004621994216 0.005545382854
v -0.001049999264 -0.004865624942 0.005105207674
v -0.001010543201 0.00699999975 0.001108521712
v -0.001010542735 -0.00699999975 0.001108519733
v -0.0007896476891 -0.00699999975 -0.001275319722
v -0.0007896472234 0.00699999975 -0.00127531786
v -0.0007424471551 0.002949999878 -0.004221301991
v -0.0007424470386 -0.002950000111 -0.004221303388
v -0.0007005637162 -0.002949999645 -0.004202029202
v -0.0006030630902 0.002998789772 -0.004155824427
v -0.0005418622168 -0.00699999975 0.001398709835
v -0.0005418617511 0.00699999975 0.001398711698
v -0.0004083707172 0.004949999973 -0.004055188037
v -0.0004083704262 -0.004949999973 -0.004055190831
v -0.0004077754857 0.003071115585 -0.00405507395
v -0.0003766151785 0.003083031392 -0.00403797254
v -0.0003764254798 -0.00308342278 -0.004037091509
v -0.0002756241011 -0.00699999975 -0.001474456396
v -0.0002756236645 0.00699999975 -0.001474454533
v -1.386808071e-05 -0.003227814566 -0.003814770142
v 1.136397712e-10 -0.00699999975 0.00150000141
v 5.708322148e-10 0.006999999285 0.001500003273
v 9.387866885e-05 0.003271166235 -0.003741738852
v 0.0002756244503 0.007000000216 -0.001474457677
v 0.000275624654 -0.00699999975 -0.001474452089
v 0.000382906117 -0.003389029996 -0.003520324128
v 0.0003843229788 0.004949999973 -0.003519156249
v 0.0003843239101 -0.004949999973 -0.003519151593
v 0.0004944152897 0.002071435098 0.007261660881
v 0.0004944366519 -0.002071436262 0.007261665072
v 0.0005418625078 0.007000000216 0.001398709952
v 0.0005418626824 -0.00699999975 0.00139871554
v 0.0006518703303 -0.003494967939 -0.003282587975
v 0.000677670294 0.003505473258 -0.003256614553
v 0.0007896480965 -0.00699999975 -0.0012753224
v 0.0007896485622 0.007000000216 -0.001275320537
v 0.001010543783 -0.00699999975 0.001108517055
v 0.001010544249 0.006999999285 0.001108518918
v 0.001059387112 0.00364005845 -0.002843078692
v 0.001060382114 -0.004949999973 -0.002841927577
v 0.001060382696 0.004949999508 -0.002841925016
v 0.001143154688 -0.00366579392 -0.002737045288
v 0.001153126708 0.00366817927 -0.002725667786
v 0.001197026228 -0.00699999975 -0.0009039464639
v 0.001197026693 0.00699999975 -0.0009039446013
v 0.001342745498 0.00699999975 0.0006686089328
v 0.001342745731 -0.00699999975 0.0006686145207
v 0.001415838371 0.001790138893 0.007424131036
v 0.001415845007 -0.001790145529 0.007424127776
v 0.001442739042 -0.00699999975 -0.000410489185
v 0.001442739507 0.006999999285 -0.0004104873224
v 0.001493601245 -0.00699999975 0.0001384052448
v 0.001493601711 0.00699999975 0.0001384071074
v 0.001522799837 0.003744171467 -0.002175837755
v 0.001527658431 -0.0037461475 -0.002166270511
v 0.001595044043 -0.004949999973 -0.002048307098
v 0.001595044625 0.004949999508 -0.002048304304
v 0.001815806841 0.003723031376 -0.001586030819
v 0.001826052321 -0.003719521221 -0.001563230879
v 0.001968725119 0.004950000439 -0.001167357666
v 0.001968725352 -0.004949999973 -0.001167360344
v 0.001969480421 -0.003632661188 -0.001164838905
v 0.002004955895 0.003595236223 -0.001045247656
v 0.002012807643 -0.003585189581 -0.001018769573
v 0.002078215359 0.003476394108 -0.0007605563151
v 0.002078347839 -0.003476523096 -0.0007605702267
v 0.002120948629 0.003358512186 -0.0005514550139
v 0.002121847821 -0.003356408561 -0.0005470140022
v 0.002144371625 -0.003260845318 -0.0004106174456
v 0.002150679706 0.003225694643 -0.000366840075
v 0.002167737111 -0.004949999973 -0.0002313659206
v 0.00216773781 0.004949999973 -0.0002313633013
v 0.002177035902 -0.003014648566 -0.0001431402197
v 0.002179363044 0.00298700342 -0.000118559532
v 0.002187717007 0.002855248051 -1.45157419e-05
v 0.002194693312 0.002667873865 0.0001015074959
v 0.002196206711 -0.002591508674 0.0001384502975
v 0.002198793693 0.002418809803 0.0002072860952
v 0.002199316164 -0.002316785045 0.0002363322128
v 0.002199717797 0.001949999947 0.0002826224663
v 0.002199736657 -0.002122486243 0.0002724066435
v 0.002199999988 -0.004621993285 0.005545391236
v 0.002199999988 0.002071435796 0.007261655759
v 0.002199999988 0.004865625873 0.00510519417
v 0.002200000221 -0.002071437426 0.007261661813
v 0.002200000221 0.001496189507 0.007562396117
v 0.002200000221 0.004254163709 0.005875429604
v 0.002200000221 0.004949999973 0.0003357244714
v 0.002200000454 -0.004949999973 0.0003357217938
v 0.002200000454 -0.004254162312 0.00587543752
v 0.002200000454 0.004621994682 0.005545383319
v 0.002200000687 -0.004865624942 0.005105207674
v 0.002200000919 -0.004949999973 0.004609215539
v 0.002200000919 -0.001496197889 0.007562400773
v 0.002200000919 -0.0008750000852 0.002484462922
v 0.002200000919 0.004949999973 0.004609210882
f 42 8 40
f 135 136 134
f 136 132 134
f 41 40 12
f 13 8 42
f 42 40 72
f 41 132 72
f 72 40 41
f 94 131 135
f 135 134 94
f 135 131 137
f 124 134 132
f 134 124 63
f 41 12 37
f 37 63 124
f 127 132 136
f 127 72 132
f 138 128 136
f 133 128 138
f 30 4 28
f 11 4 30
f 92 86 98
f 44 37 12
f 28 4 3
f 3 4 1
f 136 72 91
f 91 127 136
f 72 127 91
f 129 128 133
f 130 138 137
f 130 137 131
f 64 43 133
f 1 4 5
f 10 4 11
f 11 17 10
f 61 66 22
f 11 30 35
f 35 15 11
f 48 15 35
f 35 30 28
f 66 61 35
f 35 61 48
f 98 86 82
f 89 94 134
f 134 79 89
f 134 63 74
f 74 79 134
f 46 44 12
f 128 129 125
f 133 43 39
f 39 129 133
f 39 13 42
f 39 43 13
f 138 130 95
f 130 114 95
f 8 13 45
f 31 46 7
f 7 46 12
f 7 12 40
f 7 40 8
f 8 3 7
f 24 23 25
f 16 17 19
f 6 5 4
f 4 10 6
f 14 17 11
f 11 15 14
f 20 61 22
f 20 15 48
f 48 61 20
f 20 14 15
f 19 17 20
f 17 14 20
f 59 62 56
f 21 20 22
f 21 23 19
f 19 20 21
f 98 101 103
f 103 92 98
f 70 82 86
f 56 62 70
f 29 5 9
f 23 24 67
f 44 46 53
f 63 37 53
f 37 44 53
f 128 125 90
f 136 128 90
f 113 103 108
f 92 103 113
f 94 92 113
f 131 94 113
f 93 95 114
f 43 64 54
f 31 7 2
f 1 5 2
f 2 7 3
f 2 3 1
f 47 16 18
f 19 23 18
f 18 16 19
f 22 66 26
f 26 21 22
f 25 23 26
f 23 21 26
f 65 70 62
f 62 59 58
f 58 65 62
f 55 65 58
f 57 55 58
f 56 57 58
f 58 59 56
f 82 70 75
f 99 98 96
f 98 82 97
f 82 84 97
f 97 96 98
f 85 84 82
f 85 97 84
f 96 97 85
f 36 29 9
f 9 16 36
f 36 16 47
f 56 70 77
f 77 70 86
f 33 67 24
f 33 77 67
f 56 77 33
f 33 50 56
f 33 24 25
f 25 26 33
f 33 49 50
f 71 72 136
f 136 90 71
f 42 72 71
f 71 90 125
f 71 125 129
f 71 39 42
f 129 39 71
f 110 113 108
f 120 118 130
f 117 114 130
f 130 118 117
f 115 113 114
f 55 78 69
f 69 65 55
f 69 75 70
f 87 93 99
f 87 69 78
f 87 78 95
f 95 93 87
f 43 54 38
f 38 54 45
f 13 43 38
f 38 45 13
f 45 54 32
f 8 45 32
f 28 3 32
f 32 3 8
f 31 2 27
f 5 29 27
f 27 2 5
f 47 18 60
f 23 67 60
f 60 18 23
f 34 26 66
f 66 78 34
f 34 78 55
f 55 49 34
f 34 33 26
f 49 33 34
f 52 55 57
f 52 49 55
f 52 57 56
f 99 93 102
f 102 93 114
f 102 103 101
f 102 104 103
f 104 102 105
f 81 82 76
f 82 75 76
f 75 69 76
f 113 110 111
f 123 130 131
f 114 117 116
f 116 115 114
f 117 115 116
f 73 54 64
f 73 80 88
f 73 32 54
f 73 88 95
f 95 78 73
f 88 80 126
f 133 138 126
f 80 73 126
f 138 95 126
f 95 88 126
f 126 64 133
f 126 73 64
f 70 65 68
f 68 69 70
f 65 69 68
f 83 87 99
f 69 87 83
f 81 76 83
f 83 76 69
f 99 96 83
f 96 85 83
f 83 82 81
f 83 85 82
f 50 49 51
f 49 52 51
f 56 50 51
f 51 52 56
f 99 102 100
f 100 102 101
f 100 98 99
f 100 101 98
f 103 104 106
f 104 105 106
f 108 103 106
f 107 102 114
f 107 105 102
f 108 106 107
f 107 106 105
f 114 113 112
f 113 111 112
f 122 120 130
f 130 123 122
f 118 120 119
f 119 117 118
f 119 115 117
f 131 113 119
f 113 115 119
f 109 110 108
f 108 107 109
f 109 111 110
f 109 112 111
f 109 107 114
f 114 112 109
f 121 119 120
f 120 122 121
f 121 122 123
f 121 123 131
f 131 119 121
f 37 124 132
f 37 132 41
f 135 137 138
f 138 136 135
f 16 10 17
f 9 10 16
f 6 10 9
f 9 5 6
f 60 92 94
f 60 74 63
f 60 46 31
f 86 92 60
f 94 89 60
f 60 77 86
f 60 89 79
f 79 74 60
f 60 36 47
f 63 53 60
f 31 27 60
f 60 53 46
f 29 36 60
f 67 77 60
f 60 27 29
f 66 35 73
f 73 35 28
f 73 78 66
f 28 32 73
