v -0.008237110919 -0.0004008034927 -0.01498998845
v -0.008237032388 -0.0004230394304 -0.01498998845
v -0.008236612263 -0.0004607426237 -0.01498998845
v -0.008234696086 -0.0005361086244 -0.01498998845
v -0.008226563892 -0.0006866209644 -0.01498998845
v -0.00820190568 9.203028634e-05 -0.01498998845
v -0.008191115984 -0.001180104641 -0.01498998845
v -0.008158461392 0.0006733183512 -0.01498998845
v -0.008157685629 -0.001479080567 -0.01498998845
v -0.008155037402 0.000704112516 -0.01498998845
v -0.008153310572 0.0007154421858 -0.01498998845
v -0.008147118773 -0.001545392977 -0.01498998845
v -0.008114881294 0.0009217373299 -0.01498998845
v -0.008112945862 -0.001723983558 -0.01498998845
v -0.008014392542 0.001399730351 -0.01498998845
v -0.008013936723 -0.002206581881 -0.01498998845
v -0.008000912494 -0.0006010456564 -0.001190081239
v -0.008000778384 -0.0006458050484 -0.001191485673
v -0.00799998024 -0.0007216806553 -0.001194279641
v -0.007996247499 -0.0008732629503 -0.001201551408
v -0.007985634147 -0.0006483667385 -0.001114640385
v -0.007984810858 -0.0007246865571 -0.001117480919
v -0.007981011993 -0.0008771378343 -0.001124862581
v -0.007980259485 -0.001175500292 -0.001222956926
v -0.007978103473 -0.0006001349684 -0.001097870991
v -0.00796480698 -0.001181114945 -0.001146646217
v -0.007942282013 -0.0005998439592 -0.00104871206
v -0.007940780721 -0.0007267320325 -0.001053065062
v -0.007936985581 -0.0008793206216 -0.00106052123
v -0.007935317701 0.001703575803 -0.01498998845
v -0.007924705906 -0.002547408476 -0.01498998845
v -0.00792442256 0.001739017599 -0.01498998845
v -0.007920817821 -0.001183598084 -0.001082556322
v -0.00791552139 -0.0005998453562 -0.001026371494
v -0.007915385417 0.0005682664778 -0.001291887835
v -0.007914414047 -0.001774245888 -0.001294864342
v -0.007911554887 0.0005939138791 -0.001296021044
v -0.007898125215 -0.001783907894 -0.001220017672
v -0.007895057439 0.0006035003898 -0.00122131221
v -0.007893659524 -0.001906462494 -0.001316787675
v -0.007877393975 -0.0006000472786 -0.001005521044
v -0.007876156247 -0.0007275936805 -0.001009296626
v -0.007872423506 -0.0008796202746 -0.001016777009
v -0.00785648392 -0.001182817752 -0.00103886798
v -0.007854306488 -0.001787599773 -0.001156885177
v -0.007852066658 0.0006072308606 -0.001157568768
v -0.007838709629 -0.0007275109092 -0.0009977500886
v -0.007835679105 -0.0006004924799 -0.0009931791574
v -0.007826804533 -0.002260956928 -0.001389224082
v -0.007826676941 0.001059222603 -0.001389309764
v -0.007800910971 -0.0006010407378 -0.0009899996221
v -0.007800003863 -0.0007270610804 -0.0009944345802
v -0.007796365186 -0.0008778722404 -0.001001847908
v -0.007790891803 -0.001785220593 -0.001113399863
v -0.007788427523 0.0006044551701 -0.001114491373
v -0.007787659182 -0.002373568263 -0.001341210678
v -0.00778077764 -0.001178700841 -0.001023726538
v -0.007773330831 -0.003008896188 -0.01498998845
v -0.007773290616 0.002198022648 -0.01498998845
v -0.007749779499 -0.001518188757 -0.00106038712
v -0.007744101225 -0.00237976831 -0.001279998571
v -0.007698226138 0.0006971792172 -0.001115739346
v -0.007686095661 -0.001971761943 -0.001131458208
v -0.007682249299 -0.002377074692 -0.001236991957
v -0.007673170767 0.001663302173 -0.001571599394
v -0.007653768524 -0.002931979267 -0.001597085968
v -0.007652210421 0.001733243567 -0.001598007977
v -0.00763807667 -0.002938358128 -0.00152441673
v -0.007631878718 0.001754016834 -0.001531591639
v -0.007607032652 0.00263663398 -0.01498998845
v -0.007594840019 -0.002948187772 -0.001466631889
v -0.007589271641 0.00176445859 -0.001473855227
v -0.007582842073 -0.003507401095 -0.01498998845
v -0.007550647832 -0.002621583422 -0.001294089481
v -0.007535188808 -0.002946721404 -0.001424852759
v -0.007529610186 0.001763067892 -0.001432631165
v -0.00747908873 -0.0006010404468 -0.0009899884462
v -0.007477311767 -0.0006516942376 -0.0009916108102
v -0.007467816002 -0.0007010405679 -0.0009934306145
v -0.007466647192 -0.002933587893 -0.00140574947
v -0.007461659028 0.001747659393 -0.001411965117
v -0.007448767661 -0.001014015594 -0.001010676846
v -0.007430555648 -0.003054891495 -0.001455804333
v -0.007418378606 0.0001735960977 -0.001043248922
v -0.007415850783 0.003063416608 -0.01498998845
v -0.0074114606 -0.003911504951 -0.01498998845
v -0.007409057929 0.002293443526 -0.001723732799
v -0.007369331485 0.003151816825 -0.01498998845
v -0.007365346304 -0.00170528052 -0.001086143777
v -0.007351956679 0.002293477053 -0.001684077084
v -0.0073357824 0.002593837431 -0.002038825303
v -0.007315950817 -0.0019699369 -0.001131247729
v -0.007308849061 -0.004108276546 -0.01498998845
v -0.007306765183 0.0008286795201 -0.001143133268
v -0.007292086608 -0.003893266679 -0.00210467726
v -0.007251967094 -0.003954927684 -0.002072453499
v -0.007250144496 -0.003581067329 -0.001721298322
v -0.007247109315 0.002764263176 -0.002078842372
v -0.007234045654 -0.002312127282 -0.001206407323
v -0.007209838717 -0.0039697881 -0.002023411915
v -0.007205463364 0.002779150367 -0.002029459924
v -0.007155405707 -0.003971264712 -0.001985514536
v -0.007152814767 0.001394240404 -0.001286124811
v -0.007151014521 0.002780157825 -0.001991681755
v -0.00712971079 0.003588934662 -0.01498998845
v -0.007103932439 0.002735458998 -0.001947158948
v -0.007094594068 -0.003958649249 -0.001963701099
v -0.007055108785 -0.004046401024 -0.002026047558
v -0.007047919906 -0.002860542634 -0.001376910135
v -0.006985197725 -0.004698991538 -0.01498998845
v -0.006970884628 0.001856667906 -0.001456905156
v -0.006964090629 -0.003054302666 -0.001454986632
v -0.00693615654 0.001929672886 -0.00148912333
v -0.006912327418 0.003972356875 -0.01498998845
v -0.006907614271 -0.004836811979 -0.01498998845
v -0.006809114828 0.003599163829 -0.002838224173
v -0.006804600707 -0.003373447355 -0.001606801525
v -0.006801436369 -0.00500690788 -0.01498998845
v -0.006799170165 -0.004557343214 -0.002433205023
v -0.006788841798 -0.004818258356 -0.002782907337
v -0.006783149554 0.003624469027 -0.002791417763
v -0.006757595926 -0.004884384587 -0.002922466025
v -0.006748555112 -0.004834292005 -0.002742262557
v -0.006743183243 0.003640897092 -0.002751041204
v -0.006699435762 -0.004837512985 -0.002708984539
v -0.006694188225 0.00364421423 -0.002718081698
v -0.006673109088 -0.005188682791 -0.01498998845
v -0.006672664752 0.004318485628 -0.01498998845
v -0.00665135344 0.002435935414 -0.001755541191
v -0.006587896845 -0.004924172084 -0.002786699682
v -0.006580687012 0.003733840756 -0.002798745409
v -0.006577487453 0.003739088759 -0.002804381773
v -0.006570355054 -0.005333795371 -0.01498998845
v -0.006547175697 -0.005186662092 -0.003198191524
v -0.00654341036 0.003990075071 -0.003206092864
v -0.006528390741 0.004522086468 -0.01498998845
v -0.006507898099 -0.005204217057 -0.003163918853
v -0.00650440983 0.004007731084 -0.003171885386
v -0.006500044721 -0.003872826943 -0.001905024052
v -0.006473383209 -0.005469326462 -0.01498998845
v -0.006469873272 0.00460325678 -0.01498998845
v -0.006461497745 -0.005209921874 -0.003134936094
v -0.006458100281 0.004013285026 -0.00314305909
v -0.00643815042 0.004149180822 -0.003508042544
v -0.006384824752 -0.005422423608 -0.003623286262
v -0.006382855005 -0.004043248497 -0.00202357769
v -0.006380311431 -0.005594087531 -0.01498998845
v -0.006323048729 -0.005493083983 -0.003669483587
v -0.006320116925 0.004294738625 -0.003677429631
v -0.006284735515 -0.005512470394 -0.003643427044
v -0.006282027694 0.00431419861 -0.003651503474
v -0.006240820861 -0.005521324012 -0.003620704636
v -0.00623821828 0.00432295537 -0.003628978506
v -0.006222969736 0.004276662119 -0.003531455994
v -0.006222294156 0.004900076352 -0.01498998845
v -0.006217462826 -0.005486700233 -0.003543918952
v -0.006192745408 -0.005819304319 -0.01498998845
v -0.006157653575 0.004975765948 -0.01498998845
v -0.006145097665 0.004522262592 -0.004305701703
v -0.006139477133 -0.005722966991 -0.004196234047
v -0.006137835211 0.004522752002 -0.004203246906
v -0.00610200956 -0.005743486356 -0.004178555682
v -0.006100557628 0.004543317002 -0.004185685888
v -0.006087722606 -0.00579249255 -0.00453459844
v -0.006077710327 -0.00595488363 -0.01498998845
v -0.006061900883 0.005085192488 -0.01498998845
v -0.006060018088 -0.005754697617 -0.004162799567
v -0.00605866441 0.004554443512 -0.004170069471
v -0.006056554033 -0.00449016226 -0.002374993637
v -0.006046902904 -0.005988523011 -0.01498998845
v -0.006039001863 -0.005849130932 -0.004771998152
v -0.006007943652 -0.00587762428 -0.004760401323
v -0.00600730523 0.004676186931 -0.0047660321
v -0.005971128936 -0.005898416523 -0.004749353975
v -0.00597066374 0.004696971722 -0.004755042493
v -0.005965866578 -0.006075424048 -0.01498998845
v -0.005965504995 0.005184563202 -0.01498998845
v -0.005954771652 -0.005832761075 -0.004396649078
v -0.005947827245 -0.004632516779 -0.002500658855
v -0.005939444876 -0.005961416769 -0.005488587543
v -0.005930408253 -0.005910715103 -0.00473937951
v -0.005930028739 0.004709152956 -0.004745149985
v -0.005904443566 -0.006138140117 -0.01498998845
v -0.005888048443 -0.005913747489 -0.004731029272
v -0.005872398964 -0.006028618212 -0.005933774635
v -0.005836310214 -0.006049024421 -0.005930185318
v -0.005800371873 -0.006015568986 -0.005372580141
v -0.005796776968 -0.006061609383 -0.005926884711
v -0.005785278506 0.005360706126 -0.01498998845
v -0.005768862218 -0.006268908032 -0.01498998845
v -0.005729966638 -0.006303680905 -0.01498998845
v -0.005715150642 0.005428259436 -0.01498998845
v -0.005667968537 -0.004985575113 -0.002853110433
v -0.005643859773 0.00549614141 -0.01498998845
v -0.005538173613 -0.006460170589 -0.01498998845
v -0.005514913577 0.005610113685 -0.01498998845
v -0.005454676353 -0.006516949175 -0.01498998845
v -0.005400020276 0.005707617365 -0.01498998845
v -0.005381377763 -0.005323451493 -0.003280339763
v -0.005322801533 -0.006603139714 -0.01498998845
v -0.005244789529 -0.005472313627 -0.00351860933
v -0.005127361394 -0.005590991597 -0.003745405003
v -0.005110737219 -0.006725721741 -0.01498998845
v -0.005089469983 -0.006737808907 -0.01498998845
v -0.004874132923 -0.005809177659 -0.004316108301
v -0.00485995702 -0.006851029855 -0.01498998845
v -0.004737950438 0.006257405494 -0.01498998845
v -0.004546123352 -0.006987503182 -0.01498998845
v -0.0042678806 -0.007093112703 -0.01498998845
v -0.004251042134 0.006644033992 -0.01498998845
v -0.004199720921 0.006678231168 -0.01498998845
v -0.004173708498 0.006565393865 -0.01332138292
v -0.004090168397 0.006327463299 -0.01073578931
v -0.004082034453 0.006722618038 -0.01498998845
v -0.004019134775 -0.007179636309 -0.01498998845
v -0.004013413333 -0.007181486297 -0.01498998845
v -0.004007126554 0.006184848942 -0.009463934228
v -0.003955424391 0.006767807636 -0.01498998845
v -0.003899926669 0.006614755825 -0.0126733128
v -0.003791613967 0.006826067532 -0.01498998845
v -0.003773691016 0.006446681437 -0.01079584472
v -0.003747232608 0.006203231853 -0.008941134438
v -0.003729062038 0.003361094263 -0.002230752259
v -0.003723812639 0.0005724202347 -0.001544144005
v -0.003723395406 -0.0009765016875 -0.001544132829
v -0.003720281995 0.0001869968401 -0.001535024494
v -0.003720072913 -0.0005910762557 -0.001535018906
v -0.003716054722 -0.0002020384296 -0.001533055678
v -0.003675149172 0.001330008017 -0.001603260636
v -0.003674324951 -0.001734062811 -0.001603268087
v -0.003645514487 0.006681845043 -0.01259497646
v -0.003530525486 0.002060774466 -0.001734497026
v -0.00352930685 -0.002464752193 -0.001734487712
v -0.003519175458 0.005970352315 -0.007276484743
v -0.003519146121 0.00650904233 -0.01073667966
v -0.003508892725 0.004464569953 -0.003176098689
v -0.003380682669 0.003946571131 -0.002620313317
v -0.003334045294 0.002749006948 -0.001943789423
v -0.00333245832 -0.003152878737 -0.001943791285
v -0.00329267222 0.005688806981 -0.005826273933
v -0.003273376147 0.004883496542 -0.003708811477
v -0.0031462115 0.005340896998 -0.004636362195
v -0.003140216577 0.005131233935 -0.004138698801
v -0.003133252244 0.007022436267 -0.01498998845
v -0.00311028061 0.003386340555 -0.002242032439
v -0.00309658132 0.004467094303 -0.003114376217
v -0.003092129505 -0.007451792903 -0.01498998845
v -0.003074951698 -0.007455931131 -0.01498998845
v -0.003042732113 0.007048550506 -0.01498998845
v -0.002964661806 -0.001782206135 -0.001724770293
v -0.002953713178 0.001722826375 -0.001768158749
v -0.002953575808 0.0007053554727 -0.001680558547
v -0.002924330882 0.004913983852 -0.003726335242
v -0.00291563326 -0.0008000873058 -0.001677338034
v -0.002896733466 0.003968228106 -0.002639379352
v -0.002894491307 -0.00437186427 -0.002639370039
v -0.002873002901 -0.003036595896 -0.001971958205
v -0.002848160337 -0.0002018053454 -0.001684106886
v -0.002845370793 0.002831899081 -0.002038490027
v -0.002821969683 3.407045733e-05 -0.001690175384
v -0.002745129608 0.007127839246 -0.01498998845
v -0.00274119032 -0.007531393248 -0.01498998845
v -0.002731966437 -0.003821551581 -0.00229999423
v -0.002730994835 0.004486897014 -0.003146419302
v -0.002720988472 0.006900407359 -0.01227246597
v -0.002717171214 -0.007303948529 -0.01227247063
v -0.002711097826 -0.0002017686244 -0.001712042838
v -0.002679113415 0.003667731289 -0.002447877079
v -0.002623375854 0.006701824241 -0.01044516079
v -0.002602418768 0.004013568148 -0.002698617056
v -0.002585180919 -0.004486951526 -0.002756886184
v -0.002531616599 0.004370109164 -0.003027986735
v -0.002451849519 0.006471790824 -0.008762700483
v -0.002264534007 0.001626037163 -0.001910993829
v -0.002263549832 -0.002029334093 -0.001910986379
v -0.002245854237 0.004985198364 -0.003853870556
v -0.002228473662 0.00620063486 -0.007257424295
v -0.002194199595 0.0008531747008 -0.00185995549
v -0.002193633583 -0.001256433679 -0.001859957352
v -0.002111427137 0.000488249163 -0.001859847456
v -0.002111056703 -0.0008914634964 -0.001859841868
v -0.001992677455 0.005876597002 -0.005949860439
v -0.001898505376 0.005013039321 -0.003919200972
v -0.001828683424 0.004603774738 -0.003365097567
v -0.001826100866 -0.005006837207 -0.00336509198
v -0.001795975608 0.00414590117 -0.002928143367
v -0.001793637522 -0.00454894641 -0.002928137779
v -0.001780446968 0.003645062898 -0.002596009523
v -0.001778379432 -0.004048098825 -0.002596013248
v -0.001778319594 0.005490179159 -0.004855295643
v -0.001763674314 0.00310286296 -0.002355530858
v -0.001761898049 -0.003505890505 -0.002355523407
v -0.001743210829 0.0003074945853 -0.001942325383
v -0.001729727606 0.002516582128 -0.002192856744
v -0.001728268224 -0.002919591512 -0.002192862332
v -0.001700593042 -0.0007384848577 -0.001954160631
v -0.00167118723 0.001870238906 -0.00209270604
v -0.001670073136 -0.002273217324 -0.002092691138
v -0.001630702201 0.007375313023 -0.01498998845
v -0.001626625189 -0.007778270037 -0.01498998845
v -0.001568704727 0.001193342832 -0.002045627683
v -0.001567955711 -0.00159626572 -0.002045635134
v -0.001484473585 -0.000201438758 -0.001996822655
v -0.001398213324 0.00713409482 -0.0118485
v -0.00139427057 -0.00753692539 -0.01184849907
v -0.001378941466 0.0005594141403 -0.002050504088
v -0.001376143285 0.007427794211 -0.01498998845
v -0.001372040945 -0.007830614003 -0.01498998845
v -0.001356427441 0.00690434406 -0.0100770276
v -0.001352607389 -0.007307152278 -0.01007701643
v -0.001270155306 0.006628420189 -0.008473910391
v -0.001268879394 -0.005468219999 -0.004063319415
v -0.00117407518 0.004686531131 -0.003583792597
v -0.001171446755 -0.005089241095 -0.003583781421
v -0.001154562808 0.006307456628 -0.007072035223
v -0.00108491967 0.00427837715 -0.003210023046
v -0.001082512201 -0.004681039616 -0.003210030496
v -0.001044754288 0.005094184991 -0.004132330418
v -0.001034535817 0.005947039448 -0.00588895008
v -0.001031231484 -0.006349674906 -0.005888948217
v -0.001031130902 0.0001657599787 -0.002126656473
v -0.0009967620717 0.003845605053 -0.002928100526
v -0.000994585338 -0.004248220488 -0.002928093076
v -0.0009272032185 0.005552018978 -0.004935620353
v -0.0009241098305 -0.005954595763 -0.004935622215
v -0.0009023996536 0.003392896833 -0.00272504054
v -0.0009004665771 -0.003795461511 -0.002725031227
v -0.000839707558 -0.001360876035 -0.00223804079
v -0.0008327557007 -0.005528579481 -0.004208277911
v -0.0007947046543 0.00291938147 -0.002587182447
v -0.000793027808 -0.003321887707 -0.002587186173
v -0.0006927128416 0.005151475765 -0.004268553108
v -0.0006898365682 -0.005553927287 -0.004268558696
v -0.0006801069845 -0.007913849068 -0.01498998845
v -0.0006666660774 0.002421241239 -0.00250293687
v -0.0006652564043 -0.00282367949 -0.002502933145
v -0.0006525401259 -0.0002012153712 -0.002230854705
v -0.0005593174137 0.004843661547 -0.003903931007
v -0.0005566041218 -0.005246041823 -0.003903921694
v -0.0005095817614 0.001900620977 -0.002463307232
v -0.0005089500919 0.003578909658 -0.002958295867
v -0.0005084524164 -0.002302974011 -0.00246331282
v -0.0005069187609 -0.003981262693 -0.002958290279
v -0.0004438451724 0.00126980721 -0.002399954945
v -0.0004248395562 0.004516223431 -0.003617396578
v -0.0004245055175 0.007540670081 -0.01498998845
v -0.0004223035648 -0.004918530132 -0.003617398441
v -0.0004206465092 -0.005610482316 -0.004405554384
v -0.0004203506522 -0.007942976732 -0.01498998845
v -0.0003037854331 0.001383907147 -0.002462599427
v -0.0003029321088 -0.001786150518 -0.002462595701
v -0.0002830291633 0.004166901097 -0.003398410976
v -0.0002806797856 -0.004569132361 -0.003398407251
v -0.0002170434454 0.002710455083 -0.002754984424
v -0.000215478125 -0.003112650957 -0.002754980698
v -0.0002095052041 0.005258051198 -0.004539968446
v -0.0002065717708 -0.005660242881 -0.004539970309
v -0.0001315411646 0.003798904814 -0.003237279132
v -0.0001293901587 -0.004201055053 -0.003237282857
v -0.0001247869805 -0.00596081886 -0.00504764542
v -0.0001234168885 0.005578926284 -0.005086505786
v -9.29273665e-05 0.005734305349 -0.005409736186
v -8.973758668e-05 -0.006136434167 -0.005409726873
v -6.976851728e-05 0.005878653828 -0.005746638402
v -6.650213618e-05 -0.006280770074 -0.00574664399
v -6.330781616e-05 0.005924611803 -0.005860405043
v -6.00151252e-05 -0.006326724324 -0.005860401317
v -2.898951061e-05 0.006234390647 -0.006705315784
v -2.552999649e-05 -0.006636485472 -0.006705312058
v -1.91652216e-05 -0.006708075307 -0.006924603134
v -1.873471774e-05 0.006352750104 -0.007073594257
v -1.521082595e-05 -0.006754838876 -0.007073588669
v -7.197959349e-07 0.006581454058 -0.007876528427
v 2.927030437e-06 -0.006983533051 -0.007876515388
v 6.248010322e-06 0.006669295937 -0.008223475888
v 9.940587915e-06 -0.00707137167 -0.008223487064
v 2.754037268e-05 0.006897855535 -0.009262779728
v 3.135600127e-05 -0.007299919162 -0.009262783453
v 4.225515295e-05 -0.007388704005 -0.009737806395
v 6.312015466e-05 0.00714215076 -0.01069776341
v 6.706744898e-05 -0.007544195294 -0.01069776341
v 6.932823453e-05 -0.007556094803 -0.01077877916
v 8.45923787e-05 0.007244702414 -0.01143583097
v 8.859421359e-05 -0.007646735772 -0.01143584028
v 0.0001196541707 -0.005313314978 -0.00423881039
v 0.0001214083168 -0.00776861982 -0.0124432845
v 0.0001597717637 0.004859619294 -0.004205156118
v 0.0001635648659 -0.005260299906 -0.004204344004
v 0.0001875652233 -0.007942709155 -0.01417480595
v 0.0002001057146 0.007575293988 -0.01456408948
v 0.0002042849082 -0.007977264948 -0.01456408855
v 0.0002119725686 0.003009359105 -0.003051584587
v 0.0002135802642 0.0005877316435 -0.002553835511
v 0.0002136966796 -0.003411324011 -0.003051580861
v 0.000214004016 -0.0009896971314 -0.002553841099
v 0.0002222596378 0.007608621842 -0.01498998845
v 0.0002264566379 -0.008010580856 -0.01498998845
v 0.0002274243161 0.004047712762 -0.003569111228
v 0.0002297079773 -0.004449669752 -0.003569109365
v 0.0002985316096 0.00186630011 -0.002778379247
v 0.0002996417461 -0.002268219847 -0.002778381109
v 0.0003052538377 -0.005080952324 -0.004104683176
v 0.0003950903774 0.005279727731 -0.004857590422
v 0.0003980376059 -0.005681594383 -0.004857581109
v 0.0004673758422 -0.008003293418 -0.01498998845
v 0.0004824242787 0.004436106407 -0.004000363871
v 0.0005653179251 0.004319071755 -0.003959363326
v 0.0005677466397 -0.004720847137 -0.003959374502
v 0.0006237467169 0.003320082309 -0.003400508314
v 0.0006237727066 0.005668372367 -0.00563534908
v 0.0006256408233 -0.003721826026 -0.003400508314
v 0.0006269264559 -0.006070116084 -0.005635347217
v 0.0006279203808 0.007131244041 -0.01065107062
v 0.00064499164 0.002137424643 -0.003002285957
v 0.0006462482561 -0.002539157882 -0.003002284095
v 0.0006788699768 0.007606443019 -0.01498998845
v 0.0007041805075 0.004117438089 -0.003900542855
v 0.0008085527661 0.006062481072 -0.006590662524
v 0.0008112253563 0.00752765451 -0.01399437338
v 0.000811918304 -0.006464125603 -0.006590656936
v 0.0008858803048 -0.004249571837 -0.003841727972
v 0.0008945231384 0.003831431721 -0.00383874774
v 0.0008951484051 -0.0002007992835 -0.002787688747
v 0.0009125732904 0.004850001525 -0.004678685218
v 0.0009152903367 -0.005251590643 -0.004678675905
v 0.0009229253774 0.002355602322 -0.003208067268
v 0.0009242991073 -0.002757185619 -0.003208072856
v 0.0009643278172 0.00643968767 -0.007728036493
v 0.0009678958522 -0.006841247916 -0.007728038356
v 0.001019795829 0.003637680071 -0.003808233887
v 0.001103121354 0.006777252522 -0.009043766186
v 0.001106873486 -0.007178738262 -0.009043758735
v 0.001109850429 0.001348832491 -0.003043351695
v 0.001110681995 -0.001750315671 -0.003043359146
v 0.001121482106 0.007592828329 -0.01498998845
v 0.001219731639 0.005906414226 -0.006531760097
v 0.001223013664 -0.006307837568 -0.006531754509
v 0.001235736068 0.00705661437 -0.01052713208
v 0.001239636927 -0.007458028398 -0.01052712277
v 0.0012881734 0.005281106554 -0.005503190681
v 0.00129111862 -0.005682493575 -0.005503194407
v 0.001346573001 -0.00351925382 -0.003758249804
v 0.001371466817 -0.007682570271 -0.01213385165
v 0.001425053168 0.00429014767 -0.004550321028
v 0.001427466748 -0.00469146065 -0.004550330341
v 0.001442152483 0.006296224412 -0.007663387805
v 0.001445645816 -0.006697527613 -0.007663391531
v 0.001501707913 0.007461793241 -0.01380860433
v 0.001505825348 -0.007863064777 -0.01380860619
v 0.001523197046 0.00282427574 -0.003743836656
v 0.001524821302 -0.0032255361 -0.003743845969
v 0.001604528038 0.007558166594 -0.01498998845
v 0.001608697807 -0.007959382891 -0.01498998845
v 0.001614649373 0.005706395474 -0.006477914751
v 0.001617824018 -0.006107606474 -0.006477918476
v 0.001641290379 0.006642302949 -0.008961541578
v 0.001644968113 -0.007043499048 -0.008961534128
v 0.001656092762 0.0005503969005 -0.003191726282
v 0.001656497421 -0.0009515863057 -0.003191728145
v 0.001827814092 0.006927520953 -0.01041870378
v 0.001831646136 -0.007328617401 -0.01041869633
v 0.001848005399 -0.002682499136 -0.003735234961
v 0.001902307558 0.006103784297 -0.007606903091
v 0.001905695652 -0.006504841163 -0.007606901228
v 0.001907278842 0.002178508541 -0.003736533225
v 0.001915997767 0.004742887788 -0.00540066883
v 0.001918653259 -0.005143937204 -0.005400678143
v 0.001949099242 0.003591370521 -0.004471408203
v 0.001951138023 -0.003992402475 -0.004471406341
v 0.001993834681 -0.002434059061 -0.003740193322
v 0.001998783555 -0.005863885875 -0.006430601701
v 0.00203286328 0.007491098993 -0.01498998845
v 0.002162173274 0.006453759488 -0.008890474215
v 0.002165749436 -0.006854676656 -0.008890479803
v 0.002184647252 0.007338447482 -0.01363620721
v 0.002240858253 -0.007847233578 -0.01498998845
v 0.002256104606 -0.0002004337046 -0.003486443311
v 0.002346656634 0.005861117956 -0.007557472214
v 0.002349913935 -0.006261935006 -0.007557475939
v 0.002365798689 0.005173263125 -0.006388606504
v 0.002368686022 -0.005574070397 -0.006388613954
v 0.002379305777 0.001367320408 -0.003787888214
v 0.002404271392 0.006741305799 -0.01032288186
v 0.002408003551 -0.007142092116 -0.01032287069
v 0.002447954263 -0.001650227365 -0.003802413121
v 0.002476777299 0.001197969876 -0.003809435293
v 0.002495736699 0.00273419822 -0.004422178492
v 0.002497313661 -0.003134936342 -0.004422178492
v 0.002529496094 0.004035733626 -0.005322910845
v 0.002531772712 -0.004436452888 -0.00532290712
v 0.002534185396 0.007403312004 -0.01498998845
v 0.002638344769 -0.007371696192 -0.01186707895
v 0.002664259868 0.0008708353707 -0.00386306271
v 0.002666931017 0.006209531319 -0.00882797502
v 0.002670376794 -0.006610177006 -0.008827969432
v 0.002677496079 0.007376302964 -0.01498998845
v 0.002777249785 0.005565749932 -0.007512448356
v 0.002780349343 -0.005966336015 -0.00751243718
v 0.002857350861 0.007154015344 -0.01347578131
v 0.002861302346 -0.007554558586 -0.01347578131
v 0.002869218355 0.0005108587648 -0.003943573684
v 0.002908728435 0.0004411145201 -0.003962364048
v 0.002909072442 -0.0008416311612 -0.003962369636
v 0.002965233172 0.006495289024 -0.0102366861
v 0.002968831686 -0.006895774524 -0.01023669541
v 0.003032349865 0.001761920503 -0.00441843085
v 0.003033403889 -0.00216237038 -0.004418434575
v 0.003064975196 0.007280933384 -0.01498998845
v 0.003068995033 -0.007681364859 -0.01498998845
v 0.003076873836 -0.0005430513556 -0.004056768492
v 0.003082486452 0.004442501799 -0.00630771555
v 0.00308498193 -0.004842923969 -0.006307709962
v 0.003141747206 0.003137927488 -0.005249386653
v 0.003143540933 -0.003538318459 -0.005249382928
v 0.003156817635 0.005906930179 -0.008770534769
v 0.003160100314 -0.006307311836 -0.008770544082
v 0.003199097584 -0.005614838112 -0.00746797584
v 0.003250844427 -0.007123767413 -0.01175021194
v 0.00326577446 -0.0002001621159 -0.004192201421
v 0.003450650525 0.007162779843 -0.01498998845
v 0.00345460631 -0.007563003867 -0.01498998845
v 0.003487712354 0.000764515702 -0.004489349201
v 0.003488231334 -0.001164720641 -0.004489358515
v 0.003510873416 0.006186480619 -0.01015675068
v 0.003514305805 -0.006586672287 -0.01015674137
v 0.003517129109 0.00690489354 -0.01332589332
v 0.00352094823 -0.007305081483 -0.01332589798
v 0.003605567967 0.004804087788 -0.00742020458
v 0.003608257161 -0.005204229165 -0.007420206442
v 0.003633169807 0.005542790503 -0.008714020252
v 0.003636258072 -0.005942916512 -0.008714007214
v 0.00365456345 0.0002784462558 -0.004547264427
v 0.003654822125 -0.0006785613805 -0.004547253251
v 0.003711818368 0.002086697365 -0.005194418132
v 0.003713047947 -0.002486782163 -0.005194412544
v 0.003772638622 -0.0002000260256 -0.004621552303
v 0.003779056133 0.003492262898 -0.006211863831
v 0.003781041014 -0.003892311142 -0.006211865693
v 0.00379165063 0.007044959642 -0.01498998845
v 0.003795543765 -0.007444999745 -0.01498998845
v 0.003847807297 -0.006809805069 -0.01164094359
v 0.004041406675 0.005811636787 -0.01007926278
v 0.004044637666 -0.00621154347 -0.01007926278
v 0.004097326077 0.005113934152 -0.008654212579
v 0.004100183374 -0.005513811033 -0.008654199541
v 0.004157932824 0.000956880147 -0.005188934505
v 0.004158554948 -0.001356725246 -0.005188932642
v 0.004161300021 0.006587431286 -0.013185082
v 0.004164948012 -0.006987273708 -0.0131850848
v 0.004214368299 0.006873051848 -0.01498998845
v 0.004218169459 -0.007272865031 -0.01498998845
v 0.004256388755 -0.0001998962038 -0.005107024685
v 0.004297519452 0.0003796380915 -0.005200998858
v 0.004297829815 -0.0007794079283 -0.005200996995
v 0.004398919991 0.003797328551 -0.007302395999
v 0.004401069251 -0.004197042916 -0.007302399725
v 0.004407231347 0.002356056575 -0.006114669144
v 0.004408606677 -0.002755766982 -0.006114659831
v 0.004428075976 -0.006426384687 -0.01153646503
v 0.004510242089 0.006738339011 -0.01498998845
v 0.004513971144 -0.007137993382 -0.01498998845
v 0.004557051347 0.005367507678 -0.01000047661
v 0.004560044617 -0.005767137292 -0.01000047475
v 0.004787182785 0.006197946132 -0.01305181254
v 0.004790620063 -0.006597452346 -0.01305181999
v 0.004872831865 0.001104893148 -0.006051972508
v 0.004873533384 -0.001504353611 -0.006051970646
v 0.004962936732 0.006502461399 -0.01498998845
v 0.004966537723 -0.006901873268 -0.01498998845
v 0.004989189212 0.004053738885 -0.008511368185
v 0.004990492132 -0.005970079001 -0.01143399719
v 0.004991475609 -0.004453136135 -0.008511366323
v 0.005009139539 0.0004558014771 -0.006038472056
v 0.005009491113 -0.0008551888895 -0.006038479507
v 0.005057979492 0.004850886748 -0.009916618466
v 0.005060694763 -0.005250246744 -0.009916609153
v 0.005101355375 0.002579650129 -0.00717288442
v 0.005102848285 -0.002978987541 -0.00717288442
v 0.005215514162 0.006356550309 -0.01498998845
v 0.005219036596 -0.006755825921 -0.01498998845
v 0.005386057892 0.001914618057 -0.007117128
v 0.005387194105 -0.002313802965 -0.007117133588
v 0.005392102641 0.005732751903 -0.01292454824
v 0.005395291024 -0.006131933085 -0.01292455383
v 0.005484194146 -0.0001995662431 -0.006587864831
v 0.005539510981 0.004262991235 -0.009826967493
v 0.005541910068 -0.004662092324 -0.009826958179
v 0.005607997184 0.001224048305 -0.007073380053
v 0.005608762731 -0.001623113654 -0.007073376328
v 0.005689847006 0.006046344709 -0.01498998845
v 0.005693202793 -0.006445365673 -0.01498998845
v 0.005752280471 0.0005165155017 -0.007044993341
v 0.005752663244 -0.0009155030275 -0.007045006379
v 0.005769029376 0.002763219862 -0.008356440812
v 0.005770620075 -0.003162198715 -0.008356442675
v 0.005901479855 0.00589494678 -0.01498998845
v 0.00590475537 -0.006293853688 -0.01498998845
v 0.005973342457 0.00518820899 -0.01280178223
v 0.00597623887 -0.00558707818 -0.01280177664
v 0.005987904617 0.003613316672 -0.009736452252
v 0.005989954458 -0.004012177946 -0.009736452252
v 0.006081933738 0.002055853125 -0.008288701996
v 0.006083146785 -0.002454663641 -0.008288707584
v 0.006324098562 0.001319985939 -0.008234536275
v 0.006324914866 -0.001718666652 -0.008234525099
v 0.006387814942 0.005500166888 -0.01498998845
v 0.00638841989 0.002912267562 -0.009650666267
v 0.006390093011 -0.003310913467 -0.009650669992
v 0.00639087631 -0.005898813222 -0.01498998845
v 0.006480500684 0.0005651112151 -0.008198594674
v 0.006480911863 -0.0009637076437 -0.008198596537
v 0.006524280761 0.004565541618 -0.01268369611
v 0.00652684283 -0.004964114181 -0.01268368773
v 0.00656139234 0.005348829525 -0.01498998845
v 0.006564373998 -0.005747382358 -0.01498998845
v 0.006589967874 -0.0001992688615 -0.008278673515
v 0.006726300926 0.002170238629 -0.009575108066
v 0.006727574044 -0.002568702927 -0.009575109929
v 0.006957030506 0.003032129709 -0.01103232242
v 0.006958767422 -0.003430469442 -0.01103232242
v 0.006986526889 0.001397521686 -0.009515011683
v 0.006987385103 -0.001795845586 -0.00951500982
v 0.0070309859 0.003875063252 -0.01257364824
v 0.007033176371 -0.004273362938 -0.01257364452
v 0.00704681459 0.004863700961 -0.01498998845
v 0.007049531011 -0.005261993572 -0.01498998845
v 0.00715389906 0.0006043353787 -0.009475320578
v 0.007154331659 -0.001002569756 -0.009475311264
v 0.007184822183 0.004718596252 -0.01498998845
v 0.007187462419 -0.00511681289 -0.01498998845
v 0.007315226016 0.00226224678 -0.01095199026
v 0.007316548959 -0.002660394894 -0.01095198654
v 0.007478723885 0.003128085504 -0.01247537602
v 0.007480511093 -0.003526145374 -0.01247538533
v 0.007589865592 0.001459902836 -0.01088901423
v 0.007590757334 -0.001857902171 -0.01088901795
v 0.007638298091 -0.0001989870257 -0.01038650237
v 0.007650905122 0.004147059937 -0.01498998845
v 0.007653243114 -0.004545026443 -0.01498998845
v 0.007755540215 0.004014423897 -0.01498998845
v 0.007757805958 -0.00441233476 -0.01498998845
v 0.00776582968 0.0006359047111 -0.01084791869
v 0.00776627718 -0.00103381068 -0.01084792987
v 0.007852756535 0.002335920217 -0.01239260007
v 0.007854119991 -0.002733778922 -0.01239258889
v 0.008138312143 0.001509862355 -0.01232896373
v 0.008139231359 -0.00190756809 -0.01232895907
v 0.008181813412 0.003364755405 -0.01498998845
v 0.008183725385 -0.003762438276 -0.01498998845
v 0.008257087453 0.003247899233 -0.01498998845
v 0.008258936918 -0.003645539797 -0.01498998845
v 0.00832059246 0.0006611989666 -0.0122881243
v 0.008321054396 -0.001058805981 -0.01228812151
v 0.008547078003 -0.0001987429948 -0.01273182966
v 0.008622395435 0.002531733019 -0.01498998845
v 0.008623862427 -0.002929178396 -0.01498998845
v 0.008673500745 0.002430957936 -0.01498998845
v 0.008674914806 -0.002828375597 -0.01498998845
v 0.00871064825 0.002330849653 -0.01498998845
v 0.008712008155 -0.002728247533 -0.01498998845
v 0.008989340915 0.001575855499 -0.01498998845
v 0.008990293991 -0.001973103122 -0.01498998845
v 0.009009237775 0.001489516422 -0.01498998845
v 0.009010144354 -0.001886752877 -0.01498998845
v 0.009189616241 0.0006951085279 -0.01498998845
v 0.009190100713 -0.001092248962 -0.01498998845
v 0.009198506495 0.0006032575714 -0.01498998845
v 0.009198941088 -0.001000397284 -0.01498998845
v 0.009261223999 -0.0001985510641 -0.01498998845
f 214 211 212
f 114 116 128
f 242 168 153
f 153 243 242
f 154 243 153
f 290 319 242
f 324 319 290
f 242 243 290
f 290 243 324
f 373 375 315
f 1 17 6
f 13 50 15
f 210 207 173
f 207 198 173
f 198 196 173
f 173 196 194
f 144 155 141
f 154 153 143
f 105 116 114
f 91 85 70
f 309 304 269
f 480 466 511
f 480 511 528
f 564 548 524
f 645 647 632
f 632 647 636
f 106 90 223
f 423 458 393
f 240 315 277
f 277 234 240
f 240 168 242
f 240 234 168
f 242 319 282
f 319 315 282
f 282 240 242
f 315 240 282
f 5 7 24
f 22 19 20
f 10 8 35
f 305 187 266
f 140 147 145
f 31 58 66
f 86 95 73
f 66 95 68
f 71 61 68
f 16 49 14
f 449 500 443
f 443 500 492
f 521 500 509
f 461 492 484
f 443 492 461
f 484 505 474
f 201 156 202
f 163 173 161
f 212 213 219
f 159 177 166
f 161 173 159
f 151 163 161
f 151 153 168
f 168 163 151
f 59 32 67
f 448 419 413
f 413 438 448
f 483 526 499
f 431 375 373
f 438 413 431
f 346 390 396
f 277 315 311
f 311 234 277
f 311 315 375
f 273 309 269
f 234 311 273
f 273 311 309
f 602 594 577
f 602 617 594
f 575 598 562
f 564 590 579
f 473 446 463
f 473 463 494
f 494 463 478
f 631 646 644
f 604 610 627
f 627 616 637
f 627 610 616
f 593 616 585
f 581 602 577
f 604 602 581
f 433 393 458
f 585 616 592
f 616 610 592
f 113 81 111
f 113 90 81
f 94 232 103
f 111 81 103
f 81 62 103
f 103 62 94
f 259 232 251
f 79 53 82
f 79 52 53
f 225 79 82
f 23 20 24
f 23 22 20
f 21 18 19
f 19 22 21
f 17 18 21
f 21 25 17
f 21 22 25
f 53 52 47
f 50 37 39
f 39 37 35
f 35 17 39
f 17 25 39
f 65 50 69
f 50 72 69
f 69 67 65
f 91 67 69
f 81 90 76
f 90 72 76
f 76 62 81
f 55 62 76
f 51 47 52
f 133 140 145
f 230 225 82
f 56 49 66
f 66 68 56
f 56 68 61
f 71 68 96
f 96 68 95
f 49 56 40
f 391 349 397
f 527 492 500
f 476 449 453
f 382 384 443
f 378 432 376
f 457 461 484
f 484 474 457
f 432 461 457
f 495 505 525
f 495 474 505
f 559 584 571
f 565 584 559
f 525 505 541
f 541 559 525
f 565 559 541
f 618 595 608
f 618 608 632
f 632 636 618
f 636 622 618
f 637 616 628
f 605 622 628
f 576 613 587
f 572 576 587
f 545 576 572
f 525 559 543
f 543 559 571
f 205 369 320
f 222 273 269
f 234 273 222
f 269 304 265
f 265 299 261
f 177 159 189
f 161 159 149
f 149 151 161
f 149 144 135
f 138 149 135
f 151 149 138
f 138 143 153
f 153 151 138
f 419 435 416
f 499 520 508
f 448 438 475
f 380 413 383
f 383 413 419
f 419 390 383
f 383 390 304
f 383 309 380
f 304 309 383
f 548 526 504
f 526 483 504
f 504 524 548
f 504 494 524
f 504 483 473
f 473 494 504
f 438 431 460
f 460 483 499
f 499 475 460
f 460 475 438
f 380 309 377
f 309 311 377
f 377 311 375
f 377 413 380
f 375 431 377
f 377 431 413
f 600 570 594
f 577 594 555
f 594 570 555
f 555 528 511
f 555 570 528
f 575 562 544
f 544 570 575
f 528 570 544
f 583 562 598
f 606 596 583
f 319 366 368
f 466 424 444
f 406 444 424
f 440 466 480
f 440 424 466
f 526 550 539
f 560 548 568
f 660 662 647
f 669 654 668
f 653 664 666
f 653 636 647
f 667 654 669
f 587 613 624
f 632 608 620
f 620 645 632
f 620 634 645
f 620 624 634
f 652 646 635
f 635 646 631
f 631 617 635
f 646 661 659
f 652 665 663
f 547 567 574
f 574 593 585
f 574 567 593
f 566 534 546
f 546 506 522
f 534 506 546
f 482 433 458
f 573 592 566
f 566 546 573
f 573 546 553
f 585 592 573
f 588 610 604
f 588 592 610
f 604 581 588
f 588 581 566
f 566 592 588
f 129 223 90
f 90 113 129
f 129 113 223
f 238 113 111
f 111 103 238
f 238 232 259
f 238 103 232
f 229 232 94
f 229 251 232
f 400 433 414
f 340 350 400
f 393 433 400
f 400 350 393
f 276 283 324
f 276 243 253
f 324 243 276
f 283 276 284
f 403 440 410
f 424 440 403
f 324 283 318
f 318 332 324
f 283 284 318
f 313 332 318
f 318 284 313
f 326 341 322
f 326 291 330
f 330 341 326
f 24 36 26
f 26 23 24
f 25 22 28
f 22 23 28
f 28 27 25
f 46 72 50
f 50 39 46
f 55 76 46
f 46 76 72
f 25 27 46
f 46 39 25
f 91 69 87
f 87 72 90
f 87 69 72
f 48 62 55
f 48 51 62
f 48 55 41
f 41 47 48
f 47 51 48
f 52 79 78
f 78 51 52
f 78 79 77
f 77 51 78
f 247 188 216
f 262 300 266
f 157 165 164
f 145 164 160
f 162 150 160
f 167 205 202
f 178 369 167
f 369 205 167
f 167 150 162
f 256 271 263
f 82 60 89
f 89 60 63
f 89 230 82
f 254 225 250
f 225 230 250
f 118 122 115
f 122 110 115
f 95 86 93
f 71 96 100
f 100 97 71
f 102 97 100
f 119 102 100
f 36 40 38
f 38 40 56
f 38 26 36
f 405 391 397
f 443 384 386
f 386 449 443
f 386 384 305
f 492 527 518
f 518 505 484
f 484 492 518
f 518 541 505
f 310 382 381
f 310 187 305
f 305 384 310
f 384 382 310
f 381 379 310
f 439 379 381
f 439 382 443
f 381 382 439
f 443 461 439
f 439 461 432
f 439 432 378
f 378 379 439
f 374 376 432
f 374 372 178
f 178 376 374
f 178 372 370
f 370 369 178
f 474 495 464
f 580 591 565
f 571 584 599
f 599 576 571
f 613 576 599
f 609 584 597
f 565 541 549
f 549 518 527
f 541 518 549
f 613 630 639
f 595 618 603
f 578 595 603
f 603 622 605
f 603 618 622
f 605 628 611
f 611 628 616
f 616 593 611
f 556 595 578
f 556 572 595
f 578 538 556
f 517 545 529
f 545 572 529
f 572 556 529
f 516 495 525
f 525 543 516
f 563 576 545
f 571 576 563
f 563 543 571
f 199 156 201
f 201 329 199
f 173 163 175
f 212 173 175
f 175 213 212
f 219 220 218
f 221 219 213
f 192 173 194
f 121 135 116
f 126 101 104
f 104 90 106
f 104 87 90
f 101 87 104
f 106 223 237
f 237 246 126
f 237 104 106
f 126 104 237
f 241 246 253
f 253 243 241
f 241 243 154
f 154 143 241
f 143 126 132
f 473 483 456
f 483 460 456
f 456 460 431
f 456 446 473
f 612 598 575
f 575 570 586
f 570 600 586
f 586 612 575
f 537 555 511
f 577 555 537
f 528 544 497
f 480 528 497
f 542 583 564
f 564 524 542
f 562 583 542
f 373 315 371
f 371 315 319
f 319 368 371
f 418 368 366
f 417 444 407
f 444 406 407
f 478 463 454
f 454 440 480
f 410 440 454
f 480 497 454
f 454 497 478
f 643 653 654
f 643 654 637
f 637 628 643
f 636 653 643
f 643 622 636
f 643 628 622
f 634 651 656
f 649 624 641
f 587 624 601
f 624 620 601
f 601 620 608
f 601 572 587
f 608 595 601
f 595 572 601
f 631 644 619
f 644 633 619
f 652 635 642
f 642 627 637
f 642 654 652
f 637 654 642
f 621 635 617
f 604 627 621
f 627 642 621
f 621 642 635
f 621 602 604
f 617 602 621
f 558 538 578
f 514 538 558
f 593 567 589
f 605 611 589
f 589 611 593
f 487 506 534
f 487 468 450
f 490 538 514
f 522 506 493
f 465 482 506
f 465 487 450
f 506 487 465
f 547 574 554
f 554 533 547
f 532 546 522
f 553 546 532
f 522 502 532
f 84 229 94
f 94 62 84
f 84 51 77
f 62 51 84
f 224 84 77
f 229 84 224
f 344 321 393
f 393 350 344
f 344 340 297
f 344 350 340
f 252 274 251
f 278 274 252
f 251 229 252
f 229 224 252
f 253 246 264
f 264 276 253
f 264 284 276
f 264 246 272
f 272 284 264
f 345 313 316
f 340 400 335
f 297 340 335
f 259 291 288
f 288 291 326
f 326 322 288
f 430 409 450
f 450 468 430
f 392 358 341
f 409 358 392
f 23 26 29
f 29 28 23
f 27 28 34
f 41 55 34
f 28 29 34
f 55 46 34
f 34 46 27
f 91 87 98
f 98 87 101
f 101 121 98
f 98 121 116
f 206 208 186
f 186 204 206
f 186 188 187
f 145 160 148
f 148 160 150
f 148 134 145
f 152 202 156
f 152 167 202
f 150 167 152
f 119 100 123
f 108 102 119
f 57 44 60
f 82 53 57
f 57 60 82
f 298 328 302
f 302 328 296
f 254 250 279
f 279 302 296
f 63 64 74
f 83 97 117
f 45 56 61
f 45 38 56
f 61 64 45
f 389 391 449
f 449 386 389
f 389 386 305
f 540 551 527
f 187 310 181
f 178 167 181
f 181 167 162
f 369 370 429
f 432 457 429
f 429 370 372
f 429 374 432
f 372 374 429
f 479 464 495
f 495 516 479
f 569 549 561
f 531 545 517
f 531 516 543
f 531 563 545
f 543 563 531
f 156 199 142
f 142 152 156
f 130 142 193
f 193 142 199
f 271 193 285
f 285 193 199
f 213 175 217
f 217 175 222
f 217 221 213
f 222 221 217
f 182 163 168
f 182 175 163
f 168 234 182
f 234 222 182
f 222 175 182
f 244 220 219
f 219 221 231
f 231 221 265
f 269 265 235
f 265 221 235
f 235 222 269
f 235 221 222
f 124 101 126
f 124 121 101
f 124 126 143
f 143 138 124
f 124 138 135
f 135 121 124
f 272 246 255
f 246 237 255
f 236 241 143
f 246 241 236
f 143 132 236
f 236 132 246
f 126 246 131
f 131 132 126
f 246 132 131
f 491 475 496
f 491 472 475
f 625 614 598
f 629 612 638
f 623 619 633
f 600 619 623
f 623 586 600
f 612 586 623
f 489 537 511
f 489 511 466
f 466 444 489
f 489 444 468
f 577 537 557
f 557 581 577
f 566 581 557
f 557 534 566
f 515 494 478
f 478 497 515
f 524 494 515
f 515 542 524
f 428 418 446
f 428 371 368
f 368 418 428
f 446 456 428
f 428 456 431
f 428 431 373
f 373 371 428
f 436 418 410
f 410 454 436
f 436 454 463
f 436 463 446
f 446 418 436
f 655 650 633
f 607 617 631
f 631 619 607
f 607 619 600
f 594 617 607
f 607 600 594
f 535 567 547
f 535 558 567
f 547 507 535
f 514 558 535
f 578 603 582
f 582 558 578
f 582 603 605
f 605 589 582
f 567 558 582
f 582 589 567
f 538 490 512
f 512 556 538
f 512 529 556
f 512 490 467
f 486 482 458
f 458 493 486
f 506 482 486
f 486 493 506
f 501 502 522
f 522 493 501
f 501 493 458
f 585 573 552
f 552 573 553
f 552 574 585
f 552 554 574
f 519 532 502
f 301 344 297
f 297 274 301
f 301 274 278
f 395 459 423
f 321 293 303
f 278 252 280
f 280 293 278
f 361 403 410
f 361 356 403
f 324 332 361
f 332 356 361
f 403 356 387
f 345 406 387
f 387 406 424
f 424 403 387
f 354 400 414
f 354 335 400
f 414 392 354
f 330 335 354
f 341 330 354
f 354 392 341
f 297 335 294
f 294 291 259
f 294 330 291
f 294 335 330
f 259 251 294
f 294 274 297
f 251 274 294
f 259 288 245
f 245 288 268
f 245 238 259
f 223 113 245
f 113 238 245
f 268 255 245
f 245 237 223
f 245 255 237
f 268 288 286
f 322 316 286
f 286 288 322
f 286 284 272
f 313 284 286
f 286 316 313
f 417 407 398
f 398 407 406
f 398 358 409
f 426 465 450
f 450 409 426
f 409 392 426
f 426 392 414
f 414 433 426
f 433 482 426
f 482 465 426
f 41 34 42
f 42 47 41
f 215 186 209
f 209 186 208
f 122 134 120
f 134 123 120
f 95 122 120
f 120 96 95
f 120 100 96
f 120 123 100
f 146 256 263
f 320 369 367
f 367 205 320
f 202 205 367
f 201 202 360
f 467 490 445
f 292 257 263
f 295 257 292
f 298 302 275
f 275 295 298
f 275 279 250
f 302 279 275
f 275 257 295
f 254 279 281
f 281 279 296
f 296 303 281
f 63 74 99
f 99 74 109
f 109 257 99
f 112 83 117
f 109 74 80
f 80 112 109
f 83 112 80
f 71 97 75
f 97 83 75
f 83 80 75
f 75 80 74
f 75 74 64
f 75 61 71
f 75 64 61
f 233 250 230
f 233 99 257
f 233 275 250
f 257 275 233
f 54 64 63
f 54 45 64
f 63 60 54
f 60 44 54
f 26 38 33
f 38 45 33
f 33 29 26
f 33 54 44
f 45 54 33
f 184 310 379
f 184 181 310
f 184 379 378
f 378 376 184
f 184 376 178
f 178 181 184
f 599 615 626
f 498 479 516
f 516 531 498
f 498 531 517
f 125 142 130
f 123 142 125
f 125 130 119
f 119 123 125
f 137 123 134
f 137 142 123
f 137 148 150
f 134 148 137
f 150 152 137
f 152 142 137
f 312 199 329
f 329 285 312
f 312 285 199
f 271 285 287
f 640 623 648
f 468 487 513
f 513 489 468
f 513 487 534
f 537 489 513
f 534 557 513
f 513 557 537
f 530 497 544
f 530 515 497
f 542 515 530
f 530 544 562
f 562 542 530
f 533 554 536
f 554 552 536
f 536 519 533
f 532 519 536
f 553 532 536
f 536 552 553
f 477 519 502
f 477 501 458
f 502 501 477
f 477 458 423
f 423 459 477
f 523 485 507
f 523 507 547
f 547 533 523
f 227 225 254
f 227 228 77
f 77 79 227
f 79 225 227
f 258 227 254
f 228 227 258
f 321 344 306
f 344 301 306
f 306 293 321
f 278 293 306
f 306 301 278
f 328 395 337
f 296 328 337
f 337 303 296
f 321 303 337
f 393 321 337
f 423 393 337
f 337 395 423
f 362 361 410
f 410 418 362
f 324 361 362
f 345 387 338
f 338 387 356
f 338 313 345
f 338 332 313
f 338 356 332
f 272 255 270
f 270 286 272
f 270 255 268
f 268 286 270
f 417 398 422
f 422 444 417
f 409 430 422
f 422 398 409
f 468 444 422
f 422 430 468
f 352 406 345
f 352 398 406
f 358 398 352
f 345 316 352
f 352 316 322
f 352 322 341
f 341 358 352
f 43 34 29
f 43 42 34
f 43 33 44
f 29 33 43
f 47 42 43
f 53 47 43
f 43 57 53
f 44 57 43
f 203 185 200
f 200 185 197
f 197 185 195
f 195 185 191
f 180 183 190
f 263 117 139
f 139 146 263
f 117 97 139
f 271 256 169
f 256 146 169
f 169 108 119
f 169 146 108
f 365 363 202
f 202 367 365
f 202 363 325
f 325 360 202
f 363 360 325
f 333 329 201
f 201 360 333
f 469 490 514
f 469 445 490
f 92 89 63
f 63 99 92
f 99 233 92
f 230 89 92
f 92 233 230
f 263 257 239
f 239 117 263
f 239 112 117
f 239 257 109
f 109 112 239
f 289 292 263
f 263 271 289
f 271 287 289
f 485 523 503
f 459 485 503
f 503 477 459
f 503 523 533
f 507 485 470
f 293 280 267
f 267 303 293
f 267 281 303
f 254 281 267
f 267 258 254
f 226 224 77
f 77 228 226
f 226 252 224
f 298 295 336
f 364 418 366
f 364 362 418
f 324 362 364
f 364 319 324
f 364 366 319
f 171 170 176
f 108 146 107
f 146 139 107
f 107 139 97
f 107 97 102
f 102 108 107
f 179 193 271
f 271 169 179
f 179 169 119
f 119 130 179
f 130 193 179
f 420 365 367
f 369 429 420
f 420 367 369
f 363 365 420
f 467 445 425
f 425 445 408
f 481 498 517
f 481 512 467
f 517 529 481
f 529 512 481
f 360 404 357
f 507 470 488
f 488 469 514
f 514 535 488
f 488 535 507
f 323 289 287
f 533 519 510
f 510 503 533
f 519 477 510
f 477 503 510
f 260 280 252
f 260 267 280
f 258 267 260
f 252 226 260
f 228 258 260
f 260 226 228
f 355 415 401
f 401 336 355
f 427 411 451
f 295 292 331
f 331 336 295
f 355 336 331
f 342 328 298
f 298 336 342
f 336 401 342
f 408 445 421
f 445 469 421
f 172 171 180
f 172 180 185
f 162 160 172
f 164 171 172
f 172 160 164
f 447 420 429
f 447 429 457
f 447 457 474
f 474 464 447
f 437 447 464
f 420 447 437
f 314 287 285
f 314 285 329
f 329 333 314
f 333 339 314
f 441 425 404
f 467 425 441
f 441 481 467
f 348 339 333
f 348 357 339
f 348 333 360
f 360 357 348
f 434 470 485
f 434 427 470
f 434 485 459
f 415 427 434
f 434 401 415
f 459 395 434
f 395 401 434
f 462 427 451
f 470 427 462
f 451 488 462
f 462 488 470
f 411 427 394
f 394 415 355
f 394 427 415
f 327 331 292
f 292 289 327
f 289 323 327
f 351 395 328
f 328 342 351
f 351 401 395
f 351 342 401
f 442 421 469
f 442 488 451
f 469 488 442
f 451 411 442
f 411 421 442
f 174 186 187
f 187 181 174
f 174 185 186
f 174 172 185
f 174 181 162
f 162 172 174
f 464 479 455
f 455 437 464
f 287 314 317
f 317 323 287
f 317 353 323
f 402 425 408
f 402 388 425
f 404 425 385
f 425 388 385
f 385 357 404
f 339 357 385
f 412 441 404
f 412 404 360
f 437 455 412
f 412 455 441
f 412 360 363
f 363 420 412
f 420 437 412
f 399 421 411
f 408 421 399
f 399 402 408
f 353 402 399
f 481 441 471
f 441 455 471
f 498 481 471
f 479 498 471
f 471 455 479
f 347 314 339
f 347 317 314
f 353 317 347
f 339 385 347
f 347 385 388
f 388 402 347
f 347 402 353
f 411 394 359
f 359 399 411
f 353 399 359
f 343 359 394
f 331 327 343
f 343 327 323
f 355 331 343
f 343 394 355
f 323 353 343
f 353 359 343
f 6 17 35
f 35 8 6
f 65 30 15
f 15 50 65
f 95 58 73
f 66 58 95
f 173 211 210
f 173 212 211
f 136 144 141
f 135 144 136
f 116 135 136
f 136 128 116
f 11 10 37
f 37 10 35
f 13 11 37
f 37 50 13
f 31 49 16
f 66 49 31
f 36 7 9
f 24 7 36
f 70 59 67
f 67 91 70
f 67 30 65
f 67 32 30
f 435 419 448
f 448 452 435
f 307 304 346
f 304 390 346
f 579 548 564
f 568 548 579
f 24 20 4
f 4 5 24
f 300 308 305
f 305 266 300
f 500 449 476
f 476 509 500
f 307 299 265
f 265 304 307
f 396 390 416
f 416 390 419
f 475 508 496
f 499 508 475
f 583 596 590
f 583 590 564
f 539 520 499
f 499 526 539
f 560 526 548
f 560 550 526
f 660 645 658
f 647 645 660
f 666 668 653
f 653 668 654
f 662 664 653
f 647 662 653
f 667 665 652
f 652 654 667
f 657 644 659
f 659 644 646
f 663 646 652
f 663 661 646
f 3 4 20
f 20 19 3
f 145 147 157
f 157 164 145
f 93 122 95
f 93 110 122
f 12 36 9
f 12 40 36
f 12 14 49
f 49 40 12
f 453 449 405
f 449 391 405
f 565 591 597
f 597 584 565
f 569 580 549
f 549 580 565
f 641 624 639
f 639 624 613
f 214 212 218
f 212 219 218
f 192 159 173
f 192 189 159
f 158 159 166
f 158 149 159
f 155 144 158
f 144 149 158
f 472 452 448
f 448 475 472
f 606 583 614
f 614 583 598
f 658 645 656
f 645 634 656
f 649 651 634
f 634 624 649
f 2 17 1
f 2 18 17
f 2 3 19
f 19 18 2
f 105 88 98
f 116 105 98
f 98 88 85
f 85 91 98
f 215 216 186
f 186 216 188
f 248 188 247
f 187 188 248
f 248 266 187
f 248 262 266
f 127 122 118
f 127 134 122
f 127 133 145
f 145 134 127
f 308 334 389
f 305 308 389
f 334 349 389
f 349 391 389
f 540 500 521
f 540 527 500
f 615 584 609
f 615 599 584
f 527 551 561
f 561 549 527
f 249 244 231
f 231 244 219
f 261 249 231
f 231 265 261
f 598 612 625
f 625 612 629
f 640 638 623
f 623 638 612
f 655 644 657
f 655 633 644
f 626 630 613
f 613 599 626
f 633 650 648
f 648 623 633
f 204 186 203
f 186 185 203
f 666 664 191
f 191 508 520
f 191 580 569
f 85 88 191
f 191 105 114
f 30 32 191
f 191 211 214
f 73 58 191
f 396 416 191
f 13 15 191
f 191 476 453
f 114 128 191
f 200 197 191
f 191 11 13
f 1 6 191
f 191 31 16
f 191 638 640
f 191 207 210
f 210 211 191
f 191 540 521
f 194 196 191
f 70 85 191
f 191 12 9
f 191 346 396
f 191 86 73
f 669 668 191
f 191 59 70
f 191 663 665
f 191 405 397
f 191 198 207
f 641 639 191
f 141 155 191
f 191 136 141
f 568 579 191
f 9 7 191
f 606 614 191
f 191 6 8
f 8 10 191
f 191 15 30
f 397 349 191
f 206 204 191
f 191 2 1
f 16 14 191
f 191 667 669
f 191 196 198
f 521 509 191
f 166 177 191
f 191 192 194
f 128 136 191
f 191 299 307
f 191 249 261
f 191 596 606
f 452 472 191
f 191 560 568
f 7 5 191
f 191 10 11
f 191 32 59
f 191 334 308
f 247 216 191
f 191 208 206
f 147 140 191
f 58 31 191
f 215 209 191
f 191 93 86
f 191 157 147
f 261 299 191
f 191 88 105
f 191 435 452
f 191 158 166
f 307 346 191
f 191 649 641
f 590 596 191
f 191 579 590
f 520 539 191
f 191 660 658
f 657 659 191
f 5 4 191
f 191 349 334
f 308 300 191
f 190 183 191
f 140 133 191
f 118 115 191
f 509 476 191
f 191 127 118
f 609 597 191
f 214 218 191
f 177 189 191
f 191 416 435
f 496 508 191
f 191 625 629
f 191 539 550
f 550 560 191
f 662 660 191
f 191 664 662
f 191 668 666
f 665 667 191
f 658 656 191
f 191 659 661
f 661 663 191
f 4 3 191
f 191 216 215
f 191 655 657
f 640 648 191
f 191 203 200
f 300 262 191
f 191 248 247
f 165 157 191
f 191 115 110
f 110 93 191
f 14 12 191
f 453 405 191
f 191 615 609
f 591 580 191
f 191 597 591
f 191 639 630
f 191 218 220
f 569 561 191
f 189 192 191
f 155 158 191
f 220 244 191
f 191 491 496
f 191 656 651
f 651 649 191
f 630 626 191
f 3 2 191
f 262 248 191
f 183 176 191
f 133 127 191
f 551 540 191
f 191 170 165
f 191 561 551
f 191 244 249
f 472 491 191
f 614 625 191
f 629 638 191
f 650 655 191
f 191 209 208
f 176 170 191
f 191 626 615
f 191 648 650
f 204 203 191
f 191 197 195
f 190 191 180
f 180 191 185
f 171 176 183
f 183 180 171
f 165 170 171
f 164 165 171
