v -0.008017730053 0.0001641156526 -0.01158571759
v -0.008016954158 6.500369218e-05 -0.01158571759
v -0.008015519174 0.0003343849814 -0.01158571759
v -0.008013867565 -5.957608423e-05 -0.01158571759
v -0.008000661118 -0.0003082029761 -0.01158571759
v -0.008000414924 0.0005447036944 -0.01158571759
v -0.007999999565 0.0001999942793 -0.005790082738
v -0.007999068242 7.936006295e-05 -0.005794284865
v -0.007997333189 0.0004071224103 -0.00579783693
v -0.007995335502 -7.222373097e-05 -0.005801556632
v -0.007985610785 -0.0005177706395 -0.01158571759
v -0.007983896998 7.635146903e-05 -0.005717478693
v -0.007980099064 -7.609692693e-05 -0.005724862218
v -0.007979347487 -0.0003744611313 -0.005822960287
v -0.007963894051 -0.0003800748527 -0.005746649578
v -0.007955918574 0.001157902271 -0.01158571759
v -0.007955689224 -0.0008287414491 -0.01158571759
v -0.00794333138 0.001153277277 -0.005860932171
v -0.007943058503 -0.0007530766452 -0.00586357899
v -0.007931268044 -0.001009859475 -0.01158571759
v -0.007928907174 0.001357106813 -0.01158571759
v -0.007913842856 0.001444586418 -0.01158571759
v -0.00791350205 -0.000973206028 -0.005894867703
v -0.007910641958 0.001394953564 -0.005896018818
v -0.007886319037 -0.001274361436 -0.01158571759
v -0.007871377816 -0.001361122139 -0.01158571759
v -0.007862726216 0.001736207793 -0.01158571759
v -0.007859251578 -0.001293875292 -0.005952620879
v -0.007848802139 0.001748556606 -0.005963541567
v -0.007842392256 -0.001481422901 -0.01158571759
v -0.007793482804 0.002036402284 -0.01158571759
v -0.007774238591 0.002087411456 -0.007789600641
v -0.007772772182 0.002122365703 -0.01158571759
v -0.007732834062 0.002277451176 -0.01158571759
v -0.007728806813 0.002265098839 -0.007954269648
v -0.007674855041 -0.002159418497 -0.01158571759
v -0.007669955165 0.002506421917 -0.01158571759
v -0.007657163893 -0.002116752454 -0.006191572174
v -0.007651296561 0.002534282728 -0.006198009476
v -0.007617734581 0.002664131903 -0.01158571759
v -0.007583687423 -0.002436464681 -0.01158571759
v -0.007548544672 -0.002449396663 -0.006335055456
v -0.007532573688 -0.002590819723 -0.01158571759
v -0.007529422757 0.002902951892 -0.00635924004
v -0.007516642068 0.002969228582 -0.01158571759
v -0.007492764038 -0.002603364541 -0.006412187591
v -0.007486039095 -0.002718068384 -0.01158571759
v -0.007460178123 -0.002783496947 -0.01158571759
v -0.007298470382 0.003502930717 -0.01158571759
v -0.007278171307 -0.00321667722 -0.01158571759
v -0.0072755703 -0.003126549433 -0.006727861241
v -0.007270715316 0.003538326928 -0.006734279916
v -0.007228467124 0.003665630347 -0.01158571759
v -0.007095635985 -0.003494840712 -0.006997104734
v -0.007077123417 -0.003658143095 -0.01158571759
v -0.007071186905 0.003941479939 -0.007034409791
v -0.007068201738 -0.003676922785 -0.01158571759
v -0.007060437331 0.004002925505 -0.01158571759
v -0.007027611618 0.004067796403 -0.01158571759
v -0.006941254923 -0.00393149855 -0.01158571759
v -0.006863791243 -0.004082321303 -0.01158571759
v -0.006851678801 0.004404668649 -0.01158571759
v -0.006764287182 0.004554439151 -0.01158571759
v -0.00671935745 0.004541224203 -0.007583247498
v -0.006540903007 -0.00203765709 0.0008364953101
v -0.00654040894 0.00203616613 0.0008369125426
v -0.006526917336 -0.002050406896 0.0008821003139
v -0.006526400917 0.002048873444 0.0008824914694
v -0.00652239013 0.004958466789 -0.01158571759
v -0.006520865601 0.001389355617 0.0009791962802
v -0.006519494229 -0.001391268932 0.0009890086949
v -0.006511413143 -0.001397586209 0.001019783318
v -0.006502488279 -0.001818393721 0.0009827166796
v -0.006502095726 0.001816612654 0.0009830854833
v -0.006495586713 -0.002229446676 0.0008773654699
v -0.006495152251 0.002225770251 0.0008784048259
v -0.006493185763 -0.00226884814 0.0008660778403
v -0.00649265165 0.0022665992 0.0008667223155
v -0.00648737431 -0.00140789304 0.001066502184
v -0.006487216917 0.001407922115 0.001066476107
v -0.006482229684 -0.002395625124 0.0008283555508
v -0.006481510238 0.002393894465 0.000828910619
v -0.006475179573 -0.002694690498 0.0006290525198
v -0.006474451278 0.002692278344 0.0006299987435
v -0.006472073612 -0.001122463043 0.001110039651
v -0.006471907836 0.001120786284 0.001110244542
v -0.00646543887 -0.002523327843 0.0007880851626
v -0.006464773905 0.002521065631 0.0007888413966
v -0.006458065123 -0.000835012077 0.001139041036
v -0.006457937066 0.000832649981 0.001139234751
v -0.006454683025 -0.002709628912 0.000679269433
v -0.00645394309 0.002707175081 0.0006801746786
v -0.006448387285 -0.0006232295564 0.001151967794
v -0.00644832442 0.0006217591144 0.001152053475
v -0.006445369334 -0.002622710905 0.0007559806108
v -0.006444716942 0.002620086874 0.0007568597794
v -0.006436862634 -1.189458999e-06 0.001166474074
v -0.006425825674 0.005115611193 -0.01158571759
v -0.006420696736 -0.002718783115 0.0007231794298
v -0.006419973099 0.002716287607 0.0007240511477
v -0.006385631976 -0.002713469919 0.0007646232843
v -0.006385266432 0.002711036112 0.0007650591433
v -0.006381090846 0.005184555618 -0.01158571759
v -0.006364487228 -0.002905382906 0.000652462244
v -0.006363766384 0.002902545602 0.0006535165012
v -0.006349850562 0.002706368556 0.000805657357
v -0.006349849631 -0.002708745786 0.000805657357
v -0.006344670546 0.002692034337 0.0008207410574
v -0.006285993033 -0.001686194344 0.001280903816
v -0.006285992102 0.001683814087 0.001280903816
v -0.006283003488 -0.003141999841 0.0005536898971
v -0.006282197428 0.003138987217 0.0005549043417
v -0.006279908703 -0.002808017787 0.0008067116141
v -0.006262265728 -0.003317170907 0.0004267320037
v -0.006221093354 -0.003325549551 0.0004693865776
v -0.006217697752 0.003329661078 0.000467389822
v -0.006171148852 -0.002403791892 0.001152396202
v -0.006155911484 -0.003535274082 0.000364869833
v -0.006153850001 0.003535264041 0.0003647617996
v -0.006124058389 0.002337032798 0.001224733889
v -0.00611616543 -0.003883662299 0.0001182071865
v -0.006106538814 0.002996332812 0.0008151642978
v -0.006099866354 0.004220748189 -0.0001796074212
v -0.006091597141 -0.003013848691 0.0008157864213
v -0.006068357849 -0.003900132739 0.0001573376358
v -0.006067413022 -0.004708083012 -0.0005954932421
v -0.00606659858 0.004251890219 -0.0001341756433
v -0.006064141286 0.003910218933 0.0001510605216
v -0.006062370376 0.001776924575 0.001481413841
v -0.006034390186 -0.004744714257 -0.0005542654544
v -0.006025187322 -0.004217221533 -5.706213415e-05
v -0.006022687186 0.005077110007 -0.0009883344173
v -0.006022632238 0.004217145368 -5.697272718e-05
v -0.00601928134 -0.0009254457109 0.001650031656
v -0.00601928134 0.0009230632422 0.001650039107
v -0.006017430336 0.004273965358 -9.897165e-05
v -0.005990755861 0.005116510074 -0.0009494852275
v -0.00598543894 -0.004771342632 -0.000522153452
v -0.005942962249 0.005144863258 -0.0009178966284
v -0.005932655768 -0.005459346008 -0.001487042755
v -0.005925665726 -0.005262597595 -0.001060025766
v -0.005914875888 -0.005314457827 -0.001125367358
v -0.005911079352 0.005316664334 -0.001128034666
v -0.005902564269 -0.005501286258 -0.001450441778
v -0.005898936768 -0.0004699490528 0.001767084002
v -0.005898933043 0.0004675710952 0.001767091453
v -0.005876815994 -0.001995394137 0.001560572535
v -0.005872214795 0.004810391329 -0.0004706531763
v -0.00587221107 -0.004812770188 -0.0004706606269
v -0.005858275198 -0.00595510284 -0.01158571759
v -0.005856802338 -0.005531327464 -0.001418661326
v -0.005826204666 0.005717051085 -0.001887062564
v -0.005817513098 -0.001907957849 0.001632392406
v -0.00579717767 0.005760737564 -0.001852199435
v -0.005766315968 0.002711193505 0.001268323511
v -0.005766312708 -0.002713577254 0.001268319786
v -0.005752648343 0.005792103111 -0.001820569858
v -0.005734944874 -0.006167354316 -0.01158571759
v -0.005723804818 -0.005860385616 -0.001936363056
v -0.005718660391 -0.006194804268 -0.01158571759
v -0.005714097177 -0.001017403803 0.001886349171
v -0.005714092054 0.00101502605 0.001886345446
v -0.005672429805 -0.003423930277 0.0007984377444
v -0.005672427011 0.00342155328 0.0007984377444
v -0.00566613127 0.001669321544 0.00180144608
v -0.005663942935 0.006276022719 -0.01158571759
v -0.005649982137 -0.0060338654 -0.002471895888
v -0.005641786964 0.004317267667 0.0001202002168
v -0.005641784635 -0.00431964513 0.0001201890409
v -0.0056221626 -0.006079779603 -0.002439623699
v -0.00559193382 -0.006408062615 -0.01158571759
v -0.00557906332 -0.006113106982 -0.002408677712
v -0.00554702396 0.002077096477 0.001729760319
v -0.005547021166 -0.002079478596 0.001729756594
v -0.005539730308 -0.0005337378389 0.002026747912
v -0.005539727979 0.0005313582515 0.002026744187
v -0.00548477399 0.006540323638 -0.01158571759
v -0.005450133351 0.00630830029 -0.002939948812
v -0.005413712119 -0.001233705101 0.002032596618
v -0.005407535122 0.006343148518 -0.00291014649
v -0.005391164799 0.006061879787 -0.001913029701
v -0.005391163868 -0.006064261906 -0.001913029701
v -0.005381339812 0.006375172044 -0.002986228094
v -0.005373826367 0.001157157109 0.002063151449
v -0.005291618142 -0.006778010301 -0.01158571759
v -0.005248759524 0.00229126458 0.001776017249
v -0.005248754402 -0.002293644837 0.001776009798
v -0.005229721428 -0.00316926431 0.001256059855
v -0.005229720962 0.003166885916 0.00125605613
v -0.005202797725 0.006886808389 -0.01158571759
v -0.00520159083 0.003867417676 0.0007161162794
v -0.005200592452 0.006491798311 -0.002979559824
v -0.00520059152 -0.006494180896 -0.002979561687
v -0.005182351102 -0.003887629733 0.0007117725909
v -0.005166521412 0.0007401235489 0.002197664231
v -0.00510892889 -0.006685958375 -0.003960473463
v -0.005087109399 -1.189400791e-06 0.002254396677
v -0.005066247773 -0.006723438055 -0.003934022039
v -0.005013306065 -0.007075637721 -0.01158571759
v -0.005008581211 -0.0003784503351 0.002274814993
v -0.005002042861 -0.001387212673 0.0021655038
v -0.005002042395 0.001384835676 0.002165492624
v -0.004988536355 0.006796055342 -0.00416534394
v -0.004955354729 -0.005116182045 -0.0002475697547
v -0.004955353797 0.005113802254 -0.0002475772053
v -0.004936254234 -0.005919976291 -0.001233467832
v -0.004936253303 0.005917601622 -0.001233460382
v -0.004932032083 -0.006853188053 -0.004357226193
v -0.004927517031 0.005965549833 -0.00130308792
v -0.004927441129 0.006853988263 -0.004360128194
v -0.004925835063 0.004109351299 0.0006570778787
v -0.004903380875 0.006876330226 -0.004437843338
v -0.004897981533 -1.185719157e-06 0.002314336598
v -0.004886161187 -0.004685141743 0.0001956894994
v -0.004886157927 0.004682763814 0.0001956857741
v -0.004880275576 0.007213980471 -0.01158571759
v -0.004866758478 -0.00459290728 0.0002860948443
v -0.004866758012 0.004590532611 0.0002860985696
v -0.004825601936 -0.006353546996 -0.00194212608
v -0.004825599608 0.006351167671 -0.001942127943
v -0.004781957288 0.00731278999 -0.01158571759
v -0.004776740563 -0.004223902841 0.000632930547
v -0.004776737303 0.004221523515 0.0006329193711
v -0.004744299049 0.007348299026 -0.01158571759
v -0.004727927966 -0.007365608788 -0.01158571759
v -0.004703221493 -0.006657919977 -0.002593625337
v -0.004703216371 0.006655542049 -0.002593632787
v -0.004684842774 -0.0009516572027 0.002312779427
v -0.004684841842 0.0009492746176 0.002312783152
v -0.004680804559 0.003686253083 0.001110248268
v -0.004680803162 -0.003688637764 0.001110244542
v -0.00464234699 0.006777618415 -0.002911971882
v -0.004622849211 -0.007470867498 -0.01158571759
v -0.004595979094 -0.00749521528 -0.01158571759
v -0.004589999211 -0.001674359097 0.002202086151
v -0.004589996417 0.001671979888 0.002202074975
v -0.004568448407 -0.002830878264 0.00173754245
v -0.004568446544 0.002828499637 0.00173754245
v -0.004557071444 0.007524492091 -0.01158571759
v -0.004556942382 -0.004207726233 0.0007425174117
v -0.004442429286 -0.004694501535 0.0003599822521
v -0.004429479712 -0.005199257881 -0.0001356881112
v -0.004415862844 -0.0004058898921 0.002382140607
v -0.00440213189 -0.005708729048 -0.0007137265056
v -0.004369706963 -0.007194716614 -0.004410840571
v -0.004369706032 0.007192338686 -0.004410838708
v -0.004339240142 0.004175153896 0.0008473582566
v -0.004321567365 -0.006201864351 -0.0013716463
v -0.004321490531 -0.0004732713132 0.002389036119
v -0.004297481506 -0.007743647455 -0.01158571759
v -0.004258959205 0.0005155622348 0.002392798662
v -0.004244545846 -0.007785976715 -0.01158571759
v -0.00422347628 0.007359900381 -0.005268452689
v -0.004196013906 0.001302598263 0.002333089709
v -0.00419601344 -0.001304978286 0.002333093435
v -0.004188910243 -0.006661077161 -0.002139190212
v -0.004154754932 0.00785219271 -0.01158571759
v -0.004133148127 -0.007871541811 -0.01158571759
v -0.004130525974 0.007870860643 -0.01158571759
v -0.004120915035 0.007877937424 -0.01158571759
v -0.00410375616 0.004737961906 0.0004242546856
v -0.004058236459 -0.007925808169 -0.01158571759
v -0.004047187524 0.007931353703 -0.01158571759
v -0.004018126638 -0.007070161533 -0.003057064489
v -0.004013291677 0.005298890508 -0.0001244302839
v -0.003975174972 -0.004750746899 0.000449243933
v -0.00393843709 0.005841467864 -0.0007509887218
v -0.003866872401 0.003424686249 0.001546051353
v -0.003866870538 -0.003427069998 0.001546051353
v -0.00386539672 -0.004101228566 0.001049406826
v -0.003856820636 -0.005332516637 -0.0001208074391
v -0.003836623044 0.0040942669 0.001060064882
v -0.003832667717 0.006359677165 -0.001457182691
v -0.003822812461 -0.007415174638 -0.004159681499
v -0.003764713765 -0.005888537635 -0.0007680337876
v -0.003735993384 0.008130113932 -0.01158571759
v -0.003727488336 -1.185646397e-06 0.002414282411
v -0.0037209742 0.0009062028694 0.002394318581
v -0.00369215496 -0.008154923116 -0.01158571759
v -0.003690958139 0.006840166971 -0.002268832177
v -0.003685903852 -0.0009344730206 0.002392280847
v -0.00367061107 -0.002362508923 0.002112392336
v -0.003670610138 0.002360130296 0.002112403512
v -0.003649967839 -0.006416523029 -0.00149429217
v -0.00361352053 -0.007700344213 -0.005430886522
v -0.003521929146 0.00726793088 -0.00322069414
v -0.003505377681 -0.006904774476 -0.0023239851
v -0.003393759646 0.008342576126 -0.01158571759
v -0.003361106574 -0.008353549855 -0.01158571759
v -0.003349231207 0.0044108437 0.0008898042142
v -0.003337523085 -0.00733902691 -0.003289662302
v -0.00333419221 0.007630101274 -0.004341946915
v -0.003300320473 -0.004013835118 0.001228500158
v -0.00330031768 0.004011455327 0.001228500158
v -0.003254642689 0.008415274838 -0.01158571759
v -0.003168653813 0.004766797516 0.0005877874792
v -0.003153077443 -0.007707057186 -0.004418622702
v -0.003151447629 -0.002073097872 0.002210702747
v -0.003151444835 0.002070720293 0.002210691571
v -0.003135969979 0.007930802982 -0.005616931245
v -0.003122423892 0.0004567910655 0.002382796258
v -0.00312241877 -0.0004591731267 0.002382785082
v -0.003037165967 -0.004389495254 0.0009533464909
v -0.002972146002 -0.00856991571 -0.01158571759
v -0.002959393081 -0.008013043218 -0.005695432425
v -0.002956263372 0.001467736074 0.002305563539
v -0.002920929925 0.005455874241 -0.0001121163368
v -0.00286387534 -0.00862604721 -0.01158571759
v -0.002837397042 -0.004765129313 0.0006285719573
v -0.002744131139 0.006095302626 -0.0008970312774
v -0.00274024962 0.008397194892 -0.008478850126
v -0.002689926769 0.003085589837 0.001858111471
v -0.002689926769 -0.003087971025 0.001858111471
v -0.002642728505 0.003914951449 0.001364700496
v -0.002586847986 -0.003909134903 0.001372877508
v -0.002585031674 0.006683834697 -0.001755381003
v -0.002574964077 -0.008487368599 -0.008548352867
v -0.002558520413 -0.005490110852 -0.0001217499375
v -0.002536055086 0.008778574546 -0.01158571759
v -0.002511240658 0.003895625108 0.001383122057
v -0.002485884004 -1.191205229e-06 0.002312704921
v -0.002427729196 0.007215840145 -0.002700425684
v -0.002382997772 -0.008858254007 -0.01158571759
v -0.002374254084 0.008853496682 -0.01158571759
v -0.002360778279 -0.006159046796 -0.0009603369981
v -0.002271382255 -0.00829493966 -0.006038431078
v -0.002268517273 0.007683638818 -0.00375328213
v -0.002265652292 -0.001953491374 0.00215927884
v -0.002251062659 0.003444956717 0.00166715309
v -0.002214216976 0.004321182481 0.001058444381
v -0.002190490835 -0.006768915002 -0.001869993284
v -0.002175118618 0.008940472569 -0.01158571759
v -0.00210441777 0.008080989457 -0.00493122451
v -0.002030070988 -0.007315591574 -0.002859422937
v -0.002024540328 0.002860222114 0.001910287887
v -0.002024538699 -0.002862599111 0.001910287887
v -0.001993528917 0.0047444183 0.0006787665188
v -0.001938198111 0.008413224816 -0.006220590323
v -0.001932630897 -0.008796522059 -0.008855190128
v -0.00192489184 -0.001330596409 0.002168700099
v -0.001924890443 0.001328215338 0.002168703824
v -0.001915578121 -0.009062112152 -0.01158571759
v -0.001884770929 0.003801289349 0.001433990896
v -0.001884769998 -0.003803668675 0.001434005797
v -0.001873706351 -0.007794037127 -0.003945590928
v -0.001869858592 0.0004498093476 0.002195268869
v -0.001716417377 -0.008200410419 -0.005142170936
v -0.001710742177 -0.009148310124 -0.01158571759
v -0.001685786876 0.005548407193 -0.0001880507916
v -0.001621566364 0.008926026858 -0.009019089863
v -0.001586077386 -0.004269875717 0.001076411456
v -0.001582959152 -0.009201879059 -0.01158571759
v -0.001559786848 -0.008540584371 -0.006436211988
v -0.001470424584 0.003262936472 0.00168447569
v -0.001470422256 -0.003265314401 0.001684471965
v -0.001469254088 0.009240940468 -0.01158571759
v -0.001467547496 0.006275394335 -0.0011445079
v -0.001406860421 0.002525117816 0.001903194934
v -0.001392798728 0.009265481904 -0.01158571759
v -0.001380375004 -0.004730809611 0.0006618313491
v -0.001345210592 -0.00256867813 0.001881413162
v -0.001297415118 0.003709740107 0.001428261399
v -0.001284727477 0.006926261223 -0.002167001367
v -0.001267502434 -0.009064606056 -0.009213248268
v -0.001241854974 -0.000892416705 0.002032224089
v -0.001241854508 0.0008900413959 0.002032224089
v -0.001170110945 -0.009352279651 -0.01158571759
v -0.00111973926 0.00750132963 -0.003255024552
v -0.001092357677 -0.00558416186 -0.0002724919468
v -0.001074376107 -0.009385347816 -0.01158571759
v -0.001069216174 -0.003676126609 0.001413565129
v -0.0009669304127 0.008000351358 -0.004415336996
v -0.0009663089877 0.003657450303 0.001404959708
v -0.0008782717632 -0.006339801606 -0.001295289025
v -0.0008213252295 0.008423869833 -0.005652710795
v -0.0007754211547 -0.002955921591 0.001649647951
v -0.0007709962083 0.004197870716 0.001021709293
v -0.0007204530993 -0.004196097274 0.001015465707
v -0.0006942928303 -0.007010094952 -0.002382997423
v -0.0006832723739 0.008778767995 -0.006955530494
v -0.0006140629994 -0.002176640453 0.001756440848
v -0.0006140617188 0.002174260895 0.001756455749
v -0.0006103619235 0.004709461107 0.0005724467337
v -0.0006010895063 0.009516705223 -0.01158571759
v -0.0005650980165 -0.0004479618656 0.001841899008
v -0.0005637634313 -0.004711016678 0.0005644671619
v -0.0005271702539 -0.007599033081 -0.003529397771
v -0.0004704496823 0.003164086593 0.001506216824
v -0.0004414950963 0.009322495534 -0.009679496288
v -0.0003823536681 0.005614813752 -0.0004205461591
v -0.0003741636174 -0.008108255119 -0.004733866081
v -0.0003397793043 -0.005618958865 -0.0004311203957
v -0.0003192431148 0.009591808399 -0.01158571759
v -0.0002328885021 -0.00854002744 -0.005994647741
v -0.0002217036738 -0.009597887799 -0.01158571759
v -0.0001871479908 0.006393838543 -0.001503575593
v -0.000145886559 -0.006398941987 -0.001517055556
v -0.0001165586291 0.003536941353 0.001272603869
v -0.0001037806505 -0.008901635782 -0.007300725207
v -4.788290244e-05 0.003825169391 0.001103334129
v -5.509355105e-06 0.007078388575 -0.002653969452
v 7.50878826e-07 0.004125162828 0.0008941181004
v 3.552658018e-05 -0.007084065714 -0.002670666203
v 8.875341155e-05 0.004700666163 0.0004179216921
v 0.000101159967 -0.001749210889 0.001562040299
v 0.0001011615968 0.001746831913 0.001562044024
v 0.0001036574831 -1.191830961e-06 0.001607876271
v 0.00010399858 0.002620527623 0.001455642283
v 0.0001039996278 -0.002622910441 0.001455642283
v 0.0001108378638 -0.009453304709 -0.009986815974
v 0.0001217226381 0.003513204734 0.001210641116
v 0.0001217226381 -0.003515584758 0.001210637391
v 0.0001588300802 -0.003993876875 0.0009399577975
v 0.0001588316518 0.003991508725 0.0009399503469
v 0.0001645112643 0.007678160779 -0.003858568147
v 0.0001970483105 -0.009684604135 -0.01158571759
v 0.0001978999353 -0.004360917155 0.0006658360362
v 0.0001979019144 0.004358541089 0.0006658397615
v 0.0002398877987 0.004699680358 0.0003763735294
v 0.0002398917568 -0.004702056889 0.0003763698041
v 0.0002560527064 0.005639576222 -0.0006004627794
v 0.000320582476 0.008195557966 -0.005107315257
v 0.0003304642159 -0.005305469167 -0.0002340637147
v 0.0003304686979 0.005303115919 -0.0002340953797
v 0.0003378271018 0.00968378211 -0.01158571759
v 0.0003666457487 0.005506227128 -0.0004740078002
v 0.0003666484263 -0.005508606919 -0.0004740078002
v 0.0004306524061 0.006425379644 -0.001717362553
v 0.000583119021 0.008999657221 -0.007696138695
v 0.0006064425106 -0.003240052974 0.001133963466
v 0.0006084805063 0.007115592118 -0.002909099683
v 0.0006277858047 -0.006699025296 -0.00220512785
v 0.0006277862412 0.006696644108 -0.002205129713
v 0.0007741081354 0.009554972276 -0.0103341341
v 0.0008105745655 -0.002195835012 0.001246895641
v 0.0008131937269 -0.009713045226 -0.01158571759
v 0.0008293063265 0.00973998434 -0.01158571759
v 0.0008326729876 0.007451560217 -0.003623688594
v 0.0008616546984 -0.00306505397 0.001083098352
v 0.0009137124434 -0.007727128119 -0.004215942696
v 0.0009564913562 -0.00365501795 0.0008463338017
v 0.0009616555253 -0.007883647122 -0.004578346387
v 0.0009758034721 0.00298356275 0.00105650723
v 0.001016123042 -0.004548910205 0.0002511106431
v 0.001016125112 0.004546547178 0.0002510994673
v 0.001049604372 -0.005314599388 -0.0004945024848
v 0.001049608913 0.005312243346 -0.0004945248365
v 0.001059901829 0.004128618035 0.0005413405597
v 0.001059903126 -0.004130987581 0.000541344285
v 0.001076985493 -0.008248170503 -0.005499653518
v 0.00114550499 -0.005988088567 -0.001356009394
v 0.001145514798 0.005985739976 -0.001356063411
v 0.001247871551 -0.008770008237 -0.007067512721
v 0.001271922083 -0.00659073297 -0.002293838188
v 0.001271930028 0.0065883895 -0.002293903381
v 0.001322788142 0.009732034011 -0.01158571759
v 0.001342388219 -0.009054007605 -0.008095996454
v 0.001407680771 0.003747934577 0.0006093271077
v 0.00143730297 0.0009060693992 0.001026865095
v 0.001437304076 -0.0009084469784 0.00102686137
v 0.0014697265 -0.009440824055 -0.009801380336
v 0.001496131736 -0.009524069392 -0.01023091935
v 0.001519873826 0.002612542463 0.000888414681
v 0.001549049362 -0.009730957181 -0.01158571759
v 0.0015527918 0.00825999245 -0.005737932399
v 0.001557868207 -0.007626458668 -0.004305206239
v 0.001638231508 -0.003326343038 0.0006749667227
v 0.001638231683 0.003323964876 0.0006749667227
v 0.001738235645 0.005329131483 -0.0008169729263
v 0.001738235762 -0.005331488923 -0.0008169393986
v 0.001778907841 0.00462315591 -0.0001394022256
v 0.001778911334 -0.004625525922 -0.0001393891871
v 0.001795856224 -0.005976098721 -0.001648575068
v 0.001795860007 0.005973753854 -0.001648616046
v 0.00182432466 0.009063180871 -0.008332198486
v 0.001832231996 -0.008443612271 -0.006394315511
v 0.001863868558 -0.002385157059 0.0007475800812
v 0.001868460735 0.004254574756 0.0001011043787
v 0.00186846673 -0.004256948494 0.000101108104
v 0.001909467857 -0.006564987954 -0.002578828484
v 0.001909476414 0.006562648676 -0.002578893676
v 0.002000744222 0.009608618318 -0.0108740963
v 0.002026173035 0.009715874433 -0.01158571759
v 0.002044117427 0.003888886058 0.0002372339368
v 0.002154690679 0.00293930863 0.0005130171776
v 0.002178489813 0.002172948196 0.0006022527814
v 0.002199201728 -0.007584936116 -0.004592530429
v 0.00226486579 -0.003942024094 9.505823255e-05
v 0.002327001487 0.009701740118 -0.01158571759
v 0.002354922355 -0.00354968723 0.0002293810248
v 0.002354922821 0.003547306507 0.0002293847501
v 0.00248399739 -0.009607723156 -0.01158571759
v 0.002493372536 -0.008389885203 -0.006678281352
v 0.002628346556 -0.001870411579 0.0003697313368
v 0.002669781912 -1.192267519e-06 0.0003692619503
v 0.002722320729 0.001802917672 0.0003177933395
v 0.002727671876 -0.008985795677 -0.008722789586
v 0.002755423659 0.003205784698 0.0001097731292
v 0.002755425056 -0.003208163558 0.0001097768545
v 0.002895547426 -0.009415086955 -0.01070902869
v 0.002927760012 0.007827018257 -0.005264334381
v 0.002930034281 -0.009542812326 -0.01158571759
v 0.002947870293 -0.005360863302 -0.001553395763
v 0.00294787134 0.005358503535 -0.001553416252
v 0.002984377672 -0.00592282055 -0.002306560054
v 0.002984380233 0.005920471493 -0.002306597307
v 0.002987116808 0.004114078227 -0.0004282034934
v 0.00302116049 0.004772552158 -0.0009721126407
v 0.003021166776 -0.004774919842 -0.0009721070528
v 0.003056902555 0.009092739187 -0.008936291561
v 0.003088488127 -0.006453239956 -0.003174399957
v 0.003121189191 0.004479043986 -0.0007782578468
v 0.003121189191 -0.004481417258 -0.0007782522589
v 0.00322742213 0.009623622856 -0.0113801118
v 0.003250610226 -0.009455469015 -0.01158571759
v 0.003277170588 -0.004193350804 -0.0006691403687
v 0.00327717152 0.004190970547 -0.0006691403687
v 0.003295539063 0.0004808053927 -1.917779446e-05
v 0.003366794357 0.009650620741 -0.01158571759
v 0.003392158658 -0.00740186371 -0.00510240905
v 0.003491345677 -0.003919399474 -0.0006549470127
v 0.003491346142 0.003917017821 -0.0006549432874
v 0.003521196156 0.009641632762 -0.01158571759
v 0.00360969326 -0.00429024607 -0.0009718369693
v 0.003703617374 0.002516658846 -0.0003772806376
v 0.003703617607 -0.00251903561 -0.0003772769123
v 0.003727414995 -0.008161116057 -0.007117960602
v 0.003765378031 0.003645336124 -0.000726306811
v 0.003765381058 -0.003647714286 -0.0007263049483
v 0.003802825115 0.001020856071 -0.0003580581397
v 0.003873511101 -0.0009712500178 -0.000407172367
v 0.003905760939 0.004883427042 -0.001731755212
v 0.003905762802 -0.004885801245 -0.001731751487
v 0.003912551445 -0.005355492365 -0.002276470885
v 0.00391255354 0.005353133063 -0.002276491374
v 0.003953312873 0.004654153585 -0.001542184502
v 0.003953314968 -0.004656527322 -0.001542180777
v 0.003986582742 0.008332640267 -0.006956730038
v 0.003997366293 -0.005817476325 -0.002958450466
v 0.003997373045 0.005815119352 -0.002958489582
v 0.004012296326 -0.008708029651 -0.0090760272
v 0.004043380009 0.009598241105 -0.01158571759
v 0.004118698998 0.004457434508 -0.001506429166
v 0.004130440415 -0.006269829479 -0.003745004535
v 0.004132185713 0.004462113007 -0.001521812752
v 0.004232864711 -0.009089838379 -0.01096692309
v 0.004273481725 -0.00917576505 -0.01158571759
v 0.004289480741 0.009122294709 -0.009540388361
v 0.004314253223 -0.001418066226 -0.0007342640311
v 0.004349884926 0.009299108162 -0.01025934331
v 0.004426934174 0.004010299555 -0.001462358981
v 0.004426935804 -0.00401268214 -0.001462358981
v 0.004452137626 0.003101547583 -0.001078274101
v 0.004452138324 -0.003103923882 -0.001078279689
v 0.004457056173 -0.0005457537627 -0.000834133476
v 0.00446811656 -0.007117726971 -0.00552245602
v 0.004483989091 0.004568999502 -0.00194028765
v 0.004483993282 -0.004571382087 -0.001940285787
v 0.004492410109 0.009127809069 -0.009642586112
v 0.004506763166 -0.009083867817 -0.01158571759
v 0.004566474701 -0.004874166698 -0.002319676802
v 0.004566476564 0.004871793892 -0.002319687977
v 0.004605339956 -0.004481752068 -0.001980451867
v 0.004613457597 -0.00501677081 -0.002520209178
v 0.004613458761 0.005014391019 -0.002520211041
v 0.004659767612 -0.001851794208 -0.001030744985
v 0.004659767612 0.001849417793 -0.00103074871
v 0.004688896122 -0.005227195696 -0.002835590392
v 0.004688902642 0.005224826615 -0.002835612744
v 0.004690586007 0.008855156004 -0.008784994483
v 0.004719526623 0.0003513803385 -0.001036595553
v 0.004760973684 0.009274046402 -0.01158571759
v 0.004831475322 0.004294966217 -0.002059672028
v 0.004835796426 -0.007810938769 -0.007408462465
v 0.00483863533 -0.001056974535 -0.001136004925
v 0.004838635563 0.001054599401 -0.00113600865
v 0.004843962593 0.009231875954 -0.01158571759
v 0.004849164165 -0.004282544032 -0.002066310495
v 0.004971868242 -0.003558994169 -0.001727502793
v 0.004971871967 0.003556616706 -0.001727502793
v 0.005019547767 -0.006018022672 -0.004207475111
v 0.005075343768 -0.006139620804 -0.004444463179
v 0.005080354284 0.008213146924 -0.007098320872
v 0.005115009728 0.001568326596 -0.001394793391
v 0.005115336156 -1.188018359e-06 -0.001356508583
v 0.005130218294 0.00907611631 -0.01158571759
v 0.005174568272 -0.00829186909 -0.009258065373
v 0.005186682916 0.002615802558 -0.001606442034
v 0.00518668571 -0.00261818165 -0.001606438309
v 0.005281260894 0.008988783715 -0.01158571759
v 0.005316076684 -0.003913676497 -0.002291446552
v 0.005316078546 0.003911294843 -0.002291442826
v 0.005361366435 0.004993431605 -0.003258872777
v 0.005361367832 -0.00499581419 -0.003258876503
v 0.005389760132 -0.0008959918196 -0.001608818769
v 0.005390970851 0.0008970302151 -0.001610027626
v 0.005463973968 -0.008612529971 -0.01106273383
v 0.005519477048 -0.008678012247 -0.01158571759
v 0.005569302361 -0.003173495541 -0.00216027163
v 0.005569302361 0.003171118544 -0.002160277218
v 0.005580596509 -0.007094356362 -0.006650837138
v 0.005624642709 0.008778849979 -0.01158571759
v 0.005771893892 -0.005717159846 -0.004547785968
v 0.005771895754 0.005714780054 -0.004547784105
v 0.005788211594 -0.007392106709 -0.007567301393
v 0.005796992569 0.003573796115 -0.002609653398
v 0.005815639044 -0.003563661958 -0.002623390406
v 0.005825638714 -0.008524078968 -0.01158571759
v 0.005863734766 0.008630203894 -0.01158571759
v 0.00587295962 -0.00229370514 -0.002217259258
v 0.005894482485 -0.004647060894 -0.003499435261
v 0.005894483416 0.004644680637 -0.003499429673
v 0.00593610236 0.002480679526 -0.00232623145
v 0.006045591435 0.003400182686 -0.002795059234
v 0.006064406014 -0.002878663494 -0.002583669499
v 0.006078607286 0.002922781146 -0.002616483718
v 0.006103313877 -0.007730490193 -0.008966026828
v 0.00611196218 0.008471624598 -0.01158571759
v 0.00614994287 -0.003231397262 -0.002827605233
v 0.006155578769 -0.0033138086 -0.002876749262
v 0.006155581563 0.003311432301 -0.0028767474
v 0.006170094828 -0.006383115557 -0.005997125059
v 0.006348370458 0.004209522027 -0.003670560196
v 0.006348372786 -0.004211901818 -0.003670563921
v 0.006353893667 -0.0005767631956 -0.002555884421
v 0.006353894132 0.0005743844522 -0.002555884421
v 0.006364765926 -0.005325604361 -0.004736017436
v 0.006364769186 0.005323225036 -0.004736017436
v 0.006421042024 -1.19105971e-06 -0.002625627443
v 0.006421134225 0.001139075481 -0.00265520066
v 0.006421136088 -0.001141454224 -0.002655202523
v 0.006425164058 0.003444092683 -0.003269348294
v 0.006425164989 -0.003446473638 -0.003269342706
v 0.006523663993 0.00211010185 -0.002903178334
v 0.006523665856 -0.002112482107 -0.002903176472
v 0.00654673425 0.002859111977 -0.00314722769
v 0.006546736578 -0.002861488974 -0.00314722769
v 0.006585338968 -0.006905415692 -0.007569611073
v 0.006612843252 -0.008088959978 -0.01142082363
v 0.006640507796 -0.00810544234 -0.01158571759
v 0.006708036526 -0.003618493109 -0.003726614639
v 0.006715648226 0.003621102413 -0.003739511594
v 0.006715650554 -0.003623481272 -0.003739506006
v 0.006777789758 -0.008014468019 -0.01158571759
v 0.006799092866 -0.005913722925 -0.006073614582
v 0.006799094728 0.005911344531 -0.006073614582
v 0.006854622043 0.004779637195 -0.004804760218
v 0.006854625768 -0.004782016054 -0.004804756492
v 0.006975442757 0.007895288681 -0.01158571759
v 0.006985270767 0.002919147591 -0.003736196086
v 0.006985271699 -0.002921527383 -0.003736196086
v 0.00702551601 -0.007226861213 -0.009216977283
v 0.007124486729 -0.002073056894 -0.003635413945
v 0.007124488126 0.002070681643 -0.003635412082
v 0.00716762885 0.003941467599 -0.004568371922
v 0.007167632109 -0.003943846226 -0.004568368196
v 0.007190933335 0.001076201719 -0.003543835133
v 0.0071909338 -0.001078582034 -0.003543836996
v 0.007204948342 -0.0005416073982 -0.00351934135
v 0.007204951602 0.0005392271705 -0.00351934135
v 0.007249046466 0.00634666752 -0.007542196661
v 0.007249046466 -0.006349051037 -0.007542192936
v 0.007315731989 0.007660164435 -0.01158571759
v 0.007337431773 0.005280198398 -0.006071025506
v 0.007337435498 -0.00528257493 -0.006071027368
v 0.007459577988 -0.007407887038 -0.01091811992
v 0.007459578919 0.007405510973 -0.01091812365
v 0.007609228476 -0.007454975779 -0.01158571759
v 0.007609228874 0.007452599244 -0.01158571759
v 0.007739124703 -0.006592818201 -0.009142899886
v 0.007739125169 0.006590437944 -0.009142894298
v 0.00773971423 -1.19303877e-06 -0.004173140973
v 0.007758077118 0.003181184511 -0.004981398582
v 0.007758077583 -0.003183560577 -0.004981392995
v 0.007837111945 -0.005646886901 -0.007498372346
v 0.007837112877 0.005644505247 -0.007498374209
v 0.007962322212 0.004516071975 -0.0063436497
v 0.007962324074 -0.004518449437 -0.006343647838
v 0.008077676667 0.007042147924 -0.01158571759
v 0.008077676833 -0.007044524952 -0.01158571759
v 0.008139872807 0.002183122197 -0.005107769743
v 0.008139873738 -0.002185502453 -0.005107771605
v 0.008235651418 -0.006708254237 -0.01084453426
v 0.008235651883 0.006705874912 -0.01084453054
v 0.008375798701 0.005829485468 -0.009090455249
v 0.008375801495 -0.005831861999 -0.009090457112
v 0.008414793643 0.001107597593 -0.005219833925
v 0.008414796903 -0.001109978315 -0.005219837651
v 0.008428188798 -0.006737237636 -0.01158571759
v 0.00842818984 0.006734858652 -0.01158571759
v 0.008429804235 -0.004760321826 -0.007545171306
v 0.008441558457 0.003491834839 -0.006340125576
v 0.00844156032 -0.003494214165 -0.006340123713
v 0.008458902012 0.004768910687 -0.007622506469
v 0.008496201015 0.0005551378854 -0.00525958091
v 0.008496201946 -0.0005575149698 -0.005259577185
v 0.008526120218 -1.192616765e-06 -0.005275510252
v 0.008740182336 -0.006375833749 -0.01158571759
v 0.008740183814 0.006373454881 -0.01158571759
v 0.008748502354 -0.004856504165 -0.008407451212
v 0.008748503751 0.004854128099 -0.008407451212
v 0.008920268971 -0.005897624083 -0.01080585085
v 0.008920270833 0.005895247552 -0.01080584712
v 0.008961888845 0.002385164014 -0.006586266682
v 0.008961890708 -0.002387545901 -0.006586270407
v 0.009060704033 -1.193475328e-06 -0.006122959778
v 0.009076552349 -0.003734912854 -0.007824927568
v 0.009076554212 0.003732530735 -0.007824921981
v 0.009141215421 -0.005908786339 -0.01158571759
v 0.009141216485 0.005906410458 -0.01158571759
v 0.009347921121 -0.00121041121 -0.006802912802
v 0.009347924846 0.001208032118 -0.006802910939
v 0.009459390189 0.0006054144033 -0.006871042773
v 0.009599644803 -0.005230587718 -0.01158571759
v 0.009599647418 0.005228210026 -0.01158571759
v 0.009658923256 0.002557038897 -0.008105413988
v 0.009658924188 -0.002559415429 -0.008105413988
v 0.009673096123 -0.004935698249 -0.01115607657
v 0.00967310078 0.004933318924 -0.01115607657
v 0.009686520207 0.003836606964 -0.009433558211
v 0.009686521138 -0.00383898303 -0.009433561936
v 0.009788916049 -0.004938891099 -0.01158571759
v 0.009788920205 0.004936511394 -0.01158571759
v 0.009945306803 -0.004662518577 -0.01158571759
v 0.009945310951 0.004660138484 -0.01158571759
v 0.01009137637 0.00129803257 -0.008352646604
v 0.0100913801 -0.001300411895 -0.008352646604
v 0.01020716212 -1.191117917e-06 -0.008338682353
v 0.01021596591 0.000650931659 -0.008430048823
v 0.0102572412 0.003849409855 -0.01113292947
v 0.01025724493 -0.003851791043 -0.01113292947
v 0.01028026629 0.002630739342 -0.009689811617
v 0.01028026815 -0.002633117736 -0.009689809754
v 0.01038937123 0.003845422821 -0.01158571759
v 0.01038937381 -0.00384780342 -0.01158571759
v 0.01071683306 0.001336557194 -0.009915055707
v 0.01071683678 -0.001338935472 -0.009915061295
v 0.01082051292 0.002835171692 -0.01158571759
v 0.01082051299 -0.002837550092 -0.01158571759
v 0.01083084557 -0.002639000901 -0.01132742874
v 0.01083084557 0.002636624602 -0.01132743247
v 0.01089846133 0.002635971554 -0.01158571759
v 0.01089846237 -0.002638348273 -0.01158571759
v 0.0112169924 -1.191263437e-06 -0.01096928492
v 0.01124523103 0.001338880611 -0.01149703003
v 0.01124523475 -0.001341263429 -0.01149703376
v 0.0112581753 0.001374677432 -0.01158571759
v 0.01125817846 -0.00137705872 -0.01158571759
v 0.01126770222 0.001338676053 -0.01158571759
v 0.01126770505 -0.001341058723 -0.01158571759
v 0.01136278815 -0.0006738706288 -0.01154994033
v 0.01136278815 0.0006714927877 -0.01154994033
v 0.01137067868 0.0006789351003 -0.01158571759
v 0.01137067874 -0.0006813129332 -0.01158571759
v 0.01137174144 -0.0006738243065 -0.01158571759
v 0.01137174147 0.0006714464339 -0.01158571759
v 0.01137231586 -0.0006654838286 -0.01158571759
v 0.01137231586 0.0006631059094 -0.01158571759
v 0.01140463527 -1.191219781e-06 -0.01156958193
v 0.01140872498 -1.191224477e-06 -0.01158571759
f 526 554 566
f 529 554 526
f 380 375 429
f 333 375 380
f 353 364 410
f 587 617 574
f 255 298 281
f 281 302 277
f 140 51 54
f 152 52 44
f 729 744 736
f 603 568 581
f 511 487 520
f 520 556 511
f 574 556 520
f 487 493 520
f 713 695 706
f 691 700 707
f 578 563 611
f 601 556 574
f 556 601 622
f 552 563 578
f 558 563 552
f 530 518 531
f 496 525 486
f 530 525 496
f 496 518 530
f 562 557 593
f 588 600 553
f 553 600 580
f 592 551 580
f 610 599 615
f 595 610 631
f 429 375 422
f 422 465 429
f 434 380 429
f 429 482 434
f 333 380 338
f 350 300 338
f 429 465 475
f 475 482 429
f 661 671 583
f 583 646 661
f 661 646 676
f 583 604 628
f 628 646 583
f 604 593 628
f 583 465 501
f 501 422 415
f 465 422 501
f 481 506 583
f 583 501 481
f 481 501 455
f 277 302 301
f 68 70 74
f 262 279 208
f 171 185 170
f 170 172 159
f 170 160 171
f 170 198 172
f 196 198 170
f 159 140 170
f 326 364 353
f 353 347 326
f 305 339 326
f 326 339 364
f 245 198 208
f 436 410 416
f 492 502 500
f 450 394 453
f 450 391 394
f 541 587 574
f 331 374 325
f 325 318 275
f 480 487 511
f 22 21 24
f 49 52 53
f 52 152 56
f 37 39 40
f 126 83 38
f 42 140 38
f 38 140 126
f 71 70 7
f 54 60 61
f 46 140 42
f 51 140 46
f 71 65 72
f 72 70 71
f 39 84 132
f 44 39 132
f 132 152 44
f 132 143 154
f 154 152 132
f 39 32 29
f 24 84 29
f 29 84 39
f 721 733 707
f 707 700 721
f 717 733 737
f 707 733 717
f 737 733 740
f 751 744 737
f 727 717 737
f 539 568 534
f 539 581 568
f 556 622 582
f 603 581 582
f 582 622 603
f 574 520 527
f 527 520 493
f 527 541 574
f 736 744 752
f 708 732 720
f 736 732 716
f 708 692 716
f 716 732 708
f 741 732 736
f 713 729 712
f 696 688 711
f 711 706 696
f 534 568 564
f 594 563 558
f 594 611 563
f 594 568 603
f 594 564 568
f 574 617 605
f 605 601 574
f 578 611 591
f 591 552 578
f 579 599 554
f 579 554 529
f 529 552 579
f 552 591 579
f 549 526 566
f 549 531 526
f 522 551 543
f 528 553 580
f 580 551 528
f 528 551 522
f 525 553 528
f 551 592 573
f 627 648 611
f 627 594 603
f 611 594 627
f 665 648 627
f 705 727 711
f 717 727 705
f 688 653 682
f 674 705 682
f 711 688 682
f 682 705 711
f 678 691 707
f 665 691 678
f 678 648 665
f 651 682 653
f 674 682 651
f 631 610 635
f 635 610 615
f 566 554 589
f 589 595 566
f 610 595 589
f 554 599 589
f 599 610 589
f 613 630 634
f 613 600 588
f 626 630 596
f 596 595 626
f 585 595 596
f 634 630 657
f 672 695 657
f 626 595 625
f 625 595 631
f 631 659 625
f 567 525 530
f 588 553 567
f 567 553 525
f 530 531 555
f 555 571 530
f 531 549 555
f 372 422 375
f 415 422 372
f 273 220 209
f 311 300 350
f 300 311 253
f 181 209 220
f 143 209 181
f 292 286 333
f 333 338 292
f 292 338 300
f 232 286 292
f 227 286 232
f 227 181 220
f 232 192 227
f 192 181 227
f 322 286 280
f 280 220 273
f 280 227 220
f 286 227 280
f 316 280 273
f 322 280 316
f 350 384 359
f 359 356 350
f 380 434 389
f 350 338 389
f 389 338 380
f 671 703 684
f 570 649 618
f 570 475 465
f 510 475 570
f 437 434 456
f 685 703 671
f 685 661 676
f 671 661 685
f 655 623 642
f 583 506 540
f 540 535 583
f 506 535 540
f 562 593 565
f 569 604 583
f 583 535 569
f 535 565 569
f 569 593 604
f 569 565 593
f 474 455 452
f 474 481 455
f 506 481 474
f 452 469 474
f 228 235 255
f 148 205 139
f 148 127 136
f 258 262 208
f 225 196 199
f 225 233 196
f 250 198 234
f 150 158 167
f 167 140 54
f 167 170 140
f 364 370 395
f 367 339 352
f 172 198 193
f 198 245 193
f 345 347 394
f 394 391 345
f 345 391 387
f 387 334 345
f 244 248 275
f 244 206 248
f 204 206 244
f 462 461 410
f 500 461 462
f 500 502 515
f 587 541 546
f 546 541 500
f 644 639 640
f 652 639 666
f 617 639 652
f 275 248 284
f 284 325 275
f 331 325 284
f 369 360 318
f 318 325 369
f 369 325 374
f 293 303 315
f 318 360 309
f 518 496 495
f 476 493 487
f 476 450 453
f 440 403 387
f 397 403 432
f 403 440 432
f 379 397 374
f 379 403 397
f 379 374 331
f 331 334 379
f 379 334 387
f 387 403 379
f 298 313 336
f 336 313 355
f 355 361 336
f 282 235 237
f 282 313 298
f 282 298 255
f 255 235 282
f 59 56 62
f 41 43 42
f 28 38 83
f 9 6 3
f 12 65 71
f 71 7 12
f 48 46 47
f 51 50 55
f 67 72 65
f 73 72 67
f 139 143 137
f 143 132 137
f 137 148 139
f 127 148 137
f 68 78 82
f 32 33 31
f 35 32 39
f 116 128 133
f 133 127 116
f 136 127 133
f 733 721 731
f 731 740 733
f 744 751 759
f 759 752 744
f 746 751 737
f 737 740 746
f 744 729 728
f 737 744 728
f 728 727 737
f 711 727 728
f 728 729 713
f 728 706 711
f 713 706 728
f 581 539 544
f 544 582 581
f 544 539 511
f 511 556 544
f 556 582 544
f 533 503 534
f 534 564 533
f 454 480 473
f 479 488 449
f 529 526 499
f 730 720 732
f 732 741 730
f 745 741 736
f 736 752 745
f 726 712 729
f 726 729 736
f 736 716 726
f 697 706 695
f 697 696 706
f 697 695 672
f 672 696 697
f 561 594 558
f 564 594 561
f 561 533 564
f 575 549 566
f 566 595 575
f 575 595 585
f 575 555 549
f 585 571 575
f 571 555 575
f 562 565 532
f 532 565 535
f 486 525 498
f 525 528 498
f 498 528 522
f 545 543 551
f 551 573 545
f 545 573 557
f 693 705 674
f 693 678 707
f 707 717 693
f 717 705 693
f 648 678 656
f 656 693 674
f 678 693 656
f 658 659 631
f 631 635 658
f 658 635 653
f 658 653 688
f 688 696 658
f 672 659 658
f 658 696 672
f 600 613 616
f 621 600 616
f 616 636 621
f 634 636 616
f 616 613 634
f 576 571 585
f 585 596 576
f 530 571 576
f 576 567 530
f 660 659 672
f 672 657 660
f 660 630 626
f 660 657 630
f 327 375 333
f 327 372 375
f 333 286 327
f 327 286 322
f 415 372 368
f 368 401 415
f 368 327 322
f 372 327 368
f 207 143 139
f 207 209 143
f 139 205 207
f 273 209 207
f 288 253 295
f 239 203 257
f 192 203 183
f 300 253 246
f 246 292 300
f 232 292 246
f 246 192 232
f 246 203 192
f 452 421 426
f 424 426 390
f 390 426 421
f 337 307 296
f 296 330 337
f 290 330 296
f 296 261 290
f 310 316 273
f 357 316 310
f 205 261 265
f 265 296 307
f 261 296 265
f 455 501 431
f 415 401 431
f 357 390 396
f 396 390 421
f 679 684 690
f 583 671 667
f 671 684 667
f 550 475 510
f 482 475 550
f 583 570 538
f 538 465 583
f 538 570 465
f 510 570 548
f 548 570 559
f 548 550 510
f 559 550 548
f 690 684 699
f 676 694 701
f 701 685 676
f 701 694 708
f 708 720 701
f 621 636 632
f 642 623 632
f 612 628 593
f 612 593 557
f 557 573 612
f 612 573 592
f 592 623 612
f 623 655 647
f 628 612 647
f 647 612 623
f 504 469 508
f 504 535 506
f 506 474 504
f 504 474 469
f 504 532 535
f 508 532 504
f 522 543 517
f 508 469 471
f 343 330 320
f 301 306 278
f 277 301 278
f 278 251 277
f 255 281 249
f 249 228 255
f 249 281 277
f 277 251 249
f 120 82 78
f 155 122 120
f 120 122 108
f 168 148 136
f 136 133 168
f 252 258 208
f 248 206 219
f 126 140 141
f 141 206 204
f 665 627 645
f 603 622 645
f 645 627 603
f 453 394 399
f 399 457 453
f 353 410 399
f 410 461 399
f 461 457 399
f 399 347 353
f 394 347 399
f 497 527 493
f 541 527 497
f 453 457 497
f 500 541 497
f 497 476 453
f 493 476 497
f 497 461 500
f 497 457 461
f 560 546 547
f 587 546 597
f 617 587 597
f 597 639 617
f 638 605 617
f 617 652 638
f 638 652 662
f 638 622 601
f 601 605 638
f 638 645 622
f 662 645 638
f 670 652 666
f 702 686 670
f 662 652 670
f 670 686 662
f 392 397 427
f 374 397 392
f 392 369 374
f 315 313 269
f 269 293 315
f 269 282 237
f 313 282 269
f 275 318 271
f 318 309 271
f 271 244 275
f 376 355 412
f 376 361 355
f 494 531 518
f 518 495 494
f 526 531 494
f 494 495 460
f 494 499 526
f 466 476 487
f 450 476 466
f 487 480 466
f 466 480 454
f 454 432 466
f 466 432 440
f 298 336 328
f 328 336 361
f 302 281 328
f 328 281 298
f 169 188 163
f 163 188 156
f 98 69 64
f 64 56 152
f 64 152 154
f 64 103 98
f 62 56 63
f 56 59 58
f 30 28 26
f 5 11 14
f 8 12 7
f 18 84 24
f 15 14 65
f 51 55 57
f 147 153 109
f 92 132 84
f 92 137 132
f 119 128 116
f 116 122 119
f 119 122 128
f 236 186 202
f 312 268 283
f 283 268 238
f 236 283 238
f 238 186 236
f 238 268 230
f 739 743 740
f 700 686 718
f 718 686 702
f 718 721 700
f 718 731 721
f 751 755 757
f 750 746 748
f 479 472 513
f 513 488 479
f 454 473 451
f 451 432 454
f 427 397 451
f 397 432 451
f 503 473 505
f 511 539 505
f 505 480 511
f 505 473 480
f 505 539 534
f 534 503 505
f 417 449 413
f 413 378 417
f 412 413 441
f 441 413 449
f 441 488 467
f 441 449 488
f 423 392 427
f 351 309 360
f 315 303 351
f 303 309 351
f 386 423 420
f 386 351 360
f 378 351 386
f 386 420 417
f 417 378 386
f 392 423 386
f 360 369 386
f 369 392 386
f 467 488 490
f 490 499 467
f 758 756 752
f 741 742 738
f 703 685 719
f 685 701 719
f 720 730 719
f 719 701 720
f 747 745 749
f 712 681 687
f 687 695 713
f 713 712 687
f 687 657 695
f 704 681 712
f 704 716 692
f 704 726 716
f 712 726 704
f 650 632 636
f 642 632 650
f 692 655 673
f 673 704 692
f 681 704 673
f 673 650 681
f 673 655 642
f 642 650 673
f 536 532 508
f 543 545 536
f 536 545 557
f 536 557 562
f 562 532 536
f 484 478 458
f 674 651 643
f 643 656 674
f 584 576 596
f 567 576 584
f 588 567 584
f 584 613 588
f 630 613 584
f 584 596 630
f 629 625 659
f 659 660 629
f 626 625 629
f 629 660 626
f 322 316 363
f 363 368 322
f 363 316 357
f 401 368 363
f 357 396 363
f 363 396 401
f 311 332 324
f 319 311 324
f 212 276 263
f 212 246 253
f 190 177 178
f 154 143 157
f 143 181 157
f 447 469 452
f 452 426 447
f 447 426 424
f 447 471 469
f 349 307 337
f 349 390 357
f 357 310 349
f 349 310 307
f 273 207 267
f 267 310 273
f 267 207 205
f 205 265 267
f 307 310 267
f 267 265 307
f 438 501 415
f 415 431 438
f 438 431 501
f 428 421 452
f 428 396 421
f 452 455 428
f 425 393 389
f 542 550 572
f 482 550 514
f 590 586 559
f 609 602 570
f 609 570 618
f 489 483 482
f 482 519 489
f 606 623 592
f 606 632 623
f 580 600 606
f 606 592 580
f 646 628 664
f 628 647 664
f 676 646 664
f 664 694 676
f 460 495 459
f 459 496 486
f 459 495 496
f 463 468 443
f 463 459 486
f 406 459 463
f 443 408 463
f 463 408 406
f 508 471 512
f 512 471 478
f 512 536 508
f 512 517 543
f 543 536 512
f 337 330 377
f 330 343 377
f 373 400 377
f 411 468 458
f 443 468 411
f 411 408 443
f 400 411 414
f 254 278 306
f 254 283 236
f 251 278 254
f 70 72 86
f 129 135 162
f 82 120 88
f 96 92 88
f 108 96 88
f 88 120 108
f 84 82 88
f 88 92 84
f 237 235 187
f 187 188 237
f 187 156 188
f 247 261 218
f 205 148 215
f 148 168 215
f 168 218 215
f 215 261 205
f 215 218 261
f 189 238 230
f 155 186 189
f 186 238 189
f 352 339 348
f 339 342 348
f 317 339 305
f 305 285 317
f 308 285 304
f 172 193 226
f 256 284 248
f 248 219 256
f 219 226 256
f 144 141 140
f 144 140 159
f 159 151 144
f 700 691 675
f 675 686 700
f 675 691 665
f 662 686 675
f 665 645 675
f 675 645 662
f 608 597 598
f 683 670 666
f 683 680 689
f 702 670 683
f 689 698 683
f 237 188 231
f 231 269 237
f 266 309 303
f 266 271 309
f 204 244 242
f 244 271 242
f 242 241 204
f 242 266 241
f 271 266 242
f 450 466 442
f 442 466 440
f 391 450 442
f 387 391 442
f 442 440 387
f 124 125 163
f 163 156 124
f 26 28 25
f 65 14 19
f 19 83 65
f 12 8 10
f 66 18 9
f 66 70 68
f 84 18 66
f 66 9 7
f 66 7 70
f 68 82 66
f 66 82 84
f 117 156 147
f 147 109 117
f 73 67 75
f 75 109 73
f 75 117 109
f 85 86 72
f 127 137 123
f 123 92 127
f 137 92 123
f 127 92 105
f 108 122 105
f 165 129 162
f 120 129 165
f 299 306 358
f 299 312 283
f 283 254 299
f 299 254 306
f 314 294 268
f 268 312 314
f 320 330 314
f 314 330 290
f 290 294 314
f 272 294 290
f 272 261 247
f 290 261 272
f 268 294 272
f 247 230 272
f 230 268 272
f 754 755 751
f 509 513 472
f 503 533 509
f 488 513 516
f 470 451 473
f 470 473 503
f 503 509 470
f 470 509 472
f 444 472 479
f 479 449 444
f 444 449 417
f 417 420 444
f 315 351 344
f 344 313 315
f 355 313 344
f 344 351 378
f 752 756 753
f 657 687 654
f 654 687 681
f 634 657 654
f 681 650 654
f 654 636 634
f 654 650 636
f 522 517 507
f 478 484 507
f 507 512 478
f 517 512 507
f 491 507 484
f 458 468 491
f 491 484 458
f 491 498 522
f 522 507 491
f 615 599 619
f 607 619 599
f 599 579 607
f 607 579 591
f 648 656 624
f 656 643 624
f 611 648 624
f 624 591 611
f 624 607 591
f 260 212 263
f 216 178 221
f 190 178 216
f 180 178 154
f 154 157 180
f 183 178 180
f 180 157 181
f 180 181 192
f 192 183 180
f 401 396 433
f 396 428 433
f 433 431 401
f 455 431 433
f 433 428 455
f 577 572 550
f 621 632 614
f 632 606 614
f 614 600 621
f 614 606 600
f 694 664 677
f 708 694 677
f 677 692 708
f 677 655 692
f 677 647 655
f 677 664 647
f 406 408 382
f 407 459 406
f 460 459 407
f 486 498 485
f 485 463 486
f 468 463 485
f 498 491 485
f 485 491 468
f 408 411 388
f 358 382 388
f 388 382 408
f 388 354 358
f 478 471 445
f 471 447 445
f 402 377 400
f 400 414 402
f 176 175 197
f 134 85 109
f 134 109 153
f 243 249 251
f 251 213 243
f 228 249 243
f 243 213 228
f 197 213 195
f 195 176 197
f 228 213 200
f 200 213 197
f 200 175 179
f 197 175 200
f 110 86 135
f 135 129 110
f 76 120 78
f 76 129 120
f 76 110 129
f 74 110 76
f 68 74 76
f 76 78 68
f 201 187 235
f 235 228 201
f 201 200 179
f 228 200 201
f 179 153 174
f 174 201 179
f 187 201 174
f 174 153 147
f 147 156 174
f 156 187 174
f 211 218 168
f 155 189 164
f 164 189 168
f 164 122 155
f 128 122 164
f 164 133 128
f 164 168 133
f 172 226 182
f 182 226 219
f 159 172 182
f 182 151 159
f 206 151 182
f 182 219 206
f 274 193 245
f 274 226 193
f 245 285 274
f 274 285 305
f 284 256 287
f 287 334 331
f 331 284 287
f 142 144 151
f 141 144 142
f 142 151 206
f 206 141 142
f 241 266 270
f 269 231 270
f 293 269 270
f 303 293 270
f 270 266 303
f 430 376 412
f 412 441 430
f 430 441 467
f 467 439 430
f 477 494 460
f 477 439 467
f 467 499 477
f 499 494 477
f 163 125 131
f 131 169 163
f 126 141 130
f 141 138 130
f 130 131 121
f 138 131 130
f 23 28 83
f 83 19 23
f 13 10 14
f 14 15 13
f 13 15 65
f 65 12 13
f 12 10 13
f 113 124 156
f 156 117 113
f 113 111 124
f 83 87 81
f 87 117 81
f 65 83 81
f 81 67 65
f 79 72 73
f 79 85 72
f 73 109 79
f 109 85 79
f 97 134 135
f 112 122 116
f 112 105 122
f 116 127 112
f 127 105 112
f 100 92 96
f 100 105 92
f 173 202 186
f 173 165 202
f 120 165 173
f 173 186 155
f 155 120 173
f 362 354 373
f 373 377 362
f 362 377 343
f 329 343 320
f 329 362 343
f 354 362 329
f 320 314 329
f 329 314 312
f 358 354 335
f 335 299 358
f 312 299 335
f 335 329 312
f 354 329 335
f 718 722 724
f 714 722 718
f 529 499 521
f 499 490 521
f 521 552 529
f 521 490 488
f 488 516 521
f 558 552 537
f 537 561 558
f 533 561 537
f 537 509 533
f 513 509 537
f 427 451 446
f 451 470 446
f 446 423 427
f 420 423 446
f 446 444 420
f 446 470 472
f 472 444 446
f 355 344 371
f 371 344 378
f 412 355 371
f 371 413 412
f 378 413 371
f 725 723 719
f 719 723 715
f 615 619 637
f 637 635 615
f 637 651 653
f 653 635 637
f 633 637 619
f 607 624 633
f 651 637 633
f 203 246 210
f 246 212 210
f 340 328 361
f 302 328 340
f 385 365 405
f 460 407 405
f 405 407 385
f 366 365 385
f 406 382 366
f 366 407 406
f 385 407 366
f 398 388 411
f 398 400 373
f 398 411 400
f 373 354 398
f 354 388 398
f 458 478 448
f 478 445 448
f 448 411 458
f 448 414 411
f 419 447 424
f 419 445 447
f 175 176 146
f 135 134 146
f 162 135 146
f 146 176 162
f 161 153 179
f 161 134 153
f 179 175 161
f 202 195 229
f 236 202 229
f 229 254 236
f 251 254 229
f 229 213 251
f 229 195 213
f 202 165 184
f 184 195 202
f 184 165 162
f 162 176 184
f 176 195 184
f 80 110 74
f 86 110 80
f 80 74 70
f 70 86 80
f 223 211 230
f 218 211 223
f 223 230 247
f 247 218 223
f 168 189 191
f 191 211 168
f 191 189 230
f 230 211 191
f 305 326 297
f 297 274 305
f 297 326 347
f 291 345 334
f 334 287 291
f 347 345 291
f 291 297 347
f 291 287 256
f 169 217 194
f 188 169 194
f 194 231 188
f 204 241 214
f 241 217 214
f 214 217 169
f 241 270 240
f 240 270 231
f 240 217 241
f 169 131 149
f 149 131 138
f 204 214 149
f 149 214 169
f 149 141 204
f 149 138 141
f 125 124 118
f 121 131 114
f 131 111 114
f 114 130 121
f 91 87 83
f 91 83 126
f 126 130 91
f 107 113 117
f 77 75 67
f 67 81 77
f 117 75 77
f 77 81 117
f 86 85 90
f 135 86 90
f 85 134 89
f 89 90 85
f 105 100 102
f 102 96 108
f 102 100 96
f 552 521 524
f 524 521 516
f 524 537 552
f 524 516 513
f 513 537 524
f 619 607 620
f 620 633 619
f 607 633 620
f 641 624 643
f 641 633 624
f 641 643 651
f 651 633 641
f 381 340 361
f 365 340 381
f 381 405 365
f 361 376 381
f 321 301 302
f 302 340 321
f 439 477 435
f 435 477 460
f 460 405 435
f 445 419 418
f 418 402 414
f 377 402 418
f 414 448 418
f 418 448 445
f 424 390 383
f 383 349 337
f 390 349 383
f 337 377 383
f 145 146 134
f 134 161 145
f 175 146 145
f 145 161 175
f 274 297 264
f 297 291 264
f 226 274 264
f 264 256 226
f 264 291 256
f 231 194 222
f 222 194 217
f 222 240 231
f 217 240 222
f 124 111 115
f 115 118 124
f 115 111 131
f 115 131 125
f 125 118 115
f 94 97 135
f 135 90 94
f 108 105 106
f 106 102 108
f 105 102 106
f 341 306 301
f 301 321 341
f 358 306 341
f 341 382 358
f 341 366 382
f 365 366 346
f 346 340 365
f 346 321 340
f 366 341 346
f 346 341 321
f 439 435 409
f 409 430 439
f 405 381 409
f 409 435 405
f 376 430 409
f 409 381 376
f 404 418 419
f 404 419 424
f 424 383 404
f 377 418 404
f 404 383 377
f 95 117 87
f 95 107 117
f 87 91 95
f 91 99 95
f 104 99 91
f 104 114 111
f 111 113 104
f 130 114 104
f 104 91 130
f 113 107 104
f 90 89 93
f 93 94 90
f 97 94 93
f 134 97 93
f 93 89 134
f 107 95 101
f 101 95 99
f 101 104 107
f 99 104 101
f 45 52 49
f 44 52 45
f 170 185 199
f 199 196 170
f 44 45 40
f 40 39 44
f 50 46 48
f 51 46 50
f 27 22 29
f 29 22 24
f 456 434 482
f 482 483 456
f 196 233 234
f 234 198 196
f 158 160 167
f 160 170 167
f 167 61 150
f 54 61 167
f 416 410 395
f 395 410 364
f 367 370 364
f 364 339 367
f 208 279 289
f 289 245 208
f 668 639 644
f 666 639 668
f 462 436 464
f 410 436 462
f 464 492 462
f 462 492 500
f 546 515 547
f 500 515 546
f 42 38 41
f 41 38 36
f 9 3 1
f 1 7 9
f 42 43 47
f 47 46 42
f 27 29 31
f 31 29 32
f 746 743 748
f 740 743 746
f 747 742 745
f 745 742 741
f 350 356 332
f 332 311 350
f 295 311 319
f 295 253 311
f 393 384 350
f 350 389 393
f 663 570 583
f 649 570 663
f 669 663 667
f 667 663 583
f 667 679 669
f 684 679 667
f 699 684 703
f 703 710 699
f 208 198 252
f 252 198 250
f 597 560 598
f 546 560 597
f 166 103 64
f 154 166 64
f 56 64 63
f 63 64 69
f 58 53 52
f 52 56 58
f 36 38 30
f 38 28 30
f 18 21 16
f 24 21 18
f 16 6 18
f 6 9 18
f 57 60 54
f 54 51 57
f 34 39 37
f 34 35 39
f 34 33 32
f 32 35 34
f 739 731 735
f 740 731 739
f 760 759 757
f 757 759 751
f 758 759 760
f 752 759 758
f 734 730 738
f 738 730 741
f 288 276 212
f 212 253 288
f 224 203 239
f 224 183 203
f 178 224 221
f 183 224 178
f 177 166 178
f 178 166 154
f 425 434 437
f 425 389 434
f 523 519 514
f 514 519 482
f 542 523 514
f 514 550 542
f 559 570 590
f 570 602 590
f 323 342 317
f 317 342 339
f 308 323 317
f 317 285 308
f 245 289 304
f 304 285 245
f 608 640 639
f 639 597 608
f 666 668 683
f 668 680 683
f 683 698 709
f 683 709 702
f 2 7 1
f 2 8 7
f 4 5 10
f 10 5 14
f 10 2 4
f 8 2 10
f 751 746 754
f 746 750 754
f 753 745 752
f 753 749 745
f 559 586 577
f 577 550 559
f 14 11 17
f 17 19 14
f 20 25 23
f 23 25 28
f 23 17 20
f 19 17 23
f 735 731 724
f 731 718 724
f 702 709 714
f 714 718 702
f 725 730 734
f 725 719 730
f 715 710 703
f 703 719 715
f 150 61 259
f 263 276 259
f 259 158 150
f 259 6 16
f 259 663 669
f 259 177 190
f 259 698 689
f 26 25 259
f 279 262 259
f 259 289 279
f 259 252 250
f 37 40 259
f 416 395 259
f 259 260 263
f 689 680 259
f 259 22 27
f 11 5 259
f 437 456 259
f 259 753 756
f 259 758 760
f 199 185 259
f 690 699 259
f 464 436 259
f 259 295 319
f 747 749 259
f 1 3 259
f 308 304 259
f 259 50 48
f 259 45 49
f 259 739 735
f 618 649 259
f 259 523 542
f 171 160 259
f 259 185 171
f 259 367 352
f 259 515 502
f 259 492 464
f 259 166 177
f 319 324 259
f 98 103 259
f 16 21 259
f 49 53 259
f 53 58 259
f 259 41 36
f 27 31 259
f 259 750 748
f 259 34 37
f 259 359 384
f 259 425 437
f 259 160 158
f 259 609 618
f 259 225 199
f 250 234 259
f 259 436 416
f 502 492 259
f 483 489 259
f 259 103 166
f 3 6 259
f 21 22 259
f 259 69 98
f 259 40 45
f 259 59 62
f 259 30 26
f 259 61 60
f 48 47 259
f 60 57 259
f 259 2 1
f 356 359 259
f 259 224 239
f 259 679 690
f 586 590 259
f 259 456 483
f 755 754 259
f 262 258 259
f 233 225 259
f 259 234 233
f 259 395 370
f 259 323 308
f 370 367 259
f 352 348 259
f 259 668 644
f 547 515 259
f 644 640 259
f 598 560 259
f 62 63 259
f 43 41 259
f 259 608 598
f 259 47 43
f 259 55 50
f 259 31 33
f 748 743 259
f 709 698 259
f 760 757 259
f 734 738 259
f 259 742 747
f 259 332 356
f 259 276 288
f 288 295 259
f 239 257 259
f 384 393 259
f 649 663 259
f 669 679 259
f 542 572 259
f 259 519 523
f 259 699 710
f 258 252 259
f 259 342 323
f 259 680 668
f 259 560 547
f 259 63 69
f 259 58 59
f 36 30 259
f 259 577 586
f 259 5 4
f 259 57 55
f 33 34 259
f 743 739 259
f 259 757 755
f 259 17 11
f 756 758 259
f 259 738 742
f 259 714 709
f 259 324 332
f 221 224 259
f 393 425 259
f 190 216 259
f 259 590 602
f 602 609 259
f 259 489 519
f 259 348 342
f 259 304 289
f 640 608 259
f 259 25 20
f 4 2 259
f 735 724 259
f 259 754 750
f 259 725 734
f 749 753 259
f 710 715 259
f 259 216 221
f 572 577 259
f 20 17 259
f 259 724 722
f 722 714 259
f 723 725 259
f 259 715 723
f 259 257 203
f 203 210 259
f 212 260 259
f 259 210 212
