v -0.008235954333 -0.0003997628048 -0.01498998845
v -0.008235875336 -0.0004219977577 -0.01498998845
v -0.008235455573 -0.0004597025086 -0.01498998845
v -0.008233539942 -0.0005350678948 -0.01498998845
v -0.0082254084 -0.0006855797977 -0.01498998845
v -0.008213147309 2.199983034e-05 -0.01498998845
v -0.008189960884 -0.001179065646 -0.01498998845
v -0.008177973949 0.0005145760729 -0.01498998845
v -0.008156530822 -0.001478040597 -0.01498998845
v -0.008155356228 0.0006871504951 -0.01498998845
v -0.008144420795 -0.0015534741 -0.01498998845
v -0.008112215541 0.0009189656067 -0.01498998845
v -0.008111780623 -0.001722990763 -0.01498998845
v -0.008013463831 0.001399745452 -0.01498998845
v -0.008012772385 -0.002205590166 -0.01498998845
v -0.007999999565 -0.0006000063295 -0.001190075651
v -0.007999864523 -0.0006447638298 -0.001191481948
v -0.007999067311 -0.0007206424925 -0.001194290817
v -0.007995335502 -0.0008722239145 -0.001201560721
v -0.007984720287 -0.0006473282265 -0.001114632934
v -0.007984530297 -0.0005992312072 -0.001113628969
v -0.007983897929 -0.0007236464735 -0.001117477193
v -0.007980098133 -0.0008760979836 -0.001124864444
v -0.007979348418 -0.001174460966 -0.001222968102
v -0.007977156085 -0.0005990934005 -0.001097803935
v -0.007974293575 0.001562624188 -0.01498998845
v -0.00796389312 -0.001180077423 -0.001146644354
v -0.007955158246 0.0002484471916 -0.001248188317
v -0.007941370015 -0.0005988035846 -0.001048723236
v -0.007939865929 -0.0007256931131 -0.001053057611
v -0.007936071721 -0.0008782826917 -0.001060519367
v -0.007925796288 -0.002539092621 -0.01498998845
v -0.007923271314 0.001740058089 -0.01498998845
v -0.007919904892 -0.001182557302 -0.001082556322
v -0.007918641198 -0.002562150656 -0.01498998845
v -0.007914549788 -0.0005988066987 -0.00102632679
v -0.00791350205 -0.001773206037 -0.00129486993
v -0.007910641958 0.000594952915 -0.001296021044
v -0.007897212286 -0.001782868509 -0.001220017672
v -0.007894145441 0.0006045404734 -0.001221314073
v -0.007889718865 -0.001923587392 -0.001319993287
v -0.007876481046 -0.0005990093778 -0.001005511731
v -0.00787524425 -0.0007265553431 -0.001009298488
v -0.007871510577 -0.0008785800746 -0.001016769558
v -0.007855570992 -0.001181778833 -0.001038864255
v -0.007853395422 -0.001786560038 -0.001156892627
v -0.00785115466 0.000608271177 -0.001157576218
v -0.0078377967 -0.000726473445 -0.000997742638
v -0.007834835094 -0.000599453444 -0.000993186608
v -0.007826204528 0.001058211332 -0.001388827339
v -0.007825870183 -0.002260011723 -0.001389246434
v -0.007799998973 -0.0006000027206 -0.0009899884462
v -0.007799090934 -0.0007260222774 -0.0009944401681
v -0.007795451325 -0.0008768343105 -0.001001844183
v -0.007789978874 -0.001784180975 -0.001113394275
v -0.007787515526 0.0006054958358 -0.001114500687
v -0.007779864711 -0.001177661688 -0.001023726538
v -0.007772141025 0.002199062355 -0.01498998845
v -0.007767306657 -0.003023526213 -0.01498998845
v -0.007754835417 -0.001462370143 -0.001053588465
v -0.007749864017 0.001382919625 -0.001477064565
v -0.007715663989 -0.001775742494 -0.001097450033
v -0.00769453228 0.0007155114581 -0.001118937507
v -0.007682487485 -0.001986654694 -0.001134499907
v -0.007657363556 0.002517854436 -0.01498998845
v -0.007657163893 -0.002916752928 -0.00159156695
v -0.007651298423 0.001734282952 -0.001598007977
v -0.007643419434 -0.002961688544 -0.001609209925
v -0.007637163741 -0.00293731979 -0.001524414867
v -0.007630964858 0.001755058431 -0.001531591639
v -0.00759392709 -0.002947145942 -0.001466635615
v -0.007593280184 0.00266542709 -0.01498998845
v -0.007588357781 0.001765497858 -0.001473858953
v -0.007572124525 -0.003527129143 -0.01498998845
v -0.007559002494 -0.002582988804 -0.001282220706
v -0.007534274017 -0.002945682136 -0.001424847171
v -0.007528697257 0.001764107627 -0.001432629302
v -0.007478177664 -0.0006000015856 -0.0009899996221
v -0.007476398838 -0.0006506550853 -0.0009916089475
v -0.007466902141 -0.0007000012411 -0.0009934306145
v -0.007465734263 -0.002932547693 -0.001405758783
v -0.007452632417 -0.0009491665842 -0.001006364822
v -0.007452274789 0.001777593643 -0.001423489302
v -0.00743163575 0.002362280517 -0.001897312701
v -0.007420631242 -0.00308314139 -0.001468464732
v -0.007416071487 0.0001856848976 -0.001044483855
v -0.00740228482 0.003091797031 -0.01498998845
v -0.007400129286 -0.003932591393 -0.01498998845
v -0.007380766824 0.003137843935 -0.01498998845
v -0.007372235996 -0.00165635148 -0.001079052687
v -0.007311707479 -0.001984808929 -0.001134300604
v -0.00731133495 0.002648411915 -0.002073720098
v -0.007306646181 -0.004112308402 -0.01498998845
v -0.007301812177 0.000847997042 -0.001146811992
v -0.007273383555 -0.003931323168 -0.002131110057
v -0.007270714385 0.002738328316 -0.002134280279
v -0.007256692392 -0.003560418132 -0.001709898934
v -0.007251053234 -0.003953890046 -0.002072451636
v -0.007246195455 0.00276530291 -0.002078838646
v -0.007241892745 -0.002278635613 -0.001198373735
v -0.007208924857 -0.003968749763 -0.002023404464
v -0.007204550435 0.002780189636 -0.002029456198
v -0.007191458392 0.003488944806 -0.01498998845
v -0.007154492778 -0.003970224046 -0.001985520124
v -0.007150102523 0.002781199422 -0.001991689205
v -0.007144062896 0.001418712447 -0.001293495297
v -0.007093680208 -0.003957608584 -0.001963693649
v -0.007086926256 0.002772900873 -0.00197265856
v -0.007054599118 -0.0028407754 -0.001369899139
v -0.007035030168 -0.00408695043 -0.002056349069
v -0.007031963715 -0.00461957801 -0.01498998845
v -0.007005553809 0.001778518214 -0.001423655078
v -0.006972757952 0.003874755175 -0.01498998845
v -0.006949646515 -0.003082583527 -0.00146770291
v -0.006943629605 -0.004777181582 -0.01498998845
v -0.00692115922 0.003411393976 -0.002661675215
v -0.006920298678 0.001960880953 -0.001502873376
v -0.006897372562 0.003987853732 -0.01498998845
v -0.006843169621 -0.004938621977 -0.01498998845
v -0.006819245522 -0.004783018361 -0.002821557224
v -0.006817876974 -0.004978753048 -0.01498998845
v -0.006809637067 -0.00336140288 -0.001601070166
v -0.006787927006 -0.004817220251 -0.002782901749
v -0.006782235694 0.003625508063 -0.002791417763
v -0.006777283852 -0.004850669167 -0.002888917923
v -0.006769362022 -0.004608919247 -0.002480033785
v -0.006747644511 -0.00483325297 -0.002742270008
v -0.006742269383 0.003641937525 -0.002751031891
v -0.006725585048 0.004237198866 -0.01498998845
v -0.006698522368 -0.004836474414 -0.002708980814
v -0.006693274365 0.003645254663 -0.002718089148
v -0.00667700482 -0.005180100617 -0.01498998845
v -0.006623122958 0.002480625772 -0.00178210251
v -0.006602747482 0.003696969841 -0.002758607268
v -0.006580942611 -0.005316562892 -0.01498998845
v -0.00655653479 0.003772820943 -0.002839934081
v -0.00654898223 -0.004985158201 -0.002854030579
v -0.006546261837 -0.005185623522 -0.003198184073
v -0.006542499294 0.003991115504 -0.003206100315
v -0.006506986101 -0.005203178953 -0.00316391699
v -0.006504073855 -0.003864436279 -0.00190009363
v -0.006503496901 0.004008771517 -0.003171883523
v -0.006491524539 0.004575218948 -0.01498998845
v -0.006478783072 -0.005459869041 -0.01498998845
v -0.006477960036 0.004094604999 -0.003423821181
v -0.00646058342 -0.005208883769 -0.003134930506
v -0.006457187352 0.004014325925 -0.003143068403
v -0.006394577329 -0.005407227538 -0.00359909609
v -0.006389159975 -0.005580342383 -0.01498998845
v -0.00635290856 -0.00408344889 -0.002053542063
v -0.00633818761 -0.005310833323 -0.003262978047
v -0.0063221358 -0.005492045413 -0.003669468686
v -0.00631920353 0.004295776263 -0.003677424043
v -0.006283821189 -0.005511432289 -0.003643423319
v -0.006281115231 0.004315237646 -0.003651507199
v -0.006242983762 0.004873189942 -0.01498998845
v -0.006239909329 -0.005520283114 -0.003620712087
v -0.006237305352 0.004323995337 -0.003628980368
v -0.006211530826 -0.005795568176 -0.01498998845
v -0.006201455486 0.004306480419 -0.003583176062
v -0.006196760689 -0.00551321391 -0.003594417125
v -0.006169430097 0.004492877648 -0.004215821624
v -0.006156530697 0.004976806746 -0.01498998845
v -0.006138562341 -0.005721929818 -0.004196226597
v -0.006136922282 0.004523790107 -0.004203248769
v -0.006112130475 -0.005761567838 -0.004427421838
v -0.006101095234 -0.005742447785 -0.004178559408
v -0.006099644699 0.004544354175 -0.004185676575
v -0.006085582657 -0.005940667098 -0.01498998845
v -0.006074892676 0.005071468223 -0.01498998845
v -0.006059104227 -0.005753659978 -0.004162795842
v -0.006057752413 0.004555483014 -0.004170067608
v -0.006055611302 -0.004489163737 -0.002375034615
v -0.006038088468 -0.005848090965 -0.004771994427
v -0.006031327532 -0.005734055638 -0.004091586918
v -0.006009831818 -0.006024746286 -0.01498998845
v -0.006007031654 -0.005876582916 -0.004760403186
v -0.00600639137 0.004677225501 -0.004766028374
v -0.005979603739 -0.004588938653 -0.002462297678
v -0.005977001151 0.005172368971 -0.01498998845
v -0.005970217404 -0.005897377021 -0.004749361426
v -0.005969750811 0.004698012155 -0.004755044356
v -0.005965021117 -0.006074140987 -0.01498998845
v -0.005949016777 -0.005948707796 -0.005387963727
v -0.00592949579 -0.005909675136 -0.004739385098
v -0.005929117207 0.004710190595 -0.004745151848
v -0.005910150188 -0.00613051735 -0.01498998845
v -0.00590066344 -0.005896547213 -0.004655925557
v -0.005871486035 -0.006027577314 -0.005933785811
v -0.005839366582 -0.005968721453 -0.005038797855
v -0.005835395423 -0.006047983523 -0.00593017973
v -0.005795864039 -0.006060571279 -0.005926884711
v -0.005773385689 -0.006262438821 -0.01498998845
v -0.005767023049 0.0053775914 -0.01498998845
v -0.005728895678 -0.006302640059 -0.01498998845
v -0.005687167984 -0.004959905855 -0.002826115116
v -0.005686921883 0.005455825678 -0.01498998845
v -0.005534246491 -0.006461233665 -0.01498998845
v -0.005513747698 0.005611156082 -0.01498998845
v -0.005453584428 -0.006515910398 -0.01498998845
v -0.005398833096 0.005708661023 -0.01498998845
v -0.005397929926 -0.005302682388 -0.003251669928
v -0.005315418298 -0.006605842899 -0.01498998845
v -0.00525370019 -0.005460927132 -0.003500603139
v -0.005202130065 -0.005514558739 -0.003596767783
v -0.005139537272 -0.005577211603 -0.003719028085
v -0.005109618226 -0.006724682655 -0.01498998845
v -0.005088349077 -0.00673677055 -0.01498998845
v -0.004882812616 -0.005800936706 -0.004292240366
v -0.00485877888 -0.006849993447 -0.01498998845
v -0.004724713622 0.006268438398 -0.01498998845
v -0.004544939628 -0.006986465486 -0.01498998845
v -0.00426648173 -0.007092077252 -0.01498998845
v -0.00422234811 0.006664781424 -0.01498998845
v -0.0041983198 0.006680694722 -0.01498998845
v -0.004172211164 0.006566433833 -0.01332134381
v -0.004088653834 0.006328503732 -0.01073573343
v -0.004080544627 0.006723661516 -0.01498998845
v -0.004017728268 -0.007178600693 -0.01498998845
v -0.004012007383 -0.007180450929 -0.01498998845
v -0.004002242466 0.006180758719 -0.009421242401
v -0.003953937358 0.006768850151 -0.01498998845
v -0.003898423281 0.006615795792 -0.01267326064
v -0.003790122718 0.00682711218 -0.01498998845
v -0.003772177384 0.006447721404 -0.01079580747
v -0.003745705006 0.006204271354 -0.008941084146
v -0.003727491596 0.003362135161 -0.002230700105
v -0.003722238936 0.0005734600272 -0.001544093713
v -0.003721821238 -0.0009754627099 -0.001544097438
v -0.003718707361 0.0001880348573 -0.001534966752
v -0.003718498745 -0.0005900359683 -0.00153497234
v -0.003714481951 -0.0002009970596 -0.001533010975
v -0.003673575004 0.001331046471 -0.001603215933
v -0.00367275218 -0.001733023542 -0.001603227109
v -0.003644010169 0.00668288501 -0.01259491965
v -0.003528950387 0.002061813735 -0.001734444872
v -0.003527735011 -0.002463710829 -0.001734448597
v -0.003517638543 0.00597139461 -0.007276438177
v -0.003517631092 0.006510082298 -0.01073663868
v -0.003507327405 0.004465611783 -0.003176044673
v -0.003379115951 0.003947611098 -0.002620276064
v -0.003332473454 0.002750046915 -0.001943744719
v -0.003330887877 -0.003151837373 -0.001943748444
v -0.00329112506 0.005689848345 -0.005826232955
v -0.003271815949 0.004884535578 -0.003708759323
v -0.003144657356 0.005341936034 -0.004636313766
v -0.003138659173 0.005132274367 -0.004138652235
v -0.00313175055 0.007023485123 -0.01498998845
v -0.003108711098 0.003387379125 -0.002241989598
v -0.003095018328 0.00446813427 -0.003114340827
v -0.003090703129 -0.007450758473 -0.01498998845
v -0.00304123338 0.007049598598 -0.01498998845
v -0.002962334664 -0.001812606104 -0.001728054136
v -0.002953000483 0.00170519996 -0.001765353605
v -0.002950627473 0.0006891650992 -0.001680042595
v -0.002922770684 0.004915022888 -0.003726288676
v -0.002915771795 -0.0008090865886 -0.001677216962
v -0.002895166748 0.003969268539 -0.002639338374
v -0.002892923658 -0.004370823837 -0.002639330924
v -0.002866093186 -0.003074543652 -0.001984218135
v -0.00284380035 0.002832940911 -0.002038454637
v -0.002812167746 1.312645327e-05 -0.001691626385
v -0.002783541684 -0.0002007491852 -0.001696752384
v -0.00274364318 0.007128883545 -0.01498998845
v -0.002739703814 -0.007530356095 -0.01498998845
v -0.002730381791 -0.003820586353 -0.002300007269
v -0.002729430445 0.004487935119 -0.003146374598
v -0.002719484153 0.006901446395 -0.01227242593
v -0.002715666662 -0.007302907165 -0.01227243338
v -0.002709526452 -0.0002007295199 -0.001712009311
v -0.002682458726 0.003646741519 -0.002433774993
v -0.002621858497 0.006702862345 -0.01044511609
v -0.002600850887 0.004014608581 -0.002698579803
v -0.002583559952 -0.004486171398 -0.002757072449
v -0.002531696693 0.004361732528 -0.003018125892
v -0.002450321452 0.00647282986 -0.00876266323
v -0.002285071998 0.004982133527 -0.003846174106
v -0.002262961934 0.001627078876 -0.001910952851
v -0.002261978225 -0.002028292845 -0.001910950989
v -0.002226936049 0.006201675293 -0.007257387042
v -0.002192626591 0.0008542143187 -0.001859914511
v -0.002192059881 -0.001255395458 -0.001859914511
v -0.002109855064 0.0004892911093 -0.001859815791
v -0.002109483234 -0.0008904225397 -0.001859813929
v -0.001991132158 0.005877636504 -0.005949832499
v -0.001896946109 0.005014079288 -0.00391917862
v -0.001827121829 0.004604817033 -0.003365067765
v -0.001824537874 -0.005005795843 -0.00336506404
v -0.001794408425 0.004146940671 -0.002928100526
v -0.001792072901 -0.004547905046 -0.002928100526
v -0.001778879319 0.003646102166 -0.002595983446
v -0.00177681155 -0.004047060022 -0.002595983446
v -0.001776766148 0.005491217729 -0.004855252802
v -0.001762103871 0.003103902462 -0.002355491742
v -0.001760329236 -0.003504848442 -0.002355491742
v -0.001730718301 -0.0007164659182 -0.001945251599
v -0.001729094074 0.0003167895629 -0.001945784315
v -0.001728156931 0.002517621164 -0.002192813903
v -0.001726697083 -0.002918551778 -0.002192815766
v -0.001669615624 0.001871277942 -0.002092657611
v -0.001668502227 -0.002272177357 -0.002092666924
v -0.001629197618 0.00737635981 -0.01498998845
v -0.001625125298 -0.007777235008 -0.01498998845
v -0.001567134052 0.00119438245 -0.002045599744
v -0.001566385035 -0.001595224938 -0.002045599744
v -0.00148290128 -0.0002003991137 -0.001996787265
v -0.001396704349 0.00713513339 -0.01184846833
v -0.001392762992 -0.00753588356 -0.01184846461
v -0.001377370092 0.0005604554462 -0.002050470561
v -0.001374654124 0.007428837551 -0.01498998845
v -0.001370553616 -0.007829576265 -0.01498998845
v -0.001354908687 0.006905384493 -0.0100769829
v -0.0013510891 -0.00730611138 -0.01007698849
v -0.00126862654 0.006629460157 -0.008473886177
v -0.001267322456 -0.005467177703 -0.004063293338
v -0.001172512653 0.004687569235 -0.003583751619
v -0.001169886556 -0.005088199265 -0.003583755344
v -0.001153023099 0.006308495664 -0.007072007284
v -0.001083356212 0.004279416651 -0.003210000694
v -0.001080948743 -0.004679997786 -0.003209995106
v -0.001056508976 0.005093385131 -0.004127901047
v -0.001055956624 -0.007866490515 -0.01498998845
v -0.001032990287 0.005948081278 -0.005888918415
v -0.001029685256 -0.006348633542 -0.00588892214
v -0.001029559295 0.0001667984616 -0.00212662667
v -0.0009951951215 0.003846646418 -0.002928061411
v -0.000993019552 -0.00424717959 -0.002928063273
v -0.0009256509366 0.005553059411 -0.004935596138
v -0.0009225582471 -0.005953554399 -0.004935596138
v -0.000900831772 0.003393936568 -0.00272500515
v -0.0008988999762 -0.003794421544 -0.002725014463
v -0.0008567641489 -0.001345612094 -0.002230940387
v -0.0008311988786 -0.005527539048 -0.004208259284
v -0.0007931371219 0.002920420506 -0.002587160096
v -0.0007914591115 -0.003320848904 -0.002587163821
v -0.0006911560195 0.005152514335 -0.00426851958
v -0.0006882797461 -0.005552885457 -0.004268525168
v -0.000682797045 0.007512441848 -0.01498998845
v -0.0006650971482 0.00242228237 -0.002502903342
v -0.0006636884063 -0.002822637893 -0.002502910793
v -0.0006509697996 -0.0002001756167 -0.002230824903
v -0.0005577570992 0.004844701049 -0.003903893754
v -0.000555044855 -0.005245003718 -0.003903891891
v -0.0005080137635 0.001901660478 -0.00246328488
v -0.0005073850043 0.003579950324 -0.002958256751
v -0.0005068847677 -0.002301931949 -0.002463290468
v -0.0005053535569 -0.003980223191 -0.002958262339
v -0.0004232783103 0.004517263398 -0.003617372364
v -0.0004207422025 -0.004917492493 -0.003617374226
v -0.0004084925167 -0.005611854009 -0.004411637783
v -0.0004014472943 0.001303876765 -0.002417873591
v -0.0003022174351 0.001384948278 -0.002462575212
v -0.0003013636451 -0.001785112298 -0.002462571487
v -0.0002814658219 0.00416794153 -0.003398381174
v -0.0002791179577 -0.004568091928 -0.003398377448
v -0.000215476728 0.002711494584 -0.002754958346
v -0.0002139116405 -0.003111612386 -0.002754952759
v -0.0002079514088 0.005259093028 -0.004539946094
v -0.0002050155308 -0.005659204311 -0.004539944232
v -0.000129976077 0.003799943384 -0.003237251192
v -0.0001278260024 -0.004200016483 -0.00323724933
v -0.0001232349314 -0.005959778893 -0.005047613755
v -0.0001218672842 0.005579966717 -0.005086489022
v -9.010103531e-05 0.005742617548 -0.00542588532
v -8.690659888e-05 -0.006142664104 -0.00542589277
v -6.822193973e-05 0.005879694727 -0.005746614188
v -6.495416164e-05 -0.006279729176 -0.005746612325
v -6.176123861e-05 0.005925650374 -0.005860382691
v -5.846866406e-05 -0.006325686219 -0.005860378966
v -2.7448521e-05 0.006235431545 -0.006705291569
v -1.762539614e-05 -0.006707036271 -0.006924582645
v -1.583364792e-05 0.006370390431 -0.00712759234
v -1.230125781e-05 -0.006770398337 -0.007127588615
v 8.14907253e-07 0.006582492162 -0.007876496762
v 4.460336641e-06 -0.00698249448 -0.007876496762
v 7.780035958e-06 0.006670334973 -0.008223451674
v 1.147214789e-05 -0.007070330306 -0.008223455399
v 2.857402433e-05 0.006894454491 -0.009240237996
v 3.238662612e-05 -0.007294438648 -0.009240239859
v 3.686372656e-05 0.006964372136 -0.009608324617
v 4.071590956e-05 -0.007364352568 -0.009608313441
v 6.688898429e-05 0.007155092098 -0.01077875495
v 7.084209938e-05 -0.007555053904 -0.01077875867
v 8.610275108e-05 0.00724574145 -0.01143581048
v 9.010429494e-05 -0.007645695339 -0.01143580955
v 0.00012121076 -0.005312273148 -0.004238789901
v 0.0001217983081 0.00737714408 -0.01252840646
v 0.0001258703414 -0.007777079809 -0.01252841298
v 0.0001478286576 0.00487706963 -0.004215557128
v 0.0001651232596 -0.005259260404 -0.004204317927
v 0.0001848977408 0.007541770712 -0.01417477522
v 0.0002135360264 0.003010398839 -0.003051564097
v 0.0002151478548 0.0005887734151 -0.002553815022
v 0.0002152617672 -0.003410284509 -0.00305156596
v 0.0002155715483 -0.000988656815 -0.002553816885
v 0.0002209563594 0.007612272927 -0.01498998845
v 0.0002256056866 -0.008011120605 -0.01498998845
v 0.0002289867261 0.004048753195 -0.0035690777
v 0.0002312702127 -0.004448628388 -0.003569087014
v 0.0002891339509 0.007612543818 -0.01498998845
v 0.0003000981524 0.00186734194 -0.002778351307
v 0.0003012096277 -0.002267179181 -0.002778358757
v 0.0003137423773 -0.005070840343 -0.004100212827
v 0.0003478178533 -0.008007740452 -0.01498998845
v 0.0003966433578 0.005280766767 -0.004857562482
v 0.0003995894804 -0.005680556278 -0.004857564345
v 0.0004864747752 -0.004836886525 -0.004000337794
v 0.0005668758822 0.004320110791 -0.003959354013
v 0.0005693059065 -0.004719808101 -0.003959355876
v 0.0006253092142 0.003321124139 -0.003400499001
v 0.000625320361 0.005669411868 -0.005635332316
v 0.0006272028259 -0.003720786524 -0.003400491551
v 0.0006284752453 -0.006069075185 -0.005635328591
v 0.0006294355553 0.007132285406 -0.01065105386
v 0.0006465572806 0.002138466007 -0.00300225988
v 0.0006478135474 -0.002538118846 -0.003002265468
v 0.0006695661278 0.007607815427 -0.01498998845
v 0.000696856383 0.004131561276 -0.003903927281
v 0.0008100945997 0.006063519177 -0.006590634584
v 0.0008127197507 0.007528693546 -0.01399435382
v 0.0008134600066 -0.006463084239 -0.006590640172
v 0.0008960824634 0.003832472619 -0.003838727251
v 0.0008967138419 -0.0001997580257 -0.002787685022
v 0.0009043208556 -0.004222685806 -0.003837076947
v 0.0009141284536 0.004851041958 -0.004678664729
v 0.0009168435499 -0.005250551607 -0.004678662866
v 0.0009244898683 0.002356641591 -0.003208048642
v 0.0009258626524 -0.00275614472 -0.00320805423
v 0.0009658625495 0.00644072624 -0.007728014141
v 0.000969430941 -0.006840207483 -0.007728016004
v 0.001021356744 0.003638718175 -0.003808222711
v 0.001104647665 0.006778292489 -0.009043753147
v 0.001108398912 -0.007177696898 -0.009043747559
v 0.001111413425 0.001349873623 -0.003043346107
v 0.001112247257 -0.001749274888 -0.003043334931
v 0.001122975607 0.007593868363 -0.01498998845
v 0.001237252465 0.007057653405 -0.01052711532
v 0.001241153135 -0.007456986568 -0.01052711904
v 0.001289722364 0.005282145125 -0.005503166467
v 0.00129266904 -0.005681455004 -0.005503166467
v 0.001372972387 -0.007681529372 -0.01213384513
v 0.001426607691 0.004291187171 -0.004550304264
v 0.001429022494 -0.004690422546 -0.004550304264
v 0.001447180606 -0.006696489974 -0.007663371041
v 0.001503202628 0.007462833673 -0.01380858663
v 0.001507320994 -0.007862022481 -0.01380859129
v 0.001524755295 0.002825316638 -0.003743827343
v 0.001526382053 -0.003224497297 -0.003743831068
v 0.001606016926 0.007559207676 -0.01498998845
v 0.001610186242 -0.00795834237 -0.01498998845
v 0.001616191294 0.005707435907 -0.006477912888
v 0.001619367045 -0.00610656511 -0.006477901712
v 0.001646494726 -0.007042459081 -0.008961524814
v 0.001657657733 0.0005514358199 -0.003191711381
v 0.001658060763 -0.0009505468624 -0.003191713244
v 0.001829330751 0.006928560921 -0.01041869633
v 0.001833162562 -0.007327577434 -0.01041868888
v 0.001849565248 -0.002681460333 -0.003735231236
v 0.001887224847 0.00221628313 -0.003735952079
v 0.001903842029 0.006104826127 -0.007606891915
v 0.001907231694 -0.006503802128 -0.007606893778
v 0.001917545684 0.004743930549 -0.005400666967
v 0.001920203154 -0.005142897237 -0.005400661379
v 0.001950656355 0.003592409557 -0.004471389577
v 0.001952694322 -0.003991363905 -0.004471389577
v 0.001995394414 -0.002433018395 -0.003740174696
v 0.002034349741 0.007492139061 -0.01498998845
v 0.002163700876 0.00645479899 -0.008890464902
v 0.002167276922 -0.006853637155 -0.008890474215
v 0.002186143305 0.007339486518 -0.01363619789
v 0.002242353351 -0.007846192472 -0.01498998845
v 0.002257667715 -0.0001993938575 -0.003486426547
v 0.002348191338 0.005862158854 -0.007557468489
v 0.002351449453 -0.006260892711 -0.007557466626
v 0.002367341425 0.005174302161 -0.006388610229
v 0.002370229457 -0.005573029033 -0.006388602778
v 0.002405789099 0.006742347163 -0.01032287069
v 0.002409521025 -0.007141052614 -0.01032286882
v 0.002459955169 -0.001631006118 -0.003804845735
v 0.002478337497 0.001199008795 -0.003809422255
v 0.002497292706 0.002735238653 -0.004422174767
v 0.002498871181 -0.00313389847 -0.004422161728
v 0.002531046048 0.00403677499 -0.00532290712
v 0.002533323714 -0.004435413386 -0.005322897807
v 0.002535674161 0.007404351658 -0.01498998845
v 0.002639851416 -0.007370654828 -0.01186707336
v 0.00265618274 0.0008887384465 -0.003859881312
v 0.00266845827 0.006210572217 -0.008827960119
v 0.002671903349 -0.006609137505 -0.008827961981
v 0.002678986017 0.007377342832 -0.01498998845
v 0.002778785769 0.0055667899 -0.007512433454
v 0.002781884861 -0.005965295582 -0.00751243718
v 0.002858848544 0.00715505438 -0.01347577106
v 0.002862801543 -0.00755351955 -0.01347576454
v 0.002870777389 0.0005118983245 -0.003943566233
v 0.002910286421 0.0004421552439 -0.00396235846
v 0.00291063136 -0.0008405927074 -0.003962354735
v 0.002966751577 0.006496328526 -0.01023668423
v 0.002970349975 -0.006894735488 -0.01023669541
v 0.003033903777 0.001762962565 -0.004418434575
v 0.003034959198 -0.002161331809 -0.004418428987
v 0.003066463752 0.007281973752 -0.01498998845
v 0.00307048579 -0.007680326751 -0.01498998845
v 0.003075766959 -0.0005467865412 -0.004055073485
v 0.003084029886 0.004443542231 -0.006307706237
v 0.003086525132 -0.004841884933 -0.006307702512
v 0.00309335615 -0.0005152324593 -0.004066357389
v 0.003143296693 0.003138966291 -0.005249381065
v 0.003145090421 -0.003537278259 -0.005249384791
v 0.003158345469 0.005907970146 -0.008770531043
v 0.003161627683 -0.006306270472 -0.008770536631
v 0.003252351773 -0.007122727911 -0.0117502166
v 0.003267330932 -0.0001991204913 -0.004192207009
v 0.003452139618 0.007163819371 -0.01498998845
v 0.003456098014 -0.007561964405 -0.01498998845
v 0.003489268362 0.0007655545051 -0.004489352927
v 0.00348978641 -0.001163680325 -0.004489352927
v 0.003512391471 0.006187521984 -0.0101567544
v 0.003515823861 -0.00658563232 -0.01015675068
v 0.00351862784 0.006905933973 -0.01332589146
v 0.003522447892 -0.007304043378 -0.01332589239
v 0.003607103485 0.004805127755 -0.007420213893
v 0.003609792679 -0.0052031878 -0.007420215756
v 0.00363469997 0.005543830004 -0.008714010939
v 0.003637785441 -0.005941876079 -0.008714016527
v 0.003656118992 0.0002794871543 -0.004547258839
v 0.003656377434 -0.0006775210641 -0.004547253251
v 0.003713370184 0.002087735469 -0.005194406956
v 0.003714598366 -0.002485740333 -0.005194419995
v 0.003774193465 -0.0001989864801 -0.004621563479
v 0.0037805998 0.0034933024 -0.006211876869
v 0.003782583517 -0.003891270244 -0.006211871281
v 0.003793138091 0.007045999823 -0.01498998845
v 0.003797032572 -0.007443960803 -0.01498998845
v 0.003849316039 -0.00680876417 -0.01164094452
v 0.004042925662 0.005812676289 -0.01007927582
v 0.004046156886 -0.006210503037 -0.01007926464
v 0.004098855774 0.005114974119 -0.008654205129
v 0.004101711907 -0.005512771066 -0.008654206991
v 0.004159485106 0.0009579188336 -0.00518893823
v 0.0041601056 -0.001355683416 -0.005188947544
v 0.004162798985 0.006588469856 -0.01318508759
v 0.004166446743 -0.006986232343 -0.0131850848
v 0.004215854034 0.006874091854 -0.01498998845
v 0.004219655856 -0.00727182701 -0.01498998845
v 0.00427565875 -0.0001988506247 -0.005126077682
v 0.00429907057 0.000380675905 -0.005200998858
v 0.004299381399 -0.000778368194 -0.005200998858
v 0.004400457139 0.003798368984 -0.007302405313
v 0.004402605933 -0.004196003414 -0.007302399725
v 0.004408777575 0.002357097008 -0.006114674732
v 0.004410151974 -0.002754729576 -0.006114663556
v 0.004429586115 -0.006425346583 -0.01153646316
v 0.004511727988 0.006739377428 -0.01498998845
v 0.00451545719 -0.00713695332 -0.01498998845
v 0.004558571498 0.005368549508 -0.01000048034
v 0.00456156407 -0.005766099188 -0.01000048034
v 0.00478868268 0.00619898703 -0.01305181906
v 0.004792121588 -0.006596411447 -0.01305182464
v 0.004874377861 0.001105933814 -0.006051970646
v 0.004875079379 -0.001503313411 -0.006051972508
v 0.004964420384 0.006503501252 -0.01498998845
v 0.004968024498 -0.006900832816 -0.01498998845
v 0.004988901201 0.005571718459 -0.01143400185
v 0.004990718677 0.004054779783 -0.008511371911
v 0.004992002039 -0.005969039499 -0.01143400837
v 0.004993004608 -0.004452095236 -0.008511371911
v 0.005010683439 0.0004568434815 -0.00603848882
v 0.005011037341 -0.0008541496209 -0.006038485095
v 0.005062213517 -0.005249205846 -0.009916622192
v 0.005102894153 0.002580689863 -0.00717288442
v 0.00510438846 -0.002977948505 -0.007172880694
v 0.005216999767 0.006357589845 -0.01498998845
v 0.005220523959 -0.006754785374 -0.01498998845
v 0.005387595738 0.001915659886 -0.007117150351
v 0.005388731952 -0.002312762997 -0.007117150351
v 0.005393603235 0.005733790938 -0.01292456035
v 0.005396791152 -0.006130891721 -0.01292456128
v 0.00551911525 -0.0001985161595 -0.006633223966
v 0.005541032529 0.004264030737 -0.009826971218
v 0.005543432082 -0.004661054219 -0.009826967493
v 0.005609535961 0.001225087573 -0.007073387504
v 0.005610301043 -0.001622074269 -0.007073396817
v 0.005691326046 0.006047387565 -0.01498998845
v 0.005694687649 -0.006444327248 -0.01498998845
v 0.005753818317 0.0005175555852 -0.00704501383
v 0.005754203885 -0.0009144644573 -0.007045008242
v 0.005770559772 0.002764258665 -0.008356448263
v 0.005772151868 -0.003161159213 -0.008356453851
v 0.005902962098 0.00589598622 -0.01498998845
v 0.005906240973 -0.006292813861 -0.01498998845
v 0.005974844913 0.005189247095 -0.01280179061
v 0.005977739929 -0.005586039144 -0.01280179527
v 0.005989426631 0.003614356174 -0.009736480191
v 0.005991476472 -0.004011139841 -0.009736472741
v 0.006051528151 0.00443213353 -0.01122650504
v 0.006083464134 0.002056895188 -0.008288729936
v 0.006084677181 -0.002453623674 -0.00828871876
v 0.006325628958 0.001321027885 -0.008234556764
v 0.006326445728 -0.001717625404 -0.008234554902
v 0.006389289549 0.005501209051 -0.01498998845
v 0.006389942369 0.002913309159 -0.009650684893
v 0.00639161549 -0.003309873966 -0.009650677443
v 0.006392351445 -0.005897775662 -0.01498998845
v 0.006482031546 0.0005661501928 -0.008198620752
v 0.006482442259 -0.0009626671526 -0.008198615164
v 0.006525783683 0.004566582982 -0.01268371195
v 0.00652834482 -0.004963074214 -0.01268371288
v 0.006562872733 0.005349866886 -0.01498998845
v 0.006565853579 -0.005746340582 -0.01498998845
v 0.006637049722 -0.0001982150974 -0.008358500898
v 0.006727822474 0.002171278829 -0.009575141594
v 0.006729096523 -0.002567662959 -0.009575136006
v 0.006958543207 0.003033170375 -0.01103234664
v 0.0069880503 0.001398560256 -0.009515026584
v 0.006988908513 -0.001794807016 -0.009515026584
v 0.007032488356 0.003876104616 -0.01257368084
v 0.007034678827 -0.004272323436 -0.01257367991
v 0.007048290306 0.004864744303 -0.01498998845
v 0.007051010469 -0.005260956381 -0.01498998845
v 0.007155422005 0.0006053763937 -0.009475341067
v 0.007155854139 -0.001001529672 -0.009475342929
v 0.007186302044 0.004719635224 -0.01498998845
v 0.007188945019 -0.005115771687 -0.01498998845
v 0.007214736077 -0.0001980599352 -0.009461002424
v 0.007316739648 0.002263287679 -0.01095200889
v 0.007318063057 -0.002659354926 -0.01095201075
v 0.007480226806 0.003129126635 -0.01247540861
v 0.007482015411 -0.003525104476 -0.01247540023
v 0.007591380621 0.001460941407 -0.01088903472
v 0.007592271897 -0.001856863717 -0.01088904031
v 0.007652378309 0.004148105364 -0.01498998845
v 0.007654714866 -0.004543991249 -0.01498998845
v 0.007687797188 -0.0001979329143 -0.01049749926
v 0.007757017597 0.004015462289 -0.01498998845
v 0.007759282803 -0.004411292261 -0.01498998845
v 0.007767343312 0.0006369463663 -0.01084795035
v 0.007767792675 -0.001032770131 -0.01084794477
v 0.007854260853 0.002336959951 -0.01239262521
v 0.007855623378 -0.002732740119 -0.01239262149
v 0.008139816928 0.001510904767 -0.01232899725
v 0.008140735677 -0.001906528123 -0.01232899912
v 0.008183285042 0.003365802868 -0.01498998845
v 0.008185199798 -0.003761403647 -0.01498998845
v 0.008258564494 0.00324893822 -0.01498998845
v 0.008260416959 -0.003644498173 -0.01498998845
v 0.00832209771 0.0006622376532 -0.01228814665
v 0.008322558715 -0.001057764443 -0.0122881541
v 0.008607243537 -0.0001976873959 -0.01290192548
v 0.008623871089 0.002532780126 -0.01498998845
v 0.008625339697 -0.002928144568 -0.01498998845
v 0.008674980546 0.002431997537 -0.01498998845
v 0.008676394607 -0.002827335203 -0.01498998845
v 0.008712130459 0.002331882206 -0.01498998845
v 0.008713490542 -0.002727199409 -0.01498998845
v 0.00899081839 0.001576893467 -0.01498998845
v 0.008991773106 -0.001972062123 -0.01498998845
v 0.009010717631 0.001490545378 -0.01498998845
v 0.009011625534 -0.001885703729 -0.01498998845
v 0.009191094602 0.0006961484481 -0.01498998845
v 0.009191574604 -0.001091209764 -0.01498998845
v 0.009201078494 0.0005974161745 -0.01498998845
v 0.009201505786 -0.0009924719307 -0.01498998845
v 0.009263236844 -0.0001975129376 -0.01498998845
f 242 249 117
f 227 117 249
f 28 8 6
f 93 95 88
f 88 95 74
f 15 51 13
f 626 641 639
f 626 639 614
f 634 648 649
f 638 648 634
f 466 482 501
f 480 434 454
f 571 531 551
f 551 531 508
f 541 517 501
f 541 527 517
f 52 56 49
f 28 16 21
f 353 332 346
f 230 228 78
f 261 249 242
f 271 249 261
f 233 228 255
f 255 230 262
f 255 228 230
f 38 28 40
f 86 228 233
f 86 78 228
f 52 78 86
f 72 92 87
f 105 77 83
f 83 106 112
f 112 117 83
f 112 106 242
f 242 117 112
f 468 477 456
f 172 158 246
f 246 158 247
f 271 261 291
f 291 261 294
f 363 328 336
f 446 494 441
f 441 494 486
f 515 494 503
f 383 385 441
f 457 486 478
f 441 486 457
f 617 614 628
f 628 614 639
f 558 542 518
f 587 611 579
f 597 588 571
f 597 612 588
f 536 564 558
f 558 518 536
f 634 637 621
f 662 649 664
f 647 637 634
f 634 649 647
f 664 649 663
f 622 638 634
f 631 642 648
f 648 638 631
f 627 642 631
f 464 481 508
f 500 516 540
f 442 462 425
f 505 462 483
f 508 531 483
f 483 531 505
f 483 464 508
f 483 462 442
f 442 464 483
f 571 588 549
f 549 531 571
f 505 531 549
f 501 482 529
f 529 541 501
f 509 482 465
f 465 484 509
f 509 529 482
f 552 529 509
f 465 482 448
f 501 517 479
f 479 466 501
f 435 466 479
f 546 547 530
f 579 611 586
f 571 551 575
f 575 597 571
f 575 582 599
f 599 597 575
f 560 586 582
f 582 575 560
f 560 575 551
f 552 576 561
f 561 529 552
f 541 529 561
f 144 148 135
f 144 149 148
f 52 49 48
f 48 43 44
f 262 230 232
f 230 78 232
f 340 346 301
f 301 346 332
f 332 305 301
f 402 346 340
f 353 346 402
f 428 466 435
f 428 394 412
f 412 448 428
f 100 237 91
f 82 229 80
f 57 90 82
f 79 78 52
f 80 78 79
f 80 229 231
f 231 78 80
f 231 232 78
f 309 297 325
f 283 255 262
f 262 270 283
f 283 270 297
f 38 40 50
f 14 12 50
f 56 77 47
f 47 50 40
f 58 33 67
f 67 70 84
f 67 61 70
f 94 86 233
f 170 162 180
f 108 105 83
f 493 456 477
f 432 456 437
f 432 429 468
f 468 456 432
f 584 573 558
f 307 268 272
f 437 445 414
f 414 432 437
f 437 456 470
f 470 445 437
f 456 493 470
f 312 384 307
f 307 272 312
f 134 250 136
f 240 136 250
f 147 136 240
f 246 247 293
f 293 247 328
f 256 247 245
f 147 240 245
f 245 250 256
f 245 240 250
f 24 5 7
f 37 27 24
f 20 21 16
f 16 17 20
f 20 17 18
f 125 123 120
f 120 111 115
f 138 123 125
f 98 123 101
f 98 68 95
f 95 120 98
f 98 120 123
f 34 44 31
f 31 27 34
f 59 68 35
f 450 446 404
f 388 385 308
f 441 385 388
f 388 446 441
f 388 322 397
f 521 486 494
f 471 446 450
f 379 433 377
f 365 329 206
f 553 578 566
f 559 578 553
f 519 499 535
f 535 553 519
f 559 553 535
f 640 642 627
f 627 629 640
f 581 608 618
f 581 618 595
f 595 618 629
f 463 440 476
f 440 406 413
f 474 511 492
f 453 457 478
f 433 457 453
f 453 430 433
f 444 430 453
f 251 192 220
f 308 190 269
f 190 192 269
f 152 138 148
f 169 166 159
f 426 403 390
f 426 406 440
f 426 440 463
f 426 407 403
f 641 656 654
f 498 477 468
f 498 518 542
f 594 614 617
f 564 536 556
f 605 621 599
f 611 621 605
f 605 586 611
f 599 582 605
f 582 586 605
f 599 621 615
f 615 597 599
f 612 597 615
f 615 621 637
f 634 621 625
f 625 621 611
f 625 622 634
f 611 622 625
f 658 647 660
f 655 657 642
f 659 661 648
f 572 576 552
f 572 550 589
f 600 576 598
f 576 572 598
f 598 572 589
f 600 622 606
f 606 622 611
f 611 587 606
f 616 622 600
f 600 598 616
f 638 622 616
f 616 631 638
f 528 500 540
f 540 560 528
f 528 560 551
f 528 551 508
f 508 481 528
f 481 500 528
f 468 429 460
f 405 389 425
f 552 509 532
f 532 572 552
f 550 572 532
f 532 509 484
f 480 454 487
f 487 500 480
f 516 500 487
f 516 496 526
f 530 547 526
f 526 547 540
f 540 516 526
f 517 527 497
f 497 479 517
f 395 332 353
f 353 402 395
f 395 402 435
f 540 547 568
f 568 560 540
f 586 560 568
f 579 586 568
f 568 546 579
f 547 546 568
f 583 561 576
f 587 561 583
f 583 576 600
f 600 606 583
f 583 606 587
f 569 587 579
f 569 561 587
f 579 546 569
f 541 561 569
f 54 44 57
f 54 48 44
f 57 82 54
f 54 82 80
f 42 48 49
f 43 48 42
f 42 49 56
f 297 270 306
f 306 325 297
f 279 301 305
f 279 282 253
f 305 282 279
f 253 237 279
f 435 402 416
f 416 428 435
f 394 428 416
f 466 428 458
f 458 428 448
f 482 466 458
f 458 448 482
f 71 46 51
f 71 76 75
f 75 46 71
f 71 98 101
f 237 100 109
f 109 100 75
f 229 82 234
f 234 82 90
f 253 229 234
f 234 237 253
f 91 237 234
f 234 90 91
f 257 231 229
f 257 229 253
f 284 270 257
f 232 231 257
f 253 282 257
f 257 282 284
f 236 261 242
f 236 94 233
f 242 106 236
f 106 94 236
f 339 300 344
f 344 300 351
f 300 304 351
f 309 325 351
f 351 304 309
f 73 47 77
f 50 47 73
f 84 70 73
f 73 102 84
f 77 105 73
f 105 102 73
f 61 50 73
f 70 61 73
f 86 94 63
f 63 56 52
f 52 86 63
f 63 94 106
f 63 106 83
f 83 77 63
f 63 77 56
f 194 180 162
f 116 113 103
f 143 129 145
f 145 156 143
f 99 92 84
f 84 102 99
f 99 96 92
f 116 96 99
f 99 124 116
f 99 102 124
f 117 227 133
f 227 108 133
f 83 117 133
f 133 108 83
f 241 108 227
f 241 227 249
f 241 250 134
f 520 493 477
f 477 498 520
f 520 498 542
f 562 554 542
f 429 372 370
f 364 328 363
f 411 364 363
f 363 405 411
f 338 391 396
f 387 391 307
f 307 384 387
f 384 414 387
f 302 264 268
f 391 387 420
f 420 414 445
f 420 387 414
f 380 312 314
f 244 172 246
f 244 238 172
f 276 312 272
f 276 272 226
f 226 238 276
f 314 312 276
f 276 238 314
f 124 102 128
f 318 244 285
f 285 244 246
f 160 247 158
f 160 245 247
f 158 147 160
f 147 245 160
f 345 356 392
f 256 250 267
f 289 273 271
f 271 291 289
f 316 319 348
f 316 289 319
f 287 289 316
f 481 464 447
f 356 339 401
f 401 339 344
f 392 356 415
f 415 427 392
f 356 401 415
f 434 427 415
f 415 401 434
f 422 464 442
f 442 418 422
f 22 18 19
f 22 20 18
f 21 20 25
f 20 22 25
f 28 21 25
f 25 40 28
f 25 47 40
f 29 47 25
f 119 120 115
f 57 44 45
f 44 34 45
f 39 41 51
f 51 46 39
f 37 41 39
f 39 27 37
f 39 34 27
f 39 46 34
f 64 100 91
f 75 100 64
f 486 521 512
f 512 499 478
f 478 486 512
f 512 535 499
f 383 381 313
f 313 190 308
f 308 385 313
f 385 383 313
f 438 383 441
f 438 381 383
f 441 457 438
f 438 457 433
f 438 433 379
f 379 381 438
f 157 175 161
f 161 175 206
f 375 430 373
f 375 377 433
f 433 430 375
f 574 585 559
f 566 578 593
f 604 578 591
f 559 535 543
f 543 512 521
f 535 512 543
f 608 624 633
f 629 646 651
f 644 618 636
f 589 595 603
f 603 629 627
f 603 595 629
f 492 511 525
f 525 539 492
f 581 595 567
f 589 550 567
f 567 595 589
f 566 593 570
f 581 567 570
f 570 567 539
f 570 608 581
f 570 593 608
f 506 484 463
f 463 476 506
f 506 532 484
f 550 532 506
f 365 206 367
f 206 369 367
f 373 430 371
f 369 324 371
f 371 175 373
f 371 324 175
f 440 413 452
f 452 476 440
f 492 476 452
f 452 474 492
f 511 474 489
f 489 499 519
f 519 511 489
f 210 212 191
f 191 208 210
f 191 192 190
f 148 166 164
f 164 152 148
f 166 177 164
f 138 152 140
f 379 377 188
f 377 375 188
f 166 169 176
f 424 448 412
f 465 448 424
f 243 109 114
f 650 645 628
f 643 635 617
f 623 607 632
f 617 607 596
f 596 594 617
f 580 594 596
f 596 556 580
f 564 556 596
f 564 596 592
f 592 596 607
f 488 498 468
f 518 498 488
f 468 460 488
f 614 594 602
f 626 614 602
f 602 612 626
f 588 612 602
f 602 594 588
f 565 594 580
f 565 549 588
f 588 594 565
f 626 612 630
f 612 615 630
f 630 641 626
f 630 615 637
f 630 647 641
f 637 647 630
f 627 631 613
f 631 616 613
f 613 603 627
f 613 616 598
f 613 598 589
f 589 603 613
f 348 389 342
f 342 316 348
f 336 316 342
f 425 389 408
f 442 425 408
f 408 418 442
f 408 389 348
f 439 405 425
f 439 425 462
f 451 411 439
f 439 411 405
f 363 336 358
f 358 405 363
f 389 405 358
f 336 342 358
f 358 342 389
f 495 487 454
f 495 496 516
f 516 487 495
f 455 395 435
f 423 395 455
f 435 479 455
f 479 497 455
f 341 395 423
f 325 306 341
f 332 395 341
f 541 569 548
f 548 569 546
f 527 541 548
f 530 527 548
f 548 546 530
f 52 48 53
f 48 54 53
f 53 54 80
f 53 79 52
f 80 79 53
f 43 42 36
f 36 42 56
f 31 44 36
f 44 43 36
f 56 47 36
f 36 47 29
f 296 270 284
f 296 306 270
f 284 282 296
f 296 282 305
f 296 305 332
f 332 341 296
f 296 341 306
f 66 68 69
f 51 66 69
f 69 71 51
f 68 98 69
f 98 71 69
f 81 109 75
f 75 76 81
f 76 85 81
f 81 85 114
f 114 109 81
f 263 270 262
f 263 257 270
f 262 232 263
f 232 257 263
f 294 261 298
f 300 339 298
f 334 339 356
f 356 345 334
f 294 298 334
f 334 298 339
f 233 255 254
f 254 236 233
f 261 236 254
f 254 298 261
f 255 283 281
f 281 254 255
f 309 304 281
f 281 297 309
f 281 283 297
f 153 165 162
f 250 241 258
f 271 273 258
f 258 249 271
f 258 241 249
f 533 520 544
f 429 370 419
f 419 370 368
f 419 460 429
f 364 411 419
f 451 460 419
f 419 411 451
f 323 372 318
f 323 370 372
f 318 285 323
f 368 370 323
f 246 293 323
f 323 285 246
f 323 293 328
f 400 420 417
f 417 420 436
f 382 414 384
f 382 380 414
f 384 312 382
f 312 380 382
f 376 314 318
f 514 502 493
f 314 238 280
f 238 244 280
f 318 314 280
f 280 244 318
f 215 216 218
f 178 165 168
f 178 214 211
f 211 201 178
f 201 199 178
f 178 199 197
f 162 165 178
f 223 224 222
f 225 235 223
f 225 221 226
f 268 235 225
f 131 136 147
f 147 128 131
f 134 136 131
f 105 108 131
f 131 102 105
f 131 128 102
f 131 241 134
f 108 241 131
f 348 319 354
f 354 408 348
f 330 291 294
f 294 334 330
f 330 334 345
f 321 286 287
f 321 316 336
f 287 316 321
f 321 336 328
f 328 286 321
f 277 286 328
f 277 247 256
f 328 247 277
f 256 267 277
f 277 267 287
f 287 286 277
f 273 289 275
f 275 289 287
f 287 267 275
f 275 258 273
f 275 267 250
f 250 258 275
f 459 447 427
f 459 434 480
f 459 427 434
f 480 500 459
f 459 500 481
f 481 447 459
f 392 427 410
f 427 447 410
f 344 351 352
f 352 401 344
f 23 22 19
f 19 24 23
f 23 24 27
f 23 27 31
f 30 25 22
f 30 23 31
f 22 23 30
f 29 25 30
f 31 36 30
f 30 36 29
f 101 123 127
f 123 138 127
f 138 140 127
f 204 333 202
f 55 46 75
f 75 64 55
f 34 46 55
f 55 45 34
f 534 545 521
f 563 543 555
f 566 570 557
f 539 525 557
f 557 570 539
f 550 506 523
f 523 567 550
f 539 567 523
f 492 539 523
f 523 476 492
f 523 506 476
f 175 324 209
f 209 324 369
f 206 175 209
f 209 369 206
f 421 452 413
f 421 430 444
f 369 371 421
f 421 371 430
f 421 367 369
f 421 413 365
f 365 367 421
f 474 452 461
f 461 489 474
f 461 421 444
f 452 421 461
f 469 453 478
f 478 499 469
f 499 489 469
f 489 461 469
f 444 453 469
f 469 461 444
f 265 303 269
f 219 191 213
f 213 191 212
f 195 198 189
f 157 140 154
f 154 140 152
f 152 164 154
f 157 161 151
f 151 204 202
f 161 204 151
f 167 164 177
f 167 154 164
f 465 424 443
f 424 409 443
f 443 426 463
f 407 426 443
f 443 409 407
f 463 484 443
f 443 484 465
f 412 394 361
f 237 109 260
f 109 243 260
f 260 279 237
f 97 85 76
f 97 71 101
f 76 71 97
f 266 260 243
f 101 127 126
f 126 127 130
f 601 590 577
f 564 592 577
f 558 564 577
f 510 536 518
f 518 488 510
f 504 497 527
f 527 507 504
f 530 526 513
f 513 527 530
f 513 507 527
f 513 526 496
f 393 351 325
f 325 341 393
f 393 341 423
f 393 352 351
f 393 454 434
f 393 423 454
f 434 401 393
f 401 352 393
f 278 281 304
f 254 281 278
f 278 304 300
f 300 298 278
f 298 254 278
f 155 172 168
f 158 172 155
f 168 165 155
f 165 153 155
f 366 419 368
f 364 419 366
f 328 364 366
f 366 323 328
f 368 323 366
f 318 372 374
f 374 376 318
f 374 372 429
f 429 432 374
f 432 376 374
f 378 380 314
f 314 376 378
f 378 376 432
f 432 414 378
f 414 380 378
f 467 470 485
f 470 490 485
f 223 216 217
f 221 225 217
f 217 225 223
f 168 172 186
f 186 238 226
f 172 238 186
f 248 224 223
f 226 272 239
f 239 225 226
f 239 272 268
f 268 225 239
f 326 354 319
f 345 354 326
f 326 289 291
f 319 289 326
f 291 330 326
f 326 330 345
f 418 408 398
f 408 354 398
f 398 422 418
f 398 410 422
f 431 410 447
f 422 410 431
f 431 447 464
f 464 422 431
f 406 359 362
f 365 413 362
f 362 413 406
f 362 329 365
f 390 403 349
f 343 349 317
f 333 317 288
f 205 161 206
f 205 204 161
f 205 206 329
f 329 362 205
f 57 45 60
f 45 55 60
f 60 90 57
f 593 610 620
f 519 553 537
f 537 557 525
f 537 553 566
f 566 557 537
f 537 511 519
f 537 525 511
f 207 189 203
f 203 189 200
f 200 189 198
f 184 189 177
f 146 140 157
f 157 151 146
f 130 127 146
f 146 127 140
f 146 151 202
f 181 167 177
f 181 191 190
f 181 189 191
f 177 189 181
f 171 188 375
f 171 175 157
f 373 175 171
f 171 375 373
f 157 154 171
f 154 167 171
f 340 335 357
f 394 416 357
f 357 402 340
f 357 416 402
f 331 335 295
f 292 331 295
f 295 266 292
f 260 266 295
f 347 361 394
f 347 335 331
f 394 357 347
f 347 357 335
f 399 424 412
f 412 361 399
f 399 409 424
f 407 409 399
f 114 85 122
f 85 97 122
f 122 243 114
f 122 266 243
f 619 609 592
f 472 455 497
f 497 504 472
f 454 423 472
f 423 455 472
f 472 495 454
f 496 495 472
f 472 504 507
f 472 513 496
f 507 513 472
f 142 155 153
f 142 147 158
f 158 155 142
f 142 128 147
f 216 178 182
f 182 217 216
f 182 178 168
f 168 186 182
f 221 217 182
f 226 221 182
f 182 186 226
f 360 354 345
f 360 398 354
f 410 398 360
f 360 345 392
f 392 410 360
f 359 343 350
f 350 362 359
f 337 317 333
f 337 343 317
f 337 350 343
f 362 350 337
f 337 205 362
f 333 204 337
f 204 205 337
f 386 343 359
f 386 359 406
f 390 349 386
f 349 343 386
f 386 426 390
f 406 426 386
f 202 333 315
f 315 288 202
f 333 288 315
f 202 288 196
f 290 288 317
f 62 55 64
f 62 60 55
f 90 60 62
f 91 90 62
f 62 64 91
f 193 184 187
f 174 177 166
f 174 184 177
f 167 181 185
f 185 171 167
f 188 171 185
f 185 181 190
f 190 313 185
f 185 313 381
f 185 381 379
f 379 188 185
f 340 301 299
f 299 335 340
f 299 295 335
f 260 295 299
f 301 279 299
f 279 260 299
f 327 331 292
f 327 347 331
f 292 290 327
f 141 122 97
f 150 266 141
f 266 122 141
f 104 97 101
f 101 126 104
f 126 110 104
f 473 491 510
f 473 488 460
f 473 510 488
f 473 460 451
f 451 491 473
f 475 462 505
f 475 439 462
f 451 439 475
f 475 491 451
f 505 549 522
f 549 565 522
f 522 475 505
f 491 475 522
f 139 153 145
f 139 142 153
f 139 145 124
f 124 128 139
f 128 142 139
f 130 146 137
f 137 126 130
f 137 196 126
f 137 146 202
f 202 196 137
f 274 196 288
f 288 290 274
f 292 266 274
f 274 290 292
f 320 327 290
f 317 349 320
f 320 290 317
f 355 399 361
f 361 347 355
f 347 327 355
f 355 320 349
f 327 320 355
f 407 399 355
f 403 407 355
f 355 349 403
f 97 104 107
f 107 104 110
f 107 141 97
f 107 110 150
f 150 141 107
f 538 522 565
f 580 556 538
f 538 565 580
f 491 522 538
f 196 274 179
f 126 196 179
f 259 266 150
f 259 274 266
f 510 491 524
f 491 538 524
f 536 510 524
f 524 556 536
f 524 538 556
f 150 110 173
f 173 259 150
f 173 110 126
f 126 179 173
f 173 179 274
f 274 259 173
f 72 65 92
f 92 65 84
f 1 16 6
f 6 16 28
f 10 28 38
f 10 8 28
f 32 51 15
f 32 66 51
f 59 74 68
f 68 74 95
f 166 149 159
f 148 149 166
f 647 662 660
f 649 662 647
f 663 649 648
f 648 661 663
f 50 10 38
f 50 12 10
f 14 50 26
f 26 50 61
f 67 65 58
f 84 65 67
f 33 26 67
f 67 26 61
f 89 87 96
f 96 87 92
f 118 113 124
f 124 113 116
f 24 4 5
f 19 4 24
f 24 7 9
f 9 37 24
f 93 111 120
f 95 93 120
f 11 37 9
f 11 41 37
f 11 13 51
f 51 41 11
f 66 32 35
f 35 68 66
f 397 404 388
f 388 404 446
f 311 322 388
f 308 311 388
f 494 446 471
f 471 503 494
f 652 639 654
f 654 639 641
f 658 656 641
f 641 647 658
f 655 640 653
f 642 640 655
f 648 642 659
f 642 657 659
f 89 96 103
f 103 96 116
f 145 129 118
f 118 124 145
f 558 573 562
f 562 542 558
f 338 310 307
f 307 391 338
f 307 310 302
f 302 268 307
f 449 470 467
f 445 470 449
f 400 396 420
f 396 391 420
f 420 449 436
f 445 449 420
f 3 4 19
f 19 18 3
f 119 121 125
f 125 120 119
f 135 148 132
f 148 138 132
f 125 121 132
f 132 138 125
f 559 585 591
f 591 578 559
f 563 574 543
f 543 574 559
f 636 618 633
f 633 618 608
f 653 640 651
f 651 640 629
f 644 646 629
f 629 618 644
f 303 311 308
f 308 269 303
f 219 220 191
f 191 220 192
f 650 639 652
f 650 628 639
f 617 628 643
f 628 645 643
f 617 635 632
f 632 607 617
f 170 163 153
f 153 162 170
f 163 156 153
f 156 145 153
f 542 554 544
f 544 520 542
f 490 470 493
f 493 502 490
f 514 520 533
f 493 520 514
f 197 194 178
f 178 194 162
f 178 215 214
f 216 215 178
f 218 216 222
f 222 216 223
f 268 264 252
f 252 235 268
f 2 16 1
f 2 17 16
f 2 3 18
f 18 17 2
f 534 494 515
f 534 521 494
f 610 578 604
f 610 593 578
f 521 545 555
f 555 543 521
f 265 192 251
f 265 269 192
f 577 609 601
f 592 609 577
f 590 584 577
f 577 584 558
f 235 252 248
f 223 235 248
f 620 624 608
f 608 593 620
f 208 191 207
f 191 189 207
f 619 607 623
f 619 592 607
f 15 13 193
f 515 503 193
f 118 129 193
f 193 590 601
f 636 633 193
f 193 65 72
f 193 574 563
f 197 199 193
f 72 87 193
f 193 169 159
f 193 396 400
f 193 471 450
f 193 662 664
f 193 514 533
f 601 609 193
f 533 544 193
f 193 93 88
f 219 213 193
f 59 35 193
f 210 208 193
f 193 658 660
f 193 144 135
f 14 26 193
f 193 194 197
f 88 74 193
f 1 6 193
f 115 111 193
f 193 119 115
f 135 132 193
f 193 212 210
f 251 220 193
f 563 555 193
f 58 65 193
f 193 201 211
f 211 214 193
f 661 659 193
f 193 129 143
f 193 449 467
f 193 113 118
f 573 584 193
f 9 7 193
f 193 6 8
f 8 10 193
f 193 12 14
f 193 74 59
f 193 215 218
f 193 32 15
f 193 534 515
f 193 644 636
f 397 322 193
f 652 654 193
f 664 663 193
f 193 198 195
f 159 149 193
f 193 33 58
f 193 199 201
f 193 87 89
f 193 632 635
f 193 562 573
f 7 5 193
f 10 12 193
f 193 111 93
f 193 252 264
f 193 11 9
f 193 404 397
f 193 322 311
f 183 176 193
f 635 643 193
f 660 662 193
f 193 663 661
f 193 655 653
f 149 144 193
f 193 26 33
f 170 180 193
f 193 163 170
f 143 156 193
f 89 103 193
f 193 584 590
f 310 338 193
f 193 302 310
f 5 4 193
f 13 11 193
f 193 35 32
f 450 404 193
f 503 471 193
f 193 2 1
f 604 591 193
f 653 651 193
f 193 220 219
f 193 265 251
f 624 620 193
f 193 207 203
f 193 619 623
f 193 654 656
f 193 650 652
f 656 658 193
f 657 655 193
f 193 659 657
f 180 194 193
f 193 156 163
f 193 103 113
f 554 562 193
f 193 338 396
f 264 302 193
f 436 449 193
f 400 417 193
f 218 222 193
f 4 3 193
f 121 119 193
f 193 132 121
f 193 610 604
f 585 574 193
f 193 591 585
f 193 633 624
f 193 651 646
f 646 644 193
f 311 303 193
f 193 187 183
f 193 176 169
f 645 650 193
f 193 643 645
f 623 632 193
f 193 544 554
f 193 417 436
f 193 490 502
f 502 514 193
f 214 215 193
f 193 222 224
f 467 485 193
f 3 2 193
f 545 534 193
f 224 248 193
f 193 555 545
f 303 265 193
f 193 213 212
f 203 200 193
f 193 485 490
f 193 248 252
f 193 620 610
f 208 207 193
f 193 200 198
f 609 619 193
f 195 189 193
f 189 184 193
f 174 176 183
f 166 176 174
f 183 187 174
f 187 184 174
