v -0.009518661536 -2.275305633e-06 -0.001899968949
v -0.009479491971 -6.122083869e-05 -0.007210511249
v -0.009449461475 0.0009791186312 -0.001949878293
v -0.009448934346 -0.000983634498 -0.001949875848
v -0.009447807446 0.0007124505937 -0.007196658757
v -0.009427759796 -0.0009111458203 -0.007188438904
v -0.009332716465 0.001540682744 -0.007147191092
v -0.009285954295 -0.0001997628098 0.0117100109
v -0.009285875299 -0.0002219977627 0.0117100109
v -0.009285746142 -0.001772472053 -0.007127828896
v -0.009285455535 -0.0002597025136 0.0117100109
v -0.009283539904 -0.0003350678999 0.0117100109
v -0.009275408363 -0.0004855798027 0.0117100109
v -0.009271473624 -0.001920648268 -0.004838970024
v -0.009263147272 0.0002219998253 0.0117100109
v -0.009253313765 0.001946004573 -0.002079317579
v -0.009252266027 -0.001950414036 -0.00207931106
v -0.009239960846 -0.0009790656509 0.0117100109
v -0.009227973912 0.0007145760679 0.0117100109
v -0.009206530785 -0.001278040602 0.0117100109
v -0.00920535619 0.00088715049 0.0117100109
v -0.009194420758 -0.001353474105 0.0117100109
v -0.009162215503 0.001118965602 0.0117100109
v -0.009161780585 -0.001522990768 0.0117100109
v -0.009121682495 0.002414901974 -0.00705594942
v -0.009094340727 -0.00250592595 -0.007044599857
v -0.009063463794 0.001599745447 0.0117100109
v -0.009062772348 -0.002005590171 0.0117100109
v -0.009024293538 0.001762624183 0.0117100109
v -0.008990050294 0.00284281536 -0.004961790051
v -0.008988520131 -0.002847086638 -0.004961798433
v -0.008985911496 0.002838187618 -0.006996005774
v -0.008975796251 -0.002339092626 0.0117100109
v -0.008973271277 0.001940058084 0.0117100109
v -0.008968641161 -0.002362150661 0.0117100109
v -0.008948179893 0.002883827547 -0.002257832792
v -0.008946629241 -0.002888076939 -0.002257832792
v -0.008822140987 0.00239906235 0.0117100109
v -0.008817306619 -0.002823526218 0.0117100109
v -0.008813206106 0.003296640702 -0.006918779109
v -0.008788125589 -0.003357519861 -0.006908318028
v -0.008707363518 0.002717854431 0.0117100109
v -0.008643280146 0.002865427085 0.0117100109
v -0.008622124487 -0.003327129148 0.0117100109
v -0.008617764339 0.003730181837 -0.005093732849
v -0.00861575827 -0.00373424869 -0.005093737971
v -0.008552027866 0.003778049489 -0.002455027774
v -0.008470647968 0.004044784699 -0.006761775352
v -0.008452284783 0.003291797026 0.0117100109
v -0.008450129249 -0.003732591398 0.0117100109
v -0.008430766786 0.00333784393 0.0117100109
v -0.00840435084 -0.004171874374 -0.006731975358
v -0.008356646143 -0.003912308407 0.0117100109
v -0.008241458354 0.003688944801 0.0117100109
v -0.008169055916 0.004565235693 -0.005211689044
v -0.00816660095 -0.004569064826 -0.005211690906
v -0.008082820103 0.004614118952 -0.002640447579
v -0.008081963678 -0.004419578015 0.0117100109
v -0.008031577803 0.004813716747 -0.006553904619
v -0.008022757915 0.00407475517 0.0117100109
v -0.007993629568 -0.004577181587 0.0117100109
v -0.007947372525 0.004187853727 0.0117100109
v -0.007928985171 -0.004971568473 -0.006506746635
v -0.007893169584 -0.004738621982 0.0117100109
v -0.007867876936 -0.004778753053 0.0117100109
v -0.007775585011 0.004437198861 0.0117100109
v -0.007727004783 -0.004980100622 0.0117100109
v -0.00765734259 0.005334894639 -0.005292597227
v -0.00765447272 -0.005338444375 -0.005292602349
v -0.007630942573 -0.005116562897 0.0117100109
v -0.00755852228 0.005377479829 -0.002783638658
v -0.007541524502 0.004775218943 0.0117100109
v -0.007539976388 0.005515098106 -0.006312261801
v -0.007528783034 -0.005259869046 0.0117100109
v -0.007439159938 -0.005380342388 0.0117100109
v -0.007430614904 -0.005653404165 -0.006257352419
v -0.007292983724 0.005073189937 0.0117100109
v -0.007261530789 -0.005595568181 0.0117100109
v -0.00720653066 0.005176806741 0.0117100109
v -0.00713558262 -0.005740667103 0.0117100109
v -0.007124892638 0.005271468218 0.0117100109
v -0.007096035872 0.006026067771 -0.005313366652
v -0.007092796266 -0.006029316224 -0.005313373636
v -0.007059831781 -0.005824746291 0.0117100109
v -0.007049832493 0.006095805671 -0.006058223546
v -0.007027001114 0.005372368966 0.0117100109
v -0.00701502108 -0.005874140992 0.0117100109
v -0.006997099612 0.006053590681 -0.002854204737
v -0.006960150151 -0.005930517355 0.0117100109
v -0.006888575386 -0.006265328731 -0.005972597282
v -0.006823385652 -0.006062438826 0.0117100109
v -0.006817023012 0.005577591395 0.0117100109
v -0.006807741243 0.00614660373 -0.0005664291675
v -0.00677889564 -0.006102640064 0.0117100109
v -0.006736921846 0.005655825673 0.0117100109
v -0.006584246453 -0.00626123367 0.0117100109
v -0.00656374766 0.005811156077 0.0117100109
v -0.006507323124 0.006630457938 -0.005764465313
v -0.006503758952 -0.006633390207 -0.005764477886
v -0.00650358439 -0.006315910403 0.0117100109
v -0.006448833059 0.005908661018 0.0117100109
v -0.006370970514 0.006640407722 -0.002035313984
v -0.006365418261 -0.006405842904 0.0117100109
v -0.006343589164 0.00677218847 -0.005672601052
v -0.006326747127 0.00665548956 -0.001416782499
v -0.006159618189 -0.00652468266 0.0117100109
v -0.006138349039 -0.006536770555 0.0117100109
v -0.006059961859 0.006766209379 0.001254815375
v -0.005945359822 -0.007082778029 -0.005446597468
v -0.005908778843 -0.006649993452 0.0117100109
v -0.005903183948 0.006834995002 0.002527855104
v -0.005807226058 0.007131549995 -0.003463624511
v -0.005803391803 -0.007134110667 -0.003463622881
v -0.005774713585 0.006468438393 0.0117100109
v -0.005729382858 0.007119603921 -0.001266034087
v -0.005708659068 0.007246838417 -0.005303337704
v -0.00560535118 0.00695701642 0.004943842534
v -0.005594939591 -0.006786465491 0.0117100109
v -0.005447586998 0.007163572591 0.00263022352
v -0.00538831111 0.007014376577 0.007314442657
v -0.005337938666 0.007010697853 0.008225851692
v -0.005334664602 -0.007477743551 -0.005076997913
v -0.005316481693 -0.006892077257 0.0117100109
v -0.005272348072 0.006864781419 0.0117100109
v -0.005250297021 0.006889347918 0.01158364117
v -0.005248319763 0.006880694717 0.0117100109
v -0.005162795074 0.007189022843 0.006271477323
v -0.00513054459 0.006923661511 0.0117100109
v -0.005091856234 0.007503197994 -0.001030271291
v -0.00508782221 -0.00750537077 -0.001030259067
v -0.005081740674 0.00715311151 0.008154732175
v -0.005081692245 0.007616167422 -0.004916395061
v -0.00506772823 -0.006978600698 0.0117100109
v -0.005062007346 -0.006980450934 0.0117100109
v -0.005042389967 0.007074865513 0.01010529511
v -0.005038587376 -0.007077012677 0.01010528952
v -0.00500393732 0.006968850146 0.0117100109
v -0.004954000004 0.007435250096 0.002815697808
v -0.004950002767 -0.007437352557 0.002815703396
v -0.004840122681 0.007027112175 0.0117100109
v -0.004812736064 0.007345077116 0.006402749568
v -0.00476981001 0.007164306473 0.01020590682
v -0.004765959457 -0.007166305557 0.01020590309
v -0.004684893414 -0.007807498332 -0.004659528378
v -0.004634923302 0.007829413749 -0.004622617271
v -0.004413724877 0.007921670564 -0.004471231252
v -0.004391646944 0.007822398096 -0.0007292933296
v -0.004387442488 -0.007824195549 -0.0007292902446
v -0.004367436282 0.007680386305 0.003063175594
v -0.004363306332 -0.007682168856 0.003063173266
v -0.004356729798 -0.007944277488 -0.004436219577
v -0.004181750512 0.007223485118 0.0117100109
v -0.004140703092 -0.007250758478 0.0117100109
v -0.004091233343 0.007249598593 0.0117100109
v -0.003957939334 -0.008087181486 -0.004151544068
v -0.003803796368 0.007424467709 0.01056791097
v -0.003799805883 -0.007425946184 0.01056790259
v -0.003793643143 0.00732888354 0.0117100109
v -0.003789703777 -0.0073303561 0.0117100109
v -0.003746912349 0.007679468952 0.006830221973
v -0.003742784029 -0.007680917624 0.006830220576
v -0.003728699638 0.008158606477 -0.003976125736
v -0.003694134997 0.007894480601 0.003359978087
v -0.003689892124 -0.007895903662 0.003359974828
v -0.003631496336 0.008078909479 -0.000378872297
v -0.003627152648 -0.008080294356 -0.000378870609
v -0.003200512147 -0.008297469467 -0.0035693557
v -0.003041810822 0.008332373574 -0.003435476217
v -0.00295578409 -0.008350281976 -0.003367194673
v -0.00267919758 0.007576359805 0.0117100109
v -0.00267512526 -0.007577235013 0.0117100109
v -0.002472733147 -0.008435280994 -0.002942910418
v -0.002424654086 0.007628837546 0.0117100109
v -0.002420553579 -0.00762957627 0.0117100109
v -0.002420121571 0.007689209655 0.0110642584
v -0.002415988361 -0.007689945865 0.01106425934
v -0.002297986066 0.007963365875 0.007402915508
v -0.002293705242 -0.007964034565 0.007402922492
v -0.002247911645 0.008466659114 -0.002728202613
v -0.002131482121 0.008204815909 0.004043612164
v -0.00212707161 -0.008205399849 0.004043622874
v -0.002105956586 -0.00766649052 0.0117100109
v -0.001950196689 0.008407844231 0.0004044071247
v -0.001945676981 -0.008408327587 0.0004044132365
v -0.001833235845 0.008512143977 -0.00231433264
v -0.001832977636 -0.008512193337 -0.002319555962
v -0.00176528201 -0.008518124931 -0.002248563338
v -0.001732797008 0.007712441843 0.0117100109
v -0.001640210976 0.008528016508 -0.002108494751
v -0.001635211171 -0.008528388105 -0.002108889632
v -0.001580283744 0.008532281034 -0.002042605774
v -0.001163647627 -0.008553311229 -0.001559291384
v -0.0009917784482 0.008557805791 -0.001332657528
v -0.0008290436032 0.007812272922 0.0117100109
v -0.0008243942759 -0.00781112061 0.0117100109
v -0.0008237540605 0.007822615094 0.01159042493
v -0.0008195491391 -0.007822490297 0.01159042772
v -0.0007608660116 0.007812543813 0.0117100109
v -0.0007090268773 0.0079894308 0.009424643591
v -0.0007047327235 -0.007989244536 0.009424647316
v -0.0007021821092 -0.007807740458 0.0117100109
v -0.0006267193821 -0.008558620699 -0.0008242244367
v -0.0006113922573 0.008558576927 -0.0007941658259
v -0.0004622669367 0.008555390872 -0.0005596405244
v -0.0003804338347 0.007807815422 0.0117100109
v -0.0002489074541 0.008392051794 0.003452215344
v -0.0002443971753 -0.00839161966 0.003452211851
v -0.0001512059389 -0.008541593328 -2.061285522e-05
v -8.562150469e-05 0.00849801302 0.001187789952
v -2.724193655e-05 0.008533437736 0.0002357037156
v -2.265556031e-05 -0.008532888256 0.0002357090998
v 4.422677011e-05 0.008527619764 0.0003917090653
v 4.8810718e-05 -0.008527021855 0.0003917205322
v 7.297564408e-05 0.007793868358 0.0117100109
v 0.0001149480449 0.008521379903 0.0005476009101
v 0.0001195273799 -0.008520752192 0.0005475901999
v 0.0001220583435 -0.0078078527 -0.003747623181
v 0.000133567024 -0.007806022651 -0.003747223178
v 0.0002828291617 -0.007780622691 -0.003738782834
v 0.0003222368541 0.006973396987 -0.003736127634
v 0.0005560169638 0.007759207671 0.0117100109
v 0.0005601862796 -0.007758342375 0.0117100109
v 0.0007403215277 0.006883182097 -0.003676202148
v 0.0007431937847 0.007934659719 0.009559229948
v 0.0007474577287 -0.007933697663 0.009559216909
v 0.0007583970437 0.008502253331 0.0005480370019
v 0.000842723588 -0.007657245733 -0.003653264837
v 0.0009843497787 0.007692139056 0.0117100109
v 0.001074959873 0.00814816542 0.006497445051
v 0.00107933837 -0.00814702455 0.006497436203
v 0.001192353388 -0.007646192477 0.0117100109
v 0.001313533285 -0.008464366198 0.0005488843308
v 0.001339866896 -0.0037999989 -0.00350246625
v 0.001340218238 -0.007508930285 -0.003502269275
v 0.001382926246 -0.007494424935 -0.003485653084
v 0.001413775841 0.00832214579 0.003384135664
v 0.001418247819 -0.008320817724 0.003384126583
v 0.001463938039 0.006666123867 -0.003452453064
v 0.001485674198 0.007604351653 0.0117100109
v 0.001529630157 -0.00744241057 -0.003423822578
v 0.001628986054 0.007577342827 0.0117100109
v 0.001650951686 0.008433445357 0.0005500346306
v 0.001655783388 -0.008431621827 0.0005498597748
v 0.001876783092 -0.007305357605 -0.003246039385
v 0.001902287011 0.006494490895 -0.003231692361
v 0.00201646379 0.007481973747 0.0117100109
v 0.002020485827 -0.007480326756 0.0117100109
v 0.002250570804 0.007625088096 0.01000257861
v 0.002254669555 -0.007623313926 0.01000257954
v 0.002402139656 0.007363819366 0.0117100109
v 0.002403545892 0.008319057524 0.0003413262602
v 0.002405800857 0.008332994767 0.0005529817427
v 0.002406098051 -0.00736196441 0.0117100109
v 0.002705740742 0.007830768824 0.006984492298
v 0.002709949156 -0.007828749716 0.006984486245
v 0.002743138128 0.007245999817 0.0117100109
v 0.002747032609 -0.007243960808 0.0117100109
v 0.002939003985 -0.008221228607 0.0003440731089
v 0.002941674553 -0.008234495297 0.0005556062679
v 0.002991101472 0.007372520398 0.0102068428
v 0.002995063784 -0.007370347623 0.01020684
v 0.003138857195 0.007996055298 0.003880933393
v 0.003143155249 -0.007993804291 0.003880941309
v 0.003165854072 0.007074091849 0.0117100109
v 0.003169655893 -0.007071827015 0.0117100109
v 0.003461728025 0.006939377423 0.0117100109
v 0.003465457227 -0.006936953325 0.0117100109
v 0.003469147952 0.008117993362 0.0005588117638
v 0.003509111702 0.007573701441 0.007205454167
v 0.003513180418 -0.007571248803 0.007205441594
v 0.003715205006 0.00704900315 0.01039885357
v 0.003718993161 -0.00704644341 0.01039885264
v 0.003914420421 0.006703501247 0.0117100109
v 0.003918024536 -0.006700832821 0.0117100109
v 0.003987773322 0.00783939939 9.611427231e-06
v 0.003987784963 0.007735076826 0.004099710844
v 0.003991941921 -0.007732368074 0.004099712707
v 0.004008209798 0.007908736356 0.000164027253
v 0.004012459423 -0.007906019688 0.0001640202536
v 0.0040221042 0.00795587711 0.0003495134879
v 0.004025584552 0.00796767883 0.0005625422345
v 0.004026402719 -0.007953230292 0.0003500190214
v 0.004029865377 -0.007964950986 0.0005625389167
v 0.004166999804 0.00655758984 0.0117100109
v 0.004170523996 -0.006554785379 0.0117100109
v 0.004222386982 0.007897171192 0.0007520901854
v 0.004226629622 -0.007894337177 0.0007520821528
v 0.004271565005 0.007788150571 0.0001013872534
v 0.004275750369 -0.007785289548 0.0001013905858
v 0.004293493927 0.007244433276 0.007410914637
v 0.004297387321 -0.007241559215 0.00741092395
v 0.00430523511 0.007868900895 0.0004721624427
v 0.004309463315 -0.007866020314 0.0004721619189
v 0.004417140037 0.006650215015 0.01057810616
v 0.004420713522 -0.006647276692 0.01057811175
v 0.004508052487 0.007640911732 3.808787733e-05
v 0.004512158222 -0.007637925912 3.808790279e-05
v 0.004560432397 0.007738186046 0.0003783036082
v 0.004564589821 -0.007735169493 0.0003782949061
v 0.004641326084 0.00624738756 0.0117100109
v 0.004644687687 -0.006244327253 0.0117100109
v 0.004814402666 0.007401284296 0.004299745429
v 0.004818380345 -0.007398130838 0.004299740307
v 0.004831922241 0.007396273315 -1.678212357e-05
v 0.00483589666 -0.007393113803 -1.677003274e-05
v 0.004852962135 0.006095986215 0.0117100109
v 0.00485624101 -0.006092813866 0.0117100109
v 0.004902233835 0.007489446085 0.0002524739539
v 0.004906258546 -0.007486245129 0.00025247343
v 0.005050660111 0.006837991998 0.007600581739
v 0.005054335576 -0.006834714208 0.007600587327
v 0.005091164261 0.006171836983 0.01074411161
v 0.005094482563 -0.006168535911 0.01074412465
v 0.005143520422 0.007502816152 0.001567299245
v 0.005147672258 -0.007499180268 0.001567402156
v 0.005214508157 0.007091382984 -1.678492845e-05
v 0.005218318664 -0.007088014856 -1.678376611e-05
v 0.005289639346 0.007180713117 0.0002524649317
v 0.005293497816 -0.007177302148 0.0002524662414
v 0.005339289586 0.005701209046 0.0117100109
v 0.005342351482 -0.005697775667 0.0117100109
v 0.005422427785 0.00734905852 0.001235146541
v 0.005426457617 -0.007345327642 0.001235236879
v 0.00551287277 0.005549866881 0.0117100109
v 0.005515853616 -0.005546340587 0.0117100109
v 0.005608784966 0.00698902877 0.004481812939
v 0.005612540059 -0.00698545156 0.00448180642
v 0.005644953344 0.007106840145 0.0009133042186
v 0.005648818333 -0.007103038952 0.0009134007851
v 0.005731515586 0.005609589163 0.01089638658
v 0.005734529812 -0.005605944898 0.01089638285
v 0.005772379227 0.006349408533 0.00777410157
v 0.005775791127 -0.006345744245 0.007774102036
v 0.005998096429 0.005994068924 -0.0002820703085
v 0.005998290344 0.005064744298 0.0117100109
v 0.006001010506 -0.005060956386 0.0117100109
v 0.006075378042 0.006962169427 0.002358730882
v 0.006079381332 -0.006957623176 0.002358937869
v 0.006136302081 0.004919635219 0.0117100109
v 0.006138945056 -0.004915771692 0.0117100109
v 0.006177856121 0.006153753959 -1.678957597e-05
v 0.006180097815 0.006769498345 0.001389813493
v 0.006181162782 -0.006149866618 -1.677938781e-05
v 0.006183735561 -0.006765611935 0.001389813493
v 0.006265122909 0.006231273524 0.0002524566662
v 0.006268471945 -0.006227341015 0.0002524625452
v 0.006319982 0.006791553926 0.002008887241
v 0.006323821377 -0.006786998827 0.002009079792
v 0.006329907104 0.004964496475 0.0110340165
v 0.006332574412 -0.004960529041 0.01103401557
v 0.006361003499 0.006492674816 0.004646659829
v 0.006364491768 -0.006488692015 0.004646664485
v 0.006450409535 0.005773772951 0.007931143977
v 0.006453512236 -0.005769739859 0.007931146771
v 0.0064985184 0.006539571099 0.001668372075
v 0.006502137985 -0.006535049994 0.001668554265
v 0.006602378347 0.004348105359 0.0117100109
v 0.006604714903 -0.004343991254 0.0117100109
v 0.00669202581 0.005714656319 0.0002524679003
v 0.006695095915 -0.005710493308 0.0002524610027
v 0.006707017634 0.004215462284 0.0117100109
v 0.006709282841 -0.004211292266 0.0117100109
v 0.00679441588 0.004954602104 -0.000282074383
v 0.006797077134 -0.004950386006 -0.0002820723457
v 0.006873344537 0.004247453995 0.01115531009
v 0.006875626277 -0.004243194591 0.01115531195
v 0.006995390169 0.005086594727 -1.679366869e-05
v 0.006998123601 -0.005082270596 -1.678483386e-05
v 0.00701326644 0.006222839933 0.003086011391
v 0.007016978692 -0.006217476446 0.003086281242
v 0.007061133161 0.005906633101 0.004795053974
v 0.007064307109 -0.005902271252 0.004795060027
v 0.007075429428 0.005111823324 0.00807110779
v 0.007078175433 -0.005107454024 0.008071104065
v 0.007092955988 0.00515066972 0.0002524591691
v 0.007095723413 -0.005146294367 0.0002524623997
v 0.007096180692 0.006034008693 0.002173782792
v 0.00709910877 -0.006029452197 0.002173682209
v 0.007133285079 0.003565802863 0.0117100109
v 0.007135199836 -0.003561403652 0.0117100109
v 0.007202603854 0.006053390447 0.002716151997
v 0.007206119131 -0.006048103794 0.002716396702
v 0.007208564532 0.003448938214 0.0117100109
v 0.007210416997 -0.003444498178 0.0117100109
v 0.007319204509 0.005815350451 0.002354077296
v 0.007322482299 -0.005810182542 0.002354315482
v 0.007348316722 0.00347045064 0.01125851274
v 0.007350180764 -0.003465935588 0.01125851087
v 0.007431942038 0.003810847877 -0.0002820840164
v 0.007433989085 -0.00380629045 -0.0002820797963
v 0.007573871127 0.002732780121 0.0117100109
v 0.007575339734 -0.002728144573 0.0117100109
v 0.007624833845 0.004231299739 0.0002524545998
v 0.007624980584 0.002631997532 0.0117100109
v 0.007626394644 -0.002627335208 0.0117100109
v 0.007627107669 -0.004226638004 0.0002524548036
v 0.007636084687 0.00437489571 0.008192835376
v 0.007638434879 -0.004370225593 0.008192836307
v 0.007649901323 0.003912368324 -1.679391789e-05
v 0.007652002387 -0.003907693084 -1.6800921e-05
v 0.007662130497 0.002531882201 0.0117100109
v 0.007663490579 -0.002527199414 0.0117100109
v 0.007699333597 0.005231333897 0.00492714718
v 0.007702144329 -0.005226629321 0.00492715463
v 0.007741312962 0.002645468572 0.01134184934
v 0.00774273416 -0.002640743507 0.01134184934
v 0.007755711209 0.003961653914 0.0002524484007
v 0.007757839281 -0.003956920002 0.0002524478477
v 0.007865453139 0.001262295642 -0.0004456610768
v 0.00786613021 -0.001257503638 -0.000445669546
v 0.007886888459 0.005270828493 0.003699432826
v 0.007891294546 -0.005264038686 0.003701255424
v 0.007897256874 0.002586883027 -0.0002820832597
v 0.007898646407 -0.002582071815 -0.0002820802911
v 0.007940818428 0.001776893462 0.0117100109
v 0.007941773144 -0.001772062128 0.0117100109
v 0.007957427762 2.419920747e-06 -0.0004456745519
v 0.007960717668 0.001690545373 0.0117100109
v 0.007961625571 -0.001685703735 0.0117100109
v 0.008021384478 0.005116529763 0.003311938141
v 0.008025220595 -0.00510993693 0.003313702764
v 0.00803882163 0.001784492866 0.0114035653
v 0.008039779961 -0.001779609127 0.01140356716
v 0.008077847771 0.00490735285 0.002930975752
v 0.00808103662 -0.004900984932 0.002932678442
v 0.008120802231 0.003575474257 0.008295130916
v 0.008122722618 -0.003570546862 0.008295123465
v 0.008127612993 0.002655793214 -1.679749039e-05
v 0.008129037917 -0.002650860464 -1.680006426e-05
v 0.008141094639 0.000896148443 0.0117100109
v 0.008141574642 -0.0008912097689 0.0117100109
v 0.008151078531 0.0007974161695 0.0117100109
v 0.008151505823 -0.0007924719358 0.0117100109
v 0.008180566132 0.001308465376 -0.0002820840746
v 0.008181267418 -0.001303500962 -0.0002820870432
v 0.008213236881 2.487057339e-06 0.0117100109
v 0.008227331564 0.0008995136595 0.01144188736
v 0.008227813989 -0.0008945288137 0.01144188643
v 0.00823944062 0.002689248417 0.000252448197
v 0.008240885101 -0.002684257692 0.0002524542797
v 0.008265917189 0.004478466231 0.005041957367
v 0.008268323727 -0.004473460373 0.005041967146
v 0.008275905624 2.506473265e-06 -0.000282079709
v 0.008293333463 2.508358648e-06 0.01145505905
v 0.008302043192 0.004578026477 0.003094692482
v 0.008304141462 -0.004572898615 0.003096430795
v 0.008418468758 0.001343320706 -1.679575871e-05
v 0.008419190533 -0.001338232309 -1.679338857e-05
v 0.008516347967 2.570679726e-06 -1.679706656e-05
v 0.008518007584 0.00272605638 0.008376788348
v 0.008519470692 -0.002720914315 0.008376774378
v 0.008533962071 0.001360239228 0.0002524534357
v 0.008534690365 -0.001355088549 0.0002524440933
v 0.008591840975 0.0008787316619 0.0002524436859
v 0.008592313156 -0.0008735482697 0.0002524548036
v 0.00862099044 0.004160531331 0.004200864118
v 0.008625576273 -0.004152945708 0.004203933291
v 0.008633073419 2.60190177e-06 0.0002524558222
v 0.00864167884 2.603859457e-06 0.01020391658
v 0.008716770448 0.004022160545 0.003800841747
v 0.008720422164 -0.004014777485 0.003803839907
v 0.008729098365 0.003841249505 0.003406616161
v 0.008731842041 -0.003834119299 0.003409522818
v 0.008751215413 0.003660951508 0.005138383247
v 0.008753181435 -0.003655683948 0.00513837859
v 0.008816126734 0.001839131583 0.008436598815
v 0.008817113005 -0.001833828399 0.008436598815
v 0.009003585204 0.0009271876188 0.008473366499
v 0.009004081599 -0.000921783736 0.008473361842
v 0.009068808518 2.721465535e-06 0.008485886268
v 0.009145556949 0.002791716717 0.005215292796
v 0.009147056378 -0.002786236815 0.005215298384
v 0.009162011556 0.00286124344 0.003737772349
v 0.009163366631 -0.00285476679 0.003738121595
v 0.009197378531 0.002913873177 0.004608717747
v 0.009199067019 -0.002906825626 0.004609026015
v 0.009236436337 0.002652229741 0.003797224723
v 0.009237619117 -0.00264571514 0.003797515994
v 0.0092602605 0.002797759371 0.004200346302
v 0.00926173944 -0.002790955361 0.004200645722
v 0.0094392756 0.001883675694 0.005271613132
v 0.009440285154 -0.001878038514 0.00527160801
v 0.009487086907 2.830166068e-06 0.006467840169
v 0.009567890316 0.001363470685 0.00407720264
v 0.009569507092 -0.001354777021 0.004081389401
v 0.00958415959 0.00152797997 0.004898927175
v 0.009588332847 -0.001518367091 0.004903320223
v 0.00961957965 0.001453318517 0.004485649522
v 0.009622437879 -0.00144414336 0.004489940125
v 0.00962269865 0.0009497596184 0.005306214094
v 0.009623207152 -0.0009440226713 0.005306217819
v 0.009626324289 0.0009767360752 0.00413160678
v 0.009627281688 -0.0009711507591 0.004134628456
v 0.009657668881 0.0006887699128 0.004162046127
v 0.009658508003 -0.0006816293462 0.004164116457
v 0.009689215571 2.885422646e-06 0.004193923436
v 0.009693771601 0.0007808037917 0.004986588378
v 0.009695856832 -0.0007732473314 0.004988765344
v 0.009718897752 0.0007386455545 0.004571979865
v 0.009720426984 -0.0007312694215 0.004574093036
v 0.009733520448 2.89593163e-06 0.005019508768
v 0.00975433737 2.904606617e-06 0.004604409449
f 17 14 31
f 59 73 223
f 4 14 17
f 17 31 37
f 28 17 33
f 259 263 237
f 237 263 230
f 200 230 225
f 225 230 255
f 230 263 255
f 277 315 303
f 303 270 277
f 277 255 263
f 270 255 277
f 481 468 490
f 46 31 41
f 46 37 31
f 104 116 223
f 223 98 104
f 223 73 85
f 85 98 223
f 223 40 48
f 48 59 223
f 18 4 20
f 3 19 21
f 30 16 36
f 174 176 182
f 259 237 243
f 243 237 232
f 202 192 243
f 243 232 202
f 197 200 225
f 176 200 197
f 207 237 230
f 230 200 207
f 283 263 259
f 283 277 263
f 258 190 219
f 192 190 258
f 259 243 258
f 258 243 192
f 227 90 76
f 219 99 227
f 99 90 227
f 348 338 323
f 323 338 315
f 370 338 348
f 483 490 468
f 481 490 486
f 490 483 497
f 497 486 490
f 488 486 497
f 233 2 238
f 3 16 7
f 162 168 223
f 223 168 179
f 245 334 363
f 206 180 199
f 199 229 206
f 206 229 236
f 469 459 438
f 469 438 467
f 467 438 423
f 437 459 468
f 489 487 480
f 489 478 485
f 480 478 489
f 78 75 76
f 87 90 89
f 76 90 83
f 63 227 76
f 109 99 219
f 116 104 112
f 45 48 40
f 45 36 47
f 40 30 45
f 45 30 36
f 73 59 68
f 59 57 68
f 47 57 55
f 55 45 47
f 48 45 55
f 59 48 55
f 55 57 59
f 3 21 23
f 8 15 1
f 52 46 41
f 52 63 56
f 41 227 52
f 227 63 52
f 4 24 22
f 20 4 22
f 171 176 174
f 195 197 201
f 232 237 216
f 237 207 216
f 216 213 232
f 207 213 216
f 181 207 200
f 225 255 249
f 247 231 249
f 249 255 270
f 368 364 400
f 343 244 368
f 368 244 364
f 279 227 289
f 219 227 279
f 289 227 234
f 2 233 234
f 234 227 41
f 348 323 329
f 299 323 315
f 472 465 476
f 480 487 476
f 468 459 470
f 470 483 468
f 470 459 469
f 469 483 470
f 469 487 491
f 491 483 469
f 488 497 499
f 501 497 483
f 502 499 501
f 501 499 497
f 501 500 502
f 466 468 481
f 466 437 468
f 422 437 466
f 485 478 453
f 453 478 440
f 238 7 25
f 16 30 25
f 25 7 16
f 238 2 5
f 5 7 238
f 3 7 5
f 1 3 5
f 5 2 1
f 36 42 43
f 220 162 223
f 146 162 220
f 223 145 220
f 220 145 146
f 175 173 188
f 183 206 193
f 180 206 183
f 185 179 183
f 183 179 168
f 175 199 177
f 199 180 177
f 177 180 160
f 160 180 163
f 163 142 160
f 149 142 163
f 147 162 146
f 147 138 149
f 146 145 147
f 341 363 334
f 245 238 341
f 341 334 245
f 191 183 193
f 278 179 185
f 280 288 278
f 359 341 345
f 236 229 262
f 224 229 199
f 419 416 423
f 482 467 472
f 472 476 482
f 482 476 487
f 482 487 469
f 469 467 482
f 431 438 433
f 432 437 430
f 459 437 444
f 444 438 459
f 463 440 474
f 440 478 474
f 474 480 463
f 474 478 480
f 90 87 84
f 64 63 65
f 164 143 150
f 99 94 91
f 122 109 219
f 113 109 122
f 71 68 57
f 73 68 71
f 57 60 62
f 47 51 54
f 1 13 12
f 12 11 1
f 1 11 9
f 9 8 1
f 44 39 37
f 33 17 35
f 161 143 164
f 164 181 161
f 202 232 208
f 208 207 202
f 261 249 270
f 291 270 303
f 291 261 270
f 338 370 352
f 408 440 463
f 396 368 400
f 400 408 396
f 386 378 360
f 343 368 360
f 14 4 10
f 235 238 240
f 235 233 238
f 235 234 233
f 282 279 289
f 282 283 259
f 259 258 282
f 282 258 219
f 219 279 282
f 315 277 287
f 277 283 287
f 240 244 305
f 354 313 333
f 451 467 423
f 472 467 451
f 451 465 472
f 451 427 465
f 366 350 398
f 398 388 366
f 427 388 398
f 502 500 495
f 498 491 487
f 487 489 498
f 489 500 498
f 500 501 498
f 483 491 498
f 498 501 483
f 494 499 502
f 379 383 387
f 422 415 418
f 387 405 426
f 426 397 387
f 464 441 426
f 426 441 397
f 450 405 422
f 422 466 450
f 450 426 405
f 464 426 450
f 184 190 192
f 207 181 184
f 184 192 202
f 202 207 184
f 32 30 40
f 32 25 30
f 238 25 32
f 32 40 223
f 223 238 32
f 49 51 47
f 29 16 27
f 29 34 16
f 38 42 36
f 170 173 175
f 175 177 156
f 156 177 160
f 154 158 156
f 160 142 156
f 196 199 175
f 165 183 168
f 168 162 165
f 180 183 165
f 165 163 180
f 162 147 165
f 149 163 165
f 165 147 149
f 223 116 132
f 132 145 223
f 296 238 223
f 223 288 296
f 189 278 185
f 185 183 189
f 183 191 189
f 179 278 275
f 275 278 288
f 223 179 275
f 275 288 223
f 477 488 484
f 484 452 477
f 477 452 439
f 479 486 488
f 488 477 479
f 411 441 456
f 456 441 464
f 367 359 375
f 341 359 367
f 363 341 367
f 375 393 367
f 424 393 375
f 254 262 229
f 229 224 254
f 397 373 349
f 326 314 302
f 337 314 326
f 302 290 326
f 326 290 310
f 332 310 294
f 63 70 67
f 65 63 67
f 69 63 76
f 130 107 106
f 136 150 143
f 130 122 144
f 98 85 88
f 82 85 73
f 73 71 82
f 82 88 85
f 71 88 82
f 57 62 66
f 58 53 52
f 143 134 133
f 143 161 157
f 157 159 153
f 178 161 181
f 178 200 176
f 178 181 200
f 176 157 178
f 178 157 161
f 232 213 211
f 211 208 232
f 211 213 207
f 207 208 211
f 261 291 272
f 327 291 303
f 338 352 327
f 303 315 327
f 315 338 327
f 446 408 463
f 425 396 446
f 446 396 408
f 404 412 442
f 442 398 404
f 465 427 442
f 427 398 442
f 382 412 370
f 382 378 386
f 382 370 348
f 348 356 382
f 382 356 378
f 386 360 376
f 376 425 386
f 376 396 425
f 368 396 376
f 376 360 368
f 2 234 6
f 234 10 6
f 6 10 4
f 6 4 1
f 1 2 6
f 41 31 26
f 26 234 41
f 26 10 234
f 26 31 14
f 14 10 26
f 348 329 344
f 344 356 348
f 346 360 378
f 378 356 346
f 356 344 346
f 343 360 346
f 346 344 329
f 289 299 293
f 293 282 289
f 283 282 293
f 293 287 283
f 293 299 315
f 315 287 293
f 297 299 289
f 289 234 297
f 234 235 297
f 297 235 240
f 240 305 297
f 317 244 343
f 317 305 244
f 343 346 317
f 309 329 323
f 323 299 309
f 305 317 309
f 299 297 309
f 309 297 305
f 333 352 372
f 372 354 333
f 372 352 370
f 372 412 404
f 370 412 372
f 313 354 331
f 350 340 336
f 366 362 358
f 406 388 427
f 427 451 406
f 406 451 423
f 374 398 350
f 350 331 374
f 374 331 354
f 404 398 374
f 374 372 404
f 354 372 374
f 493 495 500
f 493 489 485
f 493 500 489
f 458 495 455
f 495 493 455
f 485 453 455
f 455 493 485
f 499 494 492
f 484 488 492
f 488 499 492
f 496 495 458
f 458 494 496
f 502 495 496
f 496 494 502
f 391 394 405
f 405 394 401
f 481 486 475
f 486 479 475
f 475 456 464
f 475 479 460
f 460 456 475
f 471 466 481
f 471 450 466
f 481 475 471
f 464 450 471
f 471 475 464
f 429 453 440
f 400 414 429
f 429 408 400
f 440 408 429
f 390 414 400
f 244 414 390
f 400 364 390
f 364 244 390
f 407 439 428
f 245 363 389
f 389 413 245
f 363 367 389
f 389 428 413
f 151 155 148
f 150 139 148
f 148 144 151
f 148 139 130
f 130 144 148
f 172 184 169
f 154 156 152
f 198 196 194
f 236 242 226
f 226 206 236
f 226 209 206
f 215 209 226
f 322 314 337
f 411 369 371
f 316 341 238
f 345 341 316
f 462 439 407
f 460 479 462
f 411 456 420
f 420 456 460
f 250 256 260
f 251 268 280
f 251 189 191
f 251 191 193
f 280 278 251
f 278 189 251
f 193 242 251
f 269 290 302
f 260 290 269
f 248 260 269
f 269 254 248
f 339 349 335
f 330 349 373
f 397 349 365
f 387 397 365
f 310 290 271
f 271 294 310
f 271 264 266
f 271 290 260
f 351 369 337
f 337 326 351
f 332 371 351
f 351 371 369
f 351 310 332
f 351 326 310
f 221 224 214
f 221 228 224
f 241 246 248
f 95 105 92
f 81 88 79
f 98 88 102
f 102 104 98
f 102 88 93
f 93 105 102
f 102 112 104
f 102 105 112
f 261 257 253
f 265 272 267
f 311 272 291
f 291 327 311
f 311 352 333
f 311 327 352
f 461 446 463
f 463 480 461
f 480 476 461
f 386 425 421
f 421 382 386
f 412 382 421
f 425 446 421
f 446 461 421
f 329 309 319
f 319 309 317
f 319 346 329
f 319 317 346
f 388 384 380
f 321 331 325
f 395 406 402
f 435 429 414
f 435 244 240
f 435 414 244
f 454 492 494
f 454 494 458
f 454 452 484
f 484 492 454
f 452 454 447
f 439 452 447
f 447 428 439
f 407 428 399
f 428 389 399
f 399 393 407
f 399 367 393
f 399 389 367
f 240 238 417
f 238 409 417
f 217 167 155
f 217 155 151
f 169 167 217
f 151 144 217
f 217 172 169
f 155 167 166
f 166 148 155
f 166 167 169
f 164 150 166
f 150 148 166
f 169 184 166
f 166 181 164
f 166 184 181
f 126 125 124
f 121 125 131
f 127 119 121
f 127 131 138
f 121 131 127
f 129 132 116
f 145 132 129
f 129 127 138
f 119 127 129
f 129 147 145
f 138 147 129
f 121 119 120
f 281 268 262
f 280 268 281
f 276 269 302
f 302 314 276
f 314 286 276
f 276 281 262
f 286 281 276
f 262 254 276
f 254 269 276
f 292 286 314
f 280 281 292
f 292 281 286
f 292 288 280
f 411 371 403
f 403 371 373
f 403 441 411
f 397 441 403
f 403 373 397
f 238 296 304
f 304 316 238
f 473 479 477
f 473 462 479
f 473 477 439
f 439 462 473
f 460 462 445
f 445 420 460
f 424 420 445
f 445 462 407
f 407 393 445
f 393 424 445
f 252 242 236
f 252 251 242
f 236 262 252
f 262 268 252
f 268 251 252
f 332 294 312
f 353 330 373
f 353 371 332
f 373 371 353
f 332 312 353
f 353 312 330
f 361 365 357
f 273 284 294
f 77 79 88
f 272 311 295
f 295 285 274
f 295 311 333
f 333 313 295
f 313 307 301
f 457 442 412
f 412 421 457
f 457 421 461
f 465 442 457
f 457 476 465
f 457 461 476
f 406 395 392
f 458 455 449
f 449 454 458
f 449 447 454
f 413 428 434
f 428 447 434
f 245 413 434
f 434 417 409
f 434 238 245
f 434 409 238
f 447 449 434
f 410 435 240
f 240 417 410
f 410 417 435
f 218 122 219
f 219 190 218
f 218 144 122
f 218 217 144
f 172 217 186
f 184 172 186
f 217 218 186
f 135 131 125
f 135 142 149
f 149 138 141
f 138 131 141
f 141 135 149
f 131 135 141
f 112 105 115
f 115 105 108
f 119 129 115
f 116 112 115
f 115 129 116
f 111 115 108
f 226 204 210
f 210 204 209
f 203 242 193
f 193 206 203
f 203 226 242
f 203 204 226
f 206 209 203
f 209 204 203
f 298 296 288
f 288 292 298
f 314 322 298
f 298 292 314
f 316 304 318
f 345 316 318
f 347 322 337
f 337 369 347
f 377 359 345
f 345 355 377
f 320 324 330
f 306 312 300
f 448 455 453
f 448 449 455
f 435 449 448
f 453 429 448
f 429 435 448
f 443 449 435
f 443 434 449
f 435 417 443
f 417 434 443
f 190 184 187
f 184 186 187
f 187 218 190
f 187 186 218
f 117 111 121
f 121 120 117
f 115 111 117
f 117 120 119
f 119 115 117
f 212 209 215
f 212 210 209
f 215 226 212
f 226 210 212
f 342 347 355
f 342 355 345
f 308 298 322
f 308 318 304
f 308 304 296
f 296 298 308
f 375 359 385
f 359 377 385
f 385 424 375
f 385 420 424
f 135 128 137
f 345 318 328
f 328 342 345
f 328 308 322
f 318 308 328
f 322 347 328
f 347 342 328
f 381 385 377
f 381 347 369
f 420 385 381
f 355 347 381
f 381 377 355
f 381 369 411
f 411 420 381
f 15 3 1
f 15 19 3
f 24 4 17
f 17 28 24
f 197 222 201
f 225 222 197
f 80 78 83
f 83 78 76
f 96 94 109
f 109 94 99
f 96 109 100
f 100 109 113
f 1 4 13
f 4 18 13
f 27 16 23
f 23 16 3
f 195 182 176
f 176 197 195
f 249 222 225
f 249 231 222
f 224 205 214
f 199 205 224
f 419 438 431
f 423 438 419
f 444 432 436
f 437 432 444
f 436 433 444
f 444 433 438
f 80 83 84
f 84 83 90
f 61 56 64
f 56 63 64
f 89 90 91
f 91 90 99
f 103 100 122
f 122 100 113
f 54 57 47
f 54 60 57
f 37 46 44
f 46 50 44
f 17 37 35
f 37 39 35
f 53 50 46
f 46 52 53
f 430 437 418
f 418 437 422
f 47 36 49
f 36 43 49
f 36 16 38
f 16 34 38
f 158 170 156
f 156 170 175
f 196 188 194
f 175 188 196
f 103 122 106
f 106 122 130
f 110 107 139
f 139 107 130
f 139 118 110
f 150 118 139
f 123 118 136
f 136 118 150
f 81 86 88
f 88 86 93
f 72 71 66
f 66 71 57
f 58 56 61
f 58 52 56
f 123 136 133
f 133 136 143
f 153 134 157
f 157 134 143
f 171 159 157
f 176 171 157
f 265 257 272
f 272 257 261
f 325 331 336
f 336 331 350
f 358 350 366
f 358 340 350
f 406 416 402
f 423 416 406
f 387 383 391
f 391 405 387
f 401 415 422
f 422 405 401
f 152 156 142
f 142 140 152
f 198 205 199
f 199 196 198
f 124 125 114
f 114 125 121
f 248 246 250
f 250 260 248
f 361 379 365
f 365 379 387
f 256 264 271
f 260 256 271
f 76 75 74
f 74 69 76
f 74 70 63
f 63 69 74
f 93 86 92
f 92 105 93
f 247 249 253
f 249 261 253
f 380 362 366
f 366 388 380
f 321 307 313
f 313 331 321
f 335 349 324
f 349 330 324
f 349 339 357
f 357 365 349
f 273 271 266
f 294 271 273
f 239 254 224
f 224 228 239
f 248 254 239
f 239 241 248
f 77 71 72
f 77 88 71
f 274 267 295
f 295 267 272
f 301 295 313
f 285 295 301
f 392 384 388
f 388 406 392
f 97 105 95
f 108 105 97
f 111 97 101
f 108 97 111
f 111 114 121
f 111 101 114
f 320 312 306
f 330 312 320
f 294 284 300
f 300 312 294
f 125 126 128
f 128 135 125
f 137 28 33
f 95 92 137
f 402 416 137
f 246 241 137
f 137 231 247
f 20 22 137
f 137 195 201
f 137 188 173
f 27 23 137
f 137 250 246
f 174 182 137
f 137 198 194
f 137 44 50
f 123 133 137
f 173 170 137
f 103 106 137
f 42 38 137
f 75 78 137
f 137 87 89
f 137 54 51
f 11 12 137
f 201 222 137
f 137 100 103
f 137 358 362
f 124 114 137
f 431 433 137
f 80 84 137
f 65 67 137
f 89 91 137
f 137 18 20
f 137 21 19
f 19 15 137
f 33 35 137
f 137 24 28
f 137 171 174
f 153 159 137
f 137 239 228
f 222 231 137
f 362 380 137
f 383 379 137
f 51 49 137
f 214 205 137
f 384 392 137
f 137 419 431
f 137 78 80
f 137 432 430
f 61 64 137
f 137 94 96
f 96 100 137
f 137 74 75
f 137 13 18
f 137 23 21
f 15 8 137
f 137 9 11
f 137 22 24
f 72 66 137
f 182 195 137
f 247 253 137
f 137 58 61
f 137 321 325
f 430 418 137
f 137 43 42
f 137 29 27
f 137 158 154
f 154 152 137
f 194 188 137
f 137 395 402
f 137 339 335
f 416 419 137
f 137 433 436
f 436 432 137
f 137 84 87
f 361 357 137
f 137 64 65
f 137 107 110
f 137 91 94
f 137 118 123
f 137 62 60
f 60 54 137
f 137 12 13
f 8 9 137
f 39 44 137
f 137 35 39
f 50 53 137
f 137 159 171
f 137 134 153
f 325 336 137
f 137 379 361
f 137 418 415
f 137 391 383
f 137 49 43
f 34 29 137
f 137 38 34
f 137 170 158
f 415 401 137
f 266 264 137
f 137 221 214
f 137 67 70
f 137 106 107
f 110 118 137
f 137 86 81
f 137 66 62
f 53 58 137
f 137 133 134
f 137 257 265
f 137 267 274
f 274 285 137
f 137 336 340
f 340 358 137
f 394 391 137
f 137 401 394
f 137 152 140
f 205 198 137
f 137 126 124
f 137 264 256
f 256 250 137
f 335 324 137
f 137 320 306
f 228 221 137
f 137 273 266
f 70 74 137
f 137 92 86
f 81 79 137
f 137 253 257
f 265 267 137
f 137 77 72
f 137 380 384
f 307 321 137
f 137 301 307
f 306 300 137
f 114 101 137
f 137 97 95
f 137 357 339
f 284 273 137
f 241 239 137
f 79 77 137
f 285 301 137
f 137 392 395
f 101 97 137
f 324 320 137
f 137 300 284
f 137 128 126
f 137 140 142
f 142 135 137
