v -0.03178994358 0.002391248941 -0.03053291515
v -0.03176172078 0.002841915935 -0.03053291515
v -0.03176172078 0.002841916401 -0.03353291377
v -0.03172937781 0.003264189232 -0.03353291377
v -0.03163982928 -0.002882379573 -0.03353291377
v -0.0315919593 -0.003283694386 -0.03053291515
v -0.0315919593 -0.003283693921 -0.03353291377
v -0.0315284282 -0.003759417683 -0.03053291515
v -0.03123109974 0.003222652012 -0.03403291479
v -0.03114297427 -0.002826349577 -0.03403291479
v -0.03085015155 0.008475318551 -0.03053291515
v -0.03074225225 0.008884485811 -0.03353291377
v -0.03074225225 0.008884485811 -0.03053291515
v -0.03062345274 0.009311106056 -0.03353291377
v -0.03035819717 -0.00889451243 -0.03353291377
v -0.03023940511 -0.009260524064 -0.03353291377
v -0.03023940511 -0.009260524064 -0.03053291515
v -0.03014273383 0.00917359069 -0.03403291479
v -0.03007561155 -0.00974176079 -0.03053291515
v -0.02988170274 -0.00874305144 -0.03403291479
v -0.02874495089 0.01426041126 -0.03053291328
v -0.02857212722 0.01461532339 -0.03353291377
v -0.02857212722 0.01461532339 -0.03053291328
v -0.02836414427 0.01502808183 -0.03353291377
v -0.02793332562 -0.01454324834 -0.03353291377
v -0.02791929245 0.01479982212 -0.03403291479
v -0.02775521949 -0.01486238092 -0.03353291377
v -0.02775521949 -0.01486238092 -0.03053291701
v -0.02749529853 -0.01430212334 -0.03403291479
v -0.02748696133 -0.01532728225 -0.03053291701
v -0.02555475384 0.01952555589 -0.03053291328
v -0.02533349395 0.01981755346 -0.03353291377
v -0.02503752708 0.02019741014 -0.03353291377
v -0.02464547753 0.01988709718 -0.03403291479
v -0.02445751801 -0.01961346529 -0.03353291377
v -0.02423343435 -0.01987725683 -0.03053291701
v -0.02423343435 -0.01987725496 -0.03353291377
v -0.02407466993 -0.01929186098 -0.03403291479
v -0.02114891261 0.02429429069 -0.03353291005
v -0.0207702741 0.02462220564 -0.03353291005
v -0.02044596523 0.02424165979 -0.03403291106
v -0.02006317303 -0.02391207032 -0.0335329175
v -0.01980734244 -0.024115365 -0.0335329175
v -0.01975007728 -0.02352222987 -0.03403291851
v -0.01937056519 0.004441635683 0.06926354021
v -0.01935051195 0.008091622964 0.06970912218
v -0.01934864931 0.003044218291 0.06909387559
v -0.01933225803 0.008891517296 0.06983333081
v -0.01932097785 0.009299841709 0.06989979744
v -0.01928586327 0.006668987684 0.07017084211
v -0.01925597154 0.002961115446 0.06973467767
v -0.01920123957 0.01032453403 0.07073909044
v -0.01915494911 -0.001605763566 0.06844758242
v -0.01913345419 0.01332152169 0.07055772841
v -0.0189452786 -0.004347476177 0.0679846704
v -0.0188467633 -0.004453527741 0.06860093772
v -0.01880804263 0.01725753024 0.07118887454
v -0.01871014945 -0.00651599234 0.06745916605
v -0.01867346279 0.01765937731 0.07196771353
v -0.0184085723 -0.008172314614 0.06751182675
v -0.01820604317 0.02130665258 0.07272113115
v -0.01815859042 0.02208433673 0.07216390222
v -0.01812469773 -0.009819490835 0.06597856432
v -0.01790858619 0.0234442614 0.07240191847
v -0.01763097011 -0.01158721745 0.06563723832
v -0.01750632189 0.02505819127 0.07331798226
v -0.01739454083 0.02572475001 0.07265552878
v -0.01722691767 0.0263527669 0.07268215716
v -0.01721247472 0.02640476823 0.07268368453
v -0.01641355641 0.02884590253 0.07342215627
v -0.01617674157 0.02787611634 -0.03353291005
v -0.01597879641 0.02999870852 0.07264838368
v -0.01577468775 0.03047778085 0.07263661921
v -0.01572490111 0.02813396603 -0.03353291005
v -0.01548066735 0.02769768238 -0.03403291106
v -0.0149176307 -0.02727535553 -0.0335329175
v -0.01482102834 0.03247445822 0.07339373231
v -0.01468621194 -0.02683213726 -0.03403291851
v -0.01464442536 -0.02741631307 -0.0335329175
v -0.01396289282 0.03484507278 0.05457606912
v -0.01377034746 0.03421767056 0.07343919575
v -0.01367537491 0.03530722111 0.05433619022
v -0.01325570233 0.03565214947 0.05409535766
v -0.01312075369 0.01560135465 0.09093736857
v -0.01311902143 0.01260999124 0.09093752503
v -0.01311305352 0.002309992444 0.09093804657
v -0.01311132126 -0.0006813704967 0.09093819559
v -0.01290664636 0.03536334634 0.07273110747
v -0.01284546219 0.03600673378 0.05626810342
v -0.01247095875 0.03587775677 0.07355777174
v -0.01245748065 0.03631125391 0.05595109612
v -0.01245369576 -0.0008648722433 0.09178107977
v -0.01220641844 -0.0009146830998 0.09197952598
v -0.01188912056 0.03649289161 0.07287693769
v -0.01186940633 -0.03196944669 0.0546534434
v -0.01185784303 -0.03227945045 0.05398062617
v -0.01185324602 0.0365277864 0.07288312912
v -0.01134387963 -0.0337180756 0.05381651968
v -0.01120550744 0.03710001335 0.07300683856
v -0.01093123294 -0.001037595794 0.09250587225
v -0.01075447537 -0.03490068391 0.05435417593
v -0.01074862666 0.03735918552 0.07382562011
v -0.01066647284 0.03745881841 0.07273885608
v -0.01060515549 0.03042746335 -0.03353291005
v -0.01022443734 -0.02182741836 0.08377667516
v -0.01021586545 0.0222928673 0.0942407921
v -0.01009354647 0.03059896082 -0.03353291005
v -0.009952133521 -0.0363496989 0.0542755127
v -0.009938697331 0.03012353927 -0.03403291106
v -0.009930899367 -0.03645067289 0.05361042917
v -0.009886438027 0.03796425834 0.07330003381
v -0.009863151237 -0.02207933739 0.08509273082
v -0.009841861203 0.03798685968 0.0733108893
v -0.009702211246 0.03802390397 0.07369441539
v -0.009555434808 -0.0009488267824 0.09240593761
v -0.009345052764 0.02197012305 0.0952872932
v -0.009216857143 -0.02957524359 -0.0335329175
v -0.009075929411 -0.02909551561 -0.03403291851
v -0.008938899264 -0.02235560119 0.0861061886
v -0.008924206719 -0.03772639483 0.05426295847
v -0.008904514834 -0.03776867688 0.05358009785
v -0.008626345545 0.02509412542 0.09493186325
v -0.008287772536 -0.03768499941 0.04186360538
v -0.008196920156 -0.03787387162 0.04365318269
v -0.008109558374 0.02161699533 0.09580410272
v -0.00767002441 0.03918877617 0.06881283224
v -0.007654882967 -0.02245575935 0.08661559969
v -0.007581951097 -0.03901518136 0.05433183908
v -0.007503040135 -0.03905371577 0.05362097174
v -0.007383046672 0.02147241682 0.09581659734
v -0.007363287732 0.02486079186 0.09543503821
v -0.00724495016 -0.02243313193 0.08665192872
v -0.006753826514 0.02138108015 0.0956736356
v -0.006587449461 0.0380644165 0.09244637191
v -0.006349690259 -0.0391411297 0.04342330992
v -0.006331110373 0.03507076949 0.09379675984
v -0.006286684424 -0.02228376269 0.08652003855
v -0.006099686027 -0.04005678371 0.05446764827
v -0.005972133949 -0.04006816074 0.05372852832
v -0.005695169792 0.04022489488 0.06542222202
v -0.005612399429 0.03819476813 0.09344132245
v -0.005573356524 0.02127382904 0.09492786229
v -0.005121434107 -0.02191543207 0.08583613485
v -0.005070250481 0.04058009014 0.06606792659
v -0.004645015113 0.03185178712 -0.03353291005
v -0.004321781918 0.03808123246 0.09393087029
v -0.004268979654 -0.04007545114 0.04336125404
v -0.004107708111 0.04087112471 0.06677506864
v -0.004090680741 0.03192329034 -0.03353291005
v -0.004056667909 -0.04098685831 0.05393847823
v -0.004031117074 0.03142685071 -0.03403291106
v -0.003865806386 0.04094327986 0.06612608582
v -0.003850312904 -0.04225449264 0.07279380411
v -0.003731926903 0.03451630473 0.09417916834
v -0.00345204398 -0.04259416088 0.07407910377
v -0.003301056102 0.04052922502 0.02020148933
v -0.003005260602 0.03767488897 0.09381979704
v -0.002919649705 -0.04151624069 0.05491733551
v -0.002605238929 0.03417527676 0.0934599936
v -0.002494134009 -0.04286011681 0.07506364584
v -0.002446712926 0.04106752574 0.06652045995
v -0.001932358369 0.03710007668 0.09312722087
v -0.001322921365 0.04177285731 0.01889654249
v -0.001203626394 -0.04285808653 0.07556646317
v -0.001147350296 0.04104270041 0.066555731
v 0.0001336988062 -0.04251571372 0.07549557835
v 0.0006135012954 -0.04230483621 0.07530719787
v 0.0009396262467 0.04302186146 0.01813962311
v 0.001241886988 -0.04194374382 0.07485842705
v 0.001262072474 0.04088874161 0.06632407755
v 0.001478114165 0.03209518269 -0.03353291005
v 0.002017104067 0.03155798838 -0.03403291106
v 0.002055094577 0.03205654398 -0.03353291005
v 0.002572230995 0.04369128123 0.01712195575
v 0.002768568695 0.04381296411 0.01787977666
v 0.003617642447 0.04073677585 0.06602080166
v 0.004492018372 0.0443305485 0.01657559723
v 0.004629749805 0.04444359615 0.0173698701
v 0.006107904017 0.04050562903 0.06549669057
v 0.006223656237 0.04043489695 0.06589251757
v 0.006370728835 0.04477461427 0.01625986025
v 0.006482141092 0.04487228021 0.01706147194
v 0.007324840873 0.04497971758 0.01611575857
v 0.007421170361 0.04507048428 0.01692106575
v 0.007532500662 0.03114843927 -0.03353291005
v 0.007975631393 0.03051195107 -0.03403291106
v 0.008109723218 0.03099363111 -0.03353291005
v 0.008380082436 0.03039639257 -0.03403291106
v 0.008512255736 0.03035734035 -0.03403291106
v 0.008724670857 0.04518697038 0.01677340269
v 0.008730385453 0.04519109428 0.01653036475
v 0.008740304969 0.04506607726 0.01593084261
v 0.00977510307 0.0299515333 -0.03403291106
v 0.01008192822 0.04502332956 0.01683871821
v 0.01017567329 0.04485604167 0.01598267257
v 0.01026036032 0.02280215174 0.07456570119
v 0.01123700477 0.0447534211 0.01700903475
v 0.0113021154 -0.02600286528 0.06684257835
v 0.01136322133 0.04455925152 0.01615232229
v 0.01144727878 -0.02426763996 0.06702039391
v 0.01145341434 -0.02428901941 0.06700898707
v 0.01161707379 -0.02815916762 0.06587576121
v 0.0116502326 -0.03043282032 0.064824
v 0.01178612188 -0.02569416165 0.06630019099
v 0.01196400076 0.02301591262 0.0722412616
v 0.01202622801 -0.02722201869 0.06558414549
v 0.01212832518 -0.03003260121 0.06427815557
v 0.01213157922 -0.02843705192 0.06502956897
v 0.01214519516 -0.02965050563 0.064464055
v 0.01257803105 0.0391430445 0.0634079352
v 0.01328901667 0.02904738113 -0.03353291005
v 0.01332212612 0.04410390556 0.01746808738
v 0.01347436756 0.04387800023 0.01661879569
v 0.01348304562 0.02310113236 0.07005421072
v 0.01361752767 0.02832857147 -0.03403291106
v 0.01384262089 0.02877504006 -0.03353291005
v 0.01486020163 0.01857413352 0.06755693257
v 0.01501134038 0.02333902195 0.06776619703
v 0.01528170891 0.03850512579 0.06203388423
v 0.01548773237 0.01869114116 0.06656649709
v 0.01571363956 0.02362004295 0.06668929011
v 0.01636642218 0.02402660623 0.06566569954
v 0.01721933298 0.04270677641 0.01857379451
v 0.01740074158 0.04240357876 0.01766459644
v 0.01763135381 0.02762493864 0.06364978105
v 0.01781558618 0.03772334382 0.06032413244
v 0.0181012284 0.03721197322 0.06087429821
v 0.01852980629 0.0258715339 -0.03353291005
v 0.01872794703 0.02509101108 -0.03403291106
v 0.01903546602 0.02548525855 -0.03353291005
v 0.01908206567 0.02936652675 0.06133617461
v 0.0190875642 0.02962704748 0.06133382767
v 0.01997552626 0.03681690991 0.0582613945
v 0.02030166984 0.03621510044 0.05875595659
v 0.02035778575 0.03544431552 0.05909708142
v 0.02051118575 0.04142523929 0.01973120123
v 0.0207213629 0.04116342217 0.01895563304
v 0.02084137127 0.03515893221 0.05847492069
v 0.02133009583 0.03484700993 0.05777101219
v 0.02166808769 0.03585851565 0.0558713451
v 0.02201429568 0.03517850116 0.05630367249
v 0.02203340456 0.03435425833 0.05660408735
v 0.02212011255 0.04066154733 0.02049709857
v 0.02234370075 0.03412083909 0.05602518469
v 0.02237243578 0.04039267078 0.01976703107
v 0.02305652946 0.02174106613 -0.03353291005
v 0.02330801077 0.03421974927 0.05372371525
v 0.02361694537 0.03977032751 0.0214509815
v 0.02392316796 0.03948237002 0.02078419179
v 0.02489273809 0.03878469393 0.02258267254
v 0.02524620108 0.03846251592 0.02198632807
v 0.02592403628 0.03777805716 0.02385177463
v 0.02631093189 0.03741628304 0.02332542837
v 0.02737916447 0.03590060025 0.02669616789
v 0.02780287713 0.03545887023 0.02630183101
v 0.02822054178 0.0343860127 0.02984347939
v 0.02822951227 0.03197421506 0.04210527986
v 0.02842466719 0.03246433288 0.04039046168
v 0.02865841053 0.03387505934 0.02957261354
v 0.02870633453 0.03196836635 0.04045964777
v 0.02904251963 0.03276662529 0.03308169544
v 0.04115389287 -0.02670994028 -0.04582976177
v 0.04115513712 -0.02623735927 -0.04592671245
v 0.04121508449 -0.02717997134 -0.04573998228
v 0.04121879488 -0.02577026188 -0.04602918401
v 0.04133767635 -0.02763945982 -0.04565889761
v 0.04134378582 -0.02531658299 -0.04613542929
v 0.04136149585 -0.02635944262 -0.04592366889
v 0.04141519219 -0.02510065772 -0.04618587717
v 0.04149388522 -0.02494950406 -0.04622654244
v 0.04151957482 -0.02808059752 -0.04558787867
v 0.04152255505 -0.02489461564 -0.04624090716
v 0.04154544324 -0.02485046349 -0.04625238851
v 0.04155580699 -0.02483055741 -0.04625756666
v 0.04162541777 -0.02780571766 -0.04565546289
v 0.04175769538 -0.02849588171 -0.04552814737
v 0.04178991914 -0.02444921061 -0.04636061564
v 0.04204799235 -0.02887825668 -0.04548070952
v 0.04208613932 -0.02408362366 -0.04646703973
v 0.042385526 -0.02922121808 -0.0454463698
v 0.04242894799 -0.02376013063 -0.04656980187
v 0.04254771024 -0.02937841415 -0.04542839155
v 0.04276455194 -0.02951894142 -0.04542571679
v 0.04281252623 -0.02348423004 -0.04666715115
v 0.0429104194 -0.02340555191 -0.04669064656
v 0.04314601421 -0.02976719849 -0.04541242123
v 0.04317864776 -0.02976636402 -0.0454191044
v 0.04323034734 -0.02326061577 -0.04675743356
v 0.04351857305 -0.02312638052 -0.04681256786
v 0.04362075031 -0.02995927818 -0.04542664066
v 0.043675147 -0.02975762449 -0.04547374323
v 0.04367531091 -0.02309308387 -0.04683911428
v 0.04380629212 -0.03003771603 -0.04542727768
v 0.04408335686 -0.03009440377 -0.04544819519
v 0.04413984716 -0.02298448794 -0.04691081122
v 0.04417054355 -0.02296216972 -0.04691560566
v 0.0445042178 -0.03017998859 -0.04547241703
v 0.04455859959 -0.03016944602 -0.04548340291
v 0.04461607337 -0.02293667197 -0.04697129503
v 0.04484450072 -0.02291841619 -0.0469963029
v 0.04503840208 -0.03018312901 -0.04553166777
v 0.04509587586 -0.0229504481 -0.04701953754
v 0.04515036941 -0.02996747941 -0.04558776692
v 0.04521404207 -0.0301887691 -0.04554617032
v 0.04551461339 -0.03013521992 -0.04559217021
v 0.04551788419 -0.02299658768 -0.04705196247
v 0.04557111114 -0.02302558348 -0.04705472663
v 0.04590960592 -0.03006373905 -0.04564581439
v 0.04597911984 -0.03002653271 -0.0456638746
v 0.04603369534 -0.02316079848 -0.04707626253
v 0.04616813362 -0.02319406345 -0.04708071426
v 0.04617589712 -0.02317526378 -0.0470735766
v 0.04642404616 -0.029858917 -0.04574557021
v 0.04647576809 -0.02335379831 -0.04708377644
v 0.04656526446 -0.02980950288 -0.04576768726
v 0.04677347839 -0.02350423299 -0.04708160087
v 0.04678421468 -0.02348695695 -0.04707447067
v 0.04684181511 -0.0296352189 -0.04583586752
v 0.0468898192 -0.02360129915 -0.04707713798
v 0.04715684056 -0.02943543904 -0.04590728506
v 0.04722533375 -0.02935924381 -0.04593322799
v 0.04726879299 -0.02389909513 -0.04705647007
v 0.04731365293 -0.02391671017 -0.04705459252
v 0.04756807536 -0.02903568372 -0.04603599384
v 0.04760626704 -0.02424212359 -0.04702211171
v 0.04766251892 -0.02895533666 -0.04605947062
v 0.04777055234 -0.02441767976 -0.04700059071
v 0.04781512171 -0.05056188256 -0.03446810693
v 0.04786422104 -0.02867003717 -0.04614242539
v 0.04788998514 -0.0286886692 -0.04612932727
v 0.0478964895 -0.0246245563 -0.04697465524
v 0.04795144498 -0.02857063338 -0.04616918415
v 0.0479882434 -0.05022956431 -0.0350677669
v 0.04810862243 -0.02826873772 -0.04625065252
v 0.04812889546 -0.02499036677 -0.04692140594
v 0.04813136905 -0.02822499163 -0.04626203701
v 0.04813453555 -0.02503988706 -0.04691490158
v 0.04814173281 -0.02820505202 -0.04626721889
v 0.04822601378 -0.02804320678 -0.04630849138
v 0.04829253256 -0.02675215341 -0.04658092931
v 0.04830981791 -0.02780396119 -0.04636728391
v 0.04831635952 -0.02548106201 -0.04684387147
v 0.04833415896 -0.02783543989 -0.04635037482
v 0.04837667197 -0.02561559528 -0.04681968316
v 0.04839368165 -0.02759259753 -0.04641646892
v 0.04843489081 -0.02735029906 -0.04647353664
v 0.04843886197 -0.02594057657 -0.04676276818
v 0.04849863797 -0.02688320726 -0.04657601565
v 0.04849997163 -0.02641062252 -0.04667297378
v 0.04850558192 -0.02627242729 -0.0466988422
v 0.04851131886 -0.02693886682 -0.04656292126
v 0.04854878038 -0.05039593577 -0.03509334475
v 0.0485625118 -0.05078371614 -0.03450220823
v 0.04912673682 -0.05033961684 -0.03516639769
v 0.0493331179 -0.05070862919 -0.0345996134
v 0.04963412136 -0.05006918311 -0.03527580574
v 0.04999368638 -0.04962579906 -0.03540491313
v 0.05000963062 -0.05034804344 -0.03474549204
v 0.05048904568 -0.04975686967 -0.03491763398
v 0.05166656524 -0.04621721432 -0.01267629117
v 0.05234307051 -0.04585663229 -0.01282216609
v 0.05282248557 -0.04526546225 -0.0129943043
v 0.06328659505 -0.02084481902 -0.04271609709
v 0.06356342137 -0.02031287923 -0.04234138504
v 0.06386142969 -0.02136481367 -0.04267075285
v 0.06394217908 -0.02283382602 -0.04237839207
v 0.06410139054 -0.02209283598 -0.042547144
v 0.06432987005 -0.02100620233 -0.04228092358
v 0.06443754584 -0.02296489105 -0.04189111292
v 0.06464982033 -0.02197690867 -0.04211611301
v 0.06666331738 -0.01651479304 -0.02035759948
v 0.06677099317 -0.01847347803 -0.01996778511
v 0.06698326766 -0.01748549566 -0.02019278519
f 361 362 169
f 361 360 355
f 84 116 106
f 204 198 202
f 202 198 169
f 164 355 360
f 160 353 164
f 353 355 164
f 132 164 166
f 166 164 360
f 132 166 137
f 162 235 234
f 149 192 171
f 171 192 173
f 156 163 71
f 193 211 215
f 215 211 216
f 195 192 191
f 191 194 195
f 173 192 195
f 155 353 160
f 155 158 353
f 361 355 358
f 358 362 361
f 359 362 358
f 60 87 56
f 60 112 87
f 65 112 60
f 119 155 160
f 112 155 119
f 95 65 96
f 153 155 101
f 101 155 112
f 56 87 51
f 51 53 56
f 59 84 61
f 66 84 106
f 106 134 66
f 66 134 70
f 66 61 84
f 204 202 206
f 167 169 143
f 143 137 167
f 167 137 166
f 361 169 167
f 167 360 361
f 167 166 360
f 100 132 115
f 132 137 115
f 130 100 115
f 242 241 239
f 258 241 257
f 373 371 257
f 368 371 373
f 238 162 239
f 235 162 238
f 234 235 238
f 238 241 234
f 239 241 238
f 205 162 196
f 130 115 133
f 133 115 137
f 232 242 239
f 172 171 173
f 71 41 40
f 40 156 71
f 83 156 40
f 75 41 71
f 71 74 75
f 90 134 99
f 77 80 23
f 70 134 77
f 216 211 237
f 228 215 216
f 216 237 228
f 234 241 240
f 240 233 234
f 240 241 258
f 258 252 240
f 252 233 240
f 173 195 185
f 185 172 173
f 157 219 210
f 219 212 210
f 236 219 226
f 233 248 226
f 226 219 157
f 213 212 223
f 236 237 223
f 223 219 236
f 223 212 219
f 197 195 194
f 197 210 212
f 148 161 152
f 170 176 190
f 190 165 170
f 190 194 191
f 161 165 190
f 179 197 194
f 194 190 179
f 179 190 176
f 158 155 150
f 147 158 150
f 150 135 147
f 352 355 353
f 353 333 352
f 328 333 353
f 353 158 328
f 328 158 147
f 333 328 117
f 117 328 147
f 58 60 56
f 8 60 58
f 65 60 63
f 93 119 100
f 127 132 100
f 100 119 127
f 127 164 132
f 160 164 127
f 127 119 160
f 105 112 65
f 65 95 105
f 8 6 7
f 55 6 8
f 55 58 56
f 8 58 55
f 56 53 55
f 53 6 55
f 153 101 108
f 98 95 96
f 98 105 95
f 98 101 112
f 112 105 98
f 128 153 121
f 128 155 153
f 128 129 155
f 138 129 135
f 155 129 138
f 138 150 155
f 135 123 43
f 147 135 79
f 79 117 147
f 87 85 52
f 52 85 84
f 52 54 1
f 52 84 59
f 59 54 52
f 106 116 122
f 122 134 106
f 130 131 125
f 125 100 130
f 125 122 116
f 131 122 125
f 125 93 100
f 116 93 125
f 86 85 87
f 57 54 59
f 59 61 57
f 372 207 362
f 372 209 207
f 372 362 359
f 204 206 372
f 372 217 204
f 373 220 372
f 372 220 217
f 373 241 244
f 244 242 373
f 241 242 244
f 247 241 373
f 373 257 247
f 247 257 241
f 260 371 258
f 258 257 260
f 260 257 371
f 254 252 258
f 258 255 254
f 371 255 259
f 253 255 371
f 251 252 253
f 253 371 251
f 252 254 253
f 253 254 255
f 230 246 364
f 246 368 364
f 154 157 130
f 130 133 154
f 217 220 221
f 221 220 373
f 242 232 231
f 172 185 186
f 23 24 22
f 23 80 31
f 31 24 23
f 69 66 70
f 70 13 69
f 2 57 61
f 1 54 2
f 54 57 2
f 11 13 12
f 83 40 82
f 82 31 80
f 39 40 41
f 33 82 39
f 39 82 40
f 148 182 178
f 191 192 183
f 183 192 149
f 71 163 168
f 168 74 71
f 144 140 126
f 144 134 148
f 144 168 140
f 148 178 144
f 144 178 175
f 175 168 144
f 70 77 73
f 245 237 236
f 245 228 237
f 230 228 245
f 250 252 251
f 251 248 250
f 250 233 252
f 250 248 233
f 187 211 193
f 187 186 185
f 187 185 195
f 236 226 243
f 243 226 248
f 243 245 236
f 157 162 227
f 227 226 157
f 227 162 234
f 234 233 227
f 233 226 227
f 224 237 211
f 224 223 237
f 224 211 213
f 213 223 224
f 184 182 148
f 148 152 184
f 184 190 191
f 184 152 161
f 161 190 184
f 191 183 184
f 184 183 182
f 141 165 161
f 141 161 148
f 148 134 141
f 210 197 180
f 197 179 180
f 356 358 355
f 333 117 118
f 118 79 78
f 117 79 118
f 92 93 116
f 92 86 87
f 87 112 92
f 85 86 92
f 112 119 92
f 119 93 92
f 116 84 92
f 84 85 92
f 5 6 1
f 5 7 6
f 121 153 120
f 153 108 120
f 135 129 124
f 124 123 135
f 129 43 124
f 124 43 123
f 135 150 139
f 139 138 135
f 150 138 139
f 78 43 44
f 76 43 78
f 78 79 76
f 135 43 76
f 76 79 135
f 50 51 87
f 87 52 50
f 102 99 134
f 111 144 126
f 113 144 111
f 99 102 111
f 134 113 111
f 111 102 134
f 208 202 169
f 169 209 208
f 208 206 202
f 208 372 206
f 209 372 208
f 203 209 169
f 207 209 203
f 203 169 362
f 362 207 203
f 370 368 373
f 258 371 261
f 261 259 258
f 371 259 261
f 256 255 258
f 258 259 256
f 256 259 255
f 215 228 229
f 229 228 230
f 230 364 229
f 368 370 365
f 200 196 162
f 205 196 200
f 142 137 143
f 142 133 137
f 143 169 142
f 169 198 142
f 198 200 142
f 222 232 239
f 222 231 232
f 222 221 373
f 373 242 222
f 242 231 222
f 214 162 205
f 205 217 214
f 189 187 193
f 12 13 14
f 26 22 24
f 24 31 32
f 32 26 24
f 32 82 33
f 31 82 32
f 61 66 64
f 66 11 64
f 68 69 13
f 13 11 68
f 66 69 68
f 4 11 12
f 2 11 4
f 90 99 97
f 83 82 89
f 89 97 99
f 82 97 89
f 90 82 88
f 80 77 81
f 81 82 80
f 81 88 82
f 90 88 81
f 81 134 90
f 81 77 134
f 172 186 311
f 311 189 193
f 149 171 151
f 171 172 151
f 300 75 109
f 109 302 300
f 41 75 300
f 175 178 174
f 74 168 174
f 174 168 175
f 181 178 182
f 182 183 181
f 183 107 181
f 114 113 134
f 134 144 114
f 114 144 113
f 70 73 72
f 249 248 251
f 249 243 248
f 245 243 249
f 249 368 246
f 249 246 230
f 230 245 249
f 251 371 249
f 371 368 249
f 213 211 199
f 211 187 199
f 199 187 195
f 195 197 199
f 199 212 213
f 199 197 212
f 134 122 136
f 136 141 134
f 170 165 146
f 165 141 146
f 146 176 170
f 146 179 176
f 146 180 179
f 157 210 146
f 210 180 146
f 130 157 146
f 146 131 130
f 141 136 146
f 146 122 131
f 146 136 122
f 355 352 354
f 354 356 355
f 359 358 357
f 358 356 357
f 8 7 15
f 333 118 293
f 293 118 78
f 293 352 333
f 299 300 302
f 296 299 295
f 110 120 108
f 108 30 110
f 121 120 110
f 35 30 27
f 27 38 35
f 19 98 96
f 96 65 19
f 35 38 37
f 37 38 44
f 45 50 1
f 51 50 45
f 48 50 52
f 363 364 368
f 368 365 363
f 363 317 215
f 316 317 363
f 215 229 363
f 363 229 364
f 316 363 323
f 323 363 365
f 201 198 204
f 201 200 198
f 204 217 201
f 201 217 205
f 205 200 201
f 159 200 162
f 159 142 200
f 159 162 157
f 157 154 159
f 159 154 133
f 133 142 159
f 225 222 239
f 221 222 225
f 239 162 225
f 162 221 225
f 218 221 162
f 162 214 218
f 217 221 218
f 218 214 217
f 23 22 21
f 22 14 21
f 21 14 13
f 21 13 70
f 70 72 21
f 21 72 73
f 21 77 23
f 21 73 77
f 62 2 61
f 61 64 62
f 62 11 2
f 62 64 11
f 67 11 66
f 66 68 67
f 67 68 11
f 9 4 12
f 1 2 3
f 2 4 3
f 3 5 1
f 4 9 3
f 94 82 90
f 90 97 94
f 94 97 82
f 91 89 99
f 91 111 126
f 91 168 163
f 83 89 91
f 126 140 91
f 140 168 91
f 163 156 91
f 91 156 83
f 172 311 306
f 306 151 172
f 306 302 109
f 109 151 306
f 188 311 186
f 189 311 188
f 186 187 188
f 187 189 188
f 193 215 312
f 312 311 193
f 314 317 316
f 311 312 314
f 215 317 314
f 314 312 215
f 145 183 149
f 145 107 183
f 149 151 145
f 145 151 109
f 109 107 145
f 177 174 178
f 178 181 177
f 177 181 107
f 16 15 20
f 20 15 7
f 304 354 352
f 296 26 34
f 34 299 296
f 41 300 34
f 300 299 34
f 33 39 34
f 34 39 41
f 34 32 33
f 26 32 34
f 296 295 292
f 292 9 296
f 289 9 292
f 36 30 35
f 36 110 30
f 121 110 36
f 36 37 121
f 35 37 36
f 28 27 30
f 28 108 101
f 28 30 108
f 101 98 28
f 98 19 28
f 65 63 17
f 17 19 65
f 17 63 60
f 17 60 8
f 8 15 17
f 17 15 16
f 16 19 17
f 42 44 43
f 42 37 44
f 121 37 42
f 42 128 121
f 129 128 42
f 42 43 129
f 51 45 47
f 47 6 53
f 53 51 47
f 1 6 47
f 47 45 1
f 49 52 1
f 1 48 49
f 49 48 52
f 1 50 46
f 46 48 1
f 50 48 46
f 327 365 331
f 12 14 18
f 18 9 12
f 18 14 22
f 22 26 18
f 18 26 296
f 296 9 18
f 99 111 103
f 103 91 99
f 111 91 103
f 310 306 311
f 311 314 310
f 310 314 299
f 331 299 322
f 299 314 322
f 174 177 104
f 104 177 107
f 74 174 104
f 104 75 74
f 109 75 104
f 104 107 109
f 369 372 359
f 359 357 369
f 357 366 369
f 367 365 370
f 370 369 367
f 367 369 366
f 38 27 29
f 29 20 284
f 16 20 29
f 29 277 38
f 289 292 288
f 288 295 284
f 288 292 295
f 10 9 289
f 289 288 10
f 10 288 20
f 5 3 10
f 10 3 9
f 7 5 10
f 10 20 7
f 290 293 78
f 356 354 315
f 27 28 25
f 25 28 19
f 25 19 16
f 16 29 25
f 25 29 27
f 325 323 365
f 365 327 325
f 325 322 323
f 325 327 331
f 331 322 325
f 302 306 307
f 306 310 307
f 307 299 302
f 307 310 299
f 319 314 316
f 319 322 314
f 316 323 319
f 323 322 319
f 281 29 284
f 284 295 281
f 295 277 281
f 284 20 285
f 285 288 284
f 20 288 285
f 301 304 352
f 352 297 301
f 326 357 356
f 277 29 279
f 279 281 277
f 29 281 279
f 293 290 294
f 352 293 294
f 294 297 352
f 313 315 354
f 354 308 313
f 334 366 357
f 44 38 262
f 275 291 290
f 290 278 275
f 298 301 297
f 297 294 298
f 304 301 305
f 354 304 305
f 305 308 354
f 301 298 305
f 305 298 294
f 332 334 357
f 345 367 366
f 290 291 321
f 286 290 78
f 78 283 286
f 287 278 290
f 290 286 287
f 287 286 283
f 44 278 280
f 78 44 280
f 278 287 280
f 280 287 283
f 268 277 295
f 295 275 268
f 309 313 308
f 308 305 309
f 357 326 330
f 330 332 357
f 326 332 330
f 329 332 326
f 334 332 329
f 315 313 318
f 318 321 320
f 305 321 318
f 356 315 318
f 318 320 356
f 313 309 318
f 318 309 305
f 303 294 290
f 290 321 303
f 303 305 294
f 303 321 305
f 282 283 78
f 78 280 282
f 282 280 283
f 276 278 44
f 44 271 276
f 266 268 275
f 266 276 271
f 266 271 44
f 266 275 278
f 278 276 266
f 267 270 272
f 272 270 38
f 268 266 265
f 267 272 265
f 38 267 265
f 277 268 265
f 265 272 277
f 324 329 326
f 321 329 324
f 320 321 324
f 324 326 356
f 356 320 324
f 338 339 366
f 343 345 366
f 366 339 343
f 365 367 344
f 269 267 38
f 38 270 269
f 269 270 267
f 38 277 274
f 263 262 38
f 38 265 263
f 366 334 336
f 336 338 366
f 336 321 291
f 334 329 336
f 336 329 321
f 336 299 331
f 336 295 299
f 336 275 295
f 291 275 336
f 349 350 367
f 367 351 349
f 367 350 347
f 347 344 367
f 350 349 347
f 331 365 335
f 277 272 273
f 273 274 277
f 273 272 38
f 38 274 273
f 264 265 266
f 264 263 265
f 262 263 264
f 44 262 264
f 264 266 44
f 367 345 346
f 346 351 367
f 340 336 331
f 365 344 342
f 342 335 365
f 344 347 342
f 342 340 331
f 348 349 351
f 351 346 348
f 348 347 349
f 336 340 348
f 348 342 347
f 340 342 348
f 338 336 341
f 339 338 341
f 336 348 341
f 341 348 346
f 341 346 345
f 345 343 341
f 341 343 339
f 331 335 337
f 337 342 331
f 335 342 337
f 369 370 373
f 373 372 369
