v -0.008250119028 -0.0003897548441 -0.01498999403
v -0.008250038251 -0.0004119376446 -0.01498999403
v -0.00824961749 -0.0004495528172 -0.01498999403
v -0.008247699777 -0.0005247401376 -0.01498999403
v -0.008239569557 -0.0006748983348 -0.01498999403
v -0.008214774378 0.0001042242101 -0.01498999403
v -0.008203982044 -0.001169532965 -0.01498999403
v -0.008170568137 -0.001467809462 -0.01498999403
v -0.008169397084 0.0006969077321 -0.01498999403
v -0.0081594695 -0.00153716195 -0.01498999403
v -0.008125979668 0.000929538474 -0.01498999403
v -0.008125847983 -0.001712161288 -0.01498999403
v -0.008026848368 0.001411436747 -0.01498999403
v -0.008026458471 -0.002195890219 -0.01498999403
v -0.007990390412 -0.0005904569844 -0.001190086827
v -0.007990253507 -0.0006352152996 -0.00119147636
v -0.007989457226 -0.000711092478 -0.001194290817
v -0.007985724485 -0.0008626730851 -0.00120155327
v -0.007975109271 -0.0006377778045 -0.00111463666
v -0.007974287844 -0.0007140965172 -0.001117471606
v -0.007970487117 -0.0008665478526 -0.001124856994
v -0.007969738333 -0.001164910951 -0.001222960651
v -0.007967568352 -0.0005895472277 -0.001097854227
v -0.007954283967 -0.001170525546 -0.001146649942
v -0.007936975791 0.001749614395 -0.01498999403
v -0.007935541706 -0.002541446596 -0.01498999403
v -0.00793175993 -0.0005892545305 -0.00104871206
v -0.007930255844 -0.0007161429821 -0.001053057611
v -0.00792692333 0.001785985971 -0.01498999403
v -0.007926461636 -0.0008687323862 -0.001060519367
v -0.007910294808 -0.001173008335 -0.001082552597
v -0.007904976956 -0.0005892563931 -0.001026351005
v -0.007903891033 -0.001763657652 -0.001294871792
v -0.007901031873 0.0006045032787 -0.001296009868
v -0.007887603133 -0.001773319193 -0.001220019534
v -0.007884535356 0.0006140886253 -0.001221314073
v -0.00788208039 -0.001902251955 -0.001317907125
v -0.007866870961 -0.000589459014 -0.001005524769
v -0.007865634165 -0.000717005154 -0.001009291038
v -0.007861899561 -0.0008690313407 -0.001016769558
v -0.007845961838 -0.001172229284 -0.001038866118
v -0.007843784406 -0.001777011421 -0.00115689449
v -0.007841544575 0.0006178183976 -0.001157576218
v -0.007828187547 -0.000716921335 -0.000997742638
v -0.007825179375 -0.0005899031094 -0.0009931735694
v -0.007816273137 -0.002250404548 -0.001389227808
v -0.007816015161 0.001070468701 -0.001389481127
v -0.007790387957 -0.0005904524733 -0.0009899940342
v -0.007789479918 -0.0007164709823 -0.0009944271296
v -0.007785843103 -0.0008672841795 -0.00100184232
v -0.007785287657 0.00220969601 -0.01498999403
v -0.007783622595 -0.003003981746 -0.01498999403
v -0.007780367858 -0.001774632125 -0.001113398001
v -0.00777790451 0.0006150434638 -0.001114500687
v -0.0077771371 -0.002362979794 -0.001341214404
v -0.007770253695 -0.001168112605 -0.001023733988
v -0.007733578212 -0.002369180074 -0.001280002296
v -0.007715736865 -0.001697084153 -0.001086710021
v -0.007703265524 0.0006062472385 -0.001097943634
v -0.00767468696 -0.001966424621 -0.001132450998
v -0.007671727217 -0.002366485991 -0.00123700127
v -0.007641686476 0.001743833433 -0.001598000526
v -0.007639948628 -0.002932186224 -0.00160131976
v -0.007627553656 -0.002927769659 -0.001524414867
v -0.007621355704 0.001764605069 -0.001531593502
v -0.007591469153 -0.003503168957 -0.01498999403
v -0.007584555482 0.00272168855 -0.01498999403
v -0.007584317005 -0.002937598139 -0.001466630027
v -0.007578749559 0.001775045894 -0.001473866403
v -0.007524665794 -0.002936131772 -0.001424850896
v -0.007519086241 0.001773657059 -0.001432623714
v -0.007490036427 -0.002802572199 -0.001359807327
v -0.007468566648 -0.0005904527643 -0.0009899996221
v -0.007466788753 -0.0006411057693 -0.0009916070849
v -0.007457293919 -0.0006904515176 -0.0009934268892
v -0.007456125109 -0.002922999425 -0.001405760646
v -0.007450404926 0.001760755913 -0.001412957907
v -0.007427559583 -0.001129162774 -0.00102041848
v -0.007417083136 -0.003053932669 -0.001459944993
v -0.007416593047 -0.003908713834 -0.01498999403
v -0.007407398312 0.0001884418161 -0.001043725759
v -0.00739320726 0.003148338028 -0.01498999403
v -0.007364610559 -0.00163700628 -0.001077638939
v -0.007304628729 -0.001964952084 -0.001132315025
v -0.007304493087 -0.004120608439 -0.01498999403
v -0.00729495415 0.0008459573291 -0.001144474372
v -0.007275347016 -0.003896408001 -0.002113919705
v -0.007261105231 0.002747876119 -0.002134278417
v -0.00724144408 -0.003944338983 -0.002072451636
v -0.007236586302 0.002774850946 -0.002078844234
v -0.007235743455 -0.002256576656 -0.001195324585
v -0.007199316635 -0.003959199865 -0.002023411915
v -0.00719494035 0.00278974 -0.002029458061
v -0.007170130848 -0.003746069488 -0.001828687266
v -0.007144882693 -0.003960675313 -0.001985521987
v -0.007141819092 0.00359805771 -0.01498999403
v -0.007140491507 0.002790747225 -0.001991689205
v -0.007139766007 0.001412991449 -0.001288672909
v -0.007084070123 -0.003948060083 -0.001963693649
v -0.007079337141 0.002777903821 -0.001969443634
v -0.007052227273 -0.0028167446 -0.001364540309
v -0.007038195035 -0.004049744675 -0.002036131918
v -0.006986412569 0.001809827299 -0.001432618126
v -0.006979471497 -0.004709848766 -0.01498999403
v -0.006950716837 -0.00305350589 -0.001459209248
v -0.006923684689 0.003982453262 -0.01498999403
v -0.006918854429 0.001953851446 -0.001495277509
v -0.006910641555 -0.004833768817 -0.01498999403
v -0.006859473302 -0.003240622798 -0.001545146108
v -0.00680023653 0.003607083825 -0.002835601568
v -0.006795489659 -0.005015730827 -0.01498999403
v -0.006790562383 0.004175993664 -0.01498999403
v -0.006778316922 -0.004807671052 -0.002782911062
v -0.006772624678 0.003635059125 -0.002791402861
v -0.006738778087 -0.004886857219 -0.002936059609
v -0.006738034426 -0.004823704701 -0.002742273733
v -0.006732659764 0.003651485094 -0.002751039341
v -0.006706269342 -0.004694572635 -0.002567717806
v -0.006688912283 -0.004826924749 -0.002708990127
v -0.006683663814 0.003654802931 -0.002718081698
v -0.006672253826 -0.005189297951 -0.01498999403
v -0.006629989832 0.003644841738 -0.002695273608
v -0.006627920899 0.00246815967 -0.001768639311
v -0.006605239003 -0.004867397234 -0.00273822993
v -0.006585660274 -0.003714676699 -0.001809189096
v -0.006578584222 -0.005320891088 -0.01498999403
v -0.006561790477 0.0039723511 -0.003243084997
v -0.006560467533 -0.00494131165 -0.002816472203
v -0.006553984629 0.004517456636 -0.01498999403
v -0.006536652683 -0.005176072926 -0.00319818221
v -0.006532889209 0.004000664238 -0.00320609659
v -0.006497375085 -0.005193628356 -0.003163913265
v -0.006493884954 0.004018320717 -0.00317187421
v -0.006475412456 -0.005465421348 -0.01498999403
v -0.006450975663 -0.005199332241 -0.003134936094
v -0.006447576801 0.004023874193 -0.003143068403
v -0.006429526382 0.00467608528 -0.01498999403
v -0.006397504243 0.004017022453 -0.003121711314
v -0.006371244025 -0.005602971971 -0.01498999403
v -0.006365941255 -0.005422887843 -0.003642512485
v -0.006362425978 -0.004047007984 -0.002033952624
v -0.006339685409 0.004276482869 -0.003705076873
v -0.006312525715 -0.005482494817 -0.003669474274
v -0.006309593911 0.004305327326 -0.003677425906
v -0.006274212967 -0.005501881693 -0.003643427044
v -0.006271882798 -0.004174179849 -0.002128401771
v -0.006271504681 0.004324787311 -0.003651503474
v -0.006230871542 -0.005442460053 -0.003484800458
v -0.006230300176 -0.005510735777 -0.003620712087
v -0.006227694801 0.004333544537 -0.003628978506
v -0.00622440537 0.004270422753 -0.003502111882
v -0.006185388016 -0.005824331089 -0.01498999403
v -0.006183544183 0.00497091109 -0.01498999403
v -0.006158087752 0.004504522323 -0.004221785814
v -0.006128952722 -0.005712377824 -0.00419623591
v -0.006127310335 0.004533340703 -0.004203243181
v -0.006091486081 -0.005732896723 -0.004178557545
v -0.006090035546 0.004553905237 -0.004185685888
v -0.006083440873 0.005083520945 -0.01498999403
v -0.006074010681 -0.005952390858 -0.01498999403
v -0.006072095013 -0.005787894581 -0.004557408392
v -0.006049494608 -0.00574410845 -0.00416280888
v -0.006048142328 0.004565033145 -0.00417006202
v -0.006028477917 -0.005838541299 -0.004771996289
v -0.006027775235 0.004658457372 -0.004777560011
v -0.006023622002 -0.004509152364 -0.002400489524
v -0.005997419707 -0.005867036511 -0.004760399461
v -0.005996782216 0.004686774235 -0.0047660321
v -0.005987930386 0.005184753773 -0.01498999403
v -0.005986342047 -0.00604813847 -0.01498999403
v -0.005970065366 -0.004579350803 -0.002462254837
v -0.005960605922 -0.005887826424 -0.004749353975
v -0.005960141658 0.004707559958 -0.004755046219
v -0.005959861621 -0.006076795701 -0.01498999403
v -0.005958898342 -0.005803985041 -0.004333402961
v -0.005926026846 -0.005954041131 -0.00551811792
v -0.005921748931 0.005249462896 -0.01498999403
v -0.00591988524 -0.00590012547 -0.004739375785
v -0.005896512111 -0.006140575424 -0.01498999403
v -0.005877525429 -0.005903158788 -0.00473103486
v -0.005861876882 -0.006018029046 -0.005933782086
v -0.005825785338 -0.00603843572 -0.005930174142
v -0.005796967424 -0.005996848442 -0.005305709317
v -0.00578625442 -0.006051019751 -0.005926886573
v -0.005771615339 -0.00626053286 -0.01498999403
v -0.005733874462 -0.006293777004 -0.01498999403
v -0.005670474103 0.005493188645 -0.01498999403
v -0.005653376447 0.005509122421 -0.01498999403
v -0.005646741367 -0.004988070563 -0.002867633477
v -0.005540833366 -0.00645141315 -0.01498999403
v -0.005526352811 0.005623675756 -0.01498999403
v -0.005459727138 -0.006507697897 -0.01498999403
v -0.005412917373 0.005721712648 -0.01498999403
v -0.005329988315 -0.005357478265 -0.003347463906
v -0.005323969951 -0.006595348227 -0.01498999403
v -0.005248014699 -0.005445843548 -0.003491073847
v -0.005179994158 -0.005516099263 -0.003617573529
v -0.005117086499 -0.006717267611 -0.01498999403
v -0.005095866847 -0.00672933012 -0.01498999403
v -0.004945543013 -0.005732212667 -0.004112422466
v -0.004889069804 0.006167474555 -0.01498999403
v -0.00487031471 -0.006843428625 -0.01498999403
v -0.004755843055 0.006278951912 -0.01498999403
v -0.004558493914 -0.006982269778 -0.01498999403
v -0.004292669672 -0.007089077818 -0.01498999403
v -0.004272969007 0.00667382608 -0.01498999403
v -0.004243985509 0.00669378609 -0.01498999403
v -0.004217965878 0.006575967665 -0.01325509697
v -0.004135991796 0.006338035702 -0.01066945679
v -0.004121597461 0.006739443454 -0.01498999403
v -0.004052548553 0.006193620633 -0.009382547811
v -0.004042708525 -0.007176230319 -0.01498999403
v -0.004037208009 -0.007178009645 -0.01498999403
v -0.004000223269 0.006782769319 -0.01498999403
v -0.003944574739 0.006625328693 -0.01260685641
v -0.003860320314 0.00590538235 -0.007328655571
v -0.003831710518 0.006842709849 -0.01498999403
v -0.003819475765 0.006457253839 -0.01072932594
v -0.003794140532 0.006213805187 -0.008874589577
v -0.003780028201 0.00337166457 -0.002164203674
v -0.003775194637 0.0005829911242 -0.001477584243
v -0.00377477787 -0.0009659305651 -0.001477589831
v -0.003771670046 0.0001975671184 -0.001468468457
v -0.003771460499 -0.0005805054534 -0.001468466595
v -0.00376744417 -0.0001914673051 -0.001466501504
v -0.003726494848 0.001340579023 -0.001536680385
v -0.00372567249 -0.001723491572 -0.001536687836
v -0.003690210986 0.006692418377 -0.01252836455
v -0.003581792465 0.002071344774 -0.001667827368
v -0.003580575692 -0.00245418142 -0.001667823642
v -0.003567088745 0.005980924252 -0.007209794596
v -0.003564966726 0.006519613802 -0.01067001
v -0.003559287055 0.004475141424 -0.003109408543
v -0.003431413672 0.003957143534 -0.002553554252
v -0.003385185613 0.002759578885 -0.00187699683
v -0.003383600037 -0.003142307964 -0.001877004281
v -0.003341462812 0.005699378919 -0.005759455264
v -0.00332344824 0.004894068945 -0.003641981632
v -0.003195722005 0.005351468935 -0.004569446668
v -0.003190028365 0.005141805872 -0.00407179445
v -0.003161240253 0.003396911794 -0.002175105736
v -0.003159310552 -0.003779520033 -0.002175103873
v -0.003154309652 0.00704478863 -0.01498999403
v -0.0031470143 0.004477664843 -0.003047447652
v -0.003111147321 -0.007450424119 -0.01498999403
v -0.003093898521 -0.007454594791 -0.01498999403
v -0.003069081462 0.007069380615 -0.01498999403
v -0.003015677328 -0.001782646272 -0.001658912748
v -0.003005265142 0.001726851697 -0.00170016475
v -0.003004399012 0.0007098584465 -0.001613367349
v -0.002974395058 0.004924555324 -0.003659304231
v -0.002967540524 -0.0007930357096 -0.001610273495
v -0.002947451896 0.003978800043 -0.002572316676
v -0.002945211134 -0.00436129373 -0.002572322264
v -0.002921730629 -0.003043659715 -0.001910410821
v -0.002896454069 0.002842469854 -0.001971408725
v -0.002876896295 -0.0001912285423 -0.001621520147
v -0.002870400785 3.688271681e-05 -0.001623598859
v -0.002788934744 0.007144032994 -0.01498999403
v -0.002784992734 -0.007526439234 -0.01498999403
v -0.002781408723 0.004497467555 -0.003079274669
v -0.002765881945 0.006910980228 -0.01220530644
v -0.002762380871 -0.0001911983882 -0.001644888893
v -0.00276206329 -0.007293374263 -0.01220530644
v -0.002757033217 -0.00392964085 -0.002299992368
v -0.002731676097 0.003670583494 -0.002375742421
v -0.002669373644 0.006712397109 -0.01037793793
v -0.002653101808 0.004024140086 -0.002631390467
v -0.002630852046 -0.004499963004 -0.002709953114
v -0.002582677989 0.004377380028 -0.002957269549
v -0.002498865244 0.006482362762 -0.008695367724
v -0.002315693884 0.001636608285 -0.00184356235
v -0.002314711572 -0.002018763436 -0.001843556762
v -0.002310065436 0.004994366798 -0.003783769906
v -0.002276401618 0.006211208194 -0.007189970464
v -0.00224539137 0.0008637471037 -0.001792471856
v -0.00224482466 -0.001245862208 -0.001792475581
v -0.002162618912 0.0004988202854 -0.001792317256
v -0.002162247314 -0.0008808914426 -0.001792311668
v -0.002041397034 0.005887168474 -0.005882266909
v -0.001948450576 0.005023611724 -0.003851551563
v -0.001878963667 0.004614348072 -0.003297394142
v -0.001876381109 -0.004996265736 -0.003297394142
v -0.001846518484 0.004156474039 -0.002860415727
v -0.001844183425 -0.004538375404 -0.002860419452
v -0.001831192407 0.003655634369 -0.002528281882
v -0.001829125569 -0.004037527353 -0.002528283745
v -0.00182770018 0.005500750165 -0.004787562415
v -0.001814564806 0.003113434432 -0.002287790179
v -0.001812788541 -0.003495319965 -0.002287792042
v -0.00178994739 0.0003209606075 -0.001875795424
v -0.00178071775 0.002527155229 -0.002125091851
v -0.001779256738 -0.002909019109 -0.002125095576
v -0.001762820757 -0.0007205461006 -0.001883272082
v -0.001722236746 0.001880811309 -0.002024898306
v -0.001721124048 -0.002262645852 -0.002024909481
v -0.001646689742 0.007397743631 -0.01498999403
v -0.001642611556 -0.007779537318 -0.01498999403
v -0.001619783347 0.001203913256 -0.001977773383
v -0.001619033399 -0.001585695063 -0.001977773383
v -0.001535581308 -0.000190866986 -0.001928919926
v -0.001443362213 0.007144667688 -0.0117805358
v -0.001439420157 -0.007526352056 -0.01178054139
v -0.001430016826 0.0005699854373 -0.001982530579
v -0.001418873236 0.007444724196 -0.01498999403
v -0.001414768635 -0.007826395882 -0.01498999403
v -0.001402648049 0.006914916929 -0.01000903361
v -0.001398828928 -0.007296580341 -0.01000903174
v -0.001318739145 -0.005457648062 -0.003995288163
v -0.001317346585 0.006638991661 -0.008405882865
v -0.001313676708 -0.007020609904 -0.008405881003
v -0.001224223874 0.004697103068 -0.00351569429
v -0.001221595914 -0.005078670089 -0.003515698016
v -0.001202600659 0.006318028565 -0.007003922015
v -0.001135293976 0.004288947224 -0.003141881898
v -0.001132885111 -0.004670467213 -0.003141872585
v -0.001099233166 0.005104110125 -0.00406261161
v -0.001083291019 0.005957612317 -0.005820771679
v -0.001082160859 0.0001763320906 -0.002058479935
v -0.001079986687 -0.006339102038 -0.005820767954
v -0.001047305181 0.003856176991 -0.002859884873
v -0.001045131939 -0.004237649948 -0.002859896049
v -0.0009765332798 0.005562591847 -0.004867369309
v -0.0009734415216 -0.005944024291 -0.00486737676
v -0.0009530669777 0.003403468538 -0.002656782046
v -0.000951134949 -0.003784890505 -0.002656778321
v -0.0008971897187 -0.001345323501 -0.00216727145
v -0.0008825284895 -0.00551800894 -0.004139989614
v -0.0008454560302 0.002929954106 -0.002518858761
v -0.0008437794168 -0.003311316701 -0.002518860623
v -0.0007960677184 -0.007900856623 -0.01498999403
v -0.0007424481446 0.005162048168 -0.004200167954
v -0.000739571522 -0.00554335535 -0.004200171679
v -0.0007174679777 0.002431813409 -0.002434527501
v -0.0007160592359 -0.002813108949 -0.002434536815
v -0.0007035062881 -0.0001906438529 -0.002162449062
v -0.0006804776562 0.007533098058 -0.01498999403
v -0.000676316282 -0.007914373543 -0.01498999403
v -0.0006092709955 0.00485423395 -0.003835456446
v -0.0006065602647 -0.005235471283 -0.003835462034
v -0.0005604088074 0.001911191284 -0.002394814044
v -0.0005594777176 0.003589482294 -0.002889785916
v -0.0005592774833 -0.002292401608 -0.002394810319
v -0.0005574453389 -0.003970692153 -0.002889795229
v -0.0004803643096 0.001291960609 -0.002337686718
v -0.0004749682266 0.004526794437 -0.003548862413
v -0.0004724322353 -0.004907958195 -0.003548853099
v -0.0004665759625 -0.005600755554 -0.004339143634
v -0.0003546121297 0.001394479434 -0.002393977717
v -0.0003537599696 -0.001775578581 -0.002393988892
v -0.0003332889173 0.004177472569 -0.003329774365
v -0.0003309410531 -0.004558559958 -0.00332977064
v -0.0002676936565 0.002721027486 -0.002686301246
v -0.0002661281032 -0.003102079252 -0.002686301246
v -0.0002590757795 0.005268623136 -0.004471283406
v -0.0002561422298 -0.005649670478 -0.004471288994
v -0.0001818987075 0.003809476751 -0.003168547526
v -0.0001797485165 -0.004190483116 -0.003168551251
v -0.0001740512671 -0.005950247389 -0.004978919402
v -0.0001726578921 0.005589499153 -0.005017785355
v -0.0001415181905 0.005747426316 -0.005346639082
v -0.0001383274794 -0.006128410329 -0.005346639082
v -0.0001186090522 0.0058892253 -0.005677875131
v -0.0001153425546 -0.006270199068 -0.005677880719
v -0.000112079666 0.005935184206 -0.005791639909
v -0.0001087873243 -0.006316152387 -0.005791634321
v -7.724948227e-05 0.00624496305 -0.006636517122
v -7.378985174e-05 -0.006625912603 -0.00663652271
v -6.729376037e-05 -0.00669750337 -0.006855824962
v -6.628222764e-05 0.00636914467 -0.007023679093
v -6.275379565e-05 -0.006750089102 -0.007023669779
v -4.827219527e-05 0.006592026461 -0.007807724178
v -4.462618381e-05 -0.006972961113 -0.007807722315
v -4.109495785e-05 0.006679867874 -0.008154667914
v -3.74019146e-05 -0.007060799267 -0.008154677227
v -1.835462172e-05 0.006915546968 -0.009230304509
v -1.453515142e-05 -0.007296465323 -0.009230300784
v 1.392874401e-05 0.007134871572 -0.01050951332
v 1.786591019e-05 -0.007515773163 -0.01050951891
v 2.353196032e-05 -0.007545521003 -0.01070993394
v 3.919296432e-05 0.007255275283 -0.01136697643
v 4.319450818e-05 -0.007636162438 -0.01136697643
v 6.990134716e-05 -0.005302743972 -0.004169940948
v 7.661816198e-05 -0.007758046486 -0.01237441693
v 0.0001052479493 0.004875982195 -0.004139907658
v 0.0001137921354 -0.005249727037 -0.004135429859
v 0.000143822981 -0.007932136286 -0.01410588063
v 0.00014960923 0.007571950104 -0.01433653757
v 0.0001537819626 -0.007952778586 -0.01433654781
v 0.0001614994253 0.003019929412 -0.002982659265
v 0.000162806944 0.0005983034062 -0.00248491019
v 0.000163227669 -0.003400751608 -0.00298264809
v 0.000163231336 -0.0009791256016 -0.002484913915
v 0.0001772678224 0.004058284234 -0.00350015983
v 0.0001795507851 -0.004439097349 -0.00350015983
v 0.0001847020141 0.007622926309 -0.01498999403
v 0.0001889017613 -0.0080037353 -0.01498999403
v 0.0002478971728 0.001876872979 -0.002709385008
v 0.0002490059705 -0.002257647677 -0.002709394321
v 0.0002578442218 -0.005067207836 -0.004034131765
v 0.0003457125276 0.005290298737 -0.004788544029
v 0.0003486577771 -0.005671022911 -0.004788538441
v 0.0005153961829 0.004329644624 -0.003890216351
v 0.0005178243737 -0.004710276131 -0.003890223801
v 0.0005362051968 -0.007993735779 -0.01498999403
v 0.0005734880979 0.003330652617 -0.003331329674
v 0.0005748634867 0.005678945236 -0.005566164851
v 0.0005753800215 -0.003711254554 -0.003331325948
v 0.0005780184583 -0.006059543215 -0.005566164851
v 0.0005820462247 0.007141816444 -0.01058188826
v 0.0005944899167 0.002147995649 -0.002933096141
v 0.0005957468238 -0.00252858641 -0.002933094278
v 0.0006503380317 0.007621744612 -0.01498999403
v 0.0006511022511 0.004132611692 -0.003832504153
v 0.0007602212718 0.006073053009 -0.006521364674
v 0.0007635900984 -0.006453553666 -0.006521353498
v 0.0007673730142 0.007538227845 -0.01392507274
v 0.0008417952922 -0.004229961414 -0.003770755604
v 0.0008445177955 -0.0001902287015 -0.002718355507
v 0.0008445286076 0.003842003658 -0.003769399598
v 0.0008630880911 0.004860574394 -0.004609322175
v 0.0008658022998 -0.00524101824 -0.00460931845
v 0.0008725487278 0.00236617263 -0.003138715401
v 0.0008739242476 -0.002746613449 -0.003138704225
v 0.000916684905 0.006450259141 -0.007658649236
v 0.0009202544607 -0.006830675979 -0.007658639923
v 0.0009697830465 0.00364825131 -0.003738824278
v 0.001056276343 0.006787825856 -0.008974282071
v 0.001059373526 0.001359403381 -0.002973880619
v 0.001060027587 -0.007168164928 -0.008974282071
v 0.001060206306 -0.001739744199 -0.002973876894
v 0.001099934338 0.007607952444 -0.01498999403
v 0.001174649486 -0.006297263768 -0.006462208927
v 0.001189787479 0.007067186772 -0.01045757532
v 0.001193686941 -0.007447455995 -0.01045757905
v 0.001239184421 0.005291678026 -0.005433607846
v 0.001242130806 -0.005671921637 -0.005433605984
v 0.001326490572 -0.007671997402 -0.01206421386
v 0.001375489199 0.004300719607 -0.004480648786
v 0.001377901761 -0.004680888247 -0.004480656236
v 0.001394472696 0.006306797281 -0.007593702525
v 0.001397963526 -0.006686956607 -0.007593711838
v 0.001457744132 0.00747236704 -0.01373888366
v 0.001461861306 -0.007852491442 -0.01373888459
v 0.001473143348 0.002834848376 -0.003674108535
v 0.001474769379 -0.003214964629 -0.003674117848
v 0.001566250517 0.005716966945 -0.006408138201
v 0.001567395232 0.007574434434 -0.01498999403
v 0.001569426153 -0.006097034537 -0.006408141926
v 0.001571567127 -0.007954499551 -0.01498999403
v 0.001594393572 0.006652873955 -0.008891748264
v 0.001598071482 -0.007032927577 -0.008891744539
v 0.00160570658 0.0005609684304 -0.003121914342
v 0.001606109669 -0.0009410157072 -0.003121923655
v 0.001781798608 0.006938093356 -0.01034879126
v 0.001785630186 -0.007318044532 -0.01034879684
v 0.001797947567 -0.002671927432 -0.003665324301
v 0.00184964115 0.002201968819 -0.003666365519
v 0.00185459241 0.006114357166 -0.007536944002
v 0.001857980737 -0.00649426876 -0.007536947727
v 0.001866946288 0.00475345926 -0.005330707878
v 0.001869604224 -0.005133365266 -0.005330707878
v 0.001899488794 0.00360194339 -0.004401421174
v 0.001901526877 -0.003981830305 -0.0044014249
v 0.001943779876 -0.002423488288 -0.003670176491
v 0.001981803505 0.007509569817 -0.01498999403
v 0.002115233452 0.006464332822 -0.008820366114
v 0.002118809847 -0.006844103787 -0.008820371702
v 0.002140577999 0.007349019885 -0.01356608514
v 0.002205897239 -0.000189862144 -0.003416270018
v 0.00224132438 -0.007835719609 -0.01498999403
v 0.002298910287 0.005871688962 -0.007487250492
v 0.002302169218 -0.006251362604 -0.007487248629
v 0.00231734477 0.005183834597 -0.006318381056
v 0.0023202335 -0.005563497063 -0.00631836988
v 0.0023292806 0.001377890832 -0.003717649728
v 0.002358199214 0.006751877736 -0.0102526173
v 0.00236192951 -0.007131520179 -0.01025261916
v 0.002401608974 -0.001633261083 -0.003732975572
v 0.002426763531 0.001208542162 -0.003739129752
v 0.002446094644 0.002744769925 -0.004351861775
v 0.002447672305 -0.00312436487 -0.004351863638
v 0.002480399213 0.004046305563 -0.005252568051
v 0.002482675831 -0.004425880485 -0.005252571777
v 0.002509141201 0.007417255443 -0.01498999403
v 0.00259320566 -0.007361123789 -0.01179667376
v 0.002610907773 0.0008873090992 -0.003791518509
v 0.002619952778 0.006220103722 -0.008757553995
v 0.002623397391 -0.006599604138 -0.008757555857
v 0.002659934757 0.007388845898 -0.01498999403
v 0.002729476546 0.005576323267 -0.007441954687
v 0.002732577152 -0.005955763147 -0.007441950962
v 0.002813184052 0.007164589144 -0.01340523828
v 0.002817137982 -0.007543984786 -0.01340523362
v 0.002819286659 0.0005214302364 -0.003873020411
v 0.002858806052 0.0004516856425 -0.003891803324
v 0.002859152155 -0.0008310600388 -0.003891799599
v 0.002919107908 0.00650586329 -0.01016608626
v 0.002922707004 -0.006885202121 -0.01016609743
v 0.002982705249 0.00177249244 -0.004347786307
v 0.002983758342 -0.002151797977 -0.004347793758
v 0.003031458731 0.007297431345 -0.01498999403
v 0.003032258595 -0.0005230689276 -0.003989458084
v 0.003033984802 0.004453073736 -0.006237035617
v 0.003035483039 -0.007676710047 -0.01498999403
v 0.003036478418 -0.004832352031 -0.00623704493
v 0.003092603642 0.003148500822 -0.005178678781
v 0.003094399697 -0.00352774559 -0.005178675056
v 0.003109805402 0.005917503047 -0.008699823171
v 0.003113089013 -0.006296738036 -0.00869981572
v 0.003151297919 -0.005604265709 -0.007397240028
v 0.003205634304 -0.007113193613 -0.01167944074
v 0.003215992008 -0.0001895901167 -0.004121428356
v 0.003435232577 0.007173764169 -0.01498999403
v 0.003438110813 0.0007750870573 -0.004418440163
v 0.003438629326 -0.001154149577 -0.0044184383
v 0.003439189106 -0.007552826118 -0.01498999403
v 0.003464698908 0.006197052091 -0.01008582115
v 0.003468131996 -0.00657610035 -0.01008582488
v 0.003472872195 0.006915465943 -0.01325496472
v 0.003476691782 -0.00729450908 -0.01325496566
v 0.0035577378 0.004814661123 -0.007349221036
v 0.003560426994 -0.005193657693 -0.007349230349
v 0.003586124745 0.005553362906 -0.008643005043
v 0.003589211381 -0.005932344575 -0.008643016219
v 0.003604998463 0.0002890172036 -0.004476239905
v 0.003605255508 -0.0006679890648 -0.004476238042
v 0.003662642906 0.002097268603 -0.005123361945
v 0.003663872485 -0.00247620976 -0.00512336567
v 0.003723117639 -0.0001894529377 -0.004550470039
v 0.003730496275 0.003502836233 -0.006140770391
v 0.003732479294 -0.003881739904 -0.006140779704
v 0.003760174849 0.007061518553 -0.01498999403
v 0.003764071162 -0.007440406284 -0.01498999403
v 0.003802531981 -0.006799231269 -0.01156980172
v 0.003995185602 0.005822208259 -0.0100080166
v 0.003998417989 -0.00620096967 -0.01000801288
v 0.004050245392 0.005124507021 -0.008582916111
v 0.00405310106 -0.005503237233 -0.008582917973
v 0.004108754802 0.0009674532484 -0.00511761941
v 0.004109376227 -0.001346154124 -0.005117617548
v 0.004116956727 0.00659800462 -0.01311376318
v 0.004120606114 -0.006976699442 -0.01311375294
v 0.004201066283 0.00688225881 -0.01498999403
v 0.004204865689 -0.007260910328 -0.01498999403
v 0.004213358625 -0.000189322091 -0.005042295903
v 0.004248348181 0.0003902096796 -0.005129594356
v 0.004248658777 -0.0007688366313 -0.005129599944
v 0.004351020441 0.003807900954 -0.007230928168
v 0.004353169003 -0.004186470978 -0.007230928168
v 0.004358613514 0.002366628745 -0.00604319945
v 0.004359987215 -0.00274519551 -0.00604319945
v 0.004382735933 -0.00641581275 -0.01146498229
v 0.004480866141 0.006754893813 -0.01498999403
v 0.004484598778 -0.007133394133 -0.01498999403
v 0.004510782543 0.005378080081 -0.009928913787
v 0.004513775813 -0.005756563492 -0.009928908199
v 0.004742759163 0.006208519 -0.01298011374
v 0.004746198305 -0.006586879012 -0.01298011187
v 0.004824176314 0.001115466483 -0.005980208516
v 0.004824876203 -0.001493781674 -0.005980215967
v 0.004941988853 0.005581254154 -0.01136217173
v 0.004942021216 0.004064311288 -0.008439537138
v 0.004944306216 -0.004442564197 -0.008439548314
v 0.004945090157 -0.005959507063 -0.01136217732
v 0.004951633984 0.006509653621 -0.01498999403
v 0.00495523436 -0.006887900314 -0.01498999403
v 0.004960474209 0.0004663735308 -0.005966641009
v 0.004960826715 -0.000844616603 -0.005966631696
v 0.005014374969 -0.00523967341 -0.009844742715
v 0.005053375964 0.002590221833 -0.007100988179
v 0.005054869805 -0.002968416069 -0.007100991905
v 0.005188214084 0.006373014087 -0.01498999403
v 0.005191740079 -0.00675113385 -0.01498999403
v 0.005338044488 0.001925190692 -0.007045071572
v 0.005339181633 -0.00230323126 -0.007045069709
v 0.005347602186 0.005743325237 -0.01285248064
v 0.005350790569 -0.006121360217 -0.01285248529
v 0.005447580596 -0.0001889909661 -0.006531603634
v 0.005493138568 0.004273564104 -0.009754797444
v 0.005495536258 -0.004651519921 -0.009754806757
v 0.005559958168 0.001234621755 -0.007001178339
v 0.005560721853 -0.001612541717 -0.007001187652
v 0.005680299358 0.006051265497 -0.01498999403
v 0.005683652296 -0.00642912083 -0.01498999403
v 0.005704222829 0.0005270869151 -0.006972713396
v 0.005704607931 -0.000904931323 -0.006972711533
v 0.005721765221 0.002773792497 -0.008284145966
v 0.005723358248 -0.003151625613 -0.008284138516
v 0.005876126189 0.00591120555 -0.01498999403
v 0.005879403566 -0.006288955159 -0.01498999403
v 0.005928768427 0.00519878279 -0.01272936072
v 0.005931663443 -0.005576505311 -0.01272936817
v 0.005941476789 0.003623890239 -0.009664028883
v 0.005943525233 -0.00400160531 -0.009664034471
v 0.006004489143 0.004441668294 -0.011154023
v 0.006034630002 0.002066425761 -0.008216219023
v 0.006035842584 -0.002444090773 -0.008216222748
v 0.006276761298 0.001330558109 -0.008161900565
v 0.006277578068 -0.001708092968 -0.008161898702
v 0.006341940374 0.002922841362 -0.009577991441
v 0.006343612098 -0.003300341763 -0.009577995166
v 0.006379649141 0.005502555157 -0.01498999403
v 0.006382711983 -0.00588003375 -0.01498999403
v 0.006433142 0.0005756842584 -0.008125867695
v 0.006433551782 -0.0009531347168 -0.008125877008
v 0.006479635951 0.004576114021 -0.01261093933
v 0.006482196623 -0.004953541313 -0.01261093467
v 0.00653774455 0.00536474599 -0.01498999403
v 0.006540731803 -0.005742140596 -0.01498999403
v 0.006558622816 -0.000188692713 -0.008233699948
v 0.006679773913 0.002180811032 -0.009502246976
v 0.006681047962 -0.002558129127 -0.009502239525
v 0.006911385455 0.003042703043 -0.01095931418
v 0.006913121906 -0.003419897505 -0.01095931791
v 0.006939964485 0.001408094089 -0.009441975504
v 0.006940822699 -0.001785272601 -0.009441975504
v 0.006986274035 0.003885637052 -0.01250058599
v 0.00698846404 -0.004262789604 -0.01250058971
v 0.007039467853 0.0048634351 -0.01498999403
v 0.007042180153 -0.005240559614 -0.01498999403
v 0.007107313839 0.0006149088294 -0.00940217264
v 0.007107745041 -0.0009919978766 -0.009402178228
v 0.007162573043 0.004734026581 -0.01498999403
v 0.007165217787 -0.005111083958 -0.01498999403
v 0.007269532536 0.002272819416 -0.01087875478
v 0.007270855946 -0.002649821792 -0.01087875292
v 0.007433951017 0.00313865814 -0.01240205299
v 0.007435740088 -0.003515572273 -0.0124020474
v 0.007544135326 0.001470475006 -0.01081561111
v 0.007545026601 -0.001847329768 -0.01081561111
v 0.007609027554 -0.0001884108847 -0.01035163365
v 0.007643580857 0.004144304561 -0.01498999403
v 0.007645911413 -0.004521105211 -0.01498999403
v 0.007720073336 0.0006464775215 -0.01077441312
v 0.007720521768 -0.00102323723 -0.01077441685
v 0.007734375443 0.004029236919 -0.01498999403
v 0.007736643084 -0.004405989223 -0.01498999403
v 0.007807935239 0.00234649425 -0.0123190321
v 0.007809296832 -0.002723206053 -0.01231903583
v 0.008093451266 0.001520436155 -0.01225524116
v 0.008094370016 -0.00189699429 -0.01225523651
v 0.00817374187 0.003359747811 -0.01498999403
v 0.00817565173 -0.003736263424 -0.01498999403
v 0.008236726873 0.003261988237 -0.01498999403
v 0.008238583916 -0.003638471476 -0.01498999403
v 0.008275707369 0.0006717731158 -0.01221427508
v 0.008276168839 -0.001048232938 -0.01221428532
v 0.008522983757 -0.0001881652352 -0.01271697413
v 0.008612872908 0.002524744363 -0.01498999403
v 0.008614328391 -0.002901024778 -0.01498999403
v 0.00865370583 0.00244424357 -0.01498999403
v 0.008655118302 -0.002820500421 -0.01498999403
v 0.008683380983 0.002364286526 -0.01498999403
v 0.008684751395 -0.002740525958 -0.01498999403
v 0.008969883416 0.001588269426 -0.01498999403
v 0.008970840968 -0.001964358912 -0.01498999403
v 0.008984960956 0.001522857868 -0.01498999403
v 0.008985882501 -0.001898940912 -0.01498999403
v 0.009170339509 0.0007066165571 -0.01498999403
v 0.009170820913 -0.00108259496 -0.01498999403
v 0.009177032763 0.0006386071478 -0.01498999403
v 0.009177477807 -0.001014582852 -0.01498999403
v 0.009241690134 -0.0001879701802 -0.01498999403
f 82 67 88
f 80 87 66
f 81 59 48
f 1 15 6
f 13 11 47
f 626 641 639
f 626 639 614
f 531 483 507
f 504 483 531
f 252 222 248
f 465 482 501
f 582 605 599
f 571 531 551
f 551 531 507
f 541 516 501
f 541 527 516
f 134 139 140
f 111 115 108
f 87 115 113
f 62 51 29
f 23 27 43
f 542 520 498
f 410 434 443
f 443 417 410
f 410 417 381
f 381 378 410
f 410 378 376
f 376 428 410
f 410 428 434
f 127 129 112
f 19 16 17
f 19 23 15
f 15 16 19
f 26 52 63
f 14 46 12
f 444 494 438
f 438 494 486
f 517 494 505
f 456 486 478
f 438 486 456
f 478 499 468
f 608 619 581
f 303 183 264
f 320 200 368
f 632 648 649
f 618 614 628
f 628 614 639
f 623 606 600
f 549 531 571
f 504 531 549
f 616 597 599
f 612 597 616
f 248 222 227
f 500 515 540
f 458 500 481
f 463 483 439
f 507 483 463
f 463 481 507
f 329 325 289
f 329 289 292
f 292 334 329
f 59 81 86
f 81 226 86
f 47 43 69
f 277 252 248
f 277 300 294
f 391 345 319
f 291 301 319
f 501 482 529
f 529 541 501
f 508 482 464
f 464 484 508
f 508 529 482
f 552 529 508
f 399 393 350
f 431 393 399
f 464 482 446
f 501 516 479
f 479 465 501
f 431 465 479
f 431 399 412
f 294 300 327
f 350 393 327
f 453 429 391
f 546 547 530
f 605 582 586
f 571 551 575
f 575 597 571
f 575 582 599
f 599 597 575
f 560 586 582
f 582 575 560
f 560 575 551
f 530 547 526
f 526 547 540
f 540 515 526
f 552 576 561
f 561 529 552
f 541 529 561
f 130 113 115
f 87 80 85
f 87 113 89
f 89 113 92
f 92 68 89
f 62 29 25
f 36 47 34
f 36 43 47
f 23 43 36
f 34 15 36
f 15 23 36
f 71 69 43
f 218 211 219
f 302 267 307
f 307 381 302
f 307 378 381
f 307 310 376
f 376 378 307
f 215 218 228
f 262 267 302
f 228 218 262
f 381 417 388
f 302 381 388
f 396 337 388
f 237 231 163
f 477 498 520
f 467 498 477
f 558 562 577
f 518 558 542
f 542 498 518
f 558 584 573
f 520 544 533
f 542 566 554
f 443 434 469
f 177 165 187
f 106 96 110
f 403 414 439
f 439 483 461
f 461 483 504
f 22 5 7
f 20 17 18
f 20 19 17
f 23 19 20
f 55 46 63
f 55 37 46
f 109 79 94
f 296 327 300
f 389 338 397
f 521 486 494
f 471 444 450
f 380 382 438
f 438 456 435
f 435 456 430
f 435 380 438
f 379 380 435
f 435 430 377
f 377 379 435
f 308 183 303
f 308 380 379
f 303 382 308
f 382 380 308
f 308 379 377
f 377 311 308
f 452 456 478
f 478 468 452
f 430 456 452
f 489 499 519
f 489 468 499
f 553 578 565
f 559 578 553
f 519 499 535
f 535 553 519
f 559 553 535
f 640 642 627
f 619 629 615
f 615 640 627
f 629 640 615
f 506 484 462
f 570 608 581
f 511 539 523
f 550 506 523
f 519 553 537
f 537 553 565
f 422 404 400
f 245 184 213
f 149 200 197
f 200 324 197
f 418 446 408
f 464 446 418
f 641 656 654
f 662 649 664
f 632 649 647
f 660 658 647
f 664 649 663
f 655 657 642
f 659 661 648
f 606 623 611
f 611 623 632
f 579 587 611
f 611 587 606
f 611 586 579
f 605 586 611
f 631 642 648
f 627 642 631
f 631 613 627
f 536 562 558
f 558 518 536
f 626 614 601
f 601 612 626
f 599 605 622
f 622 616 599
f 622 611 632
f 605 611 622
f 630 641 626
f 626 612 630
f 612 616 630
f 630 647 641
f 91 72 101
f 101 72 76
f 60 91 84
f 73 81 48
f 84 91 230
f 230 227 84
f 91 101 230
f 248 227 230
f 222 75 78
f 78 227 222
f 48 59 45
f 54 71 43
f 54 45 59
f 38 45 54
f 59 77 54
f 77 71 54
f 528 500 540
f 540 560 528
f 528 560 551
f 528 551 507
f 507 481 528
f 481 500 528
f 476 453 480
f 429 453 476
f 480 500 476
f 500 458 476
f 445 458 481
f 481 463 445
f 292 289 256
f 289 325 286
f 286 256 289
f 284 266 286
f 299 345 295
f 295 334 292
f 292 272 295
f 295 272 299
f 334 295 341
f 341 295 345
f 353 411 390
f 353 329 334
f 423 411 429
f 429 476 423
f 423 476 458
f 390 411 423
f 458 445 423
f 98 77 59
f 59 86 98
f 299 272 276
f 88 62 65
f 62 47 65
f 47 69 65
f 279 277 294
f 252 277 279
f 294 301 279
f 263 301 291
f 263 279 301
f 257 252 263
f 252 279 263
f 291 319 304
f 299 276 304
f 304 276 291
f 304 345 299
f 304 319 345
f 391 319 336
f 336 319 301
f 336 327 393
f 336 301 294
f 294 327 336
f 482 465 457
f 457 446 482
f 516 527 497
f 497 479 516
f 419 453 391
f 391 336 419
f 419 336 393
f 470 453 419
f 540 547 568
f 568 560 540
f 586 560 568
f 579 586 568
f 568 546 579
f 547 546 568
f 480 453 487
f 487 500 480
f 515 500 487
f 530 526 513
f 513 527 530
f 583 561 576
f 587 561 583
f 583 576 600
f 600 606 583
f 606 587 583
f 569 587 579
f 569 561 587
f 579 546 569
f 541 561 569
f 132 145 149
f 104 108 115
f 64 63 87
f 87 89 64
f 64 89 68
f 64 55 63
f 64 68 57
f 57 55 64
f 90 110 88
f 88 65 90
f 90 65 69
f 210 207 208
f 211 218 209
f 218 215 209
f 215 208 209
f 259 262 297
f 267 262 232
f 232 262 218
f 219 267 232
f 232 218 219
f 417 432 413
f 310 231 275
f 275 231 237
f 275 314 310
f 237 314 275
f 310 307 271
f 271 231 310
f 271 307 267
f 271 267 219
f 219 231 271
f 150 163 147
f 173 163 231
f 219 211 173
f 211 209 173
f 173 209 208
f 318 370 314
f 590 577 603
f 592 577 562
f 455 469 434
f 434 428 455
f 451 441 467
f 451 455 428
f 467 477 451
f 477 455 451
f 467 441 459
f 374 428 376
f 376 310 374
f 310 314 374
f 363 361 415
f 447 459 415
f 415 459 441
f 137 142 153
f 133 150 147
f 136 150 133
f 346 351 403
f 414 403 394
f 403 351 394
f 284 282 270
f 421 403 439
f 439 461 421
f 18 22 21
f 21 20 18
f 50 78 75
f 56 78 50
f 38 54 32
f 32 43 27
f 32 54 43
f 70 94 79
f 68 94 70
f 70 79 76
f 76 72 70
f 57 68 70
f 109 94 125
f 285 265 269
f 236 265 255
f 255 230 236
f 236 230 101
f 255 265 290
f 248 230 273
f 273 230 255
f 273 296 300
f 273 277 248
f 300 277 273
f 350 327 343
f 327 296 343
f 343 399 350
f 400 404 395
f 395 418 408
f 404 418 395
f 405 389 397
f 438 382 384
f 384 444 438
f 384 382 303
f 486 521 512
f 512 499 478
f 478 486 512
f 512 535 499
f 180 308 311
f 180 311 377
f 574 585 559
f 565 578 593
f 593 570 565
f 608 570 593
f 604 578 591
f 559 535 543
f 543 512 521
f 535 512 543
f 608 625 634
f 629 646 651
f 619 638 644
f 532 506 550
f 552 508 532
f 532 508 484
f 484 506 532
f 550 523 564
f 564 523 539
f 564 589 550
f 564 570 581
f 539 570 564
f 510 489 519
f 519 537 510
f 557 570 539
f 565 570 557
f 557 537 565
f 404 422 440
f 464 418 440
f 440 418 404
f 440 422 462
f 462 484 440
f 440 484 464
f 202 204 182
f 182 184 183
f 185 176 179
f 264 260 298
f 430 452 426
f 426 416 368
f 426 373 430
f 468 489 460
f 650 645 628
f 643 637 618
f 572 576 552
f 550 589 572
f 552 532 572
f 572 532 550
f 600 576 598
f 598 589 613
f 576 572 598
f 598 572 589
f 613 589 602
f 627 613 602
f 602 615 627
f 636 631 648
f 636 648 632
f 632 623 636
f 613 631 617
f 617 623 600
f 617 636 623
f 631 636 617
f 600 598 617
f 617 598 613
f 474 461 504
f 588 597 612
f 612 601 588
f 571 597 588
f 588 549 571
f 616 622 635
f 635 630 616
f 647 630 635
f 632 647 635
f 635 622 632
f 105 79 109
f 109 236 105
f 105 236 101
f 76 79 105
f 105 101 76
f 58 60 84
f 57 70 61
f 61 70 72
f 61 72 91
f 91 60 61
f 74 73 48
f 75 73 74
f 221 226 81
f 81 73 221
f 224 75 222
f 224 73 75
f 224 252 257
f 222 252 224
f 84 227 83
f 227 78 83
f 83 58 84
f 83 78 56
f 56 58 83
f 427 445 463
f 235 256 241
f 241 286 266
f 256 286 241
f 229 256 235
f 229 86 226
f 235 98 229
f 229 98 86
f 284 286 321
f 321 286 325
f 429 411 398
f 391 429 398
f 334 341 398
f 398 353 334
f 411 353 398
f 103 98 235
f 77 98 103
f 249 276 272
f 249 229 226
f 249 272 292
f 292 256 249
f 256 229 249
f 291 276 278
f 278 263 291
f 424 412 392
f 424 392 408
f 424 457 465
f 408 446 424
f 446 457 424
f 424 465 431
f 431 412 424
f 454 393 431
f 454 419 393
f 470 419 454
f 431 479 454
f 454 497 470
f 479 497 454
f 470 497 503
f 503 513 470
f 503 497 527
f 527 513 503
f 470 513 496
f 496 513 526
f 496 526 515
f 541 569 548
f 548 569 546
f 527 541 548
f 530 527 548
f 548 546 530
f 130 121 126
f 149 197 148
f 113 130 116
f 130 132 116
f 92 113 116
f 100 71 77
f 136 133 117
f 215 217 214
f 243 217 215
f 240 150 151
f 151 150 136
f 147 156 144
f 144 133 147
f 154 156 165
f 142 144 154
f 154 144 156
f 216 231 219
f 219 173 216
f 216 173 231
f 163 173 158
f 147 163 158
f 158 156 147
f 206 203 168
f 168 173 208
f 165 156 168
f 168 203 201
f 156 158 168
f 168 158 173
f 201 193 168
f 193 191 168
f 323 318 288
f 323 361 363
f 363 318 323
f 323 288 240
f 240 274 323
f 370 318 367
f 280 314 237
f 280 318 314
f 485 466 469
f 485 469 490
f 493 477 520
f 493 455 477
f 469 455 493
f 514 502 493
f 509 536 518
f 428 374 372
f 314 370 372
f 372 374 314
f 425 415 441
f 370 367 425
f 425 367 415
f 425 451 428
f 441 451 425
f 428 372 425
f 425 372 370
f 447 415 407
f 407 415 361
f 312 346 339
f 312 282 284
f 357 394 351
f 339 346 385
f 385 346 403
f 403 421 385
f 24 22 33
f 24 21 22
f 49 50 75
f 49 74 48
f 75 74 49
f 44 45 38
f 50 49 44
f 48 45 44
f 44 49 48
f 265 125 141
f 141 102 146
f 254 269 265
f 254 141 146
f 265 141 254
f 242 236 109
f 265 236 242
f 109 125 242
f 242 125 265
f 287 265 285
f 287 290 265
f 255 290 293
f 293 273 255
f 296 273 293
f 118 102 95
f 95 68 92
f 95 94 68
f 392 412 354
f 354 412 399
f 386 422 400
f 400 347 386
f 359 402 356
f 387 389 444
f 444 384 387
f 387 384 303
f 534 545 521
f 375 180 377
f 377 430 375
f 430 373 375
f 162 200 149
f 149 145 162
f 567 543 555
f 525 539 511
f 525 510 537
f 525 557 539
f 537 557 525
f 202 182 199
f 212 182 205
f 205 182 204
f 167 155 161
f 161 152 160
f 161 155 140
f 320 368 366
f 366 200 320
f 366 364 200
f 368 416 366
f 416 364 366
f 362 324 200
f 200 364 362
f 359 324 362
f 362 364 416
f 373 426 371
f 416 426 442
f 442 426 452
f 442 452 468
f 468 460 442
f 489 510 473
f 473 460 489
f 615 602 595
f 581 619 595
f 619 615 595
f 595 564 581
f 589 564 595
f 595 602 589
f 436 421 461
f 461 474 436
f 436 474 447
f 447 407 436
f 562 536 556
f 596 556 580
f 596 592 562
f 562 556 596
f 594 588 601
f 594 601 614
f 594 596 580
f 594 614 618
f 618 596 594
f 223 221 73
f 439 414 420
f 420 463 439
f 420 427 463
f 414 394 420
f 284 321 315
f 315 312 284
f 346 312 315
f 351 346 315
f 315 321 351
f 391 398 349
f 349 398 341
f 349 345 391
f 349 341 345
f 107 241 220
f 77 103 107
f 235 241 107
f 107 103 235
f 221 223 250
f 250 278 276
f 276 249 250
f 226 221 250
f 250 249 226
f 495 453 470
f 470 496 495
f 495 487 453
f 515 487 495
f 495 496 515
f 171 189 269
f 313 316 285
f 347 316 313
f 313 340 347
f 110 90 114
f 127 110 114
f 136 117 120
f 120 138 136
f 159 154 169
f 188 168 191
f 332 312 339
f 363 415 365
f 415 367 365
f 365 318 363
f 365 367 318
f 239 280 237
f 237 163 239
f 318 280 239
f 239 150 240
f 163 150 239
f 240 288 239
f 288 318 239
f 620 609 592
f 467 459 488
f 488 498 467
f 488 518 498
f 488 509 518
f 390 357 342
f 325 329 342
f 342 321 325
f 342 353 390
f 329 353 342
f 351 321 342
f 342 357 351
f 394 357 406
f 406 420 394
f 427 420 406
f 406 357 390
f 445 427 406
f 390 423 406
f 406 423 445
f 268 266 284
f 284 270 268
f 251 274 240
f 261 270 282
f 261 244 270
f 282 274 261
f 274 251 261
f 261 251 244
f 42 55 57
f 57 61 42
f 38 32 39
f 39 44 38
f 99 125 94
f 99 141 125
f 102 141 99
f 94 95 99
f 99 95 102
f 285 316 322
f 322 287 285
f 335 343 296
f 296 293 335
f 399 343 335
f 335 354 399
f 359 356 348
f 348 356 340
f 383 356 402
f 402 422 383
f 422 386 383
f 340 356 383
f 347 340 383
f 383 386 347
f 175 368 200
f 200 162 175
f 373 371 175
f 175 375 373
f 180 375 175
f 180 175 178
f 178 175 162
f 183 308 178
f 308 180 178
f 593 610 621
f 192 195 181
f 181 190 192
f 181 195 198
f 181 167 176
f 181 186 190
f 140 155 143
f 143 155 145
f 143 130 140
f 145 132 143
f 143 132 130
f 170 161 160
f 176 167 164
f 167 161 164
f 475 506 462
f 511 523 475
f 475 523 506
f 401 436 407
f 401 385 421
f 421 436 401
f 536 509 524
f 524 556 536
f 607 596 618
f 592 596 607
f 607 633 624
f 563 594 580
f 549 588 563
f 588 594 563
f 73 224 225
f 225 223 73
f 225 224 257
f 220 100 123
f 123 107 220
f 123 100 77
f 77 107 123
f 263 278 258
f 278 250 258
f 257 263 258
f 258 250 223
f 258 225 257
f 223 225 258
f 124 128 189
f 124 171 118
f 189 171 124
f 196 148 197
f 196 194 148
f 189 128 135
f 135 194 189
f 148 194 135
f 135 132 149
f 149 148 135
f 135 116 132
f 166 254 146
f 118 171 166
f 269 254 166
f 166 171 269
f 146 102 166
f 166 102 118
f 189 194 283
f 269 189 283
f 283 194 309
f 285 269 283
f 283 313 285
f 127 114 131
f 133 144 131
f 131 117 133
f 131 114 117
f 131 142 127
f 131 144 142
f 93 120 117
f 93 114 90
f 117 114 93
f 93 90 69
f 138 120 233
f 122 244 233
f 233 120 122
f 281 323 274
f 281 274 282
f 472 488 459
f 509 488 472
f 472 459 447
f 270 244 253
f 253 268 270
f 253 241 266
f 266 268 253
f 238 251 240
f 240 151 238
f 238 151 136
f 136 138 238
f 138 233 238
f 244 251 238
f 238 233 244
f 35 24 33
f 33 37 35
f 37 55 35
f 55 42 35
f 41 58 56
f 352 316 347
f 352 322 316
f 352 347 400
f 400 395 352
f 330 293 290
f 330 335 293
f 354 335 330
f 368 175 369
f 369 175 371
f 369 426 368
f 369 371 426
f 157 155 167
f 157 178 162
f 157 162 145
f 145 155 157
f 511 475 492
f 492 525 511
f 510 525 492
f 492 473 510
f 473 492 449
f 449 492 475
f 460 473 449
f 355 332 339
f 339 385 355
f 385 401 355
f 556 524 538
f 580 556 538
f 538 563 580
f 128 124 119
f 116 135 119
f 119 135 128
f 119 124 118
f 118 95 119
f 92 116 119
f 119 95 92
f 333 197 324
f 333 324 359
f 359 348 333
f 340 313 333
f 333 348 340
f 120 93 97
f 97 100 122
f 122 120 97
f 71 100 97
f 69 71 97
f 97 93 69
f 317 332 323
f 323 281 317
f 317 281 282
f 282 312 317
f 312 332 317
f 491 524 509
f 509 472 491
f 491 538 524
f 447 474 491
f 491 472 447
f 234 100 220
f 220 241 234
f 241 253 234
f 122 100 234
f 234 244 122
f 234 253 244
f 58 41 53
f 60 58 53
f 53 61 60
f 53 42 61
f 44 39 40
f 50 44 40
f 40 39 32
f 56 50 40
f 40 41 56
f 24 35 31
f 31 35 42
f 42 53 31
f 31 53 41
f 41 40 31
f 358 352 395
f 408 392 358
f 358 395 408
f 326 330 290
f 290 287 326
f 287 322 326
f 172 157 167
f 178 157 172
f 172 181 182
f 167 181 172
f 172 182 183
f 183 178 172
f 409 402 359
f 359 362 409
f 409 362 416
f 437 422 402
f 402 409 437
f 437 409 449
f 437 449 475
f 462 422 437
f 437 475 462
f 360 355 401
f 360 407 361
f 360 401 407
f 361 323 360
f 323 332 360
f 332 355 360
f 549 563 522
f 563 538 522
f 504 549 522
f 538 491 522
f 522 474 504
f 522 491 474
f 328 196 197
f 197 333 328
f 309 194 328
f 194 196 328
f 328 283 309
f 313 283 328
f 328 333 313
f 21 24 30
f 24 31 30
f 30 40 32
f 30 31 40
f 322 352 344
f 352 358 344
f 344 326 322
f 344 358 392
f 330 326 344
f 392 354 344
f 354 330 344
f 433 409 416
f 449 409 433
f 460 449 433
f 416 442 433
f 433 442 460
f 28 27 23
f 23 20 28
f 28 32 27
f 28 30 32
f 20 21 28
f 21 30 28
f 6 15 34
f 34 9 6
f 88 67 51
f 51 62 88
f 47 11 9
f 47 9 34
f 66 87 52
f 87 63 52
f 26 46 14
f 63 46 26
f 13 47 25
f 25 47 62
f 388 337 305
f 388 305 302
f 443 448 432
f 432 417 443
f 573 566 542
f 542 558 573
f 554 520 542
f 554 544 520
f 112 106 110
f 110 127 112
f 110 96 82
f 110 82 88
f 22 4 5
f 18 4 22
f 22 7 8
f 8 33 22
f 494 444 471
f 471 505 494
f 652 639 654
f 654 639 641
f 647 662 660
f 649 662 647
f 647 658 656
f 647 656 641
f 648 661 663
f 663 649 648
f 655 640 653
f 642 640 655
f 648 642 659
f 642 657 659
f 121 115 111
f 121 130 115
f 104 115 87
f 87 85 104
f 302 305 297
f 297 262 302
f 396 388 413
f 413 388 417
f 590 584 558
f 558 577 590
f 466 448 443
f 443 469 466
f 129 127 137
f 127 142 137
f 3 4 18
f 18 17 3
f 10 33 8
f 10 37 33
f 10 12 46
f 46 37 10
f 450 444 405
f 444 389 405
f 559 585 591
f 591 578 559
f 567 574 543
f 543 574 559
f 634 638 619
f 619 608 634
f 653 640 651
f 651 640 629
f 644 629 619
f 644 646 629
f 212 213 182
f 182 213 184
f 298 306 303
f 303 264 298
f 246 184 245
f 183 184 246
f 246 264 183
f 246 260 264
f 650 639 652
f 650 628 639
f 618 628 643
f 628 645 643
f 126 134 140
f 140 130 126
f 210 208 214
f 214 208 215
f 154 177 169
f 165 177 154
f 168 207 206
f 168 208 207
f 603 577 609
f 577 592 609
f 493 502 490
f 490 469 493
f 493 533 514
f 520 533 493
f 2 15 1
f 2 16 15
f 2 3 17
f 17 16 2
f 306 331 387
f 303 306 387
f 387 331 338
f 338 389 387
f 534 494 517
f 534 521 494
f 610 578 604
f 610 593 578
f 521 545 555
f 555 543 521
f 139 152 161
f 140 139 161
f 228 262 247
f 247 262 259
f 247 215 228
f 247 243 215
f 153 142 159
f 142 154 159
f 187 165 188
f 165 168 188
f 621 625 608
f 608 593 621
f 198 199 181
f 181 199 182
f 185 186 181
f 181 176 185
f 66 52 170
f 170 574 567
f 108 104 170
f 67 82 170
f 170 471 450
f 170 51 67
f 170 10 8
f 170 85 80
f 638 634 170
f 306 298 170
f 13 25 170
f 170 662 664
f 1 6 170
f 170 11 13
f 170 203 206
f 448 466 170
f 170 80 66
f 170 658 660
f 517 505 170
f 170 644 638
f 170 502 514
f 112 129 170
f 170 106 112
f 170 337 396
f 170 26 14
f 661 659 170
f 170 331 306
f 170 204 202
f 245 213 170
f 170 633 637
f 170 247 259
f 153 159 170
f 111 108 170
f 9 11 170
f 170 6 9
f 82 96 170
f 170 207 210
f 170 554 566
f 396 413 170
f 566 573 170
f 8 7 170
f 170 177 187
f 14 12 170
f 567 555 170
f 397 338 170
f 664 663 170
f 170 186 185
f 170 195 192
f 139 134 170
f 170 152 139
f 170 96 106
f 170 29 51
f 305 337 170
f 206 207 170
f 134 126 170
f 170 297 305
f 514 533 170
f 170 590 603
f 7 5 170
f 52 26 170
f 170 485 490
f 170 137 153
f 170 534 517
f 170 405 397
f 652 654 170
f 170 246 245
f 170 655 653
f 625 621 170
f 160 152 170
f 170 121 111
f 170 25 29
f 170 432 448
f 170 573 584
f 170 533 544
f 544 554 170
f 201 203 170
f 170 193 201
f 169 177 170
f 5 4 170
f 505 471 170
f 170 2 1
f 604 591 170
f 653 651 170
f 170 213 212
f 202 199 170
f 212 205 170
f 185 179 170
f 170 654 656
f 656 658 170
f 660 662 170
f 170 663 661
f 170 650 652
f 624 633 170
f 657 655 170
f 170 659 657
f 637 643 170
f 170 104 85
f 210 214 170
f 259 297 170
f 170 413 432
f 584 590 170
f 603 609 170
f 490 502 170
f 170 191 193
f 129 137 170
f 4 3 170
f 12 10 170
f 450 405 170
f 338 331 170
f 170 610 604
f 585 574 170
f 170 591 585
f 170 634 625
f 170 651 646
f 646 644 170
f 192 190 170
f 170 179 174
f 170 298 260
f 260 246 170
f 645 650 170
f 170 643 645
f 170 126 121
f 170 214 217
f 217 243 170
f 187 188 170
f 466 485 170
f 3 2 170
f 545 534 170
f 170 620 624
f 170 555 545
f 170 199 198
f 170 205 204
f 198 195 170
f 190 186 170
f 243 247 170
f 170 159 169
f 170 188 191
f 609 620 170
f 170 621 610
f 174 179 164
f 164 179 176
f 164 170 174
f 161 170 164
f 624 620 607
f 607 620 592
f 637 633 607
f 618 637 607
