v -0.01017722581 0.002884054556 -0.001119692461
v -0.01017718296 0.003939968068 -0.001446572016
v -0.01016712189 0.004291007295 -0.001630859566
v -0.01016190182 0.004239301663 -0.00171634357
v -0.01015329454 0.004622226581 -0.001847365405
v -0.01014924422 0.004561963025 -0.001928101177
v -0.01013202406 0.001778003178 -0.001078199479
v -0.01009129267 0.005499999505 -0.002481951145
v -0.01006873697 0.001444792259 0.0002685930813
v -0.01004047412 0.0007024429506 -0.001326684025
v -0.0100068301 0.006241546944 -0.003015639726
v -0.009987875819 0.006114983466 -0.003182342974
v -0.009939933196 0.006700310856 -0.00334473257
v -0.009920119308 0.006822883151 -0.003432506928
v -0.009913502261 -0.0002643049229 -0.001847726293
v -0.009775660932 -0.001056204899 -0.002599957632
v -0.009720372036 0.007854170166 -0.00416830834
v -0.009716000408 -0.001348261256 -0.003010661807
v -0.009715211578 0.007722444367 -0.004343810491
v -0.009703130461 -0.001065995079 0.0002172920213
v -0.009657381102 -0.001616810099 -0.003531876486
v -0.0096284803 -0.0009995151777 0.002885897411
v -0.009596229531 -0.001734528109 -0.005586777348
v -0.009589424357 -0.001676977496 -0.005586782936
v -0.009585548192 -0.001902800053 -0.00458138017
v -0.009578084573 -0.001904925564 -0.005586778745
v -0.009534854442 0.008466406725 -0.004774678033
v -0.009404265322 0.009007711895 -0.004757110029
v -0.009348490275 0.004530030768 0.03762833402
v -0.009348248132 0.004590261728 0.03778547421
v -0.009346425533 0.00473681232 0.03806317225
v -0.009344053455 0.004844648764 0.03821720555
v -0.009340761229 0.004954378586 0.03834712878
v -0.009322484024 0.005334421992 0.03866790608
v -0.009315974079 0.003386502853 0.03566180542
v -0.009312778711 0.005477561615 0.03875315562
v -0.009296303615 0.003107113764 0.03554003313
v -0.009286579676 -0.00280956435 -0.005586781073
v -0.009282356128 0.002943630097 0.03549086303
v -0.009280384518 0.008911010809 -0.005159656983
v -0.009270608425 0.005938303191 0.03893326595
v -0.009251333773 0.006103000604 0.03896701708
v -0.009228743613 0.002450000495 0.0354289934
v -0.009188370779 0.009605999105 -0.004922216292
v -0.00918037165 0.006591771729 0.03898822516
v -0.009179617278 0.009554883465 -0.005132353865
v -0.009138576686 0.001847168547 0.03542900085
v -0.009086902253 0.009477458894 -0.005312195513
v -0.009080324322 0.006919429172 0.0389277786
v -0.009070551954 -0.003400538582 -0.002909139963
v -0.009020772763 0.001250000088 0.0354289934
v -0.008987559937 -0.003446786199 0.0001168540912
v -0.008926472627 0.00938783586 -0.005427748896
v -0.008920734748 0.007749079727 0.03794717044
v -0.008919660002 -0.003350786865 0.002907526912
v -0.008903564885 0.01025598869 -0.005013389979
v -0.008899449371 0.0007558832876 0.03549098596
v -0.008862049319 0.007845900953 0.03807864711
v -0.008858579211 0.0100411661 -0.005397645757
v -0.008847649209 0.0005705021322 0.03554796055
v -0.008812218904 -0.003944423515 -0.00558678247
v -0.008707387373 0.000124709346 0.03577559441
v -0.008703564294 0.009955554269 -0.005518300924
v -0.008698256686 0.01065215934 -0.00502499193
v -0.008681656793 0.01064300071 -0.005234330427
v -0.008591855876 0.01059345808 -0.005417693872
v -0.008566286415 -0.004486853722 -0.003074824112
v -0.008513900451 0.00986308977 -0.0055545168
v -0.008484981954 -0.004532311112 4.60583833e-05
v -0.008476552553 0.008974405006 0.03702936321
v -0.008443671279 0.01051170472 -0.005542506464
v -0.008421792649 -0.004424438346 0.002893690486
v -0.008414859883 0.009046123363 0.03716556728
v -0.008280452341 -0.0007500000065 0.03975302726
v -0.008263817988 0.01041248161 -0.005586778279
v -0.008251769468 -0.00495344447 -0.005586779211
v -0.008236242458 -0.0007500001229 0.04012900218
v -0.008218903095 -0.0008791052969 0.0397050567
v -0.008194147609 -0.0007555976044 0.04027852789
v -0.008078309707 -0.0008076691302 0.04049393535
v -0.007956599817 -0.005470874719 -0.003244252643
v -0.00794677902 0.01179824397 -0.005007641856
v -0.007936622016 0.01179046649 -0.005221728701
v -0.007878646255 -0.005517990794 -3.960056347e-05
v -0.007856960408 0.01172923949 -0.005411073565
v -0.007836692967 -0.0009399661212 0.04073531553
v -0.007820885628 -0.005401342642 0.002860426903
v -0.007794539444 0.01021361537 0.03625389934
v -0.007770479657 -0.001703664195 0.03939874098
v -0.007734055631 0.01025854237 0.03639375418
v -0.00772990752 -0.005679670721 -0.005586777348
v -0.007727952208 -0.0009979782626 0.04081643373
v -0.007721433416 0.01162502356 -0.00554068666
v -0.007632625755 -0.00105192943 0.04088239744
v -0.007585258223 -0.001836404903 0.03988298401
v -0.007555484306 0.01149740536 -0.005586777814
v -0.007347811479 -0.001222593244 0.04105623439
v -0.007293587551 -0.001256101648 0.04108588398
v -0.007288878318 -0.001884817844 0.04033203796
v -0.007236021105 -0.006329663098 -0.003415493295
v -0.007233001757 -0.001293802052 0.04111787677
v -0.007216709666 -0.002524395706 0.03909260407
v -0.007163232192 -0.006381516345 -0.0001409379765
v -0.007111490238 -0.006260063034 0.00280555035
v -0.007083019707 -0.006378278136 -0.005586783402
v -0.007024514489 0.01282173488 -0.005100031383
v -0.007014151197 0.01281055715 -0.005209013354
v -0.006998873781 -0.00280454685 0.03898719698
v -0.006947373506 0.01273853425 -0.005404336378
v -0.006940005347 -0.00147913571 0.0412574932
v -0.006840832066 0.01137564238 0.03564110771
v -0.006829980761 0.01261192281 -0.005538834259
v -0.006821548101 0.01138833445 0.03570338339
v -0.006808211561 -0.002894585952 0.0394522734
v -0.006767554674 -0.003083310556 0.03888060898
v -0.006767554674 -0.002605343005 0.0400150083
v -0.006728805136 -0.001614349312 0.04134420305
v -0.006684926338 0.01245547459 -0.005586783402
v -0.006682540756 0.01152819861 0.03556860238
v -0.006594137754 -0.001700597815 0.04139371589
v -0.006568477023 0.0116267493 0.03559014201
v -0.006526455749 -0.002895419952 0.03988546133
v -0.006519237533 0.01167674363 0.03549951687
v -0.006508086808 0.01167674456 0.03558516875
v -0.006432942115 0.009655808099 0.04211278632
v -0.006406607572 -0.007051096763 -0.003584942548
v -0.006340800319 -0.007110755425 -0.0002554939128
v -0.006338373758 -0.006993195973 -0.005586776882
v -0.006295559462 -0.006988632958 0.002730684122
v -0.006205183454 -0.001916577574 0.04153610393
v -0.006177649833 0.01005284023 0.04232161492
v -0.006100642495 -0.003786879126 0.03859743848
v -0.005907337647 -0.003841386409 0.03904118389
v -0.005870228168 0.0104680201 0.04243386909
v -0.005867628846 -0.004406813532 0.03425094858
v -0.005790761206 0.01376332343 -0.005086008459
v -0.005784158129 0.01375292428 -0.005197376013
v -0.005732828751 0.01367134415 -0.005398157984
v -0.005702197552 -0.00740675861 -0.005586780142
v -0.005683995318 -0.002270331373 0.0416289866
v -0.005668121856 0.01071145665 0.04245707393
v -0.005641696975 -0.003805337474 0.03945496678
v -0.005640188698 0.01352408342 -0.005537193269
v -0.00552454358 0.01334019843 -0.005586781073
v -0.005507334601 0.0139180785 -0.004972085822
v -0.005482899956 -0.007640980184 -0.003746310947
v -0.005425651092 -0.007710446138 -0.0003754043137
v -0.005387322512 -0.007590794936 0.002643816406
v -0.005127282813 -0.004636813421 0.03819996119
v -0.005116283894 -0.002580915112 0.04174722359
v -0.005106575321 -0.002532379935 0.04182283208
v -0.005089371931 -0.002473101486 0.0418888256
v -0.005073826294 0.0113232499 0.04238273948
v -0.005024489481 -0.005074426997 0.03472081199
v -0.004926755559 -0.004667630419 0.03862382099
v -0.004838591442 -0.002729234751 0.04178402573
v -0.004808766302 -0.007860099897 -0.005586780608
v -0.004668721464 -0.004607409704 0.03901886567
v -0.004590613302 0.01173095871 0.04221706837
v -0.004480613861 -0.008106807247 -0.00389304501
v -0.004433237482 -0.008186914027 -0.0004923009546
v -0.004402163904 -0.008071768098 0.002553517232
v -0.004363006912 0.01449218392 -0.005076324567
v -0.004358980805 0.01448252704 -0.005189265124
v -0.004323100206 0.0143948812 -0.005393802188
v -0.004256929737 0.01423307694 -0.005535973236
v -0.004173852503 0.01402982231 -0.005586779211
v -0.004107823595 -0.00565594947 0.03515923023
v -0.004076146521 -0.00537673058 0.03778394312
v -0.004054806195 0.01210940257 0.04195131361
v -0.003954280168 -0.003166913055 0.04182898998
v -0.003911809996 -0.003073828528 0.04198015109
v -0.003874583403 -0.00538326893 0.03819063306
v -0.003847393673 -0.008220372722 -0.005586779676
v -0.003787979949 0.01469074748 -0.004961097147
v -0.003628864419 -0.00529965898 0.03856969625
v -0.003595681163 0.01238187402 0.04165386036
v -0.003555076197 -0.008308298886 -0.005586776417
v -0.003415465355 -0.00845607277 -0.00401857635
v -0.003379012691 -0.008546487428 -0.0005978007102
v -0.003355467925 -0.008436772041 0.002468356164
v -0.003155940212 -0.006448572967 0.03168285638
v -0.003132335842 -0.006135641132 0.03554212302
v -0.003065769328 -0.00351957744 0.04182899371
v -0.002919549355 -0.00601182133 0.03736482561
v -0.002909828676 -0.003463574452 0.04198014736
v -0.00275095948 0.002228141064 0.04734254256
v -0.002750884742 0.002506638411 0.04750000685
v -0.002750819782 0.002749544336 0.04762405157
v -0.002750596032 0.003582490142 0.04796452448
v -0.002750475192 0.004031138495 0.04809840024
v -0.00275021675 0.004994142801 0.04827974364
v -0.002749953885 0.005973055959 0.04832438752
v -0.002749885432 0.006227648817 0.04831343889
v -0.002749822335 0.006462503225 0.04829506576
v -0.002749724546 0.006826109253 0.04825077206
v -0.002749691484 0.006948567927 0.04823146388
v -0.002749512671 0.007614549249 0.04808664322
v -0.002749190899 0.008812886663 0.04764288291
v -0.002749162493 0.008917740546 0.04759161174
v -0.002748903818 0.009882168844 0.04700833187
v -0.002748784376 0.01032590028 0.04666021839
v -0.00274875341 0.0104407426 0.04656020552
v -0.00274849846 0.01139002573 0.04552588612
v -0.002748414408 0.01170434337 0.04506841674
v -0.002748199506 0.01250449475 0.04328463599
v -0.002748167375 0.0126230251 0.04281308502
v -0.002748125931 0.01277838089 0.0413488932
v -0.002741042757 0.01500554848 -0.005070563406
v -0.002738911659 0.01499647275 -0.005184425507
v -0.002736113966 -0.005985908676 0.03775792569
v -0.002717796247 0.01490515377 -0.005391184241
v -0.002714121249 0.002638427308 0.04758490622
v -0.002691464033 0.006796807982 0.04827797785
v -0.002678286517 0.01473422442 -0.005535239819
v -0.002628491959 0.01451872382 -0.005586782005
v -0.002576809376 0.004536013585 0.04827798158
v -0.002573700156 0.001163081033 0.04665218666
v -0.002522259019 -0.005873281509 0.03812543675
v -0.002459210111 0.01153063588 0.04551566392
v -0.002436889103 0.01215842739 0.04449243844
v -0.002435713308 0.007318192162 0.0482779704
v -0.002414521761 -0.008570101112 -0.005586782005
v -0.002380345017 0.009219935164 0.04758490622
v -0.002303169342 -0.008696270175 -0.004116366152
v -0.002278429689 -0.008795492351 -0.0006835205131
v -0.002269623568 0.004043181892 0.04827797413
v -0.002262618858 -0.008691026829 0.002396910451
v -0.002128674882 -0.006837485358 0.03197262064
v -0.002112994436 0.01299619768 0.04134889692
v -0.002112732735 -0.006497765891 0.03584543616
v -0.002091386123 0.01067350712 0.04665217549
v -0.002080244478 0.007777420804 0.0482779704
v -0.002064457163 -0.003799985629 0.04182900116
v -0.002022143221 0.002156797098 0.04758489877
v -0.001928987913 0.01514489483 -0.004955942743
v -0.001869519241 0.003622270888 0.04827798158
v -0.001643191441 0.009629089385 0.04758489877
v -0.001639609691 0.008155692369 0.0482779704
v -0.001587611274 0.0007399172173 0.04665217549
v -0.001583226142 -0.006500574294 0.03700763732
v -0.001509739086 0.01314647403 0.04134889692
v -0.001480729436 0.0130053116 0.04281207174
v -0.001473019016 -0.003808222013 0.04198014736
v -0.001461297739 0.005725891795 0.04870476946
v -0.001458150218 -0.006436175201 0.03739114851
v -0.001446302864 0.006021565758 0.04870475829
v -0.001416467014 0.005433252547 0.04870476201
v -0.001394815976 0.01258725394 0.04421901703
v -0.00139287638 0.003290517954 0.0482779704
v -0.001372096478 0.006308169104 0.04870476946
v -0.001317419927 -0.006291971542 0.03775217757
v -0.001313646091 0.005155625753 0.04870476946
v -0.00125530106 0.01190836728 0.04551565275
v -0.001247378299 0.001824319013 0.04758489877
v -0.001241715974 0.006573967636 0.04870476946
v -0.001228063717 -0.008724061772 -0.005586781539
v -0.001159441774 -0.008834892884 -0.00417983951
v -0.001157044084 0.004904381 0.04870476946
v -0.001146940864 -0.008940256201 -0.0007410995313
v -0.001131849829 0.008437522687 0.04827797413
v -0.001071751234 -0.007084256038 0.03216298297
v -0.001067545614 0.01099473797 0.04665218294
v -0.001063718693 -0.006726581603 0.03604506701
v -0.00106049946 0.006808079779 0.04870476946
v -0.001038547955 -0.003969589248 0.04182899371
v -0.0009651324945 0.01527262852 -0.005068257451
v -0.0009644577513 0.0152638182 -0.005182477646
v -0.0009572950075 0.0151708331 -0.005390138365
v -0.0009530727402 0.004689803347 0.04870476574
v -0.0009437785484 0.01499578543 -0.005534952041
v -0.0009267056012 0.01477475464 -0.005586777814
v -0.0008592088707 0.003061503638 0.04827797413
v -0.0008387654671 0.009881478734 0.04758489877
v -0.0008358658524 0.00700092176 0.04870476201
v -0.0008209012449 -0.006655828096 0.03688919172
v -0.0007490714197 -0.006574679166 0.03726961836
v -0.0007100823568 0.004520676099 0.04870477319
v -0.0006693174946 -0.006417624187 0.03762916476
v -0.0005777513143 0.008611372672 0.0482779704
v -0.0005770119024 0.007144596428 0.04870476574
v -0.0005365254474 0.0005239138845 0.04665217921
v -0.0004380210303 0.004403928295 0.04870475829
v -0.0004215455556 0.001654605498 0.04758489877
v -0.0002945353626 0.007233224809 0.04870477319
v -0.0002903653367 0.002944602165 0.04827797785
v -0.0001480268984 0.004344332498 0.04870476574
v -2.655299056e-07 -0.004026370123 0.04182899743
v -2.423172982e-09 0.01529076509 -0.004954742268
v -2.703219454e-10 0.01203601714 0.04551566765
v -1.659483384e-10 0.007263176609 0.04870475829
v -1.301524999e-10 0.009966773912 0.04758489504
v -8.912301453e-12 0.005799999926 0.04884888232
v 3.124136713e-11 0.008670122363 0.04827797785
v 6.594874646e-11 0.01272909343 0.04421900585
v 1.159958796e-10 0.01315588783 0.04281206802
v 1.196038546e-10 0.01330000069 0.04134888202
v 1.657679549e-10 0.01110329665 0.04665217549
v 7.379620942e-10 -0.003924052697 0.04198014364
v 8.286634851e-10 -0.006714679301 0.03684359416
v 9.338793211e-10 -0.006463921163 0.03758193552
v 1.00940302e-09 -0.008987103589 -0.0007621546974
v 1.0366661e-09 -0.00877489429 -0.005586775951
v 1.046719059e-09 -0.006625441834 0.03722527996
v 1.085596626e-09 -0.007224189583 0.03142292053
v 1.159223398e-09 -0.008962024935 -0.00244845124
v 1.366810345e-09 -0.008921649307 0.001736051869
v 0.0001480270876 0.004344332032 0.04870476574
v 0.0002903655986 0.002944602864 0.04827797413
v 0.0002945351007 0.007233224344 0.04870477319
v 0.0004215450317 0.00165460608 0.04758489877
v 0.0004380211758 0.004403925966 0.04870477319
v 0.0005365259713 0.0005239124293 0.04665218666
v 0.0005770114949 0.007144596893 0.04870476574
v 0.0005777510232 0.008611371741 0.04827796668
v 0.0006656016922 -0.006418648642 0.03762776777
v 0.0007100818912 0.004520676564 0.04870476946
v 0.0007442255155 -0.006574472412 0.03727155551
v 0.0008161849109 -0.006656495389 0.03688867763
v 0.000835865445 0.007000920828 0.04870477319
v 0.0008387647104 0.009881478734 0.04758489504
v 0.0008592086961 0.003061504569 0.0482779704
v 0.0009267877904 0.01477474254 -0.005586781539
v 0.0009438617271 0.0149957696 -0.005534946918
v 0.0009530720417 0.004689802881 0.04870477319
v 0.0009573802236 0.01517081819 -0.005390139297
v 0.000964544015 0.0152638033 -0.005182478111
v 0.0009652206209 0.01527261455 -0.005068257451
v 0.001024030847 -0.008739767596 -0.005586776882
v 0.001038020477 -0.00396964699 0.04182898998
v 0.001060499111 0.006808079779 0.04870477319
v 0.00106372044 -0.006726581138 0.03604507074
v 0.001067545381 0.01099473704 0.04665218666
v 0.001071752748 -0.007084256038 0.0321629867
v 0.001131849363 0.008437522687 0.0482779704
v 0.001146942843 -0.008940255269 -0.0007411024417
v 0.001157043851 0.004904381465 0.04870476946
v 0.001159443869 -0.008834892884 -0.004179841373
v 0.001241715741 0.00657396717 0.04870476201
v 0.001247377833 0.001824318198 0.04758490622
v 0.001255301526 0.01190836634 0.0455156602
v 0.001310248044 -0.006294320803 0.03774950281
v 0.001313645625 0.005155625287 0.04870476946
v 0.001372096245 0.006308167242 0.04870477319
v 0.001392876264 0.003290517954 0.04827797413
v 0.001394816441 0.01258725487 0.04421900958
v 0.001416466897 0.00543325115 0.04870476946
v 0.001446303097 0.006021564826 0.04870477319
v 0.001449101372 -0.006437538657 0.03739185259
v 0.001461297739 0.005725891329 0.04870476946
v 0.001473019714 -0.003808221081 0.04198015109
v 0.001480729203 0.0130053116 0.04281206056
v 0.001509739086 0.01314647496 0.04134888574
v 0.001574528404 -0.006502863485 0.03700590879
v 0.001587611157 0.000739916577 0.04665218666
v 0.001639610156 0.008155691437 0.04827797413
v 0.001643191325 0.009629088454 0.0475849025
v 0.001869519008 0.003622270888 0.04827797413
v 0.00192898151 0.01514488086 -0.004955942277
v 0.002022142988 0.002156795934 0.04758490995
v 0.002063938417 -0.003800099483 0.04182898998
v 0.002080243779 0.007777419873 0.04827797413
v 0.002091386123 0.01067350619 0.04665217921
v 0.002112734364 -0.006497764029 0.03584542498
v 0.002112994203 0.01299619675 0.04134888574
v 0.002128676511 -0.006837483961 0.03197261319
v 0.002262620721 -0.008691025898 0.002396908822
v 0.002269623568 0.004043180961 0.04827797785
v 0.002278431552 -0.00879549142 -0.0006835278473
v 0.002303171204 -0.008696269244 -0.004116363823
v 0.002309711184 -0.008588252589 -0.005586775951
v 0.002380344784 0.009219935164 0.04758490995
v 0.002435713075 0.007318192627 0.04827797785
v 0.002438919386 0.01215777453 0.04449218139
v 0.002459210344 0.01153063867 0.0455156602
v 0.002509164857 -0.005879693199 0.03811950982
v 0.00257369969 0.001163081033 0.04665217921
v 0.002576808911 0.004536015447 0.04827797413
v 0.002627836773 0.01451885793 -0.005586779676
v 0.002677618526 0.01473436039 -0.005535239354
v 0.002691464033 0.006796808448 0.04827798158
v 0.002714121249 0.002638427773 0.04758489877
v 0.002717118477 0.01490529347 -0.005391187035
v 0.002720549935 -0.005991834681 0.03775551543
v 0.002738227835 0.01499661151 -0.005184426438
v 0.002740359167 0.01500568632 -0.005070563871
v 0.002748783212 0.001271087094 0.04665765911
v 0.002748824423 0.001422231086 0.04678294808
v 0.002749275183 0.003101560054 0.04778392985
v 0.002749524312 0.004029661417 0.04809840024
v 0.002749782754 0.004992665723 0.04827974737
v 0.002750045853 0.005971578881 0.04832439125
v 0.002750114771 0.006227727514 0.04831335321
v 0.002750177635 0.006461026147 0.04829506949
v 0.002750275657 0.00682623731 0.04825052246
v 0.002750308719 0.006947090849 0.04823146388
v 0.002750725951 0.008502094075 0.04778178036
v 0.002750809072 0.008811408654 0.04764288291
v 0.002750837477 0.008916263469 0.04759161174
v 0.002751097316 0.009884910658 0.04700529203
v 0.002751215128 0.0103244232 0.04666021839
v 0.00275124656 0.01043926645 0.04656019062
v 0.00275150151 0.01138854958 0.04552587494
v 0.002751585795 0.01170286536 0.04506841674
v 0.002751800464 0.01250301767 0.04328463599
v 0.002751832362 0.01262154803 0.04281308874
v 0.002751874272 0.01277690381 0.04134889692
v 0.002904906403 -0.006018651184 0.03736001998
v 0.002909829374 -0.003463574219 0.04198014364
v 0.003065266879 -0.003519747872 0.04182899371
v 0.003132337239 -0.006135640666 0.03554212674
v 0.003155942308 -0.006448572036 0.03168286383
v 0.00335547002 -0.00843677111 0.002468353603
v 0.003379015252 -0.008546486497 -0.0005978007684
v 0.00341546745 -0.008456071839 -0.004018580075
v 0.00352374278 -0.008317180909 -0.005586782005
v 0.003597281175 0.01238100138 0.04165242985
v 0.00361043727 -0.005311304238 0.03856068477
v 0.003787966212 0.01469073072 -0.004961094819
v 0.003853635397 -0.005394794978 0.0381853953
v 0.003911810927 -0.003073826665 0.04198014364
v 0.003926804755 -0.008194864728 -0.005586777348
v 0.003954281099 -0.003166911658 0.04182898998
v 0.004053472076 0.01211025938 0.04194859788
v 0.004056571983 -0.005389022641 0.03777637333
v 0.004096004181 0.01208273415 0.04197277501
v 0.004107824992 -0.005655948073 0.03515923023
v 0.004165015649 0.01403341535 -0.005586780608
v 0.004247888457 0.01423676964 -0.00553596532
v 0.004313895013 0.01439864282 -0.005393773783
v 0.004349683877 0.01448631939 -0.005189230666
v 0.004353696946 0.01449596975 -0.005076275207
v 0.004402165767 -0.008071767166 0.002553516533
v 0.004433239345 -0.008186913095 -0.0004922983935
v 0.004480615724 -0.008106806315 -0.00389304501
v 0.004592888523 0.01172919758 0.04221667722
v 0.004645404406 -0.004625425674 0.03900739551
v 0.004836816806 -0.002726024715 0.04178155214
v 0.004900997039 -0.0046857954 0.03861646354
v 0.004944224376 -0.007799494546 -0.005586778279
v 0.004999300931 -0.002727564191 0.04162899032
v 0.005024490412 -0.0050744256 0.03472081572
v 0.005076792557 0.01132052392 0.04238274693
v 0.005088391248 -0.00246672146 0.04188542813
v 0.005103192758 -0.004655604251 0.03819031268
v 0.005387323909 -0.007590793073 0.002643811516
v 0.005425652955 -0.007710444275 -0.0003754054196
v 0.005482901819 -0.007640978321 -0.003746313741
v 0.005503355525 0.01335341297 -0.005586776882
v 0.005507309455 0.01391808316 -0.004972085822
v 0.00561467791 -0.003830955364 0.03944113478
v 0.005618468858 0.01353768632 -0.005537165329
v 0.005649040919 -0.002138636075 0.04176881537
v 0.00566812139 0.01071145572 0.04245717451
v 0.005683995783 -0.002270330209 0.04162899777
v 0.005710672587 0.01368524134 -0.005398064852
v 0.005761738867 0.01376694813 -0.005197206978
v 0.005768292118 0.01377733331 -0.005085810088
v 0.005867630243 -0.004406811204 0.03425094858
v 0.005872664042 -0.007304335013 -0.005586781073
v 0.005877729971 -0.003867698368 0.03903179243
v 0.005879372358 0.01045649778 0.04243253171
v 0.006072759628 -0.003813955234 0.0385858044
v 0.006178573705 0.01005149819 0.04232238233
v 0.006205250509 -0.001915484434 0.04153620079
v 0.006295561325 -0.006988631096 0.002730681794
v 0.006340801716 -0.007110754028 -0.0002554916427
v 0.006406609435 -0.007051094901 -0.003584941151
v 0.006425206084 -0.006929575931 -0.005586776417
v 0.006435012911 0.009652351961 0.04211279377
v 0.006447957363 -0.005247732159 -0.005586782936
v 0.006497630384 -0.002929813694 0.03986888751
v 0.006500652991 0.01167674549 0.03560922667
v 0.006519234739 0.01167674549 0.03549950942
v 0.006568457 0.01162677072 0.03559012339
v 0.006576051004 -0.001712349243 0.04139756039
v 0.006586985663 0.01161614899 0.03552752361
v 0.006684923079 0.01245547645 -0.005586783402
v 0.00676697772 -0.00260518305 0.04001568258
v 0.006767555606 -0.003083307995 0.03888060898
v 0.006776283495 -0.002930743154 0.03944042325
v 0.006786908954 0.01139514428 0.03578424826
v 0.006830126978 0.01261208486 -0.00553888781
v 0.006840828806 0.01137564518 0.03564111516
v 0.006947445683 0.01273861807 -0.005404369906
v 0.0069488585 -0.001473538578 0.0412526913
v 0.006968560163 -0.002841908019 0.03897307441
v 0.007014531177 0.01281097252 -0.005209078547
v 0.007024727296 0.01282197051 -0.005100043491
v 0.00711149117 -0.006260060705 0.002805548953
v 0.007154704537 -0.006309649907 -0.005586778279
v 0.007163233589 -0.006381514948 -0.0001409342658
v 0.007216660772 -0.002524443669 0.03909258544
v 0.007236022502 -0.006329661701 -0.003415489569
v 0.007259000093 -0.001928706188 0.04031405598
v 0.007297608536 -0.001253382186 0.0410855189
v 0.007357964292 -0.001216015429 0.04105263948
v 0.007452833466 0.01068553701 0.03599177301
v 0.007554201875 -0.001882914337 0.03986768797
v 0.007555477321 0.01149740536 -0.005586779211
v 0.007638222538 -0.001047829865 0.04088078067
v 0.007721425034 0.0116250217 -0.005540686194
v 0.007728395052 -0.000996796065 0.04081790894
v 0.007741443347 -0.001751304721 0.03938103467
v 0.007795755286 -0.005597111303 -0.005586781539
v 0.007811691612 0.01014107093 0.03646209463
v 0.00782088656 -0.005401340779 0.002860430162
v 0.007836265489 -0.0009399783448 0.04073585942
v 0.007856951095 0.01172923576 -0.005411066581
v 0.007872494869 0.01009344403 0.03632256389
v 0.007878647186 -0.005517988466 -3.959878813e-05
v 0.007936612703 0.01179046463 -0.005221729167
v 0.00794677157 0.01179824397 -0.005007640924
v 0.007956600748 -0.005470871925 -0.003244257765
v 0.008086052723 -0.0008033397608 0.0404834114
v 0.008194147609 -0.0007555948687 0.04027852416
v 0.008218899369 -0.0008791096625 0.0397050418
v 0.008236242458 -0.0007499981439 0.04012900218
v 0.008263815194 0.01041248441 -0.00558678247
v 0.008280452341 -0.0007499984349 0.03975303099
v 0.008328161202 -0.004831780214 -0.005586779211
v 0.008421794511 -0.004424436018 0.002893687692
v 0.008443666622 0.01051170751 -0.005542506929
v 0.008484983817 -0.004532308318 4.6054618e-05
v 0.008495968767 0.009905777872 -0.005559287965
v 0.008518162183 0.008810620755 0.03733227775
v 0.008566286415 -0.00448685186 -0.003074819688
v 0.008579519577 0.008733875118 0.03719688207
v 0.008591850288 0.01059345808 -0.005417694338
v 0.008681653067 0.01064300258 -0.005234336946
v 0.00869825203 0.0106521612 -0.005024996586
v 0.00870077312 0.0001054135137 0.03578889742
v 0.008819013834 -0.003930305131 -0.005586781539
v 0.008822382428 0.0004845475487 0.03558127955
v 0.00883831922 0.009624019265 -0.00547340326
v 0.008840943687 0.000547422911 0.03555645794
v 0.008892368525 0.0007297706907 0.03549783304
v 0.008919661865 -0.003350785002 0.002907529706
v 0.00895542372 0.007509439252 0.03836736083
v 0.008987560868 -0.003446783172 0.0001168491435
v 0.008996663615 0.009711959399 -0.005355624948
v 0.009012712166 0.007405895274 0.03823757917
v 0.0090207709 0.0012500023 0.03542900085
v 0.009070551954 -0.00340053672 -0.002909136703
v 0.009088858031 0.009783178568 -0.005174125545
v 0.00912957266 0.006560279522 0.0393374078
v 0.009138574824 0.001847171807 0.03542898968
v 0.009200301021 0.009157193825 -0.005234435666
v 0.009216804989 0.00636410946 0.03921721876
v 0.009228742681 0.002450002823 0.0354289934
v 0.009233905002 -0.002953024115 -0.00558678247
v 0.009244295768 0.00616813777 0.03942175582
v 0.00925466232 0.006086268928 0.03942896798
v 0.009273548611 0.009382943623 -0.004870114848
v 0.009282355197 0.002943632193 0.03549086303
v 0.009305012412 0.005597500596 0.03939935565
v 0.009317125194 0.005440814886 0.03936383873
v 0.009317738004 0.009260892868 -0.004836933222
v 0.009342323989 0.004971447866 0.03917403519
v 0.009347022511 0.004820370115 0.03908138722
v 0.00935180299 0.004450003151 0.03875718266
v 0.009370608255 0.008609820157 -0.0050493218
v 0.009465022944 0.008711287752 -0.004879864398
v 0.009470686316 0.008798851632 -0.00467951363
v 0.009519280866 -0.001493867254 -0.005586782936
v 0.009578085504 -0.00190492312 -0.005586775951
v 0.009583899751 -0.001649701968 -0.005586779211
v 0.009585555643 -0.001902775839 -0.004581307527
v 0.009628481232 -0.0009995126165 0.002885897644
v 0.009650683962 0.008150102571 -0.004360866733
v 0.009657398798 -0.001616747584 -0.003531808034
v 0.009703130461 -0.001065992983 0.000217292516
v 0.009715206921 0.007722446695 -0.004343808629
v 0.009716001339 -0.001348258811 -0.003010659944
v 0.009720370173 0.007854172029 -0.004168306012
v 0.00977568049 -0.001056125737 -0.002599905711
v 0.009913517162 -0.0002642309119 -0.001847705571
v 0.009922193363 0.006810275372 -0.003423483111
v 0.009939931333 0.006700314116 -0.003344730241
v 0.009987872094 0.006114986725 -0.00318234344
v 0.0100068273 0.006241549272 -0.003015638329
v 0.01004048251 0.0007025023806 -0.001326689031
v 0.01006873604 0.001444794936 0.0002685934305
v 0.01009129174 0.005500001833 -0.002481948351
v 0.01013202686 0.00177804241 -0.001078219386
v 0.01015329361 0.004622229841 -0.001847363892
v 0.01016191486 0.00423935242 -0.001716262195
v 0.01016712096 0.004291010089 -0.001630856656
v 0.0101710232 0.003897190094 -0.001535961172
v 0.01017718203 0.003939971328 -0.001446575508
v 0.01017722487 0.002884071087 -0.00111970224
f 23 8 12
f 580 584 567
f 470 464 397
f 72 69 87
f 87 89 72
f 262 228 305
f 307 367 305
f 307 260 302
f 305 228 307
f 228 260 307
f 415 371 416
f 75 118 24
f 75 24 23
f 4 23 1
f 2 4 1
f 3 4 2
f 13 12 11
f 11 12 8
f 362 373 397
f 1 23 7
f 581 580 579
f 584 580 581
f 557 515 516
f 556 515 557
f 586 584 556
f 556 557 586
f 586 557 588
f 567 584 586
f 484 482 498
f 484 475 482
f 80 191 192
f 498 482 443
f 443 454 498
f 482 475 443
f 169 149 168
f 168 149 154
f 89 87 102
f 102 95 89
f 185 173 169
f 228 262 181
f 157 146 139
f 414 369 415
f 367 369 414
f 370 371 415
f 415 369 370
f 370 338 371
f 433 447 446
f 467 466 446
f 446 447 467
f 223 416 257
f 303 258 257
f 551 544 533
f 468 494 467
f 467 447 468
f 468 447 448
f 460 440 416
f 448 440 460
f 469 468 460
f 460 468 448
f 514 494 505
f 505 521 514
f 533 521 505
f 505 551 533
f 505 460 416
f 514 521 527
f 527 521 533
f 527 544 524
f 533 544 527
f 212 269 271
f 271 215 212
f 272 215 271
f 212 215 165
f 567 519 525
f 525 519 523
f 565 519 567
f 567 551 565
f 216 215 272
f 40 48 23
f 23 27 40
f 88 64 70
f 33 2 1
f 23 4 6
f 6 8 23
f 6 5 8
f 6 4 3
f 3 5 6
f 131 125 199
f 10 7 23
f 26 10 23
f 15 10 26
f 23 24 26
f 51 74 47
f 57 74 51
f 57 51 22
f 591 589 590
f 567 586 587
f 587 586 588
f 588 590 587
f 587 590 589
f 552 581 579
f 579 549 552
f 552 470 397
f 464 470 552
f 546 549 542
f 464 552 546
f 546 552 549
f 542 528 539
f 464 546 539
f 539 546 542
f 464 539 526
f 526 539 528
f 473 475 474
f 436 443 473
f 473 443 475
f 474 475 477
f 475 484 477
f 80 192 193
f 561 520 547
f 561 585 591
f 544 551 568
f 148 162 182
f 182 168 148
f 148 147 162
f 127 147 148
f 72 89 78
f 78 74 72
f 72 74 55
f 55 74 62
f 62 22 55
f 62 74 60
f 60 74 57
f 60 22 62
f 57 22 60
f 108 104 115
f 87 104 108
f 108 102 87
f 219 252 234
f 173 185 211
f 182 162 229
f 162 181 229
f 229 181 262
f 262 231 229
f 228 181 180
f 367 414 413
f 336 307 302
f 336 370 369
f 338 370 336
f 367 307 336
f 336 369 367
f 434 447 433
f 433 413 434
f 434 413 414
f 448 447 434
f 442 466 459
f 522 507 524
f 522 520 517
f 538 520 522
f 524 507 511
f 511 527 524
f 514 527 511
f 517 520 518
f 520 561 518
f 490 511 507
f 459 466 490
f 433 446 412
f 329 416 371
f 329 257 416
f 303 257 329
f 329 338 303
f 371 338 329
f 435 414 415
f 435 434 414
f 435 440 448
f 448 434 435
f 491 505 494
f 491 468 469
f 494 468 491
f 469 460 491
f 460 505 491
f 212 165 164
f 163 175 164
f 210 269 212
f 212 164 210
f 210 164 175
f 269 210 268
f 268 210 236
f 88 113 111
f 90 113 88
f 471 565 551
f 471 505 416
f 551 505 471
f 564 570 563
f 542 570 564
f 528 531 510
f 510 526 528
f 542 549 575
f 575 570 542
f 23 48 53
f 53 63 23
f 48 63 53
f 68 75 23
f 23 63 68
f 68 63 75
f 59 63 48
f 23 12 19
f 19 27 23
f 19 17 27
f 48 40 46
f 46 40 27
f 46 59 48
f 13 11 45
f 45 125 131
f 17 45 54
f 118 75 96
f 96 93 118
f 75 63 71
f 71 96 75
f 93 96 71
f 63 59 71
f 82 64 88
f 88 111 82
f 111 106 82
f 2 33 34
f 3 2 34
f 36 5 34
f 34 5 3
f 47 74 31
f 391 515 556
f 391 390 515
f 373 362 331
f 217 192 191
f 200 201 131
f 131 199 200
f 198 199 125
f 125 45 198
f 141 203 204
f 113 90 141
f 407 473 474
f 353 296 352
f 43 15 47
f 43 10 15
f 61 50 38
f 24 61 38
f 38 26 24
f 20 51 47
f 20 22 51
f 47 15 20
f 20 55 22
f 584 581 553
f 581 552 553
f 556 584 553
f 553 394 556
f 464 526 462
f 410 421 409
f 192 248 245
f 245 193 192
f 245 248 293
f 189 188 213
f 550 561 547
f 547 577 550
f 550 577 582
f 582 585 583
f 583 561 582
f 585 561 583
f 559 557 516
f 588 557 559
f 559 590 588
f 524 544 540
f 540 522 524
f 538 522 540
f 566 551 567
f 566 568 551
f 582 577 566
f 566 585 582
f 591 585 566
f 566 589 591
f 567 587 566
f 566 587 589
f 454 443 404
f 404 403 454
f 404 443 436
f 154 149 132
f 132 135 154
f 115 104 132
f 104 135 132
f 127 100 126
f 126 147 127
f 146 147 126
f 128 139 126
f 139 146 126
f 103 100 127
f 105 139 128
f 128 126 105
f 105 126 100
f 105 157 139
f 223 157 105
f 105 61 24
f 105 416 223
f 105 471 416
f 24 118 105
f 565 471 105
f 61 105 76
f 158 156 142
f 129 168 154
f 129 148 168
f 154 135 129
f 129 135 104
f 127 148 129
f 129 103 127
f 104 103 129
f 89 95 77
f 77 78 89
f 74 78 77
f 77 34 33
f 77 31 74
f 52 69 72
f 72 55 52
f 52 50 69
f 52 21 50
f 55 20 52
f 52 20 21
f 80 95 86
f 189 190 86
f 86 191 80
f 86 190 191
f 299 282 244
f 282 240 244
f 187 218 235
f 235 188 187
f 235 213 188
f 235 250 189
f 189 213 235
f 304 301 279
f 316 301 304
f 316 342 330
f 277 279 252
f 304 279 277
f 276 277 246
f 246 277 252
f 246 252 219
f 219 211 246
f 183 231 185
f 183 168 182
f 182 229 183
f 183 229 231
f 169 168 183
f 183 185 169
f 264 231 262
f 264 262 305
f 226 260 228
f 228 180 226
f 162 147 161
f 161 181 162
f 161 180 181
f 161 147 146
f 306 336 302
f 338 336 306
f 303 338 306
f 306 258 303
f 302 260 306
f 260 258 306
f 427 446 466
f 466 442 427
f 427 412 446
f 411 412 427
f 425 411 427
f 427 445 425
f 442 445 427
f 499 518 516
f 516 515 499
f 480 490 487
f 507 493 487
f 487 490 507
f 511 490 492
f 492 494 514
f 514 511 492
f 467 494 492
f 492 466 467
f 492 490 466
f 367 413 334
f 305 367 334
f 411 364 366
f 366 412 411
f 366 334 413
f 364 334 366
f 366 413 433
f 433 412 366
f 416 440 422
f 440 435 422
f 415 416 422
f 422 435 415
f 523 519 500
f 272 271 323
f 323 216 272
f 137 164 165
f 107 106 137
f 166 165 215
f 215 216 166
f 144 216 118
f 109 143 112
f 118 93 112
f 112 144 118
f 143 144 112
f 327 268 289
f 327 359 385
f 289 268 267
f 267 268 236
f 119 111 113
f 113 121 119
f 119 106 111
f 535 525 523
f 523 541 535
f 567 525 535
f 535 541 567
f 529 541 523
f 567 541 548
f 554 531 528
f 578 549 579
f 578 575 549
f 579 580 578
f 570 575 573
f 567 563 573
f 563 570 573
f 575 578 573
f 573 580 567
f 573 578 580
f 109 112 85
f 85 112 93
f 17 19 14
f 13 45 14
f 14 45 17
f 14 12 13
f 14 19 12
f 56 70 64
f 42 11 8
f 42 45 11
f 80 193 42
f 27 17 28
f 17 54 28
f 28 46 27
f 70 54 58
f 30 31 1
f 1 7 30
f 30 7 29
f 47 31 30
f 30 43 47
f 32 33 1
f 1 31 32
f 32 77 33
f 31 77 32
f 255 240 282
f 218 240 255
f 255 235 218
f 373 344 381
f 344 394 381
f 392 391 556
f 392 350 391
f 378 391 343
f 390 391 378
f 444 421 438
f 465 476 388
f 388 453 465
f 293 344 339
f 339 331 293
f 339 344 373
f 373 331 339
f 348 344 293
f 293 350 348
f 350 392 348
f 343 391 347
f 391 350 347
f 293 343 347
f 347 350 293
f 293 265 256
f 256 251 293
f 197 198 45
f 45 42 197
f 113 141 153
f 153 121 113
f 153 159 124
f 124 121 153
f 134 141 90
f 131 201 134
f 201 202 134
f 203 141 134
f 134 202 203
f 356 362 397
f 356 331 362
f 199 198 233
f 233 256 265
f 224 200 199
f 201 200 224
f 419 431 385
f 417 407 406
f 473 407 417
f 406 424 417
f 417 424 473
f 249 295 296
f 406 407 365
f 365 352 406
f 353 352 365
f 407 419 365
f 296 295 346
f 346 352 296
f 163 124 208
f 208 175 163
f 208 230 175
f 37 30 29
f 25 38 50
f 50 21 25
f 26 38 25
f 25 21 26
f 16 20 15
f 15 26 16
f 396 552 397
f 396 553 552
f 397 373 396
f 373 381 396
f 526 510 506
f 506 462 526
f 454 462 506
f 498 454 506
f 506 510 498
f 454 403 402
f 402 462 454
f 403 363 402
f 426 424 406
f 436 473 426
f 473 424 426
f 299 330 351
f 293 251 247
f 247 245 293
f 193 245 247
f 293 248 253
f 253 248 192
f 192 217 253
f 237 190 189
f 189 250 237
f 582 561 555
f 555 550 582
f 561 550 555
f 516 518 560
f 560 559 516
f 560 518 561
f 560 561 591
f 591 590 560
f 590 559 560
f 532 520 538
f 538 569 532
f 538 540 572
f 572 569 538
f 572 577 547
f 374 346 341
f 403 404 375
f 375 363 403
f 375 374 341
f 404 374 375
f 333 375 341
f 363 375 333
f 333 357 363
f 133 132 149
f 142 122 133
f 84 104 87
f 84 103 104
f 84 87 69
f 114 108 115
f 114 133 122
f 95 102 114
f 102 108 114
f 115 132 114
f 132 133 114
f 99 86 95
f 95 114 99
f 150 156 151
f 142 156 150
f 79 95 80
f 79 77 95
f 36 34 79
f 34 77 79
f 176 158 173
f 176 211 219
f 173 211 176
f 219 234 176
f 234 184 176
f 156 158 171
f 158 176 171
f 171 176 184
f 186 184 234
f 234 244 186
f 186 244 240
f 299 244 266
f 252 279 266
f 266 234 252
f 266 244 234
f 231 264 241
f 185 231 241
f 276 246 241
f 241 264 276
f 241 211 185
f 241 246 211
f 223 257 225
f 225 257 258
f 225 258 260
f 260 226 225
f 146 157 160
f 160 161 146
f 180 161 160
f 517 518 504
f 518 499 504
f 504 499 493
f 504 493 507
f 504 522 517
f 507 522 504
f 476 465 479
f 342 316 318
f 318 316 304
f 332 334 364
f 305 334 332
f 408 411 425
f 408 364 411
f 523 500 502
f 483 509 502
f 502 529 523
f 509 529 502
f 498 510 513
f 513 510 531
f 386 359 353
f 385 359 386
f 353 365 386
f 386 419 385
f 386 365 419
f 138 137 165
f 165 166 138
f 138 166 143
f 138 143 109
f 138 109 107
f 107 137 138
f 163 164 136
f 164 137 136
f 136 137 106
f 143 166 167
f 167 144 143
f 167 166 216
f 216 144 167
f 328 327 289
f 353 359 328
f 359 327 328
f 289 267 297
f 297 328 289
f 297 296 353
f 353 328 297
f 123 119 121
f 106 119 123
f 123 121 124
f 123 136 106
f 123 124 163
f 541 529 545
f 531 554 545
f 563 548 545
f 545 548 541
f 562 563 567
f 567 548 562
f 562 548 563
f 558 554 528
f 558 528 542
f 542 564 558
f 558 564 563
f 563 545 558
f 558 545 554
f 65 56 64
f 59 46 65
f 46 56 65
f 41 42 8
f 41 5 36
f 8 5 41
f 36 79 41
f 80 42 41
f 41 79 80
f 195 42 194
f 194 42 193
f 193 247 194
f 194 251 195
f 194 247 251
f 44 54 70
f 44 28 54
f 70 56 44
f 44 56 46
f 46 28 44
f 73 58 131
f 70 58 73
f 131 134 73
f 73 134 90
f 88 70 73
f 73 90 88
f 49 54 45
f 49 58 54
f 49 45 131
f 131 58 49
f 508 499 515
f 515 390 508
f 390 389 508
f 313 282 299
f 299 351 313
f 556 394 393
f 393 392 556
f 393 348 392
f 393 394 344
f 344 348 393
f 387 377 421
f 421 444 387
f 388 377 387
f 387 453 388
f 387 444 453
f 196 42 195
f 196 197 42
f 205 141 204
f 205 153 141
f 205 220 221
f 204 220 205
f 159 153 205
f 232 263 220
f 204 203 232
f 232 220 204
f 203 202 232
f 232 202 201
f 331 356 320
f 293 331 320
f 320 356 335
f 281 285 261
f 293 285 281
f 293 310 291
f 291 285 293
f 310 294 291
f 291 294 285
f 261 285 280
f 285 294 280
f 239 233 265
f 239 281 261
f 261 224 239
f 199 233 239
f 239 224 199
f 256 233 222
f 198 197 222
f 222 233 198
f 261 280 274
f 292 263 274
f 274 294 292
f 274 280 294
f 430 456 429
f 429 380 430
f 431 419 432
f 432 407 474
f 432 419 407
f 243 249 296
f 295 249 290
f 341 346 290
f 290 346 295
f 290 333 341
f 177 208 124
f 236 210 209
f 175 230 209
f 209 210 175
f 29 7 35
f 35 37 29
f 7 37 35
f 43 30 39
f 30 37 39
f 10 43 39
f 7 10 9
f 9 37 7
f 10 39 9
f 9 39 37
f 21 20 18
f 20 16 18
f 26 21 18
f 18 16 26
f 394 553 395
f 553 396 395
f 395 381 394
f 395 396 381
f 397 464 398
f 464 399 398
f 464 462 400
f 400 399 464
f 363 357 400
f 421 410 423
f 438 421 423
f 423 451 438
f 423 437 451
f 420 408 425
f 384 408 420
f 361 410 409
f 409 351 361
f 361 351 330
f 330 342 361
f 342 376 361
f 259 270 293
f 293 253 259
f 259 237 270
f 259 253 217
f 577 572 576
f 576 566 577
f 346 374 405
f 406 352 405
f 352 346 405
f 436 426 405
f 405 426 406
f 405 404 436
f 405 374 404
f 335 357 315
f 310 335 315
f 315 294 310
f 335 356 372
f 372 357 335
f 372 356 397
f 397 398 372
f 372 398 399
f 399 400 372
f 372 400 357
f 321 333 292
f 357 333 321
f 321 315 357
f 292 294 321
f 294 315 321
f 155 133 149
f 173 158 155
f 155 158 142
f 142 133 155
f 155 149 169
f 169 173 155
f 67 84 69
f 61 76 67
f 69 50 67
f 67 50 61
f 91 105 100
f 91 76 105
f 116 114 122
f 116 99 114
f 156 171 172
f 218 152 172
f 151 156 172
f 172 152 151
f 172 240 218
f 172 186 240
f 172 171 184
f 184 186 172
f 299 266 288
f 288 266 279
f 288 279 301
f 288 330 299
f 288 316 330
f 301 316 288
f 174 160 157
f 174 157 223
f 223 178 174
f 180 160 179
f 179 174 178
f 160 174 179
f 179 226 180
f 179 225 226
f 179 178 223
f 223 225 179
f 459 490 463
f 463 490 480
f 463 461 445
f 463 442 459
f 463 445 442
f 445 461 439
f 437 420 439
f 451 437 439
f 439 461 451
f 425 445 439
f 439 420 425
f 388 476 486
f 486 382 388
f 486 496 382
f 499 508 495
f 496 486 495
f 476 479 495
f 495 486 476
f 455 479 465
f 455 444 438
f 453 444 455
f 455 465 453
f 481 463 480
f 461 463 481
f 480 487 481
f 499 495 481
f 481 495 479
f 493 499 481
f 481 487 493
f 305 332 300
f 300 332 319
f 300 318 304
f 319 318 300
f 300 264 305
f 276 264 300
f 304 277 300
f 300 277 276
f 354 408 384
f 364 408 354
f 354 332 364
f 319 332 354
f 452 428 429
f 429 456 452
f 449 452 483
f 428 452 449
f 512 513 531
f 456 488 485
f 483 452 485
f 485 452 456
f 485 509 483
f 485 512 509
f 488 512 485
f 431 432 458
f 429 428 379
f 379 380 429
f 379 428 323
f 323 380 379
f 324 323 271
f 324 380 323
f 163 136 145
f 145 123 163
f 136 123 145
f 531 545 530
f 530 545 529
f 530 512 531
f 530 529 509
f 509 512 530
f 64 82 83
f 83 65 64
f 85 65 83
f 83 106 107
f 83 82 106
f 107 109 83
f 109 85 83
f 66 65 85
f 93 71 66
f 66 85 93
f 66 71 59
f 59 65 66
f 368 389 390
f 368 358 389
f 390 378 368
f 368 378 343
f 293 270 278
f 278 237 250
f 270 237 278
f 382 389 360
f 388 382 360
f 360 377 388
f 201 224 238
f 238 232 201
f 238 224 261
f 261 274 238
f 263 232 238
f 238 274 263
f 314 335 310
f 314 320 335
f 314 310 293
f 293 320 314
f 275 239 265
f 281 239 275
f 275 265 293
f 293 281 275
f 251 256 214
f 256 222 214
f 195 251 214
f 214 196 195
f 197 196 214
f 214 222 197
f 383 430 380
f 380 324 383
f 385 431 383
f 431 430 383
f 296 297 242
f 242 243 296
f 230 243 242
f 236 209 242
f 242 209 230
f 242 267 236
f 242 297 267
f 254 290 249
f 221 220 254
f 254 249 221
f 220 263 254
f 263 290 254
f 298 290 263
f 333 290 298
f 298 263 292
f 292 333 298
f 124 159 170
f 170 177 124
f 208 177 207
f 230 208 207
f 207 243 230
f 177 170 207
f 462 402 401
f 401 400 462
f 401 402 363
f 363 400 401
f 418 420 437
f 418 423 410
f 437 423 418
f 410 361 418
f 418 361 376
f 418 376 384
f 384 420 418
f 227 259 217
f 237 259 227
f 227 217 191
f 191 190 227
f 190 237 227
f 543 537 569
f 543 572 547
f 569 572 543
f 547 520 543
f 520 537 543
f 534 532 569
f 520 532 534
f 568 566 571
f 571 572 540
f 544 568 571
f 571 540 544
f 81 67 76
f 84 67 81
f 76 91 81
f 81 91 100
f 100 103 81
f 103 84 81
f 97 94 99
f 187 188 97
f 188 94 97
f 86 99 92
f 99 94 92
f 189 86 92
f 92 188 189
f 92 94 188
f 140 116 122
f 140 150 151
f 140 122 142
f 142 150 140
f 151 152 140
f 140 152 218
f 438 451 441
f 441 455 438
f 451 455 441
f 472 455 451
f 479 455 472
f 451 461 472
f 461 481 472
f 472 481 479
f 349 354 384
f 349 376 342
f 384 376 349
f 342 318 349
f 349 318 319
f 319 354 349
f 428 449 478
f 478 500 519
f 478 449 483
f 323 428 478
f 483 502 478
f 478 502 500
f 519 565 478
f 118 216 478
f 216 323 478
f 478 105 118
f 565 105 478
f 489 458 474
f 474 477 489
f 489 477 484
f 489 484 498
f 498 513 489
f 513 512 489
f 489 512 488
f 457 488 456
f 431 458 457
f 457 489 488
f 458 489 457
f 456 430 457
f 457 430 431
f 450 432 474
f 474 458 450
f 450 458 432
f 326 271 269
f 326 324 271
f 269 268 326
f 268 327 326
f 326 383 324
f 326 327 385
f 385 383 326
f 337 368 343
f 337 343 293
f 389 358 345
f 345 360 389
f 377 360 355
f 409 421 355
f 421 377 355
f 355 351 409
f 355 313 351
f 206 170 159
f 206 207 170
f 206 205 221
f 159 205 206
f 221 249 206
f 249 243 206
f 243 207 206
f 569 537 536
f 536 534 569
f 536 537 520
f 520 534 536
f 566 576 574
f 574 571 566
f 574 576 572
f 572 571 574
f 98 99 101
f 98 97 99
f 98 101 187
f 187 97 98
f 99 116 120
f 496 495 497
f 495 501 497
f 382 496 497
f 497 501 382
f 503 495 508
f 503 501 495
f 503 508 389
f 503 389 382
f 382 501 503
f 358 368 325
f 368 337 325
f 325 345 358
f 325 337 293
f 284 255 282
f 282 313 284
f 313 311 284
f 313 355 340
f 340 311 313
f 340 355 360
f 360 345 340
f 116 140 130
f 130 120 116
f 130 140 218
f 130 218 187
f 187 120 130
f 101 99 110
f 187 101 110
f 293 278 283
f 283 287 293
f 308 312 293
f 293 287 308
f 312 345 317
f 345 325 317
f 293 312 317
f 317 325 293
f 255 284 286
f 286 284 311
f 286 308 287
f 99 120 117
f 117 110 99
f 117 120 187
f 187 110 117
f 255 286 273
f 250 235 273
f 235 255 273
f 273 278 250
f 273 283 278
f 287 283 273
f 273 286 287
f 311 340 309
f 309 286 311
f 312 308 309
f 308 286 309
f 322 340 345
f 322 309 340
f 322 345 312
f 312 309 322
