v -0.009577617049 -2.292762019e-06 0.0001618021197
v -0.009534306824 -7.175264909e-05 -0.005148672033
v -0.009508380666 0.0009791016346 0.0001119505177
v -0.009507853538 -0.0009836518439 0.0001119438457
v -0.009503791109 0.0007003145874 -0.005135294516
v -0.009481161833 -0.0009245357942 -0.005125952885
v -0.009454249404 -0.001017426606 0.002904759487
v -0.009389526211 0.001530807582 -0.005086085293
v -0.009337940253 -0.00178525364 -0.005064685829
v -0.009328187443 -0.001920666895 -0.002777023241
v -0.009312135167 0.001945985248 -1.73441058e-05
v -0.00931108743 -0.001950431266 -1.734008038e-05
v -0.00930390471 -0.0001048605353 0.01331163055
v -0.009303819081 -0.0001280870623 0.01331163055
v -0.009303376125 -0.0001674700816 0.01331163055
v -0.009301360551 -0.0002461897574 0.01331163055
v -0.009292822535 -0.0004033912761 0.01331163055
v -0.009281729913 0.0003194330527 0.01331163055
v -0.009258350212 -0.0009054088886 0.01331163055
v -0.009248016556 0.0007902703342 0.01331163055
v -0.009233928286 0.002011022763 0.002718285192
v -0.009227268865 -0.001181981854 0.01331163055
v -0.009222519934 0.0009873754575 0.01331163055
v -0.009215698796 -0.001253571542 0.01331163055
v -0.00918560941 -0.001408787406 0.01331163055
v -0.0091789281 0.002407327062 -0.004994845949
v -0.009177271787 0.001229909862 0.01331163055
v -0.00914378278 -0.00252416241 -0.004980043508
v -0.009082762405 0.001689142435 0.01331163055
v -0.009082051854 -0.001902855611 0.01331163055
v -0.009046671912 0.002842799993 -0.002899621613
v -0.009045204559 0.001846146606 0.01331163055
v -0.009045141749 -0.002847101307 -0.002899620216
v -0.009040979668 0.002838178305 -0.004933828954
v -0.00903280374 0.001891429277 0.01331163055
v -0.00900686346 0.002883814508 -0.0001956284832
v -0.009005313739 -0.002888092306 -0.0001956381166
v -0.008990712469 -0.00225085971 0.01331163055
v -0.008982095783 -0.002278384247 0.01331163055
v -0.008981854308 0.002069357093 0.01331163055
v -0.008870490827 0.00329131051 -0.004857450258
v -0.008843710947 0.002483614348 0.01331163055
v -0.008837624259 -0.002717166603 0.01331163055
v -0.00883612968 -0.003374687396 -0.004842743743
v -0.008727773441 0.002806634333 0.01331163055
v -0.008674284443 0.003730165539 -0.003031277331
v -0.008672277443 -0.00373426429 -0.00303126825
v -0.00865546556 0.002973649124 0.01331163055
v -0.008631232988 -0.003243481137 0.01331163055
v -0.008610562421 0.003778032959 -0.0003925217025
v -0.008608529344 -0.003782099811 -0.0003925224009
v -0.008527033962 0.004042543471 -0.004699743353
v -0.008473926385 0.003378641564 0.01331163055
v -0.008463416332 -0.003618928375 0.01331163055
v -0.008451412219 0.003426780661 0.01331163055
v -0.008449879115 -0.003648891753 0.01331163055
v -0.008446780965 -0.004196035676 -0.004663366824
v -0.008259445537 0.003784189818 0.01331163055
v -0.008225487545 0.004565216601 -0.003148900578
v -0.008223031648 -0.004569078796 -0.003148897318
v -0.008187517664 -0.00412710283 0.01331163055
v -0.008141212165 0.004614100326 -0.0005775714526
v -0.008086985908 0.004813702777 -0.004490994383
v -0.008052638663 0.004148933099 0.01331163055
v -0.008003795829 -0.004461729669 0.01331163055
v -0.007992767749 -0.004479081044 0.01331163055
v -0.007971569896 -0.004990934394 -0.004437550902
v -0.007965952439 0.004280234617 0.01331163055
v -0.007892428493 -0.004633528122 0.01331163055
v -0.007793113722 -0.004778161132 0.01331163055
v -0.007790005034 0.004536870003 0.01331163055
v -0.007713710889 0.005334877409 -0.003229417605
v -0.00771084195 -0.00533846207 -0.003229408758
v -0.007639941362 -0.004996369909 0.01331163055
v -0.007616804913 0.005377461668 -0.0007203824352
v -0.007597174961 0.005513000768 -0.00424979534
v -0.007570497681 0.004853883787 0.01331163055
v -0.007552161229 -0.005119399578 0.01331163055
v -0.007470473738 0.004974587905 0.01331163055
v -0.007469084114 -0.005674685352 -0.004184945952
v -0.007461961996 -0.005235712018 0.01331163055
v -0.007271767253 -0.005461432976 0.01331163055
v -0.007241206434 0.005249483432 0.01331163055
v -0.007162882536 -0.005590258398 0.01331163055
v -0.007158325571 0.00534649638 0.01331163055
v -0.007152390201 0.006026051007 -0.003249749076
v -0.007149149198 -0.006029335316 -0.003249748144
v -0.007107194979 0.006094077602 -0.00399540225
v -0.007086464519 -0.005671823632 0.01331163055
v -0.007068911251 0.005437400792 0.01331163055
v -0.007055328693 0.006053572055 -0.0007905157399
v -0.007033998289 -0.005727032387 0.01331163055
v -0.00697678867 0.005528396006 0.01331163055
v -0.006925957743 -0.006284198724 -0.003899010597
v -0.006910464531 -0.005846600267 0.01331163055
v -0.006867717486 0.00614658324 0.00149740011
v -0.006860598429 -0.00589387129 0.01331163055
v -0.006809761374 0.005692522199 0.01331163055
v -0.006785066231 -0.005958973821 0.01331163055
v -0.006784871569 0.005716511649 0.01331163055
v -0.006676873468 -0.006044780788 0.01331163055
v -0.006623270876 0.005859552604 0.01331163055
v -0.006599473227 -0.006106061078 0.01331163055
v -0.006563331932 0.006630442105 -0.00370039558
v -0.00655976776 -0.006633409765 -0.003700400237
v -0.006526570998 -0.006161421976 0.01331163055
v -0.006514004776 0.005951189424 0.01331163055
v -0.006474455051 -0.00619850311 0.01331163055
v -0.006429825909 0.006640389096 2.885827962e-05
v -0.006425574888 -0.006643499713 3.937240035e-05
v -0.006417797878 0.006756892428 -0.003618694143
v -0.006386072375 0.006655471399 0.0006474346155
v -0.006245468263 -0.006352277943 0.01331163055
v -0.006121328101 0.00676618889 0.003319212701
v -0.005999913905 -0.007084024604 -0.003381106304
v -0.005965522025 0.006834974978 0.004592378624
v -0.005945880704 -0.006544203844 0.01331163055
v -0.005864992272 0.007131533697 -0.001399029046
v -0.005861157551 -0.007134124171 -0.001399019733
v -0.005830371075 0.006511351475 0.01331163055
v -0.005788824055 0.007119583897 0.0007986325072
v -0.005785843357 0.007232967298 -0.003250977257
v -0.00578499632 -0.00712213479 0.0007986265118
v -0.005679775386 -0.006711400472 0.01331163055
v -0.005668307655 0.006957447156 0.007019484881
v -0.00551000284 0.007163553499 0.004695091397
v -0.005506151821 -0.007165953983 0.004695103038
v -0.005454299971 0.007014360745 0.00937936455
v -0.005450529046 -0.00701672677 0.009379366413
v -0.005403707735 0.007010436617 0.01031099632
v -0.005387553945 -0.007479852531 -0.003009756561
v -0.00536170369 -0.00699195452 0.011343983
v -0.005342744478 -0.006887394424 0.01331163055
v -0.005328359447 0.006900933618 0.01331163055
v -0.005300899663 0.006915784486 0.01331163055
v -0.005268144441 0.006933243034 0.01331163055
v -0.005227987189 0.007189001422 0.008336578496
v -0.005224123131 -0.007191249169 0.008336570114
v -0.005174071324 0.006967316152 0.01331163055
v -0.005170326229 -0.00696953586 0.01331163055
v -0.005155016668 0.007607440464 -0.002861961955
v -0.005151476711 0.007503183093 0.001034889719
v -0.00514837075 0.007153091021 0.01021988224
v -0.005147445016 -0.007505388465 0.001034877147
v -0.005144525785 -0.007155295461 0.01021987945
v -0.005110509694 0.007074845023 0.01217046939
v -0.005106707104 -0.007077033166 0.01217047218
v -0.00508403609 0.006999456224 0.01331163055
v -0.005080273716 -0.007001628834 0.01331163055
v -0.005016557407 0.007435234729 0.004880950321
v -0.005012559239 -0.007437366061 0.004880951252
v -0.004887434735 0.007069393299 0.01331163055
v -0.004883634367 -0.007071456578 0.01331163055
v -0.004878030159 0.007345057093 0.008468103595
v -0.004874080885 -0.007347116712 0.00846811384
v -0.004838006571 0.007164289709 0.0122712953
v -0.004834155086 -0.007166326512 0.0122712953
v -0.004734907299 -0.007810558658 -0.002589513315
v -0.00448688725 0.007915188558 -0.002416794188
v -0.004451499786 0.007822383195 0.0013363912
v -0.004447294399 -0.007824211381 0.001336389803
v -0.004430181347 0.007680365816 0.005128872581
v -0.00442605326 -0.007682189811 0.005128873978
v -0.00441375142 -0.007944297045 -0.002370512811
v -0.004097080239 0.007305173734 0.01331163055
v -0.004093151786 -0.007306814222 0.01331163055
v -0.004043353874 0.007320676467 0.01331163055
v -0.004039417108 -0.007322288668 0.01331163055
v -0.004007715732 -0.008089650422 -0.002080058213
v -0.003872269532 0.007424444426 0.01263402961
v -0.00386827765 -0.007425963879 0.0126340352
v -0.003866762487 0.007367736027 0.01331163055
v -0.003862801218 -0.007369252431 0.01331163055
v -0.003812532406 0.007679450326 0.008896393701
v -0.003808404552 -0.007680938113 0.008896400221
v -0.003801489016 0.008153998293 -0.001921535819
v -0.003757108003 0.0078944657 0.005426186603
v -0.003752863966 -0.007895921357 0.005426186137
v -0.003691616235 0.00807888899 0.001687388401
v -0.003687274177 -0.008080312051 0.001687380369
v -0.003248339053 -0.008299749345 -0.001494757482
v -0.003108683042 0.008330428042 -0.001376304775
v -0.003026538063 -0.008347681724 -0.001311317668
v -0.002561426947 0.007657688598 0.01331163055
v -0.002557308787 -0.007658506015 0.01331163055
v -0.002518557943 -0.008437153883 -0.0008644482004
v -0.002490376002 0.007672341824 0.01331163055
v -0.002488973783 0.007689188235 0.01313143689
v -0.002486251454 -0.007673120935 0.01331163055
v -0.002484840108 -0.007689966355 0.01313144062
v -0.002364043146 0.007963345386 0.009470205754
v -0.002359762555 -0.007964055985 0.009470197372
v -0.002315134276 0.008465488441 -0.0006694030599
v -0.002297472882 0.007695665496 0.01331163055
v -0.002293339615 -0.007696340302 0.01331163055
v -0.002194977133 0.008204799145 0.006111022551
v -0.002190566389 -0.008205416612 0.006111024879
v -0.002010914264 0.008407825604 0.002471959917
v -0.002006396186 -0.008408347145 0.002471951535
v -0.001943691382 0.007734768198 0.01331163055
v -0.001939537917 -0.007735250813 0.01331163055
v -0.001891898923 0.008512126282 -0.0002467145096
v -0.001891233958 -0.008512243629 -0.0002515170781
v -0.00181272591 -0.008519091643 -0.0001689548371
v -0.001700986177 -0.00852789171 -4.871715646e-05
v -0.001644384465 0.008531902917 1.939365939e-05
v -0.001211168244 -0.008553707041 0.0005235067219
v -0.001088678837 -0.007699902169 -0.003588499734
v -0.001054614433 0.008557723835 0.0007310719811
v -0.001014944945 0.007834261871 0.01331163055
v -0.001010732661 -0.007834242085 0.01331163055
v -0.0008743184081 0.007849323709 0.01331163055
v -0.0008700994691 -0.007849228629 0.01331163055
v -0.0007750701625 0.007991278544 0.0114676496
v -0.0007707753684 -0.00799113512 0.01146764401
v -0.0006750136381 -0.008558477275 0.001261734404
v -0.0006738621742 0.008558599278 0.001270341454
v -0.0006205227982 -0.007841529333 0.01331163055
v -0.0005236972356 0.008555413224 0.001506684814
v -0.0005142772874 0.007844844934 0.01331163055
v -0.0005031243199 0.007280036341 -0.00371609116
v -0.0004609544121 -0.007676834706 -0.003721566405
v -0.0003080486204 0.008394678123 0.005471867975
v -0.0003035355476 -0.008394282311 0.005471876822
v -0.000201032206 -0.008540969342 0.002068609465
v -0.0001469382696 0.008497994393 0.003256758908
v -8.783192607e-05 0.00853341911 0.002304719994
v -8.324566443e-05 -0.00853290502 0.002304721158
v -1.64825924e-05 0.008527600206 0.0024607745
v -1.189754494e-05 -0.008527040482 0.002460785676
v 5.412065366e-05 0.008521362208 0.002616722137
v 5.870083987e-05 -0.008520770818 0.002616719808
v 0.0001233526564 0.00720764976 -0.003747964511
v 0.0001327561185 -0.007606152445 -0.003747646464
v 0.0001496919942 0.007824458989 0.01331163055
v 0.0005277459408 0.007797355701 0.01331163055
v 0.000531935236 -0.007796509524 0.01331163055
v 0.0006754890201 0.007934642956 0.0116288187
v 0.0006791299093 -0.007497953717 -0.003687998746
v 0.0006797530223 -0.00793371629 0.01162881404
v 0.0006875536055 0.008502722718 0.002617625752
v 0.0007403219934 0.002999999793 -0.003676202614
v 0.0007403222262 0.007083184086 -0.003676194698
v 0.0008628738395 0.00774490745 0.01331163055
v 0.001009591389 0.008148147725 0.008567292243
v 0.001013970352 -0.008147044107 0.008567289449
v 0.001206532121 -0.007352488581 -0.003550606081
v 0.001264005201 -0.008463421836 0.002618949395
v 0.00133986643 -0.003600001568 -0.003502470441
v 0.001339867013 -0.007309044711 -0.00350246625
v 0.001344881486 0.006907358766 -0.003500541206
v 0.001350782695 0.008322126232 0.005454238039
v 0.001355255605 -0.008320841007 0.005454243626
v 0.001414877175 -0.007639935758 0.01331163055
v 0.001537683737 0.007626788689 0.01331163055
v 0.001590116764 0.008433429524 0.002620327519
v 0.00159496488 -0.00843163766 0.002620151965
v 0.001730659887 0.007590433968 0.01331163055
v 0.001901783398 -0.007094706874 -0.003231990384
v 0.001902287593 0.003000000026 -0.003231684677
v 0.00190228771 0.006694491021 -0.003231688403
v 0.002011781591 0.00752126601 0.01331163055
v 0.002015823497 -0.007519621155 0.01331163055
v 0.002182528842 0.007625069469 0.01207332965
v 0.002186626196 -0.007623332553 0.01207332779
v 0.002337929094 0.008319780231 0.002411892172
v 0.002340025967 0.008333769627 0.00262382417
v 0.00236875983 0.006475485861 -0.00290714018
v 0.002402417595 -0.006858137902 -0.002879387699
v 0.002517064023 0.007366515924 0.01331163055
v 0.00252102207 -0.007364601105 0.01331163055
v 0.002640000777 0.007830749266 0.0090555856
v 0.002644209424 -0.007828767411 0.009055586532
v 0.002751610644 0.007285501176 0.01331163055
v 0.002753790002 -0.00666383747 -0.002545412397
v 0.002755524933 -0.007283460055 0.01331163055
v 0.002893291879 -0.008218194358 0.002415224211
v 0.002895819489 -0.008231478743 0.002626973437
v 0.002922902815 0.007372498978 0.01227815822
v 0.002926864428 -0.007370366715 0.01227815356
v 0.003075485583 0.007996038534 0.005952361971
v 0.003079781774 -0.00799382478 0.005952359643
v 0.003293775443 0.007065078188 0.01331163055
v 0.003297576371 -0.007062743795 0.01331163055
v 0.003408308141 0.008117979392 0.002630490344
v 0.003443202702 0.007573683746 0.009277157485
v 0.003447271883 -0.007571271621 0.009277150966
v 0.003483623818 0.006978663154 0.01331163055
v 0.003487376952 -0.006976228758 0.01331163055
v 0.003646858735 0.007048982661 0.01247071009
v 0.003650648054 -0.007046458311 0.0124707222
v 0.00392424548 0.007735056337 0.00617178157
v 0.003928401973 -0.007732389029 0.006171779707
v 0.003947674762 0.007908724248 0.002236119471
v 0.003961413633 0.007955815643 0.002421334153
v 0.003964743111 0.007967659272 0.002634635195
v 0.003965715878 -0.00795321539 0.002421919955
v 0.003969024867 -0.007964968681 0.002634638688
v 0.004054424604 0.006681329356 0.01331163055
v 0.004058013689 -0.006678590803 0.01331163055
v 0.004161401186 0.007897153497 0.002824332099
v 0.004165644757 -0.007894356735 0.002824337455
v 0.004202026872 0.006596085627 0.01331163055
v 0.004205569941 -0.006593266841 0.01331163055
v 0.004211077001 0.007788131479 0.00217367732
v 0.00421526283 -0.007785305846 0.002173688728
v 0.004227429163 0.00724441465 0.009483234957
v 0.00423132116 -0.007241581101 0.009483221918
v 0.004244463984 0.007868882269 0.002544474322
v 0.004248691723 -0.007866039872 0.00254447409
v 0.00434865756 0.006650195457 0.01265050936
v 0.004352230579 -0.006647298578 0.01265050564
v 0.004447612446 0.007640894037 0.002110566245
v 0.004451718181 -0.007637943607 0.002110565081
v 0.004499733448 0.007738171611 0.002450818429
v 0.004503889941 -0.007735190913 0.002450810978
v 0.004750710446 0.007401263341 0.006372447591
v 0.004754688591 -0.007398147136 0.006372454576
v 0.004771523643 0.007396256085 0.002055944409
v 0.004791753276 0.006210514458 0.01331163055
v 0.004795090069 -0.00620737655 0.01331163055
v 0.004841629881 0.007489427924 0.002325238893
v 0.004845655058 -0.007486263756 0.002325252164
v 0.004900181739 0.006132967324 0.01331163055
v 0.004903477976 -0.006129770964 0.01331163055
v 0.00498444913 0.006837972905 0.009673457593
v 0.004988123663 -0.006834731437 0.009673457593
v 0.00502255559 0.006171814166 0.01281703636
v 0.005025872961 -0.006168551743 0.0128170345
v 0.005081912968 0.007502797525 0.003640257521
v 0.005086062942 -0.007499203086 0.003640355542
v 0.005154110026 0.007091363426 0.002056237543
v 0.005229035858 0.007180693559 0.002325535985
v 0.005232894793 -0.007177320309 0.002325538779
v 0.00536107365 0.007349043619 0.003308318788
v 0.005365102552 -0.0073453472 0.003308403306
v 0.005497676269 0.005648076933 0.01331163055
v 0.005500714755 -0.00564455998 0.01331163055
v 0.005544953048 0.006989011075 0.006555118132
v 0.005548709072 -0.006985470187 0.006555126514
v 0.005570647791 0.005584472 0.01331163055
v 0.005573651154 -0.005580916633 0.01331163055
v 0.005583845079 0.007106821984 0.002986647654
v 0.005587709136 -0.007103058975 0.002986729145
v 0.005662789568 0.00560956914 0.01296979096
v 0.005665804725 -0.00560596399 0.01296979655
v 0.005706035532 0.006349391304 0.009847530164
v 0.005709447432 -0.006345761474 0.009847532026
v 0.006013167556 0.006962151732 0.004432408139
v 0.006017164793 -0.006957648788 0.004432591144
v 0.006117458455 0.006153733935 0.002056966536
v 0.006118625402 0.006769481115 0.003463550238
v 0.006120765116 -0.006149882451 0.002056968631
v 0.006122262683 -0.006765631493 0.003463552799
v 0.006160930976 0.004994702708 0.01331163055
v 0.006163615012 -0.004990828953 0.01331163055
v 0.006202554289 0.004950950932 0.01331163055
v 0.006204519421 0.00623125257 0.002326277085
v 0.006205214379 -0.004947055087 0.01331163055
v 0.006207867991 -0.006227354985 0.002326282905
v 0.006258038338 0.006791535299 0.004082753323
v 0.006261076778 0.00496447552 0.01310788002
v 0.006261874456 -0.006787022576 0.004082927015
v 0.006263744086 -0.004960548133 0.01310788002
v 0.006297046319 0.006492658518 0.006720549893
v 0.006300534587 -0.006488711108 0.006720546633
v 0.006383947097 0.005773753393 0.01000509877
v 0.006387048867 -0.005769759882 0.0100050969
v 0.006436833646 0.006539554335 0.003742363304
v 0.006440451369 -0.006535072345 0.003742534434
v 0.006631420925 0.005714640953 0.002326602582
v 0.006634491496 -0.005710513797 0.002326601418
v 0.006764263869 0.004262328104 0.01331163055
v 0.00676655009 -0.004258133601 0.01331163055
v 0.006779750807 0.004242701728 0.01331163055
v 0.006782027474 -0.004238497623 0.01331163055
v 0.006804421078 0.004247434903 0.01322958246
v 0.006806701887 -0.004243217874 0.01322957687
v 0.006934991106 0.005086575169 0.002057580976
v 0.006937723607 -0.005082288757 0.002057580277
v 0.006950499956 0.0062228241 0.005160391331
v 0.006954207551 -0.006217499729 0.005160656758
v 0.006997062359 0.005906613078 0.006869475357
v 0.007000236772 -0.005902291741 0.00686948048
v 0.007008858491 0.005111803301 0.01014552917
v 0.007011605427 -0.005107474979 0.01014553476
v 0.007032352034 0.005150652956 0.002326907124
v 0.00703410944 0.006033989135 0.004248226061
v 0.007035118062 -0.00514631113 0.00232689851
v 0.007037040778 -0.006029473618 0.004248122685
v 0.00714011956 0.006053372286 0.004790679086
v 0.007143632043 -0.006048130337 0.004790922161
v 0.007180683272 0.003631805831 0.01331163055
v 0.007182602374 -0.003627438085 0.01331163055
v 0.007256996818 0.00581533229 0.004428706132
v 0.007260272745 -0.005810208619 0.004428927321
v 0.007281349536 0.003476774705 0.01331163055
v 0.007283218407 -0.003472303426 0.01331163055
v 0.007284938168 0.00347119142 0.01331163055
v 0.00728680572 -0.003466715587 0.01331163055
v 0.007564228959 0.004231281113 0.002327302936
v 0.007566503249 -0.00422665244 0.00232730899
v 0.007569422014 0.004374876153 0.01026769727
v 0.007571771741 -0.004370243289 0.01026768889
v 0.007589501794 0.003912351094 0.002058072481
v 0.007591603789 -0.003907710779 0.002058081562
v 0.007635161746 0.005231313407 0.007002052385
v 0.007637972943 -0.005226648413 0.007002058905
v 0.007685425712 0.002677548326 0.01331163055
v 0.007686863176 -0.002672855854 0.01331163055
v 0.007695106789 0.003961635754 0.002327399096
v 0.007697234396 -0.003956938628 0.002327397233
v 0.007699877342 0.002648305705 0.01331163055
v 0.007701298607 -0.002643606537 0.01331163055
v 0.007823656313 0.005270808004 0.005774493329
v 0.007828054018 -0.005264065694 0.005776290782
v 0.007837059908 0.002586863702 0.00179297314
v 0.00783844851 -0.002582092537 0.001792972209
v 0.007958446629 0.005116508808 0.005387095269
v 0.007962277159 -0.005109962542 0.005388842896
v 0.007996294313 0.00183646334 0.01331163055
v 0.007997277329 -0.001831602136 0.01331163055
v 0.008013623281 0.001787553591 0.01331163055
v 0.008014579144 -0.001782685948 0.01331163055
v 0.008015200496 0.004907338414 0.005006177817
v 0.008018387482 -0.004901009146 0.005007871892
v 0.008054060861 0.003575458424 0.0103703551
v 0.008055980317 -0.003570565488 0.01037034765
v 0.008067212999 0.002655774821 0.002058432205
v 0.008068638854 -0.002650879789 0.002058434067
v 0.008120369166 0.001308446517 0.001793193049
v 0.008121072315 -0.001303517958 0.001793197938
v 0.008178836666 0.002689233981 0.002327774651
v 0.008180280216 -0.002684274921 0.002327769995
v 0.008198627972 0.0009637766305 0.01331163055
v 0.008199144734 -0.0009588047709 0.01331163055
v 0.008201657794 0.004478446208 0.007117298897
v 0.008204063401 -0.004473478068 0.007117299363
v 0.008212113144 0.0009014117964 0.01331163055
v 0.008212596025 -0.0008964330282 0.01331163055
v 0.008215707727 2.487346592e-06 0.001793258358
v 0.008226524071 0.0007573207741 0.01331163055
v 0.008226929764 -0.0007523353034 0.01331163055
v 0.008239271119 0.004578009713 0.005170063116
v 0.00824137032 -0.004572923295 0.005171787925
v 0.008285152811 2.506651907e-06 0.01331163055
v 0.008358069696 0.001343301497 0.002058661543
v 0.008358789608 -0.001338249887 0.002058659215
v 0.008451203816 0.002726040781 0.01045231428
v 0.008452666923 -0.002720934339 0.01045231149
v 0.008455947973 2.551428679e-06 0.002058727667
v 0.008473357186 0.001360224443 0.002327999566
v 0.008474086411 -0.001355108572 0.002327994443
v 0.00853123609 0.0008787108236 0.002328034025
v 0.008531707339 -0.0008735654992 0.002328034956
v 0.008557374589 0.004160511307 0.006276478991
v 0.008561951108 -0.004152977373 0.006279535592
v 0.008572468534 2.584845561e-06 0.002328069648
v 0.008589275181 2.588030156e-06 0.01222036313
v 0.008653461002 0.004022142384 0.00587653555
v 0.008657105267 -0.004014803562 0.005879520904
v 0.008666088805 0.003841233207 0.005482309498
v 0.008668827824 -0.003834145609 0.005485205445
v 0.008686881512 0.003660931252 0.007214083336
v 0.008688848466 -0.003655702807 0.007214088459
v 0.0087492764 0.001839111792 0.01051235572
v 0.008750263602 -0.001833849703 0.01051235385
v 0.008936707862 0.0009271700401 0.01054927241
v 0.008937203325 -0.0009218077757 0.0105492603
v 0.009001920931 2.697682703e-06 0.01056183316
v 0.009081164375 0.002791694133 0.007291302085
v 0.009082663804 -0.002786257537 0.007291303016
v 0.009098749608 0.002861227375 0.005813803058
v 0.009100104682 -0.002854786348 0.0058141388
v 0.009133451618 0.00291385781 0.006684774999
v 0.009135131724 -0.002906853333 0.006685056724
v 0.009173128754 0.002652210183 0.005873315502
v 0.00917430874 -0.002645739587 0.005873580463
v 0.009196644649 0.002797742141 0.006276450586
v 0.009198118933 -0.002790985163 0.006276724394
v 0.009362847544 2.793956355e-06 0.008855362423
v 0.009374841116 0.001883660443 0.007347852457
v 0.00937585067 -0.001878057956 0.007347844075
v 0.009504367597 0.001363450545 0.006153545342
v 0.009505980648 -0.001354801003 0.006157715339
v 0.00952000916 0.001527959364 0.006975267082
v 0.009524176829 -0.001518391073 0.006979661994
v 0.009555744939 0.001453300472 0.006562020164
v 0.009558237158 0.0009497404099 0.007382588927
v 0.009558598511 -0.001444165944 0.006566319615
v 0.00955874566 -0.0009440429276 0.007382587995
v 0.00956275966 0.0009767179145 0.006207981613
v 0.009563714266 -0.0009711678722 0.006211013533
v 0.009594081901 0.0006887539639 0.006238450762
v 0.009594916366 -0.00068164611 0.006240504794
v 0.009625603445 2.868123829e-06 0.006270352751
v 0.009629554115 0.0007807871443 0.007063018624
v 0.009631637484 -0.0007732656668 0.007065196987
v 0.009654996917 0.000738626637 0.006648419425
v 0.009656523354 -0.0007312888629 0.006650548894
v 0.009669276886 2.876168764e-06 0.007095952518
v 0.009690411389 2.882874241e-06 0.00668087462
f 243 251 247
f 496 494 502
f 502 494 499
f 131 123 119
f 118 121 122
f 122 121 142
f 259 251 261
f 259 268 269
f 268 441 269
f 430 412 406
f 313 261 251
f 322 261 313
f 249 247 251
f 4 7 1
f 10 4 9
f 1 3 5
f 233 193 202
f 243 5 233
f 339 330 317
f 287 318 308
f 495 496 502
f 502 500 495
f 477 484 452
f 477 452 433
f 197 192 175
f 215 192 197
f 197 224 215
f 240 237 218
f 116 121 114
f 116 125 121
f 116 130 125
f 125 130 128
f 122 142 141
f 141 221 122
f 179 162 177
f 177 196 179
f 260 268 259
f 259 261 260
f 260 261 268
f 448 441 451
f 250 306 247
f 247 249 250
f 250 251 259
f 250 249 251
f 406 412 402
f 275 430 406
f 269 430 275
f 390 360 372
f 340 331 350
f 318 331 340
f 327 308 340
f 340 308 318
f 370 360 390
f 253 232 248
f 224 232 253
f 297 306 310
f 247 306 297
f 234 203 222
f 6 4 1
f 9 4 6
f 6 234 9
f 28 10 9
f 28 234 44
f 9 234 28
f 221 233 63
f 7 4 12
f 4 10 12
f 44 234 57
f 206 233 202
f 266 233 206
f 206 209 266
f 266 209 256
f 223 226 217
f 217 209 223
f 217 256 209
f 267 252 281
f 267 281 285
f 285 266 267
f 266 256 267
f 267 256 252
f 330 339 349
f 361 335 349
f 349 335 330
f 349 381 361
f 114 121 112
f 121 118 112
f 118 109 112
f 96 109 91
f 292 286 317
f 317 330 292
f 317 286 307
f 326 339 307
f 307 339 317
f 287 308 280
f 280 265 287
f 407 437 415
f 502 499 501
f 501 500 502
f 332 351 268
f 268 261 332
f 379 405 268
f 268 351 379
f 369 352 361
f 494 496 458
f 496 495 458
f 492 499 494
f 462 433 411
f 473 433 462
f 477 433 473
f 268 405 429
f 429 433 452
f 405 411 429
f 429 411 433
f 488 484 477
f 499 492 488
f 488 492 484
f 131 119 115
f 115 105 222
f 110 105 115
f 224 197 199
f 129 127 138
f 138 132 129
f 265 263 254
f 160 179 176
f 162 179 160
f 126 128 130
f 126 142 121
f 121 125 126
f 125 128 126
f 130 120 134
f 176 179 182
f 182 221 176
f 182 233 221
f 193 233 182
f 432 269 441
f 441 448 432
f 478 474 434
f 474 463 434
f 412 430 434
f 434 463 412
f 406 402 380
f 380 402 389
f 380 275 406
f 269 275 380
f 380 372 269
f 389 372 380
f 360 269 353
f 353 372 360
f 269 372 353
f 350 331 336
f 336 323 344
f 259 323 314
f 360 344 334
f 344 323 334
f 334 269 360
f 259 269 334
f 334 323 259
f 216 248 225
f 225 224 216
f 257 253 248
f 257 248 216
f 224 253 246
f 246 240 215
f 215 224 246
f 282 246 253
f 239 297 277
f 277 234 239
f 247 297 239
f 234 6 239
f 222 183 181
f 208 169 164
f 164 158 208
f 222 181 208
f 208 181 169
f 208 158 131
f 131 115 208
f 208 115 222
f 1 5 2
f 2 6 1
f 2 239 6
f 2 5 243
f 243 239 2
f 221 63 76
f 8 5 3
f 3 11 8
f 8 11 26
f 8 233 5
f 8 26 233
f 62 64 68
f 7 22 19
f 30 12 38
f 60 57 67
f 80 73 67
f 222 80 67
f 67 234 222
f 67 57 234
f 219 226 227
f 219 217 226
f 245 252 223
f 281 252 245
f 281 245 272
f 272 292 281
f 286 292 272
f 227 226 229
f 226 231 229
f 383 347 367
f 367 385 383
f 385 407 383
f 415 381 383
f 383 407 415
f 391 381 415
f 361 381 391
f 391 369 361
f 85 91 83
f 20 23 3
f 330 309 301
f 301 292 330
f 438 416 457
f 457 420 461
f 416 420 457
f 382 416 384
f 384 416 408
f 408 386 384
f 408 416 438
f 438 457 465
f 469 481 470
f 415 437 456
f 456 437 464
f 464 475 456
f 456 475 460
f 403 407 385
f 437 407 403
f 319 261 322
f 322 332 319
f 319 332 261
f 333 332 322
f 351 332 333
f 371 379 351
f 494 458 454
f 454 492 494
f 454 458 451
f 454 452 484
f 484 492 454
f 455 448 451
f 451 458 455
f 455 458 495
f 462 411 444
f 444 460 462
f 379 371 387
f 395 425 387
f 387 371 395
f 268 429 417
f 447 429 452
f 447 454 451
f 452 454 447
f 471 475 464
f 460 475 479
f 462 460 479
f 479 473 462
f 477 473 479
f 479 488 477
f 479 475 486
f 486 488 479
f 481 501 497
f 497 489 481
f 497 501 499
f 486 489 497
f 499 488 497
f 497 488 486
f 186 199 183
f 203 199 186
f 186 183 222
f 222 203 186
f 216 224 207
f 224 199 207
f 207 257 216
f 277 257 207
f 207 234 277
f 144 138 127
f 131 158 144
f 144 123 131
f 144 127 123
f 147 132 145
f 132 138 145
f 159 141 142
f 142 160 159
f 159 160 176
f 176 221 159
f 221 141 159
f 130 143 137
f 137 126 130
f 142 126 137
f 162 160 150
f 150 137 143
f 150 160 142
f 142 137 150
f 198 179 196
f 198 182 179
f 193 182 198
f 202 193 198
f 198 206 202
f 209 206 198
f 223 209 198
f 198 196 223
f 418 448 430
f 418 432 448
f 418 430 269
f 269 432 418
f 350 336 363
f 363 382 350
f 363 336 344
f 323 336 316
f 310 306 316
f 316 331 310
f 316 336 331
f 316 314 323
f 306 250 316
f 316 250 259
f 259 314 316
f 228 225 248
f 224 225 228
f 277 297 278
f 278 282 253
f 278 257 277
f 253 257 278
f 246 282 273
f 273 265 240
f 240 246 273
f 287 265 273
f 293 331 318
f 293 318 287
f 287 273 293
f 293 273 282
f 243 247 242
f 242 239 243
f 247 239 242
f 75 91 86
f 86 76 75
f 36 11 21
f 32 11 29
f 72 62 75
f 63 62 72
f 75 76 72
f 72 76 63
f 71 62 68
f 33 28 44
f 33 37 12
f 10 28 33
f 33 12 10
f 44 57 47
f 47 33 44
f 37 33 47
f 43 37 49
f 256 217 241
f 217 219 241
f 241 219 227
f 227 229 241
f 241 229 231
f 252 256 241
f 223 252 241
f 241 226 223
f 241 231 226
f 238 272 245
f 214 245 223
f 223 196 214
f 214 238 245
f 196 191 214
f 347 383 365
f 365 383 381
f 326 347 365
f 365 339 326
f 365 349 339
f 381 349 365
f 419 425 395
f 395 391 419
f 419 391 415
f 415 456 419
f 419 456 460
f 460 444 419
f 419 444 425
f 295 266 285
f 295 233 266
f 243 233 295
f 295 294 243
f 305 313 251
f 305 295 309
f 294 295 305
f 305 251 243
f 243 294 305
f 75 77 79
f 35 40 21
f 326 307 290
f 279 307 286
f 279 290 307
f 329 325 321
f 384 386 368
f 368 348 384
f 329 348 368
f 327 340 366
f 366 348 327
f 366 340 350
f 350 382 366
f 384 348 366
f 366 382 384
f 271 280 276
f 291 280 308
f 291 308 327
f 445 463 461
f 461 420 445
f 445 402 412
f 412 463 445
f 390 372 396
f 396 372 389
f 404 408 438
f 386 408 404
f 404 364 386
f 378 364 404
f 476 457 461
f 476 465 457
f 450 422 414
f 459 469 470
f 459 442 446
f 481 469 491
f 464 437 427
f 437 403 427
f 345 385 367
f 367 347 328
f 328 345 367
f 322 335 343
f 343 333 322
f 361 352 343
f 343 335 361
f 351 333 358
f 358 371 351
f 358 343 352
f 333 343 358
f 352 369 358
f 395 371 388
f 388 391 395
f 369 391 388
f 388 358 369
f 371 358 388
f 453 455 485
f 453 485 478
f 478 434 453
f 448 455 453
f 430 448 453
f 453 434 430
f 485 455 493
f 493 455 495
f 493 495 500
f 401 387 425
f 425 444 401
f 401 444 411
f 379 387 401
f 405 379 401
f 401 411 405
f 451 441 431
f 431 447 451
f 431 441 268
f 268 417 431
f 431 417 429
f 429 447 431
f 482 489 486
f 486 475 482
f 475 471 482
f 94 87 80
f 94 80 222
f 222 105 94
f 123 108 106
f 205 207 199
f 234 207 205
f 138 144 151
f 151 145 138
f 147 140 133
f 175 192 171
f 192 190 171
f 171 157 175
f 177 162 156
f 162 146 156
f 143 146 154
f 154 146 162
f 162 150 154
f 154 150 143
f 354 363 344
f 370 363 354
f 354 344 360
f 360 370 354
f 382 363 392
f 390 396 392
f 392 370 390
f 392 363 370
f 392 396 420
f 392 420 416
f 416 382 392
f 230 232 224
f 224 228 230
f 248 232 230
f 230 228 248
f 298 278 297
f 282 278 298
f 298 297 310
f 298 293 282
f 91 109 104
f 45 36 42
f 48 36 45
f 55 58 50
f 26 11 31
f 11 36 31
f 3 23 27
f 1 17 16
f 7 25 24
f 24 22 7
f 38 12 39
f 73 78 74
f 74 70 73
f 65 60 66
f 236 238 235
f 244 238 236
f 264 258 262
f 286 272 264
f 264 279 286
f 220 214 212
f 296 301 309
f 309 295 296
f 296 295 285
f 285 281 296
f 281 292 296
f 292 301 296
f 322 313 315
f 313 305 315
f 315 305 309
f 315 335 322
f 315 309 330
f 330 335 315
f 96 90 93
f 13 18 1
f 1 14 13
f 288 290 283
f 326 290 311
f 311 347 326
f 311 328 347
f 342 338 346
f 329 368 346
f 346 368 386
f 386 364 346
f 284 291 289
f 312 291 327
f 327 348 312
f 312 348 329
f 389 402 426
f 402 445 426
f 426 396 389
f 426 445 420
f 420 396 426
f 376 374 378
f 438 465 428
f 428 404 438
f 428 465 450
f 467 483 469
f 480 476 461
f 461 463 480
f 480 463 474
f 480 474 478
f 450 465 472
f 465 476 472
f 472 476 483
f 472 467 450
f 483 467 472
f 443 459 446
f 500 501 498
f 498 501 481
f 481 491 498
f 385 345 362
f 362 403 385
f 362 377 403
f 341 345 337
f 105 97 95
f 82 81 80
f 89 94 92
f 203 234 204
f 234 205 204
f 204 199 203
f 204 205 199
f 169 181 180
f 180 181 183
f 183 199 180
f 180 199 197
f 149 140 147
f 190 189 185
f 177 156 174
f 174 156 170
f 170 191 174
f 174 196 177
f 174 191 196
f 310 331 302
f 302 298 310
f 331 293 302
f 293 298 302
f 76 86 88
f 221 76 88
f 88 104 221
f 88 86 91
f 91 104 88
f 122 221 111
f 221 104 111
f 111 118 122
f 111 109 118
f 111 104 109
f 55 50 53
f 59 50 62
f 59 62 63
f 26 31 34
f 233 26 34
f 15 14 1
f 1 16 15
f 61 56 51
f 51 57 60
f 51 47 57
f 188 184 187
f 188 191 170
f 303 311 299
f 270 274 279
f 300 312 304
f 394 376 378
f 364 359 356
f 400 428 410
f 424 467 436
f 478 485 490
f 490 480 478
f 485 493 490
f 490 493 500
f 500 498 490
f 377 375 393
f 357 362 355
f 466 482 471
f 320 324 328
f 164 169 161
f 169 180 161
f 161 158 164
f 161 144 158
f 161 151 144
f 195 189 190
f 190 201 195
f 168 171 173
f 168 166 171
f 139 146 136
f 52 59 63
f 52 63 233
f 200 188 194
f 194 188 187
f 487 498 491
f 487 490 498
f 469 483 487
f 487 491 469
f 483 476 487
f 476 480 487
f 480 490 487
f 373 375 377
f 409 427 399
f 489 482 468
f 482 466 468
f 470 481 468
f 481 489 468
f 468 459 470
f 449 413 421
f 449 466 471
f 449 471 464
f 464 427 449
f 151 161 163
f 163 161 180
f 163 157 147
f 146 139 148
f 167 172 170
f 170 165 167
f 41 34 31
f 233 34 41
f 41 52 233
f 466 423 435
f 147 145 155
f 155 163 147
f 145 151 155
f 151 163 155
f 175 157 178
f 157 163 178
f 178 163 180
f 178 197 175
f 178 180 197
f 52 41 46
f 50 59 46
f 59 52 46
f 36 50 46
f 46 31 36
f 46 41 31
f 215 240 218
f 218 213 215
f 271 263 280
f 280 263 265
f 115 101 99
f 115 99 110
f 101 115 103
f 103 115 119
f 240 265 254
f 254 237 240
f 114 102 107
f 107 116 114
f 130 116 107
f 107 120 130
f 100 102 114
f 114 112 100
f 136 146 135
f 135 146 143
f 135 143 130
f 130 134 135
f 71 77 75
f 75 62 71
f 1 7 17
f 7 19 17
f 7 12 25
f 12 30 25
f 80 81 78
f 78 73 80
f 69 67 73
f 73 70 69
f 90 91 85
f 90 96 91
f 79 91 75
f 79 83 91
f 21 11 35
f 35 11 32
f 18 3 1
f 18 20 3
f 110 99 97
f 97 105 110
f 106 103 119
f 106 119 123
f 123 127 113
f 113 108 123
f 124 132 133
f 133 132 147
f 21 40 42
f 42 36 21
f 50 58 64
f 64 62 50
f 27 11 3
f 27 29 11
f 12 37 39
f 37 43 39
f 67 69 66
f 60 67 66
f 255 238 244
f 272 238 255
f 255 264 272
f 258 264 255
f 235 238 220
f 238 214 220
f 283 290 274
f 290 279 274
f 346 338 325
f 346 325 329
f 284 276 280
f 280 291 284
f 312 321 304
f 329 321 312
f 378 374 359
f 359 364 378
f 467 424 422
f 467 422 450
f 440 469 443
f 469 459 443
f 355 362 341
f 341 362 345
f 337 345 324
f 345 328 324
f 95 94 105
f 92 94 95
f 80 87 82
f 87 84 82
f 89 84 87
f 87 94 89
f 117 132 124
f 129 132 117
f 117 113 127
f 117 127 129
f 147 157 149
f 157 153 149
f 173 171 185
f 185 171 190
f 166 153 157
f 157 171 166
f 36 48 53
f 53 50 36
f 49 37 54
f 37 47 54
f 65 61 51
f 51 60 65
f 56 54 51
f 51 54 47
f 172 184 188
f 170 172 188
f 212 214 210
f 210 214 191
f 191 188 210
f 210 188 200
f 98 100 112
f 98 112 109
f 109 96 98
f 96 93 98
f 290 288 299
f 299 311 290
f 270 264 262
f 279 264 270
f 289 291 300
f 291 312 300
f 342 346 356
f 356 346 364
f 450 414 410
f 410 428 450
f 436 469 440
f 436 467 469
f 320 311 303
f 328 311 320
f 215 213 211
f 211 192 215
f 211 190 192
f 211 201 190
f 170 156 165
f 156 152 165
f 398 428 400
f 404 428 398
f 378 404 398
f 398 394 378
f 399 427 397
f 397 427 403
f 403 377 397
f 377 393 397
f 377 362 373
f 362 357 373
f 439 442 468
f 442 459 468
f 421 423 449
f 449 423 466
f 449 409 413
f 427 409 449
f 148 152 156
f 148 156 146
f 342 356 435
f 262 258 435
f 435 263 271
f 435 35 32
f 45 42 435
f 213 218 435
f 65 66 435
f 212 210 435
f 101 103 435
f 435 79 77
f 152 148 435
f 237 254 435
f 435 30 38
f 304 321 435
f 435 194 187
f 435 61 65
f 32 29 435
f 435 107 102
f 435 211 213
f 435 13 14
f 271 276 435
f 435 436 440
f 99 101 435
f 435 442 439
f 435 218 237
f 103 106 435
f 173 185 435
f 435 71 68
f 55 53 435
f 70 74 435
f 435 78 81
f 435 58 55
f 85 83 435
f 136 135 435
f 440 443 435
f 355 341 435
f 400 410 435
f 124 133 435
f 435 254 263
f 435 134 120
f 120 107 435
f 68 64 435
f 435 19 22
f 435 27 23
f 22 24 435
f 14 15 435
f 187 184 435
f 102 100 435
f 435 90 85
f 140 149 435
f 23 20 435
f 100 98 435
f 435 338 342
f 435 270 262
f 435 300 304
f 435 357 355
f 446 442 435
f 435 97 99
f 92 95 435
f 435 89 92
f 435 135 134
f 435 168 173
f 64 58 435
f 77 71 435
f 435 17 19
f 435 25 30
f 435 43 49
f 38 39 435
f 435 69 70
f 435 236 235
f 435 255 244
f 235 220 435
f 83 79 435
f 40 35 435
f 20 18 435
f 325 338 435
f 435 321 325
f 303 299 435
f 435 284 289
f 435 414 422
f 422 424 435
f 375 373 435
f 81 82 435
f 435 106 108
f 108 113 435
f 435 117 124
f 435 133 140
f 189 195 435
f 435 42 40
f 435 48 45
f 29 27 435
f 435 16 17
f 435 24 25
f 435 56 61
f 435 39 43
f 435 74 78
f 435 66 69
f 244 236 435
f 258 255 435
f 435 184 172
f 49 54 435
f 435 220 212
f 435 93 90
f 18 13 435
f 435 288 283
f 283 274 435
f 276 284 435
f 374 376 435
f 435 359 374
f 435 443 446
f 435 398 400
f 435 409 399
f 435 341 337
f 337 324 435
f 435 95 97
f 435 82 84
f 84 89 435
f 113 117 435
f 435 149 153
f 435 320 303
f 435 185 189
f 153 166 435
f 435 139 136
f 435 53 48
f 435 15 16
f 435 54 56
f 435 210 200
f 435 98 93
f 435 299 288
f 274 270 435
f 289 300 435
f 376 394 435
f 435 356 359
f 435 410 414
f 424 436 435
f 435 393 375
f 399 397 435
f 421 413 435
f 324 320 435
f 435 195 201
f 201 211 435
f 166 168 435
f 172 167 435
f 435 165 152
f 200 194 435
f 394 398 435
f 435 397 393
f 435 373 357
f 413 409 435
f 435 423 421
f 435 148 139
f 435 167 165
f 439 468 435
f 435 468 466
