v -0.009273940697 0.0002319304476 0.009911378846
v -0.009273336269 -2.209065997e-06 0.006374319084
v -0.009271157905 -2.210701723e-06 -0.007488612086
v -0.009263896383 0.0004920290667 0.009911384434
v -0.009258449078 -0.0005087965983 -0.007488605101
v -0.009256896563 0.0005401963135 -0.007488616742
v -0.009242967702 -0.0007974662003 0.009911386296
v -0.009231085889 0.000906575995 -0.007488617208
v -0.009222216904 0.0009923217585 0.006332186982
v -0.009221680462 -0.0009967138758 0.006332183722
v -0.009157721885 0.001503543113 0.00991138164
v -0.009153108113 -0.00155671814 -0.007488611154
v -0.009101537056 -0.001825693646 0.009911385365
v -0.009083795361 0.001962564187 -0.007488609757
v -0.009072627872 0.001974807587 0.006221379153
v -0.009071566164 -0.001979120541 0.006221381016
v -0.009069364518 -0.001987281255 0.009911380708
v -0.008947550319 0.002507036319 0.009911385365
v -0.00894196704 0.002594927792 -0.007488652598
v -0.008940570056 -0.002599168336 -0.007488648873
v -0.008906796575 -0.002730214037 -0.007477363106
v -0.008860511705 -0.002896257676 -0.007461500354
v -0.008852255531 -0.002845798386 0.009911376983
v -0.008831040002 0.002933177166 0.006065337919
v -0.008829460479 -0.00293735927 0.006065345835
v -0.008654699661 0.003535123309 -0.007388000842
v -0.008633760735 0.003497963538 0.009911383502
v -0.008631881326 -0.003502035514 0.00991137512
v -0.008595896885 -0.003693592036 -0.00736721931
v -0.008553344756 0.003805480432 -0.007350717206
v -0.008550000377 5.899231103e-10 0.02723120712
v -0.008503911085 0.003855361138 0.005887505133
v -0.008501837961 -0.003859365126 0.005887498148
v -0.008487646468 0.003867774503 0.00992850773
v -0.008485269733 -0.003872482339 0.009928572923
v -0.00847014226 0.003909410443 0.009932585992
v -0.008436055854 -1.840650688e-09 0.02853356861
v -0.008422299288 -0.001378119341 0.02723119594
v -0.008422297426 0.001378122601 0.02723120525
v -0.008369786665 -0.004137724172 0.009962221608
v -0.00831029471 -0.001357184956 0.02853355743
v -0.008310293779 0.001357183559 0.02853355929
v -0.0082944436 -0.001941142022 0.02723120525
v -0.0082944436 0.001941143768 0.02723120712
v -0.008287462406 0.004423411563 -0.007248665672
v -0.008249737322 -3.116104381e-06 -0.007234167308
v -0.008200918324 -0.004601247609 -0.007215111982
v -0.008185069077 0.004524559248 0.01004532259
v -0.008097691461 6.763003489e-10 0.02979635447
v -0.008074983023 0.004735798109 0.01010768022
v -0.008065834641 -0.004751831293 0.01011168305
v -0.008027643897 -0.002750000451 0.02723120339
v -0.008027642034 0.002750000451 0.02723120339
v -0.007992044091 -0.004886031151 0.01015849784
v -0.007977691479 -0.001295009395 0.02979634888
v -0.007977690548 0.001295008697 0.02979635634
v -0.007970758714 0.002750001615 0.02812035382
v -0.007937292568 0.002668152796 0.02853355557
v -0.007937291637 -0.002668151399 0.02853356116
v -0.0078663202 0.005218610633 -0.007074241992
v -0.007863020524 0.005109991413 0.01025049668
v -0.0078513138 -0.003161033383 0.02716164291
v -0.007801029831 -0.002750000916 0.02899502032
v -0.007704460062 -0.005480513908 -0.007004298735
v -0.00763262948 -0.005474940874 0.01043191459
v -0.007621777244 -0.002545918804 0.02979634702
v -0.007621776313 0.002545920666 0.02979634516
v -0.007618900388 0.005542868283 0.005560096819
v -0.007615918759 -0.00554640172 0.005560105667
v -0.007595019415 0.005532017909 0.01046699751
v -0.007545190863 0.003749999683 0.02764324844
v -0.007545190398 -0.003749997821 0.02764323726
v -0.007545187604 4.609782832e-10 0.03098119237
v -0.007537569851 -0.002749999752 0.02980003133
v -0.007521230727 0.002749999519 0.0298409164
v -0.007434593979 -0.001193488482 0.03098119423
v -0.007434593514 0.001193486038 0.03098119609
v -0.007386489771 0.00594554469 -0.006856060587
v -0.007369605824 0.005850228015 0.01067587268
v -0.007366389036 -0.005853717681 0.01067593787
v -0.007333833724 -0.004094318952 0.02785508893
v -0.007325937971 0.004106408916 0.02786186151
v -0.007222558372 -0.006041286048 0.01082101185
v -0.007212715689 0.006054506171 0.01083467156
v -0.007186377421 -0.006206354126 -0.006760472897
v -0.007135920227 -0.002750000218 0.03064426407
v -0.007106580772 -0.002346331486 0.03098119609
v -0.00710657984 0.002346330788 0.03098120168
v -0.007073943969 0.006284051575 0.005457405467
v -0.007070566062 -0.006287289318 0.005457401276
v -0.006979724392 -0.00459220726 0.0280993823
v -0.006969051901 0.004605953582 0.02810511924
v -0.006854198407 0.00659815222 -0.006589178462
v -0.006816016976 0.006516109686 0.01128576975
v -0.006812516134 -0.0065192068 0.01128577441
v -0.00679532811 -7.752939403e-10 0.03205209598
v -0.006769866683 0.006466806401 0.01914629154
v -0.006766391918 -0.006469881162 0.01914628781
v -0.006759149954 0.006477622315 0.01914628968
v -0.006759133656 0.00645507453 0.02060540766
v -0.006759112235 0.006420473102 0.0224653855
v -0.006755666807 -0.006480691023 0.01914628595
v -0.006755664013 -0.006458139047 0.02060551755
v -0.006755661219 -0.006423544604 0.02246538736
v -0.006697504316 -0.001055701287 0.03205209598
v -0.006697503384 0.00105569954 0.03205210343
v -0.006651381496 0.002750000916 0.03139196336
v -0.006618163548 0.006846674252 -0.006462192163
v -0.006614482962 -0.006849665195 -0.006462198216
v -0.006603206042 0.0068594818 -0.004029470496
v -0.006571887527 -0.005075309891 0.02826506086
v -0.006562188268 0.005085840356 0.02826778218
v -0.006528738886 -0.00688541308 0.005070679355
v -0.006518966053 0.006645857356 0.0225915052
v -0.006515393499 -0.006648796145 0.02259150892
v -0.006515228655 0.006701503415 0.01982461289
v -0.006511625834 -0.006704442203 0.01982461661
v -0.006509190891 0.006880116649 0.007458380423
v -0.006490815431 0.006766091101 0.01710092835
v -0.006487177685 -0.006769015454 0.01710092835
v -0.006472568959 0.006835720502 0.01343631558
v -0.006470168941 -0.006823376287 0.01441838033
v -0.006407360546 -0.002075451426 0.03205209598
v -0.006407360081 0.002075453056 0.03205210343
v -0.006359549705 -0.007094689645 -0.006319258828
v -0.006353300996 -0.005303301848 0.02831383795
v -0.00635330053 0.005303299986 0.02831383981
v -0.006218429189 0.006901118439 0.0227531977
v -0.00608222466 0.002749999985 0.03206483647
v -0.006075514015 -0.002749999054 0.03207182512
v -0.006003541872 0.00740130106 -0.006106452551
v -0.005873124581 0.007493582554 0.0005642153556
v -0.005870903842 1.527125259e-09 0.03297652677
v -0.005839082412 -0.007184994407 0.02296146378
v -0.00581374485 0.007474781945 0.007750635035
v -0.005809763446 -0.007477362175 0.007746926509
v -0.00578881707 -0.0008858382353 0.03297652677
v -0.00578881707 0.0008858377114 0.03297653422
v -0.005778404884 0.007378033362 0.01525673829
v -0.005774414167 -0.007380707189 0.01525040064
v -0.005745063536 -0.007600313984 -0.005948056001
v -0.005708078854 -0.005878119729 0.02831483819
v -0.00568755623 0.005894324277 0.02831140906
v -0.005553944502 0.007373622619 0.0231267307
v -0.005545357708 0.001741512679 0.03297652304
v -0.005545357242 -0.001741512329 0.03297652677
v -0.005417706911 0.002750000451 0.03267274797
v -0.005349705461 0.007874093018 -0.005685301963
v -0.00530117983 -0.006178791635 0.02820392326
v -0.005292688962 0.006184623111 0.02820060402
v -0.005169420969 0.007597658783 0.02335372381
v -0.005148813594 0.002537879627 0.03297653049
v -0.005148813128 -0.002537877997 0.03297653049
v -0.005122934468 -0.007622588892 0.02337926067
v -0.005115069915 0.008012233302 0.0006745822611
v -0.005110772327 -0.008014420979 0.0006727101281
v -0.005097552668 -0.008030116558 -0.005513421725
v -0.00506500341 0.007966654375 0.007912685163
v -0.005060754251 -0.007968850434 0.007908952422
v -0.005029729102 0.007841092534 0.01547981799
v -0.005025488324 -0.007843376137 0.01547342911
v -0.004920807667 -0.00813225843 -0.005386631005
v -0.004904080648 -0.00643397728 0.02799510024
v -0.004904079717 0.006433975883 0.02799510583
v -0.004800000228 0.006495189853 0.02792442963
v -0.004799996503 -4.813250356e-10 0.03372638673
v -0.00479902979 -0.006495750509 0.02792376094
v -0.004736145958 0.0006890613586 0.03372637928
v -0.004736144561 -0.0006890590885 0.03372638673
v -0.00468868576 -0.002749999985 0.03318497539
v -0.004659329075 0.008273192681 -0.005188985262
v -0.004546768498 -0.001354653738 0.033726383
v -0.004546768032 0.00135465397 0.03372637555
v -0.004441700876 0.00794013869 0.02380745858
v -0.004364263266 -0.007971158251 0.02385496348
v -0.004301927984 0.008437199518 0.0008777710609
v -0.004297398031 -0.008438955061 0.0008758895565
v -0.004263675772 0.008361647837 0.008147059008
v -0.004259212408 -0.008363435045 0.008143289946
v -0.004238310736 0.001974117709 0.03372638673
v -0.004238309339 -0.00197412027 0.03372639045
v -0.004232245032 0.008205641992 0.01576654799
v -0.004227804951 -0.008207511157 0.01576011255
v -0.004212767817 -0.008486399427 -0.004841283895
v -0.004176731221 -0.002749999287 0.03346905857
v -0.003900337964 0.002750002081 0.03360009938
v -0.003893854097 0.008620637469 -0.004570743069
v -0.003821281018 -0.002526355674 0.033726383
v -0.003821281018 0.002526356373 0.03372637555
v -0.003707946278 -0.008196391165 0.02429832518
v -0.003690800164 0.008201327175 0.02431344613
v -0.003615148365 -1.040667275e-09 0.03427889198
v -0.003571472596 -0.0004713442177 0.0342788808
v -0.003571471665 0.0004713429371 0.03427888826
v -0.003522519721 -0.002750000684 0.03375607729
v -0.00351267634 0.002749999985 0.03375980631
v -0.00350195379 -0.008765711449 -0.004227499943
v -0.003441929817 0.0009266390116 0.0342788808
v -0.003441929584 -0.000926640234 0.03427888453
v -0.003439035499 0.008772742935 0.001157713588
v -0.003434322542 -0.008774043061 0.001155820326
v -0.003412582679 0.008666146547 0.008441758342
v -0.00340795191 -0.008667493239 0.008437978104
v -0.003230933333 -0.001350375474 0.0342788808
v -0.003230932867 0.001350376755 0.03427888826
v -0.003229256021 0.002749999752 0.03385978192
v -0.003143604146 -0.002750000451 0.03388733789
v -0.003128545824 0.008886467665 -0.003869915381
v -0.003065515077 -0.002750000684 0.03391139209
v -0.00303817587 -0.00891280733 -0.003785647452
v -0.002945668297 0.001728130737 0.03427888826
v -0.002945667598 -0.001728127943 0.03427888826
v -0.002924338914 0.008389948867 0.02487766556
v -0.002919829451 -0.008390954696 0.02487766929
v -0.002878412604 -0.008399197832 0.02490879036
v -0.002798029222 -0.008979132399 -0.003542107064
v -0.002595847705 -0.002047032351 0.0342788808
v -0.002595847007 0.002047032584 0.0342788808
v -0.00253173057 0.009023130871 0.001498326776
v -0.002526880708 -0.009023949504 0.001496433513
v -0.002526283031 0.00846357923 0.02511662617
v -0.002514541848 0.008886519819 0.008784811012
v -0.002509788843 -0.008887400851 0.00878102798
v -0.002479960676 -0.009057291783 -0.003202058142
v -0.002475589747 -0.00847205054 0.0251368098
v -0.002459445735 0.002750000916 0.03406499326
v -0.002380500315 0.009079904296 -0.003085755277
v -0.002352359472 -1.160496199e-09 0.03461725265
v -0.002330184914 -0.0002393073228 0.03461724892
v -0.002330184449 0.000239306115 0.03461724892
v -0.002282657893 -0.008502327837 0.02520699613
v -0.002282217378 0.008502412587 0.02520851791
v -0.002264414914 -0.0004704667081 0.0346172452
v -0.002264414448 0.0004704663297 0.03461725265
v -0.002239251975 0.00910978578 -0.002924233908
v -0.002197830239 0.002750000684 0.03411377594
v -0.002197830006 -0.002749999752 0.03411377594
v -0.002193385502 0.00229622866 0.03427888453
v -0.002193385269 -0.002296226565 0.03427887708
v -0.002157289302 0.0006856052787 0.03461724892
v -0.002157288603 -0.0006856056862 0.0346172452
v -0.002012455603 -0.0008773937589 0.03461725637
v -0.002012455603 0.0008773948648 0.03461724892
v -0.001904887962 0.008553511463 0.02528438345
v -0.001900283736 -0.008553969674 0.02528438158
v -0.001834847382 0.001039304188 0.0346172452
v -0.001834847266 -0.001039304188 0.0346172452
v -0.00182815583 -0.008562521078 0.02529038861
v -0.001827359432 0.008562728763 0.02529074438
v -0.001769443275 -0.009194618091 -0.002355394652
v -0.001751986798 -0.002467224142 0.0342788808
v -0.001751986565 0.002467225771 0.03427888453
v -0.001630511601 0.001165823429 0.03461724892
v -0.001630511018 -0.001165826339 0.03461724892
v -0.001620410709 -0.00858514104 0.02529319003
v -0.001604245277 0.008586947806 0.02529229783
v -0.001585350838 0.009192625992 0.001883557765
v -0.001580408891 -0.009192937985 0.001881659613
v -0.001578900614 0.009223565459 -0.00209628162
v -0.001574119786 -0.009223823436 -0.002096517012
v -0.001572369249 0.00902914349 0.009164275602
v -0.001567536267 -0.009029534645 0.009160477668
v -0.001558779739 0.00922638271 -0.002068837639
v -0.001406408264 0.001252644346 0.0346172452
v -0.001406407915 -0.001252641319 0.0346172452
v -0.001311430708 0.002749999054 0.03420393541
v -0.001311430358 -0.002750001382 0.03420393169
v -0.001286682789 0.002554207342 0.0342788808
v -0.001286681392 -0.002554205945 0.03427888826
v -0.001170166768 -0.00129680417 0.0346172452
v -0.001170166768 0.001296803122 0.0346172452
v -0.001164199086 -0.00862501841 0.0252226349
v -0.001151196542 0.008626255207 0.0252176635
v -0.001128517324 -0.009277236648 -0.001449274365
v -0.001114195213 -0.008628628217 0.02520806529
v -0.001049999497 -9.646355384e-10 0.03473118693
v -0.000965280633 -0.008638570085 0.02515587583
v -0.0009578388417 0.009293361567 -0.001166941249
v -0.0009461518493 0.008640104905 0.02514626645
v -0.0009298337973 -0.001296802424 0.0346172452
v -0.0009298337391 0.001296804869 0.03461724892
v -0.0008133185911 0.00255420804 0.0342788808
v -0.0008133181836 -0.002554205479 0.03427888826
v -0.0006935923011 -0.001252643648 0.03461724892
v -0.0006935917772 0.001252642251 0.03461724892
v -0.0005586064071 -0.008660034277 0.02493777126
v -0.0005386655685 0.008661371656 0.02492045052
v -0.0005352220032 0.009348237887 -0.0004012183053
v -0.0005301983911 -0.009347961284 -0.0004012275895
v -0.0004694889358 -0.00116582273 0.03461724147
v -0.0004694878007 0.001165823662 0.0346172452
v -0.0004207686579 -0.002750000451 0.03418040648
v -0.000420768105 0.002750000218 0.03418040648
v -0.0003887719649 -0.00866689533 0.02480627596
v -0.0003822306171 0.008667674847 0.02479653805
v -0.0003480143787 -0.002467223909 0.03427888453
v -0.0003480140876 0.002467226004 0.03427888826
v -0.0003336925874 0.009344050661 2.147250234e-05
v -0.0002651523973 0.00103930512 0.03461724892
v -0.0002651523682 -0.001039307099 0.03461724892
v -9.17145735e-05 -0.009337183088 0.0005891963956
v -8.754497685e-05 -0.0008773941081 0.0346172452
v -8.75438127e-05 0.0008773928275 0.03461725265
v -7.617094525e-05 -0.008677466772 0.02446615696
v -7.28248051e-05 0.008678250015 0.02445496991
v 4.478471601e-05 0.008682228625 0.0242682267
v 5.728881297e-05 -0.000685604522 0.0346172452
v 5.728892575e-05 0.000685602834 0.03461724892
v 6.057759674e-05 0.009332207963 0.001026126789
v 6.643548113e-05 -0.008682249114 0.02423695289
v 9.338526434e-05 0.002296224935 0.03427888826
v 9.338553355e-05 -0.002296226332 0.03427888453
v 0.0001185887522 0.00868505612 0.02412123419
v 0.0001232556533 -0.008684427477 0.02412122488
v 0.0001644142903 0.0004704674648 0.03461724892
v 0.0001644150179 -0.0004704672028 0.03461725265
v 0.0001991383324 0.009345297702 -0.0003685128468
v 0.0002041603584 -0.009344626218 -0.0003685161064
v 0.0002301843051 0.0002393080649 0.0346172452
v 0.0002301847562 -0.0002393089817 0.0346172452
v 0.00023144031 0.00932392478 0.001584367594
v 0.0002315554011 0.008690974675 0.0238049794
v 0.0002362267405 -0.008690284565 0.02380498126
v 0.0002442770055 -0.009323306382 0.001612794003
v 0.0002523600124 2.719497402e-10 0.03461725637
v 0.0002754107409 0.009344591759 -0.0003096094588
v 0.000278339081 -0.009343885817 -0.0003100382746
v 0.0003521462786 0.009343873709 -0.0002511313942
v 0.0003534731804 0.009316948242 0.002068861853
v 0.0003578079632 -0.009343126789 -0.0002521031129
v 0.0003584803781 -0.00931619294 0.002068857662
v 0.000383213337 0.009107746184 0.00996442046
v 0.000388088898 -0.009107110091 0.009960622527
v 0.0004596348444 0.002749999287 0.03404357284
v 0.0004596351937 -0.002750001382 0.03404357284
v 0.0004958476638 0.002047030721 0.03427888826
v 0.0004958477803 -0.00204703398 0.03427888453
v 0.0007674678345 -0.009317170829 -0.0003229287395
v 0.000845667324 -0.001728128758 0.03427888453
v 0.0008456675569 0.001728130155 0.0342788808
v 0.0008772962028 -0.009329028428 5.786901966e-05
v 0.0008801805088 0.008716174401 0.02190082707
v 0.0008920705877 0.007244196255 -0.003642347874
v 0.0008932399214 -0.007243882399 -0.00364205963
v 0.001038336777 0.009301259182 -0.0002128720662
v 0.001042509801 -0.009299932048 -0.00021132447
v 0.001060034847 -0.008710204624 0.0217442885
v 0.001071790117 0.008710763417 0.02173139155
v 0.001112900092 0.009278881364 -0.0002942239516
v 0.001124493312 0.002750000218 0.03386135772
v 0.001124493661 -0.002750000218 0.03386135772
v 0.001130932826 -0.001350374543 0.0342788808
v 0.001130933291 0.001350377686 0.03427888826
v 0.001229638117 -0.008703263476 0.021623604
v 0.001243396197 0.008703617379 0.02161202021
v 0.001266282052 0.00922969263 0.004961493891
v 0.001271242625 -0.009228447452 0.004961493425
v 0.001309295418 0.009304095991 0.000274866994
v 0.001309574232 0.009036137722 0.01114089228
v 0.001314430148 -0.00903486833 0.01114089414
v 0.001339866547 0.002950001974 -0.00350246625
v 0.001339867013 -0.007109045051 -0.003502471372
v 0.001339867595 0.007109045051 -0.003502458567
v 0.001341929543 0.0009266386041 0.03427888453
v 0.001341930707 -0.0009266404086 0.03427888826
v 0.001387425698 0.002749998821 0.03376926854
v 0.001387426048 -0.002750001615 0.03376926854
v 0.001471471507 -0.0004713445669 0.0342788808
v 0.00147147174 0.0004713461967 0.03427888826
v 0.001515149255 -2.253285392e-09 0.03427889198
v 0.00157244911 -0.009199527092 -0.0002599114378
v 0.001625492238 0.009276685305 0.0004193358182
v 0.001645964454 -0.008677663282 0.02142224275
v 0.001661863993 0.008677546866 0.0214152094
v 0.001721280161 -0.002526355907 0.03372637555
v 0.001721281325 0.002526354278 0.03372638673
v 0.001732593519 -0.009264905937 0.0004639702383
v 0.001811701572 0.009220205247 5.519222395e-05
v 0.001817147015 -0.009218394756 5.620158117e-05
v 0.001844605664 -0.008661208674 0.02136450633
v 0.00186079531 0.008660886437 0.0213597063
v 0.001898244256 0.006896221079 -0.003234070027
v 0.001898536924 -0.00689609535 -0.003233888419
v 0.001904214965 -0.009159132838 -0.0001215289449
v 0.001997330226 0.009102585725 -0.0002264212526
v 0.002006377792 0.002750000218 0.03350382671
v 0.002006378258 -0.002750000218 0.03350382671
v 0.00213264348 -0.002749998122 0.03344071656
v 0.002132643946 0.002749998821 0.03344071656
v 0.002138310578 0.001974119339 0.03372637928
v 0.002138311043 -0.001974118873 0.033726383
v 0.002298131352 0.008614333346 0.0213113036
v 0.00230276119 -0.0086125331 0.02131130546
v 0.002446767176 0.001354655949 0.03372638673
v 0.002446767408 -0.001354653505 0.03372637555
v 0.002488840604 0.008959098719 -0.0001887311228
v 0.002493687673 -0.008957245387 -0.0001888248808
v 0.002605259651 0.009086222388 0.0002911693009
v 0.002636144869 0.0006890616496 0.03372637928
v 0.002636145335 -0.0006890609511 0.03372637555
v 0.002699997043 -7.553508377e-10 0.033726383
v 0.002778411377 0.009110479616 0.0008784604142
v 0.003018378047 0.008802790195 -8.496888768e-05
v 0.003023194149 -0.008800725453 -8.519319817e-05
v 0.003048813436 -0.002537876368 0.03297652304
v 0.003048813902 0.002537877765 0.03297652304
v 0.003142391564 0.009015819058 0.002587543335
v 0.003191306954 0.008954439312 0.005713799503
v 0.003196119564 -0.008952160366 0.005713799037
v 0.003219388891 0.009016354568 0.001031139633
v 0.003224233864 -0.009014057927 0.001031129272
v 0.003250811016 0.008552432992 0.01856190152
v 0.003255408257 -0.008550121449 0.01856190711
v 0.003285556333 0.008770100772 0.01188876387
v 0.003290269291 -0.008767768741 0.01188876294
v 0.003302169731 0.008621803485 -0.0001886907703
v 0.003306801897 -0.008619464934 -0.0001886975951
v 0.003406711621 0.00889261812 0.0005001126556
v 0.003411490703 -0.008890222758 0.0005001165555
v 0.003445357783 -0.001741509419 0.03297652677
v 0.003445358016 0.00174151198 0.03297652304
v 0.003486201866 -0.008770765737 0.0002477433882
v 0.003488562535 0.008421627805 0.02131129242
v 0.00349308853 -0.008419187739 0.02131129615
v 0.003541417187 0.008618214168 1.130761302e-05
v 0.00354604749 -0.008615747094 1.130142482e-05
v 0.003598931711 -0.002749998821 0.03243454173
v 0.003598932177 0.002750001848 0.03243454173
v 0.003688818077 0.000885837886 0.03297652677
v 0.003688818775 -0.0008858396905 0.03297653422
v 0.003770902986 1.531436588e-09 0.03297652677
v 0.00377691444 0.008264944889 -0.0003406274482
v 0.003781583626 -0.008262224495 -0.0003406321921
v 0.004140836652 0.00870370958 0.006069098599
v 0.004165827297 0.00816031266 -0.0001887034305
v 0.004170212429 -0.008157507516 -0.0001887027174
v 0.004217934329 0.008246808313 1.129747852e-05
v 0.004222364631 -0.008243977092 1.129536304e-05
v 0.004268653225 0.008531062864 0.01223677676
v 0.00429823529 0.008229644038 0.02131130174
v 0.004302657675 -0.008226767182 0.0213112887
v 0.004576442763 0.008601476438 0.001486597816
v 0.004585819319 -0.008597081527 0.001487044618
v 0.00474425219 0.008452353068 0.0009570499533
v 0.004752297886 -0.008448335342 0.0009576606099
v 0.00475619873 0.008093391545 0.02136442252
v 0.004760547541 -0.008090271614 0.02136442624
v 0.004839473404 0.008162165061 0.0004695782845
v 0.004846154246 -0.008158632554 0.0004703459854
v 0.004972809926 0.008424177766 0.003311770735
v 0.00497733755 -0.008420938626 0.003311775858
v 0.004977548961 0.007612598129 -0.000188711987
v 0.004981639795 -0.007609358057 -0.0001887018152
v 0.004986077547 0.008015586995 0.02143327519
v 0.004990384914 -0.008012341335 0.02143327519
v 0.005065671168 0.00836781878 0.006404484157
v 0.005069473758 0.007411926053 -0.0003406376345
v 0.005070167594 -0.008364532143 0.006404473912
v 0.005073660985 -0.007408475503 -0.0003406457545
v 0.005185051821 0.008021594957 0.01923900843
v 0.005189362448 -0.008018244989 0.01923900656
v 0.005231179297 0.008210136555 0.0125581054
v 0.005235591438 -0.008206759579 0.01255811006
v 0.005400377326 0.00785739813 0.02164229937
v 0.005404599477 -0.007853930816 0.02164230682
v 0.005583678372 0.007779099047 0.02177898027
v 0.005587859079 -0.007775532082 0.02177898586
v 0.005728756078 0.006984449923 -0.0001887202088
v 0.005732509773 -0.006980806123 -0.0001887082617
v 0.005897175521 0.007630891167 0.02210964821
v 0.005901277065 -0.00762715796 0.02210965939
v 0.00592643721 0.007943093777 0.001909891726
v 0.005931027699 -0.007939978503 0.001910203719
v 0.005953778513 0.007939456031 0.006715391297
v 0.005958044901 -0.007935690694 0.0067153899
v 0.006038862746 0.007787469774 0.001384059782
v 0.006040536799 0.007555548567 0.02232891694
v 0.006043510977 -0.00778410444 0.001384357573
v 0.006044597831 -0.007551737595 0.02232892811
v 0.00606259238 0.00751032168 0.000898265338
v 0.006067104638 -0.007506632246 0.0008985739551
v 0.006109053735 0.007628787775 0.01952898689
v 0.006113153882 -0.007624938153 0.01952899806
v 0.006160151679 0.00779891992 0.01284571085
v 0.006161611062 -0.007444421295 0.0009299739613
v 0.006164342165 -0.00779504329 0.01284570247
v 0.00620486401 0.006358718034 -0.0003406516626
v 0.00620845519 -0.006354627199 -0.0003406567266
v 0.006213567685 0.007454207633 0.02273479663
v 0.006217573769 -0.007450305857 0.02273480222
v 0.006274163723 0.007412139326 0.0230004508
v 0.006278146524 -0.007408203091 0.02300044894
v 0.006298351102 0.007043869235 0.02737281471
v 0.006298474967 0.007386185229 0.02331127785
v 0.006298556924 0.007220835891 0.02667701058
v 0.00629855739 0.007167865057 0.02702674083
v 0.006298648659 0.006845111493 0.02764461935
v 0.006302058697 -0.007039949298 0.0273728352
v 0.006302304566 -0.006759574171 0.0277157966
v 0.006302364171 -0.006984366104 0.02747222781
v 0.006302408874 -0.007160448935 0.02704035491
v 0.006302422378 -0.007216898259 0.02667701989
v 0.006302444264 -0.007382235955 0.02331129089
v 0.006411512848 0.006282502785 -0.0001887141698
v 0.006414888427 -0.006278495304 -0.0001887110993
v 0.006609508302 0.007484080736 0.002098985016
v 0.006613862701 -0.007480395492 0.002098689321
v 0.006633692887 0.006429281551 0.02774444409
v 0.006637140177 -0.006425160449 0.02774444409
v 0.006665942725 -0.007012473885 0.02655114792
v 0.006746349391 0.006544563919 0.02755245194
v 0.006749856751 -0.006540377159 0.02755244263
v 0.006793605629 -0.006737106945 0.0272122696
v 0.006951471791 0.007354548201 0.009989134967
v 0.006955422927 -0.007350245025 0.009989126585
v 0.006986940745 0.007138625719 0.0197779797
v 0.006990776397 -0.007134306245 0.01977798343
v 0.007018603384 0.005514179822 -0.000188719001
v 0.007021565922 -0.00550984405 -0.0001887170074
v 0.007026929874 0.006770035718 0.001194679062
v 0.007030804176 -0.00676594954 0.001194670098
v 0.0070425882 0.007289007306 0.01309252717
v 0.007046504878 -0.007284655236 0.01309253089
v 0.007049216889 0.007216306869 0.01635562629
v 0.007085367572 0.005971306469 0.02771052159
v 0.007088575978 -0.005966935307 0.02771051973
v 0.007152416743 0.005133774132 -0.0003406583564
v 0.007155317347 -0.005129145924 -0.0003406536707
v 0.007164224517 0.005892492831 0.0276947841
v 0.007167390548 -0.00588807743 0.02769478224
v 0.00717413798 0.006632157601 0.00123354909
v 0.007179453503 -0.006627034396 0.001233718009
v 0.007199560758 0.006992879789 0.002242126735
v 0.007206725422 -0.006986869965 0.002242011717
v 0.007209976669 0.006659175735 0.0263864994
v 0.007213554345 -0.00665473612 0.0263864994
v 0.007237404119 0.006861149333 0.001719174674
v 0.007243641652 -0.00685550319 0.001719207736
v 0.007279358339 0.006373731419 0.02710124105
v 0.007282782346 -0.006369252689 0.02710122988
v 0.007320809644 0.005649043247 0.02771051414
v 0.007323843893 -0.00564454589 0.02771050856
v 0.007333558518 0.005657970905 0.02769478038
v 0.007336598355 -0.005653463304 0.02769477293
v 0.007543055806 0.006407243665 0.02629623376
v 0.0075436146 0.00468759099 -0.0001887261606
v 0.00754613243 -0.004682974424 -0.0001887180551
v 0.007723471615 0.003698982531 -0.0004562536487
v 0.007725560106 -0.003694032785 -0.0004562636896
v 0.007734740153 0.006025653332 0.001360321301
v 0.007738516666 -0.006021328736 0.001360413153
v 0.007758509368 0.006727362052 0.01020241156
v 0.007762124296 -0.006722626742 0.01020241994
v 0.007785980124 0.005347699393 0.02748861164
v 0.007788643241 -0.005342612043 0.02748941071
v 0.007805681787 0.00654180022 0.01997951046
v 0.00780919753 -0.006537038833 0.01997951791
v 0.007852807641 0.004800182767 0.02771050669
v 0.007855387405 -0.004795396235 0.02771051414
v 0.007865508087 0.006671993528 0.01329153031
v 0.007866398431 0.004807763733 0.02769477293
v 0.007868980989 -0.004802972544 0.02769477852
v 0.007869093679 -0.00666720001 0.01329152938
v 0.007874047384 0.006610055454 0.01655486226
v 0.007886542939 0.003770168871 -0.0003406625474
v 0.007888671942 -0.003765129251 -0.000340661878
v 0.007963676937 0.006044302601 0.02618592232
v 0.007965817116 -0.006038781255 0.02618664317
v 0.007973078638 0.005779986735 0.02689551562
v 0.007975550368 -0.005774660502 0.02689630911
v 0.007980997674 0.003811478848 -0.0001887337567
v 0.007983044721 -0.003806622699 -0.0001887314284
v 0.008117289282 0.005525450222 0.001432421501
v 0.008121181279 -0.005520207342 0.001432672841
v 0.008214883506 0.00226122234 -0.0004562591494
v 0.008216159418 -0.002255996456 -0.0004562604008
v 0.008249612525 0.005691973493 0.0019225945
v 0.008253948763 -0.005686705001 0.001922776806
v 0.008268306963 0.005781772081 0.002448915737
v 0.008273018524 -0.00577648636 0.002449057996
v 0.008295842446 0.003901676973 0.02771050669
v 0.008297937922 -0.003896651557 0.02771051042
v 0.008326132782 0.002895091893 -0.0001887353137
v 0.008327688091 -0.002890052507 -0.0001887342369
v 0.008342963643 0.004725873936 0.02731330693
v 0.008345709182 -0.004720721394 0.02731312998
v 0.008387411013 0.002304741414 -0.0003406637115
v 0.008388712071 -0.002299416577 -0.000340664672
v 0.008464169689 0.0007623933489 -0.0004562667164
v 0.008464599028 -0.0007570262533 -0.0004562697141
v 0.008492915891 0.005987762474 0.01036857162
v 0.008496131748 -0.005982632749 0.01036855765
v 0.008552415296 0.005831512623 0.02012862451
v 0.008555547334 -0.00582635263 0.02012861706
v 0.008575373329 0.001948116696 -0.0001887303952
v 0.008576420136 -0.001942943898 -0.0001887294784
v 0.008589371108 0.00510669034 0.02672039531
v 0.008592433296 -0.005101393443 0.0267202463
v 0.00861608237 0.005941903684 0.01343723573
v 0.008619274013 -0.005936709698 0.01343723387
v 0.008626831695 0.005890183151 0.01669880934
v 0.008628983051 0.005345189944 0.02601433918
v 0.008629997261 -0.005884979386 0.01669880934
v 0.008632246405 -0.005339810159 0.02601416595
v 0.008641497232 0.0007770623197 -0.0003406596952
v 0.008641934022 -0.0007715981337 -0.0003406665637
v 0.008645330556 0.002962818602 0.02771050669
v 0.008646920323 -0.002957607154 0.02771049924
v 0.008726085536 0.0009805583395 -0.0001887257094
v 0.008726610802 -0.0009753045742 -0.0001887389953
v 0.00877667591 2.64025266e-06 -0.0001887333638
v 0.008830127306 0.004039112944 0.02716448531
v 0.008832924999 -0.004034486134 0.02716273442
v 0.008862224407 0.004261409864 0.00154778955
v 0.00886515528 -0.004255928099 0.001548024709
v 0.008897656575 0.001993324375 0.02771050669
v 0.008898726664 -0.001987975091 0.02771050297
v 0.008912896737 0.001996474341 0.02769476362
v 0.009028900415 0.004388008732 0.0020481213
v 0.009032262489 -0.004382382147 0.00204830803
v 0.009050212801 0.001003212761 0.02771050297
v 0.009050751105 -0.0009977854788 0.02771050856
v 0.00906767603 0.004454058129 0.002584972652
v 0.00907144323 -0.004448384047 0.002585108858
v 0.009101420641 2.727581432e-06 0.02771049924
v 0.009123158641 0.004368544091 0.02657162771
v 0.009127080441 -0.004364037421 0.02656993456
v 0.009143526666 0.005146195181 0.010490885
v 0.009146292694 -0.005140715744 0.01049089339
v 0.009200604632 0.004579352215 0.02586785145
v 0.009205616079 -0.004575168714 0.02586626075
v 0.009215365164 0.00501796836 0.02023017034
v 0.009218062274 -0.00501245074 0.02023017779
v 0.009243968874 0.003298767377 0.02703680843
v 0.009245541878 -0.003294252092 0.0270363912
v 0.009282492101 0.005109112244 0.01353469491
v 0.009285236709 -0.005103555508 0.01353468932
v 0.009295608848 0.005066968966 0.01679295488
v 0.009298331104 -0.005061408039 0.01679295488
v 0.009408254176 0.002897141501 0.00163174374
v 0.009410173632 -0.002891516313 0.00163188437
v 0.009575247765 0.003575172974 0.02644398808
v 0.009577153251 -0.003570778063 0.02644358203
v 0.009578813799 -0.002510371385 0.0269322563
v 0.009579140693 0.002515398432 0.0269294288
v 0.009596063755 0.002992165741 0.00214504241
v 0.009598280303 -0.0029864104 0.002145126695
v 0.00961156562 0.002164816717 0.001670639496
v 0.009612919763 -0.002159126569 0.001670710044
v 0.009642052464 0.003043571487 0.002695561387
v 0.009644543752 -0.003037755843 0.00269562914
v 0.009683900513 0.003755833721 0.02574191056
v 0.009686103091 -0.003751744982 0.02574156038
v 0.009699720889 0.004219620489 0.01057604048
v 0.009701987728 -0.004213844892 0.01057604048
v 0.009750088677 0.001468139468 0.001700092223
v 0.009750958532 -0.001462387969 0.001700128894
v 0.009783214889 0.004118341021 0.0202931352
v 0.009785427712 -0.004112519789 0.02029314078
v 0.009827374481 -0.00169308472 0.02684987336
v 0.009828105569 0.001698613516 0.02684680745
v 0.009853343479 0.004190703388 0.01359331328
v 0.009855595417 -0.004184841644 0.01359331887
v 0.00986880064 0.004157620016 0.01684737578
v 0.009868942201 2.933012865e-06 0.001728193369
v 0.009871033952 -0.00415175315 0.01684737206
v 0.009940314107 -0.00272980961 0.02633942477
v 0.009942150675 0.002734984504 0.02633664384
v 0.00994927343 -0.001089751371 0.02680714987
v 0.009949591942 0.00109573768 0.02680537291
v 0.009954634123 0.001524468884 0.002224604134
v 0.009955584072 -0.001518623205 0.002224629978
v 0.009983022697 -0.0008521057316 0.02679494768
v 0.009983199649 0.0008579539717 0.02679374442
v 0.01000662334 0.001557263429 0.002786918776
v 0.01000763755 -0.001551409834 0.002786925761
v 0.01003675442 2.978607881e-06 0.0267749764
v 0.01006867271 0.001118241693 0.002804634394
v 0.01007388253 -0.002876427956 0.02563868836
v 0.01007732004 0.002881721128 0.02563604899
v 0.0100801317 2.991559086e-06 0.002257443033
v 0.01013457123 3.005560075e-06 0.002824656432
v 0.01015087124 0.003225043882 0.01063066069
v 0.0101526035 -0.003219023347 0.01063065883
v 0.01021285821 -0.001849125721 0.02625701763
v 0.01021526661 0.001854973263 0.02625405602
v 0.01024464425 0.003149843076 0.02032649703
v 0.01024633553 -0.003143774578 0.02032649145
v 0.01031724177 0.003203794826 0.01362252887
v 0.01031896193 -0.00319768535 0.01362252701
v 0.01033214573 -0.002086686669 0.02556733787
v 0.01033483073 0.003179353662 0.01687213778
v 0.01033653878 -0.003173232777 0.01687214524
v 0.01036696602 -0.001955733867 0.02555748075
v 0.0103710955 0.001961803529 0.02555465512
v 0.01038484462 -0.0009358657408 0.02620208263
v 0.01038569864 0.0009420404094 0.02620095387
v 0.01044454984 3.089627853e-06 0.02618210763
v 0.01048635971 0.002179447794 0.01066143718
v 0.01048752945 -0.002173247747 0.01066143624
v 0.01055348199 -0.0009944454068 0.02550351992
v 0.01055498235 0.001000723918 0.02550239116
v 0.01058833301 0.002129683504 0.02033920586
v 0.01058947574 -0.00212342781 0.02033921331
v 0.01061873697 3.135455017e-06 0.02548393607
v 0.01066279039 0.002165502869 0.013631735
v 0.01066395175 -0.002159209223 0.01363173407
v 0.01068212558 0.002149386564 0.01687735133
v 0.01068327855 -0.002143079182 0.01687734202
v 0.01069354545 3.156755611e-06 0.009983104654
v 0.0106955599 0.001099827699 0.01067501865
v 0.01069614943 -0.001093513565 0.01067501586
v 0.01080296189 0.001075069769 0.02034025081
v 0.01080353837 -0.001068697195 0.02034025826
v 0.01087859273 0.001092941384 0.01363034174
v 0.01087917853 -0.001086532022 0.01363034733
v 0.01089910697 0.001084939577 0.01687307656
v 0.01089968905 -0.001078517875 0.01687307283
v 0.01094814483 3.225948376e-06 0.01818575151
v 0.01095624734 3.226669833e-06 0.01372794807
f 710 711 720
f 69 85 80
f 64 85 69
f 170 130 142
f 1 3 2
f 2 7 1
f 5 2 3
f 7 2 5
f 29 28 25
f 25 28 23
f 54 47 64
f 64 69 54
f 31 38 37
f 7 38 31
f 1 7 31
f 31 4 1
f 17 38 13
f 13 38 7
f 720 711 715
f 715 717 720
f 719 705 714
f 720 717 719
f 646 640 614
f 648 640 646
f 646 671 648
f 681 671 678
f 611 609 665
f 115 104 117
f 115 117 134
f 590 361 363
f 363 589 590
f 363 45 60
f 150 151 143
f 208 416 343
f 288 332 329
f 329 309 288
f 344 125 109
f 108 131 343
f 343 363 108
f 108 363 93
f 237 255 267
f 333 331 357
f 333 310 304
f 289 331 333
f 333 277 289
f 149 170 142
f 37 38 41
f 9 4 11
f 152 186 147
f 147 150 143
f 186 150 147
f 33 28 29
f 33 47 40
f 29 47 33
f 7 5 10
f 10 5 12
f 10 13 7
f 12 13 10
f 17 13 16
f 16 13 12
f 51 104 40
f 51 54 104
f 40 47 51
f 47 54 51
f 80 104 65
f 104 54 65
f 65 69 80
f 65 54 69
f 42 31 37
f 37 56 42
f 683 650 623
f 623 650 646
f 699 715 711
f 699 650 683
f 717 703 713
f 713 719 717
f 713 702 705
f 705 719 713
f 706 699 683
f 715 699 706
f 717 715 706
f 711 678 675
f 675 678 671
f 675 699 711
f 650 699 675
f 675 671 646
f 646 650 675
f 656 648 671
f 656 671 681
f 681 665 656
f 656 665 609
f 183 175 179
f 289 262 258
f 258 262 223
f 179 201 203
f 203 183 179
f 220 258 223
f 223 203 220
f 220 203 201
f 210 201 197
f 210 197 344
f 344 197 184
f 184 162 344
f 141 136 125
f 141 125 344
f 45 363 46
f 46 47 29
f 29 45 46
f 46 363 361
f 78 363 60
f 93 363 78
f 78 60 68
f 78 89 93
f 343 131 148
f 196 150 186
f 206 164 196
f 164 150 196
f 213 150 164
f 213 191 150
f 164 221 213
f 418 444 425
f 533 579 537
f 328 329 358
f 442 472 444
f 444 418 442
f 442 418 410
f 506 472 514
f 533 537 506
f 549 383 576
f 528 383 566
f 566 383 549
f 362 433 344
f 64 47 362
f 47 46 362
f 362 361 590
f 590 576 362
f 362 576 383
f 362 85 64
f 362 46 361
f 344 109 362
f 362 109 85
f 488 383 528
f 488 362 383
f 136 117 120
f 103 117 104
f 80 85 90
f 85 109 90
f 110 108 93
f 93 89 110
f 131 108 110
f 20 16 12
f 20 5 3
f 12 5 20
f 17 16 20
f 20 23 17
f 26 19 24
f 8 4 9
f 9 11 8
f 424 441 502
f 502 310 424
f 501 304 502
f 304 310 502
f 697 702 686
f 705 702 697
f 697 698 705
f 603 563 600
f 600 639 603
f 367 375 351
f 631 653 627
f 420 405 427
f 409 357 377
f 255 262 272
f 272 267 255
f 292 267 272
f 501 277 286
f 277 333 286
f 409 463 415
f 463 441 415
f 415 441 424
f 424 413 415
f 415 357 409
f 344 433 417
f 445 419 422
f 190 149 175
f 175 183 190
f 183 203 190
f 223 262 231
f 142 130 126
f 130 86 126
f 115 134 126
f 126 134 142
f 126 104 115
f 37 41 55
f 55 63 66
f 41 63 55
f 43 41 38
f 17 23 43
f 43 38 17
f 15 11 18
f 24 19 18
f 18 19 15
f 39 42 44
f 31 42 39
f 44 18 39
f 39 18 11
f 4 31 39
f 39 11 4
f 88 107 75
f 89 84 94
f 143 107 129
f 129 147 143
f 35 33 40
f 28 33 35
f 40 104 35
f 58 42 56
f 646 614 619
f 619 623 646
f 659 653 631
f 688 653 659
f 716 707 700
f 688 693 709
f 709 704 688
f 573 619 614
f 686 702 695
f 703 680 695
f 702 713 695
f 695 713 703
f 708 703 717
f 717 706 708
f 683 623 654
f 689 706 683
f 683 654 689
f 689 654 662
f 689 708 706
f 591 579 533
f 533 506 552
f 552 506 514
f 552 591 533
f 599 591 552
f 636 599 638
f 636 591 599
f 289 258 260
f 216 220 201
f 201 210 216
f 224 220 216
f 216 210 344
f 344 417 216
f 136 159 140
f 140 117 136
f 140 134 117
f 142 134 154
f 154 149 142
f 175 149 154
f 162 184 177
f 179 159 177
f 177 201 179
f 197 201 177
f 177 184 197
f 344 162 157
f 157 141 344
f 363 468 487
f 435 416 425
f 132 148 131
f 131 110 132
f 259 235 257
f 349 235 259
f 232 221 164
f 222 213 221
f 221 232 222
f 440 439 423
f 423 495 440
f 408 402 372
f 416 208 396
f 208 227 396
f 418 396 398
f 398 402 410
f 410 418 398
f 288 309 298
f 298 328 288
f 309 328 298
f 345 328 358
f 358 372 345
f 349 259 345
f 309 329 321
f 321 328 309
f 329 328 321
f 392 313 423
f 392 381 313
f 423 412 392
f 359 381 392
f 305 295 496
f 496 495 305
f 332 295 305
f 279 332 288
f 279 493 496
f 535 495 496
f 456 484 474
f 514 472 474
f 474 484 514
f 462 484 456
f 484 462 482
f 657 665 681
f 459 362 469
f 362 488 469
f 80 90 83
f 83 104 80
f 83 103 104
f 113 90 109
f 113 109 125
f 125 136 113
f 6 20 3
f 19 20 6
f 6 8 19
f 4 8 6
f 6 3 1
f 1 4 6
f 30 45 29
f 29 26 30
f 19 26 22
f 22 26 29
f 29 25 22
f 22 25 23
f 15 19 14
f 19 8 14
f 14 11 15
f 14 8 11
f 594 604 568
f 631 604 633
f 633 659 631
f 639 659 633
f 604 594 633
f 603 639 633
f 633 594 603
f 705 698 696
f 401 430 431
f 622 430 660
f 431 430 622
f 698 697 674
f 568 540 536
f 523 515 563
f 523 517 486
f 486 515 523
f 553 600 563
f 553 515 507
f 563 515 553
f 292 335 312
f 387 375 367
f 391 405 420
f 391 388 405
f 375 387 391
f 391 387 388
f 339 351 375
f 375 391 339
f 667 691 685
f 420 427 582
f 582 427 586
f 660 430 617
f 388 387 499
f 499 387 367
f 367 351 499
f 568 604 570
f 570 540 568
f 357 331 341
f 341 377 357
f 289 277 275
f 275 262 289
f 275 272 262
f 294 304 501
f 501 286 294
f 294 333 304
f 294 286 333
f 424 310 393
f 393 413 424
f 393 415 413
f 357 415 393
f 393 360 357
f 393 380 360
f 447 441 463
f 447 502 441
f 503 502 479
f 483 463 486
f 486 517 483
f 449 445 422
f 478 445 449
f 419 445 443
f 149 190 214
f 214 190 203
f 223 215 214
f 214 203 223
f 163 214 215
f 149 214 163
f 245 231 262
f 245 163 231
f 130 170 153
f 153 146 130
f 180 186 152
f 133 96 105
f 66 63 74
f 74 63 91
f 74 86 66
f 28 35 52
f 23 28 52
f 52 43 23
f 52 35 104
f 59 63 41
f 41 43 59
f 43 52 59
f 59 52 72
f 77 88 56
f 118 110 89
f 89 94 118
f 118 132 110
f 121 135 118
f 135 132 118
f 97 94 84
f 97 118 94
f 143 151 144
f 144 128 143
f 106 96 133
f 88 77 106
f 75 58 67
f 67 58 56
f 67 88 75
f 56 88 67
f 44 42 57
f 42 58 57
f 57 71 101
f 579 623 577
f 623 619 577
f 619 573 577
f 577 537 579
f 629 663 637
f 639 600 637
f 693 663 690
f 690 709 693
f 707 709 690
f 666 659 639
f 639 637 666
f 666 637 663
f 666 663 693
f 666 693 688
f 688 659 666
f 714 704 718
f 704 709 718
f 718 719 714
f 718 707 716
f 718 709 707
f 718 716 720
f 720 719 718
f 534 553 507
f 624 578 620
f 519 488 528
f 507 478 538
f 538 534 507
f 589 587 605
f 605 609 611
f 583 614 640
f 583 571 614
f 589 363 575
f 575 587 589
f 587 575 565
f 571 583 565
f 565 583 587
f 595 656 609
f 648 656 595
f 609 605 595
f 595 605 587
f 640 648 595
f 595 583 640
f 587 583 595
f 614 571 546
f 546 573 614
f 571 565 546
f 602 593 567
f 630 632 602
f 602 632 593
f 630 626 652
f 708 689 692
f 692 689 662
f 560 552 514
f 599 552 560
f 579 591 628
f 591 636 628
f 628 623 579
f 628 654 623
f 662 654 628
f 628 636 662
f 406 421 428
f 258 220 250
f 250 260 258
f 250 220 224
f 224 371 250
f 134 140 161
f 161 154 134
f 161 140 159
f 161 159 179
f 179 175 161
f 175 154 161
f 156 157 162
f 162 177 156
f 156 177 159
f 156 159 136
f 136 141 156
f 141 157 156
f 363 487 382
f 382 575 363
f 457 468 363
f 432 363 343
f 432 435 363
f 343 416 432
f 416 435 432
f 437 435 425
f 520 537 531
f 520 480 537
f 468 480 520
f 476 506 537
f 537 480 476
f 472 506 476
f 444 472 476
f 148 132 155
f 135 158 155
f 155 132 135
f 151 150 174
f 150 191 174
f 160 178 158
f 160 144 151
f 158 144 160
f 151 174 160
f 160 174 178
f 200 178 202
f 191 213 202
f 213 222 202
f 263 257 288
f 263 259 257
f 263 345 259
f 164 165 244
f 244 232 164
f 219 208 200
f 219 227 208
f 200 202 219
f 219 202 222
f 219 222 257
f 257 235 219
f 235 227 219
f 257 222 261
f 261 222 232
f 232 244 261
f 288 257 261
f 410 402 407
f 402 408 407
f 434 408 439
f 456 442 434
f 434 442 410
f 434 462 456
f 439 462 434
f 410 407 434
f 434 407 408
f 423 439 414
f 439 408 414
f 414 412 423
f 414 392 412
f 356 408 372
f 356 372 358
f 356 414 408
f 358 329 356
f 359 392 356
f 392 414 356
f 356 329 332
f 403 418 425
f 403 396 418
f 425 416 403
f 416 396 403
f 349 345 378
f 378 345 372
f 372 402 378
f 402 398 378
f 374 381 359
f 359 355 374
f 306 495 423
f 306 305 495
f 423 313 306
f 306 313 332
f 332 305 306
f 287 295 332
f 332 279 287
f 496 295 287
f 287 279 496
f 472 442 450
f 450 474 472
f 450 442 456
f 456 474 450
f 439 440 446
f 446 440 495
f 611 665 610
f 665 657 610
f 136 120 122
f 122 113 136
f 90 113 95
f 95 83 90
f 21 20 19
f 19 22 21
f 23 20 21
f 21 22 23
f 701 696 685
f 705 696 701
f 714 705 701
f 431 622 625
f 698 674 677
f 674 625 677
f 670 697 686
f 670 674 697
f 517 536 510
f 510 502 503
f 503 517 510
f 501 502 510
f 510 536 501
f 557 536 517
f 557 594 568
f 568 536 557
f 557 523 563
f 517 523 557
f 557 563 603
f 603 594 557
f 501 536 513
f 513 536 540
f 430 401 400
f 401 370 400
f 352 391 365
f 352 339 391
f 365 316 352
f 337 312 335
f 335 351 337
f 351 339 337
f 643 627 653
f 691 667 679
f 679 653 688
f 679 643 653
f 667 643 679
f 688 704 679
f 704 691 679
f 644 685 660
f 644 667 685
f 660 617 644
f 644 617 430
f 608 430 420
f 608 644 430
f 586 427 559
f 427 555 559
f 598 570 604
f 598 604 631
f 631 627 598
f 598 627 586
f 586 555 598
f 555 570 598
f 330 341 331
f 371 384 379
f 379 384 419
f 422 419 397
f 419 384 397
f 224 216 397
f 397 216 417
f 397 371 224
f 397 384 371
f 314 393 310
f 380 393 314
f 310 333 314
f 360 380 373
f 373 354 360
f 461 447 463
f 471 483 479
f 471 479 502
f 492 517 503
f 492 483 517
f 422 417 426
f 426 449 422
f 433 362 436
f 436 417 433
f 436 426 417
f 478 449 481
f 411 443 409
f 419 443 411
f 409 377 411
f 411 379 419
f 377 379 411
f 458 463 409
f 409 443 458
f 486 463 458
f 225 163 215
f 231 163 225
f 225 215 223
f 223 231 225
f 248 262 255
f 248 245 262
f 189 196 186
f 186 180 189
f 206 196 189
f 181 153 170
f 146 153 181
f 55 76 49
f 49 56 37
f 37 55 49
f 49 77 56
f 133 105 137
f 137 105 146
f 130 146 123
f 146 105 123
f 91 63 81
f 104 91 81
f 81 72 104
f 63 59 81
f 81 59 72
f 111 74 91
f 111 91 104
f 104 126 111
f 111 126 86
f 86 74 111
f 104 72 62
f 62 52 104
f 72 52 62
f 27 18 44
f 24 18 27
f 27 26 24
f 27 30 26
f 68 60 61
f 45 30 32
f 30 27 32
f 32 27 34
f 100 84 101
f 100 97 84
f 101 116 100
f 121 118 99
f 118 97 99
f 97 100 99
f 99 100 116
f 114 116 101
f 128 116 114
f 135 128 139
f 128 144 139
f 139 158 135
f 139 144 158
f 101 71 82
f 82 92 101
f 71 57 82
f 82 57 58
f 82 58 75
f 75 92 82
f 138 106 133
f 168 173 138
f 133 166 138
f 138 166 168
f 101 34 53
f 53 57 101
f 34 27 53
f 44 57 53
f 53 27 44
f 684 700 707
f 707 690 684
f 716 700 712
f 700 676 712
f 712 710 720
f 720 716 712
f 672 657 681
f 681 676 672
f 580 538 578
f 534 538 580
f 580 624 629
f 578 624 580
f 600 553 592
f 553 534 592
f 534 580 592
f 592 580 629
f 629 637 592
f 592 637 600
f 578 538 551
f 573 546 518
f 567 545 539
f 539 493 511
f 539 545 535
f 496 493 539
f 539 535 496
f 686 695 668
f 668 695 680
f 703 708 687
f 708 692 687
f 687 680 703
f 687 652 680
f 638 632 658
f 652 687 658
f 658 632 630
f 630 652 658
f 599 560 601
f 638 599 601
f 601 632 638
f 593 632 601
f 514 484 522
f 522 560 514
f 429 401 431
f 554 428 558
f 508 389 406
f 508 525 511
f 406 428 508
f 428 525 508
f 406 389 390
f 390 389 386
f 336 350 334
f 340 350 336
f 266 293 256
f 256 236 266
f 226 165 164
f 226 236 165
f 226 164 206
f 548 565 575
f 575 382 548
f 548 382 565
f 363 435 452
f 452 457 363
f 452 480 468
f 468 457 452
f 158 178 176
f 176 155 158
f 176 178 200
f 178 174 182
f 182 202 178
f 182 174 191
f 191 202 182
f 328 345 317
f 345 263 317
f 256 261 249
f 249 261 244
f 249 244 165
f 249 236 256
f 165 236 249
f 273 261 256
f 493 279 273
f 273 279 288
f 288 261 273
f 256 293 273
f 273 293 493
f 385 398 396
f 385 378 398
f 349 378 385
f 385 235 349
f 385 227 235
f 385 396 227
f 348 355 359
f 359 342 348
f 322 374 355
f 355 348 322
f 313 381 322
f 381 374 322
f 322 348 342
f 322 342 359
f 359 356 322
f 332 313 322
f 322 356 332
f 535 545 556
f 567 593 556
f 556 545 567
f 460 462 439
f 439 446 460
f 464 495 466
f 495 470 466
f 466 470 482
f 466 460 464
f 466 482 462
f 462 460 466
f 611 610 606
f 606 605 611
f 590 589 606
f 589 605 606
f 103 83 98
f 83 95 98
f 98 95 113
f 685 691 694
f 694 701 685
f 714 701 694
f 694 704 714
f 694 691 704
f 660 685 669
f 685 696 669
f 669 622 660
f 673 696 698
f 698 677 673
f 673 669 696
f 673 677 625
f 673 625 622
f 622 669 673
f 501 513 498
f 272 275 498
f 498 277 501
f 498 275 277
f 512 513 540
f 540 570 512
f 570 526 512
f 292 312 296
f 312 284 296
f 237 217 209
f 209 163 237
f 209 207 163
f 420 430 395
f 430 400 395
f 395 391 420
f 365 391 395
f 395 400 365
f 365 400 368
f 368 400 370
f 368 316 365
f 307 352 316
f 307 276 302
f 316 276 307
f 302 339 307
f 339 352 307
f 312 337 300
f 302 276 300
f 300 339 302
f 300 337 339
f 586 627 613
f 627 643 613
f 613 582 586
f 635 643 667
f 667 644 635
f 635 613 643
f 644 608 635
f 582 613 635
f 420 582 635
f 635 608 420
f 562 555 586
f 586 559 562
f 562 559 555
f 530 570 555
f 530 526 570
f 427 526 530
f 289 330 301
f 404 417 422
f 422 397 404
f 404 397 417
f 357 360 323
f 354 373 323
f 323 333 357
f 323 314 333
f 380 314 323
f 323 373 380
f 455 461 465
f 447 461 455
f 455 465 502
f 502 447 455
f 465 461 467
f 483 471 467
f 463 483 467
f 467 461 463
f 502 465 467
f 467 471 502
f 479 483 490
f 483 492 490
f 503 479 490
f 490 492 503
f 449 426 438
f 438 436 449
f 426 436 438
f 485 538 478
f 478 481 485
f 485 481 469
f 451 458 443
f 163 245 167
f 245 248 167
f 167 248 255
f 167 255 237
f 237 163 167
f 185 181 170
f 170 149 185
f 181 185 188
f 73 49 76
f 77 49 73
f 73 105 96
f 76 105 73
f 96 106 73
f 73 106 77
f 87 105 76
f 87 123 105
f 66 86 87
f 87 86 130
f 130 123 87
f 87 55 66
f 87 76 55
f 70 61 101
f 68 61 70
f 121 99 119
f 119 99 116
f 119 135 121
f 119 128 135
f 119 116 128
f 127 114 101
f 127 107 143
f 143 128 127
f 128 114 127
f 145 138 173
f 145 180 152
f 145 173 180
f 152 147 145
f 700 684 651
f 651 684 624
f 651 676 700
f 624 684 655
f 655 663 629
f 629 624 655
f 655 690 663
f 655 684 690
f 682 676 681
f 682 712 676
f 710 712 682
f 711 710 682
f 681 678 682
f 682 678 711
f 620 615 647
f 647 624 620
f 647 651 624
f 647 672 676
f 676 651 647
f 547 572 615
f 547 519 528
f 528 566 547
f 566 572 547
f 578 551 574
f 620 578 574
f 574 615 620
f 574 547 615
f 574 551 519
f 519 547 574
f 588 576 590
f 590 606 588
f 549 576 588
f 588 566 549
f 550 518 531
f 573 518 550
f 550 577 573
f 531 537 550
f 537 577 550
f 531 518 504
f 504 518 487
f 504 520 531
f 504 487 468
f 468 520 504
f 527 518 546
f 527 546 565
f 487 518 527
f 565 382 527
f 527 382 487
f 541 428 554
f 529 525 428
f 428 541 529
f 569 529 554
f 569 602 567
f 567 539 569
f 525 529 569
f 511 525 569
f 569 539 511
f 634 668 642
f 626 612 642
f 642 612 634
f 642 652 626
f 680 652 642
f 642 668 680
f 645 668 634
f 686 668 645
f 585 612 626
f 585 558 428
f 664 687 692
f 664 658 687
f 664 692 662
f 638 658 664
f 664 636 638
f 662 636 664
f 394 429 421
f 394 421 406
f 406 390 394
f 394 364 369
f 394 390 353
f 353 364 394
f 497 334 350
f 350 366 497
f 493 293 497
f 293 334 497
f 497 366 386
f 511 493 497
f 386 389 497
f 497 508 511
f 389 508 497
f 376 390 386
f 386 366 376
f 353 390 376
f 376 340 353
f 376 366 350
f 350 340 376
f 252 266 236
f 194 173 168
f 168 166 194
f 435 437 448
f 448 452 435
f 425 444 448
f 448 437 425
f 480 452 448
f 444 476 448
f 448 476 480
f 200 208 187
f 187 176 200
f 187 208 343
f 288 328 326
f 326 317 288
f 328 317 326
f 278 263 288
f 288 317 278
f 278 317 263
f 564 601 560
f 560 522 564
f 593 601 564
f 564 556 593
f 464 460 454
f 454 460 446
f 454 495 464
f 454 446 495
f 482 470 477
f 477 470 495
f 495 494 477
f 535 556 516
f 495 535 516
f 516 494 495
f 113 122 102
f 102 98 113
f 102 122 120
f 102 120 117
f 117 103 102
f 103 98 102
f 500 498 513
f 513 512 500
f 500 512 499
f 500 351 335
f 500 499 351
f 500 335 292
f 292 272 500
f 272 498 500
f 509 512 526
f 509 427 405
f 509 526 427
f 499 512 509
f 405 388 509
f 388 499 509
f 283 296 284
f 292 296 283
f 283 267 292
f 283 269 267
f 311 334 293
f 293 297 311
f 336 334 311
f 293 266 282
f 282 297 293
f 285 311 297
f 290 284 312
f 312 300 290
f 290 276 284
f 290 300 276
f 542 555 427
f 427 530 542
f 324 330 331
f 324 301 330
f 324 331 289
f 289 301 324
f 289 260 274
f 274 318 289
f 260 318 274
f 327 330 289
f 289 318 327
f 327 318 330
f 338 318 260
f 338 250 371
f 260 250 338
f 341 330 338
f 330 318 338
f 360 354 347
f 347 323 360
f 354 323 347
f 453 481 449
f 449 436 453
f 459 469 453
f 469 481 453
f 453 362 459
f 453 436 362
f 538 485 521
f 521 485 469
f 475 515 486
f 486 458 475
f 458 451 475
f 473 451 443
f 473 445 478
f 473 443 445
f 473 478 507
f 473 475 451
f 507 515 473
f 515 475 473
f 181 188 212
f 212 188 207
f 212 209 217
f 207 209 212
f 207 188 195
f 195 188 185
f 195 185 149
f 149 163 195
f 163 207 195
f 36 34 101
f 101 48 36
f 36 48 45
f 45 32 36
f 36 32 34
f 101 61 50
f 50 48 101
f 50 61 60
f 60 45 50
f 45 48 50
f 101 84 79
f 79 70 101
f 68 70 79
f 79 84 89
f 79 78 68
f 89 78 79
f 101 92 112
f 112 127 101
f 112 92 75
f 75 107 112
f 107 127 112
f 106 138 124
f 138 145 124
f 124 129 107
f 147 129 124
f 124 145 147
f 107 88 124
f 88 106 124
f 596 606 610
f 596 588 606
f 596 610 657
f 543 541 554
f 554 529 543
f 543 529 541
f 607 645 634
f 429 645 607
f 634 421 607
f 421 429 607
f 616 645 429
f 597 569 554
f 554 585 597
f 597 585 626
f 602 569 597
f 597 626 630
f 630 602 597
f 554 558 561
f 561 585 554
f 558 585 561
f 612 585 581
f 634 612 581
f 581 585 428
f 581 421 634
f 581 428 421
f 401 429 399
f 429 394 399
f 399 394 369
f 369 370 399
f 399 370 401
f 176 187 171
f 148 155 171
f 155 176 171
f 343 148 171
f 171 187 343
f 482 477 489
f 489 477 494
f 556 564 524
f 524 516 556
f 524 564 522
f 524 522 484
f 484 482 524
f 482 516 524
f 266 252 268
f 268 282 266
f 268 252 271
f 316 368 320
f 320 276 316
f 308 276 315
f 276 319 315
f 353 308 315
f 315 364 353
f 369 364 315
f 315 319 369
f 271 276 281
f 276 285 281
f 281 268 271
f 282 268 281
f 297 282 281
f 281 285 297
f 336 311 299
f 544 530 555
f 555 542 544
f 544 542 530
f 371 379 346
f 346 338 371
f 346 379 377
f 377 341 346
f 341 338 346
f 532 551 538
f 538 521 532
f 519 551 532
f 269 283 270
f 276 241 242
f 242 212 217
f 237 267 251
f 267 269 251
f 641 647 615
f 621 429 431
f 674 670 621
f 431 625 621
f 621 625 674
f 645 616 618
f 169 166 133
f 133 137 169
f 169 137 146
f 241 199 204
f 204 242 241
f 212 242 204
f 181 212 204
f 204 199 181
f 494 516 491
f 491 489 494
f 491 516 482
f 482 489 491
f 325 319 276
f 276 320 325
f 325 370 369
f 369 319 325
f 325 368 370
f 325 320 368
f 303 276 308
f 303 299 276
f 353 340 303
f 303 308 353
f 303 340 336
f 336 299 303
f 291 285 276
f 276 299 291
f 311 285 291
f 291 299 311
f 488 519 505
f 519 532 505
f 505 532 521
f 505 469 488
f 505 521 469
f 234 230 276
f 194 230 234
f 246 243 276
f 276 253 246
f 206 189 211
f 211 189 180
f 233 241 276
f 276 229 233
f 233 199 241
f 233 229 199
f 276 230 228
f 228 229 276
f 228 230 194
f 284 276 280
f 276 270 280
f 280 283 284
f 280 270 283
f 276 254 265
f 265 270 276
f 254 251 265
f 269 270 265
f 265 251 269
f 247 254 276
f 276 242 247
f 217 254 247
f 247 242 217
f 239 254 217
f 239 251 254
f 239 217 237
f 237 251 239
f 588 596 584
f 596 641 584
f 584 572 566
f 566 588 584
f 615 572 584
f 584 641 615
f 649 596 657
f 649 641 596
f 657 672 649
f 672 647 649
f 647 641 649
f 661 616 429
f 429 621 661
f 661 621 670
f 661 618 616
f 645 618 661
f 661 670 686
f 686 645 661
f 181 199 172
f 199 169 172
f 146 181 172
f 172 169 146
f 276 243 240
f 240 234 276
f 243 211 240
f 271 252 264
f 252 253 264
f 264 276 271
f 264 253 276
f 218 226 206
f 206 211 218
f 218 246 253
f 243 246 218
f 218 211 243
f 194 234 198
f 180 173 198
f 173 194 198
f 229 228 192
f 192 228 194
f 192 194 166
f 166 169 192
f 236 226 238
f 226 218 238
f 238 252 236
f 238 253 252
f 238 218 253
f 205 240 211
f 205 211 180
f 180 198 205
f 234 240 205
f 205 198 234
f 199 229 193
f 229 192 193
f 193 169 199
f 193 192 169
