v -0.04090000689 -0.03943637013 -2.134822452e-08
v -0.04090000689 -0.03809261322 0.01020686049
v -0.04090000689 -0.03809260577 -0.01020690147
v -0.04090000689 -0.03415291011 0.01971816272
v -0.04090000689 -0.03415289149 -0.01971820183
v -0.04090000689 -0.02788574249 0.02788570337
v -0.04090000689 -0.02788571082 -0.02788574435
v -0.04090000689 -0.01971820928 0.03415288776
v -0.04090000689 -0.01971817017 -0.03415291011
v -0.04090000689 -0.01020691171 0.03809260204
v -0.04090000689 -0.01020686701 -0.03809261322
v -0.04090000689 2.448405367e-11 0.03943637013
v -0.04090000689 1.538157335e-08 -0.03943637013
v -0.04090000689 0.01020688377 0.03809260949
v -0.04090000689 0.01020689681 -0.03809260577
v -0.04090000689 0.01971818507 0.03415289894
v -0.04090000689 0.01971819438 -0.03415289521
v -0.04090000689 0.02788572572 0.027885722
v -0.04090000689 0.02788573317 -0.027885722
v -0.04090000689 0.03415290266 -0.0197181832
v -0.04090000689 0.03415290266 0.01971817948
v -0.04090000689 0.03809260949 0.01020688191
v -0.04090000689 0.03809261322 -0.01020688191
v -0.04090000689 0.03943637013 -3.640687751e-11
v -0.04089999944 1.086543078e-09 -7.220510856e-09
v 0.03821992874 -0.03943637013 -1.851690712e-08
v 0.03821992874 -0.03809261322 0.01020686515
v 0.03821992874 -0.03809260577 -0.01020689867
v 0.03821992874 -0.03415291011 0.01971816644
v 0.03821992874 -0.03415289149 -0.01971819811
v 0.03821992874 -0.02788574249 0.0278857071
v 0.03821992874 -0.02788571082 -0.02788574062
v 0.03821992874 -0.01971820928 0.03415288404
v 0.03821992874 -0.01971817017 -0.03415291384
v 0.03821992874 -0.01020691171 0.03809259832
v 0.03821992874 -0.01020686701 -0.03809261695
v 0.03821992874 2.341971062e-11 0.03943636641
v 0.03821992874 1.538050931e-08 -0.03943637386
v 0.03821992874 0.01020688377 0.03809260577
v 0.03821992874 0.01020689681 -0.03809260949
v 0.03821992874 0.01971818507 0.03415289521
v 0.03821992874 0.01971819438 -0.03415289894
v 0.03821992874 0.02788572572 0.02788572572
v 0.03821992874 0.02788573317 -0.02788571827
v 0.03821992874 0.03415290266 -0.01971817948
v 0.03821992874 0.03415290266 0.0197181832
v 0.03821992874 0.03809260949 0.01020688564
v 0.03821992874 0.03809261322 -0.01020687819
v 0.03821992874 0.03943637013 2.794911413e-09
v 0.04726905003 -0.008558533154 -7.199157714e-09
v 0.04726905003 -0.008266908117 -0.002215117682
v 0.04726905003 -0.007411906496 -0.004279273096
v 0.04726905003 -0.006051795557 -0.006051803939
v 0.04726905003 -0.00427926518 -0.007411912084
v 0.04726905003 -0.002215108601 -0.008266910911
v 0.04726905003 1.975514197e-09 -0.008558535017
v 0.04726905003 0.002215113025 -0.008266909979
v 0.04726905003 0.004279266577 -0.00741190929
v 0.04726905003 0.006051796488 -0.006051798817
v 0.04726905003 0.007411906961 -0.004279269371
v 0.04726905003 0.008266908117 -0.002215113724
v 0.04726905003 0.008558532223 -2.57403987e-09
v 0.04726905376 -0.008266909979 0.002215103945
v 0.04726905376 -0.007411910687 0.004279258195
v 0.04726905376 -0.006051802076 0.006051789038
v 0.04726905376 -0.004279273562 0.007411901839
v 0.04726905376 -0.002215118613 0.008266904391
v 0.04726905376 -1.357301604e-09 0.00855853036
v 0.04726905376 0.002215110231 0.008266906254
v 0.04726905376 0.004279264249 0.007411905099
v 0.04726905376 0.006051795091 0.006051792763
v 0.04726905376 0.007411906961 0.004279261921
v 0.04726905376 0.008266907185 0.002215108369
v 0.04726906866 -0.02119010501 -1.240489311e-08
v 0.04726906866 -0.02046806924 -0.005484413821
v 0.04726906866 -0.01835116558 -0.01059506182
v 0.04726906866 -0.01498366054 -0.01498367731
v 0.04726906866 -0.01059504598 -0.01835117489
v 0.04726906866 -0.005484394729 -0.0204680711
v 0.04726906866 6.738433811e-09 -0.02119010314
v 0.04726906866 0.005484408233 -0.02046806738
v 0.04726906866 0.0105950553 -0.01835116744
v 0.04726906866 0.01498366892 -0.0149836652
v 0.04726906866 0.0183511693 -0.01059505157
v 0.04726906866 0.02046806924 -0.005484403577
v 0.04726906866 0.02119010128 -9.535447987e-10
v 0.04726907238 -0.02046807297 0.005484388676
v 0.04726907238 -0.01835117675 0.01059503946
v 0.04726907238 -0.01498367731 0.01498365402
v 0.04726907238 -0.01059506647 0.01835116185
v 0.04726907238 -0.005484418944 0.02046806552
v 0.04726907238 -1.513297154e-09 0.02119010314
v 0.04726907238 0.005484401248 0.02046806924
v 0.04726907238 0.01059504971 0.0183511693
v 0.04726907238 0.0149836652 0.01498366427
v 0.04726907238 0.0183511693 0.01059504785
v 0.04726907238 0.02046806738 0.005484399851
v 0.05184588209 -0.008558533154 -7.199157714e-09
v 0.05184588209 -0.008266908117 -0.002215117682
v 0.05184588209 -0.007411906496 -0.004279272631
v 0.05184588209 -0.006051795557 -0.006051803473
v 0.05184588209 -0.00427926518 -0.007411911618
v 0.05184588209 -0.002215108601 -0.008266910911
v 0.05184588209 1.975514197e-09 -0.008558535017
v 0.05184588209 0.002215113025 -0.008266909979
v 0.05184588209 0.004279266577 -0.007411908824
v 0.05184588209 0.006051796488 -0.006051798351
v 0.05184588209 0.007411906961 -0.004279268906
v 0.05184588209 0.008266908117 -0.002215113724
v 0.05184588209 0.008558532223 -2.57403987e-09
v 0.05184588581 -0.008266909979 0.002215103945
v 0.05184588581 -0.007411910687 0.004279258661
v 0.05184588581 -0.006051802076 0.006051789504
v 0.05184588581 -0.004279273562 0.007411902305
v 0.05184588581 -0.002215118613 0.008266904391
v 0.05184588581 -1.357301604e-09 0.00855853036
v 0.05184588581 0.002215110231 0.008266906254
v 0.05184588581 0.004279264249 0.007411905564
v 0.05184588581 0.006051795091 0.006051793229
v 0.05184588581 0.007411906961 0.004279262386
v 0.05184588581 0.008266907185 0.002215108369
v 0.05184590071 -9.895302355e-10 -3.787340219e-09
f 37 39 14
f 14 12 37
f 39 41 16
f 16 14 39
f 41 43 18
f 18 16 41
f 43 46 21
f 21 18 43
f 46 47 22
f 22 21 46
f 47 49 24
f 24 22 47
f 49 48 23
f 23 24 49
f 48 45 20
f 20 23 48
f 45 44 19
f 19 20 45
f 44 42 17
f 17 19 44
f 42 40 15
f 15 17 42
f 40 38 13
f 13 15 40
f 38 36 11
f 11 13 38
f 36 34 9
f 9 11 36
f 34 32 7
f 7 9 34
f 32 30 5
f 5 7 32
f 30 28 3
f 3 5 30
f 28 26 1
f 1 3 28
f 26 27 2
f 2 1 26
f 27 29 4
f 4 2 27
f 29 31 6
f 6 4 29
f 31 33 8
f 8 6 31
f 33 35 10
f 10 8 33
f 35 37 12
f 12 10 35
f 37 92 93
f 93 39 37
f 39 93 94
f 94 41 39
f 41 94 95
f 95 43 41
f 43 95 96
f 96 46 43
f 46 96 97
f 97 47 46
f 47 97 86
f 86 49 47
f 49 86 85
f 85 48 49
f 48 85 84
f 84 45 48
f 45 84 83
f 83 44 45
f 44 83 82
f 82 42 44
f 42 82 81
f 81 40 42
f 40 81 80
f 80 38 40
f 38 80 79
f 79 36 38
f 36 79 78
f 78 34 36
f 34 78 77
f 77 32 34
f 32 77 76
f 76 30 32
f 30 76 75
f 75 28 30
f 28 75 74
f 74 26 28
f 26 74 87
f 87 27 26
f 27 87 88
f 88 29 27
f 29 88 89
f 89 31 29
f 31 89 90
f 90 33 31
f 33 90 91
f 91 35 33
f 35 91 92
f 92 37 35
f 93 92 68
f 68 69 93
f 94 93 69
f 69 70 94
f 95 94 70
f 70 71 95
f 96 95 71
f 71 72 96
f 97 96 72
f 72 73 97
f 86 97 73
f 73 62 86
f 85 86 62
f 62 61 85
f 84 85 61
f 61 60 84
f 83 84 60
f 60 59 83
f 82 83 59
f 59 58 82
f 81 82 58
f 58 57 81
f 80 81 57
f 57 56 80
f 79 80 56
f 56 55 79
f 78 79 55
f 55 54 78
f 77 78 54
f 54 53 77
f 76 77 53
f 53 52 76
f 75 76 52
f 52 51 75
f 74 75 51
f 51 50 74
f 87 74 50
f 50 63 87
f 88 87 63
f 63 64 88
f 89 88 64
f 64 65 89
f 90 89 65
f 65 66 90
f 91 90 66
f 66 67 91
f 92 91 67
f 67 68 92
f 69 68 116
f 116 117 69
f 70 69 117
f 117 118 70
f 71 70 118
f 118 119 71
f 72 71 119
f 119 120 72
f 73 72 120
f 120 121 73
f 62 73 121
f 121 110 62
f 61 62 110
f 110 109 61
f 60 61 109
f 109 108 60
f 59 60 108
f 108 107 59
f 58 59 107
f 107 106 58
f 57 58 106
f 106 105 57
f 56 57 105
f 105 104 56
f 55 56 104
f 104 103 55
f 54 55 103
f 103 102 54
f 53 54 102
f 102 101 53
f 52 53 101
f 101 100 52
f 51 52 100
f 100 99 51
f 50 51 99
f 99 98 50
f 63 50 98
f 98 111 63
f 64 63 111
f 111 112 64
f 65 64 112
f 112 113 65
f 66 65 113
f 113 114 66
f 67 66 114
f 114 115 67
f 68 67 115
f 115 116 68
f 117 116 122
f 118 117 122
f 119 118 122
f 120 119 122
f 121 120 122
f 110 121 122
f 109 110 122
f 108 109 122
f 107 108 122
f 106 107 122
f 105 106 122
f 104 105 122
f 103 104 122
f 102 103 122
f 101 102 122
f 100 101 122
f 99 100 122
f 98 99 122
f 111 98 122
f 112 111 122
f 113 112 122
f 114 113 122
f 115 114 122
f 116 115 122
f 12 14 25
f 14 16 25
f 16 18 25
f 18 21 25
f 21 22 25
f 22 24 25
f 24 23 25
f 23 20 25
f 20 19 25
f 19 17 25
f 17 15 25
f 15 13 25
f 13 11 25
f 11 9 25
f 9 7 25
f 7 5 25
f 5 3 25
f 3 1 25
f 1 2 25
f 2 4 25
f 4 6 25
f 6 8 25
f 8 10 25
f 10 12 25
