v -0.05589734018 0.0006066989736 -0.05012392998
v -0.05589734018 0.0006066989736 0.05012392998
v -0.05565078184 0.0005802631495 -0.05317009985
v -0.05565078184 0.0005802631495 0.05317009985
v -0.05519367754 0.0007710313657 -0.04749342799
v -0.05519367754 0.0007710313657 0.04749342799
v -0.05512014404 0.0006576013402 -0.05682525039
v -0.05512014404 0.0006576013402 0.05682525039
v -0.05510186031 -0.01024374925 -0.0503799729
v -0.05510186031 -0.01024374925 0.0503799729
v -0.05484301969 -0.01011814084 -0.05338317901
v -0.05484301969 -0.01011814084 0.05338317901
v -0.05466480926 0.01204305142 -0.04927172884
v -0.05466480926 0.01204305142 0.04927172884
v -0.0544978939 0.01247338764 -0.05221333727
v -0.0544978939 0.01247338764 0.05221333727
v -0.05446521193 -0.01001771446 -0.04753628001
v -0.05446521193 -0.01001771446 0.04753628001
v -0.05427442491 0.001045470242 -0.04748222232
v -0.05427442491 0.001045470242 0.04748222232
v -0.05409150571 -0.009994783439 -0.05682525039
v -0.05409150571 -0.009994783439 0.05682525039
v -0.05388145894 0.0007538747741 -0.06169986725
v -0.05388145894 0.0007538747741 -0.04900000617
v -0.05388145894 0.0007538747741 0.04900000617
v -0.05388145894 0.0007538747741 0.06169986725
v -0.05369146541 0.01285975892 -0.05606348068
v -0.05369146541 0.01285975892 0.05606348068
v -0.05360341817 0.01128390245 -0.04722028226
v -0.05360341817 0.01128390245 0.04722028226
v -0.05347833037 -0.009857029654 -0.0474820286
v -0.05347833037 -0.009857029654 0.0474820286
v -0.05297683924 0.01118174568 -0.04748262465
v -0.05297683924 0.01118174568 0.04748262465
v -0.05284997821 0.01122669689 -0.04900000617
v -0.05284997821 0.01122669689 0.04900000617
v -0.05284996703 -0.009718947113 -0.06164296344
v -0.05284996703 -0.009718947113 -0.04900000617
v -0.05284996703 -0.009718947113 0.04900000617
v -0.05284996703 -0.009718947113 0.06164296344
v -0.05225247145 0.02428522147 -0.0500741154
v -0.05225247145 0.02428522147 0.0500741154
v -0.05220622569 -0.0209911298 -0.05035916716
v -0.05220622569 -0.0209911298 0.05035916716
v -0.05195815489 0.02307177708 -0.04774080217
v -0.05195815489 0.02307177708 0.04774080217
v -0.05185291544 -0.02106160671 -0.05334606394
v -0.05185291544 -0.02106160671 0.05334606394
v -0.0515502505 -0.02061612532 -0.04748721793
v -0.0515502505 -0.02061612532 0.04748721793
v -0.0511688441 0.01439109724 -0.06175784767
v -0.0511688441 0.01439109724 0.06175784767
v -0.05114872381 -0.02084602229 -0.05675154179
v -0.05114872381 -0.02084602229 0.05675154179
v -0.05070393533 0.02635989524 -0.05441636592
v -0.05070393533 0.02635989524 0.05441636592
v -0.05065229908 -0.02019055746 -0.04748205096
v -0.05065229908 -0.02019055746 0.04748205096
v -0.05043207854 0.02171222307 -0.04704850912
v -0.05043207854 0.02171222307 0.04704850912
v -0.05022418872 0.09078295529 7.899623198e-32
v -0.05011697114 0.09070459008 -0.005052450579
v -0.05011697114 0.09070459008 0.005052450579
v -0.04990743846 0.02139971033 -0.04748281837
v -0.04990743846 0.02139971033 0.04748281837
v -0.04979517311 0.02129705437 -0.04900000617
v -0.04979517311 0.02129705437 0.04900000617
v -0.04979515448 -0.01978930831 -0.04900000617
v -0.04979515448 -0.01978930831 0.04900000617
v -0.04978011921 0.095975779 8.351485009e-32
v -0.04963367805 0.09587483853 -0.00525476085
v -0.04963367805 0.09587483853 0.00525476085
v -0.04958087206 -0.02019019611 -0.06149119884
v -0.04958087206 -0.02019019611 0.06149119884
v -0.04922379926 0.09019870311 -0.01254260167
v -0.04922379926 0.09019870311 0.01254260167
v -0.04899010062 0.1068908572 9.301277895e-32
v -0.04877002165 0.1067919731 -0.005600036122
v -0.04877002165 0.1067919731 0.005600036122
v -0.04872165993 0.03522564843 -0.04851845652
v -0.04872165993 0.03522564843 0.04851845652
v -0.04862716049 0.09544578195 -0.01281170454
v -0.04862716049 0.09544578195 0.01281170454
v -0.04836933687 0.1184904948 1.03106388e-31
v -0.0480832532 0.1184259132 -0.00587954605
v -0.0480832532 0.1184259132 0.00587954605
v -0.04801363871 0.1305170059 1.135714479e-31
v -0.04793591425 0.1523985118 1.326119881e-31
v -0.04788973182 0.1424534023 1.23958093e-31
v -0.04766426608 0.08914616704 -0.0196342431
v -0.04766426608 0.08914616704 0.0196342431
v -0.04764296487 0.1304974854 -0.006178709213
v -0.04764296487 0.1304974854 0.006178709213
v -0.04762423411 0.1065519154 -0.01304346696
v -0.04762423411 0.1065519154 0.01304346696
v -0.04761054367 0.03327215835 -0.04700839892
v -0.04761054367 0.03327215835 0.04700839892
v -0.04750011861 0.1610000134 1.400967215e-31
v -0.04750011861 0.1710000038 1.487983722e-31
v -0.04747639224 0.1425072104 -0.006511529442
v -0.04747639224 0.1425072104 0.006511529442
v -0.04747254774 0.152320385 -0.006838072557
v -0.04747254774 0.152320385 0.006838072557
v -0.04734104127 0.03629753366 -0.05358093232
v -0.04734104127 0.03629753366 0.05358093232
v -0.0472355932 -0.03063518927 -0.05029223859
v -0.0472355932 -0.03063518927 0.05029223859
v -0.04696636647 0.1610000134 -0.007123698015
v -0.04696636647 0.1610000134 0.007123698015
v -0.04696636647 0.1710000038 -0.007123698015
v -0.04696636647 0.1710000038 0.007123698015
v -0.04693043232 -0.03063654341 -0.05325420573
v -0.04693043232 -0.03063654341 0.05325420573
v -0.04686721042 0.09458257258 -0.02003328688
v -0.04686721042 0.09458257258 0.02003328688
v -0.04684296623 0.1183575392 -0.0130956918
v -0.04684296623 0.1183575392 0.0130956918
v -0.04668544605 0.0007538747741 -0.06707882136
v -0.04668544605 0.0007538747741 0.06707882136
v -0.04661761597 -0.03024666198 -0.0475040935
v -0.04661761597 -0.03024666198 0.0475040935
v -0.04633576423 -0.03021692671 -0.05665045977
v -0.04633576423 -0.03021692671 0.05665045977
v -0.04630639404 0.1305701435 -0.0132381618
v -0.04630639404 0.1305701435 0.0132381618
v -0.04602015764 0.1427113712 -0.01355307177
v -0.04602015764 0.1427113712 0.01355307177
v -0.04588865489 0.1521156281 -0.01394358464
v -0.04588865489 0.1521156281 0.01394358464
v -0.04579222947 -0.008315071464 -0.06707882136
v -0.04579222947 -0.008315071464 0.06707882136
v -0.04575542361 -0.02965622395 -0.04748221114
v -0.04575542361 -0.02965622395 0.04748221114
v -0.04568537697 0.03134641796 -0.04697492346
v -0.04568537697 0.03134641796 0.04697492346
v -0.04566571116 0.08137080818 7.080610252e-32
v -0.04561209679 0.08134052902 -0.004278786015
v -0.04561209679 0.08134052902 0.004278786015
v -0.04560071975 0.10615623 -0.02014626004
v -0.04560071975 0.10615623 0.02014626004
v -0.04558030143 0.08765570074 -0.02630339004
v -0.04558030143 0.08765570074 0.02630339004
v -0.04529555142 0.1610000134 -0.01431218907
v -0.04529555142 0.1610000134 0.01431218907
v -0.04529555142 0.1710000038 -0.01431218907
v -0.04529555142 0.1710000038 0.01431218907
v -0.04501070827 0.08089395612 -0.01091267169
v -0.04501070827 0.08089395612 0.01091267169
v -0.04495863244 0.03069505468 -0.04748161137
v -0.04495863244 0.03069505468 0.04748161137
v -0.0448577106 0.0307162106 -0.06183532625
v -0.0448577106 0.0307162106 0.06183532625
v -0.04483442754 0.03057795018 -0.04900000617
v -0.04483442754 0.03057795018 0.04900000617
v -0.04483440891 -0.0290702004 -0.06136520207
v -0.04483440891 -0.0290702004 -0.04900000617
v -0.04483440891 -0.0290702004 0.04900000617
v -0.04483440891 -0.0290702004 0.06136520207
v -0.04466772452 0.1182921752 -0.01998502389
v -0.04466772452 0.1182921752 0.01998502389
v -0.04450357333 0.09341939539 -0.02677399665
v -0.04450357333 0.09341939539 0.02677399665
v -0.04443952441 0.04723007232 -0.04786384851
v -0.04443952441 0.04723007232 0.04786384851
v -0.04399980605 0.07999932021 -0.0173210986
v -0.04399980605 0.07999932021 0.0173210986
v -0.04399567097 0.1306706816 -0.02000550739
v -0.04399567097 0.1306706816 0.02000550739
v -0.04355415329 0.1429064572 -0.02032020129
v -0.04355415329 0.1429064572 0.02032020129
v -0.0432863757 0.1520104706 -0.02076867037
v -0.0432863757 0.1520104706 0.02076867037
v -0.04314692318 0.01854326203 -0.06707891077
v -0.04314692318 0.01854326203 0.06707891077
v -0.04314690828 -0.01703550853 -0.06707890332
v -0.04314690828 -0.01703550853 0.06707890332
v -0.0430200845 0.08588765562 -0.03245772421
v -0.0430200845 0.08588765562 0.03245772421
v -0.04282605648 0.1057587191 -0.02674323507
v -0.04282605648 0.1057587191 0.02674323507
v -0.0427649729 0.07863549888 -0.0233411584
v -0.0427649729 0.07863549888 0.0233411584
v -0.04255669191 0.0480572693 -0.05345638096
v -0.04255669191 0.0480572693 0.05345638096
v -0.04253905639 0.1610000134 -0.02120783366
v -0.04253905639 0.1610000134 0.02120783366
v -0.04253905639 0.1710000038 -0.02120783366
v -0.04253905639 0.1710000038 0.02120783366
v -0.04166357592 0.1182898208 -0.02640924416
v -0.04166357592 0.1182898208 0.02640924416
v -0.04162262008 0.05516075343 -0.04756874591
v -0.04162262008 0.05516075343 0.04756874591
v -0.04151857644 0.07683436573 -0.02883935347
v -0.04151857644 0.07683436573 0.02883935347
v -0.041449707 0.1710000187 1.487983852e-31
v -0.041449707 0.1829997599 1.592401507e-31
v -0.04143683985 0.09232334048 -0.03309701011
v -0.04143683985 0.09232334048 0.03309701011
v -0.04099437222 0.04601707682 -0.04693989083
v -0.04099437222 0.04601707682 0.04693989083
v -0.04098359868 0.1710000187 -0.006179827265
v -0.04098359868 0.1710000187 0.006179827265
v -0.04098359868 0.1829997599 -0.006179827265
v -0.04098359868 0.1829997599 0.006179827265
v -0.04078570753 0.130824998 -0.02634385042
v -0.04078570753 0.130824998 0.02634385042
v -0.04048676416 0.07473309338 -0.03379303217
v -0.04048676416 0.07473309338 0.03379303217
v -0.04016884416 -0.03927091137 -0.05023299158
v -0.04016884416 -0.03927091137 0.05023299158
v -0.04011299461 0.1430278569 -0.02666693553
v -0.04011299461 0.1430278569 0.02666693553
v -0.04003709182 0.06082275137 -0.04666147009
v -0.04003709182 0.06082275137 0.04666147009
v -0.03992593288 -0.03916721791 -0.05321391299
v -0.03992593288 -0.03916721791 0.05321391299
v -0.03972755373 0.07217103988 -0.03840913624
v -0.03972755373 0.07217103988 0.03840913624
v -0.03963501006 -0.03866866603 -0.04742517322
v -0.03963501006 -0.03866866603 0.04742517322
v -0.03961045295 0.1520845741 -0.02718767524
v -0.03961045295 0.1520845741 0.02718767524
v -0.03952453658 0.1710000187 -0.01245729998
v -0.03952453658 0.1710000187 0.01245729998
v -0.03952453658 0.1829997599 -0.01245729998
v -0.03952453658 0.1829997599 0.01245729998
v -0.03946297616 0.05587795004 -0.05292472243
v -0.03946297616 0.05587795004 0.05292472243
v -0.03944768384 -0.03864528984 -0.05661083013
v -0.03944768384 -0.03864528984 0.05661083013
v -0.03936943784 0.06530413777 -0.04495837539
v -0.03936943784 0.06530413777 0.04495837539
v -0.03929790482 0.1056154221 -0.03275208548
v -0.03929790482 0.1056154221 0.03275208548
v -0.03928340226 0.06902924925 -0.04216714203
v -0.03928340226 0.06902924925 0.04216714203
v -0.03916773573 0.08436538279 -0.03934435174
v -0.03916773573 0.08436538279 0.03934435174
v -0.03897355869 -0.03795896843 -0.04748202115
v -0.03897355869 -0.03795896843 0.04748202115
v -0.03885114938 -0.02507230267 -0.06707905978
v -0.03885114938 -0.02507230267 0.06707905978
v -0.03863165155 0.1610000134 -0.02769899741
v -0.03863165155 0.1610000134 0.02769899741
v -0.03863165155 0.1710000038 -0.02769899741
v -0.03863165155 0.1710000038 0.02769899741
v -0.03862695023 0.04191432893 -0.04694746435
v -0.03862695023 0.04191432893 0.04694746435
v -0.03857510164 0.04184975475 -0.06143902987
v -0.03857510164 0.04184975475 0.06143902987
v -0.03820637241 0.03929737955 -0.04747861624
v -0.03820637241 0.03929737955 0.04747861624
v -0.03815839067 0.03871272132 -0.04900000617
v -0.03815839067 0.03871272132 0.04900000617
v -0.03815837204 -0.03720496595 -0.06130925566
v -0.03815837204 -0.03720496595 -0.04900000617
v -0.03815837204 -0.03720496595 0.04900000617
v -0.03815837204 -0.03720496595 0.06130925566
v -0.03784205019 0.1184232906 -0.03229946643
v -0.03784205019 0.1184232906 0.03229946643
v -0.0375425294 0.06208632514 -0.05178897828
v -0.0375425294 0.06208632514 0.05178897828
v -0.03728086501 0.07877355069 -0.04402980581
v -0.03728086501 0.07877355069 0.04402980581
v -0.03711737692 0.1710000187 -0.01847903989
v -0.03711737692 0.1710000187 0.01847903989
v -0.03711737692 0.1829997599 -0.01847903989
v -0.03711737692 0.1829997599 0.01847903989
v -0.03708906472 0.09252185374 -0.03931806609
v -0.03708906472 0.09252185374 0.03931806609
v -0.03695729747 0.0540763475 -0.04685737565
v -0.03695729747 0.0540763475 0.04685737565
v -0.03669966012 0.1310834438 -0.03214323893
v -0.03669966012 0.1310834438 0.03214323893
v -0.03650293127 0.06789930165 -0.05004127324
v -0.03650293127 0.06789930165 0.05004127324
v -0.03645662591 0.0007844740176 -0.06906865537
v -0.03645662591 0.0007844740176 0.06906865537
v -0.0363564156 0.07346763462 -0.04752581567
v -0.0363564156 0.07346763462 0.04752581567
v -0.03575911745 -0.006297458895 -0.06906865537
v -0.03575911745 -0.006297458895 0.06906865537
v -0.03574060649 0.1431816071 -0.03244535998
v -0.03574060649 0.1431816071 0.03244535998
v -0.03531944752 0.05959904194 -0.04627185315
v -0.03531944752 0.05959904194 0.04627185315
v -0.03497072682 0.1521800905 -0.033010602
v -0.03497072682 0.1521800905 0.033010602
v -0.0346532613 0.1059769019 -0.03849105164
v -0.0346532613 0.1059769019 0.03849105164
v -0.03429951146 0.07385410368 6.426532259e-32
v -0.03422907367 0.07381663471 -0.003707303898
v -0.03422907367 0.07381663471 0.003707303898
v -0.0342159681 0.06365501881 -0.04438231513
v -0.0342159681 0.06365501881 0.04438231513
v -0.03394276649 0.07361256331 -0.009647377767
v -0.03394276649 0.07361256331 0.009647377767
v -0.03385185078 0.05049036443 -0.06048574671
v -0.03385185078 0.05049036443 0.06048574671
v -0.03372889385 0.1610000134 -0.03349447995
v -0.03372889385 0.1610000134 0.03349447995
v -0.03372889385 0.1710000038 -0.03349447995
v -0.03372889385 0.1710000038 0.03349447995
v -0.0337051712 0.1710000187 -0.02414756268
v -0.0337051712 0.1710000187 0.02414756268
v -0.0337051712 0.1829997599 -0.02414756268
v -0.0337051712 0.1829997599 0.02414756268
v -0.03369339928 0.01467619278 -0.06906872243
v -0.03369339928 0.01467619278 0.06906872243
v -0.0336933881 -0.0131072402 -0.06906872243
v -0.0336933881 -0.0131072402 0.06906872243
v -0.03349777684 0.07319816202 -0.01551849209
v -0.03349777684 0.07319816202 0.01551849209
v -0.03345174342 0.06670080125 -0.04113764316
v -0.03345174342 0.06670080125 0.04113764316
v -0.03308618069 0.1187723354 -0.0376303345
v -0.03308618069 0.1187723354 0.0376303345
v -0.03307004273 0.03362437338 -0.06707914174
v -0.03307004273 0.03362437338 0.06707914174
v -0.03307002783 -0.03211661801 -0.06707924604
v -0.03307002783 -0.03211661801 0.06707924604
v -0.0330507569 0.07255765796 -0.02128838561
v -0.0330507569 0.07255765796 0.02128838561
v -0.03295810521 0.06896008551 -0.03700892255
v -0.03295810521 0.06896008551 0.03700892255
v -0.03276888654 0.07168103755 -0.02691874467
v -0.03276888654 0.07168103755 0.02691874467
v -0.03272134066 0.07057271898 -0.03225351125
v -0.03272134066 0.07057271898 0.03225351125
v -0.031722188 0.1314608753 -0.03728810325
v -0.031722188 0.1314608753 0.03728810325
v -0.03114267252 -0.0462766476 -0.0531821847
v -0.03114267252 -0.0462766476 0.0531821847
v -0.03108135238 -0.04672318697 -0.05018825084
v -0.03108135238 -0.04672318697 0.05018825084
v -0.03094740398 -0.04563681036 -0.05659210682
v -0.03094740398 -0.04563681036 0.05659210682
v -0.03089111112 0.05689745396 -0.05940589681
v -0.03089111112 0.05689745396 0.05940589681
v -0.03053132258 -0.04608478025 -0.04738424718
v -0.03053132258 -0.04608478025 0.04738424718
v -0.03046695702 0.1434535831 -0.03749255463
v -0.03046695702 0.1434535831 0.03749255463
v -0.03033882752 -0.01938316785 -0.06906884164
v -0.03033882752 -0.01938316785 0.06906884164
v -0.0303260982 0.0459237285 -0.04747658223
v -0.0303260982 0.0459237285 0.04747658223
v -0.03014735691 -0.04526300728 -0.04748208076
v -0.03014735691 -0.04526300728 0.04748208076
v -0.0300236214 0.04538875446 -0.04900000617
v -0.0300236214 0.04538875446 0.04900000617
v -0.03002359346 -0.04388099909 -0.06132978201
v -0.03002359346 -0.04388099909 -0.04900000617
v -0.03002359346 -0.04388099909 0.04900000617
v -0.03002359346 -0.04388099909 0.06132978201
v -0.02946810983 0.1522013843 -0.03801518306
v -0.02946810983 0.1522013843 0.03801518306
v -0.02942375094 0.1710000187 -0.02920856327
v -0.02942375094 0.1710000187 0.02920856327
v -0.02942375094 0.1829997599 -0.02920856327
v -0.02942375094 0.1829997599 0.02920856327
v -0.02906014584 0.05230041221 -0.04688741639
v -0.02906014584 0.05230041221 0.04688741639
v -0.02881615795 0.06282754242 -0.05814292282
v -0.02881615795 0.06282754242 0.05814292282
v -0.02785332315 0.1610000134 -0.03848113492
v -0.02785332315 0.1610000134 0.03848113492
v -0.02785332315 0.1710000038 -0.03848113492
v -0.02785332315 0.1710000038 0.03848113492
v -0.0271890983 0.06893107295 -0.0566246435
v -0.0271890983 0.06893107295 0.0566246435
v -0.02698298916 0.05792092159 -0.04642586783
v -0.02698298916 0.05792092159 0.04642586783
v -0.02602570504 -0.03789772466 -0.06707948446
v -0.02602570504 -0.03789772466 0.06707948446
v -0.02597328648 0.07528103888 -0.05503403395
v -0.02597328648 0.07528103888 0.05503403395
v -0.02582437173 0.02645301819 -0.06906890869
v -0.02582437173 0.02645301819 0.06906890869
v -0.02582436055 -0.02488406561 -0.06906899065
v -0.02582436055 -0.02488406561 0.06906899065
v -0.0257659182 0.06156866997 -0.04464322329
v -0.0257659182 0.06156866997 0.04464322329
v -0.02505009063 0.08169469982 -0.05334419757
v -0.02505009063 0.08169469982 0.05334419757
v -0.02459585667 0.06419821084 -0.0416720733
v -0.02459585667 0.06419821084 0.0416720733
v -0.02441624366 0.08805562556 -0.05161876976
v -0.02441624366 0.08805562556 0.05161876976
v -0.02429280989 0.1710000187 -0.03356324509
v -0.02429280989 0.1710000187 0.03356324509
v -0.02429280989 0.1829997599 -0.03356324509
v -0.02429280989 0.1829997599 0.03356324509
v -0.02372629382 0.09443988651 -0.05017863959
v -0.02372629382 0.09443988651 0.05017863959
v -0.02330853976 0.06585516781 -0.03750322387
v -0.02330853976 0.06585516781 0.03750322387
v -0.02236944437 0.0667700991 -0.0328399092
v -0.02236944437 0.0667700991 0.0328399092
v -0.02234143019 0.1070926189 -0.04778002203
v -0.02234143019 0.1070926189 0.04778002203
v -0.02193870954 0.06822856516 5.937017079e-32
v -0.02185101621 0.06820255518 -0.003750907024
v -0.02185101621 0.06820255518 0.003750907024
v -0.02181386389 0.06732375175 -0.02736646123
v -0.02181386389 0.06732375175 0.02736646123
v -0.02172762901 -0.05160602927 -0.05014234781
v -0.02172762901 -0.05160602927 0.05014234781
v -0.02169262059 0.06813334674 -0.009622367099
v -0.02169262059 0.06813334674 0.009622367099
v -0.02167974226 -0.0513397716 -0.05312504992
v -0.02167974226 -0.0513397716 0.05312504992
v -0.0215691831 -0.05062917247 -0.05653320253
v -0.0215691831 -0.05062917247 0.05653320253
v -0.02155798115 0.06770931929 -0.02141500823
v -0.02155798115 0.06770931929 0.02141500823
v -0.02155782655 0.06796574593 -0.0154989725
v -0.02155782655 0.06796574593 0.0154989725
v -0.02147849277 -0.05076216161 -0.04736882448
v -0.02147849277 -0.05076216161 0.04736882448
v -0.02125453949 0.0007844737265 -0.07026719302
v -0.02125453949 0.0007844737265 0.07026719302
v -0.02115422487 -0.04998834804 -0.04748215526
v -0.02115422487 -0.04998834804 0.04748215526
v -0.02107750811 0.1197037324 -0.04605554789
v -0.02107750811 0.1197037324 0.04605554789
v -0.02093585394 0.05090516806 -0.04747631773
v -0.02093585394 0.05090516806 0.04747631773
v -0.02084788494 -0.00334435585 -0.07026719302
v -0.02084788494 -0.00334435585 0.07026719302
v -0.02074272372 0.0503494963 -0.04900000617
v -0.02074272372 0.0503494963 0.04900000617
v -0.02074269205 -0.04884172976 -0.06135327369
v -0.02074269205 -0.04884172976 -0.04900000617
v -0.02074269205 -0.04884172976 0.04900000617
v -0.02074269205 -0.04884172976 0.06135327369
v -0.02069270797 0.05408021435 -0.04687264189
v -0.02069270797 0.05408021435 0.04687264189
v -0.02032344975 -0.02939852141 -0.06906917691
v -0.02032344975 -0.02939852141 0.06906917691
v -0.01966055669 0.05761199445 -0.04635571688
v -0.01966055669 0.05761199445 0.04635571688
v -0.0196435526 0.008883469738 -0.07026723027
v -0.0196435526 0.008883469738 0.07026723027
v -0.01964354515 -0.007314518094 -0.07026723027
v -0.01964354515 -0.007314518094 0.07026723027
v -0.01961658895 0.1322710961 -0.04515363649
v -0.01961658895 0.1322710961 0.04515363649
v -0.01900914684 0.06079784408 -0.04480639473
v -0.01900914684 0.06079784408 0.04480639473
v -0.01811210439 0.06330823153 -0.04218976945
v -0.01811210439 0.06330823153 0.04218976945
v -0.01798893139 0.04370125011 -0.06707949191
v -0.01798893139 0.04370125011 0.06707949191
v -0.01798890345 -0.04219348356 -0.0670799613
v -0.01798890345 -0.04219348356 0.0670799613
v -0.01787347719 0.1440995336 -0.04502640292
v -0.01787347719 0.1440995336 0.04502640292
v -0.01768780872 -0.01097344141 -0.07026729733
v -0.01768780872 -0.01097344141 0.07026729733
v -0.01725537702 0.05101258308 -0.0649080798
v -0.01725537702 0.05101258308 0.0649080798
v -0.01714584045 0.06469436735 -0.03830925748
v -0.01714584045 0.06469436735 0.03830925748
v -0.01678825915 0.1710000038 -0.04411973804
v -0.01678825915 0.1710000038 0.04411973804
v -0.01627536304 0.1522914022 -0.04533467069
v -0.01627536304 0.1522914022 0.04533467069
v -0.01621414535 0.06524916738 -0.03367611393
v -0.01621414535 0.06524916738 0.03367611393
v -0.01604888588 0.05703078583 -0.06332826614
v -0.01604888588 0.05703078583 0.06332826614
v -0.01558175404 0.06560078263 -0.02812811732
v -0.01558175404 0.06560078263 0.02812811732
v -0.01549537759 0.06611055881 5.752715389e-32
v -0.01538221445 0.06610939652 -0.003916088026
v -0.01538221445 0.06610939652 0.003916088026
v -0.01524471585 0.06607512385 -0.009860795923
v -0.01524471585 0.06607512385 0.009860795923
v -0.01524113119 0.06582901627 -0.02196970023
v -0.01524113119 0.06582901627 0.02196970023
v -0.015165844 0.06597552449 -0.01587237976
v -0.015165844 0.06597552449 0.01587237976
v -0.01505584083 0.01574946567 -0.07026734948
v -0.01505584083 0.01574946567 0.07026734948
v -0.01505583245 -0.0141805131 -0.07026738673
v -0.01505583245 -0.0141805131 0.07026738673
v -0.0149025647 0.1710000187 -0.03834838793
v -0.0149025647 0.1710000187 0.03834838793
v -0.0149025647 0.1829997599 -0.03834838793
v -0.0149025647 0.1829997599 0.03834838793
v -0.01463796198 0.1610000134 -0.04521550238
v -0.01463796198 0.1610000134 0.04521550238
v -0.01451590657 0.06290971488 -0.06193085387
v -0.01451590657 0.06290971488 0.06193085387
v -0.01404754166 0.03432204574 -0.06906918436
v -0.01404754166 0.03432204574 0.06906918436
v -0.01404752024 -0.0327530764 -0.06906954944
v -0.01404752024 -0.0327530764 0.06906954944
v -0.01275102794 0.06886032969 -0.0605237335
v -0.01275102794 0.06886032969 0.0605237335
v -0.01184875332 -0.01681248471 -0.07026749849
v -0.01184875332 -0.01681248471 0.07026749849
v -0.01147406828 0.07497675717 -0.05907026678
v -0.01147406828 0.07497675717 0.05907026678
v -0.01090541855 0.05788737535 -0.04614764079
v -0.01090541855 0.05788737535 0.04614764079
v -0.01080957986 0.05544236675 -0.04672863707
v -0.01080957986 0.05544236675 0.04672863707
v -0.01067237463 0.05340430513 -0.04900000617
v -0.01067237463 0.05340430513 0.04900000617
v -0.01061909925 0.06062503159 -0.04479851574
v -0.01061909925 0.06062503159 0.04479851574
v -0.01059700828 0.0538710095 -0.04747917876
v -0.01059700828 0.0538710095 0.04747917876
v -0.0105475504 0.08123198152 -0.05760059133
v -0.0105475504 0.08123198152 0.05760059133
v -0.01026102062 -0.05479553714 -0.05302681774
v -0.01026102062 -0.05479553714 0.05302681774
v -0.01022438146 0.06286464632 -0.04248180613
v -0.01022438146 0.06286464632 0.04248180613
v -0.01017899625 -0.05464738235 -0.05001291633
v -0.01017899625 -0.05464738235 0.05001291633
v -0.0100828791 -0.05415299907 -0.05638681352
v -0.0100828791 -0.05415299907 0.05638681352
v -0.009867303073 -0.05367148668 -0.04736882448
v -0.009867303073 -0.05367148668 0.04736882448
v -0.009860398248 0.0875878036 -0.05612750351
v -0.009860398248 0.0875878036 0.05612750351
v -0.00974241551 0.06406736374 -0.03906508535
v -0.00974241551 0.06406736374 0.03906508535
v -0.009712011553 -0.05269401893 -0.04736882448
v -0.009712011553 -0.05269401893 0.04736882448
v -0.009471854195 -0.05136696994 -0.04900000617
v -0.009471854195 -0.05136696994 0.04900000617
v -0.009471853264 -0.05136696994 -0.06125053763
v -0.009471853264 -0.05136696994 0.06125053763
v -0.009350650012 0.09400563687 -0.05471313
v -0.009350650012 0.09400563687 0.05471313
v -0.009265153669 0.06430072337 -0.03453853354
v -0.009265153669 0.06430072337 0.03453853354
v -0.008940681815 0.06463755667 5.624539766e-32
v -0.008845210075 0.06444752216 -0.02897792682
v -0.008845210075 0.06444752216 0.02897792682
v -0.008808507584 0.06463099271 -0.004122198559
v -0.008808507584 0.06463099271 0.004122198559
v -0.008670297451 0.0646225363 -0.01019619592
v -0.008670297451 0.0646225363 0.01019619592
v -0.008625794202 0.06451550126 -0.02266114205
v -0.008625794202 0.06451550126 0.02266114205
v -0.008594336919 0.06456018984 -0.01636998728
v -0.008594336919 0.06456018984 0.01636998728
v -0.008573139086 0.106854476 -0.05220686644
v -0.008573139086 0.106854476 0.05220686644
v -0.008189841174 0.02033718117 -0.07026749849
v -0.008189841174 0.02033718117 0.07026749849
v -0.008189829998 -0.01876821555 -0.07026772201
v -0.008189829998 -0.01876821555 0.07026772201
v -0.008075657301 -0.04434929416 -0.06708005071
v -0.008075657301 -0.04434929416 0.06708005071
v -0.00789024774 0.1196522862 -0.05023403838
v -0.00789024774 0.1196522862 0.05023403838
v -0.007057646289 0.1710000038 -0.04669661075
v -0.007057646289 0.1710000038 0.04669661075
v -0.006983482279 0.1324149519 -0.04886812717
v -0.006983482279 0.1324149519 0.04886812717
v -0.006529569626 0.1710000187 -0.04064241424
v -0.006529569626 0.1710000187 0.04064241424
v -0.006529569626 0.1829997599 -0.04064241424
v -0.006529569626 0.1829997599 0.04064241424
v -0.006306273397 -0.03443654627 -0.0690696165
v -0.006306273397 -0.03443654627 0.0690696165
v -0.004946109839 0.1444366276 -0.04827716202
v -0.004946109839 0.1444366276 0.04827716202
v -0.003925541881 0.1610000134 -0.04738476127
v -0.003925541881 0.1610000134 0.04738476127
v -0.003676613094 -0.0197496973 -0.07026775181
v -0.003676613094 -0.0197496973 0.07026775181
v -0.003306291299 0.1521870047 -0.04809839278
v -0.003306291299 0.1521870047 0.04809839278
v -0.0002934660879 0.1829998195 6.622738469e-10
v 0 -0.05621387064 -0.05008096993
v 0 -0.05621387064 0.05008096993
v 0 -0.05589706823 -0.05295550078
v 0 -0.05589706823 0.05295550078
v 0 -0.05550296232 -0.04736882448
v 0 -0.05550296232 0.04736882448
v 0 -0.05521203578 -0.05628846213
v 0 -0.05521203578 0.05628846213
v 0 -0.05449217185 -0.04736882448
v 0 -0.05449217185 0.04736882448
v 0 -0.05292800441 -0.06114460155
v 0 -0.05292800441 -0.04900000617
v 0 -0.05292800441 0.04900000617
v 0 -0.05292800441 0.06114460155
v 0 -0.0457319878 -0.06708014011
v 0 -0.0457319878 0.06708014011
v 0 0.04723978043 -0.0670799464
v 0 0.04723978043 0.0670799464
v 0 0.05282408744 -0.06601051986
v 0 0.05282408744 0.06601051986
v 0 0.05443578586 -0.04900000617
v 0 0.05443578586 0.04900000617
v 0 0.05479278043 -0.04747997969
v 0 0.05479278043 0.04747997969
v 0 0.05610487983 -0.04659697786
v 0 0.05610487983 0.04659697786
v 0 0.05741412565 -0.0642497912
v 0 0.05741412565 0.0642497912
v 0 0.05810602382 -0.04606159031
v 0 0.05810602382 0.04606159031
v 0 0.06058789417 -0.04485877231
v 0 0.06058789417 0.04485877231
v 0 0.06275030971 -0.04266771674
v 0 0.06275030971 0.04266771674
v 0 0.0629728362 -0.06283853203
v 0 0.0629728362 0.06283853203
v 0 0.06381477416 -0.03940495104
v 0 0.06381477416 0.03940495104
v 0 0.0639256537 -0.03504142538
v 0 0.0639256537 0.03504142538
v 0 0.0639288649 -0.01676221378
v 0 0.0639288649 0.01676221378
v 0 0.06393443048 -0.02319469862
v 0 0.06393443048 0.02319469862
v 0 0.06394162774 -0.02959488332
v 0 0.06394162774 0.02959488332
v 0 0.06394630671 5.564389551e-32
v 0 0.06394803524 -0.004308994859
v 0 0.06394803524 0.004308994859
v 0 0.06395053118 -0.01047484484
v 0 0.06395053118 0.01047484484
v 0 0.06876793504 -0.06139074266
v 0 0.06876793504 0.06139074266
v 0 0.07479172945 -0.05990601704
v 0 0.07479172945 0.05990601704
v 0 0.08098845929 -0.05839830637
v 0 0.08098845929 0.05839830637
v 0 0.08730981499 -0.05691227317
v 0 0.08730981499 0.05691227317
v 0 0.09370774776 -0.05548612028
v 0 0.09370774776 0.05548612028
v 0 0.1066086739 -0.05290924758
v 0 0.1066086739 0.05290924758
v 0 0.1194797084 -0.05083744973
v 0 0.1194797084 0.05083744973
v 0 0.1323237568 -0.04936219752
v 0 0.1323237568 0.04936219752
v 0 0.1444315314 -0.04851094633
v 0 0.1444315314 0.04851094633
v 0 0.1523423493 -0.04818354547
v 0 0.1523423493 0.04818354547
v 0 0.1610000134 -0.04754211754
v 0 0.1610000134 0.04754211754
v 0 0.1710000038 -0.04754211754
v 0 0.1710000038 0.04754211754
v 0 0.1710000187 -0.04147590697
v 0 0.1710000187 0.04147590697
v 0 0.1829997599 -0.04147590697
v 0 0.1829997599 0.04147590697
v 1.46958834e-10 -0.02037919872 -0.07026778907
v 1.46958834e-10 -0.02037919872 0.07026778907
v 1.46958834e-10 0.02194816619 -0.07026770711
v 1.46958834e-10 0.02194816619 0.07026770711
v 2.904383678e-10 0.0007844740176 -0.07087463886
v 2.904383678e-10 0.0007844740176 0.07087463886
v 2.904384233e-10 0.0007844747161 -0.04899999127
v 2.904384233e-10 0.0007844747161 0.04899999127
v 5.876741316e-10 -0.03551629558 -0.069069691
v 5.876741316e-10 -0.03551629558 0.069069691
v 5.876741316e-10 0.03708526865 -0.06906953454
v 5.876741316e-10 0.03708526865 0.06906953454
v 0.003306291299 0.1521870047 -0.04809839278
v 0.003306291299 0.1521870047 0.04809839278
v 0.003397464752 0.1710000187 -0.04133849218
v 0.003397464752 0.1710000187 0.04133849218
v 0.003397464752 0.1829997599 -0.04133849218
v 0.003397464752 0.1829997599 0.04133849218
v 0.003676614491 -0.0197496973 -0.07026775181
v 0.003676614491 -0.0197496973 0.07026775181
v 0.003925541881 0.1610000134 -0.04738476127
v 0.003925541881 0.1610000134 0.04738476127
v 0.003925541881 0.1710000038 -0.04738476127
v 0.003925541881 0.1710000038 0.04738476127
v 0.004946109839 0.1444366276 -0.04827716202
v 0.004946109839 0.1444366276 0.04827716202
v 0.006306273863 -0.03443654627 -0.0690696165
v 0.006306273863 -0.03443654627 0.0690696165
v 0.006983482745 0.1324149519 -0.04886812717
v 0.006983482745 0.1324149519 0.04886812717
v 0.00789024774 0.1196522862 -0.05023403838
v 0.00789024774 0.1196522862 0.05023403838
v 0.008075658232 -0.04434929416 -0.06708005071
v 0.008075658232 -0.04434929416 0.06708005071
v 0.008189830929 -0.01876821555 -0.07026772201
v 0.008189830929 -0.01876821555 0.07026772201
v 0.008189841174 0.02033718117 -0.07026749849
v 0.008189841174 0.02033718117 0.07026749849
v 0.008573140018 0.106854476 -0.05220686644
v 0.008573140018 0.106854476 0.05220686644
v 0.008594337851 0.06456018984 -0.01636998728
v 0.008594337851 0.06456018984 0.01636998728
v 0.008625794202 0.06451550126 -0.02266114205
v 0.008625794202 0.06451550126 0.02266114205
v 0.008670298383 0.0646225363 -0.01019619592
v 0.008670298383 0.0646225363 0.01019619592
v 0.008808508515 0.06463099271 -0.004122198559
v 0.008808508515 0.06463099271 0.004122198559
v 0.008845210075 0.06444752216 -0.02897792682
v 0.008845210075 0.06444752216 0.02897792682
v 0.008940680884 0.06463755667 5.624539766e-32
v 0.0092651546 0.06430072337 -0.03453853354
v 0.0092651546 0.06430072337 0.03453853354
v 0.009350650944 0.09400563687 -0.05471313
v 0.009350650944 0.09400563687 0.05471313
v 0.009471854195 -0.05136696994 -0.06125053763
v 0.009471854195 -0.05136696994 0.06125053763
v 0.009471855126 -0.05136696994 -0.04900000617
v 0.009471855126 -0.05136696994 0.04900000617
v 0.009712012485 -0.05269401893 -0.04736882448
v 0.009712012485 -0.05269401893 0.04736882448
v 0.00974241551 0.06406736374 -0.03906508535
v 0.00974241551 0.06406736374 0.03906508535
v 0.00986040011 0.0875878036 -0.05612750351
v 0.00986040011 0.0875878036 0.05612750351
v 0.009867304005 -0.05367148668 -0.04736882448
v 0.009867304005 -0.05367148668 0.04736882448
v 0.0100828791 -0.05415299907 -0.05638681352
v 0.0100828791 -0.05415299907 0.05638681352
v 0.01017899625 -0.05464738235 -0.05001291633
v 0.01017899625 -0.05464738235 0.05001291633
v 0.01022438146 0.06286464632 -0.04248180613
v 0.01022438146 0.06286464632 0.04248180613
v 0.01026102062 -0.05479553714 -0.05302681774
v 0.01026102062 -0.05479553714 0.05302681774
v 0.0105475504 0.08123198152 -0.05760059133
v 0.0105475504 0.08123198152 0.05760059133
v 0.01059700828 0.0538710095 -0.04747917876
v 0.01059700828 0.0538710095 0.04747917876
v 0.01061910018 0.06062503159 -0.04479851574
v 0.01061910018 0.06062503159 0.04479851574
v 0.01067237463 0.05340430513 -0.04900000617
v 0.01067237463 0.05340430513 0.04900000617
v 0.01080957986 0.05544236675 -0.04672863707
v 0.01080957986 0.05544236675 0.04672863707
v 0.01090541855 0.05788737535 -0.04614764079
v 0.01090541855 0.05788737535 0.04614764079
v 0.01147406921 0.07497675717 -0.05907026678
v 0.01147406921 0.07497675717 0.05907026678
v 0.01184875332 -0.01681248471 -0.07026749849
v 0.01184875332 -0.01681248471 0.07026749849
v 0.0127510298 0.06886032969 -0.0605237335
v 0.0127510298 0.06886032969 0.0605237335
v 0.01275227033 0.1710000187 -0.03944414854
v 0.01275227033 0.1710000187 0.03944414854
v 0.01275227033 0.1829997599 -0.03944414854
v 0.01275227033 0.1829997599 0.03944414854
v 0.0140475221 -0.0327530764 -0.06906954944
v 0.0140475221 -0.0327530764 0.06906954944
v 0.01404754259 0.03432204574 -0.06906918436
v 0.01404754259 0.03432204574 0.06906918436
v 0.0145159075 0.06290971488 -0.06193085387
v 0.0145159075 0.06290971488 0.06193085387
v 0.01463796385 0.1610000134 -0.04521550238
v 0.01463796385 0.1610000134 0.04521550238
v 0.01463796385 0.1710000038 -0.04521550238
v 0.01463796385 0.1710000038 0.04521550238
v 0.01505582873 -0.0141805131 -0.07026738673
v 0.01505582873 -0.0141805131 0.07026738673
v 0.01505583711 0.01574946567 -0.07026734948
v 0.01505583711 0.01574946567 0.07026734948
v 0.01516584493 0.06597552449 -0.01587237976
v 0.01516584493 0.06597552449 0.01587237976
v 0.01524113119 0.06582901627 -0.02196970023
v 0.01524113119 0.06582901627 0.02196970023
v 0.01524471585 0.06607512385 -0.009860795923
v 0.01524471585 0.06607512385 0.009860795923
v 0.01538221445 0.06610939652 -0.003916088026
v 0.01538221445 0.06610939652 0.003916088026
v 0.01549537759 0.06611055881 5.752715389e-32
v 0.01558175404 0.06560078263 -0.02812811732
v 0.01558175404 0.06560078263 0.02812811732
v 0.01604888588 0.05703078583 -0.06332826614
v 0.01604888588 0.05703078583 0.06332826614
v 0.01621414721 0.06524916738 -0.03367611393
v 0.01621414721 0.06524916738 0.03367611393
v 0.01627536491 0.1522914022 -0.04533467069
v 0.01627536491 0.1522914022 0.04533467069
v 0.01714583859 0.06469436735 -0.03830925748
v 0.01714583859 0.06469436735 0.03830925748
v 0.01725537702 0.05101258308 -0.0649080798
v 0.01725537702 0.05101258308 0.0649080798
v 0.017687805 -0.01097344141 -0.07026729733
v 0.017687805 -0.01097344141 0.07026729733
v 0.01787347719 0.1440995336 -0.04502640292
v 0.01787347719 0.1440995336 0.04502640292
v 0.01798890531 -0.04219348356 -0.0670799613
v 0.01798890531 -0.04219348356 0.0670799613
v 0.01798893139 0.04370125011 -0.06707949191
v 0.01798893139 0.04370125011 0.06707949191
v 0.01811210439 0.06330823153 -0.04218976945
v 0.01811210439 0.06330823153 0.04218976945
v 0.01900914684 0.06079784408 -0.04480639473
v 0.01900914684 0.06079784408 0.04480639473
v 0.01961658895 0.1322710961 -0.04515363649
v 0.01961658895 0.1322710961 0.04515363649
v 0.01964354515 -0.007314518094 -0.07026723027
v 0.01964354515 -0.007314518094 0.07026723027
v 0.0196435526 0.008883469738 -0.07026723027
v 0.0196435526 0.008883469738 0.07026723027
v 0.01966055483 0.05761199445 -0.04635571688
v 0.01966055483 0.05761199445 0.04635571688
v 0.02032344788 -0.02939852141 -0.06906917691
v 0.02032344788 -0.02939852141 0.06906917691
v 0.02069270983 0.05408021435 -0.04687264189
v 0.02069270983 0.05408021435 0.04687264189
v 0.02074269205 -0.04884172976 -0.06135327369
v 0.02074269205 -0.04884172976 -0.04900000617
v 0.02074269205 -0.04884172976 0.04900000617
v 0.02074269205 -0.04884172976 0.06135327369
v 0.02074272558 0.0503494963 -0.04900000617
v 0.02074272558 0.0503494963 0.04900000617
v 0.02084788494 -0.00334435585 -0.07026719302
v 0.02084788494 -0.00334435585 0.07026719302
v 0.02093585767 0.05090516806 -0.04747631773
v 0.02093585767 0.05090516806 0.04747631773
v 0.02107750997 0.1197037324 -0.04605554789
v 0.02107750997 0.1197037324 0.04605554789
v 0.02115422487 -0.04998834804 -0.04748215526
v 0.02115422487 -0.04998834804 0.04748215526
v 0.02125453949 0.0007844737265 -0.07026719302
v 0.02125453949 0.0007844737265 0.07026719302
v 0.02147849277 -0.05076216161 -0.04736882448
v 0.02147849277 -0.05076216161 0.04736882448
v 0.02155782655 0.06796574593 -0.0154989725
v 0.02155782655 0.06796574593 0.0154989725
v 0.02155798301 0.06770931929 -0.02141500823
v 0.02155798301 0.06770931929 0.02141500823
v 0.0215691831 -0.05062917247 -0.05653320253
v 0.0215691831 -0.05062917247 0.05653320253
v 0.02167974412 -0.0513397716 -0.05312504992
v 0.02167974412 -0.0513397716 0.05312504992
v 0.02169262432 0.06813334674 -0.009622367099
v 0.02169262432 0.06813334674 0.009622367099
v 0.02172762901 -0.05160602927 -0.05014234781
v 0.02172762901 -0.05160602927 0.05014234781
v 0.02181386575 0.06732375175 -0.02736646123
v 0.02181386575 0.06732375175 0.02736646123
v 0.02185101993 0.06820255518 -0.003750907024
v 0.02185101993 0.06820255518 0.003750907024
v 0.02193870954 0.06822856516 5.937017079e-32
v 0.02234143019 0.1070926189 -0.04778002203
v 0.02234143019 0.1070926189 0.04778002203
v 0.02236944437 0.0667700991 -0.0328399092
v 0.02236944437 0.0667700991 0.0328399092
v 0.02330853976 0.06585516781 -0.03750322387
v 0.02330853976 0.06585516781 0.03750322387
v 0.02372629568 0.09443988651 -0.05017863959
v 0.02372629568 0.09443988651 0.05017863959
v 0.02429281175 0.1710000187 -0.03356324509
v 0.02429281175 0.1710000187 0.03356324509
v 0.02429281175 0.1829997599 -0.03356324509
v 0.02429281175 0.1829997599 0.03356324509
v 0.02441624179 0.08805562556 -0.05161876976
v 0.02441624179 0.08805562556 0.05161876976
v 0.02459585667 0.06419821084 -0.0416720733
v 0.02459585667 0.06419821084 0.0416720733
v 0.02505009435 0.08169469982 -0.05334419757
v 0.02505009435 0.08169469982 0.05334419757
v 0.0257659182 0.06156866997 -0.04464322329
v 0.0257659182 0.06156866997 0.04464322329
v 0.02582435869 -0.02488406561 -0.06906899065
v 0.02582435869 -0.02488406561 0.06906899065
v 0.02582436986 0.02645301819 -0.06906890869
v 0.02582436986 0.02645301819 0.06906890869
v 0.02597328648 0.07528103888 -0.05503403395
v 0.02597328648 0.07528103888 0.05503403395
v 0.02602570504 -0.03789772466 -0.06707948446
v 0.02602570504 -0.03789772466 0.06707948446
v 0.02698298916 0.05792092159 -0.04642586783
v 0.02698298916 0.05792092159 0.04642586783
v 0.0271890983 0.06893107295 -0.0566246435
v 0.0271890983 0.06893107295 0.0566246435
v 0.02785332687 0.1610000134 -0.03848113492
v 0.02785332687 0.1610000134 0.03848113492
v 0.02785332687 0.1710000038 -0.03848113492
v 0.02785332687 0.1710000038 0.03848113492
v 0.02881615981 0.06282754242 -0.05814292282
v 0.02881615981 0.06282754242 0.05814292282
v 0.0290601477 0.05230041221 -0.04688741639
v 0.0290601477 0.05230041221 0.04688741639
v 0.02942375094 0.1710000187 -0.02920856327
v 0.02942375094 0.1710000187 0.02920856327
v 0.02942375094 0.1829997599 -0.02920856327
v 0.02942375094 0.1829997599 0.02920856327
v 0.02946810983 0.1522013843 -0.03801518306
v 0.02946810983 0.1522013843 0.03801518306
v 0.03002359346 -0.04388099909 -0.06132978201
v 0.03002359346 -0.04388099909 -0.04900000617
v 0.03002359346 -0.04388099909 0.04900000617
v 0.03002359346 -0.04388099909 0.06132978201
v 0.03002362512 0.04538875446 -0.04900000617
v 0.03002362512 0.04538875446 0.04900000617
v 0.03014735878 -0.04526300728 -0.04748208076
v 0.03014735878 -0.04526300728 0.04748208076
v 0.0303260982 0.0459237285 -0.04747658223
v 0.0303260982 0.0459237285 0.04747658223
v 0.03033882566 -0.01938316785 -0.06906884164
v 0.03033882566 -0.01938316785 0.06906884164
v 0.03046695702 0.1434535831 -0.03749255463
v 0.03046695702 0.1434535831 0.03749255463
v 0.03053132072 -0.04608478025 -0.04738424718
v 0.03053132072 -0.04608478025 0.04738424718
v 0.03089111112 0.05689745396 -0.05940589681
v 0.03089111112 0.05689745396 0.05940589681
v 0.03094740584 -0.04563681036 -0.05659210682
v 0.03094740584 -0.04563681036 0.05659210682
v 0.03108135238 -0.04672318697 -0.05018825084
v 0.03108135238 -0.04672318697 0.05018825084
v 0.03114267439 -0.0462766476 -0.0531821847
v 0.03114267439 -0.0462766476 0.0531821847
v 0.031722188 0.1314608753 -0.03728810325
v 0.031722188 0.1314608753 0.03728810325
v 0.03272134438 0.07057271898 -0.03225351125
v 0.03272134438 0.07057271898 0.03225351125
v 0.03276888654 0.07168103755 -0.02691874467
v 0.03276888654 0.07168103755 0.02691874467
v 0.03295810521 0.06896008551 -0.03700892255
v 0.03295810521 0.06896008551 0.03700892255
v 0.03305076063 0.07255765796 -0.02128838561
v 0.03305076063 0.07255765796 0.02128838561
v 0.03307003155 -0.03211661801 -0.06707924604
v 0.03307003155 -0.03211661801 0.06707924604
v 0.03307004645 0.03362437338 -0.06707914174
v 0.03307004645 0.03362437338 0.06707914174
v 0.03308618069 0.1187723354 -0.0376303345
v 0.03308618069 0.1187723354 0.0376303345
v 0.03345174715 0.06670080125 -0.04113764316
v 0.03345174715 0.06670080125 0.04113764316
v 0.03349778056 0.07319816202 -0.01551849209
v 0.03349778056 0.07319816202 0.01551849209
v 0.0336933881 -0.0131072402 -0.06906872243
v 0.0336933881 -0.0131072402 0.06906872243
v 0.03369339928 0.01467619278 -0.06906872243
v 0.03369339928 0.01467619278 0.06906872243
v 0.0337051712 0.1710000187 -0.02414756268
v 0.0337051712 0.1710000187 0.02414756268
v 0.0337051712 0.1829997599 -0.02414756268
v 0.0337051712 0.1829997599 0.02414756268
v 0.03372889385 0.1610000134 -0.03349447995
v 0.03372889385 0.1610000134 0.03349447995
v 0.03372889385 0.1710000038 -0.03349447995
v 0.03372889385 0.1710000038 0.03349447995
v 0.03385185078 0.05049036443 -0.06048574671
v 0.03385185078 0.05049036443 0.06048574671
v 0.03394276649 0.07361256331 -0.009647377767
v 0.03394276649 0.07361256331 0.009647377767
v 0.0342159681 0.06365501881 -0.04438231513
v 0.0342159681 0.06365501881 0.04438231513
v 0.0342290774 0.07381663471 -0.003707303898
v 0.0342290774 0.07381663471 0.003707303898
v 0.03429951146 0.07385410368 6.426532259e-32
v 0.0346532613 0.1059769019 -0.03849105164
v 0.0346532613 0.1059769019 0.03849105164
v 0.03497073054 0.1521800905 -0.033010602
v 0.03497073054 0.1521800905 0.033010602
v 0.03531945124 0.05959904194 -0.04627185315
v 0.03531945124 0.05959904194 0.04627185315
v 0.03574060649 0.1431816071 -0.03244535998
v 0.03574060649 0.1431816071 0.03244535998
v 0.03575911745 -0.006297458895 -0.06906865537
v 0.03575911745 -0.006297458895 0.06906865537
v 0.0363564156 0.07346763462 -0.04752581567
v 0.0363564156 0.07346763462 0.04752581567
v 0.03645662591 0.0007844740176 -0.06906865537
v 0.03645662591 0.0007844740176 0.06906865537
v 0.03650293127 0.06789930165 -0.05004127324
v 0.03650293127 0.06789930165 0.05004127324
v 0.03669966012 0.1310834438 -0.03214323893
v 0.03669966012 0.1310834438 0.03214323893
v 0.0369573012 0.0540763475 -0.04685737565
v 0.0369573012 0.0540763475 0.04685737565
v 0.03708906472 0.09252185374 -0.03931806609
v 0.03708906472 0.09252185374 0.03931806609
v 0.03711737692 0.1710000187 -0.01847903989
v 0.03711737692 0.1710000187 0.01847903989
v 0.03711737692 0.1829997599 -0.01847903989
v 0.03711737692 0.1829997599 0.01847903989
v 0.03728086874 0.07877355069 -0.04402980581
v 0.03728086874 0.07877355069 0.04402980581
v 0.0375425294 0.06208632514 -0.05178897828
v 0.0375425294 0.06208632514 0.05178897828
v 0.03784205019 0.1184232906 -0.03229946643
v 0.03784205019 0.1184232906 0.03229946643
v 0.03815837204 -0.03720496595 -0.06130925566
v 0.03815837204 -0.03720496595 -0.04900000617
v 0.03815837204 -0.03720496595 0.04900000617
v 0.03815837204 -0.03720496595 0.06130925566
v 0.0381583944 0.03871272132 -0.04900000617
v 0.0381583944 0.03871272132 0.04900000617
v 0.03820637241 0.03929737955 -0.04747861624
v 0.03820637241 0.03929737955 0.04747861624
v 0.03857510164 0.04184975475 -0.06143902987
v 0.03857510164 0.04184975475 0.06143902987
v 0.03862695396 0.04191432893 -0.04694746435
v 0.03862695396 0.04191432893 0.04694746435
v 0.03863165528 0.1610000134 -0.02769899741
v 0.03863165528 0.1610000134 0.02769899741
v 0.03863165528 0.1710000038 -0.02769899741
v 0.03863165528 0.1710000038 0.02769899741
v 0.03885114938 -0.02507230267 -0.06707905978
v 0.03885114938 -0.02507230267 0.06707905978
v 0.03897355869 -0.03795896843 -0.04748202115
v 0.03897355869 -0.03795896843 0.04748202115
v 0.03916773945 0.08436538279 -0.03934435174
v 0.03916773945 0.08436538279 0.03934435174
v 0.03928340226 0.06902924925 -0.04216714203
v 0.03928340226 0.06902924925 0.04216714203
v 0.03929790854 0.1056154221 -0.03275208548
v 0.03929790854 0.1056154221 0.03275208548
v 0.03936943784 0.06530413777 -0.04495837539
v 0.03936943784 0.06530413777 0.04495837539
v 0.03944768384 -0.03864528984 -0.05661083013
v 0.03944768384 -0.03864528984 0.05661083013
v 0.03946297616 0.05587795004 -0.05292472243
v 0.03946297616 0.05587795004 0.05292472243
v 0.03952453658 0.1710000187 -0.01245729998
v 0.03952453658 0.1710000187 0.01245729998
v 0.03952453658 0.1829997599 -0.01245729998
v 0.03952453658 0.1829997599 0.01245729998
v 0.03961045668 0.1520845741 -0.02718767524
v 0.03961045668 0.1520845741 0.02718767524
v 0.03963501006 -0.03866866603 -0.04742517322
v 0.03963501006 -0.03866866603 0.04742517322
v 0.03972755373 0.07217103988 -0.03840913624
v 0.03972755373 0.07217103988 0.03840913624
v 0.03992593288 -0.03916721791 -0.05321391299
v 0.03992593288 -0.03916721791 0.05321391299
v 0.04003709182 0.06082275137 -0.04666147009
v 0.04003709182 0.06082275137 0.04666147009
v 0.04011299461 0.1430278569 -0.02666693553
v 0.04011299461 0.1430278569 0.02666693553
v 0.04016884416 -0.03927091137 -0.05023299158
v 0.04016884416 -0.03927091137 0.05023299158
v 0.04048676416 0.07473309338 -0.03379303217
v 0.04048676416 0.07473309338 0.03379303217
v 0.04078570753 0.130824998 -0.02634385042
v 0.04078570753 0.130824998 0.02634385042
v 0.04098360613 0.1710000187 -0.006179827265
v 0.04098360613 0.1710000187 0.006179827265
v 0.04098360613 0.1829997599 -0.006179827265
v 0.04098360613 0.1829997599 0.006179827265
v 0.04099437222 0.04601707682 -0.04693989083
v 0.04099437222 0.04601707682 0.04693989083
v 0.04143683985 0.09232334048 -0.03309701011
v 0.04143683985 0.09232334048 0.03309701011
v 0.04144971445 0.1710000187 1.487983852e-31
v 0.04144971445 0.1829997599 1.592401507e-31
v 0.04151858389 0.07683436573 -0.02883935347
v 0.04151858389 0.07683436573 0.02883935347
v 0.04162262008 0.05516075343 -0.04756874591
v 0.04162262008 0.05516075343 0.04756874591
v 0.04166357592 0.1182898208 -0.02640924416
v 0.04166357592 0.1182898208 0.02640924416
v 0.04253905639 0.1610000134 -0.02120783366
v 0.04253905639 0.1610000134 0.02120783366
v 0.04253905639 0.1710000038 -0.02120783366
v 0.04253905639 0.1710000038 0.02120783366
v 0.04255669191 0.0480572693 -0.05345638096
v 0.04255669191 0.0480572693 0.05345638096
v 0.04276497662 0.07863549888 -0.0233411584
v 0.04276497662 0.07863549888 0.0233411584
v 0.04282605648 0.1057587191 -0.02674323507
v 0.04282605648 0.1057587191 0.02674323507
v 0.04302009195 0.08588765562 -0.03245772421
v 0.04302009195 0.08588765562 0.03245772421
v 0.04314690828 -0.01703550853 -0.06707890332
v 0.04314690828 -0.01703550853 0.06707890332
v 0.04314693063 0.01854326203 -0.06707891077
v 0.04314693063 0.01854326203 0.06707891077
v 0.0432863757 0.1520104706 -0.02076867037
v 0.0432863757 0.1520104706 0.02076867037
v 0.04355415329 0.1429064572 -0.02032020129
v 0.04355415329 0.1429064572 0.02032020129
v 0.04399567097 0.1306706816 -0.02000550739
v 0.04399567097 0.1306706816 0.02000550739
v 0.04399980605 0.07999932021 -0.0173210986
v 0.04399980605 0.07999932021 0.0173210986
v 0.04443952441 0.04723007232 -0.04786384851
v 0.04443952441 0.04723007232 0.04786384851
v 0.04450357705 0.09341939539 -0.02677399665
v 0.04450357705 0.09341939539 0.02677399665
v 0.04466772452 0.1182921752 -0.01998502389
v 0.04466772452 0.1182921752 0.01998502389
v 0.04483440891 -0.0290702004 -0.06136520207
v 0.04483440891 -0.0290702004 -0.04900000617
v 0.04483440891 -0.0290702004 0.04900000617
v 0.04483440891 -0.0290702004 0.06136520207
v 0.04483442754 0.03057795018 -0.04900000617
v 0.04483442754 0.03057795018 0.04900000617
v 0.04485771433 0.0307162106 -0.06183532625
v 0.04485771433 0.0307162106 0.06183532625
v 0.04495863989 0.03069505468 -0.04748161137
v 0.04495863989 0.03069505468 0.04748161137
v 0.045010712 0.08089395612 -0.01091267169
v 0.045010712 0.08089395612 0.01091267169
v 0.04529555514 0.1610000134 -0.01431218907
v 0.04529555514 0.1610000134 0.01431218907
v 0.04529555514 0.1710000038 -0.01431218907
v 0.04529555514 0.1710000038 0.01431218907
v 0.04558030143 0.08765570074 -0.02630339004
v 0.04558030143 0.08765570074 0.02630339004
v 0.04560071975 0.10615623 -0.02014626004
v 0.04560071975 0.10615623 0.02014626004
v 0.04561209679 0.08134052902 -0.004278786015
v 0.04561209679 0.08134052902 0.004278786015
v 0.04566571116 0.08137080818 7.080610252e-32
v 0.04568537697 0.03134641796 -0.04697492346
v 0.04568537697 0.03134641796 0.04697492346
v 0.04575542361 -0.02965622395 -0.04748221114
v 0.04575542361 -0.02965622395 0.04748221114
v 0.04579223692 -0.008315071464 -0.06707882136
v 0.04579223692 -0.008315071464 0.06707882136
v 0.04588865489 0.1521156281 -0.01394358464
v 0.04588865489 0.1521156281 0.01394358464
v 0.04602016509 0.1427113712 -0.01355307177
v 0.04602016509 0.1427113712 0.01355307177
v 0.04630639404 0.1305701435 -0.0132381618
v 0.04630639404 0.1305701435 0.0132381618
v 0.04633576423 -0.03021692671 -0.05665045977
v 0.04633576423 -0.03021692671 0.05665045977
v 0.04661761969 -0.03024666198 -0.0475040935
v 0.04661761969 -0.03024666198 0.0475040935
v 0.04668544978 0.0007538747741 -0.06707882136
v 0.04668544978 0.0007538747741 0.06707882136
v 0.04684296623 0.1183575392 -0.0130956918
v 0.04684296623 0.1183575392 0.0130956918
v 0.04686721042 0.09458257258 -0.02003328688
v 0.04686721042 0.09458257258 0.02003328688
v 0.04693043232 -0.03063654341 -0.05325420573
v 0.04693043232 -0.03063654341 0.05325420573
v 0.04696636647 0.1610000134 -0.007123698015
v 0.04696636647 0.1610000134 0.007123698015
v 0.04696636647 0.1710000038 -0.007123698015
v 0.04696636647 0.1710000038 0.007123698015
v 0.0472355932 -0.03063518927 -0.05029223859
v 0.0472355932 -0.03063518927 0.05029223859
v 0.04734104127 0.03629753366 -0.05358093232
v 0.04734104127 0.03629753366 0.05358093232
v 0.04747255147 0.152320385 -0.006838072557
v 0.04747255147 0.152320385 0.006838072557
v 0.04747639224 0.1425072104 -0.006511529442
v 0.04747639224 0.1425072104 0.006511529442
v 0.04750011861 0.1610000134 1.400967215e-31
v 0.04750011861 0.1710000038 1.487983722e-31
v 0.04761054367 0.03327215835 -0.04700839892
v 0.04761054367 0.03327215835 0.04700839892
v 0.04762423784 0.1065519154 -0.01304346696
v 0.04762423784 0.1065519154 0.01304346696
v 0.04764296487 0.1304974854 -0.006178709213
v 0.04764296487 0.1304974854 0.006178709213
v 0.04766426608 0.08914616704 -0.0196342431
v 0.04766426608 0.08914616704 0.0196342431
v 0.04788973182 0.1424534023 1.23958093e-31
v 0.04793591425 0.1523985118 1.326119881e-31
v 0.04801363871 0.1305170059 1.135714479e-31
v 0.0480832532 0.1184259132 -0.00587954605
v 0.0480832532 0.1184259132 0.00587954605
v 0.04836933687 0.1184904948 1.03106388e-31
v 0.04862716421 0.09544578195 -0.01281170454
v 0.04862716421 0.09544578195 0.01281170454
v 0.04872166365 0.03522564843 -0.04851845652
v 0.04872166365 0.03522564843 0.04851845652
v 0.04877002165 0.1067919731 -0.005600036122
v 0.04877002165 0.1067919731 0.005600036122
v 0.04899010062 0.1068908572 9.301277895e-32
v 0.04922379926 0.09019870311 -0.01254260167
v 0.04922379926 0.09019870311 0.01254260167
v 0.04958087206 -0.02019019611 -0.06149119884
v 0.04958087206 -0.02019019611 0.06149119884
v 0.04963367805 0.09587483853 -0.00525476085
v 0.04963367805 0.09587483853 0.00525476085
v 0.04978011921 0.095975779 8.351485009e-32
v 0.04979515448 -0.01978930831 -0.04900000617
v 0.04979515448 -0.01978930831 0.04900000617
v 0.04979517311 0.02129705437 -0.04900000617
v 0.04979517311 0.02129705437 0.04900000617
v 0.04990743846 0.02139971033 -0.04748281837
v 0.04990743846 0.02139971033 0.04748281837
v 0.05011697486 0.09070459008 -0.005052450579
v 0.05011697486 0.09070459008 0.005052450579
v 0.05022419244 0.09078295529 7.899623198e-32
v 0.05043207854 0.02171222307 -0.04704850912
v 0.05043207854 0.02171222307 0.04704850912
v 0.05065229908 -0.02019055746 -0.04748205096
v 0.05065229908 -0.02019055746 0.04748205096
v 0.05070393533 0.02635989524 -0.05441636592
v 0.05070393533 0.02635989524 0.05441636592
v 0.05114872754 -0.02084602229 -0.05675154179
v 0.05114872754 -0.02084602229 0.05675154179
v 0.0511688441 0.01439109724 -0.06175784767
v 0.0511688441 0.01439109724 0.06175784767
v 0.0515502505 -0.02061612532 -0.04748721793
v 0.0515502505 -0.02061612532 0.04748721793
v 0.05185291544 -0.02106160671 -0.05334606394
v 0.05185291544 -0.02106160671 0.05334606394
v 0.05195815861 0.02307177708 -0.04774080217
v 0.05195815861 0.02307177708 0.04774080217
v 0.05220622569 -0.0209911298 -0.05035916716
v 0.05220622569 -0.0209911298 0.05035916716
v 0.05225247145 0.02428522147 -0.0500741154
v 0.05225247145 0.02428522147 0.0500741154
v 0.05284996703 -0.009718947113 -0.06164296344
v 0.05284996703 -0.009718947113 -0.04900000617
v 0.05284996703 -0.009718947113 0.04900000617
v 0.05284996703 -0.009718947113 0.06164296344
v 0.05284997821 0.01122669689 -0.04900000617
v 0.05284997821 0.01122669689 0.04900000617
v 0.05297683924 0.01118174568 -0.04748262465
v 0.05297683924 0.01118174568 0.04748262465
v 0.0534783341 -0.009857029654 -0.0474820286
v 0.0534783341 -0.009857029654 0.0474820286
v 0.05360341817 0.01128390245 -0.04722028226
v 0.05360341817 0.01128390245 0.04722028226
v 0.05369146541 0.01285975892 -0.05606348068
v 0.05369146541 0.01285975892 0.05606348068
v 0.05388145894 0.0007538747741 -0.06169986725
v 0.05388145894 0.0007538747741 -0.04900000617
v 0.05388145894 0.0007538747741 0.04900000617
v 0.05388145894 0.0007538747741 0.06169986725
v 0.05409150571 -0.009994783439 -0.05682525039
v 0.05409150571 -0.009994783439 0.05682525039
v 0.05427442864 0.001045470242 -0.04748222232
v 0.05427442864 0.001045470242 0.04748222232
v 0.05446521565 -0.01001771446 -0.04753628001
v 0.05446521565 -0.01001771446 0.04753628001
v 0.05449789762 0.01247338764 -0.05221333727
v 0.05449789762 0.01247338764 0.05221333727
v 0.05466480926 0.01204305142 -0.04927172884
v 0.05466480926 0.01204305142 0.04927172884
v 0.05484302342 -0.01011814084 -0.05338317901
v 0.05484302342 -0.01011814084 0.05338317901
v 0.05510186031 -0.01024374925 -0.0503799729
v 0.05510186031 -0.01024374925 0.0503799729
v 0.05512014404 0.0006576013402 -0.05682525039
v 0.05512014404 0.0006576013402 0.05682525039
v 0.05519367754 0.0007710313657 -0.04749342799
v 0.05519367754 0.0007710313657 0.04749342799
v 0.05565078557 0.0005802631495 -0.05317009985
v 0.05565078557 0.0005802631495 0.05317009985
v 0.05589734018 0.0006066989736 -0.05012392998
v 0.05589734018 0.0006066989736 0.05012392998
f 237 177 197
f 197 269 237
f 237 263 217
f 217 207 237
f 237 207 193
f 193 177 237
f 651 579 575
f 575 653 651
f 318 151 249
f 249 453 318
f 453 249 298
f 298 461 453
f 453 461 600
f 600 598 453
f 649 573 579
f 579 651 649
f 362 372 285
f 285 271 362
f 362 247 251
f 251 346 362
f 362 437 441
f 441 372 362
f 362 346 427
f 427 437 362
f 61 62 137
f 137 136 61
f 62 61 70
f 70 71 62
f 62 71 82
f 82 75 62
f 62 75 147
f 147 137 62
f 90 165 147
f 147 75 90
f 147 165 312
f 312 296 147
f 147 296 292
f 292 137 147
f 292 291 136
f 136 137 292
f 291 292 403
f 403 402 291
f 542 545 629
f 629 628 542
f 542 475 476
f 476 545 542
f 476 478 547
f 547 545 476
f 476 475 402
f 402 403 476
f 476 403 409
f 409 478 476
f 409 417 482
f 482 478 409
f 403 292 296
f 296 409 403
f 409 296 312
f 312 417 409
f 312 322 415
f 415 417 312
f 322 326 405
f 405 415 322
f 312 165 181
f 181 322 312
f 322 181 193
f 193 326 322
f 193 207 328
f 328 326 193
f 207 217 324
f 324 328 207
f 235 314 324
f 324 217 235
f 235 231 294
f 294 314 235
f 217 263 279
f 279 235 217
f 235 279 275
f 275 231 235
f 275 261 213
f 213 231 275
f 261 275 370
f 370 364 261
f 261 364 338
f 338 227 261
f 261 227 191
f 191 213 261
f 183 163 191
f 191 227 183
f 163 199 271
f 271 191 163
f 163 183 104
f 104 80 163
f 163 80 96
f 96 199 163
f 41 45 96
f 96 80 41
f 45 59 134
f 134 96 45
f 45 41 15
f 15 13 45
f 45 13 29
f 29 59 45
f 1 5 29
f 29 13 1
f 5 19 33
f 33 29 5
f 5 1 9
f 9 17 5
f 5 17 31
f 31 19 5
f 31 38 24
f 24 19 31
f 31 17 49
f 49 57 31
f 31 57 68
f 68 38 31
f 68 667 38
f 68 57 132
f 132 156 68
f 68 156 667
f 156 256 667
f 667 35 24
f 24 38 667
f 35 667 66
f 35 66 64
f 64 33 35
f 35 33 19
f 19 24 35
f 64 66 153
f 153 149 64
f 64 149 134
f 134 59 64
f 64 59 29
f 29 33 64
f 134 149 251
f 251 247 134
f 134 247 199
f 199 96 134
f 362 271 199
f 199 247 362
f 271 285 213
f 213 191 271
f 294 231 213
f 213 285 294
f 285 372 382
f 382 294 285
f 294 382 386
f 386 314 294
f 386 396 324
f 324 314 386
f 398 328 324
f 324 396 398
f 405 326 328
f 328 398 405
f 405 398 469
f 469 473 405
f 405 473 480
f 480 415 405
f 480 473 543
f 543 549 480
f 480 549 551
f 551 482 480
f 480 482 417
f 417 415 480
f 551 549 624
f 624 622 551
f 551 622 631
f 631 547 551
f 551 547 478
f 478 482 551
f 631 629 545
f 545 547 631
f 620 626 543
f 543 540 620
f 620 540 530
f 530 618 620
f 530 520 614
f 614 618 530
f 530 540 469
f 469 463 530
f 530 463 451
f 451 520 530
f 451 449 512
f 512 520 451
f 451 463 396
f 396 386 451
f 451 386 382
f 382 449 451
f 512 506 610
f 610 612 512
f 512 612 614
f 614 520 512
f 512 449 441
f 441 506 512
f 77 78 71
f 71 70 77
f 94 82 71
f 71 78 94
f 139 114 82
f 82 94 139
f 114 139 179
f 179 161 114
f 114 161 141
f 141 90 114
f 114 90 75
f 75 82 114
f 141 161 197
f 197 177 141
f 141 177 193
f 193 181 141
f 141 181 165
f 165 90 141
f 161 179 233
f 233 197 161
f 233 289 269
f 269 197 233
f 400 394 269
f 269 289 400
f 394 388 237
f 237 269 394
f 384 263 237
f 237 388 384
f 376 279 263
f 263 384 376
f 370 275 279
f 279 376 370
f 370 376 504
f 504 500 370
f 370 500 494
f 494 364 370
f 364 494 471
f 471 338 364
f 471 461 298
f 298 338 471
f 338 298 183
f 183 227 338
f 249 104 183
f 183 298 249
f 104 249 151
f 151 55 104
f 104 55 41
f 41 80 104
f 27 15 41
f 41 55 27
f 15 27 7
f 7 3 15
f 15 3 1
f 1 13 15
f 11 9 1
f 1 3 11
f 9 11 47
f 47 43 9
f 9 43 49
f 49 17 9
f 106 120 49
f 49 43 106
f 120 132 57
f 57 49 120
f 120 106 209
f 209 219 120
f 120 219 239
f 239 132 120
f 239 256 156
f 156 132 239
f 239 219 340
f 340 348 239
f 239 348 353
f 353 256 239
f 353 667 256
f 353 348 423
f 423 434 353
f 353 434 667
f 434 534 667
f 667 253 153
f 153 66 667
f 253 667 350
f 253 350 346
f 346 251 253
f 253 251 149
f 149 153 253
f 350 667 431
f 431 667 510
f 431 510 514
f 514 427 431
f 514 510 602
f 602 604 514
f 514 604 606
f 606 508 514
f 514 508 437
f 437 427 514
f 508 606 610
f 610 506 508
f 508 506 441
f 441 437 508
f 616 494 500
f 500 633 616
f 616 608 471
f 471 494 616
f 471 608 600
f 600 461 471
f 500 504 635
f 635 633 500
f 504 376 384
f 384 516 504
f 504 516 637
f 637 635 504
f 637 516 528
f 528 639 637
f 85 78 77
f 77 84 85
f 116 94 78
f 78 85 116
f 159 139 94
f 94 116 159
f 189 179 139
f 139 159 189
f 259 233 179
f 179 189 259
f 316 289 233
f 233 259 316
f 425 400 289
f 289 316 425
f 400 425 561
f 561 553 400
f 553 538 394
f 394 400 553
f 528 388 394
f 394 538 528
f 516 384 388
f 388 528 516
f 538 553 643
f 643 641 538
f 538 641 639
f 639 528 538
f 92 85 84
f 84 87 92
f 124 116 85
f 85 92 124
f 167 159 116
f 116 124 167
f 205 189 159
f 159 167 205
f 273 259 189
f 189 205 273
f 330 316 259
f 259 273 330
f 447 425 316
f 316 330 447
f 565 561 425
f 425 447 565
f 645 643 553
f 553 561 645
f 100 92 87
f 87 89 100
f 126 124 92
f 92 100 126
f 169 167 124
f 124 126 169
f 211 205 167
f 167 169 211
f 283 273 205
f 205 211 283
f 342 330 273
f 273 283 342
f 457 447 330
f 330 342 457
f 573 565 447
f 447 457 573
f 565 573 649
f 649 647 565
f 647 645 561
f 561 565 647
f 102 100 89
f 89 88 102
f 128 126 100
f 100 102 128
f 171 169 126
f 126 128 171
f 221 211 169
f 169 171 221
f 287 283 211
f 211 221 287
f 356 342 283
f 283 287 356
f 467 457 342
f 342 356 467
f 579 573 457
f 457 467 579
f 492 575 579
f 579 467 492
f 366 492 467
f 467 356 366
f 366 356 287
f 287 300 366
f 287 221 243
f 243 300 287
f 243 221 171
f 171 185 243
f 171 128 143
f 143 185 171
f 143 128 102
f 102 108 143
f 102 88 98
f 98 108 102
f 173 51 151
f 151 318 173
f 173 118 23
f 23 51 173
f 130 37 23
f 23 118 130
f 37 21 7
f 7 23 37
f 37 130 175
f 175 73 37
f 37 73 53
f 53 21 37
f 155 122 53
f 53 73 155
f 122 112 47
f 47 53 122
f 122 155 255
f 255 229 122
f 122 229 215
f 215 112 122
f 336 332 215
f 215 229 336
f 332 334 209
f 209 215 332
f 332 336 413
f 413 411 332
f 332 411 407
f 407 334 332
f 518 522 407
f 407 411 518
f 522 526 419
f 419 407 522
f 522 518 584
f 584 582 522
f 522 582 586
f 586 526 522
f 175 241 155
f 155 73 175
f 320 255 155
f 155 241 320
f 255 320 374
f 374 352 255
f 255 352 336
f 336 229 255
f 433 413 336
f 336 352 433
f 413 433 536
f 536 524 413
f 413 524 518
f 518 411 413
f 588 584 518
f 518 524 588
f 374 455 433
f 433 352 374
f 559 536 433
f 433 455 559
f 559 596 592
f 592 536 559
f 536 592 588
f 588 524 536
f 593 667 534
f 593 534 532
f 532 590 593
f 532 534 434
f 434 423 532
f 532 423 419
f 419 526 532
f 532 526 586
f 586 590 532
f 419 423 348
f 348 340 419
f 419 340 334
f 334 407 419
f 219 209 334
f 334 340 219
f 209 106 112
f 112 215 209
f 43 47 112
f 112 106 43
f 47 11 21
f 21 53 47
f 3 7 21
f 21 11 3
f 7 27 51
f 51 23 7
f 55 151 51
f 51 27 55
f 602 510 667
f 449 382 372
f 372 441 449
f 463 469 398
f 398 396 463
f 540 543 473
f 473 469 540
f 626 624 549
f 549 543 626
f 350 431 427
f 427 346 350
f 653 575 563
f 563 655 653
f 575 492 465
f 465 563 575
f 492 366 368
f 368 465 492
f 366 300 302
f 302 368 366
f 300 243 245
f 245 302 300
f 243 185 187
f 187 245 243
f 185 143 145
f 145 187 185
f 143 108 110
f 110 145 143
f 108 98 99
f 99 110 108
f 655 563 567
f 567 657 655
f 563 465 488
f 488 567 563
f 465 368 390
f 390 488 465
f 368 302 358
f 358 390 368
f 302 245 304
f 304 358 302
f 245 187 265
f 265 304 245
f 187 145 223
f 223 265 187
f 145 110 201
f 201 223 145
f 110 99 195
f 195 201 110
f 657 567 569
f 569 659 657
f 567 488 490
f 490 569 567
f 390 392 490
f 490 488 390
f 390 358 360
f 360 392 390
f 358 304 306
f 306 360 358
f 304 265 267
f 267 306 304
f 265 223 225
f 225 267 265
f 223 201 203
f 203 225 223
f 201 195 196
f 196 203 201
f 1015 983 1055
f 1055 1075 1015
f 1015 1045 1035
f 1035 989 1015
f 1015 1075 1059
f 1059 1045 1015
f 651 653 681
f 681 673 651
f 799 1003 934
f 799 791 954
f 954 1003 799
f 799 598 600
f 600 791 799
f 649 651 673
f 673 685 649
f 890 981 967
f 967 880 890
f 890 906 1001
f 1001 1005 890
f 890 880 811
f 811 815 890
f 890 815 825
f 825 906 890
f 1192 1117 1115
f 1115 1190 1192
f 1190 1181 1183
f 1183 1192 1190
f 1190 1177 1170
f 1170 1181 1190
f 1190 1115 1105
f 1105 1177 1190
f 1162 1177 1105
f 1105 1087 1162
f 1105 956 940
f 940 1087 1105
f 1105 1115 960
f 960 956 1105
f 960 1115 1117
f 1117 962 960
f 962 851 849
f 849 960 962
f 711 628 629
f 629 707 711
f 711 707 778
f 778 780 711
f 778 707 705
f 705 776 778
f 778 849 851
f 851 780 778
f 778 776 843
f 843 849 778
f 843 776 772
f 772 835 843
f 849 843 956
f 956 960 849
f 843 835 940
f 940 956 843
f 940 835 837
f 837 930 940
f 930 837 847
f 847 926 930
f 940 930 1071
f 1071 1087 940
f 930 926 1059
f 1059 1071 930
f 1059 926 924
f 924 1045 1059
f 1045 924 928
f 928 1035 1045
f 1017 1035 928
f 928 938 1017
f 1017 938 958
f 958 1021 1017
f 1035 1017 973
f 973 989 1035
f 1017 1021 977
f 977 973 1017
f 977 1021 1039
f 1039 991 977
f 991 888 882
f 882 977 991
f 991 1025 914
f 914 888 991
f 991 1039 1061
f 1061 1025 991
f 1069 1025 1061
f 1061 1089 1069
f 1089 1061 981
f 981 1053 1089
f 1089 1172 1148
f 1148 1069 1089
f 1089 1053 1156
f 1156 1172 1089
f 1211 1172 1156
f 1156 1207 1211
f 1207 1156 1118
f 1118 1193 1207
f 1207 1239 1237
f 1237 1211 1207
f 1207 1193 1223
f 1223 1239 1207
f 1251 1239 1223
f 1223 1247 1251
f 1247 1223 1219
f 1219 1233 1247
f 1247 1235 1243
f 1243 1251 1247
f 1247 1233 1221
f 1221 1235 1247
f 1221 1233 1228
f 1228 1214 1221
f 1221 1195 1203
f 1203 1235 1221
f 1221 1214 1184
f 1184 1195 1221
f 1184 1214 667
f 1184 1096 1120
f 1120 1195 1184
f 1184 667 1096
f 667 996 1096
f 1228 1217 667
f 667 1214 1228
f 1217 1186 667
f 1217 1219 1188
f 1188 1186 1217
f 1217 1228 1233
f 1233 1219 1217
f 1188 1103 1099
f 1099 1186 1188
f 1188 1193 1118
f 1118 1103 1188
f 1188 1219 1223
f 1223 1193 1188
f 1118 1005 1001
f 1001 1103 1118
f 1118 1156 1053
f 1053 1005 1118
f 890 1005 1053
f 1053 981 890
f 981 1061 1039
f 1039 967 981
f 958 967 1039
f 1039 1021 958
f 967 958 870
f 870 880 967
f 958 938 866
f 866 870 958
f 866 938 928
f 928 856 866
f 854 856 928
f 928 924 854
f 847 854 924
f 924 926 847
f 847 781 785
f 785 854 847
f 847 837 774
f 774 781 847
f 774 703 709
f 709 781 774
f 774 772 701
f 701 703 774
f 774 837 835
f 835 772 774
f 701 622 624
f 624 703 701
f 701 705 631
f 631 622 701
f 701 772 776
f 776 705 701
f 631 705 707
f 707 629 631
f 620 712 709
f 709 626 620
f 620 618 722
f 722 712 620
f 722 618 614
f 614 732 722
f 722 789 785
f 785 712 722
f 722 732 801
f 801 789 722
f 801 732 740
f 740 803 801
f 801 866 856
f 856 789 801
f 801 803 870
f 870 866 801
f 740 612 610
f 610 746 740
f 740 732 614
f 614 612 740
f 740 746 811
f 811 803 740
f 1176 1183 1181
f 1181 1174 1176
f 1158 1174 1181
f 1181 1170 1158
f 1113 1158 1170
f 1170 1138 1113
f 1138 1091 1073
f 1073 1113 1138
f 1138 1162 1111
f 1111 1091 1138
f 1138 1170 1177
f 1177 1162 1138
f 1111 1075 1055
f 1055 1091 1111
f 1111 1071 1059
f 1059 1075 1111
f 1111 1162 1087
f 1087 1071 1111
f 1091 1055 1019
f 1019 1073 1091
f 1019 1055 983
f 983 963 1019
f 852 963 983
f 983 858 852
f 858 983 1015
f 1015 864 858
f 868 864 1015
f 1015 989 868
f 876 868 989
f 989 973 876
f 882 876 973
f 973 977 882
f 882 752 748
f 748 876 882
f 882 888 762
f 762 752 882
f 888 914 783
f 783 762 888
f 783 914 954
f 954 791 783
f 914 1025 1069
f 1069 954 914
f 1003 954 1069
f 1069 1148 1003
f 1148 1197 1101
f 1101 1003 1148
f 1148 1172 1211
f 1211 1197 1148
f 1225 1197 1211
f 1211 1237 1225
f 1237 1249 1245
f 1245 1225 1237
f 1237 1239 1251
f 1251 1249 1237
f 1241 1249 1251
f 1251 1243 1241
f 1243 1209 1205
f 1205 1241 1243
f 1243 1235 1203
f 1203 1209 1243
f 1146 1209 1203
f 1203 1132 1146
f 1132 1203 1195
f 1195 1120 1132
f 1132 1033 1043
f 1043 1146 1132
f 1132 1120 1013
f 1013 1033 1132
f 1013 1120 1096
f 1096 996 1013
f 1013 904 912
f 912 1033 1013
f 1013 996 899
f 899 904 1013
f 899 996 667
f 899 818 829
f 829 904 899
f 899 667 818
f 667 718 818
f 1099 999 667
f 667 1186 1099
f 999 902 667
f 999 1001 906
f 906 902 999
f 999 1099 1103
f 1103 1001 999
f 902 821 667
f 821 742 667
f 821 825 738
f 738 742 821
f 738 604 602
f 602 742 738
f 738 744 606
f 606 604 738
f 738 825 815
f 815 744 738
f 744 746 610
f 610 606 744
f 744 815 811
f 811 746 744
f 616 633 752
f 752 762 616
f 616 762 783
f 783 608 616
f 783 791 600
f 600 608 783
f 752 633 635
f 635 748 752
f 748 736 868
f 868 876 748
f 748 635 637
f 637 736 748
f 637 639 724
f 724 736 637
f 1167 1169 1176
f 1176 1174 1167
f 1136 1167 1174
f 1174 1158 1136
f 1093 1136 1158
f 1158 1113 1093
f 1063 1093 1113
f 1113 1073 1063
f 993 1063 1073
f 1073 1019 993
f 936 993 1019
f 1019 963 936
f 827 936 963
f 963 852 827
f 852 699 691
f 691 827 852
f 699 852 858
f 858 714 699
f 724 714 858
f 858 864 724
f 736 724 864
f 864 868 736
f 714 641 643
f 643 699 714
f 714 724 639
f 639 641 714
f 1160 1166 1169
f 1169 1167 1160
f 1128 1160 1167
f 1167 1136 1128
f 1085 1128 1136
f 1136 1093 1085
f 1047 1085 1093
f 1093 1063 1047
f 979 1047 1063
f 1063 993 979
f 922 979 993
f 993 936 922
f 805 922 936
f 936 827 805
f 689 805 827
f 827 691 689
f 645 691 699
f 699 643 645
f 1152 1164 1166
f 1166 1160 1152
f 1126 1152 1160
f 1160 1128 1126
f 1083 1126 1128
f 1128 1085 1083
f 1041 1083 1085
f 1085 1047 1041
f 969 1041 1047
f 1047 979 969
f 910 969 979
f 979 922 910
f 795 910 922
f 922 805 795
f 685 795 805
f 805 689 685
f 689 647 649
f 649 685 689
f 647 689 691
f 691 645 647
f 1150 1165 1164
f 1164 1152 1150
f 1124 1150 1152
f 1152 1126 1124
f 1081 1124 1126
f 1126 1083 1081
f 1031 1081 1083
f 1083 1041 1031
f 965 1031 1041
f 1041 969 965
f 896 965 969
f 969 910 896
f 787 896 910
f 910 795 787
f 673 787 795
f 795 685 673
f 764 787 673
f 673 681 764
f 884 896 787
f 787 764 884
f 884 950 965
f 965 896 884
f 965 950 1007
f 1007 1031 965
f 1007 1065 1081
f 1081 1031 1007
f 1081 1065 1107
f 1107 1124 1081
f 1107 1142 1150
f 1150 1124 1107
f 1150 1142 1154
f 1154 1165 1150
f 1079 934 1101
f 1101 1201 1079
f 1079 1201 1227
f 1227 1134 1079
f 1122 1134 1227
f 1227 1213 1122
f 1213 1227 1245
f 1245 1231 1213
f 1213 1179 1077
f 1077 1122 1213
f 1213 1231 1199
f 1199 1179 1213
f 1095 1179 1199
f 1199 1130 1095
f 1130 1199 1205
f 1205 1140 1130
f 1130 1023 995
f 995 1095 1130
f 1130 1140 1037
f 1037 1023 1130
f 916 1023 1037
f 1037 920 916
f 920 1037 1043
f 1043 918 920
f 920 841 839
f 839 916 920
f 920 918 845
f 845 841 920
f 734 841 845
f 845 730 734
f 730 845 833
f 833 726 730
f 730 582 584
f 584 734 730
f 730 726 586
f 586 582 730
f 1077 1179 1095
f 1095 1011 1077
f 932 1011 1095
f 1095 995 932
f 995 898 878
f 878 932 995
f 995 1023 916
f 916 898 995
f 817 898 916
f 916 839 817
f 839 728 716
f 716 817 839
f 839 841 734
f 734 728 839
f 588 728 734
f 734 584 588
f 878 898 817
f 817 797 878
f 693 797 817
f 817 716 693
f 693 716 592
f 592 596 693
f 716 728 588
f 588 592 716
f 593 718 667
f 593 590 720
f 720 718 593
f 720 829 818
f 818 718 720
f 720 726 833
f 833 829 720
f 720 590 586
f 586 726 720
f 833 912 904
f 904 829 833
f 833 845 918
f 918 912 833
f 1033 912 918
f 918 1043 1033
f 1043 1037 1140
f 1140 1146 1043
f 1209 1146 1140
f 1140 1205 1209
f 1205 1199 1231
f 1231 1241 1205
f 1249 1241 1231
f 1231 1245 1249
f 1245 1227 1201
f 1201 1225 1245
f 1197 1225 1201
f 1201 1101 1197
f 667 742 602
f 803 811 880
f 880 870 803
f 789 856 854
f 854 785 789
f 712 785 781
f 781 709 712
f 626 709 703
f 703 624 626
f 902 906 825
f 825 821 902
f 653 655 683
f 683 681 653
f 681 683 766
f 766 764 681
f 764 766 886
f 886 884 764
f 884 886 952
f 952 950 884
f 950 952 1009
f 1009 1007 950
f 1007 1009 1067
f 1067 1065 1007
f 1065 1067 1109
f 1109 1107 1065
f 1107 1109 1144
f 1144 1142 1107
f 1142 1144 1155
f 1155 1154 1142
f 655 657 675
f 675 683 655
f 683 675 754
f 754 766 683
f 766 754 860
f 860 886 766
f 886 860 892
f 892 952 886
f 952 892 946
f 946 1009 952
f 1009 946 985
f 985 1067 1009
f 1067 985 1027
f 1027 1109 1067
f 1109 1027 1049
f 1049 1144 1109
f 1144 1049 1057
f 1057 1155 1144
f 657 659 677
f 677 675 657
f 675 677 756
f 756 754 675
f 860 754 756
f 756 862 860
f 860 862 894
f 894 892 860
f 892 894 948
f 948 946 892
f 946 948 987
f 987 985 946
f 985 987 1029
f 1029 1027 985
f 1027 1029 1051
f 1051 1049 1027
f 1049 1051 1058
f 1058 1057 1049
f 934 1003 1101
f 318 453 496
f 496 378 318
f 453 598 671
f 671 496 453
f 130 118 277
f 277 281 130
f 320 241 344
f 344 380 320
f 559 455 498
f 498 571 559
f 596 559 571
f 571 669 596
f 173 318 378
f 378 308 173
f 118 173 308
f 308 277 118
f 175 130 281
f 281 310 175
f 241 175 310
f 310 344 241
f 374 320 380
f 380 439 374
f 455 374 439
f 439 498 455
f 799 934 874
f 874 760 799
f 598 799 760
f 760 671 598
f 1134 1122 971
f 971 975 1134
f 1011 932 872
f 872 908 1011
f 797 693 687
f 687 758 797
f 693 596 669
f 669 687 693
f 934 1079 944
f 944 874 934
f 1079 1134 975
f 975 944 1079
f 1122 1077 942
f 942 971 1122
f 1077 1011 908
f 908 942 1077
f 932 878 813
f 813 872 932
f 878 797 758
f 758 813 878
f 378 496 555
f 555 484 378
f 496 671 663
f 663 555 496
f 281 277 421
f 421 429 281
f 380 344 459
f 459 486 380
f 571 498 557
f 557 577 571
f 669 571 577
f 577 661 669
f 308 378 484
f 484 443 308
f 277 308 443
f 443 421 277
f 310 281 429
f 429 445 310
f 344 310 445
f 445 459 344
f 439 380 486
f 486 502 439
f 498 439 502
f 502 557 498
f 760 874 770
f 770 697 760
f 671 760 697
f 697 663 671
f 975 971 823
f 823 831 975
f 908 872 768
f 768 793 908
f 758 687 679
f 679 695 758
f 687 669 661
f 661 679 687
f 874 944 809
f 809 770 874
f 944 975 831
f 831 809 944
f 971 942 807
f 807 823 971
f 942 908 793
f 793 807 942
f 872 813 750
f 750 768 872
f 813 758 695
f 695 750 813
f 484 555 665
f 555 663 665
f 429 421 665
f 486 459 665
f 577 557 665
f 661 577 665
f 443 484 665
f 421 443 665
f 445 429 665
f 459 445 665
f 502 486 665
f 557 502 665
f 697 770 665
f 663 697 665
f 831 823 665
f 793 768 665
f 695 679 665
f 679 661 665
f 770 809 665
f 809 831 665
f 823 807 665
f 807 793 665
f 768 750 665
f 750 695 665
f 238 270 198
f 198 178 238
f 238 208 218
f 218 264 238
f 238 178 194
f 194 208 238
f 652 654 576
f 576 580 652
f 319 454 250
f 250 152 319
f 454 462 299
f 299 250 454
f 454 599 601
f 601 462 454
f 650 652 580
f 580 574 650
f 363 272 286
f 286 373 363
f 363 347 252
f 252 248 363
f 363 373 442
f 442 438 363
f 363 438 428
f 428 347 363
f 61 136 138
f 138 63 61
f 63 72 70
f 70 61 63
f 63 76 83
f 83 72 63
f 63 138 148
f 148 76 63
f 91 76 148
f 148 166 91
f 148 297 313
f 313 166 148
f 148 138 293
f 293 297 148
f 293 138 136
f 136 291 293
f 291 402 404
f 404 293 291
f 542 628 630
f 630 546 542
f 542 546 477
f 477 475 542
f 477 546 548
f 548 479 477
f 477 404 402
f 402 475 477
f 477 479 410
f 410 404 477
f 410 479 483
f 483 418 410
f 404 410 297
f 297 293 404
f 410 418 313
f 313 297 410
f 313 418 416
f 416 323 313
f 323 416 406
f 406 327 323
f 313 323 182
f 182 166 313
f 323 327 194
f 194 182 323
f 194 327 329
f 329 208 194
f 208 329 325
f 325 218 208
f 236 218 325
f 325 315 236
f 236 315 295
f 295 232 236
f 218 236 280
f 280 264 218
f 236 232 276
f 276 280 236
f 276 232 214
f 214 262 276
f 262 365 371
f 371 276 262
f 262 228 339
f 339 365 262
f 262 214 192
f 192 228 262
f 184 228 192
f 192 164 184
f 164 192 272
f 272 200 164
f 164 81 105
f 105 184 164
f 164 200 97
f 97 81 164
f 42 81 97
f 97 46 42
f 46 97 135
f 135 60 46
f 46 14 16
f 16 42 46
f 46 60 30
f 30 14 46
f 2 14 30
f 30 6 2
f 6 30 34
f 34 20 6
f 6 18 10
f 10 2 6
f 6 20 32
f 32 18 6
f 32 20 25
f 25 39 32
f 32 58 50
f 50 18 32
f 32 39 69
f 69 58 32
f 69 39 668
f 69 157 133
f 133 58 69
f 69 668 157
f 157 668 257
f 668 25 36
f 25 668 39
f 36 67 668
f 36 34 65
f 65 67 36
f 36 25 20
f 20 34 36
f 65 150 154
f 154 67 65
f 65 60 135
f 135 150 65
f 65 34 30
f 30 60 65
f 135 248 252
f 252 150 135
f 135 97 200
f 200 248 135
f 363 248 200
f 200 272 363
f 272 192 214
f 214 286 272
f 295 286 214
f 214 232 295
f 286 295 383
f 383 373 286
f 295 315 387
f 387 383 295
f 387 315 325
f 325 397 387
f 399 397 325
f 325 329 399
f 406 399 329
f 329 327 406
f 406 474 470
f 470 399 406
f 406 416 481
f 481 474 406
f 481 550 544
f 544 474 481
f 481 483 552
f 552 550 481
f 481 416 418
f 418 483 481
f 552 623 625
f 625 550 552
f 552 548 632
f 632 623 552
f 552 483 479
f 479 548 552
f 632 548 546
f 546 630 632
f 621 541 544
f 544 627 621
f 621 619 531
f 531 541 621
f 531 619 615
f 615 521 531
f 531 464 470
f 470 541 531
f 531 521 452
f 452 464 531
f 452 521 513
f 513 450 452
f 452 387 397
f 397 464 452
f 452 450 383
f 383 387 452
f 513 613 611
f 611 507 513
f 513 521 615
f 615 613 513
f 513 507 442
f 442 450 513
f 77 70 72
f 72 79 77
f 95 79 72
f 72 83 95
f 140 95 83
f 83 115 140
f 115 162 180
f 180 140 115
f 115 91 142
f 142 162 115
f 115 83 76
f 76 91 115
f 142 178 198
f 198 162 142
f 142 182 194
f 194 178 142
f 142 91 166
f 166 182 142
f 162 198 234
f 234 180 162
f 234 198 270
f 270 290 234
f 401 290 270
f 270 395 401
f 395 270 238
f 238 389 395
f 385 389 238
f 238 264 385
f 377 385 264
f 264 280 377
f 371 377 280
f 280 276 371
f 371 501 505
f 505 377 371
f 371 365 495
f 495 501 371
f 365 339 472
f 472 495 365
f 472 339 299
f 299 462 472
f 339 228 184
f 184 299 339
f 250 299 184
f 184 105 250
f 105 56 152
f 152 250 105
f 105 81 42
f 42 56 105
f 28 56 42
f 42 16 28
f 16 4 8
f 8 28 16
f 16 14 2
f 2 4 16
f 12 4 2
f 2 10 12
f 10 44 48
f 48 12 10
f 10 18 50
f 50 44 10
f 107 44 50
f 50 121 107
f 121 50 58
f 58 133 121
f 121 220 210
f 210 107 121
f 121 133 240
f 240 220 121
f 240 133 157
f 157 257 240
f 240 349 341
f 341 220 240
f 240 257 354
f 354 349 240
f 354 257 668
f 354 435 424
f 424 349 354
f 354 668 435
f 435 668 535
f 668 154 254
f 154 668 67
f 254 351 668
f 254 252 347
f 347 351 254
f 254 154 150
f 150 252 254
f 351 432 668
f 432 511 668
f 432 428 515
f 515 511 432
f 515 605 603
f 603 511 515
f 515 509 607
f 607 605 515
f 515 428 438
f 438 509 515
f 509 507 611
f 611 607 509
f 509 438 442
f 442 507 509
f 617 634 501
f 501 495 617
f 617 495 472
f 472 609 617
f 472 462 601
f 601 609 472
f 501 634 636
f 636 505 501
f 505 517 385
f 385 377 505
f 505 636 638
f 638 517 505
f 638 640 529
f 529 517 638
f 86 84 77
f 77 79 86
f 117 86 79
f 79 95 117
f 160 117 95
f 95 140 160
f 190 160 140
f 140 180 190
f 260 190 180
f 180 234 260
f 317 260 234
f 234 290 317
f 426 317 290
f 290 401 426
f 401 554 562
f 562 426 401
f 554 401 395
f 395 539 554
f 529 539 395
f 395 389 529
f 517 529 389
f 389 385 517
f 539 642 644
f 644 554 539
f 539 529 640
f 640 642 539
f 93 87 84
f 84 86 93
f 125 93 86
f 86 117 125
f 168 125 117
f 117 160 168
f 206 168 160
f 160 190 206
f 274 206 190
f 190 260 274
f 331 274 260
f 260 317 331
f 448 331 317
f 317 426 448
f 566 448 426
f 426 562 566
f 646 562 554
f 554 644 646
f 101 89 87
f 87 93 101
f 127 101 93
f 93 125 127
f 170 127 125
f 125 168 170
f 212 170 168
f 168 206 212
f 284 212 206
f 206 274 284
f 343 284 274
f 274 331 343
f 458 343 331
f 331 448 458
f 574 458 448
f 448 566 574
f 566 648 650
f 650 574 566
f 648 566 562
f 562 646 648
f 103 88 89
f 89 101 103
f 129 103 101
f 101 127 129
f 172 129 127
f 127 170 172
f 222 172 170
f 170 212 222
f 288 222 212
f 212 284 288
f 357 288 284
f 284 343 357
f 468 357 343
f 343 458 468
f 580 468 458
f 458 574 580
f 493 468 580
f 580 576 493
f 367 357 468
f 468 493 367
f 367 301 288
f 288 357 367
f 288 301 244
f 244 222 288
f 244 186 172
f 172 222 244
f 172 186 144
f 144 129 172
f 144 109 103
f 103 129 144
f 103 109 98
f 98 88 103
f 174 319 152
f 152 52 174
f 174 52 26
f 26 119 174
f 131 119 26
f 26 40 131
f 40 26 8
f 8 22 40
f 40 74 176
f 176 131 40
f 40 22 54
f 54 74 40
f 158 74 54
f 54 123 158
f 123 54 48
f 48 113 123
f 123 230 258
f 258 158 123
f 123 113 216
f 216 230 123
f 337 230 216
f 216 333 337
f 333 216 210
f 210 335 333
f 333 412 414
f 414 337 333
f 333 335 408
f 408 412 333
f 519 412 408
f 408 523 519
f 523 408 420
f 420 527 523
f 523 583 585
f 585 519 523
f 523 527 587
f 587 583 523
f 176 74 158
f 158 242 176
f 321 242 158
f 158 258 321
f 258 355 375
f 375 321 258
f 258 230 337
f 337 355 258
f 436 355 337
f 337 414 436
f 414 525 537
f 537 436 414
f 414 412 519
f 519 525 414
f 589 525 519
f 519 585 589
f 375 355 436
f 436 456 375
f 560 456 436
f 436 537 560
f 560 537 595
f 595 597 560
f 537 525 589
f 589 595 537
f 594 535 668
f 594 591 533
f 533 535 594
f 533 424 435
f 435 535 533
f 533 527 420
f 420 424 533
f 533 591 587
f 587 527 533
f 420 341 349
f 349 424 420
f 420 408 335
f 335 341 420
f 220 341 335
f 335 210 220
f 210 216 113
f 113 107 210
f 44 107 113
f 113 48 44
f 48 54 22
f 22 12 48
f 4 12 22
f 22 8 4
f 8 26 52
f 52 28 8
f 56 28 52
f 52 152 56
f 603 668 511
f 450 442 373
f 373 383 450
f 464 397 399
f 399 470 464
f 541 470 474
f 474 544 541
f 627 544 550
f 550 625 627
f 351 347 428
f 428 432 351
f 654 656 564
f 564 576 654
f 576 564 466
f 466 493 576
f 493 466 369
f 369 367 493
f 367 369 303
f 303 301 367
f 301 303 246
f 246 244 301
f 244 246 188
f 188 186 244
f 186 188 146
f 146 144 186
f 144 146 111
f 111 109 144
f 109 111 99
f 99 98 109
f 656 658 568
f 568 564 656
f 564 568 489
f 489 466 564
f 466 489 391
f 391 369 466
f 369 391 359
f 359 303 369
f 303 359 305
f 305 246 303
f 246 305 266
f 266 188 246
f 188 266 224
f 224 146 188
f 146 224 202
f 202 111 146
f 111 202 195
f 195 99 111
f 658 660 570
f 570 568 658
f 568 570 491
f 491 489 568
f 391 489 491
f 491 393 391
f 391 393 361
f 361 359 391
f 359 361 307
f 307 305 359
f 305 307 268
f 268 266 305
f 266 268 226
f 226 224 266
f 224 226 204
f 204 202 224
f 202 204 196
f 196 195 202
f 1016 1076 1056
f 1056 984 1016
f 1016 990 1036
f 1036 1046 1016
f 1016 1046 1060
f 1060 1076 1016
f 652 674 682
f 682 654 652
f 800 935 1004
f 800 1004 955
f 955 792 800
f 800 792 601
f 601 599 800
f 650 686 674
f 674 652 650
f 891 881 968
f 968 982 891
f 891 1006 1002
f 1002 907 891
f 891 816 812
f 812 881 891
f 891 907 826
f 826 816 891
f 1192 1191 1116
f 1116 1117 1192
f 1191 1192 1183
f 1183 1182 1191
f 1191 1182 1171
f 1171 1178 1191
f 1191 1178 1106
f 1106 1116 1191
f 1163 1088 1106
f 1106 1178 1163
f 1106 1088 941
f 941 957 1106
f 1106 957 961
f 961 1116 1106
f 961 962 1117
f 1117 1116 961
f 962 961 850
f 850 851 962
f 711 708 630
f 630 628 711
f 711 780 779
f 779 708 711
f 779 777 706
f 706 708 779
f 779 780 851
f 851 850 779
f 779 850 844
f 844 777 779
f 844 836 773
f 773 777 844
f 850 961 957
f 957 844 850
f 844 957 941
f 941 836 844
f 941 931 838
f 838 836 941
f 931 927 848
f 848 838 931
f 941 1088 1072
f 1072 931 941
f 931 1072 1060
f 1060 927 931
f 1060 1046 925
f 925 927 1060
f 1046 1036 929
f 929 925 1046
f 1018 939 929
f 929 1036 1018
f 1018 1022 959
f 959 939 1018
f 1036 990 974
f 974 1018 1036
f 1018 974 978
f 978 1022 1018
f 978 992 1040
f 1040 1022 978
f 992 978 883
f 883 889 992
f 992 889 915
f 915 1026 992
f 992 1026 1062
f 1062 1040 992
f 1070 1090 1062
f 1062 1026 1070
f 1090 1054 982
f 982 1062 1090
f 1090 1070 1149
f 1149 1173 1090
f 1090 1173 1157
f 1157 1054 1090
f 1212 1208 1157
f 1157 1173 1212
f 1208 1194 1119
f 1119 1157 1208
f 1208 1212 1238
f 1238 1240 1208
f 1208 1240 1224
f 1224 1194 1208
f 1252 1248 1224
f 1224 1240 1252
f 1248 1234 1220
f 1220 1224 1248
f 1248 1252 1244
f 1244 1236 1248
f 1248 1236 1222
f 1222 1234 1248
f 1222 1215 1229
f 1229 1234 1222
f 1222 1236 1204
f 1204 1196 1222
f 1222 1196 1185
f 1185 1215 1222
f 1185 668 1215
f 1185 1196 1121
f 1121 1097 1185
f 1185 1097 668
f 668 1097 997
f 1229 668 1218
f 668 1229 1215
f 1218 668 1187
f 1218 1187 1189
f 1189 1220 1218
f 1218 1220 1234
f 1234 1229 1218
f 1189 1187 1100
f 1100 1104 1189
f 1189 1104 1119
f 1119 1194 1189
f 1189 1194 1224
f 1224 1220 1189
f 1119 1104 1002
f 1002 1006 1119
f 1119 1006 1054
f 1054 1157 1119
f 891 982 1054
f 1054 1006 891
f 982 968 1040
f 1040 1062 982
f 959 1022 1040
f 1040 968 959
f 968 881 871
f 871 959 968
f 959 871 867
f 867 939 959
f 867 857 929
f 929 939 867
f 855 925 929
f 929 857 855
f 848 927 925
f 925 855 848
f 848 855 786
f 786 782 848
f 848 782 775
f 775 838 848
f 775 782 710
f 710 704 775
f 775 704 702
f 702 773 775
f 775 773 836
f 836 838 775
f 702 704 625
f 625 623 702
f 702 623 632
f 632 706 702
f 702 706 777
f 777 773 702
f 632 630 708
f 708 706 632
f 621 627 710
f 710 713 621
f 621 713 723
f 723 619 621
f 723 733 615
f 615 619 723
f 723 713 786
f 786 790 723
f 723 790 802
f 802 733 723
f 802 804 741
f 741 733 802
f 802 790 857
f 857 867 802
f 802 867 871
f 871 804 802
f 741 747 611
f 611 613 741
f 741 613 615
f 615 733 741
f 741 804 812
f 812 747 741
f 1176 1175 1182
f 1182 1183 1176
f 1159 1171 1182
f 1182 1175 1159
f 1114 1139 1171
f 1171 1159 1114
f 1139 1114 1074
f 1074 1092 1139
f 1139 1092 1112
f 1112 1163 1139
f 1139 1163 1178
f 1178 1171 1139
f 1112 1092 1056
f 1056 1076 1112
f 1112 1076 1060
f 1060 1072 1112
f 1112 1072 1088
f 1088 1163 1112
f 1092 1074 1020
f 1020 1056 1092
f 1020 964 984
f 984 1056 1020
f 853 859 984
f 984 964 853
f 859 865 1016
f 1016 984 859
f 869 990 1016
f 1016 865 869
f 877 974 990
f 990 869 877
f 883 978 974
f 974 877 883
f 883 877 749
f 749 753 883
f 883 753 763
f 763 889 883
f 889 763 784
f 784 915 889
f 784 792 955
f 955 915 784
f 915 955 1070
f 1070 1026 915
f 1004 1149 1070
f 1070 955 1004
f 1149 1004 1102
f 1102 1198 1149
f 1149 1198 1212
f 1212 1173 1149
f 1226 1238 1212
f 1212 1198 1226
f 1238 1226 1246
f 1246 1250 1238
f 1238 1250 1252
f 1252 1240 1238
f 1242 1244 1252
f 1252 1250 1242
f 1244 1242 1206
f 1206 1210 1244
f 1244 1210 1204
f 1204 1236 1244
f 1147 1133 1204
f 1204 1210 1147
f 1133 1121 1196
f 1196 1204 1133
f 1133 1147 1044
f 1044 1034 1133
f 1133 1034 1014
f 1014 1121 1133
f 1014 997 1097
f 1097 1121 1014
f 1014 1034 913
f 913 905 1014
f 1014 905 900
f 900 997 1014
f 900 668 997
f 900 905 830
f 830 819 900
f 900 819 668
f 668 819 719
f 1100 668 1000
f 668 1100 1187
f 1000 668 903
f 1000 903 907
f 907 1002 1000
f 1000 1002 1104
f 1104 1100 1000
f 903 668 822
f 822 668 743
f 822 743 739
f 739 826 822
f 739 743 603
f 603 605 739
f 739 605 607
f 607 745 739
f 739 745 816
f 816 826 739
f 745 607 611
f 611 747 745
f 745 747 812
f 812 816 745
f 617 763 753
f 753 634 617
f 617 609 784
f 784 763 617
f 784 609 601
f 601 792 784
f 753 749 636
f 636 634 753
f 749 877 869
f 869 737 749
f 749 737 638
f 638 636 749
f 638 737 725
f 725 640 638
f 1168 1175 1176
f 1176 1169 1168
f 1137 1159 1175
f 1175 1168 1137
f 1094 1114 1159
f 1159 1137 1094
f 1064 1074 1114
f 1114 1094 1064
f 994 1020 1074
f 1074 1064 994
f 937 964 1020
f 1020 994 937
f 828 853 964
f 964 937 828
f 853 828 692
f 692 700 853
f 700 715 859
f 859 853 700
f 725 865 859
f 859 715 725
f 737 869 865
f 865 725 737
f 715 700 644
f 644 642 715
f 715 642 640
f 640 725 715
f 1161 1168 1169
f 1169 1166 1161
f 1129 1137 1168
f 1168 1161 1129
f 1086 1094 1137
f 1137 1129 1086
f 1048 1064 1094
f 1094 1086 1048
f 980 994 1064
f 1064 1048 980
f 923 937 994
f 994 980 923
f 806 828 937
f 937 923 806
f 690 692 828
f 828 806 690
f 646 644 700
f 700 692 646
f 1153 1161 1166
f 1166 1164 1153
f 1127 1129 1161
f 1161 1153 1127
f 1084 1086 1129
f 1129 1127 1084
f 1042 1048 1086
f 1086 1084 1042
f 970 980 1048
f 1048 1042 970
f 911 923 980
f 980 970 911
f 796 806 923
f 923 911 796
f 686 690 806
f 806 796 686
f 690 686 650
f 650 648 690
f 648 646 692
f 692 690 648
f 1151 1153 1164
f 1164 1165 1151
f 1125 1127 1153
f 1153 1151 1125
f 1082 1084 1127
f 1127 1125 1082
f 1032 1042 1084
f 1084 1082 1032
f 966 970 1042
f 1042 1032 966
f 897 911 970
f 970 966 897
f 788 796 911
f 911 897 788
f 674 686 796
f 796 788 674
f 765 682 674
f 674 788 765
f 885 765 788
f 788 897 885
f 885 897 966
f 966 951 885
f 966 1032 1008
f 1008 951 966
f 1008 1032 1082
f 1082 1066 1008
f 1082 1125 1108
f 1108 1066 1082
f 1108 1125 1151
f 1151 1143 1108
f 1151 1165 1154
f 1154 1143 1151
f 1080 1202 1102
f 1102 935 1080
f 1080 1135 1230
f 1230 1202 1080
f 1123 1216 1230
f 1230 1135 1123
f 1216 1232 1246
f 1246 1230 1216
f 1216 1123 1078
f 1078 1180 1216
f 1216 1180 1200
f 1200 1232 1216
f 1098 1131 1200
f 1200 1180 1098
f 1131 1141 1206
f 1206 1200 1131
f 1131 1098 998
f 998 1024 1131
f 1131 1024 1038
f 1038 1141 1131
f 917 921 1038
f 1038 1024 917
f 921 919 1044
f 1044 1038 921
f 921 917 840
f 840 842 921
f 921 842 846
f 846 919 921
f 735 731 846
f 846 842 735
f 731 727 834
f 834 846 731
f 731 735 585
f 585 583 731
f 731 583 587
f 587 727 731
f 1078 1012 1098
f 1098 1180 1078
f 933 998 1098
f 1098 1012 933
f 998 933 879
f 879 901 998
f 998 901 917
f 917 1024 998
f 820 840 917
f 917 901 820
f 840 820 717
f 717 729 840
f 840 729 735
f 735 842 840
f 589 585 735
f 735 729 589
f 879 798 820
f 820 901 879
f 694 717 820
f 820 798 694
f 694 597 595
f 595 717 694
f 717 595 589
f 589 729 717
f 594 668 719
f 594 719 721
f 721 591 594
f 721 719 819
f 819 830 721
f 721 830 834
f 834 727 721
f 721 727 587
f 587 591 721
f 834 830 905
f 905 913 834
f 834 913 919
f 919 846 834
f 1034 1044 919
f 919 913 1034
f 1044 1147 1141
f 1141 1038 1044
f 1210 1206 1141
f 1141 1147 1210
f 1206 1242 1232
f 1232 1200 1206
f 1250 1246 1232
f 1232 1242 1250
f 1246 1226 1202
f 1202 1230 1246
f 1198 1102 1202
f 1202 1226 1198
f 668 603 743
f 804 871 881
f 881 812 804
f 790 786 855
f 855 857 790
f 713 710 782
f 782 786 713
f 627 625 704
f 704 710 627
f 903 822 826
f 826 907 903
f 654 682 684
f 684 656 654
f 682 765 767
f 767 684 682
f 765 885 887
f 887 767 765
f 885 951 953
f 953 887 885
f 951 1008 1010
f 1010 953 951
f 1008 1066 1068
f 1068 1010 1008
f 1066 1108 1110
f 1110 1068 1066
f 1108 1143 1145
f 1145 1110 1108
f 1143 1154 1155
f 1155 1145 1143
f 656 684 676
f 676 658 656
f 684 767 755
f 755 676 684
f 767 887 861
f 861 755 767
f 887 953 893
f 893 861 887
f 953 1010 947
f 947 893 953
f 1010 1068 986
f 986 947 1010
f 1068 1110 1028
f 1028 986 1068
f 1110 1145 1050
f 1050 1028 1110
f 1145 1155 1057
f 1057 1050 1145
f 658 676 678
f 678 660 658
f 676 755 757
f 757 678 676
f 861 863 757
f 757 755 861
f 861 893 895
f 895 863 861
f 893 947 949
f 949 895 893
f 947 986 988
f 988 949 947
f 986 1028 1030
f 1030 988 986
f 1028 1050 1052
f 1052 1030 1028
f 1050 1057 1058
f 1058 1052 1050
f 935 1102 1004
f 319 379 497
f 497 454 319
f 454 497 672
f 672 599 454
f 131 282 278
f 278 119 131
f 321 381 345
f 345 242 321
f 560 572 499
f 499 456 560
f 597 670 572
f 572 560 597
f 174 309 379
f 379 319 174
f 119 278 309
f 309 174 119
f 176 311 282
f 282 131 176
f 242 345 311
f 311 176 242
f 375 440 381
f 381 321 375
f 456 499 440
f 440 375 456
f 800 761 875
f 875 935 800
f 599 672 761
f 761 800 599
f 1135 976 972
f 972 1123 1135
f 1012 909 873
f 873 933 1012
f 798 759 688
f 688 694 798
f 694 688 670
f 670 597 694
f 935 875 945
f 945 1080 935
f 1080 945 976
f 976 1135 1080
f 1123 972 943
f 943 1078 1123
f 1078 943 909
f 909 1012 1078
f 933 873 814
f 814 879 933
f 879 814 759
f 759 798 879
f 379 485 556
f 556 497 379
f 497 556 664
f 664 672 497
f 282 430 422
f 422 278 282
f 381 487 460
f 460 345 381
f 572 578 558
f 558 499 572
f 670 662 578
f 578 572 670
f 309 444 485
f 485 379 309
f 278 422 444
f 444 309 278
f 311 446 430
f 430 282 311
f 345 460 446
f 446 311 345
f 440 503 487
f 487 381 440
f 499 558 503
f 503 440 499
f 761 698 771
f 771 875 761
f 672 664 698
f 698 761 672
f 976 832 824
f 824 972 976
f 909 794 769
f 769 873 909
f 759 696 680
f 680 688 759
f 688 680 662
f 662 670 688
f 875 771 810
f 810 945 875
f 945 810 832
f 832 976 945
f 972 824 808
f 808 943 972
f 943 808 794
f 794 909 943
f 873 769 751
f 751 814 873
f 814 751 696
f 696 759 814
f 485 666 556
f 556 666 664
f 430 666 422
f 487 666 460
f 578 666 558
f 662 666 578
f 444 666 485
f 422 666 444
f 446 666 430
f 460 666 446
f 503 666 487
f 558 666 503
f 698 666 771
f 664 666 698
f 832 666 824
f 794 666 769
f 696 666 680
f 680 666 662
f 771 666 810
f 810 666 832
f 824 666 808
f 808 666 794
f 769 666 751
f 751 666 696
f 659 569 581
f 569 490 581
f 490 392 581
f 392 360 581
f 360 306 581
f 306 267 581
f 267 225 581
f 225 203 581
f 203 196 581
f 677 659 581
f 756 677 581
f 862 756 581
f 894 862 581
f 948 894 581
f 987 948 581
f 1029 987 581
f 1051 1029 581
f 1058 1051 581
f 570 660 581
f 491 570 581
f 393 491 581
f 361 393 581
f 307 361 581
f 268 307 581
f 226 268 581
f 204 226 581
f 196 204 581
f 660 678 581
f 678 757 581
f 757 863 581
f 863 895 581
f 895 949 581
f 949 988 581
f 988 1030 581
f 1030 1052 581
f 1052 1058 581
