v -0.04803407192 0.00139975932 0.1720000207
v -0.04802419245 0.002908408176 0.2428361624
v -0.04796291515 0.003078143811 0.2510443032
v -0.04794845358 0.002741086297 0.234953627
v -0.04793877155 -0.004357996397 0.2427827865
v -0.04791622236 0.002582028508 0.2273682654
v -0.04791273549 0.001658405061 0.1853718013
v -0.04790136963 -0.00392777659 0.250977993
v -0.04787065461 0.001795879449 0.1921099126
v -0.04784559458 0.002424612176 0.2199947834
v -0.04784415662 0.001946437871 0.1989129484
v -0.0478422977 0.001520149526 0.1786752641
v -0.04783948883 0.002106245607 0.2058130056
v -0.04783676192 0.002263031667 0.2128265798
v -0.04780206457 -0.004772912711 0.2349106818
v -0.04776544496 0.003257196164 0.2595783174
v -0.04776197299 -0.003498654114 0.25951159
v -0.04771062359 -0.005191525444 0.2273349762
v -0.04759549722 -0.005603950471 0.2199683934
v -0.04752470925 -0.006024034694 0.2128085345
v -0.04747287557 -0.006422077306 0.2057994753
v -0.0474598296 -0.003070692765 0.2683628798
v -0.04743357003 -0.006809915416 0.1989063323
v -0.04742297158 0.003477294231 0.268422246
v -0.04738856852 -0.007173421793 0.1921076477
v -0.04737664759 -0.008200369775 0.1720000207
v -0.04733303562 -0.007513256744 0.1853712648
v -0.04724800587 -0.007841664366 0.1786746681
v -0.0471320115 0.01003715396 0.2508657575
v -0.04711744189 0.01011401881 0.242697984
v -0.04704263806 -0.002661357401 0.277528286
v -0.04701929167 -0.01029699016 0.2591660619
v -0.04701304808 0.009997623973 0.2593506277
v -0.04701135308 -0.01095411088 0.250685215
v -0.04700370505 0.00378766912 0.277577728
v -0.04698298872 0.01018976886 0.234842211
v -0.04689485952 0.01028296817 0.2272706032
v -0.0468354784 -0.009675227106 0.2679459751
v -0.0467957668 -0.01161097549 0.2425442487
v -0.04679492861 0.01037053298 0.2199113071
v -0.04674835503 0.0108405482 0.1720000207
v -0.04673871771 0.01045869756 0.2127535194
v -0.04673136771 0.01000719611 0.2681116462
v -0.0467219986 0.0105392905 0.2057508975
v -0.04667888582 0.01066036988 0.1920707822
v -0.04667783901 0.01060129795 0.198862046
v -0.04667458311 0.01070952136 0.1853450239
v -0.04659585282 0.01075003389 0.1786612868
v -0.04658041522 -0.002291369485 0.2869076133
v -0.04657304659 -0.009162578732 0.27703619
v -0.04652333632 0.004200641066 0.2869385779
v -0.04651286453 -0.01226581354 0.2347215563
v -0.04640064389 0.01018346287 0.2771420479
v -0.04632610828 -0.008826176636 0.2863386571
v -0.04625496268 -0.01292237267 0.2271745652
v -0.04621533677 -0.001965268049 0.2963297963
v -0.04618094116 0.004755298607 0.296304822
v -0.04613718018 0.01067927759 0.286344856
v -0.04610299319 -0.008719366975 0.295704633
v -0.04595285282 -0.01355560217 0.2198376656
v -0.04595121741 -0.001653444022 0.305445224
v -0.04594701156 0.01148464996 0.2955561876
v -0.04593014345 0.005458083004 0.3054315746
v -0.04589885101 -0.008798081428 0.3049093187
v -0.04581942409 0.01251142751 0.3046217263
v -0.04573884979 -0.01422405429 0.2127010524
v -0.04572599381 -0.01590196043 0.3035557866
v -0.04568882659 -0.01551320218 0.2944337726
v -0.04565613344 0.006192831323 0.3143203855
v -0.04565225169 -0.001359498827 0.3144451678
v -0.04564192519 -0.008884543553 0.3138687611
v -0.04563385248 0.01361648273 0.313408792
v -0.0455981493 -0.01638511568 0.312474966
v -0.04553065076 -0.01483235136 0.2057143748
v -0.04547772557 -0.01542118378 0.2852331996
v -0.0454482846 0.01950192265 0.3031088114
v -0.04542890936 -0.01630383171 0.2671940923
v -0.04542442039 -0.01571271382 0.2760926187
v -0.04539460689 0.0166761782 0.2588789463
v -0.04538829997 0.01813520491 0.294231534
v -0.04536288604 0.0209308546 0.3118019402
v -0.04532628134 0.01691546477 0.2504885197
v -0.04532513022 -0.01709797606 0.2585665286
v -0.04531272128 -0.01540101692 0.1988398433
v -0.04529677331 0.0165343713 0.2674943507
v -0.04517437145 -0.0237804167 0.310336262
v -0.04515871033 0.01719742268 0.2424052805
v -0.04515036196 -0.01595317945 0.1920609176
v -0.04512451962 0.01713915914 0.285253495
v -0.0450918749 0.01661753282 0.2763112187
v -0.04508042336 -0.01666288823 0.3214181662
v -0.04505171999 0.006823331118 0.3230640888
v -0.04505049065 0.01459494978 0.3221846819
v -0.04504745454 -0.001037124777 0.3232029974
v -0.04504726827 -0.008882577531 0.3226627707
v -0.04501514882 -0.02302056737 0.3014665842
v -0.04495117813 -0.01647015847 0.1853412092
v -0.04494563863 -0.01791950315 0.2501901984
v -0.04493905976 0.02217770554 0.320633173
v -0.04487840831 -0.02423880249 0.3195017576
v -0.04486936703 0.0174730774 0.2345967293
v -0.04475308955 -0.01695939712 0.1786600947
v -0.04471654817 -0.01750991307 0.1720000207
v -0.04465707392 0.01778448373 0.2270629406
v -0.04457342997 -0.0223124139 0.2925720513
v -0.04450898618 -0.01877197623 0.242157042
v -0.04446466267 0.02815015055 0.309442848
v -0.04445227236 0.0180960875 0.2197327316
v -0.04435566813 0.0263254866 0.3009067774
v -0.04428237677 0.02960824408 0.3183630705
v -0.04427736625 0.01840168238 0.2126003206
v -0.04412925988 0.01867086627 0.2056217343
v -0.0440252535 0.0189350266 0.1987617463
v -0.044015266 0.02467053756 0.2924025357
v -0.04399457574 -0.01960800402 0.2344090343
v -0.04390469193 -0.03164421394 0.3168640733
v -0.0439046137 0.01915610209 0.1919957399
v -0.04389888048 -0.02423753031 0.3290390968
v -0.04388447478 -0.01654605381 0.3305372894
v -0.0438628234 -0.02200660482 0.2836535573
v -0.04380964488 0.015225159 0.3310247958
v -0.04379750416 -0.008693126962 0.3314753771
v -0.04379060119 0.02299680375 0.3297656775
v -0.0437855497 0.01935172826 0.185295701
v -0.04378115386 0.01980993524 0.1720000207
v -0.04376480356 0.007282060571 0.3317416906
v -0.04375191778 -0.0007006356027 0.3318808973
v -0.04373981804 -0.03102342412 0.3074611425
v -0.04366324842 0.01953683235 0.1786366999
v -0.04349977151 -0.02045801282 0.2269157618
v -0.0434865728 0.03050166741 0.3278749585
v -0.04342278466 -0.03158612177 0.3269927204
v -0.04328134656 0.02351130173 0.283809185
v -0.04323454201 -0.02220718749 0.274831742
v -0.04313839972 -0.02993046306 0.2987100184
v -0.0430149585 -0.02132782154 0.2196213007
v -0.04292232916 0.022960715 0.2752269506
v -0.04290152714 -0.02288715914 0.2662113309
v -0.04286321998 0.02291970886 0.2666862011
v -0.0428137742 0.03626244888 0.3156508505
v -0.04273635522 0.02318832651 0.2582608759
v -0.04265839979 0.03702038899 0.3257181644
v -0.04253216088 -0.02213303186 0.2125328481
v -0.04245139658 0.02356816828 0.2500105798
v -0.0424400866 -0.02375973947 0.2577956617
v -0.04241763428 0.03472159803 0.3064433336
v -0.04239538684 -0.03806518763 0.3246516585
v -0.04214579612 -0.02891056612 0.2902287543
v -0.04209687188 -0.0228930749 0.2055802494
v -0.04202887043 0.02398049086 0.2420235574
v -0.04198164493 -0.03823550791 0.3137410283
v -0.04180095345 -0.02370418794 0.3387680948
v -0.04178054631 0.03272214159 0.298137784
v -0.04177957028 -0.02468089946 0.2495867163
v -0.04175405204 0.02327437326 0.339078486
v -0.04173923284 -0.03095902503 0.3374238312
v -0.04171628132 -0.01607576199 0.3397786319
v -0.04167160392 0.0307453759 0.3377160132
v -0.04166044667 0.01550318766 0.3400130868
v -0.04164031148 -0.02359620109 0.1987352371
v -0.04160623625 -0.008278205059 0.3404327333
v -0.04157461971 0.00760201551 0.3405620754
v -0.04155007005 -0.0003547790693 0.340700686
v -0.04154170305 0.02441180125 0.2342778444
v -0.0413717404 -0.03743224218 0.3358612061
v -0.04133797437 0.03714547679 0.3361760974
v -0.04130700231 0.04200785607 0.3239115775
v -0.04124911129 -0.02427041344 0.1919856369
v -0.04115225747 0.02490705624 0.2267842442
v -0.04105651006 0.03095125966 0.2901374996
v -0.04101096839 -0.02565603331 0.2416890562
v -0.04095912725 -0.04313666746 0.3227585554
v -0.04091468081 -0.02842524275 0.2817911208
v -0.0408744216 -0.02490491793 0.1852927506
v -0.0407345444 -0.04250938818 0.334510833
v -0.04073273018 0.0253683608 0.219488591
v -0.04068952054 0.04183938727 0.3348520696
v -0.04060382396 -0.03745962307 0.3039827347
v -0.04047502205 -0.02547827736 0.1786375046
v -0.04039381444 0.04161215201 0.3133040071
v -0.04038942605 0.02584757842 0.2123904973
v -0.0402934663 -0.02616800368 0.1720000207
v -0.04017658904 -0.02660994418 0.2340298593
v -0.04010602087 0.02966052108 0.2821436226
v -0.04008859396 0.02627757192 0.2054466903
v -0.0398911871 -0.0285456907 0.2734224498
v -0.0397875905 0.02664736472 0.1986201853
v -0.03953985497 0.02699228004 0.1918926388
v -0.03949132562 0.02903107367 0.2740248144
v -0.03946674988 -0.04618743435 0.3335230947
v -0.03940644115 -0.03622541204 0.2954647541
v -0.03933618963 -0.02758729085 0.2266032249
v -0.0392986536 0.02730266936 0.1852271259
v -0.03922452033 0.04598490521 0.3227133453
v -0.03917931765 0.04572500288 0.3337814212
v -0.03915489092 0.02894852497 0.2658188045
v -0.03912439942 -0.02914956957 0.2651376128
v -0.03907990083 -0.04327503964 0.3114490211
v -0.03906759247 0.02756637149 0.178604424
v -0.03905979916 0.02795715071 0.1720000207
v -0.03883811086 -0.04681041092 0.3216795325
v -0.03883534297 0.0403620787 0.3037099838
v -0.03877710924 0.02924372815 0.2576183677
v -0.03853210434 0.03062445484 0.3474777937
v -0.03852397576 -0.02853360772 0.2193733305
v -0.03850317746 0.0368639864 0.3464593291
v -0.03848895058 -0.03013878316 0.347618103
v -0.03847067803 0.02329860814 0.3483982086
v -0.03843927756 -0.02297436446 0.3484436274
v -0.03841745108 -0.03654125705 0.3466642797
v -0.03834015504 -0.01549656503 0.3490796685
v -0.03833569586 0.01561739575 0.3490748405
v -0.03828178719 0.02969456092 0.2495243251
v -0.03826507926 -0.02999662049 0.2569842041
v -0.0382325314 -0.007821482606 0.3494844735
v -0.03822986782 0.00781421084 0.3494924307
v -0.03821174055 0.04155445844 0.3455109894
v -0.03820939735 -0.04165323079 0.3457964957
v -0.03819283471 -1.727137715e-05 0.3496294618
v -0.03782291338 -0.02946371958 0.2123281956
v -0.0377532579 -0.03504387289 0.2876967788
v -0.03766928613 0.03023099899 0.2416199446
v -0.03750892729 0.03842731565 0.2953967452
v -0.03748623282 -0.04543525726 0.344971776
v -0.03741581738 -0.04831773043 0.3328113854
v -0.03732438013 0.04578791186 0.3120172322
v -0.0372495763 0.04543025419 0.3445633352
v -0.03724056482 -0.03094117716 0.2490063459
v -0.03711799532 -0.03031023592 0.205419302
v -0.03698266298 0.03077769279 0.2339285314
v -0.03668867424 0.04852781072 0.3329452574
v -0.03640521318 0.03668094054 0.28804636
v -0.03640295938 -0.03108310699 0.1986148804
v -0.03639675677 0.03140772134 0.2264778018
v -0.0362999849 -0.0486596562 0.321325928
v -0.03619305789 -0.04275505245 0.3014852405
v -0.03617788479 -0.03430177644 0.2799395621
v -0.03615353256 -0.03195504099 0.2412206084
v -0.03611588106 0.04862871021 0.3222129345
v -0.03592145443 -0.04709426314 0.3104496002
v -0.03583279625 -0.04792194068 0.3440361917
v -0.03577222303 0.03202825785 0.2192195654
v -0.03573483974 -0.03179598972 0.1919022352
v -0.03529099002 0.03521329165 0.2806843519
v -0.03517254442 0.03257022053 0.2121575177
v -0.03513288498 -0.03246044368 0.1852390766
v -0.03511597216 0.04842117056 0.3434283733
v -0.03498039767 -0.03297518566 0.2336512953
v -0.0349105224 -0.03420530632 0.2720883191
v -0.03489734977 -0.04925219715 0.3322221637
v -0.03464341909 0.0330770202 0.2052517831
v -0.03459130228 0.03440313786 0.272993058
v -0.03450717032 0.04481045902 0.3022916913
v -0.03448046371 -0.03301165625 0.1786113679
v -0.03439999744 -0.04875219613 0.3321694136
v -0.03414007276 0.033521384 0.1984609663
v -0.03413531557 0.0342652835 0.2650826275
v -0.03405120596 -0.03371606022 0.1720000207
v -0.03387980908 0.03648821637 0.3560898304
v -0.03384516761 0.03037050739 0.3567953706
v -0.03384075686 -0.03400383517 0.2262889743
v -0.03383780643 0.04126293585 0.3554483652
v -0.03380820155 -0.03463187441 0.2641845644
v -0.03372121602 0.02323381789 0.3574333191
v -0.03370569274 0.05245220289 0.3313318789
v -0.03369890153 0.03392026201 0.1917734742
v -0.03369356319 0.05880220234 0.3310790658
v -0.03366918117 0.03457603604 0.2570667565
v -0.03361007199 -0.02943454869 0.357236445
v -0.03360274434 -0.03580167145 0.3566280007
v -0.03358158842 0.01566180401 0.3579351902
v -0.03357590362 -0.04925189912 0.3429797292
v -0.03354788944 -0.02235590853 0.3577342629
v -0.03353045508 -0.04925220087 0.3213087618
v -0.033520706 -0.04146051779 0.2930393815
v -0.03350076452 0.04861645401 0.3118111491
v -0.03348375112 -0.04100947082 0.3560450077
v -0.03347367793 -0.01497498341 0.3581175506
v -0.03347058967 0.04515392333 0.3547310233
v -0.03346425295 0.007980817929 0.3582633734
v -0.0334123075 -0.007400309667 0.3583496213
v -0.03340107203 0.0002677848097 0.3583989739
v -0.03334058449 -0.04144192487 0.3316492736
v -0.03333519772 0.0342973657 0.1851503551
v -0.03312109783 0.05028687418 0.3322055638
v -0.03309496865 -0.04875193909 0.3428173661
v -0.03303347528 -0.04875219986 0.321362406
v -0.03302224353 0.03507686779 0.2490991652
v -0.03298684955 -0.04478720948 0.3553721011
v -0.03296203911 0.03455881774 0.1785668582
v -0.03279075772 0.03496528044 0.1720000207
v -0.03271953017 0.05880220234 0.3411929607
v -0.03270554543 -0.03497423977 0.219120115
v -0.03267373517 -0.03536303341 0.2563058436
v -0.03265723959 0.05245220289 0.3414651752
v -0.03259836882 -0.04880745336 0.3105035424
v -0.03223593533 0.05245219916 0.3211969137
v -0.03221150488 0.03568376601 0.2412633002
v -0.03218899667 0.05006857216 0.3221637607
v -0.03218279406 0.05880220234 0.3209868968
v -0.03206881508 -0.04152259976 0.3421018124
v -0.03186640143 0.04311121628 0.2938375175
v -0.03185474128 0.05010415986 0.3420632184
v -0.03180714324 -0.04144635051 0.3209588826
v -0.03172506019 -0.04753208533 0.35431692
v -0.0317229405 -0.04658221081 0.3007114828
v -0.03166881576 -0.03592482209 0.2121197581
v -0.03163616732 0.04829964414 0.3533404469
v -0.03143155202 -0.03634266555 0.2485085726
v -0.03139044717 -0.04008236155 0.2857765555
v -0.03130219877 0.0363207981 0.2336028665
v -0.0306543 -0.03677150607 0.205255717
v -0.03044026345 0.03702356666 0.2261757404
v -0.0301816687 0.0413515754 0.2868326604
v -0.03003071249 -0.03733433783 0.2408290803
v -0.02975950763 -0.04923954979 0.352927357
v -0.02974267304 -0.03906360269 0.2784009278
v -0.02968836576 -0.03753851727 0.1984958351
v -0.02961228788 -0.04925220087 0.3109764159
v -0.0295249261 0.05880220234 0.3506686091
v -0.02952122316 0.03765127808 0.2189444005
v -0.02951266617 0.04808547348 0.3021618426
v -0.02939871699 0.05245220289 0.3509522378
v -0.02932772413 0.05245220289 0.3315769136
v -0.02932617068 0.05075220391 0.3316558599
v -0.02930244431 -0.04874083772 0.3526479006
v -0.02912592515 -0.04875219986 0.3111153543
v -0.02912085131 0.05000025034 0.3123835325
v -0.0290918909 0.03971534595 0.2797058523
v -0.02875493094 -0.03822313994 0.1918191314
v -0.02873587981 0.04995446652 0.3514674306
v -0.02870967239 0.03828720748 0.2119125426
v -0.02865494788 0.05880219862 0.311316222
v -0.02860250697 0.05245219916 0.3115000725
v -0.02854732424 -0.03837355971 0.233333379
v -0.02848732471 -0.04153004661 0.3518275023
v -0.02844662219 0.03865850717 0.272251904
v -0.02838116884 -0.03858461231 0.27096802
v -0.02830169722 0.05245220289 0.3407354355
v -0.02828294411 0.05075220391 0.3408285677
v -0.02806812152 0.05075220019 0.3224385083
v -0.02803732455 0.05245219916 0.3223818243
v -0.02800456807 0.03836425766 0.2645495236
v -0.02794926241 0.03884463757 0.2050491571
v -0.02789888531 -0.03882940486 0.1851879656
v -0.02772012353 -0.04153879732 0.3107814789
v -0.02756407857 0.03613849729 0.3648149371
v -0.02754671872 0.04095898569 0.364313215
v -0.02754023299 0.03875144199 0.2566858828
v -0.0274938643 0.03006220236 0.3653208017
v -0.0273771137 0.02310168557 0.3658082485
v -0.02723870054 -0.04549255967 0.2922986746
v -0.02723387256 0.03932870552 0.1983048022
v -0.02723081037 0.01567320526 0.3661940098
v -0.02720448375 0.04476148635 0.3636085987
v -0.02711897716 -0.03868675604 0.2633946538
v -0.02709657699 0.008108926006 0.3664529324
v -0.02709144354 -0.03937171027 0.1785835624
v -0.0270447284 -0.03934812546 0.2260067761
v -0.02700458281 0.0005133976811 0.36658144
v -0.02699126676 -0.02892513759 0.3658734262
v -0.02698601037 -0.02188237943 0.3662046194
v -0.0269735083 -0.007056712173 0.366589278
v -0.02697279304 -0.01454741135 0.3664530516
v -0.02696172148 -0.03536293656 0.3654692173
v -0.02691473253 -0.04075522721 0.3650850356
v -0.02680547349 0.0393926315 0.2487931252
v -0.02675201185 -0.04866784811 0.3010100722
v -0.02667435445 -0.04443056509 0.3646125793
v -0.02658122219 0.03972734511 0.1916610748
v -0.02641167864 -0.03999801353 0.1720000207
v -0.02604749426 0.04007947072 0.1850766391
v -0.02592775784 -0.03949208185 0.2557989657
v -0.02582990006 0.04790176079 0.3620916009
v -0.02582753077 0.04008937627 0.2409909219
v -0.02574981749 -0.04734103382 0.3635315895
v -0.02561201528 -0.04031708464 0.2188847065
v -0.02555764653 0.04033072293 0.1785271913
v -0.02532210387 0.0470886901 0.2936279178
v -0.0253019426 0.05245220289 0.3492904902
v -0.02526618727 0.04074588418 0.1720000207
v -0.02524950728 0.05075220391 0.3493730426
v -0.02472811192 0.05075220019 0.3137295544
v -0.0246895086 0.05245219916 0.3136901557
v -0.02468282729 0.04080602899 0.2333358824
v -0.02458573133 -0.04060463235 0.2481601834
v -0.02430709824 0.05880220234 0.3590276837
v -0.02420885116 -0.04116697609 0.2119259387
v -0.02410355397 0.05245219916 0.3593300581
v -0.02392511256 -0.04379662871 0.2844593525
v -0.02387095243 0.04983556643 0.3033515513
v -0.0238269642 -0.04922624305 0.3616367877
v -0.02351755463 0.04151120409 0.2259004116
v -0.0235049352 0.04976285994 0.3597921133
v -0.02342944592 -0.04872883856 0.3612575531
v -0.02322814986 -0.04925220087 0.3018418849
v -0.02299384214 0.04495894536 0.2864714861
v -0.02291309834 -0.04155208915 0.2405783832
v -0.02287273295 -0.0419309698 0.2050996125
v -0.0228380803 -0.04151882604 0.3604214489
v -0.02275804244 -0.04875219986 0.3020604551
v -0.02270577289 0.05245219916 0.302600354
v -0.02256684005 0.05880219862 0.3026285768
v -0.02231481113 0.04217724875 0.2186875492
v -0.02203667723 -0.04231482372 0.2770745754
v -0.02200933918 0.04282945022 0.2791767716
v -0.02161953226 -0.04259334132 0.1983858347
v -0.02147881128 0.04152594134 0.2717630267
v -0.02116584219 0.04276799411 0.2116796672
v -0.0211324729 0.04111362249 0.2641591132
v -0.02112636343 -0.04252729565 0.2331189364
v -0.02109563537 -0.04152298346 0.3016601801
v -0.0207179375 0.04152962193 0.2564271688
v -0.02069300972 -0.04159082472 0.2699587047
v -0.02051461488 0.05245219916 0.3567960858
v -0.02046816051 0.05075220019 0.3568808734
v -0.02043661661 -0.04315422475 0.191744417
v -0.02014363371 0.04333130643 0.2048556954
v -0.0200143531 0.04245205596 0.2486266196
v -0.01991757192 -0.04025219381 0.3309090734
v -0.01983904839 -0.05235219374 0.3301516771
v -0.01957253367 0.04077886418 0.3717478812
v -0.01953584328 0.03583255783 0.3721448481
v -0.01951794513 -0.04150947928 0.2627125978
v -0.01945726201 0.05075220019 0.305806309
v -0.01943904348 0.02980621532 0.3725497425
v -0.01942595281 0.05245219916 0.3057130575
v -0.0193907395 0.04460422695 0.3711486757
v -0.01934783906 -0.04364822805 0.1851482093
v -0.01932901889 0.02295758575 0.3729596436
v -0.01930776611 -0.05235219374 0.3378201425
v -0.019272618 -0.04342973232 0.2258001566
v -0.01920457743 -0.04025219381 0.338388145
v -0.01918412559 0.04376811907 0.1981596202
v -0.0191833768 0.01566105895 0.3732746243
v -0.01903742552 0.008208693005 0.373483777
v -0.01892936416 0.0007163322298 0.373609513
v -0.01886454597 -0.006768018939 0.3736490607
v -0.01885896921 0.04330552369 0.2408472151
v -0.01883076318 -0.01419533323 0.3735821843
v -0.01878435351 -0.02149843238 0.3733815253
v -0.01875135675 -0.04025219381 0.3234507442
v -0.01874212734 -0.02853603102 0.3731300235
v -0.01868663542 -0.03494689241 0.3728238344
v -0.01862781309 -0.04031031579 0.3725209236
v -0.01845406555 -0.04407338426 0.3721239865
v -0.0183877293 -0.05235219374 0.3225754201
v -0.0183862634 0.04781729355 0.3694588244
v -0.01834109053 -0.04223969951 0.255384475
v -0.01833255403 0.04412619025 0.1915543228
v -0.01833134517 -0.04403162375 0.1785668135
v -0.01796004735 -0.04844892025 0.2915332317
v -0.01779974811 -0.04710362852 0.3711418509
v -0.01761353761 0.04439108446 0.1850109398
v -0.01751386188 0.05880219862 0.3661381006
v -0.01746557094 -0.04429094866 0.2186762094
v -0.01743030921 -0.04450269416 0.1720000207
v -0.01740348898 0.04404775053 0.2331626564
v -0.01723940298 0.05245219916 0.3664237261
v -0.01699797437 0.04459023848 0.1784945428
v -0.016918106 -0.04332818463 0.2479479611
v -0.01689942926 -0.05235219374 0.3450072408
v -0.01672979817 -0.04025219381 0.34537673
v -0.01655708067 0.04979712516 0.3666332364
v -0.01654577255 0.04491578788 0.1720000207
v -0.01620556042 0.04953632504 0.2942604721
v -0.01615527458 -0.0492208004 0.3686996996
v -0.01585807279 0.04471952841 0.225687772
v -0.01584308967 -0.04872393608 0.3682417572
v -0.01571941935 -0.0449857749 0.2117515355
v -0.01562329009 -0.04025219753 0.3163974285
v -0.01533128321 -0.04150452465 0.3673229218
v -0.01514529809 -0.04450048134 0.2404872626
v -0.01505191252 -0.05235219747 0.315539062
v -0.01499414444 0.04746697843 0.285771817
v -0.01487810165 -0.04631413147 0.2827013731
v -0.01443151012 0.04493768513 0.2786099911
v -0.01429470256 0.0453398861 0.2184580564
v -0.01426968537 0.05245219916 0.363140583
v -0.01418567263 0.0433595404 0.2712913156
v -0.01417906582 0.05075220019 0.3631780744
v -0.01413374953 -0.04925220087 0.2940028608
v -0.01405747049 -0.04555885866 0.2049760222
v -0.014015425 0.05880219862 0.2953097522
v -0.0139930658 0.04281666875 0.263782382
v -0.01397702843 0.05245219916 0.2952538431
v -0.01372048073 -0.04875219986 0.294326812
v -0.01364788972 0.04317216575 0.2561823726
v -0.01313564926 -0.04446129873 0.2755667269
v -0.01305660047 -0.04531873763 0.2330298126
v -0.01288153976 0.04412393644 0.2485321462
v -0.0128708072 -0.05235219374 0.351287961
v -0.0128202755 0.04589344934 0.2114707828
v -0.01272987016 -0.04025219381 0.3514657021
v -0.0125151407 -0.046022214 0.198305279
v -0.01215131395 -0.04346590117 0.2689493001
v -0.01192241535 -0.0415629372 0.2943403423
v -0.0117444098 0.05075220019 0.299030751
v -0.01164462604 0.05245219916 0.2989861369
v -0.01159950346 0.04538867623 0.2408464253
v -0.01146471873 0.04629306123 0.204691112
v -0.01128048263 -0.04319336638 0.2620950341
v -0.01109512709 -0.04637930542 0.1917079538
v -0.01082761958 -0.0460470356 0.2256951332
v -0.01068171486 -0.04025219753 0.3102046847
v -0.01027086377 -0.04361816123 0.2550442219
v -0.01023587957 0.04661763087 0.1980391145
v -0.01016897336 0.04059727862 0.3773941696
v -0.01011155173 0.0445082821 0.3768346906
v -0.01008038782 0.03560340405 0.3777242005
v -0.009956583381 0.02961490862 0.3780556917
v -0.009907273576 -0.05235219747 0.3095487356
v -0.009812250733 -0.04666779563 0.1851404607
v -0.009811693802 0.02284387127 0.3783705831
v -0.009787859395 0.04600828514 0.2331297547
v -0.009657926857 0.01564449631 0.3786381781
v -0.009497618303 0.008292934857 0.3788012266
v -0.00945607014 0.04778417945 0.3749754429
v -0.009365329519 0.0008862868417 0.3789013326
v -0.009264057502 -0.0065180948 0.378936857
v -0.009183691815 -0.01388354693 0.3788898587
v -0.009163787588 0.04684161395 0.1914757043
v -0.009104387835 0.05880219862 0.3714775145
v -0.0091036167 -0.02112313733 0.3787257373
v -0.009027892724 -0.02809282579 0.3785169125
v -0.008948579431 -0.03440899029 0.3782673776
v -0.008886901662 -0.04463607445 0.2478585839
v -0.008872991428 -0.03979093581 0.3780137002
v -0.008777353913 0.05245219916 0.3716497123
v -0.008738389239 -0.04371132702 0.3776528835
v -0.00864036195 -0.04689226672 0.1785762906
v -0.008579494432 -0.04660920054 0.2185462117
v -0.008291482925 -0.04701048881 0.3766396642
v -0.008260926232 0.0469959341 0.1849692762
v -0.008208036423 0.04984662309 0.3718254566
v -0.007803055923 0.04657237977 0.2255579829
v -0.00758514693 -0.04732578993 0.1720000207
v -0.007528583053 -0.05235219374 0.3563506603
v -0.007519175764 0.04709471762 0.1784808934
v -0.007481525186 -0.04025219753 0.3563901484
v -0.00716460729 -0.04922037944 0.3738428354
v -0.007045075763 -0.04589500278 0.2405450791
v -0.006947940681 -0.04872356355 0.3733253777
v -0.006927977782 0.04733100161 0.1720000058
v -0.006762164179 0.04365258291 0.2633262575
v -0.006640681531 0.05245219916 0.3677619696
v -0.006558284629 0.05075220019 0.3677970469
v -0.006550802384 -0.04151841253 0.3723104
v -0.006538767833 0.04383696616 0.2559409738
v -0.006529746111 0.04437272251 0.270585686
v -0.00644320948 -0.0470370315 0.2116364241
v -0.005901048426 0.0461974591 0.2775518298
v -0.00579888327 0.04702628404 0.2183164954
v -0.005749001633 0.04465199634 0.2484968454
v -0.004807205405 0.04834851995 0.2840161324
v -0.00470616715 -0.04665569216 0.2331519425
v -0.004486799706 -0.04733959585 0.2049276829
v -0.004286800977 0.04591232538 0.2409346253
v -0.004064246546 -0.04025219753 0.3053448796
v -0.003881530371 0.04735343531 0.2113286257
v -0.003294383176 -0.05235219747 0.3049875498
v -0.003256933764 0.05880219862 0.2899475992
v -0.002977474593 0.04988703877 0.2900742888
v -0.002925389912 -0.04422587529 0.2679726481
v -0.002867755946 0.05245219916 0.2898020446
v -0.002776445355 -0.04366728663 0.2615622282
v -0.002698269207 -0.04542759433 0.2740516365
v -0.002693395596 -0.04752012342 0.1983151436
v -0.002171186265 0.04754588753 0.2045801431
v -0.002152169589 -0.04725510627 0.2797729373
v -0.002144674771 -0.04380465671 0.2548365593
v -0.002143032383 0.04679150134 0.233284235
v -0.002069205511 -0.04702946916 0.2257885486
v -0.001426247414 0.05075220019 0.2940401733
v -0.001425958704 0.05245219916 0.2940244079
v -0.00128178671 -0.04873144254 0.2856538594
v -0.001271740533 -0.04025219753 0.3599595726
v -0.001189218834 -0.05235219747 0.3599927425
v -0.001105063129 -7.247622125e-05 0.1719999611
v -0.001095047221 -0.047594551 0.191751942
v -0.0009781890549 -0.04447123036 0.2479315698
v -0.000663836021 0.04763124511 0.1979975402
v -0.0003650607541 -0.04925220087 0.2880440056
v -0.0002452987246 -0.04875219986 0.2885237038
v 0.0003202056978 0.05880219862 0.3750922978
v 0.0003205977846 -0.04761276394 0.1851988137
v 0.0003258271609 -0.04163821414 0.2894363403
v 0.0003307315055 0.04041032493 0.3808558285
v 0.0003424366005 0.04428304359 0.3801997602
v 0.0003678167704 0.04364895448 0.2627645433
v 0.0003911152016 0.04708534479 0.2256685644
v 0.0003947459627 0.04363961518 0.2557047904
v 0.0004461447243 0.03545541689 0.3811561465
v 0.0005965456367 0.02949140035 0.381447494
v 0.0006268585566 0.04768118262 0.1914754063
v 0.0006278681103 0.05245219916 0.3751916289
v 0.000631173607 -0.04721201211 0.2185879648
v 0.0006385161541 0.04759196565 0.3782167435
v 0.0007656193338 0.02277409844 0.3816990852
v 0.0009091044776 -0.04551910236 0.2408403903
v 0.0009378180839 0.01565316878 0.3818995655
v 0.001106735319 0.008376469836 0.3820261359
v 0.00111774751 0.04446045309 0.2696076632
v 0.001146807801 0.04981924593 0.3749836683
v 0.001187196467 0.04424208403 0.2485169768
v 0.001256333664 0.001041953103 0.3820944428
v 0.001389933517 -0.006300238892 0.3820891678
v 0.001496965298 -0.01360735111 0.3820400834
v 0.001576477895 -0.04754466936 0.1786097288
v 0.001600639196 -0.0207921695 0.3818787038
v 0.001696971012 -0.0277051758 0.3816690743
v 0.001696993131 0.04765596241 0.1849935651
v 0.001783050131 -0.0339785479 0.3814235926
v 0.001813354902 0.05245219916 0.3708818257
v 0.001862012316 -0.0393081978 0.3811784089
v 0.001891156659 0.05075220019 0.3708672523
v 0.001962111797 -0.0434272401 0.3807881474
v 0.002157718642 -0.04689479619 0.3797590733
v 0.002542730886 0.04757767916 0.178503871
v 0.002707277657 -0.04761546478 0.1720000207
v 0.002735908609 -0.04922038317 0.3767178059
v 0.002769236919 0.04524046928 0.2411867082
v 0.002802497242 0.04623408988 0.2760790884
v 0.002836995292 -0.0487235561 0.376176089
v 0.002940819366 0.04718836024 0.2183085084
v 0.003091193736 -0.04149100929 0.375126034
v 0.003178060986 -0.04725032672 0.2117011845
v 0.00322791189 0.04769095033 0.1720000505
v 0.003512862138 -0.04638038948 0.2336416692
v 0.003898274619 -0.04025219753 0.3023474813
v 0.004398964811 -0.05235219747 0.3022519052
v 0.005277124234 0.04618276283 0.2336900234
v 0.005312834866 0.04711528122 0.2113566399
v 0.005430421792 -0.04717943072 0.2050348669
v 0.005513897631 -0.04286742955 0.2611514032
v 0.005561164115 -0.04025219753 0.3619538546
v 0.005650513805 -0.04275960475 0.2547876835
v 0.005788371433 -0.05235219747 0.3620491922
v 0.005956563633 0.04823921993 0.2818269432
v 0.006106468849 -0.04360290617 0.2671383321
v 0.006526717916 -0.04649381712 0.2262319624
v 0.006534773856 -0.04308574647 0.2482236028
v 0.00694799982 0.04248105735 0.2555169165
v 0.0070230891 0.04265811667 0.2622054517
v 0.007406603545 -0.04695181549 0.198472634
v 0.0074251974 0.0469196327 0.2046353817
v 0.007675850764 -0.0448811315 0.2727106512
v 0.007707988843 0.04281790927 0.2486491948
v 0.008055428043 0.04354342446 0.2685692906
v 0.008237054572 -0.04372718185 0.2414460778
v 0.008351517841 0.04628230631 0.2260979414
v 0.008850961924 0.05880219862 0.2879303098
v 0.009093540721 -0.04668356851 0.1919444054
v 0.009192291647 0.04664924741 0.1980993897
v 0.009268993512 0.04345278442 0.241628781
v 0.009717494249 -0.04613246769 0.218988955
v 0.009723138064 0.05245219916 0.2878783345
v 0.01018200628 0.04496749118 0.2744674981
v 0.01018463261 0.05880218744 0.3338760734
v 0.01042973064 0.05245219916 0.2922812402
v 0.01054668054 -0.04638492689 0.1853592098
v 0.01056151837 0.05880219862 0.3760409057
v 0.01061902381 -0.04653031379 0.2777751088
v 0.01066668145 0.04637889564 0.1916270256
v 0.01072013751 0.05075220019 0.2922719121
v 0.01075583696 0.05245219916 0.3760411143
v 0.01085153408 0.05245219916 0.3716610968
v 0.01090234332 0.05075220019 0.3716718256
v 0.01098015159 -0.0444368124 0.2344678938
v 0.01106607448 0.04981843382 0.3760611415
v 0.01117561292 0.04760973528 0.379455477
v 0.01131021511 0.04420385137 0.3813766837
v 0.01145143993 0.04033828154 0.3819065094
v 0.01150437258 0.04582924768 0.218719393
v 0.01157178171 -0.05235220119 0.3325617313
v 0.01159004308 0.03536715731 0.3821741343
v 0.01175360009 0.02943498641 0.3824298084
v 0.01176208444 -0.04601008072 0.1787017584
v 0.01183234062 0.04607439041 0.1851231307
v 0.01192687266 0.0227695778 0.382643342
v 0.01197357941 0.04399614781 0.2344420105
v 0.01209005527 0.049964834 0.2879091203
v 0.0121037811 0.01570747048 0.3827853501
v 0.01228001527 0.008484351449 0.3828899264
v 0.01237385347 -0.04025219753 0.3017042577
v 0.01243535429 0.001197230304 0.3829308748
v 0.01247117668 -0.05235219747 0.3017114103
v 0.01257835515 -0.006104134955 0.3828900754
v 0.01261071302 -0.04025219753 0.3622819483
v 0.01264492422 -0.04017226771 0.2549784482
v 0.01267564297 -0.0455480963 0.2120775729
v 0.01269559003 -0.0133759575 0.382789731
v 0.01271355897 0.04580221698 0.1785892844
v 0.01280087419 -0.02054208331 0.3826239705
v 0.01285566017 -0.0458489731 0.1720000356
v 0.01287340373 0.04008024558 0.2554630935
v 0.01289769076 -0.02744001336 0.3824144602
v 0.01293021813 -0.04045814276 0.2609597743
v 0.01297795586 -0.04872355983 0.3767222464
v 0.01298381947 -0.03368128091 0.3821519613
v 0.0129955411 -0.04922037944 0.3772763014
v 0.01301464252 -0.05235219747 0.362303704
v 0.01305588521 -0.03905668855 0.3818997443
v 0.01306674629 0.040456146 0.2617658377
v 0.01308645122 -0.04150922969 0.3756397367
v 0.01310257427 -0.04679040983 0.3804369867
v 0.01310843602 -0.04328753054 0.381518662
v 0.01328096539 -0.04028807953 0.2486969531
v 0.01344043761 0.04574560001 0.1720000505
v 0.01359694079 0.04012101144 0.248934418
v 0.01366212592 -0.04140898958 0.2885276675
v 0.01393646002 0.04722910374 0.2794278562
v 0.01411099173 -0.04109993204 0.2666372359
v 0.01426379755 0.04131432623 0.2676718831
v 0.0144124385 0.04508144781 0.2116787136
v 0.01456708275 -0.04444073513 0.2271605879
v 0.01471769996 -0.04875219986 0.2875180244
v 0.01478470303 -0.04061298445 0.2422756404
v 0.01493812166 -0.04925220087 0.2870587111
v 0.01518230699 0.04047820717 0.2422564775
v 0.01518777758 -0.04489497095 0.2054149806
v 0.01579590328 0.04409115016 0.2270300239
v 0.01629420742 -0.04214485735 0.2718829811
v 0.01652356982 0.04258718714 0.2730279565
v 0.01658395678 -0.04840712622 0.2838942409
v 0.01687398739 0.04431018978 0.2049997449
v 0.01715249754 -0.04084334522 0.2355788648
v 0.0172818061 -0.04420128465 0.1988872886
v 0.01769758388 0.04067812487 0.2355371714
v 0.01777519658 0.03636469319 0.2556590736
v 0.01809981279 0.03687579557 0.2616452575
v 0.01815372333 -0.04337908328 0.2199091762
v 0.01818613894 -0.03589693457 0.2554501891
v 0.01848721877 0.03622028604 0.2494049072
v 0.01867529377 -0.03588253632 0.2494352609
v 0.01875447296 -0.03619244695 0.2612024248
v 0.01889467798 0.04356922954 0.1984867156
v 0.01894253306 -0.04351778701 0.1923461854
v 0.01938531548 0.03771297634 0.2672683597
v 0.01946637966 0.04291132092 0.2196069807
v 0.0195008181 -0.04025219753 0.3610319495
v 0.01989362575 0.05075220019 0.3706248999
v 0.01990069076 0.05245219916 0.3707794547
v 0.02000914142 -0.05235219747 0.3608211577
v 0.02006835863 0.03619621322 0.2430502623
v 0.02007444389 -0.05235219747 0.3032132983
v 0.02008648217 -0.03604916111 0.2433051169
v 0.02013590001 -0.04329293966 0.2767377198
v 0.02016354352 0.04420655966 0.2777342796
v 0.02022752166 -0.03661812469 0.2667243183
v 0.02027944475 -0.04293938726 0.1856899559
v 0.02030924708 -0.04025219753 0.3033110499
v 0.02046024799 0.04285063595 0.1920211315
v 0.02062959783 0.0485804677 0.2843332887
v 0.02081652544 0.05880219862 0.3750984371
v 0.02087323926 0.05245219916 0.3750789165
v 0.02098970301 0.04970400035 0.374743551
v 0.02113160864 0.05880219862 0.2891342938
v 0.02114893124 -0.04063335061 0.228658855
v 0.02135273628 -0.04234483838 0.1789030433
v 0.02147874422 -0.04202339426 0.2129461169
v 0.02148200572 0.03163179383 0.2561158836
v 0.02165251411 0.0422787331 0.1854556948
v 0.02169496007 0.03889600188 0.2724544704
v 0.02182641625 0.04757570848 0.3780308962
v 0.02184672281 0.03215264529 0.2619470954
v 0.02194110863 0.04040926322 0.228392154
v 0.02200624347 0.05245219916 0.2939729989
v 0.02208326757 0.03132582456 0.2501152158
v 0.02210584283 -0.03046154976 0.2562302947
v 0.02224621736 0.05245219916 0.2894095182
v 0.02229293436 -0.03613106161 0.2369184494
v 0.02229410596 -0.04200097919 0.1720000505
v 0.02236592397 0.04426793382 0.3799004853
v 0.02245934308 0.05075220019 0.2941812873
v 0.02248654515 -0.03043839708 0.2504140139
v 0.02251261286 0.04180523381 0.1787692308
v 0.02257806808 0.04038986564 0.3803763688
v 0.02262113057 0.03633157536 0.2366950363
v 0.0226435177 -0.03055054694 0.2619212866
v 0.02270622365 -0.03726620227 0.2719437182
v 0.02273011766 0.0353747718 0.3806096911
v 0.02284865454 0.04131678492 0.2125175595
v 0.02289838716 0.02948224731 0.380841434
v 0.02289921418 -0.04157220572 0.3740173578
v 0.02296449617 -0.04872356355 0.3750497699
v 0.0230736509 0.02285272628 0.3810324967
v 0.02309738472 -0.04922039062 0.3755885363
v 0.02318442613 0.03296162561 0.2675034404
v 0.02324060723 0.04165199772 0.1720000505
v 0.02324413694 0.01581740566 0.381156683
v 0.02340970747 0.008626203984 0.3812298775
v 0.02355700731 0.001368250814 0.3812507987
v 0.02365514077 0.03105687536 0.2440551817
v 0.02368209325 -0.005914218724 0.3811846673
v 0.02375237085 -0.0304893516 0.244471252
v 0.02378831804 -0.01318050642 0.3810577095
v 0.02387765236 -0.02035494335 0.380861938
v 0.02390726469 0.02616895363 0.2568442822
v 0.02391729504 -0.04683600739 0.3787156343
v 0.02395665273 -0.02728291228 0.380622685
v 0.02401985601 -0.03351905569 0.3803408146
v 0.02405492589 -0.04327953979 0.3796351552
v 0.0240691714 -0.03900721297 0.3800584674
v 0.02422099002 -0.03082610667 0.2674569786
v 0.02424465679 -0.04058130085 0.206229955
v 0.02427844889 0.02572001703 0.2510131001
v 0.02432122827 -0.02432560176 0.2572024465
v 0.02436089329 0.02670380846 0.2625962496
v 0.0246965792 -0.02436648682 0.2514813244
v 0.02501276694 -0.02436207794 0.2628902793
v 0.02507353947 0.04014384001 0.2773173153
v 0.02523135953 0.02032616176 0.2577317655
v 0.02542405762 -0.03919640183 0.2215817571
v 0.02546688542 0.03402262181 0.272785008
v 0.02552522346 -0.04133798182 0.2912027836
v 0.02559902146 0.01988729089 0.252027154
v 0.0256351959 0.02526626736 0.2451858521
v 0.02563901804 -0.01803970151 0.2582087815
v 0.02568294108 0.03974174336 0.205827117
v 0.0257122945 0.05026242137 0.291647613
v 0.02580738068 -0.03029801697 0.2384155542
v 0.02582545206 -0.02427126467 0.2457491457
v 0.02584655955 -0.01809892617 0.2525755167
v 0.02584782615 0.02746125124 0.2681757808
v 0.02587079629 -0.04025219753 0.3582587242
v 0.02588025108 0.02082734928 0.2634580731
v 0.02594092861 -0.03570942953 0.2305675149
v 0.0259793438 0.01424658112 0.2586536705
v 0.02600538544 0.04571452737 0.2823375165
v 0.02600857243 0.01382592414 0.2530535161
v 0.02611357532 0.03068179637 0.2379332632
v 0.02633989416 0.03863694146 0.2211520821
v 0.02635399997 -0.01797879487 0.2638970613
v 0.02639033645 -0.01165719796 0.2591085136
v 0.02639626339 -0.03935533017 0.1996946782
v 0.02641801909 -0.05235219747 0.3578578234
v 0.02643975988 -0.01181080192 0.2535866201
v 0.02644561976 0.007595906034 0.25397259
v 0.02648657188 -0.03811805323 0.276968509
v 0.02650375478 0.03569589183 0.2301689982
v 0.02652740665 0.007939778268 0.2594118416
v 0.02661690861 -0.005393643863 0.2542837262
v 0.02661839128 -0.02449062467 0.2685242295
v 0.0266531501 0.001136391191 0.2544700205
v 0.02669500001 0.019298397 0.2464374602
v 0.02671736479 -0.005159808323 0.2597006261
v 0.02674388885 -0.05235219747 0.3063437343
v 0.02674853429 0.001433004625 0.259819746
v 0.02675407752 -0.0311973244 0.2728520334
v 0.02676244453 -0.04426182434 0.2818849683
v 0.02677641436 -0.01801145449 0.2470016778
v 0.02688453346 0.01465641521 0.2643222213
v 0.02691440284 0.01328494307 0.2476474643
v 0.02712714486 0.00716459658 0.2488218844
v 0.0271653533 -0.01150868926 0.2647342682
v 0.02719250321 -0.04025219753 0.3067037761
v 0.02720094286 -0.01182898786 0.248246327
v 0.02727853879 -0.04875219986 0.2905559838
v 0.02729210816 0.0008082328131 0.2494876236
v 0.02731624246 -0.005574166775 0.2492200136
v 0.02739021927 0.008265028708 0.2650276124
v 0.02743152343 0.02145675384 0.2691268921
v 0.02751440741 -0.004928385839 0.2652772367
v 0.02761591971 0.00169569056 0.265373379
v 0.02766380087 -0.04925220087 0.2901679277
v 0.02786712348 -0.02392438613 0.240096584
v 0.027875714 0.03836033121 0.1993436813
v 0.02792141959 -0.03827852756 0.1930999309
v 0.0279522147 0.0246447064 0.2393948436
v 0.02807372622 -0.01798000745 0.2696060538
v 0.02812831104 0.02841132879 0.2736127973
v 0.02834265493 0.05245219916 0.3674159646
v 0.02834759466 0.05075220019 0.3673962355
v 0.02840944007 0.006513393484 0.2440510094
v 0.02845088206 0.0004455096787 0.2448850274
v 0.02845481969 -0.01759384945 0.2415518016
v 0.02851225808 0.01513097901 0.2700108588
v 0.02857277729 0.01245406922 0.2425459325
v 0.02858942561 -0.00556082651 0.2444153428
v 0.02868349478 0.01840002276 0.241030708
v 0.02874371223 0.03524632752 0.277843684
v 0.02883318439 -0.0115198046 0.2431530356
v 0.02887539752 -0.01140563749 0.2704683542
v 0.0290447697 -0.03696874902 0.2145414948
v 0.02905391902 -0.03744520247 0.1862651259
v 0.02909342572 0.00861524418 0.2706939578
v 0.02917180583 -0.02978098579 0.2324980795
v 0.02918757126 -0.02471342124 0.2740844488
v 0.02926915698 -0.004730097018 0.2709633112
v 0.02935275808 0.001963420305 0.2710416019
v 0.02940199152 0.0298966635 0.2318955958
v 0.02945612743 0.03717222437 0.1928165555
v 0.02986549772 -0.03677523881 0.1792132258
v 0.02990235575 0.0222296156 0.2746944427
v 0.02995470166 0.0001022433862 0.2408932447
v 0.03003722057 0.04146659747 0.2819850445
v 0.03007785976 0.03600140288 0.214094907
v 0.03010825813 0.00542837847 0.2397615016
v 0.03025760688 0.05880219862 0.3713489771
v 0.03029056638 -0.005127335899 0.2399980575
v 0.03029149957 0.05245219916 0.3713532686
v 0.03033167869 0.04977153242 0.3713014126
v 0.03037450835 0.04893977568 0.2890406847
v 0.0304454118 -0.03169434518 0.2782220542
v 0.03059133142 0.03628731892 0.1860838532
v 0.03064129129 -0.03648201376 0.1720000505
v 0.030668661 -0.04806239158 0.2884276211
v 0.03070576116 -0.01805794984 0.2752521932
v 0.03072106279 0.01102019567 0.2377399951
v 0.03073130362 -0.02310408093 0.234453395
v 0.0307715442 -0.03387629986 0.2238669991
v 0.03086797521 -0.01067796443 0.2382297963
v 0.03110449575 -0.01664430462 0.2363121957
v 0.03110482916 0.01570071094 0.2756469846
v 0.0311206039 0.02339755557 0.2338993698
v 0.03133184835 -0.04025219381 0.354070276
v 0.03135150671 0.01689139009 0.2358996719
v 0.03135956451 0.03559558466 0.1791023016
v 0.03147607669 -0.0001177192898 0.2376048267
v 0.03149219975 0.02959185466 0.2788430452
v 0.03150434047 -0.01134531107 0.2761725485
v 0.03166520223 0.03348986804 0.2234318852
v 0.03178454563 0.009019399062 0.2763471305
v 0.03181993216 -0.03863510117 0.282374233
v 0.03188105673 -0.05235219374 0.3535134494
v 0.03190122172 0.04766251892 0.3742936254
v 0.0319667235 0.03525989503 0.1720000505
v 0.03196979314 -0.004558699206 0.2766497433
v 0.03199999407 -0.03457527235 0.2076806724
v 0.03206168488 0.00223781378 0.2767035663
v 0.03206894547 -0.04153814539 0.3702800274
v 0.03214618936 -0.05235219747 0.3107985854
v 0.03221786767 0.05245219916 0.2987195253
v 0.03227442876 -0.04872356355 0.3712072372
v 0.03229279816 0.003355607856 0.2357007563
v 0.03236790374 -0.003616538132 0.2359214425
v 0.03251830116 -0.04922039807 0.371704936
v 0.03259924799 0.05880219862 0.2936733961
v 0.03260257095 0.05075220019 0.2989583313
v 0.03271044791 -0.04025219753 0.31139189
v 0.03276193514 0.04433075339 0.3759335577
v 0.03283442184 -0.02501446195 0.2796253562
v 0.03304743767 0.04048264772 0.3764268458
v 0.03317480907 0.03671007231 0.2828501463
v 0.03322138637 0.03547278419 0.3766667545
v 0.03322219476 0.03349426389 0.2073844373
v 0.03336729109 0.02312273905 0.2801195979
v 0.03340258449 0.008520026691 0.2330827862
v 0.03340492398 0.02961057983 0.3768805861
v 0.03358470276 0.02299553901 0.3770573735
v 0.03365401179 -0.008761399426 0.233494848
v 0.03370983526 0.05245219916 0.2943649888
v 0.03374424949 0.01597647183 0.3771686554
v 0.03378972039 -0.02774086222 0.226458475
v 0.03389121592 0.008801436052 0.3772246838
v 0.03393787518 -0.04683392495 0.3746196628
v 0.03401908278 0.00155952503 0.3772185147
v 0.03404859826 0.04634317756 0.2875902355
v 0.03411954269 -0.005713377148 0.3771311641
v 0.03415741026 -0.03259540349 0.2010010779
v 0.03421074152 -0.01298330352 0.3769944012
v 0.03421099111 0.027381327 0.2258320004
v 0.0342618227 -0.02017770149 0.3767555356
v 0.03427890688 -0.04324224964 0.3754564226
v 0.03431192413 -0.02714421973 0.3764854968
v 0.03433400765 -0.03341699764 0.376177609
v 0.0343499817 -0.03893769905 0.3758721352
v 0.03437241167 -0.01821599901 0.2808383703
v 0.03438793123 -0.01470408775 0.2310398221
v 0.03452734649 -0.02121779509 0.2287461609
v 0.03455919772 0.01449003723 0.2307869494
v 0.03461002931 0.0163290482 0.2811730504
v 0.03466709331 -0.0002239797032 0.2320896238
v 0.03477938846 -0.03082351014 0.2169628888
v 0.03511141986 0.02099649794 0.2285202444
v 0.03514649346 -0.01134425588 0.2817624509
v 0.03516077995 -0.03222692385 0.2837177515
v 0.03533454612 0.009445363656 0.2818875313
v 0.03544741496 -0.04398094863 0.2874696255
v 0.03552572057 0.03124454618 0.2008053362
v 0.03559318185 -0.004440331832 0.2822032869
v 0.03561973572 -0.031224031 0.1942639053
v 0.03565037623 0.002510860097 0.2822322249
v 0.03571752831 0.02984146588 0.216595456
v 0.035727676 -0.04025219381 0.3488494456
v 0.03577981144 0.03085461818 0.2841483951
v 0.03580594435 -0.04142601788 0.2964684069
v 0.0359182097 0.05075220019 0.362482965
v 0.0359268859 0.05013071373 0.2970385253
v 0.03593422845 0.05245219916 0.3624927104
v 0.03620042652 -0.05235219374 0.3481300473
v 0.03627763689 -0.05235219747 0.3161272705
v 0.03645409644 -0.0302105099 0.1871315092
v 0.03671843559 0.004702922888 0.228763476
v 0.03678464517 -0.04025219753 0.3169956505
v 0.03681564704 0.04232714698 0.2875938714
v 0.03695397079 -0.02954677865 0.1796415746
v 0.03698106483 -0.005338468589 0.2288865745
v 0.0370153375 0.02956910245 0.1941079944
v 0.03733633831 -0.02531845495 0.2852330804
v 0.03740908951 -0.0292362161 0.1720000356
v 0.03750508651 -0.04875103012 0.2963563502
v 0.03765815496 0.02398693934 0.2854728997
v 0.03789148107 -0.02740319073 0.209945783
v 0.03793665767 -0.04925080761 0.2960538864
v 0.03798722848 0.02838932909 0.1870079935
v 0.03851307556 -0.03881945461 0.2882424295
v 0.0385292843 -0.02425999381 0.2199950069
v 0.03856358677 -0.01123112254 0.2258366346
v 0.03857157752 0.02756001055 0.1795838326
v 0.0386265479 0.01056987047 0.2257855684
v 0.03868267313 0.04974640533 0.3658097386
v 0.03878650069 -0.01838384382 0.286411047
v 0.03879999369 0.05245219916 0.3658720255
v 0.03881134093 0.05880219862 0.3658693433
v 0.03888164088 0.02611993812 0.2098067701
v 0.03889058158 -0.04025219381 0.3428547382
v 0.03894134238 0.01695580967 0.286578238
v 0.0389521569 0.03785716742 0.288482517
v 0.03910766169 0.02719038352 0.1720000505
v 0.03914136067 0.023269739 0.2197632194
v 0.03917993233 -0.05235219374 0.3419913054
v 0.03926749155 -0.05235219747 0.3221271038
v 0.03944232687 0.0487052314 0.2952162027
v 0.03955391049 -0.04025219753 0.3231877685
v 0.03955485299 -0.01762548648 0.2230370641
v 0.03959523514 -0.01138075069 0.2872230411
v 0.03972765058 0.009843635373 0.2873084247
v 0.03993780166 -0.04154870287 0.3644131422
v 0.03999991342 0.01681081019 0.2230035067
v 0.04002335295 0.05245219916 0.305349797
v 0.04002756625 -0.0004009649856 0.2247824669
v 0.04003960639 -0.004346791655 0.287633121
v 0.04006869346 0.002756496891 0.2876532972
v 0.04018339515 0.05075220019 0.3056790233
v 0.04019644111 -0.02446930483 0.2029853463
v 0.04037022591 -0.04872357473 0.365362227
v 0.04052226618 -0.04025219381 0.3363917172
v 0.04062933475 -0.05235219374 0.3354041576
v 0.04064172134 -0.05235219374 0.3286996186
v 0.04071795195 -0.04922039807 0.3658000231
v 0.0407894142 -0.04025219381 0.3297636509
v 0.04080954939 -0.0325505957 0.2896808088
v 0.04083247483 0.04772288725 0.3684589267
v 0.04092282802 -0.04745910317 0.2945825458
v 0.04097608104 0.03188065812 0.2897334695
v 0.04119022563 0.02288130671 0.2029639632
v 0.04151774943 -0.02248705551 0.1960576475
v 0.04169695079 -0.01991277002 0.2130687833
v 0.0420137085 0.05880219862 0.3008679152
v 0.04206279293 0.04439689219 0.3699404299
v 0.0421304144 0.04598601535 0.2942520678
v 0.04214024544 -0.0215240363 0.188303113
v 0.0422789529 0.0185779389 0.2130592763
v 0.04230974242 0.05245219916 0.3560107052
v 0.04231541604 0.05075220019 0.3560638428
v 0.04238591343 -0.02108154073 0.1801820993
v 0.04239855707 0.04055690765 0.3703122735
v 0.04255791381 -0.02557826601 0.2910670638
v 0.04257324338 0.03558843583 0.3705158532
v 0.0425799489 0.02051580325 0.1959889084
v 0.04258754104 -0.02093806677 0.1720000356
v 0.0426473096 0.02472008206 0.2911387384
v 0.04274065793 0.05245219916 0.3016973734
v 0.04274254292 -0.04679534212 0.3683199584
v 0.04275495186 0.02974410728 0.370721668
v 0.04292696342 0.02316352725 0.3708950281
v 0.04294390976 0.005432358943 0.2210493684
v 0.04299008101 -0.00634590257 0.2209807336
v 0.04307011887 0.01616830379 0.3710052967
v 0.04320154339 0.009010238573 0.371066153
v 0.04329322651 -0.04315964133 0.3691638112
v 0.04330845177 0.001780631603 0.3710561991
v 0.04330981523 0.01906302385 0.188250035
v 0.04338474199 -0.005482802168 0.3709639609
v 0.0434143804 -0.03879536688 0.3695712686
v 0.04343765602 -0.03326980025 0.3699023426
v 0.04344267398 -0.01274802629 0.3707927763
v 0.04345772788 -0.01995825954 0.3705427051
v 0.04346463457 -0.02694977634 0.3702457845
v 0.0435276106 -0.01274703071 0.2168931514
v 0.04362772033 0.01162570529 0.2169387192
v 0.04365322366 -0.04358419776 0.2941928506
v 0.04366474599 0.05003323406 0.3040870428
v 0.04367272928 0.01822692528 0.1801653206
v 0.04368160665 -0.04154416919 0.3035551608
v 0.04374277592 -0.01850166731 0.2921412587
v 0.04379048944 0.01747059263 0.2921870947
v 0.04398450255 0.01778743044 0.1720000505
v 0.04404214025 0.04230394587 0.2942472398
v 0.04416773841 -0.01562003978 0.2059867829
v 0.04448768124 -0.01140833739 0.2928474844
v 0.04450327903 0.01403569523 0.2060574293
v 0.04452136531 0.01019719336 0.29288885
v 0.04486129433 -0.004260682501 0.2932246327
v 0.04486443102 0.002958332188 0.2932285368
v 0.04512378573 -0.0004856119631 0.2155705988
v 0.04523662478 -0.04873829335 0.3036315143
v 0.04530583322 -0.03853496909 0.2950609922
v 0.04538087919 0.03807049245 0.2950608432
v 0.04542241991 -0.01250077412 0.1986100823
v 0.04549553618 0.04980675131 0.3586109281
v 0.04554377496 0.05245219916 0.3131149113
v 0.04561127722 -0.007192864083 0.2102046907
v 0.0456424132 0.006007671356 0.2102843523
v 0.04567603767 0.05075220019 0.3133485913
v 0.04572002962 -0.04923651367 0.3033800423
v 0.04579582438 -0.01174209267 0.1896259636
v 0.04585277662 -0.01166566275 0.1807205081
v 0.04591053352 0.05245219916 0.3586069345
v 0.04593059048 0.01054282766 0.1985968351
v 0.04596048966 0.05880220234 0.3584797978
v 0.04604326934 -0.01180155948 0.1720000356
v 0.04631897062 -0.04149436206 0.3571269214
v 0.04643951356 0.008984521031 0.1896199882
v 0.04657938704 0.008289745077 0.1807208806
v 0.04677955434 0.03214127198 0.2962149978
v 0.04679241776 0.05075220391 0.3481817245
v 0.04679336771 -0.03232484311 0.2962936759
v 0.04681508988 0.05245220289 0.3481208086
v 0.04682183266 0.007909181528 0.1720000505
v 0.04692113027 -0.0007676577661 0.2021411806
v 0.04696274176 0.0484746024 0.3026727736
v 0.04699330777 -0.0487235859 0.3580241501
v 0.04728334025 -0.001337749185 0.1906605661
v 0.04731548205 -0.001755870646 0.1810196638
v 0.04742321745 -0.04922041669 0.3583796024
v 0.04753930494 -0.002030922566 0.1720000356
v 0.04804875329 0.04770838469 0.3606069684
v 0.04805839434 0.02508233115 0.2974233031
v 0.04806805775 -0.02553895302 0.2974736094
v 0.048436068 -0.04690175503 0.3024222851
v 0.04863176122 0.05880219862 0.3096509874
v 0.04893352091 0.05245219916 0.3216299415
v 0.04899197072 0.05075220019 0.3218188584
v 0.04899992421 0.01778081991 0.2983399928
v 0.04900187254 -0.01852287166 0.2983614206
v 0.04907126352 0.05245219916 0.310408771
v 0.04918771982 -0.04154343531 0.3117519319
v 0.04933588207 0.04995044321 0.3122775853
v 0.04938086867 0.04567253962 0.301993072
v 0.04953205585 0.05075220391 0.3396063447
v 0.04953572527 0.05245220289 0.3395007849
v 0.04958364367 0.04446517304 0.3618247509
v 0.04959029332 0.01043413021 0.2989986837
v 0.04960552976 -0.01140174363 0.2989676893
v 0.04988767207 -0.00418619439 0.2992955446
v 0.04991038516 0.003096999135 0.2992842197
v 0.04994566366 -0.04672381654 0.3603871465
v 0.05010536313 0.04062491283 0.36226511
v 0.05012791231 0.05075220391 0.3306910098
v 0.0501595363 0.05245220289 0.3305447698
v 0.05028633773 0.03573815897 0.3624723554
v 0.05036529899 -0.04298248515 0.3022572398
v 0.0504539609 0.02992220037 0.3626820743
v 0.0505592376 0.04986268282 0.3500500023
v 0.05057429895 -0.04872533679 0.3120503724
v 0.05058128387 -0.0430569239 0.3611174226
v 0.05061914772 0.0233732406 0.3628753722
v 0.0506464541 0.04192885011 0.3021765649
v 0.05074341968 0.01639262587 0.3630007803
v 0.05078231171 -0.03856501728 0.3615374565
v 0.05084692314 0.009249802679 0.363066256
v 0.05085751042 -0.03302899003 0.3618975282
v 0.05091184378 -0.04140631855 0.3487190604
v 0.05091932416 0.05245219916 0.3497444391
v 0.05092956126 0.002032178687 0.3630635142
v 0.05093785748 -0.02668109722 0.3622552156
v 0.05098032206 -0.005214476027 0.3629785776
v 0.05099889636 -0.01966415532 0.3625721633
v 0.05100854859 -0.01246227138 0.3628128171
v 0.05102094263 0.05880220234 0.3494960368
v 0.05110708252 -0.04922237992 0.311887145
v 0.05141613632 0.03771551698 0.302851826
v 0.0514186658 -0.03792031109 0.3029403687
v 0.05183022842 -0.04872359708 0.3495269418
v 0.05231314898 -0.04922043532 0.3497814238
v 0.05232108757 0.03198384121 0.3037375808
v 0.05236648396 -0.03190624714 0.3038654625
v 0.05262188986 0.04826950654 0.3113466799
v 0.05270030722 -0.04148324206 0.3206219375
v 0.05279764906 0.05880220234 0.3192642927
v 0.05289912596 0.04984041676 0.3213513792
v 0.05300095677 0.05245219916 0.3199451268
v 0.05322059616 0.02511863224 0.3046765029
v 0.053252846 -0.02529989555 0.3047527671
v 0.0534475185 -0.04133514687 0.3394954503
v 0.05357253551 0.04788120463 0.3515427113
v 0.05365336686 0.04991494864 0.34068802
v 0.0539088212 -0.01843003742 0.3055026531
v 0.05392610654 -0.04654349014 0.3112353086
v 0.0539349243 0.01786507852 0.3054542243
v 0.05395321175 0.05245220289 0.3400739431
v 0.05396315455 -0.04872363806 0.3211036623
v 0.05400541052 0.05880220234 0.3396560252
v 0.05408024415 -0.04136477038 0.329980284
v 0.05436164141 -0.01135872211 0.3060305119
v 0.0543730557 0.04984316975 0.3309412599
v 0.05439353734 0.01050574612 0.3060356677
v 0.05451846495 -0.0492204763 0.3210406303
v 0.05456176773 0.05880220234 0.3294013143
v 0.05458187684 0.05245220289 0.3299675584
v 0.05459681153 -0.004153005779 0.3063159585
v 0.05460217595 0.00314753619 0.3063212931
v 0.05461448058 -0.04872360826 0.3402279317
v 0.05480225384 0.04527101666 0.3110035062
v 0.05502577499 -0.04661393166 0.3511838913
v 0.05514954403 -0.04922044277 0.3403796852
v 0.05533989519 0.04461421818 0.3524892926
v 0.05534464121 -0.04872362316 0.3306159377
v 0.05552309379 -0.04239617661 0.3112487793
v 0.05579777807 0.04078378528 0.3528318703
v 0.05580416694 0.04151844233 0.3112234771
v 0.05590116233 -0.04922045395 0.3306584656
v 0.05594142154 -0.04283614084 0.3518381715
v 0.05596822128 0.03592963517 0.353058219
v 0.05613043904 0.03016035259 0.3532906473
v 0.05617763475 0.04802104458 0.3210062683
v 0.05619661137 -0.03821787238 0.3522437215
v 0.05628836527 -0.03731033951 0.3117702007
v 0.0562966466 0.02363074012 0.3535105586
v 0.05632639304 0.03717105836 0.3117434978
v 0.05632727966 -0.03263958916 0.3526217341
v 0.05643081665 0.01665565558 0.3536781073
v 0.05645313859 -0.02623921819 0.3529871106
v 0.05652052909 0.009512548335 0.3537698984
v 0.05654995143 -0.01927330904 0.3533059955
v 0.05658077449 0.002301709726 0.3537832499
v 0.05658952147 -0.0121295955 0.3535452187
v 0.05660033599 -0.004924112 0.3537069261
v 0.05690287054 0.03158796579 0.312405318
v 0.05691473931 -0.03144942224 0.3124547303
v 0.05693063885 0.0479378216 0.3416055441
v 0.05743902922 -0.02505980991 0.3131427765
v 0.05747269094 0.02493614331 0.3131261468
v 0.05747719109 -0.046356529 0.3207928538
v 0.05769066885 0.04790698364 0.3312158287
v 0.05790159851 -0.018318519 0.3137255907
v 0.05791132897 -0.04640404508 0.341160655
v 0.05792414397 0.01776711829 0.3137438297
v 0.05817766488 -0.01132434607 0.3141710758
v 0.05821575969 0.01044902857 0.3141988516
v 0.05826847628 0.04498137906 0.320959121
v 0.05835184082 -0.004163092002 0.3144074976
v 0.05836895853 0.003112970851 0.3144164681
v 0.05859550089 -0.04621633515 0.3309323788
v 0.05876932666 0.04469066113 0.3422080278
v 0.05893741176 -0.04211186618 0.3209638894
v 0.05912115797 0.04121627286 0.3212107122
v 0.05915652215 -0.04251981527 0.3417462409
v 0.05924927816 0.0409492366 0.3425061703
v 0.05942393467 -0.03703955561 0.3214431107
v 0.05944690481 0.03618887812 0.3427734077
v 0.05947289243 -0.03776533157 0.3421429992
v 0.05950615183 0.03674886376 0.3216181695
v 0.05964327604 0.03045308962 0.3430619538
v 0.05965568498 -0.03203693777 0.3425391018
v 0.05976588279 0.04479194432 0.3314945102
v 0.05981294811 -0.03126391396 0.3219868839
v 0.0598208718 0.02393397503 0.3433344364
v 0.05983568728 -0.02566394396 0.3429225683
v 0.05988813937 0.03116309084 0.322116375
v 0.0599601455 0.01694659889 0.3435565233
v 0.0599758029 -0.04212198779 0.3312931061
v 0.05998316407 -0.01884071343 0.3432621956
v 0.060050603 0.009786600247 0.3436984122
v 0.06006788835 -0.01179514918 0.3435195982
v 0.06010678411 0.002570416313 0.3437434435
v 0.06011237577 -0.004641085863 0.3436839581
v 0.06017069891 -0.02498220466 0.3225183785
v 0.06023499742 0.02462069504 0.3226386309
v 0.06034648791 0.04105870798 0.3317803741
v 0.06047688797 -0.01831810921 0.3229830563
v 0.06050435454 -0.03722028062 0.3316979408
v 0.06051527336 0.01753818616 0.3230887353
v 0.06060079485 0.03646380082 0.3321036994
v 0.06063624099 -0.01136461087 0.3233432174
v 0.06068063155 0.01028351393 0.3234166205
v 0.06075789779 -0.004240920767 0.3235446215
v 0.06076856703 0.002997044008 0.3235703111
v 0.06080243364 -0.03149464726 0.3321488202
v 0.0608635135 0.0307945814 0.3324863613
v 0.06104076281 -0.02518802322 0.3325880766
v 0.0611057356 0.02427649125 0.3328606784
v 0.06124062836 -0.01849107072 0.3329735398
v 0.06128766388 0.01724833623 0.333176434
v 0.06137514114 -0.0115231229 0.333268255
v 0.06140482053 0.01005257294 0.333396554
v 0.06146496907 -0.004403739236 0.3334462047
v 0.06147264689 0.002810900332 0.333488822
f 466 563 555
f 555 475 466
f 466 475 397
f 397 379 466
f 466 379 322
f 322 391 466
f 466 498 574
f 574 563 466
f 1123 1106 1098
f 1098 1105 1123
f 1123 1126 1116
f 1116 1112 1123
f 1123 1112 1094
f 1094 1106 1123
f 1123 1105 1092
f 1092 1102 1123
f 1123 1102 1109
f 1109 1126 1123
f 452 368 306
f 306 352 452
f 452 352 390
f 390 476 452
f 452 482 396
f 396 368 452
f 920 937 974
f 974 936 920
f 920 896 901
f 901 937 920
f 920 936 899
f 899 896 920
f 682 665 775
f 775 821 682
f 682 639 555
f 555 563 682
f 682 563 574
f 574 665 682
f 682 754 712
f 712 639 682
f 682 821 904
f 904 754 682
f 725 908 866
f 866 719 725
f 725 576 570
f 570 663 725
f 725 719 583
f 583 576 725
f 725 663 748
f 748 851 725
f 474 447 442
f 442 471 474
f 474 471 505
f 505 512 474
f 505 559 561
f 561 512 505
f 630 631 561
f 561 559 630
f 685 687 631
f 631 630 685
f 752 746 687
f 687 685 752
f 857 848 746
f 746 752 857
f 941 933 848
f 848 857 941
f 996 993 933
f 933 941 996
f 1026 1024 993
f 993 996 1026
f 1043 1041 1024
f 1024 1026 1043
f 1039 1040 1041
f 1041 1043 1039
f 1018 1023 1040
f 1040 1039 1018
f 986 992 1023
f 1023 1018 986
f 992 986 917
f 917 926 992
f 431 462 463
f 463 433 431
f 431 433 420
f 420 421 431
f 420 442 447
f 447 421 420
f 442 304 346
f 346 471 442
f 346 412 505
f 505 471 346
f 497 559 505
f 505 412 497
f 587 630 559
f 559 497 587
f 711 685 630
f 630 587 711
f 816 752 685
f 685 711 816
f 988 857 752
f 752 816 988
f 1087 941 857
f 857 988 1087
f 1140 996 941
f 941 1087 1140
f 1182 1026 996
f 996 1140 1182
f 1197 1043 1026
f 1026 1182 1197
f 1188 1039 1043
f 1043 1197 1188
f 1166 1018 1039
f 1039 1188 1166
f 1115 986 1018
f 1018 1166 1115
f 1030 917 986
f 986 1115 1030
f 917 826 837
f 837 926 917
f 741 744 837
f 837 826 741
f 689 702 744
f 744 741 689
f 636 638 702
f 702 689 636
f 638 636 577
f 577 578 638
f 578 577 540
f 540 538 578
f 538 540 494
f 494 492 538
f 494 463 462
f 462 492 494
f 463 336 301
f 301 433 463
f 301 283 420
f 420 433 301
f 283 304 442
f 442 420 283
f 304 283 255
f 255 287 304
f 304 287 327
f 327 346 304
f 346 327 401
f 401 412 346
f 412 401 487
f 487 497 412
f 497 487 584
f 584 587 497
f 587 584 717
f 717 711 587
f 711 717 859
f 859 816 711
f 816 859 1003
f 1003 988 816
f 988 1003 1099
f 1099 1087 988
f 1087 1099 1158
f 1158 1140 1087
f 1140 1158 1195
f 1195 1182 1140
f 1182 1195 1211
f 1211 1197 1182
f 1197 1211 1206
f 1206 1188 1197
f 1188 1206 1177
f 1177 1166 1188
f 1166 1177 1125
f 1125 1115 1166
f 1115 1125 1038
f 1038 1030 1115
f 1030 1038 935
f 935 932 1030
f 1030 932 826
f 826 917 1030
f 785 741 826
f 826 932 785
f 705 689 741
f 741 785 705
f 626 636 689
f 689 705 626
f 548 577 636
f 636 626 548
f 577 548 472
f 472 540 577
f 472 400 494
f 494 540 472
f 400 336 463
f 463 494 400
f 336 400 395
f 395 326 336
f 336 326 286
f 286 301 336
f 286 326 316
f 316 272 286
f 286 272 250
f 250 255 286
f 286 255 283
f 283 301 286
f 250 272 241
f 241 225 250
f 250 225 235
f 235 274 250
f 250 274 287
f 287 255 250
f 274 235 296
f 296 319 274
f 274 319 327
f 327 287 274
f 319 296 368
f 368 396 319
f 319 396 401
f 401 327 319
f 296 235 201
f 201 240 296
f 296 240 306
f 306 368 296
f 240 201 172
f 172 198 240
f 240 198 236
f 236 306 240
f 236 198 151
f 151 178 236
f 236 178 191
f 191 275 236
f 236 275 352
f 352 306 236
f 275 191 221
f 221 310 275
f 275 310 390
f 390 352 275
f 310 221 237
f 237 317 310
f 310 317 405
f 405 390 310
f 405 317 338
f 338 414 405
f 405 414 496
f 496 489 405
f 405 489 476
f 476 390 405
f 489 496 564
f 564 567 489
f 489 567 570
f 570 476 489
f 567 564 640
f 640 647 567
f 567 647 663
f 663 570 567
f 647 640 713
f 713 723 647
f 647 723 748
f 748 663 647
f 723 713 750
f 750 781 723
f 723 781 840
f 840 748 723
f 840 781 850
f 850 905 840
f 840 905 978
f 978 925 840
f 840 925 851
f 851 748 840
f 925 978 1044
f 1044 1008 925
f 925 1008 980
f 980 851 925
f 980 1008 1100
f 1100 1084 980
f 980 1084 1046
f 1046 908 980
f 980 908 725
f 725 851 980
f 1046 1084 1155
f 1155 1133 1046
f 1046 1133 1108
f 1108 1006 1046
f 1046 1006 866
f 866 908 1046
f 1006 1108 1099
f 1099 1003 1006
f 1006 1003 859
f 859 866 1006
f 1108 1133 1192
f 1192 1174 1108
f 1108 1174 1158
f 1158 1099 1108
f 1174 1192 1237
f 1237 1201 1174
f 1174 1201 1195
f 1195 1158 1174
f 1201 1237 1247
f 1247 1215 1201
f 1201 1215 1211
f 1211 1195 1201
f 1215 1247 1240
f 1240 1209 1215
f 1215 1209 1206
f 1206 1211 1215
f 1209 1240 1208
f 1208 1178 1209
f 1209 1178 1177
f 1177 1206 1209
f 1178 1208 1150
f 1150 1128 1178
f 1178 1128 1125
f 1125 1177 1178
f 1128 1150 1066
f 1066 1042 1128
f 1128 1042 1038
f 1038 1125 1128
f 1042 1066 957
f 957 938 1042
f 1042 938 935
f 935 1038 1042
f 938 957 800
f 800 788 938
f 938 788 786
f 786 935 938
f 786 788 701
f 701 699 786
f 786 699 705
f 705 785 786
f 786 785 932
f 932 935 786
f 705 699 624
f 624 626 705
f 626 624 543
f 543 548 626
f 548 543 469
f 469 472 548
f 469 543 541
f 541 467 469
f 469 467 392
f 392 395 469
f 469 395 400
f 400 472 469
f 392 467 453
f 453 376 392
f 392 376 305
f 305 316 392
f 392 316 326
f 326 395 392
f 305 376 369
f 369 289 305
f 305 289 224
f 224 241 305
f 305 241 272
f 272 316 305
f 224 289 277
f 277 218 224
f 224 218 175
f 175 190 224
f 224 190 225
f 225 241 224
f 190 175 172
f 172 201 190
f 190 201 235
f 235 225 190
f 175 218 210
f 210 165 175
f 175 165 147
f 147 172 175
f 147 165 156
f 156 132 147
f 147 132 116
f 116 151 147
f 147 151 198
f 198 172 147
f 116 132 118
f 118 100 116
f 116 100 86
f 86 128 116
f 116 128 178
f 178 151 116
f 128 86 96
f 96 135 128
f 128 135 191
f 191 178 128
f 135 96 105
f 105 148 135
f 135 148 221
f 221 191 135
f 148 105 120
f 120 173 148
f 148 173 237
f 237 221 148
f 173 120 134
f 134 186 173
f 173 186 249
f 249 237 173
f 249 186 197
f 197 263 249
f 249 263 356
f 356 338 249
f 249 338 317
f 317 237 249
f 356 263 294
f 294 373 356
f 356 373 449
f 449 424 356
f 356 424 414
f 414 338 356
f 424 449 506
f 506 502 424
f 424 502 496
f 496 414 424
f 502 506 571
f 571 566 502
f 502 566 564
f 564 496 502
f 566 571 637
f 637 635 566
f 566 635 640
f 640 564 566
f 635 637 690
f 690 698 635
f 635 698 713
f 713 640 635
f 698 690 733
f 733 736 698
f 698 736 750
f 750 713 698
f 736 733 770
f 770 780 736
f 736 780 805
f 805 750 736
f 805 780 811
f 811 844 805
f 805 844 889
f 889 850 805
f 805 850 781
f 781 750 805
f 889 844 871
f 871 909 889
f 889 909 969
f 969 943 889
f 889 943 905
f 905 850 889
f 943 969 1014
f 1014 1001 943
f 943 1001 978
f 978 905 943
f 1001 1014 1088
f 1088 1060 1001
f 1001 1060 1044
f 1044 978 1001
f 1060 1088 1138
f 1138 1132 1060
f 1060 1132 1120
f 1120 1044 1060
f 1120 1132 1187
f 1187 1180 1120
f 1120 1180 1176
f 1176 1100 1120
f 1120 1100 1008
f 1008 1044 1120
f 1176 1180 1233
f 1233 1221 1176
f 1176 1221 1212
f 1212 1155 1176
f 1176 1155 1084
f 1084 1100 1176
f 1212 1221 1253
f 1253 1249 1212
f 1212 1249 1237
f 1237 1192 1212
f 1212 1192 1133
f 1133 1155 1212
f 1249 1253 1275
f 1275 1265 1249
f 1249 1265 1247
f 1247 1237 1249
f 1265 1275 1255
f 1255 1251 1265
f 1265 1251 1240
f 1240 1247 1265
f 1251 1255 1220
f 1220 1216 1251
f 1251 1216 1208
f 1208 1240 1251
f 1216 1220 1163
f 1163 1159 1216
f 1216 1159 1150
f 1150 1208 1216
f 1159 1163 1077
f 1077 1073 1159
f 1159 1073 1066
f 1066 1150 1159
f 1073 1077 968
f 968 965 1073
f 1073 965 957
f 957 1066 1073
f 965 968 804
f 804 803 965
f 965 803 800
f 800 957 965
f 803 804 703
f 703 707 803
f 803 707 706
f 706 800 803
f 706 707 617
f 617 618 706
f 706 618 621
f 621 701 706
f 706 701 788
f 788 800 706
f 621 618 533
f 533 541 621
f 621 541 543
f 543 624 621
f 621 624 699
f 699 701 621
f 533 618 617
f 617 530 533
f 533 530 446
f 446 453 533
f 533 453 467
f 467 541 533
f 446 530 528
f 528 445 446
f 446 445 366
f 366 369 446
f 446 369 376
f 376 453 446
f 366 445 444
f 444 365 366
f 366 365 270
f 270 277 366
f 366 277 289
f 289 369 366
f 270 365 361
f 361 269 270
f 270 269 207
f 207 210 270
f 270 210 218
f 218 277 270
f 207 269 273
f 273 209 207
f 207 209 152
f 152 156 207
f 207 156 165
f 165 210 207
f 152 209 211
f 211 157 152
f 152 157 119
f 119 118 152
f 152 118 132
f 132 156 152
f 119 157 161
f 161 122 119
f 119 122 95
f 95 91 119
f 119 91 100
f 100 118 119
f 91 95 71
f 71 73 91
f 91 73 86
f 86 100 91
f 73 71 64
f 64 67 73
f 73 67 96
f 96 86 73
f 67 64 59
f 59 68 67
f 67 68 105
f 105 96 67
f 68 59 54
f 54 75 68
f 68 75 120
f 120 105 68
f 75 54 50
f 50 78 75
f 75 78 134
f 134 120 75
f 78 50 38
f 38 77 78
f 78 77 138
f 138 134 78
f 138 77 83
f 83 145 138
f 138 145 214
f 214 197 138
f 138 197 186
f 186 134 138
f 214 145 154
f 154 228 214
f 214 228 309
f 309 294 214
f 214 294 263
f 263 197 214
f 309 228 238
f 238 315 309
f 309 315 398
f 398 386 309
f 309 386 373
f 373 294 309
f 386 398 473
f 473 461 386
f 386 461 449
f 449 373 386
f 461 473 542
f 542 527 461
f 461 527 506
f 506 449 461
f 527 542 600
f 600 581 527
f 527 581 571
f 571 506 527
f 581 600 650
f 650 642 581
f 581 642 637
f 637 571 581
f 642 650 718
f 718 708 642
f 642 708 690
f 690 637 642
f 708 718 747
f 747 735 708
f 708 735 733
f 733 690 708
f 735 747 796
f 796 776 735
f 735 776 770
f 770 733 735
f 776 796 823
f 823 810 776
f 776 810 808
f 808 770 776
f 808 811 780
f 780 770 808
f 808 810 824
f 824 819 808
f 808 819 834
f 834 811 808
f 834 819 835
f 835 856 834
f 834 856 884
f 884 871 834
f 834 871 844
f 844 811 834
f 884 856 864
f 864 890 884
f 884 890 929
f 929 922 884
f 884 922 909
f 909 871 884
f 922 929 982
f 982 977 922
f 922 977 969
f 969 909 922
f 977 982 1034
f 1034 1028 977
f 977 1028 1014
f 1014 969 977
f 1028 1034 1096
f 1096 1093 1028
f 1028 1093 1088
f 1088 1014 1028
f 1093 1096 1148
f 1148 1147 1093
f 1093 1147 1138
f 1138 1088 1093
f 1147 1148 1204
f 1204 1198 1147
f 1147 1198 1191
f 1191 1138 1147
f 1191 1198 1242
f 1242 1239 1191
f 1191 1239 1235
f 1235 1187 1191
f 1191 1187 1132
f 1132 1138 1191
f 1235 1239 1274
f 1274 1271 1235
f 1235 1271 1260
f 1260 1233 1235
f 1235 1233 1180
f 1180 1187 1235
f 1260 1271 1284
f 1284 1282 1260
f 1260 1282 1275
f 1275 1253 1260
f 1260 1253 1221
f 1221 1233 1260
f 1282 1284 1262
f 1262 1258 1282
f 1282 1258 1255
f 1255 1275 1282
f 1258 1262 1226
f 1226 1224 1258
f 1258 1224 1220
f 1220 1255 1258
f 1224 1226 1169
f 1169 1165 1224
f 1224 1165 1163
f 1163 1220 1224
f 1165 1169 1081
f 1081 1078 1165
f 1165 1078 1077
f 1077 1163 1165
f 1078 1081 966
f 966 967 1078
f 1078 967 968
f 968 1077 1078
f 967 966 801
f 801 802 967
f 967 802 804
f 804 968 967
f 802 801 697
f 697 700 802
f 802 700 703
f 703 804 802
f 700 697 611
f 611 613 700
f 700 613 615
f 615 703 700
f 615 613 526
f 526 528 615
f 615 528 530
f 530 617 615
f 615 617 707
f 707 703 615
f 526 613 611
f 611 525 526
f 526 525 443
f 443 444 526
f 526 444 445
f 445 528 526
f 443 525 524
f 524 441 443
f 443 441 362
f 362 361 443
f 443 361 365
f 365 444 443
f 362 441 440
f 440 364 362
f 362 364 278
f 278 273 362
f 362 273 269
f 269 361 362
f 278 364 363
f 363 281 278
f 278 281 215
f 215 211 278
f 278 211 209
f 209 273 278
f 215 281 282
f 282 219 215
f 215 219 163
f 163 161 215
f 215 161 157
f 157 211 215
f 163 219 216
f 216 162 163
f 163 162 126
f 126 127 163
f 163 127 122
f 122 161 163
f 127 126 92
f 92 94 127
f 127 94 95
f 95 122 127
f 94 92 69
f 69 70 94
f 94 70 71
f 71 95 94
f 70 69 63
f 63 61 70
f 70 61 64
f 64 71 70
f 61 63 57
f 57 56 61
f 61 56 59
f 59 64 61
f 56 57 51
f 51 49 56
f 56 49 54
f 54 59 56
f 49 51 35
f 35 31 49
f 49 31 50
f 50 54 49
f 31 35 24
f 24 22 31
f 31 22 38
f 38 50 31
f 22 24 16
f 16 17 22
f 22 17 32
f 32 38 22
f 32 17 8
f 8 34 32
f 32 34 98
f 98 83 32
f 32 83 77
f 77 38 32
f 98 34 39
f 39 106 98
f 98 106 171
f 171 154 98
f 98 154 145
f 145 83 98
f 171 106 115
f 115 183 171
f 171 183 248
f 248 238 171
f 171 238 228
f 228 154 171
f 248 183 192
f 192 261 248
f 248 261 359
f 359 335 248
f 248 335 315
f 315 238 248
f 335 359 432
f 432 411 335
f 335 411 398
f 398 315 335
f 411 432 504
f 504 490 411
f 411 490 473
f 473 398 411
f 490 504 573
f 573 556 490
f 490 556 542
f 542 473 490
f 556 573 641
f 641 629 556
f 556 629 600
f 600 542 556
f 629 641 716
f 716 669 629
f 629 669 650
f 650 600 629
f 669 716 759
f 759 727 669
f 669 727 718
f 718 650 669
f 727 759 828
f 828 772 727
f 727 772 747
f 747 718 727
f 772 828 888
f 888 822 772
f 772 822 796
f 796 747 772
f 822 888 911
f 911 867 822
f 822 867 823
f 823 796 822
f 867 911 914
f 914 877 867
f 867 877 852
f 852 823 867
f 852 824 810
f 810 823 852
f 852 877 883
f 883 858 852
f 852 858 838
f 838 824 852
f 838 858 861
f 861 843 838
f 838 843 847
f 847 835 838
f 838 835 819
f 819 824 838
f 847 843 845
f 845 849 847
f 847 849 865
f 865 864 847
f 847 864 856
f 856 835 847
f 865 849 842
f 842 862 865
f 865 862 887
f 887 891 865
f 865 891 890
f 890 864 865
f 891 887 924
f 924 931 891
f 891 931 929
f 929 890 891
f 931 924 979
f 979 984 931
f 931 984 982
f 982 929 931
f 984 979 1029
f 1029 1035 984
f 984 1035 1034
f 1034 982 984
f 1035 1029 1095
f 1095 1097 1035
f 1035 1097 1096
f 1096 1034 1035
f 1097 1095 1146
f 1146 1149 1097
f 1097 1149 1148
f 1148 1096 1097
f 1149 1146 1200
f 1200 1205 1149
f 1149 1205 1204
f 1204 1148 1149
f 1205 1200 1243
f 1243 1246 1205
f 1205 1246 1245
f 1245 1204 1205
f 1245 1246 1281
f 1281 1280 1245
f 1245 1280 1278
f 1278 1242 1245
f 1245 1242 1198
f 1198 1204 1245
f 1278 1280 1290
f 1290 1288 1278
f 1278 1288 1286
f 1286 1274 1278
f 1278 1274 1239
f 1239 1242 1278
f 1286 1288 1268
f 1268 1266 1286
f 1286 1266 1262
f 1262 1284 1286
f 1286 1284 1271
f 1271 1274 1286
f 1266 1268 1230
f 1230 1228 1266
f 1266 1228 1226
f 1226 1262 1266
f 1228 1230 1172
f 1172 1171 1228
f 1228 1171 1169
f 1169 1226 1228
f 1171 1172 1079
f 1079 1080 1171
f 1171 1080 1081
f 1081 1169 1171
f 1080 1079 962
f 962 964 1080
f 1080 964 966
f 966 1081 1080
f 964 962 797
f 797 798 964
f 964 798 801
f 801 966 964
f 798 797 692
f 692 694 798
f 798 694 697
f 697 801 798
f 694 692 608
f 608 610 694
f 694 610 611
f 611 697 694
f 610 608 521
f 521 524 610
f 610 524 525
f 525 611 610
f 521 608 607
f 607 520 521
f 521 520 438
f 438 440 521
f 521 440 441
f 441 524 521
f 438 520 519
f 519 437 438
f 438 437 360
f 360 363 438
f 438 363 364
f 364 440 438
f 360 437 436
f 436 357 360
f 360 357 280
f 280 282 360
f 360 282 281
f 281 363 360
f 280 357 354
f 354 271 280
f 280 271 212
f 212 216 280
f 280 216 219
f 219 282 280
f 212 271 264
f 264 208 212
f 212 208 155
f 155 159 212
f 212 159 162
f 162 216 212
f 159 155 123
f 123 121 159
f 159 121 126
f 126 162 159
f 121 123 99
f 99 93 121
f 121 93 92
f 92 126 121
f 93 99 81
f 81 72 93
f 93 72 69
f 69 92 93
f 72 81 76
f 76 65 72
f 72 65 63
f 63 69 72
f 65 76 80
f 80 62 65
f 65 62 57
f 57 63 65
f 62 80 89
f 89 58 62
f 62 58 51
f 51 57 62
f 58 89 90
f 90 53 58
f 58 53 35
f 35 51 58
f 53 90 85
f 85 43 53
f 53 43 24
f 24 35 53
f 43 85 79
f 79 33 43
f 43 33 16
f 16 24 43
f 33 79 82
f 82 29 33
f 33 29 3
f 3 16 33
f 3 29 30
f 30 2 3
f 3 2 5
f 5 8 3
f 3 8 17
f 17 16 3
f 5 2 4
f 4 15 5
f 5 15 52
f 52 39 5
f 5 39 34
f 34 8 5
f 52 15 18
f 18 55 52
f 52 55 130
f 130 115 52
f 52 115 106
f 106 39 52
f 130 55 60
f 60 136 130
f 130 136 205
f 205 192 130
f 130 192 183
f 183 115 130
f 205 136 143
f 143 220 205
f 205 220 307
f 307 293 205
f 205 293 261
f 261 192 205
f 293 307 388
f 388 377 293
f 293 377 359
f 359 261 293
f 377 388 470
f 470 456 377
f 377 456 432
f 432 359 377
f 456 470 551
f 551 532 456
f 456 532 504
f 504 432 456
f 532 551 627
f 627 597 532
f 532 597 573
f 573 504 532
f 597 627 691
f 691 656 597
f 597 656 641
f 641 573 597
f 656 691 761
f 761 732 656
f 656 732 716
f 716 641 656
f 732 761 885
f 885 814 732
f 732 814 759
f 759 716 732
f 814 885 975
f 975 912 814
f 814 912 828
f 828 759 814
f 912 975 1009
f 1009 955 912
f 912 955 888
f 888 828 912
f 955 1009 1027
f 1027 971 955
f 955 971 911
f 911 888 955
f 971 1027 1010
f 1010 970 971
f 971 970 914
f 914 911 971
f 970 1010 999
f 999 952 970
f 970 952 913
f 913 914 970
f 913 883 877
f 877 914 913
f 913 952 937
f 937 901 913
f 913 901 880
f 880 883 913
f 880 861 858
f 858 883 880
f 880 901 896
f 896 876 880
f 880 876 860
f 860 861 880
f 860 876 875
f 875 855 860
f 860 855 839
f 839 845 860
f 860 845 843
f 843 861 860
f 839 855 854
f 854 831 839
f 839 831 829
f 829 842 839
f 839 842 849
f 849 845 839
f 829 831 817
f 817 813 829
f 829 813 827
f 827 853 829
f 829 853 862
f 862 842 829
f 853 827 863
f 863 878 853
f 853 878 887
f 887 862 853
f 878 863 895
f 895 915 878
f 878 915 924
f 924 887 878
f 915 895 948
f 948 973 915
f 915 973 979
f 979 924 915
f 973 948 1004
f 1004 1019 973
f 973 1019 1029
f 1029 979 973
f 1019 1004 1064
f 1064 1089 1019
f 1019 1089 1095
f 1095 1029 1019
f 1089 1064 1131
f 1131 1137 1089
f 1089 1137 1146
f 1146 1095 1089
f 1137 1131 1186
f 1186 1193 1137
f 1137 1193 1200
f 1200 1146 1137
f 1193 1186 1236
f 1236 1241 1193
f 1193 1241 1243
f 1243 1200 1193
f 1241 1236 1272
f 1272 1276 1241
f 1241 1276 1279
f 1279 1243 1241
f 1279 1276 1287
f 1287 1289 1279
f 1279 1289 1291
f 1291 1281 1279
f 1279 1281 1246
f 1246 1243 1279
f 1291 1289 1267
f 1267 1269 1291
f 1291 1269 1270
f 1270 1290 1291
f 1291 1290 1280
f 1280 1281 1291
f 1270 1269 1229
f 1229 1231 1270
f 1270 1231 1230
f 1230 1268 1270
f 1270 1268 1288
f 1288 1290 1270
f 1231 1229 1168
f 1168 1170 1231
f 1231 1170 1172
f 1172 1230 1231
f 1170 1168 1074
f 1074 1076 1170
f 1170 1076 1079
f 1079 1172 1170
f 1076 1074 958
f 958 960 1076
f 1076 960 962
f 962 1079 1076
f 960 958 793
f 793 795 960
f 960 795 797
f 797 962 960
f 795 793 686
f 686 688 795
f 795 688 692
f 692 797 795
f 688 686 606
f 606 607 688
f 688 607 608
f 608 692 688
f 606 686 684
f 684 602 606
f 606 602 517
f 517 519 606
f 606 519 520
f 520 607 606
f 517 602 601
f 601 516 517
f 517 516 435
f 435 436 517
f 517 436 437
f 437 519 517
f 435 516 514
f 514 430 435
f 435 430 351
f 351 354 435
f 435 354 357
f 357 436 435
f 351 430 426
f 426 350 351
f 351 350 260
f 260 264 351
f 351 264 271
f 271 354 351
f 260 350 347
f 347 259 260
f 260 259 206
f 206 204 260
f 260 204 208
f 208 264 260
f 204 206 166
f 166 158 204
f 204 158 155
f 155 208 204
f 158 166 142
f 142 131 158
f 158 131 123
f 123 155 158
f 131 142 140
f 140 110 131
f 131 110 99
f 99 123 131
f 110 140 146
f 146 107 110
f 110 107 81
f 81 99 110
f 107 146 153
f 153 109 107
f 107 109 76
f 76 81 107
f 109 153 170
f 170 114 109
f 109 114 80
f 80 76 109
f 114 170 184
f 184 133 114
f 114 133 89
f 89 80 114
f 133 184 189
f 189 137 133
f 133 137 90
f 90 89 133
f 137 189 196
f 196 139 137
f 137 139 85
f 85 90 137
f 139 196 203
f 203 141 139
f 139 141 79
f 79 85 139
f 141 203 213
f 213 144 141
f 141 144 82
f 82 79 141
f 144 213 222
f 222 150 144
f 144 150 87
f 87 82 144
f 87 150 164
f 164 101 87
f 87 101 36
f 36 30 87
f 87 30 29
f 29 82 87
f 36 101 104
f 104 37 36
f 36 37 6
f 6 4 36
f 36 4 2
f 2 30 36
f 6 37 40
f 40 10 6
f 6 10 19
f 19 18 6
f 6 18 15
f 15 4 6
f 19 10 14
f 14 20 19
f 19 20 66
f 66 60 19
f 19 60 55
f 55 18 19
f 66 20 21
f 21 74 66
f 66 74 149
f 149 143 66
f 66 143 136
f 136 60 66
f 149 74 84
f 84 160 149
f 149 160 233
f 233 229 149
f 149 229 220
f 220 143 149
f 229 233 318
f 318 312 229
f 229 312 307
f 307 220 229
f 312 318 407
f 407 399 312
f 312 399 388
f 388 307 312
f 399 407 495
f 495 483 399
f 399 483 470
f 470 388 399
f 483 495 568
f 568 557 483
f 483 557 551
f 551 470 483
f 557 568 645
f 645 634 557
f 557 634 627
f 627 551 557
f 634 645 728
f 728 721 634
f 634 721 691
f 691 627 634
f 721 728 836
f 836 806 721
f 721 806 761
f 761 691 721
f 806 836 961
f 961 930 806
f 806 930 885
f 885 761 806
f 930 961 1037
f 1037 1005 930
f 930 1005 975
f 975 885 930
f 1005 1037 1092
f 1092 1050 1005
f 1005 1050 1009
f 1009 975 1005
f 1050 1092 1105
f 1105 1082 1050
f 1050 1082 1027
f 1027 1009 1050
f 1082 1105 1098
f 1098 1070 1082
f 1082 1070 1010
f 1010 1027 1082
f 1070 1098 1069
f 1069 1033 1070
f 1070 1033 999
f 999 1010 1070
f 1033 1069 1012
f 1012 995 1033
f 1033 995 974
f 974 999 1033
f 995 949 936
f 936 974 995
f 995 1012 972
f 972 949 995
f 972 918 910
f 910 949 972
f 972 1012 1031
f 1031 976 972
f 972 976 916
f 916 918 972
f 916 870 881
f 881 918 916
f 916 976 963
f 963 892 916
f 916 892 832
f 832 870 916
f 832 794 818
f 818 870 832
f 832 892 841
f 841 779 832
f 832 779 745
f 745 794 832
f 745 734 769
f 769 794 745
f 745 779 729
f 729 720 745
f 745 720 710
f 710 734 745
f 710 696 730
f 730 734 710
f 710 720 655
f 655 648 710
f 710 648 643
f 643 696 710
f 643 644 704
f 704 696 643
f 643 648 605
f 605 592 643
f 643 592 590
f 590 644 643
f 590 603 649
f 649 644 590
f 590 592 549
f 549 545 590
f 590 545 550
f 550 603 590
f 550 552 623
f 623 603 550
f 550 545 485
f 485 480 550
f 550 480 477
f 477 552 550
f 477 475 555
f 555 552 477
f 477 480 408
f 408 406 477
f 477 406 397
f 397 475 477
f 406 408 337
f 337 329 406
f 406 329 314
f 314 397 406
f 314 302 379
f 379 397 314
f 314 329 244
f 244 232 314
f 314 232 223
f 223 302 314
f 223 202 253
f 253 302 223
f 223 232 170
f 170 153 223
f 223 153 146
f 146 202 223
f 253 226 276
f 276 322 253
f 253 322 379
f 379 302 253
f 253 202 180
f 180 226 253
f 180 167 194
f 194 226 180
f 180 202 146
f 146 140 180
f 180 140 142
f 142 167 180
f 194 195 231
f 231 239 194
f 194 239 276
f 276 226 194
f 194 167 177
f 177 195 194
f 177 217 227
f 227 195 177
f 177 167 142
f 142 166 177
f 177 166 206
f 206 217 177
f 227 279 308
f 308 247 227
f 227 247 231
f 231 195 227
f 227 217 262
f 262 279 227
f 262 348 355
f 355 279 262
f 262 217 206
f 206 259 262
f 262 259 347
f 347 348 262
f 355 428 448
f 448 374 355
f 355 374 308
f 308 279 355
f 355 348 422
f 422 428 355
f 422 508 509
f 509 428 422
f 422 348 347
f 347 423 422
f 422 423 510
f 510 508 422
f 510 593 588
f 588 508 510
f 510 423 426
f 426 511 510
f 510 511 594
f 594 593 510
f 594 677 676
f 676 593 594
f 594 511 514
f 514 599 594
f 594 599 680
f 680 677 594
f 680 787 784
f 784 677 680
f 680 599 601
f 601 683 680
f 680 683 791
f 791 787 680
f 791 954 951
f 951 787 791
f 791 683 684
f 684 792 791
f 791 792 956
f 956 954 791
f 956 1072 1071
f 1071 954 956
f 956 792 793
f 793 958 956
f 956 958 1074
f 1074 1072 956
f 1071 1162 1160
f 1160 1068 1071
f 1071 1068 951
f 951 954 1071
f 1071 1072 1164
f 1164 1162 1071
f 1164 1227 1225
f 1225 1162 1164
f 1164 1072 1074
f 1074 1168 1164
f 1164 1168 1229
f 1229 1227 1164
f 1225 1264 1261
f 1261 1222 1225
f 1225 1222 1160
f 1160 1162 1225
f 1225 1227 1267
f 1267 1264 1225
f 1222 1261 1257
f 1257 1218 1222
f 1222 1218 1156
f 1156 1160 1222
f 1156 1218 1217
f 1217 1154 1156
f 1156 1154 1061
f 1061 1067 1156
f 1156 1067 1068
f 1068 1160 1156
f 1067 1061 946
f 946 950 1067
f 1067 950 951
f 951 1068 1067
f 950 946 782
f 782 784 950
f 950 784 787
f 787 951 950
f 782 946 944
f 944 778 782
f 782 778 673
f 673 676 782
f 782 676 677
f 677 784 782
f 673 778 774
f 774 672 673
f 673 672 589
f 589 588 673
f 673 588 593
f 593 676 673
f 589 672 671
f 671 598 589
f 589 598 518
f 518 509 589
f 589 509 508
f 508 588 589
f 518 598 604
f 604 535 518
f 518 535 464
f 464 448 518
f 518 448 428
f 428 509 518
f 464 535 547
f 547 481 464
f 464 481 416
f 416 394 464
f 464 394 374
f 374 448 464
f 394 416 382
f 382 331 394
f 394 331 308
f 308 374 394
f 331 382 340
f 340 303 331
f 331 303 247
f 247 308 331
f 303 340 325
f 325 285 303
f 303 285 231
f 231 247 303
f 285 325 341
f 341 299 285
f 285 299 239
f 239 231 285
f 299 341 383
f 383 328 299
f 299 328 276
f 276 239 299
f 328 383 425
f 425 391 328
f 328 391 322
f 322 276 328
f 383 341 342
f 342 384 383
f 427 402 486
f 486 499 427
f 427 499 498
f 498 425 427
f 499 486 565
f 565 575 499
f 499 575 574
f 574 498 499
f 575 565 657
f 657 660 575
f 575 660 665
f 665 574 575
f 660 657 771
f 771 768 660
f 660 768 775
f 775 665 660
f 768 771 953
f 953 934 768
f 768 934 940
f 940 775 768
f 940 934 1032
f 1032 1036 940
f 940 1036 1085
f 1085 990 940
f 940 990 821
f 821 775 940
f 990 1085 1124
f 1124 1025 990
f 990 1025 904
f 904 821 990
f 1025 1124 1142
f 1142 1053 1025
f 1025 1053 959
f 959 904 1025
f 959 830 754
f 754 904 959
f 959 1053 1091
f 1091 997 959
f 959 997 897
f 897 830 959
f 897 812 749
f 749 830 897
f 897 997 1020
f 1020 945 897
f 897 945 882
f 882 812 897
f 882 815 764
f 764 812 882
f 882 945 987
f 987 921 882
f 882 921 872
f 872 815 882
f 872 825 789
f 789 815 872
f 872 921 948
f 948 895 872
f 872 895 863
f 863 825 872
f 789 825 809
f 809 766 789
f 789 766 731
f 731 739 789
f 789 739 764
f 764 815 789
f 739 731 704
f 704 714 739
f 739 714 724
f 724 764 739
f 724 749 812
f 812 764 724
f 724 714 649
f 649 658 724
f 724 658 712
f 712 749 724
f 658 649 603
f 603 623 658
f 658 623 639
f 639 712 658
f 714 704 644
f 644 649 714
f 731 766 762
f 762 730 731
f 731 730 696
f 696 704 731
f 762 766 809
f 809 799 762
f 762 799 807
f 807 769 762
f 762 769 734
f 734 730 762
f 807 799 813
f 813 817 807
f 807 817 846
f 846 818 807
f 807 818 794
f 794 769 807
f 846 817 831
f 831 854 846
f 846 854 879
f 879 881 846
f 846 881 870
f 870 818 846
f 879 854 855
f 855 875 879
f 879 875 899
f 899 910 879
f 879 910 918
f 918 881 879
f 799 809 827
f 827 813 799
f 809 825 863
f 863 827 809
f 921 987 1004
f 1004 948 921
f 987 945 1020
f 1020 1047 987
f 987 1047 1064
f 1064 1004 987
f 1047 1020 1101
f 1101 1118 1047
f 1047 1118 1131
f 1131 1064 1047
f 1118 1101 1175
f 1175 1179 1118
f 1118 1179 1186
f 1186 1131 1118
f 1179 1175 1223
f 1223 1232 1179
f 1179 1232 1236
f 1236 1186 1179
f 1232 1223 1256
f 1256 1263 1232
f 1232 1263 1272
f 1272 1236 1232
f 1263 1256 1277
f 1277 1283 1263
f 1263 1283 1285
f 1285 1272 1263
f 1285 1283 1257
f 1257 1261 1285
f 1285 1261 1264
f 1264 1287 1285
f 1285 1287 1276
f 1276 1272 1285
f 1283 1277 1254
f 1254 1257 1283
f 1254 1277 1273
f 1273 1252 1254
f 1254 1252 1213
f 1213 1217 1254
f 1254 1217 1218
f 1218 1257 1254
f 1213 1252 1248
f 1248 1210 1213
f 1213 1210 1145
f 1145 1151 1213
f 1213 1151 1154
f 1154 1217 1213
f 1151 1145 1052
f 1052 1059 1151
f 1151 1059 1061
f 1061 1154 1151
f 1059 1052 942
f 942 944 1059
f 1059 944 946
f 946 1061 1059
f 942 1052 1045
f 1045 927 942
f 942 927 765
f 765 774 942
f 942 774 778
f 778 944 942
f 765 927 903
f 903 757 765
f 765 757 670
f 670 671 765
f 765 671 672
f 672 774 765
f 670 757 742
f 742 668 670
f 670 668 616
f 616 604 670
f 670 604 598
f 598 671 670
f 616 668 667
f 667 614 616
f 616 614 546
f 546 547 616
f 616 547 535
f 535 604 616
f 546 614 596
f 596 529 546
f 546 529 459
f 459 479 546
f 546 479 481
f 481 547 546
f 479 459 389
f 389 415 479
f 479 415 416
f 416 481 479
f 415 389 323
f 323 380 415
f 415 380 382
f 382 416 415
f 380 323 295
f 295 339 380
f 380 339 340
f 340 382 380
f 339 295 265
f 265 324 339
f 339 324 325
f 325 340 339
f 324 265 297
f 297 342 324
f 324 342 341
f 341 325 324
f 297 265 267
f 267 300 297
f 297 334 384
f 384 342 297
f 333 403 402
f 402 334 333
f 403 484 486
f 486 402 403
f 484 562 565
f 565 486 484
f 562 652 657
f 657 565 562
f 652 758 771
f 771 657 652
f 758 939 953
f 953 771 758
f 939 1051 1065
f 1065 953 939
f 1065 1051 1134
f 1134 1139 1065
f 1065 1139 1104
f 1104 1032 1065
f 1065 1032 934
f 934 953 1065
f 1104 1139 1185
f 1185 1135 1104
f 1104 1135 1136
f 1136 1107 1104
f 1104 1107 1036
f 1036 1032 1104
f 1107 1136 1184
f 1184 1141 1107
f 1107 1141 1085
f 1085 1036 1107
f 1141 1184 1219
f 1219 1181 1141
f 1141 1181 1124
f 1124 1085 1141
f 1181 1219 1244
f 1244 1207 1181
f 1181 1207 1142
f 1142 1124 1181
f 1207 1244 1250
f 1250 1214 1207
f 1207 1214 1161
f 1161 1142 1207
f 1161 1091 1053
f 1053 1142 1161
f 1161 1214 1223
f 1223 1175 1161
f 1161 1175 1101
f 1101 1091 1161
f 1214 1250 1256
f 1256 1223 1214
f 1250 1244 1259
f 1259 1273 1250
f 1250 1273 1277
f 1277 1256 1250
f 1259 1244 1219
f 1219 1238 1259
f 1259 1238 1234
f 1234 1248 1259
f 1259 1248 1252
f 1252 1273 1259
f 1234 1238 1199
f 1199 1190 1234
f 1234 1190 1157
f 1157 1189 1234
f 1234 1189 1210
f 1210 1248 1234
f 1189 1157 1103
f 1103 1130 1189
f 1189 1130 1145
f 1145 1210 1189
f 1130 1103 1013
f 1013 1045 1130
f 1130 1045 1052
f 1052 1145 1130
f 1013 1103 1057
f 1057 989 1013
f 1013 989 874
f 874 903 1013
f 1013 903 927
f 927 1045 1013
f 874 989 991
f 991 873 874
f 874 873 743
f 743 742 874
f 874 742 757
f 757 903 874
f 743 873 902
f 902 756 743
f 743 756 666
f 666 667 743
f 743 667 668
f 668 742 743
f 666 756 755
f 755 662 666
f 666 662 585
f 585 596 666
f 666 596 614
f 614 667 666
f 585 523 529
f 529 596 585
f 523 455 459
f 459 529 523
f 455 387 389
f 389 459 455
f 387 320 323
f 323 389 387
f 320 292 295
f 295 323 320
f 292 267 265
f 265 295 292
f 1183 1202 1203
f 1203 1185 1183
f 1183 1185 1139
f 1139 1134 1183
f 1203 1202 1196
f 1196 1194 1203
f 1203 1194 1144
f 1144 1153 1203
f 1203 1153 1135
f 1135 1185 1203
f 1153 1144 1143
f 1143 1152 1153
f 1153 1152 1136
f 1136 1135 1153
f 1152 1143 1190
f 1190 1199 1152
f 1152 1199 1184
f 1184 1136 1152
f 1143 1144 1121
f 1121 1119 1143
f 1143 1119 1157
f 1157 1190 1143
f 1119 1121 1056
f 1056 1057 1119
f 1119 1057 1103
f 1103 1157 1119
f 1056 1121 1167
f 1167 1111 1056
f 1056 1111 1015
f 1015 991 1056
f 1056 991 989
f 989 1057 1056
f 1015 1111 1113
f 1113 1016 1015
f 1015 1016 900
f 900 902 1015
f 1015 902 873
f 873 991 1015
f 900 755 756
f 756 902 900
f 1173 1113 1111
f 1111 1167 1173
f 1173 1167 1194
f 1194 1196 1173
f 1167 1121 1144
f 1144 1194 1167
f 1199 1238 1219
f 1219 1184 1199
f 1101 1020 997
f 997 1091 1101
f 749 712 754
f 754 830 749
f 1264 1267 1289
f 1289 1287 1264
f 1227 1229 1269
f 1269 1267 1227
f 792 684 686
f 686 793 792
f 683 601 602
f 602 684 683
f 599 514 516
f 516 601 599
f 511 426 430
f 430 514 511
f 423 347 350
f 350 426 423
f 232 244 184
f 184 170 232
f 244 329 337
f 337 252 244
f 244 252 189
f 189 184 244
f 252 337 343
f 343 257 252
f 252 257 196
f 196 189 252
f 257 343 349
f 349 268 257
f 257 268 203
f 203 196 257
f 268 349 367
f 367 288 268
f 268 288 213
f 213 203 268
f 288 367 375
f 375 298 288
f 288 298 222
f 222 213 288
f 298 375 385
f 385 311 298
f 298 311 230
f 230 222 298
f 230 311 313
f 313 234 230
f 230 234 169
f 169 164 230
f 230 164 150
f 150 222 230
f 169 234 242
f 242 176 169
f 169 176 108
f 108 104 169
f 169 104 101
f 101 164 169
f 108 176 181
f 181 111 108
f 108 111 42
f 42 40 108
f 108 40 37
f 37 104 108
f 42 111 112
f 112 44 42
f 42 44 13
f 13 14 42
f 42 14 10
f 10 40 42
f 13 44 46
f 46 11 13
f 13 11 23
f 23 21 13
f 13 21 20
f 20 14 13
f 23 11 9
f 9 25 23
f 23 25 88
f 88 84 23
f 23 84 74
f 74 21 23
f 88 25 27
f 27 97 88
f 88 97 174
f 174 168 88
f 88 168 160
f 160 84 88
f 168 174 246
f 246 243 168
f 168 243 233
f 233 160 168
f 243 246 345
f 345 330 243
f 243 330 318
f 318 233 243
f 330 345 429
f 429 417 330
f 330 417 407
f 407 318 330
f 417 429 513
f 513 503 417
f 417 503 495
f 495 407 417
f 503 513 586
f 586 580 503
f 503 580 568
f 568 495 503
f 580 586 661
f 661 653 580
f 580 653 645
f 645 568 580
f 653 661 751
f 751 738 653
f 653 738 728
f 728 645 653
f 738 751 886
f 886 869 738
f 738 869 836
f 836 728 738
f 869 886 994
f 994 983 869
f 869 983 961
f 961 836 869
f 983 994 1054
f 1054 1049 983
f 983 1049 1037
f 1037 961 983
f 1049 1054 1109
f 1109 1102 1049
f 1049 1102 1092
f 1092 1037 1049
f 1054 994 998
f 998 1058 1054
f 1054 1058 1110
f 1110 1109 1054
f 1110 1058 1063
f 1063 1114 1110
f 1110 1114 1129
f 1129 1127 1110
f 1110 1127 1126
f 1126 1109 1110
f 1127 1129 1122
f 1122 1117 1127
f 1127 1117 1116
f 1116 1126 1127
f 1117 1122 1090
f 1090 1086 1117
f 1117 1086 1075
f 1075 1116 1117
f 1075 1062 1112
f 1112 1116 1075
f 1075 1086 1011
f 1011 1007 1075
f 1075 1007 1000
f 1000 1062 1075
f 1000 981 1048
f 1048 1062 1000
f 1000 1007 906
f 906 893 1000
f 1000 893 868
f 868 981 1000
f 868 820 947
f 947 981 868
f 868 893 753
f 753 737 868
f 868 737 726
f 726 820 868
f 726 715 783
f 783 820 726
f 726 737 654
f 654 646 726
f 726 646 633
f 633 715 726
f 633 625 674
f 674 715 633
f 633 646 569
f 569 560 633
f 633 560 553
f 553 625 633
f 553 536 591
f 591 625 553
f 553 560 493
f 493 478 553
f 553 478 468
f 468 536 553
f 468 458 515
f 515 536 468
f 468 478 404
f 404 393 468
f 468 393 385
f 385 458 468
f 393 404 321
f 321 313 393
f 393 313 311
f 311 385 393
f 321 404 409
f 409 332 321
f 321 332 245
f 245 242 321
f 321 242 234
f 234 313 321
f 245 332 344
f 344 251 245
f 245 251 185
f 185 181 245
f 245 181 176
f 176 242 245
f 185 251 256
f 256 187 185
f 185 187 113
f 113 112 185
f 185 112 111
f 111 181 185
f 113 187 188
f 188 117 113
f 113 117 45
f 45 46 113
f 113 46 44
f 44 112 113
f 45 117 124
f 124 47 45
f 45 47 7
f 7 9 45
f 45 9 11
f 11 46 45
f 7 47 48
f 48 12 7
f 7 12 28
f 28 27 7
f 7 27 25
f 25 9 7
f 28 12 1
f 1 26 28
f 28 26 103
f 103 102 28
f 28 102 97
f 97 27 28
f 102 103 182
f 182 179 102
f 102 179 174
f 174 97 102
f 179 182 258
f 258 254 179
f 179 254 246
f 246 174 179
f 254 258 371
f 371 358 254
f 254 358 345
f 345 246 254
f 358 371 457
f 457 451 358
f 358 451 429
f 429 345 358
f 451 457 537
f 537 531 451
f 451 531 513
f 513 429 451
f 531 537 620
f 620 609 531
f 531 609 586
f 586 513 531
f 609 620 695
f 695 678 609
f 609 678 661
f 661 586 609
f 678 695 773
f 773 760 678
f 678 760 751
f 751 661 678
f 760 773 907
f 907 894 760
f 760 894 886
f 886 751 760
f 894 907 1002
f 1002 998 894
f 894 998 994
f 994 886 894
f 1002 1063 1058
f 1058 998 1002
f 1021 1011 1086
f 1086 1090 1021
f 1021 928 919
f 919 1011 1021
f 919 906 1007
f 1007 1011 919
f 919 928 790
f 790 777 919
f 919 777 763
f 763 906 919
f 763 753 893
f 893 906 763
f 763 777 693
f 693 679 763
f 763 679 664
f 664 753 763
f 664 654 737
f 737 753 664
f 664 679 612
f 612 595 664
f 664 595 582
f 582 654 664
f 582 569 646
f 646 654 582
f 582 595 522
f 522 507 582
f 582 507 501
f 501 569 582
f 501 493 560
f 560 569 501
f 501 507 434
f 434 418 501
f 501 418 409
f 409 493 501
f 418 434 353
f 353 344 418
f 418 344 332
f 332 409 418
f 353 434 450
f 450 370 353
f 353 370 266
f 266 256 353
f 353 256 251
f 251 344 353
f 266 370 372
f 372 284 266
f 266 284 193
f 193 188 266
f 266 188 187
f 187 256 266
f 193 284 290
f 290 199 193
f 193 199 129
f 129 124 193
f 193 124 117
f 117 188 193
f 129 199 200
f 200 125 129
f 129 125 41
f 41 48 129
f 129 48 47
f 47 124 129
f 41 1 12
f 12 48 41
f 709 693 777
f 777 790 709
f 709 628 619
f 619 693 709
f 619 612 679
f 679 693 619
f 619 628 544
f 544 539 619
f 619 539 534
f 534 612 619
f 534 522 595
f 595 612 534
f 534 539 460
f 460 454 534
f 534 454 450
f 450 522 534
f 454 460 378
f 378 372 454
f 454 372 370
f 370 450 454
f 378 460 465
f 465 381 378
f 378 381 291
f 291 290 378
f 378 290 284
f 284 372 378
f 291 200 199
f 199 290 291
f 465 460 539
f 539 544 465
f 450 434 507
f 507 522 450
f 409 404 478
f 478 493 409
f 515 500 558
f 558 572 515
f 515 572 591
f 591 536 515
f 515 458 439
f 439 500 515
f 439 419 491
f 491 500 439
f 439 458 385
f 385 375 439
f 439 375 367
f 367 419 439
f 491 488 549
f 549 554 491
f 491 554 558
f 558 500 491
f 491 419 413
f 413 488 491
f 413 410 485
f 485 488 413
f 413 419 367
f 367 349 413
f 413 349 343
f 343 410 413
f 410 408 480
f 480 485 410
f 410 343 337
f 337 408 410
f 554 549 592
f 592 605 554
f 554 605 622
f 622 558 554
f 622 605 648
f 648 655 622
f 622 655 681
f 681 632 622
f 622 632 572
f 572 558 622
f 632 681 722
f 722 651 632
f 632 651 591
f 591 572 632
f 651 722 740
f 740 674 651
f 651 674 625
f 625 591 651
f 740 722 767
f 767 833 740
f 740 833 898
f 898 783 740
f 740 783 715
f 715 674 740
f 898 833 923
f 923 985 898
f 898 985 1017
f 1017 947 898
f 898 947 820
f 820 783 898
f 1017 985 1022
f 1022 1055 1017
f 1017 1055 1094
f 1094 1048 1017
f 1017 1048 981
f 981 947 1017
f 1055 1022 1031
f 1031 1083 1055
f 1055 1083 1106
f 1106 1094 1055
f 1083 1031 1012
f 1012 1069 1083
f 1083 1069 1098
f 1098 1106 1083
f 1022 963 976
f 976 1031 1022
f 1022 985 923
f 923 963 1022
f 923 841 892
f 892 963 923
f 923 833 767
f 767 841 923
f 767 729 779
f 779 841 767
f 767 722 681
f 681 729 767
f 681 655 720
f 720 729 681
f 488 485 545
f 545 549 488
f 1048 1094 1112
f 1112 1062 1048
f 623 552 555
f 555 639 623
f 910 899 936
f 936 949 910
f 875 876 896
f 896 899 875
f 952 999 974
f 974 937 952
f 859 717 719
f 719 866 859
f 717 584 583
f 583 719 717
f 584 487 482
f 482 583 584
f 487 401 396
f 396 482 487
f 583 482 452
f 452 576 583
f 570 576 452
f 452 476 570
f 466 391 425
f 425 498 466
f 383 384 427
f 427 425 383
f 427 384 334
f 334 402 427
f 297 300 333
f 333 334 297
f 474 512 675
f 1023 992 675
f 992 926 675
f 702 638 675
f 638 578 675
f 578 538 675
f 538 492 675
f 512 561 675
f 561 631 675
f 631 687 675
f 687 746 675
f 746 848 675
f 848 933 675
f 933 993 675
f 993 1024 675
f 1024 1041 675
f 1041 1040 675
f 1040 1023 675
f 421 447 675
f 447 474 675
f 926 837 675
f 837 744 675
f 744 702 675
f 492 462 675
f 462 431 675
f 431 421 675
f 300 267 659
f 1134 1051 659
f 662 755 659
f 585 662 659
f 1196 1202 659
f 1016 1113 659
f 900 1016 659
f 333 300 659
f 403 333 659
f 484 403 659
f 562 484 659
f 652 562 659
f 758 652 659
f 939 758 659
f 1051 939 659
f 523 585 659
f 455 523 659
f 387 455 659
f 320 387 659
f 292 320 659
f 267 292 659
f 1183 1134 659
f 1202 1183 659
f 755 900 659
f 1173 1196 659
f 1113 1173 659
f 1114 1063 579
f 1129 1114 579
f 1122 1129 579
f 1090 1122 579
f 26 1 579
f 103 26 579
f 182 103 579
f 258 182 579
f 371 258 579
f 457 371 579
f 537 457 579
f 620 537 579
f 695 620 579
f 773 695 579
f 907 773 579
f 1002 907 579
f 790 928 579
f 125 200 579
f 41 125 579
f 544 628 579
f 381 465 579
f 291 381 579
f 1063 1002 579
f 1021 1090 579
f 928 1021 579
f 1 41 579
f 709 790 579
f 628 709 579
f 200 291 579
f 465 544 579
