v -0.05194555596 -0.04580574483 0.1758282632
v -0.05194097757 -0.0424763374 0.1761173308
v -0.05190595984 -0.0352755338 0.1766745597
v -0.05186644569 -0.02444541827 0.1773996651
v -0.05186326429 -0.03209489956 0.1769039631
v -0.05185265467 -0.04707633331 0.1756798178
v -0.051845368 -0.01562198251 0.1778871715
v -0.05181474984 -0.006076199468 0.1783412099
v -0.05177661404 0.003813542426 0.1787638068
v -0.05174072832 0.0137229776 0.1791580617
v -0.05171049759 0.02329036221 0.1795246303
v -0.05169957876 0.04778888077 0.1693186909
v -0.05169957876 0.05504887179 0.1693186909
v -0.05169957504 0.06230886653 0.1693186909
v -0.05169117823 0.04168880358 0.1691464186
v -0.05168380216 0.03174089268 0.179833591
v -0.051672481 0.02376503311 0.1687395275
v -0.05166717991 0.03319946676 0.1689643711
v -0.05166171491 0.03901895881 0.1801009923
v -0.05164825916 0.04508276284 0.1803204566
v -0.05164825916 0.05368942395 0.1803204566
v -0.05164825544 0.06229608878 0.1803204566
v -0.05160626397 0.01382107008 0.1683951616
v -0.05158820748 0.003692460712 0.1679943651
v -0.0515242517 -0.006399608683 0.1675358862
v -0.05144916847 -0.01617543213 0.167029202
v -0.05137077346 -0.02544752508 0.1664055586
v -0.05125077069 -0.03376781195 0.1656934023
v -0.05120372772 -0.03718562797 0.1653446704
v -0.05105500296 -0.0438584201 0.1645323783
v -0.05099669471 -0.0463751927 0.1642069072
v -0.05093302578 -0.04748902842 0.1755919904
v -0.05083379149 -0.04732766375 0.1641213596
v -0.0503731668 -0.04689095914 0.1871599555
v -0.05036578327 -0.04519239068 0.1872612834
v -0.05030788854 -0.04097872972 0.1874969304
v -0.05020427331 -0.0334356539 0.1879032105
v -0.05016444623 -0.03044045158 0.1880568713
v -0.05007481202 -0.02356299199 0.1883898377
v -0.0499664098 -0.01522892714 0.1887524128
v -0.04985804856 -0.005876046605 0.189121455
v -0.0498412475 -0.04749493301 0.1641689688
v -0.04981956258 0.01421048213 0.1581540853
v -0.04978466034 0.003507331945 0.1578451544
v -0.04977218807 -0.04749942198 0.1754537821
v -0.04975854978 0.02476714365 0.1582484841
v -0.04975642264 0.003894197289 0.1894759238
v -0.04965754971 0.01359037403 0.1898060441
v -0.04964706302 -0.007082344033 0.1573188752
v -0.04960975051 0.03500293195 0.1579124182
v -0.04956593737 0.02267967165 0.1901052296
v -0.04950613528 -0.04748728499 0.1868678778
v -0.0494694747 0.03047324345 0.1904066503
v -0.04940605536 -0.01737372763 0.156579271
v -0.04937783629 0.03710518032 0.1906952262
v -0.04927685112 0.04287168011 0.1910203248
v -0.04927685112 0.05257866159 0.1910203248
v -0.04927684739 0.06228564307 0.1910203248
v -0.04920410365 0.04458483309 0.1572254151
v -0.04904142022 -0.02725074813 0.155647561
v -0.04885075614 0.05026636645 0.1566108465
v -0.04885075614 0.0562934652 0.1566108465
v -0.04885075241 0.06232056394 0.1566108465
v -0.04872121289 -0.04749817401 0.1642304212
v -0.04856869206 -0.03620753437 0.154483363
v -0.04831932113 -0.04749977961 0.1864670813
v -0.04830053076 -0.03949256614 0.1539207548
v -0.04771179706 -0.04461906105 0.1529272944
v -0.04750431702 0.003138523549 0.1488236636
v -0.0473835431 -0.0469808355 0.1525207907
v -0.04734206945 0.01457189582 0.1489137262
v -0.04723133147 -0.008024038747 0.1479743719
v -0.04680565745 0.02597356029 0.148355186
v -0.04670707509 -0.04747527093 0.1526357085
v -0.04648824036 -0.01891522482 0.1466277093
v -0.04633930326 -0.04668388888 0.1979341507
v -0.04630547762 -0.04481172562 0.1980092824
v -0.0462298952 -0.04039979354 0.1981838495
v -0.04609163105 -0.03265616298 0.1984733194
v -0.04603774846 -0.02972398885 0.1985755563
v -0.04591939226 -0.02297496609 0.1988031268
v -0.04578588158 -0.01480197813 0.1990543008
v -0.04576741159 -0.04749564454 0.1528572589
v -0.04564908147 -0.005655047949 0.1993133426
v -0.04560982063 -0.0474842675 0.1974847764
v -0.04560832307 0.03699333966 0.1464967728
v -0.04551475123 0.00395578146 0.19955948
v -0.04539958388 -0.0296630729 0.1448959708
v -0.0453909561 0.01348822098 0.1997843385
v -0.04528163746 0.0223670397 0.1999841481
v -0.04518432543 0.0299282372 0.2001574636
v -0.04517703876 0.002202362521 0.1399004608
v -0.04509274289 0.03627702594 0.2003217489
v -0.04500285536 0.04197285324 0.2004920244
v -0.04500285536 0.0521271266 0.2004920244
v -0.04500285164 0.06228140369 0.2004920244
v -0.04491885006 -0.04749926552 0.1530627161
v -0.04485523328 0.01296148635 0.1402006149
v -0.0447938107 -0.008401847444 0.1390088201
v -0.04457329214 -0.0001019587362 0.1081985533
v -0.0444930084 -0.0003927748185 0.1010000035
v -0.04448888078 -0.04749997333 0.1968330741
v -0.04361090809 -0.03876459226 0.1425726861
v -0.04360932857 0.02385530248 0.1390476972
v -0.04354331642 0.01013591047 0.1083542779
v -0.04349808395 -0.01902688295 0.1375600845
v -0.04345607013 -0.01047301013 0.1079882085
v -0.04334599152 0.01004294213 0.1010000035
v -0.04318726808 0.001260651043 0.1302306354
v -0.04317111149 0.000389363966 0.1178522035
v -0.04313156381 -0.01090889797 0.1010000035
v -0.04308980703 0.0465448834 0.14409931
v -0.0428096205 -0.04137390479 0.1419342756
v -0.04272036999 -0.008783050813 0.1294564903
v -0.04269488901 0.0008718664176 0.1252634674
v -0.04264001548 0.01122567058 0.1304965615
v -0.04253030568 -0.009577834047 0.1173238903
v -0.04228336364 0.0102146389 0.1181305945
v -0.04218456522 -0.009040222503 0.1245565191
v -0.04199266806 0.01068476774 0.1255638748
v -0.04158079997 -0.04510338604 0.1412248015
v -0.04132221639 0.03480120003 0.1366936862
v -0.041268114 -0.02957821637 0.1346458793
v -0.04102838412 0.05220871419 0.1429101825
v -0.04102838412 0.05726922676 0.1429101825
v -0.04102838039 0.06232973561 0.1429101825
v -0.04091380537 -0.04719668254 0.1410755217
v -0.04084295034 0.02111358196 0.1301194131
v -0.04069585726 -0.01876156218 0.1281417757
v -0.04001851752 -0.04665945098 0.2076102048
v -0.04001203552 -0.04748298973 0.1415119171
v -0.039993871 -0.04491910338 0.2076668143
v -0.03993019462 -0.04034177959 0.2077517062
v -0.03985135257 0.01978079416 0.1010000035
v -0.03978754207 -0.03231142089 0.2079340965
v -0.03973376378 -0.02935270779 0.2079970539
v -0.03967345878 0.0202890113 0.1253665537
v -0.0396172516 -0.02255263552 0.208137095
v -0.03959131986 -0.01884360239 0.1233149171
v -0.0394875817 -0.01441386156 0.208285436
v -0.03942329064 0.01941522397 0.108412616
v -0.03940972686 -0.04748351499 0.2070197463
v -0.03935888782 -0.005424483214 0.208436355
v -0.03924198821 0.00398612069 0.2085743099
v -0.03922488168 -0.02100254223 0.1010000035
v -0.03914584219 0.01333309244 0.2086852491
v -0.03911690041 0.04125458002 0.2087315023
v -0.03911690041 0.05176629499 0.2087315023
v -0.03911689669 0.06227801368 0.2087315023
v -0.03910670802 -0.02025675401 0.1076182127
v -0.03908212483 0.02202192694 0.2087641507
v -0.03906934336 0.03568343446 0.2087826133
v -0.03905921429 0.02941150218 0.2087903619
v -0.03900396451 -0.04749692231 0.1420088857
v -0.03873388842 0.01938843727 0.1180070639
v -0.03871466219 -0.01913947798 0.1163086966
v -0.03843832389 -0.0474999696 0.2061288655
v -0.03807682917 -0.04749974608 0.1425152868
v -0.03791562095 0.03169140592 0.1281527579
v -0.03738285974 -0.02939805388 0.1252202243
v -0.03724116087 -0.03922969848 0.1317971796
v -0.03705728799 0.04475634918 0.1349933147
v -0.03649316356 0.03035728075 0.1238155514
v -0.03567898273 -0.02943258546 0.1207349673
v -0.03549373522 -0.04199826717 0.1313309819
v -0.03483116254 0.02891402319 0.1170900017
v -0.0340401046 0.02844781801 0.1079353914
v -0.03392780945 0.02876891196 0.1010000035
v -0.03376336023 -0.02958693169 0.1144720614
v -0.03321185336 0.05063831806 0.1341565996
v -0.03321185336 0.05648031831 0.1341565996
v -0.03321184963 0.06232231855 0.1341565996
v -0.03285422921 -0.04569998384 0.1311233342
v -0.03267957643 -0.03013335727 0.1066704243
v -0.03230716661 -0.03057974577 0.1010000035
v -0.03225458041 -0.05494479835 0.1748938709
v -0.03225458041 -0.04749850929 0.1757723689
v -0.03175431862 -0.04670570791 0.2155782878
v -0.03174372017 -0.04511360824 0.215616405
v -0.03165755793 -0.04054616019 0.215692997
v -0.03157350793 -0.05494398996 0.1676206738
v -0.03157350793 -0.0474977009 0.1684991717
v -0.03153052926 -0.03221362084 0.2157960385
v -0.03148729727 -0.02918852121 0.2158294916
v -0.03146045655 -0.04746486247 0.1316536218
v -0.0313908197 -0.02221944183 0.2158925533
v -0.03132358193 0.04111947864 0.1258216202
v -0.03131306171 -0.05494503304 0.182030946
v -0.03131306171 -0.04749874398 0.1829094589
v -0.03129355982 -0.01416229457 0.2159568816
v -0.03127493709 0.04053196311 0.2160122097
v -0.03127493709 0.05140328035 0.2160122097
v -0.03127493337 0.06227459759 0.2160122097
v -0.03122906387 -0.0474845022 0.2148827016
v -0.03121904284 -0.005273382179 0.2160436064
v -0.03117440641 0.03519200906 0.2160862088
v -0.03114830703 0.003974662162 0.2161029875
v -0.03110837564 0.02905209549 0.2161300778
v -0.03110039979 0.01315754279 0.2161378413
v -0.03108303621 0.02175904252 0.216148138
v -0.03053213656 -0.04749193415 0.1323057413
v -0.03048249334 -0.0474999696 0.2138520628
v -0.03001846001 -0.03952388093 0.1225754246
v -0.02957008779 0.03924762085 0.1217126921
v -0.02952086553 -0.04749759287 0.1330764741
v -0.02910941653 -0.05494469777 0.1603835374
v -0.02910941653 -0.0474984087 0.1612620354
v -0.02883078158 -0.05494515225 0.1887485385
v -0.02883078158 -0.04749886319 0.1896270514
v -0.0285998974 -0.04749535397 0.1338087469
v -0.02758701332 0.0374083966 0.1158396155
v -0.02588585578 -0.0398090817 0.1181571856
v -0.02582919039 0.03640431911 0.1074986532
v -0.02515931241 -0.04298906028 0.1222812459
v -0.02515152842 0.03668632358 0.1010000035
v -0.02490976825 -0.05494515225 0.194772616
v -0.02490976825 -0.04749886319 0.195651114
v -0.02467550524 -0.05494500697 0.1535483599
v -0.02467550524 -0.0474987179 0.1544268578
v -0.02275580727 -0.03941395879 0.1128228679
v -0.0218665842 -0.04667867348 0.2216145396
v -0.02184344456 -0.04472075403 0.2216426432
v -0.02178920247 -0.0400354825 0.2216741741
v -0.02171837538 -0.03193352744 0.2217149734
v -0.02169942111 -0.02892033383 0.2217259854
v -0.02167605981 0.0398898311 0.221748814
v -0.02167605795 0.05108069628 0.221748814
v -0.02167605609 0.06227155775 0.221748814
v -0.02165898122 -0.02218704857 0.2217410803
v -0.02163499035 0.03461169451 0.2217639387
v -0.02163183689 -0.01415465213 0.2217611074
v -0.02160679735 -0.005303101148 0.2217723727
v -0.02160234749 0.02857528813 0.2217786908
v -0.02158740722 0.003886770224 0.2217814624
v -0.02158147655 0.02149256133 0.2217849195
v -0.02157532051 0.01294372883 0.2217853665
v -0.02152462304 -0.04748461023 0.2208691835
v -0.0214322824 -0.03900360689 0.1061063483
v -0.02140780911 -0.03898859397 0.1010000035
v -0.02097233385 -0.0474999249 0.2196397334
v -0.01998257637 -0.04655667022 0.1233067214
v -0.01975405775 -0.05494515225 0.1997775733
v -0.01975405775 -0.04749886319 0.2006560564
v -0.01853405684 -0.05494215712 0.1479061693
v -0.01853405684 -0.04749586806 0.1487846673
v -0.01832891442 -0.04748104513 0.124580346
v -0.01748596877 -0.04749399424 0.125481233
v -0.01705406606 0.05077008158 0.1249886975
v -0.0170540642 0.05654651299 0.1249886975
v -0.0170540642 0.0623229444 0.1249886975
v -0.01669368148 0.04632294923 0.1218501404
v -0.01656743139 -0.0474979952 0.1264499575
v -0.01614696905 0.0447878316 0.1195156053
v -0.01571985707 -0.04749669507 0.1273169667
v -0.01548301429 -0.04419768602 0.1179940999
v -0.01516808197 0.0432713218 0.1150243729
v -0.01397101581 0.04242163897 0.1073637232
v -0.01359107625 -0.05494512245 0.2035282254
v -0.01359107625 -0.04749883339 0.2044067085
v -0.01327573042 -0.04228713363 0.1010000035
v -0.01323617063 0.04247237742 0.1010000035
v -0.0131065473 -0.04333394393 0.1128814071
v -0.01283316221 -0.04266224802 0.1057803929
v -0.01102793217 0.02129951492 0.2252828628
v -0.01102676243 0.02834758535 0.2252840996
v -0.01102184691 0.01279382035 0.2252832353
v -0.01101812813 0.0344357267 0.2252869606
v -0.01100909803 0.003797247075 0.2252872288
v -0.01099574193 0.03984915838 0.2252953649
v -0.01099574007 0.05106026679 0.2252953649
v -0.01099573821 0.06227137148 0.2252953649
v -0.01097497251 -0.0053670872 0.2252959609
v -0.01090801693 -0.01417214423 0.2253044248
v -0.01081459131 -0.02213952504 0.2253285646
v -0.0107471738 -0.04642312974 0.2253242135
v -0.01073059719 -0.04436473548 0.2253309786
v -0.01072439365 -0.02887321822 0.2253435552
v -0.01069539506 -0.03970708326 0.2253451049
v -0.01069492381 -0.03174448013 0.2253514826
v -0.01067902334 -0.047477521 0.2245737463
v -0.01039923914 -0.04749987647 0.2231713533
v -0.01018725242 -0.05494303629 0.1436992139
v -0.01018725242 -0.04749674723 0.1445777118
v -0.006739273202 -0.05494508892 0.2058168501
v -0.00673927227 -0.04749879986 0.206695348
v -3.741588444e-07 -0.0549451746 0.1419745684
v -3.741588444e-07 -0.05494517088 0.2065482587
v -3.731111065e-07 -0.04749888554 0.1428530812
v -3.731111065e-07 -0.04749888182 0.2074267566
v -3.726454452e-07 -0.04750000685 0.1262000054
v -3.726454452e-07 -0.04750000313 0.2242999971
v -3.726454452e-07 -0.04749996215 0.1224180758
v -3.726454452e-07 -0.04749996215 0.1247534901
v -3.726454452e-07 -0.04749992117 0.1235074848
v -3.726454452e-07 -0.04749421775 0.2255175263
v -3.726454452e-07 -0.04734151438 0.1210000739
v -3.724126145e-07 -0.04640401527 0.2264533639
v -3.722961992e-07 -0.04555583745 0.1179940999
v -3.721797839e-07 -0.04479459301 0.1128814071
v -3.721797839e-07 -0.04451310262 0.1057803929
v -3.721797839e-07 -0.04449633136 0.1010000035
v -3.721797839e-07 -0.04439837113 0.2264555395
v -3.71481292e-07 -0.03970437497 0.2264573425
v -3.702007234e-07 -0.03181308135 0.226461038
v -3.698514775e-07 -0.02893189527 0.2264601737
v -3.688037396e-07 -0.0221591685 0.2264650464
v -3.676395863e-07 -0.01418726984 0.2264682651
v -3.662426025e-07 -0.005407923833 0.2264725864
v -3.648456186e-07 0.003714293474 0.2264762074
v -3.635650501e-07 0.01269469317 0.2264798284
v -3.622844815e-07 0.02117379569 0.2264830917
v -3.612367436e-07 0.02824619412 0.2264875919
v -3.603054211e-07 0.0343458131 0.2264908701
v -3.593740985e-07 0.03995727003 0.2264937162
v -3.586756066e-07 0.04450110719 0.1010000035
v -3.586756066e-07 0.04455196857 0.1074430719
v -3.586756066e-07 0.04505058378 0.115065217
v -3.584427759e-07 0.0461265929 0.1192806885
v -3.583263606e-07 0.04750289395 0.1211147308
v -3.57744284e-07 0.05111457035 0.2264937162
v -3.57744284e-07 0.05125431344 0.1224616021
v -3.569293767e-07 0.05678977072 0.1224616021
v -3.559980542e-07 0.0622718744 0.2264937162
v -3.559980542e-07 0.06232522801 0.1224616021
v 0.006738524418 -0.05494508892 0.2058168501
v 0.006738525815 -0.04749879986 0.206695348
v 0.01018650737 -0.05494303629 0.1436992139
v 0.01018650737 -0.04749674723 0.1445777118
v 0.01039849408 -0.04749987647 0.2231713533
v 0.01067827828 -0.04747752473 0.2245737463
v 0.01069418434 -0.03174448386 0.2253514826
v 0.01069465373 -0.03970708698 0.2253451049
v 0.01072365418 -0.02887322195 0.2253435552
v 0.010729854 -0.04436473921 0.2253309786
v 0.01074642874 -0.04642313346 0.2253242135
v 0.0108138537 -0.02213952877 0.2253285646
v 0.01090728305 -0.01417214703 0.2253044248
v 0.01097424049 -0.00536709046 0.2252959609
v 0.01099502295 0.03984915465 0.2252953649
v 0.01099502482 0.05106026307 0.2252953649
v 0.01099502668 0.06227136776 0.2252953649
v 0.01100836974 0.003797243815 0.2252872288
v 0.01101740915 0.03443572298 0.2252869606
v 0.01102112047 0.01279381663 0.2252832353
v 0.01102604158 0.02834758162 0.2252840996
v 0.0110272076 0.02129951119 0.2252828628
v 0.01283241902 -0.04266225174 0.1057803929
v 0.0131058041 -0.04333394766 0.1128814071
v 0.01323545352 0.04247237369 0.1010000035
v 0.01327498723 -0.04228713736 0.1010000035
v 0.01359033119 -0.05494512618 0.2035282254
v 0.01359033119 -0.04749883711 0.2044067085
v 0.01397029776 0.04242163524 0.1073637232
v 0.01516736392 0.04327131435 0.1150243729
v 0.01548227016 -0.04419769347 0.1179940999
v 0.01571911015 -0.04749670252 0.1273169667
v 0.01614625193 0.04478782415 0.1195156053
v 0.01656668633 -0.04749800265 0.1264499575
v 0.01669296436 0.04632294178 0.1218501404
v 0.01705335081 0.05077007413 0.1249886975
v 0.01705335081 0.05654650554 0.1249886975
v 0.01705335267 0.06232293695 0.1249886975
v 0.01748522371 -0.04749400169 0.125481233
v 0.01832816936 -0.04748105258 0.124580346
v 0.01853330806 -0.05494216457 0.1479061693
v 0.01853330806 -0.04749587551 0.1487846673
v 0.01975331083 -0.0549451597 0.1997775733
v 0.01975331083 -0.04749887064 0.2006560564
v 0.01998183131 -0.04655667767 0.1233067214
v 0.02097158879 -0.04749993235 0.2196397334
v 0.02140706778 -0.03898860142 0.1010000035
v 0.02143154107 -0.03900361434 0.1061063483
v 0.02152387798 -0.04748461768 0.2208691835
v 0.02157459408 0.01294372231 0.2217853665
v 0.02158075385 0.02149255387 0.2217849195
v 0.02158667706 0.003886763705 0.2217814624
v 0.02160162479 0.02857528068 0.2217786908
v 0.0216060672 -0.005303107668 0.2217723727
v 0.02163110301 -0.01415465865 0.2217611074
v 0.02163427137 0.03461168706 0.2217639387
v 0.02165824361 -0.02218705602 0.2217410803
v 0.02167534083 0.03988982365 0.221748814
v 0.02167534269 0.05108068883 0.221748814
v 0.02167534456 0.0622715503 0.221748814
v 0.0216986835 -0.02892034128 0.2217259854
v 0.02171763405 -0.03193353489 0.2217149734
v 0.02178846113 -0.04003548995 0.2216741741
v 0.0218426995 -0.04472076148 0.2216426432
v 0.02186583914 -0.04667868093 0.2216145396
v 0.02275506593 -0.03941396624 0.1128228679
v 0.02467475459 -0.05494501442 0.1535483599
v 0.02467475459 -0.04749872535 0.1544268578
v 0.02490902133 -0.0549451597 0.194772616
v 0.02490902133 -0.04749887064 0.195651114
v 0.02515080944 0.03668631613 0.1010000035
v 0.02515857108 -0.04298906773 0.1222812459
v 0.02582847141 0.03640431166 0.1074986532
v 0.02588511445 -0.03980908915 0.1181571856
v 0.02758629434 0.03740838915 0.1158396155
v 0.02859915234 -0.04749536142 0.1338087469
v 0.0288300328 -0.0549451597 0.1887485385
v 0.0288300328 -0.04749887064 0.1896270514
v 0.02910867147 -0.05494470522 0.1603835374
v 0.02910867147 -0.04749841616 0.1612620354
v 0.02952012047 -0.04749760032 0.1330764741
v 0.02956936881 0.0392476134 0.1217126921
v 0.03001771681 -0.03952388838 0.1225754246
v 0.03048174642 -0.04749997705 0.2138520628
v 0.0305313915 -0.0474919416 0.1323057413
v 0.03108231165 0.0217590332 0.216148138
v 0.03109967522 0.01315753348 0.2161378413
v 0.0311076548 0.02905208617 0.2161300778
v 0.03114757873 0.003974652849 0.2161029875
v 0.03117368557 0.03519200161 0.2160862088
v 0.03121831268 -0.005273391958 0.2160436064
v 0.03122831695 -0.04748450965 0.2148827016
v 0.03127421811 0.04053195566 0.2160122097
v 0.03127421811 0.0514032729 0.2160122097
v 0.03127422184 0.06227459013 0.2160122097
v 0.03129282221 -0.01416230388 0.2159568816
v 0.03131231293 -0.04749875143 0.1829094589
v 0.03131231666 -0.05494504049 0.182030946
v 0.03132286668 0.04111947119 0.1258216202
v 0.03139007837 -0.02221945114 0.2158925533
v 0.03145970777 -0.04746486992 0.1316536218
v 0.03148655966 -0.02918853052 0.2158294916
v 0.03152978793 -0.03221362829 0.2157960385
v 0.03157275915 -0.04749770835 0.1684991717
v 0.03157276288 -0.05494399741 0.1676206738
v 0.03165681288 -0.04054616764 0.215692997
v 0.03174297512 -0.04511361569 0.215616405
v 0.03175357357 -0.04670571536 0.2155782878
v 0.03225383162 -0.04749851674 0.1757723689
v 0.03225383535 -0.0549448058 0.1748938709
v 0.032306429 -0.03057975508 0.1010000035
v 0.03267883882 -0.03013336845 0.1066704243
v 0.03285348415 -0.04569999129 0.1311233342
v 0.0332111381 0.05063831061 0.1341565996
v 0.0332111381 0.05648031086 0.1341565996
v 0.03321114182 0.0623223111 0.1341565996
v 0.03376262262 -0.02958694287 0.1144720614
v 0.03392708674 0.02876890078 0.1010000035
v 0.03403938189 0.02844780684 0.1079353914
v 0.03483043984 0.02891401201 0.1170900017
v 0.03549299017 -0.04199827835 0.1313309819
v 0.03567824513 -0.02943259664 0.1207349673
v 0.03649244085 0.03035726957 0.1238155514
v 0.03705657274 0.044756338 0.1349933147
v 0.03724041581 -0.03922970966 0.1317971796
v 0.03738212213 -0.02939806506 0.1252202243
v 0.03791489825 0.03169139475 0.1281527579
v 0.03807608411 -0.04749975726 0.1425152868
v 0.03843757883 -0.04749998078 0.2061288655
v 0.03871392459 -0.01913948916 0.1163086966
v 0.03873316571 0.0193884261 0.1180070639
v 0.03900321946 -0.04749693722 0.1420088857
v 0.03905849159 0.02941149101 0.2087903619
v 0.03906862065 0.03568341956 0.2087826133
v 0.03908140212 0.02202191576 0.2087641507
v 0.03910597041 -0.02025676519 0.1076182127
v 0.03911618516 0.04125456512 0.2087315023
v 0.03911618516 0.05176628008 0.2087315023
v 0.03911618888 0.06227799878 0.2087315023
v 0.03914511949 0.01333308034 0.2086852491
v 0.03922414407 -0.0210025534 0.1010000035
v 0.03924125805 0.003986108582 0.2085743099
v 0.03935815766 -0.005424494855 0.208436355
v 0.0394089818 -0.0474835299 0.2070197463
v 0.03942256793 0.0194152128 0.108412616
v 0.03948684409 -0.01441387367 0.208285436
v 0.03959058225 -0.01884361356 0.1233149171
v 0.039616514 -0.0225526467 0.208137095
v 0.03967273608 0.02028900012 0.1253665537
v 0.03973302618 -0.02935271896 0.2079970539
v 0.03978680447 -0.03231143579 0.2079340965
v 0.03985062987 0.01978078298 0.1010000035
v 0.03992944956 -0.04034179449 0.2077517062
v 0.03999312595 -0.04491911829 0.2076668143
v 0.04001129046 -0.04748300463 0.1415119171
v 0.04001777247 -0.04665946588 0.2076102048
v 0.04069511965 -0.01876157336 0.1281417757
v 0.04084222764 0.02111357078 0.1301194131
v 0.04091306031 -0.04719669744 0.1410755217
v 0.04102766886 0.05220869929 0.1429101825
v 0.04102766886 0.05726921186 0.1429101825
v 0.04102767259 0.06232972071 0.1429101825
v 0.04126737639 -0.02957822755 0.1346458793
v 0.04132149369 0.03480118513 0.1366936862
v 0.04158005491 -0.04510340095 0.1412248015
v 0.04199193791 0.0106847547 0.1255638748
v 0.04218383506 -0.009040235542 0.1245565191
v 0.04228263348 0.01021462586 0.1181305945
v 0.04252957553 -0.009577847086 0.1173238903
v 0.04263928533 0.01122565754 0.1304965615
v 0.04269415885 0.0008718535537 0.1252634674
v 0.04271963984 -0.008783063851 0.1294564903
v 0.04280887544 -0.0413739197 0.1419342756
v 0.04308909178 0.0465448685 0.14409931
v 0.04313083366 -0.010908911 0.1010000035
v 0.04317038134 0.0003893509274 0.1178522035
v 0.04318653792 0.001260638004 0.1302306354
v 0.04334526137 0.01004292909 0.1010000035
v 0.04345533997 -0.01047302317 0.1079882085
v 0.04349734634 -0.01902689599 0.1375600845
v 0.04354258627 0.01013589744 0.1083542779
v 0.04360860586 0.02385528944 0.1390476972
v 0.04361016303 -0.03876460716 0.1425726861
v 0.04448813573 -0.04749998823 0.1968330741
v 0.04449227825 -0.0003927882644 0.1010000035
v 0.04457256198 -0.0001019721967 0.1081985533
v 0.04479308054 -0.008401861414 0.1390088201
v 0.04485451058 0.01296147238 0.1402006149
v 0.04491810501 -0.04749928042 0.1530627161
v 0.0450021401 0.04197283834 0.2004920244
v 0.0450021401 0.0521271117 0.2004920244
v 0.04500214383 0.06228138879 0.2004920244
v 0.04509202018 0.03627701104 0.2003217489
v 0.0451763086 0.002202349016 0.1399004608
v 0.04518360272 0.0299282223 0.2001574636
v 0.04528091475 0.02236702479 0.1999841481
v 0.0453902334 0.01348820701 0.1997843385
v 0.04539884627 -0.0296630878 0.1448959708
v 0.04551402107 0.00395576749 0.19955948
v 0.04560760036 0.03699332476 0.1464967728
v 0.04560907558 -0.0474842824 0.1974847764
v 0.04564835131 -0.005655061454 0.1993133426
v 0.04576666653 -0.04749565944 0.1528572589
v 0.04578514397 -0.0148019921 0.1990543008
v 0.04591865465 -0.022974981 0.1988031268
v 0.04603701085 -0.02972400375 0.1985755563
v 0.04609089345 -0.03265617788 0.1984733194
v 0.04622915015 -0.04039980844 0.1981838495
v 0.04630473256 -0.04481174052 0.1980092824
v 0.0463385582 -0.04668390378 0.1979341507
v 0.04648750275 -0.01891523972 0.1466277093
v 0.04670633003 -0.04747528583 0.1526357085
v 0.04680493474 0.02597354539 0.148355186
v 0.04723060131 -0.008024052717 0.1479743719
v 0.04734134674 0.01457188185 0.1489137262
v 0.04738279805 -0.0469808504 0.1525207907
v 0.04750358686 0.003138509113 0.1488236636
v 0.047711052 -0.04461907595 0.1529272944
v 0.0482997857 -0.03949258104 0.1539207548
v 0.04831857607 -0.04749979451 0.1864670813
v 0.04856795445 -0.03620754927 0.154483363
v 0.04872046784 -0.04749818891 0.1642304212
v 0.04885004088 0.05026635155 0.1566108465
v 0.04885004088 0.0562934503 0.1566108465
v 0.04885004461 0.06232054904 0.1566108465
v 0.04904068261 -0.02725076303 0.155647561
v 0.04920338839 0.04458481818 0.1572254151
v 0.04927613586 0.04287166521 0.1910203248
v 0.04927613586 0.05257864669 0.1910203248
v 0.04927613959 0.06228562817 0.1910203248
v 0.04937711358 0.03710516542 0.1906952262
v 0.04940531775 -0.01737374254 0.156579271
v 0.049468752 0.03047322854 0.1904066503
v 0.04950539023 -0.04748729989 0.1868678778
v 0.04956521466 0.02267965674 0.1901052296
v 0.0496090278 0.03500291705 0.1579124182
v 0.04964633286 -0.0070823594 0.1573188752
v 0.049656827 0.01359035913 0.1898060441
v 0.04975569248 0.003894182388 0.1894759238
v 0.04975782707 0.02476712875 0.1582484841
v 0.04977144301 -0.04749943689 0.1754537821
v 0.04978393018 0.003507317044 0.1578451544
v 0.04981883988 0.01421046723 0.1581540853
v 0.04984050244 -0.04749494791 0.1641689688
v 0.0498573184 -0.005876061972 0.189121455
v 0.04996567219 -0.01522894204 0.1887524128
v 0.05007407442 -0.02356300689 0.1883898377
v 0.05016370863 -0.03044046648 0.1880568713
v 0.05020353571 -0.0334356688 0.1879032105
v 0.05030714348 -0.04097874463 0.1874969304
v 0.05036503822 -0.04519240558 0.1872612834
v 0.05037242174 -0.04689097404 0.1871599555
v 0.05083304644 -0.04732767865 0.1641213596
v 0.05093228072 -0.04748904333 0.1755919904
v 0.05099594966 -0.0463752076 0.1642069072
v 0.0510542579 -0.043858435 0.1645323783
v 0.05120298266 -0.03718564287 0.1653446704
v 0.05125003308 -0.03376782686 0.1656934023
v 0.05137003586 -0.02544753999 0.1664055586
v 0.05144843087 -0.01617544703 0.167029202
v 0.05152352154 -0.00639962405 0.1675358862
v 0.05158747733 0.003692445112 0.1679943651
v 0.05160554126 0.01382105425 0.1683951616
v 0.05164754391 0.04508274794 0.1803204566
v 0.05164754391 0.05368940905 0.1803204566
v 0.05164754763 0.06229607388 0.1803204566
v 0.05166099966 0.03901894391 0.1801009923
v 0.05166645721 0.03319945186 0.1689643711
v 0.05167175829 0.02376501821 0.1687395275
v 0.05168307945 0.03174087778 0.179833591
v 0.05169046298 0.04168878868 0.1691464186
v 0.05169886351 0.04778886586 0.1693186909
v 0.05169886351 0.05504885688 0.1693186909
v 0.05169886723 0.06230885163 0.1693186909
v 0.05170977488 0.02329034731 0.1795246303
v 0.05174000561 0.01372296177 0.1791580617
v 0.05177588388 0.003813526826 0.1787638068
v 0.05181401968 -0.006076214835 0.1783412099
v 0.05184463039 -0.01562199742 0.1778871715
v 0.05185190961 -0.04707634822 0.1756798178
v 0.05186252668 -0.03209491447 0.1769039631
v 0.05186570808 -0.02444543317 0.1773996651
v 0.05190522224 -0.0352755487 0.1766745597
v 0.05194023252 -0.0424763523 0.1761173308
v 0.0519448109 -0.04580575973 0.1758282632
f 355 348 390
f 390 398 355
f 355 369 296
f 296 298 355
f 355 298 299
f 299 348 355
f 423 359 360
f 360 438 423
f 339 343 380
f 380 382 339
f 314 313 343
f 343 339 314
f 313 312 345
f 345 343 313
f 311 346 345
f 345 312 311
f 377 380 343
f 343 345 377
f 414 417 382
f 382 380 414
f 310 344 346
f 346 311 310
f 344 374 375
f 375 346 344
f 375 377 345
f 345 346 375
f 410 412 377
f 377 375 410
f 412 414 380
f 380 377 412
f 457 458 414
f 414 412 457
f 458 461 417
f 417 414 458
f 517 514 461
f 461 458 517
f 517 555 552
f 552 514 517
f 555 591 588
f 588 552 555
f 591 595 596
f 596 588 591
f 551 547 596
f 596 595 551
f 595 592 560
f 560 551 595
f 591 594 592
f 592 595 591
f 594 599 593
f 593 592 594
f 557 559 599
f 599 594 557
f 559 562 600
f 600 599 559
f 559 557 519
f 519 520 559
f 520 521 562
f 562 559 520
f 521 523 563
f 563 562 521
f 521 520 459
f 459 464 521
f 464 466 523
f 523 521 464
f 466 467 526
f 526 523 466
f 466 464 411
f 411 413 466
f 413 415 467
f 467 466 413
f 415 420 470
f 470 467 415
f 415 413 376
f 376 378 415
f 378 379 420
f 420 415 378
f 379 381 424
f 424 420 379
f 379 378 338
f 338 337 379
f 337 336 381
f 381 379 337
f 336 333 385
f 385 381 336
f 336 337 307
f 307 306 336
f 306 305 333
f 333 336 306
f 305 304 331
f 331 333 305
f 303 332 331
f 331 304 303
f 332 387 386
f 386 331 332
f 331 386 385
f 385 333 331
f 385 426 424
f 424 381 385
f 424 472 470
f 470 420 424
f 470 528 526
f 526 467 470
f 526 569 563
f 563 523 526
f 563 601 600
f 600 562 563
f 600 587 593
f 593 599 600
f 593 564 560
f 560 592 593
f 560 524 498
f 498 551 560
f 498 484 547
f 547 551 498
f 498 448 438
f 438 484 498
f 309 342 344
f 344 310 309
f 342 376 374
f 374 344 342
f 374 411 410
f 410 375 374
f 410 459 457
f 457 412 410
f 457 519 517
f 517 458 457
f 519 557 555
f 555 517 519
f 557 594 591
f 591 555 557
f 519 457 459
f 459 520 519
f 459 410 411
f 411 464 459
f 411 374 376
f 376 413 411
f 376 342 338
f 338 378 376
f 308 307 337
f 337 338 308
f 302 334 332
f 332 303 302
f 334 388 387
f 387 332 334
f 386 387 430
f 430 427 386
f 427 426 385
f 385 386 427
f 426 427 475
f 475 474 426
f 426 474 472
f 472 424 426
f 472 529 528
f 528 470 472
f 528 570 569
f 569 526 528
f 569 602 601
f 601 563 569
f 601 586 587
f 587 600 601
f 587 567 564
f 564 593 587
f 564 537 524
f 524 560 564
f 488 448 498
f 498 524 488
f 488 451 423
f 423 448 488
f 423 451 447
f 447 406 423
f 423 406 357
f 357 359 423
f 319 321 360
f 360 359 319
f 308 338 342
f 342 309 308
f 302 297 335
f 335 334 302
f 334 335 389
f 389 388 334
f 431 430 387
f 387 388 431
f 477 475 427
f 427 430 477
f 477 532 531
f 531 475 477
f 475 531 530
f 530 474 475
f 530 529 472
f 472 474 530
f 572 571 529
f 529 530 572
f 571 570 528
f 528 529 571
f 606 603 570
f 570 571 606
f 603 602 569
f 569 570 603
f 584 585 602
f 602 603 584
f 585 586 601
f 601 602 585
f 561 566 586
f 586 585 561
f 566 567 587
f 587 586 566
f 541 539 567
f 567 566 541
f 539 537 564
f 564 567 539
f 512 506 537
f 537 539 512
f 506 488 524
f 524 537 506
f 482 451 488
f 488 506 482
f 482 473 447
f 447 451 482
f 447 473 455
f 455 444 447
f 447 444 399
f 399 406 447
f 399 354 357
f 357 406 399
f 354 317 318
f 318 357 354
f 318 319 359
f 359 357 318
f 295 291 329
f 329 330 295
f 295 330 335
f 335 297 295
f 330 329 370
f 370 373 330
f 330 373 389
f 389 335 330
f 373 370 408
f 408 416 373
f 373 416 432
f 432 389 373
f 432 431 388
f 388 389 432
f 431 432 480
f 480 478 431
f 431 478 477
f 477 430 431
f 531 532 574
f 574 573 531
f 573 572 530
f 530 531 573
f 572 573 607
f 607 605 572
f 572 605 606
f 606 571 572
f 606 583 584
f 584 603 606
f 584 556 561
f 561 585 584
f 561 538 541
f 541 566 561
f 541 518 512
f 512 539 541
f 512 494 482
f 482 506 512
f 494 490 473
f 473 482 494
f 490 492 455
f 455 473 490
f 469 443 444
f 444 455 469
f 443 397 399
f 399 444 443
f 397 353 354
f 354 399 397
f 353 316 317
f 317 354 353
f 408 453 468
f 468 416 408
f 468 480 432
f 432 416 468
f 480 468 525
f 525 534 480
f 480 534 533
f 533 478 480
f 533 532 477
f 477 478 533
f 575 574 532
f 532 533 575
f 608 607 573
f 573 574 608
f 608 580 581
f 581 607 608
f 607 581 582
f 582 605 607
f 582 583 606
f 606 605 582
f 545 550 583
f 583 582 545
f 550 556 584
f 584 583 550
f 522 535 556
f 556 550 522
f 535 538 561
f 561 556 535
f 504 511 538
f 538 535 504
f 511 518 541
f 541 538 511
f 496 501 518
f 518 511 496
f 501 494 512
f 512 518 501
f 495 490 494
f 494 501 495
f 495 500 492
f 492 490 495
f 500 510 505
f 505 492 500
f 492 505 469
f 469 455 492
f 469 505 502
f 502 476 469
f 476 442 443
f 443 469 476
f 442 395 397
f 397 443 442
f 395 349 353
f 353 397 395
f 349 315 316
f 316 353 349
f 508 525 468
f 468 453 508
f 525 508 544
f 544 558 525
f 525 558 576
f 576 534 525
f 576 575 533
f 533 534 576
f 575 576 604
f 604 609 575
f 575 609 608
f 608 574 575
f 581 580 542
f 542 543 581
f 543 545 582
f 582 581 543
f 545 543 497
f 497 507 545
f 545 507 522
f 522 550 545
f 522 487 504
f 504 535 522
f 504 481 496
f 496 511 504
f 496 481 471
f 471 491 496
f 496 491 495
f 495 501 496
f 493 500 495
f 495 491 493
f 493 503 510
f 510 500 493
f 509 502 505
f 505 510 509
f 503 460 465
f 465 499 503
f 460 436 435
f 435 465 460
f 454 441 436
f 436 460 454
f 441 390 372
f 372 436 441
f 446 398 390
f 390 441 446
f 446 450 407
f 407 398 446
f 407 396 355
f 355 398 407
f 407 449 445
f 445 396 407
f 445 437 369
f 369 396 445
f 497 489 437
f 437 445 497
f 489 483 425
f 425 437 489
f 542 540 483
f 483 489 542
f 540 536 479
f 479 483 540
f 540 579 577
f 577 536 540
f 577 568 527
f 527 536 577
f 568 577 604
f 604 578 568
f 578 565 546
f 546 568 578
f 513 452 456
f 456 527 513
f 513 527 568
f 568 546 513
f 456 479 536
f 536 527 456
f 479 456 405
f 405 409 479
f 479 409 425
f 425 483 479
f 425 364 369
f 369 437 425
f 348 347 372
f 372 390 348
f 372 371 435
f 435 436 372
f 372 347 350
f 350 371 372
f 347 300 301
f 301 350 347
f 544 565 578
f 578 558 544
f 578 604 576
f 576 558 578
f 604 577 579
f 579 609 604
f 579 580 608
f 608 609 579
f 579 540 542
f 542 580 579
f 542 489 497
f 497 543 542
f 497 445 449
f 449 507 497
f 449 487 522
f 522 507 449
f 449 407 450
f 450 487 449
f 450 481 504
f 504 487 450
f 446 471 481
f 481 450 446
f 471 446 441
f 441 454 471
f 471 454 493
f 493 491 471
f 460 503 493
f 493 454 460
f 400 405 456
f 456 452 400
f 405 400 356
f 356 358 405
f 405 358 363
f 363 409 405
f 363 364 425
f 425 409 363
f 364 363 294
f 294 292 364
f 364 292 296
f 296 369 364
f 356 290 293
f 293 358 356
f 293 294 363
f 363 358 293
f 499 509 510
f 510 503 499
f 347 348 299
f 299 300 347
f 212 220 262
f 262 255 212
f 296 241 255
f 255 298 296
f 262 299 298
f 298 255 262
f 162 170 187
f 226 230 267
f 267 269 226
f 267 313 314
f 314 269 267
f 265 312 313
f 313 267 265
f 312 265 264
f 264 311 312
f 233 235 264
f 264 265 233
f 233 265 267
f 267 230 233
f 196 198 233
f 233 230 196
f 230 226 191
f 191 196 230
f 147 152 196
f 196 191 147
f 311 264 266
f 266 310 311
f 264 235 236
f 236 266 264
f 233 198 200
f 200 235 233
f 196 152 153
f 153 198 196
f 147 94 93
f 93 152 147
f 56 55 93
f 93 94 56
f 20 19 55
f 55 56 20
f 12 15 19
f 19 20 12
f 59 15 12
f 12 61 59
f 59 50 18
f 18 15 59
f 18 16 19
f 19 15 18
f 18 17 11
f 11 16 18
f 53 55 19
f 19 16 53
f 11 51 53
f 53 16 11
f 11 10 48
f 48 51 11
f 90 91 53
f 53 51 90
f 48 89 90
f 90 51 48
f 48 47 87
f 87 89 48
f 146 151 90
f 90 89 146
f 87 144 146
f 146 89 87
f 87 84 143
f 143 144 87
f 197 199 146
f 146 144 197
f 143 195 197
f 197 144 143
f 143 140 190
f 190 195 143
f 232 234 197
f 197 195 232
f 190 231 232
f 232 195 190
f 190 186 229
f 229 231 190
f 273 272 232
f 232 231 273
f 229 274 273
f 273 231 229
f 229 225 277
f 277 274 229
f 307 273 274
f 274 306 307
f 305 306 274
f 274 277 305
f 277 279 304
f 304 305 277
f 304 279 278
f 278 303 304
f 224 223 278
f 278 279 224
f 277 225 224
f 224 279 277
f 229 186 184
f 184 225 229
f 190 140 138
f 138 186 190
f 143 84 82
f 82 140 143
f 87 47 41
f 41 84 87
f 48 10 9
f 9 47 48
f 11 17 23
f 23 10 11
f 18 50 46
f 46 17 18
f 59 112 86
f 86 50 59
f 124 112 59
f 59 61 124
f 112 124 170
f 170 162 112
f 310 266 268
f 268 309 310
f 266 236 234
f 234 268 266
f 199 197 234
f 234 236 199
f 236 235 200
f 200 199 236
f 151 146 199
f 199 200 151
f 200 198 153
f 153 151 200
f 91 90 151
f 151 153 91
f 153 152 93
f 93 91 153
f 55 53 91
f 91 93 55
f 234 232 272
f 272 268 234
f 272 273 307
f 307 308 272
f 278 276 302
f 302 303 278
f 223 222 276
f 276 278 223
f 224 183 180
f 180 223 224
f 184 183 224
f 224 225 184
f 136 135 183
f 183 184 136
f 184 186 138
f 138 136 184
f 81 80 136
f 136 138 81
f 138 140 82
f 82 81 138
f 40 39 81
f 81 82 40
f 82 84 41
f 41 40 82
f 8 7 40
f 40 41 8
f 41 47 9
f 9 8 41
f 24 25 8
f 8 9 24
f 9 10 23
f 23 24 9
f 43 44 24
f 24 23 43
f 23 17 46
f 46 43 23
f 73 71 43
f 43 46 73
f 46 50 86
f 86 73 46
f 122 104 73
f 73 86 122
f 122 86 112
f 112 162 122
f 162 187 159
f 159 122 162
f 204 163 159
f 159 187 204
f 253 204 187
f 187 251 253
f 251 248 321
f 321 319 251
f 309 268 272
f 272 308 309
f 276 275 297
f 297 302 276
f 221 275 276
f 276 222 221
f 223 180 179
f 179 222 223
f 180 183 135
f 135 133 180
f 79 78 133
f 133 135 79
f 136 80 79
f 79 135 136
f 81 39 38
f 38 80 81
f 40 7 4
f 4 39 40
f 8 25 26
f 26 7 8
f 24 44 49
f 49 25 24
f 43 71 69
f 69 44 43
f 73 104 98
f 98 71 73
f 122 159 128
f 128 104 122
f 137 128 159
f 159 163 137
f 166 155 137
f 137 163 166
f 211 166 163
f 163 204 211
f 204 253 256
f 256 211 204
f 318 317 256
f 256 253 318
f 318 253 251
f 251 319 318
f 280 281 291
f 291 295 280
f 297 275 280
f 280 295 297
f 240 281 280
f 280 237 240
f 221 237 280
f 280 275 221
f 194 202 240
f 240 237 194
f 221 178 194
f 194 237 221
f 179 178 221
f 221 222 179
f 132 130 178
f 178 179 132
f 179 180 133
f 133 132 179
f 78 77 132
f 132 133 78
f 79 37 36
f 36 78 79
f 38 37 79
f 79 80 38
f 5 3 37
f 37 38 5
f 38 39 4
f 4 5 38
f 27 28 5
f 5 4 27
f 4 7 26
f 26 27 4
f 54 60 27
f 27 26 54
f 26 25 49
f 49 54 26
f 72 75 54
f 54 49 72
f 49 44 69
f 69 72 49
f 92 99 72
f 72 69 92
f 69 71 98
f 98 92 69
f 116 109 92
f 92 98 116
f 98 104 128
f 128 116 98
f 120 116 128
f 128 137 120
f 118 120 137
f 137 155 118
f 141 155 166
f 166 167 141
f 166 211 213
f 213 167 166
f 211 256 257
f 257 213 211
f 256 317 316
f 316 257 256
f 194 142 157
f 157 202 194
f 130 142 194
f 194 178 130
f 76 85 142
f 142 130 76
f 132 77 76
f 76 130 132
f 78 36 35
f 35 77 78
f 36 37 3
f 3 2 36
f 29 30 2
f 2 3 29
f 5 28 29
f 29 3 5
f 27 60 65
f 65 28 27
f 54 75 88
f 88 60 54
f 72 99 106
f 106 75 72
f 92 109 114
f 114 99 92
f 115 109 116
f 116 120 115
f 110 115 120
f 120 118 110
f 105 100 110
f 110 118 105
f 141 105 118
f 118 155 141
f 134 108 105
f 105 141 134
f 168 134 141
f 141 167 168
f 167 213 215
f 215 168 167
f 213 257 261
f 261 215 213
f 257 316 315
f 315 261 257
f 85 102 157
f 157 142 85
f 52 66 102
f 102 85 52
f 76 34 52
f 52 85 76
f 35 34 76
f 76 77 35
f 1 6 34
f 34 35 1
f 35 36 2
f 2 1 35
f 30 31 1
f 1 2 30
f 29 67 68
f 68 30 29
f 65 67 29
f 29 28 65
f 103 113 67
f 67 65 103
f 65 60 88
f 88 103 65
f 123 161 103
f 103 88 123
f 88 75 106
f 106 123 88
f 129 160 123
f 123 106 129
f 106 99 114
f 114 129 106
f 119 139 129
f 129 114 119
f 115 119 114
f 114 109 115
f 117 119 115
f 115 110 117
f 107 117 110
f 110 100 107
f 100 105 108
f 108 101 100
f 107 111 145
f 145 150 107
f 175 174 150
f 150 145 175
f 156 150 174
f 174 169 156
f 174 238 220
f 220 169 174
f 164 169 220
f 220 212 164
f 160 164 212
f 212 203 160
f 212 255 214
f 214 203 212
f 161 123 160
f 160 203 161
f 214 165 161
f 161 203 214
f 173 165 214
f 214 241 173
f 173 121 113
f 113 165 173
f 173 185 127
f 127 121 173
f 68 67 113
f 113 121 68
f 127 70 68
f 68 121 127
f 127 131 74
f 74 70 127
f 31 30 68
f 68 70 31
f 74 33 31
f 31 70 74
f 74 83 42
f 42 33 74
f 32 6 33
f 33 42 32
f 64 45 32
f 32 42 64
f 154 158 97
f 97 83 154
f 64 42 83
f 83 97 64
f 154 83 74
f 74 131 154
f 201 205 154
f 154 131 201
f 127 185 201
f 201 131 127
f 173 241 246
f 246 185 173
f 220 238 263
f 263 262 220
f 238 174 175
f 175 239 238
f 239 260 263
f 263 238 239
f 260 301 300
f 300 263 260
f 52 32 45
f 45 66 52
f 6 32 52
f 52 34 6
f 31 33 6
f 6 1 31
f 161 165 113
f 113 103 161
f 160 129 139
f 139 164 160
f 156 169 164
f 164 139 156
f 117 156 139
f 139 119 117
f 156 117 107
f 107 150 156
f 205 210 158
f 158 154 205
f 252 254 210
f 210 205 252
f 201 247 252
f 252 205 201
f 246 247 201
f 201 185 246
f 292 294 247
f 247 246 292
f 246 241 296
f 296 292 246
f 252 293 290
f 290 254 252
f 294 293 252
f 252 247 294
f 101 111 107
f 107 100 101
f 300 299 262
f 262 263 300
f 329 291 289
f 289 326 329
f 370 329 326
f 326 352 370
f 453 408 368
f 368 394 453
f 546 565 433
f 433 428 546
f 452 513 404
f 404 392 452
f 290 356 328
f 328 288 290
f 291 281 285
f 285 289 291
f 240 259 285
f 285 281 240
f 202 243 259
f 259 240 202
f 66 189 209
f 209 102 66
f 45 64 182
f 182 177 45
f 254 283 245
f 245 210 254
f 408 370 352
f 352 368 408
f 508 453 394
f 394 402 508
f 544 421 433
f 433 565 544
f 513 546 428
f 428 404 513
f 544 508 402
f 402 421 544
f 400 452 392
f 392 366 400
f 356 400 366
f 366 328 356
f 157 217 243
f 243 202 157
f 102 209 217
f 217 157 102
f 64 97 207
f 207 182 64
f 97 158 219
f 219 207 97
f 45 177 189
f 189 66 45
f 210 245 219
f 219 158 210
f 290 288 283
f 283 254 290
f 326 289 287
f 287 325 326
f 352 326 325
f 325 351 352
f 394 368 367
f 367 393 394
f 428 433 434
f 434 429 428
f 392 404 403
f 403 391 392
f 288 328 327
f 327 286 288
f 289 285 284
f 284 287 289
f 285 259 258
f 258 284 285
f 259 243 242
f 242 258 259
f 209 189 188
f 188 208 209
f 177 182 181
f 181 176 177
f 245 283 282
f 282 244 245
f 368 352 351
f 351 367 368
f 402 394 393
f 393 401 402
f 433 421 422
f 422 434 433
f 404 428 429
f 429 403 404
f 421 402 401
f 401 422 421
f 366 392 391
f 391 365 366
f 328 366 365
f 365 327 328
f 243 217 216
f 216 242 243
f 217 209 208
f 208 216 217
f 182 207 206
f 206 181 182
f 207 219 218
f 218 206 207
f 189 177 176
f 176 188 189
f 219 245 244
f 244 218 219
f 283 288 286
f 286 282 283
f 287 284 258
f 258 242 216
f 216 208 188
f 258 216 188
f 188 176 181
f 181 206 218
f 188 181 218
f 218 244 282
f 188 218 282
f 258 188 282
f 287 258 282
f 287 282 286
f 327 365 391
f 391 403 429
f 327 391 429
f 429 434 422
f 422 401 393
f 429 422 393
f 393 367 351
f 429 393 351
f 327 429 351
f 327 351 325
f 286 327 325
f 287 286 325
f 360 361 439
f 439 438 360
f 461 462 418
f 418 417 461
f 514 515 462
f 462 461 514
f 552 553 515
f 515 514 552
f 588 589 553
f 553 552 588
f 596 597 589
f 589 588 596
f 438 439 485
f 485 484 438
f 314 320 270
f 270 269 314
f 191 226 227
f 227 192 191
f 94 147 148
f 148 95 94
f 56 94 95
f 95 57 56
f 20 56 57
f 57 21 20
f 12 20 21
f 21 13 12
f 124 125 171
f 171 170 124
f 484 485 548
f 548 547 484
f 417 418 383
f 383 382 417
f 382 383 340
f 340 339 382
f 314 339 340
f 340 320 314
f 547 548 597
f 597 596 547
f 321 322 361
f 361 360 321
f 12 13 62
f 62 61 12
f 124 61 62
f 62 125 124
f 269 270 227
f 227 226 269
f 147 191 192
f 192 148 147
f 170 171 249
f 249 248 170
f 248 249 322
f 322 321 248
f 324 250 172
f 172 126 63
f 63 14 22
f 172 63 22
f 22 58 96
f 96 149 193
f 22 96 193
f 172 22 193
f 193 228 271
f 271 323 341
f 193 271 341
f 341 384 419
f 419 463 516
f 341 419 516
f 193 341 516
f 516 554 590
f 590 598 549
f 516 590 549
f 193 516 549
f 172 193 549
f 549 486 440
f 172 549 440
f 324 172 440
f 362 324 440
f 361 362 440
f 440 439 361
f 463 419 418
f 418 462 463
f 516 463 462
f 462 515 516
f 554 516 515
f 515 553 554
f 590 554 553
f 553 589 590
f 598 590 589
f 589 597 598
f 440 486 485
f 485 439 440
f 323 271 270
f 270 320 323
f 228 193 192
f 192 227 228
f 149 96 95
f 95 148 149
f 96 58 57
f 57 95 96
f 58 22 21
f 21 57 58
f 22 14 13
f 13 21 22
f 126 172 171
f 171 125 126
f 486 549 548
f 548 485 486
f 419 384 383
f 383 418 419
f 383 384 341
f 341 340 383
f 341 323 320
f 320 340 341
f 548 549 598
f 598 597 548
f 324 362 361
f 361 322 324
f 14 63 62
f 62 13 14
f 63 126 125
f 125 62 63
f 271 228 227
f 227 270 271
f 193 149 148
f 148 192 193
f 171 172 250
f 250 249 171
f 250 324 322
f 322 249 250
f 509 499 465
f 465 435 371
f 371 350 301
f 301 260 239
f 371 301 239
f 465 371 239
f 239 175 145
f 145 111 101
f 239 145 101
f 465 239 101
f 101 108 134
f 134 168 215
f 101 134 215
f 215 261 315
f 315 349 395
f 215 315 395
f 101 215 395
f 465 101 395
f 395 442 476
f 465 395 476
f 509 465 476
f 502 509 476
f 248 251 187
f 187 170 248
f 438 448 423
f 355 396 369
f 241 214 255
