v -0.05194483697 0.04580572993 0.1758282632
v -0.05194025859 0.0424763225 0.1761173308
v -0.05190524086 0.03527551889 0.1766745597
v -0.05186572298 0.02444540523 0.1773996651
v -0.05186254531 0.03209488466 0.1769039631
v -0.05185193568 0.04707631841 0.1756798178
v -0.05184464157 0.01562196855 0.1778871715
v -0.05181402341 0.006076185964 0.1783412099
v -0.05177588388 -0.003813556163 0.1787638068
v -0.05173999444 -0.01372299064 0.1791580617
v -0.05170975998 -0.02329037525 0.1795246303
v -0.05169883743 -0.04778889567 0.1693186909
v -0.0516988337 -0.05504888669 0.1693186909
v -0.05169882998 -0.06230888143 0.1693186909
v -0.0516904369 -0.04168881848 0.1691464186
v -0.05168306082 -0.03174090758 0.179833591
v -0.05167174339 -0.02376504615 0.1687395275
v -0.05166643858 -0.03319948167 0.1689643711
v -0.0516609773 -0.03901897371 0.1801009923
v -0.05164751783 -0.04508277774 0.1803204566
v -0.0516475141 -0.05368943885 0.1803204566
v -0.05164751038 -0.06229610369 0.1803204566
v -0.05160553008 -0.01382108312 0.1683951616
v -0.05158747733 -0.003692474449 0.1679943651
v -0.05152352527 0.006399595179 0.1675358862
v -0.05144844204 0.01617541909 0.167029202
v -0.05137005076 0.02544751205 0.1664055586
v -0.05125005171 0.03376780078 0.1656934023
v -0.05120300502 0.03718561679 0.1653446704
v -0.05105428398 0.04385840893 0.1645323783
v -0.05099597573 0.04637518153 0.1642069072
v -0.0509323068 0.04748901725 0.1755919904
v -0.05083307251 0.04732765257 0.1641213596
v -0.05037244782 0.04689094797 0.1871599555
v -0.05036506429 0.0451923795 0.1872612834
v -0.05030716956 0.04097871855 0.1874969304
v -0.05020355433 0.03343564272 0.1879032105
v -0.05016372353 0.03044043854 0.1880568713
v -0.05007408932 0.02356297895 0.1883898377
v -0.04996568337 0.0152289141 0.1887524128
v -0.04985732213 0.005876033567 0.189121455
v -0.04984052852 0.04749492183 0.1641689688
v -0.0498188287 -0.01421049517 0.1581540853
v -0.04978393018 -0.003507345216 0.1578451544
v -0.04977146909 0.04749941081 0.1754537821
v -0.04975781217 -0.02476715669 0.1582484841
v -0.04975569248 -0.00389421056 0.1894759238
v -0.04965681955 -0.01359038707 0.1898060441
v -0.04964633659 0.007082330994 0.1573188752
v -0.04960900918 -0.03500294313 0.1579124182
v -0.04956519976 -0.02267968468 0.1901052296
v -0.0495054163 0.04748727381 0.1868678778
v -0.0494687371 -0.03047325648 0.1904066503
v -0.04940532893 0.0173737146 0.156579271
v -0.04937709495 -0.0371051915 0.1906952262
v -0.04927610978 -0.04287169129 0.1910203248
v -0.04927610606 -0.05257867277 0.1910203248
v -0.04927610233 -0.06228565425 0.1910203248
v -0.04920336232 -0.04458484426 0.1572254151
v -0.04904069752 0.02725073509 0.155647561
v -0.04885001108 -0.05629347637 0.1566108465
v -0.04885001108 -0.05026637763 0.1566108465
v -0.04885000736 -0.06232057512 0.1566108465
v -0.04872049391 0.04749816284 0.1642304212
v -0.04856797308 0.0362075232 0.154483363
v -0.04831860214 0.04749976844 0.1864670813
v -0.04829980806 0.03949255496 0.1539207548
v -0.04771107808 0.04461904988 0.1529272944
v -0.04750358686 -0.003138536122 0.1488236636
v -0.04738282412 0.04698082432 0.1525207907
v -0.04734133556 -0.01457190793 0.1489137262
v -0.04723060504 0.00802402664 0.1479743719
v -0.04680491984 -0.02597357146 0.148355186
v -0.04670635611 0.04747525975 0.1526357085
v -0.04648751393 0.01891521364 0.1466277093
v -0.04633858427 0.04668387771 0.1979341507
v -0.04630475864 0.04481171444 0.1980092824
v -0.0462291725 0.04039978236 0.1981838495
v -0.04609091207 0.0326561518 0.1984733194
v -0.04603702575 0.02972397767 0.1985755563
v -0.04591866955 0.02297495492 0.1988031268
v -0.04578515515 0.01480196603 0.1990543008
v -0.04576669261 0.04749563336 0.1528572589
v -0.04564835504 0.005655035842 0.1993133426
v -0.04560910165 0.04748425633 0.1974847764
v -0.04560758173 -0.03699335083 0.1464967728
v -0.04551402107 -0.003955793101 0.19955948
v -0.04539886117 0.02966306172 0.1448959708
v -0.04539022595 -0.01348823216 0.1997843385
v -0.04528090358 -0.02236705087 0.1999841481
v -0.04518358782 -0.02992824838 0.2001574636
v -0.0451763086 -0.002202374628 0.1399004608
v -0.04509200156 -0.03627703711 0.2003217489
v -0.04500211403 -0.04197286442 0.2004920244
v -0.0450021103 -0.05212713778 0.2004920244
v -0.04500210658 -0.06228141487 0.2004920244
v -0.04491813108 0.04749925435 0.1530627161
v -0.04485450312 -0.01296149753 0.1402006149
v -0.04479308426 0.008401836269 0.1390088201
v -0.04457256198 0.0001019469637 0.1081985533
v -0.04449227825 0.0003927630896 0.1010000035
v -0.0444881618 0.04749996215 0.1968330741
v -0.04361018538 0.03876458108 0.1425726861
v -0.04360859096 -0.0238553118 0.1390476972
v -0.04354258254 -0.01013592258 0.1083542779
v -0.04349735752 0.01902687363 0.1375600845
v -0.04345534369 0.01047299802 0.1079882085
v -0.04334525764 -0.0100429533 0.1010000035
v -0.04318653792 -0.001260662451 0.1302306354
v -0.04317038134 -0.0003893753455 0.1178522035
v -0.04313083738 0.01090888679 0.1010000035
v -0.0430890657 -0.04654489458 0.14409931
v -0.04280890152 0.04137389362 0.1419342756
v -0.04271964356 0.008783039637 0.1294564903
v -0.04269415885 -0.0008718776517 0.1252634674
v -0.0426392816 -0.01122568175 0.1304965615
v -0.04252957925 0.009577822872 0.1173238903
v -0.04228262976 -0.01021465007 0.1181305945
v -0.04218383878 0.009040211327 0.1245565191
v -0.04199193418 -0.01068477891 0.1255638748
v -0.04158008099 0.04510337859 0.1412248015
v -0.04132147506 -0.03480120748 0.1366936862
v -0.04126739129 0.0295782052 0.1346458793
v -0.04102763906 -0.05726923421 0.1429101825
v -0.04102763906 -0.05220872164 0.1429101825
v -0.04102763534 -0.06232974306 0.1429101825
v -0.04091308638 0.04719667509 0.1410755217
v -0.04084221646 -0.02111359313 0.1301194131
v -0.04069513083 0.01876155101 0.1281417757
v -0.04001779854 0.04665944353 0.2076102048
v -0.04001131654 0.04748298228 0.1415119171
v -0.03999315202 0.04491909593 0.2076668143
v -0.03992947191 0.04034177214 0.2077517062
v -0.03985061869 -0.01978080347 0.1010000035
v -0.03978682309 0.03231141344 0.2079340965
v -0.03973304108 0.02935269848 0.2079970539
v -0.0396727249 -0.02028902061 0.1253665537
v -0.0396165289 0.02255262621 0.208137095
v -0.03959059343 0.01884359308 0.1233149171
v -0.03948685527 0.01441385131 0.208285436
v -0.03942255676 -0.01941523328 0.108412616
v -0.03940900788 0.04748350754 0.2070197463
v -0.03935816139 0.005424472969 0.208436355
v -0.03924125805 -0.003986130934 0.2085743099
v -0.03922415525 0.02100253291 0.1010000035
v -0.03914511204 -0.01333310269 0.2086852491
v -0.03911615908 -0.04125458747 0.2087315023
v -0.03911615536 -0.05176630244 0.2087315023
v -0.03911615163 -0.06227802113 0.2087315023
v -0.03910598159 0.0202567447 0.1076182127
v -0.03908139095 -0.02202193625 0.2087641507
v -0.03906860203 -0.03568344191 0.2087826133
v -0.03905847669 -0.0294115115 0.2087903619
v -0.03900324553 0.04749691486 0.1420088857
v -0.03873315454 -0.01938844658 0.1180070639
v -0.03871393576 0.01913946867 0.1163086966
v -0.0384376049 0.04749996215 0.2061288655
v -0.03807611018 0.04749973863 0.1425152868
v -0.03791487962 -0.03169141337 0.1281527579
v -0.03738213703 0.02939804457 0.1252202243
v -0.03724043816 0.03922969103 0.1317971796
v -0.03705654666 -0.04475635663 0.1349933147
v -0.03649242595 -0.03035729006 0.1238155514
v -0.03567826003 0.02943257615 0.1207349673
v -0.03549301624 0.04199825972 0.1313309819
v -0.03483042493 -0.02891403064 0.1170900017
v -0.03403936699 -0.02844782546 0.1079353914
v -0.03392707184 -0.02876891941 0.1010000035
v -0.03376263753 0.02958692424 0.1144720614
v -0.0332111083 -0.05648032576 0.1341565996
v -0.0332111083 -0.05063832551 0.1341565996
v -0.03321110457 -0.062322326 0.1341565996
v -0.03285351023 0.04569997638 0.1311233342
v -0.03267885372 0.03013334982 0.1066704243
v -0.03230644763 0.03057973832 0.1010000035
v -0.03225386515 0.0549447909 0.1748938709
v -0.03225386143 0.04749850184 0.1757723689
v -0.03175359964 0.04670570046 0.2155782878
v -0.03174300119 0.04511360079 0.215616405
v -0.03165683523 0.04054615274 0.215692997
v -0.03157279268 0.05494398251 0.1676206738
v -0.03157278895 0.04749769345 0.1684991717
v -0.03152980655 0.03221361339 0.2157960385
v -0.03148657829 0.02918851376 0.2158294916
v -0.03145973757 0.04746485502 0.1316536218
v -0.03139009327 0.02221943438 0.2158925533
v -0.03132284433 -0.04111948609 0.1258216202
v -0.03131234646 0.05494502559 0.182030946
v -0.03131234273 0.04749873653 0.1829094589
v -0.03129282966 0.01416228618 0.2159568816
v -0.03127419576 -0.04053197056 0.2160122097
v -0.03127419204 -0.0514032878 0.2160122097
v -0.03127418458 -0.06227460504 0.2160122097
v -0.03122834489 0.04748449475 0.2148827016
v -0.03121831454 0.005273374263 0.2160436064
v -0.03117366508 -0.03519201651 0.2160862088
v -0.03114757687 -0.003974670079 0.2161029875
v -0.03110763989 -0.02905210294 0.2161300778
v -0.03109966777 -0.01315755118 0.2161378413
v -0.03108229861 -0.02175904997 0.216148138
v -0.03053141944 0.0474919267 0.1323057413
v -0.03048177436 0.04749996215 0.2138520628
v -0.03001773916 0.03952387348 0.1225754246
v -0.02956934646 -0.0392476283 0.1217126921
v -0.02952014841 0.04749758542 0.1330764741
v -0.02910870127 0.05494469032 0.1603835374
v -0.02910869941 0.04749840125 0.1612620354
v -0.0288300626 0.0549451448 0.1887485385
v -0.02883006074 0.04749885574 0.1896270514
v -0.02859918028 0.04749534652 0.1338087469
v -0.02758627385 -0.03740840405 0.1158396155
v -0.0258851368 0.03980907425 0.1181571856
v -0.02582845092 -0.03640432656 0.1074986532
v -0.02515859529 0.04298905283 0.1222812459
v -0.02515078895 -0.03668633103 0.1010000035
v -0.02490905114 0.0549451448 0.194772616
v -0.02490904927 0.04749885574 0.195651114
v -0.02467478439 0.05494499952 0.1535483599
v -0.02467478253 0.04749871045 0.1544268578
v -0.02275508828 0.03941395506 0.1128228679
v -0.02186586522 0.04667866975 0.2216145396
v -0.02184272557 0.0447207503 0.2216426432
v -0.02178848349 0.04003547877 0.2216741741
v -0.02171765268 0.03193352371 0.2217149734
v -0.0216986984 0.02892033011 0.2217259854
v -0.02167531848 -0.03988983482 0.221748814
v -0.02167531475 -0.05108070001 0.221748814
v -0.02167530917 -0.06227156147 0.221748814
v -0.02165825665 0.02218704484 0.2217410803
v -0.02163425088 -0.03461169824 0.2217639387
v -0.02163111046 0.01415464655 0.2217611074
v -0.02160606906 0.005303095561 0.2217723727
v -0.02160160989 -0.02857529186 0.2217786908
v -0.0215866752 -0.003886776045 0.2217814624
v -0.02158074081 -0.02149256505 0.2217849195
v -0.02157458663 -0.01294373441 0.2217853665
v -0.02152390592 0.0474846065 0.2208691835
v -0.02143156342 0.03900360316 0.1061063483
v -0.02140709013 0.03898859024 0.1010000035
v -0.02097161673 0.04749992117 0.2196397334
v -0.01998185739 0.04655666649 0.1233067214
v -0.01975334063 0.05494514853 0.1997775733
v -0.01975333877 0.04749885947 0.2006560564
v -0.01853333786 0.05494215339 0.1479061693
v -0.018533336 0.04749586433 0.1487846673
v -0.0183281973 0.0474810414 0.124580346
v -0.01748525165 0.04749399051 0.125481233
v -0.01705332287 -0.0507700853 0.1249886975
v -0.01705331914 -0.05654651672 0.1249886975
v -0.01705331728 -0.06232294813 0.1249886975
v -0.01669293828 -0.04632295296 0.1218501404
v -0.01656671241 0.04749799147 0.1264499575
v -0.01614622772 -0.04478783533 0.1195156053
v -0.01571913809 0.04749669135 0.1273169667
v -0.0154822953 0.04419768229 0.1179940999
v -0.0151673397 -0.0432713218 0.1150243729
v -0.01397027355 -0.04242163897 0.1073637232
v -0.01359036192 0.05494512245 0.2035282254
v -0.0135903582 0.04749883339 0.2044067085
v -0.01327501144 0.04228713363 0.1010000035
v -0.0132354293 -0.04247237742 0.1010000035
v -0.01310582832 0.04333394393 0.1128814071
v -0.01283244323 0.04266224802 0.1057803929
v -0.01102719642 -0.02129951678 0.2252828628
v -0.01102602482 -0.02834758721 0.2252840996
v -0.01102111302 -0.01279382315 0.2252832353
v -0.0110173896 -0.0344357267 0.2252869606
v -0.01100836694 -0.003797250334 0.2252872288
v -0.0109950006 -0.03984915838 0.2252953649
v -0.01099499594 -0.05106026679 0.2252953649
v -0.01099499129 -0.06227137148 0.2252953649
v -0.01097424328 0.005367084406 0.2252959609
v -0.0109072905 0.01417214144 0.2253044248
v -0.01081386674 0.02213952318 0.2253285646
v -0.01074645575 0.04642312974 0.2253242135
v -0.01072987914 0.04436473548 0.2253309786
v -0.01072367094 0.02887321636 0.2253435552
v -0.01069467608 0.03970708326 0.2253451049
v -0.01069420204 0.03174448013 0.2253514826
v -0.01067830529 0.047477521 0.2245737463
v -0.01039852109 0.04749987274 0.2231713533
v -0.0101865381 0.05494303256 0.1436992139
v -0.01018653437 0.0474967435 0.1445777118
v -0.006738555618 0.0549450852 0.2058168501
v -0.006738552358 0.04749879614 0.206695348
v 3.430759534e-07 0.05494517088 0.2065482587
v 3.430759534e-07 0.0549451746 0.1419745684
v 3.457535058e-07 0.04734151438 0.1210000739
v 3.457535058e-07 0.04749421775 0.2255175263
v 3.457535058e-07 0.04749992117 0.1235074848
v 3.457535058e-07 0.04749996215 0.1224180758
v 3.457535058e-07 0.04749996215 0.1247534901
v 3.457535058e-07 0.04750000313 0.2242999971
v 3.457535058e-07 0.04750000685 0.1262000054
v 3.462191671e-07 0.04640401527 0.2264533639
v 3.462191671e-07 0.04749888182 0.2074267566
v 3.462191671e-07 0.04749888554 0.1428530812
v 3.465684131e-07 0.04555583745 0.1179940999
v 3.468012437e-07 0.04479459301 0.1128814071
v 3.46917659e-07 0.04451310262 0.1057803929
v 3.470340744e-07 0.04439837113 0.2264555395
v 3.470340744e-07 0.04449633136 0.1010000035
v 3.490131348e-07 0.03970437497 0.2264573425
v 3.522727638e-07 0.03181308135 0.226461038
v 3.534369171e-07 0.02893189527 0.2264601737
v 3.562308848e-07 0.0221591685 0.2264650464
v 3.594905138e-07 0.01418726984 0.2264682651
v 3.630993888e-07 0.005407923833 0.2264725864
v 3.669410944e-07 -0.003714293707 0.2264762074
v 3.706663847e-07 -0.01269469317 0.2264798284
v 3.741588443e-07 -0.02117379569 0.2264830917
v 3.770692274e-07 -0.02824619412 0.2264875919
v 3.795139491e-07 -0.0343458131 0.2264908701
v 3.818422556e-07 -0.03995727003 0.2264937162
v 3.837049007e-07 -0.04450110719 0.1010000035
v 3.83821316e-07 -0.04455196857 0.1074430719
v 3.839377314e-07 -0.04505058378 0.115065217
v 3.844033927e-07 -0.0461265929 0.1192806885
v 3.849854693e-07 -0.04750289395 0.1211147308
v 3.864988685e-07 -0.05125431344 0.1224616021
v 3.864988685e-07 -0.05111457035 0.2264937162
v 3.888271749e-07 -0.05678977072 0.1224616021
v 3.911554813e-07 -0.06232522801 0.1224616021
v 3.911554813e-07 -0.0622718744 0.2264937162
v 0.006739242468 0.05494509265 0.2058168501
v 0.006739245262 0.04749880359 0.206695348
v 0.01018722169 0.05494304001 0.1436992139
v 0.01018722542 0.04749675095 0.1445777118
v 0.01039921213 0.04749988019 0.2231713533
v 0.01067899633 0.04747752845 0.2245737463
v 0.01069490612 0.03174448758 0.2253514826
v 0.01069537271 0.03970709071 0.2253451049
v 0.01072437689 0.02887322567 0.2253435552
v 0.01073057204 0.04436474293 0.2253309786
v 0.01074714679 0.04642313719 0.2253242135
v 0.01081457827 0.02213953249 0.2253285646
v 0.01090800948 0.01417215075 0.2253044248
v 0.01097496971 0.005367093254 0.2252959609
v 0.01099576429 -0.03984915093 0.2252953649
v 0.01099576894 -0.05106025934 0.2252953649
v 0.0109957736 -0.06227136403 0.2252953649
v 0.01100910082 -0.003797241021 0.2252872288
v 0.01101814769 -0.03443571925 0.2252869606
v 0.01102185436 -0.01279381383 0.2252832353
v 0.01102677919 -0.0283475779 0.2252840996
v 0.01102794334 -0.02129950747 0.2252828628
v 0.012833138 0.04266225919 0.1057803929
v 0.01310652308 0.04333395511 0.1128814071
v 0.01323619485 -0.04247236624 0.1010000035
v 0.01327570621 0.04228714481 0.1010000035
v 0.01359104551 0.05494513363 0.2035282254
v 0.01359104924 0.04749884456 0.2044067085
v 0.01397103816 -0.04242162779 0.1073637232
v 0.01516810618 -0.04327131063 0.1150243729
v 0.01548298821 0.04419769719 0.1179940999
v 0.01571982913 0.04749670625 0.1273169667
v 0.01614699513 -0.04478782043 0.1195156053
v 0.01656740345 0.04749800637 0.1264499575
v 0.01669370756 -0.04632293805 0.1218501404
v 0.017054094 -0.0507700704 0.1249886975
v 0.01705409773 -0.05654650182 0.1249886975
v 0.01705409959 -0.06232293323 0.1249886975
v 0.01748594083 0.04749400541 0.125481233
v 0.01832888648 0.0474810563 0.124580346
v 0.01853402704 0.0549421683 0.1479061693
v 0.0185340289 0.04749587923 0.1487846673
v 0.01975402795 0.05494516343 0.1997775733
v 0.01975402981 0.04749887437 0.2006560564
v 0.01998255029 0.04655668139 0.1233067214
v 0.02097230591 0.0474999398 0.2196397334
v 0.02140778676 0.03898860887 0.1010000035
v 0.02143226005 0.03900362179 0.1061063483
v 0.0215245951 0.04748462513 0.2208691835
v 0.02157532796 -0.01294371672 0.2217853665
v 0.02158148959 -0.02149254829 0.2217849195
v 0.02158740908 -0.00388675835 0.2217814624
v 0.02160236239 -0.02857527509 0.2217786908
v 0.02160679549 0.005303113721 0.2217723727
v 0.02163182944 0.01415466424 0.2217611074
v 0.02163501084 -0.03461167961 0.2217639387
v 0.02165896818 0.02218706161 0.2217410803
v 0.02167608216 -0.03988981619 0.221748814
v 0.02167608589 -0.05108068138 0.221748814
v 0.02167609148 -0.06227154285 0.221748814
v 0.02169940621 0.02892034687 0.2217259854
v 0.02171835676 0.03193354234 0.2217149734
v 0.02178918011 0.0400354974 0.2216741741
v 0.02184341848 0.04472076893 0.2216426432
v 0.02186655812 0.04667868838 0.2216145396
v 0.02275578491 0.03941397369 0.1128228679
v 0.02467547543 0.05494502187 0.1535483599
v 0.0246754773 0.04749873281 0.1544268578
v 0.02490973845 0.05494516715 0.194772616
v 0.02490974031 0.04749887809 0.195651114
v 0.02515154891 -0.03668630868 0.1010000035
v 0.0251592882 0.04298907518 0.1222812459
v 0.02582921088 -0.03640430421 0.1074986532
v 0.02588583343 0.0398090966 0.1181571856
v 0.02758703381 -0.0374083817 0.1158396155
v 0.02859986946 0.04749536887 0.1338087469
v 0.02883075178 0.05494516715 0.1887485385
v 0.02883075364 0.04749887809 0.1896270514
v 0.02910938673 0.05494471267 0.1603835374
v 0.02910938859 0.04749842361 0.1612620354
v 0.02952083759 0.04749760777 0.1330764741
v 0.02957011014 -0.03924760595 0.1217126921
v 0.03001843765 0.03952389956 0.1225754246
v 0.03048246726 0.04749998823 0.2138520628
v 0.03053211048 0.04749195278 0.1323057413
v 0.03108304739 -0.02175902389 0.216148138
v 0.03110040724 -0.0131575251 0.2161378413
v 0.03110839054 -0.02905207686 0.2161300778
v 0.03114830703 -0.003974644467 0.2161029875
v 0.03117442504 -0.03519199044 0.2160862088
v 0.03121903911 0.005273399875 0.2160436064
v 0.03122903779 0.04748452082 0.2148827016
v 0.03127495944 -0.04053194448 0.2160122097
v 0.0312749669 -0.05140326172 0.2160122097
v 0.03127497062 -0.06227457896 0.2160122097
v 0.03129354864 0.01416231226 0.2159568816
v 0.03131303191 0.05494505167 0.182030946
v 0.03131303564 0.04749876261 0.1829094589
v 0.03132360801 -0.04111946002 0.1258216202
v 0.03139080852 0.02221946046 0.2158925533
v 0.03146043047 0.04746488109 0.1316536218
v 0.03148728237 0.02918853983 0.2158294916
v 0.03153051063 0.03221363947 0.2157960385
v 0.03157347813 0.05494400859 0.1676206738
v 0.03157348186 0.04749771953 0.1684991717
v 0.03165753186 0.04054617882 0.215692997
v 0.0317436941 0.04511362687 0.215616405
v 0.03175429255 0.04670572653 0.2155782878
v 0.03225455061 0.05494481698 0.1748938709
v 0.03225455433 0.04749852791 0.1757723689
v 0.03230715171 0.03057976626 0.1010000035
v 0.03267956153 0.03013337776 0.1066704243
v 0.03285420313 0.04570000246 0.1311233342
v 0.03321188316 -0.05648029968 0.1341565996
v 0.03321188316 -0.05063829944 0.1341565996
v 0.03321188688 -0.06232229993 0.1341565996
v 0.03376334533 0.02958695218 0.1144720614
v 0.03392782435 -0.02876889147 0.1010000035
v 0.0340401195 -0.02844779752 0.1079353914
v 0.03483117744 -0.0289140027 0.1170900017
v 0.03549370915 0.04199828953 0.1313309819
v 0.03567896783 0.02943260595 0.1207349673
v 0.03649317846 -0.03035726026 0.1238155514
v 0.03705731407 -0.04475632682 0.1349933147
v 0.03724113852 0.03922972083 0.1317971796
v 0.03738284484 0.02939807624 0.1252202243
v 0.03791563958 -0.03169138357 0.1281527579
v 0.03807680309 0.04749976844 0.1425152868
v 0.03843829781 0.04749999195 0.2061288655
v 0.03871465102 0.01913950033 0.1163086966
v 0.03873389959 -0.01938841492 0.1180070639
v 0.03900393844 0.04749694839 0.1420088857
v 0.0390592292 -0.02941147983 0.2087903619
v 0.03906936198 -0.03568340838 0.2087826133
v 0.03908213601 -0.02202190459 0.2087641507
v 0.03910669684 0.02025677636 0.1076182127
v 0.03911692649 -0.04125455394 0.2087315023
v 0.03911693022 -0.05176626891 0.2087315023
v 0.03911693394 -0.0622779876 0.2087315023
v 0.03914584965 -0.01333307009 0.2086852491
v 0.0392248705 0.02100256458 0.1010000035
v 0.03924198821 -0.003986098338 0.2085743099
v 0.0393588841 0.0054245051 0.208436355
v 0.03940970078 0.04748354107 0.2070197463
v 0.03942330182 -0.01941520162 0.108412616
v 0.03948757052 0.01441388391 0.208285436
v 0.03959130868 0.01884362474 0.1233149171
v 0.0396172367 0.02255265787 0.208137095
v 0.03967346996 -0.02028898895 0.1253665537
v 0.03973374888 0.02935273014 0.2079970539
v 0.03978752345 0.03231144696 0.2079340965
v 0.03985136375 -0.01978077181 0.1010000035
v 0.03993017226 0.04034180567 0.2077517062
v 0.03999384493 0.04491912946 0.2076668143
v 0.04001200944 0.04748301581 0.1415119171
v 0.04001849145 0.04665947706 0.2076102048
v 0.04069584608 0.01876158454 0.1281417757
v 0.04084296152 -0.0211135596 0.1301194131
v 0.04091377929 0.04719670862 0.1410755217
v 0.04102841392 -0.05726920068 0.1429101825
v 0.04102841392 -0.05220868811 0.1429101825
v 0.04102841765 -0.06232970953 0.1429101825
v 0.0412680991 0.02957824059 0.1346458793
v 0.04132223502 -0.03480117396 0.1366936862
v 0.04158077389 0.04510341212 0.1412248015
v 0.04199267179 -0.01068474445 0.1255638748
v 0.04218456149 0.009040245786 0.1245565191
v 0.04228336737 -0.01021461468 0.1181305945
v 0.04253030196 0.009577858262 0.1173238903
v 0.04264001921 -0.01122564636 0.1304965615
v 0.04269488901 -0.0008718423778 0.1252634674
v 0.04272036627 0.008783075027 0.1294564903
v 0.04280959442 0.04137393087 0.1419342756
v 0.04308983311 -0.04654485732 0.14409931
v 0.04313156009 0.01090892218 0.1010000035
v 0.04317111149 -0.0003893396643 0.1178522035
v 0.04318726808 -0.001260626828 0.1302306354
v 0.04334599525 -0.01004291791 0.1010000035
v 0.0434560664 0.01047303434 0.1079882085
v 0.04349807277 0.01902690902 0.1375600845
v 0.04354332015 -0.01013588626 0.1083542779
v 0.04360934347 -0.02385527641 0.1390476972
v 0.04361088574 0.03876461834 0.1425726861
v 0.04448885471 0.0474999994 0.1968330741
v 0.0444930084 0.0003927998769 0.1010000035
v 0.04457329214 0.0001019838091 0.1081985533
v 0.04479380697 0.008401873522 0.1390088201
v 0.04485524073 -0.01296146028 0.1402006149
v 0.04491882399 0.0474992916 0.1530627161
v 0.04500288144 -0.04197282717 0.2004920244
v 0.04500288516 -0.05212710053 0.2004920244
v 0.04500288889 -0.06228137761 0.2004920244
v 0.04509276152 -0.03627699986 0.2003217489
v 0.04517703876 -0.002202337375 0.1399004608
v 0.04518434033 -0.02992821112 0.2001574636
v 0.04528164864 -0.02236701362 0.1999841481
v 0.04539096355 -0.01348819491 0.1997843385
v 0.04539956897 0.02966309898 0.1448959708
v 0.04551475123 -0.003955755383 0.19955948
v 0.04560834169 -0.03699331358 0.1464967728
v 0.04560979456 0.04748429358 0.1974847764
v 0.04564907774 0.005655073561 0.1993133426
v 0.04576738551 0.04749567062 0.1528572589
v 0.0457858704 0.01480200421 0.1990543008
v 0.04591937736 0.02297499403 0.1988031268
v 0.04603773355 0.02972401679 0.1985755563
v 0.04609161243 0.03265618905 0.1984733194
v 0.04622987285 0.04039981961 0.1981838495
v 0.04630545154 0.04481175169 0.1980092824
v 0.04633927718 0.04668391496 0.1979341507
v 0.04648822919 0.01891525276 0.1466277093
v 0.04670704901 0.047475297 0.1526357085
v 0.04680567235 -0.02597353235 0.148355186
v 0.04723132774 0.008024065755 0.1479743719
v 0.04734208062 -0.01457186881 0.1489137262
v 0.04738351703 0.04698086157 0.1525207907
v 0.04750431702 -0.003138497006 0.1488236636
v 0.04771177098 0.04461908713 0.1529272944
v 0.04830050841 0.03949259594 0.1539207548
v 0.04831929505 0.04749980941 0.1864670813
v 0.04856867343 0.03620756418 0.154483363
v 0.04872118682 0.04749820381 0.1642304212
v 0.04885078594 -0.05629343539 0.1566108465
v 0.04885078594 -0.05026633665 0.1566108465
v 0.04885078967 -0.06232053414 0.1566108465
v 0.04904140532 0.02725077607 0.155647561
v 0.04920412973 -0.04458480328 0.1572254151
v 0.04927687719 -0.04287165031 0.1910203248
v 0.04927688092 -0.05257863179 0.1910203248
v 0.04927688465 -0.06228561327 0.1910203248
v 0.04937785491 -0.03710515052 0.1906952262
v 0.04940604419 0.01737375557 0.156579271
v 0.0494694896 -0.03047321551 0.1904066503
v 0.04950610921 0.04748731479 0.1868678778
v 0.04956595227 -0.02267964371 0.1901052296
v 0.04960976914 -0.03500290215 0.1579124182
v 0.04964705929 0.007082372438 0.1573188752
v 0.04965755716 -0.01359034609 0.1898060441
v 0.04975642264 -0.003894169582 0.1894759238
v 0.04975856468 -0.02476711571 0.1582484841
v 0.04977216199 0.04749945179 0.1754537821
v 0.04978466034 -0.003507304238 0.1578451544
v 0.04981957376 -0.01421045419 0.1581540853
v 0.04984122142 0.04749496281 0.1641689688
v 0.04985804483 0.005876075011 0.189121455
v 0.04996639863 0.01522895508 0.1887524128
v 0.05007479712 0.02356301993 0.1883898377
v 0.05016443133 0.03044048138 0.1880568713
v 0.05020425469 0.0334356837 0.1879032105
v 0.05030786246 0.04097875953 0.1874969304
v 0.0503657572 0.04519242048 0.1872612834
v 0.05037314072 0.04689098895 0.1871599555
v 0.05083376542 0.04732769355 0.1641213596
v 0.0509329997 0.04748905823 0.1755919904
v 0.05099666864 0.0463752225 0.1642069072
v 0.05105497688 0.04385844991 0.1645323783
v 0.05120370537 0.03718565777 0.1653446704
v 0.05125075206 0.03376784176 0.1656934023
v 0.05137075856 0.02544755489 0.1664055586
v 0.0514491573 0.01617546193 0.167029202
v 0.05152424797 0.006399637554 0.1675358862
v 0.05158820748 -0.003692431608 0.1679943651
v 0.05160627514 -0.01382104028 0.1683951616
v 0.05164828524 -0.04508273304 0.1803204566
v 0.05164828897 -0.05368939415 0.1803204566
v 0.05164829269 -0.06229605898 0.1803204566
v 0.05166173726 -0.039018929 0.1801009923
v 0.05166719854 -0.03319943696 0.1689643711
v 0.0516724959 -0.02376500331 0.1687395275
v 0.05168382078 -0.03174086288 0.179833591
v 0.05169120431 -0.04168877378 0.1691464186
v 0.05169960484 -0.04778885096 0.1693186909
v 0.05169960856 -0.05504884198 0.1693186909
v 0.05169961229 -0.06230883673 0.1693186909
v 0.05171051249 -0.02329033241 0.1795246303
v 0.05174073949 -0.0137229478 0.1791580617
v 0.05177661404 -0.003813513322 0.1787638068
v 0.05181474611 0.006076228339 0.1783412099
v 0.05184535682 0.01562201139 0.1778871715
v 0.05185262859 0.04707636312 0.1756798178
v 0.05186324567 0.03209492937 0.1769039631
v 0.05186643079 0.02444544807 0.1773996651
v 0.05190594122 0.0352755636 0.1766745597
v 0.0519409515 0.04247636721 0.1761173308
v 0.05194552988 0.04580577463 0.1758282632
f 255 262 220
f 220 212 255
f 255 241 288
f 288 298 255
f 255 298 299
f 299 262 255
f 187 251 248
f 248 171 187
f 269 267 230
f 230 226 269
f 314 313 267
f 267 269 314
f 313 312 265
f 265 267 313
f 311 264 265
f 265 312 311
f 233 230 267
f 267 265 233
f 196 191 226
f 226 230 196
f 310 266 264
f 264 311 310
f 266 236 235
f 235 264 266
f 235 233 265
f 265 264 235
f 200 198 233
f 233 235 200
f 198 196 230
f 230 233 198
f 153 152 196
f 196 198 153
f 152 147 191
f 191 196 152
f 93 94 147
f 147 152 93
f 93 55 56
f 56 94 93
f 55 19 20
f 20 56 55
f 19 15 12
f 12 20 19
f 59 62 12
f 12 15 59
f 15 18 50
f 50 59 15
f 19 16 18
f 18 15 19
f 16 11 17
f 17 18 16
f 53 51 11
f 11 16 53
f 51 48 10
f 10 11 51
f 51 53 91
f 91 90 51
f 90 89 48
f 48 51 90
f 89 87 47
f 47 48 89
f 89 90 151
f 151 146 89
f 146 144 87
f 87 89 146
f 144 143 84
f 84 87 144
f 144 146 199
f 199 197 144
f 197 195 143
f 143 144 197
f 195 190 140
f 140 143 195
f 195 197 234
f 234 232 195
f 232 231 190
f 190 195 232
f 231 229 186
f 186 190 231
f 231 232 272
f 272 273 231
f 273 274 229
f 229 231 273
f 274 277 225
f 225 229 274
f 274 273 307
f 307 306 274
f 306 305 277
f 277 274 306
f 305 304 279
f 279 277 305
f 303 278 279
f 279 304 303
f 278 223 224
f 224 279 278
f 279 224 225
f 225 277 279
f 225 184 186
f 186 229 225
f 186 138 140
f 140 190 186
f 140 82 84
f 84 143 140
f 84 41 47
f 47 87 84
f 47 9 10
f 10 48 47
f 10 23 17
f 17 11 10
f 17 46 50
f 50 18 17
f 50 86 112
f 112 59 50
f 112 125 62
f 62 59 112
f 112 162 171
f 171 125 112
f 309 268 266
f 266 310 309
f 268 234 236
f 236 266 268
f 236 199 200
f 200 235 236
f 200 151 153
f 153 198 200
f 153 91 93
f 93 152 153
f 91 53 55
f 55 93 91
f 53 16 19
f 19 55 53
f 91 153 151
f 151 90 91
f 151 200 199
f 199 146 151
f 199 236 234
f 234 197 199
f 234 268 272
f 272 232 234
f 308 307 273
f 273 272 308
f 301 276 278
f 278 303 301
f 276 222 223
f 223 278 276
f 224 223 180
f 180 183 224
f 183 184 225
f 225 224 183
f 184 183 135
f 135 136 184
f 184 136 138
f 138 186 184
f 138 81 82
f 82 140 138
f 82 40 41
f 41 84 82
f 41 8 9
f 9 47 41
f 9 24 23
f 23 10 9
f 23 43 46
f 46 17 23
f 46 73 86
f 86 50 46
f 122 162 112
f 112 86 122
f 122 159 187
f 187 162 122
f 187 159 163
f 163 204 187
f 187 204 253
f 253 251 187
f 319 320 248
f 248 251 319
f 308 272 268
f 268 309 308
f 301 295 275
f 275 276 301
f 276 275 221
f 221 222 276
f 179 180 223
f 223 222 179
f 133 135 183
f 183 180 133
f 133 78 79
f 79 135 133
f 135 79 80
f 80 136 135
f 80 81 138
f 138 136 80
f 38 39 81
f 81 80 38
f 39 40 82
f 82 81 39
f 4 7 40
f 40 39 4
f 7 8 41
f 41 40 7
f 26 25 8
f 8 7 26
f 25 24 9
f 9 8 25
f 49 44 24
f 24 25 49
f 44 43 23
f 23 24 44
f 69 71 43
f 43 44 69
f 71 73 46
f 46 43 71
f 98 104 73
f 73 71 98
f 104 122 86
f 86 73 104
f 128 159 122
f 122 104 128
f 128 137 163
f 163 159 128
f 163 137 155
f 155 166 163
f 163 166 211
f 211 204 163
f 211 256 253
f 253 204 211
f 256 317 318
f 318 253 256
f 318 319 251
f 251 253 318
f 289 293 281
f 281 280 289
f 289 280 275
f 275 295 289
f 280 281 240
f 240 237 280
f 280 237 221
f 221 275 280
f 237 240 202
f 202 194 237
f 237 194 178
f 178 221 237
f 178 179 222
f 222 221 178
f 179 178 130
f 130 132 179
f 179 132 133
f 133 180 179
f 79 78 36
f 36 37 79
f 37 38 80
f 80 79 37
f 38 37 3
f 3 5 38
f 38 5 4
f 4 39 38
f 4 27 26
f 26 7 4
f 26 54 49
f 49 25 26
f 49 72 69
f 69 44 49
f 69 92 98
f 98 71 69
f 98 116 128
f 128 104 98
f 116 120 137
f 137 128 116
f 120 118 155
f 155 137 120
f 141 167 166
f 166 155 141
f 167 213 211
f 211 166 167
f 213 257 256
f 256 211 213
f 257 316 317
f 317 256 257
f 202 157 142
f 142 194 202
f 142 130 178
f 178 194 142
f 130 142 85
f 85 76 130
f 130 76 77
f 77 132 130
f 77 78 133
f 133 132 77
f 35 36 78
f 78 77 35
f 2 3 37
f 37 36 2
f 2 30 29
f 29 3 2
f 3 29 28
f 28 5 3
f 28 27 4
f 4 5 28
f 65 60 27
f 27 28 65
f 60 54 26
f 26 27 60
f 88 75 54
f 54 60 88
f 75 72 49
f 49 54 75
f 106 99 72
f 72 75 106
f 99 92 69
f 69 72 99
f 114 109 92
f 92 99 114
f 109 116 98
f 98 92 109
f 115 120 116
f 116 109 115
f 115 110 118
f 118 120 115
f 110 100 105
f 105 118 110
f 118 105 141
f 141 155 118
f 141 105 108
f 108 134 141
f 134 168 167
f 167 141 134
f 168 215 213
f 213 167 168
f 215 261 257
f 257 213 215
f 261 315 316
f 316 257 261
f 102 85 142
f 142 157 102
f 85 102 66
f 66 52 85
f 85 52 34
f 34 76 85
f 34 35 77
f 77 76 34
f 35 34 6
f 6 1 35
f 35 1 2
f 2 36 35
f 29 30 68
f 68 67 29
f 67 65 28
f 28 29 67
f 65 67 113
f 113 103 65
f 65 103 88
f 88 60 65
f 88 123 106
f 106 75 88
f 106 129 114
f 114 99 106
f 114 129 139
f 139 119 114
f 114 119 115
f 115 109 114
f 117 110 115
f 115 119 117
f 117 107 100
f 100 110 117
f 101 108 105
f 105 100 101
f 107 150 145
f 145 111 107
f 150 174 175
f 175 145 150
f 156 169 174
f 174 150 156
f 169 220 238
f 238 174 169
f 164 212 220
f 220 169 164
f 164 160 203
f 203 212 164
f 203 214 255
f 255 212 203
f 203 161 165
f 165 214 203
f 165 173 241
f 241 214 165
f 113 121 173
f 173 165 113
f 121 127 185
f 185 173 121
f 68 70 127
f 127 121 68
f 70 74 131
f 131 127 70
f 70 31 33
f 33 74 70
f 33 42 83
f 83 74 33
f 42 33 6
f 6 32 42
f 32 45 64
f 64 42 32
f 97 158 154
f 154 83 97
f 97 83 42
f 42 64 97
f 154 131 74
f 74 83 154
f 131 154 205
f 205 201 131
f 131 201 185
f 185 127 131
f 185 246 241
f 241 173 185
f 262 263 238
f 238 220 262
f 238 239 175
f 175 174 238
f 238 263 260
f 260 239 238
f 263 300 302
f 302 260 263
f 66 45 32
f 32 52 66
f 32 6 34
f 34 52 32
f 6 33 31
f 31 1 6
f 31 30 2
f 2 1 31
f 31 70 68
f 68 30 31
f 68 121 113
f 113 67 68
f 113 165 161
f 161 103 113
f 161 123 88
f 88 103 161
f 161 203 160
f 160 123 161
f 160 129 106
f 106 123 160
f 164 139 129
f 129 160 164
f 139 164 169
f 169 156 139
f 139 156 117
f 117 119 139
f 150 107 117
f 117 156 150
f 210 205 154
f 154 158 210
f 205 210 254
f 254 252 205
f 205 252 247
f 247 201 205
f 247 246 185
f 185 201 247
f 246 247 290
f 290 291 246
f 246 291 288
f 288 241 246
f 254 294 292
f 292 252 254
f 292 290 247
f 247 252 292
f 111 101 100
f 100 107 111
f 263 262 299
f 299 300 263
f 398 390 348
f 348 355 398
f 288 369 355
f 355 298 288
f 348 299 298
f 298 355 348
f 448 439 423
f 382 380 343
f 343 339 382
f 343 313 314
f 314 339 343
f 345 312 313
f 313 343 345
f 312 345 346
f 346 311 312
f 377 375 346
f 346 345 377
f 377 345 343
f 343 380 377
f 414 412 377
f 377 380 414
f 380 382 417
f 417 414 380
f 461 458 414
f 414 417 461
f 311 346 344
f 344 310 311
f 346 375 374
f 374 344 346
f 377 412 410
f 410 375 377
f 414 458 457
f 457 412 414
f 461 514 517
f 517 458 461
f 552 555 517
f 517 514 552
f 588 591 555
f 555 552 588
f 596 595 591
f 591 588 596
f 551 595 596
f 596 548 551
f 551 560 592
f 592 595 551
f 592 594 591
f 591 595 592
f 592 593 599
f 599 594 592
f 557 555 591
f 591 594 557
f 599 559 557
f 557 594 599
f 599 600 562
f 562 559 599
f 520 519 557
f 557 559 520
f 562 521 520
f 520 559 562
f 562 563 523
f 523 521 562
f 464 459 520
f 520 521 464
f 523 466 464
f 464 521 523
f 523 526 467
f 467 466 523
f 413 411 464
f 464 466 413
f 467 415 413
f 413 466 467
f 467 470 420
f 420 415 467
f 378 376 413
f 413 415 378
f 420 379 378
f 378 415 420
f 420 424 381
f 381 379 420
f 337 338 378
f 378 379 337
f 381 336 337
f 337 379 381
f 381 385 333
f 333 336 381
f 307 337 336
f 336 306 307
f 305 306 336
f 336 333 305
f 333 331 304
f 304 305 333
f 304 331 332
f 332 303 304
f 386 387 332
f 332 331 386
f 333 385 386
f 386 331 333
f 381 424 426
f 426 385 381
f 420 470 472
f 472 424 420
f 467 526 528
f 528 470 467
f 523 563 569
f 569 526 523
f 562 600 601
f 601 563 562
f 599 593 587
f 587 600 599
f 592 560 564
f 564 593 592
f 551 498 524
f 524 560 551
f 485 498 551
f 551 548 485
f 498 485 439
f 439 448 498
f 310 344 342
f 342 309 310
f 344 374 376
f 376 342 344
f 411 413 376
f 376 374 411
f 374 375 410
f 410 411 374
f 459 464 411
f 411 410 459
f 410 412 457
f 457 459 410
f 519 520 459
f 459 457 519
f 457 458 517
f 517 519 457
f 555 557 519
f 519 517 555
f 376 378 338
f 338 342 376
f 338 337 307
f 307 308 338
f 332 334 301
f 301 303 332
f 387 388 334
f 334 332 387
f 386 427 430
f 430 387 386
f 426 427 386
f 386 385 426
f 474 475 427
f 427 426 474
f 426 424 472
f 472 474 426
f 529 530 474
f 474 472 529
f 472 470 528
f 528 529 472
f 570 571 529
f 529 528 570
f 528 526 569
f 569 570 528
f 602 603 570
f 570 569 602
f 569 563 601
f 601 602 569
f 586 585 602
f 602 601 586
f 601 600 587
f 587 586 601
f 567 566 586
f 586 587 567
f 587 593 564
f 564 567 587
f 537 539 567
f 567 564 537
f 564 560 524
f 524 537 564
f 488 506 537
f 537 524 488
f 488 524 498
f 498 448 488
f 448 423 451
f 451 488 448
f 406 447 451
f 451 423 406
f 357 406 423
f 423 359 357
f 359 360 320
f 320 319 359
f 309 342 338
f 338 308 309
f 334 335 295
f 295 301 334
f 389 335 334
f 334 388 389
f 387 430 431
f 431 388 387
f 430 427 475
f 475 477 430
f 531 532 477
f 477 475 531
f 474 530 531
f 531 475 474
f 529 571 572
f 572 530 529
f 570 603 606
f 606 571 570
f 602 585 584
f 584 603 602
f 586 566 561
f 561 585 586
f 567 539 541
f 541 566 567
f 537 506 512
f 512 539 537
f 488 451 482
f 482 506 488
f 473 482 451
f 451 447 473
f 444 455 473
f 473 447 444
f 399 444 447
f 447 406 399
f 406 357 354
f 354 399 406
f 318 317 354
f 354 357 318
f 318 357 359
f 359 319 318
f 330 329 293
f 293 289 330
f 295 335 330
f 330 289 295
f 370 329 330
f 330 373 370
f 389 373 330
f 330 335 389
f 416 408 370
f 370 373 416
f 389 432 416
f 416 373 389
f 431 432 389
f 389 388 431
f 478 480 432
f 432 431 478
f 431 430 477
f 477 478 431
f 532 533 478
f 478 477 532
f 531 573 574
f 574 532 531
f 572 573 531
f 531 530 572
f 605 607 573
f 573 572 605
f 572 571 606
f 606 605 572
f 583 582 605
f 605 606 583
f 606 603 584
f 584 583 606
f 556 550 583
f 583 584 556
f 584 585 561
f 561 556 584
f 538 535 556
f 556 561 538
f 561 566 541
f 541 538 561
f 518 511 538
f 538 541 518
f 541 539 512
f 512 518 541
f 494 501 518
f 518 512 494
f 512 506 482
f 482 494 512
f 490 494 482
f 482 473 490
f 492 490 473
f 473 455 492
f 469 455 444
f 444 443 469
f 444 399 397
f 397 443 444
f 399 354 353
f 353 397 399
f 354 317 316
f 316 353 354
f 416 468 453
f 453 408 416
f 480 468 416
f 416 432 480
f 534 525 468
f 468 480 534
f 478 533 534
f 534 480 478
f 532 574 575
f 575 533 532
f 574 573 607
f 607 608 574
f 581 580 608
f 608 607 581
f 605 582 581
f 581 607 605
f 583 550 545
f 545 582 583
f 556 535 522
f 522 550 556
f 538 511 504
f 504 535 538
f 518 501 496
f 496 511 518
f 495 501 494
f 494 490 495
f 500 495 490
f 490 492 500
f 505 510 500
f 500 492 505
f 469 505 492
f 492 455 469
f 476 502 505
f 505 469 476
f 442 476 469
f 469 443 442
f 443 397 395
f 395 442 443
f 397 353 349
f 349 395 397
f 353 316 315
f 315 349 353
f 525 508 453
f 453 468 525
f 558 544 508
f 508 525 558
f 534 576 558
f 558 525 534
f 575 576 534
f 534 533 575
f 609 604 576
f 576 575 609
f 575 574 608
f 608 609 575
f 580 579 609
f 609 608 580
f 581 543 542
f 542 580 581
f 545 543 581
f 581 582 545
f 507 497 543
f 543 545 507
f 545 550 522
f 522 507 545
f 487 449 507
f 507 522 487
f 522 535 504
f 504 487 522
f 481 450 487
f 487 504 481
f 504 511 496
f 496 481 504
f 491 471 481
f 481 496 491
f 495 491 496
f 496 501 495
f 493 491 495
f 495 500 493
f 503 493 500
f 500 510 503
f 510 505 502
f 502 509 510
f 503 499 465
f 465 460 503
f 435 436 460
f 460 465 435
f 454 460 436
f 436 441 454
f 436 372 390
f 390 441 436
f 446 441 390
f 390 398 446
f 450 446 398
f 398 407 450
f 398 355 396
f 396 407 398
f 449 487 450
f 450 407 449
f 396 445 449
f 449 407 396
f 437 445 396
f 396 369 437
f 437 489 497
f 497 445 437
f 437 425 483
f 483 489 437
f 542 543 497
f 497 489 542
f 483 540 542
f 542 489 483
f 483 479 536
f 536 540 483
f 579 580 542
f 542 540 579
f 536 577 579
f 579 540 536
f 536 527 568
f 568 577 536
f 578 604 577
f 577 568 578
f 546 565 578
f 578 568 546
f 456 452 513
f 513 527 456
f 546 568 527
f 527 513 546
f 456 527 536
f 536 479 456
f 409 405 456
f 456 479 409
f 483 425 409
f 409 479 483
f 437 369 364
f 364 425 437
f 390 372 347
f 347 348 390
f 372 436 435
f 435 371 372
f 371 350 347
f 347 372 371
f 350 302 300
f 300 347 350
f 558 578 565
f 565 544 558
f 604 578 558
f 558 576 604
f 579 577 604
f 604 609 579
f 449 445 497
f 497 507 449
f 450 481 471
f 471 446 450
f 454 441 446
f 446 471 454
f 493 454 471
f 471 491 493
f 454 493 503
f 503 460 454
f 405 400 452
f 452 456 405
f 358 356 400
f 400 405 358
f 409 363 358
f 358 405 409
f 364 363 409
f 409 425 364
f 291 290 363
f 363 364 291
f 364 369 288
f 288 291 364
f 358 292 294
f 294 356 358
f 290 292 358
f 358 363 290
f 509 499 503
f 503 510 509
f 300 299 348
f 348 347 300
f 281 293 296
f 296 285 281
f 240 281 285
f 285 259 240
f 157 202 243
f 243 217 157
f 64 45 177
f 177 182 64
f 158 97 207
f 207 219 158
f 294 254 283
f 283 297 294
f 293 329 326
f 326 296 293
f 370 352 326
f 326 329 370
f 408 368 352
f 352 370 408
f 544 422 402
f 402 508 544
f 565 546 429
f 429 434 565
f 356 328 366
f 366 400 356
f 202 240 259
f 259 243 202
f 102 157 217
f 217 209 102
f 66 189 177
f 177 45 66
f 97 64 182
f 182 207 97
f 66 102 209
f 209 189 66
f 210 158 219
f 219 245 210
f 254 210 245
f 245 283 254
f 453 394 368
f 368 408 453
f 508 402 394
f 394 453 508
f 546 513 404
f 404 429 546
f 513 452 392
f 392 404 513
f 565 434 422
f 422 544 565
f 400 366 392
f 392 452 400
f 294 297 328
f 328 356 294
f 285 296 286
f 286 284 285
f 259 285 284
f 284 258 259
f 217 243 242
f 242 216 217
f 182 177 176
f 176 181 182
f 219 207 206
f 206 218 219
f 297 283 282
f 282 287 297
f 296 326 325
f 325 286 296
f 326 352 351
f 351 325 326
f 352 368 367
f 367 351 352
f 402 422 421
f 421 401 402
f 434 429 428
f 428 433 434
f 366 328 327
f 327 365 366
f 243 259 258
f 258 242 243
f 209 217 216
f 216 208 209
f 177 189 188
f 188 176 177
f 207 182 181
f 181 206 207
f 189 209 208
f 208 188 189
f 245 219 218
f 218 244 245
f 283 245 244
f 244 282 283
f 368 394 393
f 393 367 368
f 394 402 401
f 401 393 394
f 429 404 403
f 403 428 429
f 404 392 391
f 391 403 404
f 422 434 433
f 433 421 422
f 392 366 365
f 365 391 392
f 328 297 287
f 287 327 328
f 286 325 351
f 351 367 393
f 393 401 421
f 351 393 421
f 421 433 428
f 428 403 391
f 421 428 391
f 391 365 327
f 421 391 327
f 351 421 327
f 286 351 327
f 286 327 287
f 282 244 218
f 218 206 181
f 282 218 181
f 181 176 188
f 188 208 216
f 181 188 216
f 216 242 258
f 181 216 258
f 282 181 258
f 282 258 284
f 287 282 284
f 286 287 284
f 248 249 170
f 170 171 248
f 147 148 192
f 192 191 147
f 94 95 148
f 148 147 94
f 56 57 95
f 95 94 56
f 20 21 57
f 57 56 20
f 12 13 21
f 21 20 12
f 171 170 124
f 124 125 171
f 314 321 340
f 340 339 314
f 417 382 383
f 383 418 417
f 514 461 462
f 462 515 514
f 552 514 515
f 515 553 552
f 588 552 553
f 553 589 588
f 596 588 589
f 589 597 596
f 485 484 438
f 438 439 485
f 125 124 61
f 61 62 125
f 191 192 227
f 227 226 191
f 226 227 270
f 270 269 226
f 314 269 270
f 270 321 314
f 62 61 13
f 13 12 62
f 320 322 249
f 249 248 320
f 596 597 547
f 547 548 596
f 485 548 547
f 547 484 485
f 339 340 383
f 383 382 339
f 461 417 418
f 418 462 461
f 439 438 361
f 361 360 439
f 360 361 322
f 322 320 360
f 323 362 440
f 440 486 549
f 549 598 590
f 440 549 590
f 590 554 516
f 516 463 419
f 590 516 419
f 440 590 419
f 419 384 341
f 341 324 271
f 419 341 271
f 271 228 193
f 193 149 96
f 271 193 96
f 419 271 96
f 96 58 22
f 22 14 63
f 96 22 63
f 419 96 63
f 440 419 63
f 63 126 172
f 440 63 172
f 323 440 172
f 250 323 172
f 249 250 172
f 172 170 249
f 149 193 192
f 192 148 149
f 96 149 148
f 148 95 96
f 58 96 95
f 95 57 58
f 22 58 57
f 57 21 22
f 14 22 21
f 21 13 14
f 172 126 124
f 124 170 172
f 324 341 340
f 340 321 324
f 384 419 418
f 418 383 384
f 463 516 515
f 515 462 463
f 516 554 553
f 553 515 516
f 554 590 589
f 589 553 554
f 590 598 597
f 597 589 590
f 486 440 438
f 438 484 486
f 126 63 61
f 61 124 126
f 193 228 227
f 227 192 193
f 227 228 271
f 271 270 227
f 271 324 321
f 321 270 271
f 61 63 14
f 14 13 61
f 323 250 249
f 249 322 323
f 598 549 547
f 547 597 598
f 549 486 484
f 484 547 549
f 341 384 383
f 383 340 341
f 419 463 462
f 462 418 419
f 438 440 362
f 362 361 438
f 362 323 322
f 322 361 362
f 101 111 145
f 145 175 239
f 239 260 302
f 302 350 371
f 239 302 371
f 145 239 371
f 371 435 465
f 465 499 509
f 371 465 509
f 145 371 509
f 509 502 476
f 476 442 395
f 509 476 395
f 395 349 315
f 315 261 215
f 395 315 215
f 509 395 215
f 145 509 215
f 215 168 134
f 145 215 134
f 101 145 134
f 108 101 134
f 360 359 423
f 423 439 360
f 171 162 187
f 255 214 241
f 369 396 355
