v -0.04803407192 -0.001399744651 0.1720000207
v -0.04802419245 -0.002908399794 0.2428361624
v -0.04796291515 -0.003078136127 0.2510443032
v -0.04794845358 -0.002741076984 0.234953627
v -0.04793877155 0.00435800571 0.2427827865
v -0.04791622236 -0.002582018729 0.2273682654
v -0.04791273549 -0.001658391557 0.1853718013
v -0.04790136963 0.003927784972 0.250977993
v -0.04787065461 -0.001795866527 0.1921099126
v -0.04784559458 -0.002424601931 0.2199947834
v -0.04784415662 -0.001946425531 0.1989129484
v -0.0478422977 -0.00152013544 0.1786752641
v -0.04783948883 -0.002106233966 0.2058130056
v -0.04783676192 -0.002263020491 0.2128265798
v -0.04780206457 0.004772922024 0.2349106818
v -0.04776544496 -0.003257189179 0.2595783174
v -0.04776197299 0.003498661099 0.25951159
v -0.04771062359 0.005191534758 0.2273349762
v -0.04759549722 0.005603961647 0.2199683934
v -0.04752470925 0.00602404587 0.2128085345
v -0.04747287557 0.006422089413 0.2057994753
v -0.0474598296 0.003070699284 0.2683628798
v -0.04743357003 0.006809927523 0.1989063323
v -0.04742297158 -0.003477288177 0.268422246
v -0.04738856852 0.007173434831 0.1921076477
v -0.04737664759 0.008200384676 0.1720000207
v -0.04733303562 0.007513270713 0.1853712648
v -0.04724800587 0.007841678336 0.1786746681
v -0.0471320115 -0.01003714651 0.2508657575
v -0.04711744189 -0.01011401042 0.242697984
v -0.04704263806 0.002661362756 0.277528286
v -0.04701929167 0.01029699761 0.2591660619
v -0.04701304808 -0.009997616522 0.2593506277
v -0.04701135308 0.01095411927 0.250685215
v -0.04700370505 -0.003787663765 0.277577728
v -0.04698298872 -0.01018975955 0.234842211
v -0.04689485952 -0.01028295793 0.2272706032
v -0.0468354784 0.009675233625 0.2679459751
v -0.0467957668 0.01161098387 0.2425442487
v -0.04679492861 -0.01037052274 0.2199113071
v -0.04674835503 -0.0108405333 0.1720000207
v -0.04673871771 -0.01045868639 0.2127535194
v -0.04673136771 -0.01000718959 0.2681116462
v -0.0467219986 -0.01053927839 0.2057508975
v -0.04667888582 -0.01066035684 0.1920707822
v -0.04667783901 -0.01060128585 0.198862046
v -0.04667458311 -0.01070950739 0.1853450239
v -0.04659585282 -0.01075001992 0.1786612868
v -0.04658041522 0.002291373909 0.2869076431
v -0.04657304659 0.00916258432 0.27703619
v -0.04652333632 -0.004200636875 0.2869385779
v -0.04651286453 0.01226582285 0.2347215563
v -0.04640064389 -0.01018345729 0.2771420479
v -0.04632610828 0.008826181293 0.2863386571
v -0.04625496268 0.01292238291 0.2271745652
v -0.04621533677 0.001965271775 0.2963297963
v -0.04618094116 -0.004755294882 0.296304822
v -0.04613718018 -0.01067927293 0.286344856
v -0.04610299319 0.0087193707 0.295704633
v -0.04595285282 0.01355561242 0.2198376656
v -0.04595121741 0.001653446816 0.305445224
v -0.04594701156 -0.01148464624 0.2955561876
v -0.04593014345 -0.00545808021 0.3054315746
v -0.04589885101 0.008798084222 0.3049093187
v -0.04581942409 -0.01251142472 0.3046217263
v -0.04573884979 0.01422406547 0.2127010524
v -0.04572599381 0.0159019623 0.3035557866
v -0.04568882659 0.0155132059 0.2944337726
v -0.04565613344 -0.00619282946 0.3143203855
v -0.04565225169 0.001359500922 0.3144451678
v -0.04564192519 0.008884546347 0.3138687611
v -0.04563385248 -0.01361647993 0.313408792
v -0.0455981493 0.01638511755 0.312474966
v -0.04553065076 0.01483236253 0.2057143748
v -0.04547772557 0.01542118751 0.2852331996
v -0.0454482846 -0.01950192079 0.3031087816
v -0.04542890936 0.0163038373 0.2671940923
v -0.04542442039 0.01571271941 0.2760926187
v -0.04539460689 -0.01667617075 0.2588789463
v -0.04538829997 -0.01813520119 0.294231534
v -0.04536288604 -0.02093085274 0.3118019402
v -0.04532628134 -0.01691545732 0.2504885197
v -0.04532513022 0.01709798165 0.2585665584
v -0.04531272128 0.0154010281 0.1988398433
v -0.04529677331 -0.01653436385 0.2674943507
v -0.04517436773 0.02378041856 0.310336262
v -0.04515871033 -0.01719741523 0.2424052805
v -0.04515036196 0.01595319249 0.1920609176
v -0.04512451962 -0.01713915542 0.285253495
v -0.0450918749 -0.01661752723 0.2763112187
v -0.04508042336 0.01666288823 0.3214181662
v -0.04505171999 -0.006823330186 0.3230640888
v -0.04505049065 -0.01459494792 0.3221846819
v -0.04504745454 0.001037125941 0.3232029974
v -0.04504726827 0.008882579394 0.3226627707
v -0.04501514509 0.02302056924 0.3014665842
v -0.04495117813 0.01647017151 0.1853412092
v -0.04494563863 0.0179195106 0.2501901984
v -0.04493905976 -0.02217770554 0.320633173
v -0.04487840459 0.02423880436 0.3195017576
v -0.04486936703 -0.01747306809 0.2345967293
v -0.04475308955 0.01695941016 0.1786600947
v -0.04471654817 0.01750992611 0.1720000207
v -0.04465707392 -0.01778447442 0.2270629406
v -0.04457342625 0.02231241763 0.2925720513
v -0.04450898618 0.01877198368 0.242157042
v -0.0444646664 -0.02815014869 0.309442848
v -0.04445227236 -0.01809607819 0.2197327316
v -0.04435567185 -0.02632548474 0.3009067476
v -0.04428238049 -0.02960824221 0.3183630705
v -0.04427736625 -0.0184016712 0.2126003206
v -0.04412925988 -0.01867085509 0.2056217343
v -0.0440252535 -0.01893501543 0.1987617463
v -0.04401526973 -0.02467053384 0.2924025357
v -0.04399457574 0.01960801333 0.2344090343
v -0.04390468821 0.03164421394 0.3168641031
v -0.0439046137 -0.01915608905 0.1919957399
v -0.04389887676 0.02423753031 0.3290390968
v -0.04388447478 0.01654605381 0.3305372894
v -0.04386281967 0.02200660855 0.2836535573
v -0.04380964488 -0.01522515807 0.3310247958
v -0.04379750416 0.008693127893 0.3314753771
v -0.04379060492 -0.02299680375 0.3297656775
v -0.0437855497 -0.01935171522 0.185295701
v -0.04378115386 -0.0198099222 0.1720000207
v -0.04376480356 -0.007282060571 0.3317416906
v -0.04375191778 0.0007006359519 0.3318808973
v -0.04373981431 0.03102342784 0.3074611425
v -0.04366324842 -0.01953681931 0.1786366999
v -0.04349976778 0.02045802213 0.2269157618
v -0.04348657653 -0.03050166741 0.3278749585
v -0.04342278093 0.03158612177 0.3269927204
v -0.04328135028 -0.023511298 0.283809185
v -0.04323453829 0.02220719308 0.274831742
v -0.04313839599 0.02993046679 0.2987100184
v -0.04301495478 0.02132783085 0.2196213007
v -0.04292233288 -0.02296070941 0.2752269506
v -0.04290152341 0.02288716473 0.2662113309
v -0.0428632237 -0.02291970327 0.2666862011
v -0.04281377792 -0.03626244888 0.3156508207
v -0.04273635894 -0.02318832092 0.2582608759
v -0.04265840352 -0.03702038899 0.3257181644
v -0.04253215715 0.02213304304 0.2125328481
v -0.04245140031 -0.02356816083 0.25001055
v -0.04244008288 0.02375974506 0.2577956617
v -0.042417638 -0.0347215943 0.3064433336
v -0.04239538312 0.03806518763 0.3246516585
v -0.04214579239 0.02891056985 0.2902287543
v -0.04209686816 0.02289308608 0.2055802494
v -0.04202887416 -0.02398048341 0.2420235574
v -0.0419816412 0.03823550791 0.3137410283
v -0.04180094972 0.02370418794 0.3387680948
v -0.04178055003 -0.03272213787 0.298137784
v -0.04177956656 0.02468090691 0.2495867312
v -0.04175405577 -0.02327437326 0.339078486
v -0.04173922911 0.03095902503 0.337423861
v -0.04171628132 0.01607576199 0.3397786319
v -0.04167160764 -0.0307453759 0.3377160132
v -0.04166044667 -0.0155031886 0.3400130868
v -0.04164030775 0.02359621227 0.1987352371
v -0.04160623625 0.008278204128 0.3404327333
v -0.04157461971 -0.007602016442 0.3405620754
v -0.04155007005 0.0003547783708 0.340700686
v -0.04154170677 -0.02441179194 0.2342778444
v -0.04137173668 0.03743224218 0.3358612061
v -0.04133797809 -0.03714547679 0.3361760974
v -0.04130700603 -0.04200785607 0.3239115775
v -0.04124910757 0.02427042648 0.1919856369
v -0.0411522612 -0.02490704693 0.2267842293
v -0.04105651379 -0.03095125593 0.2901374996
v -0.04101096466 0.02565604076 0.2416890562
v -0.04095912352 0.04313666746 0.3227585554
v -0.04091467708 0.02842524648 0.2817911208
v -0.04087441787 0.02490493096 0.1852927506
v -0.04073454067 0.04250938818 0.334510833
v -0.04073273391 -0.02536835149 0.219488591
v -0.04068952426 -0.04183938727 0.3348520696
v -0.04060382023 0.03745962679 0.3039827347
v -0.04047501832 0.02547829039 0.1786375046
v -0.04039381817 -0.04161215201 0.3133040071
v -0.04038942978 -0.02584756725 0.2123904973
v -0.04029346257 0.02616801672 0.1720000207
v -0.04017658532 0.02660995349 0.2340298593
v -0.04010602459 -0.02966051735 0.2821436226
v -0.04008859769 -0.02627756074 0.2054466903
v -0.03989118338 0.02854569629 0.2734224498
v -0.03978759423 -0.02664735354 0.1986201853
v -0.0395398587 -0.026992267 0.1918926388
v -0.03949132934 -0.02903106809 0.2740248144
v -0.03946674615 0.04618743435 0.3335230947
v -0.03940643743 0.03622541577 0.2954647541
v -0.0393361859 0.02758730017 0.2266032398
v -0.03929865733 -0.02730265632 0.1852271259
v -0.03922452405 -0.04598490521 0.3227133453
v -0.03917932138 -0.04572500288 0.3337814212
v -0.03915489465 -0.02894851938 0.2658188045
v -0.0391243957 0.02914957516 0.2651376128
v -0.03907989711 0.04327503964 0.3114490509
v -0.0390675962 -0.02756635845 0.178604424
v -0.03905980289 -0.02795713767 0.1720000207
v -0.03883810714 0.04681041092 0.3216795325
v -0.0388353467 -0.04036207497 0.3037099838
v -0.03877711296 -0.02924372256 0.2576183677
v -0.03853210807 -0.0306244567 0.3474777937
v -0.03852397203 0.02853361703 0.2193733305
v -0.03850318119 -0.0368639864 0.3464593291
v -0.03848894686 0.03013878316 0.347618103
v -0.03847068176 -0.02329861 0.3483982086
v -0.03843927383 0.0229743626 0.3484436572
v -0.03841744736 0.03654125705 0.3466642797
v -0.03834015504 0.01549656317 0.3490796685
v -0.03833569586 -0.01561739761 0.3490748405
v -0.03828179091 -0.02969455346 0.2495243251
v -0.03826507553 0.02999662608 0.2569842041
v -0.0382325314 0.007821480744 0.3494844735
v -0.03822986782 -0.007814212702 0.3494924307
v -0.03821174428 -0.04155445844 0.3455109894
v -0.03820939362 0.04165323079 0.3457964957
v -0.03819283471 1.726974733e-05 0.3496294618
v -0.03782290965 0.02946373075 0.2123281956
v -0.03775325418 0.03504387662 0.2876967788
v -0.03766928986 -0.03023099154 0.2416199297
v -0.03750893101 -0.03842731193 0.2953967452
v -0.03748622909 0.04543525726 0.344971776
v -0.03741581365 0.04831773043 0.3328114152
v -0.03732438385 -0.04578791186 0.3120172322
v -0.03724958003 -0.04543025419 0.3445633352
v -0.0372405611 0.03094118461 0.2490063459
v -0.0371179916 0.03031024709 0.205419302
v -0.0369826667 -0.03077768348 0.2339285165
v -0.03668867797 -0.04852781072 0.3329452574
v -0.0364052169 -0.03668093681 0.2880463302
v -0.03640295565 0.03108311817 0.1986148804
v -0.03639676049 -0.03140771389 0.2264778018
v -0.03629998118 0.0486596562 0.3213259578
v -0.03619305417 0.04275505617 0.3014852405
v -0.03617788106 0.03430178016 0.2799395621
v -0.03615352884 0.03195504844 0.2412206084
v -0.03611588478 -0.04862871021 0.3222129345
v -0.0359214507 0.04709426314 0.3104496002
v -0.03583279252 0.04792194068 0.3440361917
v -0.03577222675 -0.03202824667 0.2192195654
v -0.03573483601 0.0317960009 0.1919022352
v -0.03529099375 -0.03521328792 0.2806843519
v -0.03517254815 -0.03257020935 0.2121575177
v -0.03513288125 0.03246045485 0.1852390766
v -0.03511597589 -0.04842117056 0.3434283733
v -0.03498039395 0.03297519311 0.2336513102
v -0.03491051868 0.03420531005 0.2720883191
v -0.03489734605 0.04925219715 0.3322221637
v -0.03464342281 -0.03307700902 0.2052517831
v -0.034591306 -0.03440313414 0.272993058
v -0.03450717404 -0.04481045529 0.3022916913
v -0.03448045999 0.03301167116 0.1786113679
v -0.03439999372 0.04875219613 0.3321694136
v -0.03414007649 -0.03352137282 0.1984609663
v -0.03413531929 -0.03426527604 0.2650826275
v -0.03405120224 0.03371607512 0.1720000207
v -0.03387981281 -0.0364882201 0.3560898304
v -0.03384517133 -0.03037050925 0.3567953706
v -0.03384075314 0.03400384262 0.2262889892
v -0.03383781016 -0.04126293957 0.3554483652
v -0.03380819783 0.03463188186 0.2641845644
v -0.03372121975 -0.02323381975 0.3574333191
v -0.03370569646 -0.05245220289 0.3313318789
v -0.03369890526 -0.03392025083 0.1917734742
v -0.03369356692 -0.05880220234 0.3310790658
v -0.03366918489 -0.03457602859 0.2570667565
v -0.03361006826 0.02943454683 0.357236445
v -0.03360274062 0.03580166772 0.3566280007
v -0.03358158842 -0.01566180773 0.3579351902
v -0.0335758999 0.04925189912 0.3429797292
v -0.03354788572 0.02235590667 0.3577342629
v -0.03353045136 0.04925220087 0.3213087618
v -0.03352070227 0.04146052152 0.2930393815
v -0.03350076824 -0.04861645401 0.3118111491
v -0.03348374739 0.0410094671 0.3560450077
v -0.03347367793 0.01497498155 0.3581175506
v -0.03347059339 -0.04515392706 0.3547309935
v -0.03346425295 -0.007980820723 0.3582633734
v -0.0334123075 0.007400306873 0.3583496213
v -0.03340107203 -0.0002677877201 0.3583989739
v -0.03334058076 0.04144192487 0.3316492736
v -0.03333520144 -0.03429735452 0.1851503551
v -0.03312110156 -0.05028687418 0.3322055638
v -0.03309496492 0.04875193909 0.3428173661
v -0.03303347155 0.04875219986 0.3213624358
v -0.03302224725 -0.03507686034 0.2490991652
v -0.03298684582 0.04478720576 0.3553721011
v -0.03296204284 -0.03455880284 0.1785668582
v -0.03279076144 -0.03496526554 0.1720000207
v -0.03271953389 -0.05880220234 0.3411929607
v -0.0327055417 0.03497425094 0.219120115
v -0.03267373145 0.03536304086 0.2563058436
v -0.03265724331 -0.05245220289 0.3414651752
v -0.0325983651 0.04880745336 0.3105035424
v -0.03223593906 -0.05245219916 0.3211969137
v -0.0322115086 -0.03568375856 0.2412633002
v -0.0321890004 -0.05006857216 0.3221637607
v -0.03218279779 -0.05880220234 0.3209868968
v -0.03206881136 0.04152259976 0.3421018124
v -0.03186640516 -0.04311121255 0.2938375175
v -0.031854745 -0.05010415986 0.3420632184
v -0.03180713952 0.04144635051 0.3209588826
v -0.03172505647 0.0475320816 0.35431692
v -0.03172293678 0.04658221453 0.3007114828
v -0.03166881204 0.03592483327 0.2121197581
v -0.03163617104 -0.04829964787 0.3533404469
v -0.0314315483 0.036342673 0.2485085875
v -0.03139044344 0.04008236527 0.2857765555
v -0.03130220249 -0.03632079065 0.2336028665
v -0.03065429628 0.03677151725 0.205255717
v -0.03044026718 -0.03702355921 0.2261757255
v -0.03018167242 -0.04135157168 0.2868326604
v -0.03003070876 0.03733434528 0.2408290803
v -0.0297595039 0.04923954606 0.352927357
v -0.02974266931 0.03906360641 0.2784009278
v -0.02968836203 0.03753852844 0.1984958351
v -0.02961228415 0.04925220087 0.3109764159
v -0.02952492982 -0.05880220234 0.3506686091
v -0.02952122688 -0.0376512669 0.2189444005
v -0.02951266989 -0.04808546975 0.3021618426
v -0.02939872071 -0.05245220289 0.350952208
v -0.02932772785 -0.05245220289 0.3315769136
v -0.02932617441 -0.05075220391 0.3316558301
v -0.02930244058 0.048740834 0.3526479006
v -0.02912592143 0.04875219986 0.3111153841
v -0.02912085503 -0.05000025034 0.3123835325
v -0.02909189463 -0.03971534222 0.2797058523
v -0.02875492722 0.03822315112 0.1918191314
v -0.02873588353 -0.04995446652 0.3514674008
v -0.02870967612 -0.03828719631 0.2119125426
v -0.0286549516 -0.05880219862 0.311316222
v -0.02860251069 -0.05245219916 0.3115000427
v -0.02854732051 0.03837356716 0.233333379
v -0.02848732099 0.04153004661 0.3518275321
v -0.02844662592 -0.03865850344 0.272251904
v -0.02838116512 0.03858461604 0.27096802
v -0.02830170095 -0.05245220289 0.3407354355
v -0.02828294784 -0.05075220391 0.3408285677
v -0.02806812525 -0.05075220019 0.3224385083
v -0.02803732827 -0.05245219916 0.3223818243
v -0.0280045718 -0.03836425021 0.2645494938
v -0.02794926614 -0.0388446264 0.2050491571
v -0.02789888158 0.03882941604 0.1851879656
v -0.0277201198 0.04153879732 0.3107814789
v -0.02756408229 -0.03613850102 0.3648149371
v -0.02754672244 -0.04095898941 0.364313215
v -0.02754023671 -0.03875143453 0.2566858828
v -0.02749386802 -0.03006220795 0.3653208017
v -0.02737711743 -0.02310169116 0.3658082485
v -0.02723869681 0.0454925634 0.2922986746
v -0.02723387629 -0.03932869434 0.1983048022
v -0.02723081037 -0.01567320898 0.3661940098
v -0.02720448747 -0.04476149008 0.3636085689
v -0.02711897343 0.0386867635 0.2633946836
v -0.02709657699 -0.008108929731 0.3664529324
v -0.02709143981 0.03937172517 0.1785835624
v -0.02704472467 0.03934813291 0.226006791
v -0.02700458281 -0.0005134018138 0.36658144
v -0.02699126489 0.02892513201 0.3658734262
v -0.02698600851 0.02188237384 0.3662046194
v -0.0269735083 0.007056708448 0.366589278
v -0.02697279118 0.01454740576 0.3664530516
v -0.02696171775 0.03536293283 0.3654692173
v -0.02691472881 0.04075522348 0.3650850356
v -0.02680547722 -0.03939262405 0.2487931252
v -0.02675200813 0.04866785184 0.3010100722
v -0.02667435072 0.04443056136 0.3646125793
v -0.02658122592 -0.03972733393 0.1916610748
v -0.02641167492 0.03999802843 0.1720000207
v -0.02604749799 -0.04007945955 0.1850766391
v -0.02592775412 0.0394920893 0.2557989657
v -0.02582990378 -0.04790176451 0.3620916009
v -0.0258275345 -0.04008936882 0.240990907
v -0.02574981377 0.04734103009 0.3635315895
v -0.02561201155 0.04031709582 0.2188847065
v -0.02555765025 -0.04033070803 0.1785271913
v -0.0253221076 -0.04708868638 0.2936279178
v -0.02530194633 -0.05245220289 0.3492904902
v -0.02526619099 -0.04074586928 0.1720000207
v -0.025249511 -0.05075220391 0.3493730426
v -0.02472811565 -0.05075220019 0.3137295544
v -0.02468951233 -0.05245219916 0.3136901557
v -0.02468283102 -0.04080602154 0.2333358824
v -0.0245857276 0.0406046398 0.2481601983
v -0.02430710383 -0.05880220607 0.3590276837
v -0.02420884743 0.04116698727 0.2119259387
v -0.02410355769 -0.05245220289 0.3593300581
v -0.02392510884 0.04379663244 0.2844593525
v -0.02387095615 -0.04983556271 0.3033515513
v -0.02382696047 0.04922623932 0.3616367877
v -0.02351755835 -0.04151119664 0.2259004116
v -0.02350493893 -0.04976286367 0.3597921133
v -0.0234294422 0.04872883484 0.3612575531
v -0.02322814614 0.0492522046 0.3018418849
v -0.02299384587 -0.04495894164 0.2864714861
v -0.02291309461 0.04155209661 0.2405783832
v -0.02287272923 0.04193098098 0.2050996274
v -0.02283807658 0.04151882231 0.3604214489
v -0.02275803871 0.04875220358 0.3020604551
v -0.02270577662 -0.05245219544 0.3026003242
v -0.02256684564 -0.05880219489 0.3026285768
v -0.02231481485 -0.04217723757 0.2186875492
v -0.0220366735 0.04231482744 0.2770745754
v -0.02200934291 -0.04282944649 0.2791767716
v -0.02161952853 0.0425933525 0.1983858347
v -0.021478815 -0.04152593762 0.2717630267
v -0.02116584592 -0.04276798293 0.2116796672
v -0.02113247663 -0.04111361504 0.2641591132
v -0.0211263597 0.0425273031 0.2331189364
v -0.02109563164 0.04152298719 0.3016601801
v -0.02071794122 -0.04152961448 0.2564271688
v -0.02069300599 0.04159082845 0.2699587047
v -0.02051461861 -0.05245220289 0.356796056
v -0.02046816424 -0.05075220391 0.3568808436
v -0.02043661289 0.04315423593 0.1917444319
v -0.02014363743 -0.04333129525 0.2048556954
v -0.02001435682 -0.04245204851 0.2486266196
v -0.01991756819 0.04025219381 0.3309090734
v -0.0198390428 0.05235219374 0.3301517069
v -0.01957253739 -0.0407788679 0.3717478812
v -0.01953584701 -0.03583256155 0.3721448481
v -0.0195179414 0.04150948673 0.2627125978
v -0.01945726573 -0.05075219646 0.305806309
v -0.01943904534 -0.0298062209 0.3725497425
v -0.01942595653 -0.05245219544 0.3057130575
v -0.01939074323 -0.04460423067 0.3711486757
v -0.01934783533 0.04364823923 0.1851482093
v -0.01932902075 -0.02295759134 0.3729596436
v -0.01930776052 0.05235219374 0.3378201425
v -0.01927261427 0.04342973977 0.2258001566
v -0.01920457371 0.04025219381 0.338388145
v -0.01918412931 -0.04376810789 0.1981596202
v -0.01918337867 -0.01566106454 0.3732746243
v -0.01903742552 -0.008208698593 0.373483777
v -0.01892936416 -0.0007163376431 0.373609513
v -0.01886454597 0.006768013351 0.3736490607
v -0.01885897294 -0.04330551624 0.2408472151
v -0.01883076131 0.01419532765 0.3735821843
v -0.01878435165 0.0214984268 0.3733815253
v -0.01875135303 0.04025219381 0.3234507442
v -0.01874212548 0.02853602543 0.3731300235
v -0.01868663169 0.03494688869 0.3728238344
v -0.01862780936 0.04031031206 0.3725209236
v -0.01845406182 0.04407338053 0.3721239865
v -0.01838772371 0.05235219374 0.3225754201
v -0.01838626713 -0.04781729728 0.3694587946
v -0.0183410868 0.04223970696 0.255384475
v -0.01833255775 -0.04412617907 0.1915543079
v -0.01833134145 0.04403163865 0.1785668135
v -0.01796004362 0.04844892398 0.2915332317
v -0.01779974438 0.04710362479 0.3711418509
v -0.01761354133 -0.04439107329 0.1850109398
v -0.01751386747 -0.05880220234 0.3661381006
v -0.01746556722 0.04429095984 0.2186762244
v -0.01743030548 0.04450270906 0.1720000207
v -0.0174034927 -0.04404774308 0.2331626564
v -0.0172394067 -0.05245220289 0.3664236963
v -0.01699797809 -0.04459022731 0.1784945279
v -0.01691810228 0.04332818836 0.2479479611
v -0.01689942367 0.05235219002 0.3450072408
v -0.01672979444 0.04025219008 0.34537673
v -0.0165570844 -0.04979713261 0.3666332066
v -0.01654577628 -0.0449157767 0.1720000207
v -0.01620556414 -0.04953632504 0.2942604721
v -0.01615527086 0.04922079295 0.3686996996
v -0.01585807651 -0.04471952468 0.225687772
v -0.01584308594 0.04872392863 0.3682417572
v -0.01571941562 0.04498578236 0.2117515504
v -0.01562328637 0.04025219381 0.3163974285
v -0.01533127949 0.0415045172 0.3673229516
v -0.01514529437 0.04450048506 0.2404872626
v -0.01505190693 0.05235219374 0.315539062
v -0.01499414816 -0.04746697843 0.285771817
v -0.01487809792 0.04631413147 0.2827013731
v -0.01443151385 -0.04493768513 0.2786099911
v -0.01429470628 -0.04533987865 0.2184580415
v -0.0142696891 -0.05245220661 0.363140583
v -0.01418567635 -0.0433595404 0.2712913156
v -0.01417906955 -0.05075220764 0.3631780744
v -0.0141337458 0.04925220087 0.2940028608
v -0.01405746676 0.04555886611 0.2049760222
v -0.01401543058 -0.05880219862 0.2953097522
v -0.01399306953 -0.04281666502 0.263782382
v -0.01397703215 -0.05245219916 0.2952538133
v -0.013720477 0.04875219986 0.2943268418
v -0.01364789344 -0.04317216203 0.2561823726
v -0.01313564554 0.04446129873 0.2755667269
v -0.01305659674 0.04531874135 0.2330298275
v -0.01288154349 -0.04412393272 0.2485321462
v -0.01287080161 0.05235219002 0.3512879908
v -0.01282027923 -0.04589344189 0.2114707679
v -0.01272986643 0.04025219008 0.3514657021
v -0.01251513697 0.04602222145 0.198305279
v -0.01215131022 0.04346590117 0.2689493001
v -0.01192241162 0.0415629372 0.2943403423
v -0.01174441352 -0.05075220019 0.299030751
v -0.01164462976 -0.05245219916 0.2989861369
v -0.01159950718 -0.0453886725 0.2408464253
v -0.01146472245 -0.04629305378 0.204691112
v -0.01128047891 0.0431933701 0.2620950341
v -0.01109512337 0.04637931287 0.1917079687
v -0.01082761586 0.04604703933 0.2256951332
v -0.01068171114 0.04025219381 0.3102046847
v -0.01027086005 0.04361816496 0.2550442219
v -0.0102358833 -0.04661762342 0.1980390996
v -0.01016897708 -0.04059728608 0.3773941696
v -0.01011155546 -0.04450828955 0.3768346906
v -0.01008039154 -0.0356034115 0.3777242005
v -0.009956585243 -0.02961491421 0.3780556917
v -0.00990726985 0.05235219374 0.3095487356
v -0.009812247008 0.04666780308 0.1851404756
v -0.009811695665 -0.02284387685 0.3783705831
v -0.00978786312 -0.04600828141 0.2331297398
v -0.00965792872 -0.01564450376 0.3786381781
v -0.009497620165 -0.008292941377 0.3788012266
v -0.009456073865 -0.0477841869 0.3749754429
v -0.009365329519 -0.0008862935938 0.3789013326
v -0.00926405564 0.006518088281 0.378936857
v -0.009183691815 0.01388353948 0.3788898587
v -0.009163791314 -0.0468416065 0.1914756894
v -0.00910439156 -0.05880220607 0.3714775145
v -0.009103614837 0.02112313174 0.3787257373
v -0.009027890861 0.0280928202 0.3785169125
v -0.008948577568 0.03440898284 0.3782673776
v -0.008886897936 0.04463607818 0.2478585839
v -0.008872987702 0.03979092836 0.3780137002
v -0.008777359501 -0.05245220661 0.3716497123
v -0.008738385513 0.04371131957 0.3776528835
v -0.008640358225 0.0468922779 0.1785763055
v -0.008579490706 0.04660920799 0.2185462117
v -0.008291477337 0.04701048136 0.376639694
v -0.008260929957 -0.04699592665 0.1849692613
v -0.008208042011 -0.04984663054 0.3718254566
v -0.007803059649 -0.04657237604 0.2255579829
v -0.007585142273 0.0473258011 0.1720000207
v -0.007528578397 0.05235218629 0.3563506901
v -0.007519179489 -0.04709470645 0.1784808934
v -0.007481521461 0.04025219008 0.3563901484
v -0.007164602634 0.04922037199 0.3738428354
v -0.007045072038 0.04589500651 0.2405450791
v -0.006947936025 0.0487235561 0.3733253777
v -0.006927981507 -0.04733099043 0.1719999909
v -0.006762167905 -0.04365257919 0.2633262575
v -0.006640686188 -0.05245220661 0.3677619398
v -0.006558289286 -0.05075220764 0.3677970469
v -0.006550798658 0.04151840508 0.3723104
v -0.006538771559 -0.04383696243 0.2559409738
v -0.006529749837 -0.04437272251 0.270585686
v -0.006443204824 0.04703703895 0.211636439
v -0.005901052151 -0.0461974591 0.2775518
v -0.005798886996 -0.04702627659 0.2183164805
v -0.005749005359 -0.04465199262 0.2484968305
v -0.00480720913 -0.04834851995 0.2840161324
v -0.004706163425 0.04665569589 0.2331519425
v -0.004486795049 0.0473396033 0.2049276829
v -0.004286804702 -0.04591232166 0.2409346253
v -0.004064242821 0.04025219753 0.3053448796
v -0.003881534096 -0.04735342786 0.2113286108
v -0.003294378519 0.05235219747 0.3049875498
v -0.003256938886 -0.05880219862 0.2899475992
v -0.002977478784 -0.04988703877 0.290074259
v -0.002925385721 0.04422587529 0.2679726481
v -0.002867760602 -0.05245219916 0.2898020446
v -0.00277644163 0.04366729036 0.2615622282
v -0.002698265016 0.04542759433 0.2740516365
v -0.002693391405 0.04752013087 0.1983151585
v -0.002171190456 -0.04754588008 0.2045801282
v -0.002152165398 0.04725510627 0.2797729373
v -0.002144671045 0.04380466044 0.2548365593
v -0.002143036574 -0.04679149762 0.233284235
v -0.00206920132 0.04702947289 0.2257885486
v -0.001426251605 -0.05075220019 0.2940401733
v -0.001425963361 -0.05245219916 0.2940244079
v -0.001281782519 0.04873144254 0.2856538892
v -0.001271736808 0.04025219008 0.3599595726
v -0.001189214177 0.05235219002 0.3599927425
v -0.001105063129 7.248681504e-05 0.1719999611
v -0.00109504303 0.04759455845 0.1917519569
v -0.0009781848639 0.04447123408 0.2479315847
v -0.0006638402119 -0.04763123766 0.1979975253
v -0.0003650565632 0.04925220087 0.2880440056
v -0.0002452945337 0.04875219986 0.2885237038
v 0.0003202005755 -0.05880220607 0.3750922978
v 0.0003206019755 0.04761277139 0.1851988137
v 0.0003258308861 0.04163821414 0.2894363701
v 0.0003307280131 -0.04041033238 0.3808558285
v 0.0003424328752 -0.04428305104 0.3801997602
v 0.0003678130452 -0.04364895076 0.2627645433
v 0.0003911112435 -0.04708534107 0.2256685495
v 0.0003947422374 -0.04363961145 0.2557047904
v 0.0004461416975 -0.03545542434 0.3811561465
v 0.0005965430755 -0.0294914078 0.381447494
v 0.0006268545985 -0.04768117517 0.1914753914
v 0.0006278636865 -0.05245220661 0.3751916289
v 0.0006311777979 0.04721201956 0.2185879797
v 0.000638512196 -0.0475919731 0.3782167435
v 0.0007656174712 -0.02277410589 0.3816990852
v 0.0009091086686 0.04551910609 0.2408403903
v 0.0009378169198 -0.0156531781 0.3818995655
v 0.00110673462 -0.008376478218 0.3820261359
v 0.001117743785 -0.04446045309 0.2696076632
v 0.00114680361 -0.04981925339 0.3749836683
v 0.001187192742 -0.0442420803 0.2485169768
v 0.001256333664 -0.001041961135 0.3820944428
v 0.001389934216 0.006300230511 0.3820891678
v 0.001496966695 0.01360734273 0.3820400834
v 0.001576482086 0.04754468054 0.1786097288
v 0.001600641059 0.02079216205 0.3818787038
v 0.001696973573 0.02770516835 0.3816690743
v 0.001696989173 -0.04765595496 0.1849935651
v 0.001783053158 0.03397854045 0.3814235926
v 0.001813350478 -0.05245220661 0.3708818257
v 0.001862015808 0.03930819035 0.3811784089
v 0.001891152235 -0.05075220764 0.3708672225
v 0.001962115755 0.04342723265 0.3807881474
v 0.002157722833 0.04689478874 0.3797590733
v 0.002542726696 -0.04757766798 0.1785038561
v 0.002707282081 0.04761547595 0.1720000356
v 0.0027359128 0.04922037572 0.3767178059
v 0.002769233193 -0.04524046555 0.2411866933
v 0.002802493284 -0.04623408988 0.2760790884
v 0.002836999716 0.04872354865 0.3761761189
v 0.002940815408 -0.04718835279 0.2183085084
v 0.003091197461 0.04149100184 0.3751260638
v 0.003178065177 0.04725033417 0.2117011845
v 0.003227907699 -0.04769093916 0.1720000505
v 0.003512866329 0.04638039321 0.2336416841
v 0.003898278344 0.04025219753 0.3023474813
v 0.004398969933 0.05235219747 0.3022519052
v 0.005277120508 -0.04618275911 0.2336900234
v 0.005312830675 -0.04711527377 0.2113566399
v 0.005430425983 0.04717943817 0.2050348818
v 0.005513901357 0.04286743328 0.2611514032
v 0.00556116784 0.04025219008 0.3619538546
v 0.005650517531 0.04275960848 0.2547877133
v 0.005788376089 0.05235219002 0.3620491922
v 0.005956559442 -0.04823921993 0.2818269432
v 0.00610647304 0.04360290617 0.2671383619
v 0.006526721641 0.04649382085 0.2262319624
v 0.006534777582 0.04308575019 0.2482236028
v 0.006947996095 -0.04248105362 0.2555169165
v 0.007023085374 -0.04265811294 0.2622054517
v 0.007406608202 0.04695182294 0.1984726489
v 0.007425193675 -0.04691962525 0.2046353817
v 0.007675854489 0.0448811315 0.2727106512
v 0.007707985118 -0.04281790555 0.2486491799
v 0.008055424318 -0.04354342446 0.2685692906
v 0.008237058297 0.04372718558 0.2414460778
v 0.008351514116 -0.04628230259 0.2260979414
v 0.008850957267 -0.05880219862 0.28793028
v 0.009093545377 0.04668357596 0.1919444203
v 0.009192287922 -0.04664923996 0.1980993748
v 0.009268989787 -0.04345278069 0.241628781
v 0.009717498906 0.04613247514 0.218988955
v 0.009723133408 -0.05245219916 0.2878783345
v 0.01018200256 -0.04496749118 0.2744674981
v 0.01018462703 -0.05880219117 0.3338760436
v 0.01042972691 -0.05245219916 0.2922812402
v 0.01054668427 0.04638493434 0.1853592098
v 0.01056151278 -0.05880220607 0.3760408759
v 0.01061902754 0.04653031379 0.2777751088
v 0.01066667773 -0.04637888819 0.1916270107
v 0.01072013285 -0.05075220019 0.2922719121
v 0.01075583324 -0.05245220661 0.3760411143
v 0.01085153036 -0.05245220661 0.371661067
v 0.01090233866 -0.05075220764 0.3716718256
v 0.01098015532 0.04443681613 0.2344678938
v 0.01106606983 -0.04981844127 0.3760611415
v 0.01117560826 -0.04760974273 0.3794554472
v 0.01131021138 -0.04420385882 0.3813766837
v 0.01145143621 -0.04033828899 0.3819065094
v 0.01150436886 -0.04582924023 0.218719393
v 0.01157178544 0.05235219747 0.3325617313
v 0.01159004029 -0.03536716476 0.3821741343
v 0.01175359823 -0.02943499386 0.3824298084
v 0.01176208816 0.0460100919 0.1787017584
v 0.0118323369 -0.04607438296 0.1851231158
v 0.01192687079 -0.02276958525 0.382643342
v 0.01197357569 -0.04399614409 0.2344419956
v 0.01209005155 -0.049964834 0.2879091203
v 0.0121037811 -0.01570747979 0.3827853501
v 0.01228001527 -0.008484360762 0.3828899264
v 0.0123738572 0.04025219753 0.3017042577
v 0.01243535429 -0.001197239384 0.3829308748
v 0.01247118227 0.05235219747 0.3017114401
v 0.01257835701 0.006104125641 0.3828900754
v 0.01261071675 0.04025219008 0.3622819483
v 0.01264492795 0.04017227143 0.2549784482
v 0.01267564669 0.04554810375 0.2120775878
v 0.01269559003 0.01337594818 0.382789731
v 0.01271355525 -0.0458022058 0.1785892844
v 0.01280087605 0.02054207586 0.3826239705
v 0.0128556639 0.04584898427 0.1720000505
v 0.0128734 -0.04008024186 0.2554630935
v 0.01289769262 0.02744000591 0.3824144602
v 0.01293022186 0.04045814648 0.2609597743
v 0.01297796145 0.04872355238 0.3767222464
v 0.0129838232 0.03368127346 0.3821519613
v 0.01299554668 0.04922037199 0.3772763014
v 0.01301464625 0.05235219002 0.362303704
v 0.01305588894 0.0390566811 0.3818997443
v 0.01306674257 -0.04045614228 0.2617658377
v 0.01308645494 0.04150922224 0.3756397367
v 0.01310257986 0.04679040238 0.3804370165
v 0.01310843974 0.04328752309 0.381518662
v 0.01328096911 0.04028808326 0.248696968
v 0.01344043389 -0.04574558884 0.1720000505
v 0.01359693706 -0.04012100771 0.248934418
v 0.01366212964 0.04140898958 0.2885276675
v 0.01393645629 -0.04722910374 0.2794278562
v 0.01411099546 0.04109993577 0.2666372359
v 0.01426379383 -0.04131432623 0.2676718831
v 0.01441243477 -0.04508144036 0.2116787136
v 0.01456708647 0.04444073886 0.2271606028
v 0.01471770369 0.04875219986 0.2875180244
v 0.01478470676 0.04061298817 0.2422756404
v 0.01493812539 0.04925220087 0.2870587111
v 0.01518230326 -0.04047820345 0.2422564775
v 0.0151877813 0.0448949784 0.2054149806
v 0.01579589956 -0.04409114644 0.2270300239
v 0.01629421115 0.04214485735 0.2718829811
v 0.0165235661 -0.04258718714 0.2730279267
v 0.01658396237 0.04840712622 0.2838942409
v 0.01687398367 -0.04431018233 0.20499973
v 0.01715250127 0.04084334895 0.2355788797
v 0.01728180982 0.0442012921 0.1988872886
v 0.01769758016 -0.04067812115 0.2355371714
v 0.01777519286 -0.03636468947 0.2556590736
v 0.01809980907 -0.03687579185 0.2616452575
v 0.01815372705 0.04337909073 0.2199091911
v 0.01818614081 0.03589693829 0.2554501891
v 0.01848721504 -0.03622028232 0.2494049072
v 0.01867529564 0.03588254005 0.2494352609
v 0.01875447668 0.03619245067 0.2612024248
v 0.01889467426 -0.04356922209 0.1984867156
v 0.01894253679 0.04351779446 0.1923461854
v 0.01938531362 -0.03771297634 0.2672683597
v 0.01946637593 -0.04291131347 0.2196069807
v 0.01950082183 0.04025219008 0.3610319495
v 0.01989362203 -0.05075220764 0.3706248999
v 0.01990068704 -0.05245220661 0.3707794547
v 0.020009147 0.05235219002 0.3608211577
v 0.0200683549 -0.03619620949 0.2430502474
v 0.02007444948 0.05235219747 0.3032132983
v 0.02008648589 0.03604916483 0.2433051169
v 0.02013590373 0.04329293966 0.2767377198
v 0.0201635398 -0.04420655966 0.2777342498
v 0.02022752538 0.03661812842 0.2667243183
v 0.02027944848 0.04293939471 0.1856899559
v 0.0203092508 0.04025219753 0.3033110499
v 0.02046024427 -0.0428506285 0.1920211315
v 0.0206295941 -0.0485804677 0.2843332887
v 0.02081651986 -0.05880220607 0.3750984371
v 0.02087323554 -0.05245220661 0.3750789165
v 0.02098969929 -0.0497040078 0.374743551
v 0.02113160305 -0.05880219862 0.2891342938
v 0.02114893496 0.04063335434 0.228658855
v 0.02135274 0.04234484956 0.1789030433
v 0.02147874795 0.04202340171 0.2129461169
v 0.02148200385 -0.03163179383 0.2561158836
v 0.02165251039 -0.04227872565 0.1854556948
v 0.02169495635 -0.03889600188 0.2724544704
v 0.02182641253 -0.04757571593 0.3780308962
v 0.02184672095 -0.03215264529 0.2619470954
v 0.0219411049 -0.0404092595 0.228392154
v 0.02200623974 -0.05245219916 0.2939729989
v 0.02208326571 -0.03132582083 0.2501152158
v 0.02210584469 0.03046155348 0.2562302947
v 0.02224621363 -0.05245219916 0.2894095182
v 0.02229293808 0.03613106534 0.2369184494
v 0.02229410969 0.04200099036 0.1720000505
v 0.02236592025 -0.04426794127 0.3799004853
v 0.02245933935 -0.05075220019 0.2941812873
v 0.02248654701 0.0304384008 0.2504140139
v 0.02251260914 -0.04180522263 0.1787692308
v 0.02257806435 -0.04038987309 0.3803763688
v 0.02262112685 -0.03633157164 0.2366950363
v 0.02264351957 0.03055055067 0.2619212866
v 0.02270622738 0.03726620227 0.2719437182
v 0.02273011394 -0.03537477925 0.3806096911
v 0.02284865081 -0.04131677747 0.2125175595
v 0.0228983853 -0.02948225662 0.380841434
v 0.0228992179 0.04157219827 0.3740173578
v 0.02296449989 0.0487235561 0.3750497699
v 0.02307364903 -0.02285273559 0.3810324967
v 0.02309738845 0.04922038317 0.3755885661
v 0.02318442427 -0.03296162561 0.2675034404
v 0.02324060351 -0.04165198654 0.1720000505
v 0.02324413508 -0.01581741683 0.381156683
v 0.02340970747 -0.008626213297 0.3812298775
v 0.02355700731 -0.00136826071 0.3812507987
v 0.02365513891 -0.0310568735 0.2440551817
v 0.02368209325 0.005914208479 0.3811846673
v 0.02375237271 0.03048935533 0.244471252
v 0.0237883199 0.01318049617 0.3810577095
v 0.02387765422 0.02035493404 0.380861938
v 0.02390726283 -0.02616895363 0.2568442822
v 0.02391729876 0.04683599994 0.3787156343
v 0.02395665459 0.02728290297 0.380622685
v 0.02401985973 0.03351904824 0.3803408146
v 0.02405492961 0.04327953234 0.379635185
v 0.02406917512 0.03900720552 0.3800584674
v 0.02422099374 0.03082610667 0.2674569786
v 0.02424466051 0.04058130831 0.206229955
v 0.02427844703 -0.02572001517 0.2510131001
v 0.02432123013 0.02432560176 0.2572024465
v 0.02436089143 -0.02670380846 0.2625962496
v 0.02469658107 0.02436648868 0.2514813244
v 0.02501276881 0.02436207794 0.2628902793
v 0.02507353574 -0.04014384001 0.2773173153
v 0.02523135766 -0.02032616176 0.2577317655
v 0.02542406134 0.03919640929 0.2215817571
v 0.02546688169 -0.03402262181 0.272785008
v 0.02552522719 0.04133797809 0.2912027836
v 0.0255990196 -0.01988728903 0.252027154
v 0.02563519403 -0.0252662655 0.2451858521
v 0.02563901991 0.01803970151 0.2582087815
v 0.02568293735 -0.03974173963 0.205827117
v 0.02571229078 -0.05026242509 0.2916475832
v 0.02580738254 0.03029801697 0.2384155542
v 0.02582545392 0.02427126653 0.2457491457
v 0.02584656142 0.01809892803 0.2525755167
v 0.02584782429 -0.02746125124 0.2681757808
v 0.02587080002 0.04025218636 0.3582587242
v 0.02588024922 -0.02082734928 0.2634580731
v 0.02594093233 0.03570942953 0.2305675149
v 0.02597934194 -0.01424658019 0.2586536407
v 0.02600538172 -0.04571453109 0.2823375165
v 0.02600857057 -0.0138259232 0.2530535161
v 0.02611357346 -0.03068179451 0.2379332483
v 0.02633989044 -0.03863693774 0.2211520821
v 0.02635400183 0.01797879487 0.2638970613
v 0.02639033832 0.01165719889 0.2591085136
v 0.02639626712 0.03935533389 0.1996946782
v 0.02641802467 0.05235218629 0.3578578234
v 0.02643976174 0.01181080285 0.2535866201
v 0.02644561976 -0.007595905103 0.25397259
v 0.0264865756 0.0381180495 0.276968509
v 0.02650375105 -0.03569589183 0.2301689982
v 0.02652740665 -0.007939778268 0.2594118416
v 0.02661690861 0.005393644795 0.2542837262
v 0.02661839314 0.02449062467 0.2685242295
v 0.0266531501 -0.001136390259 0.2544700205
v 0.02669499815 -0.01929839514 0.2464374602
v 0.02671736479 0.005159809254 0.2597006261
v 0.02674389444 0.05235219374 0.3063437343
v 0.02674853429 -0.001433004159 0.259819746
v 0.02675408125 0.03119732067 0.2728520334
v 0.02676244825 0.04426182061 0.2818849981
v 0.02677641623 0.01801145636 0.2470016778
v 0.0268845316 -0.01465641521 0.2643222213
v 0.02691440098 -0.0132849412 0.2476474643
v 0.02712714486 -0.007164595649 0.2488218844
v 0.02716535516 0.01150868926 0.2647342682
v 0.02719250694 0.04025219381 0.3067037761
v 0.02720094472 0.01182898972 0.248246327
v 0.02727854252 0.04875219613 0.2905559838
v 0.02729210816 -0.0008082314162 0.2494876236
v 0.02731624246 0.005574167706 0.2492200136
v 0.02739021927 -0.008265028708 0.2650276124
v 0.02743152156 -0.02145675384 0.2691268921
v 0.02751440741 0.004928385839 0.2652772367
v 0.02761591971 -0.001695690677 0.265373379
v 0.02766380459 0.04925219715 0.2901679277
v 0.02786712535 0.02392438799 0.2400965989
v 0.02787571028 -0.03836032748 0.1993436813
v 0.02792142332 0.03827853128 0.1930999309
v 0.02795221284 -0.02464470454 0.2393948436
v 0.02807372808 0.01798000745 0.2696060538
v 0.02812830918 -0.02841132879 0.2736127973
v 0.0283426512 -0.05245221034 0.3674159646
v 0.02834759094 -0.05075221136 0.3673962355
v 0.02840944007 -0.006513391621 0.2440510094
v 0.02845088206 -0.0004455079907 0.2448850274
v 0.02845482156 0.01759385131 0.2415518016
v 0.02851225622 -0.01513097901 0.270010829
v 0.02857277542 -0.01245406736 0.2425459325
v 0.02858942561 0.005560828373 0.2444153428
v 0.02868349291 -0.0184000209 0.241030708
v 0.02874370851 -0.03524633124 0.277843684
v 0.02883318625 0.01151980646 0.2431530356
v 0.02887539938 0.01140563749 0.2704683542
v 0.02904477343 0.03696875274 0.2145414948
v 0.02905392274 0.0374452062 0.1862651259
v 0.02909342572 -0.008615245111 0.2706939578
v 0.02917180769 0.02978098951 0.2324980795
v 0.02918757312 0.02471342124 0.2740844488
v 0.02926915698 0.004730096087 0.2709633112
v 0.02935275808 -0.001963420771 0.2710416019
v 0.02940198965 -0.02989665978 0.2318955809
v 0.02945612371 -0.03717222065 0.1928165555
v 0.02986550145 0.03677524626 0.1792132258
v 0.02990235388 -0.0222296156 0.2746944427
v 0.02995470166 -0.0001022415236 0.2408932447
v 0.03003721684 -0.04146660119 0.2819850445
v 0.03007785603 -0.03600139916 0.214094907
v 0.03010825813 -0.005428376608 0.2397615016
v 0.03025760129 -0.05880220979 0.3713489771
v 0.03029056638 0.005127337761 0.2399980575
v 0.03029149584 -0.05245221034 0.3713532686
v 0.03033167496 -0.04977154359 0.3713014126
v 0.03037450463 -0.0489397794 0.2890406549
v 0.03044541553 0.03169434145 0.2782220542
v 0.0305913277 -0.03628731519 0.1860838532
v 0.03064129502 0.03648202121 0.1720000505
v 0.03066866472 0.04806238785 0.2884276211
v 0.03070576303 0.01805794984 0.2752521932
v 0.03072106279 -0.01102019288 0.2377399951
v 0.03073130548 0.02310408466 0.234453395
v 0.03077154793 0.03387630358 0.2238669991
v 0.03086797707 0.01067796629 0.2382297963
v 0.03110449761 0.01664430648 0.2363121957
v 0.0311048273 -0.0157007128 0.2756469846
v 0.03112060204 -0.02339755185 0.2338993549
v 0.03133185208 0.04025218263 0.354070276
v 0.03135150671 -0.01689138822 0.2358996719
v 0.03135956079 -0.03559557721 0.1791023016
v 0.03147607669 0.0001177212689 0.2376048267
v 0.03149219602 -0.02959185652 0.2788430452
v 0.03150434047 0.01134530921 0.2761725485
v 0.0316651985 -0.03348986432 0.2234318852
v 0.03178454563 -0.009019400924 0.2763471305
v 0.03181993589 0.03863509744 0.282374233
v 0.03188106045 0.05235218257 0.3535134494
v 0.031901218 -0.04766253009 0.3742936254
v 0.03196671978 -0.03525988758 0.1720000505
v 0.03196979314 0.004558698274 0.2766497433
v 0.03199999779 0.03457527608 0.2076806724
v 0.03206168488 -0.002237815177 0.2767035663
v 0.03206894919 0.04153813422 0.3702800572
v 0.03214619309 0.05235219002 0.3107986152
v 0.03221786395 -0.05245220289 0.2987195253
v 0.03227443248 0.04872355238 0.3712072372
v 0.03229279816 -0.003355605761 0.2357007563
v 0.03236790374 0.00361654046 0.2359214425
v 0.03251830488 0.04922038689 0.371704936
v 0.03259924054 -0.05880220234 0.2936733961
v 0.03260256723 -0.05075220391 0.2989583313
v 0.03271045163 0.04025219008 0.31139189
v 0.03276193142 -0.04433076456 0.3759335279
v 0.03283442557 0.02501446009 0.2796253562
v 0.03304743394 -0.04048265889 0.3764268458
v 0.03317480534 -0.03671007603 0.2828501463
v 0.03322138265 -0.03547279537 0.3766667545
v 0.03322219104 -0.03349426016 0.2073844373
v 0.03336728737 -0.02312274091 0.2801195681
v 0.03340258449 -0.008520024829 0.2330827862
v 0.03340492398 -0.02961058915 0.3768805861
v 0.03358469903 -0.02299554832 0.3770573735
v 0.03365401179 0.008761401288 0.233494848
v 0.03370983154 -0.05245220289 0.2943649888
v 0.03374424577 -0.01597648114 0.3771686554
v 0.03378972039 0.02774086595 0.2264584899
v 0.03389121592 -0.008801447228 0.3772246838
v 0.03393787891 0.04683391377 0.3746196628
v 0.03401908278 -0.001559535507 0.3772185147
v 0.03404859453 -0.04634318128 0.2875902355
v 0.03411954269 0.005713366903 0.3771311641
v 0.03415741399 0.03259540722 0.2010010779
v 0.03421074525 0.01298329327 0.3769944012
v 0.03421099111 -0.02738132328 0.2258319855
v 0.0342618227 0.02017769217 0.3767555356
v 0.03427891061 0.04324223846 0.3754564226
v 0.03431192413 0.02714421041 0.3764854968
v 0.03433401138 0.03341698647 0.376177609
v 0.03434998542 0.03893768787 0.3758721352
v 0.03437241539 0.01821599714 0.2808383703
v 0.03438793123 0.01470409147 0.2310398221
v 0.03452735022 0.02121779881 0.2287461758
v 0.03455919772 -0.01449003536 0.2307869494
v 0.03461002931 -0.01632905006 0.2811730504
v 0.03466709331 0.000223981915 0.2320896238
v 0.03477939218 0.03082351387 0.2169628888
v 0.03511141613 -0.02099649422 0.2285202444
v 0.03514649346 0.01134425402 0.2817624509
v 0.03516078368 0.03222692013 0.2837177515
v 0.03533454612 -0.009445365518 0.2818875313
v 0.03544741869 0.0439809449 0.2874696255
v 0.03552571684 -0.03124454059 0.2008053362
v 0.03559318185 0.004440329038 0.2822032869
v 0.03561973944 0.03122403473 0.1942639053
v 0.03565037623 -0.002510862425 0.2822322249
v 0.03571752459 -0.02984146215 0.216595456
v 0.03572767973 0.04025218636 0.3488494456
v 0.03577980772 -0.03085462004 0.2841483951
v 0.03580594808 0.04142601416 0.2964684367
v 0.03591820598 -0.05075221136 0.3624829352
v 0.03592688218 -0.05013071746 0.2970385253
v 0.03593422472 -0.05245221034 0.3624926805
v 0.03620043024 0.05235218629 0.3481300473
v 0.03627764061 0.05235219002 0.3161272705
v 0.03645410016 0.03021051362 0.1871315092
v 0.03671843559 -0.004702920094 0.228763476
v 0.0367846489 0.04025219008 0.3169956505
v 0.03681564331 -0.0423271507 0.2875938714
v 0.03695397452 0.02954678424 0.1796415746
v 0.03698106483 0.005338471383 0.2288865745
v 0.03701533377 -0.02956909873 0.1941079944
v 0.03733634204 0.02531845123 0.2852330804
v 0.03740909323 0.02923622169 0.1720000356
v 0.03750509024 0.04875102639 0.2963563502
v 0.03765815124 -0.02398694307 0.2854728699
v 0.0378914848 0.02740319446 0.209945783
v 0.03793666139 0.04925080389 0.2960538864
v 0.03798722476 -0.0283893235 0.1870079935
v 0.03851307929 0.03881945089 0.2882424295
v 0.03852928802 0.02425999567 0.2199950069
v 0.03856358677 0.01123112533 0.2258366346
v 0.03857157379 -0.02756000496 0.1795838326
v 0.0386265479 -0.01056986768 0.2257855684
v 0.0386826694 -0.04974641651 0.3658097088
v 0.03878650069 0.0183838401 0.2864110768
v 0.03879998997 -0.05245221034 0.3658719957
v 0.0388113372 -0.05880220979 0.3658693135
v 0.03888163716 -0.02611993439 0.2098067701
v 0.0388905853 0.04025218636 0.3428547382
v 0.03894134238 -0.01695581339 0.286578238
v 0.03895215318 -0.03785717115 0.288482517
v 0.03910765797 -0.02719037794 0.1720000505
v 0.03914135695 -0.02326973714 0.2197632194
v 0.03917993605 0.05235218629 0.3419913352
v 0.03926749527 0.05235219002 0.3221271038
v 0.03944232315 -0.04870523512 0.2952162027
v 0.03955391422 0.04025219008 0.3231877983
v 0.03955485299 0.01762548834 0.2230370641
v 0.03959523514 0.01138074789 0.2872230411
v 0.03972765058 -0.009843638167 0.2873084247
v 0.03993780538 0.04154869169 0.3644131422
v 0.03999991342 -0.01681080833 0.2230035067
v 0.04002334923 -0.05245220289 0.305349797
v 0.04002756625 0.0004009674303 0.2247824669
v 0.04003960639 0.004346788861 0.287633121
v 0.04006869346 -0.002756499918 0.2876532972
v 0.04018339142 -0.05075220391 0.3056790233
v 0.04019644484 0.02446930856 0.2029853463
v 0.04037022963 0.04872356355 0.365362227
v 0.0405222699 0.04025218636 0.3363917172
v 0.04062933847 0.05235218629 0.3354041576
v 0.04064172506 0.05235218629 0.3286996186
v 0.04071795568 0.04922038689 0.3658000231
v 0.04078941792 0.04025218636 0.3297636509
v 0.04080955312 0.03255059198 0.2896808386
v 0.0408324711 -0.04772289842 0.3684588969
v 0.04092283174 0.04745909944 0.2945825756
v 0.04097607732 -0.03188066185 0.2897334695
v 0.04119022191 -0.02288130298 0.2029639632
v 0.04151775315 0.02248705924 0.1960576475
v 0.04169695079 0.01991277374 0.2130687833
v 0.04201370478 -0.05880220234 0.3008679152
v 0.0420627892 -0.04439690337 0.3699404299
v 0.04213041067 -0.04598601907 0.2942520678
v 0.04214024916 0.02152404189 0.188303113
v 0.0422789529 -0.01857793517 0.2130592763
v 0.0423097387 -0.05245221034 0.3560107052
v 0.04231541231 -0.05075221136 0.3560638428
v 0.04238591716 0.02108154632 0.1801820993
v 0.04239855334 -0.04055691883 0.3703122735
v 0.04255791754 0.02557826228 0.2910670638
v 0.04257323965 -0.035588447 0.3705158532
v 0.0425799489 -0.02051579952 0.1959889084
v 0.04258754477 0.02093807235 0.1720000356
v 0.04264730588 -0.02472008578 0.2911387384
v 0.0427406542 -0.05245220289 0.3016973734
v 0.04274254665 0.04679533094 0.3683199584
v 0.04275494814 -0.02974411845 0.370721668
v 0.04292695969 -0.02316353843 0.3708950281
v 0.04294390976 -0.005432356149 0.2210493684
v 0.04299008101 0.006345905364 0.2209807336
v 0.04307011887 -0.01616831496 0.3710052967
v 0.04320154339 -0.009010248818 0.371066153
v 0.04329323024 0.04315963015 0.3691638112
v 0.04330845177 -0.001780642313 0.3710561991
v 0.04330981523 -0.01906301826 0.188250035
v 0.04338474199 0.005482790992 0.3709639609
v 0.04341438413 0.03879535571 0.3695712686
v 0.04343765974 0.03326978907 0.3699023426
v 0.04344267398 0.01274801511 0.3707927763
v 0.04345772788 0.01995824836 0.3705427051
v 0.04346463829 0.02694976516 0.3702457845
v 0.0435276106 0.0127470335 0.2168931514
v 0.04362772033 -0.01162570249 0.2169387192
v 0.04365322739 0.04358419403 0.2941928506
v 0.04366474226 -0.05003323779 0.3040870428
v 0.04367272928 -0.0182269197 0.1801653206
v 0.04368161038 0.04154416546 0.3035551906
v 0.04374277592 0.01850166358 0.2921412587
v 0.04379048944 -0.01747059636 0.2921870947
v 0.04398450255 -0.01778742485 0.1720000505
v 0.04404213652 -0.04230394959 0.29424721
v 0.04416773841 0.0156200435 0.2059867829
v 0.04448768124 0.01140833367 0.2928474844
v 0.04450327903 -0.01403569151 0.2060574293
v 0.04452136531 -0.01019719709 0.29288885
v 0.04486129433 0.004260677844 0.2932246327
v 0.04486443102 -0.002958336147 0.2932285368
v 0.04512378573 0.0004856146406 0.2155705988
v 0.0452366285 0.04873828962 0.3036315143
v 0.04530583695 0.03853496537 0.295061022
v 0.04538087547 -0.03807049617 0.2950608432
v 0.04542241991 0.01250077784 0.1986100823
v 0.04549553245 -0.04980676249 0.3586109281
v 0.04554377124 -0.05245220661 0.3131149113
v 0.04561127722 0.007192866877 0.2102046907
v 0.0456424132 -0.006007668562 0.2102843523
v 0.04567603394 -0.05075220764 0.3133485615
v 0.04572003335 0.04923650995 0.3033800423
v 0.04579582438 0.01174209733 0.1896259636
v 0.04585277662 0.01166566834 0.1807205081
v 0.04591052979 -0.05245221034 0.3586069345
v 0.04593059048 -0.01054282393 0.1985968351
v 0.04596048594 -0.05880221352 0.3584797978
v 0.04604326934 0.011801566 0.1720000356
v 0.04631897435 0.04149435088 0.3571269214
v 0.04643951356 -0.008984516375 0.1896199882
v 0.04657938704 -0.00828973949 0.1807208806
v 0.04677955061 -0.0321412757 0.2962149978
v 0.04679241404 -0.05075221136 0.3481817245
v 0.04679337144 0.03232483938 0.2962936759
v 0.04681508616 -0.05245221034 0.3481208086
v 0.04682183266 -0.007909175009 0.1720000505
v 0.04692113027 0.0007676614914 0.2021411806
v 0.04696273804 -0.04847460613 0.3026727736
v 0.04699331149 0.04872357473 0.3580241501
v 0.04728334025 0.001337754074 0.1906605661
v 0.04731548205 0.001755876234 0.1810196638
v 0.04742322117 0.04922040552 0.3583796322
v 0.04753930494 0.002030929085 0.1720000356
v 0.04804874957 -0.04770839587 0.3606069386
v 0.04805839062 -0.02508233488 0.2974233031
v 0.04806806147 0.0255389493 0.2974736094
v 0.04843607172 0.04690175131 0.3024222851
v 0.0486317575 -0.05880220607 0.3096509874
v 0.04893351719 -0.05245220661 0.3216299415
v 0.04899196699 -0.05075220764 0.3218188584
v 0.04899992421 -0.01778082363 0.2983399928
v 0.04900187254 0.01852286793 0.2983614206
v 0.0490712598 -0.05245220661 0.310408771
v 0.04918772355 0.04154342785 0.3117519319
v 0.04933587834 -0.04995045066 0.3122775555
v 0.04938086495 -0.04567254335 0.301993072
v 0.04953205213 -0.05075221136 0.3396063447
v 0.04953572154 -0.05245221034 0.3395007849
v 0.04958363995 -0.04446518421 0.3618247509
v 0.04959029332 -0.01043413486 0.2989986837
v 0.04960552976 0.01140173897 0.2989676893
v 0.04988767207 0.004186189733 0.2992955446
v 0.04991038516 -0.003097003791 0.2992842197
v 0.04994566739 0.04672380537 0.3603871465
v 0.05010535941 -0.040624924 0.36226511
v 0.05012790859 -0.05075221136 0.3306910098
v 0.05015953258 -0.05245221034 0.3305447698
v 0.05028633401 -0.03573817015 0.3624723554
v 0.05036530271 0.04298248142 0.3022572398
v 0.05045395717 -0.02992221154 0.3626820743
v 0.05055923387 -0.04986269027 0.3500500023
v 0.05057430267 0.04872532934 0.3120503724
v 0.05058128759 0.04305691272 0.3611174226
v 0.05061914399 -0.02337325178 0.3628753722
v 0.05064645037 -0.04192885384 0.3021765649
v 0.05074341968 -0.01639263518 0.3630007803
v 0.05078231543 0.03856500611 0.3615374565
v 0.05084692314 -0.009249812923 0.363066256
v 0.05085751414 0.03302897885 0.3618975282
v 0.0509118475 0.04140631109 0.3487190604
v 0.05091932043 -0.05245220661 0.3497444391
v 0.05092956126 -0.002032189164 0.3630635142
v 0.0509378612 0.02668108791 0.3622552156
v 0.05098032206 0.005214465782 0.3629785776
v 0.05099889636 0.01966414601 0.3625721633
v 0.05100854859 0.01246226113 0.3628128171
v 0.0510209389 -0.05880220979 0.3494960368
v 0.05110708624 0.04922237247 0.311887145
v 0.0514161326 -0.03771552071 0.302851826
v 0.05141866952 0.03792030737 0.3029403687
v 0.05183023214 0.04872358963 0.3495269716
v 0.0523131527 0.04922042787 0.3497814238
v 0.05232108384 -0.03198384494 0.3037375808
v 0.05236648768 0.03190624341 0.3038654625
v 0.05262188613 -0.04826951399 0.3113466799
v 0.05270031095 0.04148323461 0.3206219375
v 0.05279764533 -0.05880220979 0.3192642927
v 0.05289912224 -0.04984042421 0.3213513792
v 0.05300095305 -0.05245220661 0.3199451268
v 0.05322059244 -0.02511863783 0.3046764731
v 0.05325284973 0.02529988997 0.3047527671
v 0.05344752222 0.04133513942 0.3394954503
v 0.05357253179 -0.04788121209 0.3515427113
v 0.05365336314 -0.04991495609 0.34068802
v 0.0539088212 0.01843003184 0.3055026531
v 0.05392611027 0.04654348269 0.3112353086
v 0.0539349243 -0.01786508411 0.3054542243
v 0.05395320803 -0.05245221034 0.3400739431
v 0.05396315828 0.04872363061 0.3211036623
v 0.0540054068 -0.05880220979 0.3396560252
v 0.05408024788 0.04136476293 0.329980284
v 0.05436164141 0.01135871559 0.3060305119
v 0.05437305197 -0.0498431772 0.3309412599
v 0.05439353734 -0.01050575264 0.3060356677
v 0.05451846868 0.04922046885 0.3210406303
v 0.054561764 -0.05880220979 0.3294013143
v 0.05458187312 -0.05245221034 0.3299675584
v 0.05459681153 0.004153000191 0.3063159585
v 0.05460217595 -0.003147542244 0.3063212931
v 0.05461448431 0.0487236008 0.3402279317
v 0.05480225012 -0.04527102411 0.3110035062
v 0.05502577871 0.04661392421 0.3511838913
v 0.05514954776 0.04922043532 0.3403796852
v 0.05533989146 -0.04461422935 0.3524892926
v 0.05534464493 0.04872361571 0.3306159377
v 0.05552309752 0.04239616916 0.3112487793
v 0.05579777434 -0.04078379646 0.3528318703
v 0.05580416322 -0.04151844978 0.3112234771
v 0.05590116605 0.0492204465 0.3306584656
v 0.05594142526 0.04283613339 0.3518382013
v 0.05596821755 -0.03592964634 0.353058219
v 0.05613043532 -0.0301603619 0.3532906473
v 0.05617763102 -0.04802105203 0.3210062683
v 0.0561966151 0.03821786121 0.3522437215
v 0.056288369 0.03731033206 0.3117702007
v 0.05629664287 -0.02363074943 0.3535105586
v 0.05632638931 -0.03717106581 0.3117434978
v 0.05632728338 0.03263957798 0.3526217341
v 0.05643081665 -0.01665566489 0.3536781073
v 0.05645314232 0.02623920888 0.3529871106
v 0.05652052909 -0.009512558579 0.3537698984
v 0.05654995143 0.01927329972 0.3533059955
v 0.05658077449 -0.002301719971 0.3537832499
v 0.05658952147 0.01212958526 0.3535452187
v 0.05660033599 0.004924101755 0.3537069261
v 0.05690286681 -0.03158796951 0.312405318
v 0.05691474304 0.03144941479 0.3124547303
v 0.05693063512 -0.04793782905 0.3416055441
v 0.05743903294 0.02505980246 0.3131427765
v 0.05747268721 -0.02493615076 0.3131261468
v 0.05747719482 0.04635652155 0.3207928538
v 0.05769066513 -0.04790699109 0.3312158287
v 0.05790159851 0.01831851155 0.3137255907
v 0.0579113327 0.04640403762 0.341160655
v 0.05792414397 -0.01776712574 0.3137438297
v 0.05817766488 0.01132433955 0.3141711056
v 0.05821575969 -0.01044903509 0.3141988516
v 0.05826847255 -0.04498138651 0.320959121
v 0.05835184082 0.004163085483 0.3144074976
v 0.05836895853 -0.003112978069 0.3144164681
v 0.05859550461 0.0462163277 0.3309323788
v 0.05876932293 -0.04469066858 0.3422080278
v 0.05893741548 0.04211185873 0.3209639192
v 0.05912115425 -0.04121628031 0.3212107122
v 0.05915652588 0.04251980782 0.3417462409
v 0.05924927443 -0.04094924405 0.3425061405
v 0.05942393839 0.03703954816 0.3214431107
v 0.05944690108 -0.03618888557 0.3427733779
v 0.05947289616 0.03776532412 0.3421429992
v 0.0595061481 -0.03674887121 0.3216181695
v 0.05964327231 -0.0304531008 0.3430619538
v 0.0596556887 0.03203693032 0.3425391018
v 0.05976587906 -0.04479195178 0.3314945102
v 0.05981295183 0.03126390651 0.3219868839
v 0.05982086807 -0.0239339862 0.3433344364
v 0.059835691 0.02566393279 0.3429225683
v 0.05988813564 -0.03116310015 0.3221163452
v 0.0599601455 -0.01694661006 0.3435565233
v 0.05997580662 0.04212198034 0.3312931061
v 0.05998316407 0.01884070225 0.3432621956
v 0.060050603 -0.00978660956 0.3436984122
v 0.06006788835 0.01179513987 0.3435195982
v 0.06010678411 -0.002570426092 0.3437434435
v 0.06011237577 0.00464107655 0.3436839581
v 0.06017070264 0.02498219535 0.3225183785
v 0.0602349937 -0.02462070435 0.3226386309
v 0.06034648418 -0.04105871543 0.3317803442
v 0.06047688797 0.0183180999 0.3229830563
v 0.06050435826 0.03722027317 0.3316979408
v 0.06051527336 -0.01753819548 0.3230887353
v 0.06060079113 -0.03646380827 0.3321036994
v 0.06063624099 0.01136460342 0.3233432174
v 0.06068063155 -0.01028352138 0.3234166205
v 0.06075789779 0.004240912385 0.3235446215
v 0.06076856703 -0.002997051924 0.3235703111
v 0.06080243737 0.03149463981 0.3321488202
v 0.06086350977 -0.03079459071 0.3324863613
v 0.06104076654 0.02518801391 0.3325880766
v 0.06110573187 -0.02427650057 0.3328606784
v 0.06124062836 0.0184910614 0.3329735398
v 0.06128766388 -0.01724834554 0.333176434
v 0.06137514114 0.01152311452 0.333268255
v 0.06140482053 -0.01005258132 0.333396554
v 0.06146496907 0.004403729923 0.3334462047
v 0.06147264689 -0.002810909413 0.333488822
f 466 475 555
f 555 563 466
f 466 379 397
f 397 475 466
f 466 391 322
f 322 379 466
f 466 563 574
f 574 498 466
f 1123 1105 1098
f 1098 1106 1123
f 1123 1112 1116
f 1116 1126 1123
f 1123 1106 1094
f 1094 1112 1123
f 1123 1102 1092
f 1092 1105 1123
f 1123 1126 1109
f 1109 1102 1123
f 452 352 306
f 306 368 452
f 452 476 390
f 390 352 452
f 452 368 396
f 396 482 452
f 920 936 974
f 974 937 920
f 920 937 901
f 901 896 920
f 920 896 899
f 899 936 920
f 682 821 775
f 775 665 682
f 682 563 555
f 555 639 682
f 682 665 574
f 574 563 682
f 682 639 712
f 712 754 682
f 682 754 904
f 904 821 682
f 725 719 866
f 866 908 725
f 725 663 570
f 570 576 725
f 725 576 583
f 583 719 725
f 725 851 748
f 748 663 725
f 474 471 442
f 442 447 474
f 474 512 505
f 505 471 474
f 505 512 561
f 561 559 505
f 630 559 561
f 561 631 630
f 685 630 631
f 631 687 685
f 752 685 687
f 687 746 752
f 857 752 746
f 746 848 857
f 941 857 848
f 848 933 941
f 996 941 933
f 933 993 996
f 1026 996 993
f 993 1024 1026
f 1043 1026 1024
f 1024 1041 1043
f 1039 1043 1041
f 1041 1040 1039
f 1018 1039 1040
f 1040 1023 1018
f 986 1018 1023
f 1023 992 986
f 992 926 917
f 917 986 992
f 431 433 463
f 463 462 431
f 431 421 420
f 420 433 431
f 420 421 447
f 447 442 420
f 442 471 346
f 346 304 442
f 346 471 505
f 505 412 346
f 497 412 505
f 505 559 497
f 587 497 559
f 559 630 587
f 711 587 630
f 630 685 711
f 816 711 685
f 685 752 816
f 988 816 752
f 752 857 988
f 1087 988 857
f 857 941 1087
f 1140 1087 941
f 941 996 1140
f 1182 1140 996
f 996 1026 1182
f 1197 1182 1026
f 1026 1043 1197
f 1188 1197 1043
f 1043 1039 1188
f 1166 1188 1039
f 1039 1018 1166
f 1115 1166 1018
f 1018 986 1115
f 1030 1115 986
f 986 917 1030
f 917 926 837
f 837 826 917
f 741 826 837
f 837 744 741
f 689 741 744
f 744 702 689
f 636 689 702
f 702 638 636
f 638 578 577
f 577 636 638
f 578 538 540
f 540 577 578
f 538 492 494
f 494 540 538
f 494 492 462
f 462 463 494
f 463 433 301
f 301 336 463
f 301 433 420
f 420 283 301
f 283 420 442
f 442 304 283
f 304 287 255
f 255 283 304
f 304 346 327
f 327 287 304
f 346 412 401
f 401 327 346
f 412 497 487
f 487 401 412
f 497 587 584
f 584 487 497
f 587 711 717
f 717 584 587
f 711 816 859
f 859 717 711
f 816 988 1003
f 1003 859 816
f 988 1087 1099
f 1099 1003 988
f 1087 1140 1158
f 1158 1099 1087
f 1140 1182 1195
f 1195 1158 1140
f 1182 1197 1211
f 1211 1195 1182
f 1197 1188 1206
f 1206 1211 1197
f 1188 1166 1177
f 1177 1206 1188
f 1166 1115 1125
f 1125 1177 1166
f 1115 1030 1038
f 1038 1125 1115
f 1030 932 935
f 935 1038 1030
f 1030 917 826
f 826 932 1030
f 785 932 826
f 826 741 785
f 705 785 741
f 741 689 705
f 626 705 689
f 689 636 626
f 548 626 636
f 636 577 548
f 577 540 472
f 472 548 577
f 472 540 494
f 494 400 472
f 400 494 463
f 463 336 400
f 336 326 395
f 395 400 336
f 336 301 286
f 286 326 336
f 286 272 316
f 316 326 286
f 286 255 250
f 250 272 286
f 286 301 283
f 283 255 286
f 250 225 241
f 241 272 250
f 250 274 235
f 235 225 250
f 250 255 287
f 287 274 250
f 274 319 296
f 296 235 274
f 274 287 327
f 327 319 274
f 319 396 368
f 368 296 319
f 319 327 401
f 401 396 319
f 296 240 201
f 201 235 296
f 296 368 306
f 306 240 296
f 240 198 172
f 172 201 240
f 240 306 236
f 236 198 240
f 236 178 151
f 151 198 236
f 236 275 191
f 191 178 236
f 236 306 352
f 352 275 236
f 275 310 221
f 221 191 275
f 275 352 390
f 390 310 275
f 310 317 237
f 237 221 310
f 310 390 405
f 405 317 310
f 405 414 338
f 338 317 405
f 405 489 496
f 496 414 405
f 405 390 476
f 476 489 405
f 489 567 564
f 564 496 489
f 489 476 570
f 570 567 489
f 567 647 640
f 640 564 567
f 567 570 663
f 663 647 567
f 647 723 713
f 713 640 647
f 647 663 748
f 748 723 647
f 723 781 750
f 750 713 723
f 723 748 840
f 840 781 723
f 840 905 850
f 850 781 840
f 840 925 978
f 978 905 840
f 840 748 851
f 851 925 840
f 925 1008 1044
f 1044 978 925
f 925 851 980
f 980 1008 925
f 980 1084 1100
f 1100 1008 980
f 980 908 1046
f 1046 1084 980
f 980 851 725
f 725 908 980
f 1046 1133 1155
f 1155 1084 1046
f 1046 1006 1108
f 1108 1133 1046
f 1046 908 866
f 866 1006 1046
f 1006 1003 1099
f 1099 1108 1006
f 1006 866 859
f 859 1003 1006
f 1108 1174 1192
f 1192 1133 1108
f 1108 1099 1158
f 1158 1174 1108
f 1174 1201 1237
f 1237 1192 1174
f 1174 1158 1195
f 1195 1201 1174
f 1201 1215 1247
f 1247 1237 1201
f 1201 1195 1211
f 1211 1215 1201
f 1215 1209 1240
f 1240 1247 1215
f 1215 1211 1206
f 1206 1209 1215
f 1209 1178 1208
f 1208 1240 1209
f 1209 1206 1177
f 1177 1178 1209
f 1178 1128 1150
f 1150 1208 1178
f 1178 1177 1125
f 1125 1128 1178
f 1128 1042 1066
f 1066 1150 1128
f 1128 1125 1038
f 1038 1042 1128
f 1042 938 957
f 957 1066 1042
f 1042 1038 935
f 935 938 1042
f 938 788 800
f 800 957 938
f 938 935 786
f 786 788 938
f 786 699 701
f 701 788 786
f 786 785 705
f 705 699 786
f 786 935 932
f 932 785 786
f 705 626 624
f 624 699 705
f 626 548 543
f 543 624 626
f 548 472 469
f 469 543 548
f 469 467 541
f 541 543 469
f 469 395 392
f 392 467 469
f 469 472 400
f 400 395 469
f 392 376 453
f 453 467 392
f 392 316 305
f 305 376 392
f 392 395 326
f 326 316 392
f 305 289 369
f 369 376 305
f 305 241 224
f 224 289 305
f 305 316 272
f 272 241 305
f 224 218 277
f 277 289 224
f 224 190 175
f 175 218 224
f 224 241 225
f 225 190 224
f 190 201 172
f 172 175 190
f 190 225 235
f 235 201 190
f 175 165 210
f 210 218 175
f 175 172 147
f 147 165 175
f 147 132 156
f 156 165 147
f 147 151 116
f 116 132 147
f 147 172 198
f 198 151 147
f 116 100 118
f 118 132 116
f 116 128 86
f 86 100 116
f 116 151 178
f 178 128 116
f 128 135 96
f 96 86 128
f 128 178 191
f 191 135 128
f 135 148 105
f 105 96 135
f 135 191 221
f 221 148 135
f 148 173 120
f 120 105 148
f 148 221 237
f 237 173 148
f 173 186 134
f 134 120 173
f 173 237 249
f 249 186 173
f 249 263 197
f 197 186 249
f 249 338 356
f 356 263 249
f 249 237 317
f 317 338 249
f 356 373 294
f 294 263 356
f 356 424 449
f 449 373 356
f 356 338 414
f 414 424 356
f 424 502 506
f 506 449 424
f 424 414 496
f 496 502 424
f 502 566 571
f 571 506 502
f 502 496 564
f 564 566 502
f 566 635 637
f 637 571 566
f 566 564 640
f 640 635 566
f 635 698 690
f 690 637 635
f 635 640 713
f 713 698 635
f 698 736 733
f 733 690 698
f 698 713 750
f 750 736 698
f 736 780 770
f 770 733 736
f 736 750 805
f 805 780 736
f 805 844 811
f 811 780 805
f 805 850 889
f 889 844 805
f 805 750 781
f 781 850 805
f 889 909 871
f 871 844 889
f 889 943 969
f 969 909 889
f 889 850 905
f 905 943 889
f 943 1001 1014
f 1014 969 943
f 943 905 978
f 978 1001 943
f 1001 1060 1088
f 1088 1014 1001
f 1001 978 1044
f 1044 1060 1001
f 1060 1132 1138
f 1138 1088 1060
f 1060 1044 1120
f 1120 1132 1060
f 1120 1180 1187
f 1187 1132 1120
f 1120 1100 1176
f 1176 1180 1120
f 1120 1044 1008
f 1008 1100 1120
f 1176 1221 1233
f 1233 1180 1176
f 1176 1155 1212
f 1212 1221 1176
f 1176 1100 1084
f 1084 1155 1176
f 1212 1249 1253
f 1253 1221 1212
f 1212 1192 1237
f 1237 1249 1212
f 1212 1155 1133
f 1133 1192 1212
f 1249 1265 1275
f 1275 1253 1249
f 1249 1237 1247
f 1247 1265 1249
f 1265 1251 1255
f 1255 1275 1265
f 1265 1247 1240
f 1240 1251 1265
f 1251 1216 1220
f 1220 1255 1251
f 1251 1240 1208
f 1208 1216 1251
f 1216 1159 1163
f 1163 1220 1216
f 1216 1208 1150
f 1150 1159 1216
f 1159 1073 1077
f 1077 1163 1159
f 1159 1150 1066
f 1066 1073 1159
f 1073 965 968
f 968 1077 1073
f 1073 1066 957
f 957 965 1073
f 965 803 804
f 804 968 965
f 965 957 800
f 800 803 965
f 803 707 703
f 703 804 803
f 803 800 706
f 706 707 803
f 706 618 617
f 617 707 706
f 706 701 621
f 621 618 706
f 706 800 788
f 788 701 706
f 621 541 533
f 533 618 621
f 621 624 543
f 543 541 621
f 621 701 699
f 699 624 621
f 533 530 617
f 617 618 533
f 533 453 446
f 446 530 533
f 533 541 467
f 467 453 533
f 446 445 528
f 528 530 446
f 446 369 366
f 366 445 446
f 446 453 376
f 376 369 446
f 366 365 444
f 444 445 366
f 366 277 270
f 270 365 366
f 366 369 289
f 289 277 366
f 270 269 361
f 361 365 270
f 270 210 207
f 207 269 270
f 270 277 218
f 218 210 270
f 207 209 273
f 273 269 207
f 207 156 152
f 152 209 207
f 207 210 165
f 165 156 207
f 152 157 211
f 211 209 152
f 152 118 119
f 119 157 152
f 152 156 132
f 132 118 152
f 119 122 161
f 161 157 119
f 119 91 95
f 95 122 119
f 119 118 100
f 100 91 119
f 91 73 71
f 71 95 91
f 91 100 86
f 86 73 91
f 73 67 64
f 64 71 73
f 73 86 96
f 96 67 73
f 67 68 59
f 59 64 67
f 67 96 105
f 105 68 67
f 68 75 54
f 54 59 68
f 68 105 120
f 120 75 68
f 75 78 50
f 50 54 75
f 75 120 134
f 134 78 75
f 78 77 38
f 38 50 78
f 78 134 138
f 138 77 78
f 138 145 83
f 83 77 138
f 138 197 214
f 214 145 138
f 138 134 186
f 186 197 138
f 214 228 154
f 154 145 214
f 214 294 309
f 309 228 214
f 214 197 263
f 263 294 214
f 309 315 238
f 238 228 309
f 309 386 398
f 398 315 309
f 309 294 373
f 373 386 309
f 386 461 473
f 473 398 386
f 386 373 449
f 449 461 386
f 461 527 542
f 542 473 461
f 461 449 506
f 506 527 461
f 527 581 600
f 600 542 527
f 527 506 571
f 571 581 527
f 581 642 650
f 650 600 581
f 581 571 637
f 637 642 581
f 642 708 718
f 718 650 642
f 642 637 690
f 690 708 642
f 708 735 747
f 747 718 708
f 708 690 733
f 733 735 708
f 735 776 796
f 796 747 735
f 735 733 770
f 770 776 735
f 776 810 823
f 823 796 776
f 776 770 808
f 808 810 776
f 808 770 780
f 780 811 808
f 808 819 824
f 824 810 808
f 808 811 834
f 834 819 808
f 834 856 835
f 835 819 834
f 834 871 884
f 884 856 834
f 834 811 844
f 844 871 834
f 884 890 864
f 864 856 884
f 884 922 929
f 929 890 884
f 884 871 909
f 909 922 884
f 922 977 982
f 982 929 922
f 922 909 969
f 969 977 922
f 977 1028 1034
f 1034 982 977
f 977 969 1014
f 1014 1028 977
f 1028 1093 1096
f 1096 1034 1028
f 1028 1014 1088
f 1088 1093 1028
f 1093 1147 1148
f 1148 1096 1093
f 1093 1088 1138
f 1138 1147 1093
f 1147 1198 1204
f 1204 1148 1147
f 1147 1138 1191
f 1191 1198 1147
f 1191 1239 1242
f 1242 1198 1191
f 1191 1187 1235
f 1235 1239 1191
f 1191 1138 1132
f 1132 1187 1191
f 1235 1271 1274
f 1274 1239 1235
f 1235 1233 1260
f 1260 1271 1235
f 1235 1187 1180
f 1180 1233 1235
f 1260 1282 1284
f 1284 1271 1260
f 1260 1253 1275
f 1275 1282 1260
f 1260 1233 1221
f 1221 1253 1260
f 1282 1258 1262
f 1262 1284 1282
f 1282 1275 1255
f 1255 1258 1282
f 1258 1224 1226
f 1226 1262 1258
f 1258 1255 1220
f 1220 1224 1258
f 1224 1165 1169
f 1169 1226 1224
f 1224 1220 1163
f 1163 1165 1224
f 1165 1078 1081
f 1081 1169 1165
f 1165 1163 1077
f 1077 1078 1165
f 1078 967 966
f 966 1081 1078
f 1078 1077 968
f 968 967 1078
f 967 802 801
f 801 966 967
f 967 968 804
f 804 802 967
f 802 700 697
f 697 801 802
f 802 804 703
f 703 700 802
f 700 613 611
f 611 697 700
f 700 703 615
f 615 613 700
f 615 528 526
f 526 613 615
f 615 617 530
f 530 528 615
f 615 703 707
f 707 617 615
f 526 525 611
f 611 613 526
f 526 444 443
f 443 525 526
f 526 528 445
f 445 444 526
f 443 441 524
f 524 525 443
f 443 361 362
f 362 441 443
f 443 444 365
f 365 361 443
f 362 364 440
f 440 441 362
f 362 273 278
f 278 364 362
f 362 361 269
f 269 273 362
f 278 281 363
f 363 364 278
f 278 211 215
f 215 281 278
f 278 273 209
f 209 211 278
f 215 219 282
f 282 281 215
f 215 161 163
f 163 219 215
f 215 211 157
f 157 161 215
f 163 162 216
f 216 219 163
f 163 127 126
f 126 162 163
f 163 161 122
f 122 127 163
f 127 94 92
f 92 126 127
f 127 122 95
f 95 94 127
f 94 70 69
f 69 92 94
f 94 95 71
f 71 70 94
f 70 61 63
f 63 69 70
f 70 71 64
f 64 61 70
f 61 56 57
f 57 63 61
f 61 64 59
f 59 56 61
f 56 49 51
f 51 57 56
f 56 59 54
f 54 49 56
f 49 31 35
f 35 51 49
f 49 54 50
f 50 31 49
f 31 22 24
f 24 35 31
f 31 50 38
f 38 22 31
f 22 17 16
f 16 24 22
f 22 38 32
f 32 17 22
f 32 34 8
f 8 17 32
f 32 83 98
f 98 34 32
f 32 38 77
f 77 83 32
f 98 106 39
f 39 34 98
f 98 154 171
f 171 106 98
f 98 83 145
f 145 154 98
f 171 183 115
f 115 106 171
f 171 238 248
f 248 183 171
f 171 154 228
f 228 238 171
f 248 261 192
f 192 183 248
f 248 335 359
f 359 261 248
f 248 238 315
f 315 335 248
f 335 411 432
f 432 359 335
f 335 315 398
f 398 411 335
f 411 490 504
f 504 432 411
f 411 398 473
f 473 490 411
f 490 556 573
f 573 504 490
f 490 473 542
f 542 556 490
f 556 629 641
f 641 573 556
f 556 542 600
f 600 629 556
f 629 669 716
f 716 641 629
f 629 600 650
f 650 669 629
f 669 727 759
f 759 716 669
f 669 650 718
f 718 727 669
f 727 772 828
f 828 759 727
f 727 718 747
f 747 772 727
f 772 822 888
f 888 828 772
f 772 747 796
f 796 822 772
f 822 867 911
f 911 888 822
f 822 796 823
f 823 867 822
f 867 877 914
f 914 911 867
f 867 823 852
f 852 877 867
f 852 823 810
f 810 824 852
f 852 858 883
f 883 877 852
f 852 824 838
f 838 858 852
f 838 843 861
f 861 858 838
f 838 835 847
f 847 843 838
f 838 824 819
f 819 835 838
f 847 849 845
f 845 843 847
f 847 864 865
f 865 849 847
f 847 835 856
f 856 864 847
f 865 862 842
f 842 849 865
f 865 891 887
f 887 862 865
f 865 864 890
f 890 891 865
f 891 931 924
f 924 887 891
f 891 890 929
f 929 931 891
f 931 984 979
f 979 924 931
f 931 929 982
f 982 984 931
f 984 1035 1029
f 1029 979 984
f 984 982 1034
f 1034 1035 984
f 1035 1097 1095
f 1095 1029 1035
f 1035 1034 1096
f 1096 1097 1035
f 1097 1149 1146
f 1146 1095 1097
f 1097 1096 1148
f 1148 1149 1097
f 1149 1205 1200
f 1200 1146 1149
f 1149 1148 1204
f 1204 1205 1149
f 1205 1246 1243
f 1243 1200 1205
f 1205 1204 1245
f 1245 1246 1205
f 1245 1280 1281
f 1281 1246 1245
f 1245 1242 1278
f 1278 1280 1245
f 1245 1204 1198
f 1198 1242 1245
f 1278 1288 1290
f 1290 1280 1278
f 1278 1274 1286
f 1286 1288 1278
f 1278 1242 1239
f 1239 1274 1278
f 1286 1266 1268
f 1268 1288 1286
f 1286 1284 1262
f 1262 1266 1286
f 1286 1274 1271
f 1271 1284 1286
f 1266 1228 1230
f 1230 1268 1266
f 1266 1262 1226
f 1226 1228 1266
f 1228 1171 1172
f 1172 1230 1228
f 1228 1226 1169
f 1169 1171 1228
f 1171 1080 1079
f 1079 1172 1171
f 1171 1169 1081
f 1081 1080 1171
f 1080 964 962
f 962 1079 1080
f 1080 1081 966
f 966 964 1080
f 964 798 797
f 797 962 964
f 964 966 801
f 801 798 964
f 798 694 692
f 692 797 798
f 798 801 697
f 697 694 798
f 694 610 608
f 608 692 694
f 694 697 611
f 611 610 694
f 610 524 521
f 521 608 610
f 610 611 525
f 525 524 610
f 521 520 607
f 607 608 521
f 521 440 438
f 438 520 521
f 521 524 441
f 441 440 521
f 438 437 519
f 519 520 438
f 438 363 360
f 360 437 438
f 438 440 364
f 364 363 438
f 360 357 436
f 436 437 360
f 360 282 280
f 280 357 360
f 360 363 281
f 281 282 360
f 280 271 354
f 354 357 280
f 280 216 212
f 212 271 280
f 280 282 219
f 219 216 280
f 212 208 264
f 264 271 212
f 212 159 155
f 155 208 212
f 212 216 162
f 162 159 212
f 159 121 123
f 123 155 159
f 159 162 126
f 126 121 159
f 121 93 99
f 99 123 121
f 121 126 92
f 92 93 121
f 93 72 81
f 81 99 93
f 93 92 69
f 69 72 93
f 72 65 76
f 76 81 72
f 72 69 63
f 63 65 72
f 65 62 80
f 80 76 65
f 65 63 57
f 57 62 65
f 62 58 89
f 89 80 62
f 62 57 51
f 51 58 62
f 58 53 90
f 90 89 58
f 58 51 35
f 35 53 58
f 53 43 85
f 85 90 53
f 53 35 24
f 24 43 53
f 43 33 79
f 79 85 43
f 43 24 16
f 16 33 43
f 33 29 82
f 82 79 33
f 33 16 3
f 3 29 33
f 3 2 30
f 30 29 3
f 3 8 5
f 5 2 3
f 3 16 17
f 17 8 3
f 5 15 4
f 4 2 5
f 5 39 52
f 52 15 5
f 5 8 34
f 34 39 5
f 52 55 18
f 18 15 52
f 52 115 130
f 130 55 52
f 52 39 106
f 106 115 52
f 130 136 60
f 60 55 130
f 130 192 205
f 205 136 130
f 130 115 183
f 183 192 130
f 205 220 143
f 143 136 205
f 205 293 307
f 307 220 205
f 205 192 261
f 261 293 205
f 293 377 388
f 388 307 293
f 293 261 359
f 359 377 293
f 377 456 470
f 470 388 377
f 377 359 432
f 432 456 377
f 456 532 551
f 551 470 456
f 456 432 504
f 504 532 456
f 532 597 627
f 627 551 532
f 532 504 573
f 573 597 532
f 597 656 691
f 691 627 597
f 597 573 641
f 641 656 597
f 656 732 761
f 761 691 656
f 656 641 716
f 716 732 656
f 732 814 885
f 885 761 732
f 732 716 759
f 759 814 732
f 814 912 975
f 975 885 814
f 814 759 828
f 828 912 814
f 912 955 1009
f 1009 975 912
f 912 828 888
f 888 955 912
f 955 971 1027
f 1027 1009 955
f 955 888 911
f 911 971 955
f 971 970 1010
f 1010 1027 971
f 971 911 914
f 914 970 971
f 970 952 999
f 999 1010 970
f 970 914 913
f 913 952 970
f 913 914 877
f 877 883 913
f 913 901 937
f 937 952 913
f 913 883 880
f 880 901 913
f 880 883 858
f 858 861 880
f 880 876 896
f 896 901 880
f 880 861 860
f 860 876 880
f 860 855 875
f 875 876 860
f 860 845 839
f 839 855 860
f 860 861 843
f 843 845 860
f 839 831 854
f 854 855 839
f 839 842 829
f 829 831 839
f 839 845 849
f 849 842 839
f 829 813 817
f 817 831 829
f 829 853 827
f 827 813 829
f 829 842 862
f 862 853 829
f 853 878 863
f 863 827 853
f 853 862 887
f 887 878 853
f 878 915 895
f 895 863 878
f 878 887 924
f 924 915 878
f 915 973 948
f 948 895 915
f 915 924 979
f 979 973 915
f 973 1019 1004
f 1004 948 973
f 973 979 1029
f 1029 1019 973
f 1019 1089 1064
f 1064 1004 1019
f 1019 1029 1095
f 1095 1089 1019
f 1089 1137 1131
f 1131 1064 1089
f 1089 1095 1146
f 1146 1137 1089
f 1137 1193 1186
f 1186 1131 1137
f 1137 1146 1200
f 1200 1193 1137
f 1193 1241 1236
f 1236 1186 1193
f 1193 1200 1243
f 1243 1241 1193
f 1241 1276 1272
f 1272 1236 1241
f 1241 1243 1279
f 1279 1276 1241
f 1279 1289 1287
f 1287 1276 1279
f 1279 1281 1291
f 1291 1289 1279
f 1279 1243 1246
f 1246 1281 1279
f 1291 1269 1267
f 1267 1289 1291
f 1291 1290 1270
f 1270 1269 1291
f 1291 1281 1280
f 1280 1290 1291
f 1270 1231 1229
f 1229 1269 1270
f 1270 1268 1230
f 1230 1231 1270
f 1270 1290 1288
f 1288 1268 1270
f 1231 1170 1168
f 1168 1229 1231
f 1231 1230 1172
f 1172 1170 1231
f 1170 1076 1074
f 1074 1168 1170
f 1170 1172 1079
f 1079 1076 1170
f 1076 960 958
f 958 1074 1076
f 1076 1079 962
f 962 960 1076
f 960 795 793
f 793 958 960
f 960 962 797
f 797 795 960
f 795 688 686
f 686 793 795
f 795 797 692
f 692 688 795
f 688 607 606
f 606 686 688
f 688 692 608
f 608 607 688
f 606 602 684
f 684 686 606
f 606 519 517
f 517 602 606
f 606 607 520
f 520 519 606
f 517 516 601
f 601 602 517
f 517 436 435
f 435 516 517
f 517 519 437
f 437 436 517
f 435 430 514
f 514 516 435
f 435 354 351
f 351 430 435
f 435 436 357
f 357 354 435
f 351 350 426
f 426 430 351
f 351 264 260
f 260 350 351
f 351 354 271
f 271 264 351
f 260 259 347
f 347 350 260
f 260 204 206
f 206 259 260
f 260 264 208
f 208 204 260
f 204 158 166
f 166 206 204
f 204 208 155
f 155 158 204
f 158 131 142
f 142 166 158
f 158 155 123
f 123 131 158
f 131 110 140
f 140 142 131
f 131 123 99
f 99 110 131
f 110 107 146
f 146 140 110
f 110 99 81
f 81 107 110
f 107 109 153
f 153 146 107
f 107 81 76
f 76 109 107
f 109 114 170
f 170 153 109
f 109 76 80
f 80 114 109
f 114 133 184
f 184 170 114
f 114 80 89
f 89 133 114
f 133 137 189
f 189 184 133
f 133 89 90
f 90 137 133
f 137 139 196
f 196 189 137
f 137 90 85
f 85 139 137
f 139 141 203
f 203 196 139
f 139 85 79
f 79 141 139
f 141 144 213
f 213 203 141
f 141 79 82
f 82 144 141
f 144 150 222
f 222 213 144
f 144 82 87
f 87 150 144
f 87 101 164
f 164 150 87
f 87 30 36
f 36 101 87
f 87 82 29
f 29 30 87
f 36 37 104
f 104 101 36
f 36 4 6
f 6 37 36
f 36 30 2
f 2 4 36
f 6 10 40
f 40 37 6
f 6 18 19
f 19 10 6
f 6 4 15
f 15 18 6
f 19 20 14
f 14 10 19
f 19 60 66
f 66 20 19
f 19 18 55
f 55 60 19
f 66 74 21
f 21 20 66
f 66 143 149
f 149 74 66
f 66 60 136
f 136 143 66
f 149 160 84
f 84 74 149
f 149 229 233
f 233 160 149
f 149 143 220
f 220 229 149
f 229 312 318
f 318 233 229
f 229 220 307
f 307 312 229
f 312 399 407
f 407 318 312
f 312 307 388
f 388 399 312
f 399 483 495
f 495 407 399
f 399 388 470
f 470 483 399
f 483 557 568
f 568 495 483
f 483 470 551
f 551 557 483
f 557 634 645
f 645 568 557
f 557 551 627
f 627 634 557
f 634 721 728
f 728 645 634
f 634 627 691
f 691 721 634
f 721 806 836
f 836 728 721
f 721 691 761
f 761 806 721
f 806 930 961
f 961 836 806
f 806 761 885
f 885 930 806
f 930 1005 1037
f 1037 961 930
f 930 885 975
f 975 1005 930
f 1005 1050 1092
f 1092 1037 1005
f 1005 975 1009
f 1009 1050 1005
f 1050 1082 1105
f 1105 1092 1050
f 1050 1009 1027
f 1027 1082 1050
f 1082 1070 1098
f 1098 1105 1082
f 1082 1027 1010
f 1010 1070 1082
f 1070 1033 1069
f 1069 1098 1070
f 1070 1010 999
f 999 1033 1070
f 1033 995 1012
f 1012 1069 1033
f 1033 999 974
f 974 995 1033
f 995 974 936
f 936 949 995
f 995 949 972
f 972 1012 995
f 972 949 910
f 910 918 972
f 972 976 1031
f 1031 1012 972
f 972 918 916
f 916 976 972
f 916 918 881
f 881 870 916
f 916 892 963
f 963 976 916
f 916 870 832
f 832 892 916
f 832 870 818
f 818 794 832
f 832 779 841
f 841 892 832
f 832 794 745
f 745 779 832
f 745 794 769
f 769 734 745
f 745 720 729
f 729 779 745
f 745 734 710
f 710 720 745
f 710 734 730
f 730 696 710
f 710 648 655
f 655 720 710
f 710 696 643
f 643 648 710
f 643 696 704
f 704 644 643
f 643 592 605
f 605 648 643
f 643 644 590
f 590 592 643
f 590 644 649
f 649 603 590
f 590 545 549
f 549 592 590
f 590 603 550
f 550 545 590
f 550 603 623
f 623 552 550
f 550 480 485
f 485 545 550
f 550 552 477
f 477 480 550
f 477 552 555
f 555 475 477
f 477 406 408
f 408 480 477
f 477 475 397
f 397 406 477
f 406 329 337
f 337 408 406
f 406 397 314
f 314 329 406
f 314 397 379
f 379 302 314
f 314 232 244
f 244 329 314
f 314 302 223
f 223 232 314
f 223 302 253
f 253 202 223
f 223 153 170
f 170 232 223
f 223 202 146
f 146 153 223
f 253 322 276
f 276 226 253
f 253 302 379
f 379 322 253
f 253 226 180
f 180 202 253
f 180 226 194
f 194 167 180
f 180 140 146
f 146 202 180
f 180 167 142
f 142 140 180
f 194 239 231
f 231 195 194
f 194 226 276
f 276 239 194
f 194 195 177
f 177 167 194
f 177 195 227
f 227 217 177
f 177 166 142
f 142 167 177
f 177 217 206
f 206 166 177
f 227 247 308
f 308 279 227
f 227 195 231
f 231 247 227
f 227 279 262
f 262 217 227
f 262 279 355
f 355 348 262
f 262 259 206
f 206 217 262
f 262 348 347
f 347 259 262
f 355 374 448
f 448 428 355
f 355 279 308
f 308 374 355
f 355 428 422
f 422 348 355
f 422 428 509
f 509 508 422
f 422 423 347
f 347 348 422
f 422 508 510
f 510 423 422
f 510 508 588
f 588 593 510
f 510 511 426
f 426 423 510
f 510 593 594
f 594 511 510
f 594 593 676
f 676 677 594
f 594 599 514
f 514 511 594
f 594 677 680
f 680 599 594
f 680 677 784
f 784 787 680
f 680 683 601
f 601 599 680
f 680 787 791
f 791 683 680
f 791 787 951
f 951 954 791
f 791 792 684
f 684 683 791
f 791 954 956
f 956 792 791
f 956 954 1071
f 1071 1072 956
f 956 958 793
f 793 792 956
f 956 1072 1074
f 1074 958 956
f 1071 1068 1160
f 1160 1162 1071
f 1071 954 951
f 951 1068 1071
f 1071 1162 1164
f 1164 1072 1071
f 1164 1162 1225
f 1225 1227 1164
f 1164 1168 1074
f 1074 1072 1164
f 1164 1227 1229
f 1229 1168 1164
f 1225 1222 1261
f 1261 1264 1225
f 1225 1162 1160
f 1160 1222 1225
f 1225 1264 1267
f 1267 1227 1225
f 1222 1218 1257
f 1257 1261 1222
f 1222 1160 1156
f 1156 1218 1222
f 1156 1154 1217
f 1217 1218 1156
f 1156 1067 1061
f 1061 1154 1156
f 1156 1160 1068
f 1068 1067 1156
f 1067 950 946
f 946 1061 1067
f 1067 1068 951
f 951 950 1067
f 950 784 782
f 782 946 950
f 950 951 787
f 787 784 950
f 782 778 944
f 944 946 782
f 782 676 673
f 673 778 782
f 782 784 677
f 677 676 782
f 673 672 774
f 774 778 673
f 673 588 589
f 589 672 673
f 673 676 593
f 593 588 673
f 589 598 671
f 671 672 589
f 589 509 518
f 518 598 589
f 589 588 508
f 508 509 589
f 518 535 604
f 604 598 518
f 518 448 464
f 464 535 518
f 518 509 428
f 428 448 518
f 464 481 547
f 547 535 464
f 464 394 416
f 416 481 464
f 464 448 374
f 374 394 464
f 394 331 382
f 382 416 394
f 394 374 308
f 308 331 394
f 331 303 340
f 340 382 331
f 331 308 247
f 247 303 331
f 303 285 325
f 325 340 303
f 303 247 231
f 231 285 303
f 285 299 341
f 341 325 285
f 285 231 239
f 239 299 285
f 299 328 383
f 383 341 299
f 299 239 276
f 276 328 299
f 328 391 425
f 425 383 328
f 328 276 322
f 322 391 328
f 383 384 342
f 342 341 383
f 427 499 486
f 486 402 427
f 427 425 498
f 498 499 427
f 499 575 565
f 565 486 499
f 499 498 574
f 574 575 499
f 575 660 657
f 657 565 575
f 575 574 665
f 665 660 575
f 660 768 771
f 771 657 660
f 660 665 775
f 775 768 660
f 768 934 953
f 953 771 768
f 768 775 940
f 940 934 768
f 940 1036 1032
f 1032 934 940
f 940 990 1085
f 1085 1036 940
f 940 775 821
f 821 990 940
f 990 1025 1124
f 1124 1085 990
f 990 821 904
f 904 1025 990
f 1025 1053 1142
f 1142 1124 1025
f 1025 904 959
f 959 1053 1025
f 959 904 754
f 754 830 959
f 959 997 1091
f 1091 1053 959
f 959 830 897
f 897 997 959
f 897 830 749
f 749 812 897
f 897 945 1020
f 1020 997 897
f 897 812 882
f 882 945 897
f 882 812 764
f 764 815 882
f 882 921 987
f 987 945 882
f 882 815 872
f 872 921 882
f 872 815 789
f 789 825 872
f 872 895 948
f 948 921 872
f 872 825 863
f 863 895 872
f 789 766 809
f 809 825 789
f 789 739 731
f 731 766 789
f 789 815 764
f 764 739 789
f 739 714 704
f 704 731 739
f 739 764 724
f 724 714 739
f 724 764 812
f 812 749 724
f 724 658 649
f 649 714 724
f 724 749 712
f 712 658 724
f 658 623 603
f 603 649 658
f 658 712 639
f 639 623 658
f 714 649 644
f 644 704 714
f 731 730 762
f 762 766 731
f 731 704 696
f 696 730 731
f 762 799 809
f 809 766 762
f 762 769 807
f 807 799 762
f 762 730 734
f 734 769 762
f 807 817 813
f 813 799 807
f 807 818 846
f 846 817 807
f 807 769 794
f 794 818 807
f 846 854 831
f 831 817 846
f 846 881 879
f 879 854 846
f 846 818 870
f 870 881 846
f 879 875 855
f 855 854 879
f 879 910 899
f 899 875 879
f 879 881 918
f 918 910 879
f 799 813 827
f 827 809 799
f 809 827 863
f 863 825 809
f 921 948 1004
f 1004 987 921
f 987 1047 1020
f 1020 945 987
f 987 1004 1064
f 1064 1047 987
f 1047 1118 1101
f 1101 1020 1047
f 1047 1064 1131
f 1131 1118 1047
f 1118 1179 1175
f 1175 1101 1118
f 1118 1131 1186
f 1186 1179 1118
f 1179 1232 1223
f 1223 1175 1179
f 1179 1186 1236
f 1236 1232 1179
f 1232 1263 1256
f 1256 1223 1232
f 1232 1236 1272
f 1272 1263 1232
f 1263 1283 1277
f 1277 1256 1263
f 1263 1272 1285
f 1285 1283 1263
f 1285 1261 1257
f 1257 1283 1285
f 1285 1287 1264
f 1264 1261 1285
f 1285 1272 1276
f 1276 1287 1285
f 1283 1257 1254
f 1254 1277 1283
f 1254 1252 1273
f 1273 1277 1254
f 1254 1217 1213
f 1213 1252 1254
f 1254 1257 1218
f 1218 1217 1254
f 1213 1210 1248
f 1248 1252 1213
f 1213 1151 1145
f 1145 1210 1213
f 1213 1217 1154
f 1154 1151 1213
f 1151 1059 1052
f 1052 1145 1151
f 1151 1154 1061
f 1061 1059 1151
f 1059 944 942
f 942 1052 1059
f 1059 1061 946
f 946 944 1059
f 942 927 1045
f 1045 1052 942
f 942 774 765
f 765 927 942
f 942 944 778
f 778 774 942
f 765 757 903
f 903 927 765
f 765 671 670
f 670 757 765
f 765 774 672
f 672 671 765
f 670 668 742
f 742 757 670
f 670 604 616
f 616 668 670
f 670 671 598
f 598 604 670
f 616 614 667
f 667 668 616
f 616 547 546
f 546 614 616
f 616 604 535
f 535 547 616
f 546 529 596
f 596 614 546
f 546 479 459
f 459 529 546
f 546 547 481
f 481 479 546
f 479 415 389
f 389 459 479
f 479 481 416
f 416 415 479
f 415 380 323
f 323 389 415
f 415 416 382
f 382 380 415
f 380 339 295
f 295 323 380
f 380 382 340
f 340 339 380
f 339 324 265
f 265 295 339
f 339 340 325
f 325 324 339
f 324 342 297
f 297 265 324
f 324 325 341
f 341 342 324
f 297 300 267
f 267 265 297
f 297 342 384
f 384 334 297
f 333 334 402
f 402 403 333
f 403 402 486
f 486 484 403
f 484 486 565
f 565 562 484
f 562 565 657
f 657 652 562
f 652 657 771
f 771 758 652
f 758 771 953
f 953 939 758
f 939 953 1065
f 1065 1051 939
f 1065 1139 1134
f 1134 1051 1065
f 1065 1032 1104
f 1104 1139 1065
f 1065 953 934
f 934 1032 1065
f 1104 1135 1185
f 1185 1139 1104
f 1104 1107 1136
f 1136 1135 1104
f 1104 1032 1036
f 1036 1107 1104
f 1107 1141 1184
f 1184 1136 1107
f 1107 1036 1085
f 1085 1141 1107
f 1141 1181 1219
f 1219 1184 1141
f 1141 1085 1124
f 1124 1181 1141
f 1181 1207 1244
f 1244 1219 1181
f 1181 1124 1142
f 1142 1207 1181
f 1207 1214 1250
f 1250 1244 1207
f 1207 1142 1161
f 1161 1214 1207
f 1161 1142 1053
f 1053 1091 1161
f 1161 1175 1223
f 1223 1214 1161
f 1161 1091 1101
f 1101 1175 1161
f 1214 1223 1256
f 1256 1250 1214
f 1250 1273 1259
f 1259 1244 1250
f 1250 1256 1277
f 1277 1273 1250
f 1259 1238 1219
f 1219 1244 1259
f 1259 1248 1234
f 1234 1238 1259
f 1259 1273 1252
f 1252 1248 1259
f 1234 1190 1199
f 1199 1238 1234
f 1234 1189 1157
f 1157 1190 1234
f 1234 1248 1210
f 1210 1189 1234
f 1189 1130 1103
f 1103 1157 1189
f 1189 1210 1145
f 1145 1130 1189
f 1130 1045 1013
f 1013 1103 1130
f 1130 1145 1052
f 1052 1045 1130
f 1013 989 1057
f 1057 1103 1013
f 1013 903 874
f 874 989 1013
f 1013 1045 927
f 927 903 1013
f 874 873 991
f 991 989 874
f 874 742 743
f 743 873 874
f 874 903 757
f 757 742 874
f 743 756 902
f 902 873 743
f 743 667 666
f 666 756 743
f 743 742 668
f 668 667 743
f 666 662 755
f 755 756 666
f 666 596 585
f 585 662 666
f 666 667 614
f 614 596 666
f 585 596 529
f 529 523 585
f 523 529 459
f 459 455 523
f 455 459 389
f 389 387 455
f 387 389 323
f 323 320 387
f 320 323 295
f 295 292 320
f 292 295 265
f 265 267 292
f 1183 1185 1203
f 1203 1202 1183
f 1183 1134 1139
f 1139 1185 1183
f 1203 1194 1196
f 1196 1202 1203
f 1203 1153 1144
f 1144 1194 1203
f 1203 1185 1135
f 1135 1153 1203
f 1153 1152 1143
f 1143 1144 1153
f 1153 1135 1136
f 1136 1152 1153
f 1152 1199 1190
f 1190 1143 1152
f 1152 1136 1184
f 1184 1199 1152
f 1143 1119 1121
f 1121 1144 1143
f 1143 1190 1157
f 1157 1119 1143
f 1119 1057 1056
f 1056 1121 1119
f 1119 1157 1103
f 1103 1057 1119
f 1056 1111 1167
f 1167 1121 1056
f 1056 991 1015
f 1015 1111 1056
f 1056 1057 989
f 989 991 1056
f 1015 1016 1113
f 1113 1111 1015
f 1015 902 900
f 900 1016 1015
f 1015 991 873
f 873 902 1015
f 900 902 756
f 756 755 900
f 1173 1167 1111
f 1111 1113 1173
f 1173 1196 1194
f 1194 1167 1173
f 1167 1194 1144
f 1144 1121 1167
f 1199 1184 1219
f 1219 1238 1199
f 1101 1091 997
f 997 1020 1101
f 749 830 754
f 754 712 749
f 1264 1287 1289
f 1289 1267 1264
f 1227 1267 1269
f 1269 1229 1227
f 792 793 686
f 686 684 792
f 683 684 602
f 602 601 683
f 599 601 516
f 516 514 599
f 511 514 430
f 430 426 511
f 423 426 350
f 350 347 423
f 232 170 184
f 184 244 232
f 244 252 337
f 337 329 244
f 244 184 189
f 189 252 244
f 252 257 343
f 343 337 252
f 252 189 196
f 196 257 252
f 257 268 349
f 349 343 257
f 257 196 203
f 203 268 257
f 268 288 367
f 367 349 268
f 268 203 213
f 213 288 268
f 288 298 375
f 375 367 288
f 288 213 222
f 222 298 288
f 298 311 385
f 385 375 298
f 298 222 230
f 230 311 298
f 230 234 313
f 313 311 230
f 230 164 169
f 169 234 230
f 230 222 150
f 150 164 230
f 169 176 242
f 242 234 169
f 169 104 108
f 108 176 169
f 169 164 101
f 101 104 169
f 108 111 181
f 181 176 108
f 108 40 42
f 42 111 108
f 108 104 37
f 37 40 108
f 42 44 112
f 112 111 42
f 42 14 13
f 13 44 42
f 42 40 10
f 10 14 42
f 13 11 46
f 46 44 13
f 13 21 23
f 23 11 13
f 13 14 20
f 20 21 13
f 23 25 9
f 9 11 23
f 23 84 88
f 88 25 23
f 23 21 74
f 74 84 23
f 88 97 27
f 27 25 88
f 88 168 174
f 174 97 88
f 88 84 160
f 160 168 88
f 168 243 246
f 246 174 168
f 168 160 233
f 233 243 168
f 243 330 345
f 345 246 243
f 243 233 318
f 318 330 243
f 330 417 429
f 429 345 330
f 330 318 407
f 407 417 330
f 417 503 513
f 513 429 417
f 417 407 495
f 495 503 417
f 503 580 586
f 586 513 503
f 503 495 568
f 568 580 503
f 580 653 661
f 661 586 580
f 580 568 645
f 645 653 580
f 653 738 751
f 751 661 653
f 653 645 728
f 728 738 653
f 738 869 886
f 886 751 738
f 738 728 836
f 836 869 738
f 869 983 994
f 994 886 869
f 869 836 961
f 961 983 869
f 983 1049 1054
f 1054 994 983
f 983 961 1037
f 1037 1049 983
f 1049 1102 1109
f 1109 1054 1049
f 1049 1037 1092
f 1092 1102 1049
f 1054 1058 998
f 998 994 1054
f 1054 1109 1110
f 1110 1058 1054
f 1110 1114 1063
f 1063 1058 1110
f 1110 1127 1129
f 1129 1114 1110
f 1110 1109 1126
f 1126 1127 1110
f 1127 1117 1122
f 1122 1129 1127
f 1127 1126 1116
f 1116 1117 1127
f 1117 1086 1090
f 1090 1122 1117
f 1117 1116 1075
f 1075 1086 1117
f 1075 1116 1112
f 1112 1062 1075
f 1075 1007 1011
f 1011 1086 1075
f 1075 1062 1000
f 1000 1007 1075
f 1000 1062 1048
f 1048 981 1000
f 1000 893 906
f 906 1007 1000
f 1000 981 868
f 868 893 1000
f 868 981 947
f 947 820 868
f 868 737 753
f 753 893 868
f 868 820 726
f 726 737 868
f 726 820 783
f 783 715 726
f 726 646 654
f 654 737 726
f 726 715 633
f 633 646 726
f 633 715 674
f 674 625 633
f 633 560 569
f 569 646 633
f 633 625 553
f 553 560 633
f 553 625 591
f 591 536 553
f 553 478 493
f 493 560 553
f 553 536 468
f 468 478 553
f 468 536 515
f 515 458 468
f 468 393 404
f 404 478 468
f 468 458 385
f 385 393 468
f 393 313 321
f 321 404 393
f 393 385 311
f 311 313 393
f 321 332 409
f 409 404 321
f 321 242 245
f 245 332 321
f 321 313 234
f 234 242 321
f 245 251 344
f 344 332 245
f 245 181 185
f 185 251 245
f 245 242 176
f 176 181 245
f 185 187 256
f 256 251 185
f 185 112 113
f 113 187 185
f 185 181 111
f 111 112 185
f 113 117 188
f 188 187 113
f 113 46 45
f 45 117 113
f 113 112 44
f 44 46 113
f 45 47 124
f 124 117 45
f 45 9 7
f 7 47 45
f 45 46 11
f 11 9 45
f 7 12 48
f 48 47 7
f 7 27 28
f 28 12 7
f 7 9 25
f 25 27 7
f 28 26 1
f 1 12 28
f 28 102 103
f 103 26 28
f 28 27 97
f 97 102 28
f 102 179 182
f 182 103 102
f 102 97 174
f 174 179 102
f 179 254 258
f 258 182 179
f 179 174 246
f 246 254 179
f 254 358 371
f 371 258 254
f 254 246 345
f 345 358 254
f 358 451 457
f 457 371 358
f 358 345 429
f 429 451 358
f 451 531 537
f 537 457 451
f 451 429 513
f 513 531 451
f 531 609 620
f 620 537 531
f 531 513 586
f 586 609 531
f 609 678 695
f 695 620 609
f 609 586 661
f 661 678 609
f 678 760 773
f 773 695 678
f 678 661 751
f 751 760 678
f 760 894 907
f 907 773 760
f 760 751 886
f 886 894 760
f 894 998 1002
f 1002 907 894
f 894 886 994
f 994 998 894
f 1002 998 1058
f 1058 1063 1002
f 1021 1090 1086
f 1086 1011 1021
f 1021 1011 919
f 919 928 1021
f 919 1011 1007
f 1007 906 919
f 919 777 790
f 790 928 919
f 919 906 763
f 763 777 919
f 763 906 893
f 893 753 763
f 763 679 693
f 693 777 763
f 763 753 664
f 664 679 763
f 664 753 737
f 737 654 664
f 664 595 612
f 612 679 664
f 664 654 582
f 582 595 664
f 582 654 646
f 646 569 582
f 582 507 522
f 522 595 582
f 582 569 501
f 501 507 582
f 501 569 560
f 560 493 501
f 501 418 434
f 434 507 501
f 501 493 409
f 409 418 501
f 418 344 353
f 353 434 418
f 418 409 332
f 332 344 418
f 353 370 450
f 450 434 353
f 353 256 266
f 266 370 353
f 353 344 251
f 251 256 353
f 266 284 372
f 372 370 266
f 266 188 193
f 193 284 266
f 266 256 187
f 187 188 266
f 193 199 290
f 290 284 193
f 193 124 129
f 129 199 193
f 193 188 117
f 117 124 193
f 129 125 200
f 200 199 129
f 129 48 41
f 41 125 129
f 129 124 47
f 47 48 129
f 41 48 12
f 12 1 41
f 709 790 777
f 777 693 709
f 709 693 619
f 619 628 709
f 619 693 679
f 679 612 619
f 619 539 544
f 544 628 619
f 619 612 534
f 534 539 619
f 534 612 595
f 595 522 534
f 534 454 460
f 460 539 534
f 534 522 450
f 450 454 534
f 454 372 378
f 378 460 454
f 454 450 370
f 370 372 454
f 378 381 465
f 465 460 378
f 378 290 291
f 291 381 378
f 378 372 284
f 284 290 378
f 291 290 199
f 199 200 291
f 465 544 539
f 539 460 465
f 450 522 507
f 507 434 450
f 409 493 478
f 478 404 409
f 515 572 558
f 558 500 515
f 515 536 591
f 591 572 515
f 515 500 439
f 439 458 515
f 439 500 491
f 491 419 439
f 439 375 385
f 385 458 439
f 439 419 367
f 367 375 439
f 491 554 549
f 549 488 491
f 491 500 558
f 558 554 491
f 491 488 413
f 413 419 491
f 413 488 485
f 485 410 413
f 413 349 367
f 367 419 413
f 413 410 343
f 343 349 413
f 410 485 480
f 480 408 410
f 410 408 337
f 337 343 410
f 554 605 592
f 592 549 554
f 554 558 622
f 622 605 554
f 622 655 648
f 648 605 622
f 622 632 681
f 681 655 622
f 622 558 572
f 572 632 622
f 632 651 722
f 722 681 632
f 632 572 591
f 591 651 632
f 651 674 740
f 740 722 651
f 651 591 625
f 625 674 651
f 740 833 767
f 767 722 740
f 740 783 898
f 898 833 740
f 740 674 715
f 715 783 740
f 898 985 923
f 923 833 898
f 898 947 1017
f 1017 985 898
f 898 783 820
f 820 947 898
f 1017 1055 1022
f 1022 985 1017
f 1017 1048 1094
f 1094 1055 1017
f 1017 947 981
f 981 1048 1017
f 1055 1083 1031
f 1031 1022 1055
f 1055 1094 1106
f 1106 1083 1055
f 1083 1069 1012
f 1012 1031 1083
f 1083 1106 1098
f 1098 1069 1083
f 1022 1031 976
f 976 963 1022
f 1022 963 923
f 923 985 1022
f 923 963 892
f 892 841 923
f 923 841 767
f 767 833 923
f 767 841 779
f 779 729 767
f 767 729 681
f 681 722 767
f 681 729 720
f 720 655 681
f 488 549 545
f 545 485 488
f 1048 1062 1112
f 1112 1094 1048
f 623 639 555
f 555 552 623
f 910 949 936
f 936 899 910
f 875 899 896
f 896 876 875
f 952 937 974
f 974 999 952
f 859 866 719
f 719 717 859
f 717 719 583
f 583 584 717
f 584 583 482
f 482 487 584
f 487 482 396
f 396 401 487
f 583 576 452
f 452 482 583
f 570 476 452
f 452 576 570
f 466 498 425
f 425 391 466
f 383 425 427
f 427 384 383
f 427 402 334
f 334 384 427
f 297 334 333
f 333 300 297
f 474 675 512
f 1023 675 992
f 992 675 926
f 702 675 638
f 638 675 578
f 578 675 538
f 538 675 492
f 512 675 561
f 561 675 631
f 631 675 687
f 687 675 746
f 746 675 848
f 848 675 933
f 933 675 993
f 993 675 1024
f 1024 675 1041
f 1041 675 1040
f 1040 675 1023
f 421 675 447
f 447 675 474
f 926 675 837
f 837 675 744
f 744 675 702
f 492 675 462
f 462 675 431
f 431 675 421
f 300 659 267
f 1134 659 1051
f 662 659 755
f 585 659 662
f 1196 659 1202
f 1016 659 1113
f 900 659 1016
f 333 659 300
f 403 659 333
f 484 659 403
f 562 659 484
f 652 659 562
f 758 659 652
f 939 659 758
f 1051 659 939
f 523 659 585
f 455 659 523
f 387 659 455
f 320 659 387
f 292 659 320
f 267 659 292
f 1183 659 1134
f 1202 659 1183
f 755 659 900
f 1173 659 1196
f 1113 659 1173
f 1114 579 1063
f 1129 579 1114
f 1122 579 1129
f 1090 579 1122
f 26 579 1
f 103 579 26
f 182 579 103
f 258 579 182
f 371 579 258
f 457 579 371
f 537 579 457
f 620 579 537
f 695 579 620
f 773 579 695
f 907 579 773
f 1002 579 907
f 790 579 928
f 125 579 200
f 41 579 125
f 544 579 628
f 381 579 465
f 291 579 381
f 1063 579 1002
f 1021 579 1090
f 928 579 1021
f 1 579 41
f 709 579 790
f 628 579 709
f 200 579 291
f 465 579 544
