v -0.0878129378 -0.0674098134 -0.04949999601
v -0.0878129378 -0.06740980595 0.04950001091
v -0.0878129378 -0.0007495103637 -0.0656164661
v -0.0878129378 -0.0007495029131 0.06474863738
v -0.0878129378 0.06591077149 -0.04949999601
v -0.0878129378 0.06591077894 0.04950001091
v -0.07267193496 -0.08949931711 -0.04949999601
v -0.07267193496 -0.08949931711 0.04950001091
v -0.07267193496 -0.0674098134 -0.04949999601
v -0.07267193496 -0.06740980595 0.04950001091
v -0.07267193496 -0.0007495103637 -0.0656164661
v -0.07267193496 -0.0007495029131 0.06474863738
v -0.07267193496 0.06591077149 -0.04949999601
v -0.07267193496 0.06591077894 0.04950001091
v -0.07267193496 0.08800029755 -0.04949999601
v -0.07267193496 0.08800029755 0.04950001091
v -0.04967193305 -0.08949931711 -0.07249999791
v -0.04967193305 -0.08949931711 0.07250001281
v -0.04967193305 -0.0674098134 0.07250001281
v -0.04967193305 -0.06740980595 -0.07249999791
v -0.04967193305 -0.0007495103637 0.07250001281
v -0.04967193305 -0.0007495029131 -0.07249999791
v -0.04967193305 0.06591077149 0.07250001281
v -0.04967193305 0.06591077894 -0.07249999791
v -0.04967193305 0.08800029755 -0.07249999791
v -0.04967193305 0.08800029755 0.07250001281
v 0.04967193305 -0.08949931711 -0.07249999791
v 0.04967193305 -0.08949931711 0.07250001281
v 0.04967193305 -0.0674098134 -0.07249999791
v 0.04967193305 -0.06740980595 0.07250001281
v 0.04967193305 -0.0007495103637 -0.07249999791
v 0.04967193305 -0.0007495029131 0.07250001281
v 0.04967193305 0.06591077149 -0.07249999791
v 0.04967193305 0.06591077894 0.07250001281
v 0.04967193305 0.08800029755 -0.07249999791
v 0.04967193305 0.08800029755 0.07250001281
v 0.07267193496 -0.08949931711 -0.04949999601
v 0.07267193496 -0.08949931711 0.04950001091
v 0.07267193496 -0.0674098134 0.04950001091
v 0.07267193496 -0.06740980595 -0.04949999601
v 0.07267193496 -0.0007495103637 0.06512501091
v 0.07267193496 -0.0007495029131 -0.06500292569
v 0.07267193496 0.06591077149 0.04950001091
v 0.07267193496 0.06591077894 -0.04949999601
v 0.07267193496 0.08800029755 -0.04949999601
v 0.07267193496 0.08800029755 0.04950001091
v 0.08749967068 -0.06740980595 -0.04949999601
v 0.08749967068 -0.06740980595 0.04950001091
v 0.08749967068 -0.0007495103055 0.06512501091
v 0.08749967068 -0.0007495029131 -0.06500292569
v 0.08749967068 0.06591077894 -0.04949999601
v 0.08749967068 0.06591077894 0.04950001091
f 20 29 27
f 27 17 20
f 28 30 19
f 19 18 28
f 17 27 37
f 37 38 28
f 28 18 8
f 37 28 8
f 17 37 8
f 7 17 8
f 40 39 38
f 38 37 40
f 35 25 15
f 15 16 26
f 26 36 46
f 15 26 46
f 35 15 46
f 45 35 46
f 13 14 16
f 16 15 13
f 24 13 15
f 15 25 24
f 29 40 37
f 37 27 29
f 34 43 46
f 46 36 34
f 19 10 8
f 8 18 19
f 24 33 31
f 31 22 24
f 34 23 21
f 21 32 34
f 51 52 49
f 49 50 51
f 1 2 4
f 4 3 1
f 20 9 11
f 11 22 20
f 33 44 42
f 42 31 33
f 30 39 41
f 41 32 30
f 23 14 12
f 12 21 23
f 3 4 6
f 6 5 3
f 22 11 13
f 13 24 22
f 32 41 43
f 43 34 32
f 25 35 33
f 33 24 25
f 36 26 23
f 23 34 36
f 45 46 43
f 43 44 45
f 35 45 44
f 44 33 35
f 26 16 14
f 14 23 26
f 22 31 29
f 29 20 22
f 32 21 19
f 19 30 32
f 50 49 48
f 48 47 50
f 31 42 40
f 40 29 31
f 21 12 10
f 10 19 21
f 7 8 10
f 10 9 7
f 17 7 9
f 9 20 17
f 28 38 39
f 39 30 28
f 42 44 51
f 51 50 42
f 44 43 52
f 52 51 44
f 43 41 49
f 49 52 43
f 41 39 48
f 48 49 41
f 39 40 47
f 47 48 39
f 40 42 50
f 50 47 40
f 11 9 1
f 1 3 11
f 9 10 2
f 2 1 9
f 10 12 4
f 4 2 10
f 12 14 6
f 6 4 12
f 14 13 5
f 5 6 14
f 13 11 3
f 3 5 13
