v -0.2033020556 -0.04424881563 0.02536603808
v -0.2033020556 -0.03612900153 0.03594798967
v -0.2033020556 -0.02735367417 0.04537296668
v -0.2033020407 0.02735366672 0.04537296668
v -0.2033020407 0.03612900153 0.03594798967
v -0.2033020407 0.04424881563 0.02536604181
v -0.2033020407 0.04935313389 -0.01340521872
v -0.2033020407 0.04935314506 0.0130431056
v -0.2033020407 0.05109413341 -0.0001810393733
v -0.2033020258 -0.05109413341 -0.0001810430986
v -0.2033020258 -0.04935314506 0.01304310188
v -0.2033020258 -0.04935313389 -0.01340521872
v -0.2033020258 -0.044248797 -0.02572815493
v -0.2033020258 -0.03612897545 -0.03631009907
v -0.2033020258 -0.02554702759 -0.04442989826
v -0.2033020109 -0.01322408672 -0.04953422397
v -0.2033020109 2.241310693e-09 -0.05127520859
v -0.2033020109 0.01322409231 -0.04953422397
v -0.2033020109 0.02554702759 -0.04442989826
v -0.2033020109 0.0361289829 -0.03631009907
v -0.2033020109 0.044248797 -0.0257281512
v -0.2025485635 -0.02158211544 0.05251750723
v -0.2025485486 0.02158210799 0.05251750723
v -0.2001717687 -0.01551365387 0.06375651062
v -0.2001717687 0.01551364828 0.06375651062
v -0.1951623559 -0.01365706697 0.07230384648
v -0.1951623559 0.01365705952 0.07230384648
v -0.1920929998 0.05452340096 0.03129808977
v -0.1920929998 0.06081295013 0.01611376181
v -0.1920929849 -0.06081295758 0.01611375809
v -0.1920929849 -0.05452340841 0.03129808232
v -0.1920929849 -0.04451817274 0.04433715716
v -0.1920929849 -0.04451814294 -0.0446992591
v -0.1920929849 -0.0314790979 0.05434239656
v -0.19209297 0.03147909045 0.05434239656
v -0.19209297 0.04451814294 -0.04469925165
v -0.19209297 0.04451816529 0.04433716461
v -0.19209297 0.05452337861 -0.03166017681
v -0.19209297 0.06081294641 -0.01647586003
v -0.19209297 0.06295821071 -0.00018102584
v -0.1920929551 -0.06295819581 -0.0001810314279
v -0.1920929551 -0.06081294641 -0.01647586375
v -0.1920929551 -0.05452337861 -0.03166018426
v -0.1920929551 -0.03147906065 -0.05470447987
v -0.1920929402 -0.01629473269 -0.06099402159
v -0.1920929402 2.759904971e-09 -0.06313925982
v -0.1920929402 0.01629473642 -0.06099402159
v -0.1920929402 0.03147906065 -0.05470447987
v -0.1914298832 -0.0265364293 0.05868230388
v -0.1914298683 0.02653642185 0.05868230388
v -0.1898365319 -0.02143298462 0.06418117881
v -0.189836517 0.02143297717 0.06418117881
v -0.1890533268 -0.01331888512 0.07673788071
v -0.1890533268 0.01331887767 0.07673788071
v -0.186219871 -0.0189470835 0.06848894805
v -0.1862198561 0.01894707605 0.06848894805
v -0.1819370389 -0.0135098286 0.07886847854
v -0.1819370389 0.01350982115 0.07886847854
v -0.1796786189 -0.01834328845 0.07060790062
v -0.1796786189 0.018343281 0.07060790062
v -0.16496104 -0.01866503432 0.07126227021
v -0.16496104 0.01866502687 0.07126227021
v -0.1648988724 -0.01395707205 0.07985544205
v -0.1648988724 0.0139570646 0.07985544205
v -0.1548416615 -0.01982793584 0.06976142526
v -0.1548416466 0.01982792839 0.06976142526
v -0.1508197784 -0.01560509577 0.0778452754
v -0.1508197784 0.01560508832 0.0778452754
v -0.1506724358 -0.01412128285 0.08027304709
v -0.1506724358 0.0141212754 0.08027304709
v -0.1501041651 -0.02373469062 0.06480356306
v -0.1501041502 0.02373468317 0.06480356306
v -0.1487175375 0.04581030831 0.04562931135
v -0.1487175375 0.05610594526 0.03221178055
v -0.1487175375 0.06257805973 0.01658672653
v -0.1487175226 -0.06257804483 0.01658672281
v -0.1487175226 -0.05610595271 0.0322117731
v -0.1487175226 -0.04581031576 0.0456293039
v -0.1487175226 -0.0323927775 0.05592494458
v -0.1487175226 -0.02844445035 0.05988110229
v -0.1487175077 0.02844444662 0.05988110229
v -0.1487175077 0.03239277005 0.05592494458
v -0.1487175077 0.04581028968 -0.04599137977
v -0.1487175077 0.05610592663 -0.03257384524
v -0.1487175077 0.06257804483 -0.01694880798
v -0.1487175077 0.06478556991 -0.000181014635
v -0.1487174928 -0.06478555501 -0.000181020223
v -0.1487174928 -0.06257802993 -0.01694881171
v -0.1487174928 -0.05610592663 -0.03257385269
v -0.1487174928 -0.04581028968 -0.04599138722
v -0.1487174928 -0.03239274025 -0.05628700927
v -0.1487174779 -0.01676769741 -0.06275910139
v -0.1487174779 2.839776636e-09 -0.06496660411
v -0.1487174779 0.01676770113 -0.06275910139
v -0.1487174779 0.03239274025 -0.05628700927
v -0.1434808671 -0.01946767606 0.07309890538
v -0.1434808671 0.01946766861 0.07309890538
v -0.1426964998 -0.01442067698 0.08053229749
v -0.1426964998 0.01442066953 0.08053229749
v -0.1407400817 0.07081517577 0.01879386045
v -0.1407400668 -0.07081517577 0.018793853
v -0.1407400668 -0.03665663302 0.06331014633
v -0.1407400519 0.03665662557 0.06331014633
v -0.1407400519 0.05184030905 0.05165930837
v -0.1407400519 0.06349112093 -0.03683768585
v -0.1407400519 0.06349115074 0.03647563607
v -0.1407400519 0.07081516087 -0.01915593818
v -0.1407400519 0.07331325859 -0.0001810105605
v -0.140740037 -0.07331325859 -0.0001810180111
v -0.140740037 -0.07081516087 -0.01915594563
v -0.140740037 -0.06349115074 0.03647562861
v -0.140740037 -0.06349112093 -0.0368376933
v -0.140740037 -0.0518403165 0.05165930092
v -0.1407400221 -0.01897482201 -0.07099622488
v -0.1407400221 0.01897482574 -0.07099622488
v -0.1407400221 0.0518402867 -0.05202136561
v -0.1407400072 -0.0518402867 -0.05202137306
v -0.1407400072 -0.03665658832 -0.06367221475
v -0.1407399923 3.21253335e-09 -0.07349431515
v -0.1407399923 0.03665659577 -0.06367221475
v -0.1407240331 -0.02602911368 0.06850485504
v -0.1407240182 0.02602910623 0.06850485504
v -0.126326561 -0.02516144514 0.07078728825
v -0.126326561 0.02516144514 0.07078728825
v -0.1260733604 -1.291578335e-13 0.08205337077
v -0.1260589212 -0.03836478665 0.06370245665
v -0.1260589212 0.03836478665 0.06370245665
v -0.125933215 -0.06633358449 0.03280191123
v -0.125933215 0.06633358449 0.03280191123
v -0.1258988976 -0.07080858946 0.02214271389
v -0.1258988976 0.07080858946 0.02214271389
v -0.1258889884 -0.05833181366 0.04568934441
v -0.1258889884 0.05833181366 0.04568934441
v -0.1258879751 -1.291578335e-13 -0.07441423833
v -0.1258752793 -0.04846897349 0.05646887422
v -0.1258752793 0.04846897349 0.05646887422
v -0.1258506626 -0.05233868212 -0.05300109088
v -0.1258506626 0.05233868212 -0.05300109088
v -0.1258363426 -0.02395348623 -0.07064359635
v -0.1258363426 0.02395348623 -0.07064359635
v -0.1258337498 -0.07396118343 0.008303531446
v -0.1258337498 0.07396118343 0.008303531446
v -0.125832364 -0.01153378095 -0.07364064455
v -0.125832364 0.01153378095 -0.07364064455
v -0.1258289814 -0.06310645491 -0.03970290348
v -0.1258289814 0.06310645491 -0.03970290348
v -0.1258209199 -0.03916789219 -0.06356076151
v -0.1258209199 0.03916789219 -0.06356076151
v -0.1258147359 -0.07408241928 -0.008303570561
v -0.1258147359 0.07408241928 -0.008303570561
v -0.1257778704 -0.07040879875 -0.02484178729
v -0.1257778704 0.07040879875 -0.02484178729
v -0.1257471591 -0.05957995355 0.04661352187
v -0.1257471591 0.05957995355 0.04661352187
v -0.1256747842 -0.01525747962 0.08212982118
v -0.1256747842 0.01525747962 0.08212982118
v -0.1252105385 -0.03801712394 0.07150714844
v -0.1252105385 0.03801712394 0.07150714844
v -0.1250391006 -0.05471750721 0.05876667053
v -0.1250391006 0.05471750721 0.05876667053
v -0.1249348447 -0.02619032748 0.08245226741
v -0.1249348447 0.02619032748 0.08245226741
v -0.1243374571 -0.04030294716 -0.06500339508
v -0.1243374571 0.04030294716 -0.06500339508
v -0.1243369728 -0.07584198564 0.008385212161
v -0.1243369728 0.07584198564 0.008385212161
v -0.1242703721 -0.05392898247 -0.05427800491
v -0.1242703721 0.05392898247 -0.05427800491
v -0.1242209002 -1.291578335e-13 -0.07659587264
v -0.1241941005 -0.06868370622 0.0344433859
v -0.1241941005 0.06868370622 0.0344433859
v -0.124181971 -0.01196557097 -0.07564239949
v -0.124181971 0.01196557097 -0.07564239949
v -0.1241596043 -0.07595579326 -0.008980534971
v -0.1241596043 0.07595579326 -0.008980534971
v -0.1241175085 -0.06463214755 -0.04111214727
v -0.1241175085 0.06463214755 -0.04111214727
v -0.1240843311 -1.291578335e-13 0.09464811534
v -0.1240713298 -0.02469768003 -0.07262803614
v -0.1240713298 0.02469768003 -0.07262803614
v -0.1240222454 -0.07309811562 0.02270178869
v -0.1240222454 0.07309811562 0.02270178869
v -0.1240061224 -0.05078781769 0.06909892708
v -0.1240061224 0.05078781769 0.06909892708
v -0.1239226535 -0.07232320309 -0.02555815689
v -0.1239226535 0.07232320309 -0.02555815689
v -0.123741962 -0.06293095648 0.04813272506
v -0.123741962 0.06293095648 0.04813272506
v -0.1235479489 -0.01405423693 0.09455266595
v -0.1235479489 0.01405423693 0.09455266595
v -0.1235474572 -0.03771471977 0.08230899274
v -0.1235474572 0.03771471977 0.08230899274
v -0.1229363605 -0.05797536299 0.05995650589
v -0.1229363605 0.05797536299 0.05995650589
v -0.1228128448 -0.06787128001 -0.02396450937
v -0.1228128448 0.06787128001 -0.02396450937
v -0.1227836907 -0.0714847222 -0.008049100637
v -0.1227836907 0.0714847222 -0.008049100637
v -0.1227620393 -0.06092040241 -0.03835566714
v -0.1227620393 0.06092040241 -0.03835566714
v -0.1227598265 -0.02310505882 -0.06823211908
v -0.1227598265 0.02310505882 -0.06823211908
v -0.1227474809 -0.06844424456 0.02145101689
v -0.1227474809 0.06844424456 0.02145101689
v -0.1227189675 -0.0378527306 -0.061404787
v -0.1227189675 0.0378527306 -0.061404787
v -0.1227174178 -1.291578335e-13 -0.0719755441
v -0.1227146685 -0.01114198752 -0.07116547227
v -0.1227146685 0.01114198752 -0.07116547227
v -0.122711204 -0.07147653401 0.008027389646
v -0.122711204 0.07147653401 0.008027389646
v -0.1226981059 -0.05061582848 -0.05124234781
v -0.1226981059 0.05061582848 -0.05124234781
v -0.1225349382 -0.02664329112 0.09412829578
v -0.1225349382 0.02664329112 0.09412829578
v -0.1224998906 -0.06446819752 0.03194597736
v -0.1224998906 0.06446819752 0.03194597736
v -0.1223706454 -0.02482093126 0.07030276209
v -0.1223706454 0.02482093126 0.07030276209
v -0.12212459 -1.291578335e-13 0.08141535521
v -0.1221068501 -0.03795922548 0.06323697418
v -0.1221068501 0.03795922548 0.06323697418
v -0.1219208688 -0.04808517918 0.05600479245
v -0.1219208688 0.04808517918 0.05600479245
v -0.1219055802 -0.05804655328 0.04546328634
v -0.1219055802 0.05804655328 0.04546328634
v -0.1217789352 -0.05446616933 0.0696894452
v -0.1217789352 0.05446616933 0.0696894452
v -0.1217351258 -0.0150449425 0.081471093
v -0.1217351258 0.0150449425 0.081471093
v -0.1216286421 -0.04813291132 0.08194690198
v -0.1216286421 0.04813291132 0.08194690198
v -0.1213454232 -0.05953978747 0.04651447013
v -0.1213454232 0.05953978747 0.04651447013
v -0.1212664768 -0.03762403503 0.07096873969
v -0.1212664768 0.03762403503 0.07096873969
v -0.1210408881 -1.291578335e-13 0.1069359332
v -0.1210049987 -0.02580234595 0.08181527257
v -0.1210049987 0.02580234595 0.08181527257
v -0.1208126843 -0.038253434 0.09292291105
v -0.1208126843 0.038253434 0.09292291105
v -0.1206411868 -0.05457077175 0.0583807081
v -0.1206411868 0.05457077175 0.0583807081
v -0.1205957457 -1.291578335e-13 -0.07915838063
v -0.120555371 -0.07101947814 0.03549809754
v -0.120555371 0.07101947814 0.03549809754
v -0.1205430031 -0.07530090958 0.02389309928
v -0.1205430031 0.07530090958 0.02389309928
v -0.1204964519 -0.06678646058 -0.04234119505
v -0.1204964519 0.06678646058 -0.04234119505
v -0.1204584315 -0.01261569094 -0.07823866606
v -0.1204584315 0.01261569094 -0.07823866606
v -0.120437026 -0.07841649652 0.008685963228
v -0.120437026 0.07841649652 0.008685963228
v -0.1204334497 -0.07464870065 -0.02629568987
v -0.1204334497 0.07464870065 -0.02629568987
v -0.1204263642 -0.01425822079 0.106795013
v -0.1204263642 0.01425822079 0.106795013
v -0.1204233319 -0.02604952641 -0.07477936894
v -0.1204233319 0.02604952641 -0.07477936894
v -0.1202600151 -0.05688413233 -0.05520960689
v -0.1202600151 0.05688413233 -0.05520960689
v -0.1202166528 -0.04306318238 -0.06658161432
v -0.1202166528 0.04306318238 -0.06658161432
v -0.1201807857 -0.06523326784 0.04898867756
v -0.1201807857 0.06523326784 0.04898867756
v -0.1200639904 -0.07878452539 -0.008959040977
v -0.1200639904 0.07878452539 -0.008959040977
v -0.1196665987 -0.03716373444 0.08151189983
v -0.1196665987 0.03716373444 0.08151189983
v -0.1196564734 -0.06030790135 0.06037924066
v -0.1196564734 0.06030790135 0.06037924066
v -0.1195740849 -0.05080140755 0.06839307398
v -0.1195740849 0.05080140755 0.06839307398
v -0.1190963089 -0.05174218118 0.08189547062
v -0.1190963089 0.05174218118 0.08189547062
v -0.118981421 -0.04770214856 0.09097840637
v -0.118981421 0.04770214856 0.09097840637
v -0.1188731939 -0.02784756385 0.1057941988
v -0.1188731939 0.02784756385 0.1057941988
v -0.1187689602 -0.05652333423 0.07016289234
v -0.1187689602 0.05652333423 0.07016289234
v -0.1186824217 -1.291578335e-13 0.09983321279
v -0.1181327105 -0.01383863576 0.09966712445
v -0.1181327105 0.01383863576 0.09966712445
v -0.1178476214 -0.06400407851 -0.04068564251
v -0.1178476214 0.06400407851 -0.04068564251
v -0.1178341955 -0.0751195848 0.008426040411
v -0.1178341955 0.0751195848 0.008426040411
v -0.1178167462 -0.01218151487 -0.0749322772
v -0.1178167462 0.01218151487 -0.0749322772
v -0.1178053916 -0.02491517365 -0.07161490619
v -0.1178053916 0.02491517365 -0.07161490619
v -0.1177990288 -0.06756459922 -0.04300219566
v -0.1177990288 0.06756459922 -0.04300219566
v -0.117778495 -0.07211453468 0.02319287881
v -0.117778495 0.07211453468 0.02319287881
v -0.1177524105 -1.291578335e-13 -0.07593783736
v -0.1177190021 -0.07150232792 -0.02529234812
v -0.1177190021 0.07150232792 -0.02529234812
v -0.1177138388 -0.07930979133 0.008953318
v -0.1177138388 0.07930979133 0.008953318
v -0.1176680475 -0.05455069616 -0.05278567225
v -0.1176680475 0.05455069616 -0.05278567225
v -0.1176572815 -0.06809552014 0.03412596136
v -0.1176572815 0.06809552014 0.03412596136
v -0.1176482588 -0.07537969947 -0.008462350816
v -0.1176482588 0.07537969947 -0.008462350816
v -0.1176254451 -0.04141782969 -0.06369493902
v -0.1176254451 0.04141782969 -0.06369493902
v -0.1175978109 -0.01301642787 -0.07905745506
v -0.1175978109 0.01301642787 -0.07905745506
v -0.1175281629 -0.02640525065 -0.07555294782
v -0.1175281629 0.02640525065 -0.07555294782
v -0.1175227314 -0.07952025533 -0.008757270873
v -0.1175227314 0.07952025533 -0.008757270873
v -0.1174938008 -0.07615683228 0.02456232347
v -0.1174938008 0.07615683228 0.02456232347
v -0.1174621582 -0.04385891929 -0.06714545935
v -0.1174621582 0.04385891929 -0.06714545935
v -0.1174507737 -0.06226107106 0.0475359261
v -0.1174507737 0.06226107106 0.0475359261
v -0.11743287 -0.05766363069 -0.05560973659
v -0.11743287 0.05766363069 -0.05560973659
v -0.1174113229 -0.07547124475 -0.02679648064
v -0.1174113229 0.07547124475 -0.02679648064
v -0.117397584 -1.291578335e-13 -0.08023037016
v -0.1172103882 -0.07214934379 0.03557069227
v -0.1172103882 0.07214934379 0.03557069227
v -0.1171440855 -1.291578335e-13 0.1188897341
v -0.1171097308 -0.06618046016 0.04916254804
v -0.1171097308 0.06618046016 0.04916254804
v -0.1169970632 -0.05110026896 0.09001993388
v -0.1169970632 0.05110026896 0.09001993388
v -0.1169605479 -0.05731646717 0.058921583
v -0.1169605479 0.05731646717 0.058921583
v -0.1169223338 -0.0266260542 0.09883120656
v -0.1169223338 0.0266260542 0.09883120656
v -0.1166488305 -0.06124452874 0.06047638878
v -0.1166488305 0.06124452874 0.06047638878
v -0.1165151969 -0.04057863727 0.1036380902
v -0.1165151969 0.04057863727 0.1036380902
v -0.116160132 -0.01485468913 0.1186323911
v -0.116160132 0.01485468913 0.1186323911
v -0.1161419749 -0.05345156789 0.06880140305
v -0.1161419749 0.05345156789 0.06880140305
v -0.1159680262 -0.05747417733 0.06995623559
v -0.1159680262 0.05747417733 0.06995623559
v -0.115450412 -0.05310888588 0.08605375141
v -0.115450412 0.05310888588 0.08605375141
v -0.115116477 -0.04984743893 0.09912285954
v -0.115116477 0.04984743893 0.09912285954
v -0.1149873286 -0.03852844983 0.09699657559
v -0.1149873286 0.03852844983 0.09699657559
v -0.1138581261 -0.02949556895 0.1177800968
v -0.1138581261 0.02949556895 0.1177800968
v -0.1136212945 -0.05297019333 0.09680556506
v -0.1136212945 0.05297019333 0.09680556506
v -0.1128819287 -0.05425746739 0.08490484953
v -0.1128819287 0.05425746739 0.08490484953
v -0.1128365621 -1.291578335e-13 0.1302374303
v -0.1115482599 -0.01537149958 0.1302625388
v -0.1115482599 0.01537149958 0.1302625388
v -0.1110733077 -1.291578335e-13 0.1314904988
v -0.1105741337 -0.07424087077 0.01928414777
v -0.1105741337 0.07424087077 0.01928415522
v -0.1105741113 0.05434809253 0.05373947322
v -0.1105741039 -0.07685979456 -0.0006086297217
v -0.1105741039 -0.06656254083 0.0378212817
v -0.1105741039 -0.05434809253 0.05373946577
v -0.1105741039 0.03842988983 0.0659539327
v -0.1105741039 0.06656251848 -0.03903857246
v -0.1105741039 0.07685980946 -0.0006086241337
v -0.1105740964 -0.06656250358 -0.03903857991
v -0.1105740964 -0.03842989728 0.0659539327
v -0.1105740964 0.06656254083 0.03782128915
v -0.1105740741 -0.07424084842 -0.02050147206
v -0.1105740741 0.02728826739 0.07403787225
v -0.1105740741 0.07424086332 -0.02050146461
v -0.1105740666 -0.05434805527 -0.05495677516
v -0.1105740666 -0.02728827484 0.07403787225
v -0.1105740666 -0.021117419 0.07741627097
v -0.1105740666 -0.01606690884 0.08449959755
v -0.1105740666 0.03842986003 -0.06717118621
v -0.1105740592 -0.03842985258 -0.06717118621
v -0.1105740592 -0.01989274099 -0.0748495087
v -0.1105740592 3.344535981e-09 -0.07746843249
v -0.1105740592 0.01606689766 0.08449959755
v -0.1105740592 0.02111741155 0.07741627097
v -0.1105740592 0.05434806272 -0.05495676026
v -0.1105740517 0.01989274472 -0.0748495087
v -0.1103729308 -0.05434050038 0.1050395891
v -0.1103729308 0.05434050038 0.1050395891
v -0.1099949777 -0.04783920944 0.07236737758
v -0.1099949703 -0.06608587503 0.03562683612
v -0.1099949628 0.04783929139 0.07236737758
v -0.1099949628 0.05179640651 -0.05622450635
v -0.1099949628 0.06608595699 0.03562683612
v -0.1099949554 -0.07573258132 -0.001113700797
v -0.1099949554 0.06692288816 -0.03785423562
v -0.1099949554 0.07573266327 -0.001113700797
v -0.1099949479 0.01555389725 -0.07459477335
v -0.1099949405 -0.01555382647 -0.07459477335
v -0.109994933 -0.0669228062 -0.03785423562
v -0.109994933 -0.05179632828 -0.05622450635
v -0.1097658277 -0.01517303009 0.1314903945
v -0.1097658277 0.01517303009 0.1314903945
v -0.1097267345 -1.291578335e-13 0.1277571172
v -0.1096782535 -0.056690678 0.09537792951
v -0.1096782535 0.056690678 0.09537792951
v -0.1096751168 -0.0455984734 0.1154158637
v -0.1096751168 0.0455984734 0.1154158637
v -0.1096561849 -0.05675531924 0.1015496999
v -0.1096561849 0.05675531924 0.1015496999
v -0.1096029282 -0.0519034788 0.08989855647
v -0.1096029282 0.0519034788 0.08989855647
v -0.1087726727 -0.02910878323 0.1302771121
v -0.1087726727 0.02910878323 0.1302771121
v -0.1084901541 -0.01496242732 0.1277437657
v -0.1084901541 0.01496242732 0.1277437657
v -0.1080649495 -0.05717362463 0.09283431619
v -0.1080649495 0.05717362463 0.09283431619
v -0.1071061715 -0.02868039161 0.1314777285
v -0.1071061715 0.02868039161 0.1314777285
v -0.1069363281 -1.291578335e-13 0.1314904839
v -0.1069363281 -1.291578335e-13 0.1356408745
v -0.1061989814 -0.0666917786 0.04872692376
v -0.1061989814 0.0666917786 0.04872692376
v -0.106093742 -0.06303197145 0.04711609706
v -0.106093742 0.06303197145 0.04711609706
v -0.1060566157 -0.06149455532 0.06047540158
v -0.1060566157 0.06149455532 0.06047540158
v -0.1059694886 -0.05779733881 0.05895126238
v -0.1059694886 0.05779733881 0.05895126238
v -0.1059283167 -0.07224745303 0.03617664054
v -0.1059283167 0.07224745303 0.03617664054
v -0.1058428138 -0.07984045148 0.009368970059
v -0.1058428138 0.07984045148 0.009368970059
v -0.1058340669 -0.07996466756 -0.008846907876
v -0.1058340669 0.07996466756 -0.008846907876
v -0.1058140546 -0.02833022922 0.1277449429
v -0.1058140546 0.02833022922 0.1277449429
v -0.1058083177 -0.06854238361 0.03467394784
v -0.1058083177 0.06854238361 0.03467394784
v -0.1057222784 -0.07647604495 0.02485440299
v -0.1057222784 0.07647604495 0.02485440299
v -0.1056871861 -0.07599116862 -0.00841132924
v -0.1056871861 0.07599116862 -0.00841132924
v -0.1056775674 -0.01460771356 0.1356407702
v -0.1056775674 -0.01460771263 0.1314903796
v -0.1056775674 0.01460771263 0.1314903796
v -0.1056775674 0.01460771356 0.1356407702
v -0.1056670025 -0.05822740123 0.0690273717
v -0.1056670025 0.05822740123 0.0690273717
v -0.1056545451 -0.0758708939 0.008913838305
v -0.1056545451 0.0758708939 0.008913838305
v -0.1055909693 -0.04366648942 -0.06767619401
v -0.1055909693 0.04366648942 -0.06767619401
v -0.105579406 -0.0677793026 -0.04335806891
v -0.105579406 0.0677793026 -0.04335806891
v -0.1055748314 -0.07263647765 0.02374265343
v -0.1055748314 0.07263647765 0.02374265343
v -0.1055695191 -0.05787843838 -0.05603151396
v -0.1055695191 0.05787843838 -0.05603151396
v -0.1055424586 -0.01375080738 -0.07943210006
v -0.1055424586 0.01375080738 -0.07943210006
v -0.1055067182 -0.07569058985 -0.02735598199
v -0.1055067182 0.07569058985 -0.02735598199
v -0.1054984406 -0.02666336112 -0.07601407915
v -0.1054984406 0.02666336112 -0.07601407915
v -0.1054857001 -0.05440458655 0.06786408275
v -0.1054857001 0.05440458655 0.06786408275
v -0.1054669693 -0.04152255505 -0.06430155784
v -0.1054669693 0.04152255505 -0.06430155784
v -0.1054542586 -0.06439825892 -0.04122432321
v -0.1054542586 0.06439825892 -0.04122432321
v -0.1054295674 -0.05501297116 -0.05324412882
v -0.1054295674 0.05501297116 -0.05324412882
v -0.1053918228 -0.04783921316 0.08633910865
v -0.1053918004 0.04783928767 0.08633910865
v -0.1053831354 -0.01305376925 -0.07549652457
v -0.1053831354 0.01305376925 -0.07549652457
v -0.105380699 -0.07192767411 -0.02600520477
v -0.105380699 0.07192767411 -0.02600520477
v -0.10532213 -0.02526704408 -0.07226985693
v -0.10532213 0.02526704408 -0.07226985693
v -0.1052415594 -1.291578335e-13 -0.0805990994
v -0.1051147208 -1.291578335e-13 -0.07660111785
v -0.1041140109 -0.04327373952 0.1302251965
v -0.1041140109 0.04327373952 0.1302251965
v -0.1037391424 -0.06209956482 0.1091732606
v -0.1037391424 0.06209956482 0.1091732606
v -0.1036625355 -0.05595444143 0.08055341989
v -0.1036625355 0.05595444143 0.08055341989
v -0.1035949737 -0.06381436437 0.1050836965
v -0.1035949737 0.06381436437 0.1050836965
v -0.1031170115 -0.0276118163 0.1314781904
v -0.1031170115 -0.0276118163 0.135628581
v -0.1031170115 0.0276118163 0.1314781904
v -0.1031170115 0.0276118163 0.135628581
v -0.1030041352 -0.05201157928 0.08041074127
v -0.1030041352 0.05201157928 0.08041074127
v -0.1029363349 -1.291578335e-13 0.1356408745
v -0.1024044305 -0.04234893993 0.1315000057
v -0.1024044305 0.04234893993 0.1315000057
v -0.1023531556 -0.06514586508 0.09925769269
v -0.1023531556 0.06514586508 0.09925769269
v -0.1017168015 -0.01404886041 0.1356407702
v -0.1017168015 0.01404886041 0.1356407702
v -0.1012687981 -0.0419812873 0.1276998371
v -0.1012687981 0.0419812873 0.1276998371
v -0.1012470126 -0.05761404335 0.08628362417
v -0.1012470126 0.05761404335 0.08628362417
v -0.1011896282 -0.0650858283 0.09634836763
v -0.1011896282 0.0650858283 0.09634836763
v -0.1008824185 -0.0590005964 0.1190474257
v -0.1008824185 0.0590005964 0.1190474257
v -0.09972922504 -0.05415251851 0.0875928849
v -0.09972922504 0.05415251851 0.0875928849
v -0.09925442189 -0.02657238953 0.135628581
v -0.09925442189 0.02657238953 0.135628581
v -0.0985904485 -0.04077110067 0.1356500238
v -0.0985904485 -0.04077109694 0.1314996332
v -0.0985904485 0.04077109694 0.1314996332
v -0.0985904485 0.04077110067 0.1356500238
v -0.09753900766 -0.05637358874 0.1301285774
v -0.09753900766 0.05637358874 0.1301285774
v -0.09665931761 -0.06324250996 0.09000606835
v -0.09665931761 0.06324250996 0.09000606835
v -0.09602952003 -0.05539382249 0.1314789057
v -0.09602952003 0.05539382249 0.1314789057
v -0.09569122642 -0.06656638533 0.09914654493
v -0.09569122642 0.06656638533 0.09914654493
v -0.09539364278 -0.0736092478 0.09956791252
v -0.09539364278 0.0736092478 0.09956791252
v -0.09535741806 -0.07369704545 0.10672988
v -0.09535741806 0.07369704545 0.10672988
v -0.09493239224 -0.07265642285 0.1109382808
v -0.09493239224 0.07265642285 0.1109382808
v -0.09489990026 -0.07261909544 0.09660111368
v -0.09489990026 0.07261909544 0.09660111368
v -0.09489528835 -0.03923949972 0.1356500238
v -0.09489528835 0.03923949972 0.1356500238
v -0.09446014464 -0.06073701382 0.09221652895
v -0.09446014464 0.06073701382 0.09221652895
v -0.09255664796 -0.06873874366 0.09089899063
v -0.09255664796 0.06873874366 0.09089899063
v -0.09245305508 -0.05332995579 0.1356297135
v -0.09245305508 -0.05332995206 0.1314793229
v -0.09245305508 0.05332995206 0.1314793229
v -0.09245305508 0.05332995579 0.1356297135
v -0.0919772163 -0.07083504647 0.1203838289
v -0.0919772163 0.07083504647 0.1203838289
v -0.09064785391 -0.06089503318 0.1277268529
v -0.09064785391 0.06089503318 0.1277268529
v -0.09015733004 -0.06658959389 0.09327058494
v -0.09015733004 0.06658959389 0.09327058494
v -0.08981541544 -0.06608588248 0.03724486753
v -0.08981540799 -0.04783921316 0.0745247528
v -0.08981540054 -0.07573259622 -3.501234096e-05
v -0.08981540054 -0.01555382553 -0.0745947659
v -0.08981539309 -0.0669228211 -0.03731488809
v -0.08981539309 -0.05179633573 -0.05595482513
v -0.08981539309 0.04783928022 0.0745247528
v -0.08981539309 0.05179639533 -0.05595482513
v -0.08981539309 0.06608593464 0.03724486753
v -0.08981538564 0.06692287326 -0.03731488809
v -0.08981538564 0.07573264092 -3.501234096e-05
v -0.08981537819 0.01555389445 -0.0745947659
v -0.08899538219 -0.05131886154 0.1356297135
v -0.08899538219 0.05131886154 0.1356297135
v -0.08890689909 -0.06906437874 0.1301564276
v -0.08890689909 0.06906437874 0.1301564276
v -0.08754304051 -0.06782305241 0.1314912587
v -0.08754304051 0.06782305241 0.1314912587
v -0.08514081687 -0.08422990143 0.09954921901
v -0.08514081687 0.08422990143 0.09954921901
v -0.08498907089 -0.08439339697 0.1066803187
v -0.08498907089 0.08439339697 0.1066803187
v -0.08486004174 -0.08316744864 0.09644255787
v -0.08486004174 0.08316744864 0.09644255787
v -0.08445775509 -0.08363614976 0.1110635176
v -0.08445775509 0.08363614976 0.1110635176
v -0.0842827633 -0.06529609859 0.131491214
v -0.0842827633 -0.06529609859 0.1356416047
v -0.0842827633 0.06529609859 0.131491214
v -0.0842827633 0.06529609859 0.1356416047
v -0.08332849294 -0.07963393629 0.09099951386
v -0.08332849294 0.07963393629 0.09099951386
v -0.08244034648 -0.08091894537 0.0991672501
v -0.08244034648 0.08091894537 0.0991672501
v -0.08194541186 -0.08159854263 0.1207221299
v -0.08194541186 0.08159854263 0.1207221299
v -0.08113304526 -0.06283047795 0.1356416047
v -0.08113304526 0.06283047795 0.1356416047
v -0.08092487603 -0.07726947963 0.09315171093
v -0.08092487603 0.07726947963 0.09315171093
v -0.07965238392 -0.07942800969 0.1300856024
v -0.07965238392 0.07942800969 0.1300856024
v -0.07834327221 -0.07811895758 0.1314893067
v -0.07834327221 0.07811895758 0.1314893067
v -0.07739464939 -0.07713837177 0.1277407557
v -0.07739464939 0.07713837177 0.1277407557
v -0.07542575896 -0.07520839572 0.1314893365
v -0.07542575896 -0.07520839572 0.1356397271
v -0.07542575896 0.07520839572 0.1314893365
v -0.07542575896 0.07520839572 0.1356397271
v -0.07342527807 -0.09370617568 0.09976644814
v -0.07342527807 0.09370617568 0.09976644814
v -0.07321229577 -0.09270049632 0.09645850956
v -0.07321229577 0.09270049632 0.09645850956
v -0.073122181 -0.09391095489 0.1067595854
v -0.073122181 0.09391095489 0.1067595854
v -0.07261323184 -0.07236415148 0.1356397271
v -0.07261323184 0.07236415148 0.1356397271
v -0.072334975 -0.09345887601 0.1109745875
v -0.072334975 0.09345887601 0.1109745875
v -0.07204402983 -0.0900260061 0.0911231935
v -0.07204402983 0.0900260061 0.0911231935
v -0.07024680823 -0.09114541113 0.1207179874
v -0.07024680823 0.09114541113 0.1207179874
v -0.06986895204 -0.08722773194 0.09297756851
v -0.06986895204 0.08722773194 0.09297756851
v -0.06836421788 -0.08915967494 0.1301245391
v -0.06836421788 0.08915967494 0.1301245391
v -0.06729720533 -0.08776753396 0.1314733475
v -0.06729720533 0.08776753396 0.1314733475
v -0.0668317154 -0.05086004734 0.1330452263
v -0.0668317005 0.0508601144 0.1330452412
v -0.06479124725 -0.08449748158 0.1314739734
v -0.06479124725 -0.08449748158 0.135624364
v -0.06479124725 0.08449748158 0.1314739734
v -0.06479124725 0.08449748158 0.135624364
v -0.06446620822 -0.09415259957 0.09903448075
v -0.06446620822 0.09415259957 0.09903448075
v -0.06236805022 -0.08131501079 0.135624364
v -0.06236805022 0.08131501079 0.135624364
v -0.06052978337 -0.09050544351 0.127776742
v -0.06052978337 0.09050544351 0.127776742
v -0.059868671 -0.1019221395 0.09967879206
v -0.059868671 0.1019221395 0.09967879206
v -0.05959778279 -0.1021042019 0.1067497209
v -0.05959778279 0.1021042019 0.1067497209
v -0.05947799981 -0.1013680547 0.09646613896
v -0.05947799981 0.1013680547 0.09646613896
v -0.05890256912 -0.1016316563 0.1108773798
v -0.05890256912 0.1016316563 0.1108773798
v -0.0581023097 -0.09928096831 0.0911892727
v -0.0581023097 0.09928096831 0.0911892727
v -0.05746233091 -0.09927272797 0.1206444651
v -0.05746233091 0.09927272797 0.1206444651
v -0.0569928363 -0.05086004362 0.11733713
v -0.05699281767 0.05086010322 0.11733713
v -0.05636522919 -0.09610141069 0.09288425744
v -0.05636522919 0.09610141069 0.09288425744
v -0.0562652871 -0.09735010564 0.1298845708
v -0.0562652871 0.09735010564 0.1298845708
v -0.05535537377 -0.09565259516 0.1314911097
v -0.05535537377 0.09565259516 0.1314911097
v -0.05329434574 -0.0920887664 0.131491065
v -0.05329434574 -0.0920887664 0.1356414557
v -0.05329434574 0.0920887664 0.131491065
v -0.05329434574 0.0920887664 0.1356414557
v -0.05132619292 -0.08860646933 0.1356414557
v -0.05132619292 0.08860646933 0.1356414557
v -0.04514878988 -0.1084999144 0.1067484319
v -0.04514878988 0.1084999144 0.1067484319
v -0.04511745274 -0.108483538 0.09968052059
v -0.04511745274 0.108483538 0.09968052059
v -0.0447678864 -0.1079649329 0.1107145548
v -0.0447678864 0.1079649329 0.1107145548
v -0.04473589361 -0.1079396456 0.09655733407
v -0.04473589361 0.1079396456 0.09655733407
v -0.04387284815 -0.105831258 0.1205819994
v -0.04387284815 0.105831258 0.1205819994
v -0.04377046227 -0.1058403105 0.09118665755
v -0.04377046227 0.1058403105 0.09118665755
v -0.04308388382 -0.1038345098 0.1298904121
v -0.04308388382 0.1038345098 0.1298904121
v -0.04248485342 -0.1023931056 0.09275637567
v -0.04248485342 0.1023931056 0.09275637567
v -0.04228458554 -0.101891838 0.1314970106
v -0.04228458554 0.101891838 0.1314970106
v -0.0407105498 -0.09809554368 0.1314967573
v -0.0407105498 -0.09809554368 0.1356471479
v -0.0407105498 0.09809554368 0.1314967573
v -0.0407105498 0.09809554368 0.1356471479
v -0.03920142725 -0.09439114481 0.1356471479
v -0.03920142725 0.09439114481 0.1356471479
v -0.03628136218 -0.1066972613 0.09889790416
v -0.03628136218 0.1066972613 0.09889790416
v -0.0350195244 -0.1028838307 0.1277632117
v -0.0350195244 0.1028838307 0.1277632117
v -0.03068911284 -0.06544323266 0.11733713
v -0.03068909235 0.06544327736 0.11733713
v -0.0304195825 -0.06544323266 0.1330452412
v -0.03041956015 0.06544329226 0.1330452412
v -0.03009998798 -0.1130053848 0.1068389565
v -0.03009998798 0.1130053848 0.1068389565
v -0.03003588319 -0.1129196733 0.09960111976
v -0.03003588319 0.1129196733 0.09960111976
v -0.02986490726 -0.1123984903 0.1106865928
v -0.02986490726 0.1123984903 0.1106865928
v -0.02969332039 -0.1123690456 0.09657631069
v -0.02969332039 0.1123690456 0.09657631069
v -0.02954520285 -0.11028032 0.1205307692
v -0.02954520285 0.11028032 0.1205307692
v -0.02911062539 -0.108369641 0.1298466474
v -0.02911062539 0.108369641 0.1298466474
v -0.02861809731 -0.1103927344 0.0911411792
v -0.02861809731 0.1103927344 0.0911411792
v -0.02860917151 -0.1065506116 0.1314824224
v -0.02860917151 0.1065506116 0.1314824224
v -0.0277900137 -0.1067747697 0.09263269603
v -0.0277900137 0.1067747697 0.09263269603
v -0.02754465677 -0.102580741 0.1314827055
v -0.02754465677 -0.102580741 0.1356330961
v -0.02754465677 0.102580741 0.1314827055
v -0.02754465677 0.102580741 0.1356330961
v -0.02651193738 -0.09871635586 0.1356330961
v -0.02651193738 0.09871635586 0.1356330961
v -0.01484262943 -0.1154248863 0.0995933339
v -0.01484262943 0.1154248863 0.0995933339
v -0.01481214538 -0.1154732853 0.1065497771
v -0.01481214538 0.1154732853 0.1065497771
v -0.01469149068 -0.1149165183 0.096591115
v -0.01469149068 0.1149165183 0.096591115
v -0.01466085389 -0.1148616821 0.1110292599
v -0.01466085389 0.1148616821 0.1110292599
v -0.01462550089 -0.1129085273 0.1205034554
v -0.01462550089 0.1129085273 0.1205034554
v -0.0144198928 -0.111369364 0.1297958344
v -0.0144198928 0.111369364 0.1297958344
v -0.01437096484 -0.1112766862 0.09882387519
v -0.01437096484 0.1112766862 0.09882387519
v -0.01413857937 -0.1093928143 0.1314989924
v -0.01413857937 0.1093928143 0.1314989924
v -0.01408421993 -0.1126939207 0.09109913558
v -0.01408421993 0.1126939207 0.09109913558
v -0.01396866702 -0.107939586 0.1278011501
v -0.01396866702 0.107939586 0.1278011501
v -0.01374056656 -0.1090131029 0.09262671322
v -0.01374056656 0.1090131029 0.09262671322
v -0.01361321099 -0.1053170487 0.1314986646
v -0.01361321099 -0.1053170487 0.1356490552
v -0.01361321099 0.1053170487 0.1314986646
v -0.01361321099 0.1053170487 0.1356490552
v -0.01308371872 -0.1013522446 0.1356490552
v -0.01308371872 0.1013522446 0.1356490552
v 3.858839045e-05 -0.1022967398 0.135629788
v 3.858839045e-05 0.1022967398 0.135629788
v 5.152137965e-05 -0.1062967181 0.1314793974
v 5.152137965e-05 -0.1062967181 0.135629788
v 5.152137965e-05 0.1062967181 0.1314793974
v 5.152137965e-05 0.1062967181 0.135629788
v 5.497783422e-05 -0.1104103997 0.1314789802
v 5.497783422e-05 0.1104103997 0.1314789802
v 8.948147297e-05 -0.1123144701 0.1297275871
v 8.948147297e-05 0.1123144701 0.1297275871
v 0.0002298035251 -0.1137175485 0.1203831285
v 0.0002298035251 0.1137175485 0.1203831285
v 0.0003387778997 -0.1155648679 0.1106621101
v 0.0003387778997 0.1155648679 0.1106621101
v 0.0003978256136 -0.1160462946 0.1065474674
v 0.0003978256136 0.1160462946 0.1065474674
v 0.0004131160676 -0.1159977466 0.09959397465
v 0.0004131160676 0.1159977466 0.09959397465
v 0.0004521347582 -0.1153904349 0.09649876505
v 0.0004521347582 0.1153904349 0.09649876505
v 0.0004810676328 -0.1094343737 0.09247907996
v 0.0004810676328 0.1094343737 0.09247907996
v 0.0005861520767 -0.113136217 0.09096735716
v 0.0005861520767 0.113136217 0.09096735716
v 0.006952384021 -0.1083531678 0.1278243661
v 0.006952384021 0.1083531678 0.1278243661
v 0.007369360421 -0.1111804321 0.09881468117
v 0.007369360421 0.1111804321 0.09881468117
v 0.01294432394 -0.1012822241 0.1356490552
v 0.01294432394 0.1012822241 0.1356490552
v 0.01347134821 -0.105247356 0.1314986646
v 0.01347134821 -0.105247356 0.1356490552
v 0.01347134821 0.105247356 0.1314986646
v 0.01347134821 0.105247356 0.1356490552
v 0.01399415173 -0.1093204245 0.1314989924
v 0.01399415173 0.1093204245 0.1314989924
v 0.01408661436 -0.1082315668 0.09259393066
v 0.01408661436 0.1082315668 0.09259393066
v 0.0143497549 -0.1113230214 0.1297831982
v 0.0143497549 0.1113230214 0.1297831982
v 0.01459641196 -0.1118897498 0.0910584107
v 0.01459641196 0.1118897498 0.0910584107
v 0.01479662396 -0.1124454141 0.1203192845
v 0.01479662396 0.1124454141 0.1203192845
v 0.01486307662 -0.1141780093 0.09659843892
v 0.01486307662 0.1141780093 0.09659843892
v 0.01501525007 -0.1147110462 0.09951207787
v 0.01501525007 0.1147110462 0.09951207787
v 0.01502666622 -0.1142798215 0.1106331423
v 0.01502666622 0.1142798215 0.1106331423
v 0.01504137181 -0.1147477552 0.106746152
v 0.01504137181 0.1147477552 0.106746152
v 0.02641484886 -0.09874857962 0.1356250793
v 0.02641484886 0.09874857962 0.1356250793
v 0.02743792534 -0.1026155353 0.1314746886
v 0.02743792534 -0.1026155353 0.1356250793
v 0.02743792534 0.1026155353 0.1314746886
v 0.02743792534 0.1026155353 0.1356250793
v 0.02850123495 -0.1065867543 0.1314740926
v 0.02850123495 0.1065867543 0.1314740926
v 0.02902764454 -0.1083472595 0.1294426471
v 0.02902764454 0.1083472595 0.1294426471
v 0.02910316549 -0.1053303033 0.09237614274
v 0.02910316549 0.1053303033 0.09237614274
v 0.02949698456 -0.109649241 0.120238319
v 0.02949698456 0.109649241 0.120238319
v 0.029901281 -0.1089489013 0.09086990356
v 0.029901281 0.1089489013 0.09086990356
v 0.0299782753 -0.1112769991 0.1106775403
v 0.0299782753 0.1112769991 0.1106775403
v 0.03016274422 -0.1117025763 0.106767565
v 0.03016274422 0.1117025763 0.106767565
v 0.030335702 -0.1112857908 0.09672912955
v 0.030335702 0.1112857908 0.09672912955
v 0.03038743883 -0.1118514389 0.09947925061
v 0.03038743883 0.1118514389 0.09947925061
v 0.0347940959 -0.102744408 0.1277936697
v 0.0347940959 0.102744408 0.1277936697
v 0.03675834835 -0.1057565957 0.09874583781
v 0.03675834835 0.1057565957 0.09874583781
v 0.03898283839 -0.0944262296 0.1356490552
v 0.03898283839 0.0944262296 0.1356490552
v 0.04051390663 -0.09812161326 0.1314986646
v 0.04051390663 -0.09812161326 0.1356490552
v 0.04051390663 0.09812161326 0.1314986646
v 0.04051390663 0.09812161326 0.1356490552
v 0.04208325595 -0.1019189134 0.1314989924
v 0.04208325595 0.1019189134 0.1314989924
v 0.04273870587 -0.1038030759 0.1298097372
v 0.04273870587 0.1038030759 0.1298097372
v 0.04312673956 -0.1014119908 0.09137497842
v 0.04312673956 0.1014119908 0.09137497842
v 0.04385000095 -0.1052492931 0.1202928722
v 0.04385000095 0.1052492931 0.1202928722
v 0.04418517649 -0.1050315723 0.09004143625
v 0.04418517649 0.1050315723 0.09004143625
v 0.04508395493 -0.1067207754 0.1106276065
v 0.04508395493 0.1067207754 0.1106276065
v 0.04513420165 -0.1072974056 0.09660092741
v 0.04513420165 0.1072974056 0.09660092741
v 0.04523653537 -0.1073422283 0.1067898124
v 0.04523653537 0.1073422283 0.1067898124
v 0.04531855136 -0.1077057421 0.09949010611
v 0.04531855136 0.1077057421 0.09949010611
v 0.05101914704 -0.08854401112 0.1356490552
v 0.05101914704 0.08854401112 0.1356490552
v 0.05297517776 -0.09203313291 0.1314986646
v 0.05297517776 -0.09203313291 0.1356490552
v 0.05297517776 0.09203313291 0.1314986646
v 0.05297517776 0.09203313291 0.1356490552
v 0.05502677709 -0.09559481591 0.1314989924
v 0.05502677709 0.09559481591 0.1314989924
v 0.05602645874 -0.09734199196 0.1298645288
v 0.05602645874 0.09734199196 0.1298645288
v 0.05635171011 -0.09675297886 0.0880793184
v 0.05635171011 0.09675297886 0.0880793184
v 0.0570538491 -0.06544324011 0.1173371449
v 0.05705386773 0.06544325501 0.1173371449
v 0.05733886734 -0.09902150184 0.12019068
v 0.05733886734 0.09902150184 0.12019068
v 0.05749683827 -0.1004719883 0.08715321869
v 0.05749683827 0.1004719883 0.08715321869
v 0.05898943543 -0.1007906944 0.1105459705
v 0.05898943543 0.1007906944 0.1105459705
v 0.05902126431 -0.1025255024 0.09648431838
v 0.05902126431 0.1025255024 0.09648431838
v 0.05920140445 -0.1016979665 0.1065722033
v 0.05920140445 0.1016979665 0.1065722033
v 0.05929665267 -0.1026191264 0.09951465577
v 0.05929665267 0.1026191264 0.09951465577
v 0.06016030908 -0.09068210423 0.1277693212
v 0.06016030908 0.09068210423 0.1277693212
v 0.06188438088 -0.0816224739 0.1356490552
v 0.06188438088 0.0816224739 0.1356490552
v 0.0642574206 -0.08484251797 0.1314986646
v 0.0642574206 -0.08484251797 0.1356490552
v 0.0642574206 0.08484251797 0.1314986646
v 0.0642574206 0.08484251797 0.1356490552
v 0.06448841095 -0.09626542032 0.09740485996
v 0.06448841095 0.09626542032 0.09740485996
v 0.0667456463 -0.08812592179 0.1314989924
v 0.0667456463 0.08812592179 0.1314989924
v 0.06743180007 -0.06544324756 0.1330452412
v 0.06743182987 0.06544327736 0.1330452412
v 0.06743443012 -0.09242217243 0.08294279873
v 0.06743443012 0.09242217243 0.08294279873
v 0.06795240939 -0.08968054503 0.1299608648
v 0.06795240939 0.08968054503 0.1299608648
v 0.06857956946 -0.09619249403 0.08225478232
v 0.06857956946 0.09619249403 0.08225478232
v 0.06987726688 -0.09159848839 0.1198399514
v 0.06987726688 0.09159848839 0.1198399514
v 0.07210530341 -0.09411349893 0.1098008752
v 0.07210530341 0.09411349893 0.1098008752
v 0.07236807793 -0.09533721209 0.1062601656
v 0.07236807793 0.09533721209 0.1062601656
v 0.07259213924 -0.09746038914 0.09526482224
v 0.07259213924 0.09746038914 0.09526482224
v 0.07262133062 -0.07252578437 0.1356370449
v 0.07262133062 0.07252578437 0.1356370449
v 0.07269503176 -0.0973033756 0.09818948805
v 0.07269503176 0.0973033756 0.09818948805
v 0.07539682835 -0.07540617138 0.1314866543
v 0.07539682835 -0.07540617138 0.1356370449
v 0.07539682835 0.07540617138 0.1314866543
v 0.07539682835 0.07540617138 0.1356370449
v 0.07657706738 -0.08845870942 0.07545370609
v 0.07657706738 0.08845870942 0.07545370609
v 0.07765960693 -0.09226001799 0.07483877242
v 0.07765960693 0.09226001799 0.07483877242
v 0.07831614465 -0.07832438499 0.1314865202
v 0.07831614465 0.07832438499 0.1314865202
v 0.07951091975 -0.07975328714 0.1301175654
v 0.07951091975 0.07975328714 0.1301175654
v 0.08130593598 -0.08609989285 0.06891943514
v 0.08130593598 0.08609989285 0.06891943514
v 0.08137775213 -0.06293663383 0.1356384754
v 0.08137775213 0.06293663383 0.1356384754
v 0.08185508102 -0.08309105784 0.1188658178
v 0.08185508102 0.08309105784 0.1188658178
v 0.08206439018 -0.07227379084 0.1277222037
v 0.08206439018 0.07227379084 0.1277222037
v 0.08225487173 -0.08994001895 0.06832534075
v 0.08225487173 0.08994001895 0.06832534075
v 0.08379608393 -0.09332094342 0.09227783978
v 0.08379608393 0.09332094342 0.09227783978
v 0.08434141427 -0.06544324011 0.08252818137
v 0.08434142917 0.06544325501 0.08252818137
v 0.08451808989 -0.06541419029 0.1314880848
v 0.08451808989 -0.06541419029 0.1356384754
v 0.08451808989 0.06541419029 0.1314880848
v 0.08451808989 0.06541419029 0.1356384754
v 0.08480581641 -0.09260742366 0.09508123994
v 0.08480581641 0.09260742366 0.09508123994
v 0.0850970149 -0.08874188364 0.1048998162
v 0.0850970149 0.08874188364 0.1048998162
v 0.08514893055 -0.08689299226 0.1083411798
v 0.08514893055 0.08689299226 0.1083411798
v 0.0858104676 -0.08380907029 0.06124820933
v 0.0858104676 0.08380907029 0.06124820933
v 0.08632852137 -0.08804160357 0.091492787
v 0.08632852137 0.08804160357 0.091492787
v 0.08655615151 -0.0877000168 0.06069642305
v 0.08655615151 0.0877000168 0.06069642305
v 0.08779039979 -0.06794571877 0.1314880103
v 0.08779039979 0.06794571877 0.1314880103
v 0.08910602331 -0.05154244602 0.1356323808
v 0.08910602331 0.05154244602 0.1356323808
v 0.08917979896 -0.06909593195 0.1302254647
v 0.08917979896 0.06909593195 0.1302254647
v 0.08975365758 -0.08091067523 0.04704650864
v 0.08975365758 0.08091067523 0.04704650864
v 0.08977551013 -0.06544326246 0.07078325003
v 0.08977551013 -0.06544324756 0.05922408402
v 0.08977553248 -0.06544324756 0.0001579208474
v 0.08977553248 0.06544324756 0.05922408402
v 0.08977553248 0.06544326246 0.07078325003
v 0.08977555484 0.06544324756 0.0001579208474
v 0.08977556229 -0.052371528 -0.03844235837
v 0.08977557719 0.05237153545 -0.03844235837
v 0.08977558464 -0.02170247026 -0.06150212139
v 0.08977559209 0.02170247771 -0.06150212139
v 0.09032636881 -0.08482701331 0.04646834359
v 0.09032636881 0.08482701331 0.04646834359
v 0.09076560289 -0.09082295001 0.0886214301
v 0.09076560289 0.09082295001 0.0886214301
v 0.09142893553 -1.291578335e-13 -0.06725239754
v 0.09156806022 -0.06514728069 -0.04523931071
v 0.09156806022 0.06514728069 -0.04523931071
v 0.09159116447 -0.02352038771 -0.06665630639
v 0.09159116447 0.02352038771 -0.06665630639
v 0.09161701053 -0.05891473964 -0.05539818108
v 0.09161701053 0.05891473964 -0.05539818108
v 0.09165436774 -0.07812319696 0.02932731062
v 0.09165436774 0.07812319696 0.02932731062
v 0.09166384488 -0.01150224451 -0.06716275215
v 0.09166384488 0.01150224451 -0.06716275215
v 0.09167734534 -0.06826215237 -0.03327577561
v 0.09167734534 0.06826215237 -0.03327577561
v 0.09177661687 -0.03576701134 -0.06540718675
v 0.09177661687 0.03576701134 -0.06540718675
v 0.09178274125 -0.07474996895 0.005554164294
v 0.09178274125 0.07474996895 0.005554164294
v 0.09185344726 -0.07178661227 -0.01329854503
v 0.09185344726 0.07178661227 -0.01329854503
v 0.09187808633 -1.291578335e-13 -0.07122710347
v 0.09190002829 -0.04894415662 -0.0617075488
v 0.09190002829 0.04894415662 -0.0617075488
v 0.09200089425 -0.06879703701 -0.04681789503
v 0.09200089425 0.06879703701 -0.04681789503
v 0.09203492105 -0.02380963229 -0.0706210807
v 0.09203492105 0.02380963229 -0.0706210807
v 0.09207610041 -0.0617467761 -0.05818543956
v 0.09207610041 0.0617467761 -0.05818543956
v 0.09207944572 -0.07214637846 -0.03414244577
v 0.09207944572 0.07214637846 -0.03414244577
v 0.09211604297 -0.08991806209 0.09162416309
v 0.09211604297 0.08991806209 0.09162416309
v 0.09211856127 -0.01159165613 -0.07113581896
v 0.09211856127 0.01159165613 -0.07113581896
v 0.09215867519 -0.08205301315 0.02877754346
v 0.09215867519 0.08205301315 0.02877754346
v 0.09223239124 -0.07868305594 0.004980872385
v 0.09223239124 0.07868305594 0.004980872385
v 0.09224528074 -0.03651709855 -0.06930817664
v 0.09224528074 0.03651709855 -0.06930817664
v 0.09225456417 -0.07571249455 -0.01395164616
v 0.09225456417 0.07571249455 -0.01395164616
v 0.09237784892 -0.05059274659 -0.06532055885
v 0.09237784892 0.05059274659 -0.06532055885
v 0.09256409109 -0.05355286226 0.1356323808
v 0.09256409109 -0.05355285853 0.1314819902
v 0.09256409109 0.05355285853 0.1314819902
v 0.09256409109 0.05355286226 0.1356323808
v 0.09296423942 -0.07408352196 0.1168666855
v 0.09296423942 0.07408352196 0.1168666855
v 0.09484107047 -0.03988316655 0.1356483847
v 0.09484107047 0.03988316655 0.1356483847
v 0.09538212419 -0.08360278606 0.1018307507
v 0.09538212419 0.08360278606 0.1018307507
v 0.09574460983 -0.08126676083 0.1050629914
v 0.09574460983 0.08126676083 0.1050629914
v 0.0957807973 -0.08896672726 0.08392672986
v 0.0957807973 0.08896672726 0.08392672986
v 0.0961477831 -0.05562535673 0.1314816773
v 0.0961477831 0.05562535673 0.1314816773
v 0.09731724113 -0.08405312896 0.08229750395
v 0.09731724113 0.08405312896 0.08229750395
v 0.09762994945 -0.05650996417 0.130223304
v 0.09762994945 0.05650996417 0.130223304
v 0.09780579805 -0.0879021734 0.08684028685
v 0.09780579805 0.0879021734 0.08684028685
v 0.09813757241 -0.0487813279 0.1276679784
v 0.09813757241 0.0487813279 0.1276679784
v 0.09853854775 -0.04140916094 0.1356483847
v 0.09853854775 -0.04140915722 0.1314979941
v 0.09853854775 0.04140915722 0.1314979941
v 0.09853854775 0.04140916094 0.1356483847
v 0.09931262583 -0.0266420655 0.1356476694
v 0.09931262583 0.0266420655 0.1356476694
v 0.09969940037 -0.06544326246 0.09477745742
v 0.09969941527 0.06544326246 0.09477745742
v 0.09999839962 -0.08742818236 0.07879880816
v 0.09999839962 0.08742818236 0.07879880816
v 0.1018540114 -0.0136567913 0.1356408149
v 0.1018540114 0.0136567913 0.1356408149
v 0.1023534536 -0.04301169515 0.1314982921
v 0.1023534536 0.04301169515 0.1314982921
v 0.1024015993 -0.08205786347 0.07378333807
v 0.1024015993 0.08205786347 0.07378333807
v 0.1024947166 -0.0861415863 0.08066019416
v 0.1024947166 0.0861415863 0.08066019416
v 0.1026722863 -1.291578335e-13 0.1356500238
v 0.1030612364 -0.08619600534 0.07325918227
v 0.1030612364 0.08619600534 0.07325918227
v 0.1031787246 -0.02766836435 0.1314972788
v 0.1031787246 -0.02766836435 0.1356476694
v 0.1031787246 0.02766836435 0.1314972788
v 0.1031787246 0.02766836435 0.1356476694
v 0.1039561927 -0.07938940823 0.09679783136
v 0.1039561927 0.07938940823 0.09679783136
v 0.1039754301 -0.04378252476 0.1303474009
v 0.1039754301 0.04378252476 0.1303474009
v 0.1047416776 -0.07681915164 0.09972756356
v 0.1047416776 0.07681915164 0.09972756356
v 0.1048389226 -1.291578335e-13 -0.06548769772
v 0.1048506349 -0.01715062186 -0.06514915824
v 0.1048506349 0.01715062186 -0.06514915824
v 0.1048956215 -0.06300593913 0.1129330099
v 0.1048956215 0.06300593913 0.1129330099
v 0.1052024961 -0.02303534374 -0.069203794
v 0.1052024961 0.02303534374 -0.069203794
v 0.1052027047 -0.04093167931 -0.06219856814
v 0.1052027047 0.04093167931 -0.06219856814
v 0.1053037047 -1.291578335e-13 -0.06972558796
v 0.1053441688 -0.08492664993 0.06543660909
v 0.1053441688 0.08492664993 0.06543660909
v 0.1054409742 -0.01169486158 -0.06958822906
v 0.1054409742 0.01169486158 -0.06958822906
v 0.1055336297 -0.03561380506 -0.06788371503
v 0.1055336297 0.03561380506 -0.06788371503
v 0.1055479646 -0.08482635021 0.07447276264
v 0.1055479646 0.08482635021 0.07447276264
v 0.1058219895 -0.01416188758 0.1356408149
v 0.1058219895 -0.01416188665 0.1314904243
v 0.1058219895 0.01416188665 0.1314904243
v 0.1058219895 0.01416188758 0.1356408149
v 0.10582304 -0.07788272947 0.04378257692
v 0.10582304 0.07788272947 0.04378257692
v 0.1061351076 -0.06829786301 -0.02151101455
v 0.1061351076 0.06829786301 -0.02151101455
v 0.1061374545 -0.04867709056 -0.06445854157
v 0.1061374545 0.04867709056 -0.06445854157
v 0.1063706279 -0.06033520028 -0.05741540715
v 0.1063706279 0.06033520028 -0.05741540715
v 0.1065909639 -0.07076565921 -0.03372595087
v 0.1065909639 0.07076565921 -0.03372595087
v 0.1066555977 -0.08298430592 0.05055144802
v 0.1066555977 0.08298430592 0.05055144802
v 0.106672287 -1.291578335e-13 0.1314996332
v 0.106672287 -1.291578335e-13 0.1356500238
v 0.1067612469 -0.07411604375 -0.01460774243
v 0.1067612469 0.07411604375 -0.01460774243
v 0.1068647578 -0.06731717288 -0.04623314366
v 0.1068647578 0.06731717288 -0.04623314366
v 0.1068973094 -0.0768224448 0.003985063639
v 0.1068973094 0.0768224448 0.003985063639
v 0.107030265 -0.08005713671 0.02838042378
v 0.107030265 0.08005713671 0.02838042378
v 0.1071732044 -0.02873912826 0.1314975619
v 0.1071732044 0.02873912826 0.1314975619
v 0.107333459 -0.02153935097 0.1276790798
v 0.107333459 0.02153935097 0.1276790798
v 0.1079168618 -0.08347023278 0.06609527767
v 0.1079168618 0.08347023278 0.06609527767
v 0.1082127988 -1.291578335e-13 -0.06808620691
v 0.1082478464 -0.01164560299 -0.06793493032
v 0.1082478464 0.01164560299 -0.06793493032
v 0.1082837582 -0.02286416851 -0.06746578217
v 0.1082837582 0.02286416851 -0.06746578217
v 0.1084811389 -0.03510402516 -0.06617165357
v 0.1084811389 0.03510402516 -0.06617165357
v 0.10861063 -0.0479795076 -0.06315416098
v 0.10861063 0.0479795076 -0.06315416098
v 0.1088611484 -0.06544326246 0.07841622829
v 0.1088611707 0.06544326246 0.07841622829
v 0.1090363264 -0.02921636216 0.1301470399
v 0.1090363264 0.02921636216 0.1301470399
v 0.1090952158 -0.0591763258 -0.0560625717
v 0.1090952158 0.0591763258 -0.0560625717
v 0.1091209576 -0.06544326246 0.05922411382
v 0.1091209725 -0.06544326246 0.0001579440432
v 0.1091209799 0.06544326246 0.05922411382
v 0.1091209874 -0.05237155408 -0.03844234347
v 0.1091209874 0.06544326246 0.0001579440432
v 0.1091210023 -0.02170249447 -0.06150210649
v 0.1091210023 0.05237155408 -0.03844234347
v 0.1091210097 0.02170249447 -0.06150210649
v 0.1091762558 -0.05229395628 0.1056738198
v 0.1091762558 0.05229395628 0.1056738198
v 0.1092484593 -0.06619494408 -0.04504008964
v 0.1092484593 0.06619494408 -0.04504008964
v 0.1092983186 -0.08157966286 0.05099166185
v 0.1092983186 0.08157966286 0.05099166185
v 0.1095308438 -0.06920921057 -0.03285293281
v 0.1095308438 0.06920921057 -0.03285293281
v 0.1095550656 -0.07536998391 0.004453825764
v 0.1095550656 0.07536998391 0.004453825764
v 0.1095576286 -0.07256567478 -0.01430521067
v 0.1095576286 0.07256567478 -0.01430521067
v 0.1096368581 -1.291578335e-13 0.1276790053
v 0.1097330749 -0.07674764097 0.09037850797
v 0.1097330749 0.07674764097 0.09037850797
v 0.1097839177 -0.07833472639 0.02888047136
v 0.1097839177 0.07833472639 0.02888047136
v 0.1099187583 -0.01470995042 0.1314904392
v 0.1099187583 0.01470995042 0.1314904392
v 0.110801965 -1.291578335e-13 0.1315000057
v 0.1108615398 -0.04558939114 0.1160616726
v 0.1108615398 0.04558939114 0.1160616726
v 0.1113037169 -0.07366544008 0.09261056781
v 0.1113037169 0.07366544008 0.09261056781
v 0.1116525829 -0.01511325128 0.1302976757
v 0.1116525829 0.01511325128 0.1302976757
v 0.1127667502 -1.291578335e-13 0.1302009672
v 0.1141581684 -0.07433973253 0.08144569397
v 0.1141581684 0.07433973253 0.08144569397
v 0.114968136 -0.03010820225 0.1174310744
v 0.114968136 0.03010820225 0.1174310744
v 0.1151595786 -0.06066161394 0.09871196747
v 0.1151595786 0.06066161394 0.09871196747
v 0.1155973524 -0.02213786542 0.1089927182
v 0.1155973524 0.02213786542 0.1089927182
v 0.1159760952 -0.07110698521 0.08310212195
v 0.1159760952 0.07110698521 0.08310212195
v 0.1165364981 -0.07282908261 0.07016469538
v 0.1165364981 0.07282908261 0.07016469538
v 0.1170550734 -0.01513742935 0.1177659631
v 0.1170550734 0.01513742935 0.1177659631
v 0.1172329858 -1.291578335e-13 0.1093444377
v 0.1173996925 -0.06786447018 0.03162777051
v 0.1173996925 0.06786447018 0.03162777051
v 0.1174667478 -0.07066656649 0.05369114503
v 0.1174667478 0.07066656649 0.05369114503
v 0.1175209582 -0.06440132856 0.008307700045
v 0.1175209582 0.06440132856 0.008307700045
v 0.1175977141 -0.03474586084 -0.04391430318
v 0.1175977141 0.03474586084 -0.04391430318
v 0.1176074743 -0.06090033799 -0.01165344473
v 0.1176074743 0.06090033799 -0.01165344473
v 0.1178599 -0.0574975498 -0.02678491361
v 0.1178599 0.0574975498 -0.02678491361
v 0.1179112047 -1.291578335e-13 0.1179153472
v 0.1183699071 -0.05436703563 -0.03510081396
v 0.1183699071 0.05436703563 -0.03510081396
v 0.1184477955 -0.05041714013 0.08484815061
v 0.1184477955 0.05041714013 0.08484815061
v 0.1185237169 -0.06914876401 0.07037560642
v 0.1185237169 0.06914876401 0.07037560642
v 0.1188750267 -0.03890453279 -0.0100713335
v 0.1188750267 0.03890453279 -0.0100713335
v 0.1189699247 -0.04549796879 0.1019407287
v 0.1189699247 0.04549796879 0.1019407287
v 0.1190027148 -0.0158601217 -0.04613344744
v 0.1190027148 0.0158601217 -0.04613344744
v 0.1190773547 -0.06418996304 0.03199086711
v 0.1190773547 0.06418996304 0.03199086711
v 0.1190957725 -0.06083014607 0.009406437166
v 0.1190957725 0.06083014607 0.009406437166
v 0.1191282868 -0.05735844374 -0.01067787595
v 0.1191282868 0.05735844374 -0.01067787595
v 0.1191414893 -0.06695861369 0.05354322866
v 0.1191414893 0.06695861369 0.05354322866
v 0.1192778945 -0.04887696356 -0.04168589786
v 0.1192778945 0.04887696356 -0.04168589786
v 0.1193383634 -0.0540552102 -0.0255245734
v 0.1193383634 0.0540552102 -0.0255245734
v 0.1193968654 -1.291578335e-13 -0.04653533921
v 0.1197295189 -0.05133414641 -0.03289666772
v 0.1197295189 0.05133414641 -0.03289666772
v 0.1200735569 -0.04596815631 0.0466883257
v 0.1200735569 0.04596815631 0.0466883257
v 0.120272398 -0.04085177183 -0.04579057544
v 0.120272398 0.04085177183 -0.04579057544
v 0.1204610169 -0.04672691971 -0.03868005425
v 0.1204610169 0.04672691971 -0.03868005425
v 0.1205080599 -0.05849304423 0.08482794464
v 0.1205080599 0.05849304423 0.08482794464
v 0.1212511957 -0.01693902351 -0.007961075753
v 0.1212511957 0.01693902351 -0.007961075753
v 0.1212936938 -0.03098339029 -0.04782094434
v 0.1212936938 0.03098339029 -0.04782094434
v 0.1214232445 -0.03956871852 -0.04225191101
v 0.1214232445 0.03956871852 -0.04225191101
v 0.1216594949 -0.04146793112 -0.03166194633
v 0.1216594949 0.04146793112 -0.03166194633
v 0.1217804849 -0.03022774309 0.1033055335
v 0.1217804849 0.03022774309 0.1033055335
v 0.1218079478 -1.291578335e-13 -0.007478900254
v 0.1218378395 -0.04367660731 -0.02015940286
v 0.1218378395 0.04367660731 -0.02015940286
v 0.121906966 -0.0217045024 -0.04901141673
v 0.121906966 0.0217045024 -0.04901141673
v 0.1220382676 -0.04616516083 -0.005490733311
v 0.1220382676 0.04616516083 -0.005490733311
v 0.1222052425 -0.04881349951 0.01238075923
v 0.1222052425 0.04881349951 0.01238075923
v 0.1223959029 -0.01078202762 -0.04955153912
v 0.1223959029 0.01078202762 -0.04955153912
v 0.1224555969 -0.03014016338 -0.04411737993
v 0.1224555969 0.03014016338 -0.04411737993
v 0.1224915385 -0.05148525536 0.03229759261
v 0.1224915385 0.05148525536 0.03229759261
v 0.1225095689 -1.291578335e-13 -0.04972759262
v 0.1226087883 -0.05634580925 0.06954482943
v 0.1226087883 0.05634580925 0.06954482943
v 0.1228060722 -0.05398634821 0.05190265924
v 0.1228060722 0.05398634821 0.05190265924
v 0.122859627 -0.02186458558 0.08674509078
v 0.122859627 0.02186458558 0.08674509078
v 0.1229401976 -0.03148747236 -0.03118139692
v 0.1229401976 0.03148747236 -0.03118139692
v 0.1231254339 -0.02117512934 -0.04511684924
v 0.1231254339 0.02117512934 -0.04511684924
v 0.123237446 -0.01512252074 0.1034642383
v 0.123237446 0.01512252074 0.1034642383
v 0.1234278008 -0.03304403275 -0.01769738831
v 0.1234278008 0.03304403275 -0.01769738831
v 0.1235662699 -0.01068689208 -0.04587258399
v 0.1235662699 0.01068689208 -0.04587258399
v 0.1237142384 -0.01990306191 0.04731958359
v 0.1237142384 0.01990306191 0.04731958359
v 0.1237465739 -1.291578335e-13 -0.04595882818
v 0.1238441169 -0.02137988806 -0.03110520914
v 0.1238441169 0.02137988806 -0.03110520914
v 0.1239642724 -0.03481912613 -0.002620948944
v 0.1239642724 0.03481912613 -0.002620948944
v 0.1239653155 -0.04436480626 0.08638928086
v 0.1239653155 0.04436480626 0.08638928086
v 0.1240183786 0 0.1036381274
v 0.1243161634 0 0.08670825511
v 0.1243622378 -0.01078571286 -0.0311309658
v 0.1243622378 0.01078571286 -0.0311309658
v 0.1244809404 -0.03674939275 0.01438195445
v 0.1244809404 0.03674939275 0.01438195445
v 0.1245379597 -0.02219756506 -0.0166865401
v 0.1245379597 0.02219756506 -0.0166865401
v 0.1245526597 -1.291578335e-13 -0.03109392151
v 0.1246521249 0 0.04757330567
v 0.1250665337 -0.03876305372 0.03288565949
v 0.1250665337 0.03876305372 0.03288565949
v 0.1251406223 -0.01113661844 -0.01626782306
v 0.1251406223 0.01113661844 -0.01626782306
v 0.1252416074 -0.02327764966 -0.001378730056
v 0.1252416074 0.02327764966 -0.001378730056
v 0.1253581792 -1.291578335e-13 -0.01600946859
v 0.1256054491 -0.04075723141 0.05151754618
v 0.1256054491 0.04075723141 0.05151754618
v 0.1257286519 -0.04269642755 0.06943050027
v 0.1257286519 0.04269642755 0.06943050027
v 0.1259606481 -0.0116827637 -0.0005539575941
v 0.1259606481 0.0116827637 -0.0005539575941
v 0.1259889454 -0.02457587793 0.01548367552
v 0.1259889454 0.02457587793 0.01548367552
v 0.126048103 -0.02966394089 0.08740269393
v 0.126048103 0.02966394089 0.08740269393
v 0.1262026131 -1.291578335e-13 -0.0001951642334
v 0.1267133802 -0.02593093179 0.03344927728
v 0.1267133802 0.02593093179 0.03344927728
v 0.1268290281 -0.01233123243 0.01629780233
v 0.1268290281 0.01233123243 0.01629780233
v 0.127095744 -1.291578335e-13 0.01653271914
v 0.1274499446 -0.02728744596 0.05166560411
v 0.1274499446 0.02728744596 0.05166560411
v 0.1275119036 -0.01484944951 0.08745402098
v 0.1275119036 0.01484944951 0.08745402098
v 0.1276960224 -0.0285968557 0.06973398477
v 0.1276960224 0.0285968557 0.06973398477
v 0.1277063787 -0.01300980896 0.03387261182
v 0.1277063787 0.01300980896 0.03387261182
v 0.1280300319 -1.291578335e-13 0.03403193504
v 0.1282614619 0 0.08736751974
v 0.1285856515 -0.01369808335 0.05187446252
v 0.1285856515 0.01369808335 0.05187446252
v 0.1289875954 0 0.05197112262
v 0.128999114 -0.01433918625 0.06979729235
v 0.128999114 0.01433918625 0.06979729235
v 0.1295455694 0 0.06976559758
f 1140 963 964
f 964 1141 1140
f 1143 1145 1147
f 1141 1143 1147
f 1140 1141 1147
f 1147 1146 1144
f 1147 1144 1142
f 1140 1147 1142
f 964 963 965
f 968 964 965
f 970 968 965
f 965 967 969
f 965 969 971
f 970 965 971
f 1145 970 971
f 971 1147 1145
f 1145 1143 968
f 968 970 1145
f 1141 964 968
f 968 1143 1141
f 963 1140 1134
f 1134 962 963
f 1142 1135 1134
f 1134 1140 1142
f 963 962 966
f 966 965 963
f 1134 1050 936
f 936 962 1134
f 1051 1050 1134
f 1134 1135 1051
f 936 937 966
f 966 962 936
f 936 1050 892
f 892 866 936
f 866 867 937
f 937 936 866
f 866 892 696
f 696 694 866
f 694 695 867
f 867 866 694
f 652 628 479
f 479 559 652
f 559 564 653
f 653 652 559
f 1142 1144 967
f 967 965 1142
f 1147 971 969
f 969 1146 1147
f 1144 1146 969
f 969 967 1144
f 965 966 1135
f 1135 1142 965
f 1135 966 937
f 937 1051 1135
f 937 867 893
f 893 1051 937
f 1051 893 892
f 892 1050 1051
f 867 695 697
f 697 893 867
f 697 696 892
f 892 893 697
f 653 564 480
f 480 629 653
f 629 480 479
f 479 628 629
f 696 628 652
f 652 694 696
f 652 653 695
f 695 694 652
f 653 629 697
f 697 695 653
f 629 628 696
f 696 697 629
f 394 395 558
f 558 559 394
f 559 558 566
f 566 564 559
f 480 564 396
f 480 396 394
f 394 479 480
f 398 395 394
f 394 396 398
f 559 479 394
f 566 398 396
f 396 564 566
f 402 569 561
f 561 403 402
f 399 404 562
f 562 560 399
f 562 567 568
f 568 560 562
f 400 404 399
f 399 401 400
f 567 400 401
f 401 568 567
f 404 405 563
f 563 562 404
f 563 565 567
f 567 562 563
f 397 405 404
f 404 400 397
f 565 397 400
f 400 567 565
f 395 399 560
f 560 558 395
f 560 568 566
f 566 558 560
f 401 399 395
f 395 398 401
f 568 401 398
f 398 566 568
f 403 561 563
f 563 405 403
f 561 569 565
f 565 563 561
f 402 403 405
f 405 397 402
f 569 402 397
f 397 565 569
f 365 101 109
f 109 368 365
f 369 111 101
f 101 365 369
f 370 113 111
f 111 369 370
f 375 102 113
f 113 370 375
f 386 114 119
f 119 387 386
f 385 118 114
f 114 386 385
f 380 117 118
f 118 385 380
f 374 112 117
f 117 380 374
f 377 110 112
f 112 374 377
f 368 109 110
f 110 377 368
f 11 10 41
f 41 30 11
f 1 11 30
f 30 31 1
f 2 1 31
f 31 32 2
f 3 2 32
f 32 34 3
f 16 17 46
f 46 45 16
f 15 16 45
f 45 44 15
f 14 15 44
f 44 33 14
f 13 14 33
f 33 43 13
f 12 13 43
f 43 42 12
f 10 12 42
f 42 41 10
f 30 41 87
f 87 76 30
f 31 30 76
f 76 77 31
f 32 31 77
f 77 78 32
f 34 32 78
f 78 79 34
f 45 46 93
f 93 92 45
f 44 45 92
f 92 91 44
f 33 44 91
f 91 90 33
f 43 33 90
f 90 89 43
f 42 43 89
f 89 88 42
f 41 42 88
f 88 87 41
f 76 87 109
f 109 101 76
f 77 76 101
f 101 111 77
f 78 77 111
f 111 113 78
f 79 78 113
f 113 102 79
f 92 93 119
f 119 114 92
f 91 92 114
f 114 118 91
f 90 91 118
f 118 117 90
f 89 90 117
f 117 112 89
f 88 89 112
f 112 110 88
f 87 88 110
f 110 109 87
f 49 22 3
f 3 34 49
f 80 79 102
f 102 121 80
f 24 22 49
f 49 51 24
f 53 26 55
f 26 24 51
f 51 55 26
f 57 53 55
f 55 59 57
f 63 57 59
f 59 61 63
f 69 63 67
f 67 63 61
f 61 65 67
f 96 67 65
f 65 71 96
f 98 69 67
f 67 96 98
f 121 102 375
f 375 381 121
f 382 96 121
f 121 381 382
f 383 98 96
f 96 382 383
f 121 96 71
f 71 80 121
f 79 80 49
f 49 34 79
f 49 80 71
f 71 51 49
f 51 71 65
f 65 55 51
f 61 59 55
f 55 65 61
f 366 373 108
f 108 100 366
f 376 366 100
f 100 106 376
f 367 376 106
f 106 104 367
f 371 367 104
f 104 103 371
f 391 387 119
f 119 115 391
f 384 391 115
f 115 120 384
f 390 384 120
f 120 116 390
f 372 390 116
f 116 105 372
f 379 372 105
f 105 107 379
f 373 379 107
f 107 108 373
f 8 29 40
f 40 9 8
f 6 28 29
f 29 8 6
f 5 37 28
f 28 6 5
f 4 35 37
f 37 5 4
f 18 47 46
f 46 17 18
f 19 48 47
f 47 18 19
f 20 36 48
f 48 19 20
f 21 38 36
f 36 20 21
f 7 39 38
f 38 21 7
f 9 40 39
f 39 7 9
f 29 75 86
f 86 40 29
f 28 74 75
f 75 29 28
f 37 73 74
f 74 28 37
f 35 82 73
f 73 37 35
f 47 94 93
f 93 46 47
f 48 95 94
f 94 47 48
f 36 83 95
f 95 48 36
f 38 84 83
f 83 36 38
f 39 85 84
f 84 38 39
f 40 86 85
f 85 39 40
f 75 100 108
f 108 86 75
f 74 106 100
f 100 75 74
f 73 104 106
f 106 74 73
f 82 103 104
f 104 73 82
f 94 115 119
f 119 93 94
f 95 120 115
f 115 94 95
f 83 116 120
f 120 95 83
f 84 105 116
f 116 83 84
f 85 107 105
f 105 84 85
f 86 108 107
f 107 85 86
f 50 35 4
f 4 23 50
f 81 122 103
f 103 82 81
f 25 52 50
f 50 23 25
f 54 56 27
f 27 56 52
f 52 25 27
f 58 60 56
f 56 54 58
f 64 62 60
f 60 58 64
f 70 68 64
f 68 66 62
f 62 64 68
f 97 72 66
f 66 68 97
f 99 97 68
f 68 70 99
f 122 378 371
f 371 103 122
f 389 378 122
f 122 97 389
f 388 389 97
f 97 99 388
f 122 81 72
f 72 97 122
f 82 35 50
f 50 81 82
f 50 52 72
f 72 81 50
f 52 56 66
f 66 72 52
f 62 66 56
f 56 60 62
f 99 98 383
f 383 388 99
f 27 26 53
f 53 54 27
f 54 53 57
f 57 58 54
f 58 57 63
f 63 64 58
f 64 63 69
f 69 70 64
f 70 69 98
f 98 99 70
f 25 24 26
f 26 27 25
f 23 22 24
f 24 25 23
f 8 9 10
f 10 11 8
f 7 12 10
f 10 9 7
f 3 22 23
f 23 4 3
f 3 4 5
f 5 2 3
f 2 5 6
f 6 1 2
f 1 6 8
f 8 11 1
f 21 13 12
f 12 7 21
f 20 14 13
f 13 21 20
f 19 15 14
f 14 20 19
f 18 16 15
f 15 19 18
f 18 17 16
f 377 374 380
f 380 385 386
f 377 380 386
f 386 387 391
f 391 384 390
f 386 391 390
f 377 386 390
f 390 372 379
f 379 373 366
f 390 379 366
f 366 376 367
f 367 371 378
f 366 367 378
f 390 366 378
f 377 390 378
f 389 388 383
f 389 383 382
f 378 389 382
f 382 381 375
f 378 382 375
f 377 378 375
f 375 370 369
f 377 375 369
f 377 369 365
f 368 377 365
f 862 896 890
f 890 860 862
f 868 900 896
f 896 862 868
f 890 896 922
f 922 920 890
f 900 928 922
f 922 896 900
f 902 946 928
f 928 900 902
f 922 958 954
f 954 920 922
f 1034 954 958
f 958 1038 1034
f 1038 958 1024
f 1024 1078 1038
f 928 1024 958
f 958 922 928
f 946 1030 1024
f 1024 928 946
f 1078 1024 1030
f 1030 1073 1078
f 1119 1136 1172
f 1172 1165 1119
f 1172 1136 1177
f 1177 1187 1172
f 1119 1056 1071
f 1071 1136 1119
f 1136 1071 1168
f 1168 1177 1136
f 1038 1071 1056
f 1056 1034 1038
f 1078 1168 1071
f 1071 1038 1078
f 1172 1174 1167
f 1167 1165 1172
f 1187 1202 1174
f 1174 1172 1187
f 900 868 872
f 872 902 900
f 810 838 836
f 836 808 810
f 836 838 862
f 862 860 836
f 868 842 846
f 846 872 868
f 862 838 842
f 842 868 862
f 1170 1179 1078
f 1078 1073 1170
f 1179 1211 1168
f 1168 1078 1179
f 1211 1246 1177
f 1177 1168 1211
f 1246 1274 1187
f 1187 1177 1246
f 1274 1289 1202
f 1202 1187 1274
f 1289 1274 1324
f 1324 1331 1289
f 1274 1246 1314
f 1314 1324 1274
f 1246 1211 1287
f 1287 1314 1246
f 1183 1236 1179
f 1179 1170 1183
f 1211 1179 1236
f 1236 1287 1211
f 1207 1264 1236
f 1236 1183 1207
f 1264 1308 1287
f 1287 1236 1264
f 1308 1326 1314
f 1314 1287 1308
f 1326 1335 1324
f 1324 1314 1326
f 1331 1324 1335
f 1335 1337 1331
f 1337 1335 1332
f 1332 1334 1337
f 1335 1326 1322
f 1322 1332 1335
f 1326 1308 1306
f 1306 1322 1326
f 1264 1266 1306
f 1306 1308 1264
f 1207 1221 1266
f 1266 1264 1207
f 1215 1261 1266
f 1266 1221 1215
f 1261 1299 1306
f 1306 1266 1261
f 1299 1317 1322
f 1322 1306 1299
f 1317 1328 1332
f 1332 1322 1317
f 1334 1332 1328
f 1328 1330 1334
f 1257 1263 1282
f 1282 1278 1257
f 1242 1244 1228
f 1228 1234 1242
f 1217 1255 1261
f 1261 1215 1217
f 1255 1293 1299
f 1299 1261 1255
f 1293 1312 1317
f 1317 1299 1293
f 1312 1319 1328
f 1328 1317 1312
f 1319 1321 1330
f 1330 1328 1319
f 1321 1319 1310
f 1310 1316 1321
f 1319 1312 1303
f 1303 1310 1319
f 1312 1293 1285
f 1285 1303 1312
f 1293 1255 1253
f 1253 1285 1293
f 1219 1253 1255
f 1255 1217 1219
f 1244 1249 1225
f 1225 1228 1244
f 1219 1225 1249
f 1249 1253 1219
f 1242 1259 1270
f 1270 1244 1242
f 1244 1270 1276
f 1276 1249 1244
f 1249 1276 1285
f 1285 1253 1249
f 1259 1272 1283
f 1283 1270 1259
f 1270 1283 1295
f 1295 1276 1270
f 1276 1295 1303
f 1303 1285 1276
f 1272 1278 1291
f 1291 1283 1272
f 1283 1291 1301
f 1301 1295 1283
f 1297 1291 1278
f 1278 1282 1297
f 1305 1301 1291
f 1291 1297 1305
f 1295 1301 1310
f 1310 1303 1295
f 1316 1310 1301
f 1301 1305 1316
f 846 850 876
f 876 872 846
f 876 904 902
f 902 872 876
f 902 904 944
f 944 946 902
f 944 1028 1030
f 1030 946 944
f 1170 1073 1069
f 1069 1161 1170
f 1030 1028 1069
f 1069 1073 1030
f 1278 1272 1251
f 1251 1257 1278
f 1272 1259 1240
f 1240 1251 1272
f 1259 1242 1232
f 1232 1240 1259
f 1234 1223 1232
f 1232 1242 1234
f 1234 1228 1203
f 1203 1223 1234
f 1228 1225 1200
f 1200 1203 1228
f 1225 1219 1198
f 1198 1200 1225
f 1219 1217 1194
f 1194 1198 1219
f 1217 1215 1190
f 1190 1194 1217
f 1215 1221 1192
f 1192 1190 1215
f 1207 1185 1192
f 1192 1221 1207
f 1207 1183 1175
f 1175 1185 1207
f 1170 1161 1175
f 1175 1183 1170
f 1263 1257 1126
f 1126 1125 1263
f 1257 1251 1128
f 1128 1126 1257
f 1251 1240 1130
f 1130 1128 1251
f 1240 1232 1132
f 1132 1130 1240
f 1232 1223 1138
f 1138 1132 1232
f 1223 1203 1150
f 1150 1138 1223
f 1203 1200 1154
f 1154 1150 1203
f 1200 1198 1158
f 1158 1154 1200
f 1198 1194 1156
f 1156 1158 1198
f 1194 1190 1163
f 1163 1156 1194
f 1190 1192 1152
f 1152 1163 1190
f 1192 1185 1123
f 1123 1152 1192
f 1185 1175 1091
f 1091 1123 1185
f 1161 1060 1091
f 1091 1175 1161
f 1161 1069 1040
f 1040 1060 1161
f 1069 1028 1006
f 1006 1040 1069
f 1028 944 942
f 942 1006 1028
f 944 904 910
f 910 942 944
f 904 876 878
f 878 910 904
f 876 850 852
f 852 878 876
f 1125 1126 1087
f 1087 1084 1125
f 848 874 878
f 878 852 848
f 844 870 874
f 874 848 844
f 874 906 910
f 910 878 874
f 870 898 906
f 906 874 870
f 906 934 942
f 942 910 906
f 1085 1107 1152
f 1152 1123 1085
f 1107 1117 1163
f 1163 1152 1107
f 972 1010 1117
f 1117 1107 972
f 1117 1115 1156
f 1156 1163 1117
f 1010 1012 1115
f 1115 1117 1010
f 1115 1111 1158
f 1158 1156 1115
f 1012 1016 1111
f 1111 1115 1012
f 1111 1105 1154
f 1154 1158 1111
f 1016 1004 1105
f 1105 1111 1016
f 1105 1113 1150
f 1150 1154 1105
f 1004 998 1113
f 1113 1105 1004
f 1113 1103 1138
f 1138 1150 1113
f 998 1002 1103
f 1103 1113 998
f 1103 1101 1132
f 1132 1138 1103
f 1002 1018 1101
f 1101 1103 1002
f 1101 1089 1130
f 1130 1132 1101
f 1018 1014 1089
f 1089 1101 1018
f 1089 1080 1128
f 1128 1130 1089
f 1014 1000 1080
f 1080 1089 1014
f 1126 1128 1080
f 1080 1087 1126
f 1087 1008 995
f 995 1084 1087
f 1080 1000 1008
f 1008 1087 1080
f 934 974 1006
f 1006 942 934
f 1040 1006 974
f 974 1032 1040
f 1123 1091 1063
f 1063 1085 1123
f 1107 1085 952
f 952 972 1107
f 1032 1052 1060
f 1060 1040 1032
f 1091 1060 1052
f 1052 1063 1091
f 1085 1063 952
f 974 918 932
f 932 1032 974
f 1052 1032 932
f 1052 932 952
f 952 1063 1052
f 898 918 934
f 934 906 898
f 974 934 918
f 810 814 842
f 842 838 810
f 846 842 814
f 814 818 846
f 406 362 417
f 417 423 406
f 364 361 362
f 362 406 364
f 417 489 504
f 504 423 417
f 504 489 526
f 526 530 504
f 526 572 574
f 574 530 526
f 574 572 598
f 598 600 574
f 598 624 626
f 626 600 598
f 626 624 656
f 656 658 626
f 656 678 682
f 682 658 656
f 682 678 708
f 708 712 682
f 708 732 736
f 736 712 708
f 736 732 758
f 758 756 736
f 758 788 784
f 784 756 758
f 808 784 788
f 788 810 808
f 810 788 792
f 792 814 810
f 788 758 760
f 760 792 788
f 758 732 730
f 730 760 758
f 732 708 706
f 706 730 732
f 708 678 674
f 674 706 708
f 678 656 650
f 650 674 678
f 656 624 620
f 620 650 656
f 624 598 592
f 592 620 624
f 598 572 552
f 552 592 598
f 572 526 516
f 516 552 572
f 526 489 411
f 411 516 526
f 814 792 798
f 798 818 814
f 848 852 824
f 824 822 848
f 844 848 822
f 822 816 844
f 818 820 850
f 850 846 818
f 852 850 820
f 820 824 852
f 798 800 820
f 820 818 798
f 489 417 355
f 355 411 489
f 417 362 343
f 343 355 417
f 330 343 362
f 362 361 330
f 411 355 279
f 279 341 411
f 355 343 257
f 257 279 355
f 330 237 257
f 257 343 330
f 257 237 178
f 178 189 257
f 125 155 189
f 189 178 125
f 341 279 214
f 214 240 341
f 189 214 279
f 279 257 189
f 161 155 123
f 155 161 214
f 214 189 155
f 161 191 240
f 240 214 161
f 157 123 126
f 123 157 191
f 191 161 123
f 126 135 183
f 183 157 126
f 392 491 516
f 516 411 392
f 491 538 552
f 552 516 491
f 538 582 592
f 592 552 538
f 582 616 620
f 620 592 582
f 616 646 650
f 650 620 616
f 646 670 674
f 674 650 646
f 670 702 706
f 706 674 670
f 702 728 730
f 730 706 702
f 792 760 762
f 762 798 792
f 728 762 760
f 760 730 728
f 411 341 351
f 351 392 411
f 341 240 277
f 277 351 341
f 240 191 231
f 231 277 240
f 191 157 183
f 183 231 191
f 159 183 135
f 135 132 153
f 153 159 135
f 132 128 153
f 800 796 824
f 824 820 800
f 796 794 822
f 822 824 796
f 794 790 816
f 816 822 794
f 798 762 764
f 764 800 798
f 800 764 766
f 766 796 800
f 766 768 794
f 794 796 766
f 794 768 772
f 772 790 794
f 536 578 582
f 582 538 536
f 588 618 610
f 610 580 588
f 578 612 616
f 616 582 578
f 576 608 612
f 612 578 576
f 580 610 608
f 608 576 580
f 612 642 646
f 646 616 612
f 608 640 642
f 642 612 608
f 618 648 644
f 644 610 618
f 610 644 640
f 640 608 610
f 648 676 672
f 672 644 648
f 642 666 670
f 670 646 642
f 640 668 666
f 666 642 640
f 644 672 668
f 668 640 644
f 666 698 702
f 702 670 666
f 672 704 700
f 700 668 672
f 668 700 698
f 698 666 668
f 676 710 704
f 704 672 676
f 762 728 724
f 724 764 762
f 764 724 722
f 722 766 764
f 698 724 728
f 728 702 698
f 700 722 724
f 724 698 700
f 710 738 726
f 726 704 710
f 704 726 722
f 722 700 704
f 766 722 726
f 726 768 766
f 768 726 738
f 738 772 768
f 538 491 495
f 495 536 538
f 491 392 413
f 413 495 491
f 392 351 357
f 357 413 392
f 351 277 333
f 333 357 351
f 277 231 275
f 275 333 277
f 349 333 275
f 409 413 357
f 578 536 534
f 534 576 578
f 495 506 534
f 534 536 495
f 413 409 506
f 506 495 413
f 534 540 580
f 580 576 534
f 506 514 540
f 540 534 506
f 409 421 514
f 514 506 409
f 580 540 546
f 546 588 580
f 514 528 546
f 546 540 514
f 421 512 528
f 528 514 421
f 333 349 409
f 409 357 333
f 165 181 130
f 130 141 165
f 130 181 170
f 170 128 130
f 170 187 153
f 153 128 170
f 187 193 159
f 159 153 187
f 231 183 227
f 227 275 231
f 193 227 183
f 183 159 193
f 169 172 143
f 143 134 169
f 172 179 139
f 139 143 172
f 179 163 147
f 147 139 179
f 163 167 137
f 137 147 163
f 167 176 145
f 145 137 167
f 176 185 151
f 151 145 176
f 141 149 174
f 174 165 141
f 185 174 149
f 149 151 185
f 275 227 281
f 281 349 275
f 349 359 421
f 421 409 349
f 359 493 512
f 512 421 359
f 227 193 271
f 271 281 227
f 281 347 359
f 359 349 281
f 359 347 453
f 453 493 359
f 193 187 265
f 265 271 193
f 271 339 347
f 347 281 271
f 453 347 339
f 339 431 453
f 265 331 339
f 339 271 265
f 244 251 172
f 172 169 244
f 251 259 179
f 179 172 251
f 251 311 313
f 313 259 251
f 327 311 251
f 251 244 327
f 327 487 465
f 465 311 327
f 311 465 469
f 469 313 311
f 259 263 163
f 163 179 259
f 457 319 313
f 313 469 457
f 313 319 263
f 263 259 313
f 263 261 167
f 167 163 263
f 319 323 261
f 261 263 319
f 261 249 176
f 176 167 261
f 319 457 463
f 463 323 319
f 249 255 185
f 185 176 249
f 249 294 325
f 325 255 249
f 459 294 323
f 323 463 459
f 323 294 249
f 249 261 323
f 255 267 174
f 174 185 255
f 294 459 467
f 467 325 294
f 439 315 325
f 325 467 439
f 325 315 267
f 267 255 325
f 174 267 253
f 253 165 174
f 315 301 253
f 253 267 315
f 253 247 181
f 181 165 253
f 187 170 245
f 245 265 187
f 247 245 170
f 170 181 247
f 265 245 328
f 328 331 265
f 247 317 328
f 328 245 247
f 301 317 247
f 247 253 301
f 301 437 445
f 445 317 301
f 315 439 437
f 437 301 315
f 339 331 427
f 427 431 339
f 328 435 427
f 427 331 328
f 317 445 435
f 435 328 317
f 884 856 860
f 860 890 884
f 912 884 890
f 890 920 912
f 938 912 920
f 920 954 938
f 1021 938 954
f 954 1034 1021
f 1094 1065 1119
f 1119 1165 1094
f 1065 1045 1056
f 1056 1119 1065
f 1045 1021 1034
f 1034 1056 1045
f 1109 1094 1165
f 1165 1167 1109
f 832 804 808
f 808 836 832
f 856 832 836
f 836 860 856
f 497 450 406
f 406 423 497
f 450 425 364
f 364 406 450
f 523 497 423
f 423 504 523
f 549 523 504
f 504 530 549
f 584 549 530
f 530 574 584
f 604 584 574
f 574 600 604
f 630 604 600
f 600 626 630
f 660 630 626
f 626 658 660
f 684 660 658
f 658 682 684
f 716 684 682
f 682 712 716
f 744 716 712
f 712 736 744
f 752 744 736
f 736 756 752
f 780 752 756
f 756 784 780
f 804 780 784
f 784 808 804
f 885 857 856
f 856 884 885
f 913 885 884
f 884 912 913
f 939 913 912
f 912 938 939
f 1020 939 938
f 938 1021 1020
f 1093 1066 1065
f 1065 1094 1093
f 1066 1044 1045
f 1045 1065 1066
f 1044 1020 1021
f 1021 1045 1044
f 1110 1093 1094
f 1094 1109 1110
f 833 805 804
f 804 832 833
f 857 833 832
f 832 856 857
f 498 449 450
f 450 497 498
f 449 426 425
f 425 450 449
f 522 498 497
f 497 523 522
f 548 522 523
f 523 549 548
f 585 548 549
f 549 584 585
f 605 585 584
f 584 604 605
f 631 605 604
f 604 630 631
f 661 631 630
f 630 660 661
f 685 661 660
f 660 684 685
f 717 685 684
f 684 716 717
f 745 717 716
f 716 744 745
f 753 745 744
f 744 752 753
f 781 753 752
f 752 780 781
f 805 781 780
f 780 804 805
f 930 950 888
f 888 880 930
f 1148 1036 950
f 1042 1148 950
f 1042 950 930
f 1148 1042 1121
f 1121 1181 1148
f 1160 1189 1181
f 1181 1121 1160
f 888 828 826
f 826 880 888
f 1268 1181 1189
f 1189 1290 1268
f 1205 1148 1181
f 1181 1268 1205
f 1036 1148 1205
f 1205 1058 1036
f 1097 1058 1205
f 1205 1230 1097
f 1268 1280 1230
f 1230 1205 1268
f 1280 1268 1290
f 1290 1298 1280
f 1196 1099 1209
f 1097 1230 1209
f 1209 1099 1097
f 1280 1238 1209
f 1209 1230 1280
f 1298 1248 1238
f 1238 1280 1298
f 1238 1213 1196
f 1196 1209 1238
f 1213 1238 1248
f 1248 1227 1213
f 1076 1213 1227
f 1227 1075 1076
f 1082 1196 1213
f 1213 1076 1082
f 1196 1082 1099
f 888 864 840
f 840 828 888
f 864 888 894
f 960 1097 983
f 1099 991 983
f 983 1097 1099
f 991 1099 993
f 993 1099 987
f 987 1099 977
f 977 1099 1082
f 1082 996 977
f 996 1082 989
f 1076 979 989
f 989 1082 1076
f 976 985 1076
f 1076 1075 976
f 1076 985 979
f 1097 960 948
f 948 1058 1097
f 924 916 950
f 950 1036 924
f 948 924 1036
f 1036 1058 948
f 950 916 894
f 894 888 950
f 826 828 776
f 776 774 826
f 774 776 734
f 734 740 774
f 740 734 690
f 690 692 740
f 692 690 634
f 634 638 692
f 638 634 590
f 590 602 638
f 602 590 532
f 532 554 602
f 840 812 828
f 510 353 337
f 337 441 510
f 441 337 284
f 284 419 441
f 408 419 284
f 284 283 408
f 284 229 220
f 220 283 284
f 218 229 238
f 337 238 229
f 229 284 337
f 353 269 238
f 238 337 353
f 221 218 235
f 269 235 218
f 218 238 269
f 273 223 221
f 221 235 273
f 510 415 353
f 353 415 269
f 269 415 273
f 273 235 269
f 223 273 242
f 233 225 223
f 223 242 233
f 233 216 225
f 812 786 776
f 776 828 812
f 776 786 770
f 634 622 596
f 596 590 634
f 622 634 654
f 690 680 654
f 654 634 690
f 680 690 714
f 734 742 714
f 714 690 734
f 742 734 776
f 776 770 742
f 556 532 590
f 590 596 556
f 532 556 544
f 544 518 415
f 415 532 544
f 415 518 501
f 335 242 273
f 273 345 335
f 471 345 415
f 415 501 471
f 321 233 242
f 242 335 321
f 335 345 471
f 471 433 335
f 208 290 298
f 298 207 208
f 201 292 290
f 290 208 201
f 481 488 298
f 298 290 481
f 485 481 290
f 290 292 485
f 205 309 292
f 292 201 205
f 292 309 473
f 473 485 292
f 212 303 309
f 309 205 212
f 199 286 303
f 303 212 199
f 477 473 309
f 309 303 477
f 195 299 286
f 286 199 195
f 303 286 475
f 475 477 303
f 197 307 299
f 299 195 197
f 483 475 286
f 286 299 483
f 299 307 447
f 447 483 299
f 288 307 197
f 197 210 288
f 203 296 288
f 288 210 203
f 305 216 233
f 233 321 305
f 216 305 296
f 296 203 216
f 461 455 288
f 288 296 461
f 455 447 307
f 307 288 455
f 429 321 335
f 335 433 429
f 429 443 305
f 305 321 429
f 443 461 296
f 296 305 443
f 840 864 870
f 870 844 840
f 864 894 898
f 898 870 864
f 960 983 1010
f 1010 972 960
f 983 991 1012
f 1012 1010 983
f 991 993 1016
f 1016 1012 991
f 993 987 1004
f 1004 1016 993
f 987 977 998
f 998 1004 987
f 977 981 1002
f 1002 998 977
f 981 996 1018
f 1018 1002 981
f 996 989 1014
f 1014 1018 996
f 989 979 1000
f 1000 1014 989
f 985 976 995
f 995 1008 985
f 979 985 1008
f 1008 1000 979
f 948 960 972
f 972 952 948
f 916 924 932
f 932 918 916
f 924 948 952
f 952 932 924
f 894 916 918
f 918 898 894
f 812 840 844
f 844 816 812
f 220 229 155
f 155 125 220
f 229 218 123
f 123 155 229
f 218 221 126
f 126 123 218
f 221 223 135
f 135 126 221
f 223 225 132
f 132 135 223
f 225 216 128
f 128 132 225
f 786 812 816
f 816 790 786
f 770 786 790
f 790 772 770
f 596 622 618
f 618 588 596
f 622 654 648
f 648 618 622
f 654 680 676
f 676 648 654
f 680 714 710
f 710 676 680
f 714 742 738
f 738 710 714
f 742 770 772
f 772 738 742
f 556 596 588
f 588 546 556
f 544 556 546
f 546 528 544
f 518 544 528
f 528 512 518
f 203 210 141
f 141 130 203
f 216 203 130
f 130 128 216
f 208 207 134
f 134 143 208
f 201 208 143
f 143 139 201
f 205 201 139
f 139 147 205
f 212 205 147
f 147 137 212
f 199 212 137
f 137 145 199
f 195 199 145
f 145 151 195
f 210 197 149
f 149 141 210
f 197 195 151
f 151 149 197
f 501 518 512
f 512 493 501
f 471 501 493
f 493 453 471
f 433 471 453
f 453 431 433
f 488 481 465
f 465 487 488
f 481 485 469
f 469 465 481
f 485 473 457
f 457 469 485
f 473 477 463
f 463 457 473
f 477 475 459
f 459 463 477
f 475 483 467
f 467 459 475
f 483 447 439
f 439 467 483
f 455 461 445
f 445 437 455
f 447 455 437
f 437 439 447
f 429 433 431
f 431 427 429
f 443 429 427
f 427 435 443
f 461 443 435
f 435 445 461
f 882 854 857
f 857 885 882
f 908 882 885
f 885 913 908
f 926 908 913
f 913 939 926
f 956 926 939
f 939 1020 956
f 1054 1048 1066
f 1066 1093 1054
f 1048 1026 1044
f 1044 1066 1048
f 1026 956 1020
f 1020 1044 1026
f 1062 1054 1093
f 1093 1110 1062
f 830 802 805
f 805 833 830
f 854 830 833
f 833 857 854
f 520 508 449
f 449 498 520
f 508 503 426
f 426 449 508
f 542 520 498
f 498 522 542
f 570 542 522
f 522 548 570
f 594 570 548
f 548 585 594
f 614 594 585
f 585 605 614
f 636 614 605
f 605 631 636
f 664 636 631
f 631 661 664
f 688 664 661
f 661 685 688
f 720 688 685
f 685 717 720
f 748 720 717
f 717 745 748
f 750 748 745
f 745 753 750
f 778 750 753
f 753 781 778
f 802 778 781
f 781 805 802
f 415 345 273
f 554 532 415
f 415 510 554
f 863 861 891
f 891 897 863
f 869 863 897
f 897 901 869
f 891 921 923
f 923 897 891
f 901 897 923
f 923 929 901
f 903 901 929
f 929 947 903
f 923 921 955
f 955 959 923
f 1035 1039 959
f 959 955 1035
f 1039 1079 1025
f 1025 959 1039
f 929 923 959
f 959 1025 929
f 947 929 1025
f 1025 1031 947
f 1079 1074 1031
f 1031 1025 1079
f 1120 1166 1173
f 1173 1137 1120
f 1173 1188 1178
f 1178 1137 1173
f 1120 1137 1072
f 1072 1057 1120
f 1137 1178 1169
f 1169 1072 1137
f 1039 1035 1057
f 1057 1072 1039
f 1079 1039 1072
f 1072 1169 1079
f 1173 1166 1167
f 1167 1174 1173
f 1188 1173 1174
f 1174 1202 1188
f 901 903 873
f 873 869 901
f 811 809 837
f 837 839 811
f 837 861 863
f 863 839 837
f 869 873 847
f 847 843 869
f 863 869 843
f 843 839 863
f 1171 1074 1079
f 1079 1180 1171
f 1180 1079 1169
f 1169 1212 1180
f 1212 1169 1178
f 1178 1247 1212
f 1247 1178 1188
f 1188 1275 1247
f 1275 1188 1202
f 1202 1289 1275
f 1289 1331 1325
f 1325 1275 1289
f 1275 1325 1315
f 1315 1247 1275
f 1247 1315 1288
f 1288 1212 1247
f 1184 1171 1180
f 1180 1237 1184
f 1212 1288 1237
f 1237 1180 1212
f 1208 1184 1237
f 1237 1265 1208
f 1265 1237 1288
f 1288 1309 1265
f 1309 1288 1315
f 1315 1327 1309
f 1327 1315 1325
f 1325 1336 1327
f 1331 1337 1336
f 1336 1325 1331
f 1337 1334 1333
f 1333 1336 1337
f 1336 1333 1323
f 1323 1327 1336
f 1327 1323 1307
f 1307 1309 1327
f 1265 1309 1307
f 1307 1267 1265
f 1208 1265 1267
f 1267 1222 1208
f 1216 1222 1267
f 1267 1262 1216
f 1262 1267 1307
f 1307 1300 1262
f 1300 1307 1323
f 1323 1318 1300
f 1318 1323 1333
f 1333 1329 1318
f 1334 1330 1329
f 1329 1333 1334
f 1258 1279 1282
f 1282 1263 1258
f 1243 1235 1229
f 1229 1245 1243
f 1218 1216 1262
f 1262 1256 1218
f 1256 1262 1300
f 1300 1294 1256
f 1294 1300 1318
f 1318 1313 1294
f 1313 1318 1329
f 1329 1320 1313
f 1320 1329 1330
f 1330 1321 1320
f 1321 1316 1311
f 1311 1320 1321
f 1320 1311 1304
f 1304 1313 1320
f 1313 1304 1286
f 1286 1294 1313
f 1294 1286 1254
f 1254 1256 1294
f 1220 1218 1256
f 1256 1254 1220
f 1245 1229 1226
f 1226 1250 1245
f 1220 1254 1250
f 1250 1226 1220
f 1243 1245 1271
f 1271 1260 1243
f 1245 1250 1277
f 1277 1271 1245
f 1250 1254 1286
f 1286 1277 1250
f 1260 1271 1284
f 1284 1273 1260
f 1271 1277 1296
f 1296 1284 1271
f 1277 1286 1304
f 1304 1296 1277
f 1273 1284 1292
f 1292 1279 1273
f 1284 1296 1302
f 1302 1292 1284
f 1297 1282 1279
f 1279 1292 1297
f 1305 1297 1292
f 1292 1302 1305
f 1296 1304 1311
f 1311 1302 1296
f 1316 1305 1302
f 1302 1311 1316
f 847 873 877
f 877 851 847
f 877 873 903
f 903 905 877
f 903 947 945
f 945 905 903
f 945 947 1031
f 1031 1029 945
f 1171 1162 1070
f 1070 1074 1171
f 1031 1074 1070
f 1070 1029 1031
f 1279 1258 1252
f 1252 1273 1279
f 1273 1252 1241
f 1241 1260 1273
f 1260 1241 1233
f 1233 1243 1260
f 1235 1243 1233
f 1233 1224 1235
f 1235 1224 1204
f 1204 1229 1235
f 1229 1204 1201
f 1201 1226 1229
f 1226 1201 1199
f 1199 1220 1226
f 1220 1199 1195
f 1195 1218 1220
f 1218 1195 1191
f 1191 1216 1218
f 1216 1191 1193
f 1193 1222 1216
f 1208 1222 1193
f 1193 1186 1208
f 1208 1186 1176
f 1176 1184 1208
f 1171 1184 1176
f 1176 1162 1171
f 1263 1125 1127
f 1127 1258 1263
f 1258 1127 1129
f 1129 1252 1258
f 1252 1129 1131
f 1131 1241 1252
f 1241 1131 1133
f 1133 1233 1241
f 1233 1133 1139
f 1139 1224 1233
f 1224 1139 1151
f 1151 1204 1224
f 1204 1151 1155
f 1155 1201 1204
f 1201 1155 1159
f 1159 1199 1201
f 1199 1159 1157
f 1157 1195 1199
f 1195 1157 1164
f 1164 1191 1195
f 1191 1164 1153
f 1153 1193 1191
f 1193 1153 1124
f 1124 1186 1193
f 1186 1124 1092
f 1092 1176 1186
f 1162 1176 1092
f 1092 1061 1162
f 1162 1061 1041
f 1041 1070 1162
f 1070 1041 1007
f 1007 1029 1070
f 1029 1007 943
f 943 945 1029
f 945 943 911
f 911 905 945
f 905 911 879
f 879 877 905
f 877 879 853
f 853 851 877
f 1125 1084 1088
f 1088 1127 1125
f 849 853 879
f 879 875 849
f 845 849 875
f 875 871 845
f 875 879 911
f 911 907 875
f 871 875 907
f 907 899 871
f 907 911 943
f 943 935 907
f 1086 1124 1153
f 1153 1108 1086
f 1108 1153 1164
f 1164 1118 1108
f 973 1108 1118
f 1118 1011 973
f 1118 1164 1157
f 1157 1116 1118
f 1011 1118 1116
f 1116 1013 1011
f 1116 1157 1159
f 1159 1112 1116
f 1013 1116 1112
f 1112 1017 1013
f 1112 1159 1155
f 1155 1106 1112
f 1017 1112 1106
f 1106 1005 1017
f 1106 1155 1151
f 1151 1114 1106
f 1005 1106 1114
f 1114 999 1005
f 1114 1151 1139
f 1139 1104 1114
f 999 1114 1104
f 1104 1003 999
f 1104 1139 1133
f 1133 1102 1104
f 1003 1104 1102
f 1102 1019 1003
f 1102 1133 1131
f 1131 1090 1102
f 1019 1102 1090
f 1090 1015 1019
f 1090 1131 1129
f 1129 1081 1090
f 1015 1090 1081
f 1081 1001 1015
f 1127 1088 1081
f 1081 1129 1127
f 1088 1084 995
f 995 1009 1088
f 1081 1088 1009
f 1009 1001 1081
f 935 943 1007
f 1007 975 935
f 1041 1033 975
f 975 1007 1041
f 1124 1086 1064
f 1064 1092 1124
f 1108 973 953
f 953 1086 1108
f 1033 1041 1061
f 1061 1053 1033
f 1092 1064 1053
f 1053 1061 1092
f 1086 953 1064
f 975 1033 933
f 933 919 975
f 1053 933 1033
f 1053 1064 953
f 953 933 1053
f 899 907 935
f 935 919 899
f 975 919 935
f 811 839 843
f 843 815 811
f 847 819 815
f 815 843 847
f 407 424 418
f 418 363 407
f 364 407 363
f 363 361 364
f 418 424 505
f 505 490 418
f 505 531 527
f 527 490 505
f 527 531 575
f 575 573 527
f 575 601 599
f 599 573 575
f 599 601 627
f 627 625 599
f 627 659 657
f 657 625 627
f 657 659 683
f 683 679 657
f 683 713 709
f 709 679 683
f 709 713 737
f 737 733 709
f 737 757 759
f 759 733 737
f 759 757 785
f 785 789 759
f 809 811 789
f 789 785 809
f 811 815 793
f 793 789 811
f 789 793 761
f 761 759 789
f 759 761 731
f 731 733 759
f 733 731 707
f 707 709 733
f 709 707 675
f 675 679 709
f 679 675 651
f 651 657 679
f 657 651 621
f 621 625 657
f 625 621 593
f 593 599 625
f 599 593 553
f 553 573 599
f 573 553 517
f 517 527 573
f 527 517 412
f 412 490 527
f 815 819 799
f 799 793 815
f 849 823 825
f 825 853 849
f 845 817 823
f 823 849 845
f 819 847 851
f 851 821 819
f 853 825 821
f 821 851 853
f 799 819 821
f 821 801 799
f 490 412 356
f 356 418 490
f 418 356 344
f 344 363 418
f 330 361 363
f 363 344 330
f 412 342 280
f 280 356 412
f 356 280 258
f 258 344 356
f 330 344 258
f 258 237 330
f 258 190 178
f 178 237 258
f 125 178 190
f 190 156 125
f 342 241 215
f 215 280 342
f 190 258 280
f 280 215 190
f 162 124 156
f 156 190 215
f 215 162 156
f 162 215 241
f 241 192 162
f 158 127 124
f 124 162 192
f 192 158 124
f 127 158 184
f 184 136 127
f 393 412 517
f 517 492 393
f 492 517 553
f 553 539 492
f 539 553 593
f 593 583 539
f 583 593 621
f 621 617 583
f 617 621 651
f 651 647 617
f 647 651 675
f 675 671 647
f 671 675 707
f 707 703 671
f 703 707 731
f 731 729 703
f 793 799 763
f 763 761 793
f 729 731 761
f 761 763 729
f 412 393 352
f 352 342 412
f 342 352 278
f 278 241 342
f 241 278 232
f 232 192 241
f 192 232 184
f 184 158 192
f 160 136 184
f 136 160 154
f 154 133 136
f 133 154 129
f 801 821 825
f 825 797 801
f 797 825 823
f 823 795 797
f 795 823 817
f 817 791 795
f 799 801 765
f 765 763 799
f 801 797 767
f 767 765 801
f 767 797 795
f 795 769 767
f 795 791 773
f 773 769 795
f 537 539 583
f 583 579 537
f 589 581 611
f 611 619 589
f 579 583 617
f 617 613 579
f 577 579 613
f 613 609 577
f 581 577 609
f 609 611 581
f 613 617 647
f 647 643 613
f 609 613 643
f 643 641 609
f 619 611 645
f 645 649 619
f 611 609 641
f 641 645 611
f 649 645 673
f 673 677 649
f 643 647 671
f 671 667 643
f 641 643 667
f 667 669 641
f 645 641 669
f 669 673 645
f 667 671 703
f 703 699 667
f 673 669 701
f 701 705 673
f 669 667 699
f 699 701 669
f 677 673 705
f 705 711 677
f 763 765 725
f 725 729 763
f 765 767 723
f 723 725 765
f 699 703 729
f 729 725 699
f 701 699 725
f 725 723 701
f 711 705 727
f 727 739 711
f 705 701 723
f 723 727 705
f 767 769 727
f 727 723 767
f 769 773 739
f 739 727 769
f 539 537 496
f 496 492 539
f 492 496 414
f 414 393 492
f 393 414 358
f 358 352 393
f 352 358 334
f 334 278 352
f 278 334 276
f 276 232 278
f 350 276 334
f 410 358 414
f 579 577 535
f 535 537 579
f 496 537 535
f 535 507 496
f 414 496 507
f 507 410 414
f 535 577 581
f 581 541 535
f 507 535 541
f 541 515 507
f 410 507 515
f 515 422 410
f 581 589 547
f 547 541 581
f 515 541 547
f 547 529 515
f 422 515 529
f 529 513 422
f 334 358 410
f 410 350 334
f 166 142 131
f 131 182 166
f 131 129 171
f 171 182 131
f 171 129 154
f 154 188 171
f 188 154 160
f 160 194 188
f 232 276 228
f 228 184 232
f 194 160 184
f 184 228 194
f 169 134 144
f 144 173 169
f 173 144 140
f 140 180 173
f 180 140 148
f 148 164 180
f 164 148 138
f 138 168 164
f 168 138 146
f 146 177 168
f 177 146 152
f 152 186 177
f 142 166 175
f 175 150 142
f 186 152 150
f 150 175 186
f 276 350 282
f 282 228 276
f 350 410 422
f 422 360 350
f 360 422 513
f 513 494 360
f 228 282 272
f 272 194 228
f 282 350 360
f 360 348 282
f 360 494 454
f 454 348 360
f 194 272 266
f 266 188 194
f 272 282 348
f 348 340 272
f 454 432 340
f 340 348 454
f 266 272 340
f 340 332 266
f 244 169 173
f 173 252 244
f 252 173 180
f 180 260 252
f 252 260 314
f 314 312 252
f 327 244 252
f 252 312 327
f 327 312 466
f 466 487 327
f 312 314 470
f 470 466 312
f 260 180 164
f 164 264 260
f 458 470 314
f 314 320 458
f 314 260 264
f 264 320 314
f 264 164 168
f 168 262 264
f 320 264 262
f 262 324 320
f 262 168 177
f 177 250 262
f 320 324 464
f 464 458 320
f 250 177 186
f 186 256 250
f 250 256 326
f 326 295 250
f 460 464 324
f 324 295 460
f 324 262 250
f 250 295 324
f 256 186 175
f 175 268 256
f 295 326 468
f 468 460 295
f 440 468 326
f 326 316 440
f 326 256 268
f 268 316 326
f 175 166 254
f 254 268 175
f 316 268 254
f 254 302 316
f 254 166 182
f 182 248 254
f 188 266 246
f 246 171 188
f 248 182 171
f 171 246 248
f 266 332 329
f 329 246 266
f 248 246 329
f 329 318 248
f 302 254 248
f 248 318 302
f 302 318 446
f 446 438 302
f 316 302 438
f 438 440 316
f 340 432 428
f 428 332 340
f 329 332 428
f 428 436 329
f 318 329 436
f 436 446 318
f 886 891 861
f 861 858 886
f 914 921 891
f 891 886 914
f 940 955 921
f 921 914 940
f 1022 1035 955
f 955 940 1022
f 1095 1166 1120
f 1120 1067 1095
f 1067 1120 1057
f 1057 1046 1067
f 1046 1057 1035
f 1035 1022 1046
f 1109 1167 1166
f 1166 1095 1109
f 834 837 809
f 809 806 834
f 858 861 837
f 837 834 858
f 499 424 407
f 407 451 499
f 451 407 364
f 364 425 451
f 524 505 424
f 424 499 524
f 550 531 505
f 505 524 550
f 586 575 531
f 531 550 586
f 606 601 575
f 575 586 606
f 632 627 601
f 601 606 632
f 662 659 627
f 627 632 662
f 686 683 659
f 659 662 686
f 718 713 683
f 683 686 718
f 746 737 713
f 713 718 746
f 754 757 737
f 737 746 754
f 782 785 757
f 757 754 782
f 806 809 785
f 785 782 806
f 887 886 858
f 858 859 887
f 915 914 886
f 886 887 915
f 941 940 914
f 914 915 941
f 1023 1022 940
f 940 941 1023
f 1096 1095 1067
f 1067 1068 1096
f 1068 1067 1046
f 1046 1047 1068
f 1047 1046 1022
f 1022 1023 1047
f 1110 1109 1095
f 1095 1096 1110
f 835 834 806
f 806 807 835
f 859 858 834
f 834 835 859
f 500 499 451
f 451 452 500
f 452 451 425
f 425 426 452
f 525 524 499
f 499 500 525
f 551 550 524
f 524 525 551
f 587 586 550
f 550 551 587
f 607 606 586
f 586 587 607
f 633 632 606
f 606 607 633
f 663 662 632
f 632 633 663
f 687 686 662
f 662 663 687
f 719 718 686
f 686 687 719
f 747 746 718
f 718 719 747
f 755 754 746
f 746 747 755
f 783 782 754
f 754 755 783
f 807 806 782
f 782 783 807
f 931 881 889
f 889 951 931
f 1043 931 951
f 951 1037 1149
f 1043 951 1149
f 1149 1182 1122
f 1122 1043 1149
f 1160 1122 1182
f 1182 1189 1160
f 889 881 827
f 827 829 889
f 1269 1290 1189
f 1189 1182 1269
f 1206 1269 1182
f 1182 1149 1206
f 1037 1059 1206
f 1206 1149 1037
f 1098 1231 1206
f 1206 1059 1098
f 1269 1206 1231
f 1231 1281 1269
f 1281 1298 1290
f 1290 1269 1281
f 1197 1210 1100
f 1098 1100 1210
f 1210 1231 1098
f 1281 1231 1210
f 1210 1239 1281
f 1298 1281 1239
f 1239 1248 1298
f 1239 1210 1197
f 1197 1214 1239
f 1214 1227 1248
f 1248 1239 1214
f 1077 1075 1227
f 1227 1214 1077
f 1083 1077 1214
f 1214 1197 1083
f 1197 1100 1083
f 889 829 841
f 841 865 889
f 865 895 889
f 961 984 1098
f 1100 1098 984
f 984 992 1100
f 992 994 1100
f 994 988 1100
f 988 978 1100
f 978 997 1083
f 1083 1100 978
f 997 990 1083
f 1077 1083 990
f 990 980 1077
f 976 1075 1077
f 1077 986 976
f 1077 980 986
f 1098 949 961
f 949 1098 1059
f 925 1037 951
f 951 917 925
f 949 1059 1037
f 1037 925 949
f 951 889 895
f 895 917 951
f 827 775 777
f 777 829 827
f 775 741 735
f 735 777 775
f 741 693 691
f 691 735 741
f 693 639 635
f 635 691 693
f 639 603 591
f 591 635 639
f 603 555 533
f 533 591 603
f 841 829 813
f 511 442 338
f 338 354 511
f 442 420 285
f 285 338 442
f 408 283 285
f 285 420 408
f 285 283 220
f 220 230 285
f 219 239 230
f 338 285 230
f 230 239 338
f 354 338 239
f 239 270 354
f 222 236 219
f 270 239 219
f 219 236 270
f 274 236 222
f 222 224 274
f 511 354 416
f 354 270 416
f 270 236 274
f 274 416 270
f 224 243 274
f 234 243 224
f 224 226 234
f 234 226 217
f 813 829 777
f 777 787 813
f 777 771 787
f 635 591 597
f 597 623 635
f 623 655 635
f 691 635 655
f 655 681 691
f 681 715 691
f 735 691 715
f 715 743 735
f 743 771 777
f 777 735 743
f 557 597 591
f 591 533 557
f 533 545 557
f 545 533 416
f 416 519 545
f 416 502 519
f 336 346 274
f 274 243 336
f 472 502 416
f 416 346 472
f 322 336 243
f 243 234 322
f 336 434 472
f 472 346 336
f 209 207 298
f 298 291 209
f 202 209 291
f 291 293 202
f 482 291 298
f 298 488 482
f 486 293 291
f 291 482 486
f 206 202 293
f 293 310 206
f 293 486 474
f 474 310 293
f 213 206 310
f 310 304 213
f 200 213 304
f 304 287 200
f 478 304 310
f 310 474 478
f 196 200 287
f 287 300 196
f 304 478 476
f 476 287 304
f 198 196 300
f 300 308 198
f 484 300 287
f 287 476 484
f 300 484 448
f 448 308 300
f 289 211 198
f 198 308 289
f 204 211 289
f 289 297 204
f 306 322 234
f 234 217 306
f 217 204 297
f 297 306 217
f 462 297 289
f 289 456 462
f 456 289 308
f 308 448 456
f 430 434 336
f 336 322 430
f 430 322 306
f 306 444 430
f 444 306 297
f 297 462 444
f 841 845 871
f 871 865 841
f 865 871 899
f 899 895 865
f 961 973 1011
f 1011 984 961
f 984 1011 1013
f 1013 992 984
f 992 1013 1017
f 1017 994 992
f 994 1017 1005
f 1005 988 994
f 988 1005 999
f 999 978 988
f 978 999 1003
f 1003 982 978
f 982 1003 1019
f 1019 997 982
f 997 1019 1015
f 1015 990 997
f 990 1015 1001
f 1001 980 990
f 986 1009 995
f 995 976 986
f 980 1001 1009
f 1009 986 980
f 949 953 973
f 973 961 949
f 917 919 933
f 933 925 917
f 925 933 953
f 953 949 925
f 895 899 919
f 919 917 895
f 813 817 845
f 845 841 813
f 220 125 156
f 156 230 220
f 230 156 124
f 124 219 230
f 219 124 127
f 127 222 219
f 222 127 136
f 136 224 222
f 224 136 133
f 133 226 224
f 226 133 129
f 129 217 226
f 787 791 817
f 817 813 787
f 771 773 791
f 791 787 771
f 597 589 619
f 619 623 597
f 623 619 649
f 649 655 623
f 655 649 677
f 677 681 655
f 681 677 711
f 711 715 681
f 715 711 739
f 739 743 715
f 743 739 773
f 773 771 743
f 557 547 589
f 589 597 557
f 545 529 547
f 547 557 545
f 519 513 529
f 529 545 519
f 204 131 142
f 142 211 204
f 217 129 131
f 131 204 217
f 209 144 134
f 134 207 209
f 202 140 144
f 144 209 202
f 206 148 140
f 140 202 206
f 213 138 148
f 148 206 213
f 200 146 138
f 138 213 200
f 196 152 146
f 146 200 196
f 211 142 150
f 150 198 211
f 198 150 152
f 152 196 198
f 502 494 513
f 513 519 502
f 472 454 494
f 494 502 472
f 434 432 454
f 454 472 434
f 488 487 466
f 466 482 488
f 482 466 470
f 470 486 482
f 486 470 458
f 458 474 486
f 474 458 464
f 464 478 474
f 478 464 460
f 460 476 478
f 476 460 468
f 468 484 476
f 484 468 440
f 440 448 484
f 456 438 446
f 446 462 456
f 448 440 438
f 438 456 448
f 430 428 432
f 432 434 430
f 444 436 428
f 428 430 444
f 462 446 436
f 436 444 462
f 883 887 859
f 859 855 883
f 909 915 887
f 887 883 909
f 927 941 915
f 915 909 927
f 957 1023 941
f 941 927 957
f 1055 1096 1068
f 1068 1049 1055
f 1049 1068 1047
f 1047 1027 1049
f 1027 1047 1023
f 1023 957 1027
f 1062 1110 1096
f 1096 1055 1062
f 831 835 807
f 807 803 831
f 855 859 835
f 835 831 855
f 521 500 452
f 452 509 521
f 509 452 426
f 426 503 509
f 543 525 500
f 500 521 543
f 571 551 525
f 525 543 571
f 595 587 551
f 551 571 595
f 615 607 587
f 587 595 615
f 637 633 607
f 607 615 637
f 665 663 633
f 633 637 665
f 689 687 663
f 663 665 689
f 721 719 687
f 687 689 721
f 749 747 719
f 719 721 749
f 751 755 747
f 747 749 751
f 779 783 755
f 755 751 779
f 803 807 783
f 783 779 803
f 416 274 346
f 555 511 416
f 416 533 555
f 908 926 956
f 956 1026 1048
f 1048 1054 1062
f 956 1048 1062
f 1062 1055 1049
f 1049 1027 957
f 1062 1049 957
f 957 927 909
f 909 883 855
f 957 909 855
f 1062 957 855
f 855 831 803
f 803 779 751
f 855 803 751
f 751 749 721
f 721 689 665
f 751 721 665
f 855 751 665
f 665 637 615
f 615 595 571
f 665 615 571
f 571 543 521
f 521 509 503
f 571 521 503
f 665 571 503
f 855 665 503
f 503 508 520
f 520 542 570
f 503 520 570
f 570 594 614
f 614 636 664
f 570 614 664
f 503 570 664
f 664 688 720
f 720 748 750
f 664 720 750
f 750 778 802
f 802 830 854
f 750 802 854
f 664 750 854
f 503 664 854
f 855 503 854
f 1062 855 854
f 956 1062 854
f 908 956 854
f 882 908 854
