v -0.07734612375 -0.08014781028 9.600468184e-05
v -0.07734612375 -0.08014776558 0.359904021
v -0.07734612375 0.08014773577 0.359904021
v -0.07734612375 0.08014781028 9.601168131e-05
v -0.07649130374 -0.06182955205 0.3601317406
v -0.07649130374 0.06182952225 0.3601317406
v -0.07648477703 -0.04148878157 0.3602327108
v -0.07648477703 0.04148875177 0.3602327108
v -0.07648411393 -0.02082294971 0.3596620858
v -0.07648411393 0.02082291991 0.3596620858
v -0.0764458254 -1.570167818e-08 0.3592125177
v -0.07640617341 -0.06091880053 0.001004806487
v -0.07640617341 0.06091880053 0.001004811842
v -0.07638124377 -0.0410227254 0.00171875034
v -0.07638124377 0.0410227254 0.001718753832
v -0.07637421787 -0.08269277215 5.916889495e-05
v -0.07637421787 -0.08269272745 0.3599408567
v -0.07637421787 0.08269269764 0.3599408567
v -0.07637421787 0.08269277215 5.917612725e-05
v -0.07631728053 -0.02054053545 0.002641310915
v -0.07631728053 0.02054053545 0.002641312778
v -0.07629395276 -1.301606739e-10 0.002977728844
v -0.07588044554 -0.08795700222 9.600433987e-05
v -0.07588044554 -0.08795695752 0.359904021
v -0.07588044554 0.08795692772 0.359904021
v -0.07588044554 0.08795700222 9.601202328e-05
v -0.07471521944 -0.08014781773 0.02007974312
v -0.07471521944 -0.08014778048 0.3399202824
v -0.07471521944 0.08014775068 0.3399202824
v -0.07471521944 0.08014781773 0.02007975057
v -0.07471520454 -0.08014781028 -0.0198877342
v -0.07471520454 -0.08014776558 0.3798877597
v -0.07471520454 0.08014773577 0.3798877597
v -0.07471520454 0.08014781028 -0.01988772675
v -0.07435233146 7.706628669e-10 -0.0176307112
v -0.07430673391 -0.02050934359 -0.01781775057
v -0.07430673391 0.02050934359 -0.01781775057
v -0.07418954372 -0.04094910994 -0.0182985086
v -0.07418954372 0.04094910994 -0.01829850487
v -0.0740326643 -0.06089036539 -0.01894204319
v -0.0740326643 0.06089036539 -0.01894203946
v -0.07380901277 -0.08258523047 -0.01958243921
v -0.07380901277 -0.08258518577 0.3795824647
v -0.07380901277 0.08258515596 0.3795824647
v -0.07380901277 0.08258523047 -0.01958243176
v -0.07380836457 -1.65946421e-08 0.3796411753
v -0.07376274467 -0.06215670705 0.3797026873
v -0.07376274467 0.06215667725 0.3797026873
v -0.0737535432 -0.02094373293 0.3797259033
v -0.0737535432 0.0209436994 0.3797259033
v -0.07373235375 -0.0615538545 0.3403077722
v -0.07373235375 0.06155382469 0.3403077722
v -0.07369863987 -0.04172248021 0.3798313439
v -0.07369863987 0.04172245041 0.3798313439
v -0.07352034748 -0.08275091648 0.02017439529
v -0.07352034748 -0.08275087923 0.3398256302
v -0.07352034748 0.08275084943 0.3398256302
v -0.07352034748 0.08275091648 0.02017440274
v -0.07339157909 -0.04137361795 0.3393138349
v -0.07339157909 0.04137358814 0.3393138349
v -0.07335476577 -0.06134655327 0.02073513716
v -0.07335476577 0.06134655327 0.02073514089
v -0.07329948992 -0.08795700967 0.01970040426
v -0.07329948992 -0.08795697242 0.3402996361
v -0.07329948992 0.08795694262 0.3402996361
v -0.07329948992 0.08795700967 0.01970041171
v -0.07329947501 -0.08795700222 -0.01950839534
v -0.07329947501 -0.08795695752 0.3795084059
v -0.07329947501 0.08795692772 0.3795084059
v -0.07329947501 0.08795700222 -0.01950838789
v -0.0731099695 -0.0414076671 0.02165955491
v -0.0731099695 0.0414076671 0.02165955864
v -0.07291488349 -0.02079219557 0.3378242552
v -0.07291488349 0.02079216577 0.3378242552
v -0.07272469252 -1.473981204e-08 0.3372075856
v -0.07257518172 -0.02071746439 0.02349200845
v -0.07257518172 0.02071746066 0.02349200845
v -0.07235367596 -1.054899834e-09 0.02413329482
v -0.06826650351 -0.0620935075 0.04022948444
v -0.06826650351 0.0620935075 0.04022949189
v -0.06819804013 -0.06143301725 0.3201863766
v -0.06819804013 0.06143298745 0.3201863766
v -0.06788544357 -0.07948169857 0.04192529246
v -0.06788544357 -0.07948166877 0.318074733
v -0.06788544357 0.07948163897 0.318074733
v -0.06788544357 0.07948169857 0.04192529991
v -0.06782875955 -0.04151310399 0.3179964423
v -0.06782875955 0.04151307419 0.3179964423
v -0.06778235734 -0.04193855822 0.04215544835
v -0.06778235734 0.04193855822 0.04215544835
v -0.06736814231 -0.02096009254 0.3151618242
v -0.06736814231 0.02096006647 0.3151618242
v -0.06724511087 -0.02096971683 0.04556176439
v -0.06724511087 0.02096971311 0.04556176439
v -0.06720812619 -1.373552294e-08 0.3142321408
v -0.06719787419 1.59306901e-09 -0.03644517064
v -0.0671184957 -0.02063685097 -0.03658190742
v -0.0671184957 0.02063685469 -0.03658190742
v -0.0670941174 -2.044387104e-09 0.04677012563
v -0.06701020896 -0.08252506703 0.04176641628
v -0.06701020896 -0.08252503723 0.3182336092
v -0.06701020896 0.08252500743 0.3182336092
v -0.06701020896 0.08252506703 0.04176642373
v -0.06700176746 -0.08014781773 -0.03850959614
v -0.06700176746 -0.08014775813 0.3985096216
v -0.06700176746 0.08014772832 0.3985096216
v -0.06700176746 0.08014781773 -0.03850958869
v -0.06687955558 -0.04113891721 -0.03699353337
v -0.06687955558 0.04113891721 -0.03699353337
v -0.06677865982 -0.07949719578 0.05624116585
v -0.06677865982 -0.07949716598 0.3037588596
v -0.06677865982 0.07949713618 0.3037588596
v -0.06677865982 0.07949719578 0.0562411733
v -0.06675490737 -0.06283649802 0.05641304329
v -0.06675490737 0.06283649802 0.05641305074
v -0.06654115021 -0.06119606644 -0.03757650033
v -0.06654115021 0.06119606644 -0.03757649288
v -0.06650328636 -0.0794551 0.08372323215
v -0.06650328636 -0.0794550851 0.2762767971
v -0.06650328636 0.0794550553 0.2762767971
v -0.06650328636 0.0794551 0.08372323215
v -0.0664999783 -0.07915554196 0.1800000221
v -0.0664999783 0.07915552706 0.1800000221
v -0.0664979741 -0.0629049018 0.08480124921
v -0.0664979741 0.0629049018 0.08480124921
v -0.06649562716 -0.07942372561 0.1330104619
v -0.06649562716 -0.0794237107 0.2269895822
v -0.06649562716 0.0794236958 0.2269895822
v -0.06649562716 0.0794237107 0.1330104619
v -0.06648956984 -0.06142677367 0.29725793
v -0.06648956984 0.06142675132 0.29725793
v -0.06644888222 -0.06267537922 0.1332345158
v -0.06644888222 0.06267536432 0.1332345158
v -0.06642926484 -0.06254123896 0.2262835056
v -0.06642926484 0.06254122406 0.2262835056
v -0.06635331362 -0.06204865128 0.1803805381
v -0.06635331362 0.06204863638 0.1803805381
v -0.06635259092 -1.73939938e-08 0.3979281783
v -0.06634089351 -0.06190047413 0.2677533031
v -0.06634089351 0.06190045178 0.2677533031
v -0.06631942838 -0.0210838709 0.3979527354
v -0.06631942838 0.02108383738 0.3979527354
v -0.06626299024 -0.041845534 0.3980177939
v -0.06626299024 0.04184549674 0.3980177939
v -0.06623477489 -0.06200694665 0.3980352879
v -0.06623477489 0.0620069094 0.3980352879
v -0.06601722538 -0.08261827379 -0.0382884033
v -0.06601722538 -0.08261821419 0.3982884288
v -0.06601722538 0.08261818439 0.3982884288
v -0.06601722538 0.08261827379 -0.03828839585
v -0.06586800516 -0.04230422899 0.06541395187
v -0.06586800516 0.04230422154 0.06541395187
v -0.06584449857 -0.04188164324 0.2931366563
v -0.06584449857 0.04188162088 0.2931366563
v -0.06573248655 -0.08795700222 0.03796876594
v -0.06573248655 -0.08795697242 0.3220312595
v -0.06573248655 0.08795694262 0.3220312595
v -0.06573248655 0.08795700222 0.03796877339
v -0.06573245674 -0.08795700222 -0.03777675703
v -0.06573245674 -0.08795694262 0.3977767825
v -0.06573245674 0.08795691282 0.3977767825
v -0.06573245674 0.08795700222 -0.03777674958
v -0.06551750749 -0.0215230193 0.2896800637
v -0.06551750749 0.02152299322 0.2896800637
v -0.06546952575 -0.02119065821 0.07120123506
v -0.06546952575 0.02119065076 0.07120123506
v -0.06546593457 -1.261573068e-08 0.2886142731
v -0.06540418416 -0.08097157627 0.1800000221
v -0.06540418416 0.08097156137 0.1800000221
v -0.06539066136 -3.185490538e-09 0.07287552953
v -0.06528700888 -0.08185430616 0.05612907931
v -0.06528700888 -0.08185427636 0.3038709462
v -0.06528700888 0.08185424656 0.3038709462
v -0.06528700888 0.08185430616 0.05612908676
v -0.06521617621 -0.08101986349 0.1330192089
v -0.06521617621 -0.08101984859 0.2269808352
v -0.06521617621 0.08101983368 0.2269808352
v -0.06521617621 0.08101984859 0.1330192089
v -0.06489261985 -0.08114017546 0.08369664848
v -0.06489261985 -0.08114016056 0.2763033807
v -0.06489261985 0.08114013076 0.2763033807
v -0.06489261985 0.08114017546 0.08369664848
v -0.06487865001 -0.04290137067 0.2647148371
v -0.06487865001 0.04290134832 0.2647148371
v -0.06485699117 -0.04268248752 0.09628172219
v -0.06485699117 0.04268248007 0.09628172219
v -0.06460800767 -0.04361943156 0.2256783694
v -0.06460800767 0.0436194092 0.2256783694
v -0.06459670514 -0.04256529361 0.1825303584
v -0.06459670514 0.04256527871 0.1825303584
v -0.06458446383 -0.04295250773 0.1373391747
v -0.06458446383 0.04295249283 0.1373391747
v -0.06446886063 -0.02323617414 0.2607616782
v -0.06446886063 0.02323615178 0.2607616782
v -0.0644095242 -0.02144139074 0.102065742
v -0.0644095242 0.02144138329 0.102065742
v -0.06437600404 -1.138376593e-08 0.2604302168
v -0.06431499869 -4.511833129e-09 0.1032187119
v -0.06415849924 -0.02867077105 0.2269130796
v -0.06415849924 0.02867075242 0.2269130796
v -0.06414847821 -0.02164616622 0.1398779154
v -0.06414847821 0.02164615504 0.1398779154
v -0.06413795799 -0.02021339722 0.1871583462
v -0.06413795799 0.02021338232 0.1871583462
v -0.0641067028 -0.02257715911 0.2110441625
v -0.0641067028 0.02257714048 0.2110441625
v -0.06410163641 -0.02036366798 0.2014577538
v -0.06410163641 0.02036364935 0.2014577538
v -0.06409452856 -0.02158658579 0.2174548209
v -0.06409452856 0.02158656716 0.2174548209
v -0.06409281492 -0.01646379754 0.1945545077
v -0.06409281492 0.01646377891 0.1945545077
v -0.06408764422 -0.01128811762 0.1896201521
v -0.06408764422 0.01128810085 0.1896201521
v -0.06408630311 -0.005556919146 0.1868477762
v -0.06408630311 0.005556902383 0.1868477762
v -0.06408601254 -7.810495362e-09 0.1786833107
v -0.06407624483 -0.01847256161 0.2215713859
v -0.06407624483 0.01847254299 0.2215713859
v -0.06407403946 -8.144478869e-09 0.1863239557
v -0.06406519562 -0.01425356884 0.2231225073
v -0.06406519562 0.01425355021 0.2231225073
v -0.06405992061 -9.755073194e-09 0.2231700569
v -0.06405489892 -6.021307009e-09 0.1377514452
v -0.06405100971 -1.01106945e-08 0.2313057333
v -0.06376561522 -0.01427038107 0.2206577957
v -0.06376561522 0.01427036244 0.2206577957
v -0.06364621222 -8.268579599e-09 0.189163059
v -0.06361562014 -0.007271924987 0.1908633709
v -0.06361562014 0.007271908224 0.1908633709
v -0.06349119544 -0.01736468635 0.2178285569
v -0.06349119544 0.01736466773 0.2178285569
v -0.0634618476 -9.646781152e-09 0.2206926346
v -0.06339891255 -0.01509761531 0.1989124268
v -0.06339891255 0.01509759855 0.1989124268
v -0.06311435997 -0.01817287691 0.21327281
v -0.06311435997 0.01817285828 0.21327281
v -0.06308281422 -0.0176486019 0.2075081766
v -0.06308281422 0.01764858328 0.2075081766
v -0.06291693449 -9.550849001e-09 0.2184979618
v -0.06291502714 -0.01412873436 0.2184536606
v -0.06291502714 0.01412871573 0.2184536606
v -0.06054890156 -0.0143127162 0.2138720155
v -0.06054890156 0.01431269757 0.2138720155
v -0.05997696146 -0.08795700222 9.600433987e-05
v -0.05997696146 -0.08795695752 0.359904021
v -0.05997696146 0.08795692772 0.359904021
v -0.05997696146 0.08795700222 9.601202328e-05
v -0.05801676214 -0.01235097088 0.2089333981
v -0.05801676214 0.01235095225 0.2089333981
v -0.05793790147 -0.08795700222 0.0155842714
v -0.05793790147 -0.08795695752 0.3444157541
v -0.05793790147 0.08795692772 0.3444157541
v -0.05793790147 0.08795700222 0.01558427885
v -0.05793789029 -0.08795700222 -0.01539226249
v -0.05793789029 -0.08795695752 0.375392288
v -0.05793789029 0.08795692772 0.375392288
v -0.05793789029 0.08795700222 -0.01539225504
v -0.05576474965 -0.007047399413 0.2048000991
v -0.05576474965 0.007047381718 0.2048000991
v -0.05565613508 2.292240175e-09 -0.05244034529
v -0.05548683181 -0.0209160205 -0.05263447762
v -0.05548683181 0.02091602422 -0.05263447762
v -0.05495861173 -8.880768121e-09 0.2031683028
v -0.05493609607 -0.04143401235 -0.05321537703
v -0.05493609607 0.0414340198 -0.05321537703
v -0.05473146215 -0.08014781773 -0.05450053886
v -0.05473146215 -0.08014775813 0.4145005643
v -0.05473146215 0.08014772832 0.4145005643
v -0.05473146215 0.08014781773 -0.05450053141
v -0.05452810973 -1.8077289e-08 0.4135601819
v -0.05450461805 -0.02121144906 0.4135576785
v -0.05450461805 0.0212114118 0.4135576785
v -0.05445712805 -0.06149305776 -0.05366872996
v -0.05445712805 0.06149306521 -0.05366872251
v -0.05438458174 -0.04225372896 0.4136555791
v -0.05438458174 0.0422536917 0.4136555791
v -0.05419582501 -0.06237964332 0.413825959
v -0.05419582501 0.06237960607 0.413825959
v -0.05409114808 -0.08259751648 -0.05394278839
v -0.05409114808 -0.08259745687 0.4139428139
v -0.05409114808 0.08259742707 0.4139428139
v -0.05409114808 0.08259751648 -0.05394278094
v -0.05369511247 -0.08795700222 0.05365618691
v -0.05369511247 -0.08795697242 0.3063438535
v -0.05369511247 0.08795694262 0.3063438535
v -0.05369511247 0.08795700222 0.05365619436
v -0.05369507149 -0.08795700222 -0.05346414819
v -0.05369507149 -0.08795694262 0.4134641886
v -0.05369507149 0.08795691282 0.4134641886
v -0.05369507149 0.08795700222 -0.05346414074
v -0.0519596599 -0.08795700222 0.03001702949
v -0.0519596599 -0.08795697242 0.329982996
v -0.0519596599 0.08795694262 0.329982996
v -0.0519596599 0.08795700222 0.03001703694
v -0.05195963755 -0.08795700222 -0.02982502058
v -0.05195963755 -0.08795694262 0.3898250461
v -0.05195963755 0.08795691282 0.3898250461
v -0.05195963755 0.08795700222 -0.02982501313
v -0.04244965315 -0.08795700222 0.04241074249
v -0.04244965315 -0.08795697242 0.317589283
v -0.04244965315 0.08795694262 0.317589283
v -0.04244965315 0.08795700222 0.04241074994
v -0.04244961962 -0.08795700222 -0.04221870378
v -0.04244961962 -0.08795694262 0.4022187293
v -0.04244961962 0.08795691282 0.4022187293
v -0.04244961962 0.08795700222 -0.04221869633
v -0.04119196907 -0.08211184293 0.1800000221
v -0.04119196907 0.08211182803 0.1800000221
v -0.04108040035 -0.08216824383 0.1325241029
v -0.04108040035 -0.08216822892 0.2274759412
v -0.04108040035 0.08216821402 0.2274759412
v -0.04108040035 0.08216822892 0.1325241029
v -0.03987737373 2.849831482e-09 -0.06519654393
v -0.03982769698 -0.08326335251 0.08386279643
v -0.03982769698 -0.08326333761 0.2761372328
v -0.03982769698 0.08326330781 0.2761372328
v -0.03982769698 0.08326335251 0.08386279643
v -0.03960173205 -0.02110454813 -0.06537204236
v -0.03960173205 0.02110455558 -0.06537204236
v -0.03913867101 -0.04179948568 -0.06566682458
v -0.03913867101 0.04179949313 -0.06566682458
v -0.03874050081 -0.08014781028 -0.06677083671
v -0.03874050081 -0.08014775813 0.4267708659
v -0.03874050081 0.08014771342 0.4267708659
v -0.03874050081 0.08014781028 -0.06677083671
v -0.03873736784 -0.04236501455 0.4256497324
v -0.03873736784 0.0423649773 0.4256497324
v -0.03868560493 -0.02126178518 0.4255557954
v -0.03868560493 0.02126174793 0.4255557954
v -0.03857070953 -0.06190056726 -0.066028364
v -0.03857070953 0.06190057471 -0.066028364
v -0.03846852854 -0.06260320544 0.4259426296
v -0.03846852854 0.06260317564 0.4259426296
v -0.03845552355 -1.859800669e-08 0.425472796
v -0.03816472366 -0.0826234445 -0.06605117023
v -0.03816472366 -0.08262338489 0.4260511994
v -0.03816472366 0.08262335509 0.4260511994
v -0.03816472366 0.0826234445 -0.06605117023
v -0.0380076915 -0.08795700967 0.06569356471
v -0.0380076915 -0.08795698732 0.294306457
v -0.0380076915 0.08795695752 0.294306457
v -0.0380076915 0.08795700967 0.06569357961
v -0.0380076617 -0.08795700222 -0.06550151855
v -0.0380076617 -0.08795694262 0.4255015254
v -0.0380076617 0.08795691282 0.4255015254
v -0.0380076617 0.08795700222 -0.06550150365
v -0.03005595319 -0.08795700222 0.05192075297
v -0.03005595319 -0.08795697242 0.3080792725
v -0.03005595319 0.08795694262 0.3080792725
v -0.03005595319 0.08795700222 0.05192076042
v -0.03005592711 -0.08795700222 -0.05172871426
v -0.03005592711 -0.08795694262 0.4117287397
v -0.03005592711 0.08795691282 0.4117287397
v -0.03005592711 0.08795700222 -0.05172870681
v -0.02155685052 3.204493781e-09 -0.07331027091
v -0.02116597071 -0.02128214762 -0.07342269272
v -0.02116597071 0.02128215507 -0.07342269272
v -0.02075587027 -0.08248277754 0.1800064594
v -0.02075587027 0.08248276263 0.1800064594
v -0.02071746811 -0.04201960936 -0.07355168462
v -0.02071746811 0.04201961681 -0.07355168462
v -0.02067274973 -0.08254980296 0.2275002152
v -0.02067274973 0.08254978806 0.2275002152
v -0.02066901699 -0.08476887643 0.08432860672
v -0.02066901699 -0.08476886153 0.2756714225
v -0.02066901699 0.08476883173 0.2756714225
v -0.02066901699 0.08476887643 0.08432860672
v -0.02066552453 -0.08254647255 0.1325037181
v -0.02066552453 0.08254645765 0.1325037181
v -0.02039815858 -0.0423722975 0.4336691797
v -0.02039815858 0.04237226024 0.4336691797
v -0.02034850977 -0.02139843628 0.4336792827
v -0.02034850977 0.02139839903 0.4336792827
v -0.02026846632 -1.895746138e-08 0.4336961508
v -0.02021325566 -0.06179734692 -0.07369670272
v -0.02021325566 0.06179735437 -0.07369670272
v -0.02011862956 -0.08014781773 -0.07448428869
v -0.02011862956 0.08014781773 -0.07448428869
v -0.02009769902 -0.06269987673 0.433737874
v -0.02009769902 0.06269983202 0.433737874
v -0.01999295503 -0.08251510561 -0.07367318869
v -0.01999295503 0.08251510561 -0.07367318869
v -0.01997398213 -0.082572788 0.4336303174
v -0.01997398213 0.0825727433 0.4336303174
v -0.01994084194 -0.07970094681 0.4337671101
v -0.01994084194 0.0797009021 0.4337671101
v -0.0197393205 -0.08795700222 0.07326058298
v -0.0197393205 -0.08795698732 0.2867394388
v -0.0197393205 0.08795695752 0.2867394388
v -0.0197393205 0.08795700222 0.07326059788
v -0.01973928511 -0.08795700967 -0.07306853682
v -0.01973928511 -0.08795695007 0.4330685735
v -0.01973928511 0.08795690536 0.4330685735
v -0.01973928511 0.08795700967 -0.07306852192
v -0.01562319417 -0.08795700222 0.05789900944
v -0.01562319417 -0.08795697242 0.302101016
v -0.01562319417 0.08795694262 0.302101016
v -0.01562319417 0.08795700222 0.05789901689
v -0.01562316529 -0.08795700222 -0.05770694092
v -0.01562316529 -0.08795694262 0.4177069664
v -0.01562316529 0.08795691282 0.4177069664
v -0.01562316529 0.08795700222 -0.05770693347
v -0.001731787575 3.342372823e-09 -0.07646457851
v -0.001357439905 -0.02112203836 -0.07647224516
v -0.001357439905 0.02112204581 -0.07647224516
v -0.0009380453266 -0.04168324918 -0.07648082078
v -0.0009380453266 0.04168325663 -0.07648082078
v -0.0007606052095 -0.04274160415 0.4364849627
v -0.0007606052095 0.0427415669 0.4364849627
v -0.0007191107143 -0.02175974101 0.4364857674
v -0.0007191107143 0.02175970376 0.4364857674
v -0.0006806617603 -1.907943314e-08 0.4364865422
v -0.0005722946953 -0.06165575236 -0.07648829371
v -0.0005722946953 0.06165575981 -0.07648829371
v -0.0003593650181 -0.06284590065 0.4364928901
v -0.0003593650181 0.06284585595 0.4364928901
v -0.0001692920923 -0.08250363916 0.1331094801
v -0.0001692920923 -0.08250362426 0.226890564
v -0.0001692920923 0.08250360936 0.226890564
v -0.0001692920923 0.08250362426 0.1331094801
v -0.000153047964 -0.08266591281 0.4363827705
v -0.000153047964 0.0826658681 0.4363827705
v -0.0001496253535 -0.08259753883 -0.07638525963
v -0.0001496253535 0.08259753883 -0.07638525963
v -0.0001388138044 -0.0794435814 0.436496675
v -0.0001388138044 0.0794435367 0.436496675
v -0.0001349409868 -0.08795700222 0.07584155351
v -0.0001349409868 -0.08795698732 0.2841584682
v -0.0001349409868 0.08795695752 0.2841584682
v -0.0001349409868 0.08795700222 0.07584156841
v -0.0001349356753 -0.08795700222 0.05993808433
v -0.0001349356753 -0.08795697242 0.3000619411
v -0.0001349356753 0.08795694262 0.3000619411
v -0.0001349356753 0.08795700222 0.05993809178
v -0.0001349033264 -0.08795700222 -0.05974601582
v -0.0001349033264 -0.08795694262 0.4197460413
v -0.0001349033264 0.08795691282 0.4197460413
v -0.0001349033264 0.08795700222 -0.05974600837
v -0.0001349000522 -0.08795700967 -0.07564950734
v -0.0001349000522 -0.08795694262 0.4356495142
v -0.0001349000522 0.08795689791 0.4356495142
v -0.0001349000522 0.08795700967 -0.07564949244
v -0.0001348997466 -0.08014782518 -0.07711517811
v -0.0001348997466 0.08014782518 -0.07711517811
v -6.936118007e-05 -0.08245052397 0.1800002605
v -6.936118007e-05 0.08245050907 0.1800002605
v 4.009902477e-05 -0.08551558107 0.08482093364
v 4.009902477e-05 -0.08551556617 0.2751790881
v 4.009902477e-05 0.08551553637 0.2751790881
v 4.009902477e-05 0.08551558107 0.08482094854
v 0.01535332575 -0.08795700222 0.05789903924
v 0.01535332575 -0.08795697242 0.3021009862
v 0.01535332575 0.08795694262 0.3021009862
v 0.01535332575 0.08795700222 0.05789904669
v 0.01535335649 -0.08795700222 -0.05770694092
v 0.01535335649 -0.08795694262 0.4177069664
v 0.01535335649 0.08795691282 0.4177069664
v 0.01535335649 0.08795700222 -0.05770693347
v 0.01841472834 -7.900225363e-09 0.1807360798
v 0.01845913008 -9.679112623e-09 0.2214322835
v 0.01860648766 -6.102896855e-09 0.1396180093
v 0.01873477176 3.241636293e-09 -0.07415999472
v 0.01891575567 -0.02500000782 0.1804565936
v 0.01891575567 0.02499999292 0.1804565936
v 0.01897509955 -0.02499975078 0.2229498327
v 0.01897509955 0.02499973215 0.2229498327
v 0.01898097806 -0.02513357624 0.1376205087
v 0.01898097806 0.02513356507 0.1376205087
v 0.01903540082 -0.02098458633 -0.07405684143
v 0.01903540082 0.02098459378 -0.07405684143
v 0.01912258007 -0.02137529477 0.4340626895
v 0.01912258007 0.02137525752 0.4340626895
v 0.0191306062 -1.897341839e-08 0.4340612292
v 0.01914775744 -0.04222569987 0.4340577126
v 0.01914775744 0.04222566262 0.4340577126
v 0.01931895129 -0.04150531068 -0.07395955175
v 0.01931895129 0.04150531814 -0.07395955175
v 0.01946944557 -0.08795700222 0.07326061279
v 0.01946944557 -0.08795698732 0.286739409
v 0.01946944557 0.08795695752 0.286739409
v 0.01946944557 0.08795700222 0.07326062769
v 0.01946948282 -0.08795700967 -0.07306853682
v 0.01946948282 -0.08795695007 0.4330685735
v 0.01946948282 0.08795690536 0.4330685735
v 0.01946948282 0.08795700967 -0.07306852192
v 0.01954266988 -0.0616072081 -0.07388278842
v 0.01954266988 0.06160721555 -0.07388278842
v 0.01955451071 -0.08259682357 0.1800000221
v 0.01955451071 0.08259680867 0.1800000221
v 0.01957323775 -0.0624419637 0.4339319766
v 0.01957323775 0.06244192645 0.4339319766
v 0.01957838051 -0.08551559597 0.08482093364
v 0.01957838051 -0.08551558107 0.2751790881
v 0.01957838051 0.08551555127 0.2751790881
v 0.01957838051 0.08551559597 0.08482094854
v 0.01967015862 -0.07989745587 -0.07387241721
v 0.01967015862 0.07989745587 -0.07387241721
v 0.01967691816 -0.07991246879 0.4338925779
v 0.01967691816 0.07991242409 0.4338925779
v 0.01984815672 -0.08262966573 -0.07354667783
v 0.01984815672 0.08262966573 -0.07354667783
v 0.0198644232 -0.08260660619 0.4336043894
v 0.0198644232 0.08260656148 0.4336043894
v 0.01996778883 -0.08212206513 0.1332080811
v 0.01996778883 -0.08212205023 0.226791963
v 0.01996778883 0.08212203532 0.226791963
v 0.01996778883 0.08212205023 0.1332080811
v 0.02463646792 -0.04917813092 0.1803819388
v 0.02463646792 0.04917811602 0.1803819388
v 0.0247762315 -4.561806044e-09 0.1043619588
v 0.02494238876 -0.04935194924 0.1349773556
v 0.02494238876 0.04935193434 0.1349773556
v 0.02508598566 -0.04954019561 0.2263489068
v 0.02508598566 0.04954017326 0.2263489068
v 0.02555435523 -1.128770766e-08 0.2582326531
v 0.02565531246 -0.02499996498 0.1030828506
v 0.02565531246 0.02499995753 0.1030828506
v 0.02634383924 -0.02388706431 0.2616634369
v 0.02634383924 0.02388704196 0.2616634369
v 0.02978608944 -0.08795700222 0.05192078277
v 0.02978608944 -0.08795697242 0.3080792427
v 0.02978608944 0.08795694262 0.3080792427
v 0.02978608944 0.08795700222 0.05192079023
v 0.02978611737 -0.08795700222 -0.05172871426
v 0.02978611737 -0.08795694262 0.4117287397
v 0.02978611737 0.08795691282 0.4117287397
v 0.02978611737 0.08795700222 -0.05172870681
v 0.02990402654 -0.04625476897 0.1010318324
v 0.02990402654 0.04625476152 0.1010318324
v 0.03268355131 -0.04665959254 0.2665144503
v 0.03268355131 0.04665957019 0.2665144503
v 0.03765954822 2.908021157e-09 -0.06652776897
v 0.03773782775 -0.08795700967 0.06569362432
v 0.03773782775 -0.08795698732 0.2943063974
v 0.03773782775 0.08795695752 0.2943063974
v 0.03773782775 0.08795700967 0.06569363922
v 0.03773786128 -0.08795700222 -0.06550151855
v 0.03773786128 -0.08795694262 0.4255015254
v 0.03773786128 0.08795691282 0.4255015254
v 0.03773786128 0.08795700222 -0.06550150365
v 0.03782230243 -0.02091430873 -0.06644193083
v 0.03782230243 0.02091431618 -0.06644193083
v 0.03795964271 -0.04139844328 -0.06636948884
v 0.03795964271 0.04139845073 -0.06636948884
v 0.03797386214 -1.863649146e-08 0.4263532162
v 0.03798114508 -0.02121588215 0.426348567
v 0.03798114508 0.0212158449 0.426348567
v 0.03801284358 -0.04209159687 0.4263281822
v 0.03801284358 0.04209155962 0.4263281822
v 0.03806955367 -0.06142953411 -0.06631150842
v 0.03806955367 0.06142954156 -0.06631150842
v 0.03813703358 -3.309926777e-09 0.07572229952
v 0.03813811019 -0.06242464855 0.4262475371
v 0.03813811019 0.0624246113 0.4262475371
v 0.03847070038 -0.08014781028 -0.06677083671
v 0.03847070038 -0.08014775813 0.4267708659
v 0.03847070038 0.08014771342 0.4267708659
v 0.03847070038 0.08014781028 -0.06677083671
v 0.03866900876 -1.246447123e-08 0.2851538658
v 0.03882227838 -0.0829013437 -0.06559373438
v 0.03882227838 -0.0829012841 0.4255937636
v 0.03882227838 0.0829012543 0.4255937636
v 0.03882227838 0.0829013437 -0.06559373438
v 0.0393691808 -0.02196805365 0.07405783236
v 0.0393691808 0.0219680462 0.07405783236
v 0.04034190625 -0.02309097908 0.2873676717
v 0.04034190625 0.02309095301 0.2873676717
v 0.04111668468 -0.04332340136 0.07398869842
v 0.04111668468 0.04332339391 0.07398869842
v 0.04174542427 -0.08117829263 0.1336268038
v 0.04174542427 -0.08117827773 0.2263732404
v 0.04174542427 0.08117826283 0.2263732404
v 0.04174542427 0.08117827773 0.1336268038
v 0.04177451134 -0.08113197982 0.1800000221
v 0.04177451134 0.08113196492 0.1800000221
v 0.04217979312 -0.08795700222 0.04241077229
v 0.04217979312 -0.08795697242 0.3175892532
v 0.04217979312 0.08795694262 0.3175892532
v 0.04217979312 0.08795700222 0.04241077974
v 0.04217981175 -0.08795700222 -0.04221867397
v 0.04217981175 -0.08795694262 0.4022186995
v 0.04217981175 0.08795691282 0.4022186995
v 0.04217981175 0.08795700222 -0.04221866652
v 0.04241825268 -0.06249427423 0.09735865891
v 0.04241825268 0.06249426678 0.09735865891
v 0.0432113409 -0.06366602331 0.1324018985
v 0.0432113409 -0.06366600841 0.2275981456
v 0.0432113409 0.06366599351 0.2275981456
v 0.0432113409 0.06366600841 0.1324018985
v 0.04338492453 -0.06403823197 0.1800000221
v 0.04338492453 0.06403821707 0.1800000221
v 0.0434107855 -0.07941209525 0.1800000221
v 0.0434107855 0.07941208035 0.1800000221
v 0.04356387258 -0.08147598803 0.08474977314
v 0.04356387258 -0.08147597313 0.2752502561
v 0.04356387258 0.08147594333 0.2752502561
v 0.04356387258 0.08147598803 0.08474977314
v 0.0439426899 -0.08007965982 0.1336268038
v 0.0439426899 -0.08007964492 0.2263732404
v 0.0439426899 0.08007963002 0.2263732404
v 0.0439426899 0.08007964492 0.1336268038
v 0.04460562766 -0.04558942467 0.2908980548
v 0.04460562766 0.04558940232 0.2908980548
v 0.04509747028 -0.06318990886 0.275179565
v 0.04509747028 0.06318987906 0.275179565
v 0.04573535919 -0.08014780283 0.08482094109
v 0.04573535919 -0.08014778793 0.2751790881
v 0.04573535919 0.08014775813 0.2751790881
v 0.04573535919 0.08014780283 0.08482094109
v 0.04743345827 -0.06202323362 0.07290315628
v 0.04743345827 0.06202322617 0.07290315628
v 0.04789341986 -0.08211252093 0.06903679669
v 0.04789341986 -0.08211250603 0.2909632325
v 0.04789341986 0.08211247623 0.2909632325
v 0.04789341986 0.08211252093 0.06903679669
v 0.04918190464 -0.0632186681 0.2906890213
v 0.04918190464 0.0632186383 0.2906890213
v 0.04966032133 -0.08014780283 0.06931136549
v 0.04966032133 -0.08014778793 0.2906886637
v 0.04966032133 0.08014775813 0.2906886637
v 0.04966032133 0.08014780283 0.06931136549
v 0.05168981105 -0.08795700222 0.0300170891
v 0.05168981105 -0.08795697242 0.3299829364
v 0.05168981105 0.08795694262 0.3299829364
v 0.05168981105 0.08795700222 0.03001709655
v 0.05168982968 -0.08795700222 -0.02982499078
v 0.05168982968 -0.08795694262 0.3898250163
v 0.05168982968 0.08795691282 0.3898250163
v 0.05168982968 0.08795700222 -0.02982498333
v 0.05342525616 -0.08795700222 0.05365624651
v 0.05342525616 -0.08795697242 0.3063437939
v 0.05342525616 0.08795694262 0.3063437939
v 0.05342525616 0.08795700222 0.05365625396
v 0.05342527479 -0.08795700222 -0.05346414819
v 0.05342527479 -0.08795694262 0.4134641886
v 0.05342527479 0.08795691282 0.4134641886
v 0.05342527479 0.08795700222 -0.05346414074
v 0.05342987552 -1.327860755e-08 0.3037791252
v 0.05358110741 -2.45011389e-09 0.05605207384
v 0.05389523506 2.355222684e-09 -0.05388121307
v 0.05392441526 -0.0613912195 -0.0538501665
v 0.05392441526 0.06139122695 -0.05385015905
v 0.05393179506 -1.810257722e-08 0.4141387045
v 0.05394713581 -0.02087471448 -0.05382598564
v 0.05394713581 0.0208747182 -0.05382598564
v 0.05394951627 -0.02125958353 0.414119482
v 0.05394951627 0.02125954628 0.414119482
v 0.05395435914 -0.04134705663 -0.05381829664
v 0.05395435914 0.04134706408 -0.05381829664
v 0.05400460586 -0.04230244458 0.4140596688
v 0.05400460586 0.04230240732 0.4140596688
v 0.05401030928 -0.06276593357 0.4140534103
v 0.05401030928 0.06276590377 0.4140534103
v 0.05401535332 -0.08249025047 -0.05383061245
v 0.05401535332 -0.08249019086 0.4138306379
v 0.05401535332 0.08249016106 0.4138306379
v 0.05401535332 0.08249025047 -0.053830605
v 0.05429776385 -0.0225844942 0.3047024906
v 0.05429776385 0.02258446813 0.3047024906
v 0.05446166545 -0.08014781773 -0.05450053886
v 0.05446166545 -0.08014775813 0.4145005643
v 0.05446166545 0.08014772832 0.4145005643
v 0.05446166545 0.08014781773 -0.05450053141
v 0.05516199768 -0.08259798586 0.05602578446
v 0.05516199768 -0.08259795606 0.303974241
v 0.05516199768 0.08259792626 0.303974241
v 0.05516199768 0.08259798586 0.05602579191
v 0.05523071811 -0.04453771934 0.3053244948
v 0.05523071811 0.04453768954 0.3053244948
v 0.05524788797 -0.04151118919 0.05458721146
v 0.05524788797 0.04151118174 0.05458721146
v 0.05576999485 -0.06324741989 0.3039744496
v 0.05576999485 0.06324739009 0.3039744496
v 0.05601252988 -0.06138401479 0.05508607998
v 0.05601252988 0.06138400733 0.05508608744
v 0.05608893931 -0.08014781028 0.05602578446
v 0.05608893931 -0.08014778048 0.303974241
v 0.05608893931 0.08014775068 0.303974241
v 0.05608893931 0.08014781028 0.05602579191
v 0.05717075244 -0.01853199303 0.05175516754
v 0.05717075244 0.01853198931 0.05175516754
v 0.05766806751 -0.08795700222 0.01558433101
v 0.05766806751 -0.08795695752 0.3444156945
v 0.05766806751 0.08795692772 0.3444156945
v 0.05766806751 0.08795700222 0.01558433846
v 0.05766807869 -0.08795700222 -0.01539223269
v 0.05766807869 -0.08795695752 0.3753922582
v 0.05766807869 0.08795692772 0.3753922582
v 0.05766807869 0.08795700222 -0.01539222524
v 0.05970714614 -0.08795700222 9.603414219e-05
v 0.05970714614 -0.08795695752 0.3599039912
v 0.05970714614 0.08795692772 0.3599039912
v 0.05970714614 0.08795700222 9.60418256e-05
v 0.0611291714 -2.041478098e-09 0.04670357704
v 0.06225907803 -0.006868064869 0.04497880489
v 0.06225907803 0.006868061144 0.04497880489
v 0.06443427503 -1.944391759e-09 0.04448249936
v 0.06455527246 -0.01132361684 0.04111234099
v 0.06455527246 0.01132361311 0.04111234099
v 0.06531864405 -0.004876124207 0.04322631657
v 0.06531864405 0.004876120482 0.04322631657
v 0.06546261907 -0.08795700222 0.03796885535
v 0.06546261907 -0.08795697242 0.3220311701
v 0.06546261907 0.08795694262 0.3220311701
v 0.06546261907 0.08795700222 0.0379688628
v 0.06546264142 -0.08795700222 -0.03777672723
v 0.06546264142 -0.08795694262 0.3977767527
v 0.06546264142 0.08795691282 0.3977767527
v 0.06546264142 0.08795700222 -0.03777671978
v 0.06558647752 -1.403472982e-08 0.3210771978
v 0.06572803855 -0.02234621346 0.3213414252
v 0.06572803855 0.02234618366 0.3213414252
v 0.06577003002 -1.74043393e-08 0.3981648684
v 0.06584144384 -0.04393408075 0.3215517104
v 0.06584144384 0.04393405095 0.3215517104
v 0.06592938304 -0.02147865109 0.3982290328
v 0.06592938304 0.02147861756 0.3982290328
v 0.0659346804 -0.06329461187 0.3217179477
v 0.0659346804 0.06329458207 0.3217179477
v 0.06598102301 -0.06143269688 0.0381924957
v 0.06598102301 0.06143269688 0.03819250315
v 0.06599918008 -0.08257677406 0.03827000782
v 0.06599918008 -0.08257674426 0.3217300177
v 0.06599918008 0.08257671446 0.3217300177
v 0.06599918008 0.08257677406 0.03827001527
v 0.06602887809 -0.04236326367 0.03809670359
v 0.06602887809 0.04236326367 0.03809670359
v 0.0661188215 -0.08258549124 -0.03799532726
v 0.0661188215 -0.08258543164 0.3979953527
v 0.0661188215 0.08258540183 0.3979953527
v 0.0661188215 0.08258549124 -0.03799531981
v 0.06616199762 -0.06299294531 0.3981749415
v 0.06616199762 0.06299291551 0.3981749415
v 0.06621331722 -0.04283966869 0.3980672657
v 0.06621331722 0.04283963144 0.3980672657
v 0.06627963483 -0.06129533798 -0.03803182021
v 0.06627963483 0.06129533798 -0.03803181276
v 0.06635417789 -0.04133090004 -0.03789921477
v 0.06635417789 0.04133090004 -0.03789921477
v 0.06636958569 1.655429349e-09 -0.03787180781
v 0.06638859957 -0.02084164135 -0.03783797473
v 0.06638859957 0.02084164508 -0.03783797473
v 0.06645901501 -0.02448267117 0.03739532456
v 0.06645901501 0.02448266745 0.03739532456
v 0.06673193723 -0.08014781773 0.03870169446
v 0.06673193723 -0.08014778793 0.321298331
v 0.06673193723 0.08014775813 0.321298331
v 0.06673193723 0.08014781773 0.03870170191
v 0.06673196703 -0.08014781773 -0.03850956634
v 0.06673196703 -0.08014775813 0.3985095918
v 0.06673196703 0.08014772832 0.3985095918
v 0.06673196703 0.08014781773 -0.03850955889
v 0.067081213 -0.008060842752 0.04023319483
v 0.067081213 0.008060839027 0.04023319483
v 0.06773139536 -0.01299363747 0.0350394696
v 0.06773139536 0.01299363375 0.0350394696
v 0.06881435215 -1.955628992e-09 0.04473957419
v 0.06925424933 -0.009016277269 0.03590326011
v 0.06925424933 0.009016273543 0.03590326011
v 0.06929176301 -0.004026119132 0.0436578244
v 0.06929176301 0.004026115406 0.0436578244
v 0.07011973858 -0.01076654997 0.02960762382
v 0.07011973858 0.0107665481 0.02960762382
v 0.07072571665 -0.006343694404 0.04116521031
v 0.07072571665 0.006343690678 0.04116521031
v 0.07102897763 -0.007582711522 0.03231937438
v 0.07102897763 0.007582708728 0.03231937438
v 0.07151013613 -0.006109653972 0.02587753534
v 0.07151013613 0.006109652109 0.02587753534
v 0.071980685 -0.004401058424 0.02929926664
v 0.071980685 0.00440105563 0.02929926664
v 0.07203875482 -1.061217225e-09 0.02427782118
v 0.07230374217 -1.225465729e-09 0.0280353874
v 0.0726172626 -0.007007272914 0.03750605881
v 0.0726172626 0.007007269189 0.03750605881
v 0.0726820901 -0.02024046332 0.02207247168
v 0.0726820901 0.02024045959 0.02207247168
v 0.07302964479 -0.08795700967 0.01970049366
v 0.07302964479 -0.08795697242 0.3402995467
v 0.07302964479 0.08795694262 0.3402995467
v 0.07302964479 0.08795700967 0.01970050111
v 0.07302965969 -0.08795700222 -0.01950836554
v 0.07302965969 -0.08795695752 0.3795083761
v 0.07302965969 0.08795692772 0.3795083761
v 0.07302965969 0.08795700222 -0.01950835809
v 0.07305340469 -0.04166665301 0.02047542669
v 0.07305340469 0.04166665301 0.02047543041
v 0.07314945012 -0.0222277455 0.3398040831
v 0.07314945012 0.0222277157 0.3398040831
v 0.07316599041 -1.485621226e-08 0.3398705125
v 0.07317898422 -0.04392044991 0.3399226964
v 0.07317898422 0.04392042011 0.3399226964
v 0.07318190485 -0.0614865087 0.01994508877
v 0.07318190485 0.0614865087 0.0199450925
v 0.07325022668 -0.063255243 0.3402144313
v 0.07325022668 0.0632552132 0.3402144313
v 0.07338379323 -0.08265317976 0.01977808401
v 0.07338379323 -0.08265314251 0.3402219415
v 0.07338379323 0.08265311271 0.3402219415
v 0.07338379323 0.08265317976 0.01977809146
v 0.07377837598 -0.08229392767 -0.01952033117
v 0.07377837598 -0.08229388297 0.3795203567
v 0.07377837598 0.08229385316 0.3795203567
v 0.07377837598 0.08229392767 -0.01952032372
v 0.07378413528 -0.06314574927 0.3797107339
v 0.07378413528 0.06314571947 0.3797107339
v 0.07379949093 -1.659491211e-08 0.3796473444
v 0.07380065322 -0.02177598141 0.3796422184
v 0.07380065322 0.02177594788 0.3796422184
v 0.07381005585 -0.04320597649 0.3796026409
v 0.07381005585 0.04320594668 0.3796026409
v 0.07388865948 -7.530503443e-10 0.0172277838
v 0.07392854989 -0.06151584536 -0.01948230714
v 0.07392854989 0.06151584536 -0.01948230341
v 0.07397114486 8.434773435e-10 -0.01929651201
v 0.07398621738 -0.04140315205 -0.0192307625
v 0.07398621738 0.04140315205 -0.01923075877
v 0.07401271909 -0.02081204206 -0.01911515929
v 0.07401271909 0.02081204206 -0.01911515929
v 0.07403745502 -0.005907939281 0.03492292017
v 0.07403745502 0.005907936487 0.03492292017
v 0.07444538921 -0.08014781773 0.02007983252
v 0.07444538921 -0.08014778048 0.339920193
v 0.07444538921 0.08014775068 0.339920193
v 0.07444538921 0.08014781773 0.02007983997
v 0.07444540411 -0.08014781028 -0.0198877044
v 0.07444540411 -0.08014776558 0.3798877299
v 0.07444540411 0.08014773577 0.3798877299
v 0.07444540411 0.08014781028 -0.01988769695
v 0.07511041313 -0.003631694708 0.03286721557
v 0.07511041313 0.003631691914 0.03286721557
v 0.07557335496 -1.401284755e-09 0.03205765784
v 0.07561063021 -0.08795700222 9.603414219e-05
v 0.07561063021 -0.08795695752 0.3599039912
v 0.07561063021 0.08795692772 0.3599039912
v 0.07561063021 0.08795700222 9.60418256e-05
v 0.07637685537 -0.08271573484 -6.436173135e-05
v 0.07637685537 -0.08271569014 0.3600643873
v 0.07637685537 0.08271566033 0.3600643873
v 0.07637685537 0.08271573484 -6.435449905e-05
v 0.07638470083 -0.02071266994 0.001115938765
v 0.07638470083 0.02071266994 0.001115940628
v 0.07644030452 -0.04163192958 0.0007810757379
v 0.07644030452 0.04163192958 0.0007810793468
v 0.07645312697 -1.571598496e-08 0.3595398068
v 0.07645314187 -0.02200621925 0.3595399261
v 0.07645314187 0.02200618945 0.3595399261
v 0.07645742595 -0.0615767315 0.00041723717
v 0.07645742595 0.0615767315 0.0004172425251
v 0.07645957917 -0.04344668239 0.3596015871
v 0.07645957917 0.04344665259 0.3596015871
v 0.07648828626 -5.385356223e-12 0.0001232028008
v 0.07649134845 -0.06316172332 0.3599106371
v 0.07649134845 0.06316169351 0.3599106371
v 0.07707630843 -0.08014781028 9.603448416e-05
v 0.07707630843 -0.08014776558 0.3599039912
v 0.07707630843 0.08014773577 0.3599039912
v 0.07707630843 0.08014781028 9.604148363e-05
f 399 435 431
f 431 391 399
f 435 455 482
f 482 431 435
f 455 524 537
f 537 482 455
f 524 580 634
f 634 537 524
f 580 626 706
f 706 634 580
f 465 469 462
f 462 460 465
f 510 513 469
f 469 465 510
f 594 602 590
f 590 592 594
f 592 590 513
f 513 510 592
f 602 594 576
f 576 574 602
f 574 576 490
f 490 508 574
f 726 668 634
f 634 706 726
f 610 586 590
f 590 602 610
f 496 482 537
f 537 598 496
f 598 574 508
f 508 496 598
f 668 680 622
f 622 616 668
f 610 602 574
f 574 598 610
f 610 598 616
f 616 622 610
f 616 537 634
f 634 668 616
f 598 537 616
f 726 749 680
f 680 668 726
f 782 686 694
f 694 837 782
f 706 626 686
f 686 782 706
f 801 726 706
f 706 782 801
f 841 859 826
f 826 801 841
f 801 826 749
f 749 726 801
f 451 431 482
f 482 496 451
f 343 351 399
f 399 391 343
f 158 295 303
f 303 287 158
f 287 303 351
f 351 343 287
f 391 431 451
f 451 368 391
f 343 391 368
f 368 318 343
f 451 496 508
f 508 421 451
f 421 508 490
f 490 447 421
f 421 447 360
f 360 370 421
f 370 368 451
f 451 421 370
f 370 360 309
f 309 313 370
f 313 318 368
f 368 370 313
f 313 309 169
f 169 178 313
f 313 178 182
f 182 318 313
f 343 318 182
f 182 287 343
f 287 182 174
f 113 174 182
f 182 121 113
f 66 254 295
f 295 158 66
f 103 158 287
f 287 174 103
f 103 174 113
f 113 86 103
f 103 86 30
f 30 58 103
f 58 66 158
f 158 103 58
f 26 248 254
f 254 66 26
f 162 299 258
f 258 70 162
f 70 258 248
f 248 26 70
f 19 58 30
f 30 4 19
f 26 66 58
f 58 19 26
f 45 70 26
f 26 19 45
f 19 4 34
f 34 45 19
f 837 694 690
f 690 786 837
f 841 801 782
f 782 837 841
f 841 837 786
f 786 805 841
f 786 690 630
f 630 710 786
f 805 830 859
f 859 841 805
f 805 786 710
f 710 732 805
f 710 630 584
f 584 638 710
f 732 753 830
f 830 805 732
f 732 710 638
f 638 658 732
f 638 584 528
f 528 541 638
f 658 664 753
f 753 732 658
f 658 638 541
f 541 564 658
f 541 528 459
f 459 486 541
f 564 559 664
f 664 658 564
f 564 541 486
f 486 502 564
f 486 459 439
f 439 443 486
f 502 498 559
f 559 564 502
f 502 486 443
f 443 425 502
f 443 439 403
f 403 395 443
f 425 445 498
f 498 502 425
f 425 443 395
f 395 383 425
f 383 379 445
f 445 425 383
f 395 403 355
f 355 347 395
f 326 379 383
f 383 339 326
f 347 355 307
f 307 291 347
f 291 307 299
f 299 162 291
f 339 383 395
f 395 347 339
f 339 347 291
f 291 283 339
f 150 107 270
f 270 283 150
f 45 34 107
f 107 150 45
f 283 291 162
f 162 150 283
f 150 162 70
f 70 45 150
f 283 270 326
f 326 339 283
f 129 121 182
f 182 178 129
f 123 129 178
f 178 169 123
f 398 390 430
f 430 434 398
f 434 430 481
f 481 454 434
f 454 481 536
f 536 523 454
f 523 536 633
f 633 579 523
f 579 633 705
f 705 625 579
f 465 460 461
f 461 467 465
f 510 465 467
f 467 515 510
f 594 592 589
f 589 601 594
f 592 510 515
f 515 589 592
f 601 573 576
f 576 594 601
f 573 507 490
f 490 576 573
f 725 705 633
f 633 667 725
f 609 601 589
f 589 606 609
f 495 597 536
f 536 481 495
f 597 495 507
f 507 573 597
f 667 615 621
f 621 679 667
f 609 597 573
f 573 601 609
f 609 621 615
f 615 597 609
f 615 667 633
f 633 536 615
f 597 615 536
f 725 667 679
f 679 748 725
f 781 836 693
f 693 685 781
f 705 781 685
f 685 625 705
f 800 781 705
f 705 725 800
f 840 800 825
f 825 858 840
f 800 725 748
f 748 825 800
f 450 495 481
f 481 430 450
f 342 390 398
f 398 350 342
f 157 286 302
f 302 294 157
f 286 342 350
f 350 302 286
f 390 367 450
f 450 430 390
f 342 317 367
f 367 390 342
f 450 420 507
f 507 495 450
f 420 447 490
f 490 507 420
f 420 364 360
f 360 447 420
f 364 420 450
f 450 367 364
f 364 312 309
f 309 360 364
f 312 364 367
f 367 317 312
f 342 286 181
f 181 317 342
f 312 177 169
f 169 309 312
f 181 177 312
f 312 317 181
f 286 173 181
f 112 120 181
f 181 173 112
f 65 157 294
f 294 253 65
f 102 173 286
f 286 157 102
f 102 85 112
f 112 173 102
f 102 57 29
f 29 85 102
f 57 102 157
f 157 65 57
f 25 65 253
f 253 247 25
f 161 69 257
f 257 298 161
f 69 25 247
f 247 257 69
f 18 3 29
f 29 57 18
f 25 18 57
f 57 65 25
f 44 18 25
f 25 69 44
f 18 44 33
f 33 3 18
f 836 785 689
f 689 693 836
f 840 836 781
f 781 800 840
f 840 804 785
f 785 836 840
f 785 709 629
f 629 689 785
f 804 840 858
f 858 829 804
f 804 731 709
f 709 785 804
f 709 637 583
f 583 629 709
f 731 804 829
f 829 752 731
f 731 657 637
f 637 709 731
f 637 540 527
f 527 583 637
f 657 731 752
f 752 663 657
f 657 563 540
f 540 637 657
f 540 485 458
f 458 527 540
f 563 657 663
f 663 558 563
f 563 504 485
f 485 540 563
f 485 442 438
f 438 458 485
f 504 563 558
f 558 500 504
f 504 423 442
f 442 485 504
f 442 394 402
f 402 438 442
f 423 504 500
f 500 427 423
f 423 385 394
f 394 442 423
f 385 423 427
f 427 387 385
f 394 346 354
f 354 402 394
f 325 338 385
f 385 387 325
f 346 290 306
f 306 354 346
f 290 161 298
f 298 306 290
f 338 346 394
f 394 385 338
f 338 282 290
f 290 346 338
f 149 282 269
f 269 106 149
f 44 149 106
f 106 33 44
f 282 149 161
f 161 290 282
f 149 44 69
f 69 161 149
f 282 338 325
f 325 269 282
f 128 177 181
f 181 120 128
f 123 169 177
f 177 128 123
f 612 586 610
f 610 622 612
f 612 622 680
f 680 676 612
f 513 590 586
f 586 530 513
f 469 513 530
f 530 518 469
f 511 462 469
f 469 518 511
f 566 553 511
f 511 518 566
f 530 586 612
f 612 570 530
f 570 566 518
f 518 530 570
f 826 859 850
f 850 795 826
f 749 826 795
f 795 722 749
f 676 680 749
f 749 722 676
f 570 612 676
f 676 672 570
f 728 722 795
f 795 788 728
f 672 676 722
f 722 728 672
f 682 672 728
f 728 745 682
f 566 570 672
f 672 682 566
f 682 640 553
f 553 566 682
f 745 728 788
f 788 778 745
f 778 813 773
f 773 770 778
f 764 757 745
f 745 778 764
f 778 770 764
f 682 745 757
f 757 700 682
f 682 700 697
f 697 695 640
f 640 682 697
f 700 757 760
f 760 755 700
f 768 760 757
f 757 764 768
f 772 768 764
f 764 770 772
f 770 773 774
f 774 772 770
f 697 700 755
f 755 702 697
f 698 695 697
f 697 702 698
f 766 755 760
f 760 776 766
f 776 760 768
f 768 822 776
f 758 698 702
f 702 762 758
f 762 702 755
f 755 766 762
f 822 768 772
f 772 832 822
f 832 772 774
f 774 833 832
f 815 850 859
f 859 830 815
f 843 853 813
f 813 778 843
f 788 795 850
f 850 845 788
f 845 843 778
f 778 788 845
f 845 850 815
f 815 818 845
f 843 845 818
f 818 820 843
f 820 816 853
f 853 843 820
f 738 815 830
f 830 753 738
f 740 818 815
f 815 738 740
f 753 664 643
f 643 738 753
f 738 643 650
f 650 740 738
f 664 559 552
f 552 643 664
f 643 552 545
f 545 650 643
f 559 498 488
f 488 552 559
f 552 488 478
f 478 545 552
f 740 743 820
f 820 818 740
f 650 646 743
f 743 740 650
f 743 741 816
f 816 820 743
f 646 641 741
f 741 743 646
f 463 533 543
f 543 471 463
f 533 641 646
f 646 543 533
f 543 545 478
f 478 471 543
f 545 543 646
f 646 650 545
f 415 488 498
f 498 445 415
f 408 478 488
f 488 415 408
f 445 379 377
f 377 415 445
f 415 377 362
f 362 408 415
f 379 326 332
f 332 377 379
f 377 332 322
f 322 362 377
f 326 270 275
f 275 332 326
f 332 275 266
f 266 322 332
f 270 107 117
f 117 275 270
f 275 117 109
f 109 266 275
f 404 463 471
f 471 406 404
f 404 406 358
f 358 356 404
f 406 471 478
f 478 408 406
f 406 408 362
f 362 358 406
f 96 261 263
f 263 98 96
f 261 314 320
f 320 263 261
f 314 356 358
f 358 320 314
f 263 266 109
f 109 98 263
f 266 263 320
f 320 322 266
f 322 320 358
f 358 362 322
f 41 117 107
f 107 34 41
f 39 109 117
f 117 41 39
f 34 4 13
f 13 41 34
f 41 13 15
f 15 39 41
f 4 30 62
f 62 13 4
f 13 62 72
f 72 15 13
f 62 30 86
f 86 80 62
f 62 80 90
f 90 72 62
f 80 86 113
f 113 115 80
f 35 96 98
f 98 37 35
f 35 37 21
f 21 22 35
f 37 98 109
f 109 39 37
f 37 39 15
f 15 21 37
f 78 77 94
f 94 99 78
f 77 72 90
f 90 94 77
f 72 77 21
f 21 15 72
f 77 78 22
f 22 21 77
f 6 3 33
f 33 48 6
f 52 29 3
f 3 6 52
f 8 60 52
f 52 6 8
f 82 85 29
f 29 52 82
f 60 88 82
f 82 52 60
f 131 112 85
f 85 82 131
f 75 74 10
f 10 11 75
f 74 60 8
f 8 10 74
f 60 74 92
f 92 88 60
f 74 75 95
f 95 92 74
f 137 123 128
f 128 135 137
f 135 128 120
f 120 140 135
f 140 120 112
f 112 131 140
f 131 82 88
f 88 154 131
f 154 88 92
f 92 164 154
f 164 92 95
f 95 167 164
f 188 135 140
f 140 184 188
f 184 140 131
f 131 154 184
f 194 184 154
f 154 164 194
f 197 194 164
f 164 167 197
f 133 129 123
f 123 137 133
f 125 121 129
f 129 133 125
f 115 113 121
f 121 125 115
f 192 133 137
f 137 190 192
f 190 137 135
f 135 188 190
f 152 90 80
f 80 115 152
f 152 115 125
f 125 186 152
f 186 125 133
f 133 192 186
f 166 94 90
f 90 152 166
f 166 152 186
f 186 196 166
f 196 186 192
f 192 202 196
f 99 94 166
f 166 170 99
f 170 166 196
f 196 198 170
f 198 196 202
f 202 224 198
f 232 227 242
f 237 232 242
f 242 244 237
f 260 264 228
f 228 230 260
f 230 235 260
f 240 242 227
f 227 233 240
f 240 264 260
f 260 250 240
f 250 244 242
f 242 240 250
f 239 237 244
f 244 250 239
f 250 260 235
f 235 239 250
f 230 228 220
f 220 216 230
f 216 220 217
f 204 217 224
f 224 202 204
f 204 212 214
f 214 212 235
f 235 230 214
f 230 216 214
f 200 219 210
f 210 219 232
f 225 223 222
f 222 223 233
f 233 227 222
f 227 232 219
f 219 222 227
f 200 188 184
f 184 194 200
f 194 197 225
f 225 200 194
f 200 225 222
f 222 219 200
f 200 210 206
f 206 210 232
f 232 237 206
f 206 237 239
f 204 190 188
f 188 200 204
f 202 192 190
f 190 204 202
f 214 216 217
f 217 204 214
f 204 200 206
f 206 208 204
f 208 212 204
f 208 206 239
f 235 212 208
f 239 235 208
f 46 11 10
f 10 50 46
f 54 8 6
f 6 48 54
f 50 10 8
f 8 54 50
f 48 33 106
f 106 146 48
f 146 106 269
f 269 279 146
f 144 54 48
f 48 146 144
f 142 138 46
f 46 50 142
f 142 50 54
f 54 144 142
f 144 146 279
f 279 277 144
f 273 142 144
f 144 277 273
f 271 138 142
f 142 273 271
f 797 855 858
f 858 825 797
f 797 825 748
f 748 720 797
f 674 720 748
f 748 679 674
f 618 621 609
f 609 606 618
f 618 674 679
f 679 621 618
f 532 606 589
f 589 515 532
f 520 532 515
f 515 467 520
f 467 461 516
f 516 520 467
f 604 618 606
f 606 532 604
f 568 520 516
f 516 560 568
f 568 604 532
f 532 520 568
f 670 674 618
f 618 604 670
f 660 568 560
f 560 639 660
f 660 670 604
f 604 568 660
f 716 720 674
f 674 670 716
f 713 660 639
f 639 711 713
f 716 670 660
f 660 713 716
f 793 797 720
f 720 716 793
f 790 713 711
f 711 791 790
f 790 793 716
f 716 713 790
f 852 855 797
f 797 793 852
f 829 858 855
f 855 807 829
f 752 829 807
f 807 734 752
f 663 752 734
f 734 654 663
f 558 663 654
f 654 555 558
f 500 558 555
f 555 492 500
f 427 500 492
f 492 417 427
f 387 427 417
f 417 381 387
f 372 381 417
f 417 410 372
f 374 375 335
f 335 330 374
f 374 372 410
f 410 412 374
f 413 375 374
f 374 412 413
f 476 492 555
f 555 550 476
f 410 417 492
f 492 476 410
f 473 474 413
f 413 412 473
f 473 412 410
f 410 476 473
f 550 555 654
f 654 652 550
f 473 476 550
f 550 548 473
f 546 474 473
f 473 548 546
f 652 654 734
f 734 736 652
f 548 550 652
f 652 648 548
f 644 546 548
f 548 648 644
f 714 644 648
f 648 718 714
f 648 652 736
f 736 718 648
f 807 855 852
f 852 812 807
f 736 734 807
f 807 812 736
f 808 714 718
f 718 810 808
f 848 852 793
f 793 790 848
f 810 812 852
f 852 848 810
f 848 790 791
f 791 846 848
f 848 846 808
f 808 810 848
f 810 718 736
f 736 812 810
f 325 387 381
f 381 334 325
f 334 381 372
f 372 328 334
f 279 269 325
f 325 334 279
f 328 277 279
f 279 334 328
f 273 277 328
f 328 330 273
f 330 328 372
f 372 374 330
f 271 273 330
f 330 335 271
f 351 303 295
f 295 254 248
f 248 258 299
f 295 248 299
f 299 307 355
f 355 403 439
f 299 355 439
f 439 459 528
f 528 584 630
f 439 528 630
f 299 439 630
f 630 690 694
f 694 686 626
f 630 694 626
f 626 580 524
f 524 455 435
f 626 524 435
f 630 626 435
f 299 630 435
f 295 299 435
f 351 295 435
f 399 351 435
f 454 523 579
f 579 625 685
f 685 693 689
f 579 685 689
f 689 629 583
f 583 527 458
f 689 583 458
f 458 438 402
f 402 354 306
f 458 402 306
f 689 458 306
f 306 298 257
f 257 247 253
f 306 257 253
f 253 294 302
f 302 350 398
f 253 302 398
f 306 253 398
f 689 306 398
f 579 689 398
f 454 579 398
f 434 454 398
f 396 388 428
f 428 432 396
f 432 428 479
f 479 452 432
f 452 479 534
f 534 521 452
f 521 534 631
f 631 577 521
f 577 631 703
f 703 623 577
f 464 460 462
f 462 468 464
f 509 464 468
f 468 512 509
f 593 591 587
f 587 599 593
f 591 509 512
f 512 587 591
f 599 571 575
f 575 593 599
f 571 505 489
f 489 575 571
f 723 703 631
f 631 665 723
f 607 599 587
f 587 585 607
f 493 595 534
f 534 479 493
f 595 493 505
f 505 571 595
f 665 613 619
f 619 677 665
f 607 595 571
f 571 599 607
f 607 619 613
f 613 595 607
f 613 665 631
f 631 534 613
f 595 613 534
f 723 665 677
f 677 746 723
f 779 834 691
f 691 683 779
f 703 779 683
f 683 623 703
f 798 779 703
f 703 723 798
f 838 798 823
f 823 856 838
f 798 723 746
f 746 823 798
f 448 493 479
f 479 428 448
f 340 388 396
f 396 348 340
f 155 284 300
f 300 292 155
f 284 340 348
f 348 300 284
f 388 365 448
f 448 428 388
f 340 315 365
f 365 388 340
f 448 418 505
f 505 493 448
f 418 446 489
f 489 505 418
f 418 369 359
f 359 446 418
f 369 418 448
f 448 365 369
f 369 310 308
f 308 359 369
f 310 369 365
f 365 315 310
f 310 175 168
f 168 308 310
f 310 315 179
f 179 175 310
f 340 284 179
f 179 315 340
f 284 171 179
f 110 118 179
f 179 171 110
f 63 155 292
f 292 251 63
f 100 171 284
f 284 155 100
f 100 83 110
f 110 171 100
f 100 55 27
f 27 83 100
f 55 100 155
f 155 63 55
f 23 63 251
f 251 245 23
f 159 67 255
f 255 296 159
f 67 23 245
f 245 255 67
f 16 1 27
f 27 55 16
f 23 16 55
f 55 63 23
f 42 16 23
f 23 67 42
f 16 42 31
f 31 1 16
f 834 783 687
f 687 691 834
f 838 834 779
f 779 798 838
f 838 802 783
f 783 834 838
f 783 707 627
f 627 687 783
f 802 838 856
f 856 827 802
f 802 729 707
f 707 783 802
f 707 635 581
f 581 627 707
f 729 802 827
f 827 750 729
f 729 655 635
f 635 707 729
f 635 538 525
f 525 581 635
f 655 729 750
f 750 661 655
f 655 561 538
f 538 635 655
f 538 483 456
f 456 525 538
f 561 655 661
f 661 556 561
f 561 501 483
f 483 538 561
f 483 440 436
f 436 456 483
f 501 561 556
f 556 497 501
f 501 424 440
f 440 483 501
f 440 392 400
f 400 436 440
f 424 501 497
f 497 444 424
f 424 382 392
f 392 440 424
f 382 424 444
f 444 378 382
f 392 344 352
f 352 400 392
f 323 336 382
f 382 378 323
f 344 288 304
f 304 352 344
f 288 159 296
f 296 304 288
f 336 344 392
f 392 382 336
f 336 280 288
f 288 344 336
f 147 280 267
f 267 104 147
f 42 147 104
f 104 31 42
f 280 147 159
f 159 288 280
f 147 42 67
f 67 159 147
f 280 336 323
f 323 267 280
f 126 175 179
f 179 118 126
f 122 168 175
f 175 126 122
f 397 433 429
f 429 389 397
f 433 453 480
f 480 429 433
f 453 522 535
f 535 480 453
f 522 578 632
f 632 535 522
f 578 624 704
f 704 632 578
f 464 466 461
f 461 460 464
f 509 514 466
f 466 464 509
f 593 600 588
f 588 591 593
f 591 588 514
f 514 509 591
f 600 593 575
f 575 572 600
f 572 575 489
f 489 506 572
f 724 666 632
f 632 704 724
f 608 605 588
f 588 600 608
f 494 480 535
f 535 596 494
f 596 572 506
f 506 494 596
f 666 678 620
f 620 614 666
f 608 600 572
f 572 596 608
f 608 596 614
f 614 620 608
f 614 535 632
f 632 666 614
f 596 535 614
f 724 747 678
f 678 666 724
f 780 684 692
f 692 835 780
f 704 624 684
f 684 780 704
f 799 724 704
f 704 780 799
f 839 857 824
f 824 799 839
f 799 824 747
f 747 724 799
f 449 429 480
f 480 494 449
f 341 349 397
f 397 389 341
f 156 293 301
f 301 285 156
f 285 301 349
f 349 341 285
f 389 429 449
f 449 366 389
f 341 389 366
f 366 316 341
f 449 494 506
f 506 419 449
f 419 506 489
f 489 446 419
f 419 446 359
f 359 363 419
f 363 366 449
f 449 419 363
f 363 359 308
f 308 311 363
f 311 316 366
f 366 363 311
f 341 316 180
f 180 285 341
f 311 308 168
f 168 176 311
f 180 316 311
f 311 176 180
f 285 180 172
f 111 172 180
f 180 119 111
f 64 252 293
f 293 156 64
f 101 156 285
f 285 172 101
f 101 172 111
f 111 84 101
f 101 84 28
f 28 56 101
f 56 64 156
f 156 101 56
f 24 246 252
f 252 64 24
f 160 297 256
f 256 68 160
f 68 256 246
f 246 24 68
f 17 56 28
f 28 2 17
f 24 64 56
f 56 17 24
f 43 68 24
f 24 17 43
f 17 2 32
f 32 43 17
f 835 692 688
f 688 784 835
f 839 799 780
f 780 835 839
f 839 835 784
f 784 803 839
f 784 688 628
f 628 708 784
f 803 828 857
f 857 839 803
f 803 784 708
f 708 730 803
f 708 628 582
f 582 636 708
f 730 751 828
f 828 803 730
f 730 708 636
f 636 656 730
f 636 582 526
f 526 539 636
f 656 662 751
f 751 730 656
f 656 636 539
f 539 562 656
f 539 526 457
f 457 484 539
f 562 557 662
f 662 656 562
f 562 539 484
f 484 503 562
f 484 457 437
f 437 441 484
f 503 499 557
f 557 562 503
f 503 484 441
f 441 422 503
f 441 437 401
f 401 393 441
f 422 426 499
f 499 503 422
f 422 441 393
f 393 384 422
f 384 386 426
f 426 422 384
f 393 401 353
f 353 345 393
f 324 386 384
f 384 337 324
f 345 353 305
f 305 289 345
f 289 305 297
f 297 160 289
f 337 384 393
f 393 345 337
f 337 345 289
f 289 281 337
f 148 105 268
f 268 281 148
f 43 32 105
f 105 148 43
f 281 289 160
f 160 148 281
f 148 160 68
f 68 43 148
f 281 268 324
f 324 337 281
f 127 119 180
f 180 176 127
f 122 127 176
f 176 168 122
f 611 619 607
f 607 585 611
f 611 675 677
f 677 619 611
f 512 529 585
f 585 587 512
f 468 517 529
f 529 512 468
f 511 517 468
f 468 462 511
f 565 517 511
f 511 553 565
f 529 569 611
f 611 585 529
f 569 529 517
f 517 565 569
f 823 794 849
f 849 856 823
f 746 721 794
f 794 823 746
f 675 721 746
f 746 677 675
f 569 671 675
f 675 611 569
f 727 787 794
f 794 721 727
f 671 727 721
f 721 675 671
f 681 744 727
f 727 671 681
f 565 681 671
f 671 569 565
f 681 565 553
f 553 640 681
f 744 777 787
f 787 727 744
f 777 769 773
f 773 813 777
f 763 777 744
f 744 756 763
f 777 763 769
f 681 699 756
f 756 744 681
f 681 696 699
f 696 681 640
f 640 695 696
f 699 754 759
f 759 756 699
f 767 763 756
f 756 759 767
f 771 769 763
f 763 767 771
f 769 771 774
f 774 773 769
f 696 701 754
f 754 699 696
f 698 701 696
f 696 695 698
f 765 775 759
f 759 754 765
f 775 821 767
f 767 759 775
f 758 761 701
f 701 698 758
f 761 765 754
f 754 701 761
f 821 831 771
f 771 767 821
f 831 833 774
f 774 771 831
f 814 827 856
f 856 849 814
f 842 777 813
f 813 853 842
f 787 844 849
f 849 794 787
f 844 787 777
f 777 842 844
f 844 817 814
f 814 849 844
f 842 819 817
f 817 844 842
f 819 842 853
f 853 816 819
f 737 750 827
f 827 814 737
f 739 737 814
f 814 817 739
f 750 737 642
f 642 661 750
f 737 739 649
f 649 642 737
f 661 642 551
f 551 556 661
f 642 649 544
f 544 551 642
f 556 551 487
f 487 497 556
f 551 544 477
f 477 487 551
f 739 817 819
f 819 742 739
f 649 739 742
f 742 645 649
f 742 819 816
f 816 741 742
f 645 742 741
f 741 641 645
f 463 470 542
f 542 533 463
f 533 542 645
f 645 641 533
f 542 470 477
f 477 544 542
f 544 649 645
f 645 542 544
f 414 444 497
f 497 487 414
f 407 414 487
f 487 477 407
f 444 414 376
f 376 378 444
f 414 407 361
f 361 376 414
f 378 376 331
f 331 323 378
f 376 361 321
f 321 331 376
f 323 331 274
f 274 267 323
f 331 321 265
f 265 274 331
f 267 274 116
f 116 104 267
f 274 265 108
f 108 116 274
f 404 405 470
f 470 463 404
f 404 356 357
f 357 405 404
f 405 407 477
f 477 470 405
f 405 357 361
f 361 407 405
f 96 97 262
f 262 261 96
f 261 262 319
f 319 314 261
f 314 319 357
f 357 356 314
f 262 97 108
f 108 265 262
f 265 321 319
f 319 262 265
f 321 361 357
f 357 319 321
f 40 31 104
f 104 116 40
f 38 40 116
f 116 108 38
f 31 40 12
f 12 1 31
f 40 38 14
f 14 12 40
f 1 12 61
f 61 27 1
f 12 14 71
f 71 61 12
f 61 79 83
f 83 27 61
f 61 71 89
f 89 79 61
f 79 114 110
f 110 83 79
f 35 36 97
f 97 96 35
f 35 22 20
f 20 36 35
f 36 38 108
f 108 97 36
f 36 20 14
f 14 38 36
f 78 99 93
f 93 76 78
f 76 93 89
f 89 71 76
f 71 14 20
f 20 76 71
f 76 20 22
f 22 78 76
f 5 47 32
f 32 2 5
f 51 5 2
f 2 28 51
f 7 5 51
f 51 59 7
f 81 51 28
f 28 84 81
f 59 51 81
f 81 87 59
f 130 81 84
f 84 111 130
f 75 11 9
f 9 73 75
f 73 9 7
f 7 59 73
f 59 87 91
f 91 73 59
f 73 91 95
f 95 75 73
f 136 134 127
f 127 122 136
f 134 139 119
f 119 127 134
f 139 130 111
f 111 119 139
f 130 153 87
f 87 81 130
f 153 163 91
f 91 87 153
f 163 167 95
f 95 91 163
f 187 183 139
f 139 134 187
f 183 153 130
f 130 139 183
f 193 163 153
f 153 183 193
f 197 167 163
f 163 193 197
f 132 136 122
f 122 126 132
f 124 132 126
f 126 118 124
f 114 124 118
f 118 110 114
f 191 189 136
f 136 132 191
f 189 187 134
f 134 136 189
f 151 114 79
f 79 89 151
f 151 185 124
f 124 114 151
f 185 191 132
f 132 124 185
f 165 151 89
f 89 93 165
f 165 195 185
f 185 151 165
f 195 201 191
f 191 185 195
f 99 170 165
f 165 93 99
f 170 198 195
f 195 165 170
f 198 224 201
f 201 195 198
f 231 241 226
f 236 243 241
f 241 231 236
f 259 229 228
f 228 264 259
f 229 259 234
f 240 233 226
f 226 241 240
f 240 249 259
f 259 264 240
f 249 240 241
f 241 243 249
f 238 249 243
f 243 236 238
f 249 238 234
f 234 259 249
f 229 215 220
f 220 228 229
f 215 217 220
f 203 201 224
f 224 217 203
f 203 213 211
f 213 229 234
f 234 211 213
f 229 213 215
f 199 209 218
f 209 231 218
f 225 221 223
f 221 226 233
f 233 223 221
f 226 221 218
f 218 231 226
f 199 193 183
f 183 187 199
f 193 199 225
f 225 197 193
f 199 218 221
f 221 225 199
f 199 205 209
f 205 236 231
f 231 209 205
f 205 238 236
f 203 199 187
f 187 189 203
f 201 203 189
f 189 191 201
f 213 203 217
f 217 215 213
f 203 207 205
f 205 199 203
f 207 203 211
f 207 238 205
f 234 207 211
f 238 207 234
f 46 49 9
f 9 11 46
f 53 47 5
f 5 7 53
f 49 53 7
f 7 9 49
f 47 145 105
f 105 32 47
f 145 278 268
f 268 105 145
f 143 145 47
f 47 53 143
f 141 49 46
f 46 138 141
f 141 143 53
f 53 49 141
f 143 276 278
f 278 145 143
f 272 276 143
f 143 141 272
f 271 272 141
f 141 138 271
f 796 824 857
f 857 854 796
f 796 719 747
f 747 824 796
f 673 678 747
f 747 719 673
f 617 605 608
f 608 620 617
f 617 620 678
f 678 673 617
f 531 514 588
f 588 605 531
f 519 466 514
f 514 531 519
f 466 519 516
f 516 461 466
f 603 531 605
f 605 617 603
f 567 560 516
f 516 519 567
f 567 519 531
f 531 603 567
f 669 603 617
f 617 673 669
f 659 639 560
f 560 567 659
f 659 567 603
f 603 669 659
f 715 669 673
f 673 719 715
f 712 711 639
f 639 659 712
f 715 712 659
f 659 669 715
f 792 715 719
f 719 796 792
f 789 791 711
f 711 712 789
f 789 712 715
f 715 792 789
f 851 792 796
f 796 854 851
f 828 806 854
f 854 857 828
f 751 733 806
f 806 828 751
f 662 653 733
f 733 751 662
f 557 554 653
f 653 662 557
f 499 491 554
f 554 557 499
f 426 416 491
f 491 499 426
f 386 380 416
f 416 426 386
f 371 409 416
f 416 380 371
f 373 329 335
f 335 375 373
f 373 411 409
f 409 371 373
f 413 411 373
f 373 375 413
f 475 549 554
f 554 491 475
f 409 475 491
f 491 416 409
f 472 411 413
f 413 474 472
f 472 475 409
f 409 411 472
f 549 651 653
f 653 554 549
f 472 547 549
f 549 475 472
f 546 547 472
f 472 474 546
f 651 735 733
f 733 653 651
f 547 647 651
f 651 549 547
f 644 647 547
f 547 546 644
f 714 717 647
f 647 644 714
f 647 717 735
f 735 651 647
f 806 811 851
f 851 854 806
f 735 811 806
f 806 733 735
f 808 809 717
f 717 714 808
f 847 789 792
f 792 851 847
f 809 847 851
f 851 811 809
f 847 846 791
f 791 789 847
f 847 809 808
f 808 846 847
f 809 811 735
f 735 717 809
f 324 333 380
f 380 386 324
f 333 327 371
f 371 380 333
f 278 333 324
f 324 268 278
f 327 333 278
f 278 276 327
f 272 329 327
f 327 276 272
f 329 373 371
f 371 327 329
f 271 335 329
f 329 272 271
f 432 452 521
f 521 577 623
f 432 521 623
f 623 683 691
f 691 687 627
f 623 691 627
f 432 623 627
f 627 581 525
f 525 456 436
f 627 525 436
f 436 400 352
f 352 304 296
f 436 352 296
f 627 436 296
f 432 627 296
f 296 255 245
f 245 251 292
f 296 245 292
f 432 296 292
f 292 300 348
f 432 292 348
f 396 432 348
f 397 349 301
f 301 293 252
f 397 301 252
f 252 246 256
f 256 297 305
f 252 256 305
f 397 252 305
f 305 353 401
f 401 437 457
f 305 401 457
f 457 526 582
f 582 628 688
f 457 582 688
f 305 457 688
f 397 305 688
f 688 692 684
f 684 624 578
f 688 684 578
f 397 688 578
f 578 522 453
f 397 578 453
f 433 397 453
