v -0.06933641434 -0.09056737274 0.3795328438
v -0.06933641434 0.09056734294 0.3795328438
v -0.06869062781 -0.1043319851 0.3795531392
v -0.06869062781 0.1043319553 0.3795531392
v -0.06861966848 -0.09081944823 0.008909340948
v -0.06861966848 0.09081944823 0.008909348398
v -0.06803536415 -0.1043759584 0.008585120551
v -0.06803536415 0.1043759584 0.008585129865
v -0.0676022172 -0.0905521512 0.03044788167
v -0.0676022172 0.0905521512 0.03044788912
v -0.06692570448 -0.1048750877 0.03049601242
v -0.06692570448 0.1048750877 0.03049601987
v -0.06619477272 -0.09055612236 0.3581440449
v -0.06619477272 0.09055609256 0.3581440449
v -0.06580494344 -0.08868732303 0.06253995746
v -0.06580494344 0.08868732303 0.06253997236
v -0.0658044368 -0.04449379072 0.06254842877
v -0.0658044368 0.04449378327 0.06254842877
v -0.06580431759 -2.734157123e-09 0.06255022436
v -0.06565919518 -0.09067179263 -0.02179700509
v -0.06565919518 0.09067179263 -0.02179699764
v -0.06564331055 -0.09058281779 0.4022029042
v -0.06564331055 0.09058278799 0.4022029042
v -0.06560255587 -0.1043953151 0.3582523763
v -0.06560255587 0.1043952852 0.3582523763
v -0.06536793709 -0.09055286646 0.06884960085
v -0.06536793709 0.09055286646 0.06884961575
v -0.06531186402 -0.08929891884 0.06252855808
v -0.06530477107 0.08919999748 0.06252814084
v -0.06519900262 -2.64940514e-09 0.06061132252
v -0.06516093016 -0.04454133287 0.07287895679
v -0.06516093016 0.04454132542 0.07287895679
v -0.06516090035 -3.18714477e-09 0.07291337103
v -0.0651017651 -0.04450360313 0.06044470891
v -0.0651017651 0.04450359568 0.06044471636
v -0.06508213282 -0.05581095442 0.07399659604
v -0.0650748238 0.05581145734 0.07399486005
v -0.06506623328 -0.08868187666 0.06038381532
v -0.06506623328 0.08868187666 0.06038382277
v -0.06499482691 -0.1044078022 0.4022176862
v -0.06499482691 0.1044077724 0.4022176862
v -0.06484764814 -0.06428644806 0.07818777114
v -0.06484764814 0.06428644806 0.07818777114
v -0.06469231844 -0.1045585275 -0.0219819136
v -0.06469231844 0.1045585275 -0.02198190615
v -0.06468603015 -0.08929999918 0.06070682779
v -0.06468603015 0.08919999748 0.06070683524
v -0.06463551521 -0.1048139334 0.06845251471
v -0.06463551521 0.1048139334 0.06845252961
v -0.06448882818 -0.06922271103 0.08405542374
v -0.06448882818 0.06922271103 0.08405542374
v -0.06427694857 -0.09056738019 0.3794932663
v -0.06427694857 -0.09056733549 0.3794932663
v -0.06427694857 0.09056726098 0.3794932663
v -0.06427694857 0.09056730568 0.3794932663
v -0.06397593021 -0.07164427638 0.09243778139
v -0.06397593021 0.07164426148 0.09243778139
v -0.06382244825 -0.04419999197 0.07719329745
v -0.063822411 0.04419998452 0.07719329
v -0.06379389763 -3.395768999e-09 0.07768613845
v -0.06372570992 0.05454919115 0.0784766376
v -0.06371676922 -0.05454965308 0.07847468555
v -0.06360830367 -0.09081939608 0.009031911381
v -0.06360830367 -0.09081939608 0.009031922556
v -0.06360830367 0.09081939608 0.009031930007
v -0.06360830367 0.09081939608 0.009031941183
v -0.0634906292 -0.06113739684 0.08215750754
v -0.0634906292 0.06113738939 0.08215750754
v -0.06343787909 -0.07186616212 0.1012352481
v -0.06343764067 0.07186614722 0.1012352332
v -0.06341112405 -0.08878090233 0.1016785949
v -0.06341112405 0.08878088742 0.1016786098
v -0.06335287541 0.06499318033 0.08636432886
v -0.06333327293 -0.0649978742 0.08636013418
v -0.06308047473 0.04392271116 0.08251867443
v -0.06307983398 -0.04392271861 0.08251863718
v -0.06307524443 -3.610902466e-09 0.08260782063
v -0.06302967668 0.05333041027 0.08334875107
v -0.06302917004 -0.05333040282 0.08334871382
v -0.06300961971 -0.08868478239 0.05936510861
v -0.06300961971 0.08868478239 0.05936511606
v -0.06298060715 -0.04449965432 0.0593601875
v -0.06298060715 0.04449964687 0.05936018378
v -0.06297702342 -0.08929999918 0.05988368019
v -0.06297702342 0.08919999748 0.05988369137
v -0.06297284365 -0.09063155204 0.1079723015
v -0.06297284365 0.09063153714 0.1079723164
v -0.06294403225 -2.594618298e-09 0.0593579486
v -0.06292279065 -0.08929779381 0.1016557515
v -0.06291167438 0.08919999003 0.1016550884
v -0.06288273633 0.05812646449 0.08574680239
v -0.06288200617 -0.05812646821 0.08574675769
v -0.06286446005 0.06676308066 0.09336114675
v -0.06283819675 -0.06677209586 0.09335847199
v -0.06268472224 0.06061672047 0.08897487074
v -0.06268471479 -0.06061673164 0.08897487819
v -0.0626090765 -0.0905521363 0.03018468805
v -0.0626090765 -0.09055212885 0.03018469922
v -0.0626090765 0.0905521214 0.03018471785
v -0.0626090765 0.09055212885 0.03018470667
v -0.06246370077 -0.06726947427 0.1010254174
v -0.06246370077 0.06726945937 0.1010254174
v -0.06237524748 -0.06190798432 0.09404764324
v -0.06237480789 0.06190798059 0.09404761344
v -0.06233352423 -0.1045785025 0.1081687286
v -0.06233352423 0.1045784876 0.1081687436
v -0.06199871376 -8.1053253e-09 0.100203529
v -0.06196331978 0.04419931024 0.1007835716
v -0.06196319312 -0.04419931397 0.1007835642
v -0.06196308136 0.05323166028 0.1007835716
v -0.06196272373 -0.05323167518 0.1007835567
v -0.06195765734 0.05803786218 0.1008664444
v -0.06195752695 -0.05803786963 0.100866437
v -0.06195734441 0.06190796942 0.1008728147
v -0.06195700169 -0.06190798432 0.1008728147
v -0.06148257852 -0.07160532475 0.1330718696
v -0.06148257852 0.07160530984 0.1330718696
v -0.06146953255 -0.08880072087 0.1334210634
v -0.06146953255 0.08880070597 0.1334210634
v -0.06127620488 -0.09055604041 0.3590637147
v -0.06127620488 -0.0905559957 0.3590637147
v -0.06127620488 0.0905559212 0.3590637147
v -0.06127620488 0.0905559659 0.3590637147
v -0.06104004383 -0.07127254456 0.1404467821
v -0.06104004383 0.07127252966 0.1404467821
v -0.06098888069 -0.08929680288 0.1333628595
v -0.06097241864 0.08919999003 0.1333618462
v -0.0608480759 -0.09058298171 0.4005413651
v -0.0608480759 -0.09058292955 0.4005413651
v -0.0608480759 0.0905828476 0.4005413651
v -0.0608480759 0.09058289975 0.4005413651
v -0.06079081818 -0.09067160636 -0.02019135095
v -0.06079081818 -0.09067160636 -0.02019133978
v -0.06079081818 0.09067160636 -0.02019133233
v -0.06079081818 0.09067160636 -0.02019132115
v -0.06070947647 -0.09055817872 0.145024091
v -0.06070947647 0.09055816382 0.145024091
v -0.06062465161 0.06849451363 0.1472347528
v -0.06062316895 -0.06849452853 0.1472346634
v -0.06051045656 -0.06685288996 0.1329820305
v -0.06050406024 0.06685473025 0.1329814643
v -0.06037681922 -0.09055285901 0.06855162233
v -0.06037681922 -0.09055285156 0.06855162978
v -0.06037681922 0.09055284411 0.06855165213
v -0.06037681922 0.09055285156 0.06855164468
v -0.06027248502 -0.06313658506 0.1529949903
v -0.06027213857 0.06313806027 0.1529999673
v -0.06015241146 -0.1044089869 0.1450490803
v -0.06015241146 0.104408972 0.1450490803
v -0.06002724171 -0.05478528142 0.1569990665
v -0.06002724171 0.05478526652 0.1569990665
v -0.06001025438 -0.0663600564 0.1391918212
v -0.06001025438 0.0663600415 0.1391918212
v -0.05999999493 0.06190797314 0.1328773648
v -0.05999994278 -0.06190798804 0.1328773648
v -0.05999663472 -0.05720922351 0.1329354346
v -0.05999660864 -0.05240301788 0.1329354346
v -0.05999660492 0.05240300298 0.1329354346
v -0.05999654531 0.05720920488 0.1329354346
v -0.05999471247 -6.885696457e-09 0.1575263739
v -0.05999165773 -0.04411644489 0.1330183148
v -0.05999165773 0.04411642998 0.1330183148
v -0.05998817459 0.04398880154 0.1576354802
v -0.05998817086 -0.04398881644 0.1576354802
v -0.05998136103 -5.821659599e-09 0.1331840456
v -0.05972784758 -0.06429012865 0.1448101997
v -0.05972784758 0.06429011375 0.1448101997
v -0.05968944728 0.06117011234 0.1379501224
v -0.05968940258 -0.06117013097 0.1379501224
v -0.05961716175 -0.08878249675 0.1637094617
v -0.05961716175 0.08878248185 0.1637094617
v -0.05941391364 0.05997109041 0.1424695104
v -0.05941361189 -0.05997110903 0.1424694955
v -0.05940365791 -0.06005169451 0.1491471976
v -0.05940365791 0.06005167961 0.1491471976
v -0.05936187506 -7.336958152e-09 0.1678500324
v -0.05936125293 0.04377312958 0.1678899825
v -0.05936124921 -0.04377314448 0.1678899676
v -0.05932049826 0.05166348442 0.1684797108
v -0.0593174696 -0.05166363716 0.1684789211
v -0.05922490358 -0.05797519535 0.1701186895
v -0.05922490358 0.05797518045 0.1701186895
v -0.05922278017 0.05701966211 0.1456054151
v -0.05922222137 -0.05701968074 0.1456053853
v -0.05919629335 -0.05344763398 0.1519071162
v -0.05919583887 0.05344763771 0.1519071609
v -0.05917865038 -6.646145412e-09 0.1520460844
v -0.05914568901 -0.1137136817 0.008198912255
v -0.05914568901 0.1137136817 0.008198921569
v -0.05911698192 -0.08930000663 0.1636722684
v -0.05911698192 0.08929999173 0.1636722684
v -0.05911558867 -0.05213138461 0.1473577917
v -0.05911546946 0.05213136971 0.1473577917
v -0.05911159515 -0.04389847443 0.1523835659
v -0.05911159515 0.04389845952 0.1523835659
v -0.05909946561 -6.451757795e-09 0.1475990117
v -0.0590839982 -0.04388653114 0.147865817
v -0.0590839982 0.04388651624 0.147865817
v -0.05907133967 -0.1130032539 0.02990321256
v -0.05907133967 0.1130032539 0.02990322374
v -0.05897074193 0.06329531968 0.1741986573
v -0.05895833671 -0.06329696625 0.1741960049
v -0.05865885317 -0.06747023761 0.1793047488
v -0.05865885317 0.06747022271 0.1793047488
v -0.05840903521 -0.09070465714 0.1825584769
v -0.05840903521 0.09070464224 0.1825584769
v -0.05836844444 -7.426226301e-09 0.1698922515
v -0.05831146613 0.043701116 0.1699839234
v -0.05831064284 -0.04370118678 0.1699825078
v -0.05829853192 0.06979272515 0.1852613389
v -0.05829414725 -0.06979225576 0.185259372
v -0.05827008188 0.051331833 0.1705259383
v -0.05826278031 -0.05133451894 0.1705137193
v -0.05819633231 0.05681513622 0.1722336262
v -0.05817812681 -0.05682799965 0.1722055227
v -0.05798216909 -0.09063154459 0.107667096
v -0.05798216909 -0.09063153714 0.1076671034
v -0.05798216909 0.09063151479 0.1076671258
v -0.05798216909 0.09063152224 0.1076671183
v -0.05794302374 0.06187891215 0.1757476777
v -0.05791390687 -0.07051537931 0.1914669573
v -0.05791390687 0.07051536441 0.1914669573
v -0.05791118741 -0.06191648543 0.1757111698
v -0.05788702145 -0.08878281713 0.1919967383
v -0.05788702145 0.08878280222 0.1919967383
v -0.05775740743 0.0656137988 0.1803024113
v -0.05771532655 -0.06563878804 0.1802856326
v -0.05758011341 -0.1049622372 0.1820302904
v -0.05758011341 0.1049622223 0.1820302904
v -0.05741008744 0.06771433353 0.1857814938
v -0.05738453567 -0.08930000663 0.1919508576
v -0.05738453567 0.08929999173 0.1919508576
v -0.05735303462 -0.06775168329 0.1857676059
v -0.05709011108 0.06839650869 0.1914484054
v -0.05704402924 -0.06842737645 0.1914453954
v -0.05645483732 -0.1129431427 0.06792040169
v -0.05645483732 0.1129431427 0.06792041659
v -0.05617980659 -0.04370234534 0.1707034707
v -0.05617965013 0.04370222986 0.170705989
v -0.05616724491 -7.459426854e-09 0.1706517935
v -0.0561336726 -0.05131974816 0.171236515
v -0.0561336726 0.05131973326 0.171236515
v -0.05601024628 -0.05660308525 0.1729106903
v -0.05600891262 0.0565845333 0.1729495227
v -0.05589497089 -0.090606004 0.2237205803
v -0.05589497089 0.0906059891 0.2237205803
v -0.0558379069 -0.06131970882 0.1761482358
v -0.0558379069 0.06131969392 0.1761482358
v -0.05575716868 0.0704954192 0.2267547995
v -0.05574140698 -0.08879674226 0.2270773351
v -0.05574140698 0.08879672736 0.2270773351
v -0.05573806167 -0.07049924135 0.2267535627
v -0.05571880937 -0.09055817872 0.1447187066
v -0.05571880937 -0.09055816382 0.1447187215
v -0.05571880937 0.09055813402 0.1447187364
v -0.05571880937 0.09055814892 0.1447187215
v -0.055540286 -0.06495214999 0.1807149053
v -0.055540286 0.06495213509 0.1807149053
v -0.05551706254 -0.113802433 -0.01847717725
v -0.05551706254 0.113802433 -0.01847716607
v -0.05535323918 -0.07145386934 0.2333164513
v -0.05535323918 0.07145385444 0.2333164513
v -0.05526445061 -0.08929593861 0.2270225734
v -0.05526445061 0.08929592371 0.2270225734
v -0.05521427095 -0.06689109653 0.1857321709
v -0.05521348119 0.06679858267 0.1857579201
v -0.05503676832 -0.07406764477 0.2385972589
v -0.05503674597 0.07406762987 0.2385989726
v -0.05498005077 0.06745162606 0.1912553757
v -0.05496151745 -0.06754723936 0.1912467182
v -0.0548630394 0.06837768108 0.2266807407
v -0.05484127998 -0.1052019671 0.2231253386
v -0.05484127998 0.1052019522 0.2231253386
v -0.05481697619 -0.06844682992 0.2266766131
v -0.05479386076 0.07682046294 0.2425663173
v -0.05479295552 -0.07682278752 0.2425818145
v -0.05455872044 0.08016096801 0.246191889
v -0.05455493927 -0.09059279412 0.3070160151
v -0.05455493927 0.09059276432 0.3070160151
v -0.05454608798 -0.08016263694 0.246189177
v -0.05446819961 0.06936147809 0.2337751687
v -0.05441635847 -0.1122911051 0.1080588475
v -0.05441635847 0.1122910902 0.1080588624
v -0.05440764874 -0.06940113753 0.2337601632
v -0.0544006452 -0.08442562073 0.2487443388
v -0.0544006452 0.08442560583 0.2487443388
v -0.05438615754 -0.08879572153 0.249202311
v -0.05438615754 0.08879570663 0.249202311
v -0.05410972238 0.07203296572 0.2395941615
v -0.05405763537 -0.07206261903 0.2395709306
v -0.0539521426 -0.09063857794 0.4233206511
v -0.0539521426 0.09063854814 0.4233206511
v -0.05389001593 -0.08929976076 0.2491662502
v -0.05388878286 0.08919999003 0.2491660416
v -0.05384831131 0.07517918944 0.2439144105
v -0.05381411314 -0.09063021839 0.2581602335
v -0.05381411314 0.09063018858 0.2581602335
v -0.05380350351 -0.07520252466 0.243891418
v -0.05371907353 -0.1046064347 0.3068120182
v -0.05371907353 0.1046064049 0.3068120182
v -0.05370733142 -0.1208446473 0.379945457
v -0.05370733142 0.1208446175 0.379945457
v -0.05368122458 -0.1043994576 0.4228966236
v -0.05368122458 0.1043994278 0.4228966236
v -0.05354830995 0.07879721373 0.2477133125
v -0.05352047831 -0.07882633805 0.2476773709
v -0.0534183681 -0.09070466459 0.1822531223
v -0.0534183681 -0.09070464224 0.1822531372
v -0.0534183681 0.09070460498 0.1822531521
v -0.0534183681 0.09070462734 0.1822531372
v -0.05333367735 -0.0887933597 0.2512488365
v -0.05333367735 0.0887933448 0.2512488365
v -0.05328796059 -0.0835545212 0.2506430745
v -0.05328796059 0.0835545063 0.2506430745
v -0.05311867595 -0.08929999918 0.2507643104
v -0.05311867595 0.08919999003 0.2507643104
v -0.05306997895 -3.600640452e-09 0.08237305284
v -0.05306306481 -0.04437984899 0.08249230683
v -0.05306306481 0.04437984154 0.08249230683
v -0.05306102335 -0.04470067099 0.05875399336
v -0.05306102335 0.04470066354 0.05875399709
v -0.05304350331 -2.568171453e-09 0.05875291675
v -0.05303478241 -0.05060529709 0.08295089006
v -0.05303478241 0.05060528964 0.08295089006
v -0.05301905423 -0.08869194239 0.05875142291
v -0.05301905423 0.08869194239 0.05875143036
v -0.0529832989 -0.08929999918 0.05926322937
v -0.0529832989 0.08929999918 0.05926323682
v -0.0529679358 0.0444287546 0.07704497874
v -0.05296771228 -0.04442876205 0.07704504579
v -0.05294650421 -0.05221603438 0.07771565765
v -0.05294525623 0.0522159934 0.07771578431
v -0.05292876437 -0.04457516596 0.06011827663
v -0.05292876065 0.04457516968 0.0601182878
v -0.05292816088 -2.62828137e-09 0.06012807041
v -0.05292738602 -0.087730214 0.06014080346
v -0.05292738602 0.087730214 0.06014081091
v -0.05291303992 -0.05662678555 0.08494715393
v -0.05291303992 0.0566267781 0.08494715393
v -0.05288657546 -3.379412306e-09 0.07731194049
v -0.05282861739 -0.08930002153 0.06198147684
v -0.05282861739 0.08930002153 0.06198148429
v -0.05280125141 -0.1049507409 0.2580465078
v -0.05280125141 0.1049507111 0.2580465078
v -0.05278962106 0.06751856208 0.2265749276
v -0.05277058482 -0.06761474907 0.2265719175
v -0.05276875198 -0.05966309085 0.08079747111
v -0.05276226997 0.05966253206 0.08079799265
v -0.05263546109 -0.06110170856 0.08946926892
v -0.05263546109 0.06110170111 0.08946926892
v -0.05240884051 -0.06477234513 0.08650068939
v -0.05239477754 0.06477030367 0.08650112897
v -0.05238342285 -0.09054792672 0.2882191837
v -0.05238342285 0.09054789692 0.2882191837
v -0.05236167461 0.06190743297 0.09395710379
v -0.05236159265 -0.0619074367 0.09395710379
v -0.05221243203 -0.06857345253 0.233810544
v -0.05221243203 0.06857343763 0.233810544
v -0.05217194557 -0.04451343417 0.07248960435
v -0.05217194557 0.04451342672 0.07248960435
v -0.05216217041 -3.182704766e-09 0.07281179726
v -0.05213804543 -0.05354965851 0.07304573804
v -0.05213804543 0.05354965106 0.07304573804
v -0.05204677582 -0.06655394286 0.09263515472
v -0.05202940106 0.06655088812 0.09263444692
v -0.0519797951 -4.61259253e-09 0.1001972705
v -0.05197149515 0.04441109672 0.100338608
v -0.05197145417 -0.04441106692 0.100338608
v -0.05195879936 0.0505742766 0.1005492657
v -0.05195865408 -0.05057425797 0.1005492508
v -0.05195361376 0.05659573525 0.1006355062
v -0.05195346847 -0.05659573898 0.1006355062
v -0.0519336015 -0.06229333207 0.07638147473
v -0.0519336015 0.06229332462 0.07638147473
v -0.05193255842 -0.06217870861 0.1009633467
v -0.05193166062 0.06217869371 0.1009632945
v -0.05184659362 -0.07131168991 0.2398373038
v -0.05184371769 0.07123994827 0.2398856729
v -0.0518013835 -0.112433739 0.1445908844
v -0.0518013835 0.1124337241 0.1445908844
v -0.05160199106 -0.1047375947 0.2879285812
v -0.05160199106 0.1047375649 0.2879285812
v -0.05152592435 -0.0668951124 0.1008785665
v -0.0515191257 -0.06859264523 0.08330473304
v -0.0515191257 0.06859264523 0.08330473304
v -0.05150640011 0.06689172238 0.1008773744
v -0.05148865283 -0.07458881289 0.2443542331
v -0.05148579553 0.07453165203 0.2444036454
v -0.05124887079 -0.08930000663 0.2514958978
v -0.05124887079 0.08919999003 0.2514958978
v -0.05121155083 0.08873434365 0.2519931793
v -0.05121151358 -0.0887356326 0.2519997954
v -0.05117894709 -0.07827578485 0.2481465042
v -0.05117565393 0.07823294401 0.2481966317
v -0.05104023218 -0.08336926252 0.2512778938
v -0.0510385111 0.08336052299 0.251306057
v -0.05103056133 -0.07136590779 0.09115086496
v -0.05103056133 0.07136589289 0.09115086496
v -0.05090416968 -0.0906060189 0.2234173864
v -0.05090416968 -0.0906059891 0.2234174013
v -0.05090416968 0.0906059444 0.2234174162
v -0.05090416968 0.0906059742 0.2234174013
v -0.05079203844 -0.1208401173 0.3976749778
v -0.05079203844 0.1208400875 0.3976749778
v -0.05062262341 -0.1209223419 0.3620507121
v -0.05062262341 0.1209223121 0.3620507121
v -0.05053378642 -0.08930001408 0.1005434021
v -0.05053378642 0.08929999918 0.100543417
v -0.05044244602 -0.08773959428 0.1007666439
v -0.05044244602 0.08773957938 0.1007666588
v -0.05044111609 -0.07172582299 0.1008204073
v -0.05043937638 0.07172580808 0.100820303
v -0.05001880229 -0.06205611676 0.1322667897
v -0.05001629516 0.06205600128 0.1322666407
v -0.05001385137 -0.04426698759 0.1323390007
v -0.0500125289 0.04427267984 0.1323454231
v -0.05001117289 -0.09063889086 0.4201160371
v -0.05001117289 -0.09063883871 0.4201160371
v -0.05001117289 0.09063875675 0.4201160371
v -0.05001117289 0.09063880891 0.4201160371
v -0.05001011118 -0.05650724843 0.1324087977
v -0.0500099659 0.05650851876 0.1324096173
v -0.05000589788 -5.00057904e-05 0.1324781328
v -0.05000531673 0.05028101802 0.1324976981
v -0.05000448599 -0.05028103292 0.1324976385
v -0.04985724017 -0.09082135558 -0.04809618369
v -0.04985724017 0.09082135558 -0.04809617624
v -0.04963777959 -0.0616290234 0.1384895295
v -0.04963777959 0.0616290085 0.1384895295
v -0.04961922765 -0.09059271216 0.3078603745
v -0.04961922765 -0.09059267491 0.3078603745
v -0.04961922765 0.09059260786 0.3078603745
v -0.04961922765 0.09059264511 0.3078603745
v -0.04960613325 -0.06689352542 0.1322197914
v -0.04958382249 0.06688966602 0.1322184056
v -0.04936540127 -0.1124353483 0.1811853796
v -0.04936540127 0.1124353334 0.1811853796
v -0.04934887588 -0.05928347632 0.1432143301
v -0.04934824631 0.0592834577 0.1432142854
v -0.04919742048 -0.05678006262 0.1456822306
v -0.04919628054 0.05678004026 0.1456821561
v -0.04914012551 -0.06603004783 0.1401433498
v -0.04912480712 0.06602754444 0.1401415765
v -0.04907804728 -6.454137225e-09 0.1476534456
v -0.04907439649 -0.05051311478 0.1476726979
v -0.04907393456 0.05051309988 0.1476726681
v -0.04906364158 -0.04416256398 0.1478646845
v -0.04906356335 0.04416254908 0.1478646696
v -0.04890829325 -0.1043802127 -0.04787400737
v -0.04890829325 0.1043802127 -0.04787399992
v -0.04882128537 -0.09063023329 0.2578905821
v -0.04882128537 -0.09063020349 0.2578905821
v -0.04882128537 0.09063014388 0.2578905821
v -0.04882128537 0.09063017368 0.2578905821
v -0.04877688736 -0.06298091263 0.1461805254
v -0.04876294732 0.06297887862 0.1461783499
v -0.04855281115 -0.08929998428 0.1322049797
v -0.04855281115 0.08929996938 0.1322049797
v -0.04852481931 -0.05908017233 0.1497972906
v -0.04851025343 0.0590787828 0.1497941017
v -0.04850688577 -0.0718884021 0.1324068904
v -0.04850688577 0.0718883872 0.1324068904
v -0.04850383475 -0.0877366364 0.132460922
v -0.04850383475 0.0877366215 0.132460922
v -0.04835419357 -0.05119648576 0.1526011527
v -0.04835149646 0.05119639263 0.152600497
v -0.04833164811 0.0439535901 0.1529700011
v -0.04833154753 -0.043953605 0.1529699713
v -0.04825251549 -0.117441237 0.007231328171
v -0.04825251549 0.117441237 0.007231338415
v -0.04823458195 -6.678998687e-09 0.1527976841
v -0.04791629314 -0.07086295635 0.1420753896
v -0.04791629314 0.07086294144 0.1420753896
v -0.04748421907 -0.06674980372 0.1491611451
v -0.04748421907 0.06674978882 0.1491611451
v -0.0473697111 -0.09054789692 0.2883883417
v -0.0473697111 -0.09054786712 0.2883883417
v -0.0473697111 0.09054780751 0.2883883417
v -0.0473697111 0.09054783732 0.2883883417
v -0.04736712575 -0.1174623966 0.02913531847
v -0.04736712575 0.1174623966 0.02913532965
v -0.04717352986 -0.06178897247 0.1542088091
v -0.04717352986 0.06178895757 0.1542088091
v -0.04701319337 -6.865805702e-09 0.1570713222
v -0.04699394107 -0.05178137124 0.1571551561
v -0.04699394107 0.05178135633 0.1571551561
v -0.04697868228 -0.04374586046 0.1573949903
v -0.04697868228 0.04374584556 0.1573949903
v -0.04674859345 -0.08930001408 0.1624584496
v -0.04674859345 0.08929999918 0.1624584496
v -0.04665529355 -0.08773870766 0.1626850665
v -0.04665529355 0.08773869276 0.1626850665
v -0.04649400339 -0.1210000217 0.3802056611
v -0.04649400339 -0.120999977 0.3802056909
v -0.04649400339 0.1209999025 0.3802057207
v -0.04649400339 0.1209999472 0.3802056909
v -0.04639504105 -0.1172747612 -0.01544218324
v -0.04639504105 0.1172747612 -0.01544217207
v -0.04638767242 -0.1122663096 0.2224141061
v -0.04638767242 0.1122662947 0.2224141061
v -0.04631073773 -0.0001086536649 0.1700494736
v -0.04629074037 -7.371932398e-09 0.1686501503
v -0.04628908634 -0.04374405742 0.1686738282
v -0.04628908634 0.04374404252 0.1686738282
v -0.04625377432 -0.05122620612 0.169249028
v -0.04625377432 0.05122619122 0.169249028
v -0.0462118201 -0.04373692349 0.1701868474
v -0.0462118201 0.04373690858 0.1701868474
v -0.04618494585 -0.0508291088 0.1707044989
v -0.04618494585 0.0508290939 0.1707044989
v -0.04615320638 -0.05695431679 0.1708979011
v -0.04615320638 0.05695430189 0.1708979011
v -0.04609844089 -0.09082101285 -0.04464384541
v -0.04609844089 -0.0908210054 -0.04464385659
v -0.04609844089 0.09082101285 -0.04464383796
v -0.04609844089 0.09082102031 -0.04464382678
v -0.0460696891 -0.05626467988 0.1723494977
v -0.0460696891 0.05626466498 0.1723494977
v -0.04593927041 -0.06202181056 0.1743940413
v -0.04593927041 0.06202179566 0.1743940413
v -0.04589768499 -0.06107144058 0.1756073385
v -0.04589768499 0.06107142568 0.1756073385
v -0.0457008034 -0.06482133269 0.1802600622
v -0.0457008034 0.06482131779 0.1802600622
v -0.04563806951 -0.06599985808 0.1793210953
v -0.04563806951 0.06599984318 0.1793210953
v -0.04530870169 -0.06815018505 0.1847030669
v -0.04530870169 0.06815017015 0.1847030669
v -0.04528309032 -0.06681271642 0.185311079
v -0.04528309032 0.06681270152 0.185311079
v -0.04521621019 -0.1205003858 0.380178988
v -0.04521621019 0.1205002666 0.3801790476
v -0.0449963063 -0.06750836223 0.1908551604
v -0.04499581829 0.06740839034 0.1908615232
v -0.04498078674 -0.08930001408 0.1906761676
v -0.04498078674 0.08929999918 0.1906761676
v -0.04494371638 -0.06888342649 0.1906712055
v -0.04494371638 0.06888341159 0.1906712055
v -0.04494215548 -0.08774305135 0.1906974018
v -0.04494215548 0.08774303645 0.1906974018
v -0.04429968446 -0.1210000589 0.3945611119
v -0.04429968446 -0.1210000068 0.3945611417
v -0.04429968446 0.1209999248 0.3945611715
v -0.04429968446 0.120999977 0.3945611417
v -0.04417616129 -0.1174986362 0.06736228615
v -0.04417616129 0.1174986362 0.06736230105
v -0.04400389642 -0.1210000664 0.3633769453
v -0.04400389642 -0.1210000217 0.3633769751
v -0.04400389642 0.1209999472 0.3633770049
v -0.04400389642 0.1209999919 0.3633769751
v -0.04398530722 -0.1117485911 0.2573336363
v -0.04398530722 0.1117485613 0.2573336363
v -0.04338505492 -0.1210001111 0.380238682
v -0.04338505492 -0.1210000664 0.3802387118
v -0.04338505492 0.1209999919 0.3802387416
v -0.04338505492 0.1210000366 0.3802387118
v -0.04290715978 -0.1205001548 0.393984586
v -0.04290715978 0.1205000207 0.3939846456
v -0.04285480455 -0.06767319143 0.2251865268
v -0.04285480455 0.06767317653 0.2251865268
v -0.04284124821 -0.08930001408 0.2258623093
v -0.04284124821 0.08929999918 0.2258623093
v -0.04283694923 -0.06900589913 0.2251214683
v -0.04283694923 0.06900588423 0.2251214683
v -0.04279530048 -0.08772291243 0.2257993221
v -0.04279530048 0.08772289753 0.2257993221
v -0.04278884828 -0.1204999089 0.3635608852
v -0.04278884828 0.1204997897 0.3635609448
v -0.04266433418 -0.1134607792 -0.04075166956
v -0.04266433418 0.1134607792 -0.04075166211
v -0.04241609201 -0.06852167845 0.2328198403
v -0.04241609201 0.06852166355 0.2328198403
v -0.04239140823 -0.0697696656 0.2324003726
v -0.04239140823 0.0697696507 0.2324003726
v -0.04207262397 -0.1207825691 0.4135455489
v -0.04207262397 0.1207825392 0.4135455489
v -0.04203496128 -0.07231515646 0.2382313609
v -0.04203496128 0.07231514156 0.2382313609
v -0.04202379659 -0.07121376693 0.239004463
v -0.04202358425 -0.1175015047 0.1064944118
v -0.04202358425 0.1175014898 0.1064944267
v -0.04202031344 0.07113241404 0.2390432805
v -0.04176367819 -0.07547391951 0.2426629663
v -0.04176367819 0.07547390461 0.2426629663
v -0.04172754288 -0.0745016858 0.2435705066
v -0.04172754288 0.0745016709 0.2435705066
v -0.04153280333 -0.07915905863 0.2464338541
v -0.04153280333 0.07915904373 0.2464338541
v -0.04150044918 -0.07827923447 0.2473677099
v -0.04150044918 0.07827921957 0.2473677099
v -0.04143644869 -0.08930000663 0.2483190447
v -0.04143644869 0.08929999173 0.2483190447
v -0.0413550064 -0.08380248398 0.2493416369
v -0.0413550064 0.08380246907 0.2493416369
v -0.04134884849 -0.1210001186 0.3935349882
v -0.04134884849 -0.1210000664 0.393535018
v -0.04134884849 0.1209999844 0.3935350478
v -0.04134884849 0.1210000366 0.393535018
v -0.04131445289 -0.08770045638 0.2500123978
v -0.04131445289 0.08770044148 0.2500123978
v -0.04128972068 -0.08335167915 0.2505014539
v -0.04128972068 0.08335166425 0.2505014539
v -0.04125954211 -0.08929764479 0.2509028912
v -0.04125954211 0.08929762989 0.2509028912
v -0.04122993723 -0.08879942447 0.2513899207
v -0.04122993723 0.08879940957 0.2513899207
v -0.04084975272 -0.1210001111 0.3639705479
v -0.04084975272 -0.1210000664 0.3639705777
v -0.04084975272 0.1209999919 0.3639706075
v -0.04084975272 0.1210000366 0.3639705777
v -0.04006648064 -0.1140385717 0.28003335
v -0.04006648064 0.1140385419 0.28003335
v -0.03952291608 -0.117501922 0.1438384652
v -0.03952291608 0.1175019071 0.1438384652
v -0.03904824704 -0.1208756119 0.3101563454
v -0.03904824704 0.1208755821 0.3101563454
v -0.03810793161 -0.117495425 0.1798027754
v -0.03810793161 0.1174954101 0.1798027754
v -0.0366412513 -0.121000044 0.4083356857
v -0.0366412513 -0.1209999919 0.4083357155
v -0.0366412513 0.1209999099 0.4083357453
v -0.0366412513 0.1209999621 0.4083357155
v -0.03657236695 -0.1172723845 0.2159640938
v -0.03657236695 0.1172723696 0.2159640938
v -0.03571842611 -0.1204999164 0.4073350728
v -0.03571842611 0.1204997823 0.4073351324
v -0.03569836169 -0.1171545982 -0.03306897357
v -0.03569836169 0.1171545982 -0.03306896612
v -0.03486909717 -0.0905963704 0.4397560954
v -0.03486909717 0.0905963257 0.4397560954
v -0.03484541178 -0.1042648405 0.4390403628
v -0.03484541178 0.1042647958 0.4390403628
v -0.03473792598 -0.1210001186 0.4063249528
v -0.03473792598 -0.1210000664 0.4063249826
v -0.03473792598 0.1209999844 0.4063250124
v -0.03473792598 0.1210000366 0.4063249826
v -0.03468674421 -0.1170582846 0.2532480955
v -0.03468674421 0.1170582697 0.2532480955
v -0.03403955698 -0.1206849366 0.29153952
v -0.03403955698 0.1206849068 0.29153952
v -0.03228895366 -0.09059679508 0.4353794754
v -0.03228895366 -0.09059674293 0.4353794754
v -0.03228895366 0.09059664607 0.4353794754
v -0.03228895366 0.09059669822 0.4353794754
v -0.0320520103 -0.1210000739 0.3115172088
v -0.0320520103 -0.1210000366 0.3115172386
v -0.0320520103 0.1209999695 0.3115172684
v -0.0320520103 0.1210000068 0.3115172386
v -0.0309022218 -0.1179950088 0.2684063017
v -0.0309022218 0.117994979 0.2684063017
v -0.03070938773 -0.1204999015 0.3118236363
v -0.03070938773 0.1204997972 0.3118236959
v -0.02978691459 -0.09062509239 -0.06260690838
v -0.02978691459 0.09062509239 -0.06260689348
v -0.02962888777 -0.1038796902 -0.06194132939
v -0.02962888777 0.1038796902 -0.06194132194
v -0.02903782576 -0.121000044 0.3124223948
v -0.02903782576 -0.1210000068 0.3124224246
v -0.02903782576 0.1209999397 0.3124224544
v -0.02903782576 0.120999977 0.3124224246
v -0.02870480716 -0.1208138615 0.4254490137
v -0.02870480716 0.1208138317 0.4254490137
v -0.02765714936 -0.0906246528 -0.05797678605
v -0.02765714936 -0.09062464535 -0.05797679722
v -0.02765714936 0.0906246528 -0.0579767786
v -0.02765714936 0.09062466025 -0.05797676742
v -0.02703160048 -0.1210000664 0.293779701
v -0.02703160048 -0.1210000366 0.2937797308
v -0.02703160048 0.120999977 0.2937797606
v -0.02703160048 0.1210000068 0.2937797308
v -0.0257440526 -0.1210000589 0.4185683131
v -0.0257440526 -0.1210000068 0.4185683429
v -0.0257440526 0.1209999248 0.4185683727
v -0.0257440526 0.120999977 0.4185683429
v -0.02571121417 -0.1205001324 0.294557184
v -0.02571121417 0.120500043 0.2945572436
v -0.02519499697 -0.1205001548 0.4173774719
v -0.02519499697 0.1205000207 0.4173775315
v -0.02451346628 -0.1210001186 0.4157333672
v -0.02451346628 -0.1210000664 0.415733397
v -0.02451346628 0.1209999844 0.4157334268
v -0.02451346628 0.1210000366 0.415733397
v -0.02429291606 -0.1134086251 -0.05390280858
v -0.02429291606 0.1134086251 -0.05390280113
v -0.02407125756 -0.1208857149 0.2765914202
v -0.02407125756 0.1208856851 0.2765914202
v -0.02398500405 -0.1210003346 0.2952678502
v -0.02398500405 -0.1210003048 0.29526788
v -0.02398500405 0.1210002452 0.2952679098
v -0.02398500405 0.121000275 0.29526788
v -0.02361326292 -0.1173304394 0.006183477584
v -0.02361326292 0.1173304394 0.006183487829
v -0.02315523289 -0.1172197089 -0.01891048066
v -0.02315523289 0.1172197089 -0.01891046949
v -0.02253499255 -0.1174397767 0.0335528329
v -0.02253499255 0.1174397767 0.03355284035
v -0.02060534433 -0.1170422435 -0.04406451806
v -0.02060534433 0.1170422435 -0.04406451061
v -0.02048256435 -0.1175532863 0.06756768376
v -0.02048256435 0.1175532863 0.06756769866
v -0.01900707558 -0.1210000664 0.281227529
v -0.01900707558 -0.1210000366 0.2812275589
v -0.01900707558 0.120999977 0.2812275887
v -0.01900707558 0.1210000068 0.2812275589
v -0.01863702387 -0.1175599322 0.1043624952
v -0.01863702387 0.1175599173 0.1043625101
v -0.01821631379 -0.1178529337 0.2397009879
v -0.01821631379 0.1178529188 0.2397009879
v -0.01793628559 -0.1205001324 0.2826423645
v -0.01793628559 0.120500043 0.2826424241
v -0.01688904501 -0.1175729707 0.1419945061
v -0.01688904501 0.1175729558 0.1419945061
v -0.0165445935 -0.121000573 0.2836647332
v -0.0165445935 -0.1210005432 0.283664763
v -0.0165445935 0.1210004836 0.2836647928
v -0.0165445935 0.1210005134 0.283664763
v -0.01595472544 -0.1178386584 0.2104951292
v -0.01595472544 0.1178386435 0.2104951292
v -0.01547889598 -0.1177190021 0.1776690632
v -0.01547889598 0.1177189872 0.1776690632
v -0.01542259753 -0.1042311862 0.4464125335
v -0.01542259753 0.1042311415 0.4464125335
v -0.0153160831 -0.09077020735 0.4469905496
v -0.0153160831 0.09077016264 0.4469905496
v -0.01486226171 -0.1183123142 0.2568518817
v -0.01486226171 0.1183122844 0.2568518817
v -0.01424000133 -0.09077069908 0.4420574307
v -0.01424000133 -0.09077064693 0.4420574307
v -0.01424000133 0.09077055007 0.4420574307
v -0.01424000133 0.09077060223 0.4420574307
v -0.01175817847 -0.1208678409 0.4319570661
v -0.01175817847 0.1208677962 0.4319570661
v -0.01067024097 -0.1209680587 0.266222477
v -0.01067024097 0.1209680289 0.266222477
v -0.01035209 -0.1210000888 0.4248563051
v -0.01035209 -0.1210000366 0.4248563349
v -0.01035209 0.1209999546 0.4248563647
v -0.01035209 0.1210000068 0.4248563349
v -0.01000002213 -0.1205001548 0.4231827259
v -0.01000002213 0.1205000207 0.4231827855
v -0.009649364278 -0.1210001186 0.4216632545
v -0.009649364278 -0.1210000664 0.4216632843
v -0.009649364278 0.1209999844 0.4216633141
v -0.009649364278 0.1210000366 0.4216632843
v -0.007567446679 -0.1210000664 0.2721708715
v -0.007567446679 -0.1210000366 0.2721709013
v -0.007567446679 0.120999977 0.2721709311
v -0.007567446679 0.1210000068 0.2721709013
v -0.006879724097 -0.1205003709 0.2738577127
v -0.006879724097 0.1205002815 0.2738577724
v -0.006067116279 -0.1209998578 0.2754910886
v -0.006067116279 -0.120999828 0.2754911184
v -0.006067116279 0.1209997684 0.2754911482
v -0.006067116279 0.1209997982 0.2754911184
v -0.005294597708 -0.09057168663 -0.06850344688
v -0.005294597708 0.09057168663 -0.06850343198
v -0.005109421909 -0.104581058 -0.06784985214
v -0.005109421909 0.104581058 -0.06784983724
v -0.004821113311 -0.09057122469 -0.06347458065
v -0.004821113311 -0.09057121724 -0.0634745881
v -0.004821113311 0.09057122469 -0.06347456574
v -0.004821113311 0.09057123214 -0.06347455829
v -0.004033781588 -0.113283813 -0.05843370035
v -0.004033781588 0.113283813 -0.0584336929
v -0.003326371312 -0.1170062423 -0.04829423502
v -0.003326371312 0.1170062423 -0.04829422757
v -0.001716783619 -0.1171175689 -0.02132268436
v -0.001716783619 0.1171175689 -0.02132267319
v 1.788558438e-05 -0.1172245741 0.00490606809
v 1.788558438e-05 0.1172245741 0.004906078335
v 0.001871251967 -0.1173406467 0.03333215043
v 0.001871251967 0.1173406467 0.03333215788
v 0.003953040112 -0.117477417 0.0667225197
v 0.003953040112 0.117477417 0.0667225346
v 0.005236228462 -0.1210001186 0.4225668013
v 0.005236228462 -0.1210000664 0.4225668311
v 0.005236228462 0.1209999844 0.4225668609
v 0.005236228462 0.1210000366 0.4225668311
v 0.005416548811 -0.1210000291 0.4262070954
v 0.005416548811 -0.1209999844 0.4262071252
v 0.005416548811 0.120999895 0.426207155
v 0.005416548811 0.1209999397 0.4262071252
v 0.005432753358 -0.1205003932 0.4246214628
v 0.005432753358 0.1205002591 0.4246215224
v 0.005954537541 -0.1176213771 0.1029242948
v 0.005954537541 0.1176213622 0.1029243097
v 0.006116166711 -0.1208099648 0.4334121048
v 0.006116166711 0.1208099201 0.4334121048
v 0.006621606648 -0.1209745556 0.2598133981
v 0.006621606648 0.1209745258 0.2598133981
v 0.006955981255 -0.1210000068 0.2668951154
v 0.006955981255 -0.120999977 0.2668951452
v 0.006955981255 0.1209999174 0.266895175
v 0.006955981255 0.1209999472 0.2668951452
v 0.007154390682 -0.120499894 0.2689063251
v 0.007154390682 0.1204998046 0.2689063847
v 0.007163763046 -0.118540056 0.2494851649
v 0.007163763046 0.1185400411 0.2494851649
v 0.007308617234 -0.1210000962 0.2705979943
v 0.007308617234 -0.1210000664 0.2705980241
v 0.007308617234 0.1210000068 0.2705980539
v 0.007308617234 0.1210000366 0.2705980241
v 0.007748097647 -0.11776153 0.1396532357
v 0.007748097647 0.1177615151 0.1396532357
v 0.008053844795 -0.09058234096 0.4437363446
v 0.008053844795 -0.0905822888 0.4437363446
v 0.008053844795 0.09058219194 0.4437363446
v 0.008053844795 0.0905822441 0.4437363446
v 0.008574031293 -0.09058182687 0.448789686
v 0.008574031293 0.09058178216 0.448789686
v 0.009030396119 -0.1178957373 0.174999401
v 0.009030396119 0.1178957224 0.174999401
v 0.009230621159 -0.1180136055 0.2061447203
v 0.009230621159 0.1180135906 0.2061447203
v 0.009281970561 -0.1044626385 0.4479509592
v 0.009281970561 0.1044625938 0.4479509592
v 0.009805053473 -0.118113406 0.2324904799
v 0.009805053473 0.1181133911 0.2324904799
v 0.0136911571 -0.1170349121 -0.04687756673
v 0.0136911571 0.1170349121 -0.04687755927
v 0.01386071742 -0.09057126194 -0.06256777048
v 0.01386071742 -0.09057125449 -0.06256777793
v 0.01386071742 0.09057126194 -0.06256775558
v 0.01386071742 0.09057126939 -0.06256774813
v 0.01462680101 -0.1134461761 -0.05709374323
v 0.01462680101 0.1134461761 -0.05709373578
v 0.01471118629 -0.1050988436 -0.06656388193
v 0.01471118629 0.1050988436 -0.06656386703
v 0.0149250403 -0.09057170153 -0.0675219968
v 0.0149250403 0.09057170153 -0.06752198189
v 0.01967932284 -0.1172092035 -0.02227374166
v 0.01967932284 0.1172092035 -0.02227373049
v 0.02001338825 -0.1210001186 0.418267101
v 0.02001338825 -0.1210000664 0.4182671309
v 0.02001338825 0.1209999844 0.4182671607
v 0.02001338825 0.1210000366 0.4182671309
v 0.0208492782 -0.1205001548 0.4203026295
v 0.0208492782 0.1205000207 0.4203026891
v 0.0212449152 -0.121000044 0.4217485487
v 0.0212449152 -0.1209999919 0.4217485785
v 0.0212449152 0.1209999099 0.4217486084
v 0.0212449152 0.1209999621 0.4217485785
v 0.02344090492 -0.1208332703 0.4283445776
v 0.02344090492 0.1208332255 0.4283445776
v 0.02363760397 -0.1173253059 0.00218814332
v 0.02363760397 0.1173253059 0.002188153565
v 0.02614189684 -0.1210000962 0.2713323236
v 0.02614189684 -0.1210000664 0.2713323534
v 0.02614189684 0.1210000068 0.2713323832
v 0.02614189684 0.1210000366 0.2713323534
v 0.02620324306 -0.1174165383 0.02906597964
v 0.02620324306 0.1174165383 0.02906599082
v 0.02649074793 -0.120499894 0.2695121765
v 0.02649074793 0.1204998046 0.2695122361
v 0.02668064088 -0.1210000366 0.2680691481
v 0.02668064088 -0.1210000068 0.2680691779
v 0.02668064088 0.1209999472 0.2680692077
v 0.02668064088 0.120999977 0.2680691779
v 0.02722336352 -0.09055816382 0.4382173419
v 0.02722336352 -0.09055811167 0.4382173419
v 0.02722336352 0.09055801481 0.4382173419
v 0.02722336352 0.09055806696 0.4382173419
v 0.02856197022 -0.1044407114 0.4423679113
v 0.02856197022 0.1044406667 0.4423679113
v 0.0286112763 -0.1175322756 0.0636145696
v 0.0286112763 0.1175322756 0.06361458451
v 0.02870514989 -0.1208565384 0.2609676123
v 0.02870514989 0.1208565086 0.2609676123
v 0.02943396568 -0.09055767953 0.4427840114
v 0.02943396568 0.09055763483 0.4427840114
v 0.03056344017 -0.1171468496 -0.03787111118
v 0.03056344017 0.1171468496 -0.03787110373
v 0.03073920682 -0.1210005954 0.4106098115
v 0.03073920682 -0.1210005432 0.4106098413
v 0.03073920682 0.1210004613 0.4106098711
v 0.03073920682 0.1210005134 0.4106098413
v 0.03079969436 -0.1175623015 0.100990206
v 0.03079969436 0.1175622866 0.1009902209
v 0.03160773218 -0.1184682325 0.2514742017
v 0.03160773218 0.1184682176 0.2514742017
v 0.03209083527 -0.1205001548 0.412165612
v 0.03209083527 0.1205000207 0.4121656716
v 0.03292419389 -0.1176103577 0.1386132538
v 0.03292419389 0.1176103428 0.1386132538
v 0.03304406628 -0.1210000739 0.4131810963
v 0.03304406628 -0.1210000217 0.4131811261
v 0.03304406628 0.1209999397 0.4131811559
v 0.03304406628 0.1209999919 0.4131811261
v 0.03336689249 -0.09068848938 -0.0548957251
v 0.03336689249 -0.09068848193 -0.05489573628
v 0.03336689249 0.09068848938 -0.05489571765
v 0.03336689249 0.09068849683 -0.05489570647
v 0.03379130363 -0.113671422 -0.04776204005
v 0.03379130363 0.113671422 -0.0477620326
v 0.03486798704 -0.1177624464 0.1746198535
v 0.03486798704 0.1177624315 0.1746198535
v 0.03567385674 -0.1048055291 -0.05851209536
v 0.03567385674 0.1048055291 -0.05851208791
v 0.03617936 -0.09068885446 -0.05916238204
v 0.03617936 0.09068885446 -0.05916237459
v 0.03672977164 -0.117893815 0.2060475647
v 0.03672977164 0.1178938001 0.2060475647
v 0.03789269552 -0.1208866686 0.4179927707
v 0.03789269552 0.1208866388 0.4179927707
v 0.03894325718 -0.1210008338 0.3988968432
v 0.03894325718 -0.1210007817 0.398896873
v 0.03894325718 0.1210006997 0.3988969028
v 0.03894325718 0.1210007519 0.398896873
v 0.03954229876 -0.1179910973 0.2343399972
v 0.03954229876 0.1179910824 0.2343399972
v 0.04061912373 -0.1204999164 0.3995918632
v 0.04061912373 0.1204997823 0.3995919228
v 0.04102494568 -0.1209998578 0.2778900862
v 0.04102494568 -0.120999828 0.277890116
v 0.04102494568 0.1209997684 0.2778901458
v 0.04102494568 0.1209997982 0.277890116
v 0.04177243263 -0.1210000888 0.4001786709
v 0.04177243263 -0.1210000366 0.4001787007
v 0.04177243263 0.1209999546 0.4001787305
v 0.04177243263 0.1210000068 0.4001787007
v 0.04191526026 -0.1205001324 0.2763998806
v 0.04191526026 0.120500043 0.2763999403
v 0.04278150946 -0.1172996163 -0.02332272008
v 0.04278150946 0.1172996163 -0.0233227089
v 0.04310492426 -0.1210000366 0.2750365436
v 0.04310492426 -0.1210000068 0.2750365734
v 0.04310492426 0.1209999472 0.2750366032
v 0.04310492426 0.120999977 0.2750365734
v 0.0436604023 -0.1210001111 0.3838671148
v 0.0436604023 -0.1210000664 0.3838671446
v 0.0436604023 0.1209999919 0.3838671744
v 0.0436604023 0.1210000366 0.3838671446
v 0.0454149209 -0.1205001473 0.3841134012
v 0.0454149209 0.1205000281 0.3841134608
v 0.04620499909 -0.09056127071 0.4246280789
v 0.04620499909 -0.09056121856 0.4246280789
v 0.04620499909 0.0905611366 0.4246280789
v 0.04620499909 0.09056118876 0.4246280789
v 0.04677151889 -0.1210000366 0.384403795
v 0.04677151889 -0.1209999919 0.3844038248
v 0.04677151889 0.1209999174 0.3844038546
v 0.04677151889 0.1209999621 0.3844038248
v 0.04684026912 -0.1209687144 0.2697115839
v 0.04684026912 0.1209686846 0.2697115839
v 0.04813504219 -0.1208850592 0.4035483003
v 0.04813504219 0.1208850294 0.4035483003
v 0.0485298261 -0.1174347997 0.0002498581307
v 0.0485298261 0.1174347997 0.0002498683752
v 0.0491258651 -0.1044275016 0.4281688929
v 0.0491258651 0.1044274569 0.4281688929
v 0.04979896545 -0.09056086838 0.4282043576
v 0.04979896545 0.09056082368 0.4282043576
v 0.05028684437 -0.1209998578 0.2871051729
v 0.05028684437 -0.120999828 0.2871052027
v 0.05028684437 0.1209997684 0.2871052325
v 0.05028684437 0.1209997982 0.2871052027
v 0.05070984364 -0.1138219833 -0.02907410823
v 0.05070984364 0.1138219833 -0.02907409705
v 0.05076275766 -0.1173989773 0.02105633728
v 0.05076275766 0.1173989773 0.02105634846
v 0.05196208879 -0.1205001324 0.2860428393
v 0.05196208879 0.120500043 0.2860428989
v 0.05278094113 -0.1181705743 0.2603932023
v 0.05278094113 0.1181705445 0.2603932023
v 0.05348005891 -0.1173269153 0.06011746824
v 0.05348005891 0.1173269153 0.06011747569
v 0.05349782109 -0.1210000366 0.2854735553
v 0.05349782109 -0.1210000068 0.2854735851
v 0.05349782109 0.1209999472 0.2854736149
v 0.05349782109 0.120999977 0.2854735851
v 0.05383323133 -0.1207804829 0.3863989413
v 0.05383323133 0.1207804531 0.3863989413
v 0.05497156084 -0.09062685072 -0.03305348381
v 0.05497156084 -0.09062684327 -0.03305349499
v 0.05497156084 0.09062685072 -0.03305347636
v 0.05497156084 0.09062685817 -0.03305346519
v 0.05590117723 -0.1209999844 0.3326352239
v 0.05590117723 -0.1209999472 0.3326352537
v 0.05590117723 0.1209998801 0.3326352835
v 0.05590117723 0.1209999174 0.3326352537
v 0.05608884245 -0.1172204092 0.09958802164
v 0.05608884245 0.1172203943 0.09958803654
v 0.05678419769 -0.1210005805 0.300210923
v 0.05678419769 -0.1210005432 0.3002109528
v 0.05678419769 0.1210004762 0.3002109826
v 0.05678419769 0.1210005134 0.3002109528
v 0.057499066 -0.1205001399 0.3328987658
v 0.057499066 0.1205000356 0.3328988254
v 0.05762729049 -0.09054536372 0.4085058868
v 0.05762729049 -0.09054531157 0.4085058868
v 0.05762729049 0.09054522961 0.4085058868
v 0.05762729049 0.09054528177 0.4085058868
v 0.05823493004 -0.1172794774 0.1377600133
v 0.05823493004 0.1172794625 0.1377600133
v 0.0583278425 -0.1209998652 0.3172378242
v 0.0583278425 -0.120999828 0.317237854
v 0.0583278425 0.1209997609 0.3172378838
v 0.0583278425 0.1209997982 0.317237854
v 0.05861476064 -0.1043401957 -0.03519331291
v 0.05861476064 0.1043401957 -0.03519330546
v 0.05867514759 -0.1205003783 0.2996551692
v 0.05867514759 0.120500274 0.2996552289
v 0.05890080333 -0.1139244437 -0.002748792293
v 0.05890080333 0.1139244437 -0.002748782514
v 0.05901258066 -0.1210000142 0.3331793547
v 0.05901258066 -0.120999977 0.3331793845
v 0.05901258066 0.1209999099 0.3331794143
v 0.05901258066 0.1209999472 0.3331793845
v 0.05939921737 -0.09062705189 -0.03568719327
v 0.05939921737 0.09062705189 -0.03568718582
v 0.05969493091 -0.1208002716 0.2820996642
v 0.05969493091 0.1208002418 0.2820996642
v 0.06014798954 -0.121000044 0.2994340062
v 0.06014798954 -0.1210000068 0.299434036
v 0.06014798954 0.1209999397 0.2994340658
v 0.06014798954 0.120999977 0.299434036
v 0.06034311652 -0.117302902 0.173485294
v 0.06034311652 0.1173028871 0.173485294
v 0.06044218689 -0.1205001399 0.3170730174
v 0.06044218689 0.1205000356 0.317073077
v 0.06126117706 -0.1136448979 0.02052082121
v 0.06126117706 0.1136448979 0.02052083239
v 0.06146255136 -0.1043630093 0.4108801782
v 0.06146255136 0.1043629795 0.4108801782
v 0.06197599694 -0.1210000739 0.3170949817
v 0.06197599694 -0.1210000366 0.3170950115
v 0.06197599694 0.1209999695 0.3170950413
v 0.06197599694 0.1210000068 0.3170950115
v 0.06214690208 -0.0905450657 0.4107756317
v 0.06214690208 0.0905450359 0.4107756317
v 0.06272792816 -0.1172086671 0.2074711919
v 0.06272792816 0.1172086522 0.2074711919
v 0.06369034201 -0.09065853059 -0.004183421377
v 0.06369034201 -0.09065853059 -0.004183410667
v 0.06369034201 0.09065853059 -0.004183402285
v 0.06369034201 0.09065853059 -0.004183391575
v 0.06381204724 -0.1174901202 0.2403174639
v 0.06381204724 0.1174901053 0.2403174639
v 0.06386244297 -0.1132754683 0.05926518887
v 0.06386244297 0.1132754683 0.05926519632
v 0.06388579309 -0.09054528177 0.3892612159
v 0.06388579309 -0.09054522961 0.3892612159
v 0.06388579309 0.09054514766 0.3892612159
v 0.06388579309 0.09054519981 0.3892612159
v 0.06568990648 -0.1208487302 0.3346394897
v 0.06568990648 0.1208487004 0.3346394897
v 0.06571270525 -0.09056995064 0.01946102828
v 0.06571270525 -0.09056995064 0.01946103945
v 0.06571270525 0.09056995064 0.0194610469
v 0.06571270525 0.09056995064 0.01946105808
v 0.06577968597 -0.1133151129 0.09833159298
v 0.06577968597 0.113315098 0.09833160788
v 0.06733674556 -0.1207764894 0.2975366712
v 0.06733674556 0.1207764596 0.2975366712
v 0.06788671017 -0.1040788889 -0.005258952267
v 0.06788671017 0.1040788889 -0.005258942954
v 0.0680629015 -0.1044383869 0.3904117644
v 0.0680629015 0.1044383571 0.3904117644
v 0.06811179966 -0.09066826105 0.05802004412
v 0.06811179966 -0.0906682536 0.05802005529
v 0.06811179966 0.09066824615 0.05802007392
v 0.06811179966 0.0906682536 0.05802006274
v 0.0681848079 -0.117313996 0.2780801058
v 0.0681848079 0.1173139662 0.2780801058
v 0.06837832928 -0.1128033474 0.1371502429
v 0.06837832928 0.1128033325 0.1371502429
v 0.06862768531 -0.0906585753 -0.005129416008
v 0.06862768531 0.0906585753 -0.005129407626
v 0.06870698929 -0.0905450657 0.3906036317
v 0.06870698929 0.0905450359 0.3906036317
v 0.06916718185 -0.1207960993 0.3165320754
v 0.06916718185 0.1207960695 0.3165320754
v 0.0700211525 -0.1045523882 0.01933807135
v 0.0700211525 0.1045523882 0.0193380788
v 0.07051660866 -0.09062875062 0.09725546837
v 0.07051660866 -0.09062874317 0.09725547582
v 0.07051660866 0.09062872082 0.09725549817
v 0.07051660866 0.09062872827 0.09725549072
v 0.07052576542 -0.1126509979 0.1730418503
v 0.07052576542 0.112650983 0.1730418503
v 0.07069945335 -0.09056994319 0.0190926902
v 0.07069945335 0.09056994319 0.01909269765
v 0.07263845205 -0.1043494791 0.05860413238
v 0.07263845205 0.1043494791 0.05860413983
v 0.07269096375 -0.112380214 0.2067526281
v 0.07269096375 0.1123801991 0.2067526281
v 0.07289346308 -0.09081425518 0.1362161189
v 0.07289346308 -0.09081424028 0.1362161338
v 0.07289346308 0.09081421047 0.1362161487
v 0.07289346308 0.09081422538 0.1362161338
v 0.0731022954 -0.0906682387 0.05771186575
v 0.0731022954 0.0906682387 0.0577118732
v 0.07399895787 -0.1126868799 0.2393934578
v 0.07399895787 0.112686865 0.2393934578
v 0.07495963573 -0.1044867709 0.09756777436
v 0.07495963573 0.104486756 0.09756778926
v 0.07512240112 -0.09062182903 0.1725586653
v 0.07512240112 -0.09062180668 0.1725586802
v 0.07512240112 0.09062176943 0.1725586951
v 0.07512240112 0.09062179178 0.1725586802
v 0.07550728321 -0.09062872827 0.09695030004
v 0.07550728321 0.09062871337 0.09695031494
v 0.07563520968 -0.1144150645 0.2961953282
v 0.07563520968 0.1144150347 0.2961953282
v 0.07611298561 -0.09056632221 0.336733371
v 0.07611298561 -0.09056628495 0.336733371
v 0.07611298561 0.0905662179 0.336733371
v 0.07611298561 0.09056625515 0.336733371
v 0.07687628269 -0.1119228154 0.2760385275
v 0.07687628269 0.1119227856 0.2760385275
v 0.07717367262 -0.09060758352 0.2060994208
v 0.07717367262 -0.09060755372 0.2060994357
v 0.07717367262 0.09060750902 0.2060994506
v 0.07717367262 0.09060753882 0.2060994357
v 0.07748162746 -0.1038191393 0.1363893449
v 0.07748162746 0.1038191244 0.1363893449
v 0.07788413763 -0.09081422538 0.1359108537
v 0.07788413763 0.09081421047 0.1359108537
v 0.07919511944 -0.09055712074 0.2391423285
v 0.07919511944 -0.09055709094 0.2391423434
v 0.07919511944 0.09055704623 0.2391423583
v 0.07919511944 0.09055707604 0.2391423434
v 0.07964429259 -0.1039604023 0.1723475754
v 0.07964429259 0.1039603874 0.1723475754
v 0.08003198355 -0.09065639228 0.3165142238
v 0.08003198355 -0.09065635502 0.3165142238
v 0.08003198355 0.09065628797 0.3165142238
v 0.08003198355 0.09065632522 0.3165142238
v 0.08011305332 -0.09062179178 0.1722530276
v 0.08011305332 0.09062177688 0.1722530276
v 0.08032971621 -0.1045032293 0.3380523622
v 0.08032971621 0.1045031995 0.3380523622
v 0.08100390434 -0.09056615084 0.3377762437
v 0.08100390434 0.09056612104 0.3377762437
v 0.08127328008 -0.09065905213 0.2739658356
v 0.08127328008 -0.09065902233 0.2739658356
v 0.08127328008 0.09065896273 0.2739658356
v 0.08127328008 0.09065899253 0.2739658356
v 0.08169978857 -0.1039750054 0.2061972469
v 0.08169978857 0.1039749905 0.2061972469
v 0.08178669214 -0.09056721628 0.2959412038
v 0.08178669214 -0.09056718647 0.2959412038
v 0.08178669214 0.09056712687 0.2959412038
v 0.08178669214 0.09056715667 0.2959412038
v 0.08216434717 -0.09060753882 0.2057941705
v 0.08216434717 0.09060752392 0.2057941705
v 0.0835506022 -0.1044687703 0.2392110378
v 0.0835506022 0.1044687554 0.2392110378
v 0.08418601751 -0.09055707604 0.2388407588
v 0.08418601751 0.09055706114 0.2388407588
v 0.08444485068 -0.1043740883 0.3175662458
v 0.08444485068 0.1043740585 0.3175662458
v 0.08499127626 -0.09065625072 0.3172043562
v 0.08499127626 0.09065622091 0.3172043562
v 0.08554756641 -0.1044783443 0.2737659812
v 0.08554756641 0.1044783145 0.2737659812
v 0.08626979589 -0.09065899998 0.2737584412
v 0.08626979589 0.09065897018 0.2737584412
v 0.08633697033 -0.1041317135 0.2959769666
v 0.08633697033 0.1041316837 0.2959769666
v 0.08679166436 -0.09056712687 0.2960957289
v 0.08679166436 0.09056709707 0.2960957289
f 309 1099 1113
f 309 1113 401
f 66 1036 1050
f 66 1050 99
f 99 1050 1061
f 99 1061 144
f 144 1061 1077
f 144 1077 218
f 218 1077 1089
f 218 1089 255
f 255 1089 1099
f 255 1099 309
f 1121 453 401
f 1121 401 1113
f 1043 122 432
f 1043 432 1107
f 1127 1107 432
f 1127 432 478
f 991 54 122
f 991 122 1043
f 135 976 1036
f 135 1036 66
f 135 516 892
f 135 892 976
f 666 824 892
f 666 892 516
f 666 762 824
f 937 130 54
f 937 54 991
f 861 419 130
f 861 130 937
f 807 643 419
f 807 419 861
f 807 729 643
f 1121 1137 453
f 1137 1143 478
f 1137 478 453
f 1143 1127 478
f 784 740 737
f 784 737 781
f 838 784 781
f 838 781 841
f 882 838 841
f 882 841 887
f 673 737 740
f 673 740 678
f 621 673 678
f 621 678 626
f 543 621 626
f 543 626 558
f 495 543 558
f 495 558 532
f 549 495 532
f 549 532 568
f 647 549 568
f 647 568 652
f 669 647 652
f 669 652 676
f 703 669 676
f 703 676 710
f 747 703 710
f 747 710 750
f 793 747 750
f 793 750 796
f 857 793 796
f 857 796 854
f 927 857 854
f 927 854 922
f 969 927 922
f 969 922 962
f 1015 969 962
f 1015 962 1002
f 1027 1015 1002
f 1027 1002 1020
f 1007 1027 1020
f 1007 1020 988
f 941 1007 988
f 941 988 934
f 919 941 934
f 919 934 912
f 912 882 887
f 912 887 919
f 934 988 979
f 934 979 931
f 659 652 568
f 659 568 609
f 997 979 988
f 997 988 1020
f 676 652 659
f 676 659 689
f 985 997 1020
f 985 1020 1002
f 710 676 689
f 710 689 715
f 955 985 1002
f 955 1002 962
f 750 710 715
f 750 715 753
f 915 955 962
f 915 962 922
f 922 854 849
f 922 849 915
f 801 849 854
f 801 854 796
f 796 750 753
f 796 753 801
f 912 934 931
f 912 931 907
f 555 609 568
f 555 568 532
f 882 912 907
f 882 907 875
f 597 555 532
f 597 532 558
f 838 882 875
f 838 875 835
f 635 597 558
f 635 558 626
f 777 743 740
f 777 740 784
f 784 838 835
f 784 835 777
f 681 635 626
f 681 626 678
f 678 740 743
f 678 743 681
f 307 399 1111
f 307 1111 1097
f 1047 1033 63
f 1047 63 97
f 1059 1047 97
f 1059 97 142
f 1075 1059 142
f 1075 142 216
f 1087 1075 216
f 1087 216 253
f 1097 1087 253
f 1097 253 307
f 399 451 1119
f 399 1119 1111
f 430 120 1041
f 430 1041 1105
f 1125 476 430
f 1125 430 1105
f 120 52 989
f 120 989 1041
f 1033 974 132
f 1033 132 63
f 132 974 890
f 132 890 514
f 890 822 664
f 890 664 514
f 664 822 760
f 52 128 935
f 52 935 989
f 128 417 859
f 128 859 935
f 417 641 805
f 417 805 859
f 805 641 727
f 1119 451 1135
f 1135 451 476
f 1135 476 1141
f 1141 476 1125
f 783 779 735
f 783 735 739
f 837 839 779
f 837 779 783
f 881 885 839
f 881 839 837
f 671 677 739
f 671 739 735
f 619 625 677
f 619 677 671
f 541 557 625
f 541 625 619
f 493 531 557
f 493 557 541
f 547 567 531
f 547 531 493
f 645 651 567
f 645 567 547
f 667 675 651
f 667 651 645
f 701 709 675
f 701 675 667
f 745 749 709
f 745 709 701
f 791 795 749
f 791 749 745
f 855 853 795
f 855 795 791
f 925 921 853
f 925 853 855
f 967 961 921
f 967 921 925
f 1013 1001 961
f 1013 961 967
f 1025 1019 1001
f 1025 1001 1013
f 1005 987 1019
f 1005 1019 1025
f 939 933 987
f 939 987 1005
f 917 911 933
f 917 933 939
f 911 917 885
f 911 885 881
f 933 929 977
f 933 977 987
f 657 607 567
f 657 567 651
f 995 1019 987
f 995 987 977
f 675 687 657
f 675 657 651
f 983 1001 1019
f 983 1019 995
f 709 713 687
f 709 687 675
f 953 961 1001
f 953 1001 983
f 749 751 713
f 749 713 709
f 913 921 961
f 913 961 953
f 921 913 847
f 921 847 853
f 799 795 853
f 799 853 847
f 795 799 751
f 795 751 749
f 911 905 929
f 911 929 933
f 553 531 567
f 553 567 607
f 881 873 905
f 881 905 911
f 595 557 531
f 595 531 553
f 837 833 873
f 837 873 881
f 633 625 557
f 633 557 595
f 775 783 739
f 775 739 741
f 783 775 833
f 783 833 837
f 679 677 625
f 679 625 633
f 677 679 741
f 677 741 739
f 932 980 660
f 932 660 610
f 690 660 980
f 690 980 998
f 802 754 956
f 802 956 916
f 916 850 802
f 908 932 610
f 908 610 556
f 876 908 556
f 876 556 598
f 836 876 598
f 836 598 636
f 682 744 778
f 778 836 636
f 778 636 682
f 1008 942 972
f 1008 972 1046
f 616 406 550
f 616 550 648
f 946 972 942
f 946 942 920
f 904 946 920
f 904 920 888
f 844 904 888
f 844 888 842
f 788 844 842
f 788 842 782
f 732 788 782
f 732 782 738
f 662 732 738
f 662 738 674
f 576 662 674
f 576 674 622
f 404 576 622
f 404 622 544
f 496 550 406
f 496 406 302
f 302 404 544
f 302 544 496
f 1028 1008 1046
f 1028 1046 1072
f 1072 1054 1016
f 1072 1016 1028
f 1104 1054 1072
f 970 1016 1054
f 970 1054 1012
f 928 970 1012
f 928 1012 944
f 858 928 944
f 858 944 868
f 794 858 868
f 794 868 790
f 748 794 790
f 748 790 734
f 704 748 734
f 704 734 686
f 670 704 686
f 670 686 640
f 616 648 670
f 616 670 640
f 1064 1012 1054
f 1064 1054 1104
f 1110 1064 1104
f 1110 1104 1160
f 964 944 1012
f 964 1012 1064
f 650 686 734
f 650 734 726
f 726 734 790
f 726 790 798
f 798 790 868
f 798 868 880
f 880 868 944
f 880 944 964
f 640 686 650
f 640 650 612
f 958 894 872
f 958 872 924
f 1004 958 924
f 1004 924 948
f 498 628 570
f 498 570 260
f 470 498 260
f 470 260 189
f 832 924 872
f 832 872 820
f 820 872 894
f 820 894 826
f 832 846 948
f 832 948 924
f 698 628 498
f 698 498 694
f 684 570 628
f 684 628 698
f 498 470 692
f 498 692 694
f 766 820 826
f 766 826 764
f 768 832 820
f 768 820 766
f 764 684 698
f 764 698 766
f 766 698 694
f 766 694 768
f 768 770 846
f 768 846 832
f 694 692 770
f 694 770 768
f 960 1022 1004
f 960 1004 948
f 966 1040 1022
f 966 1022 960
f 852 960 948
f 852 948 846
f 866 966 960
f 866 960 852
f 772 852 846
f 772 846 770
f 774 866 852
f 774 852 772
f 696 772 770
f 696 770 692
f 700 774 772
f 700 772 696
f 481 696 692
f 481 692 470
f 546 700 696
f 546 696 481
f 200 481 470
f 200 470 189
f 237 546 481
f 237 481 200
f 1052 1040 966
f 1052 966 982
f 994 1066 1052
f 994 1052 982
f 878 982 966
f 878 966 866
f 884 994 982
f 884 982 878
f 786 878 866
f 786 866 774
f 804 884 878
f 804 878 786
f 706 786 774
f 706 774 700
f 712 804 786
f 712 786 706
f 706 700 546
f 706 546 581
f 614 712 706
f 614 706 581
f 581 546 237
f 581 237 283
f 380 614 581
f 380 581 283
f 964 1064 1038
f 1038 1064 1110
f 1038 1110 1094
f 1080 1066 994
f 1080 994 1018
f 1032 1038 1094
f 1032 1094 1086
f 1032 1086 1080
f 1032 1080 1018
f 880 964 1038
f 880 1038 910
f 896 1018 994
f 896 994 884
f 902 910 1038
f 902 1038 1032
f 902 1032 1018
f 902 1018 896
f 798 880 910
f 798 910 818
f 812 896 884
f 812 884 804
f 814 818 910
f 814 910 902
f 814 902 896
f 814 896 812
f 726 798 818
f 726 818 708
f 720 812 804
f 720 804 712
f 718 708 818
f 718 818 814
f 718 814 812
f 718 812 720
f 650 726 708
f 650 708 638
f 720 712 614
f 720 614 618
f 624 638 708
f 624 708 718
f 624 718 720
f 624 720 618
f 612 650 638
f 612 638 552
f 618 614 380
f 618 380 437
f 500 552 638
f 500 638 624
f 500 624 618
f 500 618 437
f 382 640 612
f 382 612 552
f 382 552 344
f 344 552 500
f 344 500 273
f 229 273 500
f 229 500 437
f 229 437 380
f 229 380 149
f 246 273 229
f 246 229 206
f 106 149 380
f 106 380 283
f 237 200 12
f 237 12 49
f 106 283 237
f 106 237 49
f 137 149 106
f 137 106 87
f 206 229 149
f 206 149 137
f 87 106 49
f 87 49 27
f 12 200 189
f 12 189 8
f 8 189 260
f 8 260 45
f 27 49 12
f 27 12 10
f 10 12 8
f 10 8 6
f 6 8 45
f 6 45 21
f 450 570 684
f 450 684 656
f 45 260 570
f 45 570 450
f 427 21 45
f 427 45 450
f 656 684 764
f 656 764 758
f 427 450 656
f 427 656 654
f 758 764 826
f 758 826 828
f 654 656 758
f 654 758 756
f 828 826 894
f 828 894 898
f 756 758 828
f 756 828 830
f 898 894 958
f 898 958 1000
f 830 828 898
f 830 898 900
f 1056 1004 1022
f 1056 1022 1074
f 1000 958 1004
f 1000 1004 1056
f 1010 1000 1056
f 1010 1056 1068
f 900 898 1000
f 900 1000 1010
f 1148 1094 1110
f 1148 1110 1156
f 1086 1094 1148
f 1086 1148 1140
f 1124 1080 1086
f 1124 1086 1140
f 1066 1080 1124
f 1066 1124 1116
f 1096 1052 1066
f 1096 1066 1116
f 1084 1074 1022
f 1084 1022 1040
f 1040 1052 1096
f 1040 1096 1084
f 1068 1056 1074
f 1068 1074 1082
f 1082 1074 1084
f 1082 1084 1092
f 1092 1084 1096
f 1092 1096 1102
f 1102 1096 1116
f 1102 1116 1118
f 1146 1140 1148
f 1146 1148 1150
f 1130 1124 1140
f 1130 1140 1146
f 1118 1116 1124
f 1118 1124 1130
f 1160 1156 1110
f 1152 1072 1046
f 1152 1046 1132
f 1104 1072 1152
f 1152 1160 1104
f 1150 1148 1156
f 1150 1156 1158
f 1132 1046 972
f 1132 972 1058
f 616 640 382
f 616 382 300
f 25 406 616
f 25 616 300
f 4 302 406
f 4 406 25
f 41 404 302
f 41 302 4
f 2 4 25
f 2 25 14
f 304 576 404
f 304 404 41
f 23 41 4
f 23 4 2
f 632 662 576
f 632 576 304
f 292 304 41
f 292 41 23
f 1058 972 946
f 1058 946 1024
f 1134 1132 1058
f 1134 1058 1070
f 1024 946 904
f 1024 904 950
f 1070 1058 1024
f 1070 1024 1030
f 950 904 844
f 950 844 864
f 1030 1024 950
f 1030 950 952
f 864 844 788
f 864 788 816
f 952 950 864
f 952 864 870
f 722 732 662
f 722 662 632
f 816 788 732
f 816 732 722
f 986 956 754
f 986 754 716
f 716 690 998
f 716 998 986
f 14 25 300
f 14 300 279
f 870 864 816
f 870 816 810
f 630 632 304
f 630 304 292
f 724 722 632
f 724 632 630
f 810 816 722
f 810 722 724
f 279 300 382
f 279 382 354
f 297 354 382
f 297 382 344
f 297 344 273
f 297 273 246
f 1162 1160 1152
f 1162 1152 1154
f 1152 1132 1134
f 1152 1134 1154
f 1160 1162 1158
f 1160 1158 1156
f 246 206 310
f 246 310 402
f 206 137 256
f 206 256 310
f 137 87 219
f 137 219 256
f 87 27 145
f 87 145 219
f 27 10 100
f 27 100 145
f 10 6 65
f 10 65 100
f 6 21 134
f 6 134 65
f 21 427 515
f 21 515 134
f 427 654 665
f 427 665 515
f 654 756 761
f 654 761 665
f 756 830 823
f 756 823 761
f 830 900 891
f 830 891 823
f 900 1010 975
f 900 975 891
f 1010 1068 1035
f 1010 1035 975
f 1068 1082 1049
f 1068 1049 1035
f 1082 1092 1062
f 1082 1062 1049
f 1092 1102 1078
f 1092 1078 1062
f 1102 1118 1090
f 1102 1090 1078
f 1118 1130 1100
f 1118 1100 1090
f 1130 1146 1114
f 1130 1114 1100
f 1146 1150 1122
f 1146 1122 1114
f 1150 1158 1138
f 1150 1138 1122
f 1158 1162 1144
f 1158 1144 1138
f 1162 1154 1128
f 1162 1128 1144
f 1154 1134 1108
f 1154 1108 1128
f 1134 1070 1044
f 1134 1044 1108
f 1070 1030 992
f 1070 992 1044
f 1030 952 938
f 1030 938 992
f 952 870 862
f 952 862 938
f 870 810 808
f 870 808 862
f 810 724 730
f 810 730 808
f 724 630 644
f 724 644 730
f 630 292 420
f 630 420 644
f 292 23 131
f 292 131 420
f 23 2 55
f 23 55 131
f 2 14 123
f 2 123 55
f 14 279 433
f 14 433 123
f 279 354 479
f 279 479 433
f 354 297 454
f 354 454 479
f 297 246 402
f 297 402 454
f 930 608 658
f 930 658 978
f 688 996 978
f 688 978 658
f 800 914 954
f 800 954 752
f 914 800 848
f 906 554 608
f 906 608 930
f 874 596 554
f 874 554 906
f 834 634 596
f 834 596 874
f 680 776 742
f 776 680 634
f 776 634 834
f 1006 1045 971
f 1006 971 940
f 615 646 548
f 615 548 405
f 945 918 940
f 945 940 971
f 903 886 918
f 903 918 945
f 843 840 886
f 843 886 903
f 787 780 840
f 787 840 843
f 731 736 780
f 731 780 787
f 661 672 736
f 661 736 731
f 575 620 672
f 575 672 661
f 403 542 620
f 403 620 575
f 494 301 405
f 494 405 548
f 301 494 542
f 301 542 403
f 1026 1071 1045
f 1026 1045 1006
f 1071 1026 1014
f 1071 1014 1053
f 1103 1071 1053
f 968 1011 1053
f 968 1053 1014
f 926 943 1011
f 926 1011 968
f 856 867 943
f 856 943 926
f 792 789 867
f 792 867 856
f 746 733 789
f 746 789 792
f 702 685 733
f 702 733 746
f 668 639 685
f 668 685 702
f 615 639 668
f 615 668 646
f 1063 1103 1053
f 1063 1053 1011
f 1109 1159 1103
f 1109 1103 1063
f 963 1063 1011
f 963 1011 943
f 649 725 733
f 649 733 685
f 725 797 789
f 725 789 733
f 797 879 867
f 797 867 789
f 879 963 943
f 879 943 867
f 639 611 649
f 639 649 685
f 957 923 871
f 957 871 893
f 1003 947 923
f 1003 923 957
f 497 259 569
f 497 569 627
f 469 188 259
f 469 259 497
f 831 819 871
f 831 871 923
f 819 825 893
f 819 893 871
f 831 923 947
f 831 947 845
f 697 693 497
f 697 497 627
f 683 697 627
f 683 627 569
f 497 693 691
f 497 691 469
f 765 763 825
f 765 825 819
f 767 765 819
f 767 819 831
f 763 765 697
f 763 697 683
f 765 767 693
f 765 693 697
f 767 831 845
f 767 845 769
f 693 767 769
f 693 769 691
f 959 947 1003
f 959 1003 1021
f 965 959 1021
f 965 1021 1039
f 851 845 947
f 851 947 959
f 865 851 959
f 865 959 965
f 771 769 845
f 771 845 851
f 773 771 851
f 773 851 865
f 695 691 769
f 695 769 771
f 699 695 771
f 699 771 773
f 480 469 691
f 480 691 695
f 545 480 695
f 545 695 699
f 199 188 469
f 199 469 480
f 236 199 480
f 236 480 545
f 1051 981 965
f 1051 965 1039
f 993 981 1051
f 993 1051 1065
f 877 865 965
f 877 965 981
f 883 877 981
f 883 981 993
f 785 773 865
f 785 865 877
f 803 785 877
f 803 877 883
f 705 699 773
f 705 773 785
f 711 705 785
f 711 785 803
f 705 580 545
f 705 545 699
f 613 580 705
f 613 705 711
f 580 282 236
f 580 236 545
f 379 282 580
f 379 580 613
f 963 1037 1063
f 1037 1093 1109
f 1037 1109 1063
f 1079 1017 993
f 1079 993 1065
f 1031 1085 1093
f 1031 1093 1037
f 1031 1017 1079
f 1031 1079 1085
f 879 909 1037
f 879 1037 963
f 895 883 993
f 895 993 1017
f 901 1031 1037
f 901 1037 909
f 901 895 1017
f 901 1017 1031
f 797 817 909
f 797 909 879
f 811 803 883
f 811 883 895
f 813 901 909
f 813 909 817
f 813 811 895
f 813 895 901
f 725 707 817
f 725 817 797
f 719 711 803
f 719 803 811
f 717 813 817
f 717 817 707
f 717 719 811
f 717 811 813
f 649 637 707
f 649 707 725
f 719 617 613
f 719 613 711
f 623 717 707
f 623 707 637
f 623 617 719
f 623 719 717
f 611 551 637
f 611 637 649
f 617 436 379
f 617 379 613
f 499 623 637
f 499 637 551
f 499 436 617
f 499 617 623
f 381 611 639
f 381 343 551
f 381 551 611
f 343 272 499
f 343 499 551
f 228 436 499
f 228 499 272
f 228 148 379
f 228 379 436
f 245 205 228
f 245 228 272
f 105 282 379
f 105 379 148
f 236 48 11
f 236 11 199
f 105 48 236
f 105 236 282
f 136 86 105
f 136 105 148
f 205 136 148
f 205 148 228
f 86 26 48
f 86 48 105
f 11 7 188
f 11 188 199
f 7 44 259
f 7 259 188
f 26 9 11
f 26 11 48
f 9 5 7
f 9 7 11
f 5 20 44
f 5 44 7
f 449 655 683
f 449 683 569
f 44 449 569
f 44 569 259
f 426 449 44
f 426 44 20
f 655 757 763
f 655 763 683
f 426 653 655
f 426 655 449
f 757 827 825
f 757 825 763
f 653 755 757
f 653 757 655
f 827 897 893
f 827 893 825
f 755 829 827
f 755 827 757
f 897 999 957
f 897 957 893
f 829 899 897
f 829 897 827
f 1055 1073 1021
f 1055 1021 1003
f 999 1055 1003
f 999 1003 957
f 1009 1067 1055
f 1009 1055 999
f 899 1009 999
f 899 999 897
f 1147 1155 1109
f 1147 1109 1093
f 1085 1139 1147
f 1085 1147 1093
f 1123 1139 1085
f 1123 1085 1079
f 1065 1115 1123
f 1065 1123 1079
f 1095 1115 1065
f 1095 1065 1051
f 1083 1039 1021
f 1083 1021 1073
f 1039 1083 1095
f 1039 1095 1051
f 1067 1081 1073
f 1067 1073 1055
f 1081 1091 1083
f 1081 1083 1073
f 1091 1101 1095
f 1091 1095 1083
f 1101 1117 1115
f 1101 1115 1095
f 1145 1149 1147
f 1145 1147 1139
f 1129 1145 1139
f 1129 1139 1123
f 1117 1129 1123
f 1117 1123 1115
f 1159 1109 1155
f 1151 1131 1045
f 1151 1045 1071
f 1103 1151 1071
f 1151 1103 1159
f 1149 1157 1155
f 1149 1155 1147
f 1131 1057 971
f 1131 971 1045
f 615 299 381
f 615 381 639
f 24 299 615
f 24 615 405
f 3 24 405
f 3 405 301
f 40 3 301
f 40 301 403
f 1 13 24
f 1 24 3
f 303 40 403
f 303 403 575
f 22 1 3
f 22 3 40
f 631 303 575
f 631 575 661
f 291 22 40
f 291 40 303
f 1057 1023 945
f 1057 945 971
f 1133 1069 1057
f 1133 1057 1131
f 1023 949 903
f 1023 903 945
f 1069 1029 1023
f 1069 1023 1057
f 949 863 843
f 949 843 903
f 1029 951 949
f 1029 949 1023
f 863 815 787
f 863 787 843
f 951 869 863
f 951 863 949
f 721 631 661
f 721 661 731
f 815 721 731
f 815 731 787
f 984 714 752
f 984 752 954
f 714 984 996
f 714 996 688
f 13 278 299
f 13 299 24
f 869 809 815
f 869 815 863
f 629 291 303
f 629 303 631
f 723 629 631
f 723 631 721
f 809 723 721
f 809 721 815
f 278 353 381
f 278 381 299
f 296 343 381
f 296 381 353
f 296 245 272
f 296 272 343
f 1161 1153 1151
f 1161 1151 1159
f 1133 1131 1151
f 1133 1151 1153
f 1159 1155 1157
f 1159 1157 1161
f 245 400 308
f 245 308 205
f 205 308 254
f 205 254 136
f 136 254 217
f 136 217 86
f 86 217 143
f 86 143 26
f 26 143 98
f 26 98 9
f 9 98 64
f 9 64 5
f 5 64 133
f 5 133 20
f 20 133 513
f 20 513 426
f 426 513 663
f 426 663 653
f 653 663 759
f 653 759 755
f 755 759 821
f 755 821 829
f 829 821 889
f 829 889 899
f 899 889 973
f 899 973 1009
f 1009 973 1034
f 1009 1034 1067
f 1067 1034 1048
f 1067 1048 1081
f 1081 1048 1060
f 1081 1060 1091
f 1091 1060 1076
f 1091 1076 1101
f 1101 1076 1088
f 1101 1088 1117
f 1117 1088 1098
f 1117 1098 1129
f 1129 1098 1112
f 1129 1112 1145
f 1145 1112 1120
f 1145 1120 1149
f 1149 1120 1136
f 1149 1136 1157
f 1157 1136 1142
f 1157 1142 1161
f 1161 1142 1126
f 1161 1126 1153
f 1153 1126 1106
f 1153 1106 1133
f 1133 1106 1042
f 1133 1042 1069
f 1069 1042 990
f 1069 990 1029
f 1029 990 936
f 1029 936 951
f 951 936 860
f 951 860 869
f 869 860 806
f 869 806 809
f 809 806 728
f 809 728 723
f 723 728 642
f 723 642 629
f 629 642 418
f 629 418 291
f 291 418 129
f 291 129 22
f 22 129 53
f 22 53 1
f 1 53 121
f 1 121 13
f 13 121 431
f 13 431 278
f 278 431 477
f 278 477 353
f 353 477 452
f 353 452 296
f 296 452 400
f 296 400 245
f 184 173 166
f 184 166 174
f 175 167 172
f 175 172 183
f 192 184 174
f 192 174 185
f 186 175 183
f 186 183 193
f 198 195 186
f 198 186 193
f 192 185 194
f 192 194 197
f 197 194 187
f 197 187 196
f 196 187 195
f 196 195 198
f 114 154 141
f 114 141 102
f 101 140 155
f 101 155 115
f 91 95 73
f 91 73 68
f 67 74 96
f 67 96 92
f 78 91 68
f 78 68 61
f 62 67 92
f 62 92 79
f 110 112 91
f 110 91 78
f 79 92 113
f 79 113 111
f 75 78 61
f 75 61 59
f 162 198 193
f 162 193 158
f 58 62 79
f 58 79 76
f 157 192 197
f 157 197 161
f 108 162 158
f 108 158 110
f 108 110 78
f 108 78 75
f 111 157 161
f 111 161 109
f 76 79 111
f 76 111 109
f 77 60 58
f 77 58 76
f 75 59 60
f 75 60 77
f 161 197 196
f 161 196 165
f 165 196 198
f 165 198 162
f 107 165 162
f 107 162 108
f 109 161 165
f 109 165 107
f 107 108 75
f 107 75 77
f 77 76 109
f 77 109 107
f 94 101 115
f 94 115 103
f 103 115 113
f 113 92 96
f 113 96 103
f 103 96 74
f 103 74 94
f 113 156 157
f 113 157 111
f 104 114 102
f 104 102 93
f 112 114 104
f 104 95 91
f 104 91 112
f 93 73 95
f 93 95 104
f 110 158 159
f 110 159 112
f 169 173 184
f 169 184 156
f 152 166 173
f 152 173 169
f 169 155 140
f 169 140 152
f 156 155 169
f 156 184 192
f 156 192 157
f 113 115 155
f 113 155 156
f 159 183 172
f 159 172 168
f 168 172 167
f 168 167 153
f 153 141 154
f 153 154 168
f 168 154 159
f 158 193 183
f 158 183 159
f 159 154 114
f 159 114 112
f 164 160 187
f 164 187 194
f 195 187 160
f 195 160 163
f 69 116 140
f 69 140 101
f 102 141 117
f 102 117 70
f 58 60 33
f 58 33 31
f 32 33 60
f 32 60 59
f 74 67 42
f 74 42 50
f 51 43 68
f 51 68 73
f 94 74 50
f 94 50 56
f 56 69 101
f 56 101 94
f 57 51 73
f 57 73 93
f 93 102 70
f 93 70 57
f 62 58 31
f 62 31 36
f 36 42 67
f 36 67 62
f 37 32 59
f 37 59 61
f 61 68 43
f 61 43 37
f 150 164 194
f 150 194 185
f 186 195 163
f 186 163 151
f 167 175 147
f 167 147 138
f 124 139 166
f 124 166 152
f 152 140 116
f 152 116 124
f 153 167 138
f 153 138 125
f 125 117 141
f 125 141 153
f 146 150 185
f 146 185 174
f 174 166 139
f 174 139 146
f 170 139 124
f 175 186 151
f 175 151 147
f 125 138 171
f 176 160 164
f 176 164 178
f 178 209 207
f 178 207 176
f 177 163 160
f 177 160 176
f 176 207 208
f 176 208 177
f 180 178 164
f 180 164 150
f 213 209 178
f 213 178 180
f 151 163 177
f 151 177 179
f 179 177 208
f 179 208 212
f 181 180 150
f 151 179 182
f 215 213 180
f 215 180 181
f 182 179 212
f 182 212 214
f 202 181 150
f 202 150 146
f 147 151 182
f 147 182 201
f 223 215 181
f 223 181 202
f 201 182 214
f 201 214 220
f 170 211 203
f 204 210 171
f 227 223 202
f 227 202 203
f 203 211 233
f 203 233 227
f 204 201 220
f 204 220 226
f 226 230 210
f 226 210 204
f 235 233 211
f 235 211 221
f 222 210 230
f 222 230 234
f 280 285 313
f 280 313 306
f 305 314 286
f 305 286 277
f 276 280 306
f 276 306 298
f 295 305 277
f 295 277 275
f 267 276 298
f 267 298 290
f 289 295 275
f 289 275 268
f 261 267 290
f 261 290 284
f 281 289 268
f 281 268 262
f 250 267 261
f 250 261 252
f 249 262 268
f 249 268 251
f 274 235 221
f 274 221 252
f 252 261 284
f 252 284 274
f 249 222 234
f 249 234 271
f 271 281 262
f 271 262 249
f 311 313 285
f 311 285 287
f 288 286 314
f 288 314 312
f 250 287 285
f 250 285 280
f 250 280 276
f 250 276 267
f 277 286 288
f 277 288 251
f 268 275 277
f 268 277 251
f 50 42 15
f 16 43 51
f 17 31 33
f 17 33 19
f 19 33 32
f 19 32 18
f 34 17 19
f 34 19 30
f 30 19 18
f 30 18 35
f 82 34 30
f 82 30 88
f 88 30 35
f 88 35 83
f 250 252 221
f 250 221 224
f 170 224 221
f 170 221 211
f 146 139 170
f 170 203 202
f 170 202 146
f 171 138 147
f 201 204 171
f 147 201 171
f 170 124 116
f 170 116 118
f 119 117 125
f 119 125 171
f 71 118 116
f 71 116 69
f 70 117 119
f 70 119 72
f 36 31 17
f 36 17 15
f 15 71 69
f 15 69 56
f 15 42 36
f 56 50 15
f 16 18 32
f 16 32 37
f 57 70 72
f 57 72 16
f 37 43 16
f 16 51 57
f 38 15 17
f 38 17 34
f 35 18 16
f 35 16 39
f 80 38 34
f 80 34 82
f 83 35 39
f 83 39 81
f 293 287 250
f 293 250 263
f 315 389 392
f 315 392 311
f 315 311 287
f 315 287 293
f 312 391 390
f 312 390 316
f 294 288 312
f 294 312 316
f 231 263 250
f 231 250 224
f 231 224 170
f 231 170 190
f 126 190 170
f 126 170 118
f 119 171 191
f 119 191 127
f 232 191 171
f 232 171 225
f 171 210 222
f 171 222 225
f 225 222 249
f 225 249 251
f 225 251 264
f 225 264 232
f 251 288 294
f 251 294 264
f 89 126 118
f 89 118 71
f 72 119 127
f 72 127 90
f 28 89 71
f 28 71 15
f 28 15 38
f 28 38 46
f 16 72 90
f 16 90 29
f 47 39 16
f 47 16 29
f 84 46 38
f 84 38 80
f 81 39 47
f 81 47 85
f 313 311 392
f 313 392 395
f 396 391 312
f 396 312 314
f 306 313 395
f 306 395 393
f 394 396 314
f 394 314 305
f 298 306 393
f 298 393 387
f 388 394 305
f 388 305 295
f 290 298 387
f 290 387 377
f 378 388 295
f 378 295 289
f 284 290 377
f 284 377 357
f 358 378 289
f 358 289 281
f 274 284 357
f 274 357 346
f 345 358 281
f 345 281 271
f 235 274 346
f 235 346 270
f 269 345 271
f 269 271 234
f 238 240 207
f 238 207 209
f 208 207 240
f 208 240 239
f 241 238 209
f 241 209 213
f 212 208 239
f 212 239 242
f 233 235 270
f 233 270 265
f 266 269 234
f 266 234 230
f 227 233 265
f 227 265 257
f 258 266 230
f 258 230 226
f 223 227 257
f 223 257 247
f 248 258 226
f 248 226 220
f 243 241 213
f 243 213 215
f 215 223 247
f 215 247 243
f 214 212 242
f 214 242 244
f 244 248 220
f 244 220 214
f 320 82 88
f 320 88 322
f 322 88 83
f 322 83 321
f 325 80 82
f 325 82 320
f 321 83 81
f 321 81 326
f 327 84 80
f 327 80 325
f 326 81 85
f 326 85 328
f 457 126 89
f 457 89 407
f 408 90 127
f 408 127 458
f 489 190 126
f 489 126 457
f 458 127 191
f 458 191 490
f 535 231 190
f 535 190 489
f 490 191 232
f 490 232 536
f 561 263 231
f 561 231 535
f 536 232 264
f 536 264 562
f 605 392 389
f 605 389 603
f 604 390 391
f 604 391 606
f 601 395 392
f 601 392 605
f 606 391 396
f 606 396 602
f 589 393 395
f 589 395 601
f 602 396 394
f 602 394 590
f 585 387 393
f 585 393 589
f 590 394 388
f 590 388 586
f 579 377 387
f 579 387 585
f 586 388 378
f 586 378 582
f 571 357 377
f 571 377 579
f 582 378 358
f 582 358 572
f 559 346 357
f 559 357 571
f 572 358 345
f 572 345 560
f 501 240 238
f 501 238 507
f 508 239 240
f 508 240 501
f 507 238 241
f 507 241 509
f 510 242 239
f 510 239 508
f 517 509 241
f 517 241 243
f 244 242 510
f 244 510 518
f 521 517 243
f 521 243 247
f 248 244 518
f 248 518 522
f 523 521 247
f 523 247 257
f 258 248 522
f 258 522 524
f 529 523 257
f 529 257 265
f 266 258 524
f 266 524 530
f 529 265 270
f 529 270 533
f 533 270 346
f 533 346 559
f 534 269 266
f 534 266 530
f 560 345 269
f 560 269 534
f 504 508 501
f 504 501 502
f 502 501 507
f 502 507 503
f 335 322 321
f 335 321 334
f 333 320 322
f 333 322 335
f 341 407 89
f 341 89 28
f 29 90 408
f 29 408 342
f 341 28 46
f 341 46 84
f 84 327 341
f 85 47 29
f 85 29 342
f 342 328 85
f 409 463 457
f 409 457 407
f 408 458 464
f 408 464 410
f 327 325 336
f 337 326 328
f 325 320 333
f 325 333 336
f 341 327 336
f 409 407 341
f 409 341 336
f 337 334 321
f 337 321 326
f 337 328 342
f 337 342 408
f 337 408 410
f 511 517 521
f 511 521 519
f 520 522 518
f 520 518 512
f 505 503 507
f 505 507 509
f 505 509 517
f 505 517 511
f 510 508 504
f 510 504 506
f 512 518 510
f 512 510 506
f 525 519 521
f 525 521 523
f 524 522 520
f 524 520 526
f 489 457 463
f 489 463 491
f 491 539 535
f 491 535 489
f 527 537 539
f 527 539 491
f 491 525 527
f 527 525 523
f 527 523 529
f 527 529 533
f 527 533 537
f 492 464 458
f 492 458 490
f 490 536 540
f 490 540 492
f 492 540 538
f 492 538 528
f 528 526 492
f 530 524 526
f 530 526 528
f 538 534 530
f 538 530 528
f 559 571 573
f 559 573 563
f 537 533 559
f 537 559 563
f 564 574 572
f 564 572 560
f 564 560 534
f 564 534 538
f 591 603 389
f 591 389 315
f 316 390 604
f 316 604 592
f 293 263 561
f 293 561 591
f 315 293 591
f 605 603 599
f 592 562 264
f 592 264 294
f 592 294 316
f 600 604 606
f 599 603 591
f 593 601 605
f 593 605 599
f 592 604 600
f 600 606 602
f 600 602 594
f 565 539 537
f 565 537 563
f 589 601 593
f 589 593 587
f 583 585 589
f 583 589 587
f 564 538 540
f 564 540 566
f 588 594 602
f 588 602 590
f 588 590 586
f 588 586 584
f 561 535 539
f 561 539 565
f 599 591 561
f 599 561 565
f 565 563 573
f 565 573 577
f 587 593 599
f 587 599 565
f 577 583 587
f 577 587 565
f 579 585 583
f 579 583 577
f 573 571 579
f 573 579 577
f 566 540 536
f 566 536 562
f 566 562 592
f 566 592 600
f 578 574 564
f 578 564 566
f 566 600 594
f 566 594 588
f 566 588 584
f 566 584 578
f 578 584 586
f 578 586 582
f 578 582 572
f 578 572 574
f 484 488 504
f 484 504 502
f 502 503 487
f 502 487 484
f 467 488 484
f 467 484 471
f 471 484 487
f 471 487 468
f 485 487 503
f 485 503 505
f 505 511 485
f 506 504 488
f 506 488 486
f 486 512 506
f 465 468 487
f 465 487 485
f 486 488 467
f 486 467 466
f 482 485 511
f 482 511 519
f 482 519 525
f 482 525 491
f 520 512 486
f 520 486 483
f 492 526 520
f 492 520 483
f 459 465 485
f 459 485 482
f 483 486 466
f 483 466 460
f 474 482 491
f 492 483 475
f 455 459 482
f 455 482 474
f 475 483 460
f 475 460 456
f 472 474 491
f 492 475 473
f 442 455 474
f 442 474 472
f 473 475 456
f 473 456 443
f 472 491 463
f 472 463 461
f 434 442 472
f 434 472 461
f 462 464 492
f 462 492 473
f 462 473 443
f 462 443 435
f 411 461 463
f 411 463 409
f 410 464 462
f 410 462 412
f 383 434 461
f 383 461 411
f 412 462 435
f 412 435 386
f 397 411 409
f 397 409 336
f 337 410 412
f 337 412 398
f 364 383 411
f 364 411 397
f 398 412 386
f 398 386 365
f 384 397 336
f 337 398 385
f 351 364 397
f 351 397 384
f 385 398 365
f 385 365 352
f 373 384 336
f 347 351 384
f 347 384 373
f 337 385 374
f 374 385 352
f 374 352 348
f 362 373 336
f 337 374 363
f 331 347 373
f 331 373 362
f 363 374 348
f 363 348 332
f 362 336 333
f 362 333 359
f 330 331 362
f 330 362 359
f 360 334 337
f 360 337 363
f 360 363 332
f 360 332 329
f 361 359 333
f 361 333 335
f 340 330 359
f 340 359 361
f 335 334 360
f 335 360 361
f 361 360 329
f 361 329 340
f 348 352 350
f 348 350 339
f 338 349 351
f 338 351 347
f 332 348 339
f 332 339 324
f 323 338 347
f 323 347 331
f 329 332 324
f 329 324 319
f 318 323 331
f 318 331 330
f 317 318 330
f 317 330 340
f 340 329 319
f 340 319 317
f 414 376 386
f 414 386 435
f 434 383 375
f 434 375 413
f 441 439 456
f 441 456 460
f 459 455 438
f 459 438 440
f 446 466 467
f 446 467 448
f 446 441 460
f 446 460 466
f 465 459 440
f 465 440 445
f 425 421 372
f 425 372 370
f 319 324 369
f 319 369 367
f 447 468 465
f 447 465 445
f 368 370 323
f 368 323 318
f 424 446 448
f 424 448 416
f 367 369 424
f 367 424 416
f 415 447 445
f 415 445 425
f 415 425 370
f 415 370 368
f 444 448 467
f 444 467 471
f 471 468 447
f 471 447 444
f 317 319 367
f 317 367 366
f 366 368 318
f 366 318 317
f 416 448 444
f 416 444 423
f 423 444 447
f 423 447 415
f 366 367 416
f 366 416 423
f 423 415 368
f 423 368 366
f 429 414 435
f 429 435 443
f 422 414 429
f 429 439 441
f 429 441 422
f 443 456 439
f 443 439 429
f 422 441 446
f 422 446 424
f 442 434 413
f 442 413 428
f 428 413 421
f 421 440 438
f 421 438 428
f 428 438 455
f 428 455 442
f 425 445 440
f 425 440 421
f 371 339 350
f 371 350 355
f 355 350 352
f 355 352 365
f 365 386 376
f 365 376 355
f 355 376 371
f 371 376 414
f 371 414 422
f 369 324 339
f 369 339 371
f 422 424 369
f 422 369 371
f 356 349 338
f 356 338 372
f 364 351 349
f 364 349 356
f 356 375 383
f 356 383 364
f 372 375 356
f 421 413 375
f 421 375 372
f 372 338 323
f 372 323 370
