v -0.07082179189 -0.02286601067 -3.367899026e-08
v -0.07082179189 0.02286601067 -3.567799922e-08
v -0.06840859354 -0.02286601067 -0.01833005622
v -0.06840859354 -0.02286601067 0.01832999289
v -0.06840859354 0.02286601067 -0.01833005808
v -0.06840859354 0.02286601067 0.01832999103
v -0.06429495662 -0.02802516893 -2.857446546e-08
v -0.06429495662 0.02802516893 -3.102450208e-08
v -0.06429493427 -0.02286601439 -3.166389106e-08
v -0.06429493427 0.02286601439 -3.366290002e-08
v -0.06210415438 -0.02802517265 0.01664073206
v -0.06210415438 0.02802517265 0.0166407302
v -0.06210415065 -0.02802517265 -0.01664077863
v -0.06210415065 0.02802517265 -0.01664078049
v -0.06210413948 -0.02286601812 -0.01664078236
v -0.06210413948 -0.02286601812 0.01664072461
v -0.06210413948 0.02286601812 -0.01664078422
v -0.06210413948 0.02286601812 0.01664072275
v -0.06133348495 -0.0228660088 0.03541085497
v -0.06133348495 0.02286601253 0.03541085124
v -0.06133345515 -0.02286601253 -0.0354109183
v -0.06133345515 0.0228660088 -0.03541092202
v -0.0556810759 -0.02802516706 0.03214744106
v -0.0556810759 0.02802517079 0.03214743733
v -0.05568106472 -0.02286601253 0.03214743361
v -0.05568106472 0.02286601625 0.03214742988
v -0.05568104982 -0.02802517079 -0.03214749321
v -0.05568104982 0.02802516706 -0.03214749694
v -0.05568103865 -0.02286601625 -0.03214749321
v -0.05568103865 0.02286601253 -0.03214749694
v -0.05121659115 -0.03660710156 -2.391884735e-08
v -0.05121659115 0.03660710156 -2.711914071e-08
v -0.05007859319 -0.0228660088 0.05007852986
v -0.05007859319 0.02286601253 0.05007852614
v -0.05007855594 -0.02286601253 -0.05007858574
v -0.05007855594 0.0228660088 -0.05007858947
v -0.04947142676 -0.03660710528 0.01325580664
v -0.04947142676 0.03660710528 0.01325580291
v -0.04947142303 -0.03660710528 -0.01325584576
v -0.04947142303 0.03660710528 -0.01325584948
v -0.04546341673 -0.02802517824 0.04546335712
v -0.04546341673 0.02802518196 0.0454633534
v -0.04546340927 -0.02286601625 0.04546335712
v -0.04546340927 0.02286601998 0.0454633534
v -0.0454633832 -0.02802516706 -0.045463413
v -0.0454633832 0.02802516334 -0.04546341673
v -0.04546337947 -0.02286601625 -0.04546340927
v -0.04546337947 0.02286601253 -0.045463413
v -0.04435487837 -0.03660710156 0.02560826764
v -0.04435487837 0.03660710156 0.02560826577
v -0.04435485601 -0.03660710156 -0.02560830489
v -0.04435485601 0.03660710156 -0.02560830675
v -0.03621561453 -0.03660711274 0.03621555492
v -0.03621561453 0.03660711274 0.0362155512
v -0.03621558845 -0.03660709411 -0.03621562198
v -0.03621558845 0.03660709411 -0.0362156257
v -0.03541091457 -0.02286600135 0.06133344769
v -0.03541091457 0.02286600508 0.06133344397
v -0.03541088477 -0.02286601625 -0.06133348122
v -0.03541088477 0.02286601253 -0.06133348495
v -0.03214748949 -0.02802516706 0.05568103865
v -0.03214748949 0.02802517079 0.05568103492
v -0.03214748576 -0.02286601253 0.05568103865
v -0.03214748576 0.02286601625 0.05568103492
v -0.03214746714 -0.02802517824 -0.05568108335
v -0.03214746714 0.02802517451 -0.05568108708
v -0.03214745969 -0.0228660237 -0.05568107218
v -0.03214745969 0.02286601998 -0.0556810759
v -0.02560830675 -0.03660709783 0.04435483739
v -0.02560830675 0.03660710528 0.04435483366
v -0.02560828812 -0.03660710901 -0.04435489699
v -0.02560828812 0.03660710156 -0.04435490072
v -0.01833005622 -0.02286599949 0.06840857863
v -0.01833005622 0.02286600694 0.06840857863
v -0.01833002269 -0.02286601812 -0.06840860844
v -0.01833002269 0.02286601067 -0.06840860844
v -0.01664078236 -0.02802516706 0.06210413575
v -0.01664078236 0.02802517079 0.06210413203
v -0.01664078049 -0.02286601253 0.06210413203
v -0.01664078049 0.02286601625 0.0621041283
v -0.01664075069 -0.02802517824 -0.06210416555
v -0.01664075069 -0.0228660237 -0.06210416555
v -0.01664075069 0.02286601998 -0.06210416928
v -0.01664075069 0.02802517451 -0.06210416928
v -0.01325585041 -0.03660709783 0.04947140068
v -0.01325585041 0.03660710528 0.04947139695
v -0.01325582527 -0.03660710901 -0.04947144538
v -0.01325582527 0.03660710156 -0.04947144911
v -3.571039997e-08 -0.02286599949 0.07082177699
v -3.571039997e-08 0.02286600694 0.07082177699
v -3.300374374e-08 -0.0280251652 0.06429493427
v -3.300374374e-08 0.02802517265 0.06429493427
v -3.243455993e-08 -0.02286601067 0.06429494172
v -3.243455993e-08 0.02286601812 0.06429494172
v -2.822079992e-08 -0.03660709783 0.05121656135
v -2.822079992e-08 0.03660710528 0.05121655762
v -2.934363863e-11 -0.03660710901 -0.05121659487
v -2.934363863e-11 0.03660710156 -0.0512165986
v 1.860622767e-09 -0.02286602557 -0.06429494917
v 1.860622767e-09 0.02286601812 -0.06429494917
v 2.386514097e-09 -0.0280251801 -0.06429494917
v 2.386514097e-09 0.02802517265 -0.06429494917
v 2.502929419e-09 -0.02286601812 -0.07082179934
v 2.502929419e-09 0.02286601067 -0.07082179934
v 0.01325579453 -0.03660709783 0.04947140813
v 0.01325579453 0.03660710528 0.0494714044
v 0.01325582247 -0.03660710901 -0.04947145283
v 0.01325582247 0.03660710156 -0.04947145656
v 0.0166407153 -0.02286601253 0.0621041432
v 0.0166407153 0.02286601625 0.06210413948
v 0.01664071903 -0.02802516706 0.06210414693
v 0.01664071903 0.02802517079 0.0621041432
v 0.01664075069 -0.0228660237 -0.06210416555
v 0.01664075069 0.02286601998 -0.06210416928
v 0.01664075442 -0.02802517824 -0.06210417673
v 0.01664075442 0.02802517451 -0.06210418046
v 0.0183299873 -0.02286599949 0.06840858608
v 0.0183299873 0.02286600694 0.06840858608
v 0.01833002456 -0.02286601812 -0.06840861589
v 0.01833002456 0.02286601067 -0.06840861589
v 0.02560826764 -0.03660709783 0.04435485601
v 0.02560826764 0.03660710528 0.04435485229
v 0.02560828812 -0.03660710901 -0.04435489699
v 0.02560828812 0.03660710156 -0.04435490072
v 0.03214743733 -0.02286601253 0.05568106472
v 0.03214743733 0.02286601625 0.055681061
v 0.03214744478 -0.02802516706 0.05568106472
v 0.03214744478 0.02802517079 0.055681061
v 0.03214746714 -0.0228660237 -0.05568107218
v 0.03214746714 0.02286601998 -0.0556810759
v 0.03214747086 -0.02802517824 -0.05568108335
v 0.03214747086 0.02802517451 -0.05568108708
v 0.03541085869 -0.02286600135 0.06133347377
v 0.03541085869 0.02286600508 0.06133347005
v 0.03541088849 -0.02286601625 -0.06133348122
v 0.03541088849 0.02286601253 -0.06133348495
v 0.03621556982 -0.03660711274 0.0362155959
v 0.03621556982 0.03660711274 0.03621559218
v 0.0362155959 -0.03660709411 -0.03621561453
v 0.0362155959 0.03660709411 -0.03621561825
v 0.04435484484 -0.03660710156 0.02560831793
v 0.04435484484 0.03660710156 0.02560831606
v 0.04435486719 -0.03660710528 -0.02560829371
v 0.04435486719 0.03660710528 -0.02560829557
v 0.04546335712 -0.02286601625 0.045463413
v 0.04546335712 0.02286601998 0.04546340927
v 0.04546336457 -0.02802517824 0.04546340927
v 0.04546336457 0.02802518196 0.04546340555
v 0.04546338692 -0.02286601998 -0.0454633981
v 0.04546338692 0.02286601625 -0.04546340182
v 0.0454633981 -0.02802516706 -0.04546340555
v 0.0454633981 0.02802516334 -0.04546340927
v 0.04947141558 -0.03660710528 0.01325586159
v 0.04947141558 0.03660710528 0.01325585786
v 0.0494714193 -0.03660710528 -0.01325583365
v 0.0494714193 0.03660710528 -0.01325583737
v 0.05007853732 -0.0228660088 0.05007858947
v 0.05007853732 0.02286601253 0.05007858574
v 0.05007856339 -0.02286601253 -0.05007857457
v 0.05007856339 0.0228660088 -0.05007857829
v 0.05121659115 -0.03660710528 -6.855595203e-09
v 0.05121659115 0.03660710528 -1.005589034e-08
v 0.05568102375 -0.02286601625 0.03214750066
v 0.05568102375 0.02286601998 0.03214749694
v 0.05568103492 -0.02802517079 0.03214750439
v 0.05568103492 0.02802517451 0.03214750066
v 0.0556810461 -0.02286601998 -0.03214747459
v 0.0556810461 0.02286601625 -0.03214747831
v 0.055681061 -0.02802517451 -0.03214747831
v 0.055681061 0.02802517079 -0.03214748204
v 0.06133344024 -0.0228660088 0.03541092947
v 0.06133344024 0.02286601253 0.03541092575
v 0.06133346632 -0.02286601253 -0.03541089594
v 0.06133346632 0.0228660088 -0.03541089967
v 0.0621041283 -0.02286601812 0.01664079539
v 0.0621041283 0.02286601812 0.01664079353
v 0.06210413575 -0.02286601812 -0.01664076373
v 0.06210413575 0.02286601812 -0.01664076559
v 0.0621041432 -0.02802517265 0.01664080098
v 0.0621041432 0.02802517265 0.01664079912
v 0.06210414693 -0.02802517265 -0.01664076373
v 0.06210414693 0.02802517265 -0.01664076559
v 0.06429494917 -0.02286601812 -6.644270911e-09
v 0.06429494917 0.02286601812 -8.643281646e-09
v 0.06429495662 -0.02802517265 -7.154042692e-09
v 0.06429495662 0.02802517265 -9.604081086e-09
v 0.06840857863 -0.02286601067 0.01833007112
v 0.06840857863 0.02286601067 0.01833006926
v 0.06840858608 -0.02286601067 -0.01833003573
v 0.06840858608 0.02286601067 -0.01833003759
v 0.07082179189 -0.02286601067 -6.088557658e-09
v 0.07082179189 0.02286601067 -8.087567949e-09
f 192 190 178
f 178 184 192
f 190 174 168
f 168 178 190
f 174 160 150
f 150 168 174
f 160 136 130
f 130 150 160
f 136 120 114
f 114 130 136
f 120 104 100
f 100 114 120
f 104 76 83
f 83 100 104
f 76 60 68
f 68 83 76
f 60 36 48
f 48 68 60
f 36 22 30
f 30 48 36
f 22 5 17
f 17 30 22
f 5 2 10
f 10 17 5
f 2 6 18
f 18 10 2
f 6 20 26
f 26 18 6
f 20 34 44
f 44 26 20
f 34 58 64
f 64 44 34
f 58 74 80
f 80 64 58
f 74 90 94
f 94 80 74
f 90 118 110
f 110 94 90
f 118 134 126
f 126 110 118
f 134 158 146
f 146 126 134
f 158 172 164
f 164 146 158
f 172 188 176
f 176 164 172
f 188 192 184
f 184 176 188
f 190 192 191
f 191 189 190
f 174 190 189
f 189 173 174
f 160 174 173
f 173 159 160
f 136 160 159
f 159 135 136
f 120 136 135
f 135 119 120
f 104 120 119
f 119 103 104
f 76 104 103
f 103 75 76
f 60 76 75
f 75 59 60
f 36 60 59
f 59 35 36
f 22 36 35
f 35 21 22
f 5 22 21
f 21 3 5
f 2 5 3
f 3 1 2
f 6 2 1
f 1 4 6
f 20 6 4
f 4 19 20
f 34 20 19
f 19 33 34
f 58 34 33
f 33 57 58
f 74 58 57
f 57 73 74
f 90 74 73
f 73 89 90
f 118 90 89
f 89 117 118
f 134 118 117
f 117 133 134
f 158 134 133
f 133 157 158
f 172 158 157
f 157 171 172
f 188 172 171
f 171 187 188
f 192 188 187
f 187 191 192
f 184 178 182
f 182 186 184
f 178 168 170
f 170 182 178
f 168 150 152
f 152 170 168
f 150 130 132
f 132 152 150
f 130 114 116
f 116 132 130
f 114 100 102
f 102 116 114
f 100 83 84
f 84 102 100
f 83 68 66
f 66 84 83
f 68 48 46
f 46 66 68
f 48 30 28
f 28 46 48
f 30 17 14
f 14 28 30
f 17 10 8
f 8 14 17
f 10 18 12
f 12 8 10
f 18 26 24
f 24 12 18
f 26 44 42
f 42 24 26
f 44 64 62
f 62 42 44
f 64 80 78
f 78 62 64
f 80 94 92
f 92 78 80
f 94 110 112
f 112 92 94
f 110 126 128
f 128 112 110
f 126 146 148
f 148 128 126
f 146 164 166
f 166 148 146
f 164 176 180
f 180 166 164
f 176 184 186
f 186 180 176
f 186 182 156
f 156 162 186
f 182 170 144
f 144 156 182
f 170 152 140
f 140 144 170
f 152 132 124
f 124 140 152
f 132 116 108
f 108 124 132
f 116 102 98
f 98 108 116
f 102 84 88
f 88 98 102
f 84 66 72
f 72 88 84
f 66 46 56
f 56 72 66
f 46 28 52
f 52 56 46
f 28 14 40
f 40 52 28
f 14 8 32
f 32 40 14
f 8 12 38
f 38 32 8
f 12 24 50
f 50 38 12
f 24 42 54
f 54 50 24
f 42 62 70
f 70 54 42
f 62 78 86
f 86 70 62
f 78 92 96
f 96 86 78
f 92 112 106
f 106 96 92
f 112 128 122
f 122 106 112
f 128 148 138
f 138 122 128
f 148 166 142
f 142 138 148
f 166 180 154
f 154 142 166
f 180 186 162
f 162 154 180
f 144 140 124
f 124 108 98
f 98 88 72
f 124 98 72
f 72 56 52
f 52 40 32
f 72 52 32
f 32 38 50
f 50 54 70
f 32 50 70
f 72 32 70
f 70 86 96
f 96 106 122
f 70 96 122
f 122 138 142
f 142 154 162
f 122 142 162
f 70 122 162
f 72 70 162
f 124 72 162
f 144 124 162
f 156 144 162
f 191 183 177
f 177 189 191
f 189 177 167
f 167 173 189
f 173 167 149
f 149 159 173
f 159 149 129
f 129 135 159
f 135 129 113
f 113 119 135
f 119 113 99
f 99 103 119
f 103 99 82
f 82 75 103
f 75 82 67
f 67 59 75
f 59 67 47
f 47 35 59
f 35 47 29
f 29 21 35
f 21 29 15
f 15 3 21
f 3 15 9
f 9 1 3
f 1 9 16
f 16 4 1
f 4 16 25
f 25 19 4
f 19 25 43
f 43 33 19
f 33 43 63
f 63 57 33
f 57 63 79
f 79 73 57
f 73 79 93
f 93 89 73
f 89 93 109
f 109 117 89
f 117 109 125
f 125 133 117
f 133 125 145
f 145 157 133
f 157 145 163
f 163 171 157
f 171 163 175
f 175 187 171
f 187 175 183
f 183 191 187
f 183 185 181
f 181 177 183
f 177 181 169
f 169 167 177
f 167 169 151
f 151 149 167
f 149 151 131
f 131 129 149
f 129 131 115
f 115 113 129
f 113 115 101
f 101 99 113
f 99 101 81
f 81 82 99
f 82 81 65
f 65 67 82
f 67 65 45
f 45 47 67
f 47 45 27
f 27 29 47
f 29 27 13
f 13 15 29
f 15 13 7
f 7 9 15
f 9 7 11
f 11 16 9
f 16 11 23
f 23 25 16
f 25 23 41
f 41 43 25
f 43 41 61
f 61 63 43
f 63 61 77
f 77 79 63
f 79 77 91
f 91 93 79
f 93 91 111
f 111 109 93
f 109 111 127
f 127 125 109
f 125 127 147
f 147 145 125
f 145 147 165
f 165 163 145
f 163 165 179
f 179 175 163
f 175 179 185
f 185 183 175
f 185 161 155
f 155 181 185
f 181 155 143
f 143 169 181
f 169 143 139
f 139 151 169
f 151 139 123
f 123 131 151
f 131 123 107
f 107 115 131
f 115 107 97
f 97 101 115
f 101 97 87
f 87 81 101
f 81 87 71
f 71 65 81
f 65 71 55
f 55 45 65
f 45 55 51
f 51 27 45
f 27 51 39
f 39 13 27
f 13 39 31
f 31 7 13
f 7 31 37
f 37 11 7
f 11 37 49
f 49 23 11
f 23 49 53
f 53 41 23
f 41 53 69
f 69 61 41
f 61 69 85
f 85 77 61
f 77 85 95
f 95 91 77
f 91 95 105
f 105 111 91
f 111 105 121
f 121 127 111
f 127 121 137
f 137 147 127
f 147 137 141
f 141 165 147
f 165 141 153
f 153 179 165
f 179 153 161
f 161 185 179
f 161 153 141
f 141 137 121
f 161 141 121
f 121 105 95
f 95 85 69
f 121 95 69
f 161 121 69
f 69 53 49
f 49 37 31
f 69 49 31
f 31 39 51
f 51 55 71
f 31 51 71
f 69 31 71
f 161 69 71
f 71 87 97
f 97 107 123
f 71 97 123
f 161 71 123
f 123 139 143
f 161 123 143
f 155 161 143
