v -0.02995286696 2.339824515e-11 0.001249993918
v -0.02995285764 2.407417599e-10 -0.03583819419
v -0.02995284647 1.933357502e-10 -0.06175002083
v -0.02893223614 -0.04198368639 -0.04445331171
v -0.02893223241 -0.007752393372 -0.03583819792
v -0.02893222123 -0.007752393838 -0.06175002083
v -0.02893221937 -0.01951720379 -0.06175002083
v -0.02856158093 -0.0564590618 -0.05721659213
v -0.02843628451 -0.0345092155 -0.07207748294
v -0.02744962275 -0.06198368222 -0.0811605677
v -0.02694848925 -0.03951720148 -0.08165139705
v -0.02593994327 0.01497643348 0.001249995315
v -0.02593993396 -0.0149764521 0.001249995199
v -0.02593993396 0.01497643441 -0.03583819419
v -0.02593992464 -0.01497645117 -0.03583819419
v -0.02593992278 0.01497643441 -0.06175001711
v -0.02135640383 -0.03951720148 -0.1377529055
v -0.02135640197 -0.06198368222 -0.1377528906
v -0.01497643068 0.02593994513 0.001249998808
v -0.01497642044 0.02593994513 -0.03583819047
v -0.01497641765 -0.02593995258 0.001249998808
v -0.01497641206 0.02593994513 -0.06175001338
v -0.0149764074 -0.02593995258 -0.03583819047
v -1.749798306e-09 0.02995286696 0.001250003697
v 7.368876176e-09 0.02995286696 -0.03583818674
v 1.443703646e-08 -0.02995286696 0.001250003697
v 1.648755088e-08 0.02995286696 -0.06175000966
v 2.355571027e-08 -0.02995286696 -0.03583818674
v 0.01497642975 0.02593994699 0.001250008587
v 0.01497644 0.02593994699 -0.03583818302
v 0.01497644279 -0.02593993768 0.001250008587
v 0.01497644838 0.02593994699 -0.06175000593
v 0.01497645304 -0.02593993768 -0.03583818302
v 0.02135648392 -0.03951720148 -0.1377528906
v 0.02135648765 -0.06198368222 -0.1377528757
v 0.02593993954 0.01497644 0.001250012196
v 0.02593994886 0.01497644 -0.03583817929
v 0.02593995072 -0.01497642044 0.001250012079
v 0.02593996003 -0.01497641951 -0.03583817929
v 0.02593996003 0.01497644093 -0.06175000221
v 0.02694855072 -0.03951720148 -0.0816513747
v 0.02744966373 -0.06198368222 -0.0811605528
v 0.02843634412 -0.03450921178 -0.07207746059
v 0.028561607 -0.0564590618 -0.05721658468
v 0.02893225849 -0.04198368639 -0.04445328936
v 0.02893226035 -0.007752359845 -0.03583817557
v 0.02893227153 -0.007752359845 -0.06174999848
v 0.02893227339 -0.01951720379 -0.06174999848
v 0.02995286696 1.168747499e-08 0.001250013476
v 0.02995287627 1.190481846e-08 -0.03583817557
v 0.02995288745 1.185741194e-08 -0.06174999848
f 12 14 2
f 2 1 12
f 19 20 14
f 14 12 19
f 24 25 20
f 20 19 24
f 29 30 25
f 25 24 29
f 36 37 30
f 30 29 36
f 49 50 37
f 37 36 49
f 38 39 46
f 38 46 50
f 49 38 50
f 31 33 39
f 39 38 31
f 26 28 33
f 33 31 26
f 21 23 28
f 28 26 21
f 13 15 23
f 23 21 13
f 1 2 5
f 1 5 15
f 13 1 15
f 16 3 2
f 2 14 16
f 22 16 14
f 14 20 22
f 27 22 20
f 20 25 27
f 32 27 25
f 25 30 32
f 40 32 30
f 30 37 40
f 51 40 37
f 37 50 51
f 47 51 50
f 50 46 47
f 3 6 5
f 5 2 3
f 46 45 48
f 48 47 46
f 33 28 45
f 39 33 45
f 46 39 45
f 5 6 7
f 7 4 5
f 47 48 7
f 7 6 47
f 34 35 18
f 18 17 34
f 10 18 35
f 35 42 10
f 11 17 18
f 18 10 11
f 41 34 17
f 17 11 41
f 41 42 35
f 35 34 41
f 22 27 32
f 32 40 51
f 22 32 51
f 51 47 6
f 22 51 6
f 22 6 3
f 16 22 3
f 48 45 44
f 44 43 48
f 45 4 8
f 8 44 45
f 4 7 9
f 9 8 4
f 7 48 43
f 43 9 7
f 10 42 44
f 44 8 10
f 11 10 8
f 8 9 11
f 41 11 9
f 9 43 41
f 42 41 43
f 43 44 42
f 15 5 4
f 23 15 4
f 28 23 4
f 28 4 45
f 13 21 26
f 26 31 38
f 38 49 36
f 26 38 36
f 36 29 24
f 24 19 12
f 36 24 12
f 26 36 12
f 13 26 12
f 1 13 12
