v -0.02995288745 -2.161730173e-08 -0.06174999848
v -0.02995287627 -2.166470559e-08 -0.03583817557
v -0.02995286696 -2.144735767e-08 0.001250013476
v -0.02893227898 0.01951719448 -0.06174999848
v -0.02893227339 0.007752350532 -0.06174999848
v -0.02893227153 0.04198367521 -0.04445328936
v -0.02893226407 0.007752350532 -0.03583817557
v -0.02856162563 0.05645905435 -0.05721658468
v -0.02843635529 0.03450920433 -0.07207746059
v -0.02744968422 0.06198367476 -0.0811605528
v -0.02694856375 0.03951719403 -0.0816513747
v -0.02593996562 0.01497641113 -0.03583817929
v -0.02593995444 -0.01497644931 -0.06175000221
v -0.02593995444 0.01497641206 0.001250012079
v -0.02593994513 -0.01497644838 -0.03583817929
v -0.02593993396 -0.01497644838 0.001250012196
v -0.02135650814 0.06198367476 -0.1377528757
v -0.02135649696 0.03951719403 -0.1377528906
v -0.01497646142 0.02593993209 -0.03583818302
v -0.01497645117 0.02593993209 0.001250008587
v -0.01497644 -0.02593995258 -0.06175000593
v -0.01497643068 -0.02593995258 -0.03583818302
v -0.01497642044 -0.02593995258 0.001250008587
v -3.331559384e-08 0.02995286696 -0.03583818674
v -2.419692002e-08 0.02995286696 0.001250003697
v -6.7276682e-09 -0.02995286696 -0.06175000966
v 2.391006948e-09 -0.02995286696 -0.03583818674
v 1.150968121e-08 -0.02995286696 0.001250003697
v 0.01497639902 0.02593995817 -0.03583819047
v 0.01497640926 0.02593995817 0.001249998808
v 0.01497642044 -0.02593993954 -0.06175001338
v 0.01497642975 -0.02593993954 -0.03583819047
v 0.01497644 -0.02593993954 0.001249998808
v 0.02135638148 0.06198368967 -0.1377528906
v 0.02135639079 0.03951720893 -0.1377529055
v 0.02593991905 0.01497645956 -0.03583819419
v 0.02593992837 -0.01497642603 -0.06175001711
v 0.02593993023 0.01497646049 0.001249995199
v 0.02593993768 -0.01497642603 -0.03583819419
v 0.02593994886 -0.0149764251 0.001249995315
v 0.02694847621 0.03951720893 -0.08165139705
v 0.02744960226 0.06198368967 -0.0811605677
v 0.02843627334 0.03450922295 -0.07207748294
v 0.0285615623 0.05645906925 -0.05721659213
v 0.02893221378 0.01951721311 -0.06175002083
v 0.02893221937 0.007752403151 -0.06175002083
v 0.0289322231 0.04198369756 -0.04445331171
v 0.02893222868 0.007752402686 -0.03583819792
v 0.02995284647 9.566541337e-09 -0.06175002083
v 0.02995285764 9.519138366e-09 -0.03583819419
v 0.02995286696 9.736485396e-09 0.001249993918
f 40 39 50
f 50 51 40
f 33 32 39
f 39 40 33
f 28 27 32
f 32 33 28
f 23 22 27
f 27 28 23
f 16 15 22
f 22 23 16
f 3 2 15
f 15 16 3
f 14 12 7
f 14 7 2
f 3 14 2
f 20 19 12
f 12 14 20
f 25 24 19
f 19 20 25
f 30 29 24
f 24 25 30
f 38 36 29
f 29 30 38
f 51 50 48
f 51 48 36
f 38 51 36
f 37 49 50
f 50 39 37
f 31 37 39
f 39 32 31
f 26 31 32
f 32 27 26
f 21 26 27
f 27 22 21
f 13 21 22
f 22 15 13
f 1 13 15
f 15 2 1
f 5 1 2
f 2 7 5
f 49 46 48
f 48 50 49
f 7 6 4
f 4 5 7
f 19 24 6
f 12 19 6
f 7 12 6
f 48 46 45
f 45 47 48
f 5 4 45
f 45 46 5
f 18 17 34
f 34 35 18
f 42 34 17
f 17 10 42
f 41 35 34
f 34 42 41
f 11 18 35
f 35 41 11
f 11 10 17
f 17 18 11
f 31 26 21
f 21 13 1
f 31 21 1
f 1 5 46
f 31 1 46
f 31 46 49
f 37 31 49
f 4 6 8
f 8 9 4
f 6 47 44
f 44 8 6
f 47 45 43
f 43 44 47
f 45 4 9
f 9 43 45
f 42 10 8
f 8 44 42
f 41 42 44
f 44 43 41
f 11 41 43
f 43 9 11
f 10 11 9
f 9 8 10
f 36 48 47
f 29 36 47
f 24 29 47
f 24 47 6
f 38 30 25
f 25 20 14
f 14 3 16
f 25 14 16
f 16 23 28
f 28 33 40
f 16 28 40
f 25 16 40
f 38 25 40
f 51 38 40
