v -0.01046617236 0.002949999645 -0.004129088484
v -0.01046617143 -0.004949999973 -0.004129086621
v -0.01046617143 -0.002949999645 -0.004129089415
v -0.01046617143 0.004949999508 -0.004129083827
v -0.0104534952 0.004949999508 -0.004703319166
v -0.01045349427 -0.004949999973 -0.004703314509
v -0.01045349427 -0.002949999645 -0.004703317303
v -0.01045349333 0.002949999645 -0.004703316372
v -0.01026210748 -0.004949999973 -0.003592189401
v -0.01026210748 -0.002949999645 -0.003592192428
v -0.01026210655 0.002950000111 -0.003592191497
v -0.01026210561 0.004949999973 -0.00359218684
v -0.01022593398 -0.004949999973 -0.005230683833
v -0.01022593398 -0.002949999645 -0.005230686627
v -0.01022593305 0.002949999645 -0.005230685696
v -0.01022593305 0.004949999508 -0.005230688956
v -0.009871219285 -0.004949999508 -0.003171348013
v -0.009871219285 0.002950000111 -0.003171342192
v -0.009871219285 0.004949999973 -0.003171345219
v -0.009871218354 -0.002949999645 -0.003171343356
v -0.009816854261 0.002950000111 -0.005633868277
v -0.009816854261 0.004949999973 -0.005633864086
v -0.00981685333 -0.004949999973 -0.00563386688
v -0.00981685333 -0.002949999645 -0.005633869674
v -0.009350823238 -0.004949999508 -0.002928260481
v -0.009350823238 -0.002949999645 -0.002928263508
v -0.009350822307 0.002950000111 -0.002928262576
v -0.009350822307 0.004949999973 -0.00292826537
v -0.009286236949 -0.004949999973 -0.005853743292
v -0.009286236949 -0.002949999645 -0.005853746552
v -0.009286236018 0.002949999645 -0.005853745621
v -0.009286236018 0.004949999508 -0.005853748415
v -0.008711882867 0.002950000111 -0.005858088378
v -0.008711882867 0.004949999973 -0.005858084187
v -0.008711881936 -0.004949999973 -0.005858086515
v -0.008711881936 -0.002949999878 -0.005858082324
v -0.008094246499 0.002950000344 -0.002614959842
v -0.008094245568 -0.002950000111 -0.002614960773
v -0.007662612479 0.002998623066 -0.002507342724
v -0.007662612014 -0.002998623066 -0.002507341327
v -0.007524169981 -0.002950000111 -0.002552171703
v -0.007524169516 0.002950000344 -0.002552170772
v -0.007244182751 -0.003145657247 -0.002403021557
v -0.007244181819 0.003145657247 -0.002403015504
v -0.00708475383 -0.002949999878 -0.002593435347
v -0.007084752899 0.002949999878 -0.002593434183
v -0.006867367774 -0.003383920761 -0.002309066476
v -0.006867366843 0.003383920994 -0.002309066243
v -0.006849179976 0.002949999645 -0.002639682498
v -0.006849178579 -0.002949999645 -0.002639683662
v -0.006406818982 0.002949999413 -0.002760840347
v -0.006406818051 -0.002949999878 -0.002760841511
v -0.00618877355 0.003840640886 -0.0021398752
v -0.006184490398 -0.003843026236 -0.00213880837
v -0.00544651458 0.004176063929 -0.001954810461
v -0.005437301472 -0.004179311451 -0.001952511491
v -0.005304021761 -0.002949999645 -0.003038451076
v -0.005304021761 0.002949999645 -0.003038450144
v -0.004740127828 0.002949999645 -0.003109668149
v -0.00473163696 -0.002949999645 -0.003110277234
v -0.004660819657 0.004381046165 -0.001758915838
v -0.004646409769 -0.0043835002 -0.001755320001
v -0.004411206581 -0.002949999645 -0.003122037044
v -0.004411206581 0.002950000111 -0.00312203588
v -0.00408378616 0.002949999645 -0.003109337296
v -0.004072770942 -0.002949999645 -0.003108439734
v -0.003853108734 -0.004449999891 -0.001557531999
v -0.003853108501 -0.004949999973 -0.001557527576
v -0.003853108501 0.004950000439 -0.001557532349
v -0.003853108035 0.004449999891 -0.001557527925
v -0.003697594162 -0.002949999878 -0.003058163915
v -0.003697593464 0.002949999413 -0.003058162984
v -0.003490225878 0.002949999878 -0.003012972651
v -0.003490225645 -0.002949999878 -0.003012973815
v -0.003166011767 -0.004449999891 -0.001307504368
v -0.003166011767 0.004449999891 -0.001307507628
v -0.003073043423 -0.004949999973 -0.001260453137
v -0.00307304319 0.004449999891 -0.001260453486
v -0.003073042957 -0.004449999891 -0.001260450226
v -0.003073042724 0.004949999973 -0.001260450576
v -0.002545853611 -0.004449999891 -0.0009201836074
v -0.002545853145 0.004449999426 -0.0009201795328
v -0.00250865845 -0.002949999878 -0.002655791352
v -0.002508658217 0.002949999878 -0.002655797871
v -0.002385507105 -0.004949999973 -0.0007871173439
v -0.002385506872 -0.004449999891 -0.0007871143753
v -0.002385506872 0.004449999426 -0.0007871176931
v -0.002385506406 0.004949999508 -0.0007871147245
v -0.002019699896 -0.004449999891 -0.0004124679253
v -0.002019699197 0.004449999891 -0.0004124638508
v -0.001879807678 0.002950000111 -0.004578870256
v -0.001879807562 -0.004949999973 -0.004578868393
v -0.001879807562 -0.002949999645 -0.004578871187
v -0.001879807562 0.004949999973 -0.004578873049
v -0.001829604851 -0.004449999891 -0.000164438301
v -0.001829604502 -0.004949999973 -0.0001644338481
v -0.001829604502 0.004949999508 -0.0001644386502
v -0.001829604153 0.004450000357 -0.0001644341974
v -0.001622718875 0.002949999645 -0.00210248027
v -0.001622718177 -0.002949999878 -0.002102473984
v -0.001606240519 -0.004445160273 0.0001912136504
v -0.001606239937 0.004445160739 0.0001912172593
v -0.001493601128 -0.00699999975 0.0001384039933
v -0.001493601012 -0.004949999973 0.0001384110801
v -0.001493601012 0.004949999508 0.000138406278
v -0.001493600663 0.007000000216 0.000138405856
v -0.001442738576 -0.004949999973 -0.0004104905238
v -0.001442737994 -0.00699999975 -0.0004104901745
v -0.001442737994 0.004949999973 -0.0004104879044
v -0.001442737528 0.00699999975 -0.000410488341
v -0.001402523951 -0.004428877495 0.0006031746743
v -0.001402523834 -0.004949999973 0.0006031780504
v -0.001402523834 0.004949999973 0.0006031732773
v -0.001402523718 0.00442887703 0.0006031766534
v -0.001342744916 -0.00699999975 0.0006686104462
v -0.001342744799 0.004949999508 0.0006686127163
v -0.00134274445 -0.004949999973 0.0006686100387
v -0.00134274445 0.007000000216 0.0006686123088
v -0.001301206416 -0.004413641524 0.0008611858939
v -0.001301206299 0.004413641524 0.0008611863595
v -0.001288665459 -0.004949999973 -0.004430395085
v -0.001288664876 0.002949999878 -0.004430389497
v -0.001288664876 0.004949999508 -0.004430392291
v -0.00128866476 -0.002949999878 -0.004430390429
v -0.001197025762 0.004949999508 -0.0009039497818
v -0.001197025413 0.007000000216 -0.0009039501892
v -0.00119702518 -0.00699999975 -0.0009039446595
v -0.001197024831 -0.004949999973 -0.000903945067
v -0.001139046042 -0.004367108457 0.00144115102
v -0.001139045693 -0.004949999973 0.001441151253
v -0.001139045693 0.004367108457 0.001441154163
v -0.001139045111 0.004949999973 0.001441153931
v -0.001112057827 -0.004353232216 0.001584355137
v -0.001065625693 0.004314159509 0.001947401324
v -0.001065589604 -0.00431411108 0.001947826706
v -0.001050000312 0.001340577379 0.002875123871
v -0.001050000195 -0.002777305199 -0.0002037953527
v -0.001050000079 -0.004269185942 0.002315047197
v -0.001050000079 0.003804071341 -0.0001280717261
v -0.001050000079 0.00393833546 0.0001735274127
v -0.001050000079 0.004149239976 0.0007780914311
v -0.001049999963 -0.004949999973 0.004609215539
v -0.001049999963 -0.004621993285 0.005545391236
v -0.001049999963 -0.000303884357 0.002276589861
v -0.001049999963 0.0003038842988 0.005723418668
v -0.001049999963 0.004865625408 0.00510519417
v -0.001049999846 -0.003811739618 -0.0001118558212
v -0.001049999846 -0.001949999598 2.225951903e-07
v -0.001049999846 0.001949999598 2.191086281e-07
v -0.001049999846 0.00245374185 -7.278060366e-05
v -0.00104999973 -0.004290249664 0.001569296001
v -0.00104999973 0.0003038842988 0.002276590792
v -0.00104999973 0.004254163709 0.005875429604
v -0.00104999973 0.004269185942 0.002315047896
v -0.00104999973 0.004290812183 0.001577054616
v -0.001049999613 -0.002500234405 0.006989335641
v -0.001049999613 -0.001644461998 0.004598539323
v -0.001049999613 -0.001340577845 0.005124884658
v -0.001049999497 -0.004949999973 0.002315049758
v -0.001049999497 -0.004254162312 0.00587543752
v -0.001049999497 0.001644462347 0.003401469206
v -0.001049999497 0.002500228817 0.006989335641
v -0.001049999497 0.004621994216 0.005545382854
v -0.001049999497 0.004949999508 0.002315045102
v -0.00104999938 -0.004157534335 0.0008082130807
v -0.00104999938 -0.003852431662 -2.395677257e-05
v -0.00104999938 -0.001749999938 0.004000008572
v -0.00104999938 0.0008749997942 0.005515553057
v -0.00104999938 0.001340577379 0.00512488652
v -0.00104999938 0.003116979497 -0.0004362133041
v -0.00104999938 0.004207917023 0.001012741821
v -0.001049999264 -0.004865624942 0.005105207674
v -0.001049999264 -0.003100132337 -0.0004218932008
v -0.001049999264 -0.002777305199 -0.00020379544
v -0.001049999264 -0.001644461998 0.003401473863
v -0.001049999264 -0.000303884357 0.005723417737
v -0.001049999264 0.0008749997942 0.002484462224
v -0.001049999264 0.002639758633 -0.0001393645653
v -0.001049999264 0.003408941673 -0.0007576775388
v -0.001049999264 0.004299634602 0.001776311663
v -0.001049999148 -0.002458880888 -7.424225623e-05
v -0.001049999148 -0.0008749998524 0.005515553523
v -0.001049999148 0.002832244383 -0.0002343984379
v -0.001049999031 -0.001340577845 0.002875129459
v -0.001049999031 -0.000875000318 0.002484462922
v -0.001049999031 0.001644462347 0.004598542117
v -0.001049999031 0.001749999821 0.004000007175
v -0.001049999031 0.004949999508 0.004609210882
v -0.001049998915 0.00245374185 -7.278068369e-05
v -0.001049998682 -0.003442480229 -0.0008065726724
v -0.001049998216 0.00344247953 -0.0008065738948
v -0.001049997401 0.003408941673 -0.0007576777134
v -0.001033366658 0.003341393545 -0.0009536735015
v -0.001033208217 -0.003341619391 -0.0009530925308
v -0.00102243619 0.00331013836 -0.000990814995
v -0.001021716162 -0.003309140913 -0.0009915139526
v -0.001010543318 -0.004949999973 0.001108519384
v -0.001010543318 0.004949999973 0.001108514611
v -0.001010543201 0.00699999975 0.001108521712
v -0.001010542735 -0.00699999975 0.001108519733
v -0.0009915638948 0.001950000064 -0.0002999190765
v -0.0009915630799 -0.001949999598 -0.0002999156713
v -0.00098552485 0.003232676536 -0.001069594058
v -0.000984958373 -0.003232476767 -0.001069194754
v -0.0009845907334 0.003180315252 -0.0009877006523
v -0.0009840067942 -0.00318033807 -0.0009876789991
v -0.000982528436 0.002993515693 -0.0007610438042
v -0.0009818929248 -0.002993539209 -0.0007610151079
v -0.0009808121249 0.00276822038 -0.0005768320989
v -0.000980130746 -0.002768243197 -0.0005768069532
v -0.0009795213118 0.002512320178 -0.0004415948933
v -0.000978804077 -0.002512338338 -0.0004415693111
v -0.0009787101299 0.002236102242 -0.0003583783691
v -0.0009786018636 0.001949999947 -0.0003301390971
v -0.000978428754 -0.001949999831 -0.0003305172431
v -0.0009779678658 -0.002236113185 -0.0003583418147
v -0.0009649260319 0.003198341699 -0.001098958193
v -0.0009630000568 -0.003195973812 -0.001100342022
v -0.0009337911033 0.003152949503 -0.001132789766
v -0.0009322029073 -0.00315113971 -0.001133698272
v -0.0008710706607 -0.002949999645 -0.001377169043
v -0.0008710698457 0.002950000111 -0.001377168112
v -0.0008352335426 0.003037970746 -0.001193472417
v -0.0008343652589 -0.003037027083 -0.001193894888
v -0.0007938933559 0.002997703152 -0.001205976354
v -0.0007938657654 -0.002997683128 -0.001205969718
v -0.0007915328606 0.002953482559 -0.001137348008
v -0.0007914984599 -0.002953467192 -0.001137359999
v -0.000789648213 -0.004949999973 -0.001275320072
v -0.0007896476891 -0.00699999975 -0.001275319722
v -0.0007896475727 0.004949999973 -0.001275317394
v -0.0007896472234 0.00699999975 -0.00127531786
v -0.0007837482262 0.00279805623 -0.0009536113357
v -0.0007837078883 -0.002798050642 -0.0009536453872
v -0.0007772899116 0.002612925833 -0.000805300544
v -0.000777243753 -0.002612927929 -0.0008053461206
v -0.0007724465686 0.002404598286 -0.0006972214906
v -0.0007723947056 -0.002404606435 -0.0006972688134
v -0.0007694066153 0.002180966316 -0.0006311747129
v -0.0007693514344 -0.002180973534 -0.0006312294863
v -0.0007674316294 -0.001950000064 -0.0006099133752
v -0.0007674308727 0.001950000064 -0.0006099094171
v -0.0007424471551 0.002949999878 -0.004221301991
v -0.0007424470386 -0.002950000111 -0.004221303388
v -0.0007401087787 0.002949999413 -0.001214453718
v -0.000740019721 -0.002950000111 -0.00121433544
v -0.0007005637162 -0.002949999645 -0.004202029202
v -0.0006073518889 0.002949999413 -0.001401676331
v -0.0006030630902 0.002998789772 -0.004155824427
v -0.0005418622168 -0.00699999975 0.001398709835
v -0.0005418621004 -0.004949999973 0.001398716937
v -0.0005418621004 0.004950000439 0.001398712164
v -0.0005418617511 0.00699999975 0.001398711698
v -0.0005287196254 0.002950000344 -0.001501647406
v -0.0005212497781 0.002915239893 -0.001413705992
v -0.0005212365068 -0.002914796118 -0.001413861755
v -0.0005042307894 0.0028122433 -0.001230108901
v -0.0005041982513 -0.002811852144 -0.00123039796
v -0.0004891480785 0.002679002471 -0.001070718165
v -0.0004890950513 -0.002678682096 -0.00107114506
v -0.0004766974598 0.002520062961 -0.000941904611
v -0.0004766250495 -0.002519829432 -0.0009424590971
v -0.0004674055672 0.002341010841 -0.0008479073877
v -0.0004673180811 -0.002340869978 -0.0008485646104
v -0.0004669632472 -0.002949999645 -0.001578244497
v -0.0004616010992 0.002148685511 -0.0007904025842
v -0.0004615030193 -0.002148627536 -0.0007911234279
v -0.0004600054817 0.001950000064 -0.0007717200788
v -0.000459588744 -0.001949999831 -0.0007718353299
v -0.0004290912766 0.002950000111 -0.001621038653
v -0.00042499142 0.00195000018 -0.0007804076304
v -0.0004249906051 -0.001949999947 -0.0007804042543
v -0.0004083707172 0.004949999973 -0.004055188037
v -0.0004083704262 -0.004949999973 -0.004055190831
v -0.0004077754857 0.003071115585 -0.00405507395
v -0.0004077697522 -0.003071396612 -0.004054392222
v -0.0003902416502 0.002949999878 -0.004034797661
v -0.0003766151785 0.003083031392 -0.00403797254
v -0.0003764254798 -0.00308342278 -0.004037091509
v -0.0003724860435 -0.002949999645 -0.004023383372
v -0.0003614647139 -0.002878061729 -0.001428533578
v -0.0003221106308 0.002654986922 -0.001094285632
v -0.00032210871 -0.002654907061 -0.001094481209
v -0.0002956529206 0.002329642884 -0.0008749606786
v -0.0002756241011 -0.00699999975 -0.001474456396
v -0.0002756240428 0.004949999973 -0.001474454068
v -0.0002756237518 -0.004949999973 -0.001474456862
v -0.0002756236645 0.00699999975 -0.001474454533
v -0.0002499992552 -0.001949999714 -0.0007997077773
v -0.0002499992552 0.002950000111 -0.001827542321
v -0.0002499991388 -0.002949999645 -0.001827543369
v -0.0002499976545 0.001949999831 -0.0007995768101
v -0.0002064098226 0.002897789236 -0.001501241233
v -0.000202091207 0.002886766335 -0.001468913746
v -0.0001983060356 -0.002876166487 -0.001440571854
v -0.0001969587465 0.002872178797 -0.001430487493
v -0.0001602137636 0.002711708192 -0.001155422768
v -0.000153580957 -0.002669070149 -0.001105770934
v -0.0001491521107 0.002637281548 -0.001072614104
v -0.0001466844551 -0.002618228551 -0.001054145512
v -0.0001345282217 -0.002506047022 -0.0009631438879
v -0.0001217341487 0.002333064098 -0.0008673727862
v -0.000120947996 0.002319066785 -0.0008614889812
v -0.0001196341836 -0.002294216072 -0.0008516522357
v -0.00011380246 -0.002145205857 -0.0008079985855
v -0.0001110815138 0.001950000064 -0.0007876254385
v -0.0001110806988 -0.001949999947 -0.0007876220043
v -7.648313476e-05 -0.002949999878 -0.003811013186
v -7.400507457e-05 0.002950000344 -0.003809934948
v -1.386808071e-05 -0.003227814566 -0.003814770142
v 1.136397712e-10 -0.00699999975 0.00150000141
v 1.975202224e-10 0.004949999973 0.001500003622
v 2.657777054e-10 -0.00699999975 4.957108501e-09
v 5.708322148e-10 0.006999999285 0.001500003273
v 7.229701837e-10 0.006999999285 6.818833498e-09
v 1.136448047e-09 -0.004949999973 0.001500008395
v 2.255701656e-05 0.003012655769 -0.003753170138
v 2.356591722e-05 -0.003013616661 -0.003751209239
v 9.387866885e-05 0.003271166235 -0.003741738852
v 0.0001845303486 -0.002949999878 -0.003569659311
v 0.0001845559455 0.002949999878 -0.003570475616
v 0.0002756241011 0.004949999508 -0.001474457211
v 0.0002756244503 0.007000000216 -0.001474457677
v 0.000275624654 -0.00699999975 -0.001474452089
v 0.0002756250324 -0.004949999973 -0.001474452554
v 0.000382906117 -0.003389029996 -0.003520324128
v 0.0003830350761 0.003389095189 -0.003520080354
v 0.0003843229788 0.004949999973 -0.003519156249
v 0.0003843239101 -0.004949999973 -0.003519151593
v 0.0003843239101 -0.004949999508 -0.003519151593
v 0.000423194113 -0.002950000111 -0.003285140498
v 0.0004247140314 0.002949999878 -0.003282564925
v 0.0004944152897 0.002071435098 0.007261660881
v 0.0004944366519 -0.002071436262 0.007261665072
v 0.0005418625078 0.007000000216 0.001398709952
v 0.0005418626824 -0.00699999975 0.00139871554
v 0.0005418630317 -0.004949999973 0.001398715074
v 0.0005418630317 0.004949999508 0.001398710301
v 0.0005944133154 -0.002958959201 -0.003035295289
v 0.0005950900377 0.002959724283 -0.003033602377
v 0.0006149995024 -0.002949999878 -0.002981145168
v 0.0006223843084 0.002949999413 -0.002966009546
v 0.0006379932747 -0.003113356885 -0.003158174688
v 0.0006386931636 0.003114156891 -0.003156453138
v 0.0006452687667 -0.003291248111 -0.003253908828
v 0.0006459938595 0.003292056732 -0.003252148861
v 0.0006518703303 -0.003494967939 -0.003282587975
v 0.000677670294 0.003505473258 -0.003256614553
v 0.0007639689138 -0.002949999878 -0.002653029282
v 0.0007731007063 0.002950000344 -0.002627254231
v 0.0007896480965 -0.00699999975 -0.0012753224
v 0.0007896484458 -0.004949999973 -0.001275322749
v 0.0007896485622 0.007000000216 -0.001275320537
v 0.0007896490861 0.004949999508 -0.001275320188
v 0.0008632200188 -0.002949999878 -0.002317160834
v 0.0008713328862 0.002949999878 -0.002279726323
v 0.0008736880263 0.002949999413 -0.002268205397
v 0.0009034157847 -0.002949999878 -0.002084803535
v 0.0009106108919 -0.003237587633 -0.002883655718
v 0.0009113710839 0.0032382973 -0.002882457804
v 0.0009134920547 0.002973482944 -0.002304504625
v 0.0009142125491 -0.002974084113 -0.002302708803
v 0.000914865057 -0.002949999645 -0.001970052021
v 0.0009158320609 -0.002950354945 -0.001621979871
v 0.0009158320609 0.002949845511 -0.001621978823
v 0.000918025733 0.002949999878 -0.001923792879
v 0.0009277490899 -0.003408950754 -0.002963289851
v 0.0009285084088 0.003409644356 -0.002962104278
v 0.001009836909 0.002977566561 -0.001972293016
v 0.001010543783 -0.00699999975 0.001108517055
v 0.0010105439 0.004949999508 0.001108519384
v 0.001010544132 -0.004949999973 0.001108516706
v 0.001010544249 0.006999999285 0.001108518918
v 0.00101149769 -0.002978874138 -0.001969308592
v 0.001021283679 0.003067398211 -0.002409796696
v 0.00102199323 -0.003068040591 -0.002407860011
v 0.001059047063 -0.003640039591 -0.002842686372
v 0.001059387112 0.00364005845 -0.002843078692
v 0.001060382114 -0.004949999973 -0.002841927577
v 0.001060382696 0.004949999508 -0.002841925016
v 0.001076845336 0.002966465428 -0.001667932956
v 0.001077845111 -0.002967206994 -0.001667065895
v 0.001103094197 -0.002934658434 -0.001411777339
v 0.00110567559 0.003191241063 -0.002504865406
v 0.001106353244 -0.003191915341 -0.002502811374
v 0.001121616689 0.002930904739 -0.001388201723
v 0.001133858692 0.003045981051 -0.002058708342
v 0.001143154688 -0.00366579392 -0.002737045288
v 0.001153126708 0.00366817927 -0.002725667786
v 0.001162408735 0.003339156043 -0.002585008275
v 0.001163030858 -0.003339869436 -0.002582829678
v 0.001188771683 0.003503737273 -0.002646345878
v 0.001189323957 -0.003504524939 -0.002644058317
v 0.001197026228 -0.00699999975 -0.0009039464639
v 0.001197026344 0.004949999973 -0.0009039441939
v 0.001197026577 -0.004949999973 -0.0009039469296
v 0.001197026693 0.00699999975 -0.0009039446013
v 0.001209256356 0.003012970323 -0.001734972117
v 0.001210310846 -0.00301381899 -0.00173389772
v 0.001241601538 0.003143903799 -0.002138499869
v 0.001243313891 -0.003145416034 -0.002134945942
v 0.001253555412 -0.002886091825 -0.001205249224
v 0.001277007163 0.002873584628 -0.001168984454
v 0.001330009429 -0.003268695669 -0.002204381395
v 0.001331274514 0.003087449819 -0.001796179451
v 0.001342745149 -0.004949999973 0.0006686141714
v 0.001342745149 0.004949999973 0.0006686093984
v 0.001342745498 0.00699999975 0.0006686089328
v 0.001342745731 -0.00699999975 0.0006686145207
v 0.001364643802 -0.002805054886 -0.00101630576
v 0.001381253474 0.003012968926 -0.001489203423
v 0.001381299109 -0.003013027599 -0.001490561059
v 0.001384351053 0.00278283353 -0.0009772989433
v 0.001390230609 0.003410487669 -0.002264505485
v 0.001391819911 -0.003412136342 -0.002260638867
v 0.001415838371 0.001790138893 0.007424131036
v 0.001415845007 -0.001790145529 0.007424127776
v 0.0014261537 -0.003569514025 -0.002301360015
v 0.001438438194 0.003186936723 -0.001849369728
v 0.001439538202 -0.003187911352 -0.001848077634
v 0.001442738459 -0.004949999973 -0.0004104895343
v 0.001442739042 -0.00699999975 -0.000410489185
v 0.001442739158 0.004949999973 -0.0004104869149
v 0.001442739507 0.006999999285 -0.0004104873224
v 0.001443052199 -0.002690020716 -0.000846056093
v 0.001454235287 0.002664415399 -0.0008165242616
v 0.001455791527 -0.002661064034 -0.0008127954789
v 0.001492322423 -0.002542728558 -0.0007024985389
v 0.001493601245 -0.00699999975 0.0001384052448
v 0.001493601361 0.004949999973 0.0001384075294
v 0.001493601711 -0.004949999973 0.0001384048228
v 0.001493601711 0.00699999975 0.0001384071074
v 0.001499831444 0.002507245867 -0.0006758468226
v 0.001520969206 -0.002364694607 -0.000591276912
v 0.00152122532 -0.002970636589 -0.001244676765
v 0.001521336148 0.002970733913 -0.00124327722
v 0.001522799837 0.003744171467 -0.002175837755
v 0.001525380183 0.002318718238 -0.000570617849
v 0.001527658431 -0.0037461475 -0.002166270511
v 0.001527695917 -0.003308656858 -0.001891082618
v 0.0015348827 -0.002163566649 -0.0005208197981
v 0.001536685275 0.002108472865 -0.0005099080154
v 0.001538682031 -0.001949999831 -0.0004967222922
v 0.001538682147 0.001949999831 -0.0004967257846
v 0.001592406654 0.00344519224 -0.001923661563
v 0.001593422727 -0.003446206218 -0.001922298688
v 0.001594535424 -0.003750247881 -0.002047618153
v 0.00159467035 0.003748936346 -0.002047771821
v 0.001595044043 -0.004949999973 -0.002048307098
v 0.001595044625 0.004949999508 -0.002048304304
v 0.001607296406 0.003188073402 -0.001550441957
v 0.001607352402 -0.003188126255 -0.001552012865
v 0.001628734521 0.002884389134 -0.001009601401
v 0.001629020669 -0.00288455002 -0.001009598374
v 0.001634286833 -0.003595341928 -0.001940622577
v 0.001704305527 0.002754257992 -0.0008019675734
v 0.001704699243 -0.002754455199 -0.0008014073246
v 0.00174381223 -0.003139368026 -0.00125308265
v 0.001743923174 0.003139497014 -0.001251456561
v 0.001752409851 0.002585911192 -0.0006309882156
v 0.001752503798 -0.002585850656 -0.0006310502067
v 0.001764254295 0.003433929523 -0.001571259112
v 0.001764281187 -0.003433897626 -0.001573024434
v 0.00178017281 -0.002389054047 -0.0005051953485
v 0.001780297374 0.002389266621 -0.000504656462
v 0.001794067561 -0.002174053807 -0.0004285581817
v 0.001794107025 0.002174150897 -0.0004283029702
v 0.001815806841 0.003723031376 -0.001586030819
v 0.001826052321 -0.003719521221 -0.001563230879
v 0.001847945387 0.003039155388 -0.0009672344895
v 0.00184824178 -0.003039326519 -0.000967203232
v 0.001860231394 -0.001949999714 -0.0003630750871
v 0.001860232209 0.001949999947 -0.000363071129
v 0.001901279786 -0.003367724363 -0.001219827798
v 0.001901417738 0.003367945552 -0.00121802371
v 0.001920662005 0.002887550741 -0.0007143131807
v 0.001921068178 -0.002887765178 -0.0007136329659
v 0.001966639655 0.002691285918 -0.0005056493101
v 0.001966734882 -0.002691203495 -0.0005057071103
v 0.001968725119 0.004950000439 -0.001167357666
v 0.001968725352 -0.004949999973 -0.001167360344
v 0.001968937926 0.003633661196 -0.001165064867
v 0.001969480421 -0.003632661188 -0.001164838905
v 0.001992998645 -0.002461762866 -0.000351815921
v 0.001993137412 0.002462016884 -0.0003511960676
v 0.002003771951 0.003244351596 -0.0008809146821
v 0.002004008507 -0.003244496649 -0.0008808915736
v 0.002004955895 0.003595236223 -0.001045247656
v 0.002006170573 -0.002211142797 -0.0002579792344
v 0.002006236697 0.002211258048 -0.0002576776897
v 0.002009834163 0.001949999598 -0.0002263843344
v 0.002009866061 -0.001949999598 -0.0002263462666
v 0.002012807643 -0.003585189581 -0.001018769573
v 0.002073024167 0.003062905511 -0.0005790331634
v 0.002073355485 -0.003063116223 -0.0005782969529
v 0.002078215359 0.003476394108 -0.0007605563151
v 0.002078347839 -0.003476523096 -0.0007605702267
v 0.002114565345 0.002830221085 -0.000328115304
v 0.002114599105 -0.002830102807 -0.0003281819227
v 0.002120327437 -0.001949999598 -5.642366887e-05
v 0.00212032767 0.001949999598 -5.642715769e-05
v 0.002120948629 0.003358512186 -0.0005514550139
v 0.002121847821 -0.003356408561 -0.0005470140022
v 0.002136644674 -0.002558297012 -0.0001417371823
v 0.002136823488 0.002558602719 -0.0001410437253
v 0.002144371625 -0.003260845318 -0.0004106174456
v 0.002146786079 -0.002260655398 -2.729744665e-05
v 0.002146879444 0.002260793466 -2.695588591e-05
v 0.002150679706 0.003225694643 -0.000366840075
v 0.002167737111 -0.004949999973 -0.0002313659206
v 0.00216773781 0.004949999973 -0.0002313633013
v 0.002177035902 -0.003014648566 -0.0001431402197
v 0.002179363044 0.00298700342 -0.000118559532
v 0.002187717007 0.002855248051 -1.45157419e-05
v 0.002194693312 0.002667873865 0.0001015074959
v 0.002196206711 -0.002591508674 0.0001384502975
v 0.002198793693 0.002418809803 0.0002072860952
v 0.002199316164 -0.002316785045 0.0002363322128
v 0.002199717797 0.001949999947 0.0002826224663
v 0.002199718729 -0.001949999714 0.0002826258715
v 0.002199736657 -0.002122486243 0.0002724066435
v 0.002199999988 -0.004621993285 0.005545391236
v 0.002199999988 -0.0003038845898 0.002276589861
v 0.002199999988 0.002071435796 0.007261655759
v 0.002199999988 0.004865625873 0.00510519417
v 0.002200000221 -0.002071437426 0.007261661813
v 0.002200000221 -0.001644462231 0.004598539323
v 0.002200000221 -0.001340577612 0.005124884658
v 0.002200000221 0.0003038840368 0.002276590792
v 0.002200000221 0.001496189507 0.007562396117
v 0.002200000221 0.004254163709 0.005875429604
v 0.002200000221 0.004949999973 0.0003357244714
v 0.002200000454 -0.004949999973 0.0003357217938
v 0.002200000454 -0.004254162312 0.00587543752
v 0.002200000454 -0.00175000017 0.004000008572
v 0.002200000454 0.000875000027 0.005515553057
v 0.002200000454 0.001340577612 0.002875123871
v 0.002200000454 0.001340577612 0.00512488652
v 0.002200000454 0.001644461649 0.003401469206
v 0.002200000454 0.004621994682 0.005545383319
v 0.002200000687 -0.004865624942 0.005105207674
v 0.002200000687 -0.001644462231 0.003401473863
v 0.002200000687 -0.0008750000852 0.005515553523
v 0.002200000687 -0.0003038841242 0.005723417737
v 0.002200000687 0.000875000027 0.002484462224
v 0.002200000919 -0.004949999973 0.004609215539
v 0.002200000919 -0.001496197889 0.007562400773
v 0.002200000919 -0.001340577612 0.002875129459
v 0.002200000919 -0.0008750000852 0.002484462922
v 0.002200000919 0.0003038845025 0.005723418668
v 0.002200000919 0.001644461649 0.004598542117
v 0.002200000919 0.001750000054 0.004000007175
v 0.002200000919 0.004949999973 0.004609210882
f 38 40 41
f 41 40 43
f 41 43 45
f 45 43 50
f 50 43 47
f 50 47 52
f 49 51 48
f 49 48 46
f 37 42 39
f 39 42 46
f 39 46 44
f 44 46 48
f 52 47 54
f 52 54 57
f 57 54 56
f 57 56 60
f 60 56 63
f 63 56 62
f 63 62 66
f 66 62 71
f 71 62 67
f 71 67 74
f 311 250 313
f 311 313 336
f 429 409 313
f 313 409 370
f 313 370 336
f 351 394 313
f 313 394 422
f 313 422 429
f 230 285 313
f 313 285 324
f 313 324 351
f 103 108 313
f 313 108 127
f 313 127 230
f 250 200 313
f 313 200 115
f 313 115 103
f 307 443 305
f 305 443 441
f 305 441 304
f 298 300 427
f 427 300 301
f 427 301 428
f 428 301 304
f 428 304 434
f 434 304 441
f 427 425 298
f 298 425 410
f 298 410 295
f 364 291 383
f 383 291 295
f 383 295 402
f 402 295 410
f 280 247 291
f 291 247 244
f 291 244 124
f 71 74 93
f 93 74 83
f 93 83 124
f 124 83 100
f 124 100 291
f 291 100 221
f 291 221 265
f 265 221 246
f 52 57 36
f 364 363 291
f 291 363 358
f 291 358 355
f 41 45 36
f 36 45 50
f 36 50 52
f 331 320 291
f 291 320 308
f 291 308 280
f 57 60 36
f 36 60 63
f 36 63 93
f 93 63 66
f 93 66 71
f 30 26 36
f 36 26 38
f 36 38 41
f 355 349 291
f 291 349 341
f 291 341 331
f 30 24 14
f 20 26 10
f 10 26 30
f 10 30 3
f 3 30 14
f 3 14 7
f 307 306 443
f 443 306 444
f 296 294 403
f 293 290 365
f 293 365 294
f 294 365 386
f 294 386 403
f 296 403 297
f 297 403 413
f 297 413 299
f 299 413 426
f 299 426 302
f 302 426 433
f 302 433 303
f 444 306 442
f 442 306 303
f 442 303 438
f 438 303 433
f 73 70 72
f 72 70 61
f 72 61 65
f 65 61 64
f 64 61 55
f 64 55 59
f 59 55 53
f 59 53 58
f 58 53 48
f 58 48 51
f 222 99 122
f 365 290 366
f 366 290 357
f 248 245 222
f 122 99 91
f 91 99 84
f 91 84 73
f 277 309 290
f 290 270 222
f 222 270 254
f 222 254 248
f 59 58 33
f 33 58 51
f 222 122 290
f 290 122 243
f 290 243 277
f 309 321 290
f 290 321 332
f 290 332 342
f 342 350 290
f 290 350 356
f 290 356 357
f 73 72 91
f 91 72 65
f 91 65 33
f 33 65 64
f 33 64 59
f 51 49 33
f 33 49 46
f 33 46 42
f 42 37 33
f 33 37 27
f 33 27 31
f 31 27 18
f 31 18 21
f 8 15 1
f 1 15 21
f 1 21 11
f 11 21 18
f 314 335 315
f 314 315 253
f 106 118 315
f 315 118 199
f 315 199 253
f 232 126 315
f 315 126 110
f 315 110 106
f 353 323 315
f 315 323 288
f 315 288 232
f 432 424 315
f 315 424 397
f 315 397 353
f 335 373 315
f 315 373 408
f 315 408 432
f 138 151 135
f 135 151 133
f 133 151 129
f 129 151 165
f 129 165 119
f 218 220 221
f 196 204 89
f 119 165 111
f 111 165 166
f 111 166 101
f 101 166 147
f 101 147 95
f 95 147 190
f 95 190 89
f 89 190 194
f 89 194 196
f 220 224 221
f 221 224 226
f 221 226 246
f 83 74 67
f 67 75 83
f 83 75 79
f 83 79 100
f 204 218 89
f 89 218 221
f 89 221 86
f 86 221 100
f 86 100 81
f 81 100 79
f 289 307 305
f 202 215 216
f 246 226 228
f 206 204 196
f 224 220 206
f 206 220 218
f 206 218 204
f 295 291 265
f 196 194 206
f 206 194 190
f 206 190 208
f 208 190 173
f 208 173 210
f 210 173 174
f 210 174 212
f 212 174 181
f 212 181 216
f 216 181 148
f 216 148 202
f 281 256 258
f 281 258 283
f 226 224 228
f 228 224 206
f 228 206 234
f 234 206 208
f 234 208 236
f 236 208 210
f 236 210 238
f 238 210 212
f 238 212 240
f 240 212 216
f 240 216 241
f 241 216 215
f 289 305 272
f 269 272 267
f 267 272 305
f 267 305 264
f 264 305 304
f 264 304 262
f 262 304 301
f 301 300 262
f 262 300 283
f 262 283 260
f 260 283 258
f 300 298 283
f 283 298 295
f 283 295 281
f 281 295 265
f 281 265 256
f 256 265 246
f 256 246 258
f 258 246 228
f 258 228 260
f 260 228 234
f 260 234 262
f 262 234 236
f 262 236 264
f 264 236 238
f 264 238 267
f 267 238 240
f 267 240 269
f 269 240 241
f 282 259 257
f 223 225 227
f 290 293 270
f 270 293 254
f 254 293 294
f 254 294 255
f 255 294 296
f 255 296 257
f 257 245 255
f 255 245 248
f 255 248 254
f 205 203 217
f 223 227 219
f 191 193 205
f 205 193 195
f 205 195 203
f 213 214 201
f 191 205 192
f 192 205 207
f 192 207 170
f 170 207 209
f 170 209 183
f 183 209 211
f 183 211 178
f 178 211 213
f 178 213 189
f 189 213 201
f 189 201 149
f 284 292 263
f 263 292 271
f 263 271 266
f 266 271 268
f 284 263 282
f 282 263 261
f 282 261 259
f 225 245 227
f 227 245 257
f 227 257 233
f 233 257 259
f 233 259 235
f 235 259 261
f 235 261 237
f 237 261 263
f 237 263 239
f 239 263 266
f 239 266 242
f 242 266 268
f 306 292 303
f 303 292 284
f 303 284 302
f 302 284 282
f 302 282 299
f 299 282 257
f 299 257 297
f 297 257 296
f 217 219 205
f 205 219 227
f 205 227 207
f 207 227 233
f 207 233 209
f 209 233 235
f 209 235 211
f 211 235 237
f 211 237 213
f 213 237 239
f 213 239 214
f 214 239 242
f 245 225 222
f 222 225 223
f 222 223 219
f 217 203 90
f 90 203 195
f 195 193 90
f 90 193 191
f 90 191 98
f 98 191 102
f 191 139 102
f 102 139 140
f 102 140 114
f 114 140 120
f 140 141 120
f 120 141 171
f 120 171 131
f 171 155 131
f 131 155 180
f 131 180 134
f 134 180 154
f 219 217 222
f 222 217 90
f 222 90 99
f 90 87 99
f 99 87 82
f 99 82 84
f 70 73 76
f 76 73 84
f 76 84 78
f 78 84 82
f 36 35 29
f 36 29 30
f 30 29 23
f 30 23 24
f 24 23 13
f 24 13 14
f 14 13 6
f 14 6 7
f 7 6 2
f 7 2 3
f 3 2 9
f 3 9 10
f 10 9 17
f 10 17 20
f 20 17 25
f 20 25 26
f 38 26 25
f 68 67 62
f 68 62 25
f 62 56 25
f 25 56 54
f 25 54 47
f 47 43 25
f 25 43 40
f 25 40 38
f 67 68 75
f 75 68 77
f 75 77 79
f 79 77 81
f 81 77 85
f 81 85 86
f 86 85 89
f 89 85 96
f 89 96 95
f 95 96 101
f 101 96 112
f 101 112 111
f 159 138 135
f 159 135 130
f 135 133 130
f 130 133 129
f 130 129 112
f 112 129 119
f 112 119 111
f 522 534 160
f 160 143 522
f 522 143 172
f 522 172 541
f 541 172 142
f 541 142 546
f 35 36 92
f 92 36 93
f 320 318 308
f 364 382 363
f 461 434 464
f 464 434 441
f 464 441 466
f 466 441 443
f 466 443 472
f 399 383 412
f 412 383 402
f 412 402 435
f 435 402 410
f 435 410 454
f 454 410 425
f 454 425 457
f 457 425 427
f 457 427 461
f 461 427 428
f 461 428 434
f 376 362 374
f 364 383 382
f 382 383 399
f 382 399 363
f 363 399 374
f 363 374 358
f 358 374 362
f 358 362 355
f 341 339 331
f 331 339 343
f 331 343 320
f 320 343 345
f 320 345 318
f 474 487 497
f 497 487 503
f 503 487 495
f 503 495 506
f 404 401 440
f 440 401 420
f 440 420 452
f 339 359 343
f 343 359 367
f 343 367 345
f 345 367 377
f 355 362 349
f 349 362 376
f 349 376 341
f 341 376 385
f 341 385 339
f 339 385 391
f 339 391 359
f 359 391 393
f 359 393 367
f 367 393 388
f 367 388 377
f 418 415 455
f 455 415 446
f 455 446 463
f 244 247 276
f 276 247 280
f 276 280 279
f 279 280 308
f 279 308 310
f 310 308 318
f 310 318 326
f 326 318 345
f 326 345 347
f 347 345 377
f 492 500 489
f 489 500 507
f 489 507 484
f 484 507 504
f 484 504 479
f 479 504 499
f 479 499 477
f 477 499 495
f 477 495 471
f 471 495 487
f 471 487 458
f 458 487 474
f 458 474 452
f 452 474 463
f 452 463 440
f 440 463 446
f 440 446 404
f 404 446 415
f 506 495 512
f 512 495 499
f 512 499 516
f 516 499 504
f 516 504 518
f 518 504 507
f 518 507 521
f 521 507 500
f 521 500 520
f 497 493 474
f 474 493 483
f 474 483 463
f 463 483 469
f 463 469 455
f 455 469 447
f 455 447 418
f 418 447 439
f 472 492 466
f 466 492 489
f 466 489 464
f 464 489 484
f 464 484 461
f 461 484 479
f 461 479 457
f 457 479 477
f 457 477 454
f 454 477 471
f 454 471 435
f 435 471 458
f 435 458 412
f 412 458 452
f 412 452 399
f 399 452 420
f 399 420 374
f 374 420 401
f 374 401 376
f 376 401 404
f 376 404 385
f 385 404 415
f 385 415 391
f 391 415 418
f 391 418 393
f 393 418 439
f 393 439 388
f 443 444 473
f 519 520 501
f 501 520 500
f 501 500 491
f 491 500 492
f 491 492 473
f 473 492 472
f 473 472 443
f 366 381 365
f 321 317 346
f 317 321 309
f 277 243 249
f 332 340 342
f 342 340 384
f 342 384 350
f 365 381 386
f 357 369 366
f 366 369 398
f 366 398 381
f 381 398 411
f 381 411 386
f 386 411 436
f 386 436 403
f 403 436 453
f 403 453 413
f 413 453 456
f 413 456 426
f 426 456 460
f 426 460 433
f 433 460 465
f 433 465 438
f 438 465 467
f 438 467 442
f 442 467 473
f 442 473 444
f 361 375 387
f 387 375 400
f 387 400 405
f 405 400 419
f 405 419 451
f 332 321 344
f 344 321 346
f 344 346 360
f 360 346 368
f 360 368 390
f 390 368 392
f 390 392 437
f 249 275 277
f 277 275 278
f 277 278 309
f 309 278 319
f 309 319 317
f 317 319 327
f 317 327 346
f 346 327 348
f 346 348 368
f 368 348 378
f 368 378 392
f 392 378 389
f 392 389 437
f 486 502 494
f 494 502 509
f 494 509 498
f 462 482 475
f 475 482 488
f 475 488 486
f 486 488 496
f 486 496 502
f 519 501 517
f 517 501 508
f 517 508 515
f 515 508 505
f 515 505 514
f 514 505 498
f 514 498 513
f 513 498 509
f 501 491 508
f 508 491 490
f 508 490 505
f 505 490 485
f 505 485 498
f 498 485 478
f 498 478 494
f 494 478 476
f 494 476 486
f 486 476 470
f 486 470 475
f 475 470 459
f 475 459 462
f 462 459 451
f 462 451 445
f 445 451 419
f 445 419 414
f 414 419 400
f 414 400 384
f 384 400 375
f 384 375 350
f 350 375 361
f 350 361 356
f 332 344 340
f 340 344 360
f 340 360 384
f 384 360 390
f 384 390 414
f 414 390 437
f 414 437 445
f 445 437 448
f 445 448 462
f 462 448 468
f 462 468 482
f 491 473 490
f 490 473 467
f 490 467 485
f 485 467 465
f 485 465 478
f 478 465 460
f 478 460 476
f 476 460 456
f 476 456 470
f 470 456 453
f 470 453 459
f 459 453 436
f 459 436 451
f 451 436 411
f 451 411 405
f 405 411 398
f 405 398 387
f 387 398 369
f 387 369 361
f 361 369 357
f 361 357 356
f 34 33 31
f 34 31 32
f 32 31 21
f 32 21 22
f 22 21 15
f 22 15 16
f 16 15 8
f 16 8 5
f 5 8 1
f 5 1 4
f 4 1 11
f 4 11 12
f 12 11 18
f 12 18 19
f 19 18 27
f 19 27 28
f 53 55 28
f 28 55 69
f 69 55 61
f 69 61 70
f 27 37 28
f 28 37 39
f 39 44 28
f 28 44 48
f 28 48 53
f 70 76 69
f 69 76 80
f 76 78 80
f 80 78 82
f 80 82 88
f 88 82 87
f 88 87 97
f 97 87 90
f 97 90 98
f 134 154 164
f 134 164 131
f 131 164 132
f 131 132 120
f 120 132 113
f 120 113 114
f 97 98 113
f 113 98 102
f 113 102 114
f 34 94 33
f 33 94 91
f 163 153 531
f 531 540 163
f 163 540 525
f 163 525 146
f 146 525 553
f 146 553 188
f 530 524 416
f 416 524 333
f 334 526 417
f 417 526 547
f 138 158 157
f 191 179 139
f 139 179 170
f 139 170 140
f 162 153 169
f 169 153 186
f 169 168 162
f 162 168 145
f 162 145 156
f 156 145 176
f 183 154 180
f 152 177 154
f 154 177 136
f 154 136 161
f 153 163 186
f 186 163 146
f 186 146 187
f 187 146 188
f 187 188 161
f 161 188 164
f 161 164 154
f 176 182 156
f 156 182 158
f 156 158 160
f 160 158 138
f 180 155 183
f 183 155 171
f 183 171 170
f 170 171 141
f 170 141 140
f 172 143 142
f 142 143 160
f 142 160 159
f 159 160 138
f 157 167 138
f 138 167 175
f 138 175 151
f 151 175 184
f 173 190 147
f 183 178 154
f 154 178 150
f 154 150 152
f 152 150 149
f 152 149 144
f 144 149 148
f 144 148 185
f 185 148 181
f 185 181 184
f 184 181 165
f 184 165 151
f 181 137 165
f 165 137 173
f 165 173 166
f 166 173 147
f 156 160 334
f 334 160 534
f 334 534 526
f 229 128 35
f 546 337 372
f 546 372 533
f 35 92 229
f 229 92 121
f 229 121 287
f 287 121 274
f 287 274 325
f 337 546 316
f 316 546 142
f 316 142 251
f 251 142 159
f 251 159 197
f 197 159 130
f 197 130 117
f 117 130 112
f 117 112 104
f 104 112 96
f 104 96 107
f 107 96 85
f 107 85 128
f 128 85 77
f 128 77 35
f 274 330 325
f 325 330 379
f 325 379 352
f 352 379 449
f 352 449 396
f 396 449 481
f 396 481 421
f 421 481 510
f 421 510 431
f 431 510 533
f 431 533 406
f 406 533 372
f 77 68 35
f 35 68 25
f 35 25 29
f 29 25 17
f 29 17 9
f 13 23 6
f 6 23 29
f 6 29 2
f 2 29 9
f 328 327 273
f 273 327 319
f 319 278 273
f 273 278 275
f 273 275 123
f 123 275 249
f 123 249 243
f 380 450 437
f 437 389 380
f 380 389 378
f 380 378 328
f 328 378 348
f 328 348 327
f 480 468 450
f 450 468 448
f 450 448 437
f 502 496 511
f 511 496 488
f 511 488 480
f 480 488 482
f 480 482 468
f 510 512 533
f 533 512 516
f 533 516 518
f 518 521 533
f 533 521 520
f 533 520 532
f 520 519 532
f 532 519 517
f 532 517 515
f 515 514 532
f 532 514 513
f 532 513 511
f 511 513 509
f 511 509 502
f 497 503 510
f 510 503 506
f 510 506 512
f 481 449 447
f 447 469 481
f 481 469 483
f 481 483 510
f 510 483 493
f 510 493 497
f 379 388 449
f 449 388 439
f 449 439 447
f 329 347 379
f 379 347 377
f 379 377 388
f 276 279 274
f 274 279 310
f 274 310 329
f 329 310 326
f 329 326 347
f 276 274 244
f 244 274 121
f 244 121 124
f 124 121 92
f 124 92 93
f 243 122 123
f 123 122 91
f 123 91 94
f 532 430 407
f 532 407 553
f 430 532 423
f 423 532 511
f 423 511 395
f 395 511 480
f 395 480 354
f 286 123 231
f 231 123 94
f 231 94 125
f 480 450 354
f 354 450 380
f 354 380 322
f 322 380 328
f 322 328 286
f 286 328 273
f 286 273 123
f 407 371 553
f 553 371 338
f 553 338 188
f 188 338 312
f 188 312 164
f 164 312 252
f 164 252 132
f 132 252 198
f 132 198 116
f 12 19 28
f 34 69 80
f 94 34 125
f 125 34 80
f 125 80 109
f 109 80 88
f 109 88 105
f 105 88 97
f 105 97 116
f 116 97 113
f 116 113 132
f 69 34 28
f 28 34 32
f 28 32 12
f 5 4 16
f 16 4 12
f 16 12 22
f 22 12 32
f 524 531 333
f 333 531 153
f 333 153 162
f 162 156 334
f 547 530 417
f 417 530 416
f 417 416 334
f 334 416 333
f 334 333 162
f 539 537 532
f 539 532 552
f 549 548 533
f 533 548 542
f 533 542 546
f 546 542 535
f 546 535 541
f 541 535 527
f 532 553 552
f 552 553 525
f 552 525 551
f 551 525 540
f 551 540 538
f 538 540 531
f 538 531 536
f 536 531 524
f 536 524 550
f 550 524 530
f 550 530 544
f 544 530 547
f 544 547 543
f 543 547 526
f 543 526 528
f 528 526 534
f 528 534 527
f 527 534 522
f 527 522 541
f 537 545 532
f 532 545 529
f 532 529 533
f 533 529 523
f 533 523 549
f 148 149 202
f 202 149 201
f 202 201 215
f 215 201 214
f 215 214 241
f 241 214 242
f 241 242 269
f 269 242 268
f 269 268 272
f 272 268 271
f 272 271 289
f 289 271 292
f 289 292 307
f 307 292 306
f 311 251 250
f 250 251 197
f 250 197 200
f 200 197 117
f 200 117 115
f 115 117 104
f 115 104 103
f 103 104 107
f 103 107 108
f 108 107 128
f 108 128 127
f 127 128 229
f 127 229 230
f 230 229 287
f 230 287 285
f 285 287 325
f 285 325 324
f 324 325 352
f 324 352 351
f 351 352 396
f 351 396 394
f 394 396 421
f 394 421 422
f 422 421 431
f 422 431 429
f 429 431 406
f 429 406 409
f 409 406 372
f 409 372 370
f 370 372 337
f 370 337 336
f 336 337 316
f 336 316 311
f 311 316 251
f 312 253 252
f 252 253 199
f 252 199 198
f 198 199 118
f 198 118 116
f 116 118 106
f 116 106 105
f 105 106 110
f 105 110 109
f 109 110 126
f 109 126 125
f 125 126 232
f 125 232 231
f 231 232 288
f 231 288 286
f 286 288 323
f 286 323 322
f 322 323 353
f 322 353 354
f 354 353 397
f 354 397 395
f 395 397 424
f 395 424 423
f 423 424 432
f 423 432 430
f 430 432 408
f 430 408 407
f 407 408 373
f 407 373 371
f 371 373 335
f 371 335 338
f 338 335 314
f 338 314 312
f 312 314 253
f 187 552 186
f 186 552 551
f 186 551 169
f 169 551 538
f 169 538 168
f 168 538 536
f 168 536 145
f 145 536 550
f 145 550 176
f 176 550 544
f 176 544 182
f 182 544 543
f 182 543 158
f 158 543 528
f 158 528 157
f 157 528 527
f 157 527 167
f 167 527 535
f 167 535 175
f 175 535 542
f 175 542 184
f 184 542 548
f 184 548 185
f 185 548 549
f 185 549 144
f 144 549 523
f 144 523 152
f 152 523 529
f 152 529 177
f 177 529 545
f 177 545 136
f 136 545 537
f 136 537 161
f 161 537 539
f 161 539 187
f 187 539 552
