v -0.01046617236 0.002950001275 -0.004129087087
v -0.01046617143 -0.004949998111 -0.004129089415
v -0.01046617143 -0.002949997783 -0.004129085224
v -0.0104661705 0.00495000137 -0.004129083361
v -0.01045349427 -0.00294999918 -0.0047033187
v -0.01045349427 0.004950000905 -0.004703316838
v -0.01045349333 -0.004949998576 -0.004703315441
v -0.01045349333 0.002950001741 -0.004703313578
v -0.01026210655 -0.004949998576 -0.00359219173
v -0.01026210655 -0.002949998714 -0.003592187539
v -0.01026210655 0.002950001275 -0.003592189634
v -0.01026210655 0.00495000137 -0.003592185676
v -0.01022593305 -0.004949998576 -0.005230686162
v -0.01022593305 -0.002949998248 -0.005230681971
v -0.01022593305 0.002950001741 -0.005230684299
v -0.01022593305 0.00495000137 -0.005230687559
v -0.009871219285 -0.002949998481 -0.003171349643
v -0.009871219285 0.00495000137 -0.00317134778
v -0.009871218354 -0.004949998111 -0.003171346383
v -0.009871218354 0.002950001275 -0.003171344288
v -0.009816854261 -0.004949997179 -0.005633867346
v -0.009816854261 -0.002949998016 -0.005633871071
v -0.009816854261 0.00495000137 -0.005633868743
v -0.00981685333 0.002950001741 -0.005633865483
v -0.009350823238 0.002950001508 -0.00292825955
v -0.009350822307 -0.004949998576 -0.002928261645
v -0.009350822307 -0.00294999918 -0.002928264905
v -0.009350822307 0.004950000905 -0.002928263042
v -0.009286236949 0.004950000905 -0.005853749812
v -0.009286236018 -0.004949997645 -0.005853748415
v -0.009286236018 -0.00294999755 -0.005853744689
v -0.009286236018 0.002950001508 -0.005853746552
v -0.008711883798 -0.002949997783 -0.005858086981
v -0.008711882867 -0.004949999042 -0.005858083256
v -0.008711882867 0.002950001508 -0.005858088844
v -0.008711882867 0.00495000137 -0.005858085118
v -0.008094246499 -0.002949998714 -0.002614961937
v -0.008094245568 0.002950001275 -0.002614964033
v -0.007662612945 -0.002998621203 -0.002507346915
v -0.007662612945 0.002998624463 -0.002507347846
v -0.00751494104 -0.002949998714 -0.002552335616
v -0.00751494104 0.002950001275 -0.002552337479
v -0.007244183216 -0.003145656548 -0.002403022256
v -0.007244182751 0.003145658644 -0.00240302179
v -0.007083447184 -0.002949998016 -0.002593651414
v -0.007083447184 0.002950001042 -0.002593653509
v -0.006867367309 -0.003383919364 -0.00230906764
v -0.006867366843 0.003383921925 -0.002309069037
v -0.006826185621 -0.00294999918 -0.002644952852
v -0.00682618469 0.002950001508 -0.002644947497
v -0.006406818982 -0.002949998714 -0.002760840813
v -0.006406818051 0.002950001042 -0.002760835458
v -0.006188774016 0.003840642283 -0.002139875665
v -0.006184490398 -0.003843025304 -0.002138806507
v -0.005446514115 0.00417606486 -0.001954811625
v -0.005437301006 -0.004179310054 -0.001952509745
v -0.005289424211 -0.002949998714 -0.003041000338
v -0.005289424211 0.002950001974 -0.003040994983
v -0.004740817007 0.002950001741 -0.003109614598
v -0.004732353613 -0.002949998714 -0.003110225545
v -0.004660819191 0.004381047096 -0.001758916536
v -0.004646410234 -0.004383498803 -0.001755322912
v -0.004386721179 -0.00294999918 -0.003121990012
v -0.004386720248 0.002950001508 -0.003121984657
v -0.004083695356 0.00295000081 -0.00310933101
v -0.004072706215 -0.002949998714 -0.003108435078
v -0.003853108734 -0.004949998111 -0.001557531185
v -0.003853108734 -0.004449998029 -0.001557528274
v -0.003853108268 0.00495000137 -0.001557532582
v -0.003853107803 0.004450000823 -0.001557527925
v -0.003664740827 0.002950000577 -0.003051864915
v -0.003664740128 -0.002949997783 -0.003051863052
v -0.003490225878 -0.002949998947 -0.003012975911
v -0.003490224946 0.002950001974 -0.003012970556
v -0.003166011069 -0.004449998494 -0.001307504252
v -0.003166011069 0.004450001288 -0.001307503902
v -0.003073043423 -0.00444999896 -0.001260455581
v -0.003073043423 0.004450000823 -0.001260455232
v -0.00307304319 0.004950000905 -0.001260452438
v -0.003073042957 -0.004949998576 -0.001260451041
v -0.002545853145 -0.004449998494 -0.000920182385
v -0.002545853145 0.004450001288 -0.000920182094
v -0.002508658683 0.002950001042 -0.002655794146
v -0.002508657984 -0.002949998248 -0.002655792283
v -0.002385507105 0.004950000905 -0.0007871177513
v -0.002385506872 -0.004949997645 -0.0007871164125
v -0.002385506639 -0.004449997563 -0.0007871135604
v -0.002385506639 0.004450001288 -0.0007871132111
v -0.002019698964 -0.004449998029 -0.0004124635307
v -0.002019698964 0.004450001754 -0.0004124632396
v -0.001879808377 -0.002949999413 -0.004578873515
v -0.001879807911 0.004950001836 -0.004578871652
v -0.001879807678 -0.004949999042 -0.004578870255
v -0.001879807329 0.002950001275 -0.004578868393
v -0.001829604851 -0.004949998111 -0.0001644374424
v -0.001829604269 0.004950000439 -0.0001644388249
v -0.001829603803 -0.004449997563 -0.000164434663
v -0.001829603803 0.004450001288 -0.0001644342847
v -0.001622718875 -0.002949998248 -0.002102477476
v -0.001622718642 0.00295000081 -0.002102479339
v -0.001606240985 0.00444516167 0.0001912129665
v -0.001606240286 -0.004445159342 0.0001912138396
v -0.001500000129 -0.004949998111 2.335184268e-09
v -0.001499999897 -0.006999998353 2.514789488e-09
v -0.001499998965 0.007000001613 8.12972134e-09
v -0.001499998849 0.004950001836 8.265526485e-09
v -0.0014025243 -0.004949998576 0.0006031756056
v -0.001402523718 -0.004428876564 0.0006031786324
v -0.001402523601 0.004428879358 0.000603178516
v -0.001402523601 0.004950000905 0.0006031741505
v -0.001385819516 -0.006999998819 0.0005740263732
v -0.001385819283 -0.004949999042 -0.0005740239867
v -0.00138581905 -0.006999999285 -0.0005740238121
v -0.00138581905 -0.004949998111 0.000574033591
v -0.00138581905 0.007000001613 -0.0005740181659
v -0.001385818934 0.004950000905 -0.0005740179331
v -0.001385818585 0.007000001613 0.0005740319029
v -0.001385818468 0.00495000137 0.0005740320776
v -0.001301206765 -0.004413640127 0.0008611854864
v -0.001301206765 0.004413642921 0.0008611841477
v -0.001288665109 0.004950000439 -0.004430395551
v -0.00128866476 -0.004949999042 -0.004430394154
v -0.00128866476 -0.002949998947 -0.004430389963
v -0.001288664411 0.002950001275 -0.004430392291
v -0.001139045926 -0.004367107525 0.001441152068
v -0.001139045693 0.004367110319 0.001441153814
v -0.00113904546 0.00495000137 0.001441152184
v -0.001139045111 -0.004949998111 0.001441153581
v -0.001112057827 -0.004353231285 0.001584357116
v -0.001065625693 0.004314160906 0.001947403071
v -0.001065589488 -0.004314110149 0.001947826822
v -0.001060659997 0.007000001147 0.001060664887
v -0.001060659881 -0.004949998576 -0.001060658135
v -0.001060659881 0.004950000905 0.001060665003
v -0.001060659764 -0.006999998353 -0.001060657902
v -0.001060659764 0.007000001613 -0.001060652197
v -0.001060659532 -0.004949997645 0.0010606664
v -0.001060659532 0.004950001836 -0.001060652081
v -0.001060659415 -0.006999997888 0.001060666516
v -0.001050000312 -0.004269185476 0.002315045334
v -0.001050000312 0.004254165106 0.005875427742
v -0.001050000195 -0.002500233939 0.006989334244
v -0.001050000195 -0.002341571031 -4.349017763e-05
v -0.001050000195 -0.0003038830764 0.005723415874
v -0.001050000195 0.004865626805 0.005105192773
v -0.001050000079 -0.004289402161 0.00155802432
v -0.001050000079 -0.002829235513 -0.000232051374
v -0.001050000079 0.003943862393 0.0001868846739
v -0.001049999963 -0.004865624011 0.005105201621
v -0.001049999963 0.001340578427 0.002875123639
v -0.001049999963 0.001750001102 0.004000004847
v -0.001049999963 0.004149019253 0.0007772942772
v -0.001049999963 0.004269187339 0.002315047663
v -0.001049999963 0.004290797282 0.001576833194
v -0.001049999846 -0.003813346149 -0.0001084416872
v -0.001049999846 -0.00134057703 0.005124880932
v -0.001049999846 -0.0008749990375 0.005515548401
v -0.001049999846 0.0008750018897 0.005515551195
v -0.001049999846 0.002500229981 0.006989336107
v -0.001049999846 0.00495000137 0.0023150458
v -0.00104999973 -0.00415100297 0.0007844372885
v -0.00104999973 -0.003094899934 -0.0004174656642
v -0.00104999973 -0.00164446095 0.004598543514
v -0.00104999973 0.001340578776 0.005124881864
v -0.00104999973 0.001950000646 2.201902878e-07
v -0.00104999973 0.003803565167 -0.0001291428925
v -0.00104999973 0.004300054628 0.001810107031
v -0.001049999613 -0.004949999042 0.002315047197
v -0.001049999613 -0.004621991888 0.005545395892
v -0.001049999613 0.0003038853174 0.005723419134
v -0.001049999613 0.001644463511 0.00459854072
v -0.001049999613 0.002800661605 -0.000216802684
v -0.001049999613 0.004213086795 0.00103648589
v -0.001049999497 -0.003833909752 -6.43575695e-05
v -0.001049999497 -0.0003038833092 0.002276592655
v -0.001049999497 0.0003038853465 0.002276588697
v -0.001049999497 0.002461237833 -7.501922664e-05
v -0.001049999497 0.004621995613 0.005545386113
v -0.00104999938 -0.004949997645 0.004609217867
v -0.00104999938 -0.001644460601 0.003401471069
v -0.00104999938 -0.001340575749 0.002875129925
v -0.00104999938 0.001644462929 0.003401468508
v -0.00104999938 0.00495000137 0.00460920902
v -0.001049999264 -0.002341571031 -4.349025403e-05
v -0.001049999264 0.0008750019479 0.002484463155
v -0.001049999148 -0.004254159983 0.005875442177
v -0.001049999148 -0.002829235513 -0.0002320514468
v -0.001049999148 -0.001949997502 2.260021721e-07
v -0.001049999148 -0.001749999123 0.004000007175
v -0.001049999148 -0.0008749989793 0.002484460827
v -0.001049999148 0.003108265111 -0.0004287628981
v -0.001049999031 -0.002639859216 -0.0001391120313
v -0.001049999031 -0.002302587731 -3.513156116e-05
v -0.001049998449 0.003442480695 -0.0008065745933
v -0.001049998216 -0.003442479298 -0.000806567492
v -0.001032840228 0.003339713905 -0.0009557537269
v -0.001032679458 -0.003339939984 -0.0009551692638
v -0.001022435841 0.003310140222 -0.0009908153443
v -0.001021716394 -0.003309139516 -0.0009915150004
v -0.0009915633127 -0.001949998783 -0.0002999175631
v -0.0009915633127 0.001950000995 -0.0002999160788
v -0.0009855346289 0.003232694231 -0.001069580438
v -0.0009849669877 -0.003232491901 -0.001069179387
v -0.000984590617 0.003180316882 -0.0009877013508
v -0.0009840071434 -0.003180337138 -0.0009876833064
v -0.0009825285524 0.002993516391 -0.0007610442699
v -0.0009818937397 -0.002993538743 -0.0007610215107
v -0.0009808118921 0.002768222475 -0.0005768291303
v -0.000980130746 -0.002768241568 -0.0005768042174
v -0.0009795214282 0.002512321575 -0.0004415969306
v -0.0009788036114 -0.002512336243 -0.0004415685544
v -0.0009787108283 0.002236103406 -0.0003583851503
v -0.0009786018636 0.001950000995 -0.0003301400284
v -0.0009784293361 -0.001949997386 -0.0003305164864
v -0.0009779691463 -0.002236111322 -0.0003583487705
v -0.0009638033225 0.003196585458 -0.001100376481
v -0.0009618591284 -0.003194194287 -0.001101766597
v -0.0009337906376 0.003152950667 -0.00113279256
v -0.0009322033729 -0.003151137149 -0.001133698388
v -0.0008710706024 -0.002949998481 -0.001377171138
v -0.0008710696711 0.002950001275 -0.001377165667
v -0.0008335480234 0.003036257578 -0.001194101409
v -0.0008326889947 -0.003035326023 -0.001194507699
v -0.0007939114585 0.00299772108 -0.001205971581
v -0.0007938841009 -0.002997698262 -0.001205965644
v -0.0007915318129 0.002953484189 -0.001137345214
v -0.0007914991584 -0.002953466261 -0.001137361745
v -0.0007837479934 0.002798058093 -0.0009536124999
v -0.0007837085286 -0.002798050176 -0.0009536464349
v -0.0007772897952 0.002612926997 -0.0008053032798
v -0.0007772429963 -0.002612925367 -0.000805341173
v -0.0007724461611 0.002404600149 -0.000697217416
v -0.0007723957533 -0.002404605737 -0.0006972738774
v -0.0007694064407 0.002180967713 -0.0006311724428
v -0.0007693514926 -0.002180971438 -0.0006312297774
v -0.0007674313965 -0.001949997619 -0.0006099138409
v -0.0007674313965 0.001950001228 -0.0006099122693
v -0.0007424473879 -0.002949998947 -0.00422130432
v -0.0007424473297 0.002950001741 -0.004221298732
v -0.0007401093026 0.002950001508 -0.001214453136
v -0.0007400193717 -0.002949998714 -0.001214338467
v -0.0006114498829 0.00295000081 -0.001396293985
v -0.0006089399685 0.002950001275 -0.001399590285
v -0.0005798274069 0.003007166553 -0.004144402687
v -0.0005740251509 0.00495000137 0.001385823474
v -0.0005740248598 -0.004949999042 0.001385824988
v -0.0005740248598 0.007000001147 -0.001385814743
v -0.0005740247434 -0.006999999285 0.001385825104
v -0.0005740246852 -0.006999998353 -0.001385812997
v -0.0005740246852 0.00495000137 -0.001385814627
v -0.0005740243942 -0.004949998111 -0.00138581323
v -0.0005740243359 0.007000001613 0.001385823241
v -0.0005286791711 0.002950001508 -0.001501701772
v -0.0005212493706 0.002915240824 -0.001413705875
v -0.0005212364485 -0.002914795419 -0.001413866761
v -0.0005042304401 0.002812245162 -0.001230109716
v -0.0005041987752 -0.002811851213 -0.001230399357
v -0.0004891481367 0.002679003635 -0.00107071863
v -0.0004890952841 -0.002678680001 -0.00107114471
v -0.0004766972852 0.002520063659 -0.0009419071721
v -0.0004766251659 -0.002519828267 -0.0009424559539
v -0.0004674058873 0.002341012703 -0.000847913383
v -0.0004673180811 -0.002340868814 -0.0008485658327
v -0.0004669634509 -0.002949998481 -0.001578245894
v -0.0004616006336 0.002148686675 -0.0007904029335
v -0.0004615028156 -0.002148627071 -0.0007911253488
v -0.0004600055399 0.001950001344 -0.0007717209519
v -0.0004595885694 -0.001949998434 -0.000771832536
v -0.0004456970782 -0.002949997783 -0.004067859147
v -0.0004291165969 0.002950001508 -0.001621004078
v -0.0004249915364 -0.001949998317 -0.0007804057095
v -0.0004249915073 0.001950001461 -0.0007804041961
v -0.0004083706008 0.00495000137 -0.004055188503
v -0.0004083703679 -0.004949999042 -0.004055187106
v -0.0004078184429 0.00307110115 -0.004055102356
v -0.0004077572376 -0.003071399638 -0.00405439036
v -0.0003851921065 0.002950001508 -0.004031681921
v -0.0003764257708 -0.003083420685 -0.004037088715
v -0.0003614648595 -0.002878060564 -0.001428532531
v -0.0003221104562 0.00265498925 -0.001094287727
v -0.0003221096122 -0.002654906129 -0.001094483188
v -0.0002956534154 0.002329644049 -0.0008749612607
v -0.0002499997208 0.002950001508 -0.001827546745
v -0.0002499995753 -0.002949997783 -0.001827544882
v -0.0002499995753 -0.001949998783 -0.0007997095818
v -0.0002499972761 0.001950001461 -0.0007995732012
v -0.0002025446593 0.00288797589 -0.001472305506
v -0.0001975508203 -0.002873945283 -0.001434922335
v -0.0001729334908 0.002779964823 -0.001250642468
v -0.0001565521234 0.002688855631 -0.001128015225
v -0.0001523992105 -0.002660871018 -0.001096925233
v -0.0001502747473 0.00264562876 -0.001081023132
v -0.0001500571962 -0.002644017106 -0.001079393202
v -0.0001345281344 -0.002506046323 -0.0009631451685
v -0.0001212472271 0.002324451692 -0.0008637240389
v -0.000121045603 -0.002320828615 -0.0008622151217
v -0.0001138024891 -0.002145203762 -0.0008079981199
v -0.0001110808807 -0.001949998434 -0.0007876220625
v -0.0001110808662 0.001950001228 -0.0007876206073
v -0.0001102517563 -0.002949998016 -0.003838184057
v -6.498904258e-05 0.002950001275 -0.003802536288
v -2.922840577e-05 0.00322093931 -0.003826495958
v -3.130495998e-06 -0.003232182469 -0.003807538655
v 5.055679491e-11 0.007000000682 0.001500002458
v 1.35152986e-10 -0.004949999508 -0.001499996288
v 1.993747807e-10 0.007000001147 -0.001499998034
v 2.154859207e-10 -0.006999998353 0.001500004204
v 2.359864804e-10 0.00495000137 0.001500002574
v 3.629438417e-10 0.004950000905 -0.001499997801
v 3.86164517e-10 -0.006999997422 -0.001499996288
v 5.154430215e-10 -0.004949998111 0.001500003971
v 5.675649394e-10 -0.006999998353 7.725333706e-09
v 9.098832244e-10 0.007000001613 5.858302288e-09
v 2.255697837e-05 0.003012657166 -0.003753173165
v 2.356582081e-05 -0.003013614565 -0.003751212033
v 0.0001254671661 0.003284089267 -0.003719110042
v 0.0001606743899 -0.00294999918 -0.00359428511
v 0.0001930422004 0.00295000081 -0.003561548423
v 0.0003828250919 -0.003388995305 -0.003520388855
v 0.0003829969792 0.003389081219 -0.003520115977
v 0.0003843234445 0.00495000137 -0.003519155551
v 0.0003843237355 -0.004949998576 -0.003519154154
v 0.0004069962597 -0.002949998481 -0.003307097824
v 0.0004350090749 0.002950001508 -0.003268260043
v 0.0004944154643 0.002071437426 0.007261660416
v 0.0004944368848 -0.002071435098 0.007261662744
v 0.0005740250344 -0.004949999508 0.001385820797
v 0.0005740250926 -0.004949998576 -0.001385817304
v 0.0005740252091 -0.006999999285 0.00138582103
v 0.0005740252673 -0.006999998819 -0.001385817071
v 0.0005740257329 0.007000001147 0.001385826617
v 0.0005740257329 0.007000001613 -0.001385811483
v 0.0005740259076 0.004950001836 -0.001385811251
v 0.0005740259076 0.004950001836 0.001385826734
v 0.0005944130826 -0.002958957339 -0.003035300411
v 0.0005950895138 0.002959725447 -0.003033606336
v 0.0006044634501 -0.002949999413 -0.003000471042
v 0.0006333367783 0.002950001508 -0.002945219632
v 0.0006379928673 -0.003113355255 -0.003158176318
v 0.0006386928144 0.003114157822 -0.00315645407
v 0.0006452688831 -0.003291246947 -0.003253908595
v 0.0006459940923 0.003292058595 -0.003252149792
v 0.0006713073817 -0.00350240618 -0.003263963154
v 0.0007107207202 0.003518044017 -0.003224334912
v 0.0007583546103 -0.002949997783 -0.002667978639
v 0.0007825390785 0.002950001741 -0.0026006673
v 0.0008608601056 -0.002949999413 -0.002327680355
v 0.0008779828204 0.002950001275 -0.002246435732
v 0.0009034160175 -0.002949998248 -0.002084799344
v 0.0009134921129 0.002973483875 -0.002304501366
v 0.0009142126655 -0.00297408225 -0.00230271183
v 0.0009144612122 -0.00294999755 -0.001975317951
v 0.0009158314206 0.002949846443 -0.001621980686
v 0.0009158320609 -0.002950353781 -0.00162197568
v 0.0009198481566 0.002950001042 -0.001885753125
v 0.0009277493809 -0.003408948891 -0.002963287989
v 0.0009285083506 0.003409645287 -0.002962104278
v 0.00101149804 -0.002978872741 -0.001969311154
v 0.001021283795 0.003067399608 -0.002409800654
v 0.001021992764 -0.003068039427 -0.002407860942
v 0.00105888606 -0.003639986273 -0.002842886606
v 0.001059203641 0.003640001873 -0.002843299182
v 0.001060382463 -0.004949998111 -0.00284192781
v 0.001060382812 0.004950001836 -0.002841921756
v 0.00106066023 -0.004949998111 -0.001060658833
v 0.001060660463 -0.006999998353 -0.001060658717
v 0.001060660579 -0.004949997645 0.001060665585
v 0.001060660579 0.007000001147 0.001060664072
v 0.001060660812 -0.006999997422 0.001060665702
v 0.001060660812 0.00495000137 0.001060664188
v 0.001060660928 0.007000001613 -0.001060653012
v 0.001060661045 0.004950000905 -0.001060652779
v 0.001076845336 0.002966466825 -0.001667929813
v 0.001077844761 -0.002967206296 -0.001667069737
v 0.001101515605 -0.002934947843 -0.001413732185
v 0.001105675241 0.003191242227 -0.00250487146
v 0.00110635336 -0.003191913478 -0.002502807183
v 0.001124319155 0.002930327551 -0.001384785632
v 0.001133858925 0.003045982681 -0.002058707876
v 0.001162408502 0.003339157673 -0.002585004549
v 0.001163031324 -0.003339868039 -0.002582826652
v 0.0011654587 -0.003672265913 -0.002708052285
v 0.001185487839 0.003677255241 -0.002683389699
v 0.001188771101 0.003503738903 -0.002646350302
v 0.001189323491 -0.003504523542 -0.002644059248
v 0.001209256821 0.003012971487 -0.001734972815
v 0.001210310962 -0.003013816662 -0.001733892132
v 0.001241601654 0.003143905662 -0.002138496377
v 0.001243314124 -0.003145414637 -0.002134947805
v 0.001251604641 -0.002887062263 -0.001208228408
v 0.001281121862 0.002871166915 -0.001162397326
v 0.001330009429 -0.003268694505 -0.002204386517
v 0.001331274048 0.003087451914 -0.00179617852
v 0.001364643569 -0.002805053489 -0.001016301219
v 0.00138125394 0.003012971021 -0.00148920028
v 0.001381299109 -0.003013025504 -0.001490561408
v 0.001385819633 -0.006999998819 -0.0005740182823
v 0.001385819633 -0.006999998819 0.0005740318447
v 0.001385819633 0.004950000905 0.0005740302149
v 0.001385819633 0.00495000137 -0.0005740199704
v 0.001385819865 -0.004949999042 -0.000574018457
v 0.001385819865 -0.004949998576 0.0005740316119
v 0.001385819982 0.007000001147 -0.000574020145
v 0.001385819982 0.007000001613 0.0005740299821
v 0.001388607896 0.002777589019 -0.0009686184931
v 0.001390231075 0.003410489298 -0.002264501294
v 0.00139182026 -0.003412135178 -0.002260637237
v 0.001415838371 0.001790140057 0.007424131501
v 0.001415845589 -0.001790142967 0.007424134295
v 0.001426154166 -0.003569511697 -0.002301358851
v 0.001438438077 0.003186938353 -0.001849371823
v 0.001439538086 -0.003187909257 -0.001848073327
v 0.00144264265 -0.002690879162 -0.0008470859611
v 0.001457282226 0.002656931058 -0.0008083066787
v 0.001490685274 -0.002549692988 -0.0007080421783
v 0.001500000362 -0.004949997645 5.186707952e-09
v 0.001500000362 0.007000001147 3.667310455e-09
v 0.001500000479 -0.006999997422 5.366313172e-09
v 0.001500000479 0.004950000905 3.846915675e-09
v 0.001502216444 0.002494888846 -0.0006671375595
v 0.001520369551 -0.002370241797 -0.0005939716357
v 0.001521225204 -0.002970634727 -0.001244676183
v 0.001521336031 0.002970735542 -0.001243279083
v 0.001526874024 0.002300868044 -0.0005633631954
v 0.001527695684 -0.003308655694 -0.001891086227
v 0.001534758951 -0.002166685415 -0.0005215428537
v 0.001537256641 0.002085215412 -0.0005063003628
v 0.001538681681 -0.001949998667 -0.0004967281129
v 0.001538682147 0.001950001111 -0.0004967266577
v 0.001549089677 -0.003747909097 -0.002129042521
v 0.001551381429 0.003746619215 -0.002125933301
v 0.001592405955 0.00344519387 -0.001923668431
v 0.001593422494 -0.003446204355 -0.001922299853
v 0.001595044159 -0.004949999042 -0.00204830477
v 0.001595044276 0.004950000439 -0.002048306167
v 0.001607296406 0.003188074334 -0.00155043765
v 0.001607352402 -0.003188124392 -0.001552014612
v 0.001628734404 0.00288439123 -0.00100960175
v 0.001629021484 -0.002884547692 -0.001009594416
v 0.0016342866 -0.003595340764 -0.001940623741
v 0.001704305527 0.002754259855 -0.0008019628585
v 0.001704699825 -0.002754452871 -0.0008014032501
v 0.00174381223 -0.003139367094 -0.001253083814
v 0.001743923174 0.003139499109 -0.001251453999
v 0.001752409851 0.002585912356 -0.0006309925811
v 0.001752503566 -0.002585849958 -0.0006310564349
v 0.001764254645 0.003433930455 -0.00157125853
v 0.001764281536 -0.00343389716 -0.001573023968
v 0.001780173392 -0.002389051951 -0.0005051910412
v 0.00178029784 0.002389268251 -0.0005046550068
v 0.001794067328 -0.00217405241 -0.0004285626637
v 0.00179410656 0.002174152527 -0.0004283046292
v 0.001839243108 0.003714798717 -0.001528814319
v 0.001846286817 -0.003711803351 -0.001513203373
v 0.001847944921 0.003039157018 -0.0009672400192
v 0.001848241547 -0.003039326053 -0.0009672065498
v 0.001860231743 -0.001949998434 -0.0003630748251
v 0.001860231743 0.001950001344 -0.0003630733117
v 0.001901279786 -0.003367722733 -0.00121982547
v 0.001901417505 0.003367946483 -0.001218026504
v 0.001920661889 0.002887551906 -0.0007143164403
v 0.001921067946 -0.002887763781 -0.0007136360509
v 0.001966639422 0.002691286849 -0.0005056539667
v 0.001966734417 -0.002691202331 -0.0005057049566
v 0.001968724653 0.004950000905 -0.001167361857
v 0.001968725119 -0.004949997645 -0.001167360577
v 0.001969238976 0.003633380169 -0.001164107583
v 0.001969728852 -0.003632424399 -0.001164042042
v 0.001992998179 -0.002461762168 -0.000351817318
v 0.00199313811 0.002462018281 -0.0003511916439
v 0.002003771719 0.003244354157 -0.0008809143328
v 0.002004008042 -0.003244495485 -0.0008808935527
v 0.00200617034 -0.002211141167 -0.0002579817956
v 0.002006236929 0.002211259911 -0.0002576783008
v 0.00200983393 0.001950001577 -0.0002263846109
v 0.002009865595 -0.001949998317 -0.0002263512288
v 0.002022041241 0.003573284484 -0.0009844686138
v 0.00202776026 -0.00356511143 -0.0009644373786
v 0.002073023701 0.003062907141 -0.0005790361902
v 0.002073355252 -0.003063115291 -0.0005782935768
v 0.002078215359 0.003476395039 -0.0007605563151
v 0.002078347374 -0.003476521233 -0.0007605729043
v 0.002114565345 0.002830222715 -0.0003281137906
v 0.002114599105 -0.002830102341 -0.0003281834652
v 0.002120327204 0.001950001111 -5.642790711e-05
v 0.00212032767 -0.001949997968 -5.642200995e-05
v 0.002130977111 -0.003321658354 -0.0004946450354
v 0.002131574554 0.003318032715 -0.000490553095
v 0.002136644209 -0.002558295382 -0.0001417387102
v 0.002136823721 0.002558605047 -0.000141042794
v 0.002146786079 -0.002260653768 -2.729361404e-05
v 0.002146879677 0.002260795329 -2.695208059e-05
v 0.002147975843 0.003240739927 -0.0003857179545
v 0.002167737111 -0.004949998111 -0.0002313674049
v 0.00216773781 0.004950001836 -0.0002313614386
v 0.002173236338 -0.003056304995 -0.0001817425655
v 0.002187079052 0.002867664676 -2.34710551e-05
v 0.002194692846 0.002667875262 0.0001015057715
v 0.002195313806 -0.002632966032 0.0001184926514
v 0.002198732691 0.002425782615 0.000204994154
v 0.002199316397 -0.002316783182 0.0002363299427
v 0.0021997164 -0.002158800839 0.0002676612348
v 0.002199718263 0.001950000413 0.0002826207783
v 0.002199718496 -0.00194999855 0.0002826267155
v 0.002199999988 -0.002071436262 0.007261658087
v 0.002199999988 0.004950000905 0.0003357205424
v 0.002200000221 -0.004949998111 0.0003357218229
v 0.002200000221 -0.004865623545 0.005105201621
v 0.002200000221 -0.001496196724 0.007562398445
v 0.002200000221 -0.001340576331 0.005124880932
v 0.002200000221 -0.0008749982808 0.005515548401
v 0.002200000221 -0.0003038833383 0.005723415874
v 0.002200000221 0.0003038851428 0.00227658893
v 0.002200000221 0.001340579125 0.002875123639
v 0.002200000221 0.001644463744 0.003401468508
v 0.002200000221 0.004254165571 0.005875427742
v 0.002200000221 0.004865626339 0.005105192773
v 0.002200000454 -0.004621990956 0.005545395892
v 0.002200000454 -0.001749998424 0.004000007175
v 0.002200000454 -0.0008749991539 0.002484460827
v 0.002200000454 0.000303886045 0.005723419134
v 0.002200000454 0.001340578543 0.005124881864
v 0.002200000454 0.001496190904 0.007562400308
v 0.002200000454 0.001644463278 0.00459854072
v 0.002200000454 0.00207143696 0.007261661347
v 0.002200000454 0.004621995147 0.005545386113
v 0.002200000687 -0.004949998576 0.004609218333
v 0.002200000687 -0.001644460717 0.003401471069
v 0.002200000687 -0.001340575982 0.002875129925
v 0.002200000687 -0.0003038826108 0.002276592655
v 0.002200000687 0.0008750016568 0.005515551195
v 0.002200000687 0.001750000869 0.004000004847
v 0.002200000687 0.00495000137 0.00460920902
v 0.002200000919 -0.00425416138 0.005875442177
v 0.002200000919 -0.001644460252 0.004598543514
v 0.002200000919 0.000875001715 0.002484463388
f 37 39 41
f 41 39 43
f 41 43 45
f 45 43 49
f 49 43 47
f 49 47 51
f 50 52 48
f 50 48 46
f 38 42 40
f 40 42 46
f 40 46 44
f 44 46 48
f 51 47 54
f 51 54 57
f 57 54 56
f 57 56 60
f 60 56 63
f 63 56 62
f 63 62 66
f 66 62 72
f 72 62 68
f 72 68 73
f 307 248 312
f 398 369 312
f 312 369 329
f 312 329 307
f 366 397 312
f 312 397 418
f 312 418 398
f 249 310 312
f 312 310 330
f 312 330 366
f 104 113 312
f 312 113 135
f 312 135 249
f 248 139 312
f 312 139 111
f 312 111 104
f 298 428 297
f 297 428 426
f 297 426 296
f 426 421 296
f 296 421 415
f 296 415 294
f 294 415 413
f 294 413 293
f 293 413 291
f 291 413 394
f 291 394 288
f 354 284 375
f 375 284 288
f 375 288 390
f 390 288 394
f 238 123 284
f 72 73 91
f 91 73 84
f 91 84 123
f 123 84 99
f 123 99 284
f 284 99 220
f 284 220 264
f 264 220 241
f 354 352 284
f 284 352 349
f 284 349 347
f 51 57 33
f 51 33 49
f 323 317 284
f 317 300 284
f 284 300 269
f 284 269 238
f 27 37 33
f 57 60 33
f 33 60 63
f 33 63 91
f 91 63 66
f 91 66 72
f 347 345 284
f 284 345 337
f 284 337 323
f 37 41 33
f 33 41 45
f 33 45 49
f 33 31 27
f 27 31 22
f 27 22 14
f 10 17 3
f 3 17 27
f 3 27 5
f 5 27 14
f 298 299 428
f 428 299 429
f 289 287 391
f 283 353 287
f 287 353 378
f 287 378 391
f 289 391 290
f 290 391 405
f 290 405 292
f 405 414 292
f 292 414 420
f 292 420 295
f 429 299 427
f 427 299 295
f 427 295 424
f 424 295 420
f 74 70 71
f 71 70 61
f 71 61 65
f 65 61 64
f 64 61 55
f 64 55 59
f 59 55 53
f 59 53 58
f 58 53 48
f 58 48 52
f 283 124 239
f 94 83 74
f 239 277 283
f 283 277 301
f 283 301 318
f 270 253 221
f 83 94 100
f 100 94 124
f 100 124 221
f 221 124 283
f 221 283 270
f 253 243 221
f 221 243 242
f 221 242 240
f 59 58 35
f 35 58 52
f 318 324 283
f 283 324 338
f 283 338 346
f 346 348 283
f 283 348 355
f 283 355 353
f 74 71 94
f 94 71 65
f 94 65 35
f 35 65 64
f 35 64 59
f 52 50 35
f 35 50 46
f 35 46 42
f 42 38 35
f 35 38 25
f 35 25 32
f 32 25 20
f 32 20 24
f 8 15 1
f 1 15 24
f 1 24 11
f 11 24 20
f 304 331 313
f 117 132 313
f 313 132 252
f 313 252 304
f 136 115 313
f 313 115 105
f 313 105 117
f 332 306 313
f 313 306 247
f 313 247 136
f 417 403 313
f 313 403 371
f 313 371 332
f 331 368 313
f 313 368 404
f 313 404 417
f 125 129 146
f 146 129 131
f 146 131 140
f 217 219 220
f 199 203 89
f 125 146 119
f 119 146 161
f 119 161 108
f 108 161 174
f 108 174 102
f 102 174 155
f 102 155 97
f 97 155 195
f 97 195 89
f 89 195 197
f 89 197 199
f 219 223 220
f 220 223 225
f 220 225 241
f 84 73 68
f 68 75 84
f 84 75 77
f 84 77 99
f 203 217 89
f 89 217 220
f 89 220 87
f 87 220 99
f 87 99 81
f 81 99 77
f 281 259 261
f 285 298 297
f 200 214 215
f 241 225 227
f 205 203 199
f 199 197 205
f 205 197 195
f 205 195 207
f 223 219 205
f 205 219 217
f 205 217 203
f 288 284 264
f 200 215 188
f 195 162 207
f 207 162 187
f 207 187 209
f 209 187 192
f 209 192 211
f 211 192 184
f 211 184 215
f 215 184 193
f 215 193 188
f 259 281 257
f 257 281 279
f 257 279 255
f 225 223 227
f 227 223 205
f 227 205 229
f 229 205 207
f 229 207 231
f 231 207 209
f 231 209 233
f 233 209 211
f 233 211 235
f 235 211 215
f 235 215 236
f 236 215 214
f 285 297 271
f 268 271 266
f 266 271 297
f 266 297 263
f 263 297 296
f 263 296 261
f 261 296 294
f 261 294 281
f 281 294 293
f 293 291 281
f 281 291 288
f 281 288 279
f 279 288 264
f 279 264 255
f 255 264 241
f 255 241 257
f 257 241 227
f 257 227 259
f 259 227 229
f 259 229 261
f 261 229 231
f 261 231 263
f 263 231 233
f 263 233 266
f 266 233 235
f 266 235 268
f 268 235 236
f 280 292 295
f 260 258 280
f 280 258 256
f 222 224 226
f 253 254 243
f 283 287 270
f 243 254 242
f 242 254 256
f 242 256 240
f 222 226 218
f 196 198 204
f 204 198 202
f 204 202 216
f 196 204 194
f 194 204 206
f 194 206 191
f 191 206 208
f 191 208 172
f 212 213 201
f 208 210 172
f 172 210 212
f 172 212 177
f 177 212 201
f 177 201 165
f 253 270 254
f 254 270 287
f 254 287 256
f 256 287 289
f 256 289 280
f 280 289 290
f 280 290 292
f 232 262 234
f 234 262 265
f 234 265 237
f 237 265 267
f 267 265 272
f 272 265 262
f 272 262 286
f 286 262 282
f 286 282 299
f 224 240 226
f 226 240 256
f 226 256 228
f 228 256 258
f 228 258 230
f 230 258 260
f 230 260 232
f 232 260 262
f 262 260 280
f 262 280 282
f 282 280 295
f 282 295 299
f 216 218 204
f 204 218 226
f 204 226 206
f 206 226 228
f 206 228 208
f 208 228 230
f 208 230 210
f 210 230 232
f 210 232 212
f 212 232 234
f 212 234 213
f 213 234 237
f 240 224 221
f 221 224 222
f 221 222 218
f 216 202 90
f 90 202 198
f 198 196 90
f 90 196 194
f 90 194 98
f 98 194 101
f 194 166 101
f 101 166 148
f 101 148 109
f 109 148 120
f 148 152 120
f 120 152 173
f 120 173 126
f 173 154 126
f 126 154 167
f 126 167 130
f 130 167 153
f 218 216 221
f 221 216 90
f 221 90 100
f 90 88 100
f 100 88 82
f 100 82 83
f 70 74 76
f 76 74 83
f 76 83 78
f 78 83 82
f 33 34 30
f 33 30 31
f 31 30 21
f 31 21 22
f 22 21 13
f 22 13 14
f 14 13 7
f 14 7 5
f 5 7 2
f 5 2 3
f 3 2 9
f 3 9 10
f 10 9 19
f 10 19 17
f 17 19 26
f 17 26 27
f 37 27 26
f 67 68 62
f 67 62 26
f 62 56 26
f 26 56 54
f 26 54 47
f 47 43 26
f 26 43 39
f 26 39 37
f 68 67 75
f 75 67 80
f 75 80 77
f 77 80 81
f 81 80 86
f 81 86 87
f 87 86 89
f 89 86 95
f 89 95 97
f 97 95 102
f 102 95 107
f 102 107 108
f 168 140 131
f 168 131 128
f 131 129 128
f 128 129 125
f 128 125 107
f 107 125 119
f 107 119 108
f 518 534 186
f 186 169 518
f 518 169 149
f 518 149 508
f 508 149 179
f 508 179 527
f 34 33 93
f 93 33 91
f 356 341 339
f 276 238 269
f 354 374 352
f 387 375 396
f 396 375 390
f 396 390 422
f 422 390 394
f 422 394 439
f 439 394 413
f 439 413 442
f 442 413 415
f 442 415 446
f 446 415 421
f 446 421 449
f 449 421 426
f 449 426 451
f 451 426 428
f 451 428 457
f 337 345 360
f 360 345 351
f 360 351 358
f 354 375 374
f 374 375 387
f 374 387 352
f 352 387 358
f 352 358 349
f 349 358 351
f 349 351 347
f 347 351 345
f 317 315 300
f 300 315 303
f 300 303 269
f 269 303 278
f 269 278 276
f 472 482 478
f 472 478 459
f 459 478 468
f 459 468 448
f 448 468 454
f 448 454 440
f 440 454 430
f 440 430 410
f 335 377 381
f 392 389 425
f 425 389 412
f 425 412 437
f 356 361 341
f 341 361 343
f 341 343 319
f 335 381 339
f 339 381 385
f 339 385 356
f 356 385 382
f 356 382 361
f 410 407 440
f 440 407 433
f 440 433 448
f 360 377 337
f 337 377 335
f 337 335 323
f 323 335 339
f 323 339 317
f 317 339 341
f 317 341 315
f 315 341 319
f 315 319 303
f 476 486 473
f 473 486 491
f 473 491 469
f 469 491 489
f 469 489 464
f 464 489 484
f 464 484 462
f 462 484 480
f 462 480 456
f 456 480 472
f 456 472 443
f 443 472 459
f 443 459 437
f 437 459 448
f 437 448 425
f 425 448 433
f 425 433 392
f 392 433 407
f 482 472 487
f 487 472 480
f 487 480 496
f 496 480 484
f 496 484 499
f 499 484 489
f 499 489 501
f 501 489 491
f 501 491 502
f 502 491 486
f 502 486 504
f 457 476 451
f 451 476 473
f 451 473 449
f 449 473 469
f 449 469 446
f 446 469 464
f 446 464 442
f 442 464 462
f 442 462 439
f 439 462 456
f 439 456 422
f 422 456 443
f 422 443 396
f 396 443 437
f 396 437 387
f 387 437 412
f 387 412 358
f 358 412 389
f 358 389 360
f 360 389 392
f 360 392 377
f 377 392 407
f 377 407 381
f 381 407 410
f 381 410 385
f 385 410 430
f 385 430 382
f 428 429 458
f 503 504 485
f 485 504 486
f 485 486 475
f 475 486 476
f 475 476 458
f 458 476 457
f 458 457 428
f 393 411 436
f 316 320 342
f 357 384 380
f 275 302 314
f 277 239 244
f 244 275 277
f 277 275 314
f 277 314 301
f 301 314 318
f 378 353 373
f 373 353 355
f 373 355 348
f 346 350 348
f 348 350 386
f 348 386 373
f 373 386 395
f 373 395 378
f 378 395 423
f 378 423 391
f 391 423 438
f 391 438 405
f 405 438 441
f 405 441 414
f 414 441 445
f 414 445 420
f 420 445 450
f 420 450 424
f 424 450 452
f 424 452 427
f 427 452 458
f 427 458 429
f 393 379 388
f 379 359 388
f 388 359 376
f 388 376 406
f 406 376 380
f 406 380 431
f 431 380 384
f 431 384 383
f 342 357 340
f 340 357 380
f 340 380 336
f 336 380 376
f 342 320 357
f 357 320 344
f 357 344 384
f 384 344 362
f 384 362 383
f 471 460 477
f 477 481 471
f 471 481 488
f 471 488 479
f 479 488 493
f 479 493 483
f 483 493 497
f 483 497 490
f 490 497 498
f 490 498 492
f 492 498 500
f 492 500 485
f 485 500 503
f 411 432 436
f 436 432 447
f 436 447 444
f 444 447 460
f 444 460 455
f 455 460 471
f 455 471 461
f 461 471 479
f 461 479 463
f 463 479 483
f 463 483 470
f 470 483 490
f 470 490 474
f 474 490 492
f 474 492 475
f 475 492 485
f 393 388 411
f 411 388 406
f 411 406 432
f 432 406 431
f 432 431 447
f 447 431 453
f 447 453 460
f 460 453 467
f 460 467 477
f 302 316 314
f 314 316 342
f 314 342 318
f 318 342 340
f 318 340 324
f 324 340 336
f 324 336 338
f 338 336 376
f 338 376 346
f 346 376 359
f 346 359 350
f 350 359 379
f 350 379 386
f 386 379 393
f 386 393 395
f 395 393 436
f 395 436 423
f 423 436 444
f 423 444 438
f 438 444 455
f 438 455 441
f 441 455 461
f 441 461 445
f 445 461 463
f 445 463 450
f 450 463 470
f 450 470 452
f 452 470 474
f 452 474 458
f 458 474 475
f 36 35 32
f 36 32 29
f 29 32 24
f 29 24 23
f 23 24 15
f 23 15 16
f 16 15 8
f 16 8 6
f 6 8 1
f 6 1 4
f 4 1 11
f 4 11 12
f 12 11 20
f 12 20 18
f 18 20 25
f 18 25 28
f 53 55 28
f 28 55 69
f 69 55 61
f 69 61 70
f 25 38 28
f 28 38 40
f 40 44 28
f 28 44 48
f 28 48 53
f 70 76 69
f 69 76 79
f 76 78 79
f 79 78 82
f 79 82 85
f 85 82 88
f 85 88 96
f 96 88 90
f 96 90 98
f 130 153 160
f 130 160 126
f 126 160 127
f 126 127 120
f 120 127 110
f 120 110 109
f 96 98 110
f 110 98 101
f 110 101 109
f 36 92 35
f 35 92 94
f 178 141 516
f 516 526 178
f 178 526 517
f 178 517 145
f 145 517 533
f 145 533 183
f 523 525 408
f 408 525 325
f 326 505 409
f 409 505 509
f 140 156 163
f 190 175 188
f 153 176 185
f 152 148 191
f 191 148 166
f 191 166 194
f 144 142 170
f 170 142 159
f 152 191 173
f 173 191 172
f 173 172 154
f 162 195 155
f 185 150 153
f 153 150 182
f 153 182 160
f 188 175 165
f 165 175 176
f 165 176 177
f 177 176 153
f 177 153 172
f 172 153 167
f 172 167 154
f 192 147 161
f 161 147 162
f 161 162 174
f 174 162 155
f 160 182 183
f 183 182 151
f 183 151 145
f 145 151 171
f 145 171 178
f 178 171 141
f 141 171 164
f 141 164 159
f 159 164 158
f 159 158 170
f 144 157 142
f 142 157 156
f 142 156 186
f 186 156 140
f 188 193 190
f 190 193 143
f 190 143 181
f 163 189 140
f 140 189 180
f 140 180 146
f 146 180 181
f 146 181 161
f 161 181 143
f 161 143 192
f 149 169 179
f 179 169 186
f 179 186 168
f 168 186 140
f 142 186 326
f 326 186 534
f 326 534 505
f 137 246 128
f 128 246 168
f 305 251 122
f 112 80 133
f 133 80 34
f 133 34 251
f 251 34 93
f 251 93 122
f 13 21 30
f 137 128 114
f 114 128 107
f 114 107 103
f 103 107 95
f 103 95 112
f 112 95 86
f 112 86 80
f 168 246 179
f 179 246 311
f 179 311 527
f 80 67 34
f 34 67 26
f 34 26 30
f 30 26 19
f 311 327 527
f 527 327 367
f 527 367 507
f 507 367 402
f 507 402 494
f 494 402 416
f 494 416 466
f 466 416 401
f 466 401 434
f 434 401 365
f 434 365 363
f 363 365 328
f 363 328 322
f 322 328 305
f 322 305 274
f 274 305 122
f 7 13 2
f 2 13 30
f 2 30 9
f 9 30 19
f 302 275 273
f 273 275 121
f 121 275 244
f 121 244 239
f 321 364 362
f 362 344 321
f 321 344 320
f 321 320 273
f 273 320 316
f 273 316 302
f 465 453 435
f 435 453 431
f 435 431 364
f 364 431 383
f 364 383 362
f 488 481 495
f 495 481 477
f 495 477 465
f 465 477 467
f 465 467 453
f 507 501 502
f 502 504 507
f 507 504 503
f 507 503 506
f 506 503 500
f 500 498 506
f 506 498 497
f 506 497 495
f 495 497 493
f 495 493 488
f 482 487 494
f 494 487 496
f 494 496 507
f 507 496 499
f 507 499 501
f 466 468 494
f 494 468 478
f 494 478 482
f 363 382 434
f 434 382 430
f 434 430 466
f 466 430 454
f 466 454 468
f 322 343 363
f 363 343 361
f 363 361 382
f 276 278 274
f 274 278 303
f 274 303 322
f 322 303 319
f 322 319 343
f 276 274 238
f 238 274 122
f 238 122 123
f 123 122 93
f 123 93 91
f 239 124 121
f 121 124 94
f 121 94 92
f 138 250 92
f 333 372 435
f 435 372 465
f 465 372 400
f 465 400 495
f 495 400 419
f 495 419 506
f 506 419 399
f 506 399 533
f 12 18 28
f 28 69 36
f 36 69 79
f 435 364 333
f 333 364 321
f 333 321 309
f 309 321 273
f 309 273 250
f 250 273 121
f 250 121 92
f 92 36 138
f 138 36 79
f 138 79 116
f 116 79 85
f 116 85 106
f 106 85 96
f 106 96 118
f 118 96 110
f 118 110 134
f 134 110 127
f 134 127 245
f 245 127 160
f 245 160 308
f 308 160 183
f 308 183 334
f 334 183 533
f 334 533 370
f 370 533 399
f 23 16 6
f 36 29 28
f 28 29 23
f 28 23 12
f 12 23 6
f 12 6 4
f 525 516 325
f 325 516 141
f 325 141 159
f 159 142 326
f 509 523 409
f 409 523 408
f 409 408 326
f 326 408 325
f 326 325 159
f 514 536 506
f 506 536 513
f 506 513 507
f 507 513 530
f 507 530 520
f 520 529 507
f 507 529 528
f 507 528 527
f 527 528 519
f 527 519 508
f 508 519 535
f 508 535 518
f 518 535 534
f 534 535 510
f 534 510 505
f 505 510 511
f 505 511 509
f 509 511 512
f 509 512 523
f 523 512 521
f 523 521 525
f 525 521 531
f 525 531 516
f 516 531 522
f 516 522 526
f 526 522 524
f 526 524 517
f 517 524 532
f 517 532 533
f 533 532 506
f 506 532 515
f 506 515 514
f 299 298 286
f 286 298 285
f 286 285 272
f 272 285 271
f 272 271 267
f 267 271 268
f 267 268 237
f 237 268 236
f 237 236 213
f 213 236 214
f 213 214 201
f 201 214 200
f 201 200 165
f 165 200 188
f 307 246 248
f 248 246 137
f 248 137 139
f 139 137 114
f 139 114 111
f 111 114 103
f 111 103 104
f 104 103 112
f 104 112 113
f 113 112 133
f 113 133 135
f 135 133 251
f 135 251 249
f 249 251 305
f 249 305 310
f 310 305 328
f 310 328 330
f 330 328 365
f 330 365 366
f 366 365 401
f 366 401 397
f 397 401 416
f 397 416 418
f 418 416 402
f 418 402 398
f 398 402 367
f 398 367 369
f 369 367 327
f 369 327 329
f 329 327 311
f 329 311 307
f 307 311 246
f 308 252 245
f 245 252 132
f 245 132 134
f 134 132 117
f 134 117 118
f 118 117 105
f 118 105 106
f 106 105 115
f 106 115 116
f 116 115 136
f 116 136 138
f 138 136 247
f 138 247 250
f 250 247 306
f 250 306 309
f 309 306 332
f 309 332 333
f 333 332 371
f 333 371 372
f 372 371 403
f 372 403 400
f 400 403 417
f 400 417 419
f 419 417 404
f 419 404 399
f 399 404 368
f 399 368 370
f 370 368 331
f 370 331 334
f 334 331 304
f 334 304 308
f 308 304 252
f 151 532 171
f 171 532 524
f 171 524 164
f 164 524 522
f 164 522 158
f 158 522 531
f 158 531 170
f 170 531 521
f 170 521 144
f 144 521 512
f 144 512 157
f 157 512 511
f 157 511 156
f 156 511 510
f 156 510 163
f 163 510 535
f 163 535 189
f 189 535 519
f 189 519 180
f 180 519 528
f 180 528 181
f 181 528 529
f 181 529 190
f 190 529 520
f 190 520 175
f 175 520 530
f 175 530 176
f 176 530 513
f 176 513 185
f 185 513 536
f 185 536 150
f 150 536 514
f 150 514 182
f 182 514 515
f 182 515 151
f 151 515 532
