v -0.06404298544 -0.027660653 -0.0002639168524
v -0.06404298544 -0.02392478846 -0.01420638151
v -0.06404298544 -0.02392477542 0.01367854327
v -0.06404298544 -0.01371820737 -0.02441297658
v -0.06404298544 -0.01371818595 0.02388513088
v -0.06404298544 0.0002242742194 -0.02814885788
v -0.06404298544 0.0002242784249 0.02762100101
v -0.06404298544 0.01416673884 -0.02441298403
v -0.06404298544 0.01416673977 0.02388512902
v -0.06404298544 0.02437333204 -0.01420639362
v -0.06404298544 0.02437333204 0.01367853582
v -0.06404298544 0.02810920402 -0.0002639285813
v 0.0002500042319 -0.02766065672 -0.0002639147569
v 0.0002500113624 0.0002242748888 0.02762099914
v 0.0002500113915 -0.01371818874 0.02388512902
v 0.0002500115079 0.02437333018 0.01367853861
v 0.0002500188421 0.01416673698 0.02388512529
v 0.0002500189585 -0.02392477915 0.01367854513
v 0.0002500193077 0.02437333018 -0.01420639083
v 0.0002500194241 -0.01371821016 -0.0244129803
v 0.0002500267583 -0.02392479219 -0.01420637779
v 0.0002500268747 0.01416673604 -0.02441298775
v 0.0002500269329 0.0002242706832 -0.02814885974
v 0.0002500340343 0.02810920216 -0.0002639264858
f 2 1 3
f 3 5 7
f 7 9 11
f 3 7 11
f 11 12 10
f 10 8 6
f 11 10 6
f 3 11 6
f 2 3 6
f 4 2 6
f 6 8 22
f 22 23 6
f 8 10 19
f 19 22 8
f 10 12 24
f 24 19 10
f 12 11 16
f 16 24 12
f 11 9 17
f 17 16 11
f 9 7 14
f 14 17 9
f 7 5 15
f 15 14 7
f 5 3 18
f 18 15 5
f 3 1 13
f 13 18 3
f 1 2 21
f 21 13 1
f 2 4 20
f 20 21 2
f 4 6 23
f 23 20 4
f 23 22 19
f 19 24 16
f 16 17 14
f 19 16 14
f 14 15 18
f 18 13 21
f 14 18 21
f 19 14 21
f 23 19 21
f 20 23 21
