v -0.01998178847 0.000224277057 -0.1446028799
v -0.01998178661 0.0002242739429 0.00989381969
v -0.01726937853 -0.009898579679 -0.1446028799
v -0.01726937667 -0.009898582473 0.00989381969
v -0.01726937667 0.01034713164 -0.1446028799
v -0.0172693748 0.01034712885 0.00989381969
v -0.009858936071 -0.01730902493 0.00989381969
v -0.009858936071 -0.01730902307 -0.1446028799
v -0.009858931415 0.01775757596 0.00989381969
v -0.009858930483 0.01775757782 -0.1446028799
v 0.0002639171435 -0.02002144046 0.00989381969
v 0.0002639171726 -0.0200214386 -0.1446028799
v 0.0002639256709 0.02046998776 0.009893834591
v 0.0002639257 0.02046998963 -0.1446028799
v 0.01038677339 -0.01730903424 0.009893834591
v 0.01038677432 -0.01730903238 -0.1446028799
v 0.0103867827 0.01775757596 0.009893834591
v 0.01038678363 0.01775757782 -0.1446028799
v 0.01779722236 -0.009898595512 -0.1446028799
v 0.01779722422 -0.009898598306 0.009893834591
v 0.01779722795 0.01034713071 -0.1446028799
v 0.01779722981 0.01034712791 0.009893834591
v 0.02050963975 0.0002242740011 -0.1446028799
v 0.02050964162 0.000224270887 0.009893834591
f 16 12 8
f 8 3 1
f 1 5 10
f 8 1 10
f 10 14 18
f 18 21 23
f 10 18 23
f 8 10 23
f 16 8 23
f 19 16 23
f 23 21 22
f 22 24 23
f 21 18 17
f 17 22 21
f 18 14 13
f 13 17 18
f 14 10 9
f 9 13 14
f 10 5 6
f 6 9 10
f 5 1 2
f 2 6 5
f 1 3 4
f 4 2 1
f 3 8 7
f 7 4 3
f 8 12 11
f 11 7 8
f 12 16 15
f 15 11 12
f 16 19 20
f 20 15 16
f 19 23 24
f 24 20 19
f 24 22 17
f 17 13 9
f 9 6 2
f 17 9 2
f 2 4 7
f 7 11 15
f 2 7 15
f 17 2 15
f 24 17 15
f 20 24 15
