mtllib labeled.mtl
v -0.005080 0.004481 -0.045183
v 0.005080 0.004481 -0.045183
v 0.005080 0.006821 -0.045183
v -0.005080 0.006821 -0.045183
v -0.005080 0.004481 -0.016105
v 0.005080 0.004481 -0.016105
v 0.005080 0.006821 -0.016105
v -0.005080 0.006821 -0.016105
v -0.008789 -0.004481 -0.074528
v 0.008789 -0.004481 -0.074528
v 0.008789 0.004481 -0.074528
v -0.008789 0.004481 -0.074528
v -0.008789 -0.004481 0.074528
v 0.008789 -0.004481 0.074528
v 0.008789 0.004481 0.074528
v -0.008789 0.004481 0.074528
usemtl red
f 1 4 3 2
f 5 6 7 8
usemtl gray
f 1 2 6 5
usemtl green
f 3 4 8 7
usemtl red
f 2 3 7 6
f 1 5 8 4
f 9 12 11 10
f 13 14 15 16
usemtl blue
f 9 10 14 13
usemtl red
f 11 12 16 15
f 10 11 15 14
f 9 13 16 12
