mtllib labeled.mtl
v -0.005242 0.004534 -0.051922
v 0.005242 0.004534 -0.051922
v 0.005242 0.006748 -0.051922
v -0.005242 0.006748 -0.051922
v -0.005242 0.004534 -0.022196
v 0.005242 0.004534 -0.022196
v 0.005242 0.006748 -0.022196
v -0.005242 0.006748 -0.022196
v -0.009955 -0.004534 -0.076357
v 0.009955 -0.004534 -0.076357
v 0.009955 0.004534 -0.076357
v -0.009955 0.004534 -0.076357
v -0.009955 -0.004534 0.076357
v 0.009955 -0.004534 0.076357
v 0.009955 0.004534 0.076357
v -0.009955 0.004534 0.076357
usemtl red
f 1 4 3 2
f 5 6 7 8
usemtl gray
f 1 2 6 5
usemtl green
f 3 4 8 7
usemtl red
f 2 3 7 6
f 1 5 8 4
f 9 12 11 10
f 13 14 15 16
usemtl blue
f 9 10 14 13
usemtl red
f 11 12 16 15
f 10 11 15 14
f 9 13 16 12
