mtllib labeled.mtl
v -0.004986 0.004088 -0.059636
v 0.004986 0.004088 -0.059636
v 0.004986 0.006260 -0.059636
v -0.004986 0.006260 -0.059636
v -0.004986 0.004088 -0.028874
v 0.004986 0.004088 -0.028874
v 0.004986 0.006260 -0.028874
v -0.004986 0.006260 -0.028874
v -0.009473 -0.004088 -0.075061
v 0.009473 -0.004088 -0.075061
v 0.009473 0.004088 -0.075061
v -0.009473 0.004088 -0.075061
v -0.009473 -0.004088 0.075061
v 0.009473 -0.004088 0.075061
v 0.009473 0.004088 0.075061
v -0.009473 0.004088 0.075061
usemtl red
f 1 4 3 2
f 5 6 7 8
usemtl gray
f 1 2 6 5
usemtl green
f 3 4 8 7
usemtl red
f 2 3 7 6
f 1 5 8 4
f 9 12 11 10
f 13 14 15 16
usemtl blue
f 9 10 14 13
usemtl red
f 11 12 16 15
f 10 11 15 14
f 9 13 16 12
